<?xml version="1.0" encoding="utf-8"?>
<svg xmlns="http://www.w3.org/2000/svg" xmlns:xlink="http://www.w3.org/1999/xlink" width="700" height="350" viewBox="0 0 2800 1400">
<defs>
  <clipPath id="clip890">
    <rect x="0" y="0" width="2800" height="1400"/>
  </clipPath>
</defs>
<path clip-path="url(#clip890)" d="M0 1400 L2800 1400 L2800 0 L0 0  Z" fill="#ffffff" fill-rule="evenodd" fill-opacity="1"/>
<defs>
  <clipPath id="clip891">
    <rect x="241" y="108" width="2512" height="1138"/>
  </clipPath>
</defs>
<path clip-path="url(#clip890)" d="M241.315 1245.7 L2752.76 1245.7 L2752.76 108.352 L241.315 108.352  Z" fill="#ffffff" fill-rule="evenodd" fill-opacity="1"/>
<polyline clip-path="url(#clip891)" style="stroke:#000000; stroke-linecap:round; stroke-linejoin:round; stroke-width:2; stroke-opacity:0.1; fill:none" points="312.393,1245.7 312.393,108.352 "/>
<polyline clip-path="url(#clip891)" style="stroke:#000000; stroke-linecap:round; stroke-linejoin:round; stroke-width:2; stroke-opacity:0.1; fill:none" points="768.025,1245.7 768.025,108.352 "/>
<polyline clip-path="url(#clip891)" style="stroke:#000000; stroke-linecap:round; stroke-linejoin:round; stroke-width:2; stroke-opacity:0.1; fill:none" points="1223.66,1245.7 1223.66,108.352 "/>
<polyline clip-path="url(#clip891)" style="stroke:#000000; stroke-linecap:round; stroke-linejoin:round; stroke-width:2; stroke-opacity:0.1; fill:none" points="1679.29,1245.7 1679.29,108.352 "/>
<polyline clip-path="url(#clip891)" style="stroke:#000000; stroke-linecap:round; stroke-linejoin:round; stroke-width:2; stroke-opacity:0.1; fill:none" points="2134.92,1245.7 2134.92,108.352 "/>
<polyline clip-path="url(#clip891)" style="stroke:#000000; stroke-linecap:round; stroke-linejoin:round; stroke-width:2; stroke-opacity:0.1; fill:none" points="2590.55,1245.7 2590.55,108.352 "/>
<polyline clip-path="url(#clip891)" style="stroke:#000000; stroke-linecap:round; stroke-linejoin:round; stroke-width:2; stroke-opacity:0.1; fill:none" points="241.315,1082.72 2752.76,1082.72 "/>
<polyline clip-path="url(#clip891)" style="stroke:#000000; stroke-linecap:round; stroke-linejoin:round; stroke-width:2; stroke-opacity:0.1; fill:none" points="241.315,864.748 2752.76,864.748 "/>
<polyline clip-path="url(#clip891)" style="stroke:#000000; stroke-linecap:round; stroke-linejoin:round; stroke-width:2; stroke-opacity:0.1; fill:none" points="241.315,646.771 2752.76,646.771 "/>
<polyline clip-path="url(#clip891)" style="stroke:#000000; stroke-linecap:round; stroke-linejoin:round; stroke-width:2; stroke-opacity:0.1; fill:none" points="241.315,428.795 2752.76,428.795 "/>
<polyline clip-path="url(#clip891)" style="stroke:#000000; stroke-linecap:round; stroke-linejoin:round; stroke-width:2; stroke-opacity:0.1; fill:none" points="241.315,210.818 2752.76,210.818 "/>
<polyline clip-path="url(#clip890)" style="stroke:#000000; stroke-linecap:round; stroke-linejoin:round; stroke-width:4; stroke-opacity:1; fill:none" points="241.315,1245.7 2752.76,1245.7 "/>
<polyline clip-path="url(#clip890)" style="stroke:#000000; stroke-linecap:round; stroke-linejoin:round; stroke-width:4; stroke-opacity:1; fill:none" points="312.393,1245.7 312.393,1226.8 "/>
<polyline clip-path="url(#clip890)" style="stroke:#000000; stroke-linecap:round; stroke-linejoin:round; stroke-width:4; stroke-opacity:1; fill:none" points="768.025,1245.7 768.025,1226.8 "/>
<polyline clip-path="url(#clip890)" style="stroke:#000000; stroke-linecap:round; stroke-linejoin:round; stroke-width:4; stroke-opacity:1; fill:none" points="1223.66,1245.7 1223.66,1226.8 "/>
<polyline clip-path="url(#clip890)" style="stroke:#000000; stroke-linecap:round; stroke-linejoin:round; stroke-width:4; stroke-opacity:1; fill:none" points="1679.29,1245.7 1679.29,1226.8 "/>
<polyline clip-path="url(#clip890)" style="stroke:#000000; stroke-linecap:round; stroke-linejoin:round; stroke-width:4; stroke-opacity:1; fill:none" points="2134.92,1245.7 2134.92,1226.8 "/>
<polyline clip-path="url(#clip890)" style="stroke:#000000; stroke-linecap:round; stroke-linejoin:round; stroke-width:4; stroke-opacity:1; fill:none" points="2590.55,1245.7 2590.55,1226.8 "/>
<path clip-path="url(#clip890)" d="M312.393 1279.82 Q308.782 1279.82 306.954 1283.38 Q305.148 1286.92 305.148 1294.05 Q305.148 1301.16 306.954 1304.73 Q308.782 1308.27 312.393 1308.27 Q316.028 1308.27 317.833 1304.73 Q319.662 1301.16 319.662 1294.05 Q319.662 1286.92 317.833 1283.38 Q316.028 1279.82 312.393 1279.82 M312.393 1276.11 Q318.203 1276.11 321.259 1280.72 Q324.338 1285.3 324.338 1294.05 Q324.338 1302.78 321.259 1307.39 Q318.203 1311.97 312.393 1311.97 Q306.583 1311.97 303.504 1307.39 Q300.449 1302.78 300.449 1294.05 Q300.449 1285.3 303.504 1280.72 Q306.583 1276.11 312.393 1276.11 Z" fill="#000000" fill-rule="nonzero" fill-opacity="1" /><path clip-path="url(#clip890)" d="M742.713 1307.36 L750.351 1307.36 L750.351 1281 L742.041 1282.67 L742.041 1278.41 L750.305 1276.74 L754.981 1276.74 L754.981 1307.36 L762.62 1307.36 L762.62 1311.3 L742.713 1311.3 L742.713 1307.36 Z" fill="#000000" fill-rule="nonzero" fill-opacity="1" /><path clip-path="url(#clip890)" d="M782.064 1279.82 Q778.453 1279.82 776.624 1283.38 Q774.819 1286.92 774.819 1294.05 Q774.819 1301.16 776.624 1304.73 Q778.453 1308.27 782.064 1308.27 Q785.698 1308.27 787.504 1304.73 Q789.333 1301.16 789.333 1294.05 Q789.333 1286.92 787.504 1283.38 Q785.698 1279.82 782.064 1279.82 M782.064 1276.11 Q787.874 1276.11 790.93 1280.72 Q794.009 1285.3 794.009 1294.05 Q794.009 1302.78 790.93 1307.39 Q787.874 1311.97 782.064 1311.97 Q776.254 1311.97 773.175 1307.39 Q770.12 1302.78 770.12 1294.05 Q770.12 1285.3 773.175 1280.72 Q776.254 1276.11 782.064 1276.11 Z" fill="#000000" fill-rule="nonzero" fill-opacity="1" /><path clip-path="url(#clip890)" d="M1202.43 1307.36 L1218.75 1307.36 L1218.75 1311.3 L1196.8 1311.3 L1196.8 1307.36 Q1199.47 1304.61 1204.05 1299.98 Q1208.66 1295.33 1209.84 1293.99 Q1212.08 1291.46 1212.96 1289.73 Q1213.86 1287.97 1213.86 1286.28 Q1213.86 1283.52 1211.92 1281.79 Q1210 1280.05 1206.9 1280.05 Q1204.7 1280.05 1202.24 1280.81 Q1199.81 1281.58 1197.04 1283.13 L1197.04 1278.41 Q1199.86 1277.27 1202.31 1276.69 Q1204.77 1276.11 1206.8 1276.11 Q1212.18 1276.11 1215.37 1278.8 Q1218.56 1281.49 1218.56 1285.98 Q1218.56 1288.11 1217.75 1290.03 Q1216.97 1291.92 1214.86 1294.52 Q1214.28 1295.19 1211.18 1298.41 Q1208.08 1301.6 1202.43 1307.36 Z" fill="#000000" fill-rule="nonzero" fill-opacity="1" /><path clip-path="url(#clip890)" d="M1238.56 1279.82 Q1234.95 1279.82 1233.12 1283.38 Q1231.32 1286.92 1231.32 1294.05 Q1231.32 1301.16 1233.12 1304.73 Q1234.95 1308.27 1238.56 1308.27 Q1242.2 1308.27 1244 1304.73 Q1245.83 1301.16 1245.83 1294.05 Q1245.83 1286.92 1244 1283.38 Q1242.2 1279.82 1238.56 1279.82 M1238.56 1276.11 Q1244.37 1276.11 1247.43 1280.72 Q1250.51 1285.3 1250.51 1294.05 Q1250.51 1302.78 1247.43 1307.39 Q1244.37 1311.97 1238.56 1311.97 Q1232.75 1311.97 1229.67 1307.39 Q1226.62 1302.78 1226.62 1294.05 Q1226.62 1285.3 1229.67 1280.72 Q1232.75 1276.11 1238.56 1276.11 Z" fill="#000000" fill-rule="nonzero" fill-opacity="1" /><path clip-path="url(#clip890)" d="M1668.13 1292.67 Q1671.49 1293.38 1673.36 1295.65 Q1675.26 1297.92 1675.26 1301.25 Q1675.26 1306.37 1671.74 1309.17 Q1668.22 1311.97 1661.74 1311.97 Q1659.57 1311.97 1657.25 1311.53 Q1654.96 1311.11 1652.51 1310.26 L1652.51 1305.74 Q1654.45 1306.88 1656.76 1307.46 Q1659.08 1308.04 1661.6 1308.04 Q1666 1308.04 1668.29 1306.3 Q1670.61 1304.56 1670.61 1301.25 Q1670.61 1298.2 1668.45 1296.49 Q1666.33 1294.75 1662.51 1294.75 L1658.48 1294.75 L1658.48 1290.91 L1662.69 1290.91 Q1666.14 1290.91 1667.97 1289.54 Q1669.8 1288.15 1669.8 1285.56 Q1669.8 1282.9 1667.9 1281.49 Q1666.02 1280.05 1662.51 1280.05 Q1660.58 1280.05 1658.39 1280.47 Q1656.19 1280.88 1653.55 1281.76 L1653.55 1277.6 Q1656.21 1276.86 1658.52 1276.49 Q1660.86 1276.11 1662.92 1276.11 Q1668.25 1276.11 1671.35 1278.55 Q1674.45 1280.95 1674.45 1285.07 Q1674.45 1287.94 1672.81 1289.93 Q1671.16 1291.9 1668.13 1292.67 Z" fill="#000000" fill-rule="nonzero" fill-opacity="1" /><path clip-path="url(#clip890)" d="M1694.13 1279.82 Q1690.51 1279.82 1688.69 1283.38 Q1686.88 1286.92 1686.88 1294.05 Q1686.88 1301.16 1688.69 1304.73 Q1690.51 1308.27 1694.13 1308.27 Q1697.76 1308.27 1699.57 1304.73 Q1701.39 1301.16 1701.39 1294.05 Q1701.39 1286.92 1699.57 1283.38 Q1697.76 1279.82 1694.13 1279.82 M1694.13 1276.11 Q1699.94 1276.11 1702.99 1280.72 Q1706.07 1285.3 1706.07 1294.05 Q1706.07 1302.78 1702.99 1307.39 Q1699.94 1311.97 1694.13 1311.97 Q1688.32 1311.97 1685.24 1307.39 Q1682.18 1302.78 1682.18 1294.05 Q1682.18 1285.3 1685.24 1280.72 Q1688.32 1276.11 1694.13 1276.11 Z" fill="#000000" fill-rule="nonzero" fill-opacity="1" /><path clip-path="url(#clip890)" d="M2123.09 1280.81 L2111.29 1299.26 L2123.09 1299.26 L2123.09 1280.81 M2121.86 1276.74 L2127.74 1276.74 L2127.74 1299.26 L2132.67 1299.26 L2132.67 1303.15 L2127.74 1303.15 L2127.74 1311.3 L2123.09 1311.3 L2123.09 1303.15 L2107.49 1303.15 L2107.49 1298.64 L2121.86 1276.74 Z" fill="#000000" fill-rule="nonzero" fill-opacity="1" /><path clip-path="url(#clip890)" d="M2150.41 1279.82 Q2146.79 1279.82 2144.97 1283.38 Q2143.16 1286.92 2143.16 1294.05 Q2143.16 1301.16 2144.97 1304.73 Q2146.79 1308.27 2150.41 1308.27 Q2154.04 1308.27 2155.85 1304.73 Q2157.67 1301.16 2157.67 1294.05 Q2157.67 1286.92 2155.85 1283.38 Q2154.04 1279.82 2150.41 1279.82 M2150.41 1276.11 Q2156.22 1276.11 2159.27 1280.72 Q2162.35 1285.3 2162.35 1294.05 Q2162.35 1302.78 2159.27 1307.39 Q2156.22 1311.97 2150.41 1311.97 Q2144.6 1311.97 2141.52 1307.39 Q2138.46 1302.78 2138.46 1294.05 Q2138.46 1285.3 2141.52 1280.72 Q2144.6 1276.11 2150.41 1276.11 Z" fill="#000000" fill-rule="nonzero" fill-opacity="1" /><path clip-path="url(#clip890)" d="M2565.25 1276.74 L2583.61 1276.74 L2583.61 1280.68 L2569.53 1280.68 L2569.53 1289.15 Q2570.55 1288.8 2571.57 1288.64 Q2572.59 1288.45 2573.61 1288.45 Q2579.39 1288.45 2582.77 1291.62 Q2586.15 1294.8 2586.15 1300.21 Q2586.15 1305.79 2582.68 1308.89 Q2579.21 1311.97 2572.89 1311.97 Q2570.71 1311.97 2568.44 1311.6 Q2566.2 1311.23 2563.79 1310.49 L2563.79 1305.79 Q2565.88 1306.92 2568.1 1307.48 Q2570.32 1308.04 2572.8 1308.04 Q2576.8 1308.04 2579.14 1305.93 Q2581.48 1303.82 2581.48 1300.21 Q2581.48 1296.6 2579.14 1294.49 Q2576.8 1292.39 2572.8 1292.39 Q2570.92 1292.39 2569.05 1292.8 Q2567.19 1293.22 2565.25 1294.1 L2565.25 1276.74 Z" fill="#000000" fill-rule="nonzero" fill-opacity="1" /><path clip-path="url(#clip890)" d="M2605.37 1279.82 Q2601.75 1279.82 2599.93 1283.38 Q2598.12 1286.92 2598.12 1294.05 Q2598.12 1301.16 2599.93 1304.73 Q2601.75 1308.27 2605.37 1308.27 Q2609 1308.27 2610.81 1304.73 Q2612.63 1301.16 2612.63 1294.05 Q2612.63 1286.92 2610.81 1283.38 Q2609 1279.82 2605.37 1279.82 M2605.37 1276.11 Q2611.18 1276.11 2614.23 1280.72 Q2617.31 1285.3 2617.31 1294.05 Q2617.31 1302.78 2614.23 1307.39 Q2611.18 1311.97 2605.37 1311.97 Q2599.56 1311.97 2596.48 1307.39 Q2593.42 1302.78 2593.42 1294.05 Q2593.42 1285.3 2596.48 1280.72 Q2599.56 1276.11 2605.37 1276.11 Z" fill="#000000" fill-rule="nonzero" fill-opacity="1" /><path clip-path="url(#clip890)" d="M1408.92 1349.04 L1415.41 1349.04 L1425.41 1389.21 L1435.37 1349.04 L1442.59 1349.04 L1452.59 1389.21 L1462.55 1349.04 L1469.07 1349.04 L1457.14 1396.56 L1449.05 1396.56 L1439.03 1355.31 L1428.91 1396.56 L1420.82 1396.56 L1408.92 1349.04 Z" fill="#000000" fill-rule="nonzero" fill-opacity="1" /><path clip-path="url(#clip890)" d="M1504.02 1377.28 L1504.02 1380.14 L1477.09 1380.14 Q1477.48 1386.19 1480.72 1389.37 Q1484 1392.52 1489.83 1392.52 Q1493.2 1392.52 1496.35 1391.69 Q1499.53 1390.87 1502.65 1389.21 L1502.65 1394.75 Q1499.5 1396.09 1496.19 1396.79 Q1492.88 1397.49 1489.48 1397.49 Q1480.95 1397.49 1475.95 1392.52 Q1470.98 1387.56 1470.98 1379.09 Q1470.98 1370.34 1475.69 1365.21 Q1480.44 1360.06 1488.46 1360.06 Q1495.65 1360.06 1499.82 1364.7 Q1504.02 1369.32 1504.02 1377.28 M1498.17 1375.56 Q1498.1 1370.75 1495.46 1367.89 Q1492.85 1365.02 1488.52 1365.02 Q1483.62 1365.02 1480.66 1367.79 Q1477.73 1370.56 1477.29 1375.59 L1498.17 1375.56 Z" fill="#000000" fill-rule="nonzero" fill-opacity="1" /><path clip-path="url(#clip890)" d="M1544.13 1377.28 L1544.13 1380.14 L1517.2 1380.14 Q1517.58 1386.19 1520.83 1389.37 Q1524.11 1392.52 1529.93 1392.52 Q1533.3 1392.52 1536.45 1391.69 Q1539.64 1390.87 1542.76 1389.21 L1542.76 1394.75 Q1539.61 1396.09 1536.3 1396.79 Q1532.99 1397.49 1529.58 1397.49 Q1521.05 1397.49 1516.05 1392.52 Q1511.09 1387.56 1511.09 1379.09 Q1511.09 1370.34 1515.8 1365.21 Q1520.54 1360.06 1528.56 1360.06 Q1535.75 1360.06 1539.92 1364.7 Q1544.13 1369.32 1544.13 1377.28 M1538.27 1375.56 Q1538.21 1370.75 1535.56 1367.89 Q1532.95 1365.02 1528.63 1365.02 Q1523.72 1365.02 1520.76 1367.79 Q1517.84 1370.56 1517.39 1375.59 L1538.27 1375.56 Z" fill="#000000" fill-rule="nonzero" fill-opacity="1" /><path clip-path="url(#clip890)" d="M1553.52 1347.04 L1559.4 1347.04 L1559.4 1376.29 L1576.88 1360.92 L1584.36 1360.92 L1565.45 1377.59 L1585.15 1396.56 L1577.51 1396.56 L1559.4 1379.15 L1559.4 1396.56 L1553.52 1396.56 L1553.52 1347.04 Z" fill="#000000" fill-rule="nonzero" fill-opacity="1" /><polyline clip-path="url(#clip890)" style="stroke:#000000; stroke-linecap:round; stroke-linejoin:round; stroke-width:4; stroke-opacity:1; fill:none" points="241.315,1245.7 241.315,108.352 "/>
<polyline clip-path="url(#clip890)" style="stroke:#000000; stroke-linecap:round; stroke-linejoin:round; stroke-width:4; stroke-opacity:1; fill:none" points="241.315,1082.72 260.212,1082.72 "/>
<polyline clip-path="url(#clip890)" style="stroke:#000000; stroke-linecap:round; stroke-linejoin:round; stroke-width:4; stroke-opacity:1; fill:none" points="241.315,864.748 260.212,864.748 "/>
<polyline clip-path="url(#clip890)" style="stroke:#000000; stroke-linecap:round; stroke-linejoin:round; stroke-width:4; stroke-opacity:1; fill:none" points="241.315,646.771 260.212,646.771 "/>
<polyline clip-path="url(#clip890)" style="stroke:#000000; stroke-linecap:round; stroke-linejoin:round; stroke-width:4; stroke-opacity:1; fill:none" points="241.315,428.795 260.212,428.795 "/>
<polyline clip-path="url(#clip890)" style="stroke:#000000; stroke-linecap:round; stroke-linejoin:round; stroke-width:4; stroke-opacity:1; fill:none" points="241.315,210.818 260.212,210.818 "/>
<path clip-path="url(#clip890)" d="M102.788 1096.07 L110.426 1096.07 L110.426 1069.7 L102.116 1071.37 L102.116 1067.11 L110.38 1065.44 L115.056 1065.44 L115.056 1096.07 L122.695 1096.07 L122.695 1100 L102.788 1100 L102.788 1096.07 Z" fill="#000000" fill-rule="nonzero" fill-opacity="1" /><path clip-path="url(#clip890)" d="M132.139 1094.13 L137.023 1094.13 L137.023 1100 L132.139 1100 L132.139 1094.13 Z" fill="#000000" fill-rule="nonzero" fill-opacity="1" /><path clip-path="url(#clip890)" d="M157.209 1068.52 Q153.597 1068.52 151.769 1072.09 Q149.963 1075.63 149.963 1082.76 Q149.963 1089.87 151.769 1093.43 Q153.597 1096.97 157.209 1096.97 Q160.843 1096.97 162.648 1093.43 Q164.477 1089.87 164.477 1082.76 Q164.477 1075.63 162.648 1072.09 Q160.843 1068.52 157.209 1068.52 M157.209 1064.82 Q163.019 1064.82 166.074 1069.43 Q169.153 1074.01 169.153 1082.76 Q169.153 1091.49 166.074 1096.09 Q163.019 1100.68 157.209 1100.68 Q151.398 1100.68 148.32 1096.09 Q145.264 1091.49 145.264 1082.76 Q145.264 1074.01 148.32 1069.43 Q151.398 1064.82 157.209 1064.82 Z" fill="#000000" fill-rule="nonzero" fill-opacity="1" /><path clip-path="url(#clip890)" d="M187.37 1068.52 Q183.759 1068.52 181.931 1072.09 Q180.125 1075.63 180.125 1082.76 Q180.125 1089.87 181.931 1093.43 Q183.759 1096.97 187.37 1096.97 Q191.005 1096.97 192.81 1093.43 Q194.639 1089.87 194.639 1082.76 Q194.639 1075.63 192.81 1072.09 Q191.005 1068.52 187.37 1068.52 M187.37 1064.82 Q193.181 1064.82 196.236 1069.43 Q199.315 1074.01 199.315 1082.76 Q199.315 1091.49 196.236 1096.09 Q193.181 1100.68 187.37 1100.68 Q181.56 1100.68 178.482 1096.09 Q175.426 1091.49 175.426 1082.76 Q175.426 1074.01 178.482 1069.43 Q181.56 1064.82 187.37 1064.82 Z" fill="#000000" fill-rule="nonzero" fill-opacity="1" /><path clip-path="url(#clip890)" d="M103.783 878.093 L111.422 878.093 L111.422 851.727 L103.112 853.394 L103.112 849.135 L111.375 847.468 L116.051 847.468 L116.051 878.093 L123.69 878.093 L123.69 882.028 L103.783 882.028 L103.783 878.093 Z" fill="#000000" fill-rule="nonzero" fill-opacity="1" /><path clip-path="url(#clip890)" d="M133.135 876.148 L138.019 876.148 L138.019 882.028 L133.135 882.028 L133.135 876.148 Z" fill="#000000" fill-rule="nonzero" fill-opacity="1" /><path clip-path="url(#clip890)" d="M152.232 878.093 L168.551 878.093 L168.551 882.028 L146.607 882.028 L146.607 878.093 Q149.269 875.338 153.852 870.709 Q158.459 866.056 159.639 864.713 Q161.884 862.19 162.764 860.454 Q163.667 858.695 163.667 857.005 Q163.667 854.25 161.722 852.514 Q159.801 850.778 156.699 850.778 Q154.5 850.778 152.047 851.542 Q149.616 852.306 146.838 853.857 L146.838 849.135 Q149.662 848 152.116 847.422 Q154.57 846.843 156.607 846.843 Q161.977 846.843 165.171 849.528 Q168.366 852.213 168.366 856.704 Q168.366 858.834 167.556 860.755 Q166.769 862.653 164.662 865.246 Q164.084 865.917 160.982 869.135 Q157.88 872.329 152.232 878.093 Z" fill="#000000" fill-rule="nonzero" fill-opacity="1" /><path clip-path="url(#clip890)" d="M178.412 847.468 L196.769 847.468 L196.769 851.403 L182.695 851.403 L182.695 859.875 Q183.713 859.528 184.732 859.366 Q185.75 859.181 186.769 859.181 Q192.556 859.181 195.935 862.352 Q199.315 865.523 199.315 870.94 Q199.315 876.519 195.843 879.621 Q192.37 882.699 186.051 882.699 Q183.875 882.699 181.607 882.329 Q179.361 881.959 176.954 881.218 L176.954 876.519 Q179.037 877.653 181.259 878.209 Q183.482 878.764 185.958 878.764 Q189.963 878.764 192.301 876.658 Q194.639 874.551 194.639 870.94 Q194.639 867.329 192.301 865.223 Q189.963 863.116 185.958 863.116 Q184.083 863.116 182.208 863.533 Q180.357 863.949 178.412 864.829 L178.412 847.468 Z" fill="#000000" fill-rule="nonzero" fill-opacity="1" /><path clip-path="url(#clip890)" d="M102.788 660.116 L110.426 660.116 L110.426 633.751 L102.116 635.417 L102.116 631.158 L110.38 629.491 L115.056 629.491 L115.056 660.116 L122.695 660.116 L122.695 664.051 L102.788 664.051 L102.788 660.116 Z" fill="#000000" fill-rule="nonzero" fill-opacity="1" /><path clip-path="url(#clip890)" d="M132.139 658.172 L137.023 658.172 L137.023 664.051 L132.139 664.051 L132.139 658.172 Z" fill="#000000" fill-rule="nonzero" fill-opacity="1" /><path clip-path="url(#clip890)" d="M147.255 629.491 L165.611 629.491 L165.611 633.426 L151.537 633.426 L151.537 641.899 Q152.556 641.551 153.574 641.389 Q154.593 641.204 155.611 641.204 Q161.398 641.204 164.778 644.376 Q168.158 647.547 168.158 652.963 Q168.158 658.542 164.685 661.644 Q161.213 664.723 154.894 664.723 Q152.718 664.723 150.449 664.352 Q148.204 663.982 145.797 663.241 L145.797 658.542 Q147.88 659.676 150.102 660.232 Q152.324 660.787 154.801 660.787 Q158.806 660.787 161.144 658.681 Q163.482 656.575 163.482 652.963 Q163.482 649.352 161.144 647.246 Q158.806 645.139 154.801 645.139 Q152.926 645.139 151.051 645.556 Q149.199 645.973 147.255 646.852 L147.255 629.491 Z" fill="#000000" fill-rule="nonzero" fill-opacity="1" /><path clip-path="url(#clip890)" d="M187.37 632.57 Q183.759 632.57 181.931 636.135 Q180.125 639.676 180.125 646.806 Q180.125 653.912 181.931 657.477 Q183.759 661.019 187.37 661.019 Q191.005 661.019 192.81 657.477 Q194.639 653.912 194.639 646.806 Q194.639 639.676 192.81 636.135 Q191.005 632.57 187.37 632.57 M187.37 628.866 Q193.181 628.866 196.236 633.473 Q199.315 638.056 199.315 646.806 Q199.315 655.533 196.236 660.139 Q193.181 664.723 187.37 664.723 Q181.56 664.723 178.482 660.139 Q175.426 655.533 175.426 646.806 Q175.426 638.056 178.482 633.473 Q181.56 628.866 187.37 628.866 Z" fill="#000000" fill-rule="nonzero" fill-opacity="1" /><path clip-path="url(#clip890)" d="M103.783 442.139 L111.422 442.139 L111.422 415.774 L103.112 417.441 L103.112 413.181 L111.375 411.515 L116.051 411.515 L116.051 442.139 L123.69 442.139 L123.69 446.075 L103.783 446.075 L103.783 442.139 Z" fill="#000000" fill-rule="nonzero" fill-opacity="1" /><path clip-path="url(#clip890)" d="M133.135 440.195 L138.019 440.195 L138.019 446.075 L133.135 446.075 L133.135 440.195 Z" fill="#000000" fill-rule="nonzero" fill-opacity="1" /><path clip-path="url(#clip890)" d="M147.023 411.515 L169.246 411.515 L169.246 413.505 L156.699 446.075 L151.815 446.075 L163.621 415.45 L147.023 415.45 L147.023 411.515 Z" fill="#000000" fill-rule="nonzero" fill-opacity="1" /><path clip-path="url(#clip890)" d="M178.412 411.515 L196.769 411.515 L196.769 415.45 L182.695 415.45 L182.695 423.922 Q183.713 423.575 184.732 423.413 Q185.75 423.228 186.769 423.228 Q192.556 423.228 195.935 426.399 Q199.315 429.57 199.315 434.987 Q199.315 440.565 195.843 443.667 Q192.37 446.746 186.051 446.746 Q183.875 446.746 181.607 446.376 Q179.361 446.005 176.954 445.264 L176.954 440.565 Q179.037 441.7 181.259 442.255 Q183.482 442.811 185.958 442.811 Q189.963 442.811 192.301 440.704 Q194.639 438.598 194.639 434.987 Q194.639 431.376 192.301 429.269 Q189.963 427.163 185.958 427.163 Q184.083 427.163 182.208 427.579 Q180.357 427.996 178.412 428.876 L178.412 411.515 Z" fill="#000000" fill-rule="nonzero" fill-opacity="1" /><path clip-path="url(#clip890)" d="M106.005 224.163 L122.324 224.163 L122.324 228.098 L100.38 228.098 L100.38 224.163 Q103.042 221.408 107.625 216.779 Q112.232 212.126 113.412 210.783 Q115.658 208.26 116.537 206.524 Q117.44 204.765 117.44 203.075 Q117.44 200.32 115.496 198.584 Q113.575 196.848 110.473 196.848 Q108.274 196.848 105.82 197.612 Q103.389 198.376 100.612 199.927 L100.612 195.205 Q103.436 194.07 105.889 193.492 Q108.343 192.913 110.38 192.913 Q115.75 192.913 118.945 195.598 Q122.139 198.283 122.139 202.774 Q122.139 204.904 121.329 206.825 Q120.542 208.723 118.436 211.316 Q117.857 211.987 114.755 215.204 Q111.653 218.399 106.005 224.163 Z" fill="#000000" fill-rule="nonzero" fill-opacity="1" /><path clip-path="url(#clip890)" d="M132.139 222.218 L137.023 222.218 L137.023 228.098 L132.139 228.098 L132.139 222.218 Z" fill="#000000" fill-rule="nonzero" fill-opacity="1" /><path clip-path="url(#clip890)" d="M157.209 196.617 Q153.597 196.617 151.769 200.181 Q149.963 203.723 149.963 210.853 Q149.963 217.959 151.769 221.524 Q153.597 225.066 157.209 225.066 Q160.843 225.066 162.648 221.524 Q164.477 217.959 164.477 210.853 Q164.477 203.723 162.648 200.181 Q160.843 196.617 157.209 196.617 M157.209 192.913 Q163.019 192.913 166.074 197.519 Q169.153 202.103 169.153 210.853 Q169.153 219.579 166.074 224.186 Q163.019 228.769 157.209 228.769 Q151.398 228.769 148.32 224.186 Q145.264 219.579 145.264 210.853 Q145.264 202.103 148.32 197.519 Q151.398 192.913 157.209 192.913 Z" fill="#000000" fill-rule="nonzero" fill-opacity="1" /><path clip-path="url(#clip890)" d="M187.37 196.617 Q183.759 196.617 181.931 200.181 Q180.125 203.723 180.125 210.853 Q180.125 217.959 181.931 221.524 Q183.759 225.066 187.37 225.066 Q191.005 225.066 192.81 221.524 Q194.639 217.959 194.639 210.853 Q194.639 203.723 192.81 200.181 Q191.005 196.617 187.37 196.617 M187.37 192.913 Q193.181 192.913 196.236 197.519 Q199.315 202.103 199.315 210.853 Q199.315 219.579 196.236 224.186 Q193.181 228.769 187.37 228.769 Q181.56 228.769 178.482 224.186 Q175.426 219.579 175.426 210.853 Q175.426 202.103 178.482 197.519 Q181.56 192.913 187.37 192.913 Z" fill="#000000" fill-rule="nonzero" fill-opacity="1" /><path clip-path="url(#clip890)" d="M-1.83624 1000.83 L4.43398 1000.83 Q2.68341 1004.49 1.82404 1007.74 Q0.964667 1010.99 0.964667 1014.01 Q0.964667 1019.26 3.00169 1022.13 Q5.03872 1024.96 8.79449 1024.96 Q11.9455 1024.96 13.5688 1023.08 Q15.1602 1021.17 16.1469 1015.89 L16.9426 1012.01 Q18.3112 1004.81 21.7805 1001.41 Q25.218 997.969 31.0108 997.969 Q37.9176 997.969 41.4824 1002.62 Q45.0472 1007.23 45.0472 1016.17 Q45.0472 1019.55 44.2833 1023.37 Q43.5194 1027.16 42.0235 1031.23 L35.4031 1031.23 Q37.5993 1027.31 38.7133 1023.56 Q39.8273 1019.8 39.8273 1016.17 Q39.8273 1010.67 37.663 1007.68 Q35.4986 1004.68 31.4882 1004.68 Q27.9871 1004.68 26.0137 1006.85 Q24.0404 1008.98 23.0537 1013.88 L22.2898 1017.8 Q20.8575 1024.99 17.802 1028.21 Q14.7464 1031.42 9.30374 1031.42 Q3.00169 1031.42 -0.62676 1027 Q-4.25521 1022.54 -4.25521 1014.74 Q-4.25521 1011.4 -3.65047 1007.93 Q-3.04573 1004.46 -1.83624 1000.83 Z" fill="#000000" fill-rule="nonzero" fill-opacity="1" /><path clip-path="url(#clip890)" d="M38.777 982.532 L57.6831 982.532 L57.6831 988.42 L8.4762 988.42 L8.4762 982.532 L13.8871 982.532 Q10.7042 980.686 9.17643 977.885 Q7.61683 975.052 7.61683 971.138 Q7.61683 964.645 12.7731 960.602 Q17.9293 956.528 26.332 956.528 Q34.7347 956.528 39.891 960.602 Q45.0472 964.645 45.0472 971.138 Q45.0472 975.052 43.5194 977.885 Q41.9598 980.686 38.777 982.532 M26.332 962.607 Q19.8708 962.607 16.2105 965.281 Q12.5184 967.923 12.5184 972.57 Q12.5184 977.217 16.2105 979.89 Q19.8708 982.532 26.332 982.532 Q32.7932 982.532 36.4853 979.89 Q40.1456 977.217 40.1456 972.57 Q40.1456 967.923 36.4853 965.281 Q32.7932 962.607 26.332 962.607 Z" fill="#000000" fill-rule="nonzero" fill-opacity="1" /><path clip-path="url(#clip890)" d="M24.8361 916.329 L27.7006 916.329 L27.7006 943.256 Q33.7481 942.874 36.9309 939.627 Q40.0819 936.349 40.0819 930.524 Q40.0819 927.151 39.2544 923.999 Q38.4269 920.817 36.7718 917.697 L42.3099 917.697 Q43.6467 920.848 44.347 924.159 Q45.0472 927.469 45.0472 930.874 Q45.0472 939.404 40.0819 944.402 Q35.1167 949.367 26.6503 949.367 Q17.8974 949.367 12.7731 944.656 Q7.61683 939.914 7.61683 931.893 Q7.61683 924.7 12.2638 920.53 Q16.8789 916.329 24.8361 916.329 M23.1173 922.185 Q18.3112 922.249 15.4466 924.891 Q12.5821 927.501 12.5821 931.829 Q12.5821 936.731 15.3512 939.691 Q18.1202 942.619 23.1492 943.065 L23.1173 922.185 Z" fill="#000000" fill-rule="nonzero" fill-opacity="1" /><path clip-path="url(#clip890)" d="M9.84483 881.063 L15.3193 881.063 Q13.9507 883.545 13.2823 886.06 Q12.5821 888.543 12.5821 891.089 Q12.5821 896.786 16.2105 899.937 Q19.8072 903.088 26.332 903.088 Q32.8569 903.088 36.4853 899.937 Q40.0819 896.786 40.0819 891.089 Q40.0819 888.543 39.4135 886.06 Q38.7133 883.545 37.3447 881.063 L42.7555 881.063 Q43.9014 883.514 44.4743 886.155 Q45.0472 888.765 45.0472 891.725 Q45.0472 899.778 39.9864 904.52 Q34.9257 909.263 26.332 909.263 Q17.611 909.263 12.6139 904.489 Q7.61683 899.682 7.61683 891.343 Q7.61683 888.638 8.18974 886.06 Q8.73083 883.482 9.84483 881.063 Z" fill="#000000" fill-rule="nonzero" fill-opacity="1" /><path clip-path="url(#clip890)" d="M-1.64527 865.085 L8.4762 865.085 L8.4762 853.022 L13.0277 853.022 L13.0277 865.085 L32.3794 865.085 Q36.7399 865.085 37.9813 863.907 Q39.2226 862.698 39.2226 859.037 L39.2226 853.022 L44.1242 853.022 L44.1242 859.037 Q44.1242 865.817 41.6097 868.395 Q39.0634 870.973 32.3794 870.973 L13.0277 870.973 L13.0277 875.27 L8.4762 875.27 L8.4762 870.973 L-1.64527 870.973 L-1.64527 865.085 Z" fill="#000000" fill-rule="nonzero" fill-opacity="1" /><path clip-path="url(#clip890)" d="M13.9507 824.663 Q13.3778 825.649 13.1232 826.827 Q12.8367 827.973 12.8367 829.373 Q12.8367 834.339 16.0832 837.012 Q19.2979 839.654 25.3453 839.654 L44.1242 839.654 L44.1242 845.542 L8.4762 845.542 L8.4762 839.654 L14.0144 839.654 Q10.7679 837.808 9.20826 834.848 Q7.61683 831.888 7.61683 827.655 Q7.61683 827.05 7.71232 826.318 Q7.77597 825.586 7.93512 824.694 L13.9507 824.663 Z" fill="#000000" fill-rule="nonzero" fill-opacity="1" /><path clip-path="url(#clip890)" d="M26.2047 802.319 Q26.2047 809.417 27.8279 812.154 Q29.4512 814.891 33.3661 814.891 Q36.4853 814.891 38.3314 812.854 Q40.1456 810.785 40.1456 807.252 Q40.1456 802.383 36.7081 799.454 Q33.2388 796.494 27.5097 796.494 L26.2047 796.494 L26.2047 802.319 M23.7857 790.638 L44.1242 790.638 L44.1242 796.494 L38.7133 796.494 Q41.9598 798.5 43.5194 801.491 Q45.0472 804.483 45.0472 808.812 Q45.0472 814.287 41.9916 817.533 Q38.9043 820.748 33.7481 820.748 Q27.7325 820.748 24.6769 816.737 Q21.6214 812.695 21.6214 804.706 L21.6214 796.494 L21.0485 796.494 Q17.0062 796.494 14.8101 799.168 Q12.5821 801.81 12.5821 806.616 Q12.5821 809.671 13.3141 812.568 Q14.0462 815.464 15.5103 818.138 L10.0995 818.138 Q8.85814 814.923 8.2534 811.899 Q7.61683 808.876 7.61683 806.011 Q7.61683 798.277 11.6272 794.457 Q15.6376 790.638 23.7857 790.638 Z" fill="#000000" fill-rule="nonzero" fill-opacity="1" /><path clip-path="url(#clip890)" d="M-5.40104 778.575 L-5.40104 772.718 L44.1242 772.718 L44.1242 778.575 L-5.40104 778.575 Z" fill="#000000" fill-rule="nonzero" fill-opacity="1" /><path clip-path="url(#clip890)" d="M13.9507 719.087 Q13.3778 720.074 13.1232 721.252 Q12.8367 722.398 12.8367 723.798 Q12.8367 728.763 16.0832 731.437 Q19.2979 734.079 25.3453 734.079 L44.1242 734.079 L44.1242 739.967 L8.4762 739.967 L8.4762 734.079 L14.0144 734.079 Q10.7679 732.233 9.20826 729.273 Q7.61683 726.312 7.61683 722.079 Q7.61683 721.475 7.71232 720.742 Q7.77597 720.01 7.93512 719.119 L13.9507 719.087 Z" fill="#000000" fill-rule="nonzero" fill-opacity="1" /><path clip-path="url(#clip890)" d="M26.2047 696.744 Q26.2047 703.842 27.8279 706.579 Q29.4512 709.316 33.3661 709.316 Q36.4853 709.316 38.3314 707.279 Q40.1456 705.21 40.1456 701.677 Q40.1456 696.807 36.7081 693.879 Q33.2388 690.919 27.5097 690.919 L26.2047 690.919 L26.2047 696.744 M23.7857 685.063 L44.1242 685.063 L44.1242 690.919 L38.7133 690.919 Q41.9598 692.924 43.5194 695.916 Q45.0472 698.908 45.0472 703.237 Q45.0472 708.711 41.9916 711.958 Q38.9043 715.172 33.7481 715.172 Q27.7325 715.172 24.6769 711.162 Q21.6214 707.12 21.6214 699.131 L21.6214 690.919 L21.0485 690.919 Q17.0062 690.919 14.8101 693.593 Q12.5821 696.235 12.5821 701.041 Q12.5821 704.096 13.3141 706.993 Q14.0462 709.889 15.5103 712.563 L10.0995 712.563 Q8.85814 709.348 8.2534 706.324 Q7.61683 703.3 7.61683 700.436 Q7.61683 692.702 11.6272 688.882 Q15.6376 685.063 23.7857 685.063 Z" fill="#000000" fill-rule="nonzero" fill-opacity="1" /><path clip-path="url(#clip890)" d="M13.8871 649.542 L-5.40104 649.542 L-5.40104 643.686 L44.1242 643.686 L44.1242 649.542 L38.777 649.542 Q41.9598 651.388 43.5194 654.221 Q45.0472 657.022 45.0472 660.968 Q45.0472 667.43 39.891 671.504 Q34.7347 675.546 26.332 675.546 Q17.9293 675.546 12.7731 671.504 Q7.61683 667.43 7.61683 660.968 Q7.61683 657.022 9.17643 654.221 Q10.7042 651.388 13.8871 649.542 M26.332 669.499 Q32.7932 669.499 36.4853 666.857 Q40.1456 664.183 40.1456 659.536 Q40.1456 654.889 36.4853 652.216 Q32.7932 649.542 26.332 649.542 Q19.8708 649.542 16.2105 652.216 Q12.5184 654.889 12.5184 659.536 Q12.5184 664.183 16.2105 666.857 Q19.8708 669.499 26.332 669.499 Z" fill="#000000" fill-rule="nonzero" fill-opacity="1" /><path clip-path="url(#clip890)" d="M8.4762 631.623 L8.4762 625.766 L44.1242 625.766 L44.1242 631.623 L8.4762 631.623 M-5.40104 631.623 L-5.40104 625.766 L2.01501 625.766 L2.01501 631.623 L-5.40104 631.623 Z" fill="#000000" fill-rule="nonzero" fill-opacity="1" /><path clip-path="url(#clip890)" d="M30.0559 614.117 L8.4762 614.117 L8.4762 608.26 L29.8331 608.26 Q34.8939 608.26 37.4402 606.287 Q39.9546 604.314 39.9546 600.367 Q39.9546 595.625 36.9309 592.887 Q33.9072 590.118 28.6873 590.118 L8.4762 590.118 L8.4762 584.262 L44.1242 584.262 L44.1242 590.118 L38.6496 590.118 Q41.8962 592.251 43.4876 595.083 Q45.0472 597.884 45.0472 601.608 Q45.0472 607.751 41.2278 610.934 Q37.4083 614.117 30.0559 614.117 M7.61683 599.38 L7.61683 599.38 Z" fill="#000000" fill-rule="nonzero" fill-opacity="1" /><path clip-path="url(#clip890)" d="M9.52654 549.473 L15.0647 549.473 Q13.7916 551.956 13.155 554.629 Q12.5184 557.303 12.5184 560.168 Q12.5184 564.528 13.8552 566.724 Q15.192 568.889 17.8656 568.889 Q19.9026 568.889 21.0803 567.329 Q22.2261 565.769 23.2765 561.059 L23.7221 559.054 Q25.0589 552.815 27.5097 550.205 Q29.9286 547.563 34.2891 547.563 Q39.2544 547.563 42.1508 551.51 Q45.0472 555.425 45.0472 562.3 Q45.0472 565.165 44.4743 568.284 Q43.9332 571.371 42.8192 574.809 L36.7718 574.809 Q38.4587 571.562 39.318 568.411 Q40.1456 565.26 40.1456 562.173 Q40.1456 558.035 38.7451 555.807 Q37.3129 553.579 34.7347 553.579 Q32.3476 553.579 31.0745 555.202 Q29.8013 556.794 28.6237 562.236 L28.1462 564.273 Q27.0004 569.716 24.6451 572.135 Q22.258 574.554 18.1202 574.554 Q13.0913 574.554 10.3541 570.989 Q7.61683 567.424 7.61683 560.868 Q7.61683 557.621 8.09426 554.757 Q8.57169 551.892 9.52654 549.473 Z" fill="#000000" fill-rule="nonzero" fill-opacity="1" /><path clip-path="url(#clip890)" d="M14.8419 514.876 Q11.5954 512.934 8.73083 508.128 Q7.61683 506.25 7.61683 500.457 Q7.61683 493.964 12.7731 489.922 Q17.9293 485.848 26.332 485.848 Q34.7347 485.848 39.891 489.922 Q45.0472 493.964 45.0472 500.457 Q45.0472 504.372 43.5194 507.205 Q41.9598 510.006 38.777 511.852 L57.6831 511.852 L57.6831 517.74 L26.6503 517.74 Q19.2979 517.74 14.8419 514.876 M26.332 491.927 Q19.8708 491.927 16.2105 494.601 Q12.5184 497.243 12.5184 501.889 Q12.5184 506.536 16.2105 509.21 Q19.8708 511.852 26.332 511.852 Q32.7932 511.852 36.4853 509.21 Q40.1456 506.536 40.1456 501.889 Q40.1456 497.243 36.4853 494.601 Q32.7932 491.927 26.332 491.927 Z" fill="#000000" fill-rule="nonzero" fill-opacity="1" /><path clip-path="url(#clip890)" d="M-5.33738 462.072 Q1.98318 466.337 9.1446 468.406 Q16.306 470.475 23.6584 470.475 Q31.0108 470.475 38.2359 468.406 Q45.4291 466.305 52.7179 462.072 L52.7179 467.165 Q45.2382 471.939 38.0131 474.326 Q30.788 476.681 23.6584 476.681 Q16.5606 476.681 9.3674 474.326 Q2.17415 471.971 -5.33738 467.165 L-5.33738 462.072 Z" fill="#000000" fill-rule="nonzero" fill-opacity="1" /><path clip-path="url(#clip890)" d="M-3.39584 450.455 L-3.39584 440.874 L28.9419 428.748 L-3.39584 416.557 L-3.39584 406.977 L44.1242 406.977 L44.1242 413.247 L2.39695 413.247 L34.9894 425.501 L34.9894 431.962 L2.39695 444.216 L44.1242 444.216 L44.1242 450.455 L-3.39584 450.455 Z" fill="#000000" fill-rule="nonzero" fill-opacity="1" /><path clip-path="url(#clip890)" d="M54.9459 367.382 L59.4973 367.382 L59.4973 401.248 L54.9459 401.248 L54.9459 367.382 Z" fill="#000000" fill-rule="nonzero" fill-opacity="1" /><path clip-path="url(#clip890)" d="M-1.64527 356.083 L8.4762 356.083 L8.4762 344.02 L13.0277 344.02 L13.0277 356.083 L32.3794 356.083 Q36.7399 356.083 37.9813 354.905 Q39.2226 353.696 39.2226 350.036 L39.2226 344.02 L44.1242 344.02 L44.1242 350.036 Q44.1242 356.815 41.6097 359.393 Q39.0634 361.971 32.3794 361.971 L13.0277 361.971 L13.0277 366.268 L8.4762 366.268 L8.4762 361.971 L-1.64527 361.971 L-1.64527 356.083 Z" fill="#000000" fill-rule="nonzero" fill-opacity="1" /><path clip-path="url(#clip890)" d="M-5.33738 337.24 L-5.33738 332.148 Q2.17415 327.374 9.3674 325.018 Q16.5606 322.631 23.6584 322.631 Q30.788 322.631 38.0131 325.018 Q45.2382 327.374 52.7179 332.148 L52.7179 337.24 Q45.4291 333.007 38.2359 330.938 Q31.0108 328.838 23.6584 328.838 Q16.306 328.838 9.1446 330.938 Q1.98318 333.007 -5.33738 337.24 Z" fill="#000000" fill-rule="nonzero" fill-opacity="1" /><path clip-path="url(#clip890)" d="M425.531 12.096 L433.714 12.096 L433.714 72.576 L425.531 72.576 L425.531 12.096 Z" fill="#000000" fill-rule="nonzero" fill-opacity="1" /><path clip-path="url(#clip890)" d="M487.388 45.1919 L487.388 72.576 L479.934 72.576 L479.934 45.4349 Q479.934 38.994 477.423 35.7938 Q474.911 32.5936 469.888 32.5936 Q463.852 32.5936 460.368 36.4419 Q456.885 40.2903 456.885 46.9338 L456.885 72.576 L449.391 72.576 L449.391 27.2059 L456.885 27.2059 L456.885 34.2544 Q459.558 30.163 463.164 28.1376 Q466.809 26.1121 471.549 26.1121 Q479.367 26.1121 483.378 30.9732 Q487.388 35.7938 487.388 45.1919 Z" fill="#000000" fill-rule="nonzero" fill-opacity="1" /><path clip-path="url(#clip890)" d="M531.178 28.5427 L531.178 35.5912 Q528.019 33.9709 524.616 33.1607 Q521.213 32.3505 517.567 32.3505 Q512.017 32.3505 509.222 34.0519 Q506.468 35.7533 506.468 39.156 Q506.468 41.7486 508.453 43.2475 Q510.438 44.7058 516.433 46.0426 L518.985 46.6097 Q526.925 48.3111 530.247 51.4303 Q533.609 54.509 533.609 60.0587 Q533.609 66.3781 528.586 70.0644 Q523.603 73.7508 514.853 73.7508 Q511.207 73.7508 507.237 73.0216 Q503.308 72.3329 498.933 70.9151 L498.933 63.2184 Q503.065 65.3654 507.075 66.4591 Q511.086 67.5124 515.015 67.5124 Q520.281 67.5124 523.117 65.73 Q525.953 63.9071 525.953 60.6258 Q525.953 57.5877 523.887 55.9673 Q521.861 54.3469 514.934 52.8481 L512.342 52.2405 Q505.415 50.7821 502.336 47.7845 Q499.257 44.7463 499.257 39.4801 Q499.257 33.0797 503.794 29.5959 Q508.331 26.1121 516.676 26.1121 Q520.808 26.1121 524.454 26.7198 Q528.1 27.3274 531.178 28.5427 Z" fill="#000000" fill-rule="nonzero" fill-opacity="1" /><path clip-path="url(#clip890)" d="M552.851 14.324 L552.851 27.2059 L568.204 27.2059 L568.204 32.9987 L552.851 32.9987 L552.851 57.6282 Q552.851 63.1779 554.349 64.7578 Q555.889 66.3376 560.547 66.3376 L568.204 66.3376 L568.204 72.576 L560.547 72.576 Q551.919 72.576 548.638 69.3758 Q545.356 66.1351 545.356 57.6282 L545.356 32.9987 L539.888 32.9987 L539.888 27.2059 L545.356 27.2059 L545.356 14.324 L552.851 14.324 Z" fill="#000000" fill-rule="nonzero" fill-opacity="1" /><path clip-path="url(#clip890)" d="M598.626 49.7694 Q589.592 49.7694 586.109 51.8354 Q582.625 53.9013 582.625 58.8839 Q582.625 62.8538 585.217 65.2034 Q587.85 67.5124 592.347 67.5124 Q598.545 67.5124 602.272 63.1374 Q606.039 58.7219 606.039 51.4303 L606.039 49.7694 L598.626 49.7694 M613.493 46.6907 L613.493 72.576 L606.039 72.576 L606.039 65.6895 Q603.487 69.8214 599.679 71.8063 Q595.871 73.7508 590.362 73.7508 Q583.394 73.7508 579.262 69.8619 Q575.171 65.9325 575.171 59.3701 Q575.171 51.7138 580.275 47.825 Q585.42 43.9361 595.588 43.9361 L606.039 43.9361 L606.039 43.2069 Q606.039 38.0623 602.636 35.2672 Q599.274 32.4315 593.157 32.4315 Q589.268 32.4315 585.582 33.3632 Q581.896 34.295 578.493 36.1584 L578.493 29.2718 Q582.584 27.692 586.433 26.9223 Q590.281 26.1121 593.927 26.1121 Q603.77 26.1121 608.632 31.2163 Q613.493 36.3204 613.493 46.6907 Z" fill="#000000" fill-rule="nonzero" fill-opacity="1" /><path clip-path="url(#clip890)" d="M666.559 45.1919 L666.559 72.576 L659.106 72.576 L659.106 45.4349 Q659.106 38.994 656.594 35.7938 Q654.083 32.5936 649.06 32.5936 Q643.024 32.5936 639.54 36.4419 Q636.056 40.2903 636.056 46.9338 L636.056 72.576 L628.562 72.576 L628.562 27.2059 L636.056 27.2059 L636.056 34.2544 Q638.73 30.163 642.335 28.1376 Q645.981 26.1121 650.72 26.1121 Q658.539 26.1121 662.549 30.9732 Q666.559 35.7938 666.559 45.1919 Z" fill="#000000" fill-rule="nonzero" fill-opacity="1" /><path clip-path="url(#clip890)" d="M688.799 14.324 L688.799 27.2059 L704.152 27.2059 L704.152 32.9987 L688.799 32.9987 L688.799 57.6282 Q688.799 63.1779 690.298 64.7578 Q691.837 66.3376 696.496 66.3376 L704.152 66.3376 L704.152 72.576 L696.496 72.576 Q687.867 72.576 684.586 69.3758 Q681.305 66.1351 681.305 57.6282 L681.305 32.9987 L675.836 32.9987 L675.836 27.2059 L681.305 27.2059 L681.305 14.324 L688.799 14.324 Z" fill="#000000" fill-rule="nonzero" fill-opacity="1" /><path clip-path="url(#clip890)" d="M734.574 49.7694 Q725.541 49.7694 722.057 51.8354 Q718.573 53.9013 718.573 58.8839 Q718.573 62.8538 721.166 65.2034 Q723.799 67.5124 728.295 67.5124 Q734.493 67.5124 738.22 63.1374 Q741.987 58.7219 741.987 51.4303 L741.987 49.7694 L734.574 49.7694 M749.441 46.6907 L749.441 72.576 L741.987 72.576 L741.987 65.6895 Q739.435 69.8214 735.627 71.8063 Q731.82 73.7508 726.31 73.7508 Q719.343 73.7508 715.211 69.8619 Q711.119 65.9325 711.119 59.3701 Q711.119 51.7138 716.224 47.825 Q721.368 43.9361 731.536 43.9361 L741.987 43.9361 L741.987 43.2069 Q741.987 38.0623 738.585 35.2672 Q735.222 32.4315 729.105 32.4315 Q725.217 32.4315 721.53 33.3632 Q717.844 34.295 714.441 36.1584 L714.441 29.2718 Q718.533 27.692 722.381 26.9223 Q726.229 26.1121 729.875 26.1121 Q739.719 26.1121 744.58 31.2163 Q749.441 36.3204 749.441 46.6907 Z" fill="#000000" fill-rule="nonzero" fill-opacity="1" /><path clip-path="url(#clip890)" d="M802.508 45.1919 L802.508 72.576 L795.054 72.576 L795.054 45.4349 Q795.054 38.994 792.543 35.7938 Q790.031 32.5936 785.008 32.5936 Q778.972 32.5936 775.488 36.4419 Q772.005 40.2903 772.005 46.9338 L772.005 72.576 L764.51 72.576 L764.51 27.2059 L772.005 27.2059 L772.005 34.2544 Q774.678 30.163 778.283 28.1376 Q781.929 26.1121 786.669 26.1121 Q794.487 26.1121 798.497 30.9732 Q802.508 35.7938 802.508 45.1919 Z" fill="#000000" fill-rule="nonzero" fill-opacity="1" /><path clip-path="url(#clip890)" d="M856.182 48.0275 L856.182 51.6733 L821.912 51.6733 Q822.398 59.3701 826.53 63.421 Q830.702 67.4314 838.115 67.4314 Q842.409 67.4314 846.42 66.3781 Q850.471 65.3249 854.44 63.2184 L854.44 70.267 Q850.43 71.9684 846.217 72.8596 Q842.004 73.7508 837.67 73.7508 Q826.813 73.7508 820.453 67.4314 Q814.134 61.1119 814.134 50.3365 Q814.134 39.1965 820.129 32.6746 Q826.165 26.1121 836.373 26.1121 Q845.528 26.1121 850.835 32.0264 Q856.182 37.9003 856.182 48.0275 M848.729 45.84 Q848.648 39.7232 845.285 36.0774 Q841.964 32.4315 836.454 32.4315 Q830.216 32.4315 826.449 35.9558 Q822.722 39.4801 822.155 45.8805 L848.729 45.84 Z" fill="#000000" fill-rule="nonzero" fill-opacity="1" /><path clip-path="url(#clip890)" d="M885.997 32.4315 Q880.002 32.4315 876.518 37.1306 Q873.034 41.7891 873.034 49.9314 Q873.034 58.0738 876.477 62.7728 Q879.961 67.4314 885.997 67.4314 Q891.952 67.4314 895.436 62.7323 Q898.919 58.0333 898.919 49.9314 Q898.919 41.8701 895.436 37.1711 Q891.952 32.4315 885.997 32.4315 M885.997 26.1121 Q895.719 26.1121 901.269 32.4315 Q906.819 38.7509 906.819 49.9314 Q906.819 61.0714 901.269 67.4314 Q895.719 73.7508 885.997 73.7508 Q876.234 73.7508 870.685 67.4314 Q865.175 61.0714 865.175 49.9314 Q865.175 38.7509 870.685 32.4315 Q876.234 26.1121 885.997 26.1121 Z" fill="#000000" fill-rule="nonzero" fill-opacity="1" /><path clip-path="url(#clip890)" d="M918.404 54.671 L918.404 27.2059 L925.858 27.2059 L925.858 54.3874 Q925.858 60.8284 928.369 64.0691 Q930.881 67.2693 935.904 67.2693 Q941.94 67.2693 945.424 63.421 Q948.948 59.5726 948.948 52.9291 L948.948 27.2059 L956.402 27.2059 L956.402 72.576 L948.948 72.576 L948.948 65.6084 Q946.234 69.7404 942.629 71.7658 Q939.064 73.7508 934.324 73.7508 Q926.506 73.7508 922.455 68.8897 Q918.404 64.0286 918.404 54.671 M937.16 26.1121 L937.16 26.1121 Z" fill="#000000" fill-rule="nonzero" fill-opacity="1" /><path clip-path="url(#clip890)" d="M1000.68 28.5427 L1000.68 35.5912 Q997.518 33.9709 994.116 33.1607 Q990.713 32.3505 987.067 32.3505 Q981.517 32.3505 978.722 34.0519 Q975.968 35.7533 975.968 39.156 Q975.968 41.7486 977.952 43.2475 Q979.937 44.7058 985.933 46.0426 L988.485 46.6097 Q996.425 48.3111 999.746 51.4303 Q1003.11 54.509 1003.11 60.0587 Q1003.11 66.3781 998.085 70.0644 Q993.103 73.7508 984.353 73.7508 Q980.707 73.7508 976.737 73.0216 Q972.808 72.3329 968.433 70.9151 L968.433 63.2184 Q972.565 65.3654 976.575 66.4591 Q980.586 67.5124 984.515 67.5124 Q989.781 67.5124 992.617 65.73 Q995.452 63.9071 995.452 60.6258 Q995.452 57.5877 993.386 55.9673 Q991.361 54.3469 984.434 52.8481 L981.841 52.2405 Q974.914 50.7821 971.836 47.7845 Q968.757 44.7463 968.757 39.4801 Q968.757 33.0797 973.294 29.5959 Q977.831 26.1121 986.176 26.1121 Q990.308 26.1121 993.954 26.7198 Q997.599 27.3274 1000.68 28.5427 Z" fill="#000000" fill-rule="nonzero" fill-opacity="1" /><path clip-path="url(#clip890)" d="M1070.27 28.5427 L1070.27 35.5912 Q1067.11 33.9709 1063.71 33.1607 Q1060.31 32.3505 1056.66 32.3505 Q1051.11 32.3505 1048.32 34.0519 Q1045.56 35.7533 1045.56 39.156 Q1045.56 41.7486 1047.55 43.2475 Q1049.53 44.7058 1055.53 46.0426 L1058.08 46.6097 Q1066.02 48.3111 1069.34 51.4303 Q1072.7 54.509 1072.7 60.0587 Q1072.7 66.3781 1067.68 70.0644 Q1062.7 73.7508 1053.95 73.7508 Q1050.3 73.7508 1046.33 73.0216 Q1042.4 72.3329 1038.03 70.9151 L1038.03 63.2184 Q1042.16 65.3654 1046.17 66.4591 Q1050.18 67.5124 1054.11 67.5124 Q1059.38 67.5124 1062.21 65.73 Q1065.05 63.9071 1065.05 60.6258 Q1065.05 57.5877 1062.98 55.9673 Q1060.96 54.3469 1054.03 52.8481 L1051.44 52.2405 Q1044.51 50.7821 1041.43 47.7845 Q1038.35 44.7463 1038.35 39.4801 Q1038.35 33.0797 1042.89 29.5959 Q1047.43 26.1121 1055.77 26.1121 Q1059.9 26.1121 1063.55 26.7198 Q1067.19 27.3274 1070.27 28.5427 Z" fill="#000000" fill-rule="nonzero" fill-opacity="1" /><path clip-path="url(#clip890)" d="M1091.78 65.7705 L1091.78 89.8329 L1084.29 89.8329 L1084.29 27.2059 L1091.78 27.2059 L1091.78 34.0924 Q1094.13 30.0415 1097.7 28.0971 Q1101.3 26.1121 1106.29 26.1121 Q1114.55 26.1121 1119.69 32.6746 Q1124.88 39.2371 1124.88 49.9314 Q1124.88 60.6258 1119.69 67.1883 Q1114.55 73.7508 1106.29 73.7508 Q1101.3 73.7508 1097.7 71.8063 Q1094.13 69.8214 1091.78 65.7705 M1117.14 49.9314 Q1117.14 41.7081 1113.74 37.0496 Q1110.38 32.3505 1104.46 32.3505 Q1098.55 32.3505 1095.15 37.0496 Q1091.78 41.7081 1091.78 49.9314 Q1091.78 58.1548 1095.15 62.8538 Q1098.55 67.5124 1104.46 67.5124 Q1110.38 67.5124 1113.74 62.8538 Q1117.14 58.1548 1117.14 49.9314 Z" fill="#000000" fill-rule="nonzero" fill-opacity="1" /><path clip-path="url(#clip890)" d="M1176.04 48.0275 L1176.04 51.6733 L1141.77 51.6733 Q1142.26 59.3701 1146.39 63.421 Q1150.56 67.4314 1157.97 67.4314 Q1162.27 67.4314 1166.28 66.3781 Q1170.33 65.3249 1174.3 63.2184 L1174.3 70.267 Q1170.29 71.9684 1166.08 72.8596 Q1161.86 73.7508 1157.53 73.7508 Q1146.67 73.7508 1140.31 67.4314 Q1133.99 61.1119 1133.99 50.3365 Q1133.99 39.1965 1139.99 32.6746 Q1146.02 26.1121 1156.23 26.1121 Q1165.39 26.1121 1170.69 32.0264 Q1176.04 37.9003 1176.04 48.0275 M1168.59 45.84 Q1168.51 39.7232 1165.14 36.0774 Q1161.82 32.4315 1156.31 32.4315 Q1150.08 32.4315 1146.31 35.9558 Q1142.58 39.4801 1142.01 45.8805 L1168.59 45.84 Z" fill="#000000" fill-rule="nonzero" fill-opacity="1" /><path clip-path="url(#clip890)" d="M1220.93 28.9478 L1220.93 35.9153 Q1217.77 34.1734 1214.57 33.3227 Q1211.41 32.4315 1208.17 32.4315 Q1200.91 32.4315 1196.9 37.0496 Q1192.89 41.6271 1192.89 49.9314 Q1192.89 58.2358 1196.9 62.8538 Q1200.91 67.4314 1208.17 67.4314 Q1211.41 67.4314 1214.57 66.5807 Q1217.77 65.6895 1220.93 63.9476 L1220.93 70.8341 Q1217.81 72.2924 1214.44 73.0216 Q1211.12 73.7508 1207.36 73.7508 Q1197.11 73.7508 1191.07 67.3098 Q1185.03 60.8689 1185.03 49.9314 Q1185.03 38.832 1191.11 32.472 Q1197.23 26.1121 1207.84 26.1121 Q1211.28 26.1121 1214.57 26.8413 Q1217.85 27.5299 1220.93 28.9478 Z" fill="#000000" fill-rule="nonzero" fill-opacity="1" /><path clip-path="url(#clip890)" d="M1241.26 14.324 L1241.26 27.2059 L1256.61 27.2059 L1256.61 32.9987 L1241.26 32.9987 L1241.26 57.6282 Q1241.26 63.1779 1242.76 64.7578 Q1244.3 66.3376 1248.96 66.3376 L1256.61 66.3376 L1256.61 72.576 L1248.96 72.576 Q1240.33 72.576 1237.05 69.3758 Q1233.77 66.1351 1233.77 57.6282 L1233.77 32.9987 L1228.3 32.9987 L1228.3 27.2059 L1233.77 27.2059 L1233.77 14.324 L1241.26 14.324 Z" fill="#000000" fill-rule="nonzero" fill-opacity="1" /><path clip-path="url(#clip890)" d="M1292.71 34.1734 Q1291.45 33.4443 1289.95 33.1202 Q1288.49 32.7556 1286.71 32.7556 Q1280.39 32.7556 1276.99 36.8875 Q1273.63 40.9789 1273.63 48.6757 L1273.63 72.576 L1266.13 72.576 L1266.13 27.2059 L1273.63 27.2059 L1273.63 34.2544 Q1275.98 30.1225 1279.74 28.1376 Q1283.51 26.1121 1288.9 26.1121 Q1289.67 26.1121 1290.6 26.2337 Q1291.53 26.3147 1292.67 26.5172 L1292.71 34.1734 Z" fill="#000000" fill-rule="nonzero" fill-opacity="1" /><path clip-path="url(#clip890)" d="M1321.15 49.7694 Q1312.11 49.7694 1308.63 51.8354 Q1305.14 53.9013 1305.14 58.8839 Q1305.14 62.8538 1307.74 65.2034 Q1310.37 67.5124 1314.87 67.5124 Q1321.06 67.5124 1324.79 63.1374 Q1328.56 58.7219 1328.56 51.4303 L1328.56 49.7694 L1321.15 49.7694 M1336.01 46.6907 L1336.01 72.576 L1328.56 72.576 L1328.56 65.6895 Q1326.01 69.8214 1322.2 71.8063 Q1318.39 73.7508 1312.88 73.7508 Q1305.91 73.7508 1301.78 69.8619 Q1297.69 65.9325 1297.69 59.3701 Q1297.69 51.7138 1302.79 47.825 Q1307.94 43.9361 1318.11 43.9361 L1328.56 43.9361 L1328.56 43.2069 Q1328.56 38.0623 1325.16 35.2672 Q1321.79 32.4315 1315.68 32.4315 Q1311.79 32.4315 1308.1 33.3632 Q1304.41 34.295 1301.01 36.1584 L1301.01 29.2718 Q1305.1 27.692 1308.95 26.9223 Q1312.8 26.1121 1316.45 26.1121 Q1326.29 26.1121 1331.15 31.2163 Q1336.01 36.3204 1336.01 46.6907 Z" fill="#000000" fill-rule="nonzero" fill-opacity="1" /><path clip-path="url(#clip890)" d="M1351.36 9.54393 L1358.82 9.54393 L1358.82 72.576 L1351.36 72.576 L1351.36 9.54393 Z" fill="#000000" fill-rule="nonzero" fill-opacity="1" /><path clip-path="url(#clip890)" d="M1427.08 34.1734 Q1425.82 33.4443 1424.32 33.1202 Q1422.86 32.7556 1421.08 32.7556 Q1414.76 32.7556 1411.36 36.8875 Q1408 40.9789 1408 48.6757 L1408 72.576 L1400.5 72.576 L1400.5 27.2059 L1408 27.2059 L1408 34.2544 Q1410.35 30.1225 1414.11 28.1376 Q1417.88 26.1121 1423.27 26.1121 Q1424.04 26.1121 1424.97 26.2337 Q1425.9 26.3147 1427.04 26.5172 L1427.08 34.1734 Z" fill="#000000" fill-rule="nonzero" fill-opacity="1" /><path clip-path="url(#clip890)" d="M1455.51 49.7694 Q1446.48 49.7694 1443 51.8354 Q1439.51 53.9013 1439.51 58.8839 Q1439.51 62.8538 1442.11 65.2034 Q1444.74 67.5124 1449.23 67.5124 Q1455.43 67.5124 1459.16 63.1374 Q1462.93 58.7219 1462.93 51.4303 L1462.93 49.7694 L1455.51 49.7694 M1470.38 46.6907 L1470.38 72.576 L1462.93 72.576 L1462.93 65.6895 Q1460.37 69.8214 1456.57 71.8063 Q1452.76 73.7508 1447.25 73.7508 Q1440.28 73.7508 1436.15 69.8619 Q1432.06 65.9325 1432.06 59.3701 Q1432.06 51.7138 1437.16 47.825 Q1442.31 43.9361 1452.48 43.9361 L1462.93 43.9361 L1462.93 43.2069 Q1462.93 38.0623 1459.52 35.2672 Q1456.16 32.4315 1450.04 32.4315 Q1446.16 32.4315 1442.47 33.3632 Q1438.78 34.295 1435.38 36.1584 L1435.38 29.2718 Q1439.47 27.692 1443.32 26.9223 Q1447.17 26.1121 1450.81 26.1121 Q1460.66 26.1121 1465.52 31.2163 Q1470.38 36.3204 1470.38 46.6907 Z" fill="#000000" fill-rule="nonzero" fill-opacity="1" /><path clip-path="url(#clip890)" d="M1515.59 34.0924 L1515.59 9.54393 L1523.04 9.54393 L1523.04 72.576 L1515.59 72.576 L1515.59 65.7705 Q1513.24 69.8214 1509.63 71.8063 Q1506.07 73.7508 1501.05 73.7508 Q1492.82 73.7508 1487.64 67.1883 Q1482.49 60.6258 1482.49 49.9314 Q1482.49 39.2371 1487.64 32.6746 Q1492.82 26.1121 1501.05 26.1121 Q1506.07 26.1121 1509.63 28.0971 Q1513.24 30.0415 1515.59 34.0924 M1490.19 49.9314 Q1490.19 58.1548 1493.55 62.8538 Q1496.95 67.5124 1502.87 67.5124 Q1508.78 67.5124 1512.19 62.8538 Q1515.59 58.1548 1515.59 49.9314 Q1515.59 41.7081 1512.19 37.0496 Q1508.78 32.3505 1502.87 32.3505 Q1496.95 32.3505 1493.55 37.0496 Q1490.19 41.7081 1490.19 49.9314 Z" fill="#000000" fill-rule="nonzero" fill-opacity="1" /><path clip-path="url(#clip890)" d="M1538.4 27.2059 L1545.85 27.2059 L1545.85 72.576 L1538.4 72.576 L1538.4 27.2059 M1538.4 9.54393 L1545.85 9.54393 L1545.85 18.9825 L1538.4 18.9825 L1538.4 9.54393 Z" fill="#000000" fill-rule="nonzero" fill-opacity="1" /><path clip-path="url(#clip890)" d="M1560.68 54.671 L1560.68 27.2059 L1568.13 27.2059 L1568.13 54.3874 Q1568.13 60.8284 1570.64 64.0691 Q1573.15 67.2693 1578.17 67.2693 Q1584.21 67.2693 1587.69 63.421 Q1591.22 59.5726 1591.22 52.9291 L1591.22 27.2059 L1598.67 27.2059 L1598.67 72.576 L1591.22 72.576 L1591.22 65.6084 Q1588.5 69.7404 1584.9 71.7658 Q1581.33 73.7508 1576.6 73.7508 Q1568.78 73.7508 1564.73 68.8897 Q1560.68 64.0286 1560.68 54.671 M1579.43 26.1121 L1579.43 26.1121 Z" fill="#000000" fill-rule="nonzero" fill-opacity="1" /><path clip-path="url(#clip890)" d="M1642.95 28.5427 L1642.95 35.5912 Q1639.79 33.9709 1636.39 33.1607 Q1632.98 32.3505 1629.34 32.3505 Q1623.79 32.3505 1620.99 34.0519 Q1618.24 35.7533 1618.24 39.156 Q1618.24 41.7486 1620.22 43.2475 Q1622.21 44.7058 1628.2 46.0426 L1630.76 46.6097 Q1638.7 48.3111 1642.02 51.4303 Q1645.38 54.509 1645.38 60.0587 Q1645.38 66.3781 1640.36 70.0644 Q1635.37 73.7508 1626.62 73.7508 Q1622.98 73.7508 1619.01 73.0216 Q1615.08 72.3329 1610.7 70.9151 L1610.7 63.2184 Q1614.84 65.3654 1618.85 66.4591 Q1622.86 67.5124 1626.79 67.5124 Q1632.05 67.5124 1634.89 65.73 Q1637.72 63.9071 1637.72 60.6258 Q1637.72 57.5877 1635.66 55.9673 Q1633.63 54.3469 1626.7 52.8481 L1624.11 52.2405 Q1617.19 50.7821 1614.11 47.7845 Q1611.03 44.7463 1611.03 39.4801 Q1611.03 33.0797 1615.56 29.5959 Q1620.1 26.1121 1628.45 26.1121 Q1632.58 26.1121 1636.22 26.7198 Q1639.87 27.3274 1642.95 28.5427 Z" fill="#000000" fill-rule="nonzero" fill-opacity="1" /><path clip-path="url(#clip890)" d="M1701.2 32.4315 Q1695.21 32.4315 1691.72 37.1306 Q1688.24 41.7891 1688.24 49.9314 Q1688.24 58.0738 1691.68 62.7728 Q1695.17 67.4314 1701.2 67.4314 Q1707.16 67.4314 1710.64 62.7323 Q1714.12 58.0333 1714.12 49.9314 Q1714.12 41.8701 1710.64 37.1711 Q1707.16 32.4315 1701.2 32.4315 M1701.2 26.1121 Q1710.92 26.1121 1716.47 32.4315 Q1722.02 38.7509 1722.02 49.9314 Q1722.02 61.0714 1716.47 67.4314 Q1710.92 73.7508 1701.2 73.7508 Q1691.44 73.7508 1685.89 67.4314 Q1680.38 61.0714 1680.38 49.9314 Q1680.38 38.7509 1685.89 32.4315 Q1691.44 26.1121 1701.2 26.1121 Z" fill="#000000" fill-rule="nonzero" fill-opacity="1" /><path clip-path="url(#clip890)" d="M1729.03 27.2059 L1736.93 27.2059 L1751.11 65.2844 L1765.29 27.2059 L1773.19 27.2059 L1756.17 72.576 L1746.04 72.576 L1729.03 27.2059 Z" fill="#000000" fill-rule="nonzero" fill-opacity="1" /><path clip-path="url(#clip890)" d="M1822.28 48.0275 L1822.28 51.6733 L1788.01 51.6733 Q1788.5 59.3701 1792.63 63.421 Q1796.8 67.4314 1804.22 67.4314 Q1808.51 67.4314 1812.52 66.3781 Q1816.57 65.3249 1820.54 63.2184 L1820.54 70.267 Q1816.53 71.9684 1812.32 72.8596 Q1808.1 73.7508 1803.77 73.7508 Q1792.91 73.7508 1786.55 67.4314 Q1780.23 61.1119 1780.23 50.3365 Q1780.23 39.1965 1786.23 32.6746 Q1792.27 26.1121 1802.47 26.1121 Q1811.63 26.1121 1816.94 32.0264 Q1822.28 37.9003 1822.28 48.0275 M1814.83 45.84 Q1814.75 39.7232 1811.39 36.0774 Q1808.06 32.4315 1802.55 32.4315 Q1796.32 32.4315 1792.55 35.9558 Q1788.82 39.4801 1788.25 45.8805 L1814.83 45.84 Z" fill="#000000" fill-rule="nonzero" fill-opacity="1" /><path clip-path="url(#clip890)" d="M1860.81 34.1734 Q1859.55 33.4443 1858.05 33.1202 Q1856.59 32.7556 1854.81 32.7556 Q1848.49 32.7556 1845.09 36.8875 Q1841.73 40.9789 1841.73 48.6757 L1841.73 72.576 L1834.23 72.576 L1834.23 27.2059 L1841.73 27.2059 L1841.73 34.2544 Q1844.08 30.1225 1847.84 28.1376 Q1851.61 26.1121 1857 26.1121 Q1857.77 26.1121 1858.7 26.2337 Q1859.63 26.3147 1860.77 26.5172 L1860.81 34.1734 Z" fill="#000000" fill-rule="nonzero" fill-opacity="1" /><path clip-path="url(#clip890)" d="M1902.37 14.324 L1902.37 27.2059 L1917.72 27.2059 L1917.72 32.9987 L1902.37 32.9987 L1902.37 57.6282 Q1902.37 63.1779 1903.87 64.7578 Q1905.41 66.3376 1910.07 66.3376 L1917.72 66.3376 L1917.72 72.576 L1910.07 72.576 Q1901.44 72.576 1898.16 69.3758 Q1894.87 66.1351 1894.87 57.6282 L1894.87 32.9987 L1889.41 32.9987 L1889.41 27.2059 L1894.87 27.2059 L1894.87 14.324 L1902.37 14.324 Z" fill="#000000" fill-rule="nonzero" fill-opacity="1" /><path clip-path="url(#clip890)" d="M1965.24 45.1919 L1965.24 72.576 L1957.79 72.576 L1957.79 45.4349 Q1957.79 38.994 1955.27 35.7938 Q1952.76 32.5936 1947.74 32.5936 Q1941.7 32.5936 1938.22 36.4419 Q1934.74 40.2903 1934.74 46.9338 L1934.74 72.576 L1927.24 72.576 L1927.24 9.54393 L1934.74 9.54393 L1934.74 34.2544 Q1937.41 30.163 1941.01 28.1376 Q1944.66 26.1121 1949.4 26.1121 Q1957.22 26.1121 1961.23 30.9732 Q1965.24 35.7938 1965.24 45.1919 Z" fill="#000000" fill-rule="nonzero" fill-opacity="1" /><path clip-path="url(#clip890)" d="M2018.91 48.0275 L2018.91 51.6733 L1984.64 51.6733 Q1985.13 59.3701 1989.26 63.421 Q1993.43 67.4314 2000.85 67.4314 Q2005.14 67.4314 2009.15 66.3781 Q2013.2 65.3249 2017.17 63.2184 L2017.17 70.267 Q2013.16 71.9684 2008.95 72.8596 Q2004.74 73.7508 2000.4 73.7508 Q1989.54 73.7508 1983.18 67.4314 Q1976.86 61.1119 1976.86 50.3365 Q1976.86 39.1965 1982.86 32.6746 Q1988.9 26.1121 1999.1 26.1121 Q2008.26 26.1121 2013.57 32.0264 Q2018.91 37.9003 2018.91 48.0275 M2011.46 45.84 Q2011.38 39.7232 2008.02 36.0774 Q2004.69 32.4315 1999.19 32.4315 Q1992.95 32.4315 1989.18 35.9558 Q1985.45 39.4801 1984.89 45.8805 L2011.46 45.84 Z" fill="#000000" fill-rule="nonzero" fill-opacity="1" /><path clip-path="url(#clip890)" d="M2078.14 49.7694 Q2069.1 49.7694 2065.62 51.8354 Q2062.14 53.9013 2062.14 58.8839 Q2062.14 62.8538 2064.73 65.2034 Q2067.36 67.5124 2071.86 67.5124 Q2078.06 67.5124 2081.78 63.1374 Q2085.55 58.7219 2085.55 51.4303 L2085.55 49.7694 L2078.14 49.7694 M2093 46.6907 L2093 72.576 L2085.55 72.576 L2085.55 65.6895 Q2083 69.8214 2079.19 71.8063 Q2075.38 73.7508 2069.87 73.7508 Q2062.91 73.7508 2058.77 69.8619 Q2054.68 65.9325 2054.68 59.3701 Q2054.68 51.7138 2059.79 47.825 Q2064.93 43.9361 2075.1 43.9361 L2085.55 43.9361 L2085.55 43.2069 Q2085.55 38.0623 2082.15 35.2672 Q2078.79 32.4315 2072.67 32.4315 Q2068.78 32.4315 2065.09 33.3632 Q2061.41 34.295 2058 36.1584 L2058 29.2718 Q2062.1 27.692 2065.94 26.9223 Q2069.79 26.1121 2073.44 26.1121 Q2083.28 26.1121 2088.14 31.2163 Q2093 36.3204 2093 46.6907 Z" fill="#000000" fill-rule="nonzero" fill-opacity="1" /><path clip-path="url(#clip890)" d="M2146.07 45.1919 L2146.07 72.576 L2138.62 72.576 L2138.62 45.4349 Q2138.62 38.994 2136.11 35.7938 Q2133.59 32.5936 2128.57 32.5936 Q2122.54 32.5936 2119.05 36.4419 Q2115.57 40.2903 2115.57 46.9338 L2115.57 72.576 L2108.07 72.576 L2108.07 27.2059 L2115.57 27.2059 L2115.57 34.2544 Q2118.24 30.163 2121.85 28.1376 Q2125.49 26.1121 2130.23 26.1121 Q2138.05 26.1121 2142.06 30.9732 Q2146.07 35.7938 2146.07 45.1919 Z" fill="#000000" fill-rule="nonzero" fill-opacity="1" /><path clip-path="url(#clip890)" d="M2198.65 45.1919 L2198.65 72.576 L2191.2 72.576 L2191.2 45.4349 Q2191.2 38.994 2188.69 35.7938 Q2186.18 32.5936 2181.15 32.5936 Q2175.12 32.5936 2171.63 36.4419 Q2168.15 40.2903 2168.15 46.9338 L2168.15 72.576 L2160.65 72.576 L2160.65 27.2059 L2168.15 27.2059 L2168.15 34.2544 Q2170.82 30.163 2174.43 28.1376 Q2178.07 26.1121 2182.81 26.1121 Q2190.63 26.1121 2194.64 30.9732 Q2198.65 35.7938 2198.65 45.1919 Z" fill="#000000" fill-rule="nonzero" fill-opacity="1" /><path clip-path="url(#clip890)" d="M2212.75 54.671 L2212.75 27.2059 L2220.2 27.2059 L2220.2 54.3874 Q2220.2 60.8284 2222.71 64.0691 Q2225.23 67.2693 2230.25 67.2693 Q2236.28 67.2693 2239.77 63.421 Q2243.29 59.5726 2243.29 52.9291 L2243.29 27.2059 L2250.75 27.2059 L2250.75 72.576 L2243.29 72.576 L2243.29 65.6084 Q2240.58 69.7404 2236.97 71.7658 Q2233.41 73.7508 2228.67 73.7508 Q2220.85 73.7508 2216.8 68.8897 Q2212.75 64.0286 2212.75 54.671 M2231.5 26.1121 L2231.5 26.1121 Z" fill="#000000" fill-rule="nonzero" fill-opacity="1" /><path clip-path="url(#clip890)" d="M2286.72 49.7694 Q2277.69 49.7694 2274.2 51.8354 Q2270.72 53.9013 2270.72 58.8839 Q2270.72 62.8538 2273.31 65.2034 Q2275.94 67.5124 2280.44 67.5124 Q2286.64 67.5124 2290.36 63.1374 Q2294.13 58.7219 2294.13 51.4303 L2294.13 49.7694 L2286.72 49.7694 M2301.59 46.6907 L2301.59 72.576 L2294.13 72.576 L2294.13 65.6895 Q2291.58 69.8214 2287.77 71.8063 Q2283.96 73.7508 2278.45 73.7508 Q2271.49 73.7508 2267.36 69.8619 Q2263.26 65.9325 2263.26 59.3701 Q2263.26 51.7138 2268.37 47.825 Q2273.51 43.9361 2283.68 43.9361 L2294.13 43.9361 L2294.13 43.2069 Q2294.13 38.0623 2290.73 35.2672 Q2287.37 32.4315 2281.25 32.4315 Q2277.36 32.4315 2273.67 33.3632 Q2269.99 34.295 2266.59 36.1584 L2266.59 29.2718 Q2270.68 27.692 2274.53 26.9223 Q2278.37 26.1121 2282.02 26.1121 Q2291.86 26.1121 2296.72 31.2163 Q2301.59 36.3204 2301.59 46.6907 Z" fill="#000000" fill-rule="nonzero" fill-opacity="1" /><path clip-path="url(#clip890)" d="M2316.94 9.54393 L2324.39 9.54393 L2324.39 72.576 L2316.94 72.576 L2316.94 9.54393 Z" fill="#000000" fill-rule="nonzero" fill-opacity="1" /><path clip-path="url(#clip890)" d="M2399.01 28.9478 L2399.01 35.9153 Q2395.85 34.1734 2392.65 33.3227 Q2389.49 32.4315 2386.25 32.4315 Q2379 32.4315 2374.99 37.0496 Q2370.98 41.6271 2370.98 49.9314 Q2370.98 58.2358 2374.99 62.8538 Q2379 67.4314 2386.25 67.4314 Q2389.49 67.4314 2392.65 66.5807 Q2395.85 65.6895 2399.01 63.9476 L2399.01 70.8341 Q2395.89 72.2924 2392.53 73.0216 Q2389.21 73.7508 2385.44 73.7508 Q2375.19 73.7508 2369.15 67.3098 Q2363.12 60.8689 2363.12 49.9314 Q2363.12 38.832 2369.2 32.472 Q2375.31 26.1121 2385.93 26.1121 Q2389.37 26.1121 2392.65 26.8413 Q2395.93 27.5299 2399.01 28.9478 Z" fill="#000000" fill-rule="nonzero" fill-opacity="1" /><path clip-path="url(#clip890)" d="M2430.85 76.7889 Q2427.69 84.8907 2424.69 87.3618 Q2421.69 89.8329 2416.67 89.8329 L2410.72 89.8329 L2410.72 83.5945 L2415.09 83.5945 Q2418.17 83.5945 2419.87 82.1361 Q2421.57 80.6778 2423.64 75.2496 L2424.98 71.8468 L2406.63 27.2059 L2414.52 27.2059 L2428.7 62.6918 L2442.88 27.2059 L2450.78 27.2059 L2430.85 76.7889 Z" fill="#000000" fill-rule="nonzero" fill-opacity="1" /><path clip-path="url(#clip890)" d="M2493.72 28.9478 L2493.72 35.9153 Q2490.56 34.1734 2487.36 33.3227 Q2484.2 32.4315 2480.96 32.4315 Q2473.71 32.4315 2469.7 37.0496 Q2465.69 41.6271 2465.69 49.9314 Q2465.69 58.2358 2469.7 62.8538 Q2473.71 67.4314 2480.96 67.4314 Q2484.2 67.4314 2487.36 66.5807 Q2490.56 65.6895 2493.72 63.9476 L2493.72 70.8341 Q2490.6 72.2924 2487.24 73.0216 Q2483.92 73.7508 2480.15 73.7508 Q2469.9 73.7508 2463.86 67.3098 Q2457.83 60.8689 2457.83 49.9314 Q2457.83 38.832 2463.91 32.472 Q2470.02 26.1121 2480.64 26.1121 Q2484.08 26.1121 2487.36 26.8413 Q2490.64 27.5299 2493.72 28.9478 Z" fill="#000000" fill-rule="nonzero" fill-opacity="1" /><path clip-path="url(#clip890)" d="M2506.68 9.54393 L2514.14 9.54393 L2514.14 72.576 L2506.68 72.576 L2506.68 9.54393 Z" fill="#000000" fill-rule="nonzero" fill-opacity="1" /><path clip-path="url(#clip890)" d="M2568.54 48.0275 L2568.54 51.6733 L2534.27 51.6733 Q2534.76 59.3701 2538.89 63.421 Q2543.06 67.4314 2550.47 67.4314 Q2554.77 67.4314 2558.78 66.3781 Q2562.83 65.3249 2566.8 63.2184 L2566.8 70.267 Q2562.79 71.9684 2558.57 72.8596 Q2554.36 73.7508 2550.03 73.7508 Q2539.17 73.7508 2532.81 67.4314 Q2526.49 61.1119 2526.49 50.3365 Q2526.49 39.1965 2532.49 32.6746 Q2538.52 26.1121 2548.73 26.1121 Q2557.89 26.1121 2563.19 32.0264 Q2568.54 37.9003 2568.54 48.0275 M2561.09 45.84 Q2561.01 39.7232 2557.64 36.0774 Q2554.32 32.4315 2548.81 32.4315 Q2542.57 32.4315 2538.81 35.9558 Q2535.08 39.4801 2534.51 45.8805 L2561.09 45.84 Z" fill="#000000" fill-rule="nonzero" fill-opacity="1" /><polyline clip-path="url(#clip891)" style="stroke:#800080; stroke-linecap:round; stroke-linejoin:round; stroke-width:8; stroke-opacity:1; fill:none" points="312.393,381.238 357.956,353.027 403.52,326.286 449.083,300.838 494.646,276.536 540.209,253.259 585.772,260.015 631.335,266.853 676.899,273.776 722.462,280.788 768.025,287.889 813.588,234.504 859.151,185.676 904.714,140.541 950.278,167.326 995.841,195.348 1041.4,461.771 1086.97,571.432 1132.53,712.107 1178.09,757.623 1223.66,807.737 1269.22,885.735 1314.78,969.722 1360.35,1070.46 1405.91,1110.95 1451.47,1154.27 1497.04,1213.51 1542.6,1213.51 1588.16,1213.51 1633.72,1213.51 1679.29,1213.51 1724.85,1213.51 1770.41,1213.51 1815.98,1213.51 1861.54,1213.51 1907.1,1213.51 1952.67,1213.51 1998.23,1213.51 2043.79,1213.51 2089.36,1213.51 2134.92,1160.09 2180.48,1122.9 2226.05,1088.3 2271.61,1054.71 2317.17,1006.37 2362.74,960.565 2408.3,916.096 2453.86,825.138 2499.42,735.457 2544.99,646.44 2590.55,557.816 2636.11,469.442 2681.68,381.238 "/>
<polyline clip-path="url(#clip891)" style="stroke:#000000; stroke-linecap:round; stroke-linejoin:round; stroke-width:6; stroke-opacity:1; fill:none" stroke-dasharray="24, 15" points="-2270.13,1082.72 5264.2,1082.72 "/>
<path clip-path="url(#clip890)" d="M2137.26 1034.61 Q2138.85 1031.95 2142.78 1029.61 Q2144.32 1028.7 2149.06 1028.7 Q2154.37 1028.7 2157.68 1032.92 Q2161.01 1037.14 2161.01 1044.01 Q2161.01 1050.89 2157.68 1055.11 Q2154.37 1059.32 2149.06 1059.32 Q2145.86 1059.32 2143.54 1058.07 Q2141.25 1056.8 2139.74 1054.19 L2139.74 1069.66 L2134.92 1069.66 L2134.92 1044.27 Q2134.92 1038.26 2137.26 1034.61 M2156.04 1044.01 Q2156.04 1038.73 2153.85 1035.73 Q2151.69 1032.71 2147.89 1032.71 Q2144.09 1032.71 2141.9 1035.73 Q2139.74 1038.73 2139.74 1044.01 Q2139.74 1049.3 2141.9 1052.32 Q2144.09 1055.31 2147.89 1055.31 Q2151.69 1055.31 2153.85 1052.32 Q2156.04 1049.3 2156.04 1044.01 Z" fill="#000000" fill-rule="nonzero" fill-opacity="1" /><path clip-path="url(#clip890)" d="M2186.53 1034.35 L2219.92 1034.35 L2219.92 1038.73 L2186.53 1038.73 L2186.53 1034.35 M2186.53 1044.98 L2219.92 1044.98 L2219.92 1049.4 L2186.53 1049.4 L2186.53 1044.98 Z" fill="#000000" fill-rule="nonzero" fill-opacity="1" /><path clip-path="url(#clip890)" d="M2249.14 1054.14 L2257.73 1054.14 L2257.73 1024.48 L2248.38 1026.36 L2248.38 1021.56 L2257.68 1019.69 L2262.94 1019.69 L2262.94 1054.14 L2271.53 1054.14 L2271.53 1058.57 L2249.14 1058.57 L2249.14 1054.14 Z" fill="#000000" fill-rule="nonzero" fill-opacity="1" /><path clip-path="url(#clip890)" d="M2309.94 1018.1 Q2306.46 1024.09 2304.76 1029.95 Q2303.07 1035.81 2303.07 1041.82 Q2303.07 1047.84 2304.76 1053.75 Q2306.48 1059.64 2309.94 1065.6 L2305.78 1065.6 Q2301.87 1059.48 2299.92 1053.57 Q2297.99 1047.66 2297.99 1041.82 Q2297.99 1036.02 2299.92 1030.13 Q2301.85 1024.25 2305.78 1018.1 L2309.94 1018.1 Z" fill="#000000" fill-rule="nonzero" fill-opacity="1" /><path clip-path="url(#clip890)" d="M2323.98 1021.12 L2323.98 1029.4 L2333.85 1029.4 L2333.85 1033.13 L2323.98 1033.13 L2323.98 1048.96 Q2323.98 1052.53 2324.94 1053.54 Q2325.93 1054.56 2328.93 1054.56 L2333.85 1054.56 L2333.85 1058.57 L2328.93 1058.57 Q2323.38 1058.57 2321.27 1056.51 Q2319.16 1054.43 2319.16 1048.96 L2319.16 1033.13 L2315.65 1033.13 L2315.65 1029.4 L2319.16 1029.4 L2319.16 1021.12 L2323.98 1021.12 Z" fill="#000000" fill-rule="nonzero" fill-opacity="1" /><path clip-path="url(#clip890)" d="M2364.4 1040.97 L2364.4 1058.57 L2359.61 1058.57 L2359.61 1041.12 Q2359.61 1036.98 2357.99 1034.92 Q2356.38 1032.87 2353.15 1032.87 Q2349.27 1032.87 2347.03 1035.34 Q2344.79 1037.81 2344.79 1042.09 L2344.79 1058.57 L2339.97 1058.57 L2339.97 1018.05 L2344.79 1018.05 L2344.79 1033.93 Q2346.51 1031.3 2348.82 1030 Q2351.17 1028.7 2354.22 1028.7 Q2359.24 1028.7 2361.82 1031.82 Q2364.4 1034.92 2364.4 1040.97 Z" fill="#000000" fill-rule="nonzero" fill-opacity="1" /><path clip-path="url(#clip890)" d="M2390.86 1033.88 Q2390.05 1033.41 2389.08 1033.2 Q2388.15 1032.97 2387 1032.97 Q2382.94 1032.97 2380.75 1035.63 Q2378.59 1038.26 2378.59 1043.2 L2378.59 1058.57 L2373.77 1058.57 L2373.77 1029.4 L2378.59 1029.4 L2378.59 1033.93 Q2380.1 1031.28 2382.52 1030 Q2384.94 1028.7 2388.41 1028.7 Q2388.9 1028.7 2389.5 1028.78 Q2390.1 1028.83 2390.83 1028.96 L2390.86 1033.88 Z" fill="#000000" fill-rule="nonzero" fill-opacity="1" /><path clip-path="url(#clip890)" d="M2419.66 1042.79 L2419.66 1045.13 L2397.63 1045.13 Q2397.94 1050.08 2400.6 1052.68 Q2403.28 1055.26 2408.04 1055.26 Q2410.8 1055.26 2413.38 1054.59 Q2415.99 1053.91 2418.54 1052.55 L2418.54 1057.09 Q2415.96 1058.18 2413.25 1058.75 Q2410.54 1059.32 2407.76 1059.32 Q2400.78 1059.32 2396.69 1055.26 Q2392.63 1051.2 2392.63 1044.27 Q2392.63 1037.11 2396.48 1032.92 Q2400.36 1028.7 2406.92 1028.7 Q2412.81 1028.7 2416.22 1032.5 Q2419.66 1036.28 2419.66 1042.79 M2414.87 1041.38 Q2414.81 1037.45 2412.65 1035.11 Q2410.52 1032.76 2406.98 1032.76 Q2402.96 1032.76 2400.54 1035.03 Q2398.15 1037.29 2397.78 1041.41 L2414.87 1041.38 Z" fill="#000000" fill-rule="nonzero" fill-opacity="1" /><path clip-path="url(#clip890)" d="M2446.12 1030.26 L2446.12 1034.79 Q2444.08 1033.75 2441.9 1033.23 Q2439.71 1032.71 2437.37 1032.71 Q2433.8 1032.71 2432 1033.8 Q2430.23 1034.9 2430.23 1037.09 Q2430.23 1038.75 2431.51 1039.72 Q2432.78 1040.65 2436.64 1041.51 L2438.28 1041.88 Q2443.38 1042.97 2445.52 1044.98 Q2447.68 1046.95 2447.68 1050.52 Q2447.68 1054.59 2444.45 1056.95 Q2441.25 1059.32 2435.62 1059.32 Q2433.28 1059.32 2430.73 1058.86 Q2428.2 1058.41 2425.39 1057.5 L2425.39 1052.55 Q2428.04 1053.93 2430.62 1054.64 Q2433.2 1055.31 2435.73 1055.31 Q2439.11 1055.31 2440.93 1054.17 Q2442.76 1053 2442.76 1050.89 Q2442.76 1048.93 2441.43 1047.89 Q2440.13 1046.85 2435.67 1045.89 L2434.01 1045.5 Q2429.55 1044.56 2427.57 1042.63 Q2425.6 1040.68 2425.6 1037.29 Q2425.6 1033.18 2428.51 1030.94 Q2431.43 1028.7 2436.79 1028.7 Q2439.45 1028.7 2441.79 1029.09 Q2444.14 1029.48 2446.12 1030.26 Z" fill="#000000" fill-rule="nonzero" fill-opacity="1" /><path clip-path="url(#clip890)" d="M2479.55 1040.97 L2479.55 1058.57 L2474.76 1058.57 L2474.76 1041.12 Q2474.76 1036.98 2473.15 1034.92 Q2471.53 1032.87 2468.3 1032.87 Q2464.42 1032.87 2462.18 1035.34 Q2459.94 1037.81 2459.94 1042.09 L2459.94 1058.57 L2455.13 1058.57 L2455.13 1018.05 L2459.94 1018.05 L2459.94 1033.93 Q2461.66 1031.3 2463.98 1030 Q2466.32 1028.7 2469.37 1028.7 Q2474.4 1028.7 2476.97 1031.82 Q2479.55 1034.92 2479.55 1040.97 Z" fill="#000000" fill-rule="nonzero" fill-opacity="1" /><path clip-path="url(#clip890)" d="M2500.41 1032.76 Q2496.56 1032.76 2494.32 1035.78 Q2492.08 1038.78 2492.08 1044.01 Q2492.08 1049.25 2494.29 1052.27 Q2496.53 1055.26 2500.41 1055.26 Q2504.24 1055.26 2506.48 1052.24 Q2508.72 1049.22 2508.72 1044.01 Q2508.72 1038.83 2506.48 1035.81 Q2504.24 1032.76 2500.41 1032.76 M2500.41 1028.7 Q2506.66 1028.7 2510.23 1032.76 Q2513.8 1036.82 2513.8 1044.01 Q2513.8 1051.17 2510.23 1055.26 Q2506.66 1059.32 2500.41 1059.32 Q2494.14 1059.32 2490.57 1055.26 Q2487.03 1051.17 2487.03 1044.01 Q2487.03 1036.82 2490.57 1032.76 Q2494.14 1028.7 2500.41 1028.7 Z" fill="#000000" fill-rule="nonzero" fill-opacity="1" /><path clip-path="url(#clip890)" d="M2521.74 1018.05 L2526.53 1018.05 L2526.53 1058.57 L2521.74 1058.57 L2521.74 1018.05 Z" fill="#000000" fill-rule="nonzero" fill-opacity="1" /><path clip-path="url(#clip890)" d="M2555.75 1033.83 L2555.75 1018.05 L2560.54 1018.05 L2560.54 1058.57 L2555.75 1058.57 L2555.75 1054.19 Q2554.24 1056.8 2551.92 1058.07 Q2549.63 1059.32 2546.4 1059.32 Q2541.12 1059.32 2537.78 1055.11 Q2534.47 1050.89 2534.47 1044.01 Q2534.47 1037.14 2537.78 1032.92 Q2541.12 1028.7 2546.4 1028.7 Q2549.63 1028.7 2551.92 1029.98 Q2554.24 1031.23 2555.75 1033.83 M2539.42 1044.01 Q2539.42 1049.3 2541.58 1052.32 Q2543.77 1055.31 2547.57 1055.31 Q2551.38 1055.31 2553.56 1052.32 Q2555.75 1049.3 2555.75 1044.01 Q2555.75 1038.73 2553.56 1035.73 Q2551.38 1032.71 2547.57 1032.71 Q2543.77 1032.71 2541.58 1035.73 Q2539.42 1038.73 2539.42 1044.01 Z" fill="#000000" fill-rule="nonzero" fill-opacity="1" /><path clip-path="url(#clip890)" d="M2569.66 1018.1 L2573.82 1018.1 Q2577.73 1024.25 2579.66 1030.13 Q2581.61 1036.02 2581.61 1041.82 Q2581.61 1047.66 2579.66 1053.57 Q2577.73 1059.48 2573.82 1065.6 L2569.66 1065.6 Q2573.12 1059.64 2574.81 1053.75 Q2576.53 1047.84 2576.53 1041.82 Q2576.53 1035.81 2574.81 1029.95 Q2573.12 1024.09 2569.66 1018.1 Z" fill="#000000" fill-rule="nonzero" fill-opacity="1" /></svg>
