<?xml version="1.0" encoding="utf-8"?>
<svg xmlns="http://www.w3.org/2000/svg" xmlns:xlink="http://www.w3.org/1999/xlink" width="700" height="400" viewBox="0 0 2800 1600">
<defs>
  <clipPath id="clip680">
    <rect x="0" y="0" width="2800" height="1600"/>
  </clipPath>
</defs>
<path clip-path="url(#clip680)" d="M0 1600 L2800 1600 L2800 8.88178e-14 L0 8.88178e-14  Z" fill="#ffffff" fill-rule="evenodd" fill-opacity="1"/>
<defs>
  <clipPath id="clip681">
    <rect x="241" y="114" width="2512" height="1321"/>
  </clipPath>
</defs>
<path clip-path="url(#clip680)" d="M241.662 1434.91 L2752.76 1434.91 L2752.76 114.832 L241.662 114.832  Z" fill="#ffffff" fill-rule="evenodd" fill-opacity="1"/>
<polyline clip-path="url(#clip681)" style="stroke:#000000; stroke-linecap:round; stroke-linejoin:round; stroke-width:2; stroke-opacity:0.1; fill:none" points="312.731,1434.91 312.731,114.832 "/>
<polyline clip-path="url(#clip681)" style="stroke:#000000; stroke-linecap:round; stroke-linejoin:round; stroke-width:2; stroke-opacity:0.1; fill:none" points="768.3,1434.91 768.3,114.832 "/>
<polyline clip-path="url(#clip681)" style="stroke:#000000; stroke-linecap:round; stroke-linejoin:round; stroke-width:2; stroke-opacity:0.1; fill:none" points="1223.87,1434.91 1223.87,114.832 "/>
<polyline clip-path="url(#clip681)" style="stroke:#000000; stroke-linecap:round; stroke-linejoin:round; stroke-width:2; stroke-opacity:0.1; fill:none" points="1679.44,1434.91 1679.44,114.832 "/>
<polyline clip-path="url(#clip681)" style="stroke:#000000; stroke-linecap:round; stroke-linejoin:round; stroke-width:2; stroke-opacity:0.1; fill:none" points="2135.01,1434.91 2135.01,114.832 "/>
<polyline clip-path="url(#clip681)" style="stroke:#000000; stroke-linecap:round; stroke-linejoin:round; stroke-width:2; stroke-opacity:0.1; fill:none" points="2590.57,1434.91 2590.57,114.832 "/>
<polyline clip-path="url(#clip681)" style="stroke:#000000; stroke-linecap:round; stroke-linejoin:round; stroke-width:2; stroke-opacity:0.1; fill:none" points="241.662,1141.58 2752.76,1141.58 "/>
<polyline clip-path="url(#clip681)" style="stroke:#000000; stroke-linecap:round; stroke-linejoin:round; stroke-width:2; stroke-opacity:0.1; fill:none" points="241.662,795.586 2752.76,795.586 "/>
<polyline clip-path="url(#clip681)" style="stroke:#000000; stroke-linecap:round; stroke-linejoin:round; stroke-width:2; stroke-opacity:0.1; fill:none" points="241.662,449.591 2752.76,449.591 "/>
<polyline clip-path="url(#clip680)" style="stroke:#000000; stroke-linecap:round; stroke-linejoin:round; stroke-width:4; stroke-opacity:1; fill:none" points="241.662,1434.91 2752.76,1434.91 "/>
<polyline clip-path="url(#clip680)" style="stroke:#000000; stroke-linecap:round; stroke-linejoin:round; stroke-width:4; stroke-opacity:1; fill:none" points="312.731,1434.91 312.731,1416.01 "/>
<polyline clip-path="url(#clip680)" style="stroke:#000000; stroke-linecap:round; stroke-linejoin:round; stroke-width:4; stroke-opacity:1; fill:none" points="768.3,1434.91 768.3,1416.01 "/>
<polyline clip-path="url(#clip680)" style="stroke:#000000; stroke-linecap:round; stroke-linejoin:round; stroke-width:4; stroke-opacity:1; fill:none" points="1223.87,1434.91 1223.87,1416.01 "/>
<polyline clip-path="url(#clip680)" style="stroke:#000000; stroke-linecap:round; stroke-linejoin:round; stroke-width:4; stroke-opacity:1; fill:none" points="1679.44,1434.91 1679.44,1416.01 "/>
<polyline clip-path="url(#clip680)" style="stroke:#000000; stroke-linecap:round; stroke-linejoin:round; stroke-width:4; stroke-opacity:1; fill:none" points="2135.01,1434.91 2135.01,1416.01 "/>
<polyline clip-path="url(#clip680)" style="stroke:#000000; stroke-linecap:round; stroke-linejoin:round; stroke-width:4; stroke-opacity:1; fill:none" points="2590.57,1434.91 2590.57,1416.01 "/>
<path clip-path="url(#clip680)" d="M312.731 1469.02 Q309.12 1469.02 307.291 1472.59 Q305.486 1476.13 305.486 1483.26 Q305.486 1490.37 307.291 1493.93 Q309.12 1497.47 312.731 1497.47 Q316.365 1497.47 318.171 1493.93 Q320 1490.37 320 1483.26 Q320 1476.13 318.171 1472.59 Q316.365 1469.02 312.731 1469.02 M312.731 1465.32 Q318.541 1465.32 321.597 1469.93 Q324.675 1474.51 324.675 1483.26 Q324.675 1491.99 321.597 1496.59 Q318.541 1501.18 312.731 1501.18 Q306.921 1501.18 303.842 1496.59 Q300.787 1491.99 300.787 1483.26 Q300.787 1474.51 303.842 1469.93 Q306.921 1465.32 312.731 1465.32 Z" fill="#000000" fill-rule="nonzero" fill-opacity="1" /><path clip-path="url(#clip680)" d="M742.987 1496.57 L750.626 1496.57 L750.626 1470.2 L742.316 1471.87 L742.316 1467.61 L750.58 1465.95 L755.256 1465.95 L755.256 1496.57 L762.894 1496.57 L762.894 1500.51 L742.987 1500.51 L742.987 1496.57 Z" fill="#000000" fill-rule="nonzero" fill-opacity="1" /><path clip-path="url(#clip680)" d="M782.339 1469.02 Q778.728 1469.02 776.899 1472.59 Q775.093 1476.13 775.093 1483.26 Q775.093 1490.37 776.899 1493.93 Q778.728 1497.47 782.339 1497.47 Q785.973 1497.47 787.779 1493.93 Q789.607 1490.37 789.607 1483.26 Q789.607 1476.13 787.779 1472.59 Q785.973 1469.02 782.339 1469.02 M782.339 1465.32 Q788.149 1465.32 791.204 1469.93 Q794.283 1474.51 794.283 1483.26 Q794.283 1491.99 791.204 1496.59 Q788.149 1501.18 782.339 1501.18 Q776.529 1501.18 773.45 1496.59 Q770.394 1491.99 770.394 1483.26 Q770.394 1474.51 773.45 1469.93 Q776.529 1465.32 782.339 1465.32 Z" fill="#000000" fill-rule="nonzero" fill-opacity="1" /><path clip-path="url(#clip680)" d="M1202.64 1496.57 L1218.96 1496.57 L1218.96 1500.51 L1197.02 1500.51 L1197.02 1496.57 Q1199.68 1493.82 1204.26 1489.19 Q1208.87 1484.53 1210.05 1483.19 Q1212.29 1480.67 1213.17 1478.93 Q1214.08 1477.17 1214.08 1475.48 Q1214.08 1472.73 1212.13 1470.99 Q1210.21 1469.26 1207.11 1469.26 Q1204.91 1469.26 1202.46 1470.02 Q1200.03 1470.78 1197.25 1472.33 L1197.25 1467.61 Q1200.07 1466.48 1202.53 1465.9 Q1204.98 1465.32 1207.02 1465.32 Q1212.39 1465.32 1215.58 1468.01 Q1218.78 1470.69 1218.78 1475.18 Q1218.78 1477.31 1217.97 1479.23 Q1217.18 1481.13 1215.07 1483.72 Q1214.49 1484.39 1211.39 1487.61 Q1208.29 1490.81 1202.64 1496.57 Z" fill="#000000" fill-rule="nonzero" fill-opacity="1" /><path clip-path="url(#clip680)" d="M1238.78 1469.02 Q1235.16 1469.02 1233.34 1472.59 Q1231.53 1476.13 1231.53 1483.26 Q1231.53 1490.37 1233.34 1493.93 Q1235.16 1497.47 1238.78 1497.47 Q1242.41 1497.47 1244.22 1493.93 Q1246.04 1490.37 1246.04 1483.26 Q1246.04 1476.13 1244.22 1472.59 Q1242.41 1469.02 1238.78 1469.02 M1238.78 1465.32 Q1244.59 1465.32 1247.64 1469.93 Q1250.72 1474.51 1250.72 1483.26 Q1250.72 1491.99 1247.64 1496.59 Q1244.59 1501.18 1238.78 1501.18 Q1232.97 1501.18 1229.89 1496.59 Q1226.83 1491.99 1226.83 1483.26 Q1226.83 1474.51 1229.89 1469.93 Q1232.97 1465.32 1238.78 1465.32 Z" fill="#000000" fill-rule="nonzero" fill-opacity="1" /><path clip-path="url(#clip680)" d="M1668.28 1481.87 Q1671.64 1482.59 1673.51 1484.86 Q1675.41 1487.13 1675.41 1490.46 Q1675.41 1495.58 1671.89 1498.38 Q1668.37 1501.18 1661.89 1501.18 Q1659.71 1501.18 1657.4 1500.74 Q1655.11 1500.32 1652.65 1499.46 L1652.65 1494.95 Q1654.6 1496.08 1656.91 1496.66 Q1659.23 1497.24 1661.75 1497.24 Q1666.15 1497.24 1668.44 1495.51 Q1670.76 1493.77 1670.76 1490.46 Q1670.76 1487.4 1668.6 1485.69 Q1666.47 1483.95 1662.65 1483.95 L1658.63 1483.95 L1658.63 1480.11 L1662.84 1480.11 Q1666.29 1480.11 1668.12 1478.75 Q1669.95 1477.36 1669.95 1474.76 Q1669.95 1472.1 1668.05 1470.69 Q1666.17 1469.26 1662.65 1469.26 Q1660.73 1469.26 1658.53 1469.67 Q1656.33 1470.09 1653.7 1470.97 L1653.7 1466.8 Q1656.36 1466.06 1658.67 1465.69 Q1661.01 1465.32 1663.07 1465.32 Q1668.39 1465.32 1671.5 1467.75 Q1674.6 1470.16 1674.6 1474.28 Q1674.6 1477.15 1672.96 1479.14 Q1671.31 1481.11 1668.28 1481.87 Z" fill="#000000" fill-rule="nonzero" fill-opacity="1" /><path clip-path="url(#clip680)" d="M1694.27 1469.02 Q1690.66 1469.02 1688.83 1472.59 Q1687.03 1476.13 1687.03 1483.26 Q1687.03 1490.37 1688.83 1493.93 Q1690.66 1497.47 1694.27 1497.47 Q1697.91 1497.47 1699.71 1493.93 Q1701.54 1490.37 1701.54 1483.26 Q1701.54 1476.13 1699.71 1472.59 Q1697.91 1469.02 1694.27 1469.02 M1694.27 1465.32 Q1700.08 1465.32 1703.14 1469.93 Q1706.22 1474.51 1706.22 1483.26 Q1706.22 1491.99 1703.14 1496.59 Q1700.08 1501.18 1694.27 1501.18 Q1688.46 1501.18 1685.39 1496.59 Q1682.33 1491.99 1682.33 1483.26 Q1682.33 1474.51 1685.39 1469.93 Q1688.46 1465.32 1694.27 1465.32 Z" fill="#000000" fill-rule="nonzero" fill-opacity="1" /><path clip-path="url(#clip680)" d="M2123.18 1470.02 L2111.37 1488.47 L2123.18 1488.47 L2123.18 1470.02 M2121.95 1465.95 L2127.83 1465.95 L2127.83 1488.47 L2132.76 1488.47 L2132.76 1492.36 L2127.83 1492.36 L2127.83 1500.51 L2123.18 1500.51 L2123.18 1492.36 L2107.57 1492.36 L2107.57 1487.84 L2121.95 1465.95 Z" fill="#000000" fill-rule="nonzero" fill-opacity="1" /><path clip-path="url(#clip680)" d="M2150.49 1469.02 Q2146.88 1469.02 2145.05 1472.59 Q2143.25 1476.13 2143.25 1483.26 Q2143.25 1490.37 2145.05 1493.93 Q2146.88 1497.47 2150.49 1497.47 Q2154.13 1497.47 2155.93 1493.93 Q2157.76 1490.37 2157.76 1483.26 Q2157.76 1476.13 2155.93 1472.59 Q2154.13 1469.02 2150.49 1469.02 M2150.49 1465.32 Q2156.3 1465.32 2159.36 1469.93 Q2162.44 1474.51 2162.44 1483.26 Q2162.44 1491.99 2159.36 1496.59 Q2156.3 1501.18 2150.49 1501.18 Q2144.68 1501.18 2141.6 1496.59 Q2138.55 1491.99 2138.55 1483.26 Q2138.55 1474.51 2141.6 1469.93 Q2144.68 1465.32 2150.49 1465.32 Z" fill="#000000" fill-rule="nonzero" fill-opacity="1" /><path clip-path="url(#clip680)" d="M2565.27 1465.95 L2583.63 1465.95 L2583.63 1469.88 L2569.56 1469.88 L2569.56 1478.35 Q2570.57 1478.01 2571.59 1477.84 Q2572.61 1477.66 2573.63 1477.66 Q2579.42 1477.66 2582.8 1480.83 Q2586.18 1484 2586.18 1489.42 Q2586.18 1495 2582.7 1498.1 Q2579.23 1501.18 2572.91 1501.18 Q2570.74 1501.18 2568.47 1500.81 Q2566.22 1500.44 2563.81 1499.7 L2563.81 1495 Q2565.9 1496.13 2568.12 1496.69 Q2570.34 1497.24 2572.82 1497.24 Q2576.82 1497.24 2579.16 1495.14 Q2581.5 1493.03 2581.5 1489.42 Q2581.5 1485.81 2579.16 1483.7 Q2576.82 1481.59 2572.82 1481.59 Q2570.94 1481.59 2569.07 1482.01 Q2567.22 1482.43 2565.27 1483.31 L2565.27 1465.95 Z" fill="#000000" fill-rule="nonzero" fill-opacity="1" /><path clip-path="url(#clip680)" d="M2605.39 1469.02 Q2601.78 1469.02 2599.95 1472.59 Q2598.14 1476.13 2598.14 1483.26 Q2598.14 1490.37 2599.95 1493.93 Q2601.78 1497.47 2605.39 1497.47 Q2609.02 1497.47 2610.83 1493.93 Q2612.66 1490.37 2612.66 1483.26 Q2612.66 1476.13 2610.83 1472.59 Q2609.02 1469.02 2605.39 1469.02 M2605.39 1465.32 Q2611.2 1465.32 2614.25 1469.93 Q2617.33 1474.51 2617.33 1483.26 Q2617.33 1491.99 2614.25 1496.59 Q2611.2 1501.18 2605.39 1501.18 Q2599.58 1501.18 2596.5 1496.59 Q2593.44 1491.99 2593.44 1483.26 Q2593.44 1474.51 2596.5 1469.93 Q2599.58 1465.32 2605.39 1465.32 Z" fill="#000000" fill-rule="nonzero" fill-opacity="1" /><path clip-path="url(#clip680)" d="M1409.09 1538.25 L1415.58 1538.25 L1425.58 1578.42 L1435.54 1538.25 L1442.77 1538.25 L1452.76 1578.42 L1462.72 1538.25 L1469.25 1538.25 L1457.31 1585.77 L1449.23 1585.77 L1439.2 1544.52 L1429.08 1585.77 L1421 1585.77 L1409.09 1538.25 Z" fill="#000000" fill-rule="nonzero" fill-opacity="1" /><path clip-path="url(#clip680)" d="M1504.2 1566.48 L1504.2 1569.35 L1477.27 1569.35 Q1477.65 1575.39 1480.9 1578.58 Q1484.18 1581.73 1490 1581.73 Q1493.37 1581.73 1496.52 1580.9 Q1499.71 1580.07 1502.83 1578.42 L1502.83 1583.96 Q1499.68 1585.29 1496.37 1585.99 Q1493.06 1586.69 1489.65 1586.69 Q1481.12 1586.69 1476.12 1581.73 Q1471.16 1576.76 1471.16 1568.3 Q1471.16 1559.54 1475.87 1554.42 Q1480.61 1549.26 1488.63 1549.26 Q1495.82 1549.26 1499.99 1553.91 Q1504.2 1558.52 1504.2 1566.48 M1498.34 1564.76 Q1498.28 1559.96 1495.63 1557.09 Q1493.02 1554.23 1488.69 1554.23 Q1483.79 1554.23 1480.83 1557 Q1477.91 1559.77 1477.46 1564.79 L1498.34 1564.76 Z" fill="#000000" fill-rule="nonzero" fill-opacity="1" /><path clip-path="url(#clip680)" d="M1544.3 1566.48 L1544.3 1569.35 L1517.37 1569.35 Q1517.75 1575.39 1521 1578.58 Q1524.28 1581.73 1530.1 1581.73 Q1533.48 1581.73 1536.63 1580.9 Q1539.81 1580.07 1542.93 1578.42 L1542.93 1583.96 Q1539.78 1585.29 1536.47 1585.99 Q1533.16 1586.69 1529.75 1586.69 Q1521.22 1586.69 1516.23 1581.73 Q1511.26 1576.76 1511.26 1568.3 Q1511.26 1559.54 1515.97 1554.42 Q1520.71 1549.26 1528.74 1549.26 Q1535.93 1549.26 1540.1 1553.91 Q1544.3 1558.52 1544.3 1566.48 M1538.44 1564.76 Q1538.38 1559.96 1535.74 1557.09 Q1533.13 1554.23 1528.8 1554.23 Q1523.9 1554.23 1520.94 1557 Q1518.01 1559.77 1517.56 1564.79 L1538.44 1564.76 Z" fill="#000000" fill-rule="nonzero" fill-opacity="1" /><path clip-path="url(#clip680)" d="M1553.69 1536.24 L1559.58 1536.24 L1559.58 1565.49 L1577.05 1550.12 L1584.53 1550.12 L1565.62 1566.8 L1585.33 1585.77 L1577.69 1585.77 L1559.58 1568.36 L1559.58 1585.77 L1553.69 1585.77 L1553.69 1536.24 Z" fill="#000000" fill-rule="nonzero" fill-opacity="1" /><polyline clip-path="url(#clip680)" style="stroke:#000000; stroke-linecap:round; stroke-linejoin:round; stroke-width:4; stroke-opacity:1; fill:none" points="241.662,1434.91 241.662,114.832 "/>
<polyline clip-path="url(#clip680)" style="stroke:#000000; stroke-linecap:round; stroke-linejoin:round; stroke-width:4; stroke-opacity:1; fill:none" points="241.662,1141.58 260.56,1141.58 "/>
<polyline clip-path="url(#clip680)" style="stroke:#000000; stroke-linecap:round; stroke-linejoin:round; stroke-width:4; stroke-opacity:1; fill:none" points="241.662,795.586 260.56,795.586 "/>
<polyline clip-path="url(#clip680)" style="stroke:#000000; stroke-linecap:round; stroke-linejoin:round; stroke-width:4; stroke-opacity:1; fill:none" points="241.662,449.591 260.56,449.591 "/>
<path clip-path="url(#clip680)" d="M130.198 1161.37 L137.837 1161.37 L137.837 1135.01 L129.527 1136.67 L129.527 1132.41 L137.791 1130.75 L142.466 1130.75 L142.466 1161.37 L150.105 1161.37 L150.105 1165.31 L130.198 1165.31 L130.198 1161.37 Z" fill="#000000" fill-rule="nonzero" fill-opacity="1" /><path clip-path="url(#clip680)" d="M169.55 1133.83 Q165.939 1133.83 164.11 1137.39 Q162.304 1140.93 162.304 1148.06 Q162.304 1155.17 164.11 1158.73 Q165.939 1162.28 169.55 1162.28 Q173.184 1162.28 174.989 1158.73 Q176.818 1155.17 176.818 1148.06 Q176.818 1140.93 174.989 1137.39 Q173.184 1133.83 169.55 1133.83 M169.55 1130.12 Q175.36 1130.12 178.415 1134.73 Q181.494 1139.31 181.494 1148.06 Q181.494 1156.79 178.415 1161.4 Q175.36 1165.98 169.55 1165.98 Q163.74 1165.98 160.661 1161.4 Q157.605 1156.79 157.605 1148.06 Q157.605 1139.31 160.661 1134.73 Q163.74 1130.12 169.55 1130.12 Z" fill="#000000" fill-rule="nonzero" fill-opacity="1" /><path clip-path="url(#clip680)" d="M182.679 1109.82 L197.593 1109.82 L197.593 1113.01 L186.158 1113.01 L186.158 1119.9 Q186.986 1119.62 187.813 1119.48 Q188.641 1119.33 189.469 1119.33 Q194.17 1119.33 196.916 1121.91 Q199.662 1124.49 199.662 1128.89 Q199.662 1133.42 196.841 1135.94 Q194.02 1138.44 188.885 1138.44 Q187.118 1138.44 185.274 1138.14 Q183.45 1137.84 181.494 1137.24 L181.494 1133.42 Q183.187 1134.34 184.992 1134.79 Q186.798 1135.25 188.81 1135.25 Q192.064 1135.25 193.964 1133.53 Q195.863 1131.82 195.863 1128.89 Q195.863 1125.95 193.964 1124.24 Q192.064 1122.53 188.81 1122.53 Q187.287 1122.53 185.763 1122.87 Q184.259 1123.21 182.679 1123.92 L182.679 1109.82 Z" fill="#000000" fill-rule="nonzero" fill-opacity="1" /><path clip-path="url(#clip680)" d="M106.143 815.378 L113.782 815.378 L113.782 789.013 L105.472 790.679 L105.472 786.42 L113.735 784.753 L118.411 784.753 L118.411 815.378 L126.05 815.378 L126.05 819.313 L106.143 819.313 L106.143 815.378 Z" fill="#000000" fill-rule="nonzero" fill-opacity="1" /><path clip-path="url(#clip680)" d="M145.495 787.832 Q141.883 787.832 140.055 791.397 Q138.249 794.939 138.249 802.068 Q138.249 809.175 140.055 812.739 Q141.883 816.281 145.495 816.281 Q149.129 816.281 150.934 812.739 Q152.763 809.175 152.763 802.068 Q152.763 794.939 150.934 791.397 Q149.129 787.832 145.495 787.832 M145.495 784.128 Q151.305 784.128 154.36 788.735 Q157.439 793.318 157.439 802.068 Q157.439 810.795 154.36 815.401 Q151.305 819.985 145.495 819.985 Q139.684 819.985 136.606 815.401 Q133.55 810.795 133.55 802.068 Q133.55 793.318 136.606 788.735 Q139.684 784.128 145.495 784.128 Z" fill="#000000" fill-rule="nonzero" fill-opacity="1" /><path clip-path="url(#clip680)" d="M157.984 788.706 L164.191 788.706 L164.191 767.284 L157.439 768.638 L157.439 765.177 L164.153 763.823 L167.952 763.823 L167.952 788.706 L174.159 788.706 L174.159 791.903 L157.984 791.903 L157.984 788.706 Z" fill="#000000" fill-rule="nonzero" fill-opacity="1" /><path clip-path="url(#clip680)" d="M189.958 766.325 Q187.024 766.325 185.538 769.221 Q184.071 772.098 184.071 777.891 Q184.071 783.665 185.538 786.562 Q187.024 789.439 189.958 789.439 Q192.91 789.439 194.377 786.562 Q195.863 783.665 195.863 777.891 Q195.863 772.098 194.377 769.221 Q192.91 766.325 189.958 766.325 M189.958 763.315 Q194.678 763.315 197.161 767.058 Q199.662 770.782 199.662 777.891 Q199.662 784.982 197.161 788.725 Q194.678 792.448 189.958 792.448 Q185.237 792.448 182.735 788.725 Q180.253 784.982 180.253 777.891 Q180.253 770.782 182.735 767.058 Q185.237 763.315 189.958 763.315 Z" fill="#000000" fill-rule="nonzero" fill-opacity="1" /><path clip-path="url(#clip680)" d="M106.952 469.384 L114.59 469.384 L114.59 443.018 L106.28 444.685 L106.28 440.426 L114.544 438.759 L119.22 438.759 L119.22 469.384 L126.859 469.384 L126.859 473.319 L106.952 473.319 L106.952 469.384 Z" fill="#000000" fill-rule="nonzero" fill-opacity="1" /><path clip-path="url(#clip680)" d="M146.303 441.838 Q142.692 441.838 140.863 445.402 Q139.058 448.944 139.058 456.074 Q139.058 463.18 140.863 466.745 Q142.692 470.287 146.303 470.287 Q149.937 470.287 151.743 466.745 Q153.572 463.18 153.572 456.074 Q153.572 448.944 151.743 445.402 Q149.937 441.838 146.303 441.838 M146.303 438.134 Q152.113 438.134 155.169 442.74 Q158.248 447.324 158.248 456.074 Q158.248 464.801 155.169 469.407 Q152.113 473.99 146.303 473.99 Q140.493 473.99 137.414 469.407 Q134.359 464.801 134.359 456.074 Q134.359 447.324 137.414 442.74 Q140.493 438.134 146.303 438.134 Z" fill="#000000" fill-rule="nonzero" fill-opacity="1" /><path clip-path="url(#clip680)" d="M158.793 442.711 L165 442.711 L165 421.289 L158.248 422.643 L158.248 419.183 L164.962 417.829 L168.761 417.829 L168.761 442.711 L174.968 442.711 L174.968 445.909 L158.793 445.909 L158.793 442.711 Z" fill="#000000" fill-rule="nonzero" fill-opacity="1" /><path clip-path="url(#clip680)" d="M182.679 417.829 L197.593 417.829 L197.593 421.026 L186.158 421.026 L186.158 427.91 Q186.986 427.627 187.813 427.496 Q188.641 427.345 189.469 427.345 Q194.17 427.345 196.916 429.922 Q199.662 432.499 199.662 436.9 Q199.662 441.432 196.841 443.953 Q194.02 446.454 188.885 446.454 Q187.118 446.454 185.274 446.153 Q183.45 445.852 181.494 445.25 L181.494 441.432 Q183.187 442.354 184.992 442.805 Q186.798 443.257 188.81 443.257 Q192.064 443.257 193.964 441.545 Q195.863 439.834 195.863 436.9 Q195.863 433.966 193.964 432.254 Q192.064 430.543 188.81 430.543 Q187.287 430.543 185.763 430.881 Q184.259 431.22 182.679 431.934 L182.679 417.829 Z" fill="#000000" fill-rule="nonzero" fill-opacity="1" /><path clip-path="url(#clip680)" d="M6.97912 933.709 L24.8349 933.709 L24.8349 925.625 Q24.8349 921.137 22.5114 918.686 Q20.188 916.235 15.8911 916.235 Q11.6261 916.235 9.30261 918.686 Q6.97912 921.137 6.97912 925.625 L6.97912 933.709 M1.69559 940.138 L1.69559 925.625 Q1.69559 917.636 5.32404 913.562 Q8.92066 909.456 15.8911 909.456 Q22.9252 909.456 26.5218 913.562 Q30.1185 917.636 30.1185 925.625 L30.1185 933.709 L49.2156 933.709 L49.2156 940.138 L1.69559 940.138 Z" fill="#000000" fill-rule="nonzero" fill-opacity="1" /><path clip-path="url(#clip680)" d="M17.6735 889.595 Q17.6735 894.305 21.3656 897.043 Q25.0259 899.78 31.4234 899.78 Q37.821 899.78 41.5131 897.074 Q45.1734 894.337 45.1734 889.595 Q45.1734 884.916 41.4813 882.179 Q37.7891 879.441 31.4234 879.441 Q25.0896 879.441 21.3974 882.179 Q17.6735 884.916 17.6735 889.595 M12.7083 889.595 Q12.7083 881.956 17.6735 877.595 Q22.6388 873.235 31.4234 873.235 Q40.1763 873.235 45.1734 877.595 Q50.1386 881.956 50.1386 889.595 Q50.1386 897.265 45.1734 901.626 Q40.1763 905.955 31.4234 905.955 Q22.6388 905.955 17.6735 901.626 Q12.7083 897.265 12.7083 889.595 Z" fill="#000000" fill-rule="nonzero" fill-opacity="1" /><path clip-path="url(#clip680)" d="M43.8684 857.862 L62.7745 857.862 L62.7745 863.75 L13.5676 863.75 L13.5676 857.862 L18.9785 857.862 Q15.7956 856.016 14.2679 853.215 Q12.7083 850.382 12.7083 846.467 Q12.7083 839.974 17.8645 835.932 Q23.0207 831.858 31.4234 831.858 Q39.8262 831.858 44.9824 835.932 Q50.1386 839.974 50.1386 846.467 Q50.1386 850.382 48.6108 853.215 Q47.0512 856.016 43.8684 857.862 M31.4234 837.937 Q24.9622 837.937 21.302 840.611 Q17.6099 843.252 17.6099 847.899 Q17.6099 852.546 21.302 855.22 Q24.9622 857.862 31.4234 857.862 Q37.8846 857.862 41.5767 855.22 Q45.237 852.546 45.237 847.899 Q45.237 843.252 41.5767 840.611 Q37.8846 837.937 31.4234 837.937 Z" fill="#000000" fill-rule="nonzero" fill-opacity="1" /><path clip-path="url(#clip680)" d="M35.1474 822.755 L13.5676 822.755 L13.5676 816.898 L34.9246 816.898 Q39.9853 816.898 42.5316 814.925 Q45.046 812.952 45.046 809.005 Q45.046 804.262 42.0223 801.525 Q38.9986 798.756 33.7787 798.756 L13.5676 798.756 L13.5676 792.9 L49.2156 792.9 L49.2156 798.756 L43.7411 798.756 Q46.9876 800.889 48.579 803.721 Q50.1386 806.522 50.1386 810.246 Q50.1386 816.389 46.3192 819.572 Q42.4998 822.755 35.1474 822.755 M12.7083 808.018 L12.7083 808.018 Z" fill="#000000" fill-rule="nonzero" fill-opacity="1" /><path clip-path="url(#clip680)" d="M-0.309612 780.837 L-0.309612 774.98 L49.2156 774.98 L49.2156 780.837 L-0.309612 780.837 Z" fill="#000000" fill-rule="nonzero" fill-opacity="1" /><path clip-path="url(#clip680)" d="M31.2961 746.526 Q31.2961 753.623 32.9194 756.361 Q34.5426 759.098 38.4575 759.098 Q41.5767 759.098 43.4228 757.061 Q45.237 754.992 45.237 751.459 Q45.237 746.589 41.7995 743.661 Q38.3302 740.701 32.6011 740.701 L31.2961 740.701 L31.2961 746.526 M28.8772 734.844 L49.2156 734.844 L49.2156 740.701 L43.8047 740.701 Q47.0512 742.706 48.6108 745.698 Q50.1386 748.69 50.1386 753.019 Q50.1386 758.493 47.0831 761.74 Q43.9957 764.954 38.8395 764.954 Q32.8239 764.954 29.7684 760.944 Q26.7128 756.902 26.7128 748.913 L26.7128 740.701 L26.1399 740.701 Q22.0977 740.701 19.9015 743.375 Q17.6735 746.016 17.6735 750.822 Q17.6735 753.878 18.4056 756.774 Q19.1376 759.671 20.6017 762.344 L15.1909 762.344 Q13.9496 759.13 13.3448 756.106 Q12.7083 753.082 12.7083 750.218 Q12.7083 742.483 16.7187 738.664 Q20.729 734.844 28.8772 734.844 Z" fill="#000000" fill-rule="nonzero" fill-opacity="1" /><path clip-path="url(#clip680)" d="M3.44616 716.989 L13.5676 716.989 L13.5676 704.926 L18.1191 704.926 L18.1191 716.989 L37.4709 716.989 Q41.8314 716.989 43.0727 715.811 Q44.314 714.602 44.314 710.941 L44.314 704.926 L49.2156 704.926 L49.2156 710.941 Q49.2156 717.721 46.7011 720.299 Q44.1548 722.877 37.4709 722.877 L18.1191 722.877 L18.1191 727.174 L13.5676 727.174 L13.5676 722.877 L3.44616 722.877 L3.44616 716.989 Z" fill="#000000" fill-rule="nonzero" fill-opacity="1" /><path clip-path="url(#clip680)" d="M13.5676 697.223 L13.5676 691.367 L49.2156 691.367 L49.2156 697.223 L13.5676 697.223 M-0.309612 697.223 L-0.309612 691.367 L7.10644 691.367 L7.10644 697.223 L-0.309612 697.223 Z" fill="#000000" fill-rule="nonzero" fill-opacity="1" /><path clip-path="url(#clip680)" d="M17.6735 665.299 Q17.6735 670.01 21.3656 672.747 Q25.0259 675.484 31.4234 675.484 Q37.821 675.484 41.5131 672.779 Q45.1734 670.042 45.1734 665.299 Q45.1734 660.62 41.4813 657.883 Q37.7891 655.146 31.4234 655.146 Q25.0896 655.146 21.3974 657.883 Q17.6735 660.62 17.6735 665.299 M12.7083 665.299 Q12.7083 657.66 17.6735 653.3 Q22.6388 648.939 31.4234 648.939 Q40.1763 648.939 45.1734 653.3 Q50.1386 657.66 50.1386 665.299 Q50.1386 672.97 45.1734 677.33 Q40.1763 681.659 31.4234 681.659 Q22.6388 681.659 17.6735 677.33 Q12.7083 672.97 12.7083 665.299 Z" fill="#000000" fill-rule="nonzero" fill-opacity="1" /><path clip-path="url(#clip680)" d="M27.6995 609.599 L49.2156 609.599 L49.2156 615.456 L27.8905 615.456 Q22.8297 615.456 20.3153 617.429 Q17.8008 619.402 17.8008 623.349 Q17.8008 628.092 20.8245 630.829 Q23.8482 633.566 29.0681 633.566 L49.2156 633.566 L49.2156 639.454 L13.5676 639.454 L13.5676 633.566 L19.1058 633.566 Q15.8911 631.465 14.2997 628.633 Q12.7083 625.768 12.7083 622.044 Q12.7083 615.901 16.5277 612.75 Q20.3153 609.599 27.6995 609.599 Z" fill="#000000" fill-rule="nonzero" fill-opacity="1" /><path clip-path="url(#clip680)" d="M465.464 18.8205 L465.464 65.8515 L475.348 65.8515 Q487.866 65.8515 493.658 60.1802 Q499.492 54.509 499.492 42.2752 Q499.492 30.1225 493.658 24.4918 Q487.866 18.8205 475.348 18.8205 L465.464 18.8205 M457.281 12.096 L474.092 12.096 Q491.673 12.096 499.897 19.4281 Q508.12 26.7198 508.12 42.2752 Q508.12 57.9117 499.856 65.2439 Q491.592 72.576 474.092 72.576 L457.281 72.576 L457.281 12.096 Z" fill="#000000" fill-rule="nonzero" fill-opacity="1" /><path clip-path="url(#clip680)" d="M521.893 62.2867 L530.441 62.2867 L530.441 72.576 L521.893 72.576 L521.893 62.2867 Z" fill="#000000" fill-rule="nonzero" fill-opacity="1" /><path clip-path="url(#clip680)" d="M606.233 28.9478 L606.233 35.9153 Q603.073 34.1734 599.873 33.3227 Q596.713 32.4315 593.473 32.4315 Q586.222 32.4315 582.211 37.0496 Q578.201 41.6271 578.201 49.9314 Q578.201 58.2358 582.211 62.8538 Q586.222 67.4314 593.473 67.4314 Q596.713 67.4314 599.873 66.5807 Q603.073 65.6895 606.233 63.9476 L606.233 70.8341 Q603.114 72.2924 599.752 73.0216 Q596.43 73.7508 592.662 73.7508 Q582.414 73.7508 576.378 67.3098 Q570.342 60.8689 570.342 49.9314 Q570.342 38.832 576.418 32.472 Q582.535 26.1121 593.149 26.1121 Q596.592 26.1121 599.873 26.8413 Q603.154 27.5299 606.233 28.9478 Z" fill="#000000" fill-rule="nonzero" fill-opacity="1" /><path clip-path="url(#clip680)" d="M619.196 27.2059 L626.65 27.2059 L626.65 72.576 L619.196 72.576 L619.196 27.2059 M619.196 9.54393 L626.65 9.54393 L626.65 18.9825 L619.196 18.9825 L619.196 9.54393 Z" fill="#000000" fill-rule="nonzero" fill-opacity="1" /><path clip-path="url(#clip680)" d="M649.618 14.324 L649.618 27.2059 L664.971 27.2059 L664.971 32.9987 L649.618 32.9987 L649.618 57.6282 Q649.618 63.1779 651.117 64.7578 Q652.656 66.3376 657.315 66.3376 L664.971 66.3376 L664.971 72.576 L657.315 72.576 Q648.686 72.576 645.405 69.3758 Q642.124 66.1351 642.124 57.6282 L642.124 32.9987 L636.655 32.9987 L636.655 27.2059 L642.124 27.2059 L642.124 14.324 L649.618 14.324 Z" fill="#000000" fill-rule="nonzero" fill-opacity="1" /><path clip-path="url(#clip680)" d="M701.065 34.1734 Q699.809 33.4443 698.31 33.1202 Q696.852 32.7556 695.069 32.7556 Q688.75 32.7556 685.347 36.8875 Q681.985 40.9789 681.985 48.6757 L681.985 72.576 L674.491 72.576 L674.491 27.2059 L681.985 27.2059 L681.985 34.2544 Q684.334 30.1225 688.102 28.1376 Q691.869 26.1121 697.257 26.1121 Q698.026 26.1121 698.958 26.2337 Q699.89 26.3147 701.024 26.5172 L701.065 34.1734 Z" fill="#000000" fill-rule="nonzero" fill-opacity="1" /><path clip-path="url(#clip680)" d="M708.883 27.2059 L716.337 27.2059 L716.337 72.576 L708.883 72.576 L708.883 27.2059 M708.883 9.54393 L716.337 9.54393 L716.337 18.9825 L708.883 18.9825 L708.883 9.54393 Z" fill="#000000" fill-rule="nonzero" fill-opacity="1" /><path clip-path="url(#clip680)" d="M733.836 62.2867 L742.384 62.2867 L742.384 72.576 L733.836 72.576 L733.836 62.2867 M733.836 29.6769 L742.384 29.6769 L742.384 39.9662 L733.836 39.9662 L733.836 29.6769 Z" fill="#000000" fill-rule="nonzero" fill-opacity="1" /><path clip-path="url(#clip680)" d="M831.868 16.7545 L831.868 25.383 Q827.736 21.5346 823.037 19.6307 Q818.379 17.7268 813.113 17.7268 Q802.742 17.7268 797.233 24.0867 Q791.724 30.4061 791.724 42.3968 Q791.724 54.3469 797.233 60.7069 Q802.742 67.0263 813.113 67.0263 Q818.379 67.0263 823.037 65.1223 Q827.736 63.2184 831.868 59.3701 L831.868 67.9175 Q827.574 70.8341 822.754 72.2924 Q817.974 73.7508 812.627 73.7508 Q798.894 73.7508 790.995 65.3654 Q783.095 56.9395 783.095 42.3968 Q783.095 27.8135 790.995 19.4281 Q798.894 11.0023 812.627 11.0023 Q818.055 11.0023 822.835 12.4606 Q827.655 13.8784 831.868 16.7545 Z" fill="#000000" fill-rule="nonzero" fill-opacity="1" /><path clip-path="url(#clip680)" d="M861.764 32.4315 Q855.769 32.4315 852.285 37.1306 Q848.801 41.7891 848.801 49.9314 Q848.801 58.0738 852.244 62.7728 Q855.728 67.4314 861.764 67.4314 Q867.719 67.4314 871.203 62.7323 Q874.686 58.0333 874.686 49.9314 Q874.686 41.8701 871.203 37.1711 Q867.719 32.4315 861.764 32.4315 M861.764 26.1121 Q871.486 26.1121 877.036 32.4315 Q882.586 38.7509 882.586 49.9314 Q882.586 61.0714 877.036 67.4314 Q871.486 73.7508 861.764 73.7508 Q852.001 73.7508 846.452 67.4314 Q840.942 61.0714 840.942 49.9314 Q840.942 38.7509 846.452 32.4315 Q852.001 26.1121 861.764 26.1121 Z" fill="#000000" fill-rule="nonzero" fill-opacity="1" /><path clip-path="url(#clip680)" d="M932.655 45.1919 L932.655 72.576 L925.201 72.576 L925.201 45.4349 Q925.201 38.994 922.69 35.7938 Q920.178 32.5936 915.155 32.5936 Q909.119 32.5936 905.635 36.4419 Q902.152 40.2903 902.152 46.9338 L902.152 72.576 L894.657 72.576 L894.657 27.2059 L902.152 27.2059 L902.152 34.2544 Q904.825 30.163 908.43 28.1376 Q912.076 26.1121 916.816 26.1121 Q924.634 26.1121 928.644 30.9732 Q932.655 35.7938 932.655 45.1919 Z" fill="#000000" fill-rule="nonzero" fill-opacity="1" /><path clip-path="url(#clip680)" d="M976.445 28.5427 L976.445 35.5912 Q973.285 33.9709 969.883 33.1607 Q966.48 32.3505 962.834 32.3505 Q957.284 32.3505 954.489 34.0519 Q951.735 35.7533 951.735 39.156 Q951.735 41.7486 953.72 43.2475 Q955.705 44.7058 961.7 46.0426 L964.252 46.6097 Q972.192 48.3111 975.513 51.4303 Q978.876 54.509 978.876 60.0587 Q978.876 66.3781 973.853 70.0644 Q968.87 73.7508 960.12 73.7508 Q956.474 73.7508 952.504 73.0216 Q948.575 72.3329 944.2 70.9151 L944.2 63.2184 Q948.332 65.3654 952.342 66.4591 Q956.353 67.5124 960.282 67.5124 Q965.548 67.5124 968.384 65.73 Q971.219 63.9071 971.219 60.6258 Q971.219 57.5877 969.154 55.9673 Q967.128 54.3469 960.201 52.8481 L957.608 52.2405 Q950.681 50.7821 947.603 47.7845 Q944.524 44.7463 944.524 39.4801 Q944.524 33.0797 949.061 29.5959 Q953.598 26.1121 961.943 26.1121 Q966.075 26.1121 969.721 26.7198 Q973.366 27.3274 976.445 28.5427 Z" fill="#000000" fill-rule="nonzero" fill-opacity="1" /><path clip-path="url(#clip680)" d="M998.117 14.324 L998.117 27.2059 L1013.47 27.2059 L1013.47 32.9987 L998.117 32.9987 L998.117 57.6282 Q998.117 63.1779 999.616 64.7578 Q1001.16 66.3376 1005.81 66.3376 L1013.47 66.3376 L1013.47 72.576 L1005.81 72.576 Q997.186 72.576 993.905 69.3758 Q990.623 66.1351 990.623 57.6282 L990.623 32.9987 L985.155 32.9987 L985.155 27.2059 L990.623 27.2059 L990.623 14.324 L998.117 14.324 Z" fill="#000000" fill-rule="nonzero" fill-opacity="1" /><path clip-path="url(#clip680)" d="M1043.89 49.7694 Q1034.86 49.7694 1031.38 51.8354 Q1027.89 53.9013 1027.89 58.8839 Q1027.89 62.8538 1030.48 65.2034 Q1033.12 67.5124 1037.61 67.5124 Q1043.81 67.5124 1047.54 63.1374 Q1051.31 58.7219 1051.31 51.4303 L1051.31 49.7694 L1043.89 49.7694 M1058.76 46.6907 L1058.76 72.576 L1051.31 72.576 L1051.31 65.6895 Q1048.75 69.8214 1044.95 71.8063 Q1041.14 73.7508 1035.63 73.7508 Q1028.66 73.7508 1024.53 69.8619 Q1020.44 65.9325 1020.44 59.3701 Q1020.44 51.7138 1025.54 47.825 Q1030.69 43.9361 1040.85 43.9361 L1051.31 43.9361 L1051.31 43.2069 Q1051.31 38.0623 1047.9 35.2672 Q1044.54 32.4315 1038.42 32.4315 Q1034.54 32.4315 1030.85 33.3632 Q1027.16 34.295 1023.76 36.1584 L1023.76 29.2718 Q1027.85 27.692 1031.7 26.9223 Q1035.55 26.1121 1039.19 26.1121 Q1049.04 26.1121 1053.9 31.2163 Q1058.76 36.3204 1058.76 46.6907 Z" fill="#000000" fill-rule="nonzero" fill-opacity="1" /><path clip-path="url(#clip680)" d="M1111.83 45.1919 L1111.83 72.576 L1104.37 72.576 L1104.37 45.4349 Q1104.37 38.994 1101.86 35.7938 Q1099.35 32.5936 1094.33 32.5936 Q1088.29 32.5936 1084.81 36.4419 Q1081.32 40.2903 1081.32 46.9338 L1081.32 72.576 L1073.83 72.576 L1073.83 27.2059 L1081.32 27.2059 L1081.32 34.2544 Q1084 30.163 1087.6 28.1376 Q1091.25 26.1121 1095.99 26.1121 Q1103.81 26.1121 1107.82 30.9732 Q1111.83 35.7938 1111.83 45.1919 Z" fill="#000000" fill-rule="nonzero" fill-opacity="1" /><path clip-path="url(#clip680)" d="M1134.07 14.324 L1134.07 27.2059 L1149.42 27.2059 L1149.42 32.9987 L1134.07 32.9987 L1134.07 57.6282 Q1134.07 63.1779 1135.56 64.7578 Q1137.1 66.3376 1141.76 66.3376 L1149.42 66.3376 L1149.42 72.576 L1141.76 72.576 Q1133.13 72.576 1129.85 69.3758 Q1126.57 66.1351 1126.57 57.6282 L1126.57 32.9987 L1121.1 32.9987 L1121.1 27.2059 L1126.57 27.2059 L1126.57 14.324 L1134.07 14.324 Z" fill="#000000" fill-rule="nonzero" fill-opacity="1" /><path clip-path="url(#clip680)" d="M1155.45 46.5287 L1177.29 46.5287 L1177.29 53.1722 L1155.45 53.1722 L1155.45 46.5287 Z" fill="#000000" fill-rule="nonzero" fill-opacity="1" /><path clip-path="url(#clip680)" d="M1196.37 65.7705 L1196.37 89.8329 L1188.87 89.8329 L1188.87 27.2059 L1196.37 27.2059 L1196.37 34.0924 Q1198.72 30.0415 1202.28 28.0971 Q1205.89 26.1121 1210.87 26.1121 Q1219.13 26.1121 1224.28 32.6746 Q1229.46 39.2371 1229.46 49.9314 Q1229.46 60.6258 1224.28 67.1883 Q1219.13 73.7508 1210.87 73.7508 Q1205.89 73.7508 1202.28 71.8063 Q1198.72 69.8214 1196.37 65.7705 M1221.73 49.9314 Q1221.73 41.7081 1218.32 37.0496 Q1214.96 32.3505 1209.05 32.3505 Q1203.13 32.3505 1199.73 37.0496 Q1196.37 41.7081 1196.37 49.9314 Q1196.37 58.1548 1199.73 62.8538 Q1203.13 67.5124 1209.05 67.5124 Q1214.96 67.5124 1218.32 62.8538 Q1221.73 58.1548 1221.73 49.9314 Z" fill="#000000" fill-rule="nonzero" fill-opacity="1" /><path clip-path="url(#clip680)" d="M1262.44 49.7694 Q1253.41 49.7694 1249.92 51.8354 Q1246.44 53.9013 1246.44 58.8839 Q1246.44 62.8538 1249.03 65.2034 Q1251.66 67.5124 1256.16 67.5124 Q1262.36 67.5124 1266.08 63.1374 Q1269.85 58.7219 1269.85 51.4303 L1269.85 49.7694 L1262.44 49.7694 M1277.31 46.6907 L1277.31 72.576 L1269.85 72.576 L1269.85 65.6895 Q1267.3 69.8214 1263.49 71.8063 Q1259.68 73.7508 1254.18 73.7508 Q1247.21 73.7508 1243.08 69.8619 Q1238.98 65.9325 1238.98 59.3701 Q1238.98 51.7138 1244.09 47.825 Q1249.23 43.9361 1259.4 43.9361 L1269.85 43.9361 L1269.85 43.2069 Q1269.85 38.0623 1266.45 35.2672 Q1263.09 32.4315 1256.97 32.4315 Q1253.08 32.4315 1249.4 33.3632 Q1245.71 34.295 1242.31 36.1584 L1242.31 29.2718 Q1246.4 27.692 1250.25 26.9223 Q1254.09 26.1121 1257.74 26.1121 Q1267.58 26.1121 1272.44 31.2163 Q1277.31 36.3204 1277.31 46.6907 Z" fill="#000000" fill-rule="nonzero" fill-opacity="1" /><path clip-path="url(#clip680)" d="M1318.95 34.1734 Q1317.69 33.4443 1316.19 33.1202 Q1314.74 32.7556 1312.95 32.7556 Q1306.63 32.7556 1303.23 36.8875 Q1299.87 40.9789 1299.87 48.6757 L1299.87 72.576 L1292.38 72.576 L1292.38 27.2059 L1299.87 27.2059 L1299.87 34.2544 Q1302.22 30.1225 1305.99 28.1376 Q1309.75 26.1121 1315.14 26.1121 Q1315.91 26.1121 1316.84 26.2337 Q1317.77 26.3147 1318.91 26.5172 L1318.95 34.1734 Z" fill="#000000" fill-rule="nonzero" fill-opacity="1" /><path clip-path="url(#clip680)" d="M1347.39 49.7694 Q1338.35 49.7694 1334.87 51.8354 Q1331.39 53.9013 1331.39 58.8839 Q1331.39 62.8538 1333.98 65.2034 Q1336.61 67.5124 1341.11 67.5124 Q1347.31 67.5124 1351.03 63.1374 Q1354.8 58.7219 1354.8 51.4303 L1354.8 49.7694 L1347.39 49.7694 M1362.25 46.6907 L1362.25 72.576 L1354.8 72.576 L1354.8 65.6895 Q1352.25 69.8214 1348.44 71.8063 Q1344.63 73.7508 1339.12 73.7508 Q1332.16 73.7508 1328.02 69.8619 Q1323.93 65.9325 1323.93 59.3701 Q1323.93 51.7138 1329.04 47.825 Q1334.18 43.9361 1344.35 43.9361 L1354.8 43.9361 L1354.8 43.2069 Q1354.8 38.0623 1351.4 35.2672 Q1348.03 32.4315 1341.92 32.4315 Q1338.03 32.4315 1334.34 33.3632 Q1330.66 34.295 1327.25 36.1584 L1327.25 29.2718 Q1331.34 27.692 1335.19 26.9223 Q1339.04 26.1121 1342.69 26.1121 Q1352.53 26.1121 1357.39 31.2163 Q1362.25 36.3204 1362.25 46.6907 Z" fill="#000000" fill-rule="nonzero" fill-opacity="1" /><path clip-path="url(#clip680)" d="M1412.93 35.9153 Q1415.73 30.8922 1419.61 28.5022 Q1423.5 26.1121 1428.77 26.1121 Q1435.86 26.1121 1439.71 31.0947 Q1443.55 36.0368 1443.55 45.1919 L1443.55 72.576 L1436.06 72.576 L1436.06 45.4349 Q1436.06 38.913 1433.75 35.7533 Q1431.44 32.5936 1426.7 32.5936 Q1420.91 32.5936 1417.55 36.4419 Q1414.19 40.2903 1414.19 46.9338 L1414.19 72.576 L1406.69 72.576 L1406.69 45.4349 Q1406.69 38.8725 1404.38 35.7533 Q1402.07 32.5936 1397.25 32.5936 Q1391.54 32.5936 1388.18 36.4824 Q1384.82 40.3308 1384.82 46.9338 L1384.82 72.576 L1377.32 72.576 L1377.32 27.2059 L1384.82 27.2059 L1384.82 34.2544 Q1387.37 30.082 1390.93 28.0971 Q1394.5 26.1121 1399.4 26.1121 Q1404.34 26.1121 1407.79 28.6237 Q1411.27 31.1352 1412.93 35.9153 Z" fill="#000000" fill-rule="nonzero" fill-opacity="1" /><path clip-path="url(#clip680)" d="M1497.23 48.0275 L1497.23 51.6733 L1462.96 51.6733 Q1463.44 59.3701 1467.58 63.421 Q1471.75 67.4314 1479.16 67.4314 Q1483.46 67.4314 1487.47 66.3781 Q1491.52 65.3249 1495.49 63.2184 L1495.49 70.267 Q1491.48 71.9684 1487.26 72.8596 Q1483.05 73.7508 1478.72 73.7508 Q1467.86 73.7508 1461.5 67.4314 Q1455.18 61.1119 1455.18 50.3365 Q1455.18 39.1965 1461.18 32.6746 Q1467.21 26.1121 1477.42 26.1121 Q1486.58 26.1121 1491.88 32.0264 Q1497.23 37.9003 1497.23 48.0275 M1489.78 45.84 Q1489.69 39.7232 1486.33 36.0774 Q1483.01 32.4315 1477.5 32.4315 Q1471.26 32.4315 1467.5 35.9558 Q1463.77 39.4801 1463.2 45.8805 L1489.78 45.84 Z" fill="#000000" fill-rule="nonzero" fill-opacity="1" /><path clip-path="url(#clip680)" d="M1516.84 14.324 L1516.84 27.2059 L1532.19 27.2059 L1532.19 32.9987 L1516.84 32.9987 L1516.84 57.6282 Q1516.84 63.1779 1518.33 64.7578 Q1519.87 66.3376 1524.53 66.3376 L1532.19 66.3376 L1532.19 72.576 L1524.53 72.576 Q1515.9 72.576 1512.62 69.3758 Q1509.34 66.1351 1509.34 57.6282 L1509.34 32.9987 L1503.87 32.9987 L1503.87 27.2059 L1509.34 27.2059 L1509.34 14.324 L1516.84 14.324 Z" fill="#000000" fill-rule="nonzero" fill-opacity="1" /><path clip-path="url(#clip680)" d="M1580.8 48.0275 L1580.8 51.6733 L1546.53 51.6733 Q1547.01 59.3701 1551.15 63.421 Q1555.32 67.4314 1562.73 67.4314 Q1567.03 67.4314 1571.04 66.3781 Q1575.09 65.3249 1579.06 63.2184 L1579.06 70.267 Q1575.05 71.9684 1570.83 72.8596 Q1566.62 73.7508 1562.29 73.7508 Q1551.43 73.7508 1545.07 67.4314 Q1538.75 61.1119 1538.75 50.3365 Q1538.75 39.1965 1544.75 32.6746 Q1550.78 26.1121 1560.99 26.1121 Q1570.15 26.1121 1575.45 32.0264 Q1580.8 37.9003 1580.8 48.0275 M1573.35 45.84 Q1573.26 39.7232 1569.9 36.0774 Q1566.58 32.4315 1561.07 32.4315 Q1554.83 32.4315 1551.07 35.9558 Q1547.34 39.4801 1546.77 45.8805 L1573.35 45.84 Z" fill="#000000" fill-rule="nonzero" fill-opacity="1" /><path clip-path="url(#clip680)" d="M1619.32 34.1734 Q1618.07 33.4443 1616.57 33.1202 Q1615.11 32.7556 1613.33 32.7556 Q1607.01 32.7556 1603.61 36.8875 Q1600.24 40.9789 1600.24 48.6757 L1600.24 72.576 L1592.75 72.576 L1592.75 27.2059 L1600.24 27.2059 L1600.24 34.2544 Q1602.59 30.1225 1606.36 28.1376 Q1610.13 26.1121 1615.52 26.1121 Q1616.29 26.1121 1617.22 26.2337 Q1618.15 26.3147 1619.28 26.5172 L1619.32 34.1734 Z" fill="#000000" fill-rule="nonzero" fill-opacity="1" /><path clip-path="url(#clip680)" d="M1660.72 65.7705 L1660.72 89.8329 L1653.23 89.8329 L1653.23 27.2059 L1660.72 27.2059 L1660.72 34.0924 Q1663.07 30.0415 1666.64 28.0971 Q1670.24 26.1121 1675.23 26.1121 Q1683.49 26.1121 1688.63 32.6746 Q1693.82 39.2371 1693.82 49.9314 Q1693.82 60.6258 1688.63 67.1883 Q1683.49 73.7508 1675.23 73.7508 Q1670.24 73.7508 1666.64 71.8063 Q1663.07 69.8214 1660.72 65.7705 M1686.08 49.9314 Q1686.08 41.7081 1682.68 37.0496 Q1679.32 32.3505 1673.4 32.3505 Q1667.49 32.3505 1664.09 37.0496 Q1660.72 41.7081 1660.72 49.9314 Q1660.72 58.1548 1664.09 62.8538 Q1667.49 67.5124 1673.4 67.5124 Q1679.32 67.5124 1682.68 62.8538 Q1686.08 58.1548 1686.08 49.9314 Z" fill="#000000" fill-rule="nonzero" fill-opacity="1" /><path clip-path="url(#clip680)" d="M1732.47 34.1734 Q1731.21 33.4443 1729.71 33.1202 Q1728.25 32.7556 1726.47 32.7556 Q1720.15 32.7556 1716.75 36.8875 Q1713.39 40.9789 1713.39 48.6757 L1713.39 72.576 L1705.89 72.576 L1705.89 27.2059 L1713.39 27.2059 L1713.39 34.2544 Q1715.74 30.1225 1719.5 28.1376 Q1723.27 26.1121 1728.66 26.1121 Q1729.43 26.1121 1730.36 26.2337 Q1731.29 26.3147 1732.42 26.5172 L1732.47 34.1734 Z" fill="#000000" fill-rule="nonzero" fill-opacity="1" /><path clip-path="url(#clip680)" d="M1756.04 32.4315 Q1750.05 32.4315 1746.56 37.1306 Q1743.08 41.7891 1743.08 49.9314 Q1743.08 58.0738 1746.52 62.7728 Q1750.01 67.4314 1756.04 67.4314 Q1762 67.4314 1765.48 62.7323 Q1768.96 58.0333 1768.96 49.9314 Q1768.96 41.8701 1765.48 37.1711 Q1762 32.4315 1756.04 32.4315 M1756.04 26.1121 Q1765.76 26.1121 1771.31 32.4315 Q1776.86 38.7509 1776.86 49.9314 Q1776.86 61.0714 1771.31 67.4314 Q1765.76 73.7508 1756.04 73.7508 Q1746.28 73.7508 1740.73 67.4314 Q1735.22 61.0714 1735.22 49.9314 Q1735.22 38.7509 1740.73 32.4315 Q1746.28 26.1121 1756.04 26.1121 Z" fill="#000000" fill-rule="nonzero" fill-opacity="1" /><path clip-path="url(#clip680)" d="M1789.22 27.2059 L1796.67 27.2059 L1796.67 73.3862 Q1796.67 82.0551 1793.35 85.944 Q1790.07 89.8329 1782.74 89.8329 L1779.9 89.8329 L1779.9 83.5134 L1781.89 83.5134 Q1786.14 83.5134 1787.68 81.5285 Q1789.22 79.5841 1789.22 73.3862 L1789.22 27.2059 M1789.22 9.54393 L1796.67 9.54393 L1796.67 18.9825 L1789.22 18.9825 L1789.22 9.54393 Z" fill="#000000" fill-rule="nonzero" fill-opacity="1" /><path clip-path="url(#clip680)" d="M1851.08 48.0275 L1851.08 51.6733 L1816.81 51.6733 Q1817.29 59.3701 1821.42 63.421 Q1825.6 67.4314 1833.01 67.4314 Q1837.3 67.4314 1841.31 66.3781 Q1845.36 65.3249 1849.33 63.2184 L1849.33 70.267 Q1845.32 71.9684 1841.11 72.8596 Q1836.9 73.7508 1832.56 73.7508 Q1821.71 73.7508 1815.35 67.4314 Q1809.03 61.1119 1809.03 50.3365 Q1809.03 39.1965 1815.02 32.6746 Q1821.06 26.1121 1831.27 26.1121 Q1840.42 26.1121 1845.73 32.0264 Q1851.08 37.9003 1851.08 48.0275 M1843.62 45.84 Q1843.54 39.7232 1840.18 36.0774 Q1836.86 32.4315 1831.35 32.4315 Q1825.11 32.4315 1821.34 35.9558 Q1817.62 39.4801 1817.05 45.8805 L1843.62 45.84 Z" fill="#000000" fill-rule="nonzero" fill-opacity="1" /><path clip-path="url(#clip680)" d="M1895.96 28.9478 L1895.96 35.9153 Q1892.8 34.1734 1889.6 33.3227 Q1886.44 32.4315 1883.2 32.4315 Q1875.95 32.4315 1871.94 37.0496 Q1867.93 41.6271 1867.93 49.9314 Q1867.93 58.2358 1871.94 62.8538 Q1875.95 67.4314 1883.2 67.4314 Q1886.44 67.4314 1889.6 66.5807 Q1892.8 65.6895 1895.96 63.9476 L1895.96 70.8341 Q1892.84 72.2924 1889.48 73.0216 Q1886.16 73.7508 1882.39 73.7508 Q1872.14 73.7508 1866.1 67.3098 Q1860.07 60.8689 1860.07 49.9314 Q1860.07 38.832 1866.15 32.472 Q1872.26 26.1121 1882.88 26.1121 Q1886.32 26.1121 1889.6 26.8413 Q1892.88 27.5299 1895.96 28.9478 Z" fill="#000000" fill-rule="nonzero" fill-opacity="1" /><path clip-path="url(#clip680)" d="M1916.3 14.324 L1916.3 27.2059 L1931.65 27.2059 L1931.65 32.9987 L1916.3 32.9987 L1916.3 57.6282 Q1916.3 63.1779 1917.79 64.7578 Q1919.33 66.3376 1923.99 66.3376 L1931.65 66.3376 L1931.65 72.576 L1923.99 72.576 Q1915.36 72.576 1912.08 69.3758 Q1908.8 66.1351 1908.8 57.6282 L1908.8 32.9987 L1903.33 32.9987 L1903.33 27.2059 L1908.8 27.2059 L1908.8 14.324 L1916.3 14.324 Z" fill="#000000" fill-rule="nonzero" fill-opacity="1" /><path clip-path="url(#clip680)" d="M1941.45 27.2059 L1948.91 27.2059 L1948.91 72.576 L1941.45 72.576 L1941.45 27.2059 M1941.45 9.54393 L1948.91 9.54393 L1948.91 18.9825 L1941.45 18.9825 L1941.45 9.54393 Z" fill="#000000" fill-rule="nonzero" fill-opacity="1" /><path clip-path="url(#clip680)" d="M1982.08 32.4315 Q1976.09 32.4315 1972.6 37.1306 Q1969.12 41.7891 1969.12 49.9314 Q1969.12 58.0738 1972.56 62.7728 Q1976.05 67.4314 1982.08 67.4314 Q1988.04 67.4314 1991.52 62.7323 Q1995 58.0333 1995 49.9314 Q1995 41.8701 1991.52 37.1711 Q1988.04 32.4315 1982.08 32.4315 M1982.08 26.1121 Q1991.8 26.1121 1997.35 32.4315 Q2002.9 38.7509 2002.9 49.9314 Q2002.9 61.0714 1997.35 67.4314 Q1991.8 73.7508 1982.08 73.7508 Q1972.32 73.7508 1966.77 67.4314 Q1961.26 61.0714 1961.26 49.9314 Q1961.26 38.7509 1966.77 32.4315 Q1972.32 26.1121 1982.08 26.1121 Z" fill="#000000" fill-rule="nonzero" fill-opacity="1" /><path clip-path="url(#clip680)" d="M2052.97 45.1919 L2052.97 72.576 L2045.52 72.576 L2045.52 45.4349 Q2045.52 38.994 2043.01 35.7938 Q2040.5 32.5936 2035.47 32.5936 Q2029.44 32.5936 2025.95 36.4419 Q2022.47 40.2903 2022.47 46.9338 L2022.47 72.576 L2014.98 72.576 L2014.98 27.2059 L2022.47 27.2059 L2022.47 34.2544 Q2025.14 30.163 2028.75 28.1376 Q2032.39 26.1121 2037.13 26.1121 Q2044.95 26.1121 2048.96 30.9732 Q2052.97 35.7938 2052.97 45.1919 Z" fill="#000000" fill-rule="nonzero" fill-opacity="1" /><path clip-path="url(#clip680)" d="M2112.12 9.62495 Q2106.69 18.942 2104.05 28.0566 Q2101.42 37.1711 2101.42 46.5287 Q2101.42 55.8863 2104.05 65.0818 Q2106.73 74.2369 2112.12 83.5134 L2105.63 83.5134 Q2099.56 73.9938 2096.52 64.7983 Q2093.52 55.6027 2093.52 46.5287 Q2093.52 37.4952 2096.52 28.3401 Q2099.52 19.1851 2105.63 9.62495 L2112.12 9.62495 Z" fill="#000000" fill-rule="nonzero" fill-opacity="1" /><path clip-path="url(#clip680)" d="M2127.71 12.096 L2159.84 12.096 L2159.84 18.9825 L2135.21 18.9825 L2135.21 33.8088 Q2136.99 33.2012 2138.77 32.9176 Q2140.55 32.5936 2142.34 32.5936 Q2152.46 32.5936 2158.38 38.1433 Q2164.29 43.6931 2164.29 53.1722 Q2164.29 62.9348 2158.22 68.3631 Q2152.14 73.7508 2141.08 73.7508 Q2137.27 73.7508 2133.3 73.1026 Q2129.37 72.4545 2125.16 71.1582 L2125.16 62.9348 Q2128.81 64.9198 2132.69 65.892 Q2136.58 66.8642 2140.92 66.8642 Q2147.93 66.8642 2152.02 63.1779 Q2156.11 59.4916 2156.11 53.1722 Q2156.11 46.8528 2152.02 43.1664 Q2147.93 39.4801 2140.92 39.4801 Q2137.64 39.4801 2134.36 40.2093 Q2131.11 40.9384 2127.71 42.4778 L2127.71 12.096 Z" fill="#000000" fill-rule="nonzero" fill-opacity="1" /><path clip-path="url(#clip680)" d="M2187.46 65.6895 L2216.02 65.6895 L2216.02 72.576 L2177.62 72.576 L2177.62 65.6895 Q2182.28 60.8689 2190.3 52.7671 Q2198.36 44.6248 2200.43 42.2752 Q2204.36 37.8598 2205.89 34.8216 Q2207.47 31.7429 2207.47 28.7857 Q2207.47 23.9651 2204.07 20.927 Q2200.71 17.8888 2195.28 17.8888 Q2191.43 17.8888 2187.14 19.2256 Q2182.89 20.5624 2178.02 23.2765 L2178.02 15.0127 Q2182.97 13.0277 2187.26 12.015 Q2191.55 11.0023 2195.12 11.0023 Q2204.52 11.0023 2210.11 15.7013 Q2215.7 20.4004 2215.7 28.2591 Q2215.7 31.9859 2214.28 35.3482 Q2212.9 38.6699 2209.22 43.2069 Q2208.2 44.3817 2202.78 50.0125 Q2197.35 55.6027 2187.46 65.6895 Z" fill="#000000" fill-rule="nonzero" fill-opacity="1" /><path clip-path="url(#clip680)" d="M2254.18 27.2059 L2261.64 27.2059 L2270.95 62.6108 L2280.23 27.2059 L2289.02 27.2059 L2298.34 62.6108 L2307.61 27.2059 L2315.07 27.2059 L2303.2 72.576 L2294.41 72.576 L2284.64 35.3887 L2274.84 72.576 L2266.05 72.576 L2254.18 27.2059 Z" fill="#000000" fill-rule="nonzero" fill-opacity="1" /><path clip-path="url(#clip680)" d="M2365.18 48.0275 L2365.18 51.6733 L2330.91 51.6733 Q2331.39 59.3701 2335.52 63.421 Q2339.7 67.4314 2347.11 67.4314 Q2351.4 67.4314 2355.41 66.3781 Q2359.46 65.3249 2363.43 63.2184 L2363.43 70.267 Q2359.42 71.9684 2355.21 72.8596 Q2351 73.7508 2346.66 73.7508 Q2335.81 73.7508 2329.45 67.4314 Q2323.13 61.1119 2323.13 50.3365 Q2323.13 39.1965 2329.12 32.6746 Q2335.16 26.1121 2345.37 26.1121 Q2354.52 26.1121 2359.83 32.0264 Q2365.18 37.9003 2365.18 48.0275 M2357.72 45.84 Q2357.64 39.7232 2354.28 36.0774 Q2350.96 32.4315 2345.45 32.4315 Q2339.21 32.4315 2335.44 35.9558 Q2331.72 39.4801 2331.15 45.8805 L2357.72 45.84 Z" fill="#000000" fill-rule="nonzero" fill-opacity="1" /><path clip-path="url(#clip680)" d="M2416.22 48.0275 L2416.22 51.6733 L2381.95 51.6733 Q2382.43 59.3701 2386.56 63.421 Q2390.74 67.4314 2398.15 67.4314 Q2402.44 67.4314 2406.45 66.3781 Q2410.51 65.3249 2414.48 63.2184 L2414.48 70.267 Q2410.47 71.9684 2406.25 72.8596 Q2402.04 73.7508 2397.7 73.7508 Q2386.85 73.7508 2380.49 67.4314 Q2374.17 61.1119 2374.17 50.3365 Q2374.17 39.1965 2380.16 32.6746 Q2386.2 26.1121 2396.41 26.1121 Q2405.56 26.1121 2410.87 32.0264 Q2416.22 37.9003 2416.22 48.0275 M2408.76 45.84 Q2408.68 39.7232 2405.32 36.0774 Q2402 32.4315 2396.49 32.4315 Q2390.25 32.4315 2386.48 35.9558 Q2382.76 39.4801 2382.19 45.8805 L2408.76 45.84 Z" fill="#000000" fill-rule="nonzero" fill-opacity="1" /><path clip-path="url(#clip680)" d="M2428.17 9.54393 L2435.66 9.54393 L2435.66 46.7717 L2457.9 27.2059 L2467.42 27.2059 L2443.36 48.4326 L2468.43 72.576 L2458.71 72.576 L2435.66 50.4176 L2435.66 72.576 L2428.17 72.576 L2428.17 9.54393 Z" fill="#000000" fill-rule="nonzero" fill-opacity="1" /><path clip-path="url(#clip680)" d="M2505.42 28.5427 L2505.42 35.5912 Q2502.26 33.9709 2498.86 33.1607 Q2495.45 32.3505 2491.81 32.3505 Q2486.26 32.3505 2483.46 34.0519 Q2480.71 35.7533 2480.71 39.156 Q2480.71 41.7486 2482.69 43.2475 Q2484.68 44.7058 2490.67 46.0426 L2493.23 46.6097 Q2501.16 48.3111 2504.49 51.4303 Q2507.85 54.509 2507.85 60.0587 Q2507.85 66.3781 2502.83 70.0644 Q2497.84 73.7508 2489.09 73.7508 Q2485.45 73.7508 2481.48 73.0216 Q2477.55 72.3329 2473.17 70.9151 L2473.17 63.2184 Q2477.31 65.3654 2481.32 66.4591 Q2485.33 67.5124 2489.26 67.5124 Q2494.52 67.5124 2497.36 65.73 Q2500.19 63.9071 2500.19 60.6258 Q2500.19 57.5877 2498.13 55.9673 Q2496.1 54.3469 2489.17 52.8481 L2486.58 52.2405 Q2479.65 50.7821 2476.58 47.7845 Q2473.5 44.7463 2473.5 39.4801 Q2473.5 33.0797 2478.03 29.5959 Q2482.57 26.1121 2490.92 26.1121 Q2495.05 26.1121 2498.69 26.7198 Q2502.34 27.3274 2505.42 28.5427 Z" fill="#000000" fill-rule="nonzero" fill-opacity="1" /><path clip-path="url(#clip680)" d="M2518.54 9.62495 L2525.02 9.62495 Q2531.1 19.1851 2534.1 28.3401 Q2537.14 37.4952 2537.14 46.5287 Q2537.14 55.6027 2534.1 64.7983 Q2531.1 73.9938 2525.02 83.5134 L2518.54 83.5134 Q2523.93 74.2369 2526.56 65.0818 Q2529.24 55.8863 2529.24 46.5287 Q2529.24 37.1711 2526.56 28.0566 Q2523.93 18.942 2518.54 9.62495 Z" fill="#000000" fill-rule="nonzero" fill-opacity="1" /><polyline clip-path="url(#clip681)" style="stroke:#0000ff; stroke-linecap:round; stroke-linejoin:round; stroke-width:8; stroke-opacity:1; fill:none" points="312.731,1349.18 358.288,1278.51 403.845,1261.09 449.402,1250.3 494.958,1224.48 540.515,1198.3 586.072,1177.32 631.629,1156.29 677.186,1133.41 722.743,1110.71 768.3,1088.64 813.856,1066.47 859.413,1044.09 904.97,1021.75 950.527,999.488 996.084,977.201 1041.64,954.891 1087.2,932.591 1132.75,910.299 1178.31,888.002 1223.87,865.703 1269.42,843.406 1314.98,821.109 1360.54,798.812 1406.1,776.515 1451.65,754.218 1497.21,731.92 1542.77,709.623 1588.32,687.326 1633.88,665.029 1679.44,642.732 1724.99,620.434 1770.55,598.137 1816.11,575.84 1861.66,553.543 1907.22,531.245 1952.78,508.948 1998.33,486.651 2043.89,464.354 2089.45,442.057 2135.01,419.759 2180.56,397.462 2226.12,375.165 2271.68,352.868 2317.23,330.57 2362.79,308.273 2408.35,285.976 2453.9,263.679 2499.46,241.382 2545.02,219.084 2590.57,196.787 2636.13,174.49 2681.69,152.193 "/>
<polyline clip-path="url(#clip681)" style="stroke:#ff0000; stroke-linecap:round; stroke-linejoin:round; stroke-width:8; stroke-opacity:1; fill:none" points="312.731,1370.01 358.288,1364.53 403.845,1311.44 449.402,1287.71 494.958,1272.81 540.515,1250.54 586.072,1225.43 631.629,1203.32 677.186,1181.97 722.743,1159.54 768.3,1136.91 813.856,1114.69 859.413,1092.5 904.97,1070.17 950.527,1047.84 996.084,1025.55 1041.64,1003.27 1087.2,980.965 1132.75,958.664 1178.31,936.369 1223.87,914.073 1269.42,891.774 1314.98,869.477 1360.54,847.18 1406.1,824.883 1451.65,802.586 1497.21,780.288 1542.77,757.991 1588.32,735.694 1633.88,713.397 1679.44,691.099 1724.99,668.802 1770.55,646.505 1816.11,624.208 1861.66,601.911 1907.22,579.613 1952.78,557.316 1998.33,535.019 2043.89,512.722 2089.45,490.424 2135.01,468.127 2180.56,445.83 2226.12,423.533 2271.68,401.236 2317.23,378.938 2362.79,356.641 2408.35,334.344 2453.9,312.047 2499.46,289.75 2545.02,267.452 2590.57,245.155 2636.13,222.858 2681.69,200.561 "/>
<polyline clip-path="url(#clip681)" style="stroke:#008000; stroke-linecap:round; stroke-linejoin:round; stroke-width:8; stroke-opacity:1; fill:none" points="312.731,1397.54 358.288,1388.53 403.845,1380.77 449.402,1349.2 494.958,1322.92 540.515,1303.48 586.072,1282.44 631.629,1258.97 677.186,1236.33 722.743,1214.46 768.3,1192.25 813.856,1169.8 859.413,1147.48 904.97,1125.24 950.527,1102.94 996.084,1080.63 1041.64,1058.33 1087.2,1036.04 1132.75,1013.74 1178.31,991.442 1223.87,969.145 1269.42,946.849 1314.98,924.551 1360.54,902.254 1406.1,879.957 1451.65,857.66 1497.21,835.362 1542.77,813.065 1588.32,790.768 1633.88,768.471 1679.44,746.173 1724.99,723.876 1770.55,701.579 1816.11,679.282 1861.66,656.985 1907.22,634.687 1952.78,612.39 1998.33,590.093 2043.89,567.796 2089.45,545.499 2135.01,523.201 2180.56,500.904 2226.12,478.607 2271.68,456.31 2317.23,434.012 2362.79,411.715 2408.35,389.418 2453.9,367.121 2499.46,344.824 2545.02,322.526 2590.57,300.229 2636.13,277.932 2681.69,255.635 "/>
<path clip-path="url(#clip680)" d="M325.365 366.195 L764.043 366.195 L764.043 158.835 L325.365 158.835  Z" fill="#ffffff" fill-rule="evenodd" fill-opacity="1"/>
<polyline clip-path="url(#clip680)" style="stroke:#000000; stroke-linecap:round; stroke-linejoin:round; stroke-width:4; stroke-opacity:1; fill:none" points="325.365,366.195 764.043,366.195 764.043,158.835 325.365,158.835 325.365,366.195 "/>
<polyline clip-path="url(#clip680)" style="stroke:#0000ff; stroke-linecap:round; stroke-linejoin:round; stroke-width:8; stroke-opacity:1; fill:none" points="353.267,210.675 520.673,210.675 "/>
<path clip-path="url(#clip680)" d="M548.574 193.395 L570.426 193.395 L570.426 197.33 L553.25 197.33 L553.25 207.561 L569.708 207.561 L569.708 211.496 L553.25 211.496 L553.25 224.019 L570.842 224.019 L570.842 227.955 L548.574 227.955 L548.574 193.395 Z" fill="#000000" fill-rule="nonzero" fill-opacity="1" /><path clip-path="url(#clip680)" d="M595.402 214.691 Q595.402 210.061 593.481 207.515 Q591.583 204.969 588.134 204.969 Q584.708 204.969 582.787 207.515 Q580.888 210.061 580.888 214.691 Q580.888 219.297 582.787 221.843 Q584.708 224.39 588.134 224.39 Q591.583 224.39 593.481 221.843 Q595.402 219.297 595.402 214.691 M599.661 224.737 Q599.661 231.357 596.722 234.575 Q593.782 237.816 587.717 237.816 Q585.472 237.816 583.481 237.468 Q581.49 237.144 579.615 236.45 L579.615 232.306 Q581.49 233.325 583.319 233.811 Q585.148 234.297 587.046 234.297 Q591.236 234.297 593.319 232.098 Q595.402 229.922 595.402 225.501 L595.402 223.394 Q594.083 225.686 592.023 226.82 Q589.962 227.955 587.092 227.955 Q582.324 227.955 579.407 224.32 Q576.49 220.686 576.49 214.691 Q576.49 208.672 579.407 205.038 Q582.324 201.404 587.092 201.404 Q589.962 201.404 592.023 202.538 Q594.083 203.672 595.402 205.964 L595.402 202.029 L599.661 202.029 L599.661 224.737 Z" fill="#000000" fill-rule="nonzero" fill-opacity="1" /><path clip-path="url(#clip680)" d="M625.495 214.691 Q625.495 210.061 623.573 207.515 Q621.675 204.969 618.226 204.969 Q614.8 204.969 612.879 207.515 Q610.981 210.061 610.981 214.691 Q610.981 219.297 612.879 221.843 Q614.8 224.39 618.226 224.39 Q621.675 224.39 623.573 221.843 Q625.495 219.297 625.495 214.691 M629.754 224.737 Q629.754 231.357 626.814 234.575 Q623.874 237.816 617.81 237.816 Q615.564 237.816 613.573 237.468 Q611.583 237.144 609.708 236.45 L609.708 232.306 Q611.583 233.325 613.411 233.811 Q615.24 234.297 617.138 234.297 Q621.328 234.297 623.411 232.098 Q625.495 229.922 625.495 225.501 L625.495 223.394 Q624.175 225.686 622.115 226.82 Q620.055 227.955 617.185 227.955 Q612.416 227.955 609.499 224.32 Q606.583 220.686 606.583 214.691 Q606.583 208.672 609.499 205.038 Q612.416 201.404 617.185 201.404 Q620.055 201.404 622.115 202.538 Q624.175 203.672 625.495 205.964 L625.495 202.029 L629.754 202.029 L629.754 224.737 Z" fill="#000000" fill-rule="nonzero" fill-opacity="1" /><path clip-path="url(#clip680)" d="M655.055 202.793 L655.055 206.82 Q653.249 205.895 651.305 205.432 Q649.36 204.969 647.277 204.969 Q644.106 204.969 642.508 205.941 Q640.934 206.913 640.934 208.857 Q640.934 210.339 642.069 211.195 Q643.203 212.029 646.629 212.793 L648.087 213.117 Q652.624 214.089 654.522 215.871 Q656.444 217.631 656.444 220.802 Q656.444 224.413 653.573 226.519 Q650.726 228.626 645.726 228.626 Q643.643 228.626 641.374 228.209 Q639.129 227.816 636.629 227.006 L636.629 222.607 Q638.99 223.834 641.282 224.459 Q643.573 225.061 645.819 225.061 Q648.828 225.061 650.448 224.043 Q652.069 223.001 652.069 221.126 Q652.069 219.39 650.888 218.464 Q649.731 217.538 645.772 216.681 L644.291 216.334 Q640.333 215.501 638.573 213.788 Q636.814 212.052 636.814 209.043 Q636.814 205.385 639.407 203.395 Q641.999 201.404 646.768 201.404 Q649.129 201.404 651.212 201.751 Q653.295 202.098 655.055 202.793 Z" fill="#000000" fill-rule="nonzero" fill-opacity="1" /><polyline clip-path="url(#clip680)" style="stroke:#ff0000; stroke-linecap:round; stroke-linejoin:round; stroke-width:8; stroke-opacity:1; fill:none" points="353.267,262.515 520.673,262.515 "/>
<path clip-path="url(#clip680)" d="M548.574 245.235 L554.87 245.235 L570.194 274.146 L570.194 245.235 L574.731 245.235 L574.731 279.795 L568.435 279.795 L553.111 250.883 L553.111 279.795 L548.574 279.795 L548.574 245.235 Z" fill="#000000" fill-rule="nonzero" fill-opacity="1" /><path clip-path="url(#clip680)" d="M594.638 282.202 Q592.833 286.832 591.12 288.244 Q589.407 289.656 586.537 289.656 L583.134 289.656 L583.134 286.091 L585.634 286.091 Q587.393 286.091 588.365 285.258 Q589.337 284.424 590.518 281.322 L591.282 279.378 L580.796 253.869 L585.31 253.869 L593.412 274.146 L601.513 253.869 L606.027 253.869 L594.638 282.202 Z" fill="#000000" fill-rule="nonzero" fill-opacity="1" /><path clip-path="url(#clip680)" d="M632.092 258.846 Q633.689 255.975 635.911 254.61 Q638.133 253.244 641.143 253.244 Q645.194 253.244 647.393 256.091 Q649.592 258.915 649.592 264.147 L649.592 279.795 L645.309 279.795 L645.309 264.285 Q645.309 260.559 643.99 258.753 Q642.67 256.947 639.962 256.947 Q636.652 256.947 634.731 259.147 Q632.809 261.346 632.809 265.142 L632.809 279.795 L628.527 279.795 L628.527 264.285 Q628.527 260.535 627.208 258.753 Q625.888 256.947 623.134 256.947 Q619.87 256.947 617.948 259.17 Q616.027 261.369 616.027 265.142 L616.027 279.795 L611.745 279.795 L611.745 253.869 L616.027 253.869 L616.027 257.897 Q617.485 255.512 619.522 254.378 Q621.559 253.244 624.36 253.244 Q627.184 253.244 629.152 254.679 Q631.143 256.114 632.092 258.846 Z" fill="#000000" fill-rule="nonzero" fill-opacity="1" /><path clip-path="url(#clip680)" d="M662.207 275.906 L662.207 289.656 L657.925 289.656 L657.925 253.869 L662.207 253.869 L662.207 257.804 Q663.55 255.489 665.587 254.378 Q667.647 253.244 670.494 253.244 Q675.217 253.244 678.156 256.994 Q681.119 260.744 681.119 266.855 Q681.119 272.966 678.156 276.716 Q675.217 280.466 670.494 280.466 Q667.647 280.466 665.587 279.355 Q663.55 278.221 662.207 275.906 M676.698 266.855 Q676.698 262.156 674.754 259.494 Q672.832 256.809 669.453 256.809 Q666.073 256.809 664.129 259.494 Q662.207 262.156 662.207 266.855 Q662.207 271.554 664.129 274.239 Q666.073 276.901 669.453 276.901 Q672.832 276.901 674.754 274.239 Q676.698 271.554 676.698 266.855 Z" fill="#000000" fill-rule="nonzero" fill-opacity="1" /><path clip-path="url(#clip680)" d="M709.73 264.147 L709.73 279.795 L705.471 279.795 L705.471 264.285 Q705.471 260.605 704.036 258.776 Q702.601 256.947 699.73 256.947 Q696.281 256.947 694.291 259.147 Q692.3 261.346 692.3 265.142 L692.3 279.795 L688.017 279.795 L688.017 243.776 L692.3 243.776 L692.3 257.897 Q693.828 255.559 695.888 254.401 Q697.971 253.244 700.679 253.244 Q705.147 253.244 707.439 256.022 Q709.73 258.776 709.73 264.147 Z" fill="#000000" fill-rule="nonzero" fill-opacity="1" /><path clip-path="url(#clip680)" d="M734.753 254.633 L734.753 258.66 Q732.948 257.735 731.003 257.272 Q729.059 256.809 726.976 256.809 Q723.804 256.809 722.207 257.781 Q720.633 258.753 720.633 260.697 Q720.633 262.179 721.767 263.035 Q722.902 263.869 726.327 264.633 L727.786 264.957 Q732.323 265.929 734.221 267.711 Q736.142 269.471 736.142 272.642 Q736.142 276.253 733.272 278.359 Q730.425 280.466 725.425 280.466 Q723.341 280.466 721.073 280.049 Q718.827 279.656 716.328 278.846 L716.328 274.447 Q718.689 275.674 720.98 276.299 Q723.272 276.901 725.517 276.901 Q728.527 276.901 730.147 275.883 Q731.767 274.841 731.767 272.966 Q731.767 271.23 730.587 270.304 Q729.429 269.378 725.471 268.521 L723.99 268.174 Q720.031 267.341 718.272 265.628 Q716.513 263.892 716.513 260.883 Q716.513 257.225 719.105 255.235 Q721.698 253.244 726.466 253.244 Q728.827 253.244 730.911 253.591 Q732.994 253.938 734.753 254.633 Z" fill="#000000" fill-rule="nonzero" fill-opacity="1" /><polyline clip-path="url(#clip680)" style="stroke:#008000; stroke-linecap:round; stroke-linejoin:round; stroke-width:8; stroke-opacity:1; fill:none" points="353.267,314.355 520.673,314.355 "/>
<path clip-path="url(#clip680)" d="M564.407 301.681 L558.064 318.88 L570.773 318.88 L564.407 301.681 M561.768 297.075 L567.069 297.075 L580.24 331.635 L575.379 331.635 L572.231 322.769 L556.652 322.769 L553.504 331.635 L548.574 331.635 L561.768 297.075 Z" fill="#000000" fill-rule="nonzero" fill-opacity="1" /><path clip-path="url(#clip680)" d="M601.328 309.644 L601.328 295.616 L605.587 295.616 L605.587 331.635 L601.328 331.635 L601.328 327.746 Q599.986 330.061 597.925 331.195 Q595.888 332.306 593.018 332.306 Q588.319 332.306 585.356 328.556 Q582.416 324.806 582.416 318.695 Q582.416 312.584 585.356 308.834 Q588.319 305.084 593.018 305.084 Q595.888 305.084 597.925 306.218 Q599.986 307.329 601.328 309.644 M586.814 318.695 Q586.814 323.394 588.736 326.079 Q590.68 328.741 594.06 328.741 Q597.439 328.741 599.384 326.079 Q601.328 323.394 601.328 318.695 Q601.328 313.996 599.384 311.334 Q597.439 308.649 594.06 308.649 Q590.68 308.649 588.736 311.334 Q586.814 313.996 586.814 318.695 Z" fill="#000000" fill-rule="nonzero" fill-opacity="1" /><path clip-path="url(#clip680)" d="M613.921 321.403 L613.921 305.709 L618.18 305.709 L618.18 321.241 Q618.18 324.922 619.615 326.773 Q621.05 328.602 623.921 328.602 Q627.37 328.602 629.36 326.403 Q631.374 324.204 631.374 320.408 L631.374 305.709 L635.633 305.709 L635.633 331.635 L631.374 331.635 L631.374 327.653 Q629.823 330.014 627.763 331.172 Q625.726 332.306 623.018 332.306 Q618.55 332.306 616.235 329.528 Q613.921 326.75 613.921 321.403 M624.638 305.084 L624.638 305.084 Z" fill="#000000" fill-rule="nonzero" fill-opacity="1" /><path clip-path="url(#clip680)" d="M644.407 295.616 L648.666 295.616 L648.666 331.635 L644.407 331.635 L644.407 295.616 Z" fill="#000000" fill-rule="nonzero" fill-opacity="1" /><path clip-path="url(#clip680)" d="M661.791 298.348 L661.791 305.709 L670.564 305.709 L670.564 309.019 L661.791 309.019 L661.791 323.093 Q661.791 326.264 662.647 327.167 Q663.527 328.07 666.189 328.07 L670.564 328.07 L670.564 331.635 L666.189 331.635 Q661.258 331.635 659.383 329.806 Q657.508 327.954 657.508 323.093 L657.508 309.019 L654.383 309.019 L654.383 305.709 L657.508 305.709 L657.508 298.348 L661.791 298.348 Z" fill="#000000" fill-rule="nonzero" fill-opacity="1" /><path clip-path="url(#clip680)" d="M692.693 306.473 L692.693 310.5 Q690.888 309.575 688.943 309.112 Q686.999 308.649 684.916 308.649 Q681.744 308.649 680.147 309.621 Q678.573 310.593 678.573 312.537 Q678.573 314.019 679.707 314.875 Q680.842 315.709 684.267 316.473 L685.726 316.797 Q690.263 317.769 692.161 319.551 Q694.082 321.311 694.082 324.482 Q694.082 328.093 691.212 330.199 Q688.365 332.306 683.365 332.306 Q681.281 332.306 679.013 331.889 Q676.768 331.496 674.268 330.686 L674.268 326.287 Q676.629 327.514 678.92 328.139 Q681.212 328.741 683.457 328.741 Q686.467 328.741 688.087 327.723 Q689.707 326.681 689.707 324.806 Q689.707 323.07 688.527 322.144 Q687.369 321.218 683.411 320.361 L681.93 320.014 Q677.971 319.181 676.212 317.468 Q674.453 315.732 674.453 312.723 Q674.453 309.065 677.045 307.075 Q679.638 305.084 684.406 305.084 Q686.767 305.084 688.851 305.431 Q690.934 305.778 692.693 306.473 Z" fill="#000000" fill-rule="nonzero" fill-opacity="1" /></svg>
