<?xml version="1.0" encoding="utf-8"?>
<svg xmlns="http://www.w3.org/2000/svg" xmlns:xlink="http://www.w3.org/1999/xlink" width="700" height="420" viewBox="0 0 2800 1680">
<defs>
  <clipPath id="clip860">
    <rect x="0" y="0" width="2800" height="1680"/>
  </clipPath>
</defs>
<path clip-path="url(#clip860)" d="M0 1680 L2800 1680 L2800 6.21725e-14 L0 6.21725e-14  Z" fill="#ffffff" fill-rule="evenodd" fill-opacity="1"/>
<defs>
  <clipPath id="clip861">
    <rect x="337" y="117" width="2416" height="1394"/>
  </clipPath>
</defs>
<path clip-path="url(#clip860)" d="M337.718 1510.59 L2752.76 1510.59 L2752.76 117.424 L337.718 117.424  Z" fill="#ffffff" fill-rule="evenodd" fill-opacity="1"/>
<polyline clip-path="url(#clip861)" style="stroke:#000000; stroke-linecap:round; stroke-linejoin:round; stroke-width:2; stroke-opacity:0.1; fill:none" points="406.068,1510.59 406.068,117.424 "/>
<polyline clip-path="url(#clip861)" style="stroke:#000000; stroke-linecap:round; stroke-linejoin:round; stroke-width:2; stroke-opacity:0.1; fill:none" points="844.21,1510.59 844.21,117.424 "/>
<polyline clip-path="url(#clip861)" style="stroke:#000000; stroke-linecap:round; stroke-linejoin:round; stroke-width:2; stroke-opacity:0.1; fill:none" points="1282.35,1510.59 1282.35,117.424 "/>
<polyline clip-path="url(#clip861)" style="stroke:#000000; stroke-linecap:round; stroke-linejoin:round; stroke-width:2; stroke-opacity:0.1; fill:none" points="1720.49,1510.59 1720.49,117.424 "/>
<polyline clip-path="url(#clip861)" style="stroke:#000000; stroke-linecap:round; stroke-linejoin:round; stroke-width:2; stroke-opacity:0.1; fill:none" points="2158.64,1510.59 2158.64,117.424 "/>
<polyline clip-path="url(#clip861)" style="stroke:#000000; stroke-linecap:round; stroke-linejoin:round; stroke-width:2; stroke-opacity:0.1; fill:none" points="2596.78,1510.59 2596.78,117.424 "/>
<polyline clip-path="url(#clip861)" style="stroke:#000000; stroke-linecap:round; stroke-linejoin:round; stroke-width:2; stroke-opacity:0.1; fill:none" points="337.718,1471.17 2752.76,1471.17 "/>
<polyline clip-path="url(#clip861)" style="stroke:#000000; stroke-linecap:round; stroke-linejoin:round; stroke-width:2; stroke-opacity:0.1; fill:none" points="337.718,1024.28 2752.76,1024.28 "/>
<polyline clip-path="url(#clip861)" style="stroke:#000000; stroke-linecap:round; stroke-linejoin:round; stroke-width:2; stroke-opacity:0.1; fill:none" points="337.718,577.398 2752.76,577.398 "/>
<polyline clip-path="url(#clip861)" style="stroke:#000000; stroke-linecap:round; stroke-linejoin:round; stroke-width:2; stroke-opacity:0.1; fill:none" points="337.718,130.513 2752.76,130.513 "/>
<polyline clip-path="url(#clip860)" style="stroke:#000000; stroke-linecap:round; stroke-linejoin:round; stroke-width:4; stroke-opacity:1; fill:none" points="337.718,1510.59 2752.76,1510.59 "/>
<polyline clip-path="url(#clip860)" style="stroke:#000000; stroke-linecap:round; stroke-linejoin:round; stroke-width:4; stroke-opacity:1; fill:none" points="406.068,1510.59 406.068,1491.69 "/>
<polyline clip-path="url(#clip860)" style="stroke:#000000; stroke-linecap:round; stroke-linejoin:round; stroke-width:4; stroke-opacity:1; fill:none" points="844.21,1510.59 844.21,1491.69 "/>
<polyline clip-path="url(#clip860)" style="stroke:#000000; stroke-linecap:round; stroke-linejoin:round; stroke-width:4; stroke-opacity:1; fill:none" points="1282.35,1510.59 1282.35,1491.69 "/>
<polyline clip-path="url(#clip860)" style="stroke:#000000; stroke-linecap:round; stroke-linejoin:round; stroke-width:4; stroke-opacity:1; fill:none" points="1720.49,1510.59 1720.49,1491.69 "/>
<polyline clip-path="url(#clip860)" style="stroke:#000000; stroke-linecap:round; stroke-linejoin:round; stroke-width:4; stroke-opacity:1; fill:none" points="2158.64,1510.59 2158.64,1491.69 "/>
<polyline clip-path="url(#clip860)" style="stroke:#000000; stroke-linecap:round; stroke-linejoin:round; stroke-width:4; stroke-opacity:1; fill:none" points="2596.78,1510.59 2596.78,1491.69 "/>
<path clip-path="url(#clip860)" d="M406.068 1544.71 Q402.457 1544.71 400.628 1548.27 Q398.822 1551.81 398.822 1558.94 Q398.822 1566.05 400.628 1569.61 Q402.457 1573.16 406.068 1573.16 Q409.702 1573.16 411.507 1569.61 Q413.336 1566.05 413.336 1558.94 Q413.336 1551.81 411.507 1548.27 Q409.702 1544.71 406.068 1544.71 M406.068 1541 Q411.878 1541 414.933 1545.61 Q418.012 1550.19 418.012 1558.94 Q418.012 1567.67 414.933 1572.28 Q411.878 1576.86 406.068 1576.86 Q400.257 1576.86 397.179 1572.28 Q394.123 1567.67 394.123 1558.94 Q394.123 1550.19 397.179 1545.61 Q400.257 1541 406.068 1541 Z" fill="#000000" fill-rule="nonzero" fill-opacity="1" /><path clip-path="url(#clip860)" d="M818.897 1572.25 L826.536 1572.25 L826.536 1545.89 L818.226 1547.55 L818.226 1543.29 L826.49 1541.63 L831.166 1541.63 L831.166 1572.25 L838.805 1572.25 L838.805 1576.19 L818.897 1576.19 L818.897 1572.25 Z" fill="#000000" fill-rule="nonzero" fill-opacity="1" /><path clip-path="url(#clip860)" d="M858.249 1544.71 Q854.638 1544.71 852.809 1548.27 Q851.004 1551.81 851.004 1558.94 Q851.004 1566.05 852.809 1569.61 Q854.638 1573.16 858.249 1573.16 Q861.883 1573.16 863.689 1569.61 Q865.517 1566.05 865.517 1558.94 Q865.517 1551.81 863.689 1548.27 Q861.883 1544.71 858.249 1544.71 M858.249 1541 Q864.059 1541 867.115 1545.61 Q870.193 1550.19 870.193 1558.94 Q870.193 1567.67 867.115 1572.28 Q864.059 1576.86 858.249 1576.86 Q852.439 1576.86 849.36 1572.28 Q846.304 1567.67 846.304 1558.94 Q846.304 1550.19 849.36 1545.61 Q852.439 1541 858.249 1541 Z" fill="#000000" fill-rule="nonzero" fill-opacity="1" /><path clip-path="url(#clip860)" d="M1261.12 1572.25 L1277.44 1572.25 L1277.44 1576.19 L1255.5 1576.19 L1255.5 1572.25 Q1258.16 1569.5 1262.75 1564.87 Q1267.35 1560.22 1268.53 1558.87 Q1270.78 1556.35 1271.66 1554.61 Q1272.56 1552.85 1272.56 1551.16 Q1272.56 1548.41 1270.62 1546.67 Q1268.69 1544.94 1265.59 1544.94 Q1263.39 1544.94 1260.94 1545.7 Q1258.51 1546.47 1255.73 1548.02 L1255.73 1543.29 Q1258.56 1542.16 1261.01 1541.58 Q1263.46 1541 1265.5 1541 Q1270.87 1541 1274.06 1543.69 Q1277.26 1546.37 1277.26 1550.86 Q1277.26 1552.99 1276.45 1554.91 Q1275.66 1556.81 1273.56 1559.41 Q1272.98 1560.08 1269.87 1563.29 Q1266.77 1566.49 1261.12 1572.25 Z" fill="#000000" fill-rule="nonzero" fill-opacity="1" /><path clip-path="url(#clip860)" d="M1297.26 1544.71 Q1293.65 1544.71 1291.82 1548.27 Q1290.01 1551.81 1290.01 1558.94 Q1290.01 1566.05 1291.82 1569.61 Q1293.65 1573.16 1297.26 1573.16 Q1300.89 1573.16 1302.7 1569.61 Q1304.53 1566.05 1304.53 1558.94 Q1304.53 1551.81 1302.7 1548.27 Q1300.89 1544.71 1297.26 1544.71 M1297.26 1541 Q1303.07 1541 1306.12 1545.61 Q1309.2 1550.19 1309.2 1558.94 Q1309.2 1567.67 1306.12 1572.28 Q1303.07 1576.86 1297.26 1576.86 Q1291.45 1576.86 1288.37 1572.28 Q1285.31 1567.67 1285.31 1558.94 Q1285.31 1550.19 1288.37 1545.61 Q1291.45 1541 1297.26 1541 Z" fill="#000000" fill-rule="nonzero" fill-opacity="1" /><path clip-path="url(#clip860)" d="M1709.34 1557.55 Q1712.69 1558.27 1714.57 1560.54 Q1716.47 1562.81 1716.47 1566.14 Q1716.47 1571.26 1712.95 1574.06 Q1709.43 1576.86 1702.95 1576.86 Q1700.77 1576.86 1698.46 1576.42 Q1696.16 1576 1693.71 1575.15 L1693.71 1570.63 Q1695.66 1571.77 1697.97 1572.35 Q1700.29 1572.92 1702.81 1572.92 Q1707.21 1572.92 1709.5 1571.19 Q1711.81 1569.45 1711.81 1566.14 Q1711.81 1563.09 1709.66 1561.37 Q1707.53 1559.64 1703.71 1559.64 L1699.68 1559.64 L1699.68 1555.79 L1703.9 1555.79 Q1707.35 1555.79 1709.17 1554.43 Q1711 1553.04 1711 1550.45 Q1711 1547.79 1709.1 1546.37 Q1707.23 1544.94 1703.71 1544.94 Q1701.79 1544.94 1699.59 1545.35 Q1697.39 1545.77 1694.75 1546.65 L1694.75 1542.48 Q1697.41 1541.74 1699.73 1541.37 Q1702.07 1541 1704.13 1541 Q1709.45 1541 1712.55 1543.43 Q1715.66 1545.84 1715.66 1549.96 Q1715.66 1552.83 1714.01 1554.82 Q1712.37 1556.79 1709.34 1557.55 Z" fill="#000000" fill-rule="nonzero" fill-opacity="1" /><path clip-path="url(#clip860)" d="M1735.33 1544.71 Q1731.72 1544.71 1729.89 1548.27 Q1728.09 1551.81 1728.09 1558.94 Q1728.09 1566.05 1729.89 1569.61 Q1731.72 1573.16 1735.33 1573.16 Q1738.97 1573.16 1740.77 1569.61 Q1742.6 1566.05 1742.6 1558.94 Q1742.6 1551.81 1740.77 1548.27 Q1738.97 1544.71 1735.33 1544.71 M1735.33 1541 Q1741.14 1541 1744.2 1545.61 Q1747.28 1550.19 1747.28 1558.94 Q1747.28 1567.67 1744.2 1572.28 Q1741.14 1576.86 1735.33 1576.86 Q1729.52 1576.86 1726.44 1572.28 Q1723.39 1567.67 1723.39 1558.94 Q1723.39 1550.19 1726.44 1545.61 Q1729.52 1541 1735.33 1541 Z" fill="#000000" fill-rule="nonzero" fill-opacity="1" /><path clip-path="url(#clip860)" d="M2146.81 1545.7 L2135 1564.15 L2146.81 1564.15 L2146.81 1545.7 M2145.58 1541.63 L2151.46 1541.63 L2151.46 1564.15 L2156.39 1564.15 L2156.39 1568.04 L2151.46 1568.04 L2151.46 1576.19 L2146.81 1576.19 L2146.81 1568.04 L2131.21 1568.04 L2131.21 1563.53 L2145.58 1541.63 Z" fill="#000000" fill-rule="nonzero" fill-opacity="1" /><path clip-path="url(#clip860)" d="M2174.12 1544.71 Q2170.51 1544.71 2168.68 1548.27 Q2166.88 1551.81 2166.88 1558.94 Q2166.88 1566.05 2168.68 1569.61 Q2170.51 1573.16 2174.12 1573.16 Q2177.76 1573.16 2179.56 1569.61 Q2181.39 1566.05 2181.39 1558.94 Q2181.39 1551.81 2179.56 1548.27 Q2177.76 1544.71 2174.12 1544.71 M2174.12 1541 Q2179.93 1541 2182.99 1545.61 Q2186.07 1550.19 2186.07 1558.94 Q2186.07 1567.67 2182.99 1572.28 Q2179.93 1576.86 2174.12 1576.86 Q2168.31 1576.86 2165.23 1572.28 Q2162.18 1567.67 2162.18 1558.94 Q2162.18 1550.19 2165.23 1545.61 Q2168.31 1541 2174.12 1541 Z" fill="#000000" fill-rule="nonzero" fill-opacity="1" /><path clip-path="url(#clip860)" d="M2571.48 1541.63 L2589.83 1541.63 L2589.83 1545.56 L2575.76 1545.56 L2575.76 1554.04 Q2576.78 1553.69 2577.8 1553.53 Q2578.81 1553.34 2579.83 1553.34 Q2585.62 1553.34 2589 1556.51 Q2592.38 1559.68 2592.38 1565.1 Q2592.38 1570.68 2588.91 1573.78 Q2585.43 1576.86 2579.12 1576.86 Q2576.94 1576.86 2574.67 1576.49 Q2572.43 1576.12 2570.02 1575.38 L2570.02 1570.68 Q2572.1 1571.81 2574.32 1572.37 Q2576.55 1572.92 2579.02 1572.92 Q2583.03 1572.92 2585.37 1570.82 Q2587.7 1568.71 2587.7 1565.1 Q2587.7 1561.49 2585.37 1559.38 Q2583.03 1557.28 2579.02 1557.28 Q2577.15 1557.28 2575.27 1557.69 Q2573.42 1558.11 2571.48 1558.99 L2571.48 1541.63 Z" fill="#000000" fill-rule="nonzero" fill-opacity="1" /><path clip-path="url(#clip860)" d="M2611.59 1544.71 Q2607.98 1544.71 2606.15 1548.27 Q2604.35 1551.81 2604.35 1558.94 Q2604.35 1566.05 2606.15 1569.61 Q2607.98 1573.16 2611.59 1573.16 Q2615.23 1573.16 2617.03 1569.61 Q2618.86 1566.05 2618.86 1558.94 Q2618.86 1551.81 2617.03 1548.27 Q2615.23 1544.71 2611.59 1544.71 M2611.59 1541 Q2617.4 1541 2620.46 1545.61 Q2623.54 1550.19 2623.54 1558.94 Q2623.54 1567.67 2620.46 1572.28 Q2617.4 1576.86 2611.59 1576.86 Q2605.78 1576.86 2602.7 1572.28 Q2599.65 1567.67 2599.65 1558.94 Q2599.65 1550.19 2602.7 1545.61 Q2605.78 1541 2611.59 1541 Z" fill="#000000" fill-rule="nonzero" fill-opacity="1" /><path clip-path="url(#clip860)" d="M1457.12 1613.93 L1463.61 1613.93 L1473.61 1654.1 L1483.57 1613.93 L1490.79 1613.93 L1500.79 1654.1 L1510.75 1613.93 L1517.28 1613.93 L1505.34 1661.45 L1497.26 1661.45 L1487.23 1620.2 L1477.11 1661.45 L1469.02 1661.45 L1457.12 1613.93 Z" fill="#000000" fill-rule="nonzero" fill-opacity="1" /><path clip-path="url(#clip860)" d="M1552.22 1642.16 L1552.22 1645.03 L1525.3 1645.03 Q1525.68 1651.08 1528.92 1654.26 Q1532.2 1657.41 1538.03 1657.41 Q1541.4 1657.41 1544.55 1656.58 Q1547.74 1655.75 1550.85 1654.1 L1550.85 1659.64 Q1547.7 1660.97 1544.39 1661.67 Q1541.08 1662.37 1537.68 1662.37 Q1529.15 1662.37 1524.15 1657.41 Q1519.19 1652.44 1519.19 1643.98 Q1519.19 1635.23 1523.9 1630.1 Q1528.64 1624.94 1536.66 1624.94 Q1543.85 1624.94 1548.02 1629.59 Q1552.22 1634.21 1552.22 1642.16 M1546.37 1640.45 Q1546.3 1635.64 1543.66 1632.77 Q1541.05 1629.91 1536.72 1629.91 Q1531.82 1629.91 1528.86 1632.68 Q1525.93 1635.45 1525.49 1640.48 L1546.37 1640.45 Z" fill="#000000" fill-rule="nonzero" fill-opacity="1" /><path clip-path="url(#clip860)" d="M1592.33 1642.16 L1592.33 1645.03 L1565.4 1645.03 Q1565.78 1651.08 1569.03 1654.26 Q1572.31 1657.41 1578.13 1657.41 Q1581.51 1657.41 1584.66 1656.58 Q1587.84 1655.75 1590.96 1654.1 L1590.96 1659.64 Q1587.81 1660.97 1584.5 1661.67 Q1581.19 1662.37 1577.78 1662.37 Q1569.25 1662.37 1564.25 1657.41 Q1559.29 1652.44 1559.29 1643.98 Q1559.29 1635.23 1564 1630.1 Q1568.74 1624.94 1576.76 1624.94 Q1583.96 1624.94 1588.13 1629.59 Q1592.33 1634.21 1592.33 1642.16 M1586.47 1640.45 Q1586.41 1635.64 1583.77 1632.77 Q1581.16 1629.91 1576.83 1629.91 Q1571.92 1629.91 1568.96 1632.68 Q1566.04 1635.45 1565.59 1640.48 L1586.47 1640.45 Z" fill="#000000" fill-rule="nonzero" fill-opacity="1" /><path clip-path="url(#clip860)" d="M1601.72 1611.93 L1607.6 1611.93 L1607.6 1641.18 L1625.08 1625.8 L1632.56 1625.8 L1613.65 1642.48 L1633.35 1661.45 L1625.72 1661.45 L1607.6 1644.04 L1607.6 1661.45 L1601.72 1661.45 L1601.72 1611.93 Z" fill="#000000" fill-rule="nonzero" fill-opacity="1" /><polyline clip-path="url(#clip860)" style="stroke:#000000; stroke-linecap:round; stroke-linejoin:round; stroke-width:4; stroke-opacity:1; fill:none" points="337.718,1510.59 337.718,117.424 "/>
<polyline clip-path="url(#clip860)" style="stroke:#000000; stroke-linecap:round; stroke-linejoin:round; stroke-width:4; stroke-opacity:1; fill:none" points="337.718,1471.17 356.615,1471.17 "/>
<polyline clip-path="url(#clip860)" style="stroke:#000000; stroke-linecap:round; stroke-linejoin:round; stroke-width:4; stroke-opacity:1; fill:none" points="337.718,1024.28 356.615,1024.28 "/>
<polyline clip-path="url(#clip860)" style="stroke:#000000; stroke-linecap:round; stroke-linejoin:round; stroke-width:4; stroke-opacity:1; fill:none" points="337.718,577.398 356.615,577.398 "/>
<polyline clip-path="url(#clip860)" style="stroke:#000000; stroke-linecap:round; stroke-linejoin:round; stroke-width:4; stroke-opacity:1; fill:none" points="337.718,130.513 356.615,130.513 "/>
<path clip-path="url(#clip860)" d="M283.773 1456.97 Q280.162 1456.97 278.333 1460.53 Q276.528 1464.07 276.528 1471.2 Q276.528 1478.31 278.333 1481.87 Q280.162 1485.42 283.773 1485.42 Q287.407 1485.42 289.213 1481.87 Q291.042 1478.31 291.042 1471.2 Q291.042 1464.07 289.213 1460.53 Q287.407 1456.97 283.773 1456.97 M283.773 1453.26 Q289.583 1453.26 292.639 1457.87 Q295.718 1462.45 295.718 1471.2 Q295.718 1479.93 292.639 1484.54 Q289.583 1489.12 283.773 1489.12 Q277.963 1489.12 274.884 1484.54 Q271.829 1479.93 271.829 1471.2 Q271.829 1462.45 274.884 1457.87 Q277.963 1453.26 283.773 1453.26 Z" fill="#000000" fill-rule="nonzero" fill-opacity="1" /><path clip-path="url(#clip860)" d="M109.916 1044.08 L117.554 1044.08 L117.554 1017.71 L109.244 1019.38 L109.244 1015.12 L117.508 1013.45 L122.184 1013.45 L122.184 1044.08 L129.823 1044.08 L129.823 1048.01 L109.916 1048.01 L109.916 1044.08 Z" fill="#000000" fill-rule="nonzero" fill-opacity="1" /><path clip-path="url(#clip860)" d="M139.267 1042.13 L144.151 1042.13 L144.151 1048.01 L139.267 1048.01 L139.267 1042.13 Z" fill="#000000" fill-rule="nonzero" fill-opacity="1" /><path clip-path="url(#clip860)" d="M164.337 1016.53 Q160.725 1016.53 158.897 1020.09 Q157.091 1023.64 157.091 1030.77 Q157.091 1037.87 158.897 1041.44 Q160.725 1044.98 164.337 1044.98 Q167.971 1044.98 169.776 1041.44 Q171.605 1037.87 171.605 1030.77 Q171.605 1023.64 169.776 1020.09 Q167.971 1016.53 164.337 1016.53 M164.337 1012.83 Q170.147 1012.83 173.202 1017.43 Q176.281 1022.02 176.281 1030.77 Q176.281 1039.49 173.202 1044.1 Q170.147 1048.68 164.337 1048.68 Q158.526 1048.68 155.448 1044.1 Q152.392 1039.49 152.392 1030.77 Q152.392 1022.02 155.448 1017.43 Q158.526 1012.83 164.337 1012.83 Z" fill="#000000" fill-rule="nonzero" fill-opacity="1" /><path clip-path="url(#clip860)" d="M212.67 1022.55 L202.091 1033.17 L212.67 1043.75 L209.915 1046.55 L199.29 1035.93 L188.665 1046.55 L185.934 1043.75 L196.489 1033.17 L185.934 1022.55 L188.665 1019.75 L199.29 1030.37 L209.915 1019.75 L212.67 1022.55 Z" fill="#000000" fill-rule="nonzero" fill-opacity="1" /><path clip-path="url(#clip860)" d="M225.031 1044.08 L232.67 1044.08 L232.67 1017.71 L224.359 1019.38 L224.359 1015.12 L232.623 1013.45 L237.299 1013.45 L237.299 1044.08 L244.938 1044.08 L244.938 1048.01 L225.031 1048.01 L225.031 1044.08 Z" fill="#000000" fill-rule="nonzero" fill-opacity="1" /><path clip-path="url(#clip860)" d="M264.382 1016.53 Q260.771 1016.53 258.943 1020.09 Q257.137 1023.64 257.137 1030.77 Q257.137 1037.87 258.943 1041.44 Q260.771 1044.98 264.382 1044.98 Q268.017 1044.98 269.822 1041.44 Q271.651 1037.87 271.651 1030.77 Q271.651 1023.64 269.822 1020.09 Q268.017 1016.53 264.382 1016.53 M264.382 1012.83 Q270.192 1012.83 273.248 1017.43 Q276.327 1022.02 276.327 1030.77 Q276.327 1039.49 273.248 1044.1 Q270.192 1048.68 264.382 1048.68 Q258.572 1048.68 255.493 1044.1 Q252.438 1039.49 252.438 1030.77 Q252.438 1022.02 255.493 1017.43 Q258.572 1012.83 264.382 1012.83 Z" fill="#000000" fill-rule="nonzero" fill-opacity="1" /><path clip-path="url(#clip860)" d="M286.351 1005.05 Q283.793 1005.05 282.289 1006.8 Q280.803 1008.54 280.803 1011.59 Q280.803 1014.62 282.289 1016.39 Q283.793 1018.14 286.351 1018.14 Q288.909 1018.14 290.395 1016.39 Q291.9 1014.62 291.9 1011.59 Q291.9 1008.54 290.395 1006.8 Q288.909 1005.05 286.351 1005.05 M293.893 993.141 L293.893 996.601 Q292.464 995.924 290.997 995.567 Q289.549 995.21 288.119 995.21 Q284.358 995.21 282.364 997.749 Q280.389 1000.29 280.107 1005.42 Q281.217 1003.79 282.891 1002.92 Q284.565 1002.04 286.577 1002.04 Q290.809 1002.04 293.254 1004.61 Q295.718 1007.17 295.718 1011.59 Q295.718 1015.92 293.16 1018.53 Q290.602 1021.15 286.351 1021.15 Q281.48 1021.15 278.903 1017.42 Q276.327 1013.68 276.327 1006.59 Q276.327 999.93 279.486 995.981 Q282.646 992.012 287.969 992.012 Q289.398 992.012 290.846 992.294 Q292.313 992.576 293.893 993.141 Z" fill="#000000" fill-rule="nonzero" fill-opacity="1" /><path clip-path="url(#clip860)" d="M113.133 597.19 L129.452 597.19 L129.452 601.126 L107.508 601.126 L107.508 597.19 Q110.17 594.436 114.753 589.806 Q119.36 585.153 120.54 583.811 Q122.786 581.288 123.665 579.552 Q124.568 577.792 124.568 576.103 Q124.568 573.348 122.624 571.612 Q120.703 569.876 117.601 569.876 Q115.402 569.876 112.948 570.64 Q110.517 571.404 107.74 572.954 L107.74 568.232 Q110.564 567.098 113.017 566.519 Q115.471 565.941 117.508 565.941 Q122.878 565.941 126.073 568.626 Q129.267 571.311 129.267 575.802 Q129.267 577.931 128.457 579.853 Q127.67 581.751 125.564 584.343 Q124.985 585.015 121.883 588.232 Q118.781 591.427 113.133 597.19 Z" fill="#000000" fill-rule="nonzero" fill-opacity="1" /><path clip-path="url(#clip860)" d="M139.267 595.246 L144.151 595.246 L144.151 601.126 L139.267 601.126 L139.267 595.246 Z" fill="#000000" fill-rule="nonzero" fill-opacity="1" /><path clip-path="url(#clip860)" d="M164.337 569.644 Q160.725 569.644 158.897 573.209 Q157.091 576.751 157.091 583.88 Q157.091 590.987 158.897 594.552 Q160.725 598.093 164.337 598.093 Q167.971 598.093 169.776 594.552 Q171.605 590.987 171.605 583.88 Q171.605 576.751 169.776 573.209 Q167.971 569.644 164.337 569.644 M164.337 565.941 Q170.147 565.941 173.202 570.547 Q176.281 575.13 176.281 583.88 Q176.281 592.607 173.202 597.214 Q170.147 601.797 164.337 601.797 Q158.526 601.797 155.448 597.214 Q152.392 592.607 152.392 583.88 Q152.392 575.13 155.448 570.547 Q158.526 565.941 164.337 565.941 Z" fill="#000000" fill-rule="nonzero" fill-opacity="1" /><path clip-path="url(#clip860)" d="M212.67 575.663 L202.091 586.288 L212.67 596.866 L209.915 599.667 L199.29 589.042 L188.665 599.667 L185.934 596.866 L196.489 586.288 L185.934 575.663 L188.665 572.862 L199.29 583.487 L209.915 572.862 L212.67 575.663 Z" fill="#000000" fill-rule="nonzero" fill-opacity="1" /><path clip-path="url(#clip860)" d="M225.031 597.19 L232.67 597.19 L232.67 570.825 L224.359 572.491 L224.359 568.232 L232.623 566.566 L237.299 566.566 L237.299 597.19 L244.938 597.19 L244.938 601.126 L225.031 601.126 L225.031 597.19 Z" fill="#000000" fill-rule="nonzero" fill-opacity="1" /><path clip-path="url(#clip860)" d="M264.382 569.644 Q260.771 569.644 258.943 573.209 Q257.137 576.751 257.137 583.88 Q257.137 590.987 258.943 594.552 Q260.771 598.093 264.382 598.093 Q268.017 598.093 269.822 594.552 Q271.651 590.987 271.651 583.88 Q271.651 576.751 269.822 573.209 Q268.017 569.644 264.382 569.644 M264.382 565.941 Q270.192 565.941 273.248 570.547 Q276.327 575.13 276.327 583.88 Q276.327 592.607 273.248 597.214 Q270.192 601.797 264.382 601.797 Q258.572 601.797 255.493 597.214 Q252.438 592.607 252.438 583.88 Q252.438 575.13 255.493 570.547 Q258.572 565.941 264.382 565.941 Z" fill="#000000" fill-rule="nonzero" fill-opacity="1" /><path clip-path="url(#clip860)" d="M286.351 558.161 Q283.793 558.161 282.289 559.91 Q280.803 561.659 280.803 564.706 Q280.803 567.734 282.289 569.502 Q283.793 571.251 286.351 571.251 Q288.909 571.251 290.395 569.502 Q291.9 567.734 291.9 564.706 Q291.9 561.659 290.395 559.91 Q288.909 558.161 286.351 558.161 M293.893 546.256 L293.893 549.716 Q292.464 549.039 290.997 548.682 Q289.549 548.325 288.119 548.325 Q284.358 548.325 282.364 550.864 Q280.389 553.403 280.107 558.537 Q281.217 556.901 282.891 556.036 Q284.565 555.152 286.577 555.152 Q290.809 555.152 293.254 557.729 Q295.718 560.286 295.718 564.706 Q295.718 569.032 293.16 571.646 Q290.602 574.261 286.351 574.261 Q281.48 574.261 278.903 570.537 Q276.327 566.794 276.327 559.703 Q276.327 553.045 279.486 549.096 Q282.646 545.127 287.969 545.127 Q289.398 545.127 290.846 545.41 Q292.313 545.692 293.893 546.256 Z" fill="#000000" fill-rule="nonzero" fill-opacity="1" /><path clip-path="url(#clip860)" d="M123.272 135.607 Q126.628 136.324 128.503 138.593 Q130.402 140.861 130.402 144.195 Q130.402 149.31 126.883 152.111 Q123.365 154.912 116.883 154.912 Q114.707 154.912 112.392 154.472 Q110.101 154.056 107.647 153.199 L107.647 148.685 Q109.591 149.82 111.906 150.398 Q114.221 150.977 116.744 150.977 Q121.142 150.977 123.434 149.241 Q125.749 147.505 125.749 144.195 Q125.749 141.139 123.596 139.426 Q121.466 137.69 117.647 137.69 L113.619 137.69 L113.619 133.847 L117.832 133.847 Q121.281 133.847 123.11 132.482 Q124.939 131.093 124.939 128.5 Q124.939 125.838 123.04 124.426 Q121.165 122.991 117.647 122.991 Q115.726 122.991 113.527 123.408 Q111.328 123.824 108.689 124.704 L108.689 120.537 Q111.351 119.797 113.666 119.426 Q116.003 119.056 118.064 119.056 Q123.388 119.056 126.49 121.486 Q129.591 123.894 129.591 128.014 Q129.591 130.884 127.948 132.875 Q126.304 134.843 123.272 135.607 Z" fill="#000000" fill-rule="nonzero" fill-opacity="1" /><path clip-path="url(#clip860)" d="M139.267 148.361 L144.151 148.361 L144.151 154.241 L139.267 154.241 L139.267 148.361 Z" fill="#000000" fill-rule="nonzero" fill-opacity="1" /><path clip-path="url(#clip860)" d="M164.337 122.759 Q160.725 122.759 158.897 126.324 Q157.091 129.866 157.091 136.996 Q157.091 144.102 158.897 147.667 Q160.725 151.208 164.337 151.208 Q167.971 151.208 169.776 147.667 Q171.605 144.102 171.605 136.996 Q171.605 129.866 169.776 126.324 Q167.971 122.759 164.337 122.759 M164.337 119.056 Q170.147 119.056 173.202 123.662 Q176.281 128.246 176.281 136.996 Q176.281 145.722 173.202 150.329 Q170.147 154.912 164.337 154.912 Q158.526 154.912 155.448 150.329 Q152.392 145.722 152.392 136.996 Q152.392 128.246 155.448 123.662 Q158.526 119.056 164.337 119.056 Z" fill="#000000" fill-rule="nonzero" fill-opacity="1" /><path clip-path="url(#clip860)" d="M212.67 128.778 L202.091 139.403 L212.67 149.982 L209.915 152.782 L199.29 142.158 L188.665 152.782 L185.934 149.982 L196.489 139.403 L185.934 128.778 L188.665 125.977 L199.29 136.602 L209.915 125.977 L212.67 128.778 Z" fill="#000000" fill-rule="nonzero" fill-opacity="1" /><path clip-path="url(#clip860)" d="M225.031 150.306 L232.67 150.306 L232.67 123.94 L224.359 125.607 L224.359 121.347 L232.623 119.681 L237.299 119.681 L237.299 150.306 L244.938 150.306 L244.938 154.241 L225.031 154.241 L225.031 150.306 Z" fill="#000000" fill-rule="nonzero" fill-opacity="1" /><path clip-path="url(#clip860)" d="M264.382 122.759 Q260.771 122.759 258.943 126.324 Q257.137 129.866 257.137 136.996 Q257.137 144.102 258.943 147.667 Q260.771 151.208 264.382 151.208 Q268.017 151.208 269.822 147.667 Q271.651 144.102 271.651 136.996 Q271.651 129.866 269.822 126.324 Q268.017 122.759 264.382 122.759 M264.382 119.056 Q270.192 119.056 273.248 123.662 Q276.327 128.246 276.327 136.996 Q276.327 145.722 273.248 150.329 Q270.192 154.912 264.382 154.912 Q258.572 154.912 255.493 150.329 Q252.438 145.722 252.438 136.996 Q252.438 128.246 255.493 123.662 Q258.572 119.056 264.382 119.056 Z" fill="#000000" fill-rule="nonzero" fill-opacity="1" /><path clip-path="url(#clip860)" d="M286.351 111.276 Q283.793 111.276 282.289 113.025 Q280.803 114.775 280.803 117.821 Q280.803 120.85 282.289 122.617 Q283.793 124.367 286.351 124.367 Q288.909 124.367 290.395 122.617 Q291.9 120.85 291.9 117.821 Q291.9 114.775 290.395 113.025 Q288.909 111.276 286.351 111.276 M293.893 99.3711 L293.893 102.832 Q292.464 102.155 290.997 101.797 Q289.549 101.44 288.119 101.44 Q284.358 101.44 282.364 103.979 Q280.389 106.518 280.107 111.653 Q281.217 110.016 282.891 109.151 Q284.565 108.267 286.577 108.267 Q290.809 108.267 293.254 110.844 Q295.718 113.402 295.718 117.821 Q295.718 122.147 293.16 124.762 Q290.602 127.376 286.351 127.376 Q281.48 127.376 278.903 123.652 Q276.327 119.909 276.327 112.819 Q276.327 106.161 279.486 102.211 Q282.646 98.2426 287.969 98.2426 Q289.398 98.2426 290.846 98.5247 Q292.313 98.8068 293.893 99.3711 Z" fill="#000000" fill-rule="nonzero" fill-opacity="1" /><path clip-path="url(#clip860)" d="M9.01569 972.846 L26.8715 972.846 L26.8715 964.762 Q26.8715 960.274 24.548 957.823 Q22.2245 955.372 17.9277 955.372 Q13.6627 955.372 11.3392 957.823 Q9.01569 960.274 9.01569 964.762 L9.01569 972.846 M3.73216 979.276 L3.73216 964.762 Q3.73216 956.773 7.36061 952.699 Q10.9572 948.593 17.9277 948.593 Q24.9618 948.593 28.5584 952.699 Q32.155 956.773 32.155 964.762 L32.155 972.846 L51.2522 972.846 L51.2522 979.276 L3.73216 979.276 Z" fill="#000000" fill-rule="nonzero" fill-opacity="1" /><path clip-path="url(#clip860)" d="M19.7101 928.732 Q19.7101 933.443 23.4022 936.18 Q27.0625 938.917 33.46 938.917 Q39.8575 938.917 43.5497 936.212 Q47.2099 933.474 47.2099 928.732 Q47.2099 924.053 43.5178 921.316 Q39.8257 918.579 33.46 918.579 Q27.1261 918.579 23.434 921.316 Q19.7101 924.053 19.7101 928.732 M14.7448 928.732 Q14.7448 921.093 19.7101 916.733 Q24.6753 912.372 33.46 912.372 Q42.2129 912.372 47.2099 916.733 Q52.1752 921.093 52.1752 928.732 Q52.1752 936.403 47.2099 940.763 Q42.2129 945.092 33.46 945.092 Q24.6753 945.092 19.7101 940.763 Q14.7448 936.403 14.7448 928.732 Z" fill="#000000" fill-rule="nonzero" fill-opacity="1" /><path clip-path="url(#clip860)" d="M45.905 896.999 L64.8111 896.999 L64.8111 902.887 L15.6042 902.887 L15.6042 896.999 L21.0151 896.999 Q17.8322 895.153 16.3044 892.352 Q14.7448 889.519 14.7448 885.604 Q14.7448 879.111 19.9011 875.069 Q25.0573 870.995 33.46 870.995 Q41.8627 870.995 47.019 875.069 Q52.1752 879.111 52.1752 885.604 Q52.1752 889.519 50.6474 892.352 Q49.0878 895.153 45.905 896.999 M33.46 877.074 Q26.9988 877.074 23.3385 879.748 Q19.6464 882.39 19.6464 887.037 Q19.6464 891.684 23.3385 894.357 Q26.9988 896.999 33.46 896.999 Q39.9212 896.999 43.6133 894.357 Q47.2736 891.684 47.2736 887.037 Q47.2736 882.39 43.6133 879.748 Q39.9212 877.074 33.46 877.074 Z" fill="#000000" fill-rule="nonzero" fill-opacity="1" /><path clip-path="url(#clip860)" d="M37.1839 861.892 L15.6042 861.892 L15.6042 856.036 L36.9611 856.036 Q42.0219 856.036 44.5682 854.062 Q47.0826 852.089 47.0826 848.142 Q47.0826 843.4 44.0589 840.662 Q41.0352 837.893 35.8153 837.893 L15.6042 837.893 L15.6042 832.037 L51.2522 832.037 L51.2522 837.893 L45.7776 837.893 Q49.0242 840.026 50.6156 842.859 Q52.1752 845.659 52.1752 849.383 Q52.1752 855.526 48.3558 858.709 Q44.5363 861.892 37.1839 861.892 M14.7448 847.155 L14.7448 847.155 Z" fill="#000000" fill-rule="nonzero" fill-opacity="1" /><path clip-path="url(#clip860)" d="M1.72696 819.974 L1.72696 814.117 L51.2522 814.117 L51.2522 819.974 L1.72696 819.974 Z" fill="#000000" fill-rule="nonzero" fill-opacity="1" /><path clip-path="url(#clip860)" d="M33.3327 785.663 Q33.3327 792.76 34.9559 795.498 Q36.5792 798.235 40.4941 798.235 Q43.6133 798.235 45.4594 796.198 Q47.2736 794.129 47.2736 790.596 Q47.2736 785.726 43.8361 782.798 Q40.3668 779.838 34.6377 779.838 L33.3327 779.838 L33.3327 785.663 M30.9137 773.982 L51.2522 773.982 L51.2522 779.838 L45.8413 779.838 Q49.0878 781.843 50.6474 784.835 Q52.1752 787.827 52.1752 792.156 Q52.1752 797.63 49.1196 800.877 Q46.0323 804.091 40.8761 804.091 Q34.8605 804.091 31.8049 800.081 Q28.7494 796.039 28.7494 788.05 L28.7494 779.838 L28.1765 779.838 Q24.1342 779.838 21.9381 782.512 Q19.7101 785.153 19.7101 789.96 Q19.7101 793.015 20.4421 795.911 Q21.1742 798.808 22.6383 801.481 L17.2275 801.481 Q15.9861 798.267 15.3814 795.243 Q14.7448 792.219 14.7448 789.355 Q14.7448 781.62 18.7552 777.801 Q22.7656 773.982 30.9137 773.982 Z" fill="#000000" fill-rule="nonzero" fill-opacity="1" /><path clip-path="url(#clip860)" d="M5.48273 756.126 L15.6042 756.126 L15.6042 744.063 L20.1557 744.063 L20.1557 756.126 L39.5074 756.126 Q43.8679 756.126 45.1093 754.948 Q46.3506 753.739 46.3506 750.078 L46.3506 744.063 L51.2522 744.063 L51.2522 750.078 Q51.2522 756.858 48.7377 759.436 Q46.1914 762.014 39.5074 762.014 L20.1557 762.014 L20.1557 766.311 L15.6042 766.311 L15.6042 762.014 L5.48273 762.014 L5.48273 756.126 Z" fill="#000000" fill-rule="nonzero" fill-opacity="1" /><path clip-path="url(#clip860)" d="M15.6042 736.36 L15.6042 730.504 L51.2522 730.504 L51.2522 736.36 L15.6042 736.36 M1.72696 736.36 L1.72696 730.504 L9.14301 730.504 L9.14301 736.36 L1.72696 736.36 Z" fill="#000000" fill-rule="nonzero" fill-opacity="1" /><path clip-path="url(#clip860)" d="M19.7101 704.436 Q19.7101 709.147 23.4022 711.884 Q27.0625 714.621 33.46 714.621 Q39.8575 714.621 43.5497 711.916 Q47.2099 709.179 47.2099 704.436 Q47.2099 699.757 43.5178 697.02 Q39.8257 694.283 33.46 694.283 Q27.1261 694.283 23.434 697.02 Q19.7101 699.757 19.7101 704.436 M14.7448 704.436 Q14.7448 696.797 19.7101 692.437 Q24.6753 688.076 33.46 688.076 Q42.2129 688.076 47.2099 692.437 Q52.1752 696.797 52.1752 704.436 Q52.1752 712.107 47.2099 716.467 Q42.2129 720.796 33.46 720.796 Q24.6753 720.796 19.7101 716.467 Q14.7448 712.107 14.7448 704.436 Z" fill="#000000" fill-rule="nonzero" fill-opacity="1" /><path clip-path="url(#clip860)" d="M29.7361 648.736 L51.2522 648.736 L51.2522 654.593 L29.927 654.593 Q24.8663 654.593 22.3518 656.566 Q19.8374 658.54 19.8374 662.486 Q19.8374 667.229 22.8611 669.966 Q25.8848 672.703 31.1047 672.703 L51.2522 672.703 L51.2522 678.591 L15.6042 678.591 L15.6042 672.703 L21.1424 672.703 Q17.9277 670.603 16.3363 667.77 Q14.7448 664.905 14.7448 661.181 Q14.7448 655.038 18.5643 651.887 Q22.3518 648.736 29.7361 648.736 Z" fill="#000000" fill-rule="nonzero" fill-opacity="1" /><path clip-path="url(#clip860)" d="M507.253 18.8205 L507.253 41.5461 L517.543 41.5461 Q523.254 41.5461 526.374 38.5889 Q529.493 35.6318 529.493 30.163 Q529.493 24.7348 526.374 21.7777 Q523.254 18.8205 517.543 18.8205 L507.253 18.8205 M499.07 12.096 L517.543 12.096 Q527.71 12.096 532.895 16.714 Q538.121 21.2916 538.121 30.163 Q538.121 39.1155 532.895 43.6931 Q527.71 48.2706 517.543 48.2706 L507.253 48.2706 L507.253 72.576 L499.07 72.576 L499.07 12.096 Z" fill="#000000" fill-rule="nonzero" fill-opacity="1" /><path clip-path="url(#clip860)" d="M563.399 32.4315 Q557.403 32.4315 553.92 37.1306 Q550.436 41.7891 550.436 49.9314 Q550.436 58.0738 553.879 62.7728 Q557.363 67.4314 563.399 67.4314 Q569.354 67.4314 572.837 62.7323 Q576.321 58.0333 576.321 49.9314 Q576.321 41.8701 572.837 37.1711 Q569.354 32.4315 563.399 32.4315 M563.399 26.1121 Q573.121 26.1121 578.671 32.4315 Q584.22 38.7509 584.22 49.9314 Q584.22 61.0714 578.671 67.4314 Q573.121 73.7508 563.399 73.7508 Q553.636 73.7508 548.086 67.4314 Q542.577 61.0714 542.577 49.9314 Q542.577 38.7509 548.086 32.4315 Q553.636 26.1121 563.399 26.1121 Z" fill="#000000" fill-rule="nonzero" fill-opacity="1" /><path clip-path="url(#clip860)" d="M603.786 65.7705 L603.786 89.8329 L596.292 89.8329 L596.292 27.2059 L603.786 27.2059 L603.786 34.0924 Q606.136 30.0415 609.701 28.0971 Q613.306 26.1121 618.289 26.1121 Q626.552 26.1121 631.697 32.6746 Q636.882 39.2371 636.882 49.9314 Q636.882 60.6258 631.697 67.1883 Q626.552 73.7508 618.289 73.7508 Q613.306 73.7508 609.701 71.8063 Q606.136 69.8214 603.786 65.7705 M629.145 49.9314 Q629.145 41.7081 625.742 37.0496 Q622.38 32.3505 616.466 32.3505 Q610.551 32.3505 607.149 37.0496 Q603.786 41.7081 603.786 49.9314 Q603.786 58.1548 607.149 62.8538 Q610.551 67.5124 616.466 67.5124 Q622.38 67.5124 625.742 62.8538 Q629.145 58.1548 629.145 49.9314 Z" fill="#000000" fill-rule="nonzero" fill-opacity="1" /><path clip-path="url(#clip860)" d="M648.468 54.671 L648.468 27.2059 L655.921 27.2059 L655.921 54.3874 Q655.921 60.8284 658.433 64.0691 Q660.945 67.2693 665.968 67.2693 Q672.004 67.2693 675.487 63.421 Q679.012 59.5726 679.012 52.9291 L679.012 27.2059 L686.465 27.2059 L686.465 72.576 L679.012 72.576 L679.012 65.6084 Q676.297 69.7404 672.692 71.7658 Q669.127 73.7508 664.388 73.7508 Q656.57 73.7508 652.519 68.8897 Q648.468 64.0286 648.468 54.671 M667.223 26.1121 L667.223 26.1121 Z" fill="#000000" fill-rule="nonzero" fill-opacity="1" /><path clip-path="url(#clip860)" d="M701.818 9.54393 L709.272 9.54393 L709.272 72.576 L701.818 72.576 L701.818 9.54393 Z" fill="#000000" fill-rule="nonzero" fill-opacity="1" /><path clip-path="url(#clip860)" d="M745.487 49.7694 Q736.453 49.7694 732.97 51.8354 Q729.486 53.9013 729.486 58.8839 Q729.486 62.8538 732.078 65.2034 Q734.712 67.5124 739.208 67.5124 Q745.406 67.5124 749.133 63.1374 Q752.9 58.7219 752.9 51.4303 L752.9 49.7694 L745.487 49.7694 M760.354 46.6907 L760.354 72.576 L752.9 72.576 L752.9 65.6895 Q750.348 69.8214 746.54 71.8063 Q742.732 73.7508 737.223 73.7508 Q730.256 73.7508 726.124 69.8619 Q722.032 65.9325 722.032 59.3701 Q722.032 51.7138 727.136 47.825 Q732.281 43.9361 742.449 43.9361 L752.9 43.9361 L752.9 43.2069 Q752.9 38.0623 749.497 35.2672 Q746.135 32.4315 740.018 32.4315 Q736.129 32.4315 732.443 33.3632 Q728.757 34.295 725.354 36.1584 L725.354 29.2718 Q729.445 27.692 733.294 26.9223 Q737.142 26.1121 740.788 26.1121 Q750.632 26.1121 755.493 31.2163 Q760.354 36.3204 760.354 46.6907 Z" fill="#000000" fill-rule="nonzero" fill-opacity="1" /><path clip-path="url(#clip860)" d="M783.079 14.324 L783.079 27.2059 L798.432 27.2059 L798.432 32.9987 L783.079 32.9987 L783.079 57.6282 Q783.079 63.1779 784.578 64.7578 Q786.118 66.3376 790.776 66.3376 L798.432 66.3376 L798.432 72.576 L790.776 72.576 Q782.148 72.576 778.866 69.3758 Q775.585 66.1351 775.585 57.6282 L775.585 32.9987 L770.116 32.9987 L770.116 27.2059 L775.585 27.2059 L775.585 14.324 L783.079 14.324 Z" fill="#000000" fill-rule="nonzero" fill-opacity="1" /><path clip-path="url(#clip860)" d="M808.235 27.2059 L815.689 27.2059 L815.689 72.576 L808.235 72.576 L808.235 27.2059 M808.235 9.54393 L815.689 9.54393 L815.689 18.9825 L808.235 18.9825 L808.235 9.54393 Z" fill="#000000" fill-rule="nonzero" fill-opacity="1" /><path clip-path="url(#clip860)" d="M848.866 32.4315 Q842.871 32.4315 839.387 37.1306 Q835.903 41.7891 835.903 49.9314 Q835.903 58.0738 839.346 62.7728 Q842.83 67.4314 848.866 67.4314 Q854.821 67.4314 858.305 62.7323 Q861.788 58.0333 861.788 49.9314 Q861.788 41.8701 858.305 37.1711 Q854.821 32.4315 848.866 32.4315 M848.866 26.1121 Q858.588 26.1121 864.138 32.4315 Q869.688 38.7509 869.688 49.9314 Q869.688 61.0714 864.138 67.4314 Q858.588 73.7508 848.866 73.7508 Q839.103 73.7508 833.554 67.4314 Q828.044 61.0714 828.044 49.9314 Q828.044 38.7509 833.554 32.4315 Q839.103 26.1121 848.866 26.1121 Z" fill="#000000" fill-rule="nonzero" fill-opacity="1" /><path clip-path="url(#clip860)" d="M919.757 45.1919 L919.757 72.576 L912.303 72.576 L912.303 45.4349 Q912.303 38.994 909.792 35.7938 Q907.28 32.5936 902.257 32.5936 Q896.221 32.5936 892.737 36.4419 Q889.254 40.2903 889.254 46.9338 L889.254 72.576 L881.759 72.576 L881.759 27.2059 L889.254 27.2059 L889.254 34.2544 Q891.927 30.163 895.532 28.1376 Q899.178 26.1121 903.918 26.1121 Q911.736 26.1121 915.746 30.9732 Q919.757 35.7938 919.757 45.1919 Z" fill="#000000" fill-rule="nonzero" fill-opacity="1" /><path clip-path="url(#clip860)" d="M961.319 12.096 L969.502 12.096 L969.502 72.576 L961.319 72.576 L961.319 12.096 Z" fill="#000000" fill-rule="nonzero" fill-opacity="1" /><path clip-path="url(#clip860)" d="M1023.18 45.1919 L1023.18 72.576 L1015.72 72.576 L1015.72 45.4349 Q1015.72 38.994 1013.21 35.7938 Q1010.7 32.5936 1005.68 32.5936 Q999.641 32.5936 996.157 36.4419 Q992.673 40.2903 992.673 46.9338 L992.673 72.576 L985.179 72.576 L985.179 27.2059 L992.673 27.2059 L992.673 34.2544 Q995.347 30.163 998.952 28.1376 Q1002.6 26.1121 1007.34 26.1121 Q1015.16 26.1121 1019.17 30.9732 Q1023.18 35.7938 1023.18 45.1919 Z" fill="#000000" fill-rule="nonzero" fill-opacity="1" /><path clip-path="url(#clip860)" d="M1045.42 14.324 L1045.42 27.2059 L1060.77 27.2059 L1060.77 32.9987 L1045.42 32.9987 L1045.42 57.6282 Q1045.42 63.1779 1046.91 64.7578 Q1048.45 66.3376 1053.11 66.3376 L1060.77 66.3376 L1060.77 72.576 L1053.11 72.576 Q1044.48 72.576 1041.2 69.3758 Q1037.92 66.1351 1037.92 57.6282 L1037.92 32.9987 L1032.45 32.9987 L1032.45 27.2059 L1037.92 27.2059 L1037.92 14.324 L1045.42 14.324 Z" fill="#000000" fill-rule="nonzero" fill-opacity="1" /><path clip-path="url(#clip860)" d="M1109.38 48.0275 L1109.38 51.6733 L1075.11 51.6733 Q1075.6 59.3701 1079.73 63.421 Q1083.9 67.4314 1091.31 67.4314 Q1095.61 67.4314 1099.62 66.3781 Q1103.67 65.3249 1107.64 63.2184 L1107.64 70.267 Q1103.63 71.9684 1099.41 72.8596 Q1095.2 73.7508 1090.87 73.7508 Q1080.01 73.7508 1073.65 67.4314 Q1067.33 61.1119 1067.33 50.3365 Q1067.33 39.1965 1073.33 32.6746 Q1079.36 26.1121 1089.57 26.1121 Q1098.73 26.1121 1104.03 32.0264 Q1109.38 37.9003 1109.38 48.0275 M1101.93 45.84 Q1101.84 39.7232 1098.48 36.0774 Q1095.16 32.4315 1089.65 32.4315 Q1083.41 32.4315 1079.65 35.9558 Q1075.92 39.4801 1075.35 45.8805 L1101.93 45.84 Z" fill="#000000" fill-rule="nonzero" fill-opacity="1" /><path clip-path="url(#clip860)" d="M1147.9 34.1734 Q1146.65 33.4443 1145.15 33.1202 Q1143.69 32.7556 1141.91 32.7556 Q1135.59 32.7556 1132.19 36.8875 Q1128.82 40.9789 1128.82 48.6757 L1128.82 72.576 L1121.33 72.576 L1121.33 27.2059 L1128.82 27.2059 L1128.82 34.2544 Q1131.17 30.1225 1134.94 28.1376 Q1138.71 26.1121 1144.1 26.1121 Q1144.87 26.1121 1145.8 26.2337 Q1146.73 26.3147 1147.86 26.5172 L1147.9 34.1734 Z" fill="#000000" fill-rule="nonzero" fill-opacity="1" /><path clip-path="url(#clip860)" d="M1176.34 49.7694 Q1167.31 49.7694 1163.82 51.8354 Q1160.34 53.9013 1160.34 58.8839 Q1160.34 62.8538 1162.93 65.2034 Q1165.57 67.5124 1170.06 67.5124 Q1176.26 67.5124 1179.99 63.1374 Q1183.75 58.7219 1183.75 51.4303 L1183.75 49.7694 L1176.34 49.7694 M1191.21 46.6907 L1191.21 72.576 L1183.75 72.576 L1183.75 65.6895 Q1181.2 69.8214 1177.39 71.8063 Q1173.59 73.7508 1168.08 73.7508 Q1161.11 73.7508 1156.98 69.8619 Q1152.89 65.9325 1152.89 59.3701 Q1152.89 51.7138 1157.99 47.825 Q1163.14 43.9361 1173.3 43.9361 L1183.75 43.9361 L1183.75 43.2069 Q1183.75 38.0623 1180.35 35.2672 Q1176.99 32.4315 1170.87 32.4315 Q1166.98 32.4315 1163.3 33.3632 Q1159.61 34.295 1156.21 36.1584 L1156.21 29.2718 Q1160.3 27.692 1164.15 26.9223 Q1168 26.1121 1171.64 26.1121 Q1181.49 26.1121 1186.35 31.2163 Q1191.21 36.3204 1191.21 46.6907 Z" fill="#000000" fill-rule="nonzero" fill-opacity="1" /><path clip-path="url(#clip860)" d="M1239.21 28.9478 L1239.21 35.9153 Q1236.05 34.1734 1232.85 33.3227 Q1229.69 32.4315 1226.45 32.4315 Q1219.2 32.4315 1215.19 37.0496 Q1211.18 41.6271 1211.18 49.9314 Q1211.18 58.2358 1215.19 62.8538 Q1219.2 67.4314 1226.45 67.4314 Q1229.69 67.4314 1232.85 66.5807 Q1236.05 65.6895 1239.21 63.9476 L1239.21 70.8341 Q1236.09 72.2924 1232.73 73.0216 Q1229.41 73.7508 1225.64 73.7508 Q1215.39 73.7508 1209.36 67.3098 Q1203.32 60.8689 1203.32 49.9314 Q1203.32 38.832 1209.4 32.472 Q1215.51 26.1121 1226.13 26.1121 Q1229.57 26.1121 1232.85 26.8413 Q1236.13 27.5299 1239.21 28.9478 Z" fill="#000000" fill-rule="nonzero" fill-opacity="1" /><path clip-path="url(#clip860)" d="M1259.55 14.324 L1259.55 27.2059 L1274.9 27.2059 L1274.9 32.9987 L1259.55 32.9987 L1259.55 57.6282 Q1259.55 63.1779 1261.05 64.7578 Q1262.58 66.3376 1267.24 66.3376 L1274.9 66.3376 L1274.9 72.576 L1267.24 72.576 Q1258.61 72.576 1255.33 69.3758 Q1252.05 66.1351 1252.05 57.6282 L1252.05 32.9987 L1246.58 32.9987 L1246.58 27.2059 L1252.05 27.2059 L1252.05 14.324 L1259.55 14.324 Z" fill="#000000" fill-rule="nonzero" fill-opacity="1" /><path clip-path="url(#clip860)" d="M1284.7 27.2059 L1292.16 27.2059 L1292.16 72.576 L1284.7 72.576 L1284.7 27.2059 M1284.7 9.54393 L1292.16 9.54393 L1292.16 18.9825 L1284.7 18.9825 L1284.7 9.54393 Z" fill="#000000" fill-rule="nonzero" fill-opacity="1" /><path clip-path="url(#clip860)" d="M1325.33 32.4315 Q1319.34 32.4315 1315.85 37.1306 Q1312.37 41.7891 1312.37 49.9314 Q1312.37 58.0738 1315.81 62.7728 Q1319.3 67.4314 1325.33 67.4314 Q1331.29 67.4314 1334.77 62.7323 Q1338.26 58.0333 1338.26 49.9314 Q1338.26 41.8701 1334.77 37.1711 Q1331.29 32.4315 1325.33 32.4315 M1325.33 26.1121 Q1335.06 26.1121 1340.61 32.4315 Q1346.16 38.7509 1346.16 49.9314 Q1346.16 61.0714 1340.61 67.4314 Q1335.06 73.7508 1325.33 73.7508 Q1315.57 73.7508 1310.02 67.4314 Q1304.51 61.0714 1304.51 49.9314 Q1304.51 38.7509 1310.02 32.4315 Q1315.57 26.1121 1325.33 26.1121 Z" fill="#000000" fill-rule="nonzero" fill-opacity="1" /><path clip-path="url(#clip860)" d="M1396.22 45.1919 L1396.22 72.576 L1388.77 72.576 L1388.77 45.4349 Q1388.77 38.994 1386.26 35.7938 Q1383.75 32.5936 1378.72 32.5936 Q1372.69 32.5936 1369.2 36.4419 Q1365.72 40.2903 1365.72 46.9338 L1365.72 72.576 L1358.23 72.576 L1358.23 27.2059 L1365.72 27.2059 L1365.72 34.2544 Q1368.39 30.163 1372 28.1376 Q1375.65 26.1121 1380.39 26.1121 Q1388.2 26.1121 1392.21 30.9732 Q1396.22 35.7938 1396.22 45.1919 Z" fill="#000000" fill-rule="nonzero" fill-opacity="1" /><path clip-path="url(#clip860)" d="M1470.03 49.9314 Q1470.03 41.7081 1466.63 37.0496 Q1463.27 32.3505 1457.35 32.3505 Q1451.44 32.3505 1448.04 37.0496 Q1444.67 41.7081 1444.67 49.9314 Q1444.67 58.1548 1448.04 62.8538 Q1451.44 67.5124 1457.35 67.5124 Q1463.27 67.5124 1466.63 62.8538 Q1470.03 58.1548 1470.03 49.9314 M1444.67 34.0924 Q1447.02 30.0415 1450.59 28.0971 Q1454.19 26.1121 1459.18 26.1121 Q1467.44 26.1121 1472.58 32.6746 Q1477.77 39.2371 1477.77 49.9314 Q1477.77 60.6258 1472.58 67.1883 Q1467.44 73.7508 1459.18 73.7508 Q1454.19 73.7508 1450.59 71.8063 Q1447.02 69.8214 1444.67 65.7705 L1444.67 72.576 L1437.18 72.576 L1437.18 9.54393 L1444.67 9.54393 L1444.67 34.0924 Z" fill="#000000" fill-rule="nonzero" fill-opacity="1" /><path clip-path="url(#clip860)" d="M1509 76.7889 Q1505.84 84.8907 1502.84 87.3618 Q1499.85 89.8329 1494.82 89.8329 L1488.87 89.8329 L1488.87 83.5945 L1493.24 83.5945 Q1496.32 83.5945 1498.02 82.1361 Q1499.72 80.6778 1501.79 75.2496 L1503.13 71.8468 L1484.78 27.2059 L1492.68 27.2059 L1506.85 62.6918 L1521.03 27.2059 L1528.93 27.2059 L1509 76.7889 Z" fill="#000000" fill-rule="nonzero" fill-opacity="1" /><path clip-path="url(#clip860)" d="M1602.17 14.0809 L1602.17 22.0612 Q1597.51 19.8332 1593.38 18.7395 Q1589.25 17.6457 1585.4 17.6457 Q1578.72 17.6457 1575.07 20.2383 Q1571.47 22.8309 1571.47 27.611 Q1571.47 31.6214 1573.86 33.6873 Q1576.29 35.7128 1583.01 36.9686 L1587.95 37.9813 Q1597.11 39.7232 1601.44 44.1387 Q1605.82 48.5136 1605.82 55.8863 Q1605.82 64.6767 1599.9 69.2137 Q1594.03 73.7508 1582.65 73.7508 Q1578.35 73.7508 1573.49 72.7785 Q1568.67 71.8063 1563.49 69.9024 L1563.49 61.4765 Q1568.47 64.2716 1573.25 65.6895 Q1578.03 67.1073 1582.65 67.1073 Q1589.65 67.1073 1593.46 64.3527 Q1597.27 61.598 1597.27 56.4939 Q1597.27 52.0379 1594.52 49.5264 Q1591.8 47.0148 1585.56 45.759 L1580.58 44.7868 Q1571.43 42.9639 1567.33 39.075 Q1563.24 35.1862 1563.24 28.2591 Q1563.24 20.2383 1568.87 15.6203 Q1574.54 11.0023 1584.47 11.0023 Q1588.72 11.0023 1593.14 11.7719 Q1597.55 12.5416 1602.17 14.0809 Z" fill="#000000" fill-rule="nonzero" fill-opacity="1" /><path clip-path="url(#clip860)" d="M1625.63 14.324 L1625.63 27.2059 L1640.98 27.2059 L1640.98 32.9987 L1625.63 32.9987 L1625.63 57.6282 Q1625.63 63.1779 1627.13 64.7578 Q1628.67 66.3376 1633.32 66.3376 L1640.98 66.3376 L1640.98 72.576 L1633.32 72.576 Q1624.7 72.576 1621.41 69.3758 Q1618.13 66.1351 1618.13 57.6282 L1618.13 32.9987 L1612.66 32.9987 L1612.66 27.2059 L1618.13 27.2059 L1618.13 14.324 L1625.63 14.324 Z" fill="#000000" fill-rule="nonzero" fill-opacity="1" /><path clip-path="url(#clip860)" d="M1671.4 49.7694 Q1662.37 49.7694 1658.88 51.8354 Q1655.4 53.9013 1655.4 58.8839 Q1655.4 62.8538 1657.99 65.2034 Q1660.63 67.5124 1665.12 67.5124 Q1671.32 67.5124 1675.05 63.1374 Q1678.82 58.7219 1678.82 51.4303 L1678.82 49.7694 L1671.4 49.7694 M1686.27 46.6907 L1686.27 72.576 L1678.82 72.576 L1678.82 65.6895 Q1676.26 69.8214 1672.46 71.8063 Q1668.65 73.7508 1663.14 73.7508 Q1656.17 73.7508 1652.04 69.8619 Q1647.95 65.9325 1647.95 59.3701 Q1647.95 51.7138 1653.05 47.825 Q1658.2 43.9361 1668.36 43.9361 L1678.82 43.9361 L1678.82 43.2069 Q1678.82 38.0623 1675.41 35.2672 Q1672.05 32.4315 1665.93 32.4315 Q1662.04 32.4315 1658.36 33.3632 Q1654.67 34.295 1651.27 36.1584 L1651.27 29.2718 Q1655.36 27.692 1659.21 26.9223 Q1663.06 26.1121 1666.7 26.1121 Q1676.55 26.1121 1681.41 31.2163 Q1686.27 36.3204 1686.27 46.6907 Z" fill="#000000" fill-rule="nonzero" fill-opacity="1" /><path clip-path="url(#clip860)" d="M1731.48 49.3643 Q1731.48 41.2625 1728.11 36.8065 Q1724.79 32.3505 1718.76 32.3505 Q1712.76 32.3505 1709.4 36.8065 Q1706.08 41.2625 1706.08 49.3643 Q1706.08 57.4256 1709.4 61.8816 Q1712.76 66.3376 1718.76 66.3376 Q1724.79 66.3376 1728.11 61.8816 Q1731.48 57.4256 1731.48 49.3643 M1738.93 66.9452 Q1738.93 78.5308 1733.79 84.1616 Q1728.64 89.8329 1718.03 89.8329 Q1714.1 89.8329 1710.61 89.2252 Q1707.13 88.6581 1703.85 87.4428 L1703.85 80.1917 Q1707.13 81.9741 1710.33 82.8248 Q1713.53 83.6755 1716.85 83.6755 Q1724.19 83.6755 1727.83 79.8271 Q1731.48 76.0193 1731.48 68.282 L1731.48 64.5957 Q1729.17 68.6061 1725.56 70.5911 Q1721.96 72.576 1716.93 72.576 Q1708.59 72.576 1703.49 66.2161 Q1698.38 59.8562 1698.38 49.3643 Q1698.38 38.832 1703.49 32.472 Q1708.59 26.1121 1716.93 26.1121 Q1721.96 26.1121 1725.56 28.0971 Q1729.17 30.082 1731.48 34.0924 L1731.48 27.2059 L1738.93 27.2059 L1738.93 66.9452 Z" fill="#000000" fill-rule="nonzero" fill-opacity="1" /><path clip-path="url(#clip860)" d="M1793.09 48.0275 L1793.09 51.6733 L1758.82 51.6733 Q1759.31 59.3701 1763.44 63.421 Q1767.61 67.4314 1775.02 67.4314 Q1779.32 67.4314 1783.33 66.3781 Q1787.38 65.3249 1791.35 63.2184 L1791.35 70.267 Q1787.34 71.9684 1783.13 72.8596 Q1778.91 73.7508 1774.58 73.7508 Q1763.72 73.7508 1757.36 67.4314 Q1751.04 61.1119 1751.04 50.3365 Q1751.04 39.1965 1757.04 32.6746 Q1763.07 26.1121 1773.28 26.1121 Q1782.44 26.1121 1787.74 32.0264 Q1793.09 37.9003 1793.09 48.0275 M1785.64 45.84 Q1785.56 39.7232 1782.19 36.0774 Q1778.87 32.4315 1773.36 32.4315 Q1767.12 32.4315 1763.36 35.9558 Q1759.63 39.4801 1759.06 45.8805 L1785.64 45.84 Z" fill="#000000" fill-rule="nonzero" fill-opacity="1" /><path clip-path="url(#clip860)" d="M1849.6 9.62495 Q1844.17 18.942 1841.54 28.0566 Q1838.91 37.1711 1838.91 46.5287 Q1838.91 55.8863 1841.54 65.0818 Q1844.21 74.2369 1849.6 83.5134 L1843.12 83.5134 Q1837.04 73.9938 1834.01 64.7983 Q1831.01 55.6027 1831.01 46.5287 Q1831.01 37.4952 1834.01 28.3401 Q1837 19.1851 1843.12 9.62495 L1849.6 9.62495 Z" fill="#000000" fill-rule="nonzero" fill-opacity="1" /><path clip-path="url(#clip860)" d="M1864.39 12.096 L1872.57 12.096 L1872.57 72.576 L1864.39 72.576 L1864.39 12.096 Z" fill="#000000" fill-rule="nonzero" fill-opacity="1" /><path clip-path="url(#clip860)" d="M1926.24 45.1919 L1926.24 72.576 L1918.79 72.576 L1918.79 45.4349 Q1918.79 38.994 1916.28 35.7938 Q1913.77 32.5936 1908.74 32.5936 Q1902.71 32.5936 1899.22 36.4419 Q1895.74 40.2903 1895.74 46.9338 L1895.74 72.576 L1888.25 72.576 L1888.25 27.2059 L1895.74 27.2059 L1895.74 34.2544 Q1898.41 30.163 1902.02 28.1376 Q1905.67 26.1121 1910.41 26.1121 Q1918.22 26.1121 1922.23 30.9732 Q1926.24 35.7938 1926.24 45.1919 Z" fill="#000000" fill-rule="nonzero" fill-opacity="1" /><path clip-path="url(#clip860)" d="M1948.48 14.324 L1948.48 27.2059 L1963.84 27.2059 L1963.84 32.9987 L1948.48 32.9987 L1948.48 57.6282 Q1948.48 63.1779 1949.98 64.7578 Q1951.52 66.3376 1956.18 66.3376 L1963.84 66.3376 L1963.84 72.576 L1956.18 72.576 Q1947.55 72.576 1944.27 69.3758 Q1940.99 66.1351 1940.99 57.6282 L1940.99 32.9987 L1935.52 32.9987 L1935.52 27.2059 L1940.99 27.2059 L1940.99 14.324 L1948.48 14.324 Z" fill="#000000" fill-rule="nonzero" fill-opacity="1" /><path clip-path="url(#clip860)" d="M2012.45 48.0275 L2012.45 51.6733 L1978.18 51.6733 Q1978.66 59.3701 1982.8 63.421 Q1986.97 67.4314 1994.38 67.4314 Q1998.67 67.4314 2002.69 66.3781 Q2006.74 65.3249 2010.71 63.2184 L2010.71 70.267 Q2006.7 71.9684 2002.48 72.8596 Q1998.27 73.7508 1993.94 73.7508 Q1983.08 73.7508 1976.72 67.4314 Q1970.4 61.1119 1970.4 50.3365 Q1970.4 39.1965 1976.39 32.6746 Q1982.43 26.1121 1992.64 26.1121 Q2001.79 26.1121 2007.1 32.0264 Q2012.45 37.9003 2012.45 48.0275 M2004.99 45.84 Q2004.91 39.7232 2001.55 36.0774 Q1998.23 32.4315 1992.72 32.4315 Q1986.48 32.4315 1982.71 35.9558 Q1978.99 39.4801 1978.42 45.8805 L2004.99 45.84 Z" fill="#000000" fill-rule="nonzero" fill-opacity="1" /><path clip-path="url(#clip860)" d="M2054.54 49.3643 Q2054.54 41.2625 2051.17 36.8065 Q2047.85 32.3505 2041.82 32.3505 Q2035.82 32.3505 2032.46 36.8065 Q2029.14 41.2625 2029.14 49.3643 Q2029.14 57.4256 2032.46 61.8816 Q2035.82 66.3376 2041.82 66.3376 Q2047.85 66.3376 2051.17 61.8816 Q2054.54 57.4256 2054.54 49.3643 M2061.99 66.9452 Q2061.99 78.5308 2056.85 84.1616 Q2051.7 89.8329 2041.09 89.8329 Q2037.16 89.8329 2033.67 89.2252 Q2030.19 88.6581 2026.91 87.4428 L2026.91 80.1917 Q2030.19 81.9741 2033.39 82.8248 Q2036.59 83.6755 2039.91 83.6755 Q2047.25 83.6755 2050.89 79.8271 Q2054.54 76.0193 2054.54 68.282 L2054.54 64.5957 Q2052.23 68.6061 2048.62 70.5911 Q2045.02 72.576 2039.99 72.576 Q2031.65 72.576 2026.54 66.2161 Q2021.44 59.8562 2021.44 49.3643 Q2021.44 38.832 2026.54 32.472 Q2031.65 26.1121 2039.99 26.1121 Q2045.02 26.1121 2048.62 28.0971 Q2052.23 30.082 2054.54 34.0924 L2054.54 27.2059 L2061.99 27.2059 L2061.99 66.9452 Z" fill="#000000" fill-rule="nonzero" fill-opacity="1" /><path clip-path="url(#clip860)" d="M2103.63 34.1734 Q2102.38 33.4443 2100.88 33.1202 Q2099.42 32.7556 2097.64 32.7556 Q2091.32 32.7556 2087.92 36.8875 Q2084.55 40.9789 2084.55 48.6757 L2084.55 72.576 L2077.06 72.576 L2077.06 27.2059 L2084.55 27.2059 L2084.55 34.2544 Q2086.9 30.1225 2090.67 28.1376 Q2094.44 26.1121 2099.83 26.1121 Q2100.6 26.1121 2101.53 26.2337 Q2102.46 26.3147 2103.59 26.5172 L2103.63 34.1734 Z" fill="#000000" fill-rule="nonzero" fill-opacity="1" /><path clip-path="url(#clip860)" d="M2132.07 49.7694 Q2123.04 49.7694 2119.55 51.8354 Q2116.07 53.9013 2116.07 58.8839 Q2116.07 62.8538 2118.66 65.2034 Q2121.3 67.5124 2125.79 67.5124 Q2131.99 67.5124 2135.72 63.1374 Q2139.48 58.7219 2139.48 51.4303 L2139.48 49.7694 L2132.07 49.7694 M2146.94 46.6907 L2146.94 72.576 L2139.48 72.576 L2139.48 65.6895 Q2136.93 69.8214 2133.12 71.8063 Q2129.32 73.7508 2123.81 73.7508 Q2116.84 73.7508 2112.71 69.8619 Q2108.62 65.9325 2108.62 59.3701 Q2108.62 51.7138 2113.72 47.825 Q2118.86 43.9361 2129.03 43.9361 L2139.48 43.9361 L2139.48 43.2069 Q2139.48 38.0623 2136.08 35.2672 Q2132.72 32.4315 2126.6 32.4315 Q2122.71 32.4315 2119.03 33.3632 Q2115.34 34.295 2111.94 36.1584 L2111.94 29.2718 Q2116.03 27.692 2119.88 26.9223 Q2123.73 26.1121 2127.37 26.1121 Q2137.22 26.1121 2142.08 31.2163 Q2146.94 36.3204 2146.94 46.6907 Z" fill="#000000" fill-rule="nonzero" fill-opacity="1" /><path clip-path="url(#clip860)" d="M2169.66 14.324 L2169.66 27.2059 L2185.02 27.2059 L2185.02 32.9987 L2169.66 32.9987 L2169.66 57.6282 Q2169.66 63.1779 2171.16 64.7578 Q2172.7 66.3376 2177.36 66.3376 L2185.02 66.3376 L2185.02 72.576 L2177.36 72.576 Q2168.73 72.576 2165.45 69.3758 Q2162.17 66.1351 2162.17 57.6282 L2162.17 32.9987 L2156.7 32.9987 L2156.7 27.2059 L2162.17 27.2059 L2162.17 14.324 L2169.66 14.324 Z" fill="#000000" fill-rule="nonzero" fill-opacity="1" /><path clip-path="url(#clip860)" d="M2233.63 48.0275 L2233.63 51.6733 L2199.36 51.6733 Q2199.84 59.3701 2203.97 63.421 Q2208.15 67.4314 2215.56 67.4314 Q2219.85 67.4314 2223.86 66.3781 Q2227.92 65.3249 2231.89 63.2184 L2231.89 70.267 Q2227.87 71.9684 2223.66 72.8596 Q2219.45 73.7508 2215.11 73.7508 Q2204.26 73.7508 2197.9 67.4314 Q2191.58 61.1119 2191.58 50.3365 Q2191.58 39.1965 2197.57 32.6746 Q2203.61 26.1121 2213.82 26.1121 Q2222.97 26.1121 2228.28 32.0264 Q2233.63 37.9003 2233.63 48.0275 M2226.17 45.84 Q2226.09 39.7232 2222.73 36.0774 Q2219.41 32.4315 2213.9 32.4315 Q2207.66 32.4315 2203.89 35.9558 Q2200.17 39.4801 2199.6 45.8805 L2226.17 45.84 Z" fill="#000000" fill-rule="nonzero" fill-opacity="1" /><path clip-path="url(#clip860)" d="M2275.72 34.0924 L2275.72 9.54393 L2283.17 9.54393 L2283.17 72.576 L2275.72 72.576 L2275.72 65.7705 Q2273.37 69.8214 2269.76 71.8063 Q2266.2 73.7508 2261.17 73.7508 Q2252.95 73.7508 2247.76 67.1883 Q2242.62 60.6258 2242.62 49.9314 Q2242.62 39.2371 2247.76 32.6746 Q2252.95 26.1121 2261.17 26.1121 Q2266.2 26.1121 2269.76 28.0971 Q2273.37 30.0415 2275.72 34.0924 M2250.32 49.9314 Q2250.32 58.1548 2253.68 62.8538 Q2257.08 67.5124 2263 67.5124 Q2268.91 67.5124 2272.31 62.8538 Q2275.72 58.1548 2275.72 49.9314 Q2275.72 41.7081 2272.31 37.0496 Q2268.91 32.3505 2263 32.3505 Q2257.08 32.3505 2253.68 37.0496 Q2250.32 41.7081 2250.32 49.9314 Z" fill="#000000" fill-rule="nonzero" fill-opacity="1" /><path clip-path="url(#clip860)" d="M2325.22 12.096 L2337.41 12.096 L2352.85 53.2532 L2368.36 12.096 L2380.55 12.096 L2380.55 72.576 L2372.57 72.576 L2372.57 19.4686 L2356.98 60.9499 L2348.75 60.9499 L2333.16 19.4686 L2333.16 72.576 L2325.22 72.576 L2325.22 12.096 Z" fill="#000000" fill-rule="nonzero" fill-opacity="1" /><path clip-path="url(#clip860)" d="M2414.05 32.4315 Q2408.06 32.4315 2404.58 37.1306 Q2401.09 41.7891 2401.09 49.9314 Q2401.09 58.0738 2404.53 62.7728 Q2408.02 67.4314 2414.05 67.4314 Q2420.01 67.4314 2423.49 62.7323 Q2426.98 58.0333 2426.98 49.9314 Q2426.98 41.8701 2423.49 37.1711 Q2420.01 32.4315 2414.05 32.4315 M2414.05 26.1121 Q2423.78 26.1121 2429.33 32.4315 Q2434.88 38.7509 2434.88 49.9314 Q2434.88 61.0714 2429.33 67.4314 Q2423.78 73.7508 2414.05 73.7508 Q2404.29 73.7508 2398.74 67.4314 Q2393.23 61.0714 2393.23 49.9314 Q2393.23 38.7509 2398.74 32.4315 Q2404.29 26.1121 2414.05 26.1121 Z" fill="#000000" fill-rule="nonzero" fill-opacity="1" /><path clip-path="url(#clip860)" d="M2477.09 34.0924 L2477.09 9.54393 L2484.54 9.54393 L2484.54 72.576 L2477.09 72.576 L2477.09 65.7705 Q2474.74 69.8214 2471.13 71.8063 Q2467.57 73.7508 2462.54 73.7508 Q2454.32 73.7508 2449.14 67.1883 Q2443.99 60.6258 2443.99 49.9314 Q2443.99 39.2371 2449.14 32.6746 Q2454.32 26.1121 2462.54 26.1121 Q2467.57 26.1121 2471.13 28.0971 Q2474.74 30.0415 2477.09 34.0924 M2451.69 49.9314 Q2451.69 58.1548 2455.05 62.8538 Q2458.45 67.5124 2464.37 67.5124 Q2470.28 67.5124 2473.68 62.8538 Q2477.09 58.1548 2477.09 49.9314 Q2477.09 41.7081 2473.68 37.0496 Q2470.28 32.3505 2464.37 32.3505 Q2458.45 32.3505 2455.05 37.0496 Q2451.69 41.7081 2451.69 49.9314 Z" fill="#000000" fill-rule="nonzero" fill-opacity="1" /><path clip-path="url(#clip860)" d="M2538.7 48.0275 L2538.7 51.6733 L2504.43 51.6733 Q2504.92 59.3701 2509.05 63.421 Q2513.22 67.4314 2520.63 67.4314 Q2524.93 67.4314 2528.94 66.3781 Q2532.99 65.3249 2536.96 63.2184 L2536.96 70.267 Q2532.95 71.9684 2528.74 72.8596 Q2524.52 73.7508 2520.19 73.7508 Q2509.33 73.7508 2502.97 67.4314 Q2496.65 61.1119 2496.65 50.3365 Q2496.65 39.1965 2502.65 32.6746 Q2508.68 26.1121 2518.89 26.1121 Q2528.05 26.1121 2533.35 32.0264 Q2538.7 37.9003 2538.7 48.0275 M2531.25 45.84 Q2531.17 39.7232 2527.8 36.0774 Q2524.48 32.4315 2518.97 32.4315 Q2512.73 32.4315 2508.97 35.9558 Q2505.24 39.4801 2504.67 45.8805 L2531.25 45.84 Z" fill="#000000" fill-rule="nonzero" fill-opacity="1" /><path clip-path="url(#clip860)" d="M2550.93 9.54393 L2558.39 9.54393 L2558.39 72.576 L2550.93 72.576 L2550.93 9.54393 Z" fill="#000000" fill-rule="nonzero" fill-opacity="1" /><path clip-path="url(#clip860)" d="M2572.81 9.62495 L2579.29 9.62495 Q2585.37 19.1851 2588.36 28.3401 Q2591.4 37.4952 2591.4 46.5287 Q2591.4 55.6027 2588.36 64.7983 Q2585.37 73.9938 2579.29 83.5134 L2572.81 83.5134 Q2578.2 74.2369 2580.83 65.0818 Q2583.5 55.8863 2583.5 46.5287 Q2583.5 37.1711 2580.83 28.0566 Q2578.2 18.942 2572.81 9.62495 Z" fill="#000000" fill-rule="nonzero" fill-opacity="1" /><polyline clip-path="url(#clip861)" style="stroke:#0000ff; stroke-linecap:round; stroke-linejoin:round; stroke-width:6; stroke-opacity:1; fill:none" points="406.068,1471.12 449.882,1470.92 493.696,1470.72 537.51,1470.48 581.324,1469.84 625.139,1468.33 668.953,1465.49 712.767,1460.62 756.581,1451.16 800.395,1432.6 844.21,1398.12 888.024,1335.63 931.838,1192.33 975.652,913.941 1019.47,473.746 1063.28,156.853 1107.09,195.285 1150.91,626.89 1194.72,455.202 1238.54,769.509 1282.35,624.996 1326.17,741.976 1369.98,753.858 1413.79,819.394 1457.61,943.809 1501.42,1017.11 1545.24,1097.17 1589.05,1205.63 1632.87,1279.79 1676.68,1331.19 1720.49,1367.28 1764.31,1392.96 1808.12,1411.45 1851.94,1424.93 1895.75,1434.87 1939.56,1442.84 1983.38,1449.18 2027.19,1454.21 2071.01,1458.16 2114.82,1461.25 2158.64,1463.65 2202.45,1420.96 2246.26,1358.82 2290.08,1295.28 2333.89,1240.57 2377.71,1176.65 2421.52,1114.44 2465.33,1053.14 2509.15,953.643 2552.96,810.556 2596.78,614.23 2640.59,384.687 2684.41,229.342 "/>
<path clip-path="url(#clip861)" d="M406.068 1459.12 L394.068 1471.12 L406.068 1483.12 L418.068 1471.12 L406.068 1459.12 Z" fill="#0000ff" fill-rule="evenodd" fill-opacity="1" stroke="none"/>
<path clip-path="url(#clip861)" d="M449.882 1458.92 L437.882 1470.92 L449.882 1482.92 L461.882 1470.92 L449.882 1458.92 Z" fill="#0000ff" fill-rule="evenodd" fill-opacity="1" stroke="none"/>
<path clip-path="url(#clip861)" d="M493.696 1458.72 L481.696 1470.72 L493.696 1482.72 L505.696 1470.72 L493.696 1458.72 Z" fill="#0000ff" fill-rule="evenodd" fill-opacity="1" stroke="none"/>
<path clip-path="url(#clip861)" d="M537.51 1458.48 L525.51 1470.48 L537.51 1482.48 L549.51 1470.48 L537.51 1458.48 Z" fill="#0000ff" fill-rule="evenodd" fill-opacity="1" stroke="none"/>
<path clip-path="url(#clip861)" d="M581.324 1457.84 L569.324 1469.84 L581.324 1481.84 L593.324 1469.84 L581.324 1457.84 Z" fill="#0000ff" fill-rule="evenodd" fill-opacity="1" stroke="none"/>
<path clip-path="url(#clip861)" d="M625.139 1456.33 L613.139 1468.33 L625.139 1480.33 L637.139 1468.33 L625.139 1456.33 Z" fill="#0000ff" fill-rule="evenodd" fill-opacity="1" stroke="none"/>
<path clip-path="url(#clip861)" d="M668.953 1453.49 L656.953 1465.49 L668.953 1477.49 L680.953 1465.49 L668.953 1453.49 Z" fill="#0000ff" fill-rule="evenodd" fill-opacity="1" stroke="none"/>
<path clip-path="url(#clip861)" d="M712.767 1448.62 L700.767 1460.62 L712.767 1472.62 L724.767 1460.62 L712.767 1448.62 Z" fill="#0000ff" fill-rule="evenodd" fill-opacity="1" stroke="none"/>
<path clip-path="url(#clip861)" d="M756.581 1439.16 L744.581 1451.16 L756.581 1463.16 L768.581 1451.16 L756.581 1439.16 Z" fill="#0000ff" fill-rule="evenodd" fill-opacity="1" stroke="none"/>
<path clip-path="url(#clip861)" d="M800.395 1420.6 L788.395 1432.6 L800.395 1444.6 L812.395 1432.6 L800.395 1420.6 Z" fill="#0000ff" fill-rule="evenodd" fill-opacity="1" stroke="none"/>
<path clip-path="url(#clip861)" d="M844.21 1386.12 L832.21 1398.12 L844.21 1410.12 L856.21 1398.12 L844.21 1386.12 Z" fill="#0000ff" fill-rule="evenodd" fill-opacity="1" stroke="none"/>
<path clip-path="url(#clip861)" d="M888.024 1323.63 L876.024 1335.63 L888.024 1347.63 L900.024 1335.63 L888.024 1323.63 Z" fill="#0000ff" fill-rule="evenodd" fill-opacity="1" stroke="none"/>
<path clip-path="url(#clip861)" d="M931.838 1180.33 L919.838 1192.33 L931.838 1204.33 L943.838 1192.33 L931.838 1180.33 Z" fill="#0000ff" fill-rule="evenodd" fill-opacity="1" stroke="none"/>
<path clip-path="url(#clip861)" d="M975.652 901.941 L963.652 913.941 L975.652 925.941 L987.652 913.941 L975.652 901.941 Z" fill="#0000ff" fill-rule="evenodd" fill-opacity="1" stroke="none"/>
<path clip-path="url(#clip861)" d="M1019.47 461.746 L1007.47 473.746 L1019.47 485.746 L1031.47 473.746 L1019.47 461.746 Z" fill="#0000ff" fill-rule="evenodd" fill-opacity="1" stroke="none"/>
<path clip-path="url(#clip861)" d="M1063.28 144.853 L1051.28 156.853 L1063.28 168.853 L1075.28 156.853 L1063.28 144.853 Z" fill="#0000ff" fill-rule="evenodd" fill-opacity="1" stroke="none"/>
<path clip-path="url(#clip861)" d="M1107.09 183.285 L1095.09 195.285 L1107.09 207.285 L1119.09 195.285 L1107.09 183.285 Z" fill="#0000ff" fill-rule="evenodd" fill-opacity="1" stroke="none"/>
<path clip-path="url(#clip861)" d="M1150.91 614.89 L1138.91 626.89 L1150.91 638.89 L1162.91 626.89 L1150.91 614.89 Z" fill="#0000ff" fill-rule="evenodd" fill-opacity="1" stroke="none"/>
<path clip-path="url(#clip861)" d="M1194.72 443.202 L1182.72 455.202 L1194.72 467.202 L1206.72 455.202 L1194.72 443.202 Z" fill="#0000ff" fill-rule="evenodd" fill-opacity="1" stroke="none"/>
<path clip-path="url(#clip861)" d="M1238.54 757.509 L1226.54 769.509 L1238.54 781.509 L1250.54 769.509 L1238.54 757.509 Z" fill="#0000ff" fill-rule="evenodd" fill-opacity="1" stroke="none"/>
<path clip-path="url(#clip861)" d="M1282.35 612.996 L1270.35 624.996 L1282.35 636.996 L1294.35 624.996 L1282.35 612.996 Z" fill="#0000ff" fill-rule="evenodd" fill-opacity="1" stroke="none"/>
<path clip-path="url(#clip861)" d="M1326.17 729.976 L1314.17 741.976 L1326.17 753.976 L1338.17 741.976 L1326.17 729.976 Z" fill="#0000ff" fill-rule="evenodd" fill-opacity="1" stroke="none"/>
<path clip-path="url(#clip861)" d="M1369.98 741.858 L1357.98 753.858 L1369.98 765.858 L1381.98 753.858 L1369.98 741.858 Z" fill="#0000ff" fill-rule="evenodd" fill-opacity="1" stroke="none"/>
<path clip-path="url(#clip861)" d="M1413.79 807.394 L1401.79 819.394 L1413.79 831.394 L1425.79 819.394 L1413.79 807.394 Z" fill="#0000ff" fill-rule="evenodd" fill-opacity="1" stroke="none"/>
<path clip-path="url(#clip861)" d="M1457.61 931.809 L1445.61 943.809 L1457.61 955.809 L1469.61 943.809 L1457.61 931.809 Z" fill="#0000ff" fill-rule="evenodd" fill-opacity="1" stroke="none"/>
<path clip-path="url(#clip861)" d="M1501.42 1005.11 L1489.42 1017.11 L1501.42 1029.11 L1513.42 1017.11 L1501.42 1005.11 Z" fill="#0000ff" fill-rule="evenodd" fill-opacity="1" stroke="none"/>
<path clip-path="url(#clip861)" d="M1545.24 1085.17 L1533.24 1097.17 L1545.24 1109.17 L1557.24 1097.17 L1545.24 1085.17 Z" fill="#0000ff" fill-rule="evenodd" fill-opacity="1" stroke="none"/>
<path clip-path="url(#clip861)" d="M1589.05 1193.63 L1577.05 1205.63 L1589.05 1217.63 L1601.05 1205.63 L1589.05 1193.63 Z" fill="#0000ff" fill-rule="evenodd" fill-opacity="1" stroke="none"/>
<path clip-path="url(#clip861)" d="M1632.87 1267.79 L1620.87 1279.79 L1632.87 1291.79 L1644.87 1279.79 L1632.87 1267.79 Z" fill="#0000ff" fill-rule="evenodd" fill-opacity="1" stroke="none"/>
<path clip-path="url(#clip861)" d="M1676.68 1319.19 L1664.68 1331.19 L1676.68 1343.19 L1688.68 1331.19 L1676.68 1319.19 Z" fill="#0000ff" fill-rule="evenodd" fill-opacity="1" stroke="none"/>
<path clip-path="url(#clip861)" d="M1720.49 1355.28 L1708.49 1367.28 L1720.49 1379.28 L1732.49 1367.28 L1720.49 1355.28 Z" fill="#0000ff" fill-rule="evenodd" fill-opacity="1" stroke="none"/>
<path clip-path="url(#clip861)" d="M1764.31 1380.96 L1752.31 1392.96 L1764.31 1404.96 L1776.31 1392.96 L1764.31 1380.96 Z" fill="#0000ff" fill-rule="evenodd" fill-opacity="1" stroke="none"/>
<path clip-path="url(#clip861)" d="M1808.12 1399.45 L1796.12 1411.45 L1808.12 1423.45 L1820.12 1411.45 L1808.12 1399.45 Z" fill="#0000ff" fill-rule="evenodd" fill-opacity="1" stroke="none"/>
<path clip-path="url(#clip861)" d="M1851.94 1412.93 L1839.94 1424.93 L1851.94 1436.93 L1863.94 1424.93 L1851.94 1412.93 Z" fill="#0000ff" fill-rule="evenodd" fill-opacity="1" stroke="none"/>
<path clip-path="url(#clip861)" d="M1895.75 1422.87 L1883.75 1434.87 L1895.75 1446.87 L1907.75 1434.87 L1895.75 1422.87 Z" fill="#0000ff" fill-rule="evenodd" fill-opacity="1" stroke="none"/>
<path clip-path="url(#clip861)" d="M1939.56 1430.84 L1927.56 1442.84 L1939.56 1454.84 L1951.56 1442.84 L1939.56 1430.84 Z" fill="#0000ff" fill-rule="evenodd" fill-opacity="1" stroke="none"/>
<path clip-path="url(#clip861)" d="M1983.38 1437.18 L1971.38 1449.18 L1983.38 1461.18 L1995.38 1449.18 L1983.38 1437.18 Z" fill="#0000ff" fill-rule="evenodd" fill-opacity="1" stroke="none"/>
<path clip-path="url(#clip861)" d="M2027.19 1442.21 L2015.19 1454.21 L2027.19 1466.21 L2039.19 1454.21 L2027.19 1442.21 Z" fill="#0000ff" fill-rule="evenodd" fill-opacity="1" stroke="none"/>
<path clip-path="url(#clip861)" d="M2071.01 1446.16 L2059.01 1458.16 L2071.01 1470.16 L2083.01 1458.16 L2071.01 1446.16 Z" fill="#0000ff" fill-rule="evenodd" fill-opacity="1" stroke="none"/>
<path clip-path="url(#clip861)" d="M2114.82 1449.25 L2102.82 1461.25 L2114.82 1473.25 L2126.82 1461.25 L2114.82 1449.25 Z" fill="#0000ff" fill-rule="evenodd" fill-opacity="1" stroke="none"/>
<path clip-path="url(#clip861)" d="M2158.64 1451.65 L2146.64 1463.65 L2158.64 1475.65 L2170.64 1463.65 L2158.64 1451.65 Z" fill="#0000ff" fill-rule="evenodd" fill-opacity="1" stroke="none"/>
<path clip-path="url(#clip861)" d="M2202.45 1408.96 L2190.45 1420.96 L2202.45 1432.96 L2214.45 1420.96 L2202.45 1408.96 Z" fill="#0000ff" fill-rule="evenodd" fill-opacity="1" stroke="none"/>
<path clip-path="url(#clip861)" d="M2246.26 1346.82 L2234.26 1358.82 L2246.26 1370.82 L2258.26 1358.82 L2246.26 1346.82 Z" fill="#0000ff" fill-rule="evenodd" fill-opacity="1" stroke="none"/>
<path clip-path="url(#clip861)" d="M2290.08 1283.28 L2278.08 1295.28 L2290.08 1307.28 L2302.08 1295.28 L2290.08 1283.28 Z" fill="#0000ff" fill-rule="evenodd" fill-opacity="1" stroke="none"/>
<path clip-path="url(#clip861)" d="M2333.89 1228.57 L2321.89 1240.57 L2333.89 1252.57 L2345.89 1240.57 L2333.89 1228.57 Z" fill="#0000ff" fill-rule="evenodd" fill-opacity="1" stroke="none"/>
<path clip-path="url(#clip861)" d="M2377.71 1164.65 L2365.71 1176.65 L2377.71 1188.65 L2389.71 1176.65 L2377.71 1164.65 Z" fill="#0000ff" fill-rule="evenodd" fill-opacity="1" stroke="none"/>
<path clip-path="url(#clip861)" d="M2421.52 1102.44 L2409.52 1114.44 L2421.52 1126.44 L2433.52 1114.44 L2421.52 1102.44 Z" fill="#0000ff" fill-rule="evenodd" fill-opacity="1" stroke="none"/>
<path clip-path="url(#clip861)" d="M2465.33 1041.14 L2453.33 1053.14 L2465.33 1065.14 L2477.33 1053.14 L2465.33 1041.14 Z" fill="#0000ff" fill-rule="evenodd" fill-opacity="1" stroke="none"/>
<path clip-path="url(#clip861)" d="M2509.15 941.643 L2497.15 953.643 L2509.15 965.643 L2521.15 953.643 L2509.15 941.643 Z" fill="#0000ff" fill-rule="evenodd" fill-opacity="1" stroke="none"/>
<path clip-path="url(#clip861)" d="M2552.96 798.556 L2540.96 810.556 L2552.96 822.556 L2564.96 810.556 L2552.96 798.556 Z" fill="#0000ff" fill-rule="evenodd" fill-opacity="1" stroke="none"/>
<path clip-path="url(#clip861)" d="M2596.78 602.23 L2584.78 614.23 L2596.78 626.23 L2608.78 614.23 L2596.78 602.23 Z" fill="#0000ff" fill-rule="evenodd" fill-opacity="1" stroke="none"/>
<path clip-path="url(#clip861)" d="M2640.59 372.687 L2628.59 384.687 L2640.59 396.687 L2652.59 384.687 L2640.59 372.687 Z" fill="#0000ff" fill-rule="evenodd" fill-opacity="1" stroke="none"/>
<path clip-path="url(#clip861)" d="M2684.41 217.342 L2672.41 229.342 L2684.41 241.342 L2696.41 229.342 L2684.41 217.342 Z" fill="#0000ff" fill-rule="evenodd" fill-opacity="1" stroke="none"/>
<polyline clip-path="url(#clip861)" style="stroke:#ff0000; stroke-linecap:round; stroke-linejoin:round; stroke-width:6; stroke-opacity:1; fill:none" points="406.068,1471.15 449.882,1471.14 493.696,1471.08 537.51,1470.98 581.324,1470.85 625.139,1470.58 668.953,1469.96 712.767,1468.74 756.581,1466.55 800.395,1462.39 844.21,1454.33 888.024,1439.15 931.838,1411.3 975.652,1351.59 1019.47,1232.26 1063.28,1028.59 1107.09,811.329 1150.91,697.516 1194.72,757.635 1238.54,747.983 1282.35,832.028 1326.17,846.435 1369.98,896.333 1413.79,941.142 1457.61,993.431 1501.42,1057.65 1545.24,1118.95 1589.05,1176.86 1632.87,1230.23 1676.68,1276.31 1720.49,1314.7 1764.31,1346.01 1808.12,1371.23 1851.94,1391.4 1895.75,1407.46 1939.56,1420.32 1983.38,1430.62 2027.19,1438.87 2071.01,1445.48 2114.82,1450.78 2158.64,1455.01 2202.45,1458.42 2246.26,1458.14 2290.08,1452.4 2333.89,1440.89 2377.71,1424.58 2421.52,1402.51 2465.33,1375.19 2509.15,1337.74 2552.96,1283.86 2596.78,1205.6 2640.59,1092.82 2684.41,941.573 "/>
<circle clip-path="url(#clip861)" cx="406.068" cy="1471.15" r="10.8" fill="#ff0000" fill-rule="evenodd" fill-opacity="1" stroke="none"/>
<circle clip-path="url(#clip861)" cx="449.882" cy="1471.14" r="10.8" fill="#ff0000" fill-rule="evenodd" fill-opacity="1" stroke="none"/>
<circle clip-path="url(#clip861)" cx="493.696" cy="1471.08" r="10.8" fill="#ff0000" fill-rule="evenodd" fill-opacity="1" stroke="none"/>
<circle clip-path="url(#clip861)" cx="537.51" cy="1470.98" r="10.8" fill="#ff0000" fill-rule="evenodd" fill-opacity="1" stroke="none"/>
<circle clip-path="url(#clip861)" cx="581.324" cy="1470.85" r="10.8" fill="#ff0000" fill-rule="evenodd" fill-opacity="1" stroke="none"/>
<circle clip-path="url(#clip861)" cx="625.139" cy="1470.58" r="10.8" fill="#ff0000" fill-rule="evenodd" fill-opacity="1" stroke="none"/>
<circle clip-path="url(#clip861)" cx="668.953" cy="1469.96" r="10.8" fill="#ff0000" fill-rule="evenodd" fill-opacity="1" stroke="none"/>
<circle clip-path="url(#clip861)" cx="712.767" cy="1468.74" r="10.8" fill="#ff0000" fill-rule="evenodd" fill-opacity="1" stroke="none"/>
<circle clip-path="url(#clip861)" cx="756.581" cy="1466.55" r="10.8" fill="#ff0000" fill-rule="evenodd" fill-opacity="1" stroke="none"/>
<circle clip-path="url(#clip861)" cx="800.395" cy="1462.39" r="10.8" fill="#ff0000" fill-rule="evenodd" fill-opacity="1" stroke="none"/>
<circle clip-path="url(#clip861)" cx="844.21" cy="1454.33" r="10.8" fill="#ff0000" fill-rule="evenodd" fill-opacity="1" stroke="none"/>
<circle clip-path="url(#clip861)" cx="888.024" cy="1439.15" r="10.8" fill="#ff0000" fill-rule="evenodd" fill-opacity="1" stroke="none"/>
<circle clip-path="url(#clip861)" cx="931.838" cy="1411.3" r="10.8" fill="#ff0000" fill-rule="evenodd" fill-opacity="1" stroke="none"/>
<circle clip-path="url(#clip861)" cx="975.652" cy="1351.59" r="10.8" fill="#ff0000" fill-rule="evenodd" fill-opacity="1" stroke="none"/>
<circle clip-path="url(#clip861)" cx="1019.47" cy="1232.26" r="10.8" fill="#ff0000" fill-rule="evenodd" fill-opacity="1" stroke="none"/>
<circle clip-path="url(#clip861)" cx="1063.28" cy="1028.59" r="10.8" fill="#ff0000" fill-rule="evenodd" fill-opacity="1" stroke="none"/>
<circle clip-path="url(#clip861)" cx="1107.09" cy="811.329" r="10.8" fill="#ff0000" fill-rule="evenodd" fill-opacity="1" stroke="none"/>
<circle clip-path="url(#clip861)" cx="1150.91" cy="697.516" r="10.8" fill="#ff0000" fill-rule="evenodd" fill-opacity="1" stroke="none"/>
<circle clip-path="url(#clip861)" cx="1194.72" cy="757.635" r="10.8" fill="#ff0000" fill-rule="evenodd" fill-opacity="1" stroke="none"/>
<circle clip-path="url(#clip861)" cx="1238.54" cy="747.983" r="10.8" fill="#ff0000" fill-rule="evenodd" fill-opacity="1" stroke="none"/>
<circle clip-path="url(#clip861)" cx="1282.35" cy="832.028" r="10.8" fill="#ff0000" fill-rule="evenodd" fill-opacity="1" stroke="none"/>
<circle clip-path="url(#clip861)" cx="1326.17" cy="846.435" r="10.8" fill="#ff0000" fill-rule="evenodd" fill-opacity="1" stroke="none"/>
<circle clip-path="url(#clip861)" cx="1369.98" cy="896.333" r="10.8" fill="#ff0000" fill-rule="evenodd" fill-opacity="1" stroke="none"/>
<circle clip-path="url(#clip861)" cx="1413.79" cy="941.142" r="10.8" fill="#ff0000" fill-rule="evenodd" fill-opacity="1" stroke="none"/>
<circle clip-path="url(#clip861)" cx="1457.61" cy="993.431" r="10.8" fill="#ff0000" fill-rule="evenodd" fill-opacity="1" stroke="none"/>
<circle clip-path="url(#clip861)" cx="1501.42" cy="1057.65" r="10.8" fill="#ff0000" fill-rule="evenodd" fill-opacity="1" stroke="none"/>
<circle clip-path="url(#clip861)" cx="1545.24" cy="1118.95" r="10.8" fill="#ff0000" fill-rule="evenodd" fill-opacity="1" stroke="none"/>
<circle clip-path="url(#clip861)" cx="1589.05" cy="1176.86" r="10.8" fill="#ff0000" fill-rule="evenodd" fill-opacity="1" stroke="none"/>
<circle clip-path="url(#clip861)" cx="1632.87" cy="1230.23" r="10.8" fill="#ff0000" fill-rule="evenodd" fill-opacity="1" stroke="none"/>
<circle clip-path="url(#clip861)" cx="1676.68" cy="1276.31" r="10.8" fill="#ff0000" fill-rule="evenodd" fill-opacity="1" stroke="none"/>
<circle clip-path="url(#clip861)" cx="1720.49" cy="1314.7" r="10.8" fill="#ff0000" fill-rule="evenodd" fill-opacity="1" stroke="none"/>
<circle clip-path="url(#clip861)" cx="1764.31" cy="1346.01" r="10.8" fill="#ff0000" fill-rule="evenodd" fill-opacity="1" stroke="none"/>
<circle clip-path="url(#clip861)" cx="1808.12" cy="1371.23" r="10.8" fill="#ff0000" fill-rule="evenodd" fill-opacity="1" stroke="none"/>
<circle clip-path="url(#clip861)" cx="1851.94" cy="1391.4" r="10.8" fill="#ff0000" fill-rule="evenodd" fill-opacity="1" stroke="none"/>
<circle clip-path="url(#clip861)" cx="1895.75" cy="1407.46" r="10.8" fill="#ff0000" fill-rule="evenodd" fill-opacity="1" stroke="none"/>
<circle clip-path="url(#clip861)" cx="1939.56" cy="1420.32" r="10.8" fill="#ff0000" fill-rule="evenodd" fill-opacity="1" stroke="none"/>
<circle clip-path="url(#clip861)" cx="1983.38" cy="1430.62" r="10.8" fill="#ff0000" fill-rule="evenodd" fill-opacity="1" stroke="none"/>
<circle clip-path="url(#clip861)" cx="2027.19" cy="1438.87" r="10.8" fill="#ff0000" fill-rule="evenodd" fill-opacity="1" stroke="none"/>
<circle clip-path="url(#clip861)" cx="2071.01" cy="1445.48" r="10.8" fill="#ff0000" fill-rule="evenodd" fill-opacity="1" stroke="none"/>
<circle clip-path="url(#clip861)" cx="2114.82" cy="1450.78" r="10.8" fill="#ff0000" fill-rule="evenodd" fill-opacity="1" stroke="none"/>
<circle clip-path="url(#clip861)" cx="2158.64" cy="1455.01" r="10.8" fill="#ff0000" fill-rule="evenodd" fill-opacity="1" stroke="none"/>
<circle clip-path="url(#clip861)" cx="2202.45" cy="1458.42" r="10.8" fill="#ff0000" fill-rule="evenodd" fill-opacity="1" stroke="none"/>
<circle clip-path="url(#clip861)" cx="2246.26" cy="1458.14" r="10.8" fill="#ff0000" fill-rule="evenodd" fill-opacity="1" stroke="none"/>
<circle clip-path="url(#clip861)" cx="2290.08" cy="1452.4" r="10.8" fill="#ff0000" fill-rule="evenodd" fill-opacity="1" stroke="none"/>
<circle clip-path="url(#clip861)" cx="2333.89" cy="1440.89" r="10.8" fill="#ff0000" fill-rule="evenodd" fill-opacity="1" stroke="none"/>
<circle clip-path="url(#clip861)" cx="2377.71" cy="1424.58" r="10.8" fill="#ff0000" fill-rule="evenodd" fill-opacity="1" stroke="none"/>
<circle clip-path="url(#clip861)" cx="2421.52" cy="1402.51" r="10.8" fill="#ff0000" fill-rule="evenodd" fill-opacity="1" stroke="none"/>
<circle clip-path="url(#clip861)" cx="2465.33" cy="1375.19" r="10.8" fill="#ff0000" fill-rule="evenodd" fill-opacity="1" stroke="none"/>
<circle clip-path="url(#clip861)" cx="2509.15" cy="1337.74" r="10.8" fill="#ff0000" fill-rule="evenodd" fill-opacity="1" stroke="none"/>
<circle clip-path="url(#clip861)" cx="2552.96" cy="1283.86" r="10.8" fill="#ff0000" fill-rule="evenodd" fill-opacity="1" stroke="none"/>
<circle clip-path="url(#clip861)" cx="2596.78" cy="1205.6" r="10.8" fill="#ff0000" fill-rule="evenodd" fill-opacity="1" stroke="none"/>
<circle clip-path="url(#clip861)" cx="2640.59" cy="1092.82" r="10.8" fill="#ff0000" fill-rule="evenodd" fill-opacity="1" stroke="none"/>
<circle clip-path="url(#clip861)" cx="2684.41" cy="941.573" r="10.8" fill="#ff0000" fill-rule="evenodd" fill-opacity="1" stroke="none"/>
<polyline clip-path="url(#clip861)" style="stroke:#008000; stroke-linecap:round; stroke-linejoin:round; stroke-width:6; stroke-opacity:1; fill:none" points="406.068,1471.16 449.882,1471.16 493.696,1471.15 537.51,1471.14 581.324,1471.1 625.139,1471.05 668.953,1470.95 712.767,1470.74 756.581,1470.32 800.395,1469.52 844.21,1468.01 888.024,1465.12 931.838,1459.62 975.652,1449.38 1019.47,1428.73 1063.28,1387.32 1107.09,1311.38 1150.91,1206.02 1194.72,1097.25 1238.54,1019.19 1282.35,953.924 1326.17,916.466 1369.98,899.714 1413.79,904.955 1457.61,926.284 1501.42,960.243 1545.24,1003.8 1589.05,1052.77 1632.87,1099.98 1676.68,1144.64 1720.49,1186.1 1764.31,1223.94 1808.12,1257.99 1851.94,1288.25 1895.75,1314.89 1939.56,1337.51 1983.38,1356.74 2027.19,1373.13 2071.01,1387.13 2114.82,1399.09 2158.64,1409.33 2202.45,1418.02 2246.26,1425.41 2290.08,1431.58 2333.89,1436.35 2377.71,1439.42 2421.52,1440.49 2465.33,1439.05 2509.15,1433.63 2552.96,1422.54 2596.78,1402.86 2640.59,1369.9 2684.41,1316.49 "/>
<path clip-path="url(#clip861)" d="M406.068 1459.16 L394.068 1483.16 L418.068 1483.16 L406.068 1459.16 Z" fill="#008000" fill-rule="evenodd" fill-opacity="1" stroke="none"/>
<path clip-path="url(#clip861)" d="M449.882 1459.16 L437.882 1483.16 L461.882 1483.16 L449.882 1459.16 Z" fill="#008000" fill-rule="evenodd" fill-opacity="1" stroke="none"/>
<path clip-path="url(#clip861)" d="M493.696 1459.15 L481.696 1483.15 L505.696 1483.15 L493.696 1459.15 Z" fill="#008000" fill-rule="evenodd" fill-opacity="1" stroke="none"/>
<path clip-path="url(#clip861)" d="M537.51 1459.14 L525.51 1483.14 L549.51 1483.14 L537.51 1459.14 Z" fill="#008000" fill-rule="evenodd" fill-opacity="1" stroke="none"/>
<path clip-path="url(#clip861)" d="M581.324 1459.1 L569.324 1483.1 L593.324 1483.1 L581.324 1459.1 Z" fill="#008000" fill-rule="evenodd" fill-opacity="1" stroke="none"/>
<path clip-path="url(#clip861)" d="M625.139 1459.05 L613.139 1483.05 L637.139 1483.05 L625.139 1459.05 Z" fill="#008000" fill-rule="evenodd" fill-opacity="1" stroke="none"/>
<path clip-path="url(#clip861)" d="M668.953 1458.95 L656.953 1482.95 L680.953 1482.95 L668.953 1458.95 Z" fill="#008000" fill-rule="evenodd" fill-opacity="1" stroke="none"/>
<path clip-path="url(#clip861)" d="M712.767 1458.74 L700.767 1482.74 L724.767 1482.74 L712.767 1458.74 Z" fill="#008000" fill-rule="evenodd" fill-opacity="1" stroke="none"/>
<path clip-path="url(#clip861)" d="M756.581 1458.32 L744.581 1482.32 L768.581 1482.32 L756.581 1458.32 Z" fill="#008000" fill-rule="evenodd" fill-opacity="1" stroke="none"/>
<path clip-path="url(#clip861)" d="M800.395 1457.52 L788.395 1481.52 L812.395 1481.52 L800.395 1457.52 Z" fill="#008000" fill-rule="evenodd" fill-opacity="1" stroke="none"/>
<path clip-path="url(#clip861)" d="M844.21 1456.01 L832.21 1480.01 L856.21 1480.01 L844.21 1456.01 Z" fill="#008000" fill-rule="evenodd" fill-opacity="1" stroke="none"/>
<path clip-path="url(#clip861)" d="M888.024 1453.12 L876.024 1477.12 L900.024 1477.12 L888.024 1453.12 Z" fill="#008000" fill-rule="evenodd" fill-opacity="1" stroke="none"/>
<path clip-path="url(#clip861)" d="M931.838 1447.62 L919.838 1471.62 L943.838 1471.62 L931.838 1447.62 Z" fill="#008000" fill-rule="evenodd" fill-opacity="1" stroke="none"/>
<path clip-path="url(#clip861)" d="M975.652 1437.38 L963.652 1461.38 L987.652 1461.38 L975.652 1437.38 Z" fill="#008000" fill-rule="evenodd" fill-opacity="1" stroke="none"/>
<path clip-path="url(#clip861)" d="M1019.47 1416.73 L1007.47 1440.73 L1031.47 1440.73 L1019.47 1416.73 Z" fill="#008000" fill-rule="evenodd" fill-opacity="1" stroke="none"/>
<path clip-path="url(#clip861)" d="M1063.28 1375.32 L1051.28 1399.32 L1075.28 1399.32 L1063.28 1375.32 Z" fill="#008000" fill-rule="evenodd" fill-opacity="1" stroke="none"/>
<path clip-path="url(#clip861)" d="M1107.09 1299.38 L1095.09 1323.38 L1119.09 1323.38 L1107.09 1299.38 Z" fill="#008000" fill-rule="evenodd" fill-opacity="1" stroke="none"/>
<path clip-path="url(#clip861)" d="M1150.91 1194.02 L1138.91 1218.02 L1162.91 1218.02 L1150.91 1194.02 Z" fill="#008000" fill-rule="evenodd" fill-opacity="1" stroke="none"/>
<path clip-path="url(#clip861)" d="M1194.72 1085.25 L1182.72 1109.25 L1206.72 1109.25 L1194.72 1085.25 Z" fill="#008000" fill-rule="evenodd" fill-opacity="1" stroke="none"/>
<path clip-path="url(#clip861)" d="M1238.54 1007.19 L1226.54 1031.19 L1250.54 1031.19 L1238.54 1007.19 Z" fill="#008000" fill-rule="evenodd" fill-opacity="1" stroke="none"/>
<path clip-path="url(#clip861)" d="M1282.35 941.924 L1270.35 965.924 L1294.35 965.924 L1282.35 941.924 Z" fill="#008000" fill-rule="evenodd" fill-opacity="1" stroke="none"/>
<path clip-path="url(#clip861)" d="M1326.17 904.466 L1314.17 928.466 L1338.17 928.466 L1326.17 904.466 Z" fill="#008000" fill-rule="evenodd" fill-opacity="1" stroke="none"/>
<path clip-path="url(#clip861)" d="M1369.98 887.714 L1357.98 911.714 L1381.98 911.714 L1369.98 887.714 Z" fill="#008000" fill-rule="evenodd" fill-opacity="1" stroke="none"/>
<path clip-path="url(#clip861)" d="M1413.79 892.955 L1401.79 916.955 L1425.79 916.955 L1413.79 892.955 Z" fill="#008000" fill-rule="evenodd" fill-opacity="1" stroke="none"/>
<path clip-path="url(#clip861)" d="M1457.61 914.284 L1445.61 938.284 L1469.61 938.284 L1457.61 914.284 Z" fill="#008000" fill-rule="evenodd" fill-opacity="1" stroke="none"/>
<path clip-path="url(#clip861)" d="M1501.42 948.243 L1489.42 972.243 L1513.42 972.243 L1501.42 948.243 Z" fill="#008000" fill-rule="evenodd" fill-opacity="1" stroke="none"/>
<path clip-path="url(#clip861)" d="M1545.24 991.8 L1533.24 1015.8 L1557.24 1015.8 L1545.24 991.8 Z" fill="#008000" fill-rule="evenodd" fill-opacity="1" stroke="none"/>
<path clip-path="url(#clip861)" d="M1589.05 1040.77 L1577.05 1064.77 L1601.05 1064.77 L1589.05 1040.77 Z" fill="#008000" fill-rule="evenodd" fill-opacity="1" stroke="none"/>
<path clip-path="url(#clip861)" d="M1632.87 1087.98 L1620.87 1111.98 L1644.87 1111.98 L1632.87 1087.98 Z" fill="#008000" fill-rule="evenodd" fill-opacity="1" stroke="none"/>
<path clip-path="url(#clip861)" d="M1676.68 1132.64 L1664.68 1156.64 L1688.68 1156.64 L1676.68 1132.64 Z" fill="#008000" fill-rule="evenodd" fill-opacity="1" stroke="none"/>
<path clip-path="url(#clip861)" d="M1720.49 1174.1 L1708.49 1198.1 L1732.49 1198.1 L1720.49 1174.1 Z" fill="#008000" fill-rule="evenodd" fill-opacity="1" stroke="none"/>
<path clip-path="url(#clip861)" d="M1764.31 1211.94 L1752.31 1235.94 L1776.31 1235.94 L1764.31 1211.94 Z" fill="#008000" fill-rule="evenodd" fill-opacity="1" stroke="none"/>
<path clip-path="url(#clip861)" d="M1808.12 1245.99 L1796.12 1269.99 L1820.12 1269.99 L1808.12 1245.99 Z" fill="#008000" fill-rule="evenodd" fill-opacity="1" stroke="none"/>
<path clip-path="url(#clip861)" d="M1851.94 1276.25 L1839.94 1300.25 L1863.94 1300.25 L1851.94 1276.25 Z" fill="#008000" fill-rule="evenodd" fill-opacity="1" stroke="none"/>
<path clip-path="url(#clip861)" d="M1895.75 1302.89 L1883.75 1326.89 L1907.75 1326.89 L1895.75 1302.89 Z" fill="#008000" fill-rule="evenodd" fill-opacity="1" stroke="none"/>
<path clip-path="url(#clip861)" d="M1939.56 1325.51 L1927.56 1349.51 L1951.56 1349.51 L1939.56 1325.51 Z" fill="#008000" fill-rule="evenodd" fill-opacity="1" stroke="none"/>
<path clip-path="url(#clip861)" d="M1983.38 1344.74 L1971.38 1368.74 L1995.38 1368.74 L1983.38 1344.74 Z" fill="#008000" fill-rule="evenodd" fill-opacity="1" stroke="none"/>
<path clip-path="url(#clip861)" d="M2027.19 1361.13 L2015.19 1385.13 L2039.19 1385.13 L2027.19 1361.13 Z" fill="#008000" fill-rule="evenodd" fill-opacity="1" stroke="none"/>
<path clip-path="url(#clip861)" d="M2071.01 1375.13 L2059.01 1399.13 L2083.01 1399.13 L2071.01 1375.13 Z" fill="#008000" fill-rule="evenodd" fill-opacity="1" stroke="none"/>
<path clip-path="url(#clip861)" d="M2114.82 1387.09 L2102.82 1411.09 L2126.82 1411.09 L2114.82 1387.09 Z" fill="#008000" fill-rule="evenodd" fill-opacity="1" stroke="none"/>
<path clip-path="url(#clip861)" d="M2158.64 1397.33 L2146.64 1421.33 L2170.64 1421.33 L2158.64 1397.33 Z" fill="#008000" fill-rule="evenodd" fill-opacity="1" stroke="none"/>
<path clip-path="url(#clip861)" d="M2202.45 1406.02 L2190.45 1430.02 L2214.45 1430.02 L2202.45 1406.02 Z" fill="#008000" fill-rule="evenodd" fill-opacity="1" stroke="none"/>
<path clip-path="url(#clip861)" d="M2246.26 1413.41 L2234.26 1437.41 L2258.26 1437.41 L2246.26 1413.41 Z" fill="#008000" fill-rule="evenodd" fill-opacity="1" stroke="none"/>
<path clip-path="url(#clip861)" d="M2290.08 1419.58 L2278.08 1443.58 L2302.08 1443.58 L2290.08 1419.58 Z" fill="#008000" fill-rule="evenodd" fill-opacity="1" stroke="none"/>
<path clip-path="url(#clip861)" d="M2333.89 1424.35 L2321.89 1448.35 L2345.89 1448.35 L2333.89 1424.35 Z" fill="#008000" fill-rule="evenodd" fill-opacity="1" stroke="none"/>
<path clip-path="url(#clip861)" d="M2377.71 1427.42 L2365.71 1451.42 L2389.71 1451.42 L2377.71 1427.42 Z" fill="#008000" fill-rule="evenodd" fill-opacity="1" stroke="none"/>
<path clip-path="url(#clip861)" d="M2421.52 1428.49 L2409.52 1452.49 L2433.52 1452.49 L2421.52 1428.49 Z" fill="#008000" fill-rule="evenodd" fill-opacity="1" stroke="none"/>
<path clip-path="url(#clip861)" d="M2465.33 1427.05 L2453.33 1451.05 L2477.33 1451.05 L2465.33 1427.05 Z" fill="#008000" fill-rule="evenodd" fill-opacity="1" stroke="none"/>
<path clip-path="url(#clip861)" d="M2509.15 1421.63 L2497.15 1445.63 L2521.15 1445.63 L2509.15 1421.63 Z" fill="#008000" fill-rule="evenodd" fill-opacity="1" stroke="none"/>
<path clip-path="url(#clip861)" d="M2552.96 1410.54 L2540.96 1434.54 L2564.96 1434.54 L2552.96 1410.54 Z" fill="#008000" fill-rule="evenodd" fill-opacity="1" stroke="none"/>
<path clip-path="url(#clip861)" d="M2596.78 1390.86 L2584.78 1414.86 L2608.78 1414.86 L2596.78 1390.86 Z" fill="#008000" fill-rule="evenodd" fill-opacity="1" stroke="none"/>
<path clip-path="url(#clip861)" d="M2640.59 1357.9 L2628.59 1381.9 L2652.59 1381.9 L2640.59 1357.9 Z" fill="#008000" fill-rule="evenodd" fill-opacity="1" stroke="none"/>
<path clip-path="url(#clip861)" d="M2684.41 1304.49 L2672.41 1328.49 L2696.41 1328.49 L2684.41 1304.49 Z" fill="#008000" fill-rule="evenodd" fill-opacity="1" stroke="none"/>
<path clip-path="url(#clip860)" d="M2243.18 371.223 L2672.25 371.223 L2672.25 163.863 L2243.18 163.863  Z" fill="#ffffff" fill-rule="evenodd" fill-opacity="1"/>
<polyline clip-path="url(#clip860)" style="stroke:#000000; stroke-linecap:round; stroke-linejoin:round; stroke-width:4; stroke-opacity:1; fill:none" points="2243.18,371.223 2672.25,371.223 2672.25,163.863 2243.18,163.863 2243.18,371.223 "/>
<polyline clip-path="url(#clip860)" style="stroke:#0000ff; stroke-linecap:round; stroke-linejoin:round; stroke-width:6; stroke-opacity:1; fill:none" points="2270.02,215.703 2431.02,215.703 "/>
<path clip-path="url(#clip860)" d="M2350.52 190.857 L2325.67 215.703 L2350.52 240.549 L2375.36 215.703 L2350.52 190.857 Z" fill="#0000ff" fill-rule="evenodd" fill-opacity="1" stroke="none"/>
<path clip-path="url(#clip860)" d="M2457.85 198.423 L2479.7 198.423 L2479.7 202.358 L2462.53 202.358 L2462.53 212.59 L2478.99 212.59 L2478.99 216.525 L2462.53 216.525 L2462.53 229.048 L2480.12 229.048 L2480.12 232.983 L2457.85 232.983 L2457.85 198.423 Z" fill="#000000" fill-rule="nonzero" fill-opacity="1" /><path clip-path="url(#clip860)" d="M2504.68 219.719 Q2504.68 215.089 2502.76 212.543 Q2500.86 209.997 2497.41 209.997 Q2493.99 209.997 2492.07 212.543 Q2490.17 215.089 2490.17 219.719 Q2490.17 224.326 2492.07 226.872 Q2493.99 229.418 2497.41 229.418 Q2500.86 229.418 2502.76 226.872 Q2504.68 224.326 2504.68 219.719 M2508.94 229.765 Q2508.94 236.386 2506 239.603 Q2503.06 242.844 2497 242.844 Q2494.75 242.844 2492.76 242.497 Q2490.77 242.173 2488.89 241.478 L2488.89 237.335 Q2490.77 238.353 2492.6 238.839 Q2494.43 239.325 2496.32 239.325 Q2500.51 239.325 2502.6 237.126 Q2504.68 234.95 2504.68 230.529 L2504.68 228.423 Q2503.36 230.714 2501.3 231.849 Q2499.24 232.983 2496.37 232.983 Q2491.6 232.983 2488.69 229.349 Q2485.77 225.714 2485.77 219.719 Q2485.77 213.701 2488.69 210.066 Q2491.6 206.432 2496.37 206.432 Q2499.24 206.432 2501.3 207.566 Q2503.36 208.701 2504.68 210.992 L2504.68 207.057 L2508.94 207.057 L2508.94 229.765 Z" fill="#000000" fill-rule="nonzero" fill-opacity="1" /><path clip-path="url(#clip860)" d="M2534.77 219.719 Q2534.77 215.089 2532.85 212.543 Q2530.95 209.997 2527.5 209.997 Q2524.08 209.997 2522.16 212.543 Q2520.26 215.089 2520.26 219.719 Q2520.26 224.326 2522.16 226.872 Q2524.08 229.418 2527.5 229.418 Q2530.95 229.418 2532.85 226.872 Q2534.77 224.326 2534.77 219.719 M2539.03 229.765 Q2539.03 236.386 2536.09 239.603 Q2533.15 242.844 2527.09 242.844 Q2524.84 242.844 2522.85 242.497 Q2520.86 242.173 2518.99 241.478 L2518.99 237.335 Q2520.86 238.353 2522.69 238.839 Q2524.52 239.325 2526.42 239.325 Q2530.61 239.325 2532.69 237.126 Q2534.77 234.95 2534.77 230.529 L2534.77 228.423 Q2533.45 230.714 2531.39 231.849 Q2529.33 232.983 2526.46 232.983 Q2521.69 232.983 2518.78 229.349 Q2515.86 225.714 2515.86 219.719 Q2515.86 213.701 2518.78 210.066 Q2521.69 206.432 2526.46 206.432 Q2529.33 206.432 2531.39 207.566 Q2533.45 208.701 2534.77 210.992 L2534.77 207.057 L2539.03 207.057 L2539.03 229.765 Z" fill="#000000" fill-rule="nonzero" fill-opacity="1" /><path clip-path="url(#clip860)" d="M2564.33 207.821 L2564.33 211.849 Q2562.53 210.923 2560.58 210.46 Q2558.64 209.997 2556.56 209.997 Q2553.38 209.997 2551.79 210.969 Q2550.21 211.941 2550.21 213.886 Q2550.21 215.367 2551.35 216.224 Q2552.48 217.057 2555.91 217.821 L2557.37 218.145 Q2561.9 219.117 2563.8 220.9 Q2565.72 222.659 2565.72 225.83 Q2565.72 229.441 2562.85 231.548 Q2560 233.654 2555 233.654 Q2552.92 233.654 2550.65 233.238 Q2548.41 232.844 2545.91 232.034 L2545.91 227.636 Q2548.27 228.863 2550.56 229.488 Q2552.85 230.089 2555.1 230.089 Q2558.11 230.089 2559.73 229.071 Q2561.35 228.029 2561.35 226.154 Q2561.35 224.418 2560.17 223.492 Q2559.01 222.566 2555.05 221.71 L2553.57 221.363 Q2549.61 220.529 2547.85 218.816 Q2546.09 217.08 2546.09 214.071 Q2546.09 210.414 2548.69 208.423 Q2551.28 206.432 2556.05 206.432 Q2558.41 206.432 2560.49 206.779 Q2562.57 207.127 2564.33 207.821 Z" fill="#000000" fill-rule="nonzero" fill-opacity="1" /><polyline clip-path="url(#clip860)" style="stroke:#ff0000; stroke-linecap:round; stroke-linejoin:round; stroke-width:6; stroke-opacity:1; fill:none" points="2270.02,267.543 2431.02,267.543 "/>
<circle clip-path="url(#clip860)" cx="2350.52" cy="267.543" r="22.3615" fill="#ff0000" fill-rule="evenodd" fill-opacity="1" stroke="none"/>
<path clip-path="url(#clip860)" d="M2457.85 250.263 L2464.15 250.263 L2479.47 279.175 L2479.47 250.263 L2484.01 250.263 L2484.01 284.823 L2477.71 284.823 L2462.39 255.911 L2462.39 284.823 L2457.85 284.823 L2457.85 250.263 Z" fill="#000000" fill-rule="nonzero" fill-opacity="1" /><path clip-path="url(#clip860)" d="M2503.92 287.23 Q2502.11 291.86 2500.4 293.272 Q2498.69 294.684 2495.82 294.684 L2492.41 294.684 L2492.41 291.119 L2494.91 291.119 Q2496.67 291.119 2497.64 290.286 Q2498.62 289.453 2499.8 286.351 L2500.56 284.406 L2490.07 258.897 L2494.59 258.897 L2502.69 279.175 L2510.79 258.897 L2515.31 258.897 L2503.92 287.23 Z" fill="#000000" fill-rule="nonzero" fill-opacity="1" /><path clip-path="url(#clip860)" d="M2541.37 263.874 Q2542.97 261.004 2545.19 259.638 Q2547.41 258.272 2550.42 258.272 Q2554.47 258.272 2556.67 261.119 Q2558.87 263.943 2558.87 269.175 L2558.87 284.823 L2554.59 284.823 L2554.59 269.314 Q2554.59 265.587 2553.27 263.781 Q2551.95 261.976 2549.24 261.976 Q2545.93 261.976 2544.01 264.175 Q2542.09 266.374 2542.09 270.17 L2542.09 284.823 L2537.81 284.823 L2537.81 269.314 Q2537.81 265.564 2536.49 263.781 Q2535.17 261.976 2532.41 261.976 Q2529.15 261.976 2527.23 264.198 Q2525.31 266.397 2525.31 270.17 L2525.31 284.823 L2521.02 284.823 L2521.02 258.897 L2525.31 258.897 L2525.31 262.925 Q2526.76 260.541 2528.8 259.406 Q2530.84 258.272 2533.64 258.272 Q2536.46 258.272 2538.43 259.707 Q2540.42 261.142 2541.37 263.874 Z" fill="#000000" fill-rule="nonzero" fill-opacity="1" /><path clip-path="url(#clip860)" d="M2571.49 280.934 L2571.49 294.684 L2567.2 294.684 L2567.2 258.897 L2571.49 258.897 L2571.49 262.832 Q2572.83 260.517 2574.87 259.406 Q2576.93 258.272 2579.77 258.272 Q2584.5 258.272 2587.44 262.022 Q2590.4 265.772 2590.4 271.883 Q2590.4 277.994 2587.44 281.744 Q2584.5 285.494 2579.77 285.494 Q2576.93 285.494 2574.87 284.383 Q2572.83 283.249 2571.49 280.934 M2585.98 271.883 Q2585.98 267.184 2584.03 264.522 Q2582.11 261.837 2578.73 261.837 Q2575.35 261.837 2573.41 264.522 Q2571.49 267.184 2571.49 271.883 Q2571.49 276.582 2573.41 279.267 Q2575.35 281.929 2578.73 281.929 Q2582.11 281.929 2584.03 279.267 Q2585.98 276.582 2585.98 271.883 Z" fill="#000000" fill-rule="nonzero" fill-opacity="1" /><path clip-path="url(#clip860)" d="M2619.01 269.175 L2619.01 284.823 L2614.75 284.823 L2614.75 269.314 Q2614.75 265.633 2613.31 263.805 Q2611.88 261.976 2609.01 261.976 Q2605.56 261.976 2603.57 264.175 Q2601.58 266.374 2601.58 270.17 L2601.58 284.823 L2597.3 284.823 L2597.3 248.805 L2601.58 248.805 L2601.58 262.925 Q2603.11 260.587 2605.17 259.43 Q2607.25 258.272 2609.96 258.272 Q2614.43 258.272 2616.72 261.05 Q2619.01 263.805 2619.01 269.175 Z" fill="#000000" fill-rule="nonzero" fill-opacity="1" /><path clip-path="url(#clip860)" d="M2644.03 259.661 L2644.03 263.689 Q2642.23 262.763 2640.28 262.3 Q2638.34 261.837 2636.25 261.837 Q2633.08 261.837 2631.49 262.809 Q2629.91 263.781 2629.91 265.726 Q2629.91 267.207 2631.05 268.064 Q2632.18 268.897 2635.61 269.661 L2637.06 269.985 Q2641.6 270.957 2643.5 272.74 Q2645.42 274.499 2645.42 277.67 Q2645.42 281.281 2642.55 283.388 Q2639.7 285.494 2634.7 285.494 Q2632.62 285.494 2630.35 285.078 Q2628.11 284.684 2625.61 283.874 L2625.61 279.476 Q2627.97 280.703 2630.26 281.328 Q2632.55 281.929 2634.8 281.929 Q2637.81 281.929 2639.43 280.911 Q2641.05 279.869 2641.05 277.994 Q2641.05 276.258 2639.87 275.332 Q2638.71 274.406 2634.75 273.55 L2633.27 273.203 Q2629.31 272.369 2627.55 270.656 Q2625.79 268.92 2625.79 265.911 Q2625.79 262.254 2628.38 260.263 Q2630.98 258.272 2635.74 258.272 Q2638.11 258.272 2640.19 258.619 Q2642.27 258.967 2644.03 259.661 Z" fill="#000000" fill-rule="nonzero" fill-opacity="1" /><polyline clip-path="url(#clip860)" style="stroke:#008000; stroke-linecap:round; stroke-linejoin:round; stroke-width:6; stroke-opacity:1; fill:none" points="2270.02,319.383 2431.02,319.383 "/>
<path clip-path="url(#clip860)" d="M2350.52 294.537 L2325.67 344.229 L2375.36 344.229 L2350.52 294.537 Z" fill="#008000" fill-rule="evenodd" fill-opacity="1" stroke="none"/>
<path clip-path="url(#clip860)" d="M2473.69 306.709 L2467.34 323.908 L2480.05 323.908 L2473.69 306.709 M2471.05 302.103 L2476.35 302.103 L2489.52 336.663 L2484.66 336.663 L2481.51 327.797 L2465.93 327.797 L2462.78 336.663 L2457.85 336.663 L2471.05 302.103 Z" fill="#000000" fill-rule="nonzero" fill-opacity="1" /><path clip-path="url(#clip860)" d="M2510.61 314.672 L2510.61 300.645 L2514.87 300.645 L2514.87 336.663 L2510.61 336.663 L2510.61 332.774 Q2509.26 335.089 2507.2 336.223 Q2505.17 337.334 2502.3 337.334 Q2497.6 337.334 2494.63 333.584 Q2491.69 329.834 2491.69 323.723 Q2491.69 317.612 2494.63 313.862 Q2497.6 310.112 2502.3 310.112 Q2505.17 310.112 2507.2 311.246 Q2509.26 312.357 2510.61 314.672 M2496.09 323.723 Q2496.09 328.422 2498.01 331.107 Q2499.96 333.769 2503.34 333.769 Q2506.72 333.769 2508.66 331.107 Q2510.61 328.422 2510.61 323.723 Q2510.61 319.024 2508.66 316.362 Q2506.72 313.677 2503.34 313.677 Q2499.96 313.677 2498.01 316.362 Q2496.09 319.024 2496.09 323.723 Z" fill="#000000" fill-rule="nonzero" fill-opacity="1" /><path clip-path="url(#clip860)" d="M2523.2 326.431 L2523.2 310.737 L2527.46 310.737 L2527.46 326.269 Q2527.46 329.95 2528.89 331.802 Q2530.33 333.631 2533.2 333.631 Q2536.65 333.631 2538.64 331.431 Q2540.65 329.232 2540.65 325.436 L2540.65 310.737 L2544.91 310.737 L2544.91 336.663 L2540.65 336.663 L2540.65 332.681 Q2539.1 335.043 2537.04 336.2 Q2535 337.334 2532.3 337.334 Q2527.83 337.334 2525.51 334.556 Q2523.2 331.779 2523.2 326.431 M2533.92 310.112 L2533.92 310.112 Z" fill="#000000" fill-rule="nonzero" fill-opacity="1" /><path clip-path="url(#clip860)" d="M2553.69 300.645 L2557.94 300.645 L2557.94 336.663 L2553.69 336.663 L2553.69 300.645 Z" fill="#000000" fill-rule="nonzero" fill-opacity="1" /><path clip-path="url(#clip860)" d="M2571.07 303.376 L2571.07 310.737 L2579.84 310.737 L2579.84 314.047 L2571.07 314.047 L2571.07 328.121 Q2571.07 331.293 2571.93 332.195 Q2572.81 333.098 2575.47 333.098 L2579.84 333.098 L2579.84 336.663 L2575.47 336.663 Q2570.54 336.663 2568.66 334.834 Q2566.79 332.982 2566.79 328.121 L2566.79 314.047 L2563.66 314.047 L2563.66 310.737 L2566.79 310.737 L2566.79 303.376 L2571.07 303.376 Z" fill="#000000" fill-rule="nonzero" fill-opacity="1" /><path clip-path="url(#clip860)" d="M2601.97 311.501 L2601.97 315.529 Q2600.17 314.603 2598.22 314.14 Q2596.28 313.677 2594.19 313.677 Q2591.02 313.677 2589.43 314.649 Q2587.85 315.621 2587.85 317.566 Q2587.85 319.047 2588.99 319.904 Q2590.12 320.737 2593.55 321.501 L2595 321.825 Q2599.54 322.797 2601.44 324.58 Q2603.36 326.339 2603.36 329.51 Q2603.36 333.121 2600.49 335.228 Q2597.64 337.334 2592.64 337.334 Q2590.56 337.334 2588.29 336.918 Q2586.05 336.524 2583.55 335.714 L2583.55 331.316 Q2585.91 332.543 2588.2 333.168 Q2590.49 333.769 2592.74 333.769 Q2595.75 333.769 2597.37 332.751 Q2598.99 331.709 2598.99 329.834 Q2598.99 328.098 2597.81 327.172 Q2596.65 326.246 2592.69 325.39 L2591.21 325.043 Q2587.25 324.209 2585.49 322.496 Q2583.73 320.76 2583.73 317.751 Q2583.73 314.094 2586.32 312.103 Q2588.92 310.112 2593.69 310.112 Q2596.05 310.112 2598.13 310.459 Q2600.21 310.807 2601.97 311.501 Z" fill="#000000" fill-rule="nonzero" fill-opacity="1" /></svg>
