<?xml version="1.0" encoding="utf-8"?>
<svg xmlns="http://www.w3.org/2000/svg" xmlns:xlink="http://www.w3.org/1999/xlink" width="800" height="350" viewBox="0 0 3200 1400">
<defs>
  <clipPath id="clip740">
    <rect x="0" y="0" width="3200" height="1400"/>
  </clipPath>
</defs>
<path clip-path="url(#clip740)" d="M0 1400 L3200 1400 L3200 0 L0 0  Z" fill="#ffffff" fill-rule="evenodd" fill-opacity="1"/>
<defs>
  <clipPath id="clip741">
    <rect x="1818" y="102" width="1335" height="1152"/>
  </clipPath>
</defs>
<path clip-path="url(#clip740)" d="M240.86 1253.39 L1574.79 1253.39 L1574.79 102.682 L240.86 102.682  Z" fill="#ffffff" fill-rule="evenodd" fill-opacity="1"/>
<defs>
  <clipPath id="clip742">
    <rect x="240" y="102" width="1335" height="1152"/>
  </clipPath>
</defs>
<polyline clip-path="url(#clip742)" style="stroke:#000000; stroke-linecap:round; stroke-linejoin:round; stroke-width:2; stroke-opacity:0.1; fill:none" points="278.613,1253.39 278.613,102.682 "/>
<polyline clip-path="url(#clip742)" style="stroke:#000000; stroke-linecap:round; stroke-linejoin:round; stroke-width:2; stroke-opacity:0.1; fill:none" points="520.618,1253.39 520.618,102.682 "/>
<polyline clip-path="url(#clip742)" style="stroke:#000000; stroke-linecap:round; stroke-linejoin:round; stroke-width:2; stroke-opacity:0.1; fill:none" points="762.623,1253.39 762.623,102.682 "/>
<polyline clip-path="url(#clip742)" style="stroke:#000000; stroke-linecap:round; stroke-linejoin:round; stroke-width:2; stroke-opacity:0.1; fill:none" points="1004.63,1253.39 1004.63,102.682 "/>
<polyline clip-path="url(#clip742)" style="stroke:#000000; stroke-linecap:round; stroke-linejoin:round; stroke-width:2; stroke-opacity:0.1; fill:none" points="1246.63,1253.39 1246.63,102.682 "/>
<polyline clip-path="url(#clip742)" style="stroke:#000000; stroke-linecap:round; stroke-linejoin:round; stroke-width:2; stroke-opacity:0.1; fill:none" points="1488.64,1253.39 1488.64,102.682 "/>
<polyline clip-path="url(#clip742)" style="stroke:#000000; stroke-linecap:round; stroke-linejoin:round; stroke-width:2; stroke-opacity:0.1; fill:none" points="240.86,1109.56 1574.79,1109.56 "/>
<polyline clip-path="url(#clip742)" style="stroke:#000000; stroke-linecap:round; stroke-linejoin:round; stroke-width:2; stroke-opacity:0.1; fill:none" points="240.86,929.757 1574.79,929.757 "/>
<polyline clip-path="url(#clip742)" style="stroke:#000000; stroke-linecap:round; stroke-linejoin:round; stroke-width:2; stroke-opacity:0.1; fill:none" points="240.86,749.958 1574.79,749.958 "/>
<polyline clip-path="url(#clip742)" style="stroke:#000000; stroke-linecap:round; stroke-linejoin:round; stroke-width:2; stroke-opacity:0.1; fill:none" points="240.86,570.159 1574.79,570.159 "/>
<polyline clip-path="url(#clip742)" style="stroke:#000000; stroke-linecap:round; stroke-linejoin:round; stroke-width:2; stroke-opacity:0.1; fill:none" points="240.86,390.36 1574.79,390.36 "/>
<polyline clip-path="url(#clip742)" style="stroke:#000000; stroke-linecap:round; stroke-linejoin:round; stroke-width:2; stroke-opacity:0.1; fill:none" points="240.86,210.561 1574.79,210.561 "/>
<polyline clip-path="url(#clip740)" style="stroke:#000000; stroke-linecap:round; stroke-linejoin:round; stroke-width:4; stroke-opacity:1; fill:none" points="240.86,1253.39 1574.79,1253.39 "/>
<polyline clip-path="url(#clip740)" style="stroke:#000000; stroke-linecap:round; stroke-linejoin:round; stroke-width:4; stroke-opacity:1; fill:none" points="278.613,1253.39 278.613,1234.5 "/>
<polyline clip-path="url(#clip740)" style="stroke:#000000; stroke-linecap:round; stroke-linejoin:round; stroke-width:4; stroke-opacity:1; fill:none" points="520.618,1253.39 520.618,1234.5 "/>
<polyline clip-path="url(#clip740)" style="stroke:#000000; stroke-linecap:round; stroke-linejoin:round; stroke-width:4; stroke-opacity:1; fill:none" points="762.623,1253.39 762.623,1234.5 "/>
<polyline clip-path="url(#clip740)" style="stroke:#000000; stroke-linecap:round; stroke-linejoin:round; stroke-width:4; stroke-opacity:1; fill:none" points="1004.63,1253.39 1004.63,1234.5 "/>
<polyline clip-path="url(#clip740)" style="stroke:#000000; stroke-linecap:round; stroke-linejoin:round; stroke-width:4; stroke-opacity:1; fill:none" points="1246.63,1253.39 1246.63,1234.5 "/>
<polyline clip-path="url(#clip740)" style="stroke:#000000; stroke-linecap:round; stroke-linejoin:round; stroke-width:4; stroke-opacity:1; fill:none" points="1488.64,1253.39 1488.64,1234.5 "/>
<path clip-path="url(#clip740)" d="M278.613 1290.71 Q275.002 1290.71 273.173 1294.28 Q271.367 1297.82 271.367 1304.95 Q271.367 1312.06 273.173 1315.62 Q275.002 1319.16 278.613 1319.16 Q282.247 1319.16 284.052 1315.62 Q285.881 1312.06 285.881 1304.95 Q285.881 1297.82 284.052 1294.28 Q282.247 1290.71 278.613 1290.71 M278.613 1287.01 Q284.423 1287.01 287.478 1291.62 Q290.557 1296.2 290.557 1304.95 Q290.557 1313.68 287.478 1318.28 Q284.423 1322.87 278.613 1322.87 Q272.802 1322.87 269.724 1318.28 Q266.668 1313.68 266.668 1304.95 Q266.668 1296.2 269.724 1291.62 Q272.802 1287.01 278.613 1287.01 Z" fill="#000000" fill-rule="nonzero" fill-opacity="1" /><path clip-path="url(#clip740)" d="M495.306 1318.26 L502.944 1318.26 L502.944 1291.89 L494.634 1293.56 L494.634 1289.3 L502.898 1287.63 L507.574 1287.63 L507.574 1318.26 L515.213 1318.26 L515.213 1322.19 L495.306 1322.19 L495.306 1318.26 Z" fill="#000000" fill-rule="nonzero" fill-opacity="1" /><path clip-path="url(#clip740)" d="M534.657 1290.71 Q531.046 1290.71 529.217 1294.28 Q527.412 1297.82 527.412 1304.95 Q527.412 1312.06 529.217 1315.62 Q531.046 1319.16 534.657 1319.16 Q538.291 1319.16 540.097 1315.62 Q541.926 1312.06 541.926 1304.95 Q541.926 1297.82 540.097 1294.28 Q538.291 1290.71 534.657 1290.71 M534.657 1287.01 Q540.467 1287.01 543.523 1291.62 Q546.602 1296.2 546.602 1304.95 Q546.602 1313.68 543.523 1318.28 Q540.467 1322.87 534.657 1322.87 Q528.847 1322.87 525.768 1318.28 Q522.713 1313.68 522.713 1304.95 Q522.713 1296.2 525.768 1291.62 Q528.847 1287.01 534.657 1287.01 Z" fill="#000000" fill-rule="nonzero" fill-opacity="1" /><path clip-path="url(#clip740)" d="M741.396 1318.26 L757.716 1318.26 L757.716 1322.19 L735.771 1322.19 L735.771 1318.26 Q738.433 1315.51 743.017 1310.88 Q747.623 1306.22 748.804 1304.88 Q751.049 1302.36 751.929 1300.62 Q752.832 1298.86 752.832 1297.17 Q752.832 1294.42 750.887 1292.68 Q748.966 1290.95 745.864 1290.95 Q743.665 1290.95 741.211 1291.71 Q738.781 1292.47 736.003 1294.02 L736.003 1289.3 Q738.827 1288.17 741.281 1287.59 Q743.734 1287.01 745.771 1287.01 Q751.142 1287.01 754.336 1289.7 Q757.531 1292.38 757.531 1296.87 Q757.531 1299 756.72 1300.92 Q755.933 1302.82 753.827 1305.41 Q753.248 1306.08 750.146 1309.3 Q747.045 1312.5 741.396 1318.26 Z" fill="#000000" fill-rule="nonzero" fill-opacity="1" /><path clip-path="url(#clip740)" d="M777.53 1290.71 Q773.919 1290.71 772.091 1294.28 Q770.285 1297.82 770.285 1304.95 Q770.285 1312.06 772.091 1315.62 Q773.919 1319.16 777.53 1319.16 Q781.165 1319.16 782.97 1315.62 Q784.799 1312.06 784.799 1304.95 Q784.799 1297.82 782.97 1294.28 Q781.165 1290.71 777.53 1290.71 M777.53 1287.01 Q783.341 1287.01 786.396 1291.62 Q789.475 1296.2 789.475 1304.95 Q789.475 1313.68 786.396 1318.28 Q783.341 1322.87 777.53 1322.87 Q771.72 1322.87 768.642 1318.28 Q765.586 1313.68 765.586 1304.95 Q765.586 1296.2 768.642 1291.62 Q771.72 1287.01 777.53 1287.01 Z" fill="#000000" fill-rule="nonzero" fill-opacity="1" /><path clip-path="url(#clip740)" d="M993.471 1303.56 Q996.828 1304.28 998.703 1306.55 Q1000.6 1308.82 1000.6 1312.15 Q1000.6 1317.26 997.082 1320.07 Q993.564 1322.87 987.082 1322.87 Q984.906 1322.87 982.592 1322.43 Q980.3 1322.01 977.846 1321.15 L977.846 1316.64 Q979.791 1317.77 982.105 1318.35 Q984.42 1318.93 986.943 1318.93 Q991.341 1318.93 993.633 1317.19 Q995.948 1315.46 995.948 1312.15 Q995.948 1309.09 993.795 1307.38 Q991.666 1305.64 987.846 1305.64 L983.818 1305.64 L983.818 1301.8 L988.031 1301.8 Q991.48 1301.8 993.309 1300.44 Q995.138 1299.05 995.138 1296.45 Q995.138 1293.79 993.24 1292.38 Q991.365 1290.95 987.846 1290.95 Q985.925 1290.95 983.726 1291.36 Q981.527 1291.78 978.888 1292.66 L978.888 1288.49 Q981.55 1287.75 983.865 1287.38 Q986.203 1287.01 988.263 1287.01 Q993.587 1287.01 996.689 1289.44 Q999.79 1291.85 999.79 1295.97 Q999.79 1298.84 998.147 1300.83 Q996.503 1302.8 993.471 1303.56 Z" fill="#000000" fill-rule="nonzero" fill-opacity="1" /><path clip-path="url(#clip740)" d="M1019.47 1290.71 Q1015.86 1290.71 1014.03 1294.28 Q1012.22 1297.82 1012.22 1304.95 Q1012.22 1312.06 1014.03 1315.62 Q1015.86 1319.16 1019.47 1319.16 Q1023.1 1319.16 1024.91 1315.62 Q1026.73 1312.06 1026.73 1304.95 Q1026.73 1297.82 1024.91 1294.28 Q1023.1 1290.71 1019.47 1290.71 M1019.47 1287.01 Q1025.28 1287.01 1028.33 1291.62 Q1031.41 1296.2 1031.41 1304.95 Q1031.41 1313.68 1028.33 1318.28 Q1025.28 1322.87 1019.47 1322.87 Q1013.66 1322.87 1010.58 1318.28 Q1007.52 1313.68 1007.52 1304.95 Q1007.52 1296.2 1010.58 1291.62 Q1013.66 1287.01 1019.47 1287.01 Z" fill="#000000" fill-rule="nonzero" fill-opacity="1" /><path clip-path="url(#clip740)" d="M1234.81 1291.71 L1223 1310.16 L1234.81 1310.16 L1234.81 1291.71 M1233.58 1287.63 L1239.46 1287.63 L1239.46 1310.16 L1244.39 1310.16 L1244.39 1314.05 L1239.46 1314.05 L1239.46 1322.19 L1234.81 1322.19 L1234.81 1314.05 L1219.2 1314.05 L1219.2 1309.53 L1233.58 1287.63 Z" fill="#000000" fill-rule="nonzero" fill-opacity="1" /><path clip-path="url(#clip740)" d="M1262.12 1290.71 Q1258.51 1290.71 1256.68 1294.28 Q1254.87 1297.82 1254.87 1304.95 Q1254.87 1312.06 1256.68 1315.62 Q1258.51 1319.16 1262.12 1319.16 Q1265.75 1319.16 1267.56 1315.62 Q1269.39 1312.06 1269.39 1304.95 Q1269.39 1297.82 1267.56 1294.28 Q1265.75 1290.71 1262.12 1290.71 M1262.12 1287.01 Q1267.93 1287.01 1270.99 1291.62 Q1274.06 1296.2 1274.06 1304.95 Q1274.06 1313.68 1270.99 1318.28 Q1267.93 1322.87 1262.12 1322.87 Q1256.31 1322.87 1253.23 1318.28 Q1250.18 1313.68 1250.18 1304.95 Q1250.18 1296.2 1253.23 1291.62 Q1256.31 1287.01 1262.12 1287.01 Z" fill="#000000" fill-rule="nonzero" fill-opacity="1" /><path clip-path="url(#clip740)" d="M1463.34 1287.63 L1481.69 1287.63 L1481.69 1291.57 L1467.62 1291.57 L1467.62 1300.04 Q1468.64 1299.69 1469.66 1299.53 Q1470.68 1299.35 1471.69 1299.35 Q1477.48 1299.35 1480.86 1302.52 Q1484.24 1305.69 1484.24 1311.11 Q1484.24 1316.69 1480.77 1319.79 Q1477.3 1322.87 1470.98 1322.87 Q1468.8 1322.87 1466.53 1322.5 Q1464.29 1322.13 1461.88 1321.38 L1461.88 1316.69 Q1463.96 1317.82 1466.19 1318.38 Q1468.41 1318.93 1470.88 1318.93 Q1474.89 1318.93 1477.23 1316.82 Q1479.56 1314.72 1479.56 1311.11 Q1479.56 1307.5 1477.23 1305.39 Q1474.89 1303.28 1470.88 1303.28 Q1469.01 1303.28 1467.13 1303.7 Q1465.28 1304.12 1463.34 1305 L1463.34 1287.63 Z" fill="#000000" fill-rule="nonzero" fill-opacity="1" /><path clip-path="url(#clip740)" d="M1503.45 1290.71 Q1499.84 1290.71 1498.01 1294.28 Q1496.21 1297.82 1496.21 1304.95 Q1496.21 1312.06 1498.01 1315.62 Q1499.84 1319.16 1503.45 1319.16 Q1507.09 1319.16 1508.89 1315.62 Q1510.72 1312.06 1510.72 1304.95 Q1510.72 1297.82 1508.89 1294.28 Q1507.09 1290.71 1503.45 1290.71 M1503.45 1287.01 Q1509.26 1287.01 1512.32 1291.62 Q1515.4 1296.2 1515.4 1304.95 Q1515.4 1313.68 1512.32 1318.28 Q1509.26 1322.87 1503.45 1322.87 Q1497.64 1322.87 1494.56 1318.28 Q1491.51 1313.68 1491.51 1304.95 Q1491.51 1296.2 1494.56 1291.62 Q1497.64 1287.01 1503.45 1287.01 Z" fill="#000000" fill-rule="nonzero" fill-opacity="1" /><path clip-path="url(#clip740)" d="M819.709 1362.74 L826.202 1362.74 L836.196 1402.91 L846.159 1362.74 L853.384 1362.74 L863.378 1402.91 L873.34 1362.74 L879.865 1362.74 L867.929 1410.26 L859.845 1410.26 L849.819 1369.01 L839.697 1410.26 L831.613 1410.26 L819.709 1362.74 Z" fill="#000000" fill-rule="nonzero" fill-opacity="1" /><path clip-path="url(#clip740)" d="M914.813 1390.97 L914.813 1393.84 L887.886 1393.84 Q888.268 1399.88 891.514 1403.07 Q894.793 1406.22 900.617 1406.22 Q903.991 1406.22 907.142 1405.39 Q910.325 1404.56 913.444 1402.91 L913.444 1408.44 Q910.293 1409.78 906.983 1410.48 Q903.673 1411.18 900.267 1411.18 Q891.737 1411.18 886.74 1406.22 Q881.775 1401.25 881.775 1392.78 Q881.775 1384.03 886.485 1378.91 Q891.228 1373.75 899.249 1373.75 Q906.442 1373.75 910.611 1378.4 Q914.813 1383.01 914.813 1390.97 M908.956 1389.25 Q908.893 1384.45 906.251 1381.58 Q903.641 1378.72 899.312 1378.72 Q894.411 1378.72 891.451 1381.49 Q888.522 1384.25 888.077 1389.28 L908.956 1389.25 Z" fill="#000000" fill-rule="nonzero" fill-opacity="1" /><path clip-path="url(#clip740)" d="M954.917 1390.97 L954.917 1393.84 L927.99 1393.84 Q928.372 1399.88 931.618 1403.07 Q934.896 1406.22 940.721 1406.22 Q944.095 1406.22 947.246 1405.39 Q950.429 1404.56 953.548 1402.91 L953.548 1408.44 Q950.397 1409.78 947.087 1410.48 Q943.777 1411.18 940.371 1411.18 Q931.841 1411.18 926.844 1406.22 Q921.879 1401.25 921.879 1392.78 Q921.879 1384.03 926.589 1378.91 Q931.332 1373.75 939.352 1373.75 Q946.546 1373.75 950.715 1378.4 Q954.917 1383.01 954.917 1390.97 M949.06 1389.25 Q948.997 1384.45 946.355 1381.58 Q943.745 1378.72 939.416 1378.72 Q934.515 1378.72 931.554 1381.49 Q928.626 1384.25 928.181 1389.28 L949.06 1389.25 Z" fill="#000000" fill-rule="nonzero" fill-opacity="1" /><path clip-path="url(#clip740)" d="M964.306 1360.73 L970.194 1360.73 L970.194 1389.98 L987.668 1374.61 L995.148 1374.61 L976.242 1391.29 L995.944 1410.26 L988.305 1410.26 L970.194 1392.85 L970.194 1410.26 L964.306 1410.26 L964.306 1360.73 Z" fill="#000000" fill-rule="nonzero" fill-opacity="1" /><polyline clip-path="url(#clip740)" style="stroke:#000000; stroke-linecap:round; stroke-linejoin:round; stroke-width:4; stroke-opacity:1; fill:none" points="240.86,1253.39 240.86,102.682 "/>
<polyline clip-path="url(#clip740)" style="stroke:#000000; stroke-linecap:round; stroke-linejoin:round; stroke-width:4; stroke-opacity:1; fill:none" points="240.86,1109.56 259.757,1109.56 "/>
<polyline clip-path="url(#clip740)" style="stroke:#000000; stroke-linecap:round; stroke-linejoin:round; stroke-width:4; stroke-opacity:1; fill:none" points="240.86,929.757 259.757,929.757 "/>
<polyline clip-path="url(#clip740)" style="stroke:#000000; stroke-linecap:round; stroke-linejoin:round; stroke-width:4; stroke-opacity:1; fill:none" points="240.86,749.958 259.757,749.958 "/>
<polyline clip-path="url(#clip740)" style="stroke:#000000; stroke-linecap:round; stroke-linejoin:round; stroke-width:4; stroke-opacity:1; fill:none" points="240.86,570.159 259.757,570.159 "/>
<polyline clip-path="url(#clip740)" style="stroke:#000000; stroke-linecap:round; stroke-linejoin:round; stroke-width:4; stroke-opacity:1; fill:none" points="240.86,390.36 259.757,390.36 "/>
<polyline clip-path="url(#clip740)" style="stroke:#000000; stroke-linecap:round; stroke-linejoin:round; stroke-width:4; stroke-opacity:1; fill:none" points="240.86,210.561 259.757,210.561 "/>
<path clip-path="url(#clip740)" d="M99.5501 1122.9 L115.869 1122.9 L115.869 1126.84 L93.9252 1126.84 L93.9252 1122.9 Q96.5872 1120.15 101.17 1115.52 Q105.777 1110.86 106.957 1109.52 Q109.203 1107 110.082 1105.26 Q110.985 1103.5 110.985 1101.81 Q110.985 1099.06 109.041 1097.32 Q107.12 1095.59 104.018 1095.59 Q101.819 1095.59 99.3649 1096.35 Q96.9344 1097.11 94.1566 1098.66 L94.1566 1093.94 Q96.9807 1092.81 99.4344 1092.23 Q101.888 1091.65 103.925 1091.65 Q109.295 1091.65 112.49 1094.34 Q115.684 1097.02 115.684 1101.51 Q115.684 1103.64 114.874 1105.56 Q114.087 1107.46 111.981 1110.05 Q111.402 1110.72 108.3 1113.94 Q105.198 1117.14 99.5501 1122.9 Z" fill="#000000" fill-rule="nonzero" fill-opacity="1" /><path clip-path="url(#clip740)" d="M125.731 1092.28 L144.087 1092.28 L144.087 1096.21 L130.013 1096.21 L130.013 1104.68 Q131.031 1104.34 132.05 1104.17 Q133.068 1103.99 134.087 1103.99 Q139.874 1103.99 143.254 1107.16 Q146.633 1110.33 146.633 1115.75 Q146.633 1121.33 143.161 1124.43 Q139.689 1127.51 133.369 1127.51 Q131.193 1127.51 128.925 1127.14 Q126.68 1126.77 124.272 1126.03 L124.272 1121.33 Q126.356 1122.46 128.578 1123.02 Q130.8 1123.57 133.277 1123.57 Q137.281 1123.57 139.619 1121.47 Q141.957 1119.36 141.957 1115.75 Q141.957 1112.14 139.619 1110.03 Q137.281 1107.92 133.277 1107.92 Q131.402 1107.92 129.527 1108.34 Q127.675 1108.76 125.731 1109.64 L125.731 1092.28 Z" fill="#000000" fill-rule="nonzero" fill-opacity="1" /><path clip-path="url(#clip740)" d="M155.846 1120.96 L160.73 1120.96 L160.73 1126.84 L155.846 1126.84 L155.846 1120.96 Z" fill="#000000" fill-rule="nonzero" fill-opacity="1" /><path clip-path="url(#clip740)" d="M180.915 1095.35 Q177.304 1095.35 175.476 1098.92 Q173.67 1102.46 173.67 1109.59 Q173.67 1116.7 175.476 1120.26 Q177.304 1123.8 180.915 1123.8 Q184.55 1123.8 186.355 1120.26 Q188.184 1116.7 188.184 1109.59 Q188.184 1102.46 186.355 1098.92 Q184.55 1095.35 180.915 1095.35 M180.915 1091.65 Q186.726 1091.65 189.781 1096.26 Q192.86 1100.84 192.86 1109.59 Q192.86 1118.32 189.781 1122.92 Q186.726 1127.51 180.915 1127.51 Q175.105 1127.51 172.027 1122.92 Q168.971 1118.32 168.971 1109.59 Q168.971 1100.84 172.027 1096.26 Q175.105 1091.65 180.915 1091.65 Z" fill="#000000" fill-rule="nonzero" fill-opacity="1" /><path clip-path="url(#clip740)" d="M100.545 943.102 L116.865 943.102 L116.865 947.037 L94.9205 947.037 L94.9205 943.102 Q97.5825 940.347 102.166 935.718 Q106.772 931.065 107.953 929.722 Q110.198 927.199 111.078 925.463 Q111.981 923.704 111.981 922.014 Q111.981 919.259 110.036 917.523 Q108.115 915.787 105.013 915.787 Q102.814 915.787 100.36 916.551 Q97.9298 917.315 95.152 918.866 L95.152 914.144 Q97.9761 913.009 100.43 912.431 Q102.883 911.852 104.92 911.852 Q110.291 911.852 113.485 914.537 Q116.68 917.222 116.68 921.713 Q116.68 923.843 115.869 925.764 Q115.082 927.662 112.976 930.255 Q112.397 930.926 109.295 934.143 Q106.194 937.338 100.545 943.102 Z" fill="#000000" fill-rule="nonzero" fill-opacity="1" /><path clip-path="url(#clip740)" d="M125.499 912.477 L147.721 912.477 L147.721 914.468 L135.175 947.037 L130.291 947.037 L142.096 916.412 L125.499 916.412 L125.499 912.477 Z" fill="#000000" fill-rule="nonzero" fill-opacity="1" /><path clip-path="url(#clip740)" d="M156.841 941.157 L161.726 941.157 L161.726 947.037 L156.841 947.037 L156.841 941.157 Z" fill="#000000" fill-rule="nonzero" fill-opacity="1" /><path clip-path="url(#clip740)" d="M171.957 912.477 L190.314 912.477 L190.314 916.412 L176.24 916.412 L176.24 924.884 Q177.258 924.537 178.277 924.375 Q179.295 924.19 180.314 924.19 Q186.101 924.19 189.48 927.361 Q192.86 930.532 192.86 935.949 Q192.86 941.528 189.388 944.629 Q185.915 947.708 179.596 947.708 Q177.42 947.708 175.152 947.338 Q172.906 946.967 170.499 946.227 L170.499 941.528 Q172.582 942.662 174.804 943.217 Q177.027 943.773 179.503 943.773 Q183.508 943.773 185.846 941.667 Q188.184 939.56 188.184 935.949 Q188.184 932.338 185.846 930.231 Q183.508 928.125 179.503 928.125 Q177.628 928.125 175.753 928.542 Q173.902 928.958 171.957 929.838 L171.957 912.477 Z" fill="#000000" fill-rule="nonzero" fill-opacity="1" /><path clip-path="url(#clip740)" d="M109.689 748.604 Q113.045 749.321 114.92 751.59 Q116.819 753.858 116.819 757.192 Q116.819 762.307 113.3 765.108 Q109.782 767.909 103.3 767.909 Q101.124 767.909 98.8094 767.47 Q96.5177 767.053 94.064 766.196 L94.064 761.683 Q96.0085 762.817 98.3233 763.395 Q100.638 763.974 103.161 763.974 Q107.559 763.974 109.851 762.238 Q112.166 760.502 112.166 757.192 Q112.166 754.136 110.013 752.423 Q107.883 750.687 104.064 750.687 L100.036 750.687 L100.036 746.845 L104.249 746.845 Q107.698 746.845 109.527 745.479 Q111.356 744.09 111.356 741.497 Q111.356 738.835 109.457 737.423 Q107.582 735.988 104.064 735.988 Q102.143 735.988 99.9436 736.405 Q97.7446 736.822 95.1057 737.701 L95.1057 733.535 Q97.7677 732.794 100.083 732.423 Q102.42 732.053 104.481 732.053 Q109.805 732.053 112.907 734.484 Q116.008 736.891 116.008 741.011 Q116.008 743.882 114.365 745.872 Q112.721 747.84 109.689 748.604 Z" fill="#000000" fill-rule="nonzero" fill-opacity="1" /><path clip-path="url(#clip740)" d="M135.684 735.757 Q132.073 735.757 130.244 739.322 Q128.439 742.863 128.439 749.993 Q128.439 757.099 130.244 760.664 Q132.073 764.206 135.684 764.206 Q139.318 764.206 141.124 760.664 Q142.953 757.099 142.953 749.993 Q142.953 742.863 141.124 739.322 Q139.318 735.757 135.684 735.757 M135.684 732.053 Q141.494 732.053 144.55 736.659 Q147.629 741.243 147.629 749.993 Q147.629 758.72 144.55 763.326 Q141.494 767.909 135.684 767.909 Q129.874 767.909 126.795 763.326 Q123.74 758.72 123.74 749.993 Q123.74 741.243 126.795 736.659 Q129.874 732.053 135.684 732.053 Z" fill="#000000" fill-rule="nonzero" fill-opacity="1" /><path clip-path="url(#clip740)" d="M155.846 761.358 L160.73 761.358 L160.73 767.238 L155.846 767.238 L155.846 761.358 Z" fill="#000000" fill-rule="nonzero" fill-opacity="1" /><path clip-path="url(#clip740)" d="M180.915 735.757 Q177.304 735.757 175.476 739.322 Q173.67 742.863 173.67 749.993 Q173.67 757.099 175.476 760.664 Q177.304 764.206 180.915 764.206 Q184.55 764.206 186.355 760.664 Q188.184 757.099 188.184 749.993 Q188.184 742.863 186.355 739.322 Q184.55 735.757 180.915 735.757 M180.915 732.053 Q186.726 732.053 189.781 736.659 Q192.86 741.243 192.86 749.993 Q192.86 758.72 189.781 763.326 Q186.726 767.909 180.915 767.909 Q175.105 767.909 172.027 763.326 Q168.971 758.72 168.971 749.993 Q168.971 741.243 172.027 736.659 Q175.105 732.053 180.915 732.053 Z" fill="#000000" fill-rule="nonzero" fill-opacity="1" /><path clip-path="url(#clip740)" d="M110.684 568.805 Q114.041 569.523 115.916 571.791 Q117.814 574.06 117.814 577.393 Q117.814 582.509 114.295 585.31 Q110.777 588.11 104.295 588.11 Q102.12 588.11 99.8048 587.671 Q97.5131 587.254 95.0594 586.398 L95.0594 581.884 Q97.0038 583.018 99.3186 583.597 Q101.633 584.175 104.157 584.175 Q108.555 584.175 110.846 582.439 Q113.161 580.703 113.161 577.393 Q113.161 574.337 111.008 572.624 Q108.879 570.888 105.059 570.888 L101.032 570.888 L101.032 567.046 L105.245 567.046 Q108.694 567.046 110.522 565.68 Q112.351 564.291 112.351 561.699 Q112.351 559.037 110.453 557.625 Q108.578 556.189 105.059 556.189 Q103.138 556.189 100.939 556.606 Q98.7399 557.023 96.1011 557.902 L96.1011 553.736 Q98.7631 552.995 101.078 552.625 Q103.416 552.254 105.476 552.254 Q110.8 552.254 113.902 554.685 Q117.004 557.092 117.004 561.212 Q117.004 564.083 115.36 566.074 Q113.717 568.041 110.684 568.805 Z" fill="#000000" fill-rule="nonzero" fill-opacity="1" /><path clip-path="url(#clip740)" d="M130.707 583.504 L147.027 583.504 L147.027 587.439 L125.082 587.439 L125.082 583.504 Q127.744 580.749 132.328 576.12 Q136.934 571.467 138.115 570.124 Q140.36 567.601 141.24 565.865 Q142.142 564.106 142.142 562.416 Q142.142 559.662 140.198 557.925 Q138.277 556.189 135.175 556.189 Q132.976 556.189 130.522 556.953 Q128.092 557.717 125.314 559.268 L125.314 554.546 Q128.138 553.412 130.592 552.833 Q133.045 552.254 135.082 552.254 Q140.453 552.254 143.647 554.939 Q146.842 557.625 146.842 562.115 Q146.842 564.245 146.031 566.166 Q145.244 568.064 143.138 570.657 Q142.559 571.328 139.457 574.546 Q136.355 577.74 130.707 583.504 Z" fill="#000000" fill-rule="nonzero" fill-opacity="1" /><path clip-path="url(#clip740)" d="M156.841 581.56 L161.726 581.56 L161.726 587.439 L156.841 587.439 L156.841 581.56 Z" fill="#000000" fill-rule="nonzero" fill-opacity="1" /><path clip-path="url(#clip740)" d="M171.957 552.879 L190.314 552.879 L190.314 556.814 L176.24 556.814 L176.24 565.287 Q177.258 564.939 178.277 564.777 Q179.295 564.592 180.314 564.592 Q186.101 564.592 189.48 567.763 Q192.86 570.935 192.86 576.351 Q192.86 581.93 189.388 585.032 Q185.915 588.11 179.596 588.11 Q177.42 588.11 175.152 587.74 Q172.906 587.37 170.499 586.629 L170.499 581.93 Q172.582 583.064 174.804 583.62 Q177.027 584.175 179.503 584.175 Q183.508 584.175 185.846 582.069 Q188.184 579.962 188.184 576.351 Q188.184 572.74 185.846 570.634 Q183.508 568.527 179.503 568.527 Q177.628 568.527 175.753 568.944 Q173.902 569.361 171.957 570.24 L171.957 552.879 Z" fill="#000000" fill-rule="nonzero" fill-opacity="1" /><path clip-path="url(#clip740)" d="M109.689 389.006 Q113.045 389.724 114.92 391.992 Q116.819 394.261 116.819 397.594 Q116.819 402.71 113.3 405.511 Q109.782 408.312 103.3 408.312 Q101.124 408.312 98.8094 407.872 Q96.5177 407.455 94.064 406.599 L94.064 402.085 Q96.0085 403.219 98.3233 403.798 Q100.638 404.376 103.161 404.376 Q107.559 404.376 109.851 402.64 Q112.166 400.904 112.166 397.594 Q112.166 394.539 110.013 392.826 Q107.883 391.089 104.064 391.089 L100.036 391.089 L100.036 387.247 L104.249 387.247 Q107.698 387.247 109.527 385.881 Q111.356 384.492 111.356 381.9 Q111.356 379.238 109.457 377.826 Q107.582 376.39 104.064 376.39 Q102.143 376.39 99.9436 376.807 Q97.7446 377.224 95.1057 378.103 L95.1057 373.937 Q97.7677 373.196 100.083 372.826 Q102.42 372.455 104.481 372.455 Q109.805 372.455 112.907 374.886 Q116.008 377.293 116.008 381.414 Q116.008 384.284 114.365 386.275 Q112.721 388.242 109.689 389.006 Z" fill="#000000" fill-rule="nonzero" fill-opacity="1" /><path clip-path="url(#clip740)" d="M125.731 373.08 L144.087 373.08 L144.087 377.015 L130.013 377.015 L130.013 385.488 Q131.031 385.14 132.05 384.978 Q133.068 384.793 134.087 384.793 Q139.874 384.793 143.254 387.964 Q146.633 391.136 146.633 396.552 Q146.633 402.131 143.161 405.233 Q139.689 408.312 133.369 408.312 Q131.193 408.312 128.925 407.941 Q126.68 407.571 124.272 406.83 L124.272 402.131 Q126.356 403.265 128.578 403.821 Q130.8 404.376 133.277 404.376 Q137.281 404.376 139.619 402.27 Q141.957 400.163 141.957 396.552 Q141.957 392.941 139.619 390.835 Q137.281 388.728 133.277 388.728 Q131.402 388.728 129.527 389.145 Q127.675 389.562 125.731 390.441 L125.731 373.08 Z" fill="#000000" fill-rule="nonzero" fill-opacity="1" /><path clip-path="url(#clip740)" d="M155.846 401.761 L160.73 401.761 L160.73 407.64 L155.846 407.64 L155.846 401.761 Z" fill="#000000" fill-rule="nonzero" fill-opacity="1" /><path clip-path="url(#clip740)" d="M180.915 376.159 Q177.304 376.159 175.476 379.724 Q173.67 383.265 173.67 390.395 Q173.67 397.501 175.476 401.066 Q177.304 404.608 180.915 404.608 Q184.55 404.608 186.355 401.066 Q188.184 397.501 188.184 390.395 Q188.184 383.265 186.355 379.724 Q184.55 376.159 180.915 376.159 M180.915 372.455 Q186.726 372.455 189.781 377.062 Q192.86 381.645 192.86 390.395 Q192.86 399.122 189.781 403.728 Q186.726 408.312 180.915 408.312 Q175.105 408.312 172.027 403.728 Q168.971 399.122 168.971 390.395 Q168.971 381.645 172.027 377.062 Q175.105 372.455 180.915 372.455 Z" fill="#000000" fill-rule="nonzero" fill-opacity="1" /><path clip-path="url(#clip740)" d="M110.684 209.207 Q114.041 209.925 115.916 212.193 Q117.814 214.462 117.814 217.795 Q117.814 222.911 114.295 225.712 Q110.777 228.513 104.295 228.513 Q102.12 228.513 99.8048 228.073 Q97.5131 227.656 95.0594 226.8 L95.0594 222.286 Q97.0038 223.42 99.3186 223.999 Q101.633 224.578 104.157 224.578 Q108.555 224.578 110.846 222.841 Q113.161 221.105 113.161 217.795 Q113.161 214.74 111.008 213.027 Q108.879 211.291 105.059 211.291 L101.032 211.291 L101.032 207.448 L105.245 207.448 Q108.694 207.448 110.522 206.082 Q112.351 204.693 112.351 202.101 Q112.351 199.439 110.453 198.027 Q108.578 196.592 105.059 196.592 Q103.138 196.592 100.939 197.008 Q98.7399 197.425 96.1011 198.305 L96.1011 194.138 Q98.7631 193.397 101.078 193.027 Q103.416 192.656 105.476 192.656 Q110.8 192.656 113.902 195.087 Q117.004 197.494 117.004 201.615 Q117.004 204.485 115.36 206.476 Q113.717 208.443 110.684 209.207 Z" fill="#000000" fill-rule="nonzero" fill-opacity="1" /><path clip-path="url(#clip740)" d="M125.499 193.281 L147.721 193.281 L147.721 195.272 L135.175 227.841 L130.291 227.841 L142.096 197.217 L125.499 197.217 L125.499 193.281 Z" fill="#000000" fill-rule="nonzero" fill-opacity="1" /><path clip-path="url(#clip740)" d="M156.841 221.962 L161.726 221.962 L161.726 227.841 L156.841 227.841 L156.841 221.962 Z" fill="#000000" fill-rule="nonzero" fill-opacity="1" /><path clip-path="url(#clip740)" d="M171.957 193.281 L190.314 193.281 L190.314 197.217 L176.24 197.217 L176.24 205.689 Q177.258 205.342 178.277 205.18 Q179.295 204.994 180.314 204.994 Q186.101 204.994 189.48 208.166 Q192.86 211.337 192.86 216.754 Q192.86 222.332 189.388 225.434 Q185.915 228.513 179.596 228.513 Q177.42 228.513 175.152 228.142 Q172.906 227.772 170.499 227.031 L170.499 222.332 Q172.582 223.466 174.804 224.022 Q177.027 224.578 179.503 224.578 Q183.508 224.578 185.846 222.471 Q188.184 220.365 188.184 216.754 Q188.184 213.142 185.846 211.036 Q183.508 208.93 179.503 208.93 Q177.628 208.93 175.753 209.346 Q173.902 209.763 171.957 210.642 L171.957 193.281 Z" fill="#000000" fill-rule="nonzero" fill-opacity="1" /><path clip-path="url(#clip740)" d="M-15.8508 956.634 L-15.8508 916.434 L-10.44 916.434 L-10.44 933.303 L31.6692 933.303 L31.6692 939.765 L-10.44 939.765 L-10.44 956.634 L-15.8508 956.634 Z" fill="#000000" fill-rule="nonzero" fill-opacity="1" /><path clip-path="url(#clip740)" d="M12.3811 891.067 L15.2456 891.067 L15.2456 917.994 Q21.2931 917.612 24.4759 914.365 Q27.6269 911.087 27.6269 905.262 Q27.6269 901.889 26.7994 898.738 Q25.9719 895.555 24.3168 892.435 L29.8549 892.435 Q31.1917 895.587 31.892 898.897 Q32.5922 902.207 32.5922 905.612 Q32.5922 914.143 27.6269 919.14 Q22.6617 924.105 14.1953 924.105 Q5.44245 924.105 0.318052 919.394 Q-4.83817 914.652 -4.83817 906.631 Q-4.83817 899.438 -0.191204 895.268 Q4.42393 891.067 12.3811 891.067 M10.6623 896.923 Q5.85622 896.987 2.99165 899.629 Q0.127081 902.239 0.127081 906.567 Q0.127081 911.469 2.89616 914.429 Q5.66525 917.357 10.6942 917.803 L10.6623 896.923 Z" fill="#000000" fill-rule="nonzero" fill-opacity="1" /><path clip-path="url(#clip740)" d="M2.86433 853.7 Q-1.0824 851.504 -2.96029 848.448 Q-4.83817 845.393 -4.83817 841.255 Q-4.83817 835.685 -0.92326 832.661 Q2.95982 829.638 10.1531 829.638 L31.6692 829.638 L31.6692 835.526 L10.344 835.526 Q5.21965 835.526 2.73702 837.34 Q0.254395 839.155 0.254395 842.878 Q0.254395 847.43 3.27811 850.072 Q6.30182 852.713 11.5217 852.713 L31.6692 852.713 L31.6692 858.602 L10.344 858.602 Q5.18782 858.602 2.73702 860.416 Q0.254395 862.23 0.254395 866.018 Q0.254395 870.506 3.30993 873.147 Q6.33365 875.789 11.5217 875.789 L31.6692 875.789 L31.6692 881.677 L-3.9788 881.677 L-3.9788 875.789 L1.55937 875.789 Q-1.71897 873.784 -3.27857 870.983 Q-4.83817 868.182 -4.83817 864.331 Q-4.83817 860.448 -2.8648 857.742 Q-0.891432 855.005 2.86433 853.7 Z" fill="#000000" fill-rule="nonzero" fill-opacity="1" /><path clip-path="url(#clip740)" d="M26.322 812.291 L45.2281 812.291 L45.2281 818.18 L-3.9788 818.18 L-3.9788 812.291 L1.43205 812.291 Q-1.7508 810.445 -3.27857 807.644 Q-4.83817 804.812 -4.83817 800.897 Q-4.83817 794.404 0.318052 790.361 Q5.47427 786.287 13.877 786.287 Q22.2797 786.287 27.436 790.361 Q32.5922 794.404 32.5922 800.897 Q32.5922 804.812 31.0644 807.644 Q29.5048 810.445 26.322 812.291 M13.877 792.367 Q7.41582 792.367 3.75553 795.04 Q0.0634241 797.682 0.0634241 802.329 Q0.0634241 806.976 3.75553 809.649 Q7.41582 812.291 13.877 812.291 Q20.3382 812.291 24.0303 809.649 Q27.6906 806.976 27.6906 802.329 Q27.6906 797.682 24.0303 795.04 Q20.3382 792.367 13.877 792.367 Z" fill="#000000" fill-rule="nonzero" fill-opacity="1" /><path clip-path="url(#clip740)" d="M12.3811 746.088 L15.2456 746.088 L15.2456 773.015 Q21.2931 772.633 24.4759 769.386 Q27.6269 766.108 27.6269 760.283 Q27.6269 756.91 26.7994 753.759 Q25.9719 750.576 24.3168 747.457 L29.8549 747.457 Q31.1917 750.608 31.892 753.918 Q32.5922 757.228 32.5922 760.634 Q32.5922 769.164 27.6269 774.161 Q22.6617 779.126 14.1953 779.126 Q5.44245 779.126 0.318052 774.415 Q-4.83817 769.673 -4.83817 761.652 Q-4.83817 754.459 -0.191204 750.289 Q4.42393 746.088 12.3811 746.088 M10.6623 751.944 Q5.85622 752.008 2.99165 754.65 Q0.127081 757.26 0.127081 761.588 Q0.127081 766.49 2.89616 769.45 Q5.66525 772.378 10.6942 772.824 L10.6623 751.944 Z" fill="#000000" fill-rule="nonzero" fill-opacity="1" /><path clip-path="url(#clip740)" d="M1.49571 715.819 Q0.922794 716.806 0.668166 717.983 Q0.381709 719.129 0.381709 720.53 Q0.381709 725.495 3.62822 728.168 Q6.8429 730.81 12.8903 730.81 L31.6692 730.81 L31.6692 736.698 L-3.9788 736.698 L-3.9788 730.81 L1.55937 730.81 Q-1.68715 728.964 -3.24674 726.004 Q-4.83817 723.044 -4.83817 718.811 Q-4.83817 718.206 -4.74268 717.474 Q-4.67903 716.742 -4.51988 715.851 L1.49571 715.819 Z" fill="#000000" fill-rule="nonzero" fill-opacity="1" /><path clip-path="url(#clip740)" d="M13.7497 693.475 Q13.7497 700.573 15.3729 703.31 Q16.9962 706.048 20.9111 706.048 Q24.0303 706.048 25.8764 704.011 Q27.6906 701.942 27.6906 698.409 Q27.6906 693.539 24.2531 690.611 Q20.7838 687.651 15.0547 687.651 L13.7497 687.651 L13.7497 693.475 M11.3307 681.794 L31.6692 681.794 L31.6692 687.651 L26.2583 687.651 Q29.5048 689.656 31.0644 692.648 Q32.5922 695.64 32.5922 699.968 Q32.5922 705.443 29.5366 708.689 Q26.4493 711.904 21.2931 711.904 Q15.2775 711.904 12.2219 707.894 Q9.16638 703.851 9.16638 695.862 L9.16638 687.651 L8.59347 687.651 Q4.55125 687.651 2.35508 690.324 Q0.127081 692.966 0.127081 697.772 Q0.127081 700.828 0.859137 703.724 Q1.59119 706.621 3.05531 709.294 L-2.35554 709.294 Q-3.59686 706.079 -4.2016 703.056 Q-4.83817 700.032 -4.83817 697.167 Q-4.83817 689.433 -0.827775 685.614 Q3.18262 681.794 11.3307 681.794 Z" fill="#000000" fill-rule="nonzero" fill-opacity="1" /><path clip-path="url(#clip740)" d="M-14.1003 663.938 L-3.9788 663.938 L-3.9788 651.875 L0.572681 651.875 L0.572681 663.938 L19.9244 663.938 Q24.2849 663.938 25.5263 662.761 Q26.7676 661.551 26.7676 657.891 L26.7676 651.875 L31.6692 651.875 L31.6692 657.891 Q31.6692 664.671 29.1547 667.249 Q26.6084 669.827 19.9244 669.827 L0.572681 669.827 L0.572681 674.124 L-3.9788 674.124 L-3.9788 669.827 L-14.1003 669.827 L-14.1003 663.938 Z" fill="#000000" fill-rule="nonzero" fill-opacity="1" /><path clip-path="url(#clip740)" d="M17.6009 644.778 L-3.9788 644.778 L-3.9788 638.921 L17.3781 638.921 Q22.4389 638.921 24.9852 636.948 Q27.4996 634.974 27.4996 631.028 Q27.4996 626.285 24.4759 623.548 Q21.4522 620.779 16.2323 620.779 L-3.9788 620.779 L-3.9788 614.923 L31.6692 614.923 L31.6692 620.779 L26.1946 620.779 Q29.4412 622.911 31.0326 625.744 Q32.5922 628.545 32.5922 632.269 Q32.5922 638.412 28.7728 641.595 Q24.9533 644.778 17.6009 644.778 M-4.83817 630.041 L-4.83817 630.041 Z" fill="#000000" fill-rule="nonzero" fill-opacity="1" /><path clip-path="url(#clip740)" d="M1.49571 582.203 Q0.922794 583.189 0.668166 584.367 Q0.381709 585.513 0.381709 586.913 Q0.381709 591.879 3.62822 594.552 Q6.8429 597.194 12.8903 597.194 L31.6692 597.194 L31.6692 603.082 L-3.9788 603.082 L-3.9788 597.194 L1.55937 597.194 Q-1.68715 595.348 -3.24674 592.388 Q-4.83817 589.428 -4.83817 585.195 Q-4.83817 584.59 -4.74268 583.858 Q-4.67903 583.126 -4.51988 582.235 L1.49571 582.203 Z" fill="#000000" fill-rule="nonzero" fill-opacity="1" /><path clip-path="url(#clip740)" d="M12.3811 547 L15.2456 547 L15.2456 573.927 Q21.2931 573.545 24.4759 570.299 Q27.6269 567.021 27.6269 561.196 Q27.6269 557.822 26.7994 554.671 Q25.9719 551.488 24.3168 548.369 L29.8549 548.369 Q31.1917 551.52 31.892 554.83 Q32.5922 558.14 32.5922 561.546 Q32.5922 570.076 27.6269 575.073 Q22.6617 580.038 14.1953 580.038 Q5.44245 580.038 0.318052 575.328 Q-4.83817 570.585 -4.83817 562.565 Q-4.83817 555.371 -0.191204 551.202 Q4.42393 547 12.3811 547 M10.6623 552.857 Q5.85622 552.921 2.99165 555.562 Q0.127081 558.172 0.127081 562.501 Q0.127081 567.403 2.89616 570.363 Q5.66525 573.291 10.6942 573.736 L10.6623 552.857 Z" fill="#000000" fill-rule="nonzero" fill-opacity="1" /><path clip-path="url(#clip740)" d="M-17.7924 502.6 Q-10.4718 506.865 -3.3104 508.933 Q3.85102 511.002 11.2034 511.002 Q18.5558 511.002 25.7809 508.933 Q32.9741 506.833 40.2629 502.6 L40.2629 507.692 Q32.7832 512.466 25.5581 514.854 Q18.333 517.209 11.2034 517.209 Q4.10565 517.209 -3.0876 514.854 Q-10.2808 512.498 -17.7924 507.692 L-17.7924 502.6 Z" fill="#000000" fill-rule="nonzero" fill-opacity="1" /><path clip-path="url(#clip740)" d="M-12.6043 481.084 Q-12.6043 483.63 -10.8219 485.38 Q-9.07136 487.131 -6.52508 487.131 Q-4.01063 487.131 -2.26006 485.38 Q-0.541318 483.63 -0.541318 481.084 Q-0.541318 478.537 -2.26006 476.787 Q-4.01063 475.036 -6.52508 475.036 Q-9.03954 475.036 -10.8219 476.818 Q-12.6043 478.569 -12.6043 481.084 M-16.7102 481.084 Q-16.7102 479.046 -15.9145 477.169 Q-15.1506 475.291 -13.6865 473.922 Q-12.2542 472.458 -10.44 471.726 Q-8.62577 470.994 -6.52508 470.994 Q-2.32372 470.994 0.604509 473.954 Q3.50091 476.882 3.50091 481.147 Q3.50091 485.444 0.636338 488.309 Q-2.22823 491.173 -6.52508 491.173 Q-10.7901 491.173 -13.7502 488.245 Q-16.7102 485.317 -16.7102 481.084 Z" fill="#000000" fill-rule="nonzero" fill-opacity="1" /><path clip-path="url(#clip740)" d="M-12.1906 422.805 L-5.41108 422.805 Q-8.43479 426.052 -9.93074 429.744 Q-11.4267 433.404 -11.4267 437.542 Q-11.4267 445.69 -6.4296 450.019 Q-1.46435 454.348 7.9569 454.348 Q17.3463 454.348 22.3434 450.019 Q27.3086 445.69 27.3086 437.542 Q27.3086 433.404 25.8127 429.744 Q24.3168 426.052 21.2931 422.805 L28.0089 422.805 Q30.3005 426.179 31.4464 429.967 Q32.5922 433.723 32.5922 437.924 Q32.5922 448.714 26.0037 454.92 Q19.3833 461.127 7.9569 461.127 Q-3.50137 461.127 -10.0899 454.92 Q-16.7102 448.714 -16.7102 437.924 Q-16.7102 433.659 -15.5644 429.903 Q-14.4504 426.116 -12.1906 422.805 Z" fill="#000000" fill-rule="nonzero" fill-opacity="1" /><path clip-path="url(#clip740)" d="M-17.7924 414.053 L-17.7924 408.96 Q-10.2808 404.186 -3.0876 401.83 Q4.10565 399.443 11.2034 399.443 Q18.333 399.443 25.5581 401.83 Q32.7832 404.186 40.2629 408.96 L40.2629 414.053 Q32.9741 409.819 25.7809 407.751 Q18.5558 405.65 11.2034 405.65 Q3.85102 405.65 -3.3104 407.751 Q-10.4718 409.819 -17.7924 414.053 Z" fill="#000000" fill-rule="nonzero" fill-opacity="1" /><path clip-path="url(#clip740)" d="M490.279 14.0809 L490.279 22.0612 Q485.621 19.8332 481.489 18.7395 Q477.357 17.6457 473.509 17.6457 Q466.825 17.6457 463.179 20.2383 Q459.574 22.8309 459.574 27.611 Q459.574 31.6214 461.964 33.6873 Q464.394 35.7128 471.119 36.9686 L476.061 37.9813 Q485.216 39.7232 489.55 44.1387 Q493.925 48.5136 493.925 55.8863 Q493.925 64.6767 488.011 69.2137 Q482.137 73.7508 470.754 73.7508 Q466.46 73.7508 461.599 72.7785 Q456.778 71.8063 451.593 69.9024 L451.593 61.4765 Q456.576 64.2716 461.356 65.6895 Q466.136 67.1073 470.754 67.1073 Q477.762 67.1073 481.57 64.3527 Q485.378 61.598 485.378 56.4939 Q485.378 52.0379 482.623 49.5264 Q479.909 47.0148 473.671 45.759 L468.688 44.7868 Q459.533 42.9639 455.442 39.075 Q451.35 35.1862 451.35 28.2591 Q451.35 20.2383 456.981 15.6203 Q462.652 11.0023 472.577 11.0023 Q476.83 11.0023 481.246 11.7719 Q485.661 12.5416 490.279 14.0809 Z" fill="#000000" fill-rule="nonzero" fill-opacity="1" /><path clip-path="url(#clip740)" d="M545.169 48.0275 L545.169 51.6733 L510.898 51.6733 Q511.385 59.3701 515.516 63.421 Q519.689 67.4314 527.102 67.4314 Q531.396 67.4314 535.406 66.3781 Q539.457 65.3249 543.427 63.2184 L543.427 70.267 Q539.417 71.9684 535.204 72.8596 Q530.991 73.7508 526.656 73.7508 Q515.8 73.7508 509.44 67.4314 Q503.121 61.1119 503.121 50.3365 Q503.121 39.1965 509.116 32.6746 Q515.152 26.1121 525.36 26.1121 Q534.515 26.1121 539.822 32.0264 Q545.169 37.9003 545.169 48.0275 M537.715 45.84 Q537.634 39.7232 534.272 36.0774 Q530.95 32.4315 525.441 32.4315 Q519.203 32.4315 515.435 35.9558 Q511.709 39.4801 511.142 45.8805 L537.715 45.84 Z" fill="#000000" fill-rule="nonzero" fill-opacity="1" /><path clip-path="url(#clip740)" d="M578.022 49.7694 Q568.988 49.7694 565.505 51.8354 Q562.021 53.9013 562.021 58.8839 Q562.021 62.8538 564.613 65.2034 Q567.247 67.5124 571.743 67.5124 Q577.941 67.5124 581.668 63.1374 Q585.435 58.7219 585.435 51.4303 L585.435 49.7694 L578.022 49.7694 M592.889 46.6907 L592.889 72.576 L585.435 72.576 L585.435 65.6895 Q582.883 69.8214 579.075 71.8063 Q575.267 73.7508 569.758 73.7508 Q562.791 73.7508 558.659 69.8619 Q554.567 65.9325 554.567 59.3701 Q554.567 51.7138 559.671 47.825 Q564.816 43.9361 574.984 43.9361 L585.435 43.9361 L585.435 43.2069 Q585.435 38.0623 582.032 35.2672 Q578.67 32.4315 572.553 32.4315 Q568.664 32.4315 564.978 33.3632 Q561.292 34.295 557.889 36.1584 L557.889 29.2718 Q561.98 27.692 565.829 26.9223 Q569.677 26.1121 573.323 26.1121 Q583.167 26.1121 588.028 31.2163 Q592.889 36.3204 592.889 46.6907 Z" fill="#000000" fill-rule="nonzero" fill-opacity="1" /><path clip-path="url(#clip740)" d="M637.165 28.5427 L637.165 35.5912 Q634.005 33.9709 630.603 33.1607 Q627.2 32.3505 623.554 32.3505 Q618.004 32.3505 615.209 34.0519 Q612.455 35.7533 612.455 39.156 Q612.455 41.7486 614.44 43.2475 Q616.425 44.7058 622.42 46.0426 L624.972 46.6097 Q632.912 48.3111 636.233 51.4303 Q639.596 54.509 639.596 60.0587 Q639.596 66.3781 634.573 70.0644 Q629.59 73.7508 620.84 73.7508 Q617.194 73.7508 613.224 73.0216 Q609.295 72.3329 604.92 70.9151 L604.92 63.2184 Q609.052 65.3654 613.062 66.4591 Q617.073 67.5124 621.002 67.5124 Q626.268 67.5124 629.104 65.73 Q631.939 63.9071 631.939 60.6258 Q631.939 57.5877 629.874 55.9673 Q627.848 54.3469 620.921 52.8481 L618.328 52.2405 Q611.401 50.7821 608.323 47.7845 Q605.244 44.7463 605.244 39.4801 Q605.244 33.0797 609.781 29.5959 Q614.318 26.1121 622.663 26.1121 Q626.795 26.1121 630.441 26.7198 Q634.086 27.3274 637.165 28.5427 Z" fill="#000000" fill-rule="nonzero" fill-opacity="1" /><path clip-path="url(#clip740)" d="M669.046 32.4315 Q663.05 32.4315 659.567 37.1306 Q656.083 41.7891 656.083 49.9314 Q656.083 58.0738 659.526 62.7728 Q663.01 67.4314 669.046 67.4314 Q675.001 67.4314 678.484 62.7323 Q681.968 58.0333 681.968 49.9314 Q681.968 41.8701 678.484 37.1711 Q675.001 32.4315 669.046 32.4315 M669.046 26.1121 Q678.768 26.1121 684.318 32.4315 Q689.867 38.7509 689.867 49.9314 Q689.867 61.0714 684.318 67.4314 Q678.768 73.7508 669.046 73.7508 Q659.283 73.7508 653.733 67.4314 Q648.224 61.0714 648.224 49.9314 Q648.224 38.7509 653.733 32.4315 Q659.283 26.1121 669.046 26.1121 Z" fill="#000000" fill-rule="nonzero" fill-opacity="1" /><path clip-path="url(#clip740)" d="M739.937 45.1919 L739.937 72.576 L732.483 72.576 L732.483 45.4349 Q732.483 38.994 729.971 35.7938 Q727.46 32.5936 722.437 32.5936 Q716.401 32.5936 712.917 36.4419 Q709.433 40.2903 709.433 46.9338 L709.433 72.576 L701.939 72.576 L701.939 27.2059 L709.433 27.2059 L709.433 34.2544 Q712.107 30.163 715.712 28.1376 Q719.358 26.1121 724.098 26.1121 Q731.916 26.1121 735.926 30.9732 Q739.937 35.7938 739.937 45.1919 Z" fill="#000000" fill-rule="nonzero" fill-opacity="1" /><path clip-path="url(#clip740)" d="M775.423 49.7694 Q766.389 49.7694 762.905 51.8354 Q759.421 53.9013 759.421 58.8839 Q759.421 62.8538 762.014 65.2034 Q764.647 67.5124 769.144 67.5124 Q775.341 67.5124 779.068 63.1374 Q782.836 58.7219 782.836 51.4303 L782.836 49.7694 L775.423 49.7694 M790.289 46.6907 L790.289 72.576 L782.836 72.576 L782.836 65.6895 Q780.284 69.8214 776.476 71.8063 Q772.668 73.7508 767.159 73.7508 Q760.191 73.7508 756.059 69.8619 Q751.968 65.9325 751.968 59.3701 Q751.968 51.7138 757.072 47.825 Q762.217 43.9361 772.384 43.9361 L782.836 43.9361 L782.836 43.2069 Q782.836 38.0623 779.433 35.2672 Q776.071 32.4315 769.954 32.4315 Q766.065 32.4315 762.379 33.3632 Q758.692 34.295 755.29 36.1584 L755.29 29.2718 Q759.381 27.692 763.229 26.9223 Q767.078 26.1121 770.723 26.1121 Q780.567 26.1121 785.428 31.2163 Q790.289 36.3204 790.289 46.6907 Z" fill="#000000" fill-rule="nonzero" fill-opacity="1" /><path clip-path="url(#clip740)" d="M805.642 9.54393 L813.096 9.54393 L813.096 72.576 L805.642 72.576 L805.642 9.54393 Z" fill="#000000" fill-rule="nonzero" fill-opacity="1" /><path clip-path="url(#clip740)" d="M862.436 14.324 L862.436 27.2059 L877.789 27.2059 L877.789 32.9987 L862.436 32.9987 L862.436 57.6282 Q862.436 63.1779 863.935 64.7578 Q865.474 66.3376 870.133 66.3376 L877.789 66.3376 L877.789 72.576 L870.133 72.576 Q861.504 72.576 858.223 69.3758 Q854.942 66.1351 854.942 57.6282 L854.942 32.9987 L849.473 32.9987 L849.473 27.2059 L854.942 27.2059 L854.942 14.324 L862.436 14.324 Z" fill="#000000" fill-rule="nonzero" fill-opacity="1" /><path clip-path="url(#clip740)" d="M926.4 48.0275 L926.4 51.6733 L892.129 51.6733 Q892.615 59.3701 896.747 63.421 Q900.92 67.4314 908.333 67.4314 Q912.627 67.4314 916.637 66.3781 Q920.688 65.3249 924.658 63.2184 L924.658 70.267 Q920.647 71.9684 916.434 72.8596 Q912.222 73.7508 907.887 73.7508 Q897.031 73.7508 890.671 67.4314 Q884.351 61.1119 884.351 50.3365 Q884.351 39.1965 890.347 32.6746 Q896.383 26.1121 906.591 26.1121 Q915.746 26.1121 921.053 32.0264 Q926.4 37.9003 926.4 48.0275 M918.946 45.84 Q918.865 39.7232 915.503 36.0774 Q912.181 32.4315 906.672 32.4315 Q900.433 32.4315 896.666 35.9558 Q892.939 39.4801 892.372 45.8805 L918.946 45.84 Z" fill="#000000" fill-rule="nonzero" fill-opacity="1" /><path clip-path="url(#clip740)" d="M973.957 35.9153 Q976.752 30.8922 980.641 28.5022 Q984.53 26.1121 989.796 26.1121 Q996.885 26.1121 1000.73 31.0947 Q1004.58 36.0368 1004.58 45.1919 L1004.58 72.576 L997.088 72.576 L997.088 45.4349 Q997.088 38.913 994.779 35.7533 Q992.47 32.5936 987.73 32.5936 Q981.938 32.5936 978.575 36.4419 Q975.213 40.2903 975.213 46.9338 L975.213 72.576 L967.719 72.576 L967.719 45.4349 Q967.719 38.8725 965.41 35.7533 Q963.101 32.5936 958.28 32.5936 Q952.569 32.5936 949.206 36.4824 Q945.844 40.3308 945.844 46.9338 L945.844 72.576 L938.35 72.576 L938.35 27.2059 L945.844 27.2059 L945.844 34.2544 Q948.396 30.082 951.961 28.0971 Q955.526 26.1121 960.427 26.1121 Q965.369 26.1121 968.813 28.6237 Q972.296 31.1352 973.957 35.9153 Z" fill="#000000" fill-rule="nonzero" fill-opacity="1" /><path clip-path="url(#clip740)" d="M1026.66 65.7705 L1026.66 89.8329 L1019.17 89.8329 L1019.17 27.2059 L1026.66 27.2059 L1026.66 34.0924 Q1029.01 30.0415 1032.57 28.0971 Q1036.18 26.1121 1041.16 26.1121 Q1049.43 26.1121 1054.57 32.6746 Q1059.76 39.2371 1059.76 49.9314 Q1059.76 60.6258 1054.57 67.1883 Q1049.43 73.7508 1041.16 73.7508 Q1036.18 73.7508 1032.57 71.8063 Q1029.01 69.8214 1026.66 65.7705 M1052.02 49.9314 Q1052.02 41.7081 1048.62 37.0496 Q1045.25 32.3505 1039.34 32.3505 Q1033.42 32.3505 1030.02 37.0496 Q1026.66 41.7081 1026.66 49.9314 Q1026.66 58.1548 1030.02 62.8538 Q1033.42 67.5124 1039.34 67.5124 Q1045.25 67.5124 1048.62 62.8538 Q1052.02 58.1548 1052.02 49.9314 Z" fill="#000000" fill-rule="nonzero" fill-opacity="1" /><path clip-path="url(#clip740)" d="M1110.92 48.0275 L1110.92 51.6733 L1076.65 51.6733 Q1077.13 59.3701 1081.27 63.421 Q1085.44 67.4314 1092.85 67.4314 Q1097.15 67.4314 1101.16 66.3781 Q1105.21 65.3249 1109.18 63.2184 L1109.18 70.267 Q1105.17 71.9684 1100.95 72.8596 Q1096.74 73.7508 1092.41 73.7508 Q1081.55 73.7508 1075.19 67.4314 Q1068.87 61.1119 1068.87 50.3365 Q1068.87 39.1965 1074.87 32.6746 Q1080.9 26.1121 1091.11 26.1121 Q1100.26 26.1121 1105.57 32.0264 Q1110.92 37.9003 1110.92 48.0275 M1103.46 45.84 Q1103.38 39.7232 1100.02 36.0774 Q1096.7 32.4315 1091.19 32.4315 Q1084.95 32.4315 1081.18 35.9558 Q1077.46 39.4801 1076.89 45.8805 L1103.46 45.84 Z" fill="#000000" fill-rule="nonzero" fill-opacity="1" /><path clip-path="url(#clip740)" d="M1149.44 34.1734 Q1148.19 33.4443 1146.69 33.1202 Q1145.23 32.7556 1143.45 32.7556 Q1137.13 32.7556 1133.72 36.8875 Q1130.36 40.9789 1130.36 48.6757 L1130.36 72.576 L1122.87 72.576 L1122.87 27.2059 L1130.36 27.2059 L1130.36 34.2544 Q1132.71 30.1225 1136.48 28.1376 Q1140.25 26.1121 1145.63 26.1121 Q1146.4 26.1121 1147.34 26.2337 Q1148.27 26.3147 1149.4 26.5172 L1149.44 34.1734 Z" fill="#000000" fill-rule="nonzero" fill-opacity="1" /><path clip-path="url(#clip740)" d="M1177.88 49.7694 Q1168.85 49.7694 1165.36 51.8354 Q1161.88 53.9013 1161.88 58.8839 Q1161.88 62.8538 1164.47 65.2034 Q1167.1 67.5124 1171.6 67.5124 Q1177.8 67.5124 1181.53 63.1374 Q1185.29 58.7219 1185.29 51.4303 L1185.29 49.7694 L1177.88 49.7694 M1192.75 46.6907 L1192.75 72.576 L1185.29 72.576 L1185.29 65.6895 Q1182.74 69.8214 1178.93 71.8063 Q1175.13 73.7508 1169.62 73.7508 Q1162.65 73.7508 1158.52 69.8619 Q1154.43 65.9325 1154.43 59.3701 Q1154.43 51.7138 1159.53 47.825 Q1164.67 43.9361 1174.84 43.9361 L1185.29 43.9361 L1185.29 43.2069 Q1185.29 38.0623 1181.89 35.2672 Q1178.53 32.4315 1172.41 32.4315 Q1168.52 32.4315 1164.84 33.3632 Q1161.15 34.295 1157.75 36.1584 L1157.75 29.2718 Q1161.84 27.692 1165.69 26.9223 Q1169.53 26.1121 1173.18 26.1121 Q1183.02 26.1121 1187.89 31.2163 Q1192.75 36.3204 1192.75 46.6907 Z" fill="#000000" fill-rule="nonzero" fill-opacity="1" /><path clip-path="url(#clip740)" d="M1215.47 14.324 L1215.47 27.2059 L1230.83 27.2059 L1230.83 32.9987 L1215.47 32.9987 L1215.47 57.6282 Q1215.47 63.1779 1216.97 64.7578 Q1218.51 66.3376 1223.17 66.3376 L1230.83 66.3376 L1230.83 72.576 L1223.17 72.576 Q1214.54 72.576 1211.26 69.3758 Q1207.98 66.1351 1207.98 57.6282 L1207.98 32.9987 L1202.51 32.9987 L1202.51 27.2059 L1207.98 27.2059 L1207.98 14.324 L1215.47 14.324 Z" fill="#000000" fill-rule="nonzero" fill-opacity="1" /><path clip-path="url(#clip740)" d="M1239.86 54.671 L1239.86 27.2059 L1247.31 27.2059 L1247.31 54.3874 Q1247.31 60.8284 1249.82 64.0691 Q1252.34 67.2693 1257.36 67.2693 Q1263.39 67.2693 1266.88 63.421 Q1270.4 59.5726 1270.4 52.9291 L1270.4 27.2059 L1277.86 27.2059 L1277.86 72.576 L1270.4 72.576 L1270.4 65.6084 Q1267.69 69.7404 1264.08 71.7658 Q1260.52 73.7508 1255.78 73.7508 Q1247.96 73.7508 1243.91 68.8897 Q1239.86 64.0286 1239.86 54.671 M1258.61 26.1121 L1258.61 26.1121 Z" fill="#000000" fill-rule="nonzero" fill-opacity="1" /><path clip-path="url(#clip740)" d="M1319.5 34.1734 Q1318.24 33.4443 1316.74 33.1202 Q1315.29 32.7556 1313.5 32.7556 Q1307.18 32.7556 1303.78 36.8875 Q1300.42 40.9789 1300.42 48.6757 L1300.42 72.576 L1292.93 72.576 L1292.93 27.2059 L1300.42 27.2059 L1300.42 34.2544 Q1302.77 30.1225 1306.54 28.1376 Q1310.3 26.1121 1315.69 26.1121 Q1316.46 26.1121 1317.39 26.2337 Q1318.32 26.3147 1319.46 26.5172 L1319.5 34.1734 Z" fill="#000000" fill-rule="nonzero" fill-opacity="1" /><path clip-path="url(#clip740)" d="M1364.3 48.0275 L1364.3 51.6733 L1330.03 51.6733 Q1330.52 59.3701 1334.65 63.421 Q1338.82 67.4314 1346.24 67.4314 Q1350.53 67.4314 1354.54 66.3781 Q1358.59 65.3249 1362.56 63.2184 L1362.56 70.267 Q1358.55 71.9684 1354.34 72.8596 Q1350.12 73.7508 1345.79 73.7508 Q1334.93 73.7508 1328.57 67.4314 Q1322.25 61.1119 1322.25 50.3365 Q1322.25 39.1965 1328.25 32.6746 Q1334.29 26.1121 1344.49 26.1121 Q1353.65 26.1121 1358.96 32.0264 Q1364.3 37.9003 1364.3 48.0275 M1356.85 45.84 Q1356.77 39.7232 1353.41 36.0774 Q1350.08 32.4315 1344.57 32.4315 Q1338.34 32.4315 1334.57 35.9558 Q1330.84 39.4801 1330.27 45.8805 L1356.85 45.84 Z" fill="#000000" fill-rule="nonzero" fill-opacity="1" /><polyline clip-path="url(#clip742)" style="stroke:#ff0000; stroke-linecap:round; stroke-linejoin:round; stroke-width:8; stroke-opacity:1; fill:none" points="278.613,674.443 302.813,621.995 327.014,570.313 351.214,520.149 375.415,472.235 399.615,427.27 423.816,385.909 448.016,348.756 472.217,316.351 496.417,289.169 520.618,267.605 544.818,251.973 569.019,242.502 593.219,239.329 617.42,242.502 641.621,251.973 665.821,267.605 690.022,289.169 714.222,316.351 738.423,348.756 762.623,385.909 786.824,427.27 811.024,472.235 835.225,520.149 859.425,570.313 883.626,621.995 907.826,674.443 932.027,726.89 956.227,778.572 980.428,828.736 1004.63,876.65 1028.83,921.615 1053.03,962.976 1077.23,1000.13 1101.43,1032.53 1125.63,1059.72 1149.83,1081.28 1174.03,1096.91 1198.23,1106.38 1222.43,1109.56 1246.63,1106.38 1270.83,1096.91 1295.03,1081.28 1319.24,1059.72 1343.44,1032.53 1367.64,1000.13 1391.84,962.976 1416.04,921.615 1440.24,876.65 1464.44,828.736 1488.64,778.572 1512.84,726.89 1537.04,674.443 "/>
<path clip-path="url(#clip740)" d="M1818.82 1253.39 L3152.76 1253.39 L3152.76 102.682 L1818.82 102.682  Z" fill="#ffffff" fill-rule="evenodd" fill-opacity="1"/>
<polyline clip-path="url(#clip741)" style="stroke:#000000; stroke-linecap:round; stroke-linejoin:round; stroke-width:2; stroke-opacity:0.1; fill:none" points="1856.58,1253.39 1856.58,102.682 "/>
<polyline clip-path="url(#clip741)" style="stroke:#000000; stroke-linecap:round; stroke-linejoin:round; stroke-width:2; stroke-opacity:0.1; fill:none" points="2098.58,1253.39 2098.58,102.682 "/>
<polyline clip-path="url(#clip741)" style="stroke:#000000; stroke-linecap:round; stroke-linejoin:round; stroke-width:2; stroke-opacity:0.1; fill:none" points="2340.59,1253.39 2340.59,102.682 "/>
<polyline clip-path="url(#clip741)" style="stroke:#000000; stroke-linecap:round; stroke-linejoin:round; stroke-width:2; stroke-opacity:0.1; fill:none" points="2582.59,1253.39 2582.59,102.682 "/>
<polyline clip-path="url(#clip741)" style="stroke:#000000; stroke-linecap:round; stroke-linejoin:round; stroke-width:2; stroke-opacity:0.1; fill:none" points="2824.6,1253.39 2824.6,102.682 "/>
<polyline clip-path="url(#clip741)" style="stroke:#000000; stroke-linecap:round; stroke-linejoin:round; stroke-width:2; stroke-opacity:0.1; fill:none" points="3066.6,1253.39 3066.6,102.682 "/>
<polyline clip-path="url(#clip741)" style="stroke:#000000; stroke-linecap:round; stroke-linejoin:round; stroke-width:2; stroke-opacity:0.1; fill:none" points="1818.82,1097.89 3152.76,1097.89 "/>
<polyline clip-path="url(#clip741)" style="stroke:#000000; stroke-linecap:round; stroke-linejoin:round; stroke-width:2; stroke-opacity:0.1; fill:none" points="1818.82,786.89 3152.76,786.89 "/>
<polyline clip-path="url(#clip741)" style="stroke:#000000; stroke-linecap:round; stroke-linejoin:round; stroke-width:2; stroke-opacity:0.1; fill:none" points="1818.82,475.886 3152.76,475.886 "/>
<polyline clip-path="url(#clip741)" style="stroke:#000000; stroke-linecap:round; stroke-linejoin:round; stroke-width:2; stroke-opacity:0.1; fill:none" points="1818.82,164.883 3152.76,164.883 "/>
<polyline clip-path="url(#clip740)" style="stroke:#000000; stroke-linecap:round; stroke-linejoin:round; stroke-width:4; stroke-opacity:1; fill:none" points="1818.82,1253.39 3152.76,1253.39 "/>
<polyline clip-path="url(#clip740)" style="stroke:#000000; stroke-linecap:round; stroke-linejoin:round; stroke-width:4; stroke-opacity:1; fill:none" points="1856.58,1253.39 1856.58,1234.5 "/>
<polyline clip-path="url(#clip740)" style="stroke:#000000; stroke-linecap:round; stroke-linejoin:round; stroke-width:4; stroke-opacity:1; fill:none" points="2098.58,1253.39 2098.58,1234.5 "/>
<polyline clip-path="url(#clip740)" style="stroke:#000000; stroke-linecap:round; stroke-linejoin:round; stroke-width:4; stroke-opacity:1; fill:none" points="2340.59,1253.39 2340.59,1234.5 "/>
<polyline clip-path="url(#clip740)" style="stroke:#000000; stroke-linecap:round; stroke-linejoin:round; stroke-width:4; stroke-opacity:1; fill:none" points="2582.59,1253.39 2582.59,1234.5 "/>
<polyline clip-path="url(#clip740)" style="stroke:#000000; stroke-linecap:round; stroke-linejoin:round; stroke-width:4; stroke-opacity:1; fill:none" points="2824.6,1253.39 2824.6,1234.5 "/>
<polyline clip-path="url(#clip740)" style="stroke:#000000; stroke-linecap:round; stroke-linejoin:round; stroke-width:4; stroke-opacity:1; fill:none" points="3066.6,1253.39 3066.6,1234.5 "/>
<path clip-path="url(#clip740)" d="M1856.58 1290.71 Q1852.96 1290.71 1851.14 1294.28 Q1849.33 1297.82 1849.33 1304.95 Q1849.33 1312.06 1851.14 1315.62 Q1852.96 1319.16 1856.58 1319.16 Q1860.21 1319.16 1862.02 1315.62 Q1863.84 1312.06 1863.84 1304.95 Q1863.84 1297.82 1862.02 1294.28 Q1860.21 1290.71 1856.58 1290.71 M1856.58 1287.01 Q1862.39 1287.01 1865.44 1291.62 Q1868.52 1296.2 1868.52 1304.95 Q1868.52 1313.68 1865.44 1318.28 Q1862.39 1322.87 1856.58 1322.87 Q1850.77 1322.87 1847.69 1318.28 Q1844.63 1313.68 1844.63 1304.95 Q1844.63 1296.2 1847.69 1291.62 Q1850.77 1287.01 1856.58 1287.01 Z" fill="#000000" fill-rule="nonzero" fill-opacity="1" /><path clip-path="url(#clip740)" d="M2073.27 1318.26 L2080.91 1318.26 L2080.91 1291.89 L2072.6 1293.56 L2072.6 1289.3 L2080.86 1287.63 L2085.54 1287.63 L2085.54 1318.26 L2093.18 1318.26 L2093.18 1322.19 L2073.27 1322.19 L2073.27 1318.26 Z" fill="#000000" fill-rule="nonzero" fill-opacity="1" /><path clip-path="url(#clip740)" d="M2112.62 1290.71 Q2109.01 1290.71 2107.18 1294.28 Q2105.37 1297.82 2105.37 1304.95 Q2105.37 1312.06 2107.18 1315.62 Q2109.01 1319.16 2112.62 1319.16 Q2116.25 1319.16 2118.06 1315.62 Q2119.89 1312.06 2119.89 1304.95 Q2119.89 1297.82 2118.06 1294.28 Q2116.25 1290.71 2112.62 1290.71 M2112.62 1287.01 Q2118.43 1287.01 2121.49 1291.62 Q2124.56 1296.2 2124.56 1304.95 Q2124.56 1313.68 2121.49 1318.28 Q2118.43 1322.87 2112.62 1322.87 Q2106.81 1322.87 2103.73 1318.28 Q2100.68 1313.68 2100.68 1304.95 Q2100.68 1296.2 2103.73 1291.62 Q2106.81 1287.01 2112.62 1287.01 Z" fill="#000000" fill-rule="nonzero" fill-opacity="1" /><path clip-path="url(#clip740)" d="M2319.36 1318.26 L2335.68 1318.26 L2335.68 1322.19 L2313.73 1322.19 L2313.73 1318.26 Q2316.4 1315.51 2320.98 1310.88 Q2325.59 1306.22 2326.77 1304.88 Q2329.01 1302.36 2329.89 1300.62 Q2330.79 1298.86 2330.79 1297.17 Q2330.79 1294.42 2328.85 1292.68 Q2326.93 1290.95 2323.83 1290.95 Q2321.63 1290.95 2319.17 1291.71 Q2316.74 1292.47 2313.97 1294.02 L2313.97 1289.3 Q2316.79 1288.17 2319.24 1287.59 Q2321.7 1287.01 2323.73 1287.01 Q2329.1 1287.01 2332.3 1289.7 Q2335.49 1292.38 2335.49 1296.87 Q2335.49 1299 2334.68 1300.92 Q2333.9 1302.82 2331.79 1305.41 Q2331.21 1306.08 2328.11 1309.3 Q2325.01 1312.5 2319.36 1318.26 Z" fill="#000000" fill-rule="nonzero" fill-opacity="1" /><path clip-path="url(#clip740)" d="M2355.49 1290.71 Q2351.88 1290.71 2350.05 1294.28 Q2348.25 1297.82 2348.25 1304.95 Q2348.25 1312.06 2350.05 1315.62 Q2351.88 1319.16 2355.49 1319.16 Q2359.13 1319.16 2360.93 1315.62 Q2362.76 1312.06 2362.76 1304.95 Q2362.76 1297.82 2360.93 1294.28 Q2359.13 1290.71 2355.49 1290.71 M2355.49 1287.01 Q2361.3 1287.01 2364.36 1291.62 Q2367.44 1296.2 2367.44 1304.95 Q2367.44 1313.68 2364.36 1318.28 Q2361.3 1322.87 2355.49 1322.87 Q2349.68 1322.87 2346.6 1318.28 Q2343.55 1313.68 2343.55 1304.95 Q2343.55 1296.2 2346.6 1291.62 Q2349.68 1287.01 2355.49 1287.01 Z" fill="#000000" fill-rule="nonzero" fill-opacity="1" /><path clip-path="url(#clip740)" d="M2571.43 1303.56 Q2574.79 1304.28 2576.67 1306.55 Q2578.56 1308.82 2578.56 1312.15 Q2578.56 1317.26 2575.05 1320.07 Q2571.53 1322.87 2565.05 1322.87 Q2562.87 1322.87 2560.55 1322.43 Q2558.26 1322.01 2555.81 1321.15 L2555.81 1316.64 Q2557.75 1317.77 2560.07 1318.35 Q2562.38 1318.93 2564.91 1318.93 Q2569.3 1318.93 2571.6 1317.19 Q2573.91 1315.46 2573.91 1312.15 Q2573.91 1309.09 2571.76 1307.38 Q2569.63 1305.64 2565.81 1305.64 L2561.78 1305.64 L2561.78 1301.8 L2565.99 1301.8 Q2569.44 1301.8 2571.27 1300.44 Q2573.1 1299.05 2573.1 1296.45 Q2573.1 1293.79 2571.2 1292.38 Q2569.33 1290.95 2565.81 1290.95 Q2563.89 1290.95 2561.69 1291.36 Q2559.49 1291.78 2556.85 1292.66 L2556.85 1288.49 Q2559.51 1287.75 2561.83 1287.38 Q2564.17 1287.01 2566.23 1287.01 Q2571.55 1287.01 2574.65 1289.44 Q2577.75 1291.85 2577.75 1295.97 Q2577.75 1298.84 2576.11 1300.83 Q2574.47 1302.8 2571.43 1303.56 Z" fill="#000000" fill-rule="nonzero" fill-opacity="1" /><path clip-path="url(#clip740)" d="M2597.43 1290.71 Q2593.82 1290.71 2591.99 1294.28 Q2590.18 1297.82 2590.18 1304.95 Q2590.18 1312.06 2591.99 1315.62 Q2593.82 1319.16 2597.43 1319.16 Q2601.06 1319.16 2602.87 1315.62 Q2604.7 1312.06 2604.7 1304.95 Q2604.7 1297.82 2602.87 1294.28 Q2601.06 1290.71 2597.43 1290.71 M2597.43 1287.01 Q2603.24 1287.01 2606.3 1291.62 Q2609.37 1296.2 2609.37 1304.95 Q2609.37 1313.68 2606.3 1318.28 Q2603.24 1322.87 2597.43 1322.87 Q2591.62 1322.87 2588.54 1318.28 Q2585.49 1313.68 2585.49 1304.95 Q2585.49 1296.2 2588.54 1291.62 Q2591.62 1287.01 2597.43 1287.01 Z" fill="#000000" fill-rule="nonzero" fill-opacity="1" /><path clip-path="url(#clip740)" d="M2812.77 1291.71 L2800.96 1310.16 L2812.77 1310.16 L2812.77 1291.71 M2811.54 1287.63 L2817.42 1287.63 L2817.42 1310.16 L2822.35 1310.16 L2822.35 1314.05 L2817.42 1314.05 L2817.42 1322.19 L2812.77 1322.19 L2812.77 1314.05 L2797.17 1314.05 L2797.17 1309.53 L2811.54 1287.63 Z" fill="#000000" fill-rule="nonzero" fill-opacity="1" /><path clip-path="url(#clip740)" d="M2840.08 1290.71 Q2836.47 1290.71 2834.64 1294.28 Q2832.84 1297.82 2832.84 1304.95 Q2832.84 1312.06 2834.64 1315.62 Q2836.47 1319.16 2840.08 1319.16 Q2843.72 1319.16 2845.52 1315.62 Q2847.35 1312.06 2847.35 1304.95 Q2847.35 1297.82 2845.52 1294.28 Q2843.72 1290.71 2840.08 1290.71 M2840.08 1287.01 Q2845.89 1287.01 2848.95 1291.62 Q2852.03 1296.2 2852.03 1304.95 Q2852.03 1313.68 2848.95 1318.28 Q2845.89 1322.87 2840.08 1322.87 Q2834.27 1322.87 2831.19 1318.28 Q2828.14 1313.68 2828.14 1304.95 Q2828.14 1296.2 2831.19 1291.62 Q2834.27 1287.01 2840.08 1287.01 Z" fill="#000000" fill-rule="nonzero" fill-opacity="1" /><path clip-path="url(#clip740)" d="M3041.3 1287.63 L3059.66 1287.63 L3059.66 1291.57 L3045.58 1291.57 L3045.58 1300.04 Q3046.6 1299.69 3047.62 1299.53 Q3048.64 1299.35 3049.66 1299.35 Q3055.44 1299.35 3058.82 1302.52 Q3062.2 1305.69 3062.2 1311.11 Q3062.2 1316.69 3058.73 1319.79 Q3055.26 1322.87 3048.94 1322.87 Q3046.76 1322.87 3044.5 1322.5 Q3042.25 1322.13 3039.84 1321.38 L3039.84 1316.69 Q3041.93 1317.82 3044.15 1318.38 Q3046.37 1318.93 3048.85 1318.93 Q3052.85 1318.93 3055.19 1316.82 Q3057.53 1314.72 3057.53 1311.11 Q3057.53 1307.5 3055.19 1305.39 Q3052.85 1303.28 3048.85 1303.28 Q3046.97 1303.28 3045.1 1303.7 Q3043.25 1304.12 3041.3 1305 L3041.3 1287.63 Z" fill="#000000" fill-rule="nonzero" fill-opacity="1" /><path clip-path="url(#clip740)" d="M3081.42 1290.71 Q3077.81 1290.71 3075.98 1294.28 Q3074.17 1297.82 3074.17 1304.95 Q3074.17 1312.06 3075.98 1315.62 Q3077.81 1319.16 3081.42 1319.16 Q3085.05 1319.16 3086.86 1315.62 Q3088.69 1312.06 3088.69 1304.95 Q3088.69 1297.82 3086.86 1294.28 Q3085.05 1290.71 3081.42 1290.71 M3081.42 1287.01 Q3087.23 1287.01 3090.28 1291.62 Q3093.36 1296.2 3093.36 1304.95 Q3093.36 1313.68 3090.28 1318.28 Q3087.23 1322.87 3081.42 1322.87 Q3075.61 1322.87 3072.53 1318.28 Q3069.47 1313.68 3069.47 1304.95 Q3069.47 1296.2 3072.53 1291.62 Q3075.61 1287.01 3081.42 1287.01 Z" fill="#000000" fill-rule="nonzero" fill-opacity="1" /><path clip-path="url(#clip740)" d="M2397.67 1362.74 L2404.17 1362.74 L2414.16 1402.91 L2424.12 1362.74 L2431.35 1362.74 L2441.34 1402.91 L2451.3 1362.74 L2457.83 1362.74 L2445.89 1410.26 L2437.81 1410.26 L2427.78 1369.01 L2417.66 1410.26 L2409.58 1410.26 L2397.67 1362.74 Z" fill="#000000" fill-rule="nonzero" fill-opacity="1" /><path clip-path="url(#clip740)" d="M2492.78 1390.97 L2492.78 1393.84 L2465.85 1393.84 Q2466.23 1399.88 2469.48 1403.07 Q2472.76 1406.22 2478.58 1406.22 Q2481.95 1406.22 2485.11 1405.39 Q2488.29 1404.56 2491.41 1402.91 L2491.41 1408.44 Q2488.26 1409.78 2484.95 1410.48 Q2481.64 1411.18 2478.23 1411.18 Q2469.7 1411.18 2464.7 1406.22 Q2459.74 1401.25 2459.74 1392.78 Q2459.74 1384.03 2464.45 1378.91 Q2469.19 1373.75 2477.21 1373.75 Q2484.4 1373.75 2488.57 1378.4 Q2492.78 1383.01 2492.78 1390.97 M2486.92 1389.25 Q2486.86 1384.45 2484.21 1381.58 Q2481.6 1378.72 2477.28 1378.72 Q2472.37 1378.72 2469.41 1381.49 Q2466.49 1384.25 2466.04 1389.28 L2486.92 1389.25 Z" fill="#000000" fill-rule="nonzero" fill-opacity="1" /><path clip-path="url(#clip740)" d="M2532.88 1390.97 L2532.88 1393.84 L2505.95 1393.84 Q2506.33 1399.88 2509.58 1403.07 Q2512.86 1406.22 2518.68 1406.22 Q2522.06 1406.22 2525.21 1405.39 Q2528.39 1404.56 2531.51 1402.91 L2531.51 1408.44 Q2528.36 1409.78 2525.05 1410.48 Q2521.74 1411.18 2518.33 1411.18 Q2509.8 1411.18 2504.81 1406.22 Q2499.84 1401.25 2499.84 1392.78 Q2499.84 1384.03 2504.55 1378.91 Q2509.29 1373.75 2517.32 1373.75 Q2524.51 1373.75 2528.68 1378.4 Q2532.88 1383.01 2532.88 1390.97 M2527.02 1389.25 Q2526.96 1384.45 2524.32 1381.58 Q2521.71 1378.72 2517.38 1378.72 Q2512.48 1378.72 2509.52 1381.49 Q2506.59 1384.25 2506.14 1389.28 L2527.02 1389.25 Z" fill="#000000" fill-rule="nonzero" fill-opacity="1" /><path clip-path="url(#clip740)" d="M2542.27 1360.73 L2548.16 1360.73 L2548.16 1389.98 L2565.63 1374.61 L2573.11 1374.61 L2554.2 1391.29 L2573.91 1410.26 L2566.27 1410.26 L2548.16 1392.85 L2548.16 1410.26 L2542.27 1410.26 L2542.27 1360.73 Z" fill="#000000" fill-rule="nonzero" fill-opacity="1" /><polyline clip-path="url(#clip740)" style="stroke:#000000; stroke-linecap:round; stroke-linejoin:round; stroke-width:4; stroke-opacity:1; fill:none" points="1818.82,1253.39 1818.82,102.682 "/>
<polyline clip-path="url(#clip740)" style="stroke:#000000; stroke-linecap:round; stroke-linejoin:round; stroke-width:4; stroke-opacity:1; fill:none" points="1818.82,1097.89 1837.72,1097.89 "/>
<polyline clip-path="url(#clip740)" style="stroke:#000000; stroke-linecap:round; stroke-linejoin:round; stroke-width:4; stroke-opacity:1; fill:none" points="1818.82,786.89 1837.72,786.89 "/>
<polyline clip-path="url(#clip740)" style="stroke:#000000; stroke-linecap:round; stroke-linejoin:round; stroke-width:4; stroke-opacity:1; fill:none" points="1818.82,475.886 1837.72,475.886 "/>
<polyline clip-path="url(#clip740)" style="stroke:#000000; stroke-linecap:round; stroke-linejoin:round; stroke-width:4; stroke-opacity:1; fill:none" points="1818.82,164.883 1837.72,164.883 "/>
<path clip-path="url(#clip740)" d="M1731.56 1084.69 L1719.76 1103.14 L1731.56 1103.14 L1731.56 1084.69 M1730.34 1080.61 L1736.22 1080.61 L1736.22 1103.14 L1741.15 1103.14 L1741.15 1107.03 L1736.22 1107.03 L1736.22 1115.17 L1731.56 1115.17 L1731.56 1107.03 L1715.96 1107.03 L1715.96 1102.51 L1730.34 1080.61 Z" fill="#000000" fill-rule="nonzero" fill-opacity="1" /><path clip-path="url(#clip740)" d="M1758.88 1083.69 Q1755.27 1083.69 1753.44 1087.26 Q1751.63 1090.8 1751.63 1097.93 Q1751.63 1105.03 1753.44 1108.6 Q1755.27 1112.14 1758.88 1112.14 Q1762.51 1112.14 1764.32 1108.6 Q1766.15 1105.03 1766.15 1097.93 Q1766.15 1090.8 1764.32 1087.26 Q1762.51 1083.69 1758.88 1083.69 M1758.88 1079.99 Q1764.69 1079.99 1767.74 1084.59 Q1770.82 1089.18 1770.82 1097.93 Q1770.82 1106.65 1767.74 1111.26 Q1764.69 1115.84 1758.88 1115.84 Q1753.07 1115.84 1749.99 1111.26 Q1746.93 1106.65 1746.93 1097.93 Q1746.93 1089.18 1749.99 1084.59 Q1753.07 1079.99 1758.88 1079.99 Z" fill="#000000" fill-rule="nonzero" fill-opacity="1" /><path clip-path="url(#clip740)" d="M1718.76 769.61 L1737.12 769.61 L1737.12 773.545 L1723.05 773.545 L1723.05 782.017 Q1724.06 781.67 1725.08 781.508 Q1726.1 781.323 1727.12 781.323 Q1732.91 781.323 1736.29 784.494 Q1739.67 787.665 1739.67 793.082 Q1739.67 798.66 1736.19 801.762 Q1732.72 804.841 1726.4 804.841 Q1724.23 804.841 1721.96 804.471 Q1719.71 804.1 1717.3 803.36 L1717.3 798.66 Q1719.39 799.795 1721.61 800.35 Q1723.83 800.906 1726.31 800.906 Q1730.31 800.906 1732.65 798.799 Q1734.99 796.693 1734.99 793.082 Q1734.99 789.471 1732.65 787.364 Q1730.31 785.258 1726.31 785.258 Q1724.43 785.258 1722.56 785.674 Q1720.71 786.091 1718.76 786.971 L1718.76 769.61 Z" fill="#000000" fill-rule="nonzero" fill-opacity="1" /><path clip-path="url(#clip740)" d="M1758.88 772.688 Q1755.27 772.688 1753.44 776.253 Q1751.63 779.795 1751.63 786.924 Q1751.63 794.031 1753.44 797.596 Q1755.27 801.137 1758.88 801.137 Q1762.51 801.137 1764.32 797.596 Q1766.15 794.031 1766.15 786.924 Q1766.15 779.795 1764.32 776.253 Q1762.51 772.688 1758.88 772.688 M1758.88 768.985 Q1764.69 768.985 1767.74 773.591 Q1770.82 778.174 1770.82 786.924 Q1770.82 795.651 1767.74 800.258 Q1764.69 804.841 1758.88 804.841 Q1753.07 804.841 1749.99 800.258 Q1746.93 795.651 1746.93 786.924 Q1746.93 778.174 1749.99 773.591 Q1753.07 768.985 1758.88 768.985 Z" fill="#000000" fill-rule="nonzero" fill-opacity="1" /><path clip-path="url(#clip740)" d="M1729.3 474.023 Q1726.15 474.023 1724.3 476.176 Q1722.47 478.328 1722.47 482.078 Q1722.47 485.805 1724.3 487.981 Q1726.15 490.134 1729.3 490.134 Q1732.44 490.134 1734.27 487.981 Q1736.12 485.805 1736.12 482.078 Q1736.12 478.328 1734.27 476.176 Q1732.44 474.023 1729.3 474.023 M1738.58 459.37 L1738.58 463.629 Q1736.82 462.796 1735.01 462.356 Q1733.23 461.916 1731.47 461.916 Q1726.84 461.916 1724.39 465.041 Q1721.96 468.166 1721.61 474.486 Q1722.98 472.472 1725.04 471.407 Q1727.1 470.319 1729.57 470.319 Q1734.78 470.319 1737.79 473.49 Q1740.82 476.639 1740.82 482.078 Q1740.82 487.402 1737.67 490.62 Q1734.53 493.838 1729.3 493.838 Q1723.3 493.838 1720.13 489.254 Q1716.96 484.648 1716.96 475.921 Q1716.96 467.727 1720.85 462.865 Q1724.74 457.981 1731.29 457.981 Q1733.05 457.981 1734.83 458.328 Q1736.63 458.676 1738.58 459.37 Z" fill="#000000" fill-rule="nonzero" fill-opacity="1" /><path clip-path="url(#clip740)" d="M1758.88 461.685 Q1755.27 461.685 1753.44 465.25 Q1751.63 468.791 1751.63 475.921 Q1751.63 483.027 1753.44 486.592 Q1755.27 490.134 1758.88 490.134 Q1762.51 490.134 1764.32 486.592 Q1766.15 483.027 1766.15 475.921 Q1766.15 468.791 1764.32 465.25 Q1762.51 461.685 1758.88 461.685 M1758.88 457.981 Q1764.69 457.981 1767.74 462.588 Q1770.82 467.171 1770.82 475.921 Q1770.82 484.648 1767.74 489.254 Q1764.69 493.838 1758.88 493.838 Q1753.07 493.838 1749.99 489.254 Q1746.93 484.648 1746.93 475.921 Q1746.93 467.171 1749.99 462.588 Q1753.07 457.981 1758.88 457.981 Z" fill="#000000" fill-rule="nonzero" fill-opacity="1" /><path clip-path="url(#clip740)" d="M1717.54 147.603 L1739.76 147.603 L1739.76 149.594 L1727.21 182.163 L1722.33 182.163 L1734.13 151.538 L1717.54 151.538 L1717.54 147.603 Z" fill="#000000" fill-rule="nonzero" fill-opacity="1" /><path clip-path="url(#clip740)" d="M1758.88 150.682 Q1755.27 150.682 1753.44 154.246 Q1751.63 157.788 1751.63 164.918 Q1751.63 172.024 1753.44 175.589 Q1755.27 179.13 1758.88 179.13 Q1762.51 179.13 1764.32 175.589 Q1766.15 172.024 1766.15 164.918 Q1766.15 157.788 1764.32 154.246 Q1762.51 150.682 1758.88 150.682 M1758.88 146.978 Q1764.69 146.978 1767.74 151.584 Q1770.82 156.168 1770.82 164.918 Q1770.82 173.644 1767.74 178.251 Q1764.69 182.834 1758.88 182.834 Q1753.07 182.834 1749.99 178.251 Q1746.93 173.644 1746.93 164.918 Q1746.93 156.168 1749.99 151.584 Q1753.07 146.978 1758.88 146.978 Z" fill="#000000" fill-rule="nonzero" fill-opacity="1" /><path clip-path="url(#clip740)" d="M1631.43 1001.99 Q1632.13 999.92 1634.42 997.979 Q1636.71 996.006 1640.72 994.032 L1653.71 987.507 L1653.71 994.414 L1641.52 1000.49 Q1636.74 1002.85 1635.18 1005.08 Q1633.62 1007.27 1633.62 1011.09 L1633.62 1018.09 L1653.71 1018.09 L1653.71 1024.52 L1606.19 1024.52 L1606.19 1010.01 Q1606.19 1001.86 1609.59 997.852 Q1613 993.841 1619.87 993.841 Q1624.36 993.841 1627.32 995.942 Q1630.28 998.011 1631.43 1001.99 M1611.47 1018.09 L1628.34 1018.09 L1628.34 1010.01 Q1628.34 1005.36 1626.21 1003.01 Q1624.04 1000.62 1619.87 1000.62 Q1615.7 1000.62 1613.6 1003.01 Q1611.47 1005.36 1611.47 1010.01 L1611.47 1018.09 Z" fill="#000000" fill-rule="nonzero" fill-opacity="1" /><path clip-path="url(#clip740)" d="M1634.42 951.923 L1637.28 951.923 L1637.28 978.85 Q1643.33 978.468 1646.51 975.221 Q1649.66 971.943 1649.66 966.119 Q1649.66 962.745 1648.84 959.594 Q1648.01 956.411 1646.35 953.292 L1651.89 953.292 Q1653.23 956.443 1653.93 959.753 Q1654.63 963.063 1654.63 966.469 Q1654.63 974.999 1649.66 979.996 Q1644.7 984.961 1636.23 984.961 Q1627.48 984.961 1622.35 980.25 Q1617.2 975.508 1617.2 967.487 Q1617.2 960.294 1621.85 956.124 Q1626.46 951.923 1634.42 951.923 M1632.7 957.779 Q1627.89 957.843 1625.03 960.485 Q1622.16 963.095 1622.16 967.424 Q1622.16 972.325 1624.93 975.285 Q1627.7 978.213 1632.73 978.659 L1632.7 957.779 Z" fill="#000000" fill-rule="nonzero" fill-opacity="1" /><path clip-path="url(#clip740)" d="M1604.18 942.311 L1604.18 936.454 L1653.71 936.454 L1653.71 942.311 L1604.18 942.311 Z" fill="#000000" fill-rule="nonzero" fill-opacity="1" /><path clip-path="url(#clip740)" d="M1635.79 908 Q1635.79 915.097 1637.41 917.835 Q1639.03 920.572 1642.95 920.572 Q1646.07 920.572 1647.91 918.535 Q1649.73 916.466 1649.73 912.933 Q1649.73 908.063 1646.29 905.135 Q1642.82 902.175 1637.09 902.175 L1635.79 902.175 L1635.79 908 M1633.37 896.319 L1653.71 896.319 L1653.71 902.175 L1648.3 902.175 Q1651.54 904.18 1653.1 907.172 Q1654.63 910.164 1654.63 914.493 Q1654.63 919.967 1651.57 923.214 Q1648.49 926.428 1643.33 926.428 Q1637.31 926.428 1634.26 922.418 Q1631.2 918.376 1631.2 910.387 L1631.2 902.175 L1630.63 902.175 Q1626.59 902.175 1624.39 904.849 Q1622.16 907.49 1622.16 912.296 Q1622.16 915.352 1622.9 918.248 Q1623.63 921.145 1625.09 923.818 L1619.68 923.818 Q1618.44 920.604 1617.84 917.58 Q1617.2 914.556 1617.2 911.692 Q1617.2 903.957 1621.21 900.138 Q1625.22 896.319 1633.37 896.319 Z" fill="#000000" fill-rule="nonzero" fill-opacity="1" /><path clip-path="url(#clip740)" d="M1607.94 878.463 L1618.06 878.463 L1618.06 866.4 L1622.61 866.4 L1622.61 878.463 L1641.96 878.463 Q1646.32 878.463 1647.56 877.285 Q1648.8 876.076 1648.8 872.415 L1648.8 866.4 L1653.71 866.4 L1653.71 872.415 Q1653.71 879.195 1651.19 881.773 Q1648.65 884.351 1641.96 884.351 L1622.61 884.351 L1622.61 888.648 L1618.06 888.648 L1618.06 884.351 L1607.94 884.351 L1607.94 878.463 Z" fill="#000000" fill-rule="nonzero" fill-opacity="1" /><path clip-path="url(#clip740)" d="M1618.06 858.697 L1618.06 852.841 L1653.71 852.841 L1653.71 858.697 L1618.06 858.697 M1604.18 858.697 L1604.18 852.841 L1611.6 852.841 L1611.6 858.697 L1604.18 858.697 Z" fill="#000000" fill-rule="nonzero" fill-opacity="1" /><path clip-path="url(#clip740)" d="M1618.06 844.788 L1618.06 838.582 L1647.98 827.442 L1618.06 816.302 L1618.06 810.095 L1653.71 823.463 L1653.71 831.42 L1618.06 844.788 Z" fill="#000000" fill-rule="nonzero" fill-opacity="1" /><path clip-path="url(#clip740)" d="M1634.42 771.519 L1637.28 771.519 L1637.28 798.446 Q1643.33 798.064 1646.51 794.817 Q1649.66 791.539 1649.66 785.714 Q1649.66 782.341 1648.84 779.19 Q1648.01 776.007 1646.35 772.888 L1651.89 772.888 Q1653.23 776.039 1653.93 779.349 Q1654.63 782.659 1654.63 786.065 Q1654.63 794.595 1649.66 799.592 Q1644.7 804.557 1636.23 804.557 Q1627.48 804.557 1622.35 799.846 Q1617.2 795.104 1617.2 787.083 Q1617.2 779.89 1621.85 775.72 Q1626.46 771.519 1634.42 771.519 M1632.7 777.375 Q1627.89 777.439 1625.03 780.081 Q1622.16 782.691 1622.16 787.019 Q1622.16 791.921 1624.93 794.881 Q1627.7 797.809 1632.73 798.255 L1632.7 777.375 Z" fill="#000000" fill-rule="nonzero" fill-opacity="1" /><path clip-path="url(#clip740)" d="M1632.19 711.554 L1653.71 711.554 L1653.71 717.41 L1632.38 717.41 Q1627.32 717.41 1624.81 719.384 Q1622.29 721.357 1622.29 725.304 Q1622.29 730.046 1625.32 732.784 Q1628.34 735.521 1633.56 735.521 L1653.71 735.521 L1653.71 741.409 L1604.18 741.409 L1604.18 735.521 L1623.6 735.521 Q1620.38 733.42 1618.79 730.587 Q1617.2 727.723 1617.2 723.999 Q1617.2 717.856 1621.02 714.705 Q1624.81 711.554 1632.19 711.554 Z" fill="#000000" fill-rule="nonzero" fill-opacity="1" /><path clip-path="url(#clip740)" d="M1639.64 700.478 L1618.06 700.478 L1618.06 694.621 L1639.42 694.621 Q1644.48 694.621 1647.02 692.648 Q1649.54 690.674 1649.54 686.728 Q1649.54 681.985 1646.51 679.248 Q1643.49 676.479 1638.27 676.479 L1618.06 676.479 L1618.06 670.622 L1653.71 670.622 L1653.71 676.479 L1648.23 676.479 Q1651.48 678.611 1653.07 681.444 Q1654.63 684.245 1654.63 687.969 Q1654.63 694.112 1650.81 697.295 Q1646.99 700.478 1639.64 700.478 M1617.2 685.741 L1617.2 685.741 Z" fill="#000000" fill-rule="nonzero" fill-opacity="1" /><path clip-path="url(#clip740)" d="M1624.9 630.805 Q1620.95 628.609 1619.08 625.553 Q1617.2 622.498 1617.2 618.36 Q1617.2 612.79 1621.11 609.766 Q1625 606.743 1632.19 606.743 L1653.71 606.743 L1653.71 612.631 L1632.38 612.631 Q1627.26 612.631 1624.77 614.445 Q1622.29 616.259 1622.29 619.983 Q1622.29 624.535 1625.32 627.176 Q1628.34 629.818 1633.56 629.818 L1653.71 629.818 L1653.71 635.707 L1632.38 635.707 Q1627.22 635.707 1624.77 637.521 Q1622.29 639.335 1622.29 643.123 Q1622.29 647.61 1625.35 650.252 Q1628.37 652.894 1633.56 652.894 L1653.71 652.894 L1653.71 658.782 L1618.06 658.782 L1618.06 652.894 L1623.6 652.894 Q1620.32 650.889 1618.76 648.088 Q1617.2 645.287 1617.2 641.436 Q1617.2 637.553 1619.17 634.847 Q1621.15 632.11 1624.9 630.805 Z" fill="#000000" fill-rule="nonzero" fill-opacity="1" /><path clip-path="url(#clip740)" d="M1618.06 595.061 L1618.06 589.205 L1653.71 589.205 L1653.71 595.061 L1618.06 595.061 M1604.18 595.061 L1604.18 589.205 L1611.6 589.205 L1611.6 595.061 L1604.18 595.061 Z" fill="#000000" fill-rule="nonzero" fill-opacity="1" /><path clip-path="url(#clip740)" d="M1623.47 553.493 L1604.18 553.493 L1604.18 547.637 L1653.71 547.637 L1653.71 553.493 L1648.36 553.493 Q1651.54 555.339 1653.1 558.172 Q1654.63 560.973 1654.63 564.92 Q1654.63 571.381 1649.47 575.455 Q1644.32 579.497 1635.91 579.497 Q1627.51 579.497 1622.35 575.455 Q1617.2 571.381 1617.2 564.92 Q1617.2 560.973 1618.76 558.172 Q1620.29 555.339 1623.47 553.493 M1635.91 573.45 Q1642.38 573.45 1646.07 570.808 Q1649.73 568.135 1649.73 563.488 Q1649.73 558.841 1646.07 556.167 Q1642.38 553.493 1635.91 553.493 Q1629.45 553.493 1625.79 556.167 Q1622.1 558.841 1622.1 563.488 Q1622.1 568.135 1625.79 570.808 Q1629.45 573.45 1635.91 573.45 Z" fill="#000000" fill-rule="nonzero" fill-opacity="1" /><path clip-path="url(#clip740)" d="M1618.06 535.574 L1618.06 529.718 L1653.71 529.718 L1653.71 535.574 L1618.06 535.574 M1604.18 535.574 L1604.18 529.718 L1611.6 529.718 L1611.6 535.574 L1604.18 535.574 Z" fill="#000000" fill-rule="nonzero" fill-opacity="1" /><path clip-path="url(#clip740)" d="M1607.94 511.671 L1618.06 511.671 L1618.06 499.608 L1622.61 499.608 L1622.61 511.671 L1641.96 511.671 Q1646.32 511.671 1647.56 510.493 Q1648.8 509.284 1648.8 505.623 L1648.8 499.608 L1653.71 499.608 L1653.71 505.623 Q1653.71 512.403 1651.19 514.981 Q1648.65 517.559 1641.96 517.559 L1622.61 517.559 L1622.61 521.856 L1618.06 521.856 L1618.06 517.559 L1607.94 517.559 L1607.94 511.671 Z" fill="#000000" fill-rule="nonzero" fill-opacity="1" /><path clip-path="url(#clip740)" d="M1657.02 477.073 Q1663.38 479.556 1665.32 481.911 Q1667.27 484.266 1667.27 488.213 L1667.27 492.892 L1662.36 492.892 L1662.36 489.454 Q1662.36 487.035 1661.22 485.699 Q1660.07 484.362 1655.81 482.739 L1653.13 481.688 L1618.06 496.107 L1618.06 489.9 L1645.94 478.76 L1618.06 467.62 L1618.06 461.413 L1657.02 477.073 Z" fill="#000000" fill-rule="nonzero" fill-opacity="1" /><path clip-path="url(#clip740)" d="M1604.24 418.54 Q1611.57 422.805 1618.73 424.874 Q1625.89 426.943 1633.24 426.943 Q1640.59 426.943 1647.82 424.874 Q1655.01 422.774 1662.3 418.54 L1662.3 423.633 Q1654.82 428.407 1647.59 430.794 Q1640.37 433.15 1633.24 433.15 Q1626.14 433.15 1618.95 430.794 Q1611.76 428.439 1604.24 423.633 L1604.24 418.54 Z" fill="#000000" fill-rule="nonzero" fill-opacity="1" /><path clip-path="url(#clip740)" d="M1632.79 365.928 Q1632.79 368.697 1635.15 370.288 Q1637.51 371.848 1641.71 371.848 Q1645.84 371.848 1648.23 370.288 Q1650.59 368.697 1650.59 365.928 Q1650.59 363.222 1648.23 361.663 Q1645.84 360.071 1641.71 360.071 Q1637.54 360.071 1635.18 361.663 Q1632.79 363.222 1632.79 365.928 M1628.75 365.928 Q1628.75 360.899 1632.25 357.939 Q1635.75 354.979 1641.71 354.979 Q1647.66 354.979 1651.16 357.971 Q1654.63 360.931 1654.63 365.928 Q1654.63 371.02 1651.16 373.981 Q1647.66 376.941 1641.71 376.941 Q1635.72 376.941 1632.25 373.981 Q1628.75 370.989 1628.75 365.928 M1609.37 398.775 Q1609.37 401.512 1611.76 403.104 Q1614.11 404.663 1618.25 404.663 Q1622.45 404.663 1624.81 403.104 Q1627.16 401.544 1627.16 398.775 Q1627.16 396.006 1624.81 394.446 Q1622.45 392.855 1618.25 392.855 Q1614.14 392.855 1611.76 394.446 Q1609.37 396.038 1609.37 398.775 M1605.33 370.034 L1605.33 364.941 L1654.63 394.669 L1654.63 399.762 L1605.33 370.034 M1605.33 398.775 Q1605.33 393.746 1608.83 390.754 Q1612.3 387.762 1618.25 387.762 Q1624.26 387.762 1627.73 390.754 Q1631.2 393.714 1631.2 398.775 Q1631.2 403.836 1627.73 406.796 Q1624.23 409.724 1618.25 409.724 Q1612.33 409.724 1608.83 406.764 Q1605.33 403.804 1605.33 398.775 Z" fill="#000000" fill-rule="nonzero" fill-opacity="1" /><path clip-path="url(#clip740)" d="M1604.24 346.162 L1604.24 341.07 Q1611.76 336.296 1618.95 333.94 Q1626.14 331.553 1633.24 331.553 Q1640.37 331.553 1647.59 333.94 Q1654.82 336.296 1662.3 341.07 L1662.3 346.162 Q1655.01 341.929 1647.82 339.86 Q1640.59 337.76 1633.24 337.76 Q1625.89 337.76 1618.73 339.86 Q1611.57 341.929 1604.24 346.162 Z" fill="#000000" fill-rule="nonzero" fill-opacity="1" /><path clip-path="url(#clip740)" d="M2144.82 14.0809 L2144.82 22.0612 Q2140.17 19.8332 2136.03 18.7395 Q2131.9 17.6457 2128.05 17.6457 Q2121.37 17.6457 2117.72 20.2383 Q2114.12 22.8309 2114.12 27.611 Q2114.12 31.6214 2116.51 33.6873 Q2118.94 35.7128 2125.66 36.9686 L2130.61 37.9813 Q2139.76 39.7232 2144.1 44.1387 Q2148.47 48.5136 2148.47 55.8863 Q2148.47 64.6767 2142.56 69.2137 Q2136.68 73.7508 2125.3 73.7508 Q2121.01 73.7508 2116.14 72.7785 Q2111.32 71.8063 2106.14 69.9024 L2106.14 61.4765 Q2111.12 64.2716 2115.9 65.6895 Q2120.68 67.1073 2125.3 67.1073 Q2132.31 67.1073 2136.12 64.3527 Q2139.92 61.598 2139.92 56.4939 Q2139.92 52.0379 2137.17 49.5264 Q2134.45 47.0148 2128.22 45.759 L2123.23 44.7868 Q2114.08 42.9639 2109.99 39.075 Q2105.9 35.1862 2105.9 28.2591 Q2105.9 20.2383 2111.53 15.6203 Q2117.2 11.0023 2127.12 11.0023 Q2131.38 11.0023 2135.79 11.7719 Q2140.21 12.5416 2144.82 14.0809 Z" fill="#000000" fill-rule="nonzero" fill-opacity="1" /><path clip-path="url(#clip740)" d="M2199.71 48.0275 L2199.71 51.6733 L2165.44 51.6733 Q2165.93 59.3701 2170.06 63.421 Q2174.23 67.4314 2181.65 67.4314 Q2185.94 67.4314 2189.95 66.3781 Q2194 65.3249 2197.97 63.2184 L2197.97 70.267 Q2193.96 71.9684 2189.75 72.8596 Q2185.54 73.7508 2181.2 73.7508 Q2170.35 73.7508 2163.99 67.4314 Q2157.67 61.1119 2157.67 50.3365 Q2157.67 39.1965 2163.66 32.6746 Q2169.7 26.1121 2179.91 26.1121 Q2189.06 26.1121 2194.37 32.0264 Q2199.71 37.9003 2199.71 48.0275 M2192.26 45.84 Q2192.18 39.7232 2188.82 36.0774 Q2185.5 32.4315 2179.99 32.4315 Q2173.75 32.4315 2169.98 35.9558 Q2166.25 39.4801 2165.69 45.8805 L2192.26 45.84 Z" fill="#000000" fill-rule="nonzero" fill-opacity="1" /><path clip-path="url(#clip740)" d="M2232.57 49.7694 Q2223.53 49.7694 2220.05 51.8354 Q2216.57 53.9013 2216.57 58.8839 Q2216.57 62.8538 2219.16 65.2034 Q2221.79 67.5124 2226.29 67.5124 Q2232.49 67.5124 2236.21 63.1374 Q2239.98 58.7219 2239.98 51.4303 L2239.98 49.7694 L2232.57 49.7694 M2247.43 46.6907 L2247.43 72.576 L2239.98 72.576 L2239.98 65.6895 Q2237.43 69.8214 2233.62 71.8063 Q2229.81 73.7508 2224.3 73.7508 Q2217.34 73.7508 2213.2 69.8619 Q2209.11 65.9325 2209.11 59.3701 Q2209.11 51.7138 2214.22 47.825 Q2219.36 43.9361 2229.53 43.9361 L2239.98 43.9361 L2239.98 43.2069 Q2239.98 38.0623 2236.58 35.2672 Q2233.22 32.4315 2227.1 32.4315 Q2223.21 32.4315 2219.52 33.3632 Q2215.84 34.295 2212.43 36.1584 L2212.43 29.2718 Q2216.53 27.692 2220.37 26.9223 Q2224.22 26.1121 2227.87 26.1121 Q2237.71 26.1121 2242.57 31.2163 Q2247.43 36.3204 2247.43 46.6907 Z" fill="#000000" fill-rule="nonzero" fill-opacity="1" /><path clip-path="url(#clip740)" d="M2291.71 28.5427 L2291.71 35.5912 Q2288.55 33.9709 2285.15 33.1607 Q2281.75 32.3505 2278.1 32.3505 Q2272.55 32.3505 2269.75 34.0519 Q2267 35.7533 2267 39.156 Q2267 41.7486 2268.99 43.2475 Q2270.97 44.7058 2276.97 46.0426 L2279.52 46.6097 Q2287.46 48.3111 2290.78 51.4303 Q2294.14 54.509 2294.14 60.0587 Q2294.14 66.3781 2289.12 70.0644 Q2284.14 73.7508 2275.39 73.7508 Q2271.74 73.7508 2267.77 73.0216 Q2263.84 72.3329 2259.47 70.9151 L2259.47 63.2184 Q2263.6 65.3654 2267.61 66.4591 Q2271.62 67.5124 2275.55 67.5124 Q2280.81 67.5124 2283.65 65.73 Q2286.48 63.9071 2286.48 60.6258 Q2286.48 57.5877 2284.42 55.9673 Q2282.39 54.3469 2275.47 52.8481 L2272.87 52.2405 Q2265.95 50.7821 2262.87 47.7845 Q2259.79 44.7463 2259.79 39.4801 Q2259.79 33.0797 2264.33 29.5959 Q2268.86 26.1121 2277.21 26.1121 Q2281.34 26.1121 2284.99 26.7198 Q2288.63 27.3274 2291.71 28.5427 Z" fill="#000000" fill-rule="nonzero" fill-opacity="1" /><path clip-path="url(#clip740)" d="M2323.59 32.4315 Q2317.6 32.4315 2314.11 37.1306 Q2310.63 41.7891 2310.63 49.9314 Q2310.63 58.0738 2314.07 62.7728 Q2317.56 67.4314 2323.59 67.4314 Q2329.55 67.4314 2333.03 62.7323 Q2336.51 58.0333 2336.51 49.9314 Q2336.51 41.8701 2333.03 37.1711 Q2329.55 32.4315 2323.59 32.4315 M2323.59 26.1121 Q2333.31 26.1121 2338.86 32.4315 Q2344.41 38.7509 2344.41 49.9314 Q2344.41 61.0714 2338.86 67.4314 Q2333.31 73.7508 2323.59 73.7508 Q2313.83 73.7508 2308.28 67.4314 Q2302.77 61.0714 2302.77 49.9314 Q2302.77 38.7509 2308.28 32.4315 Q2313.83 26.1121 2323.59 26.1121 Z" fill="#000000" fill-rule="nonzero" fill-opacity="1" /><path clip-path="url(#clip740)" d="M2394.48 45.1919 L2394.48 72.576 L2387.03 72.576 L2387.03 45.4349 Q2387.03 38.994 2384.52 35.7938 Q2382.01 32.5936 2376.98 32.5936 Q2370.95 32.5936 2367.46 36.4419 Q2363.98 40.2903 2363.98 46.9338 L2363.98 72.576 L2356.48 72.576 L2356.48 27.2059 L2363.98 27.2059 L2363.98 34.2544 Q2366.65 30.163 2370.26 28.1376 Q2373.9 26.1121 2378.64 26.1121 Q2386.46 26.1121 2390.47 30.9732 Q2394.48 35.7938 2394.48 45.1919 Z" fill="#000000" fill-rule="nonzero" fill-opacity="1" /><path clip-path="url(#clip740)" d="M2429.97 49.7694 Q2420.93 49.7694 2417.45 51.8354 Q2413.97 53.9013 2413.97 58.8839 Q2413.97 62.8538 2416.56 65.2034 Q2419.19 67.5124 2423.69 67.5124 Q2429.89 67.5124 2433.61 63.1374 Q2437.38 58.7219 2437.38 51.4303 L2437.38 49.7694 L2429.97 49.7694 M2444.83 46.6907 L2444.83 72.576 L2437.38 72.576 L2437.38 65.6895 Q2434.83 69.8214 2431.02 71.8063 Q2427.21 73.7508 2421.7 73.7508 Q2414.74 73.7508 2410.6 69.8619 Q2406.51 65.9325 2406.51 59.3701 Q2406.51 51.7138 2411.62 47.825 Q2416.76 43.9361 2426.93 43.9361 L2437.38 43.9361 L2437.38 43.2069 Q2437.38 38.0623 2433.98 35.2672 Q2430.62 32.4315 2424.5 32.4315 Q2420.61 32.4315 2416.92 33.3632 Q2413.24 34.295 2409.83 36.1584 L2409.83 29.2718 Q2413.93 27.692 2417.77 26.9223 Q2421.62 26.1121 2425.27 26.1121 Q2435.11 26.1121 2439.97 31.2163 Q2444.83 36.3204 2444.83 46.6907 Z" fill="#000000" fill-rule="nonzero" fill-opacity="1" /><path clip-path="url(#clip740)" d="M2460.19 9.54393 L2467.64 9.54393 L2467.64 72.576 L2460.19 72.576 L2460.19 9.54393 Z" fill="#000000" fill-rule="nonzero" fill-opacity="1" /><path clip-path="url(#clip740)" d="M2547.32 45.1919 L2547.32 72.576 L2539.87 72.576 L2539.87 45.4349 Q2539.87 38.994 2537.36 35.7938 Q2534.85 32.5936 2529.82 32.5936 Q2523.79 32.5936 2520.3 36.4419 Q2516.82 40.2903 2516.82 46.9338 L2516.82 72.576 L2509.33 72.576 L2509.33 9.54393 L2516.82 9.54393 L2516.82 34.2544 Q2519.49 30.163 2523.1 28.1376 Q2526.74 26.1121 2531.48 26.1121 Q2539.3 26.1121 2543.31 30.9732 Q2547.32 35.7938 2547.32 45.1919 Z" fill="#000000" fill-rule="nonzero" fill-opacity="1" /><path clip-path="url(#clip740)" d="M2561.42 54.671 L2561.42 27.2059 L2568.87 27.2059 L2568.87 54.3874 Q2568.87 60.8284 2571.39 64.0691 Q2573.9 67.2693 2578.92 67.2693 Q2584.96 67.2693 2588.44 63.421 Q2591.96 59.5726 2591.96 52.9291 L2591.96 27.2059 L2599.42 27.2059 L2599.42 72.576 L2591.96 72.576 L2591.96 65.6084 Q2589.25 69.7404 2585.64 71.7658 Q2582.08 73.7508 2577.34 73.7508 Q2569.52 73.7508 2565.47 68.8897 Q2561.42 64.0286 2561.42 54.671 M2580.18 26.1121 L2580.18 26.1121 Z" fill="#000000" fill-rule="nonzero" fill-opacity="1" /><path clip-path="url(#clip740)" d="M2650.09 35.9153 Q2652.89 30.8922 2656.78 28.5022 Q2660.67 26.1121 2665.93 26.1121 Q2673.02 26.1121 2676.87 31.0947 Q2680.72 36.0368 2680.72 45.1919 L2680.72 72.576 L2673.22 72.576 L2673.22 45.4349 Q2673.22 38.913 2670.92 35.7533 Q2668.61 32.5936 2663.87 32.5936 Q2658.07 32.5936 2654.71 36.4419 Q2651.35 40.2903 2651.35 46.9338 L2651.35 72.576 L2643.86 72.576 L2643.86 45.4349 Q2643.86 38.8725 2641.55 35.7533 Q2639.24 32.5936 2634.42 32.5936 Q2628.71 32.5936 2625.34 36.4824 Q2621.98 40.3308 2621.98 46.9338 L2621.98 72.576 L2614.49 72.576 L2614.49 27.2059 L2621.98 27.2059 L2621.98 34.2544 Q2624.53 30.082 2628.1 28.0971 Q2631.66 26.1121 2636.56 26.1121 Q2641.51 26.1121 2644.95 28.6237 Q2648.43 31.1352 2650.09 35.9153 Z" fill="#000000" fill-rule="nonzero" fill-opacity="1" /><path clip-path="url(#clip740)" d="M2695.59 27.2059 L2703.04 27.2059 L2703.04 72.576 L2695.59 72.576 L2695.59 27.2059 M2695.59 9.54393 L2703.04 9.54393 L2703.04 18.9825 L2695.59 18.9825 L2695.59 9.54393 Z" fill="#000000" fill-rule="nonzero" fill-opacity="1" /><path clip-path="url(#clip740)" d="M2748.49 34.0924 L2748.49 9.54393 L2755.94 9.54393 L2755.94 72.576 L2748.49 72.576 L2748.49 65.7705 Q2746.14 69.8214 2742.54 71.8063 Q2738.97 73.7508 2733.95 73.7508 Q2725.72 73.7508 2720.54 67.1883 Q2715.39 60.6258 2715.39 49.9314 Q2715.39 39.2371 2720.54 32.6746 Q2725.72 26.1121 2733.95 26.1121 Q2738.97 26.1121 2742.54 28.0971 Q2746.14 30.0415 2748.49 34.0924 M2723.09 49.9314 Q2723.09 58.1548 2726.45 62.8538 Q2729.86 67.5124 2735.77 67.5124 Q2741.69 67.5124 2745.09 62.8538 Q2748.49 58.1548 2748.49 49.9314 Q2748.49 41.7081 2745.09 37.0496 Q2741.69 32.3505 2735.77 32.3505 Q2729.86 32.3505 2726.45 37.0496 Q2723.09 41.7081 2723.09 49.9314 Z" fill="#000000" fill-rule="nonzero" fill-opacity="1" /><path clip-path="url(#clip740)" d="M2771.3 27.2059 L2778.75 27.2059 L2778.75 72.576 L2771.3 72.576 L2771.3 27.2059 M2771.3 9.54393 L2778.75 9.54393 L2778.75 18.9825 L2771.3 18.9825 L2771.3 9.54393 Z" fill="#000000" fill-rule="nonzero" fill-opacity="1" /><path clip-path="url(#clip740)" d="M2801.72 14.324 L2801.72 27.2059 L2817.07 27.2059 L2817.07 32.9987 L2801.72 32.9987 L2801.72 57.6282 Q2801.72 63.1779 2803.22 64.7578 Q2804.76 66.3376 2809.42 66.3376 L2817.07 66.3376 L2817.07 72.576 L2809.42 72.576 Q2800.79 72.576 2797.51 69.3758 Q2794.23 66.1351 2794.23 57.6282 L2794.23 32.9987 L2788.76 32.9987 L2788.76 27.2059 L2794.23 27.2059 L2794.23 14.324 L2801.72 14.324 Z" fill="#000000" fill-rule="nonzero" fill-opacity="1" /><path clip-path="url(#clip740)" d="M2845.75 76.7889 Q2842.59 84.8907 2839.6 87.3618 Q2836.6 89.8329 2831.57 89.8329 L2825.62 89.8329 L2825.62 83.5945 L2829.99 83.5945 Q2833.07 83.5945 2834.77 82.1361 Q2836.48 80.6778 2838.54 75.2496 L2839.88 71.8468 L2821.53 27.2059 L2829.43 27.2059 L2843.61 62.6918 L2857.78 27.2059 L2865.68 27.2059 L2845.75 76.7889 Z" fill="#000000" fill-rule="nonzero" fill-opacity="1" /><polyline clip-path="url(#clip741)" style="stroke:#4682b4; stroke-linecap:round; stroke-linejoin:round; stroke-width:8; stroke-opacity:1; fill:none" points="1856.58,258.184 1880.78,261.302 1904.98,270.61 1929.18,285.973 1953.38,307.166 1977.58,333.881 2001.78,365.728 2025.98,402.243 2050.18,442.892 2074.38,487.084 2098.58,534.174 2122.78,583.475 2146.98,634.269 2171.18,685.814 2195.38,737.359 2219.58,788.152 2243.78,837.453 2267.98,884.543 2292.19,928.735 2316.39,969.385 2340.59,1005.9 2364.79,1037.75 2388.99,1064.46 2413.19,1085.65 2437.39,1101.02 2461.59,1110.33 2485.79,1113.44 2509.99,1110.33 2534.19,1101.02 2558.39,1085.65 2582.59,1064.46 2606.79,1037.75 2630.99,1005.9 2655.19,969.385 2679.39,928.735 2703.59,884.543 2727.79,837.453 2752,788.152 2776.2,737.359 2800.4,685.814 2824.6,634.269 2848.8,583.475 2873,534.174 2897.2,487.084 2921.4,442.892 2945.6,402.243 2969.8,365.728 2994,333.881 3018.2,307.166 3042.4,285.973 3066.6,270.61 3090.8,261.302 3115,258.184 "/>
</svg>
