<?xml version="1.0" encoding="utf-8"?>
<svg xmlns="http://www.w3.org/2000/svg" xmlns:xlink="http://www.w3.org/1999/xlink" width="700" height="350" viewBox="0 0 2800 1400">
<defs>
  <clipPath id="clip920">
    <rect x="0" y="0" width="2800" height="1400"/>
  </clipPath>
</defs>
<path clip-path="url(#clip920)" d="M0 1400 L2800 1400 L2800 0 L0 0  Z" fill="#ffffff" fill-rule="evenodd" fill-opacity="1"/>
<defs>
  <clipPath id="clip921">
    <rect x="211" y="108" width="2543" height="1138"/>
  </clipPath>
</defs>
<path clip-path="url(#clip920)" d="M211.153 1245.7 L2752.76 1245.7 L2752.76 108.352 L211.153 108.352  Z" fill="#ffffff" fill-rule="evenodd" fill-opacity="1"/>
<polyline clip-path="url(#clip921)" style="stroke:#000000; stroke-linecap:round; stroke-linejoin:round; stroke-width:2; stroke-opacity:0.1; fill:none" points="283.085,1245.7 283.085,108.352 "/>
<polyline clip-path="url(#clip921)" style="stroke:#000000; stroke-linecap:round; stroke-linejoin:round; stroke-width:2; stroke-opacity:0.1; fill:none" points="882.52,1245.7 882.52,108.352 "/>
<polyline clip-path="url(#clip921)" style="stroke:#000000; stroke-linecap:round; stroke-linejoin:round; stroke-width:2; stroke-opacity:0.1; fill:none" points="1481.95,1245.7 1481.95,108.352 "/>
<polyline clip-path="url(#clip921)" style="stroke:#000000; stroke-linecap:round; stroke-linejoin:round; stroke-width:2; stroke-opacity:0.1; fill:none" points="2081.39,1245.7 2081.39,108.352 "/>
<polyline clip-path="url(#clip921)" style="stroke:#000000; stroke-linecap:round; stroke-linejoin:round; stroke-width:2; stroke-opacity:0.1; fill:none" points="2680.82,1245.7 2680.82,108.352 "/>
<polyline clip-path="url(#clip921)" style="stroke:#000000; stroke-linecap:round; stroke-linejoin:round; stroke-width:2; stroke-opacity:0.1; fill:none" points="211.153,1105.74 2752.76,1105.74 "/>
<polyline clip-path="url(#clip921)" style="stroke:#000000; stroke-linecap:round; stroke-linejoin:round; stroke-width:2; stroke-opacity:0.1; fill:none" points="211.153,962.055 2752.76,962.055 "/>
<polyline clip-path="url(#clip921)" style="stroke:#000000; stroke-linecap:round; stroke-linejoin:round; stroke-width:2; stroke-opacity:0.1; fill:none" points="211.153,818.366 2752.76,818.366 "/>
<polyline clip-path="url(#clip921)" style="stroke:#000000; stroke-linecap:round; stroke-linejoin:round; stroke-width:2; stroke-opacity:0.1; fill:none" points="211.153,674.678 2752.76,674.678 "/>
<polyline clip-path="url(#clip921)" style="stroke:#000000; stroke-linecap:round; stroke-linejoin:round; stroke-width:2; stroke-opacity:0.1; fill:none" points="211.153,530.989 2752.76,530.989 "/>
<polyline clip-path="url(#clip921)" style="stroke:#000000; stroke-linecap:round; stroke-linejoin:round; stroke-width:2; stroke-opacity:0.1; fill:none" points="211.153,387.3 2752.76,387.3 "/>
<polyline clip-path="url(#clip921)" style="stroke:#000000; stroke-linecap:round; stroke-linejoin:round; stroke-width:2; stroke-opacity:0.1; fill:none" points="211.153,243.611 2752.76,243.611 "/>
<polyline clip-path="url(#clip920)" style="stroke:#000000; stroke-linecap:round; stroke-linejoin:round; stroke-width:4; stroke-opacity:1; fill:none" points="211.153,1245.7 2752.76,1245.7 "/>
<polyline clip-path="url(#clip920)" style="stroke:#000000; stroke-linecap:round; stroke-linejoin:round; stroke-width:4; stroke-opacity:1; fill:none" points="283.085,1245.7 283.085,1226.8 "/>
<polyline clip-path="url(#clip920)" style="stroke:#000000; stroke-linecap:round; stroke-linejoin:round; stroke-width:4; stroke-opacity:1; fill:none" points="882.52,1245.7 882.52,1226.8 "/>
<polyline clip-path="url(#clip920)" style="stroke:#000000; stroke-linecap:round; stroke-linejoin:round; stroke-width:4; stroke-opacity:1; fill:none" points="1481.95,1245.7 1481.95,1226.8 "/>
<polyline clip-path="url(#clip920)" style="stroke:#000000; stroke-linecap:round; stroke-linejoin:round; stroke-width:4; stroke-opacity:1; fill:none" points="2081.39,1245.7 2081.39,1226.8 "/>
<polyline clip-path="url(#clip920)" style="stroke:#000000; stroke-linecap:round; stroke-linejoin:round; stroke-width:4; stroke-opacity:1; fill:none" points="2680.82,1245.7 2680.82,1226.8 "/>
<path clip-path="url(#clip920)" d="M283.085 1279.82 Q279.474 1279.82 277.645 1283.38 Q275.84 1286.92 275.84 1294.05 Q275.84 1301.16 277.645 1304.73 Q279.474 1308.27 283.085 1308.27 Q286.719 1308.27 288.525 1304.73 Q290.354 1301.16 290.354 1294.05 Q290.354 1286.92 288.525 1283.38 Q286.719 1279.82 283.085 1279.82 M283.085 1276.11 Q288.895 1276.11 291.951 1280.72 Q295.029 1285.3 295.029 1294.05 Q295.029 1302.78 291.951 1307.39 Q288.895 1311.97 283.085 1311.97 Q277.275 1311.97 274.196 1307.39 Q271.141 1302.78 271.141 1294.05 Q271.141 1285.3 274.196 1280.72 Q277.275 1276.11 283.085 1276.11 Z" fill="#000000" fill-rule="nonzero" fill-opacity="1" /><path clip-path="url(#clip920)" d="M861.293 1307.36 L877.612 1307.36 L877.612 1311.3 L855.668 1311.3 L855.668 1307.36 Q858.33 1304.61 862.913 1299.98 Q867.52 1295.33 868.7 1293.99 Q870.946 1291.46 871.825 1289.73 Q872.728 1287.97 872.728 1286.28 Q872.728 1283.52 870.784 1281.79 Q868.862 1280.05 865.761 1280.05 Q863.562 1280.05 861.108 1280.81 Q858.677 1281.58 855.9 1283.13 L855.9 1278.41 Q858.724 1277.27 861.177 1276.69 Q863.631 1276.11 865.668 1276.11 Q871.038 1276.11 874.233 1278.8 Q877.427 1281.49 877.427 1285.98 Q877.427 1288.11 876.617 1290.03 Q875.83 1291.92 873.724 1294.52 Q873.145 1295.19 870.043 1298.41 Q866.941 1301.6 861.293 1307.36 Z" fill="#000000" fill-rule="nonzero" fill-opacity="1" /><path clip-path="url(#clip920)" d="M897.427 1279.82 Q893.816 1279.82 891.987 1283.38 Q890.182 1286.92 890.182 1294.05 Q890.182 1301.16 891.987 1304.73 Q893.816 1308.27 897.427 1308.27 Q901.061 1308.27 902.867 1304.73 Q904.696 1301.16 904.696 1294.05 Q904.696 1286.92 902.867 1283.38 Q901.061 1279.82 897.427 1279.82 M897.427 1276.11 Q903.237 1276.11 906.293 1280.72 Q909.371 1285.3 909.371 1294.05 Q909.371 1302.78 906.293 1307.39 Q903.237 1311.97 897.427 1311.97 Q891.617 1311.97 888.538 1307.39 Q885.483 1302.78 885.483 1294.05 Q885.483 1285.3 888.538 1280.72 Q891.617 1276.11 897.427 1276.11 Z" fill="#000000" fill-rule="nonzero" fill-opacity="1" /><path clip-path="url(#clip920)" d="M1470.13 1280.81 L1458.32 1299.26 L1470.13 1299.26 L1470.13 1280.81 M1468.9 1276.74 L1474.78 1276.74 L1474.78 1299.26 L1479.71 1299.26 L1479.71 1303.15 L1474.78 1303.15 L1474.78 1311.3 L1470.13 1311.3 L1470.13 1303.15 L1454.52 1303.15 L1454.52 1298.64 L1468.9 1276.74 Z" fill="#000000" fill-rule="nonzero" fill-opacity="1" /><path clip-path="url(#clip920)" d="M1497.44 1279.82 Q1493.83 1279.82 1492 1283.38 Q1490.2 1286.92 1490.2 1294.05 Q1490.2 1301.16 1492 1304.73 Q1493.83 1308.27 1497.44 1308.27 Q1501.07 1308.27 1502.88 1304.73 Q1504.71 1301.16 1504.71 1294.05 Q1504.71 1286.92 1502.88 1283.38 Q1501.07 1279.82 1497.44 1279.82 M1497.44 1276.11 Q1503.25 1276.11 1506.31 1280.72 Q1509.38 1285.3 1509.38 1294.05 Q1509.38 1302.78 1506.31 1307.39 Q1503.25 1311.97 1497.44 1311.97 Q1491.63 1311.97 1488.55 1307.39 Q1485.5 1302.78 1485.5 1294.05 Q1485.5 1285.3 1488.55 1280.72 Q1491.63 1276.11 1497.44 1276.11 Z" fill="#000000" fill-rule="nonzero" fill-opacity="1" /><path clip-path="url(#clip920)" d="M2066.79 1292.16 Q2063.65 1292.16 2061.79 1294.31 Q2059.97 1296.46 2059.97 1300.21 Q2059.97 1303.94 2061.79 1306.11 Q2063.65 1308.27 2066.79 1308.27 Q2069.94 1308.27 2071.77 1306.11 Q2073.62 1303.94 2073.62 1300.21 Q2073.62 1296.46 2071.77 1294.31 Q2069.94 1292.16 2066.79 1292.16 M2076.08 1277.5 L2076.08 1281.76 Q2074.32 1280.93 2072.51 1280.49 Q2070.73 1280.05 2068.97 1280.05 Q2064.34 1280.05 2061.89 1283.17 Q2059.46 1286.3 2059.11 1292.62 Q2060.47 1290.61 2062.54 1289.54 Q2064.6 1288.45 2067.07 1288.45 Q2072.28 1288.45 2075.29 1291.62 Q2078.32 1294.77 2078.32 1300.21 Q2078.32 1305.54 2075.17 1308.75 Q2072.03 1311.97 2066.79 1311.97 Q2060.8 1311.97 2057.63 1307.39 Q2054.46 1302.78 2054.46 1294.05 Q2054.46 1285.86 2058.35 1281 Q2062.23 1276.11 2068.78 1276.11 Q2070.54 1276.11 2072.33 1276.46 Q2074.13 1276.81 2076.08 1277.5 Z" fill="#000000" fill-rule="nonzero" fill-opacity="1" /><path clip-path="url(#clip920)" d="M2096.38 1279.82 Q2092.77 1279.82 2090.94 1283.38 Q2089.13 1286.92 2089.13 1294.05 Q2089.13 1301.16 2090.94 1304.73 Q2092.77 1308.27 2096.38 1308.27 Q2100.01 1308.27 2101.82 1304.73 Q2103.65 1301.16 2103.65 1294.05 Q2103.65 1286.92 2101.82 1283.38 Q2100.01 1279.82 2096.38 1279.82 M2096.38 1276.11 Q2102.19 1276.11 2105.24 1280.72 Q2108.32 1285.3 2108.32 1294.05 Q2108.32 1302.78 2105.24 1307.39 Q2102.19 1311.97 2096.38 1311.97 Q2090.57 1311.97 2087.49 1307.39 Q2084.43 1302.78 2084.43 1294.05 Q2084.43 1285.3 2087.49 1280.72 Q2090.57 1276.11 2096.38 1276.11 Z" fill="#000000" fill-rule="nonzero" fill-opacity="1" /><path clip-path="url(#clip920)" d="M2665.7 1294.89 Q2662.36 1294.89 2660.44 1296.67 Q2658.54 1298.45 2658.54 1301.58 Q2658.54 1304.7 2660.44 1306.49 Q2662.36 1308.27 2665.7 1308.27 Q2669.03 1308.27 2670.95 1306.49 Q2672.87 1304.68 2672.87 1301.58 Q2672.87 1298.45 2670.95 1296.67 Q2669.05 1294.89 2665.7 1294.89 M2661.02 1292.9 Q2658.01 1292.16 2656.32 1290.1 Q2654.65 1288.04 2654.65 1285.07 Q2654.65 1280.93 2657.59 1278.52 Q2660.56 1276.11 2665.7 1276.11 Q2670.86 1276.11 2673.8 1278.52 Q2676.74 1280.93 2676.74 1285.07 Q2676.74 1288.04 2675.05 1290.1 Q2673.38 1292.16 2670.4 1292.9 Q2673.78 1293.68 2675.65 1295.98 Q2677.55 1298.27 2677.55 1301.58 Q2677.55 1306.6 2674.47 1309.29 Q2671.41 1311.97 2665.7 1311.97 Q2659.98 1311.97 2656.9 1309.29 Q2653.84 1306.6 2653.84 1301.58 Q2653.84 1298.27 2655.74 1295.98 Q2657.64 1293.68 2661.02 1292.9 M2659.31 1285.51 Q2659.31 1288.2 2660.97 1289.7 Q2662.66 1291.21 2665.7 1291.21 Q2668.71 1291.21 2670.4 1289.7 Q2672.11 1288.2 2672.11 1285.51 Q2672.11 1282.83 2670.4 1281.32 Q2668.71 1279.82 2665.7 1279.82 Q2662.66 1279.82 2660.97 1281.32 Q2659.31 1282.83 2659.31 1285.51 Z" fill="#000000" fill-rule="nonzero" fill-opacity="1" /><path clip-path="url(#clip920)" d="M2695.86 1279.82 Q2692.25 1279.82 2690.42 1283.38 Q2688.61 1286.92 2688.61 1294.05 Q2688.61 1301.16 2690.42 1304.73 Q2692.25 1308.27 2695.86 1308.27 Q2699.49 1308.27 2701.3 1304.73 Q2703.13 1301.16 2703.13 1294.05 Q2703.13 1286.92 2701.3 1283.38 Q2699.49 1279.82 2695.86 1279.82 M2695.86 1276.11 Q2701.67 1276.11 2704.72 1280.72 Q2707.8 1285.3 2707.8 1294.05 Q2707.8 1302.78 2704.72 1307.39 Q2701.67 1311.97 2695.86 1311.97 Q2690.05 1311.97 2686.97 1307.39 Q2683.91 1302.78 2683.91 1294.05 Q2683.91 1285.3 2686.97 1280.72 Q2690.05 1276.11 2695.86 1276.11 Z" fill="#000000" fill-rule="nonzero" fill-opacity="1" /><path clip-path="url(#clip920)" d="M1108.65 1394.37 L1108.65 1410.12 L1102.77 1410.12 L1102.77 1361.14 Q1102.77 1346.62 1116.32 1346.62 Q1130.14 1346.62 1130.14 1358.88 Q1130.14 1367.6 1124.66 1370.78 Q1133.58 1373.65 1133.58 1382.15 Q1133.58 1397.23 1118.23 1397.23 Q1111.49 1397.23 1108.65 1394.37 M1108.65 1386.73 Q1112.19 1392.24 1118.46 1392.24 Q1127.62 1392.24 1127.62 1382.24 Q1127.62 1373.27 1112.85 1373.97 L1112.85 1368.55 Q1124.41 1368.55 1124.41 1358.37 Q1124.41 1351.4 1116.96 1351.4 Q1108.65 1351.4 1108.65 1361.33 L1108.65 1386.73 Z" fill="#000000" fill-rule="nonzero" fill-opacity="1" /><path clip-path="url(#clip920)" d="M1179.19 1347.1 Q1174.92 1354.42 1172.85 1361.58 Q1170.78 1368.75 1170.78 1376.1 Q1170.78 1383.45 1172.85 1390.68 Q1174.95 1397.87 1179.19 1405.16 L1174.09 1405.16 Q1169.32 1397.68 1166.93 1390.45 Q1164.58 1383.23 1164.58 1376.1 Q1164.58 1369 1166.93 1361.81 Q1169.29 1354.61 1174.09 1347.1 L1179.19 1347.1 Z" fill="#000000" fill-rule="nonzero" fill-opacity="1" /><path clip-path="url(#clip920)" d="M1221.04 1377.28 L1221.04 1380.14 L1194.11 1380.14 Q1194.5 1386.19 1197.74 1389.37 Q1201.02 1392.52 1206.84 1392.52 Q1210.22 1392.52 1213.37 1391.69 Q1216.55 1390.87 1219.67 1389.21 L1219.67 1394.75 Q1216.52 1396.09 1213.21 1396.79 Q1209.9 1397.49 1206.49 1397.49 Q1197.96 1397.49 1192.97 1392.52 Q1188 1387.56 1188 1379.09 Q1188 1370.34 1192.71 1365.21 Q1197.46 1360.06 1205.48 1360.06 Q1212.67 1360.06 1216.84 1364.7 Q1221.04 1369.32 1221.04 1377.28 M1215.18 1375.56 Q1215.12 1370.75 1212.48 1367.89 Q1209.87 1365.02 1205.54 1365.02 Q1200.64 1365.02 1197.68 1367.79 Q1194.75 1370.56 1194.3 1375.59 L1215.18 1375.56 Z" fill="#000000" fill-rule="nonzero" fill-opacity="1" /><path clip-path="url(#clip920)" d="M1254.11 1378.33 Q1254.11 1371.96 1251.47 1368.46 Q1248.86 1364.96 1244.12 1364.96 Q1239.41 1364.96 1236.76 1368.46 Q1234.15 1371.96 1234.15 1378.33 Q1234.15 1384.66 1236.76 1388.16 Q1239.41 1391.66 1244.12 1391.66 Q1248.86 1391.66 1251.47 1388.16 Q1254.11 1384.66 1254.11 1378.33 M1259.97 1392.14 Q1259.97 1401.24 1255.92 1405.67 Q1251.88 1410.12 1243.54 1410.12 Q1240.46 1410.12 1237.72 1409.65 Q1234.98 1409.2 1232.4 1408.24 L1232.4 1402.55 Q1234.98 1403.95 1237.5 1404.62 Q1240.01 1405.28 1242.62 1405.28 Q1248.38 1405.28 1251.25 1402.26 Q1254.11 1399.27 1254.11 1393.19 L1254.11 1390.29 Q1252.3 1393.44 1249.46 1395 Q1246.63 1396.56 1242.68 1396.56 Q1236.13 1396.56 1232.12 1391.57 Q1228.11 1386.57 1228.11 1378.33 Q1228.11 1370.05 1232.12 1365.05 Q1236.13 1360.06 1242.68 1360.06 Q1246.63 1360.06 1249.46 1361.62 Q1252.3 1363.18 1254.11 1366.33 L1254.11 1360.92 L1259.97 1360.92 L1259.97 1392.14 Z" fill="#000000" fill-rule="nonzero" fill-opacity="1" /><path clip-path="url(#clip920)" d="M1295.49 1378.33 Q1295.49 1371.96 1292.85 1368.46 Q1290.24 1364.96 1285.49 1364.96 Q1280.78 1364.96 1278.14 1368.46 Q1275.53 1371.96 1275.53 1378.33 Q1275.53 1384.66 1278.14 1388.16 Q1280.78 1391.66 1285.49 1391.66 Q1290.24 1391.66 1292.85 1388.16 Q1295.49 1384.66 1295.49 1378.33 M1301.34 1392.14 Q1301.34 1401.24 1297.3 1405.67 Q1293.26 1410.12 1284.92 1410.12 Q1281.83 1410.12 1279.1 1409.65 Q1276.36 1409.2 1273.78 1408.24 L1273.78 1402.55 Q1276.36 1403.95 1278.87 1404.62 Q1281.39 1405.28 1284 1405.28 Q1289.76 1405.28 1292.62 1402.26 Q1295.49 1399.27 1295.49 1393.19 L1295.49 1390.29 Q1293.67 1393.44 1290.84 1395 Q1288.01 1396.56 1284.06 1396.56 Q1277.5 1396.56 1273.49 1391.57 Q1269.48 1386.57 1269.48 1378.33 Q1269.48 1370.05 1273.49 1365.05 Q1277.5 1360.06 1284.06 1360.06 Q1288.01 1360.06 1290.84 1361.62 Q1293.67 1363.18 1295.49 1366.33 L1295.49 1360.92 L1301.34 1360.92 L1301.34 1392.14 Z" fill="#000000" fill-rule="nonzero" fill-opacity="1" /><path clip-path="url(#clip920)" d="M1336.13 1361.97 L1336.13 1367.5 Q1333.65 1366.23 1330.98 1365.59 Q1328.3 1364.96 1325.44 1364.96 Q1321.08 1364.96 1318.88 1366.29 Q1316.72 1367.63 1316.72 1370.31 Q1316.72 1372.34 1318.28 1373.52 Q1319.84 1374.67 1324.55 1375.72 L1326.55 1376.16 Q1332.79 1377.5 1335.4 1379.95 Q1338.04 1382.37 1338.04 1386.73 Q1338.04 1391.69 1334.09 1394.59 Q1330.18 1397.49 1323.31 1397.49 Q1320.44 1397.49 1317.32 1396.91 Q1314.23 1396.37 1310.8 1395.26 L1310.8 1389.21 Q1314.04 1390.9 1317.19 1391.76 Q1320.35 1392.59 1323.43 1392.59 Q1327.57 1392.59 1329.8 1391.18 Q1332.03 1389.75 1332.03 1387.17 Q1332.03 1384.79 1330.4 1383.51 Q1328.81 1382.24 1323.37 1381.06 L1321.33 1380.59 Q1315.89 1379.44 1313.47 1377.08 Q1311.05 1374.7 1311.05 1370.56 Q1311.05 1365.53 1314.62 1362.79 Q1318.18 1360.06 1324.74 1360.06 Q1327.98 1360.06 1330.85 1360.53 Q1333.71 1361.01 1336.13 1361.97 Z" fill="#000000" fill-rule="nonzero" fill-opacity="1" /><path clip-path="url(#clip920)" d="M1348.2 1369.89 L1354.91 1369.89 L1354.91 1377.98 L1348.2 1377.98 L1348.2 1369.89 Z" fill="#000000" fill-rule="nonzero" fill-opacity="1" /><path clip-path="url(#clip920)" d="M1384.29 1378.64 Q1377.19 1378.64 1374.45 1380.27 Q1371.72 1381.89 1371.72 1385.81 Q1371.72 1388.92 1373.75 1390.77 Q1375.82 1392.59 1379.36 1392.59 Q1384.22 1392.59 1387.15 1389.15 Q1390.11 1385.68 1390.11 1379.95 L1390.11 1378.64 L1384.29 1378.64 M1395.97 1376.23 L1395.97 1396.56 L1390.11 1396.56 L1390.11 1391.15 Q1388.11 1394.4 1385.12 1395.96 Q1382.12 1397.49 1377.8 1397.49 Q1372.32 1397.49 1369.07 1394.43 Q1365.86 1391.34 1365.86 1386.19 Q1365.86 1380.17 1369.87 1377.12 Q1373.91 1374.06 1381.9 1374.06 L1390.11 1374.06 L1390.11 1373.49 Q1390.11 1369.45 1387.44 1367.25 Q1384.8 1365.02 1379.99 1365.02 Q1376.94 1365.02 1374.04 1365.75 Q1371.14 1366.49 1368.47 1367.95 L1368.47 1362.54 Q1371.68 1361.3 1374.71 1360.69 Q1377.73 1360.06 1380.6 1360.06 Q1388.33 1360.06 1392.15 1364.07 Q1395.97 1368.08 1395.97 1376.23 Z" fill="#000000" fill-rule="nonzero" fill-opacity="1" /><path clip-path="url(#clip920)" d="M1431.49 1366.33 L1431.49 1347.04 L1437.35 1347.04 L1437.35 1396.56 L1431.49 1396.56 L1431.49 1391.22 Q1429.64 1394.4 1426.81 1395.96 Q1424.01 1397.49 1420.06 1397.49 Q1413.6 1397.49 1409.53 1392.33 Q1405.49 1387.17 1405.49 1378.77 Q1405.49 1370.37 1409.53 1365.21 Q1413.6 1360.06 1420.06 1360.06 Q1424.01 1360.06 1426.81 1361.62 Q1429.64 1363.14 1431.49 1366.33 M1411.53 1378.77 Q1411.53 1385.23 1414.18 1388.92 Q1416.85 1392.59 1421.5 1392.59 Q1426.14 1392.59 1428.82 1388.92 Q1431.49 1385.23 1431.49 1378.77 Q1431.49 1372.31 1428.82 1368.65 Q1426.14 1364.96 1421.5 1364.96 Q1416.85 1364.96 1414.18 1368.65 Q1411.53 1372.31 1411.53 1378.77 Z" fill="#000000" fill-rule="nonzero" fill-opacity="1" /><path clip-path="url(#clip920)" d="M1448.81 1382.5 L1448.81 1360.92 L1454.66 1360.92 L1454.66 1382.27 Q1454.66 1387.33 1456.63 1389.88 Q1458.61 1392.39 1462.55 1392.39 Q1467.3 1392.39 1470.03 1389.37 Q1472.8 1386.35 1472.8 1381.13 L1472.8 1360.92 L1478.66 1360.92 L1478.66 1396.56 L1472.8 1396.56 L1472.8 1391.09 Q1470.67 1394.34 1467.84 1395.93 Q1465.04 1397.49 1461.31 1397.49 Q1455.17 1397.49 1451.99 1393.67 Q1448.81 1389.85 1448.81 1382.5 M1463.54 1360.06 L1463.54 1360.06 Z" fill="#000000" fill-rule="nonzero" fill-opacity="1" /><path clip-path="url(#clip920)" d="M1490.72 1347.04 L1496.58 1347.04 L1496.58 1396.56 L1490.72 1396.56 L1490.72 1347.04 Z" fill="#000000" fill-rule="nonzero" fill-opacity="1" /><path clip-path="url(#clip920)" d="M1514.63 1350.79 L1514.63 1360.92 L1526.69 1360.92 L1526.69 1365.47 L1514.63 1365.47 L1514.63 1384.82 Q1514.63 1389.18 1515.8 1390.42 Q1517.01 1391.66 1520.67 1391.66 L1526.69 1391.66 L1526.69 1396.56 L1520.67 1396.56 Q1513.89 1396.56 1511.32 1394.05 Q1508.74 1391.5 1508.74 1384.82 L1508.74 1365.47 L1504.44 1365.47 L1504.44 1360.92 L1508.74 1360.92 L1508.74 1350.79 L1514.63 1350.79 Z" fill="#000000" fill-rule="nonzero" fill-opacity="1" /><path clip-path="url(#clip920)" d="M1532.61 1362.35 L1558.3 1362.35 L1558.3 1365.37 L1532.61 1365.37 L1532.61 1362.35 Z" fill="#000000" fill-rule="nonzero" fill-opacity="1" /><path clip-path="url(#clip920)" d="M1567.62 1371.8 L1574.11 1371.8 L1574.11 1352.35 L1567.02 1353.66 L1567.02 1349.97 L1574.34 1348.73 L1578.7 1348.73 L1578.7 1371.8 L1585.22 1371.8 L1585.22 1375.3 L1567.62 1375.3 L1567.62 1371.8 Z" fill="#000000" fill-rule="nonzero" fill-opacity="1" /><path clip-path="url(#clip920)" d="M1595.76 1369.89 L1602.47 1369.89 L1602.47 1377.98 L1595.76 1377.98 L1595.76 1369.89 Z" fill="#000000" fill-rule="nonzero" fill-opacity="1" /><path clip-path="url(#clip920)" d="M1612.24 1360.92 L1618.1 1360.92 L1625.42 1388.73 L1632.71 1360.92 L1639.62 1360.92 L1646.94 1388.73 L1654.23 1360.92 L1660.08 1360.92 L1650.76 1396.56 L1643.85 1396.56 L1636.18 1367.35 L1628.48 1396.56 L1621.57 1396.56 L1612.24 1360.92 Z" fill="#000000" fill-rule="nonzero" fill-opacity="1" /><path clip-path="url(#clip920)" d="M1699.45 1377.28 L1699.45 1380.14 L1672.53 1380.14 Q1672.91 1386.19 1676.16 1389.37 Q1679.43 1392.52 1685.26 1392.52 Q1688.63 1392.52 1691.78 1391.69 Q1694.97 1390.87 1698.09 1389.21 L1698.09 1394.75 Q1694.94 1396.09 1691.62 1396.79 Q1688.31 1397.49 1684.91 1397.49 Q1676.38 1397.49 1671.38 1392.52 Q1666.42 1387.56 1666.42 1379.09 Q1666.42 1370.34 1671.13 1365.21 Q1675.87 1360.06 1683.89 1360.06 Q1691.08 1360.06 1695.25 1364.7 Q1699.45 1369.32 1699.45 1377.28 M1693.6 1375.56 Q1693.53 1370.75 1690.89 1367.89 Q1688.28 1365.02 1683.95 1365.02 Q1679.05 1365.02 1676.09 1367.79 Q1673.16 1370.56 1672.72 1375.59 L1693.6 1375.56 Z" fill="#000000" fill-rule="nonzero" fill-opacity="1" /><path clip-path="url(#clip920)" d="M1739.56 1377.28 L1739.56 1380.14 L1712.63 1380.14 Q1713.01 1386.19 1716.26 1389.37 Q1719.54 1392.52 1725.36 1392.52 Q1728.74 1392.52 1731.89 1391.69 Q1735.07 1390.87 1738.19 1389.21 L1738.19 1394.75 Q1735.04 1396.09 1731.73 1396.79 Q1728.42 1397.49 1725.01 1397.49 Q1716.48 1397.49 1711.49 1392.52 Q1706.52 1387.56 1706.52 1379.09 Q1706.52 1370.34 1711.23 1365.21 Q1715.97 1360.06 1723.99 1360.06 Q1731.19 1360.06 1735.36 1364.7 Q1739.56 1369.32 1739.56 1377.28 M1733.7 1375.56 Q1733.64 1370.75 1731 1367.89 Q1728.39 1365.02 1724.06 1365.02 Q1719.16 1365.02 1716.2 1367.79 Q1713.27 1370.56 1712.82 1375.59 L1733.7 1375.56 Z" fill="#000000" fill-rule="nonzero" fill-opacity="1" /><path clip-path="url(#clip920)" d="M1748.95 1347.04 L1754.84 1347.04 L1754.84 1376.29 L1772.31 1360.92 L1779.79 1360.92 L1760.88 1377.59 L1780.59 1396.56 L1772.95 1396.56 L1754.84 1379.15 L1754.84 1396.56 L1748.95 1396.56 L1748.95 1347.04 Z" fill="#000000" fill-rule="nonzero" fill-opacity="1" /><path clip-path="url(#clip920)" d="M1785.14 1362.35 L1810.82 1362.35 L1810.82 1365.37 L1785.14 1365.37 L1785.14 1362.35 Z" fill="#000000" fill-rule="nonzero" fill-opacity="1" /><path clip-path="url(#clip920)" d="M1820.15 1371.8 L1826.64 1371.8 L1826.64 1352.35 L1819.54 1353.66 L1819.54 1349.97 L1826.86 1348.73 L1831.22 1348.73 L1831.22 1371.8 L1837.75 1371.8 L1837.75 1375.3 L1820.15 1375.3 L1820.15 1371.8 Z" fill="#000000" fill-rule="nonzero" fill-opacity="1" /><path clip-path="url(#clip920)" d="M1846.53 1347.1 L1851.63 1347.1 Q1856.4 1354.61 1858.76 1361.81 Q1861.14 1369 1861.14 1376.1 Q1861.14 1383.23 1858.76 1390.45 Q1856.4 1397.68 1851.63 1405.16 L1846.53 1405.16 Q1850.77 1397.87 1852.84 1390.68 Q1854.94 1383.45 1854.94 1376.1 Q1854.94 1368.75 1852.84 1361.58 Q1850.77 1354.42 1846.53 1347.1 Z" fill="#000000" fill-rule="nonzero" fill-opacity="1" /><polyline clip-path="url(#clip920)" style="stroke:#000000; stroke-linecap:round; stroke-linejoin:round; stroke-width:4; stroke-opacity:1; fill:none" points="211.153,1245.7 211.153,108.352 "/>
<polyline clip-path="url(#clip920)" style="stroke:#000000; stroke-linecap:round; stroke-linejoin:round; stroke-width:4; stroke-opacity:1; fill:none" points="211.153,1105.74 230.051,1105.74 "/>
<polyline clip-path="url(#clip920)" style="stroke:#000000; stroke-linecap:round; stroke-linejoin:round; stroke-width:4; stroke-opacity:1; fill:none" points="211.153,962.055 230.051,962.055 "/>
<polyline clip-path="url(#clip920)" style="stroke:#000000; stroke-linecap:round; stroke-linejoin:round; stroke-width:4; stroke-opacity:1; fill:none" points="211.153,818.366 230.051,818.366 "/>
<polyline clip-path="url(#clip920)" style="stroke:#000000; stroke-linecap:round; stroke-linejoin:round; stroke-width:4; stroke-opacity:1; fill:none" points="211.153,674.678 230.051,674.678 "/>
<polyline clip-path="url(#clip920)" style="stroke:#000000; stroke-linecap:round; stroke-linejoin:round; stroke-width:4; stroke-opacity:1; fill:none" points="211.153,530.989 230.051,530.989 "/>
<polyline clip-path="url(#clip920)" style="stroke:#000000; stroke-linecap:round; stroke-linejoin:round; stroke-width:4; stroke-opacity:1; fill:none" points="211.153,387.3 230.051,387.3 "/>
<polyline clip-path="url(#clip920)" style="stroke:#000000; stroke-linecap:round; stroke-linejoin:round; stroke-width:4; stroke-opacity:1; fill:none" points="211.153,243.611 230.051,243.611 "/>
<path clip-path="url(#clip920)" d="M102.788 1119.09 L110.426 1119.09 L110.426 1092.72 L102.116 1094.39 L102.116 1090.13 L110.38 1088.46 L115.056 1088.46 L115.056 1119.09 L122.695 1119.09 L122.695 1123.02 L102.788 1123.02 L102.788 1119.09 Z" fill="#000000" fill-rule="nonzero" fill-opacity="1" /><path clip-path="url(#clip920)" d="M132.139 1117.14 L137.023 1117.14 L137.023 1123.02 L132.139 1123.02 L132.139 1117.14 Z" fill="#000000" fill-rule="nonzero" fill-opacity="1" /><path clip-path="url(#clip920)" d="M157.209 1091.54 Q153.597 1091.54 151.769 1095.11 Q149.963 1098.65 149.963 1105.78 Q149.963 1112.89 151.769 1116.45 Q153.597 1119.99 157.209 1119.99 Q160.843 1119.99 162.648 1116.45 Q164.477 1112.89 164.477 1105.78 Q164.477 1098.65 162.648 1095.11 Q160.843 1091.54 157.209 1091.54 M157.209 1087.84 Q163.019 1087.84 166.074 1092.45 Q169.153 1097.03 169.153 1105.78 Q169.153 1114.51 166.074 1119.11 Q163.019 1123.7 157.209 1123.7 Q151.398 1123.7 148.32 1119.11 Q145.264 1114.51 145.264 1105.78 Q145.264 1097.03 148.32 1092.45 Q151.398 1087.84 157.209 1087.84 Z" fill="#000000" fill-rule="nonzero" fill-opacity="1" /><path clip-path="url(#clip920)" d="M104.385 975.4 L112.024 975.4 L112.024 949.035 L103.713 950.701 L103.713 946.442 L111.977 944.775 L116.653 944.775 L116.653 975.4 L124.292 975.4 L124.292 979.335 L104.385 979.335 L104.385 975.4 Z" fill="#000000" fill-rule="nonzero" fill-opacity="1" /><path clip-path="url(#clip920)" d="M133.736 973.456 L138.621 973.456 L138.621 979.335 L133.736 979.335 L133.736 973.456 Z" fill="#000000" fill-rule="nonzero" fill-opacity="1" /><path clip-path="url(#clip920)" d="M152.834 975.4 L169.153 975.4 L169.153 979.335 L147.209 979.335 L147.209 975.4 Q149.871 972.645 154.454 968.016 Q159.06 963.363 160.241 962.021 Q162.486 959.497 163.366 957.761 Q164.269 956.002 164.269 954.312 Q164.269 951.558 162.324 949.822 Q160.403 948.085 157.301 948.085 Q155.102 948.085 152.648 948.849 Q150.218 949.613 147.44 951.164 L147.44 946.442 Q150.264 945.308 152.718 944.729 Q155.172 944.15 157.209 944.15 Q162.579 944.15 165.773 946.835 Q168.968 949.521 168.968 954.011 Q168.968 956.141 168.158 958.062 Q167.371 959.96 165.264 962.553 Q164.685 963.224 161.584 966.442 Q158.482 969.636 152.834 975.4 Z" fill="#000000" fill-rule="nonzero" fill-opacity="1" /><path clip-path="url(#clip920)" d="M102.301 831.711 L109.94 831.711 L109.94 805.346 L101.63 807.012 L101.63 802.753 L109.894 801.086 L114.57 801.086 L114.57 831.711 L122.209 831.711 L122.209 835.646 L102.301 835.646 L102.301 831.711 Z" fill="#000000" fill-rule="nonzero" fill-opacity="1" /><path clip-path="url(#clip920)" d="M131.653 829.767 L136.537 829.767 L136.537 835.646 L131.653 835.646 L131.653 829.767 Z" fill="#000000" fill-rule="nonzero" fill-opacity="1" /><path clip-path="url(#clip920)" d="M159.57 805.16 L147.764 823.609 L159.57 823.609 L159.57 805.16 M158.343 801.086 L164.222 801.086 L164.222 823.609 L169.153 823.609 L169.153 827.498 L164.222 827.498 L164.222 835.646 L159.57 835.646 L159.57 827.498 L143.968 827.498 L143.968 822.984 L158.343 801.086 Z" fill="#000000" fill-rule="nonzero" fill-opacity="1" /><path clip-path="url(#clip920)" d="M102.626 688.022 L110.264 688.022 L110.264 661.657 L101.954 663.323 L101.954 659.064 L110.218 657.398 L114.894 657.398 L114.894 688.022 L122.533 688.022 L122.533 691.958 L102.626 691.958 L102.626 688.022 Z" fill="#000000" fill-rule="nonzero" fill-opacity="1" /><path clip-path="url(#clip920)" d="M131.977 686.078 L136.861 686.078 L136.861 691.958 L131.977 691.958 L131.977 686.078 Z" fill="#000000" fill-rule="nonzero" fill-opacity="1" /><path clip-path="url(#clip920)" d="M157.625 672.814 Q154.477 672.814 152.625 674.967 Q150.797 677.12 150.797 680.87 Q150.797 684.596 152.625 686.772 Q154.477 688.925 157.625 688.925 Q160.773 688.925 162.602 686.772 Q164.454 684.596 164.454 680.87 Q164.454 677.12 162.602 674.967 Q160.773 672.814 157.625 672.814 M166.908 658.161 L166.908 662.421 Q165.148 661.587 163.343 661.148 Q161.56 660.708 159.801 660.708 Q155.172 660.708 152.718 663.833 Q150.287 666.958 149.94 673.277 Q151.306 671.263 153.366 670.198 Q155.426 669.11 157.903 669.11 Q163.111 669.11 166.121 672.282 Q169.153 675.43 169.153 680.87 Q169.153 686.194 166.005 689.411 Q162.857 692.629 157.625 692.629 Q151.63 692.629 148.459 688.046 Q145.287 683.439 145.287 674.712 Q145.287 666.518 149.176 661.657 Q153.065 656.773 159.616 656.773 Q161.375 656.773 163.158 657.12 Q164.963 657.467 166.908 658.161 Z" fill="#000000" fill-rule="nonzero" fill-opacity="1" /><path clip-path="url(#clip920)" d="M102.88 544.334 L110.519 544.334 L110.519 517.968 L102.209 519.635 L102.209 515.375 L110.473 513.709 L115.149 513.709 L115.149 544.334 L122.787 544.334 L122.787 548.269 L102.88 548.269 L102.88 544.334 Z" fill="#000000" fill-rule="nonzero" fill-opacity="1" /><path clip-path="url(#clip920)" d="M132.232 542.389 L137.116 542.389 L137.116 548.269 L132.232 548.269 L132.232 542.389 Z" fill="#000000" fill-rule="nonzero" fill-opacity="1" /><path clip-path="url(#clip920)" d="M157.301 531.857 Q153.968 531.857 152.047 533.639 Q150.148 535.422 150.148 538.547 Q150.148 541.672 152.047 543.454 Q153.968 545.236 157.301 545.236 Q160.634 545.236 162.556 543.454 Q164.477 541.648 164.477 538.547 Q164.477 535.422 162.556 533.639 Q160.658 531.857 157.301 531.857 M152.625 529.866 Q149.616 529.125 147.926 527.065 Q146.26 525.005 146.26 522.042 Q146.26 517.899 149.199 515.491 Q152.162 513.084 157.301 513.084 Q162.463 513.084 165.403 515.491 Q168.343 517.899 168.343 522.042 Q168.343 525.005 166.653 527.065 Q164.986 529.125 162 529.866 Q165.38 530.653 167.255 532.945 Q169.153 535.236 169.153 538.547 Q169.153 543.57 166.074 546.255 Q163.019 548.94 157.301 548.94 Q151.584 548.94 148.505 546.255 Q145.449 543.57 145.449 538.547 Q145.449 535.236 147.347 532.945 Q149.246 530.653 152.625 529.866 M150.912 522.482 Q150.912 525.167 152.579 526.672 Q154.269 528.176 157.301 528.176 Q160.31 528.176 162 526.672 Q163.713 525.167 163.713 522.482 Q163.713 519.797 162 518.292 Q160.31 516.787 157.301 516.787 Q154.269 516.787 152.579 518.292 Q150.912 519.797 150.912 522.482 Z" fill="#000000" fill-rule="nonzero" fill-opacity="1" /><path clip-path="url(#clip920)" d="M106.005 400.645 L122.324 400.645 L122.324 404.58 L100.38 404.58 L100.38 400.645 Q103.042 397.89 107.625 393.26 Q112.232 388.608 113.412 387.265 Q115.658 384.742 116.537 383.006 Q117.44 381.247 117.44 379.557 Q117.44 376.802 115.496 375.066 Q113.575 373.33 110.473 373.33 Q108.274 373.33 105.82 374.094 Q103.389 374.858 100.612 376.409 L100.612 371.687 Q103.436 370.552 105.889 369.974 Q108.343 369.395 110.38 369.395 Q115.75 369.395 118.945 372.08 Q122.139 374.765 122.139 379.256 Q122.139 381.386 121.329 383.307 Q120.542 385.205 118.436 387.798 Q117.857 388.469 114.755 391.686 Q111.653 394.881 106.005 400.645 Z" fill="#000000" fill-rule="nonzero" fill-opacity="1" /><path clip-path="url(#clip920)" d="M132.139 398.7 L137.023 398.7 L137.023 404.58 L132.139 404.58 L132.139 398.7 Z" fill="#000000" fill-rule="nonzero" fill-opacity="1" /><path clip-path="url(#clip920)" d="M157.209 373.099 Q153.597 373.099 151.769 376.663 Q149.963 380.205 149.963 387.335 Q149.963 394.441 151.769 398.006 Q153.597 401.547 157.209 401.547 Q160.843 401.547 162.648 398.006 Q164.477 394.441 164.477 387.335 Q164.477 380.205 162.648 376.663 Q160.843 373.099 157.209 373.099 M157.209 369.395 Q163.019 369.395 166.074 374.001 Q169.153 378.585 169.153 387.335 Q169.153 396.061 166.074 400.668 Q163.019 405.251 157.209 405.251 Q151.398 405.251 148.32 400.668 Q145.264 396.061 145.264 387.335 Q145.264 378.585 148.32 374.001 Q151.398 369.395 157.209 369.395 Z" fill="#000000" fill-rule="nonzero" fill-opacity="1" /><path clip-path="url(#clip920)" d="M107.602 256.956 L123.922 256.956 L123.922 260.891 L101.977 260.891 L101.977 256.956 Q104.639 254.201 109.223 249.572 Q113.829 244.919 115.01 243.576 Q117.255 241.053 118.135 239.317 Q119.037 237.558 119.037 235.868 Q119.037 233.113 117.093 231.377 Q115.172 229.641 112.07 229.641 Q109.871 229.641 107.417 230.405 Q104.987 231.169 102.209 232.72 L102.209 227.998 Q105.033 226.863 107.487 226.285 Q109.94 225.706 111.977 225.706 Q117.348 225.706 120.542 228.391 Q123.737 231.076 123.737 235.567 Q123.737 237.697 122.926 239.618 Q122.139 241.516 120.033 244.109 Q119.454 244.78 116.352 247.998 Q113.25 251.192 107.602 256.956 Z" fill="#000000" fill-rule="nonzero" fill-opacity="1" /><path clip-path="url(#clip920)" d="M133.736 255.011 L138.621 255.011 L138.621 260.891 L133.736 260.891 L133.736 255.011 Z" fill="#000000" fill-rule="nonzero" fill-opacity="1" /><path clip-path="url(#clip920)" d="M152.834 256.956 L169.153 256.956 L169.153 260.891 L147.209 260.891 L147.209 256.956 Q149.871 254.201 154.454 249.572 Q159.06 244.919 160.241 243.576 Q162.486 241.053 163.366 239.317 Q164.269 237.558 164.269 235.868 Q164.269 233.113 162.324 231.377 Q160.403 229.641 157.301 229.641 Q155.102 229.641 152.648 230.405 Q150.218 231.169 147.44 232.72 L147.44 227.998 Q150.264 226.863 152.718 226.285 Q155.172 225.706 157.209 225.706 Q162.579 225.706 165.773 228.391 Q168.968 231.076 168.968 235.567 Q168.968 237.697 168.158 239.618 Q167.371 241.516 165.264 244.109 Q164.685 244.78 161.584 247.998 Q158.482 251.192 152.834 256.956 Z" fill="#000000" fill-rule="nonzero" fill-opacity="1" /><path clip-path="url(#clip920)" d="M-1.83624 971.758 L4.43398 971.758 Q2.68341 975.418 1.82404 978.665 Q0.964667 981.912 0.964667 984.935 Q0.964667 990.187 3.00169 993.051 Q5.03872 995.884 8.79449 995.884 Q11.9455 995.884 13.5688 994.006 Q15.1602 992.097 16.1469 986.813 L16.9426 982.93 Q18.3112 975.737 21.7805 972.331 Q25.218 968.894 31.0108 968.894 Q37.9176 968.894 41.4824 973.541 Q45.0472 978.156 45.0472 987.1 Q45.0472 990.473 44.2833 994.293 Q43.5194 998.08 42.0235 1002.15 L35.4031 1002.15 Q37.5993 998.24 38.7133 994.484 Q39.8273 990.728 39.8273 987.1 Q39.8273 981.593 37.663 978.601 Q35.4986 975.609 31.4882 975.609 Q27.9871 975.609 26.0137 977.774 Q24.0404 979.906 23.0537 984.808 L22.2898 988.723 Q20.8575 995.916 17.802 999.131 Q14.7464 1002.35 9.30374 1002.35 Q3.00169 1002.35 -0.62676 997.921 Q-4.25521 993.465 -4.25521 985.667 Q-4.25521 982.325 -3.65047 978.856 Q-3.04573 975.387 -1.83624 971.758 Z" fill="#000000" fill-rule="nonzero" fill-opacity="1" /><path clip-path="url(#clip920)" d="M38.777 953.457 L57.6831 953.457 L57.6831 959.345 L8.4762 959.345 L8.4762 953.457 L13.8871 953.457 Q10.7042 951.611 9.17643 948.81 Q7.61683 945.977 7.61683 942.062 Q7.61683 935.569 12.7731 931.527 Q17.9293 927.453 26.332 927.453 Q34.7347 927.453 39.891 931.527 Q45.0472 935.569 45.0472 942.062 Q45.0472 945.977 43.5194 948.81 Q41.9598 951.611 38.777 953.457 M26.332 933.532 Q19.8708 933.532 16.2105 936.206 Q12.5184 938.847 12.5184 943.494 Q12.5184 948.141 16.2105 950.815 Q19.8708 953.457 26.332 953.457 Q32.7932 953.457 36.4853 950.815 Q40.1456 948.141 40.1456 943.494 Q40.1456 938.847 36.4853 936.206 Q32.7932 933.532 26.332 933.532 Z" fill="#000000" fill-rule="nonzero" fill-opacity="1" /><path clip-path="url(#clip920)" d="M24.8361 887.253 L27.7006 887.253 L27.7006 914.18 Q33.7481 913.798 36.9309 910.552 Q40.0819 907.274 40.0819 901.449 Q40.0819 898.075 39.2544 894.924 Q38.4269 891.741 36.7718 888.622 L42.3099 888.622 Q43.6467 891.773 44.347 895.083 Q45.0472 898.393 45.0472 901.799 Q45.0472 910.329 40.0819 915.326 Q35.1167 920.291 26.6503 920.291 Q17.8974 920.291 12.7731 915.581 Q7.61683 910.838 7.61683 902.818 Q7.61683 895.624 12.2638 891.455 Q16.8789 887.253 24.8361 887.253 M23.1173 893.11 Q18.3112 893.174 15.4466 895.815 Q12.5821 898.425 12.5821 902.754 Q12.5821 907.656 15.3512 910.616 Q18.1202 913.544 23.1492 913.989 L23.1173 893.11 Z" fill="#000000" fill-rule="nonzero" fill-opacity="1" /><path clip-path="url(#clip920)" d="M9.84483 851.987 L15.3193 851.987 Q13.9507 854.47 13.2823 856.985 Q12.5821 859.467 12.5821 862.013 Q12.5821 867.711 16.2105 870.862 Q19.8072 874.013 26.332 874.013 Q32.8569 874.013 36.4853 870.862 Q40.0819 867.711 40.0819 862.013 Q40.0819 859.467 39.4135 856.985 Q38.7133 854.47 37.3447 851.987 L42.7555 851.987 Q43.9014 854.438 44.4743 857.08 Q45.0472 859.69 45.0472 862.65 Q45.0472 870.703 39.9864 875.445 Q34.9257 880.188 26.332 880.188 Q17.611 880.188 12.6139 875.413 Q7.61683 870.607 7.61683 862.268 Q7.61683 859.563 8.18974 856.985 Q8.73083 854.406 9.84483 851.987 Z" fill="#000000" fill-rule="nonzero" fill-opacity="1" /><path clip-path="url(#clip920)" d="M-1.64527 836.01 L8.4762 836.01 L8.4762 823.946 L13.0277 823.946 L13.0277 836.01 L32.3794 836.01 Q36.7399 836.01 37.9813 834.832 Q39.2226 833.622 39.2226 829.962 L39.2226 823.946 L44.1242 823.946 L44.1242 829.962 Q44.1242 836.742 41.6097 839.32 Q39.0634 841.898 32.3794 841.898 L13.0277 841.898 L13.0277 846.195 L8.4762 846.195 L8.4762 841.898 L-1.64527 841.898 L-1.64527 836.01 Z" fill="#000000" fill-rule="nonzero" fill-opacity="1" /><path clip-path="url(#clip920)" d="M13.9507 795.587 Q13.3778 796.574 13.1232 797.752 Q12.8367 798.897 12.8367 800.298 Q12.8367 805.263 16.0832 807.937 Q19.2979 810.579 25.3453 810.579 L44.1242 810.579 L44.1242 816.467 L8.4762 816.467 L8.4762 810.579 L14.0144 810.579 Q10.7679 808.732 9.20826 805.772 Q7.61683 802.812 7.61683 798.579 Q7.61683 797.974 7.71232 797.242 Q7.77597 796.51 7.93512 795.619 L13.9507 795.587 Z" fill="#000000" fill-rule="nonzero" fill-opacity="1" /><path clip-path="url(#clip920)" d="M26.2047 773.244 Q26.2047 780.341 27.8279 783.079 Q29.4512 785.816 33.3661 785.816 Q36.4853 785.816 38.3314 783.779 Q40.1456 781.71 40.1456 778.177 Q40.1456 773.307 36.7081 770.379 Q33.2388 767.419 27.5097 767.419 L26.2047 767.419 L26.2047 773.244 M23.7857 761.563 L44.1242 761.563 L44.1242 767.419 L38.7133 767.419 Q41.9598 769.424 43.5194 772.416 Q45.0472 775.408 45.0472 779.737 Q45.0472 785.211 41.9916 788.458 Q38.9043 791.672 33.7481 791.672 Q27.7325 791.672 24.6769 787.662 Q21.6214 783.62 21.6214 775.631 L21.6214 767.419 L21.0485 767.419 Q17.0062 767.419 14.8101 770.093 Q12.5821 772.734 12.5821 777.54 Q12.5821 780.596 13.3141 783.492 Q14.0462 786.389 15.5103 789.062 L10.0995 789.062 Q8.85814 785.848 8.2534 782.824 Q7.61683 779.8 7.61683 776.936 Q7.61683 769.201 11.6272 765.382 Q15.6376 761.563 23.7857 761.563 Z" fill="#000000" fill-rule="nonzero" fill-opacity="1" /><path clip-path="url(#clip920)" d="M-5.40104 749.5 L-5.40104 743.643 L44.1242 743.643 L44.1242 749.5 L-5.40104 749.5 Z" fill="#000000" fill-rule="nonzero" fill-opacity="1" /><path clip-path="url(#clip920)" d="M13.9507 690.012 Q13.3778 690.999 13.1232 692.176 Q12.8367 693.322 12.8367 694.723 Q12.8367 699.688 16.0832 702.361 Q19.2979 705.003 25.3453 705.003 L44.1242 705.003 L44.1242 710.892 L8.4762 710.892 L8.4762 705.003 L14.0144 705.003 Q10.7679 703.157 9.20826 700.197 Q7.61683 697.237 7.61683 693.004 Q7.61683 692.399 7.71232 691.667 Q7.77597 690.935 7.93512 690.044 L13.9507 690.012 Z" fill="#000000" fill-rule="nonzero" fill-opacity="1" /><path clip-path="url(#clip920)" d="M26.2047 667.668 Q26.2047 674.766 27.8279 677.503 Q29.4512 680.241 33.3661 680.241 Q36.4853 680.241 38.3314 678.204 Q40.1456 676.135 40.1456 672.602 Q40.1456 667.732 36.7081 664.804 Q33.2388 661.844 27.5097 661.844 L26.2047 661.844 L26.2047 667.668 M23.7857 655.987 L44.1242 655.987 L44.1242 661.844 L38.7133 661.844 Q41.9598 663.849 43.5194 666.841 Q45.0472 669.833 45.0472 674.161 Q45.0472 679.636 41.9916 682.882 Q38.9043 686.097 33.7481 686.097 Q27.7325 686.097 24.6769 682.087 Q21.6214 678.044 21.6214 670.056 L21.6214 661.844 L21.0485 661.844 Q17.0062 661.844 14.8101 664.517 Q12.5821 667.159 12.5821 671.965 Q12.5821 675.021 13.3141 677.917 Q14.0462 680.814 15.5103 683.487 L10.0995 683.487 Q8.85814 680.272 8.2534 677.249 Q7.61683 674.225 7.61683 671.361 Q7.61683 663.626 11.6272 659.807 Q15.6376 655.987 23.7857 655.987 Z" fill="#000000" fill-rule="nonzero" fill-opacity="1" /><path clip-path="url(#clip920)" d="M13.8871 620.467 L-5.40104 620.467 L-5.40104 614.61 L44.1242 614.61 L44.1242 620.467 L38.777 620.467 Q41.9598 622.313 43.5194 625.145 Q45.0472 627.946 45.0472 631.893 Q45.0472 638.354 39.891 642.428 Q34.7347 646.471 26.332 646.471 Q17.9293 646.471 12.7731 642.428 Q7.61683 638.354 7.61683 631.893 Q7.61683 627.946 9.17643 625.145 Q10.7042 622.313 13.8871 620.467 M26.332 640.423 Q32.7932 640.423 36.4853 637.781 Q40.1456 635.108 40.1456 630.461 Q40.1456 625.814 36.4853 623.14 Q32.7932 620.467 26.332 620.467 Q19.8708 620.467 16.2105 623.14 Q12.5184 625.814 12.5184 630.461 Q12.5184 635.108 16.2105 637.781 Q19.8708 640.423 26.332 640.423 Z" fill="#000000" fill-rule="nonzero" fill-opacity="1" /><path clip-path="url(#clip920)" d="M8.4762 602.547 L8.4762 596.691 L44.1242 596.691 L44.1242 602.547 L8.4762 602.547 M-5.40104 602.547 L-5.40104 596.691 L2.01501 596.691 L2.01501 602.547 L-5.40104 602.547 Z" fill="#000000" fill-rule="nonzero" fill-opacity="1" /><path clip-path="url(#clip920)" d="M30.0559 585.042 L8.4762 585.042 L8.4762 579.185 L29.8331 579.185 Q34.8939 579.185 37.4402 577.212 Q39.9546 575.238 39.9546 571.292 Q39.9546 566.549 36.9309 563.812 Q33.9072 561.043 28.6873 561.043 L8.4762 561.043 L8.4762 555.186 L44.1242 555.186 L44.1242 561.043 L38.6496 561.043 Q41.8962 563.175 43.4876 566.008 Q45.0472 568.809 45.0472 572.533 Q45.0472 578.676 41.2278 581.859 Q37.4083 585.042 30.0559 585.042 M7.61683 570.305 L7.61683 570.305 Z" fill="#000000" fill-rule="nonzero" fill-opacity="1" /><path clip-path="url(#clip920)" d="M9.52654 520.398 L15.0647 520.398 Q13.7916 522.88 13.155 525.554 Q12.5184 528.228 12.5184 531.092 Q12.5184 535.453 13.8552 537.649 Q15.192 539.813 17.8656 539.813 Q19.9026 539.813 21.0803 538.254 Q22.2261 536.694 23.2765 531.983 L23.7221 529.978 Q25.0589 523.74 27.5097 521.13 Q29.9286 518.488 34.2891 518.488 Q39.2544 518.488 42.1508 522.435 Q45.0472 526.35 45.0472 533.225 Q45.0472 536.089 44.4743 539.208 Q43.9332 542.296 42.8192 545.733 L36.7718 545.733 Q38.4587 542.487 39.318 539.336 Q40.1456 536.185 40.1456 533.097 Q40.1456 528.96 38.7451 526.732 Q37.3129 524.504 34.7347 524.504 Q32.3476 524.504 31.0745 526.127 Q29.8013 527.718 28.6237 533.161 L28.1462 535.198 Q27.0004 540.641 24.6451 543.06 Q22.258 545.479 18.1202 545.479 Q13.0913 545.479 10.3541 541.914 Q7.61683 538.349 7.61683 531.792 Q7.61683 528.546 8.09426 525.681 Q8.57169 522.817 9.52654 520.398 Z" fill="#000000" fill-rule="nonzero" fill-opacity="1" /><path clip-path="url(#clip920)" d="M14.8419 485.8 Q11.5954 483.859 8.73083 479.053 Q7.61683 477.175 7.61683 471.382 Q7.61683 464.889 12.7731 460.847 Q17.9293 456.773 26.332 456.773 Q34.7347 456.773 39.891 460.847 Q45.0472 464.889 45.0472 471.382 Q45.0472 475.297 43.5194 478.129 Q41.9598 480.93 38.777 482.776 L57.6831 482.776 L57.6831 488.665 L26.6503 488.665 Q19.2979 488.665 14.8419 485.8 M26.332 462.852 Q19.8708 462.852 16.2105 465.525 Q12.5184 468.167 12.5184 472.814 Q12.5184 477.461 16.2105 480.135 Q19.8708 482.776 26.332 482.776 Q32.7932 482.776 36.4853 480.135 Q40.1456 477.461 40.1456 472.814 Q40.1456 468.167 36.4853 465.525 Q32.7932 462.852 26.332 462.852 Z" fill="#000000" fill-rule="nonzero" fill-opacity="1" /><path clip-path="url(#clip920)" d="M-5.33738 432.997 Q1.98318 437.262 9.1446 439.33 Q16.306 441.399 23.6584 441.399 Q31.0108 441.399 38.2359 439.33 Q45.4291 437.23 52.7179 432.997 L52.7179 438.089 Q45.2382 442.863 38.0131 445.251 Q30.788 447.606 23.6584 447.606 Q16.5606 447.606 9.3674 445.251 Q2.17415 442.895 -5.33738 438.089 L-5.33738 432.997 Z" fill="#000000" fill-rule="nonzero" fill-opacity="1" /><path clip-path="url(#clip920)" d="M-3.39584 421.379 L-3.39584 411.799 L28.9419 399.672 L-3.39584 387.482 L-3.39584 377.901 L44.1242 377.901 L44.1242 384.172 L2.39695 384.172 L34.9894 396.426 L34.9894 402.887 L2.39695 415.141 L44.1242 415.141 L44.1242 421.379 L-3.39584 421.379 Z" fill="#000000" fill-rule="nonzero" fill-opacity="1" /><path clip-path="url(#clip920)" d="M-5.33738 366.316 L-5.33738 361.223 Q2.17415 356.449 9.3674 354.094 Q16.5606 351.707 23.6584 351.707 Q30.788 351.707 38.0131 354.094 Q45.2382 356.449 52.7179 361.223 L52.7179 366.316 Q45.4291 362.083 38.2359 360.014 Q31.0108 357.913 23.6584 357.913 Q16.306 357.913 9.1446 360.014 Q1.98318 362.083 -5.33738 366.316 Z" fill="#000000" fill-rule="nonzero" fill-opacity="1" /><path clip-path="url(#clip920)" d="M676.898 18.8205 L676.898 41.5461 L687.187 41.5461 Q692.899 41.5461 696.018 38.5889 Q699.137 35.6318 699.137 30.163 Q699.137 24.7348 696.018 21.7777 Q692.899 18.8205 687.187 18.8205 L676.898 18.8205 M668.715 12.096 L687.187 12.096 Q697.355 12.096 702.54 16.714 Q707.766 21.2916 707.766 30.163 Q707.766 39.1155 702.54 43.6931 Q697.355 48.2706 687.187 48.2706 L676.898 48.2706 L676.898 72.576 L668.715 72.576 L668.715 12.096 Z" fill="#000000" fill-rule="nonzero" fill-opacity="1" /><path clip-path="url(#clip920)" d="M733.044 32.4315 Q727.048 32.4315 723.564 37.1306 Q720.081 41.7891 720.081 49.9314 Q720.081 58.0738 723.524 62.7728 Q727.008 67.4314 733.044 67.4314 Q738.998 67.4314 742.482 62.7323 Q745.966 58.0333 745.966 49.9314 Q745.966 41.8701 742.482 37.1711 Q738.998 32.4315 733.044 32.4315 M733.044 26.1121 Q742.766 26.1121 748.315 32.4315 Q753.865 38.7509 753.865 49.9314 Q753.865 61.0714 748.315 67.4314 Q742.766 73.7508 733.044 73.7508 Q723.281 73.7508 717.731 67.4314 Q712.222 61.0714 712.222 49.9314 Q712.222 38.7509 717.731 32.4315 Q723.281 26.1121 733.044 26.1121 Z" fill="#000000" fill-rule="nonzero" fill-opacity="1" /><path clip-path="url(#clip920)" d="M773.431 65.7705 L773.431 89.8329 L765.937 89.8329 L765.937 27.2059 L773.431 27.2059 L773.431 34.0924 Q775.781 30.0415 779.345 28.0971 Q782.951 26.1121 787.933 26.1121 Q796.197 26.1121 801.342 32.6746 Q806.527 39.2371 806.527 49.9314 Q806.527 60.6258 801.342 67.1883 Q796.197 73.7508 787.933 73.7508 Q782.951 73.7508 779.345 71.8063 Q775.781 69.8214 773.431 65.7705 M798.79 49.9314 Q798.79 41.7081 795.387 37.0496 Q792.025 32.3505 786.11 32.3505 Q780.196 32.3505 776.793 37.0496 Q773.431 41.7081 773.431 49.9314 Q773.431 58.1548 776.793 62.8538 Q780.196 67.5124 786.11 67.5124 Q792.025 67.5124 795.387 62.8538 Q798.79 58.1548 798.79 49.9314 Z" fill="#000000" fill-rule="nonzero" fill-opacity="1" /><path clip-path="url(#clip920)" d="M818.112 54.671 L818.112 27.2059 L825.566 27.2059 L825.566 54.3874 Q825.566 60.8284 828.078 64.0691 Q830.589 67.2693 835.612 67.2693 Q841.648 67.2693 845.132 63.421 Q848.656 59.5726 848.656 52.9291 L848.656 27.2059 L856.11 27.2059 L856.11 72.576 L848.656 72.576 L848.656 65.6084 Q845.942 69.7404 842.337 71.7658 Q838.772 73.7508 834.033 73.7508 Q826.214 73.7508 822.163 68.8897 Q818.112 64.0286 818.112 54.671 M836.868 26.1121 L836.868 26.1121 Z" fill="#000000" fill-rule="nonzero" fill-opacity="1" /><path clip-path="url(#clip920)" d="M871.463 9.54393 L878.917 9.54393 L878.917 72.576 L871.463 72.576 L871.463 9.54393 Z" fill="#000000" fill-rule="nonzero" fill-opacity="1" /><path clip-path="url(#clip920)" d="M915.132 49.7694 Q906.098 49.7694 902.614 51.8354 Q899.131 53.9013 899.131 58.8839 Q899.131 62.8538 901.723 65.2034 Q904.356 67.5124 908.853 67.5124 Q915.051 67.5124 918.777 63.1374 Q922.545 58.7219 922.545 51.4303 L922.545 49.7694 L915.132 49.7694 M929.998 46.6907 L929.998 72.576 L922.545 72.576 L922.545 65.6895 Q919.993 69.8214 916.185 71.8063 Q912.377 73.7508 906.868 73.7508 Q899.9 73.7508 895.768 69.8619 Q891.677 65.9325 891.677 59.3701 Q891.677 51.7138 896.781 47.825 Q901.926 43.9361 912.093 43.9361 L922.545 43.9361 L922.545 43.2069 Q922.545 38.0623 919.142 35.2672 Q915.78 32.4315 909.663 32.4315 Q905.774 32.4315 902.088 33.3632 Q898.401 34.295 894.999 36.1584 L894.999 29.2718 Q899.09 27.692 902.938 26.9223 Q906.787 26.1121 910.433 26.1121 Q920.276 26.1121 925.137 31.2163 Q929.998 36.3204 929.998 46.6907 Z" fill="#000000" fill-rule="nonzero" fill-opacity="1" /><path clip-path="url(#clip920)" d="M952.724 14.324 L952.724 27.2059 L968.077 27.2059 L968.077 32.9987 L952.724 32.9987 L952.724 57.6282 Q952.724 63.1779 954.223 64.7578 Q955.762 66.3376 960.421 66.3376 L968.077 66.3376 L968.077 72.576 L960.421 72.576 Q951.792 72.576 948.511 69.3758 Q945.23 66.1351 945.23 57.6282 L945.23 32.9987 L939.761 32.9987 L939.761 27.2059 L945.23 27.2059 L945.23 14.324 L952.724 14.324 Z" fill="#000000" fill-rule="nonzero" fill-opacity="1" /><path clip-path="url(#clip920)" d="M977.88 27.2059 L985.334 27.2059 L985.334 72.576 L977.88 72.576 L977.88 27.2059 M977.88 9.54393 L985.334 9.54393 L985.334 18.9825 L977.88 18.9825 L977.88 9.54393 Z" fill="#000000" fill-rule="nonzero" fill-opacity="1" /><path clip-path="url(#clip920)" d="M1018.51 32.4315 Q1012.52 32.4315 1009.03 37.1306 Q1005.55 41.7891 1005.55 49.9314 Q1005.55 58.0738 1008.99 62.7728 Q1012.47 67.4314 1018.51 67.4314 Q1024.47 67.4314 1027.95 62.7323 Q1031.43 58.0333 1031.43 49.9314 Q1031.43 41.8701 1027.95 37.1711 Q1024.47 32.4315 1018.51 32.4315 M1018.51 26.1121 Q1028.23 26.1121 1033.78 32.4315 Q1039.33 38.7509 1039.33 49.9314 Q1039.33 61.0714 1033.78 67.4314 Q1028.23 73.7508 1018.51 73.7508 Q1008.75 73.7508 1003.2 67.4314 Q997.689 61.0714 997.689 49.9314 Q997.689 38.7509 1003.2 32.4315 Q1008.75 26.1121 1018.51 26.1121 Z" fill="#000000" fill-rule="nonzero" fill-opacity="1" /><path clip-path="url(#clip920)" d="M1089.4 45.1919 L1089.4 72.576 L1081.95 72.576 L1081.95 45.4349 Q1081.95 38.994 1079.44 35.7938 Q1076.92 32.5936 1071.9 32.5936 Q1065.87 32.5936 1062.38 36.4419 Q1058.9 40.2903 1058.9 46.9338 L1058.9 72.576 L1051.4 72.576 L1051.4 27.2059 L1058.9 27.2059 L1058.9 34.2544 Q1061.57 30.163 1065.18 28.1376 Q1068.82 26.1121 1073.56 26.1121 Q1081.38 26.1121 1085.39 30.9732 Q1089.4 35.7938 1089.4 45.1919 Z" fill="#000000" fill-rule="nonzero" fill-opacity="1" /><path clip-path="url(#clip920)" d="M1160.49 49.3643 Q1160.49 41.2625 1157.13 36.8065 Q1153.81 32.3505 1147.78 32.3505 Q1141.78 32.3505 1138.42 36.8065 Q1135.1 41.2625 1135.1 49.3643 Q1135.1 57.4256 1138.42 61.8816 Q1141.78 66.3376 1147.78 66.3376 Q1153.81 66.3376 1157.13 61.8816 Q1160.49 57.4256 1160.49 49.3643 M1167.95 66.9452 Q1167.95 78.5308 1162.8 84.1616 Q1157.66 89.8329 1147.05 89.8329 Q1143.12 89.8329 1139.63 89.2252 Q1136.15 88.6581 1132.87 87.4428 L1132.87 80.1917 Q1136.15 81.9741 1139.35 82.8248 Q1142.55 83.6755 1145.87 83.6755 Q1153.2 83.6755 1156.85 79.8271 Q1160.49 76.0193 1160.49 68.282 L1160.49 64.5957 Q1158.19 68.6061 1154.58 70.5911 Q1150.98 72.576 1145.95 72.576 Q1137.61 72.576 1132.5 66.2161 Q1127.4 59.8562 1127.4 49.3643 Q1127.4 38.832 1132.5 32.472 Q1137.61 26.1121 1145.95 26.1121 Q1150.98 26.1121 1154.58 28.0971 Q1158.19 30.082 1160.49 34.0924 L1160.49 27.2059 L1167.95 27.2059 L1167.95 66.9452 Z" fill="#000000" fill-rule="nonzero" fill-opacity="1" /><path clip-path="url(#clip920)" d="M1209.59 34.1734 Q1208.34 33.4443 1206.84 33.1202 Q1205.38 32.7556 1203.6 32.7556 Q1197.28 32.7556 1193.87 36.8875 Q1190.51 40.9789 1190.51 48.6757 L1190.51 72.576 L1183.02 72.576 L1183.02 27.2059 L1190.51 27.2059 L1190.51 34.2544 Q1192.86 30.1225 1196.63 28.1376 Q1200.4 26.1121 1205.78 26.1121 Q1206.55 26.1121 1207.49 26.2337 Q1208.42 26.3147 1209.55 26.5172 L1209.59 34.1734 Z" fill="#000000" fill-rule="nonzero" fill-opacity="1" /><path clip-path="url(#clip920)" d="M1233.17 32.4315 Q1227.17 32.4315 1223.69 37.1306 Q1220.21 41.7891 1220.21 49.9314 Q1220.21 58.0738 1223.65 62.7728 Q1227.13 67.4314 1233.17 67.4314 Q1239.12 67.4314 1242.61 62.7323 Q1246.09 58.0333 1246.09 49.9314 Q1246.09 41.8701 1242.61 37.1711 Q1239.12 32.4315 1233.17 32.4315 M1233.17 26.1121 Q1242.89 26.1121 1248.44 32.4315 Q1253.99 38.7509 1253.99 49.9314 Q1253.99 61.0714 1248.44 67.4314 Q1242.89 73.7508 1233.17 73.7508 Q1223.41 73.7508 1217.86 67.4314 Q1212.35 61.0714 1212.35 49.9314 Q1212.35 38.7509 1217.86 32.4315 Q1223.41 26.1121 1233.17 26.1121 Z" fill="#000000" fill-rule="nonzero" fill-opacity="1" /><path clip-path="url(#clip920)" d="M1262.01 27.2059 L1269.46 27.2059 L1278.78 62.6108 L1288.06 27.2059 L1296.85 27.2059 L1306.17 62.6108 L1315.44 27.2059 L1322.9 27.2059 L1311.03 72.576 L1302.24 72.576 L1292.47 35.3887 L1282.67 72.576 L1273.88 72.576 L1262.01 27.2059 Z" fill="#000000" fill-rule="nonzero" fill-opacity="1" /><path clip-path="url(#clip920)" d="M1341.57 14.324 L1341.57 27.2059 L1356.92 27.2059 L1356.92 32.9987 L1341.57 32.9987 L1341.57 57.6282 Q1341.57 63.1779 1343.07 64.7578 Q1344.61 66.3376 1349.27 66.3376 L1356.92 66.3376 L1356.92 72.576 L1349.27 72.576 Q1340.64 72.576 1337.36 69.3758 Q1334.08 66.1351 1334.08 57.6282 L1334.08 32.9987 L1328.61 32.9987 L1328.61 27.2059 L1334.08 27.2059 L1334.08 14.324 L1341.57 14.324 Z" fill="#000000" fill-rule="nonzero" fill-opacity="1" /><path clip-path="url(#clip920)" d="M1404.44 45.1919 L1404.44 72.576 L1396.99 72.576 L1396.99 45.4349 Q1396.99 38.994 1394.48 35.7938 Q1391.96 32.5936 1386.94 32.5936 Q1380.9 32.5936 1377.42 36.4419 Q1373.94 40.2903 1373.94 46.9338 L1373.94 72.576 L1366.44 72.576 L1366.44 9.54393 L1373.94 9.54393 L1373.94 34.2544 Q1376.61 30.163 1380.22 28.1376 Q1383.86 26.1121 1388.6 26.1121 Q1396.42 26.1121 1400.43 30.9732 Q1404.44 35.7938 1404.44 45.1919 Z" fill="#000000" fill-rule="nonzero" fill-opacity="1" /><path clip-path="url(#clip920)" d="M1453.05 14.324 L1453.05 27.2059 L1468.4 27.2059 L1468.4 32.9987 L1453.05 32.9987 L1453.05 57.6282 Q1453.05 63.1779 1454.55 64.7578 Q1456.09 66.3376 1460.75 66.3376 L1468.4 66.3376 L1468.4 72.576 L1460.75 72.576 Q1452.12 72.576 1448.84 69.3758 Q1445.56 66.1351 1445.56 57.6282 L1445.56 32.9987 L1440.09 32.9987 L1440.09 27.2059 L1445.56 27.2059 L1445.56 14.324 L1453.05 14.324 Z" fill="#000000" fill-rule="nonzero" fill-opacity="1" /><path clip-path="url(#clip920)" d="M1515.92 45.1919 L1515.92 72.576 L1508.47 72.576 L1508.47 45.4349 Q1508.47 38.994 1505.96 35.7938 Q1503.44 32.5936 1498.42 32.5936 Q1492.39 32.5936 1488.9 36.4419 Q1485.42 40.2903 1485.42 46.9338 L1485.42 72.576 L1477.92 72.576 L1477.92 9.54393 L1485.42 9.54393 L1485.42 34.2544 Q1488.09 30.163 1491.7 28.1376 Q1495.34 26.1121 1500.08 26.1121 Q1507.9 26.1121 1511.91 30.9732 Q1515.92 35.7938 1515.92 45.1919 Z" fill="#000000" fill-rule="nonzero" fill-opacity="1" /><path clip-path="url(#clip920)" d="M1557.08 34.1734 Q1555.82 33.4443 1554.32 33.1202 Q1552.87 32.7556 1551.08 32.7556 Q1544.76 32.7556 1541.36 36.8875 Q1538 40.9789 1538 48.6757 L1538 72.576 L1530.5 72.576 L1530.5 27.2059 L1538 27.2059 L1538 34.2544 Q1540.35 30.1225 1544.12 28.1376 Q1547.88 26.1121 1553.27 26.1121 Q1554.04 26.1121 1554.97 26.2337 Q1555.9 26.3147 1557.04 26.5172 L1557.08 34.1734 Z" fill="#000000" fill-rule="nonzero" fill-opacity="1" /><path clip-path="url(#clip920)" d="M1601.88 48.0275 L1601.88 51.6733 L1567.61 51.6733 Q1568.1 59.3701 1572.23 63.421 Q1576.4 67.4314 1583.81 67.4314 Q1588.11 67.4314 1592.12 66.3781 Q1596.17 65.3249 1600.14 63.2184 L1600.14 70.267 Q1596.13 71.9684 1591.92 72.8596 Q1587.7 73.7508 1583.37 73.7508 Q1572.51 73.7508 1566.15 67.4314 Q1559.83 61.1119 1559.83 50.3365 Q1559.83 39.1965 1565.83 32.6746 Q1571.86 26.1121 1582.07 26.1121 Q1591.23 26.1121 1596.53 32.0264 Q1601.88 37.9003 1601.88 48.0275 M1594.43 45.84 Q1594.35 39.7232 1590.98 36.0774 Q1587.66 32.4315 1582.15 32.4315 Q1575.92 32.4315 1572.15 35.9558 Q1568.42 39.4801 1567.85 45.8805 L1594.43 45.84 Z" fill="#000000" fill-rule="nonzero" fill-opacity="1" /><path clip-path="url(#clip920)" d="M1643.04 28.5427 L1643.04 35.5912 Q1639.88 33.9709 1636.48 33.1607 Q1633.07 32.3505 1629.43 32.3505 Q1623.88 32.3505 1621.08 34.0519 Q1618.33 35.7533 1618.33 39.156 Q1618.33 41.7486 1620.31 43.2475 Q1622.3 44.7058 1628.29 46.0426 L1630.85 46.6097 Q1638.79 48.3111 1642.11 51.4303 Q1645.47 54.509 1645.47 60.0587 Q1645.47 66.3781 1640.45 70.0644 Q1635.46 73.7508 1626.71 73.7508 Q1623.07 73.7508 1619.1 73.0216 Q1615.17 72.3329 1610.79 70.9151 L1610.79 63.2184 Q1614.93 65.3654 1618.94 66.4591 Q1622.95 67.5124 1626.88 67.5124 Q1632.14 67.5124 1634.98 65.73 Q1637.81 63.9071 1637.81 60.6258 Q1637.81 57.5877 1635.75 55.9673 Q1633.72 54.3469 1626.79 52.8481 L1624.2 52.2405 Q1617.27 50.7821 1614.2 47.7845 Q1611.12 44.7463 1611.12 39.4801 Q1611.12 33.0797 1615.65 29.5959 Q1620.19 26.1121 1628.54 26.1121 Q1632.67 26.1121 1636.31 26.7198 Q1639.96 27.3274 1643.04 28.5427 Z" fill="#000000" fill-rule="nonzero" fill-opacity="1" /><path clip-path="url(#clip920)" d="M1695.05 45.1919 L1695.05 72.576 L1687.6 72.576 L1687.6 45.4349 Q1687.6 38.994 1685.09 35.7938 Q1682.58 32.5936 1677.55 32.5936 Q1671.52 32.5936 1668.03 36.4419 Q1664.55 40.2903 1664.55 46.9338 L1664.55 72.576 L1657.05 72.576 L1657.05 9.54393 L1664.55 9.54393 L1664.55 34.2544 Q1667.22 30.163 1670.83 28.1376 Q1674.47 26.1121 1679.21 26.1121 Q1687.03 26.1121 1691.04 30.9732 Q1695.05 35.7938 1695.05 45.1919 Z" fill="#000000" fill-rule="nonzero" fill-opacity="1" /><path clip-path="url(#clip920)" d="M1727.5 32.4315 Q1721.5 32.4315 1718.02 37.1306 Q1714.54 41.7891 1714.54 49.9314 Q1714.54 58.0738 1717.98 62.7728 Q1721.46 67.4314 1727.5 67.4314 Q1733.45 67.4314 1736.94 62.7323 Q1740.42 58.0333 1740.42 49.9314 Q1740.42 41.8701 1736.94 37.1711 Q1733.45 32.4315 1727.5 32.4315 M1727.5 26.1121 Q1737.22 26.1121 1742.77 32.4315 Q1748.32 38.7509 1748.32 49.9314 Q1748.32 61.0714 1742.77 67.4314 Q1737.22 73.7508 1727.5 73.7508 Q1717.74 73.7508 1712.19 67.4314 Q1706.68 61.0714 1706.68 49.9314 Q1706.68 38.7509 1712.19 32.4315 Q1717.74 26.1121 1727.5 26.1121 Z" fill="#000000" fill-rule="nonzero" fill-opacity="1" /><path clip-path="url(#clip920)" d="M1760.68 9.54393 L1768.13 9.54393 L1768.13 72.576 L1760.68 72.576 L1760.68 9.54393 Z" fill="#000000" fill-rule="nonzero" fill-opacity="1" /><path clip-path="url(#clip920)" d="M1813.58 34.0924 L1813.58 9.54393 L1821.04 9.54393 L1821.04 72.576 L1813.58 72.576 L1813.58 65.7705 Q1811.23 69.8214 1807.63 71.8063 Q1804.06 73.7508 1799.04 73.7508 Q1790.82 73.7508 1785.63 67.1883 Q1780.49 60.6258 1780.49 49.9314 Q1780.49 39.2371 1785.63 32.6746 Q1790.82 26.1121 1799.04 26.1121 Q1804.06 26.1121 1807.63 28.0971 Q1811.23 30.0415 1813.58 34.0924 M1788.18 49.9314 Q1788.18 58.1548 1791.54 62.8538 Q1794.95 67.5124 1800.86 67.5124 Q1806.78 67.5124 1810.18 62.8538 Q1813.58 58.1548 1813.58 49.9314 Q1813.58 41.7081 1810.18 37.0496 Q1806.78 32.3505 1800.86 32.3505 Q1794.95 32.3505 1791.54 37.0496 Q1788.18 41.7081 1788.18 49.9314 Z" fill="#000000" fill-rule="nonzero" fill-opacity="1" /><path clip-path="url(#clip920)" d="M1857.41 27.2059 L1865.31 27.2059 L1879.49 65.2844 L1893.67 27.2059 L1901.57 27.2059 L1884.55 72.576 L1874.43 72.576 L1857.41 27.2059 Z" fill="#000000" fill-rule="nonzero" fill-opacity="1" /><path clip-path="url(#clip920)" d="M1940.78 28.5427 L1940.78 35.5912 Q1937.62 33.9709 1934.22 33.1607 Q1930.81 32.3505 1927.17 32.3505 Q1921.62 32.3505 1918.82 34.0519 Q1916.07 35.7533 1916.07 39.156 Q1916.07 41.7486 1918.05 43.2475 Q1920.04 44.7058 1926.03 46.0426 L1928.59 46.6097 Q1936.53 48.3111 1939.85 51.4303 Q1943.21 54.509 1943.21 60.0587 Q1943.21 66.3781 1938.19 70.0644 Q1933.2 73.7508 1924.45 73.7508 Q1920.81 73.7508 1916.84 73.0216 Q1912.91 72.3329 1908.53 70.9151 L1908.53 63.2184 Q1912.67 65.3654 1916.68 66.4591 Q1920.69 67.5124 1924.62 67.5124 Q1929.88 67.5124 1932.72 65.73 Q1935.55 63.9071 1935.55 60.6258 Q1935.55 57.5877 1933.49 55.9673 Q1931.46 54.3469 1924.54 52.8481 L1921.94 52.2405 Q1915.02 50.7821 1911.94 47.7845 Q1908.86 44.7463 1908.86 39.4801 Q1908.86 33.0797 1913.4 29.5959 Q1917.93 26.1121 1926.28 26.1121 Q1930.41 26.1121 1934.06 26.7198 Q1937.7 27.3274 1940.78 28.5427 Z" fill="#000000" fill-rule="nonzero" fill-opacity="1" /><path clip-path="url(#clip920)" d="M1956.13 62.2867 L1964.68 62.2867 L1964.68 72.576 L1956.13 72.576 L1956.13 62.2867 Z" fill="#000000" fill-rule="nonzero" fill-opacity="1" /><path clip-path="url(#clip920)" d="M2030.79 9.54393 L2030.79 15.7418 L2023.66 15.7418 Q2019.65 15.7418 2018.07 17.3622 Q2016.53 18.9825 2016.53 23.1955 L2016.53 27.2059 L2028.81 27.2059 L2028.81 32.9987 L2016.53 32.9987 L2016.53 72.576 L2009.04 72.576 L2009.04 32.9987 L2001.91 32.9987 L2001.91 27.2059 L2009.04 27.2059 L2009.04 24.0462 Q2009.04 16.471 2012.56 13.0277 Q2016.09 9.54393 2023.74 9.54393 L2030.79 9.54393 Z" fill="#000000" fill-rule="nonzero" fill-opacity="1" /><path clip-path="url(#clip920)" d="M2075.84 48.0275 L2075.84 51.6733 L2041.57 51.6733 Q2042.05 59.3701 2046.18 63.421 Q2050.36 67.4314 2057.77 67.4314 Q2062.06 67.4314 2066.07 66.3781 Q2070.13 65.3249 2074.1 63.2184 L2074.1 70.267 Q2070.08 71.9684 2065.87 72.8596 Q2061.66 73.7508 2057.32 73.7508 Q2046.47 73.7508 2040.11 67.4314 Q2033.79 61.1119 2033.79 50.3365 Q2033.79 39.1965 2039.78 32.6746 Q2045.82 26.1121 2056.03 26.1121 Q2065.18 26.1121 2070.49 32.0264 Q2075.84 37.9003 2075.84 48.0275 M2068.38 45.84 Q2068.3 39.7232 2064.94 36.0774 Q2061.62 32.4315 2056.11 32.4315 Q2049.87 32.4315 2046.1 35.9558 Q2042.38 39.4801 2041.81 45.8805 L2068.38 45.84 Z" fill="#000000" fill-rule="nonzero" fill-opacity="1" /><path clip-path="url(#clip920)" d="M2114.36 34.1734 Q2113.11 33.4443 2111.61 33.1202 Q2110.15 32.7556 2108.37 32.7556 Q2102.05 32.7556 2098.64 36.8875 Q2095.28 40.9789 2095.28 48.6757 L2095.28 72.576 L2087.79 72.576 L2087.79 27.2059 L2095.28 27.2059 L2095.28 34.2544 Q2097.63 30.1225 2101.4 28.1376 Q2105.17 26.1121 2110.55 26.1121 Q2111.32 26.1121 2112.25 26.2337 Q2113.19 26.3147 2114.32 26.5172 L2114.36 34.1734 Z" fill="#000000" fill-rule="nonzero" fill-opacity="1" /><path clip-path="url(#clip920)" d="M2129.55 14.324 L2129.55 27.2059 L2144.91 27.2059 L2144.91 32.9987 L2129.55 32.9987 L2129.55 57.6282 Q2129.55 63.1779 2131.05 64.7578 Q2132.59 66.3376 2137.25 66.3376 L2144.91 66.3376 L2144.91 72.576 L2137.25 72.576 Q2128.62 72.576 2125.34 69.3758 Q2122.06 66.1351 2122.06 57.6282 L2122.06 32.9987 L2116.59 32.9987 L2116.59 27.2059 L2122.06 27.2059 L2122.06 14.324 L2129.55 14.324 Z" fill="#000000" fill-rule="nonzero" fill-opacity="1" /><path clip-path="url(#clip920)" d="M2154.71 27.2059 L2162.16 27.2059 L2162.16 72.576 L2154.71 72.576 L2154.71 27.2059 M2154.71 9.54393 L2162.16 9.54393 L2162.16 18.9825 L2154.71 18.9825 L2154.71 9.54393 Z" fill="#000000" fill-rule="nonzero" fill-opacity="1" /><path clip-path="url(#clip920)" d="M2177.76 9.54393 L2185.21 9.54393 L2185.21 72.576 L2177.76 72.576 L2177.76 9.54393 Z" fill="#000000" fill-rule="nonzero" fill-opacity="1" /><path clip-path="url(#clip920)" d="M2200.81 27.2059 L2208.26 27.2059 L2208.26 72.576 L2200.81 72.576 L2200.81 27.2059 M2200.81 9.54393 L2208.26 9.54393 L2208.26 18.9825 L2200.81 18.9825 L2200.81 9.54393 Z" fill="#000000" fill-rule="nonzero" fill-opacity="1" /><path clip-path="url(#clip920)" d="M2231.23 14.324 L2231.23 27.2059 L2246.58 27.2059 L2246.58 32.9987 L2231.23 32.9987 L2231.23 57.6282 Q2231.23 63.1779 2232.73 64.7578 Q2234.27 66.3376 2238.93 66.3376 L2246.58 66.3376 L2246.58 72.576 L2238.93 72.576 Q2230.3 72.576 2227.02 69.3758 Q2223.74 66.1351 2223.74 57.6282 L2223.74 32.9987 L2218.27 32.9987 L2218.27 27.2059 L2223.74 27.2059 L2223.74 14.324 L2231.23 14.324 Z" fill="#000000" fill-rule="nonzero" fill-opacity="1" /><path clip-path="url(#clip920)" d="M2275.26 76.7889 Q2272.1 84.8907 2269.11 87.3618 Q2266.11 89.8329 2261.09 89.8329 L2255.13 89.8329 L2255.13 83.5945 L2259.51 83.5945 Q2262.58 83.5945 2264.29 82.1361 Q2265.99 80.6778 2268.05 75.2496 L2269.39 71.8468 L2251.04 27.2059 L2258.94 27.2059 L2273.12 62.6918 L2287.29 27.2059 L2295.19 27.2059 L2275.26 76.7889 Z" fill="#000000" fill-rule="nonzero" fill-opacity="1" /><polyline clip-path="url(#clip921)" style="stroke:#00008b; stroke-linecap:round; stroke-linejoin:round; stroke-width:10; stroke-opacity:1; fill:none" points="283.085,1213.51 313.057,1053.93 343.029,985.657 373,936.685 402.972,897.302 432.944,863.844 462.915,834.481 492.887,808.147 522.859,784.162 552.831,762.063 582.802,741.516 612.774,722.274 642.746,704.148 672.718,686.987 702.689,670.673 732.661,655.108 762.633,640.211 792.605,625.915 822.576,612.163 852.548,598.905 882.52,586.1 912.491,573.71 942.463,561.703 972.435,550.052 1002.41,538.73 1032.38,527.715 1062.35,516.988 1092.32,506.53 1122.29,496.325 1152.27,486.358 1182.24,476.616 1212.21,467.086 1242.18,457.757 1272.15,448.62 1302.12,439.663 1332.1,430.88 1362.07,422.26 1392.04,413.798 1422.01,405.486 1451.98,397.318 1481.95,389.287 1511.93,381.388 1541.9,373.615 1571.87,365.964 1601.84,358.43 1631.81,351.009 1661.78,343.696 1691.76,336.488 1721.73,329.381 1751.7,322.371 1781.67,315.455 1811.64,308.631 1841.62,301.894 1871.59,295.243 1901.56,288.675 1931.53,282.187 1961.5,275.776 1991.47,269.441 2021.45,263.18 2051.42,256.989 2081.39,250.868 2111.36,244.814 2141.33,238.825 2171.3,232.901 2201.28,227.038 2231.25,221.236 2261.22,215.492 2291.19,209.806 2321.16,204.177 2351.13,198.602 2381.11,193.08 2411.08,187.61 2441.05,182.191 2471.02,176.822 2500.99,171.502 2530.97,166.229 2560.94,161.002 2590.91,155.821 2620.88,150.685 2650.85,145.592 2680.82,140.541 "/>
<polyline clip-path="url(#clip921)" style="stroke:#000000; stroke-linecap:round; stroke-linejoin:round; stroke-width:6; stroke-opacity:1; fill:none" stroke-dasharray="24, 15" points="-2330.45,1105.74 5294.36,1105.74 "/>
<polyline clip-path="url(#clip921)" style="stroke:#ff0000; stroke-linecap:round; stroke-linejoin:round; stroke-width:6; stroke-opacity:1; fill:none" stroke-dasharray="3, 6" points="313.057,2383.05 313.057,-1029 "/>
<path clip-path="url(#clip920)" d="M2191.4 1207.79 L2668.04 1207.79 L2668.04 1052.27 L2191.4 1052.27  Z" fill="#ffffff" fill-rule="evenodd" fill-opacity="1"/>
<polyline clip-path="url(#clip920)" style="stroke:#000000; stroke-linecap:round; stroke-linejoin:round; stroke-width:4; stroke-opacity:1; fill:none" points="2191.4,1207.79 2668.04,1207.79 2668.04,1052.27 2191.4,1052.27 2191.4,1207.79 "/>
<polyline clip-path="url(#clip920)" style="stroke:#000000; stroke-linecap:round; stroke-linejoin:round; stroke-width:6; stroke-opacity:1; fill:none" stroke-dasharray="24, 15" points="2219.64,1104.11 2389.08,1104.11 "/>
<path clip-path="url(#clip920)" d="M2419.4 1100.09 Q2420.82 1097.73 2424.31 1095.65 Q2425.68 1094.84 2429.89 1094.84 Q2434.61 1094.84 2437.55 1098.59 Q2440.51 1102.34 2440.51 1108.45 Q2440.51 1114.56 2437.55 1118.31 Q2434.61 1122.06 2429.89 1122.06 Q2427.04 1122.06 2424.98 1120.95 Q2422.95 1119.81 2421.6 1117.5 L2421.6 1131.25 L2417.32 1131.25 L2417.32 1108.68 Q2417.32 1103.33 2419.4 1100.09 M2436.09 1108.45 Q2436.09 1103.75 2434.15 1101.09 Q2432.23 1098.4 2428.85 1098.4 Q2425.47 1098.4 2423.52 1101.09 Q2421.6 1103.75 2421.6 1108.45 Q2421.6 1113.15 2423.52 1115.83 Q2425.47 1118.49 2428.85 1118.49 Q2432.23 1118.49 2434.15 1115.83 Q2436.09 1113.15 2436.09 1108.45 Z" fill="#000000" fill-rule="nonzero" fill-opacity="1" /><path clip-path="url(#clip920)" d="M2463.2 1099.86 L2492.88 1099.86 L2492.88 1103.75 L2463.2 1103.75 L2463.2 1099.86 M2463.2 1109.3 L2492.88 1109.3 L2492.88 1113.24 L2463.2 1113.24 L2463.2 1109.3 Z" fill="#000000" fill-rule="nonzero" fill-opacity="1" /><path clip-path="url(#clip920)" d="M2518.85 1117.45 L2526.49 1117.45 L2526.49 1091.09 L2518.18 1092.75 L2518.18 1088.49 L2526.44 1086.83 L2531.12 1086.83 L2531.12 1117.45 L2538.75 1117.45 L2538.75 1121.39 L2518.85 1121.39 L2518.85 1117.45 Z" fill="#000000" fill-rule="nonzero" fill-opacity="1" /><polyline clip-path="url(#clip920)" style="stroke:#ff0000; stroke-linecap:round; stroke-linejoin:round; stroke-width:6; stroke-opacity:1; fill:none" stroke-dasharray="3, 6" points="2219.64,1155.95 2389.08,1155.95 "/>
<path clip-path="url(#clip920)" d="M2421.6 1171.63 L2421.6 1183.09 L2417.32 1183.09 L2417.32 1147.46 Q2417.32 1136.91 2427.18 1136.91 Q2437.23 1136.91 2437.23 1145.82 Q2437.23 1152.16 2433.25 1154.48 Q2439.73 1156.56 2439.73 1162.74 Q2439.73 1173.71 2428.57 1173.71 Q2423.66 1173.71 2421.6 1171.63 M2421.6 1166.08 Q2424.17 1170.08 2428.73 1170.08 Q2435.4 1170.08 2435.4 1162.81 Q2435.4 1156.28 2424.66 1156.79 L2424.66 1152.86 Q2433.06 1152.86 2433.06 1145.45 Q2433.06 1140.38 2427.64 1140.38 Q2421.6 1140.38 2421.6 1147.6 L2421.6 1166.08 Z" fill="#000000" fill-rule="nonzero" fill-opacity="1" /><path clip-path="url(#clip920)" d="M2467.3 1181.1 L2467.3 1184.41 L2442.67 1184.41 L2442.67 1181.1 L2467.3 1181.1 Z" fill="#000000" fill-rule="nonzero" fill-opacity="1" /><path clip-path="url(#clip920)" d="M2489.96 1148.3 L2489.96 1152.28 Q2488.15 1151.28 2486.32 1150.8 Q2484.52 1150.29 2482.67 1150.29 Q2478.52 1150.29 2476.23 1152.93 Q2473.94 1155.54 2473.94 1160.29 Q2473.94 1165.03 2476.23 1167.67 Q2478.52 1170.29 2482.67 1170.29 Q2484.52 1170.29 2486.32 1169.8 Q2488.15 1169.29 2489.96 1168.3 L2489.96 1172.23 Q2488.18 1173.07 2486.25 1173.48 Q2484.36 1173.9 2482.2 1173.9 Q2476.35 1173.9 2472.9 1170.22 Q2469.45 1166.54 2469.45 1160.29 Q2469.45 1153.95 2472.92 1150.31 Q2476.42 1146.68 2482.48 1146.68 Q2484.45 1146.68 2486.32 1147.09 Q2488.2 1147.49 2489.96 1148.3 Z" fill="#000000" fill-rule="nonzero" fill-opacity="1" /><path clip-path="url(#clip920)" d="M2512.39 1151.28 Q2511.67 1150.87 2510.81 1150.68 Q2509.98 1150.47 2508.96 1150.47 Q2505.35 1150.47 2503.41 1152.83 Q2501.49 1155.17 2501.49 1159.57 L2501.49 1173.23 L2497.2 1173.23 L2497.2 1147.3 L2501.49 1147.3 L2501.49 1151.33 Q2502.83 1148.97 2504.98 1147.83 Q2507.13 1146.68 2510.21 1146.68 Q2510.65 1146.68 2511.19 1146.75 Q2511.72 1146.79 2512.37 1146.91 L2512.39 1151.28 Z" fill="#000000" fill-rule="nonzero" fill-opacity="1" /><path clip-path="url(#clip920)" d="M2516.86 1147.3 L2521.12 1147.3 L2521.12 1173.23 L2516.86 1173.23 L2516.86 1147.3 M2516.86 1137.21 L2521.12 1137.21 L2521.12 1142.6 L2516.86 1142.6 L2516.86 1137.21 Z" fill="#000000" fill-rule="nonzero" fill-opacity="1" /><path clip-path="url(#clip920)" d="M2534.24 1139.94 L2534.24 1147.3 L2543.01 1147.3 L2543.01 1150.61 L2534.24 1150.61 L2534.24 1164.69 Q2534.24 1167.86 2535.1 1168.76 Q2535.98 1169.66 2538.64 1169.66 L2543.01 1169.66 L2543.01 1173.23 L2538.64 1173.23 Q2533.71 1173.23 2531.83 1171.4 Q2529.96 1169.55 2529.96 1164.69 L2529.96 1150.61 L2526.83 1150.61 L2526.83 1147.3 L2529.96 1147.3 L2529.96 1139.94 L2534.24 1139.94 Z" fill="#000000" fill-rule="nonzero" fill-opacity="1" /><path clip-path="url(#clip920)" d="M2593.92 1158.81 L2593.92 1162.95 Q2591.49 1164.76 2589.4 1165.57 Q2587.34 1166.35 2585.1 1166.35 Q2582.55 1166.35 2579.17 1164.99 Q2578.94 1164.89 2578.78 1164.83 Q2578.64 1164.78 2578.29 1164.64 Q2574.7 1163.23 2572.53 1163.23 Q2570.49 1163.23 2568.5 1164.11 Q2566.51 1164.99 2564.24 1166.93 L2564.24 1162.79 Q2566.67 1160.98 2568.73 1160.2 Q2570.81 1159.39 2573.06 1159.39 Q2575.61 1159.39 2579.01 1160.75 Q2579.26 1160.87 2579.38 1160.91 Q2579.52 1160.96 2579.87 1161.1 Q2583.45 1162.51 2585.63 1162.51 Q2587.62 1162.51 2589.56 1161.65 Q2591.53 1160.77 2593.92 1158.81 M2593.92 1149.8 L2593.92 1153.92 Q2591.49 1155.75 2589.4 1156.56 Q2587.34 1157.35 2585.1 1157.35 Q2582.55 1157.35 2579.17 1155.98 Q2578.94 1155.89 2578.78 1155.82 Q2578.64 1155.77 2578.29 1155.64 Q2574.7 1154.22 2572.53 1154.22 Q2570.49 1154.22 2568.5 1155.1 Q2566.51 1155.98 2564.24 1157.9 L2564.24 1153.78 Q2566.67 1151.98 2568.73 1151.19 Q2570.81 1150.38 2573.06 1150.38 Q2575.61 1150.38 2579.01 1151.75 Q2579.24 1151.84 2579.36 1151.89 Q2579.52 1151.96 2579.87 1152.09 Q2583.45 1153.51 2585.63 1153.51 Q2587.62 1153.51 2589.56 1152.65 Q2591.53 1151.77 2593.92 1149.8 Z" fill="#000000" fill-rule="nonzero" fill-opacity="1" /><path clip-path="url(#clip920)" d="M2619.89 1169.29 L2627.53 1169.29 L2627.53 1142.93 L2619.22 1144.59 L2619.22 1140.33 L2627.48 1138.67 L2632.16 1138.67 L2632.16 1169.29 L2639.8 1169.29 L2639.8 1173.23 L2619.89 1173.23 L2619.89 1169.29 Z" fill="#000000" fill-rule="nonzero" fill-opacity="1" /></svg>
