<?xml version="1.0" encoding="utf-8"?>
<svg xmlns="http://www.w3.org/2000/svg" xmlns:xlink="http://www.w3.org/1999/xlink" width="700" height="300" viewBox="0 0 2800 1200">
<defs>
  <clipPath id="clip770">
    <rect x="0" y="0" width="2800" height="1200"/>
  </clipPath>
</defs>
<path clip-path="url(#clip770)" d="M0 1200 L2800 1200 L2800 6.66134e-14 L0 6.66134e-14  Z" fill="#ffffff" fill-rule="evenodd" fill-opacity="1"/>
<defs>
  <clipPath id="clip771">
    <rect x="236" y="101" width="2517" height="956"/>
  </clipPath>
</defs>
<path clip-path="url(#clip770)" d="M236.571 1056.49 L2752.76 1056.49 L2752.76 101.872 L236.571 101.872  Z" fill="#ffffff" fill-rule="evenodd" fill-opacity="1"/>
<polyline clip-path="url(#clip771)" style="stroke:#000000; stroke-linecap:round; stroke-linejoin:round; stroke-width:2; stroke-opacity:0.1; fill:none" points="307.783,1056.49 307.783,101.872 "/>
<polyline clip-path="url(#clip771)" style="stroke:#000000; stroke-linecap:round; stroke-linejoin:round; stroke-width:2; stroke-opacity:0.1; fill:none" points="764.276,1056.49 764.276,101.872 "/>
<polyline clip-path="url(#clip771)" style="stroke:#000000; stroke-linecap:round; stroke-linejoin:round; stroke-width:2; stroke-opacity:0.1; fill:none" points="1220.77,1056.49 1220.77,101.872 "/>
<polyline clip-path="url(#clip771)" style="stroke:#000000; stroke-linecap:round; stroke-linejoin:round; stroke-width:2; stroke-opacity:0.1; fill:none" points="1677.26,1056.49 1677.26,101.872 "/>
<polyline clip-path="url(#clip771)" style="stroke:#000000; stroke-linecap:round; stroke-linejoin:round; stroke-width:2; stroke-opacity:0.1; fill:none" points="2133.75,1056.49 2133.75,101.872 "/>
<polyline clip-path="url(#clip771)" style="stroke:#000000; stroke-linecap:round; stroke-linejoin:round; stroke-width:2; stroke-opacity:0.1; fill:none" points="2590.24,1056.49 2590.24,101.872 "/>
<polyline clip-path="url(#clip771)" style="stroke:#000000; stroke-linecap:round; stroke-linejoin:round; stroke-width:2; stroke-opacity:0.1; fill:none" points="236.571,1014.99 2752.76,1014.99 "/>
<polyline clip-path="url(#clip771)" style="stroke:#000000; stroke-linecap:round; stroke-linejoin:round; stroke-width:2; stroke-opacity:0.1; fill:none" points="236.571,807.462 2752.76,807.462 "/>
<polyline clip-path="url(#clip771)" style="stroke:#000000; stroke-linecap:round; stroke-linejoin:round; stroke-width:2; stroke-opacity:0.1; fill:none" points="236.571,599.936 2752.76,599.936 "/>
<polyline clip-path="url(#clip771)" style="stroke:#000000; stroke-linecap:round; stroke-linejoin:round; stroke-width:2; stroke-opacity:0.1; fill:none" points="236.571,392.409 2752.76,392.409 "/>
<polyline clip-path="url(#clip771)" style="stroke:#000000; stroke-linecap:round; stroke-linejoin:round; stroke-width:2; stroke-opacity:0.1; fill:none" points="236.571,184.883 2752.76,184.883 "/>
<polyline clip-path="url(#clip770)" style="stroke:#000000; stroke-linecap:round; stroke-linejoin:round; stroke-width:4; stroke-opacity:1; fill:none" points="236.571,1056.49 2752.76,1056.49 "/>
<polyline clip-path="url(#clip770)" style="stroke:#000000; stroke-linecap:round; stroke-linejoin:round; stroke-width:4; stroke-opacity:1; fill:none" points="307.783,1056.49 307.783,1037.6 "/>
<polyline clip-path="url(#clip770)" style="stroke:#000000; stroke-linecap:round; stroke-linejoin:round; stroke-width:4; stroke-opacity:1; fill:none" points="764.276,1056.49 764.276,1037.6 "/>
<polyline clip-path="url(#clip770)" style="stroke:#000000; stroke-linecap:round; stroke-linejoin:round; stroke-width:4; stroke-opacity:1; fill:none" points="1220.77,1056.49 1220.77,1037.6 "/>
<polyline clip-path="url(#clip770)" style="stroke:#000000; stroke-linecap:round; stroke-linejoin:round; stroke-width:4; stroke-opacity:1; fill:none" points="1677.26,1056.49 1677.26,1037.6 "/>
<polyline clip-path="url(#clip770)" style="stroke:#000000; stroke-linecap:round; stroke-linejoin:round; stroke-width:4; stroke-opacity:1; fill:none" points="2133.75,1056.49 2133.75,1037.6 "/>
<polyline clip-path="url(#clip770)" style="stroke:#000000; stroke-linecap:round; stroke-linejoin:round; stroke-width:4; stroke-opacity:1; fill:none" points="2590.24,1056.49 2590.24,1037.6 "/>
<path clip-path="url(#clip770)" d="M307.783 1090.61 Q304.172 1090.61 302.344 1094.18 Q300.538 1097.72 300.538 1104.85 Q300.538 1111.96 302.344 1115.52 Q304.172 1119.06 307.783 1119.06 Q311.418 1119.06 313.223 1115.52 Q315.052 1111.96 315.052 1104.85 Q315.052 1097.72 313.223 1094.18 Q311.418 1090.61 307.783 1090.61 M307.783 1086.91 Q313.594 1086.91 316.649 1091.52 Q319.728 1096.1 319.728 1104.85 Q319.728 1113.58 316.649 1118.18 Q313.594 1122.77 307.783 1122.77 Q301.973 1122.77 298.895 1118.18 Q295.839 1113.58 295.839 1104.85 Q295.839 1096.1 298.895 1091.52 Q301.973 1086.91 307.783 1086.91 Z" fill="#000000" fill-rule="nonzero" fill-opacity="1" /><path clip-path="url(#clip770)" d="M738.963 1118.16 L746.602 1118.16 L746.602 1091.79 L738.292 1093.46 L738.292 1089.2 L746.556 1087.53 L751.232 1087.53 L751.232 1118.16 L758.871 1118.16 L758.871 1122.09 L738.963 1122.09 L738.963 1118.16 Z" fill="#000000" fill-rule="nonzero" fill-opacity="1" /><path clip-path="url(#clip770)" d="M778.315 1090.61 Q774.704 1090.61 772.875 1094.18 Q771.07 1097.72 771.07 1104.85 Q771.07 1111.96 772.875 1115.52 Q774.704 1119.06 778.315 1119.06 Q781.949 1119.06 783.755 1115.52 Q785.583 1111.96 785.583 1104.85 Q785.583 1097.72 783.755 1094.18 Q781.949 1090.61 778.315 1090.61 M778.315 1086.91 Q784.125 1086.91 787.181 1091.52 Q790.259 1096.1 790.259 1104.85 Q790.259 1113.58 787.181 1118.18 Q784.125 1122.77 778.315 1122.77 Q772.505 1122.77 769.426 1118.18 Q766.371 1113.58 766.371 1104.85 Q766.371 1096.1 769.426 1091.52 Q772.505 1086.91 778.315 1086.91 Z" fill="#000000" fill-rule="nonzero" fill-opacity="1" /><path clip-path="url(#clip770)" d="M1199.54 1118.16 L1215.86 1118.16 L1215.86 1122.09 L1193.92 1122.09 L1193.92 1118.16 Q1196.58 1115.4 1201.16 1110.77 Q1205.77 1106.12 1206.95 1104.78 Q1209.19 1102.26 1210.07 1100.52 Q1210.98 1098.76 1210.98 1097.07 Q1210.98 1094.32 1209.03 1092.58 Q1207.11 1090.84 1204.01 1090.84 Q1201.81 1090.84 1199.36 1091.61 Q1196.93 1092.37 1194.15 1093.92 L1194.15 1089.2 Q1196.97 1088.07 1199.43 1087.49 Q1201.88 1086.91 1203.92 1086.91 Q1209.29 1086.91 1212.48 1089.59 Q1215.68 1092.28 1215.68 1096.77 Q1215.68 1098.9 1214.87 1100.82 Q1214.08 1102.72 1211.97 1105.31 Q1211.39 1105.98 1208.29 1109.2 Q1205.19 1112.4 1199.54 1118.16 Z" fill="#000000" fill-rule="nonzero" fill-opacity="1" /><path clip-path="url(#clip770)" d="M1235.68 1090.61 Q1232.06 1090.61 1230.24 1094.18 Q1228.43 1097.72 1228.43 1104.85 Q1228.43 1111.96 1230.24 1115.52 Q1232.06 1119.06 1235.68 1119.06 Q1239.31 1119.06 1241.12 1115.52 Q1242.94 1111.96 1242.94 1104.85 Q1242.94 1097.72 1241.12 1094.18 Q1239.31 1090.61 1235.68 1090.61 M1235.68 1086.91 Q1241.49 1086.91 1244.54 1091.52 Q1247.62 1096.1 1247.62 1104.85 Q1247.62 1113.58 1244.54 1118.18 Q1241.49 1122.77 1235.68 1122.77 Q1229.87 1122.77 1226.79 1118.18 Q1223.73 1113.58 1223.73 1104.85 Q1223.73 1096.1 1226.79 1091.52 Q1229.87 1086.91 1235.68 1086.91 Z" fill="#000000" fill-rule="nonzero" fill-opacity="1" /><path clip-path="url(#clip770)" d="M1666.1 1103.46 Q1669.46 1104.18 1671.33 1106.45 Q1673.23 1108.71 1673.23 1112.05 Q1673.23 1117.16 1669.71 1119.96 Q1666.2 1122.77 1659.71 1122.77 Q1657.54 1122.77 1655.22 1122.33 Q1652.93 1121.91 1650.48 1121.05 L1650.48 1116.54 Q1652.42 1117.67 1654.74 1118.25 Q1657.05 1118.83 1659.58 1118.83 Q1663.97 1118.83 1666.26 1117.09 Q1668.58 1115.36 1668.58 1112.05 Q1668.58 1108.99 1666.43 1107.28 Q1664.3 1105.54 1660.48 1105.54 L1656.45 1105.54 L1656.45 1101.7 L1660.66 1101.7 Q1664.11 1101.7 1665.94 1100.33 Q1667.77 1098.95 1667.77 1096.35 Q1667.77 1093.69 1665.87 1092.28 Q1664 1090.84 1660.48 1090.84 Q1658.56 1090.84 1656.36 1091.26 Q1654.16 1091.68 1651.52 1092.56 L1651.52 1088.39 Q1654.18 1087.65 1656.5 1087.28 Q1658.83 1086.91 1660.89 1086.91 Q1666.22 1086.91 1669.32 1089.34 Q1672.42 1091.75 1672.42 1095.87 Q1672.42 1098.74 1670.78 1100.73 Q1669.14 1102.7 1666.1 1103.46 Z" fill="#000000" fill-rule="nonzero" fill-opacity="1" /><path clip-path="url(#clip770)" d="M1692.1 1090.61 Q1688.49 1090.61 1686.66 1094.18 Q1684.85 1097.72 1684.85 1104.85 Q1684.85 1111.96 1686.66 1115.52 Q1688.49 1119.06 1692.1 1119.06 Q1695.73 1119.06 1697.54 1115.52 Q1699.37 1111.96 1699.37 1104.85 Q1699.37 1097.72 1697.54 1094.18 Q1695.73 1090.61 1692.1 1090.61 M1692.1 1086.91 Q1697.91 1086.91 1700.96 1091.52 Q1704.04 1096.1 1704.04 1104.85 Q1704.04 1113.58 1700.96 1118.18 Q1697.91 1122.77 1692.1 1122.77 Q1686.29 1122.77 1683.21 1118.18 Q1680.15 1113.58 1680.15 1104.85 Q1680.15 1096.1 1683.21 1091.52 Q1686.29 1086.91 1692.1 1086.91 Z" fill="#000000" fill-rule="nonzero" fill-opacity="1" /><path clip-path="url(#clip770)" d="M2121.92 1091.61 L2110.12 1110.06 L2121.92 1110.06 L2121.92 1091.61 M2120.7 1087.53 L2126.58 1087.53 L2126.58 1110.06 L2131.51 1110.06 L2131.51 1113.95 L2126.58 1113.95 L2126.58 1122.09 L2121.92 1122.09 L2121.92 1113.95 L2106.32 1113.95 L2106.32 1109.43 L2120.7 1087.53 Z" fill="#000000" fill-rule="nonzero" fill-opacity="1" /><path clip-path="url(#clip770)" d="M2149.24 1090.61 Q2145.63 1090.61 2143.8 1094.18 Q2141.99 1097.72 2141.99 1104.85 Q2141.99 1111.96 2143.8 1115.52 Q2145.63 1119.06 2149.24 1119.06 Q2152.87 1119.06 2154.68 1115.52 Q2156.51 1111.96 2156.51 1104.85 Q2156.51 1097.72 2154.68 1094.18 Q2152.87 1090.61 2149.24 1090.61 M2149.24 1086.91 Q2155.05 1086.91 2158.1 1091.52 Q2161.18 1096.1 2161.18 1104.85 Q2161.18 1113.58 2158.1 1118.18 Q2155.05 1122.77 2149.24 1122.77 Q2143.43 1122.77 2140.35 1118.18 Q2137.29 1113.58 2137.29 1104.85 Q2137.29 1096.1 2140.35 1091.52 Q2143.43 1086.91 2149.24 1086.91 Z" fill="#000000" fill-rule="nonzero" fill-opacity="1" /><path clip-path="url(#clip770)" d="M2564.94 1087.53 L2583.3 1087.53 L2583.3 1091.47 L2569.23 1091.47 L2569.23 1099.94 Q2570.24 1099.59 2571.26 1099.43 Q2572.28 1099.25 2573.3 1099.25 Q2579.09 1099.25 2582.47 1102.42 Q2585.85 1105.59 2585.85 1111.01 Q2585.85 1116.58 2582.37 1119.69 Q2578.9 1122.77 2572.58 1122.77 Q2570.41 1122.77 2568.14 1122.4 Q2565.89 1122.02 2563.49 1121.28 L2563.49 1116.58 Q2565.57 1117.72 2567.79 1118.27 Q2570.01 1118.83 2572.49 1118.83 Q2576.49 1118.83 2578.83 1116.72 Q2581.17 1114.62 2581.17 1111.01 Q2581.17 1107.4 2578.83 1105.29 Q2576.49 1103.18 2572.49 1103.18 Q2570.62 1103.18 2568.74 1103.6 Q2566.89 1104.02 2564.94 1104.9 L2564.94 1087.53 Z" fill="#000000" fill-rule="nonzero" fill-opacity="1" /><path clip-path="url(#clip770)" d="M2605.06 1090.61 Q2601.45 1090.61 2599.62 1094.18 Q2597.81 1097.72 2597.81 1104.85 Q2597.81 1111.96 2599.62 1115.52 Q2601.45 1119.06 2605.06 1119.06 Q2608.69 1119.06 2610.5 1115.52 Q2612.33 1111.96 2612.33 1104.85 Q2612.33 1097.72 2610.5 1094.18 Q2608.69 1090.61 2605.06 1090.61 M2605.06 1086.91 Q2610.87 1086.91 2613.93 1091.52 Q2617 1096.1 2617 1104.85 Q2617 1113.58 2613.93 1118.18 Q2610.87 1122.77 2605.06 1122.77 Q2599.25 1122.77 2596.17 1118.18 Q2593.12 1113.58 2593.12 1104.85 Q2593.12 1096.1 2596.17 1091.52 Q2599.25 1086.91 2605.06 1086.91 Z" fill="#000000" fill-rule="nonzero" fill-opacity="1" /><path clip-path="url(#clip770)" d="M1406.55 1159.84 L1413.04 1159.84 L1423.03 1200.01 L1433 1159.84 L1440.22 1159.84 L1450.21 1200.01 L1460.18 1159.84 L1466.7 1159.84 L1454.77 1207.36 L1446.68 1207.36 L1436.66 1166.11 L1426.53 1207.36 L1418.45 1207.36 L1406.55 1159.84 Z" fill="#000000" fill-rule="nonzero" fill-opacity="1" /><path clip-path="url(#clip770)" d="M1501.65 1188.07 L1501.65 1190.93 L1474.72 1190.93 Q1475.1 1196.98 1478.35 1200.16 Q1481.63 1203.32 1487.45 1203.32 Q1490.83 1203.32 1493.98 1202.49 Q1497.16 1201.66 1500.28 1200.01 L1500.28 1205.54 Q1497.13 1206.88 1493.82 1207.58 Q1490.51 1208.28 1487.1 1208.28 Q1478.57 1208.28 1473.58 1203.32 Q1468.61 1198.35 1468.61 1189.88 Q1468.61 1181.13 1473.32 1176.01 Q1478.06 1170.85 1486.09 1170.85 Q1493.28 1170.85 1497.45 1175.5 Q1501.65 1180.11 1501.65 1188.07 M1495.79 1186.35 Q1495.73 1181.55 1493.09 1178.68 Q1490.48 1175.82 1486.15 1175.82 Q1481.25 1175.82 1478.29 1178.59 Q1475.36 1181.35 1474.91 1186.38 L1495.79 1186.35 Z" fill="#000000" fill-rule="nonzero" fill-opacity="1" /><path clip-path="url(#clip770)" d="M1541.75 1188.07 L1541.75 1190.93 L1514.83 1190.93 Q1515.21 1196.98 1518.46 1200.16 Q1521.73 1203.32 1527.56 1203.32 Q1530.93 1203.32 1534.08 1202.49 Q1537.27 1201.66 1540.38 1200.01 L1540.38 1205.54 Q1537.23 1206.88 1533.92 1207.58 Q1530.61 1208.28 1527.21 1208.28 Q1518.68 1208.28 1513.68 1203.32 Q1508.72 1198.35 1508.72 1189.88 Q1508.72 1181.13 1513.43 1176.01 Q1518.17 1170.85 1526.19 1170.85 Q1533.38 1170.85 1537.55 1175.5 Q1541.75 1180.11 1541.75 1188.07 M1535.9 1186.35 Q1535.83 1181.55 1533.19 1178.68 Q1530.58 1175.82 1526.25 1175.82 Q1521.35 1175.82 1518.39 1178.59 Q1515.46 1181.35 1515.02 1186.38 L1535.9 1186.35 Z" fill="#000000" fill-rule="nonzero" fill-opacity="1" /><path clip-path="url(#clip770)" d="M1551.14 1157.83 L1557.03 1157.83 L1557.03 1187.08 L1574.51 1171.71 L1581.98 1171.71 L1563.08 1188.39 L1582.78 1207.36 L1575.14 1207.36 L1557.03 1189.95 L1557.03 1207.36 L1551.14 1207.36 L1551.14 1157.83 Z" fill="#000000" fill-rule="nonzero" fill-opacity="1" /><polyline clip-path="url(#clip770)" style="stroke:#000000; stroke-linecap:round; stroke-linejoin:round; stroke-width:4; stroke-opacity:1; fill:none" points="236.571,1056.49 236.571,101.872 "/>
<polyline clip-path="url(#clip770)" style="stroke:#000000; stroke-linecap:round; stroke-linejoin:round; stroke-width:4; stroke-opacity:1; fill:none" points="236.571,1014.99 255.468,1014.99 "/>
<polyline clip-path="url(#clip770)" style="stroke:#000000; stroke-linecap:round; stroke-linejoin:round; stroke-width:4; stroke-opacity:1; fill:none" points="236.571,807.462 255.468,807.462 "/>
<polyline clip-path="url(#clip770)" style="stroke:#000000; stroke-linecap:round; stroke-linejoin:round; stroke-width:4; stroke-opacity:1; fill:none" points="236.571,599.936 255.468,599.936 "/>
<polyline clip-path="url(#clip770)" style="stroke:#000000; stroke-linecap:round; stroke-linejoin:round; stroke-width:4; stroke-opacity:1; fill:none" points="236.571,392.409 255.468,392.409 "/>
<polyline clip-path="url(#clip770)" style="stroke:#000000; stroke-linecap:round; stroke-linejoin:round; stroke-width:4; stroke-opacity:1; fill:none" points="236.571,184.883 255.468,184.883 "/>
<path clip-path="url(#clip770)" d="M107.233 1000.79 Q103.622 1000.79 101.793 1004.35 Q99.9878 1007.89 99.9878 1015.02 Q99.9878 1022.13 101.793 1025.69 Q103.622 1029.24 107.233 1029.24 Q110.867 1029.24 112.673 1025.69 Q114.502 1022.13 114.502 1015.02 Q114.502 1007.89 112.673 1004.35 Q110.867 1000.79 107.233 1000.79 M107.233 997.084 Q113.043 997.084 116.099 1001.69 Q119.177 1006.27 119.177 1015.02 Q119.177 1023.75 116.099 1028.36 Q113.043 1032.94 107.233 1032.94 Q101.423 1032.94 98.3443 1028.36 Q95.2887 1023.75 95.2887 1015.02 Q95.2887 1006.27 98.3443 1001.69 Q101.423 997.084 107.233 997.084 Z" fill="#000000" fill-rule="nonzero" fill-opacity="1" /><path clip-path="url(#clip770)" d="M127.395 1026.39 L132.279 1026.39 L132.279 1032.27 L127.395 1032.27 L127.395 1026.39 Z" fill="#000000" fill-rule="nonzero" fill-opacity="1" /><path clip-path="url(#clip770)" d="M152.464 1000.79 Q148.853 1000.79 147.025 1004.35 Q145.219 1007.89 145.219 1015.02 Q145.219 1022.13 147.025 1025.69 Q148.853 1029.24 152.464 1029.24 Q156.099 1029.24 157.904 1025.69 Q159.733 1022.13 159.733 1015.02 Q159.733 1007.89 157.904 1004.35 Q156.099 1000.79 152.464 1000.79 M152.464 997.084 Q158.275 997.084 161.33 1001.69 Q164.409 1006.27 164.409 1015.02 Q164.409 1023.75 161.33 1028.36 Q158.275 1032.94 152.464 1032.94 Q146.654 1032.94 143.576 1028.36 Q140.52 1023.75 140.52 1015.02 Q140.52 1006.27 143.576 1001.69 Q146.654 997.084 152.464 997.084 Z" fill="#000000" fill-rule="nonzero" fill-opacity="1" /><path clip-path="url(#clip770)" d="M182.626 1000.79 Q179.015 1000.79 177.186 1004.35 Q175.381 1007.89 175.381 1015.02 Q175.381 1022.13 177.186 1025.69 Q179.015 1029.24 182.626 1029.24 Q186.26 1029.24 188.066 1025.69 Q189.895 1022.13 189.895 1015.02 Q189.895 1007.89 188.066 1004.35 Q186.26 1000.79 182.626 1000.79 M182.626 997.084 Q188.436 997.084 191.492 1001.69 Q194.571 1006.27 194.571 1015.02 Q194.571 1023.75 191.492 1028.36 Q188.436 1032.94 182.626 1032.94 Q176.816 1032.94 173.737 1028.36 Q170.682 1023.75 170.682 1015.02 Q170.682 1006.27 173.737 1001.69 Q176.816 997.084 182.626 997.084 Z" fill="#000000" fill-rule="nonzero" fill-opacity="1" /><path clip-path="url(#clip770)" d="M108.228 793.261 Q104.617 793.261 102.789 796.826 Q100.983 800.367 100.983 807.497 Q100.983 814.603 102.789 818.168 Q104.617 821.71 108.228 821.71 Q111.863 821.71 113.668 818.168 Q115.497 814.603 115.497 807.497 Q115.497 800.367 113.668 796.826 Q111.863 793.261 108.228 793.261 M108.228 789.557 Q114.039 789.557 117.094 794.164 Q120.173 798.747 120.173 807.497 Q120.173 816.224 117.094 820.83 Q114.039 825.414 108.228 825.414 Q102.418 825.414 99.3396 820.83 Q96.2841 816.224 96.2841 807.497 Q96.2841 798.747 99.3396 794.164 Q102.418 789.557 108.228 789.557 Z" fill="#000000" fill-rule="nonzero" fill-opacity="1" /><path clip-path="url(#clip770)" d="M128.39 818.863 L133.275 818.863 L133.275 824.742 L128.39 824.742 L128.39 818.863 Z" fill="#000000" fill-rule="nonzero" fill-opacity="1" /><path clip-path="url(#clip770)" d="M147.488 820.807 L163.807 820.807 L163.807 824.742 L141.863 824.742 L141.863 820.807 Q144.525 818.053 149.108 813.423 Q153.714 808.77 154.895 807.428 Q157.14 804.904 158.02 803.168 Q158.923 801.409 158.923 799.719 Q158.923 796.965 156.978 795.229 Q155.057 793.492 151.955 793.492 Q149.756 793.492 147.302 794.256 Q144.872 795.02 142.094 796.571 L142.094 791.849 Q144.918 790.715 147.372 790.136 Q149.825 789.557 151.862 789.557 Q157.233 789.557 160.427 792.242 Q163.622 794.928 163.622 799.418 Q163.622 801.548 162.812 803.469 Q162.024 805.367 159.918 807.96 Q159.339 808.631 156.237 811.849 Q153.136 815.043 147.488 820.807 Z" fill="#000000" fill-rule="nonzero" fill-opacity="1" /><path clip-path="url(#clip770)" d="M173.668 790.182 L192.024 790.182 L192.024 794.117 L177.95 794.117 L177.95 802.59 Q178.969 802.242 179.987 802.08 Q181.006 801.895 182.024 801.895 Q187.811 801.895 191.191 805.066 Q194.571 808.238 194.571 813.654 Q194.571 819.233 191.098 822.335 Q187.626 825.414 181.307 825.414 Q179.131 825.414 176.862 825.043 Q174.617 824.673 172.21 823.932 L172.21 819.233 Q174.293 820.367 176.515 820.923 Q178.737 821.478 181.214 821.478 Q185.219 821.478 187.557 819.372 Q189.895 817.265 189.895 813.654 Q189.895 810.043 187.557 807.937 Q185.219 805.83 181.214 805.83 Q179.339 805.83 177.464 806.247 Q175.612 806.664 173.668 807.543 L173.668 790.182 Z" fill="#000000" fill-rule="nonzero" fill-opacity="1" /><path clip-path="url(#clip770)" d="M107.233 585.734 Q103.622 585.734 101.793 589.299 Q99.9878 592.841 99.9878 599.971 Q99.9878 607.077 101.793 610.642 Q103.622 614.183 107.233 614.183 Q110.867 614.183 112.673 610.642 Q114.502 607.077 114.502 599.971 Q114.502 592.841 112.673 589.299 Q110.867 585.734 107.233 585.734 M107.233 582.031 Q113.043 582.031 116.099 586.637 Q119.177 591.221 119.177 599.971 Q119.177 608.697 116.099 613.304 Q113.043 617.887 107.233 617.887 Q101.423 617.887 98.3443 613.304 Q95.2887 608.697 95.2887 599.971 Q95.2887 591.221 98.3443 586.637 Q101.423 582.031 107.233 582.031 Z" fill="#000000" fill-rule="nonzero" fill-opacity="1" /><path clip-path="url(#clip770)" d="M127.395 611.336 L132.279 611.336 L132.279 617.216 L127.395 617.216 L127.395 611.336 Z" fill="#000000" fill-rule="nonzero" fill-opacity="1" /><path clip-path="url(#clip770)" d="M142.511 582.656 L160.867 582.656 L160.867 586.591 L146.793 586.591 L146.793 595.063 Q147.812 594.716 148.83 594.554 Q149.849 594.369 150.867 594.369 Q156.654 594.369 160.034 597.54 Q163.413 600.711 163.413 606.128 Q163.413 611.707 159.941 614.808 Q156.469 617.887 150.15 617.887 Q147.974 617.887 145.705 617.517 Q143.46 617.146 141.052 616.406 L141.052 611.707 Q143.136 612.841 145.358 613.396 Q147.58 613.952 150.057 613.952 Q154.062 613.952 156.4 611.845 Q158.737 609.739 158.737 606.128 Q158.737 602.517 156.4 600.41 Q154.062 598.304 150.057 598.304 Q148.182 598.304 146.307 598.721 Q144.455 599.137 142.511 600.017 L142.511 582.656 Z" fill="#000000" fill-rule="nonzero" fill-opacity="1" /><path clip-path="url(#clip770)" d="M182.626 585.734 Q179.015 585.734 177.186 589.299 Q175.381 592.841 175.381 599.971 Q175.381 607.077 177.186 610.642 Q179.015 614.183 182.626 614.183 Q186.26 614.183 188.066 610.642 Q189.895 607.077 189.895 599.971 Q189.895 592.841 188.066 589.299 Q186.26 585.734 182.626 585.734 M182.626 582.031 Q188.436 582.031 191.492 586.637 Q194.571 591.221 194.571 599.971 Q194.571 608.697 191.492 613.304 Q188.436 617.887 182.626 617.887 Q176.816 617.887 173.737 613.304 Q170.682 608.697 170.682 599.971 Q170.682 591.221 173.737 586.637 Q176.816 582.031 182.626 582.031 Z" fill="#000000" fill-rule="nonzero" fill-opacity="1" /><path clip-path="url(#clip770)" d="M108.228 378.208 Q104.617 378.208 102.789 381.773 Q100.983 385.314 100.983 392.444 Q100.983 399.55 102.789 403.115 Q104.617 406.657 108.228 406.657 Q111.863 406.657 113.668 403.115 Q115.497 399.55 115.497 392.444 Q115.497 385.314 113.668 381.773 Q111.863 378.208 108.228 378.208 M108.228 374.504 Q114.039 374.504 117.094 379.111 Q120.173 383.694 120.173 392.444 Q120.173 401.171 117.094 405.777 Q114.039 410.361 108.228 410.361 Q102.418 410.361 99.3396 405.777 Q96.2841 401.171 96.2841 392.444 Q96.2841 383.694 99.3396 379.111 Q102.418 374.504 108.228 374.504 Z" fill="#000000" fill-rule="nonzero" fill-opacity="1" /><path clip-path="url(#clip770)" d="M128.39 403.81 L133.275 403.81 L133.275 409.689 L128.39 409.689 L128.39 403.81 Z" fill="#000000" fill-rule="nonzero" fill-opacity="1" /><path clip-path="url(#clip770)" d="M142.279 375.129 L164.501 375.129 L164.501 377.12 L151.955 409.689 L147.071 409.689 L158.876 379.064 L142.279 379.064 L142.279 375.129 Z" fill="#000000" fill-rule="nonzero" fill-opacity="1" /><path clip-path="url(#clip770)" d="M173.668 375.129 L192.024 375.129 L192.024 379.064 L177.95 379.064 L177.95 387.537 Q178.969 387.189 179.987 387.027 Q181.006 386.842 182.024 386.842 Q187.811 386.842 191.191 390.013 Q194.571 393.185 194.571 398.601 Q194.571 404.18 191.098 407.282 Q187.626 410.361 181.307 410.361 Q179.131 410.361 176.862 409.99 Q174.617 409.62 172.21 408.879 L172.21 404.18 Q174.293 405.314 176.515 405.87 Q178.737 406.425 181.214 406.425 Q185.219 406.425 187.557 404.319 Q189.895 402.212 189.895 398.601 Q189.895 394.99 187.557 392.884 Q185.219 390.777 181.214 390.777 Q179.339 390.777 177.464 391.194 Q175.612 391.611 173.668 392.49 L173.668 375.129 Z" fill="#000000" fill-rule="nonzero" fill-opacity="1" /><path clip-path="url(#clip770)" d="M98.0433 198.228 L105.682 198.228 L105.682 171.862 L97.3721 173.529 L97.3721 169.269 L105.636 167.603 L110.312 167.603 L110.312 198.228 L117.951 198.228 L117.951 202.163 L98.0433 202.163 L98.0433 198.228 Z" fill="#000000" fill-rule="nonzero" fill-opacity="1" /><path clip-path="url(#clip770)" d="M127.395 196.283 L132.279 196.283 L132.279 202.163 L127.395 202.163 L127.395 196.283 Z" fill="#000000" fill-rule="nonzero" fill-opacity="1" /><path clip-path="url(#clip770)" d="M152.464 170.681 Q148.853 170.681 147.025 174.246 Q145.219 177.788 145.219 184.917 Q145.219 192.024 147.025 195.589 Q148.853 199.13 152.464 199.13 Q156.099 199.13 157.904 195.589 Q159.733 192.024 159.733 184.917 Q159.733 177.788 157.904 174.246 Q156.099 170.681 152.464 170.681 M152.464 166.978 Q158.275 166.978 161.33 171.584 Q164.409 176.168 164.409 184.917 Q164.409 193.644 161.33 198.251 Q158.275 202.834 152.464 202.834 Q146.654 202.834 143.576 198.251 Q140.52 193.644 140.52 184.917 Q140.52 176.168 143.576 171.584 Q146.654 166.978 152.464 166.978 Z" fill="#000000" fill-rule="nonzero" fill-opacity="1" /><path clip-path="url(#clip770)" d="M182.626 170.681 Q179.015 170.681 177.186 174.246 Q175.381 177.788 175.381 184.917 Q175.381 192.024 177.186 195.589 Q179.015 199.13 182.626 199.13 Q186.26 199.13 188.066 195.589 Q189.895 192.024 189.895 184.917 Q189.895 177.788 188.066 174.246 Q186.26 170.681 182.626 170.681 M182.626 166.978 Q188.436 166.978 191.492 171.584 Q194.571 176.168 194.571 184.917 Q194.571 193.644 191.492 198.251 Q188.436 202.834 182.626 202.834 Q176.816 202.834 173.737 198.251 Q170.682 193.644 170.682 184.917 Q170.682 176.168 173.737 171.584 Q176.816 166.978 182.626 166.978 Z" fill="#000000" fill-rule="nonzero" fill-opacity="1" /><path clip-path="url(#clip770)" d="M-8.48727 871.162 L-8.48727 830.963 L-3.07642 830.963 L-3.07642 847.832 L39.0327 847.832 L39.0327 854.293 L-3.07642 854.293 L-3.07642 871.162 L-8.48727 871.162 Z" fill="#000000" fill-rule="nonzero" fill-opacity="1" /><path clip-path="url(#clip770)" d="M17.5166 795.378 L39.0327 795.378 L39.0327 801.235 L17.7076 801.235 Q12.6469 801.235 10.1324 803.208 Q7.61797 805.182 7.61797 809.128 Q7.61797 813.871 10.6417 816.608 Q13.6654 819.345 18.8853 819.345 L39.0327 819.345 L39.0327 825.234 L-10.4925 825.234 L-10.4925 819.345 L8.92294 819.345 Q5.70825 817.245 4.11683 814.412 Q2.5254 811.547 2.5254 807.823 Q2.5254 801.68 6.34483 798.529 Q10.1324 795.378 17.5166 795.378 Z" fill="#000000" fill-rule="nonzero" fill-opacity="1" /><path clip-path="url(#clip770)" d="M19.7446 753.206 L22.6092 753.206 L22.6092 780.133 Q28.6566 779.751 31.8395 776.504 Q34.9905 773.226 34.9905 767.401 Q34.9905 764.027 34.163 760.876 Q33.3354 757.693 31.6803 754.574 L37.2185 754.574 Q38.5553 757.725 39.2555 761.035 Q39.9558 764.346 39.9558 767.751 Q39.9558 776.281 34.9905 781.278 Q30.0253 786.244 21.5589 786.244 Q12.806 786.244 7.68162 781.533 Q2.5254 776.791 2.5254 768.77 Q2.5254 761.577 7.17237 757.407 Q11.7875 753.206 19.7446 753.206 M18.0259 759.062 Q13.2198 759.126 10.3552 761.768 Q7.49065 764.377 7.49065 768.706 Q7.49065 773.608 10.2597 776.568 Q13.0288 779.496 18.0577 779.942 L18.0259 759.062 Z" fill="#000000" fill-rule="nonzero" fill-opacity="1" /><path clip-path="url(#clip770)" d="M8.85928 722.937 Q8.28637 723.923 8.03174 725.101 Q7.74528 726.247 7.74528 727.647 Q7.74528 732.613 10.9918 735.286 Q14.2065 737.928 20.2539 737.928 L39.0327 737.928 L39.0327 743.816 L3.38477 743.816 L3.38477 737.928 L8.92294 737.928 Q5.67643 736.082 4.11683 733.122 Q2.5254 730.162 2.5254 725.929 Q2.5254 725.324 2.62089 724.592 Q2.68454 723.86 2.84369 722.969 L8.85928 722.937 Z" fill="#000000" fill-rule="nonzero" fill-opacity="1" /><path clip-path="url(#clip770)" d="M10.2279 690.185 Q6.28117 687.989 4.40328 684.933 Q2.5254 681.878 2.5254 677.74 Q2.5254 672.17 6.44031 669.146 Q10.3234 666.123 17.5166 666.123 L39.0327 666.123 L39.0327 672.011 L17.7076 672.011 Q12.5832 672.011 10.1006 673.825 Q7.61797 675.639 7.61797 679.363 Q7.61797 683.915 10.6417 686.557 Q13.6654 689.198 18.8853 689.198 L39.0327 689.198 L39.0327 695.087 L17.7076 695.087 Q12.5514 695.087 10.1006 696.901 Q7.61797 698.715 7.61797 702.503 Q7.61797 706.991 10.6735 709.632 Q13.6972 712.274 18.8853 712.274 L39.0327 712.274 L39.0327 718.162 L3.38477 718.162 L3.38477 712.274 L8.92294 712.274 Q5.6446 710.269 4.085 707.468 Q2.5254 704.667 2.5254 700.816 Q2.5254 696.933 4.49877 694.227 Q6.47214 691.49 10.2279 690.185 Z" fill="#000000" fill-rule="nonzero" fill-opacity="1" /><path clip-path="url(#clip770)" d="M21.1133 638.241 Q21.1133 645.339 22.7365 648.076 Q24.3598 650.813 28.2747 650.813 Q31.3939 650.813 33.2399 648.776 Q35.0542 646.707 35.0542 643.174 Q35.0542 638.305 31.6167 635.376 Q28.1474 632.416 22.4182 632.416 L21.1133 632.416 L21.1133 638.241 M18.6943 626.56 L39.0327 626.56 L39.0327 632.416 L33.6219 632.416 Q36.8684 634.422 38.428 637.413 Q39.9558 640.405 39.9558 644.734 Q39.9558 650.208 36.9002 653.455 Q33.8128 656.67 28.6566 656.67 Q22.641 656.67 19.5855 652.659 Q16.53 648.617 16.53 640.628 L16.53 632.416 L15.957 632.416 Q11.9148 632.416 9.71865 635.09 Q7.49065 637.732 7.49065 642.538 Q7.49065 645.593 8.22271 648.49 Q8.95477 651.386 10.4189 654.06 L5.00803 654.06 Q3.76671 650.845 3.16197 647.821 Q2.5254 644.798 2.5254 641.933 Q2.5254 634.199 6.5358 630.379 Q10.5462 626.56 18.6943 626.56 Z" fill="#000000" fill-rule="nonzero" fill-opacity="1" /><path clip-path="url(#clip770)" d="M-10.4925 614.497 L-10.4925 608.64 L39.0327 608.64 L39.0327 614.497 L-10.4925 614.497 Z" fill="#000000" fill-rule="nonzero" fill-opacity="1" /><path clip-path="url(#clip770)" d="M3.38477 575.666 L3.38477 569.81 L39.0327 569.81 L39.0327 575.666 L3.38477 575.666 M-10.4925 575.666 L-10.4925 569.81 L-3.07642 569.81 L-3.07642 575.666 L-10.4925 575.666 Z" fill="#000000" fill-rule="nonzero" fill-opacity="1" /><path clip-path="url(#clip770)" d="M17.5166 527.923 L39.0327 527.923 L39.0327 533.78 L17.7076 533.78 Q12.6469 533.78 10.1324 535.753 Q7.61797 537.726 7.61797 541.673 Q7.61797 546.416 10.6417 549.153 Q13.6654 551.89 18.8853 551.89 L39.0327 551.89 L39.0327 557.778 L3.38477 557.778 L3.38477 551.89 L8.92294 551.89 Q5.70825 549.789 4.11683 546.957 Q2.5254 544.092 2.5254 540.368 Q2.5254 534.225 6.34483 531.074 Q10.1324 527.923 17.5166 527.923 Z" fill="#000000" fill-rule="nonzero" fill-opacity="1" /><path clip-path="url(#clip770)" d="M8.79562 492.785 L-10.4925 492.785 L-10.4925 486.928 L39.0327 486.928 L39.0327 492.785 L33.6855 492.785 Q36.8684 494.631 38.428 497.463 Q39.9558 500.264 39.9558 504.211 Q39.9558 510.672 34.7995 514.746 Q29.6433 518.788 21.2406 518.788 Q12.8378 518.788 7.68162 514.746 Q2.5254 510.672 2.5254 504.211 Q2.5254 500.264 4.085 497.463 Q5.61277 494.631 8.79562 492.785 M21.2406 512.741 Q27.7018 512.741 31.3939 510.099 Q35.0542 507.426 35.0542 502.779 Q35.0542 498.132 31.3939 495.458 Q27.7018 492.785 21.2406 492.785 Q14.7794 492.785 11.1191 495.458 Q7.427 498.132 7.427 502.779 Q7.427 507.426 11.1191 510.099 Q14.7794 512.741 21.2406 512.741 Z" fill="#000000" fill-rule="nonzero" fill-opacity="1" /><path clip-path="url(#clip770)" d="M19.7446 444.373 L22.6092 444.373 L22.6092 471.3 Q28.6566 470.918 31.8395 467.672 Q34.9905 464.394 34.9905 458.569 Q34.9905 455.195 34.163 452.044 Q33.3354 448.861 31.6803 445.742 L37.2185 445.742 Q38.5553 448.893 39.2555 452.203 Q39.9558 455.513 39.9558 458.919 Q39.9558 467.449 34.9905 472.446 Q30.0253 477.411 21.5589 477.411 Q12.806 477.411 7.68162 472.701 Q2.5254 467.958 2.5254 459.938 Q2.5254 452.744 7.17237 448.575 Q11.7875 444.373 19.7446 444.373 M18.0259 450.23 Q13.2198 450.293 10.3552 452.935 Q7.49065 455.545 7.49065 459.874 Q7.49065 464.775 10.2597 467.736 Q13.0288 470.664 18.0577 471.109 L18.0259 450.23 Z" fill="#000000" fill-rule="nonzero" fill-opacity="1" /><path clip-path="url(#clip770)" d="M3.38477 406.275 L20.7313 419.165 L39.0327 405.606 L39.0327 412.513 L25.0282 422.889 L39.0327 433.265 L39.0327 440.172 L20.3812 426.327 L3.38477 438.994 L3.38477 432.088 L16.0844 422.634 L3.38477 413.181 L3.38477 406.275 Z" fill="#000000" fill-rule="nonzero" fill-opacity="1" /><path clip-path="url(#clip770)" d="M-10.4925 358.564 L-5.6227 358.564 L-5.6227 364.165 Q-5.6227 367.316 -4.34956 368.558 Q-3.07642 369.767 0.233747 369.767 L3.38477 369.767 L3.38477 360.123 L7.93625 360.123 L7.93625 369.767 L39.0327 369.767 L39.0327 375.656 L7.93625 375.656 L7.93625 381.257 L3.38477 381.257 L3.38477 375.656 L0.902146 375.656 Q-5.04979 375.656 -7.75521 372.886 Q-10.4925 370.117 -10.4925 364.102 L-10.4925 358.564 Z" fill="#000000" fill-rule="nonzero" fill-opacity="1" /><path clip-path="url(#clip770)" d="M49.8544 326.576 L54.4059 326.576 L54.4059 360.442 L49.8544 360.442 L49.8544 326.576 Z" fill="#000000" fill-rule="nonzero" fill-opacity="1" /><path clip-path="url(#clip770)" d="M-8.48727 327.404 L-8.48727 287.204 L-3.07642 287.204 L-3.07642 304.073 L39.0327 304.073 L39.0327 310.534 L-3.07642 310.534 L-3.07642 327.404 L-8.48727 327.404 Z" fill="#000000" fill-rule="nonzero" fill-opacity="1" /><path clip-path="url(#clip770)" d="M415.867 12.096 L467.03 12.096 L467.03 18.9825 L445.56 18.9825 L445.56 72.576 L437.337 72.576 L437.337 18.9825 L415.867 18.9825 L415.867 12.096 Z" fill="#000000" fill-rule="nonzero" fill-opacity="1" /><path clip-path="url(#clip770)" d="M512.319 45.1919 L512.319 72.576 L504.865 72.576 L504.865 45.4349 Q504.865 38.994 502.354 35.7938 Q499.842 32.5936 494.819 32.5936 Q488.783 32.5936 485.299 36.4419 Q481.816 40.2903 481.816 46.9338 L481.816 72.576 L474.322 72.576 L474.322 9.54393 L481.816 9.54393 L481.816 34.2544 Q484.489 30.163 488.095 28.1376 Q491.74 26.1121 496.48 26.1121 Q504.298 26.1121 508.309 30.9732 Q512.319 35.7938 512.319 45.1919 Z" fill="#000000" fill-rule="nonzero" fill-opacity="1" /><path clip-path="url(#clip770)" d="M565.993 48.0275 L565.993 51.6733 L531.723 51.6733 Q532.209 59.3701 536.341 63.421 Q540.513 67.4314 547.926 67.4314 Q552.22 67.4314 556.231 66.3781 Q560.282 65.3249 564.252 63.2184 L564.252 70.267 Q560.241 71.9684 556.028 72.8596 Q551.815 73.7508 547.481 73.7508 Q536.624 73.7508 530.264 67.4314 Q523.945 61.1119 523.945 50.3365 Q523.945 39.1965 529.94 32.6746 Q535.976 26.1121 546.185 26.1121 Q555.34 26.1121 560.646 32.0264 Q565.993 37.9003 565.993 48.0275 M558.54 45.84 Q558.459 39.7232 555.097 36.0774 Q551.775 32.4315 546.266 32.4315 Q540.027 32.4315 536.26 35.9558 Q532.533 39.4801 531.966 45.8805 L558.54 45.84 Z" fill="#000000" fill-rule="nonzero" fill-opacity="1" /><path clip-path="url(#clip770)" d="M604.518 34.1734 Q603.262 33.4443 601.763 33.1202 Q600.305 32.7556 598.522 32.7556 Q592.203 32.7556 588.8 36.8875 Q585.438 40.9789 585.438 48.6757 L585.438 72.576 L577.944 72.576 L577.944 27.2059 L585.438 27.2059 L585.438 34.2544 Q587.787 30.1225 591.555 28.1376 Q595.322 26.1121 600.71 26.1121 Q601.479 26.1121 602.411 26.2337 Q603.343 26.3147 604.477 26.5172 L604.518 34.1734 Z" fill="#000000" fill-rule="nonzero" fill-opacity="1" /><path clip-path="url(#clip770)" d="M646.201 35.9153 Q648.996 30.8922 652.885 28.5022 Q656.774 26.1121 662.04 26.1121 Q669.129 26.1121 672.978 31.0947 Q676.826 36.0368 676.826 45.1919 L676.826 72.576 L669.332 72.576 L669.332 45.4349 Q669.332 38.913 667.023 35.7533 Q664.714 32.5936 659.974 32.5936 Q654.182 32.5936 650.819 36.4419 Q647.457 40.2903 647.457 46.9338 L647.457 72.576 L639.963 72.576 L639.963 45.4349 Q639.963 38.8725 637.654 35.7533 Q635.345 32.5936 630.524 32.5936 Q624.813 32.5936 621.45 36.4824 Q618.088 40.3308 618.088 46.9338 L618.088 72.576 L610.594 72.576 L610.594 27.2059 L618.088 27.2059 L618.088 34.2544 Q620.64 30.082 624.205 28.0971 Q627.77 26.1121 632.671 26.1121 Q637.613 26.1121 641.057 28.6237 Q644.54 31.1352 646.201 35.9153 Z" fill="#000000" fill-rule="nonzero" fill-opacity="1" /><path clip-path="url(#clip770)" d="M712.312 49.7694 Q703.279 49.7694 699.795 51.8354 Q696.311 53.9013 696.311 58.8839 Q696.311 62.8538 698.904 65.2034 Q701.537 67.5124 706.033 67.5124 Q712.231 67.5124 715.958 63.1374 Q719.725 58.7219 719.725 51.4303 L719.725 49.7694 L712.312 49.7694 M727.179 46.6907 L727.179 72.576 L719.725 72.576 L719.725 65.6895 Q717.173 69.8214 713.365 71.8063 Q709.558 73.7508 704.048 73.7508 Q697.081 73.7508 692.949 69.8619 Q688.857 65.9325 688.857 59.3701 Q688.857 51.7138 693.962 47.825 Q699.106 43.9361 709.274 43.9361 L719.725 43.9361 L719.725 43.2069 Q719.725 38.0623 716.323 35.2672 Q712.96 32.4315 706.843 32.4315 Q702.955 32.4315 699.268 33.3632 Q695.582 34.295 692.179 36.1584 L692.179 29.2718 Q696.271 27.692 700.119 26.9223 Q703.967 26.1121 707.613 26.1121 Q717.457 26.1121 722.318 31.2163 Q727.179 36.3204 727.179 46.6907 Z" fill="#000000" fill-rule="nonzero" fill-opacity="1" /><path clip-path="url(#clip770)" d="M742.532 9.54393 L749.986 9.54393 L749.986 72.576 L742.532 72.576 L742.532 9.54393 Z" fill="#000000" fill-rule="nonzero" fill-opacity="1" /><path clip-path="url(#clip770)" d="M820.876 28.5427 L820.876 35.5912 Q817.717 33.9709 814.314 33.1607 Q810.911 32.3505 807.265 32.3505 Q801.716 32.3505 798.92 34.0519 Q796.166 35.7533 796.166 39.156 Q796.166 41.7486 798.151 43.2475 Q800.136 44.7058 806.131 46.0426 L808.683 46.6097 Q816.623 48.3111 819.945 51.4303 Q823.307 54.509 823.307 60.0587 Q823.307 66.3781 818.284 70.0644 Q813.301 73.7508 804.551 73.7508 Q800.905 73.7508 796.936 73.0216 Q793.006 72.3329 788.631 70.9151 L788.631 63.2184 Q792.763 65.3654 796.773 66.4591 Q800.784 67.5124 804.713 67.5124 Q809.979 67.5124 812.815 65.73 Q815.651 63.9071 815.651 60.6258 Q815.651 57.5877 813.585 55.9673 Q811.559 54.3469 804.632 52.8481 L802.04 52.2405 Q795.113 50.7821 792.034 47.7845 Q788.955 44.7463 788.955 39.4801 Q788.955 33.0797 793.492 29.5959 Q798.029 26.1121 806.374 26.1121 Q810.506 26.1121 814.152 26.7198 Q817.798 27.3274 820.876 28.5427 Z" fill="#000000" fill-rule="nonzero" fill-opacity="1" /><path clip-path="url(#clip770)" d="M834.406 54.671 L834.406 27.2059 L841.86 27.2059 L841.86 54.3874 Q841.86 60.8284 844.372 64.0691 Q846.883 67.2693 851.906 67.2693 Q857.942 67.2693 861.426 63.421 Q864.95 59.5726 864.95 52.9291 L864.95 27.2059 L872.404 27.2059 L872.404 72.576 L864.95 72.576 L864.95 65.6084 Q862.236 69.7404 858.631 71.7658 Q855.066 73.7508 850.326 73.7508 Q842.508 73.7508 838.457 68.8897 Q834.406 64.0286 834.406 54.671 M853.162 26.1121 L853.162 26.1121 Z" fill="#000000" fill-rule="nonzero" fill-opacity="1" /><path clip-path="url(#clip770)" d="M887.757 27.2059 L895.21 27.2059 L895.21 72.576 L887.757 72.576 L887.757 27.2059 M887.757 9.54393 L895.21 9.54393 L895.21 18.9825 L887.757 18.9825 L887.757 9.54393 Z" fill="#000000" fill-rule="nonzero" fill-opacity="1" /><path clip-path="url(#clip770)" d="M918.179 14.324 L918.179 27.2059 L933.532 27.2059 L933.532 32.9987 L918.179 32.9987 L918.179 57.6282 Q918.179 63.1779 919.678 64.7578 Q921.217 66.3376 925.876 66.3376 L933.532 66.3376 L933.532 72.576 L925.876 72.576 Q917.247 72.576 913.966 69.3758 Q910.685 66.1351 910.685 57.6282 L910.685 32.9987 L905.216 32.9987 L905.216 27.2059 L910.685 27.2059 L910.685 14.324 L918.179 14.324 Z" fill="#000000" fill-rule="nonzero" fill-opacity="1" /><path clip-path="url(#clip770)" d="M963.954 49.7694 Q954.921 49.7694 951.437 51.8354 Q947.953 53.9013 947.953 58.8839 Q947.953 62.8538 950.546 65.2034 Q953.179 67.5124 957.675 67.5124 Q963.873 67.5124 967.6 63.1374 Q971.367 58.7219 971.367 51.4303 L971.367 49.7694 L963.954 49.7694 M978.821 46.6907 L978.821 72.576 L971.367 72.576 L971.367 65.6895 Q968.815 69.8214 965.008 71.8063 Q961.2 73.7508 955.69 73.7508 Q948.723 73.7508 944.591 69.8619 Q940.5 65.9325 940.5 59.3701 Q940.5 51.7138 945.604 47.825 Q950.748 43.9361 960.916 43.9361 L971.367 43.9361 L971.367 43.2069 Q971.367 38.0623 967.965 35.2672 Q964.602 32.4315 958.486 32.4315 Q954.597 32.4315 950.91 33.3632 Q947.224 34.295 943.821 36.1584 L943.821 29.2718 Q947.913 27.692 951.761 26.9223 Q955.609 26.1121 959.255 26.1121 Q969.099 26.1121 973.96 31.2163 Q978.821 36.3204 978.821 46.6907 Z" fill="#000000" fill-rule="nonzero" fill-opacity="1" /><path clip-path="url(#clip770)" d="M1026.74 49.9314 Q1026.74 41.7081 1023.34 37.0496 Q1019.98 32.3505 1014.06 32.3505 Q1008.15 32.3505 1004.75 37.0496 Q1001.38 41.7081 1001.38 49.9314 Q1001.38 58.1548 1004.75 62.8538 Q1008.15 67.5124 1014.06 67.5124 Q1019.98 67.5124 1023.34 62.8538 Q1026.74 58.1548 1026.74 49.9314 M1001.38 34.0924 Q1003.73 30.0415 1007.3 28.0971 Q1010.9 26.1121 1015.89 26.1121 Q1024.15 26.1121 1029.3 32.6746 Q1034.48 39.2371 1034.48 49.9314 Q1034.48 60.6258 1029.3 67.1883 Q1024.15 73.7508 1015.89 73.7508 Q1010.9 73.7508 1007.3 71.8063 Q1003.73 69.8214 1001.38 65.7705 L1001.38 72.576 L993.89 72.576 L993.89 9.54393 L1001.38 9.54393 L1001.38 34.0924 Z" fill="#000000" fill-rule="nonzero" fill-opacity="1" /><path clip-path="url(#clip770)" d="M1046.84 27.2059 L1054.29 27.2059 L1054.29 72.576 L1046.84 72.576 L1046.84 27.2059 M1046.84 9.54393 L1054.29 9.54393 L1054.29 18.9825 L1046.84 18.9825 L1046.84 9.54393 Z" fill="#000000" fill-rule="nonzero" fill-opacity="1" /><path clip-path="url(#clip770)" d="M1069.89 9.54393 L1077.34 9.54393 L1077.34 72.576 L1069.89 72.576 L1069.89 9.54393 Z" fill="#000000" fill-rule="nonzero" fill-opacity="1" /><path clip-path="url(#clip770)" d="M1092.94 27.2059 L1100.39 27.2059 L1100.39 72.576 L1092.94 72.576 L1092.94 27.2059 M1092.94 9.54393 L1100.39 9.54393 L1100.39 18.9825 L1092.94 18.9825 L1092.94 9.54393 Z" fill="#000000" fill-rule="nonzero" fill-opacity="1" /><path clip-path="url(#clip770)" d="M1123.36 14.324 L1123.36 27.2059 L1138.71 27.2059 L1138.71 32.9987 L1123.36 32.9987 L1123.36 57.6282 Q1123.36 63.1779 1124.86 64.7578 Q1126.4 66.3376 1131.05 66.3376 L1138.71 66.3376 L1138.71 72.576 L1131.05 72.576 Q1122.43 72.576 1119.14 69.3758 Q1115.86 66.1351 1115.86 57.6282 L1115.86 32.9987 L1110.39 32.9987 L1110.39 27.2059 L1115.86 27.2059 L1115.86 14.324 L1123.36 14.324 Z" fill="#000000" fill-rule="nonzero" fill-opacity="1" /><path clip-path="url(#clip770)" d="M1167.39 76.7889 Q1164.23 84.8907 1161.23 87.3618 Q1158.24 89.8329 1153.21 89.8329 L1147.26 89.8329 L1147.26 83.5945 L1151.63 83.5945 Q1154.71 83.5945 1156.41 82.1361 Q1158.11 80.6778 1160.18 75.2496 L1161.52 71.8468 L1143.17 27.2059 L1151.07 27.2059 L1165.24 62.6918 L1179.42 27.2059 L1187.32 27.2059 L1167.39 76.7889 Z" fill="#000000" fill-rule="nonzero" fill-opacity="1" /><path clip-path="url(#clip770)" d="M1223.98 27.2059 L1231.44 27.2059 L1231.44 72.576 L1223.98 72.576 L1223.98 27.2059 M1223.98 9.54393 L1231.44 9.54393 L1231.44 18.9825 L1223.98 18.9825 L1223.98 9.54393 Z" fill="#000000" fill-rule="nonzero" fill-opacity="1" /><path clip-path="url(#clip770)" d="M1284.75 45.1919 L1284.75 72.576 L1277.29 72.576 L1277.29 45.4349 Q1277.29 38.994 1274.78 35.7938 Q1272.27 32.5936 1267.25 32.5936 Q1261.21 32.5936 1257.73 36.4419 Q1254.24 40.2903 1254.24 46.9338 L1254.24 72.576 L1246.75 72.576 L1246.75 27.2059 L1254.24 27.2059 L1254.24 34.2544 Q1256.92 30.163 1260.52 28.1376 Q1264.17 26.1121 1268.91 26.1121 Q1276.72 26.1121 1280.74 30.9732 Q1284.75 35.7938 1284.75 45.1919 Z" fill="#000000" fill-rule="nonzero" fill-opacity="1" /><path clip-path="url(#clip770)" d="M1329.47 34.0924 L1329.47 9.54393 L1336.92 9.54393 L1336.92 72.576 L1329.47 72.576 L1329.47 65.7705 Q1327.12 69.8214 1323.51 71.8063 Q1319.95 73.7508 1314.92 73.7508 Q1306.7 73.7508 1301.52 67.1883 Q1296.37 60.6258 1296.37 49.9314 Q1296.37 39.2371 1301.52 32.6746 Q1306.7 26.1121 1314.92 26.1121 Q1319.95 26.1121 1323.51 28.0971 Q1327.12 30.0415 1329.47 34.0924 M1304.07 49.9314 Q1304.07 58.1548 1307.43 62.8538 Q1310.83 67.5124 1316.75 67.5124 Q1322.66 67.5124 1326.06 62.8538 Q1329.47 58.1548 1329.47 49.9314 Q1329.47 41.7081 1326.06 37.0496 Q1322.66 32.3505 1316.75 32.3505 Q1310.83 32.3505 1307.43 37.0496 Q1304.07 41.7081 1304.07 49.9314 Z" fill="#000000" fill-rule="nonzero" fill-opacity="1" /><path clip-path="url(#clip770)" d="M1391.08 48.0275 L1391.08 51.6733 L1356.81 51.6733 Q1357.3 59.3701 1361.43 63.421 Q1365.6 67.4314 1373.01 67.4314 Q1377.31 67.4314 1381.32 66.3781 Q1385.37 65.3249 1389.34 63.2184 L1389.34 70.267 Q1385.33 71.9684 1381.12 72.8596 Q1376.9 73.7508 1372.57 73.7508 Q1361.71 73.7508 1355.35 67.4314 Q1349.03 61.1119 1349.03 50.3365 Q1349.03 39.1965 1355.03 32.6746 Q1361.06 26.1121 1371.27 26.1121 Q1380.43 26.1121 1385.73 32.0264 Q1391.08 37.9003 1391.08 48.0275 M1383.63 45.84 Q1383.55 39.7232 1380.18 36.0774 Q1376.86 32.4315 1371.35 32.4315 Q1365.12 32.4315 1361.35 35.9558 Q1357.62 39.4801 1357.05 45.8805 L1383.63 45.84 Z" fill="#000000" fill-rule="nonzero" fill-opacity="1" /><path clip-path="url(#clip770)" d="M1439.57 27.2059 L1423.16 49.2833 L1440.42 72.576 L1431.63 72.576 L1418.43 54.752 L1405.22 72.576 L1396.43 72.576 L1414.05 48.8377 L1397.93 27.2059 L1406.72 27.2059 L1418.75 43.369 L1430.78 27.2059 L1439.57 27.2059 Z" fill="#000000" fill-rule="nonzero" fill-opacity="1" /><path clip-path="url(#clip770)" d="M1495.23 9.62495 Q1489.8 18.942 1487.17 28.0566 Q1484.54 37.1711 1484.54 46.5287 Q1484.54 55.8863 1487.17 65.0818 Q1489.84 74.2369 1495.23 83.5134 L1488.75 83.5134 Q1482.67 73.9938 1479.63 64.7983 Q1476.64 55.6027 1476.64 46.5287 Q1476.64 37.4952 1479.63 28.3401 Q1482.63 19.1851 1488.75 9.62495 L1495.23 9.62495 Z" fill="#000000" fill-rule="nonzero" fill-opacity="1" /><path clip-path="url(#clip770)" d="M1509.69 27.2059 L1517.15 27.2059 L1517.15 72.576 L1509.69 72.576 L1509.69 27.2059 M1509.69 9.54393 L1517.15 9.54393 L1517.15 18.9825 L1509.69 18.9825 L1509.69 9.54393 Z" fill="#000000" fill-rule="nonzero" fill-opacity="1" /><path clip-path="url(#clip770)" d="M1570.46 45.1919 L1570.46 72.576 L1563 72.576 L1563 45.4349 Q1563 38.994 1560.49 35.7938 Q1557.98 32.5936 1552.96 32.5936 Q1546.92 32.5936 1543.44 36.4419 Q1539.95 40.2903 1539.95 46.9338 L1539.95 72.576 L1532.46 72.576 L1532.46 27.2059 L1539.95 27.2059 L1539.95 34.2544 Q1542.63 30.163 1546.23 28.1376 Q1549.88 26.1121 1554.62 26.1121 Q1562.43 26.1121 1566.45 30.9732 Q1570.46 35.7938 1570.46 45.1919 Z" fill="#000000" fill-rule="nonzero" fill-opacity="1" /><path clip-path="url(#clip770)" d="M1592.7 14.324 L1592.7 27.2059 L1608.05 27.2059 L1608.05 32.9987 L1592.7 32.9987 L1592.7 57.6282 Q1592.7 63.1779 1594.19 64.7578 Q1595.73 66.3376 1600.39 66.3376 L1608.05 66.3376 L1608.05 72.576 L1600.39 72.576 Q1591.76 72.576 1588.48 69.3758 Q1585.2 66.1351 1585.2 57.6282 L1585.2 32.9987 L1579.73 32.9987 L1579.73 27.2059 L1585.2 27.2059 L1585.2 14.324 L1592.7 14.324 Z" fill="#000000" fill-rule="nonzero" fill-opacity="1" /><path clip-path="url(#clip770)" d="M1656.66 48.0275 L1656.66 51.6733 L1622.39 51.6733 Q1622.87 59.3701 1627.01 63.421 Q1631.18 67.4314 1638.59 67.4314 Q1642.89 67.4314 1646.9 66.3781 Q1650.95 65.3249 1654.92 63.2184 L1654.92 70.267 Q1650.91 71.9684 1646.69 72.8596 Q1642.48 73.7508 1638.15 73.7508 Q1627.29 73.7508 1620.93 67.4314 Q1614.61 61.1119 1614.61 50.3365 Q1614.61 39.1965 1620.61 32.6746 Q1626.64 26.1121 1636.85 26.1121 Q1646.01 26.1121 1651.31 32.0264 Q1656.66 37.9003 1656.66 48.0275 M1649.21 45.84 Q1649.12 39.7232 1645.76 36.0774 Q1642.44 32.4315 1636.93 32.4315 Q1630.69 32.4315 1626.93 35.9558 Q1623.2 39.4801 1622.63 45.8805 L1649.21 45.84 Z" fill="#000000" fill-rule="nonzero" fill-opacity="1" /><path clip-path="url(#clip770)" d="M1695.18 34.1734 Q1693.93 33.4443 1692.43 33.1202 Q1690.97 32.7556 1689.19 32.7556 Q1682.87 32.7556 1679.47 36.8875 Q1676.1 40.9789 1676.1 48.6757 L1676.1 72.576 L1668.61 72.576 L1668.61 27.2059 L1676.1 27.2059 L1676.1 34.2544 Q1678.45 30.1225 1682.22 28.1376 Q1685.99 26.1121 1691.38 26.1121 Q1692.14 26.1121 1693.08 26.2337 Q1694.01 26.3147 1695.14 26.5172 L1695.18 34.1734 Z" fill="#000000" fill-rule="nonzero" fill-opacity="1" /><path clip-path="url(#clip770)" d="M1710.21 65.7705 L1710.21 89.8329 L1702.72 89.8329 L1702.72 27.2059 L1710.21 27.2059 L1710.21 34.0924 Q1712.56 30.0415 1716.13 28.0971 Q1719.73 26.1121 1724.71 26.1121 Q1732.98 26.1121 1738.12 32.6746 Q1743.31 39.2371 1743.31 49.9314 Q1743.31 60.6258 1738.12 67.1883 Q1732.98 73.7508 1724.71 73.7508 Q1719.73 73.7508 1716.13 71.8063 Q1712.56 69.8214 1710.21 65.7705 M1735.57 49.9314 Q1735.57 41.7081 1732.17 37.0496 Q1728.81 32.3505 1722.89 32.3505 Q1716.98 32.3505 1713.57 37.0496 Q1710.21 41.7081 1710.21 49.9314 Q1710.21 58.1548 1713.57 62.8538 Q1716.98 67.5124 1722.89 67.5124 Q1728.81 67.5124 1732.17 62.8538 Q1735.57 58.1548 1735.57 49.9314 Z" fill="#000000" fill-rule="nonzero" fill-opacity="1" /><path clip-path="url(#clip770)" d="M1773.24 32.4315 Q1767.25 32.4315 1763.76 37.1306 Q1760.28 41.7891 1760.28 49.9314 Q1760.28 58.0738 1763.72 62.7728 Q1767.21 67.4314 1773.24 67.4314 Q1779.2 67.4314 1782.68 62.7323 Q1786.17 58.0333 1786.17 49.9314 Q1786.17 41.8701 1782.68 37.1711 Q1779.2 32.4315 1773.24 32.4315 M1773.24 26.1121 Q1782.97 26.1121 1788.52 32.4315 Q1794.07 38.7509 1794.07 49.9314 Q1794.07 61.0714 1788.52 67.4314 Q1782.97 73.7508 1773.24 73.7508 Q1763.48 73.7508 1757.93 67.4314 Q1752.42 61.0714 1752.42 49.9314 Q1752.42 38.7509 1757.93 32.4315 Q1763.48 26.1121 1773.24 26.1121 Z" fill="#000000" fill-rule="nonzero" fill-opacity="1" /><path clip-path="url(#clip770)" d="M1806.42 9.54393 L1813.87 9.54393 L1813.87 72.576 L1806.42 72.576 L1806.42 9.54393 Z" fill="#000000" fill-rule="nonzero" fill-opacity="1" /><path clip-path="url(#clip770)" d="M1850.09 49.7694 Q1841.06 49.7694 1837.57 51.8354 Q1834.09 53.9013 1834.09 58.8839 Q1834.09 62.8538 1836.68 65.2034 Q1839.31 67.5124 1843.81 67.5124 Q1850.01 67.5124 1853.74 63.1374 Q1857.5 58.7219 1857.5 51.4303 L1857.5 49.7694 L1850.09 49.7694 M1864.96 46.6907 L1864.96 72.576 L1857.5 72.576 L1857.5 65.6895 Q1854.95 69.8214 1851.14 71.8063 Q1847.33 73.7508 1841.83 73.7508 Q1834.86 73.7508 1830.73 69.8619 Q1826.63 65.9325 1826.63 59.3701 Q1826.63 51.7138 1831.74 47.825 Q1836.88 43.9361 1847.05 43.9361 L1857.5 43.9361 L1857.5 43.2069 Q1857.5 38.0623 1854.1 35.2672 Q1850.74 32.4315 1844.62 32.4315 Q1840.73 32.4315 1837.05 33.3632 Q1833.36 34.295 1829.96 36.1584 L1829.96 29.2718 Q1834.05 27.692 1837.9 26.9223 Q1841.74 26.1121 1845.39 26.1121 Q1855.23 26.1121 1860.1 31.2163 Q1864.96 36.3204 1864.96 46.6907 Z" fill="#000000" fill-rule="nonzero" fill-opacity="1" /><path clip-path="url(#clip770)" d="M1887.68 14.324 L1887.68 27.2059 L1903.03 27.2059 L1903.03 32.9987 L1887.68 32.9987 L1887.68 57.6282 Q1887.68 63.1779 1889.18 64.7578 Q1890.72 66.3376 1895.38 66.3376 L1903.03 66.3376 L1903.03 72.576 L1895.38 72.576 Q1886.75 72.576 1883.47 69.3758 Q1880.19 66.1351 1880.19 57.6282 L1880.19 32.9987 L1874.72 32.9987 L1874.72 27.2059 L1880.19 27.2059 L1880.19 14.324 L1887.68 14.324 Z" fill="#000000" fill-rule="nonzero" fill-opacity="1" /><path clip-path="url(#clip770)" d="M1951.65 48.0275 L1951.65 51.6733 L1917.38 51.6733 Q1917.86 59.3701 1921.99 63.421 Q1926.17 67.4314 1933.58 67.4314 Q1937.87 67.4314 1941.88 66.3781 Q1945.93 65.3249 1949.9 63.2184 L1949.9 70.267 Q1945.89 71.9684 1941.68 72.8596 Q1937.47 73.7508 1933.13 73.7508 Q1922.28 73.7508 1915.92 67.4314 Q1909.6 61.1119 1909.6 50.3365 Q1909.6 39.1965 1915.59 32.6746 Q1921.63 26.1121 1931.84 26.1121 Q1940.99 26.1121 1946.3 32.0264 Q1951.65 37.9003 1951.65 48.0275 M1944.19 45.84 Q1944.11 39.7232 1940.75 36.0774 Q1937.43 32.4315 1931.92 32.4315 Q1925.68 32.4315 1921.91 35.9558 Q1918.19 39.4801 1917.62 45.8805 L1944.19 45.84 Z" fill="#000000" fill-rule="nonzero" fill-opacity="1" /><path clip-path="url(#clip770)" d="M1993.73 34.0924 L1993.73 9.54393 L2001.19 9.54393 L2001.19 72.576 L1993.73 72.576 L1993.73 65.7705 Q1991.39 69.8214 1987.78 71.8063 Q1984.22 73.7508 1979.19 73.7508 Q1970.97 73.7508 1965.78 67.1883 Q1960.64 60.6258 1960.64 49.9314 Q1960.64 39.2371 1965.78 32.6746 Q1970.97 26.1121 1979.19 26.1121 Q1984.22 26.1121 1987.78 28.0971 Q1991.39 30.0415 1993.73 34.0924 M1968.34 49.9314 Q1968.34 58.1548 1971.7 62.8538 Q1975.1 67.5124 1981.01 67.5124 Q1986.93 67.5124 1990.33 62.8538 Q1993.73 58.1548 1993.73 49.9314 Q1993.73 41.7081 1990.33 37.0496 Q1986.93 32.3505 1981.01 32.3505 Q1975.1 32.3505 1971.7 37.0496 Q1968.34 41.7081 1968.34 49.9314 Z" fill="#000000" fill-rule="nonzero" fill-opacity="1" /><path clip-path="url(#clip770)" d="M2065.88 9.54393 L2065.88 15.7418 L2058.75 15.7418 Q2054.74 15.7418 2053.16 17.3622 Q2051.62 18.9825 2051.62 23.1955 L2051.62 27.2059 L2063.9 27.2059 L2063.9 32.9987 L2051.62 32.9987 L2051.62 72.576 L2044.13 72.576 L2044.13 32.9987 L2037 32.9987 L2037 27.2059 L2044.13 27.2059 L2044.13 24.0462 Q2044.13 16.471 2047.65 13.0277 Q2051.18 9.54393 2058.83 9.54393 L2065.88 9.54393 Z" fill="#000000" fill-rule="nonzero" fill-opacity="1" /><path clip-path="url(#clip770)" d="M2098.41 34.1734 Q2097.15 33.4443 2095.66 33.1202 Q2094.2 32.7556 2092.41 32.7556 Q2086.1 32.7556 2082.69 36.8875 Q2079.33 40.9789 2079.33 48.6757 L2079.33 72.576 L2071.84 72.576 L2071.84 27.2059 L2079.33 27.2059 L2079.33 34.2544 Q2081.68 30.1225 2085.45 28.1376 Q2089.21 26.1121 2094.6 26.1121 Q2095.37 26.1121 2096.3 26.2337 Q2097.24 26.3147 2098.37 26.5172 L2098.41 34.1734 Z" fill="#000000" fill-rule="nonzero" fill-opacity="1" /><path clip-path="url(#clip770)" d="M2121.99 32.4315 Q2115.99 32.4315 2112.51 37.1306 Q2109.02 41.7891 2109.02 49.9314 Q2109.02 58.0738 2112.47 62.7728 Q2115.95 67.4314 2121.99 67.4314 Q2127.94 67.4314 2131.42 62.7323 Q2134.91 58.0333 2134.91 49.9314 Q2134.91 41.8701 2131.42 37.1711 Q2127.94 32.4315 2121.99 32.4315 M2121.99 26.1121 Q2131.71 26.1121 2137.26 32.4315 Q2142.81 38.7509 2142.81 49.9314 Q2142.81 61.0714 2137.26 67.4314 Q2131.71 73.7508 2121.99 73.7508 Q2112.22 73.7508 2106.67 67.4314 Q2101.16 61.0714 2101.16 49.9314 Q2101.16 38.7509 2106.67 32.4315 Q2112.22 26.1121 2121.99 26.1121 Z" fill="#000000" fill-rule="nonzero" fill-opacity="1" /><path clip-path="url(#clip770)" d="M2190.49 35.9153 Q2193.28 30.8922 2197.17 28.5022 Q2201.06 26.1121 2206.33 26.1121 Q2213.42 26.1121 2217.26 31.0947 Q2221.11 36.0368 2221.11 45.1919 L2221.11 72.576 L2213.62 72.576 L2213.62 45.4349 Q2213.62 38.913 2211.31 35.7533 Q2209 32.5936 2204.26 32.5936 Q2198.47 32.5936 2195.11 36.4419 Q2191.74 40.2903 2191.74 46.9338 L2191.74 72.576 L2184.25 72.576 L2184.25 45.4349 Q2184.25 38.8725 2181.94 35.7533 Q2179.63 32.5936 2174.81 32.5936 Q2169.1 32.5936 2165.74 36.4824 Q2162.37 40.3308 2162.37 46.9338 L2162.37 72.576 L2154.88 72.576 L2154.88 27.2059 L2162.37 27.2059 L2162.37 34.2544 Q2164.93 30.082 2168.49 28.0971 Q2172.06 26.1121 2176.96 26.1121 Q2181.9 26.1121 2185.34 28.6237 Q2188.83 31.1352 2190.49 35.9153 Z" fill="#000000" fill-rule="nonzero" fill-opacity="1" /><path clip-path="url(#clip770)" d="M2254.29 12.096 L2305.45 12.096 L2305.45 18.9825 L2283.98 18.9825 L2283.98 72.576 L2275.76 72.576 L2275.76 18.9825 L2254.29 18.9825 L2254.29 12.096 Z" fill="#000000" fill-rule="nonzero" fill-opacity="1" /><path clip-path="url(#clip770)" d="M2319.91 49.7694 Q2310.88 49.7694 2307.4 51.8354 Q2303.91 53.9013 2303.91 58.8839 Q2303.91 62.8538 2306.5 65.2034 Q2309.14 67.5124 2313.63 67.5124 Q2319.83 67.5124 2323.56 63.1374 Q2327.33 58.7219 2327.33 51.4303 L2327.33 49.7694 L2319.91 49.7694 M2334.78 46.6907 L2334.78 72.576 L2327.33 72.576 L2327.33 65.6895 Q2324.77 69.8214 2320.97 71.8063 Q2317.16 73.7508 2311.65 73.7508 Q2304.68 73.7508 2300.55 69.8619 Q2296.46 65.9325 2296.46 59.3701 Q2296.46 51.7138 2301.56 47.825 Q2306.71 43.9361 2316.88 43.9361 L2327.33 43.9361 L2327.33 43.2069 Q2327.33 38.0623 2323.92 35.2672 Q2320.56 32.4315 2314.44 32.4315 Q2310.56 32.4315 2306.87 33.3632 Q2303.18 34.295 2299.78 36.1584 L2299.78 29.2718 Q2303.87 27.692 2307.72 26.9223 Q2311.57 26.1121 2315.21 26.1121 Q2325.06 26.1121 2329.92 31.2163 Q2334.78 36.3204 2334.78 46.6907 Z" fill="#000000" fill-rule="nonzero" fill-opacity="1" /><path clip-path="url(#clip770)" d="M2382.7 49.9314 Q2382.7 41.7081 2379.3 37.0496 Q2375.94 32.3505 2370.02 32.3505 Q2364.11 32.3505 2360.71 37.0496 Q2357.34 41.7081 2357.34 49.9314 Q2357.34 58.1548 2360.71 62.8538 Q2364.11 67.5124 2370.02 67.5124 Q2375.94 67.5124 2379.3 62.8538 Q2382.7 58.1548 2382.7 49.9314 M2357.34 34.0924 Q2359.69 30.0415 2363.26 28.0971 Q2366.86 26.1121 2371.85 26.1121 Q2380.11 26.1121 2385.25 32.6746 Q2390.44 39.2371 2390.44 49.9314 Q2390.44 60.6258 2385.25 67.1883 Q2380.11 73.7508 2371.85 73.7508 Q2366.86 73.7508 2363.26 71.8063 Q2359.69 69.8214 2357.34 65.7705 L2357.34 72.576 L2349.85 72.576 L2349.85 9.54393 L2357.34 9.54393 L2357.34 34.0924 Z" fill="#000000" fill-rule="nonzero" fill-opacity="1" /><path clip-path="url(#clip770)" d="M2402.79 9.54393 L2410.25 9.54393 L2410.25 72.576 L2402.79 72.576 L2402.79 9.54393 Z" fill="#000000" fill-rule="nonzero" fill-opacity="1" /><path clip-path="url(#clip770)" d="M2464.65 48.0275 L2464.65 51.6733 L2430.38 51.6733 Q2430.87 59.3701 2435 63.421 Q2439.17 67.4314 2446.59 67.4314 Q2450.88 67.4314 2454.89 66.3781 Q2458.94 65.3249 2462.91 63.2184 L2462.91 70.267 Q2458.9 71.9684 2454.69 72.8596 Q2450.47 73.7508 2446.14 73.7508 Q2435.28 73.7508 2428.92 67.4314 Q2422.6 61.1119 2422.6 50.3365 Q2422.6 39.1965 2428.6 32.6746 Q2434.64 26.1121 2444.84 26.1121 Q2454 26.1121 2459.31 32.0264 Q2464.65 37.9003 2464.65 48.0275 M2457.2 45.84 Q2457.12 39.7232 2453.76 36.0774 Q2450.43 32.4315 2444.92 32.4315 Q2438.69 32.4315 2434.92 35.9558 Q2431.19 39.4801 2430.62 45.8805 L2457.2 45.84 Z" fill="#000000" fill-rule="nonzero" fill-opacity="1" /><path clip-path="url(#clip770)" d="M2511.36 65.6895 L2539.92 65.6895 L2539.92 72.576 L2501.52 72.576 L2501.52 65.6895 Q2506.17 60.8689 2514.19 52.7671 Q2522.26 44.6248 2524.32 42.2752 Q2528.25 37.8598 2529.79 34.8216 Q2531.37 31.7429 2531.37 28.7857 Q2531.37 23.9651 2527.97 20.927 Q2524.61 17.8888 2519.18 17.8888 Q2515.33 17.8888 2511.04 19.2256 Q2506.78 20.5624 2501.92 23.2765 L2501.92 15.0127 Q2506.86 13.0277 2511.16 12.015 Q2515.45 11.0023 2519.02 11.0023 Q2528.41 11.0023 2534 15.7013 Q2539.59 20.4004 2539.59 28.2591 Q2539.59 31.9859 2538.18 35.3482 Q2536.8 38.6699 2533.11 43.2069 Q2532.1 44.3817 2526.67 50.0125 Q2521.24 55.6027 2511.36 65.6895 Z" fill="#000000" fill-rule="nonzero" fill-opacity="1" /><path clip-path="url(#clip770)" d="M2554.87 9.62495 L2561.35 9.62495 Q2567.42 19.1851 2570.42 28.3401 Q2573.46 37.4952 2573.46 46.5287 Q2573.46 55.6027 2570.42 64.7983 Q2567.42 73.9938 2561.35 83.5134 L2554.87 83.5134 Q2560.25 74.2369 2562.89 65.0818 Q2565.56 55.8863 2565.56 46.5287 Q2565.56 37.1711 2562.89 28.0566 Q2560.25 18.942 2554.87 9.62495 Z" fill="#000000" fill-rule="nonzero" fill-opacity="1" /><polyline clip-path="url(#clip771)" style="stroke:#ff8c00; stroke-linecap:round; stroke-linejoin:round; stroke-width:8; stroke-opacity:1; fill:none" points="307.783,184.883 353.433,184.883 399.082,184.883 444.731,184.883 490.38,184.883 536.03,184.883 581.679,184.883 627.328,184.883 672.977,184.883 718.626,184.883 764.276,184.883 809.925,184.883 855.574,184.883 901.223,184.883 946.873,184.883 992.522,184.883 1038.17,201.485 1083.82,218.087 1129.47,234.689 1175.12,251.291 1220.77,267.893 1266.42,350.904 1312.07,433.915 1357.72,516.925 1403.36,599.936 1449.01,682.946 1494.66,765.957 1540.31,795.604 1585.96,825.25 1631.61,854.897 1677.26,884.544 1722.91,914.19 1768.56,943.837 1814.21,973.484 1859.86,961.032 1905.51,948.58 1951.16,936.129 1996.8,923.677 2042.45,911.226 2088.1,898.774 2133.75,863.198 2179.4,827.622 2225.05,792.046 2270.7,756.47 2316.35,720.894 2362,685.318 2407.65,649.742 2453.3,572.266 2498.95,494.789 2544.6,417.312 2590.24,339.836 2635.89,262.359 2681.54,184.883 "/>
<circle clip-path="url(#clip771)" cx="307.783" cy="184.883" r="18" fill="#000000" fill-rule="evenodd" fill-opacity="1" stroke="none"/>
<circle clip-path="url(#clip771)" cx="764.276" cy="184.883" r="18" fill="#000000" fill-rule="evenodd" fill-opacity="1" stroke="none"/>
<circle clip-path="url(#clip771)" cx="992.522" cy="184.883" r="18" fill="#000000" fill-rule="evenodd" fill-opacity="1" stroke="none"/>
<circle clip-path="url(#clip771)" cx="1220.77" cy="267.893" r="18" fill="#000000" fill-rule="evenodd" fill-opacity="1" stroke="none"/>
<circle clip-path="url(#clip771)" cx="1494.66" cy="765.957" r="18" fill="#000000" fill-rule="evenodd" fill-opacity="1" stroke="none"/>
<circle clip-path="url(#clip771)" cx="1814.21" cy="973.484" r="18" fill="#000000" fill-rule="evenodd" fill-opacity="1" stroke="none"/>
<circle clip-path="url(#clip771)" cx="2088.1" cy="898.774" r="18" fill="#000000" fill-rule="evenodd" fill-opacity="1" stroke="none"/>
<circle clip-path="url(#clip771)" cx="2407.65" cy="649.742" r="18" fill="#000000" fill-rule="evenodd" fill-opacity="1" stroke="none"/>
<circle clip-path="url(#clip771)" cx="2681.54" cy="184.883" r="18" fill="#000000" fill-rule="evenodd" fill-opacity="1" stroke="none"/>
<polyline clip-path="url(#clip771)" style="stroke:#808080; stroke-linecap:round; stroke-linejoin:round; stroke-width:4; stroke-opacity:1; fill:none" stroke-dasharray="16, 10" points="-2279.61,184.883 5268.94,184.883 "/>
<path clip-path="url(#clip770)" d="M320.443 1024.67 L857.57 1024.67 L857.57 920.993 L320.443 920.993  Z" fill="#ffffff" fill-rule="evenodd" fill-opacity="1"/>
<polyline clip-path="url(#clip770)" style="stroke:#000000; stroke-linecap:round; stroke-linejoin:round; stroke-width:4; stroke-opacity:1; fill:none" points="320.443,1024.67 857.57,1024.67 857.57,920.993 320.443,920.993 320.443,1024.67 "/>
<circle clip-path="url(#clip770)" cx="432.274" cy="972.833" r="20.9455" fill="#000000" fill-rule="evenodd" fill-opacity="1" stroke="none"/>
<path clip-path="url(#clip770)" d="M544.104 955.553 L573.34 955.553 L573.34 959.489 L561.072 959.489 L561.072 990.113 L556.373 990.113 L556.373 959.489 L544.104 959.489 L544.104 955.553 Z" fill="#000000" fill-rule="nonzero" fill-opacity="1" /><path clip-path="url(#clip770)" d="M581.604 977.081 Q576.442 977.081 574.451 978.262 Q572.461 979.442 572.461 982.289 Q572.461 984.558 573.942 985.9 Q575.447 987.22 578.016 987.22 Q581.558 987.22 583.687 984.72 Q585.84 982.197 585.84 978.03 L585.84 977.081 L581.604 977.081 M590.099 975.322 L590.099 990.113 L585.84 990.113 L585.84 986.178 Q584.382 988.539 582.206 989.674 Q580.03 990.785 576.882 990.785 Q572.901 990.785 570.539 988.562 Q568.201 986.317 568.201 982.567 Q568.201 978.192 571.118 975.97 Q574.058 973.748 579.868 973.748 L585.84 973.748 L585.84 973.331 Q585.84 970.391 583.896 968.794 Q581.975 967.174 578.479 967.174 Q576.257 967.174 574.15 967.706 Q572.044 968.239 570.1 969.303 L570.1 965.368 Q572.438 964.465 574.637 964.026 Q576.836 963.563 578.919 963.563 Q584.544 963.563 587.322 966.479 Q590.099 969.396 590.099 975.322 Z" fill="#000000" fill-rule="nonzero" fill-opacity="1" /><path clip-path="url(#clip770)" d="M617.484 977.174 Q617.484 972.475 615.539 969.813 Q613.618 967.127 610.238 967.127 Q606.859 967.127 604.914 969.813 Q602.993 972.475 602.993 977.174 Q602.993 981.873 604.914 984.558 Q606.859 987.22 610.238 987.22 Q613.618 987.22 615.539 984.558 Q617.484 981.873 617.484 977.174 M602.993 968.123 Q604.336 965.808 606.373 964.697 Q608.433 963.563 611.28 963.563 Q616.002 963.563 618.942 967.313 Q621.905 971.063 621.905 977.174 Q621.905 983.285 618.942 987.035 Q616.002 990.785 611.28 990.785 Q608.433 990.785 606.373 989.674 Q604.336 988.539 602.993 986.225 L602.993 990.113 L598.711 990.113 L598.711 954.095 L602.993 954.095 L602.993 968.123 Z" fill="#000000" fill-rule="nonzero" fill-opacity="1" /><path clip-path="url(#clip770)" d="M628.965 954.095 L633.224 954.095 L633.224 990.113 L628.965 990.113 L628.965 954.095 Z" fill="#000000" fill-rule="nonzero" fill-opacity="1" /><path clip-path="url(#clip770)" d="M664.312 976.086 L664.312 978.169 L644.729 978.169 Q645.007 982.567 647.368 984.882 Q649.752 987.174 653.988 987.174 Q656.442 987.174 658.733 986.572 Q661.048 985.97 663.317 984.766 L663.317 988.794 Q661.025 989.766 658.618 990.275 Q656.21 990.785 653.733 990.785 Q647.53 990.785 643.895 987.174 Q640.284 983.563 640.284 977.405 Q640.284 971.039 643.71 967.313 Q647.159 963.563 652.993 963.563 Q658.224 963.563 661.257 966.942 Q664.312 970.299 664.312 976.086 M660.053 974.836 Q660.007 971.34 658.085 969.257 Q656.187 967.174 653.039 967.174 Q649.474 967.174 647.321 969.188 Q645.192 971.201 644.868 974.859 L660.053 974.836 Z" fill="#000000" fill-rule="nonzero" fill-opacity="1" /><path clip-path="url(#clip770)" d="M691.002 986.178 L707.321 986.178 L707.321 990.113 L685.377 990.113 L685.377 986.178 Q688.039 983.424 692.622 978.794 Q697.229 974.141 698.409 972.799 Q700.654 970.276 701.534 968.539 Q702.437 966.78 702.437 965.09 Q702.437 962.336 700.492 960.6 Q698.571 958.864 695.469 958.864 Q693.27 958.864 690.817 959.627 Q688.386 960.391 685.608 961.942 L685.608 957.22 Q688.432 956.086 690.886 955.507 Q693.34 954.928 695.377 954.928 Q700.747 954.928 703.941 957.614 Q707.136 960.299 707.136 964.789 Q707.136 966.919 706.326 968.84 Q705.539 970.738 703.432 973.331 Q702.854 974.002 699.752 977.22 Q696.65 980.414 691.002 986.178 Z" fill="#000000" fill-rule="nonzero" fill-opacity="1" /><path clip-path="url(#clip770)" d="M748.663 968.123 L748.663 954.095 L752.923 954.095 L752.923 990.113 L748.663 990.113 L748.663 986.225 Q747.321 988.539 745.261 989.674 Q743.224 990.785 740.353 990.785 Q735.654 990.785 732.691 987.035 Q729.752 983.285 729.752 977.174 Q729.752 971.063 732.691 967.313 Q735.654 963.563 740.353 963.563 Q743.224 963.563 745.261 964.697 Q747.321 965.808 748.663 968.123 M734.15 977.174 Q734.15 981.873 736.071 984.558 Q738.015 987.22 741.395 987.22 Q744.775 987.22 746.719 984.558 Q748.663 981.873 748.663 977.174 Q748.663 972.475 746.719 969.813 Q744.775 967.127 741.395 967.127 Q738.015 967.127 736.071 969.813 Q734.15 972.475 734.15 977.174 Z" fill="#000000" fill-rule="nonzero" fill-opacity="1" /><path clip-path="url(#clip770)" d="M773.478 977.081 Q768.316 977.081 766.325 978.262 Q764.335 979.442 764.335 982.289 Q764.335 984.558 765.816 985.9 Q767.321 987.22 769.89 987.22 Q773.432 987.22 775.561 984.72 Q777.714 982.197 777.714 978.03 L777.714 977.081 L773.478 977.081 M781.973 975.322 L781.973 990.113 L777.714 990.113 L777.714 986.178 Q776.256 988.539 774.08 989.674 Q771.904 990.785 768.756 990.785 Q764.774 990.785 762.413 988.562 Q760.075 986.317 760.075 982.567 Q760.075 978.192 762.992 975.97 Q765.932 973.748 771.742 973.748 L777.714 973.748 L777.714 973.331 Q777.714 970.391 775.77 968.794 Q773.849 967.174 770.353 967.174 Q768.131 967.174 766.024 967.706 Q763.918 968.239 761.974 969.303 L761.974 965.368 Q764.312 964.465 766.511 964.026 Q768.71 963.563 770.793 963.563 Q776.418 963.563 779.196 966.479 Q781.973 969.396 781.973 975.322 Z" fill="#000000" fill-rule="nonzero" fill-opacity="1" /><path clip-path="url(#clip770)" d="M794.96 956.827 L794.96 964.188 L803.733 964.188 L803.733 967.498 L794.96 967.498 L794.96 981.572 Q794.96 984.743 795.816 985.646 Q796.696 986.549 799.358 986.549 L803.733 986.549 L803.733 990.113 L799.358 990.113 Q794.427 990.113 792.552 988.285 Q790.677 986.433 790.677 981.572 L790.677 967.498 L787.552 967.498 L787.552 964.188 L790.677 964.188 L790.677 956.827 L794.96 956.827 Z" fill="#000000" fill-rule="nonzero" fill-opacity="1" /><path clip-path="url(#clip770)" d="M821.117 977.081 Q815.955 977.081 813.964 978.262 Q811.973 979.442 811.973 982.289 Q811.973 984.558 813.455 985.9 Q814.959 987.22 817.529 987.22 Q821.07 987.22 823.2 984.72 Q825.353 982.197 825.353 978.03 L825.353 977.081 L821.117 977.081 M829.612 975.322 L829.612 990.113 L825.353 990.113 L825.353 986.178 Q823.895 988.539 821.719 989.674 Q819.543 990.785 816.395 990.785 Q812.413 990.785 810.052 988.562 Q807.714 986.317 807.714 982.567 Q807.714 978.192 810.631 975.97 Q813.571 973.748 819.381 973.748 L825.353 973.748 L825.353 973.331 Q825.353 970.391 823.408 968.794 Q821.487 967.174 817.992 967.174 Q815.77 967.174 813.663 967.706 Q811.557 968.239 809.612 969.303 L809.612 965.368 Q811.95 964.465 814.149 964.026 Q816.348 963.563 818.432 963.563 Q824.057 963.563 826.834 966.479 Q829.612 969.396 829.612 975.322 Z" fill="#000000" fill-rule="nonzero" fill-opacity="1" /></svg>
