<?xml version="1.0" encoding="utf-8"?>
<svg xmlns="http://www.w3.org/2000/svg" xmlns:xlink="http://www.w3.org/1999/xlink" width="700" height="300" viewBox="0 0 2800 1200">
<defs>
  <clipPath id="clip800">
    <rect x="0" y="0" width="2800" height="1200"/>
  </clipPath>
</defs>
<path clip-path="url(#clip800)" d="M0 1200 L2800 1200 L2800 6.66134e-14 L0 6.66134e-14  Z" fill="#ffffff" fill-rule="evenodd" fill-opacity="1"/>
<defs>
  <clipPath id="clip801">
    <rect x="192" y="101" width="2562" height="956"/>
  </clipPath>
</defs>
<path clip-path="url(#clip800)" d="M192.15 1056.49 L2752.76 1056.49 L2752.76 101.872 L192.15 101.872  Z" fill="#ffffff" fill-rule="evenodd" fill-opacity="1"/>
<polyline clip-path="url(#clip801)" style="stroke:#000000; stroke-linecap:round; stroke-linejoin:round; stroke-width:2; stroke-opacity:0.1; fill:none" points="264.62,1056.49 264.62,101.872 "/>
<polyline clip-path="url(#clip801)" style="stroke:#000000; stroke-linecap:round; stroke-linejoin:round; stroke-width:2; stroke-opacity:0.1; fill:none" points="729.171,1056.49 729.171,101.872 "/>
<polyline clip-path="url(#clip801)" style="stroke:#000000; stroke-linecap:round; stroke-linejoin:round; stroke-width:2; stroke-opacity:0.1; fill:none" points="1193.72,1056.49 1193.72,101.872 "/>
<polyline clip-path="url(#clip801)" style="stroke:#000000; stroke-linecap:round; stroke-linejoin:round; stroke-width:2; stroke-opacity:0.1; fill:none" points="1658.27,1056.49 1658.27,101.872 "/>
<polyline clip-path="url(#clip801)" style="stroke:#000000; stroke-linecap:round; stroke-linejoin:round; stroke-width:2; stroke-opacity:0.1; fill:none" points="2122.82,1056.49 2122.82,101.872 "/>
<polyline clip-path="url(#clip801)" style="stroke:#000000; stroke-linecap:round; stroke-linejoin:round; stroke-width:2; stroke-opacity:0.1; fill:none" points="2587.38,1056.49 2587.38,101.872 "/>
<polyline clip-path="url(#clip801)" style="stroke:#000000; stroke-linecap:round; stroke-linejoin:round; stroke-width:2; stroke-opacity:0.1; fill:none" points="192.15,1029.48 2752.76,1029.48 "/>
<polyline clip-path="url(#clip801)" style="stroke:#000000; stroke-linecap:round; stroke-linejoin:round; stroke-width:2; stroke-opacity:0.1; fill:none" points="192.15,841.854 2752.76,841.854 "/>
<polyline clip-path="url(#clip801)" style="stroke:#000000; stroke-linecap:round; stroke-linejoin:round; stroke-width:2; stroke-opacity:0.1; fill:none" points="192.15,654.232 2752.76,654.232 "/>
<polyline clip-path="url(#clip801)" style="stroke:#000000; stroke-linecap:round; stroke-linejoin:round; stroke-width:2; stroke-opacity:0.1; fill:none" points="192.15,466.61 2752.76,466.61 "/>
<polyline clip-path="url(#clip801)" style="stroke:#000000; stroke-linecap:round; stroke-linejoin:round; stroke-width:2; stroke-opacity:0.1; fill:none" points="192.15,278.988 2752.76,278.988 "/>
<polyline clip-path="url(#clip800)" style="stroke:#000000; stroke-linecap:round; stroke-linejoin:round; stroke-width:4; stroke-opacity:1; fill:none" points="192.15,1056.49 2752.76,1056.49 "/>
<polyline clip-path="url(#clip800)" style="stroke:#000000; stroke-linecap:round; stroke-linejoin:round; stroke-width:4; stroke-opacity:1; fill:none" points="264.62,1056.49 264.62,1037.6 "/>
<polyline clip-path="url(#clip800)" style="stroke:#000000; stroke-linecap:round; stroke-linejoin:round; stroke-width:4; stroke-opacity:1; fill:none" points="729.171,1056.49 729.171,1037.6 "/>
<polyline clip-path="url(#clip800)" style="stroke:#000000; stroke-linecap:round; stroke-linejoin:round; stroke-width:4; stroke-opacity:1; fill:none" points="1193.72,1056.49 1193.72,1037.6 "/>
<polyline clip-path="url(#clip800)" style="stroke:#000000; stroke-linecap:round; stroke-linejoin:round; stroke-width:4; stroke-opacity:1; fill:none" points="1658.27,1056.49 1658.27,1037.6 "/>
<polyline clip-path="url(#clip800)" style="stroke:#000000; stroke-linecap:round; stroke-linejoin:round; stroke-width:4; stroke-opacity:1; fill:none" points="2122.82,1056.49 2122.82,1037.6 "/>
<polyline clip-path="url(#clip800)" style="stroke:#000000; stroke-linecap:round; stroke-linejoin:round; stroke-width:4; stroke-opacity:1; fill:none" points="2587.38,1056.49 2587.38,1037.6 "/>
<path clip-path="url(#clip800)" d="M264.62 1090.61 Q261.008 1090.61 259.18 1094.18 Q257.374 1097.72 257.374 1104.85 Q257.374 1111.96 259.18 1115.52 Q261.008 1119.06 264.62 1119.06 Q268.254 1119.06 270.059 1115.52 Q271.888 1111.96 271.888 1104.85 Q271.888 1097.72 270.059 1094.18 Q268.254 1090.61 264.62 1090.61 M264.62 1086.91 Q270.43 1086.91 273.485 1091.52 Q276.564 1096.1 276.564 1104.85 Q276.564 1113.58 273.485 1118.18 Q270.43 1122.77 264.62 1122.77 Q258.809 1122.77 255.731 1118.18 Q252.675 1113.58 252.675 1104.85 Q252.675 1096.1 255.731 1091.52 Q258.809 1086.91 264.62 1086.91 Z" fill="#000000" fill-rule="nonzero" fill-opacity="1" /><path clip-path="url(#clip800)" d="M703.858 1118.16 L711.497 1118.16 L711.497 1091.79 L703.187 1093.46 L703.187 1089.2 L711.451 1087.53 L716.127 1087.53 L716.127 1118.16 L723.766 1118.16 L723.766 1122.09 L703.858 1122.09 L703.858 1118.16 Z" fill="#000000" fill-rule="nonzero" fill-opacity="1" /><path clip-path="url(#clip800)" d="M743.21 1090.61 Q739.599 1090.61 737.77 1094.18 Q735.965 1097.72 735.965 1104.85 Q735.965 1111.96 737.77 1115.52 Q739.599 1119.06 743.21 1119.06 Q746.844 1119.06 748.65 1115.52 Q750.479 1111.96 750.479 1104.85 Q750.479 1097.72 748.65 1094.18 Q746.844 1090.61 743.21 1090.61 M743.21 1086.91 Q749.02 1086.91 752.076 1091.52 Q755.154 1096.1 755.154 1104.85 Q755.154 1113.58 752.076 1118.18 Q749.02 1122.77 743.21 1122.77 Q737.4 1122.77 734.321 1118.18 Q731.266 1113.58 731.266 1104.85 Q731.266 1096.1 734.321 1091.52 Q737.4 1086.91 743.21 1086.91 Z" fill="#000000" fill-rule="nonzero" fill-opacity="1" /><path clip-path="url(#clip800)" d="M1172.5 1118.16 L1188.81 1118.16 L1188.81 1122.09 L1166.87 1122.09 L1166.87 1118.16 Q1169.53 1115.4 1174.12 1110.77 Q1178.72 1106.12 1179.9 1104.78 Q1182.15 1102.26 1183.03 1100.52 Q1183.93 1098.76 1183.93 1097.07 Q1183.93 1094.32 1181.99 1092.58 Q1180.06 1090.84 1176.96 1090.84 Q1174.76 1090.84 1172.31 1091.61 Q1169.88 1092.37 1167.1 1093.92 L1167.1 1089.2 Q1169.93 1088.07 1172.38 1087.49 Q1174.83 1086.91 1176.87 1086.91 Q1182.24 1086.91 1185.43 1089.59 Q1188.63 1092.28 1188.63 1096.77 Q1188.63 1098.9 1187.82 1100.82 Q1187.03 1102.72 1184.93 1105.31 Q1184.35 1105.98 1181.25 1109.2 Q1178.14 1112.4 1172.5 1118.16 Z" fill="#000000" fill-rule="nonzero" fill-opacity="1" /><path clip-path="url(#clip800)" d="M1208.63 1090.61 Q1205.02 1090.61 1203.19 1094.18 Q1201.38 1097.72 1201.38 1104.85 Q1201.38 1111.96 1203.19 1115.52 Q1205.02 1119.06 1208.63 1119.06 Q1212.26 1119.06 1214.07 1115.52 Q1215.9 1111.96 1215.9 1104.85 Q1215.9 1097.72 1214.07 1094.18 Q1212.26 1090.61 1208.63 1090.61 M1208.63 1086.91 Q1214.44 1086.91 1217.5 1091.52 Q1220.57 1096.1 1220.57 1104.85 Q1220.57 1113.58 1217.5 1118.18 Q1214.44 1122.77 1208.63 1122.77 Q1202.82 1122.77 1199.74 1118.18 Q1196.68 1113.58 1196.68 1104.85 Q1196.68 1096.1 1199.74 1091.52 Q1202.82 1086.91 1208.63 1086.91 Z" fill="#000000" fill-rule="nonzero" fill-opacity="1" /><path clip-path="url(#clip800)" d="M1647.12 1103.46 Q1650.47 1104.18 1652.35 1106.45 Q1654.25 1108.71 1654.25 1112.05 Q1654.25 1117.16 1650.73 1119.96 Q1647.21 1122.77 1640.73 1122.77 Q1638.55 1122.77 1636.24 1122.33 Q1633.94 1121.91 1631.49 1121.05 L1631.49 1116.54 Q1633.44 1117.67 1635.75 1118.25 Q1638.06 1118.83 1640.59 1118.83 Q1644.99 1118.83 1647.28 1117.09 Q1649.59 1115.36 1649.59 1112.05 Q1649.59 1108.99 1647.44 1107.28 Q1645.31 1105.54 1641.49 1105.54 L1637.46 1105.54 L1637.46 1101.7 L1641.68 1101.7 Q1645.13 1101.7 1646.95 1100.33 Q1648.78 1098.95 1648.78 1096.35 Q1648.78 1093.69 1646.88 1092.28 Q1645.01 1090.84 1641.49 1090.84 Q1639.57 1090.84 1637.37 1091.26 Q1635.17 1091.68 1632.53 1092.56 L1632.53 1088.39 Q1635.19 1087.65 1637.51 1087.28 Q1639.85 1086.91 1641.91 1086.91 Q1647.23 1086.91 1650.33 1089.34 Q1653.44 1091.75 1653.44 1095.87 Q1653.44 1098.74 1651.79 1100.73 Q1650.15 1102.7 1647.12 1103.46 Z" fill="#000000" fill-rule="nonzero" fill-opacity="1" /><path clip-path="url(#clip800)" d="M1673.11 1090.61 Q1669.5 1090.61 1667.67 1094.18 Q1665.87 1097.72 1665.87 1104.85 Q1665.87 1111.96 1667.67 1115.52 Q1669.5 1119.06 1673.11 1119.06 Q1676.75 1119.06 1678.55 1115.52 Q1680.38 1111.96 1680.38 1104.85 Q1680.38 1097.72 1678.55 1094.18 Q1676.75 1090.61 1673.11 1090.61 M1673.11 1086.91 Q1678.92 1086.91 1681.98 1091.52 Q1685.06 1096.1 1685.06 1104.85 Q1685.06 1113.58 1681.98 1118.18 Q1678.92 1122.77 1673.11 1122.77 Q1667.3 1122.77 1664.22 1118.18 Q1661.17 1113.58 1661.17 1104.85 Q1661.17 1096.1 1664.22 1091.52 Q1667.3 1086.91 1673.11 1086.91 Z" fill="#000000" fill-rule="nonzero" fill-opacity="1" /><path clip-path="url(#clip800)" d="M2111 1091.61 L2099.19 1110.06 L2111 1110.06 L2111 1091.61 M2109.77 1087.53 L2115.65 1087.53 L2115.65 1110.06 L2120.58 1110.06 L2120.58 1113.95 L2115.65 1113.95 L2115.65 1122.09 L2111 1122.09 L2111 1113.95 L2095.39 1113.95 L2095.39 1109.43 L2109.77 1087.53 Z" fill="#000000" fill-rule="nonzero" fill-opacity="1" /><path clip-path="url(#clip800)" d="M2138.31 1090.61 Q2134.7 1090.61 2132.87 1094.18 Q2131.07 1097.72 2131.07 1104.85 Q2131.07 1111.96 2132.87 1115.52 Q2134.7 1119.06 2138.31 1119.06 Q2141.94 1119.06 2143.75 1115.52 Q2145.58 1111.96 2145.58 1104.85 Q2145.58 1097.72 2143.75 1094.18 Q2141.94 1090.61 2138.31 1090.61 M2138.31 1086.91 Q2144.12 1086.91 2147.18 1091.52 Q2150.25 1096.1 2150.25 1104.85 Q2150.25 1113.58 2147.18 1118.18 Q2144.12 1122.77 2138.31 1122.77 Q2132.5 1122.77 2129.42 1118.18 Q2126.37 1113.58 2126.37 1104.85 Q2126.37 1096.1 2129.42 1091.52 Q2132.5 1086.91 2138.31 1086.91 Z" fill="#000000" fill-rule="nonzero" fill-opacity="1" /><path clip-path="url(#clip800)" d="M2562.07 1087.53 L2580.43 1087.53 L2580.43 1091.47 L2566.36 1091.47 L2566.36 1099.94 Q2567.38 1099.59 2568.39 1099.43 Q2569.41 1099.25 2570.43 1099.25 Q2576.22 1099.25 2579.6 1102.42 Q2582.98 1105.59 2582.98 1111.01 Q2582.98 1116.58 2579.51 1119.69 Q2576.03 1122.77 2569.71 1122.77 Q2567.54 1122.77 2565.27 1122.4 Q2563.02 1122.02 2560.62 1121.28 L2560.62 1116.58 Q2562.7 1117.72 2564.92 1118.27 Q2567.14 1118.83 2569.62 1118.83 Q2573.63 1118.83 2575.96 1116.72 Q2578.3 1114.62 2578.3 1111.01 Q2578.3 1107.4 2575.96 1105.29 Q2573.63 1103.18 2569.62 1103.18 Q2567.75 1103.18 2565.87 1103.6 Q2564.02 1104.02 2562.07 1104.9 L2562.07 1087.53 Z" fill="#000000" fill-rule="nonzero" fill-opacity="1" /><path clip-path="url(#clip800)" d="M2602.19 1090.61 Q2598.58 1090.61 2596.75 1094.18 Q2594.95 1097.72 2594.95 1104.85 Q2594.95 1111.96 2596.75 1115.52 Q2598.58 1119.06 2602.19 1119.06 Q2605.82 1119.06 2607.63 1115.52 Q2609.46 1111.96 2609.46 1104.85 Q2609.46 1097.72 2607.63 1094.18 Q2605.82 1090.61 2602.19 1090.61 M2602.19 1086.91 Q2608 1086.91 2611.06 1091.52 Q2614.13 1096.1 2614.13 1104.85 Q2614.13 1113.58 2611.06 1118.18 Q2608 1122.77 2602.19 1122.77 Q2596.38 1122.77 2593.3 1118.18 Q2590.25 1113.58 2590.25 1104.85 Q2590.25 1096.1 2593.3 1091.52 Q2596.38 1086.91 2602.19 1086.91 Z" fill="#000000" fill-rule="nonzero" fill-opacity="1" /><path clip-path="url(#clip800)" d="M1384.34 1159.84 L1390.83 1159.84 L1400.82 1200.01 L1410.78 1159.84 L1418.01 1159.84 L1428 1200.01 L1437.97 1159.84 L1444.49 1159.84 L1432.56 1207.36 L1424.47 1207.36 L1414.45 1166.11 L1404.32 1207.36 L1396.24 1207.36 L1384.34 1159.84 Z" fill="#000000" fill-rule="nonzero" fill-opacity="1" /><path clip-path="url(#clip800)" d="M1479.44 1188.07 L1479.44 1190.93 L1452.51 1190.93 Q1452.89 1196.98 1456.14 1200.16 Q1459.42 1203.32 1465.24 1203.32 Q1468.62 1203.32 1471.77 1202.49 Q1474.95 1201.66 1478.07 1200.01 L1478.07 1205.54 Q1474.92 1206.88 1471.61 1207.58 Q1468.3 1208.28 1464.89 1208.28 Q1456.36 1208.28 1451.37 1203.32 Q1446.4 1198.35 1446.4 1189.88 Q1446.4 1181.13 1451.11 1176.01 Q1455.85 1170.85 1463.87 1170.85 Q1471.07 1170.85 1475.24 1175.5 Q1479.44 1180.11 1479.44 1188.07 M1473.58 1186.35 Q1473.52 1181.55 1470.88 1178.68 Q1468.27 1175.82 1463.94 1175.82 Q1459.04 1175.82 1456.08 1178.59 Q1453.15 1181.35 1452.7 1186.38 L1473.58 1186.35 Z" fill="#000000" fill-rule="nonzero" fill-opacity="1" /><path clip-path="url(#clip800)" d="M1519.54 1188.07 L1519.54 1190.93 L1492.62 1190.93 Q1493 1196.98 1496.24 1200.16 Q1499.52 1203.32 1505.35 1203.32 Q1508.72 1203.32 1511.87 1202.49 Q1515.06 1201.66 1518.17 1200.01 L1518.17 1205.54 Q1515.02 1206.88 1511.71 1207.58 Q1508.4 1208.28 1505 1208.28 Q1496.47 1208.28 1491.47 1203.32 Q1486.51 1198.35 1486.51 1189.88 Q1486.51 1181.13 1491.22 1176.01 Q1495.96 1170.85 1503.98 1170.85 Q1511.17 1170.85 1515.34 1175.5 Q1519.54 1180.11 1519.54 1188.07 M1513.69 1186.35 Q1513.62 1181.55 1510.98 1178.68 Q1508.37 1175.82 1504.04 1175.82 Q1499.14 1175.82 1496.18 1178.59 Q1493.25 1181.35 1492.81 1186.38 L1513.69 1186.35 Z" fill="#000000" fill-rule="nonzero" fill-opacity="1" /><path clip-path="url(#clip800)" d="M1528.93 1157.83 L1534.82 1157.83 L1534.82 1187.08 L1552.29 1171.71 L1559.77 1171.71 L1540.87 1188.39 L1560.57 1207.36 L1552.93 1207.36 L1534.82 1189.95 L1534.82 1207.36 L1528.93 1207.36 L1528.93 1157.83 Z" fill="#000000" fill-rule="nonzero" fill-opacity="1" /><polyline clip-path="url(#clip800)" style="stroke:#000000; stroke-linecap:round; stroke-linejoin:round; stroke-width:4; stroke-opacity:1; fill:none" points="192.15,1056.49 192.15,101.872 "/>
<polyline clip-path="url(#clip800)" style="stroke:#000000; stroke-linecap:round; stroke-linejoin:round; stroke-width:4; stroke-opacity:1; fill:none" points="192.15,1029.48 211.047,1029.48 "/>
<polyline clip-path="url(#clip800)" style="stroke:#000000; stroke-linecap:round; stroke-linejoin:round; stroke-width:4; stroke-opacity:1; fill:none" points="192.15,841.854 211.047,841.854 "/>
<polyline clip-path="url(#clip800)" style="stroke:#000000; stroke-linecap:round; stroke-linejoin:round; stroke-width:4; stroke-opacity:1; fill:none" points="192.15,654.232 211.047,654.232 "/>
<polyline clip-path="url(#clip800)" style="stroke:#000000; stroke-linecap:round; stroke-linejoin:round; stroke-width:4; stroke-opacity:1; fill:none" points="192.15,466.61 211.047,466.61 "/>
<polyline clip-path="url(#clip800)" style="stroke:#000000; stroke-linecap:round; stroke-linejoin:round; stroke-width:4; stroke-opacity:1; fill:none" points="192.15,278.988 211.047,278.988 "/>
<path clip-path="url(#clip800)" d="M138.205 1015.28 Q134.594 1015.28 132.765 1018.84 Q130.96 1022.38 130.96 1029.51 Q130.96 1036.62 132.765 1040.18 Q134.594 1043.72 138.205 1043.72 Q141.839 1043.72 143.645 1040.18 Q145.474 1036.62 145.474 1029.51 Q145.474 1022.38 143.645 1018.84 Q141.839 1015.28 138.205 1015.28 M138.205 1011.57 Q144.015 1011.57 147.071 1016.18 Q150.15 1020.76 150.15 1029.51 Q150.15 1038.24 147.071 1042.84 Q144.015 1047.43 138.205 1047.43 Q132.395 1047.43 129.316 1042.84 Q126.261 1038.24 126.261 1029.51 Q126.261 1020.76 129.316 1016.18 Q132.395 1011.57 138.205 1011.57 Z" fill="#000000" fill-rule="nonzero" fill-opacity="1" /><path clip-path="url(#clip800)" d="M98.8535 855.199 L106.492 855.199 L106.492 828.834 L98.1822 830.5 L98.1822 826.241 L106.446 824.574 L111.122 824.574 L111.122 855.199 L118.761 855.199 L118.761 859.134 L98.8535 859.134 L98.8535 855.199 Z" fill="#000000" fill-rule="nonzero" fill-opacity="1" /><path clip-path="url(#clip800)" d="M138.205 827.653 Q134.594 827.653 132.765 831.218 Q130.96 834.759 130.96 841.889 Q130.96 848.995 132.765 852.56 Q134.594 856.102 138.205 856.102 Q141.839 856.102 143.645 852.56 Q145.474 848.995 145.474 841.889 Q145.474 834.759 143.645 831.218 Q141.839 827.653 138.205 827.653 M138.205 823.949 Q144.015 823.949 147.071 828.556 Q150.15 833.139 150.15 841.889 Q150.15 850.616 147.071 855.222 Q144.015 859.806 138.205 859.806 Q132.395 859.806 129.316 855.222 Q126.261 850.616 126.261 841.889 Q126.261 833.139 129.316 828.556 Q132.395 823.949 138.205 823.949 Z" fill="#000000" fill-rule="nonzero" fill-opacity="1" /><path clip-path="url(#clip800)" d="M102.071 667.577 L118.39 667.577 L118.39 671.512 L96.4461 671.512 L96.4461 667.577 Q99.1082 664.822 103.691 660.193 Q108.298 655.54 109.478 654.197 Q111.724 651.674 112.603 649.938 Q113.506 648.179 113.506 646.489 Q113.506 643.734 111.562 641.998 Q109.641 640.262 106.539 640.262 Q104.34 640.262 101.886 641.026 Q99.4554 641.79 96.6776 643.341 L96.6776 638.619 Q99.5017 637.484 101.955 636.906 Q104.409 636.327 106.446 636.327 Q111.816 636.327 115.011 639.012 Q118.205 641.697 118.205 646.188 Q118.205 648.318 117.395 650.239 Q116.608 652.137 114.502 654.73 Q113.923 655.401 110.821 658.619 Q107.719 661.813 102.071 667.577 Z" fill="#000000" fill-rule="nonzero" fill-opacity="1" /><path clip-path="url(#clip800)" d="M138.205 640.031 Q134.594 640.031 132.765 643.596 Q130.96 647.137 130.96 654.267 Q130.96 661.373 132.765 664.938 Q134.594 668.48 138.205 668.48 Q141.839 668.48 143.645 664.938 Q145.474 661.373 145.474 654.267 Q145.474 647.137 143.645 643.596 Q141.839 640.031 138.205 640.031 M138.205 636.327 Q144.015 636.327 147.071 640.933 Q150.15 645.517 150.15 654.267 Q150.15 662.994 147.071 667.6 Q144.015 672.183 138.205 672.183 Q132.395 672.183 129.316 667.6 Q126.261 662.994 126.261 654.267 Q126.261 645.517 129.316 640.933 Q132.395 636.327 138.205 636.327 Z" fill="#000000" fill-rule="nonzero" fill-opacity="1" /><path clip-path="url(#clip800)" d="M112.21 465.256 Q115.566 465.973 117.441 468.242 Q119.34 470.51 119.34 473.844 Q119.34 478.959 115.821 481.76 Q112.303 484.561 105.821 484.561 Q103.645 484.561 101.33 484.121 Q99.0387 483.705 96.585 482.848 L96.585 478.334 Q98.5295 479.469 100.844 480.047 Q103.159 480.626 105.682 480.626 Q110.08 480.626 112.372 478.89 Q114.687 477.154 114.687 473.844 Q114.687 470.788 112.534 469.075 Q110.404 467.339 106.585 467.339 L102.557 467.339 L102.557 463.496 L106.77 463.496 Q110.219 463.496 112.048 462.131 Q113.877 460.742 113.877 458.149 Q113.877 455.487 111.978 454.075 Q110.103 452.64 106.585 452.64 Q104.664 452.64 102.465 453.057 Q100.266 453.473 97.6267 454.353 L97.6267 450.186 Q100.289 449.446 102.604 449.075 Q104.941 448.705 107.002 448.705 Q112.326 448.705 115.428 451.135 Q118.529 453.543 118.529 457.663 Q118.529 460.533 116.886 462.524 Q115.242 464.492 112.21 465.256 Z" fill="#000000" fill-rule="nonzero" fill-opacity="1" /><path clip-path="url(#clip800)" d="M138.205 452.408 Q134.594 452.408 132.765 455.973 Q130.96 459.515 130.96 466.644 Q130.96 473.751 132.765 477.316 Q134.594 480.857 138.205 480.857 Q141.839 480.857 143.645 477.316 Q145.474 473.751 145.474 466.644 Q145.474 459.515 143.645 455.973 Q141.839 452.408 138.205 452.408 M138.205 448.705 Q144.015 448.705 147.071 453.311 Q150.15 457.895 150.15 466.644 Q150.15 475.371 147.071 479.978 Q144.015 484.561 138.205 484.561 Q132.395 484.561 129.316 479.978 Q126.261 475.371 126.261 466.644 Q126.261 457.895 129.316 453.311 Q132.395 448.705 138.205 448.705 Z" fill="#000000" fill-rule="nonzero" fill-opacity="1" /><path clip-path="url(#clip800)" d="M110.89 265.782 L99.085 284.231 L110.89 284.231 L110.89 265.782 M109.664 261.708 L115.543 261.708 L115.543 284.231 L120.474 284.231 L120.474 288.119 L115.543 288.119 L115.543 296.268 L110.89 296.268 L110.89 288.119 L95.2887 288.119 L95.2887 283.606 L109.664 261.708 Z" fill="#000000" fill-rule="nonzero" fill-opacity="1" /><path clip-path="url(#clip800)" d="M138.205 264.786 Q134.594 264.786 132.765 268.351 Q130.96 271.893 130.96 279.022 Q130.96 286.129 132.765 289.693 Q134.594 293.235 138.205 293.235 Q141.839 293.235 143.645 289.693 Q145.474 286.129 145.474 279.022 Q145.474 271.893 143.645 268.351 Q141.839 264.786 138.205 264.786 M138.205 261.083 Q144.015 261.083 147.071 265.689 Q150.15 270.272 150.15 279.022 Q150.15 287.749 147.071 292.356 Q144.015 296.939 138.205 296.939 Q132.395 296.939 129.316 292.356 Q126.261 287.749 126.261 279.022 Q126.261 270.272 129.316 265.689 Q132.395 261.083 138.205 261.083 Z" fill="#000000" fill-rule="nonzero" fill-opacity="1" /><path clip-path="url(#clip800)" d="M36.8366 981.559 L52.5917 981.559 L52.5917 987.448 L3.60757 987.448 Q-10.9062 987.448 -10.9062 973.889 Q-10.9062 960.075 1.34775 960.075 Q10.0688 960.075 13.2516 965.55 Q16.1162 956.638 24.6144 956.638 Q39.7011 956.638 39.7011 971.979 Q39.7011 978.727 36.8366 981.559 M29.1977 981.559 Q34.704 978.026 34.704 971.756 Q34.704 962.59 24.7099 962.59 Q15.7342 962.59 16.4345 977.358 L11.0236 977.358 Q11.0236 965.804 0.838489 965.804 Q-6.13196 965.804 -6.13196 973.252 Q-6.13196 981.559 3.79854 981.559 L29.1977 981.559 Z" fill="#000000" fill-rule="nonzero" fill-opacity="1" /><path clip-path="url(#clip800)" d="M49.8544 918.73 L54.4059 918.73 L54.4059 952.595 L49.8544 952.595 L49.8544 918.73 Z" fill="#000000" fill-rule="nonzero" fill-opacity="1" /><path clip-path="url(#clip800)" d="M-6.7367 907.431 L3.38477 907.431 L3.38477 895.368 L7.93625 895.368 L7.93625 907.431 L27.288 907.431 Q31.6485 907.431 32.8898 906.253 Q34.1311 905.044 34.1311 901.383 L34.1311 895.368 L39.0327 895.368 L39.0327 901.383 Q39.0327 908.163 36.5183 910.741 Q33.972 913.319 27.288 913.319 L7.93625 913.319 L7.93625 917.616 L3.38477 917.616 L3.38477 913.319 L-6.7367 913.319 L-6.7367 907.431 Z" fill="#000000" fill-rule="nonzero" fill-opacity="1" /><path clip-path="url(#clip800)" d="M-10.4288 852.877 Q-3.10825 857.142 4.05317 859.211 Q11.2146 861.279 18.567 861.279 Q25.9194 861.279 33.1445 859.211 Q40.3377 857.11 47.6264 852.877 L47.6264 857.969 Q40.1467 862.744 32.9217 865.131 Q25.6966 867.486 18.567 867.486 Q11.4692 867.486 4.27597 865.131 Q-2.91728 862.775 -10.4288 857.969 L-10.4288 852.877 Z" fill="#000000" fill-rule="nonzero" fill-opacity="1" /><path clip-path="url(#clip800)" d="M19.7446 811.022 L22.6092 811.022 L22.6092 837.949 Q28.6566 837.567 31.8395 834.321 Q34.9905 831.042 34.9905 825.218 Q34.9905 821.844 34.163 818.693 Q33.3354 815.51 31.6803 812.391 L37.2185 812.391 Q38.5553 815.542 39.2555 818.852 Q39.9558 822.162 39.9558 825.568 Q39.9558 834.098 34.9905 839.095 Q30.0253 844.06 21.5589 844.06 Q12.806 844.06 7.68162 839.35 Q2.5254 834.607 2.5254 826.586 Q2.5254 819.393 7.17237 815.224 Q11.7875 811.022 19.7446 811.022 M18.0259 816.879 Q13.2198 816.942 10.3552 819.584 Q7.49065 822.194 7.49065 826.523 Q7.49065 831.424 10.2597 834.384 Q13.0288 837.313 18.0577 837.758 L18.0259 816.879 Z" fill="#000000" fill-rule="nonzero" fill-opacity="1" /><path clip-path="url(#clip800)" d="M20.795 777.952 Q14.4293 777.952 10.9281 780.594 Q7.427 783.204 7.427 787.946 Q7.427 792.657 10.9281 795.299 Q14.4293 797.909 20.795 797.909 Q27.1289 797.909 30.63 795.299 Q34.1311 792.657 34.1311 787.946 Q34.1311 783.204 30.63 780.594 Q27.1289 777.952 20.795 777.952 M34.6086 772.096 Q43.7115 772.096 48.1357 776.138 Q52.5917 780.18 52.5917 788.519 Q52.5917 791.607 52.1143 794.344 Q51.6687 797.081 50.7138 799.659 L45.0165 799.659 Q46.4169 797.081 47.0853 794.567 Q47.7537 792.052 47.7537 789.442 Q47.7537 783.681 44.73 780.817 Q41.7382 777.952 35.6589 777.952 L32.7625 777.952 Q35.9135 779.767 37.4731 782.599 Q39.0327 785.432 39.0327 789.379 Q39.0327 795.935 34.0356 799.946 Q29.0386 803.956 20.795 803.956 Q12.5196 803.956 7.52248 799.946 Q2.5254 795.935 2.5254 789.379 Q2.5254 785.432 4.085 782.599 Q5.6446 779.767 8.79562 777.952 L3.38477 777.952 L3.38477 772.096 L34.6086 772.096 Z" fill="#000000" fill-rule="nonzero" fill-opacity="1" /><path clip-path="url(#clip800)" d="M20.795 736.575 Q14.4293 736.575 10.9281 739.217 Q7.427 741.827 7.427 746.569 Q7.427 751.28 10.9281 753.922 Q14.4293 756.532 20.795 756.532 Q27.1289 756.532 30.63 753.922 Q34.1311 751.28 34.1311 746.569 Q34.1311 741.827 30.63 739.217 Q27.1289 736.575 20.795 736.575 M34.6086 730.719 Q43.7115 730.719 48.1357 734.761 Q52.5917 738.803 52.5917 747.142 Q52.5917 750.23 52.1143 752.967 Q51.6687 755.704 50.7138 758.282 L45.0165 758.282 Q46.4169 755.704 47.0853 753.19 Q47.7537 750.675 47.7537 748.065 Q47.7537 742.304 44.73 739.44 Q41.7382 736.575 35.6589 736.575 L32.7625 736.575 Q35.9135 738.389 37.4731 741.222 Q39.0327 744.055 39.0327 748.002 Q39.0327 754.558 34.0356 758.569 Q29.0386 762.579 20.795 762.579 Q12.5196 762.579 7.52248 758.569 Q2.5254 754.558 2.5254 748.002 Q2.5254 744.055 4.085 741.222 Q5.6446 738.389 8.79562 736.575 L3.38477 736.575 L3.38477 730.719 L34.6086 730.719 Z" fill="#000000" fill-rule="nonzero" fill-opacity="1" /><path clip-path="url(#clip800)" d="M4.43511 695.93 L9.97328 695.93 Q8.70014 698.413 8.06357 701.086 Q7.427 703.76 7.427 706.625 Q7.427 710.985 8.76379 713.181 Q10.1006 715.346 12.7742 715.346 Q14.8112 715.346 15.9889 713.786 Q17.1347 712.226 18.185 707.516 L18.6306 705.511 Q19.9674 699.272 22.4182 696.662 Q24.8372 694.02 29.1977 694.02 Q34.163 694.02 37.0594 697.967 Q39.9558 701.882 39.9558 708.757 Q39.9558 711.622 39.3828 714.741 Q38.8418 717.828 37.7278 721.266 L31.6803 721.266 Q33.3673 718.019 34.2266 714.868 Q35.0542 711.717 35.0542 708.63 Q35.0542 704.492 33.6537 702.264 Q32.2214 700.036 29.6433 700.036 Q27.2562 700.036 25.983 701.659 Q24.7099 703.251 23.5322 708.693 L23.0548 710.73 Q21.909 716.173 19.5537 718.592 Q17.1665 721.011 13.0288 721.011 Q7.99991 721.011 5.26266 717.446 Q2.5254 713.881 2.5254 707.325 Q2.5254 704.078 3.00283 701.214 Q3.48026 698.349 4.43511 695.93 Z" fill="#000000" fill-rule="nonzero" fill-opacity="1" /><path clip-path="url(#clip800)" d="M12.3604 683.867 L12.3604 677.151 L20.4449 677.151 L20.4449 683.867 L12.3604 683.867 Z" fill="#000000" fill-rule="nonzero" fill-opacity="1" /><path clip-path="url(#clip800)" d="M21.1133 647.774 Q21.1133 654.871 22.7365 657.609 Q24.3598 660.346 28.2747 660.346 Q31.3939 660.346 33.2399 658.309 Q35.0542 656.24 35.0542 652.707 Q35.0542 647.837 31.6167 644.909 Q28.1474 641.949 22.4182 641.949 L21.1133 641.949 L21.1133 647.774 M18.6943 636.093 L39.0327 636.093 L39.0327 641.949 L33.6219 641.949 Q36.8684 643.954 38.428 646.946 Q39.9558 649.938 39.9558 654.267 Q39.9558 659.741 36.9002 662.988 Q33.8128 666.202 28.6566 666.202 Q22.641 666.202 19.5855 662.192 Q16.53 658.15 16.53 650.161 L16.53 641.949 L15.957 641.949 Q11.9148 641.949 9.71865 644.623 Q7.49065 647.264 7.49065 652.07 Q7.49065 655.126 8.22271 658.022 Q8.95477 660.919 10.4189 663.592 L5.00803 663.592 Q3.76671 660.378 3.16197 657.354 Q2.5254 654.33 2.5254 651.466 Q2.5254 643.731 6.5358 639.912 Q10.5462 636.093 18.6943 636.093 Z" fill="#000000" fill-rule="nonzero" fill-opacity="1" /><path clip-path="url(#clip800)" d="M8.79562 600.572 L-10.4925 600.572 L-10.4925 594.715 L39.0327 594.715 L39.0327 600.572 L33.6855 600.572 Q36.8684 602.418 38.428 605.251 Q39.9558 608.052 39.9558 611.998 Q39.9558 618.46 34.7995 622.534 Q29.6433 626.576 21.2406 626.576 Q12.8378 626.576 7.68162 622.534 Q2.5254 618.46 2.5254 611.998 Q2.5254 608.052 4.085 605.251 Q5.61277 602.418 8.79562 600.572 M21.2406 620.528 Q27.7018 620.528 31.3939 617.887 Q35.0542 615.213 35.0542 610.566 Q35.0542 605.919 31.3939 603.245 Q27.7018 600.572 21.2406 600.572 Q14.7794 600.572 11.1191 603.245 Q7.427 605.919 7.427 610.566 Q7.427 615.213 11.1191 617.887 Q14.7794 620.528 21.2406 620.528 Z" fill="#000000" fill-rule="nonzero" fill-opacity="1" /><path clip-path="url(#clip800)" d="M24.9645 583.257 L3.38477 583.257 L3.38477 577.401 L24.7417 577.401 Q29.8025 577.401 32.3487 575.427 Q34.8632 573.454 34.8632 569.507 Q34.8632 564.765 31.8395 562.028 Q28.8158 559.258 23.5959 559.258 L3.38477 559.258 L3.38477 553.402 L39.0327 553.402 L39.0327 559.258 L33.5582 559.258 Q36.8047 561.391 38.3962 564.224 Q39.9558 567.025 39.9558 570.749 Q39.9558 576.891 36.1363 580.074 Q32.3169 583.257 24.9645 583.257 M2.5254 568.521 L2.5254 568.521 Z" fill="#000000" fill-rule="nonzero" fill-opacity="1" /><path clip-path="url(#clip800)" d="M-10.4925 541.339 L-10.4925 535.483 L39.0327 535.483 L39.0327 541.339 L-10.4925 541.339 Z" fill="#000000" fill-rule="nonzero" fill-opacity="1" /><path clip-path="url(#clip800)" d="M-6.7367 517.436 L3.38477 517.436 L3.38477 505.373 L7.93625 505.373 L7.93625 517.436 L27.288 517.436 Q31.6485 517.436 32.8898 516.258 Q34.1311 515.049 34.1311 511.388 L34.1311 505.373 L39.0327 505.373 L39.0327 511.388 Q39.0327 518.168 36.5183 520.746 Q33.972 523.324 27.288 523.324 L7.93625 523.324 L7.93625 527.621 L3.38477 527.621 L3.38477 523.324 L-6.7367 523.324 L-6.7367 517.436 Z" fill="#000000" fill-rule="nonzero" fill-opacity="1" /><path clip-path="url(#clip800)" d="M4.81706 499.453 L4.81706 473.767 L7.84077 473.767 L7.84077 499.453 L4.81706 499.453 Z" fill="#000000" fill-rule="nonzero" fill-opacity="1" /><path clip-path="url(#clip800)" d="M14.2701 464.441 L14.2701 457.948 L-5.1771 457.948 L-3.87213 465.046 L-7.56424 465.046 L-8.80556 457.725 L-8.80556 453.365 L14.2701 453.365 L14.2701 446.84 L17.7713 446.84 L17.7713 464.441 L14.2701 464.441 Z" fill="#000000" fill-rule="nonzero" fill-opacity="1" /><path clip-path="url(#clip800)" d="M12.3604 436.305 L12.3604 429.589 L20.4449 429.589 L20.4449 436.305 L12.3604 436.305 Z" fill="#000000" fill-rule="nonzero" fill-opacity="1" /><path clip-path="url(#clip800)" d="M3.38477 419.818 L3.38477 413.961 L31.2029 406.641 L3.38477 399.352 L3.38477 392.445 L31.2029 385.125 L3.38477 377.836 L3.38477 371.979 L39.0327 381.305 L39.0327 388.212 L9.81414 395.883 L39.0327 403.585 L39.0327 410.492 L3.38477 419.818 Z" fill="#000000" fill-rule="nonzero" fill-opacity="1" /><path clip-path="url(#clip800)" d="M19.7446 332.607 L22.6092 332.607 L22.6092 359.534 Q28.6566 359.152 31.8395 355.906 Q34.9905 352.628 34.9905 346.803 Q34.9905 343.429 34.163 340.278 Q33.3354 337.095 31.6803 333.976 L37.2185 333.976 Q38.5553 337.127 39.2555 340.437 Q39.9558 343.747 39.9558 347.153 Q39.9558 355.683 34.9905 360.68 Q30.0253 365.645 21.5589 365.645 Q12.806 365.645 7.68162 360.935 Q2.5254 356.192 2.5254 348.172 Q2.5254 340.978 7.17237 336.809 Q11.7875 332.607 19.7446 332.607 M18.0259 338.464 Q13.2198 338.528 10.3552 341.169 Q7.49065 343.779 7.49065 348.108 Q7.49065 353.01 10.2597 355.97 Q13.0288 358.898 18.0577 359.343 L18.0259 338.464 Z" fill="#000000" fill-rule="nonzero" fill-opacity="1" /><path clip-path="url(#clip800)" d="M19.7446 292.504 L22.6092 292.504 L22.6092 319.43 Q28.6566 319.049 31.8395 315.802 Q34.9905 312.524 34.9905 306.699 Q34.9905 303.325 34.163 300.174 Q33.3354 296.991 31.6803 293.872 L37.2185 293.872 Q38.5553 297.023 39.2555 300.333 Q39.9558 303.644 39.9558 307.049 Q39.9558 315.579 34.9905 320.576 Q30.0253 325.542 21.5589 325.542 Q12.806 325.542 7.68162 320.831 Q2.5254 316.088 2.5254 308.068 Q2.5254 300.874 7.17237 296.705 Q11.7875 292.504 19.7446 292.504 M18.0259 298.36 Q13.2198 298.424 10.3552 301.065 Q7.49065 303.675 7.49065 308.004 Q7.49065 312.906 10.2597 315.866 Q13.0288 318.794 18.0577 319.239 L18.0259 298.36 Z" fill="#000000" fill-rule="nonzero" fill-opacity="1" /><path clip-path="url(#clip800)" d="M-10.4925 283.114 L-10.4925 277.226 L18.758 277.226 L3.38477 259.752 L3.38477 252.272 L20.0629 271.178 L39.0327 251.477 L39.0327 259.115 L21.6225 277.226 L39.0327 277.226 L39.0327 283.114 L-10.4925 283.114 Z" fill="#000000" fill-rule="nonzero" fill-opacity="1" /><path clip-path="url(#clip800)" d="M4.81706 246.925 L4.81706 221.239 L7.84077 221.239 L7.84077 246.925 L4.81706 246.925 Z" fill="#000000" fill-rule="nonzero" fill-opacity="1" /><path clip-path="url(#clip800)" d="M14.2701 211.914 L14.2701 205.421 L-5.1771 205.421 L-3.87213 212.518 L-7.56424 212.518 L-8.80556 205.198 L-8.80556 200.837 L14.2701 200.837 L14.2701 194.313 L17.7713 194.313 L17.7713 211.914 L14.2701 211.914 Z" fill="#000000" fill-rule="nonzero" fill-opacity="1" /><path clip-path="url(#clip800)" d="M-10.4288 185.528 L-10.4288 180.435 Q-2.91728 175.661 4.27597 173.306 Q11.4692 170.919 18.567 170.919 Q25.6966 170.919 32.9217 173.306 Q40.1467 175.661 47.6264 180.435 L47.6264 185.528 Q40.3377 181.295 33.1445 179.226 Q25.9194 177.125 18.567 177.125 Q11.2146 177.125 4.05317 179.226 Q-3.10825 181.295 -10.4288 185.528 Z" fill="#000000" fill-rule="nonzero" fill-opacity="1" /><path clip-path="url(#clip800)" d="M567.744 12.096 L605.985 12.096 L605.985 18.9825 L575.927 18.9825 L575.927 36.8875 L604.729 36.8875 L604.729 43.7741 L575.927 43.7741 L575.927 65.6895 L606.714 65.6895 L606.714 72.576 L567.744 72.576 L567.744 12.096 Z" fill="#000000" fill-rule="nonzero" fill-opacity="1" /><path clip-path="url(#clip800)" d="M642.807 9.54393 L642.807 15.7418 L635.678 15.7418 Q631.667 15.7418 630.087 17.3622 Q628.548 18.9825 628.548 23.1955 L628.548 27.2059 L640.822 27.2059 L640.822 32.9987 L628.548 32.9987 L628.548 72.576 L621.054 72.576 L621.054 32.9987 L613.924 32.9987 L613.924 27.2059 L621.054 27.2059 L621.054 24.0462 Q621.054 16.471 624.578 13.0277 Q628.103 9.54393 635.759 9.54393 L642.807 9.54393 Z" fill="#000000" fill-rule="nonzero" fill-opacity="1" /><path clip-path="url(#clip800)" d="M672.014 9.54393 L672.014 15.7418 L664.885 15.7418 Q660.874 15.7418 659.294 17.3622 Q657.755 18.9825 657.755 23.1955 L657.755 27.2059 L670.029 27.2059 L670.029 32.9987 L657.755 32.9987 L657.755 72.576 L650.261 72.576 L650.261 32.9987 L643.131 32.9987 L643.131 27.2059 L650.261 27.2059 L650.261 24.0462 Q650.261 16.471 653.785 13.0277 Q657.31 9.54393 664.966 9.54393 L672.014 9.54393 Z" fill="#000000" fill-rule="nonzero" fill-opacity="1" /><path clip-path="url(#clip800)" d="M717.06 48.0275 L717.06 51.6733 L682.79 51.6733 Q683.276 59.3701 687.408 63.421 Q691.58 67.4314 698.993 67.4314 Q703.287 67.4314 707.298 66.3781 Q711.349 65.3249 715.318 63.2184 L715.318 70.267 Q711.308 71.9684 707.095 72.8596 Q702.882 73.7508 698.548 73.7508 Q687.691 73.7508 681.331 67.4314 Q675.012 61.1119 675.012 50.3365 Q675.012 39.1965 681.007 32.6746 Q687.043 26.1121 697.251 26.1121 Q706.406 26.1121 711.713 32.0264 Q717.06 37.9003 717.06 48.0275 M709.607 45.84 Q709.526 39.7232 706.163 36.0774 Q702.842 32.4315 697.332 32.4315 Q691.094 32.4315 687.327 35.9558 Q683.6 39.4801 683.033 45.8805 L709.607 45.84 Z" fill="#000000" fill-rule="nonzero" fill-opacity="1" /><path clip-path="url(#clip800)" d="M761.944 28.9478 L761.944 35.9153 Q758.785 34.1734 755.584 33.3227 Q752.425 32.4315 749.184 32.4315 Q741.933 32.4315 737.923 37.0496 Q733.912 41.6271 733.912 49.9314 Q733.912 58.2358 737.923 62.8538 Q741.933 67.4314 749.184 67.4314 Q752.425 67.4314 755.584 66.5807 Q758.785 65.6895 761.944 63.9476 L761.944 70.8341 Q758.825 72.2924 755.463 73.0216 Q752.141 73.7508 748.374 73.7508 Q738.125 73.7508 732.089 67.3098 Q726.053 60.8689 726.053 49.9314 Q726.053 38.832 732.13 32.472 Q738.247 26.1121 748.86 26.1121 Q752.303 26.1121 755.584 26.8413 Q758.866 27.5299 761.944 28.9478 Z" fill="#000000" fill-rule="nonzero" fill-opacity="1" /><path clip-path="url(#clip800)" d="M782.28 14.324 L782.28 27.2059 L797.633 27.2059 L797.633 32.9987 L782.28 32.9987 L782.28 57.6282 Q782.28 63.1779 783.779 64.7578 Q785.318 66.3376 789.977 66.3376 L797.633 66.3376 L797.633 72.576 L789.977 72.576 Q781.348 72.576 778.067 69.3758 Q774.786 66.1351 774.786 57.6282 L774.786 32.9987 L769.317 32.9987 L769.317 27.2059 L774.786 27.2059 L774.786 14.324 L782.28 14.324 Z" fill="#000000" fill-rule="nonzero" fill-opacity="1" /><path clip-path="url(#clip800)" d="M807.436 27.2059 L814.89 27.2059 L814.89 72.576 L807.436 72.576 L807.436 27.2059 M807.436 9.54393 L814.89 9.54393 L814.89 18.9825 L807.436 18.9825 L807.436 9.54393 Z" fill="#000000" fill-rule="nonzero" fill-opacity="1" /><path clip-path="url(#clip800)" d="M825.138 27.2059 L833.038 27.2059 L847.216 65.2844 L861.394 27.2059 L869.293 27.2059 L852.28 72.576 L842.152 72.576 L825.138 27.2059 Z" fill="#000000" fill-rule="nonzero" fill-opacity="1" /><path clip-path="url(#clip800)" d="M918.39 48.0275 L918.39 51.6733 L884.12 51.6733 Q884.606 59.3701 888.738 63.421 Q892.91 67.4314 900.323 67.4314 Q904.617 67.4314 908.628 66.3781 Q912.679 65.3249 916.648 63.2184 L916.648 70.267 Q912.638 71.9684 908.425 72.8596 Q904.212 73.7508 899.878 73.7508 Q889.021 73.7508 882.661 67.4314 Q876.342 61.1119 876.342 50.3365 Q876.342 39.1965 882.337 32.6746 Q888.373 26.1121 898.581 26.1121 Q907.736 26.1121 913.043 32.0264 Q918.39 37.9003 918.39 48.0275 M910.937 45.84 Q910.856 39.7232 907.493 36.0774 Q904.172 32.4315 898.662 32.4315 Q892.424 32.4315 888.657 35.9558 Q884.93 39.4801 884.363 45.8805 L910.937 45.84 Z" fill="#000000" fill-rule="nonzero" fill-opacity="1" /><path clip-path="url(#clip800)" d="M979.964 9.54393 L979.964 15.7418 L972.834 15.7418 Q968.824 15.7418 967.244 17.3622 Q965.705 18.9825 965.705 23.1955 L965.705 27.2059 L977.979 27.2059 L977.979 32.9987 L965.705 32.9987 L965.705 72.576 L958.211 72.576 L958.211 32.9987 L951.081 32.9987 L951.081 27.2059 L958.211 27.2059 L958.211 24.0462 Q958.211 16.471 961.735 13.0277 Q965.259 9.54393 972.915 9.54393 L979.964 9.54393 Z" fill="#000000" fill-rule="nonzero" fill-opacity="1" /><path clip-path="url(#clip800)" d="M1025.01 48.0275 L1025.01 51.6733 L990.739 51.6733 Q991.226 59.3701 995.357 63.421 Q999.53 67.4314 1006.94 67.4314 Q1011.24 67.4314 1015.25 66.3781 Q1019.3 65.3249 1023.27 63.2184 L1023.27 70.267 Q1019.26 71.9684 1015.04 72.8596 Q1010.83 73.7508 1006.5 73.7508 Q995.641 73.7508 989.281 67.4314 Q982.962 61.1119 982.962 50.3365 Q982.962 39.1965 988.957 32.6746 Q994.993 26.1121 1005.2 26.1121 Q1014.36 26.1121 1019.66 32.0264 Q1025.01 37.9003 1025.01 48.0275 M1017.56 45.84 Q1017.48 39.7232 1014.11 36.0774 Q1010.79 32.4315 1005.28 32.4315 Q999.044 32.4315 995.276 35.9558 Q991.55 39.4801 990.983 45.8805 L1017.56 45.84 Z" fill="#000000" fill-rule="nonzero" fill-opacity="1" /><path clip-path="url(#clip800)" d="M1063.53 34.1734 Q1062.28 33.4443 1060.78 33.1202 Q1059.32 32.7556 1057.54 32.7556 Q1051.22 32.7556 1047.82 36.8875 Q1044.45 40.9789 1044.45 48.6757 L1044.45 72.576 L1036.96 72.576 L1036.96 27.2059 L1044.45 27.2059 L1044.45 34.2544 Q1046.8 30.1225 1050.57 28.1376 Q1054.34 26.1121 1059.73 26.1121 Q1060.5 26.1121 1061.43 26.2337 Q1062.36 26.3147 1063.49 26.5172 L1063.53 34.1734 Z" fill="#000000" fill-rule="nonzero" fill-opacity="1" /><path clip-path="url(#clip800)" d="M1078.73 14.324 L1078.73 27.2059 L1094.08 27.2059 L1094.08 32.9987 L1078.73 32.9987 L1078.73 57.6282 Q1078.73 63.1779 1080.22 64.7578 Q1081.76 66.3376 1086.42 66.3376 L1094.08 66.3376 L1094.08 72.576 L1086.42 72.576 Q1077.79 72.576 1074.51 69.3758 Q1071.23 66.1351 1071.23 57.6282 L1071.23 32.9987 L1065.76 32.9987 L1065.76 27.2059 L1071.23 27.2059 L1071.23 14.324 L1078.73 14.324 Z" fill="#000000" fill-rule="nonzero" fill-opacity="1" /><path clip-path="url(#clip800)" d="M1103.88 27.2059 L1111.33 27.2059 L1111.33 72.576 L1103.88 72.576 L1103.88 27.2059 M1103.88 9.54393 L1111.33 9.54393 L1111.33 18.9825 L1103.88 18.9825 L1103.88 9.54393 Z" fill="#000000" fill-rule="nonzero" fill-opacity="1" /><path clip-path="url(#clip800)" d="M1126.93 9.54393 L1134.38 9.54393 L1134.38 72.576 L1126.93 72.576 L1126.93 9.54393 Z" fill="#000000" fill-rule="nonzero" fill-opacity="1" /><path clip-path="url(#clip800)" d="M1149.98 27.2059 L1157.43 27.2059 L1157.43 72.576 L1149.98 72.576 L1149.98 27.2059 M1149.98 9.54393 L1157.43 9.54393 L1157.43 18.9825 L1149.98 18.9825 L1149.98 9.54393 Z" fill="#000000" fill-rule="nonzero" fill-opacity="1" /><path clip-path="url(#clip800)" d="M1180.4 14.324 L1180.4 27.2059 L1195.76 27.2059 L1195.76 32.9987 L1180.4 32.9987 L1180.4 57.6282 Q1180.4 63.1779 1181.9 64.7578 Q1183.44 66.3376 1188.1 66.3376 L1195.76 66.3376 L1195.76 72.576 L1188.1 72.576 Q1179.47 72.576 1176.19 69.3758 Q1172.91 66.1351 1172.91 57.6282 L1172.91 32.9987 L1167.44 32.9987 L1167.44 27.2059 L1172.91 27.2059 L1172.91 14.324 L1180.4 14.324 Z" fill="#000000" fill-rule="nonzero" fill-opacity="1" /><path clip-path="url(#clip800)" d="M1224.44 76.7889 Q1221.28 84.8907 1218.28 87.3618 Q1215.28 89.8329 1210.26 89.8329 L1204.3 89.8329 L1204.3 83.5945 L1208.68 83.5945 Q1211.76 83.5945 1213.46 82.1361 Q1215.16 80.6778 1217.23 75.2496 L1218.56 71.8468 L1200.21 27.2059 L1208.11 27.2059 L1222.29 62.6918 L1236.47 27.2059 L1244.37 27.2059 L1224.44 76.7889 Z" fill="#000000" fill-rule="nonzero" fill-opacity="1" /><path clip-path="url(#clip800)" d="M1298.93 9.62495 Q1293.5 18.942 1290.87 28.0566 Q1288.24 37.1711 1288.24 46.5287 Q1288.24 55.8863 1290.87 65.0818 Q1293.54 74.2369 1298.93 83.5134 L1292.45 83.5134 Q1286.37 73.9938 1283.34 64.7983 Q1280.34 55.6027 1280.34 46.5287 Q1280.34 37.4952 1283.34 28.3401 Q1286.33 19.1851 1292.45 9.62495 L1298.93 9.62495 Z" fill="#000000" fill-rule="nonzero" fill-opacity="1" /><path clip-path="url(#clip800)" d="M1313.39 27.2059 L1320.85 27.2059 L1320.85 72.576 L1313.39 72.576 L1313.39 27.2059 M1313.39 9.54393 L1320.85 9.54393 L1320.85 18.9825 L1313.39 18.9825 L1313.39 9.54393 Z" fill="#000000" fill-rule="nonzero" fill-opacity="1" /><path clip-path="url(#clip800)" d="M1374.16 45.1919 L1374.16 72.576 L1366.7 72.576 L1366.7 45.4349 Q1366.7 38.994 1364.19 35.7938 Q1361.68 32.5936 1356.66 32.5936 Q1350.62 32.5936 1347.14 36.4419 Q1343.65 40.2903 1343.65 46.9338 L1343.65 72.576 L1336.16 72.576 L1336.16 27.2059 L1343.65 27.2059 L1343.65 34.2544 Q1346.33 30.163 1349.93 28.1376 Q1353.58 26.1121 1358.32 26.1121 Q1366.14 26.1121 1370.15 30.9732 Q1374.16 35.7938 1374.16 45.1919 Z" fill="#000000" fill-rule="nonzero" fill-opacity="1" /><path clip-path="url(#clip800)" d="M1396.4 14.324 L1396.4 27.2059 L1411.75 27.2059 L1411.75 32.9987 L1396.4 32.9987 L1396.4 57.6282 Q1396.4 63.1779 1397.9 64.7578 Q1399.44 66.3376 1404.09 66.3376 L1411.75 66.3376 L1411.75 72.576 L1404.09 72.576 Q1395.47 72.576 1392.18 69.3758 Q1388.9 66.1351 1388.9 57.6282 L1388.9 32.9987 L1383.43 32.9987 L1383.43 27.2059 L1388.9 27.2059 L1388.9 14.324 L1396.4 14.324 Z" fill="#000000" fill-rule="nonzero" fill-opacity="1" /><path clip-path="url(#clip800)" d="M1460.36 48.0275 L1460.36 51.6733 L1426.09 51.6733 Q1426.58 59.3701 1430.71 63.421 Q1434.88 67.4314 1442.29 67.4314 Q1446.59 67.4314 1450.6 66.3781 Q1454.65 65.3249 1458.62 63.2184 L1458.62 70.267 Q1454.61 71.9684 1450.4 72.8596 Q1446.18 73.7508 1441.85 73.7508 Q1430.99 73.7508 1424.63 67.4314 Q1418.31 61.1119 1418.31 50.3365 Q1418.31 39.1965 1424.31 32.6746 Q1430.34 26.1121 1440.55 26.1121 Q1449.71 26.1121 1455.01 32.0264 Q1460.36 37.9003 1460.36 48.0275 M1452.91 45.84 Q1452.83 39.7232 1449.46 36.0774 Q1446.14 32.4315 1440.63 32.4315 Q1434.39 32.4315 1430.63 35.9558 Q1426.9 39.4801 1426.33 45.8805 L1452.91 45.84 Z" fill="#000000" fill-rule="nonzero" fill-opacity="1" /><path clip-path="url(#clip800)" d="M1498.88 34.1734 Q1497.63 33.4443 1496.13 33.1202 Q1494.67 32.7556 1492.89 32.7556 Q1486.57 32.7556 1483.17 36.8875 Q1479.81 40.9789 1479.81 48.6757 L1479.81 72.576 L1472.31 72.576 L1472.31 27.2059 L1479.81 27.2059 L1479.81 34.2544 Q1482.15 30.1225 1485.92 28.1376 Q1489.69 26.1121 1495.08 26.1121 Q1495.85 26.1121 1496.78 26.2337 Q1497.71 26.3147 1498.84 26.5172 L1498.88 34.1734 Z" fill="#000000" fill-rule="nonzero" fill-opacity="1" /><path clip-path="url(#clip800)" d="M1513.91 65.7705 L1513.91 89.8329 L1506.42 89.8329 L1506.42 27.2059 L1513.91 27.2059 L1513.91 34.0924 Q1516.26 30.0415 1519.83 28.0971 Q1523.43 26.1121 1528.42 26.1121 Q1536.68 26.1121 1541.82 32.6746 Q1547.01 39.2371 1547.01 49.9314 Q1547.01 60.6258 1541.82 67.1883 Q1536.68 73.7508 1528.42 73.7508 Q1523.43 73.7508 1519.83 71.8063 Q1516.26 69.8214 1513.91 65.7705 M1539.27 49.9314 Q1539.27 41.7081 1535.87 37.0496 Q1532.51 32.3505 1526.59 32.3505 Q1520.68 32.3505 1517.28 37.0496 Q1513.91 41.7081 1513.91 49.9314 Q1513.91 58.1548 1517.28 62.8538 Q1520.68 67.5124 1526.59 67.5124 Q1532.51 67.5124 1535.87 62.8538 Q1539.27 58.1548 1539.27 49.9314 Z" fill="#000000" fill-rule="nonzero" fill-opacity="1" /><path clip-path="url(#clip800)" d="M1576.95 32.4315 Q1570.95 32.4315 1567.47 37.1306 Q1563.98 41.7891 1563.98 49.9314 Q1563.98 58.0738 1567.43 62.7728 Q1570.91 67.4314 1576.95 67.4314 Q1582.9 67.4314 1586.38 62.7323 Q1589.87 58.0333 1589.87 49.9314 Q1589.87 41.8701 1586.38 37.1711 Q1582.9 32.4315 1576.95 32.4315 M1576.95 26.1121 Q1586.67 26.1121 1592.22 32.4315 Q1597.77 38.7509 1597.77 49.9314 Q1597.77 61.0714 1592.22 67.4314 Q1586.67 73.7508 1576.95 73.7508 Q1567.18 73.7508 1561.63 67.4314 Q1556.12 61.0714 1556.12 49.9314 Q1556.12 38.7509 1561.63 32.4315 Q1567.18 26.1121 1576.95 26.1121 Z" fill="#000000" fill-rule="nonzero" fill-opacity="1" /><path clip-path="url(#clip800)" d="M1610.12 9.54393 L1617.58 9.54393 L1617.58 72.576 L1610.12 72.576 L1610.12 9.54393 Z" fill="#000000" fill-rule="nonzero" fill-opacity="1" /><path clip-path="url(#clip800)" d="M1653.79 49.7694 Q1644.76 49.7694 1641.27 51.8354 Q1637.79 53.9013 1637.79 58.8839 Q1637.79 62.8538 1640.38 65.2034 Q1643.02 67.5124 1647.51 67.5124 Q1653.71 67.5124 1657.44 63.1374 Q1661.2 58.7219 1661.2 51.4303 L1661.2 49.7694 L1653.79 49.7694 M1668.66 46.6907 L1668.66 72.576 L1661.2 72.576 L1661.2 65.6895 Q1658.65 69.8214 1654.84 71.8063 Q1651.04 73.7508 1645.53 73.7508 Q1638.56 73.7508 1634.43 69.8619 Q1630.34 65.9325 1630.34 59.3701 Q1630.34 51.7138 1635.44 47.825 Q1640.59 43.9361 1650.75 43.9361 L1661.2 43.9361 L1661.2 43.2069 Q1661.2 38.0623 1657.8 35.2672 Q1654.44 32.4315 1648.32 32.4315 Q1644.43 32.4315 1640.75 33.3632 Q1637.06 34.295 1633.66 36.1584 L1633.66 29.2718 Q1637.75 27.692 1641.6 26.9223 Q1645.45 26.1121 1649.09 26.1121 Q1658.94 26.1121 1663.8 31.2163 Q1668.66 36.3204 1668.66 46.6907 Z" fill="#000000" fill-rule="nonzero" fill-opacity="1" /><path clip-path="url(#clip800)" d="M1691.38 14.324 L1691.38 27.2059 L1706.74 27.2059 L1706.74 32.9987 L1691.38 32.9987 L1691.38 57.6282 Q1691.38 63.1779 1692.88 64.7578 Q1694.42 66.3376 1699.08 66.3376 L1706.74 66.3376 L1706.74 72.576 L1699.08 72.576 Q1690.45 72.576 1687.17 69.3758 Q1683.89 66.1351 1683.89 57.6282 L1683.89 32.9987 L1678.42 32.9987 L1678.42 27.2059 L1683.89 27.2059 L1683.89 14.324 L1691.38 14.324 Z" fill="#000000" fill-rule="nonzero" fill-opacity="1" /><path clip-path="url(#clip800)" d="M1755.35 48.0275 L1755.35 51.6733 L1721.08 51.6733 Q1721.56 59.3701 1725.7 63.421 Q1729.87 67.4314 1737.28 67.4314 Q1741.57 67.4314 1745.58 66.3781 Q1749.64 65.3249 1753.61 63.2184 L1753.61 70.267 Q1749.6 71.9684 1745.38 72.8596 Q1741.17 73.7508 1736.83 73.7508 Q1725.98 73.7508 1719.62 67.4314 Q1713.3 61.1119 1713.3 50.3365 Q1713.3 39.1965 1719.29 32.6746 Q1725.33 26.1121 1735.54 26.1121 Q1744.69 26.1121 1750 32.0264 Q1755.35 37.9003 1755.35 48.0275 M1747.89 45.84 Q1747.81 39.7232 1744.45 36.0774 Q1741.13 32.4315 1735.62 32.4315 Q1729.38 32.4315 1725.61 35.9558 Q1721.89 39.4801 1721.32 45.8805 L1747.89 45.84 Z" fill="#000000" fill-rule="nonzero" fill-opacity="1" /><path clip-path="url(#clip800)" d="M1797.44 34.0924 L1797.44 9.54393 L1804.89 9.54393 L1804.89 72.576 L1797.44 72.576 L1797.44 65.7705 Q1795.09 69.8214 1791.48 71.8063 Q1787.92 73.7508 1782.89 73.7508 Q1774.67 73.7508 1769.49 67.1883 Q1764.34 60.6258 1764.34 49.9314 Q1764.34 39.2371 1769.49 32.6746 Q1774.67 26.1121 1782.89 26.1121 Q1787.92 26.1121 1791.48 28.0971 Q1795.09 30.0415 1797.44 34.0924 M1772.04 49.9314 Q1772.04 58.1548 1775.4 62.8538 Q1778.8 67.5124 1784.72 67.5124 Q1790.63 67.5124 1794.03 62.8538 Q1797.44 58.1548 1797.44 49.9314 Q1797.44 41.7081 1794.03 37.0496 Q1790.63 32.3505 1784.72 32.3505 Q1778.8 32.3505 1775.4 37.0496 Q1772.04 41.7081 1772.04 49.9314 Z" fill="#000000" fill-rule="nonzero" fill-opacity="1" /><path clip-path="url(#clip800)" d="M1869.58 9.54393 L1869.58 15.7418 L1862.45 15.7418 Q1858.44 15.7418 1856.86 17.3622 Q1855.32 18.9825 1855.32 23.1955 L1855.32 27.2059 L1867.6 27.2059 L1867.6 32.9987 L1855.32 32.9987 L1855.32 72.576 L1847.83 72.576 L1847.83 32.9987 L1840.7 32.9987 L1840.7 27.2059 L1847.83 27.2059 L1847.83 24.0462 Q1847.83 16.471 1851.35 13.0277 Q1854.88 9.54393 1862.53 9.54393 L1869.58 9.54393 Z" fill="#000000" fill-rule="nonzero" fill-opacity="1" /><path clip-path="url(#clip800)" d="M1902.11 34.1734 Q1900.86 33.4443 1899.36 33.1202 Q1897.9 32.7556 1896.12 32.7556 Q1889.8 32.7556 1886.39 36.8875 Q1883.03 40.9789 1883.03 48.6757 L1883.03 72.576 L1875.54 72.576 L1875.54 27.2059 L1883.03 27.2059 L1883.03 34.2544 Q1885.38 30.1225 1889.15 28.1376 Q1892.92 26.1121 1898.3 26.1121 Q1899.07 26.1121 1900.01 26.2337 Q1900.94 26.3147 1902.07 26.5172 L1902.11 34.1734 Z" fill="#000000" fill-rule="nonzero" fill-opacity="1" /><path clip-path="url(#clip800)" d="M1925.69 32.4315 Q1919.69 32.4315 1916.21 37.1306 Q1912.73 41.7891 1912.73 49.9314 Q1912.73 58.0738 1916.17 62.7728 Q1919.65 67.4314 1925.69 67.4314 Q1931.64 67.4314 1935.13 62.7323 Q1938.61 58.0333 1938.61 49.9314 Q1938.61 41.8701 1935.13 37.1711 Q1931.64 32.4315 1925.69 32.4315 M1925.69 26.1121 Q1935.41 26.1121 1940.96 32.4315 Q1946.51 38.7509 1946.51 49.9314 Q1946.51 61.0714 1940.96 67.4314 Q1935.41 73.7508 1925.69 73.7508 Q1915.93 73.7508 1910.38 67.4314 Q1904.87 61.0714 1904.87 49.9314 Q1904.87 38.7509 1910.38 32.4315 Q1915.93 26.1121 1925.69 26.1121 Z" fill="#000000" fill-rule="nonzero" fill-opacity="1" /><path clip-path="url(#clip800)" d="M1994.19 35.9153 Q1996.98 30.8922 2000.87 28.5022 Q2004.76 26.1121 2010.03 26.1121 Q2017.12 26.1121 2020.97 31.0947 Q2024.81 36.0368 2024.81 45.1919 L2024.81 72.576 L2017.32 72.576 L2017.32 45.4349 Q2017.32 38.913 2015.01 35.7533 Q2012.7 32.5936 2007.96 32.5936 Q2002.17 32.5936 1998.81 36.4419 Q1995.44 40.2903 1995.44 46.9338 L1995.44 72.576 L1987.95 72.576 L1987.95 45.4349 Q1987.95 38.8725 1985.64 35.7533 Q1983.33 32.5936 1978.51 32.5936 Q1972.8 32.5936 1969.44 36.4824 Q1966.08 40.3308 1966.08 46.9338 L1966.08 72.576 L1958.58 72.576 L1958.58 27.2059 L1966.08 27.2059 L1966.08 34.2544 Q1968.63 30.082 1972.19 28.0971 Q1975.76 26.1121 1980.66 26.1121 Q1985.6 26.1121 1989.04 28.6237 Q1992.53 31.1352 1994.19 35.9153 Z" fill="#000000" fill-rule="nonzero" fill-opacity="1" /><path clip-path="url(#clip800)" d="M2057.99 12.096 L2109.15 12.096 L2109.15 18.9825 L2087.68 18.9825 L2087.68 72.576 L2079.46 72.576 L2079.46 18.9825 L2057.99 18.9825 L2057.99 12.096 Z" fill="#000000" fill-rule="nonzero" fill-opacity="1" /><path clip-path="url(#clip800)" d="M2123.62 49.7694 Q2114.58 49.7694 2111.1 51.8354 Q2107.61 53.9013 2107.61 58.8839 Q2107.61 62.8538 2110.21 65.2034 Q2112.84 67.5124 2117.34 67.5124 Q2123.53 67.5124 2127.26 63.1374 Q2131.03 58.7219 2131.03 51.4303 L2131.03 49.7694 L2123.62 49.7694 M2138.48 46.6907 L2138.48 72.576 L2131.03 72.576 L2131.03 65.6895 Q2128.48 69.8214 2124.67 71.8063 Q2120.86 73.7508 2115.35 73.7508 Q2108.38 73.7508 2104.25 69.8619 Q2100.16 65.9325 2100.16 59.3701 Q2100.16 51.7138 2105.26 47.825 Q2110.41 43.9361 2120.58 43.9361 L2131.03 43.9361 L2131.03 43.2069 Q2131.03 38.0623 2127.63 35.2672 Q2124.26 32.4315 2118.15 32.4315 Q2114.26 32.4315 2110.57 33.3632 Q2106.89 34.295 2103.48 36.1584 L2103.48 29.2718 Q2107.57 27.692 2111.42 26.9223 Q2115.27 26.1121 2118.92 26.1121 Q2128.76 26.1121 2133.62 31.2163 Q2138.48 36.3204 2138.48 46.6907 Z" fill="#000000" fill-rule="nonzero" fill-opacity="1" /><path clip-path="url(#clip800)" d="M2186.4 49.9314 Q2186.4 41.7081 2183 37.0496 Q2179.64 32.3505 2173.73 32.3505 Q2167.81 32.3505 2164.41 37.0496 Q2161.05 41.7081 2161.05 49.9314 Q2161.05 58.1548 2164.41 62.8538 Q2167.81 67.5124 2173.73 67.5124 Q2179.64 67.5124 2183 62.8538 Q2186.4 58.1548 2186.4 49.9314 M2161.05 34.0924 Q2163.4 30.0415 2166.96 28.0971 Q2170.57 26.1121 2175.55 26.1121 Q2183.81 26.1121 2188.96 32.6746 Q2194.14 39.2371 2194.14 49.9314 Q2194.14 60.6258 2188.96 67.1883 Q2183.81 73.7508 2175.55 73.7508 Q2170.57 73.7508 2166.96 71.8063 Q2163.4 69.8214 2161.05 65.7705 L2161.05 72.576 L2153.55 72.576 L2153.55 9.54393 L2161.05 9.54393 L2161.05 34.0924 Z" fill="#000000" fill-rule="nonzero" fill-opacity="1" /><path clip-path="url(#clip800)" d="M2206.5 9.54393 L2213.95 9.54393 L2213.95 72.576 L2206.5 72.576 L2206.5 9.54393 Z" fill="#000000" fill-rule="nonzero" fill-opacity="1" /><path clip-path="url(#clip800)" d="M2268.35 48.0275 L2268.35 51.6733 L2234.08 51.6733 Q2234.57 59.3701 2238.7 63.421 Q2242.87 67.4314 2250.29 67.4314 Q2254.58 67.4314 2258.59 66.3781 Q2262.64 65.3249 2266.61 63.2184 L2266.61 70.267 Q2262.6 71.9684 2258.39 72.8596 Q2254.18 73.7508 2249.84 73.7508 Q2238.99 73.7508 2232.63 67.4314 Q2226.31 61.1119 2226.31 50.3365 Q2226.31 39.1965 2232.3 32.6746 Q2238.34 26.1121 2248.55 26.1121 Q2257.7 26.1121 2263.01 32.0264 Q2268.35 37.9003 2268.35 48.0275 M2260.9 45.84 Q2260.82 39.7232 2257.46 36.0774 Q2254.14 32.4315 2248.63 32.4315 Q2242.39 32.4315 2238.62 35.9558 Q2234.89 39.4801 2234.33 45.8805 L2260.9 45.84 Z" fill="#000000" fill-rule="nonzero" fill-opacity="1" /><path clip-path="url(#clip800)" d="M2315.06 65.6895 L2343.62 65.6895 L2343.62 72.576 L2305.22 72.576 L2305.22 65.6895 Q2309.88 60.8689 2317.9 52.7671 Q2325.96 44.6248 2328.02 42.2752 Q2331.95 37.8598 2333.49 34.8216 Q2335.07 31.7429 2335.07 28.7857 Q2335.07 23.9651 2331.67 20.927 Q2328.31 17.8888 2322.88 17.8888 Q2319.03 17.8888 2314.74 19.2256 Q2310.48 20.5624 2305.62 23.2765 L2305.62 15.0127 Q2310.56 13.0277 2314.86 12.015 Q2319.15 11.0023 2322.72 11.0023 Q2332.12 11.0023 2337.71 15.7013 Q2343.3 20.4004 2343.3 28.2591 Q2343.3 31.9859 2341.88 35.3482 Q2340.5 38.6699 2336.81 43.2069 Q2335.8 44.3817 2330.37 50.0125 Q2324.95 55.6027 2315.06 65.6895 Z" fill="#000000" fill-rule="nonzero" fill-opacity="1" /><path clip-path="url(#clip800)" d="M2358.57 9.62495 L2365.05 9.62495 Q2371.13 19.1851 2374.12 28.3401 Q2377.16 37.4952 2377.16 46.5287 Q2377.16 55.6027 2374.12 64.7983 Q2371.13 73.9938 2365.05 83.5134 L2358.57 83.5134 Q2363.96 74.2369 2366.59 65.0818 Q2369.26 55.8863 2369.26 46.5287 Q2369.26 37.1711 2366.59 28.0566 Q2363.96 18.942 2358.57 9.62495 Z" fill="#000000" fill-rule="nonzero" fill-opacity="1" /><polyline clip-path="url(#clip801)" style="stroke:#008080; stroke-linecap:round; stroke-linejoin:round; stroke-width:8; stroke-opacity:1; fill:none" points="264.62,560.421 311.075,519.144 357.53,477.867 403.985,436.59 450.44,395.313 496.895,354.036 543.35,366.194 589.805,378.352 636.261,390.51 682.716,402.668 729.171,414.826 775.626,319.514 822.081,224.202 868.536,128.89 914.991,186.302 961.446,243.715 1007.9,654.232 1054.36,766.805 1100.81,879.379 1147.27,905.364 1193.72,931.35 1240.18,957.805 1286.63,984.26 1333.09,1010.71 1379.54,1016.97 1426,1023.22 1472.45,1029.48 1518.91,1029.48 1565.36,1029.48 1611.82,1029.48 1658.27,1029.48 1704.73,1029.48 1751.18,1029.48 1797.64,1029.48 1844.09,1029.48 1890.55,1029.48 1937,1029.48 1983.46,1029.48 2029.91,1029.48 2076.37,1029.48 2122.82,1015.4 2169.28,1001.33 2215.73,987.262 2262.19,973.19 2308.64,945.922 2355.1,918.654 2401.56,891.387 2448.01,836.226 2494.47,781.065 2540.92,725.904 2587.38,670.743 2633.83,615.582 2680.29,560.421 "/>
<circle clip-path="url(#clip801)" cx="729.171" cy="414.826" r="18" fill="#000000" fill-rule="evenodd" fill-opacity="1" stroke="none"/>
<circle clip-path="url(#clip801)" cx="961.446" cy="243.715" r="18" fill="#000000" fill-rule="evenodd" fill-opacity="1" stroke="none"/>
<circle clip-path="url(#clip801)" cx="1193.72" cy="931.35" r="18" fill="#000000" fill-rule="evenodd" fill-opacity="1" stroke="none"/>
<circle clip-path="url(#clip801)" cx="2076.37" cy="1029.48" r="18" fill="#000000" fill-rule="evenodd" fill-opacity="1" stroke="none"/>
<circle clip-path="url(#clip801)" cx="2401.56" cy="891.387" r="18" fill="#000000" fill-rule="evenodd" fill-opacity="1" stroke="none"/>
<circle clip-path="url(#clip801)" cx="2680.29" cy="560.421" r="18" fill="#000000" fill-rule="evenodd" fill-opacity="1" stroke="none"/>
<path clip-path="url(#clip800)" d="M2125.83 237.373 L2667.4 237.373 L2667.4 133.693 L2125.83 133.693  Z" fill="#ffffff" fill-rule="evenodd" fill-opacity="1"/>
<polyline clip-path="url(#clip800)" style="stroke:#000000; stroke-linecap:round; stroke-linejoin:round; stroke-width:4; stroke-opacity:1; fill:none" points="2125.83,237.373 2667.4,237.373 2667.4,133.693 2125.83,133.693 2125.83,237.373 "/>
<circle clip-path="url(#clip800)" cx="2239.64" cy="185.533" r="20.9455" fill="#000000" fill-rule="evenodd" fill-opacity="1" stroke="none"/>
<path clip-path="url(#clip800)" d="M2353.44 168.253 L2382.68 168.253 L2382.68 172.188 L2370.41 172.188 L2370.41 202.813 L2365.71 202.813 L2365.71 172.188 L2353.44 172.188 L2353.44 168.253 Z" fill="#000000" fill-rule="nonzero" fill-opacity="1" /><path clip-path="url(#clip800)" d="M2390.94 189.781 Q2385.78 189.781 2383.79 190.961 Q2381.8 192.142 2381.8 194.989 Q2381.8 197.257 2383.28 198.6 Q2384.79 199.919 2387.36 199.919 Q2390.9 199.919 2393.03 197.419 Q2395.18 194.896 2395.18 190.73 L2395.18 189.781 L2390.94 189.781 M2399.44 188.021 L2399.44 202.813 L2395.18 202.813 L2395.18 198.878 Q2393.72 201.239 2391.55 202.373 Q2389.37 203.484 2386.22 203.484 Q2382.24 203.484 2379.88 201.262 Q2377.54 199.017 2377.54 195.267 Q2377.54 190.892 2380.46 188.669 Q2383.4 186.447 2389.21 186.447 L2395.18 186.447 L2395.18 186.031 Q2395.18 183.091 2393.23 181.494 Q2391.31 179.873 2387.82 179.873 Q2385.6 179.873 2383.49 180.406 Q2381.38 180.938 2379.44 182.003 L2379.44 178.068 Q2381.78 177.165 2383.98 176.725 Q2386.17 176.262 2388.26 176.262 Q2393.88 176.262 2396.66 179.179 Q2399.44 182.095 2399.44 188.021 Z" fill="#000000" fill-rule="nonzero" fill-opacity="1" /><path clip-path="url(#clip800)" d="M2426.82 189.873 Q2426.82 185.174 2424.88 182.512 Q2422.96 179.827 2419.58 179.827 Q2416.2 179.827 2414.25 182.512 Q2412.33 185.174 2412.33 189.873 Q2412.33 194.572 2414.25 197.257 Q2416.2 199.919 2419.58 199.919 Q2422.96 199.919 2424.88 197.257 Q2426.82 194.572 2426.82 189.873 M2412.33 180.822 Q2413.67 178.507 2415.71 177.396 Q2417.77 176.262 2420.62 176.262 Q2425.34 176.262 2428.28 180.012 Q2431.24 183.762 2431.24 189.873 Q2431.24 195.984 2428.28 199.734 Q2425.34 203.484 2420.62 203.484 Q2417.77 203.484 2415.71 202.373 Q2413.67 201.239 2412.33 198.924 L2412.33 202.813 L2408.05 202.813 L2408.05 166.795 L2412.33 166.795 L2412.33 180.822 Z" fill="#000000" fill-rule="nonzero" fill-opacity="1" /><path clip-path="url(#clip800)" d="M2438.3 166.795 L2442.56 166.795 L2442.56 202.813 L2438.3 202.813 L2438.3 166.795 Z" fill="#000000" fill-rule="nonzero" fill-opacity="1" /><path clip-path="url(#clip800)" d="M2473.65 188.785 L2473.65 190.868 L2454.07 190.868 Q2454.35 195.267 2456.71 197.581 Q2459.09 199.873 2463.33 199.873 Q2465.78 199.873 2468.07 199.271 Q2470.39 198.669 2472.66 197.466 L2472.66 201.493 Q2470.36 202.466 2467.96 202.975 Q2465.55 203.484 2463.07 203.484 Q2456.87 203.484 2453.23 199.873 Q2449.62 196.262 2449.62 190.105 Q2449.62 183.739 2453.05 180.012 Q2456.5 176.262 2462.33 176.262 Q2467.56 176.262 2470.6 179.642 Q2473.65 182.998 2473.65 188.785 M2469.39 187.535 Q2469.35 184.04 2467.42 181.956 Q2465.53 179.873 2462.38 179.873 Q2458.81 179.873 2456.66 181.887 Q2454.53 183.901 2454.21 187.558 L2469.39 187.535 Z" fill="#000000" fill-rule="nonzero" fill-opacity="1" /><path clip-path="url(#clip800)" d="M2500.34 198.878 L2516.66 198.878 L2516.66 202.813 L2494.72 202.813 L2494.72 198.878 Q2497.38 196.123 2501.96 191.493 Q2506.57 186.841 2507.75 185.498 Q2509.99 182.975 2510.87 181.239 Q2511.78 179.48 2511.78 177.79 Q2511.78 175.035 2509.83 173.299 Q2507.91 171.563 2504.81 171.563 Q2502.61 171.563 2500.16 172.327 Q2497.73 173.091 2494.95 174.642 L2494.95 169.92 Q2497.77 168.785 2500.23 168.207 Q2502.68 167.628 2504.72 167.628 Q2510.09 167.628 2513.28 170.313 Q2516.47 172.998 2516.47 177.489 Q2516.47 179.619 2515.66 181.54 Q2514.88 183.438 2512.77 186.031 Q2512.19 186.702 2509.09 189.919 Q2505.99 193.114 2500.34 198.878 Z" fill="#000000" fill-rule="nonzero" fill-opacity="1" /><path clip-path="url(#clip800)" d="M2558 180.822 L2558 166.795 L2562.26 166.795 L2562.26 202.813 L2558 202.813 L2558 198.924 Q2556.66 201.239 2554.6 202.373 Q2552.56 203.484 2549.69 203.484 Q2544.99 203.484 2542.03 199.734 Q2539.09 195.984 2539.09 189.873 Q2539.09 183.762 2542.03 180.012 Q2544.99 176.262 2549.69 176.262 Q2552.56 176.262 2554.6 177.396 Q2556.66 178.507 2558 180.822 M2543.49 189.873 Q2543.49 194.572 2545.41 197.257 Q2547.35 199.919 2550.73 199.919 Q2554.11 199.919 2556.06 197.257 Q2558 194.572 2558 189.873 Q2558 185.174 2556.06 182.512 Q2554.11 179.827 2550.73 179.827 Q2547.35 179.827 2545.41 182.512 Q2543.49 185.174 2543.49 189.873 Z" fill="#000000" fill-rule="nonzero" fill-opacity="1" /><path clip-path="url(#clip800)" d="M2582.82 189.781 Q2577.66 189.781 2575.66 190.961 Q2573.67 192.142 2573.67 194.989 Q2573.67 197.257 2575.16 198.6 Q2576.66 199.919 2579.23 199.919 Q2582.77 199.919 2584.9 197.419 Q2587.05 194.896 2587.05 190.73 L2587.05 189.781 L2582.82 189.781 M2591.31 188.021 L2591.31 202.813 L2587.05 202.813 L2587.05 198.878 Q2585.59 201.239 2583.42 202.373 Q2581.24 203.484 2578.1 203.484 Q2574.11 203.484 2571.75 201.262 Q2569.41 199.017 2569.41 195.267 Q2569.41 190.892 2572.33 188.669 Q2575.27 186.447 2581.08 186.447 L2587.05 186.447 L2587.05 186.031 Q2587.05 183.091 2585.11 181.494 Q2583.19 179.873 2579.69 179.873 Q2577.47 179.873 2575.36 180.406 Q2573.26 180.938 2571.31 182.003 L2571.31 178.068 Q2573.65 177.165 2575.85 176.725 Q2578.05 176.262 2580.13 176.262 Q2585.76 176.262 2588.53 179.179 Q2591.31 182.095 2591.31 188.021 Z" fill="#000000" fill-rule="nonzero" fill-opacity="1" /><path clip-path="url(#clip800)" d="M2604.3 169.526 L2604.3 176.887 L2613.07 176.887 L2613.07 180.197 L2604.3 180.197 L2604.3 194.271 Q2604.3 197.443 2605.16 198.345 Q2606.03 199.248 2608.7 199.248 L2613.07 199.248 L2613.07 202.813 L2608.7 202.813 Q2603.77 202.813 2601.89 200.984 Q2600.02 199.132 2600.02 194.271 L2600.02 180.197 L2596.89 180.197 L2596.89 176.887 L2600.02 176.887 L2600.02 169.526 L2604.3 169.526 Z" fill="#000000" fill-rule="nonzero" fill-opacity="1" /><path clip-path="url(#clip800)" d="M2630.46 189.781 Q2625.29 189.781 2623.3 190.961 Q2621.31 192.142 2621.31 194.989 Q2621.31 197.257 2622.79 198.6 Q2624.3 199.919 2626.87 199.919 Q2630.41 199.919 2632.54 197.419 Q2634.69 194.896 2634.69 190.73 L2634.69 189.781 L2630.46 189.781 M2638.95 188.021 L2638.95 202.813 L2634.69 202.813 L2634.69 198.878 Q2633.23 201.239 2631.06 202.373 Q2628.88 203.484 2625.73 203.484 Q2621.75 203.484 2619.39 201.262 Q2617.05 199.017 2617.05 195.267 Q2617.05 190.892 2619.97 188.669 Q2622.91 186.447 2628.72 186.447 L2634.69 186.447 L2634.69 186.031 Q2634.69 183.091 2632.75 181.494 Q2630.83 179.873 2627.33 179.873 Q2625.11 179.873 2623 180.406 Q2620.9 180.938 2618.95 182.003 L2618.95 178.068 Q2621.29 177.165 2623.49 176.725 Q2625.69 176.262 2627.77 176.262 Q2633.4 176.262 2636.17 179.179 Q2638.95 182.095 2638.95 188.021 Z" fill="#000000" fill-rule="nonzero" fill-opacity="1" /></svg>
