<?xml version="1.0" encoding="utf-8"?>
<svg xmlns="http://www.w3.org/2000/svg" xmlns:xlink="http://www.w3.org/1999/xlink" width="700" height="420" viewBox="0 0 2800 1680">
<defs>
  <clipPath id="clip830">
    <rect x="0" y="0" width="2800" height="1680"/>
  </clipPath>
</defs>
<path clip-path="url(#clip830)" d="M0 1680 L2800 1680 L2800 6.21725e-14 L0 6.21725e-14  Z" fill="#ffffff" fill-rule="evenodd" fill-opacity="1"/>
<defs>
  <clipPath id="clip831">
    <rect x="337" y="117" width="2416" height="1394"/>
  </clipPath>
</defs>
<path clip-path="url(#clip830)" d="M337.718 1510.59 L2752.76 1510.59 L2752.76 117.424 L337.718 117.424  Z" fill="#ffffff" fill-rule="evenodd" fill-opacity="1"/>
<polyline clip-path="url(#clip831)" style="stroke:#000000; stroke-linecap:round; stroke-linejoin:round; stroke-width:2; stroke-opacity:0.1; fill:none" points="406.068,1510.59 406.068,117.424 "/>
<polyline clip-path="url(#clip831)" style="stroke:#000000; stroke-linecap:round; stroke-linejoin:round; stroke-width:2; stroke-opacity:0.1; fill:none" points="844.21,1510.59 844.21,117.424 "/>
<polyline clip-path="url(#clip831)" style="stroke:#000000; stroke-linecap:round; stroke-linejoin:round; stroke-width:2; stroke-opacity:0.1; fill:none" points="1282.35,1510.59 1282.35,117.424 "/>
<polyline clip-path="url(#clip831)" style="stroke:#000000; stroke-linecap:round; stroke-linejoin:round; stroke-width:2; stroke-opacity:0.1; fill:none" points="1720.49,1510.59 1720.49,117.424 "/>
<polyline clip-path="url(#clip831)" style="stroke:#000000; stroke-linecap:round; stroke-linejoin:round; stroke-width:2; stroke-opacity:0.1; fill:none" points="2158.64,1510.59 2158.64,117.424 "/>
<polyline clip-path="url(#clip831)" style="stroke:#000000; stroke-linecap:round; stroke-linejoin:round; stroke-width:2; stroke-opacity:0.1; fill:none" points="2596.78,1510.59 2596.78,117.424 "/>
<polyline clip-path="url(#clip831)" style="stroke:#000000; stroke-linecap:round; stroke-linejoin:round; stroke-width:2; stroke-opacity:0.1; fill:none" points="337.718,1471.17 2752.76,1471.17 "/>
<polyline clip-path="url(#clip831)" style="stroke:#000000; stroke-linecap:round; stroke-linejoin:round; stroke-width:2; stroke-opacity:0.1; fill:none" points="337.718,1024.28 2752.76,1024.28 "/>
<polyline clip-path="url(#clip831)" style="stroke:#000000; stroke-linecap:round; stroke-linejoin:round; stroke-width:2; stroke-opacity:0.1; fill:none" points="337.718,577.398 2752.76,577.398 "/>
<polyline clip-path="url(#clip831)" style="stroke:#000000; stroke-linecap:round; stroke-linejoin:round; stroke-width:2; stroke-opacity:0.1; fill:none" points="337.718,130.513 2752.76,130.513 "/>
<polyline clip-path="url(#clip830)" style="stroke:#000000; stroke-linecap:round; stroke-linejoin:round; stroke-width:4; stroke-opacity:1; fill:none" points="337.718,1510.59 2752.76,1510.59 "/>
<polyline clip-path="url(#clip830)" style="stroke:#000000; stroke-linecap:round; stroke-linejoin:round; stroke-width:4; stroke-opacity:1; fill:none" points="406.068,1510.59 406.068,1491.69 "/>
<polyline clip-path="url(#clip830)" style="stroke:#000000; stroke-linecap:round; stroke-linejoin:round; stroke-width:4; stroke-opacity:1; fill:none" points="844.21,1510.59 844.21,1491.69 "/>
<polyline clip-path="url(#clip830)" style="stroke:#000000; stroke-linecap:round; stroke-linejoin:round; stroke-width:4; stroke-opacity:1; fill:none" points="1282.35,1510.59 1282.35,1491.69 "/>
<polyline clip-path="url(#clip830)" style="stroke:#000000; stroke-linecap:round; stroke-linejoin:round; stroke-width:4; stroke-opacity:1; fill:none" points="1720.49,1510.59 1720.49,1491.69 "/>
<polyline clip-path="url(#clip830)" style="stroke:#000000; stroke-linecap:round; stroke-linejoin:round; stroke-width:4; stroke-opacity:1; fill:none" points="2158.64,1510.59 2158.64,1491.69 "/>
<polyline clip-path="url(#clip830)" style="stroke:#000000; stroke-linecap:round; stroke-linejoin:round; stroke-width:4; stroke-opacity:1; fill:none" points="2596.78,1510.59 2596.78,1491.69 "/>
<path clip-path="url(#clip830)" d="M406.068 1544.71 Q402.457 1544.71 400.628 1548.27 Q398.822 1551.81 398.822 1558.94 Q398.822 1566.05 400.628 1569.61 Q402.457 1573.16 406.068 1573.16 Q409.702 1573.16 411.507 1569.61 Q413.336 1566.05 413.336 1558.94 Q413.336 1551.81 411.507 1548.27 Q409.702 1544.71 406.068 1544.71 M406.068 1541 Q411.878 1541 414.933 1545.61 Q418.012 1550.19 418.012 1558.94 Q418.012 1567.67 414.933 1572.28 Q411.878 1576.86 406.068 1576.86 Q400.257 1576.86 397.179 1572.28 Q394.123 1567.67 394.123 1558.94 Q394.123 1550.19 397.179 1545.61 Q400.257 1541 406.068 1541 Z" fill="#000000" fill-rule="nonzero" fill-opacity="1" /><path clip-path="url(#clip830)" d="M818.897 1572.25 L826.536 1572.25 L826.536 1545.89 L818.226 1547.55 L818.226 1543.29 L826.49 1541.63 L831.166 1541.63 L831.166 1572.25 L838.805 1572.25 L838.805 1576.19 L818.897 1576.19 L818.897 1572.25 Z" fill="#000000" fill-rule="nonzero" fill-opacity="1" /><path clip-path="url(#clip830)" d="M858.249 1544.71 Q854.638 1544.71 852.809 1548.27 Q851.004 1551.81 851.004 1558.94 Q851.004 1566.05 852.809 1569.61 Q854.638 1573.16 858.249 1573.16 Q861.883 1573.16 863.689 1569.61 Q865.517 1566.05 865.517 1558.94 Q865.517 1551.81 863.689 1548.27 Q861.883 1544.71 858.249 1544.71 M858.249 1541 Q864.059 1541 867.115 1545.61 Q870.193 1550.19 870.193 1558.94 Q870.193 1567.67 867.115 1572.28 Q864.059 1576.86 858.249 1576.86 Q852.439 1576.86 849.36 1572.28 Q846.304 1567.67 846.304 1558.94 Q846.304 1550.19 849.36 1545.61 Q852.439 1541 858.249 1541 Z" fill="#000000" fill-rule="nonzero" fill-opacity="1" /><path clip-path="url(#clip830)" d="M1261.12 1572.25 L1277.44 1572.25 L1277.44 1576.19 L1255.5 1576.19 L1255.5 1572.25 Q1258.16 1569.5 1262.75 1564.87 Q1267.35 1560.22 1268.53 1558.87 Q1270.78 1556.35 1271.66 1554.61 Q1272.56 1552.85 1272.56 1551.16 Q1272.56 1548.41 1270.62 1546.67 Q1268.69 1544.94 1265.59 1544.94 Q1263.39 1544.94 1260.94 1545.7 Q1258.51 1546.47 1255.73 1548.02 L1255.73 1543.29 Q1258.56 1542.16 1261.01 1541.58 Q1263.46 1541 1265.5 1541 Q1270.87 1541 1274.06 1543.69 Q1277.26 1546.37 1277.26 1550.86 Q1277.26 1552.99 1276.45 1554.91 Q1275.66 1556.81 1273.56 1559.41 Q1272.98 1560.08 1269.87 1563.29 Q1266.77 1566.49 1261.12 1572.25 Z" fill="#000000" fill-rule="nonzero" fill-opacity="1" /><path clip-path="url(#clip830)" d="M1297.26 1544.71 Q1293.65 1544.71 1291.82 1548.27 Q1290.01 1551.81 1290.01 1558.94 Q1290.01 1566.05 1291.82 1569.61 Q1293.65 1573.16 1297.26 1573.16 Q1300.89 1573.16 1302.7 1569.61 Q1304.53 1566.05 1304.53 1558.94 Q1304.53 1551.81 1302.7 1548.27 Q1300.89 1544.71 1297.26 1544.71 M1297.26 1541 Q1303.07 1541 1306.12 1545.61 Q1309.2 1550.19 1309.2 1558.94 Q1309.2 1567.67 1306.12 1572.28 Q1303.07 1576.86 1297.26 1576.86 Q1291.45 1576.86 1288.37 1572.28 Q1285.31 1567.67 1285.31 1558.94 Q1285.31 1550.19 1288.37 1545.61 Q1291.45 1541 1297.26 1541 Z" fill="#000000" fill-rule="nonzero" fill-opacity="1" /><path clip-path="url(#clip830)" d="M1709.34 1557.55 Q1712.69 1558.27 1714.57 1560.54 Q1716.47 1562.81 1716.47 1566.14 Q1716.47 1571.26 1712.95 1574.06 Q1709.43 1576.86 1702.95 1576.86 Q1700.77 1576.86 1698.46 1576.42 Q1696.16 1576 1693.71 1575.15 L1693.71 1570.63 Q1695.66 1571.77 1697.97 1572.35 Q1700.29 1572.92 1702.81 1572.92 Q1707.21 1572.92 1709.5 1571.19 Q1711.81 1569.45 1711.81 1566.14 Q1711.81 1563.09 1709.66 1561.37 Q1707.53 1559.64 1703.71 1559.64 L1699.68 1559.64 L1699.68 1555.79 L1703.9 1555.79 Q1707.35 1555.79 1709.17 1554.43 Q1711 1553.04 1711 1550.45 Q1711 1547.79 1709.1 1546.37 Q1707.23 1544.94 1703.71 1544.94 Q1701.79 1544.94 1699.59 1545.35 Q1697.39 1545.77 1694.75 1546.65 L1694.75 1542.48 Q1697.41 1541.74 1699.73 1541.37 Q1702.07 1541 1704.13 1541 Q1709.45 1541 1712.55 1543.43 Q1715.66 1545.84 1715.66 1549.96 Q1715.66 1552.83 1714.01 1554.82 Q1712.37 1556.79 1709.34 1557.55 Z" fill="#000000" fill-rule="nonzero" fill-opacity="1" /><path clip-path="url(#clip830)" d="M1735.33 1544.71 Q1731.72 1544.71 1729.89 1548.27 Q1728.09 1551.81 1728.09 1558.94 Q1728.09 1566.05 1729.89 1569.61 Q1731.72 1573.16 1735.33 1573.16 Q1738.97 1573.16 1740.77 1569.61 Q1742.6 1566.05 1742.6 1558.94 Q1742.6 1551.81 1740.77 1548.27 Q1738.97 1544.71 1735.33 1544.71 M1735.33 1541 Q1741.14 1541 1744.2 1545.61 Q1747.28 1550.19 1747.28 1558.94 Q1747.28 1567.67 1744.2 1572.28 Q1741.14 1576.86 1735.33 1576.86 Q1729.52 1576.86 1726.44 1572.28 Q1723.39 1567.67 1723.39 1558.94 Q1723.39 1550.19 1726.44 1545.61 Q1729.52 1541 1735.33 1541 Z" fill="#000000" fill-rule="nonzero" fill-opacity="1" /><path clip-path="url(#clip830)" d="M2146.81 1545.7 L2135 1564.15 L2146.81 1564.15 L2146.81 1545.7 M2145.58 1541.63 L2151.46 1541.63 L2151.46 1564.15 L2156.39 1564.15 L2156.39 1568.04 L2151.46 1568.04 L2151.46 1576.19 L2146.81 1576.19 L2146.81 1568.04 L2131.21 1568.04 L2131.21 1563.53 L2145.58 1541.63 Z" fill="#000000" fill-rule="nonzero" fill-opacity="1" /><path clip-path="url(#clip830)" d="M2174.12 1544.71 Q2170.51 1544.71 2168.68 1548.27 Q2166.88 1551.81 2166.88 1558.94 Q2166.88 1566.05 2168.68 1569.61 Q2170.51 1573.16 2174.12 1573.16 Q2177.76 1573.16 2179.56 1569.61 Q2181.39 1566.05 2181.39 1558.94 Q2181.39 1551.81 2179.56 1548.27 Q2177.76 1544.71 2174.12 1544.71 M2174.12 1541 Q2179.93 1541 2182.99 1545.61 Q2186.07 1550.19 2186.07 1558.94 Q2186.07 1567.67 2182.99 1572.28 Q2179.93 1576.86 2174.12 1576.86 Q2168.31 1576.86 2165.23 1572.28 Q2162.18 1567.67 2162.18 1558.94 Q2162.18 1550.19 2165.23 1545.61 Q2168.31 1541 2174.12 1541 Z" fill="#000000" fill-rule="nonzero" fill-opacity="1" /><path clip-path="url(#clip830)" d="M2571.48 1541.63 L2589.83 1541.63 L2589.83 1545.56 L2575.76 1545.56 L2575.76 1554.04 Q2576.78 1553.69 2577.8 1553.53 Q2578.81 1553.34 2579.83 1553.34 Q2585.62 1553.34 2589 1556.51 Q2592.38 1559.68 2592.38 1565.1 Q2592.38 1570.68 2588.91 1573.78 Q2585.43 1576.86 2579.12 1576.86 Q2576.94 1576.86 2574.67 1576.49 Q2572.43 1576.12 2570.02 1575.38 L2570.02 1570.68 Q2572.1 1571.81 2574.32 1572.37 Q2576.55 1572.92 2579.02 1572.92 Q2583.03 1572.92 2585.37 1570.82 Q2587.7 1568.71 2587.7 1565.1 Q2587.7 1561.49 2585.37 1559.38 Q2583.03 1557.28 2579.02 1557.28 Q2577.15 1557.28 2575.27 1557.69 Q2573.42 1558.11 2571.48 1558.99 L2571.48 1541.63 Z" fill="#000000" fill-rule="nonzero" fill-opacity="1" /><path clip-path="url(#clip830)" d="M2611.59 1544.71 Q2607.98 1544.71 2606.15 1548.27 Q2604.35 1551.81 2604.35 1558.94 Q2604.35 1566.05 2606.15 1569.61 Q2607.98 1573.16 2611.59 1573.16 Q2615.23 1573.16 2617.03 1569.61 Q2618.86 1566.05 2618.86 1558.94 Q2618.86 1551.81 2617.03 1548.27 Q2615.23 1544.71 2611.59 1544.71 M2611.59 1541 Q2617.4 1541 2620.46 1545.61 Q2623.54 1550.19 2623.54 1558.94 Q2623.54 1567.67 2620.46 1572.28 Q2617.4 1576.86 2611.59 1576.86 Q2605.78 1576.86 2602.7 1572.28 Q2599.65 1567.67 2599.65 1558.94 Q2599.65 1550.19 2602.7 1545.61 Q2605.78 1541 2611.59 1541 Z" fill="#000000" fill-rule="nonzero" fill-opacity="1" /><path clip-path="url(#clip830)" d="M1457.12 1613.93 L1463.61 1613.93 L1473.61 1654.1 L1483.57 1613.93 L1490.79 1613.93 L1500.79 1654.1 L1510.75 1613.93 L1517.28 1613.93 L1505.34 1661.45 L1497.26 1661.45 L1487.23 1620.2 L1477.11 1661.45 L1469.02 1661.45 L1457.12 1613.93 Z" fill="#000000" fill-rule="nonzero" fill-opacity="1" /><path clip-path="url(#clip830)" d="M1552.22 1642.16 L1552.22 1645.03 L1525.3 1645.03 Q1525.68 1651.08 1528.92 1654.26 Q1532.2 1657.41 1538.03 1657.41 Q1541.4 1657.41 1544.55 1656.58 Q1547.74 1655.75 1550.85 1654.1 L1550.85 1659.64 Q1547.7 1660.97 1544.39 1661.67 Q1541.08 1662.37 1537.68 1662.37 Q1529.15 1662.37 1524.15 1657.41 Q1519.19 1652.44 1519.19 1643.98 Q1519.19 1635.23 1523.9 1630.1 Q1528.64 1624.94 1536.66 1624.94 Q1543.85 1624.94 1548.02 1629.59 Q1552.22 1634.21 1552.22 1642.16 M1546.37 1640.45 Q1546.3 1635.64 1543.66 1632.77 Q1541.05 1629.91 1536.72 1629.91 Q1531.82 1629.91 1528.86 1632.68 Q1525.93 1635.45 1525.49 1640.48 L1546.37 1640.45 Z" fill="#000000" fill-rule="nonzero" fill-opacity="1" /><path clip-path="url(#clip830)" d="M1592.33 1642.16 L1592.33 1645.03 L1565.4 1645.03 Q1565.78 1651.08 1569.03 1654.26 Q1572.31 1657.41 1578.13 1657.41 Q1581.51 1657.41 1584.66 1656.58 Q1587.84 1655.75 1590.96 1654.1 L1590.96 1659.64 Q1587.81 1660.97 1584.5 1661.67 Q1581.19 1662.37 1577.78 1662.37 Q1569.25 1662.37 1564.25 1657.41 Q1559.29 1652.44 1559.29 1643.98 Q1559.29 1635.23 1564 1630.1 Q1568.74 1624.94 1576.76 1624.94 Q1583.96 1624.94 1588.13 1629.59 Q1592.33 1634.21 1592.33 1642.16 M1586.47 1640.45 Q1586.41 1635.64 1583.77 1632.77 Q1581.16 1629.91 1576.83 1629.91 Q1571.92 1629.91 1568.96 1632.68 Q1566.04 1635.45 1565.59 1640.48 L1586.47 1640.45 Z" fill="#000000" fill-rule="nonzero" fill-opacity="1" /><path clip-path="url(#clip830)" d="M1601.72 1611.93 L1607.6 1611.93 L1607.6 1641.18 L1625.08 1625.8 L1632.56 1625.8 L1613.65 1642.48 L1633.35 1661.45 L1625.72 1661.45 L1607.6 1644.04 L1607.6 1661.45 L1601.72 1661.45 L1601.72 1611.93 Z" fill="#000000" fill-rule="nonzero" fill-opacity="1" /><polyline clip-path="url(#clip830)" style="stroke:#000000; stroke-linecap:round; stroke-linejoin:round; stroke-width:4; stroke-opacity:1; fill:none" points="337.718,1510.59 337.718,117.424 "/>
<polyline clip-path="url(#clip830)" style="stroke:#000000; stroke-linecap:round; stroke-linejoin:round; stroke-width:4; stroke-opacity:1; fill:none" points="337.718,1471.17 356.615,1471.17 "/>
<polyline clip-path="url(#clip830)" style="stroke:#000000; stroke-linecap:round; stroke-linejoin:round; stroke-width:4; stroke-opacity:1; fill:none" points="337.718,1024.28 356.615,1024.28 "/>
<polyline clip-path="url(#clip830)" style="stroke:#000000; stroke-linecap:round; stroke-linejoin:round; stroke-width:4; stroke-opacity:1; fill:none" points="337.718,577.398 356.615,577.398 "/>
<polyline clip-path="url(#clip830)" style="stroke:#000000; stroke-linecap:round; stroke-linejoin:round; stroke-width:4; stroke-opacity:1; fill:none" points="337.718,130.513 356.615,130.513 "/>
<path clip-path="url(#clip830)" d="M283.773 1456.97 Q280.162 1456.97 278.333 1460.53 Q276.528 1464.07 276.528 1471.2 Q276.528 1478.31 278.333 1481.87 Q280.162 1485.42 283.773 1485.42 Q287.407 1485.42 289.213 1481.87 Q291.042 1478.31 291.042 1471.2 Q291.042 1464.07 289.213 1460.53 Q287.407 1456.97 283.773 1456.97 M283.773 1453.26 Q289.583 1453.26 292.639 1457.87 Q295.718 1462.45 295.718 1471.2 Q295.718 1479.93 292.639 1484.54 Q289.583 1489.12 283.773 1489.12 Q277.963 1489.12 274.884 1484.54 Q271.829 1479.93 271.829 1471.2 Q271.829 1462.45 274.884 1457.87 Q277.963 1453.26 283.773 1453.26 Z" fill="#000000" fill-rule="nonzero" fill-opacity="1" /><path clip-path="url(#clip830)" d="M109.916 1044.08 L117.554 1044.08 L117.554 1017.71 L109.244 1019.38 L109.244 1015.12 L117.508 1013.45 L122.184 1013.45 L122.184 1044.08 L129.823 1044.08 L129.823 1048.01 L109.916 1048.01 L109.916 1044.08 Z" fill="#000000" fill-rule="nonzero" fill-opacity="1" /><path clip-path="url(#clip830)" d="M139.267 1042.13 L144.151 1042.13 L144.151 1048.01 L139.267 1048.01 L139.267 1042.13 Z" fill="#000000" fill-rule="nonzero" fill-opacity="1" /><path clip-path="url(#clip830)" d="M164.337 1016.53 Q160.725 1016.53 158.897 1020.09 Q157.091 1023.64 157.091 1030.77 Q157.091 1037.87 158.897 1041.44 Q160.725 1044.98 164.337 1044.98 Q167.971 1044.98 169.776 1041.44 Q171.605 1037.87 171.605 1030.77 Q171.605 1023.64 169.776 1020.09 Q167.971 1016.53 164.337 1016.53 M164.337 1012.83 Q170.147 1012.83 173.202 1017.43 Q176.281 1022.02 176.281 1030.77 Q176.281 1039.49 173.202 1044.1 Q170.147 1048.68 164.337 1048.68 Q158.526 1048.68 155.448 1044.1 Q152.392 1039.49 152.392 1030.77 Q152.392 1022.02 155.448 1017.43 Q158.526 1012.83 164.337 1012.83 Z" fill="#000000" fill-rule="nonzero" fill-opacity="1" /><path clip-path="url(#clip830)" d="M212.67 1022.55 L202.091 1033.17 L212.67 1043.75 L209.915 1046.55 L199.29 1035.93 L188.665 1046.55 L185.934 1043.75 L196.489 1033.17 L185.934 1022.55 L188.665 1019.75 L199.29 1030.37 L209.915 1019.75 L212.67 1022.55 Z" fill="#000000" fill-rule="nonzero" fill-opacity="1" /><path clip-path="url(#clip830)" d="M225.031 1044.08 L232.67 1044.08 L232.67 1017.71 L224.359 1019.38 L224.359 1015.12 L232.623 1013.45 L237.299 1013.45 L237.299 1044.08 L244.938 1044.08 L244.938 1048.01 L225.031 1048.01 L225.031 1044.08 Z" fill="#000000" fill-rule="nonzero" fill-opacity="1" /><path clip-path="url(#clip830)" d="M264.382 1016.53 Q260.771 1016.53 258.943 1020.09 Q257.137 1023.64 257.137 1030.77 Q257.137 1037.87 258.943 1041.44 Q260.771 1044.98 264.382 1044.98 Q268.017 1044.98 269.822 1041.44 Q271.651 1037.87 271.651 1030.77 Q271.651 1023.64 269.822 1020.09 Q268.017 1016.53 264.382 1016.53 M264.382 1012.83 Q270.192 1012.83 273.248 1017.43 Q276.327 1022.02 276.327 1030.77 Q276.327 1039.49 273.248 1044.1 Q270.192 1048.68 264.382 1048.68 Q258.572 1048.68 255.493 1044.1 Q252.438 1039.49 252.438 1030.77 Q252.438 1022.02 255.493 1017.43 Q258.572 1012.83 264.382 1012.83 Z" fill="#000000" fill-rule="nonzero" fill-opacity="1" /><path clip-path="url(#clip830)" d="M286.351 1005.05 Q283.793 1005.05 282.289 1006.8 Q280.803 1008.54 280.803 1011.59 Q280.803 1014.62 282.289 1016.39 Q283.793 1018.14 286.351 1018.14 Q288.909 1018.14 290.395 1016.39 Q291.9 1014.62 291.9 1011.59 Q291.9 1008.54 290.395 1006.8 Q288.909 1005.05 286.351 1005.05 M293.893 993.141 L293.893 996.601 Q292.464 995.924 290.997 995.567 Q289.549 995.21 288.119 995.21 Q284.358 995.21 282.364 997.749 Q280.389 1000.29 280.107 1005.42 Q281.217 1003.79 282.891 1002.92 Q284.565 1002.04 286.577 1002.04 Q290.809 1002.04 293.254 1004.61 Q295.718 1007.17 295.718 1011.59 Q295.718 1015.92 293.16 1018.53 Q290.602 1021.15 286.351 1021.15 Q281.48 1021.15 278.903 1017.42 Q276.327 1013.68 276.327 1006.59 Q276.327 999.93 279.486 995.981 Q282.646 992.012 287.969 992.012 Q289.398 992.012 290.846 992.294 Q292.313 992.576 293.893 993.141 Z" fill="#000000" fill-rule="nonzero" fill-opacity="1" /><path clip-path="url(#clip830)" d="M113.133 597.19 L129.452 597.19 L129.452 601.126 L107.508 601.126 L107.508 597.19 Q110.17 594.436 114.753 589.806 Q119.36 585.153 120.54 583.811 Q122.786 581.288 123.665 579.552 Q124.568 577.792 124.568 576.103 Q124.568 573.348 122.624 571.612 Q120.703 569.876 117.601 569.876 Q115.402 569.876 112.948 570.64 Q110.517 571.404 107.74 572.954 L107.74 568.232 Q110.564 567.098 113.017 566.519 Q115.471 565.941 117.508 565.941 Q122.878 565.941 126.073 568.626 Q129.267 571.311 129.267 575.802 Q129.267 577.931 128.457 579.853 Q127.67 581.751 125.564 584.343 Q124.985 585.015 121.883 588.232 Q118.781 591.427 113.133 597.19 Z" fill="#000000" fill-rule="nonzero" fill-opacity="1" /><path clip-path="url(#clip830)" d="M139.267 595.246 L144.151 595.246 L144.151 601.126 L139.267 601.126 L139.267 595.246 Z" fill="#000000" fill-rule="nonzero" fill-opacity="1" /><path clip-path="url(#clip830)" d="M164.337 569.644 Q160.725 569.644 158.897 573.209 Q157.091 576.751 157.091 583.88 Q157.091 590.987 158.897 594.552 Q160.725 598.093 164.337 598.093 Q167.971 598.093 169.776 594.552 Q171.605 590.987 171.605 583.88 Q171.605 576.751 169.776 573.209 Q167.971 569.644 164.337 569.644 M164.337 565.941 Q170.147 565.941 173.202 570.547 Q176.281 575.13 176.281 583.88 Q176.281 592.607 173.202 597.214 Q170.147 601.797 164.337 601.797 Q158.526 601.797 155.448 597.214 Q152.392 592.607 152.392 583.88 Q152.392 575.13 155.448 570.547 Q158.526 565.941 164.337 565.941 Z" fill="#000000" fill-rule="nonzero" fill-opacity="1" /><path clip-path="url(#clip830)" d="M212.67 575.663 L202.091 586.288 L212.67 596.866 L209.915 599.667 L199.29 589.042 L188.665 599.667 L185.934 596.866 L196.489 586.288 L185.934 575.663 L188.665 572.862 L199.29 583.487 L209.915 572.862 L212.67 575.663 Z" fill="#000000" fill-rule="nonzero" fill-opacity="1" /><path clip-path="url(#clip830)" d="M225.031 597.19 L232.67 597.19 L232.67 570.825 L224.359 572.491 L224.359 568.232 L232.623 566.566 L237.299 566.566 L237.299 597.19 L244.938 597.19 L244.938 601.126 L225.031 601.126 L225.031 597.19 Z" fill="#000000" fill-rule="nonzero" fill-opacity="1" /><path clip-path="url(#clip830)" d="M264.382 569.644 Q260.771 569.644 258.943 573.209 Q257.137 576.751 257.137 583.88 Q257.137 590.987 258.943 594.552 Q260.771 598.093 264.382 598.093 Q268.017 598.093 269.822 594.552 Q271.651 590.987 271.651 583.88 Q271.651 576.751 269.822 573.209 Q268.017 569.644 264.382 569.644 M264.382 565.941 Q270.192 565.941 273.248 570.547 Q276.327 575.13 276.327 583.88 Q276.327 592.607 273.248 597.214 Q270.192 601.797 264.382 601.797 Q258.572 601.797 255.493 597.214 Q252.438 592.607 252.438 583.88 Q252.438 575.13 255.493 570.547 Q258.572 565.941 264.382 565.941 Z" fill="#000000" fill-rule="nonzero" fill-opacity="1" /><path clip-path="url(#clip830)" d="M286.351 558.161 Q283.793 558.161 282.289 559.91 Q280.803 561.659 280.803 564.706 Q280.803 567.734 282.289 569.502 Q283.793 571.251 286.351 571.251 Q288.909 571.251 290.395 569.502 Q291.9 567.734 291.9 564.706 Q291.9 561.659 290.395 559.91 Q288.909 558.161 286.351 558.161 M293.893 546.256 L293.893 549.716 Q292.464 549.039 290.997 548.682 Q289.549 548.325 288.119 548.325 Q284.358 548.325 282.364 550.864 Q280.389 553.403 280.107 558.537 Q281.217 556.901 282.891 556.036 Q284.565 555.152 286.577 555.152 Q290.809 555.152 293.254 557.729 Q295.718 560.286 295.718 564.706 Q295.718 569.032 293.16 571.646 Q290.602 574.261 286.351 574.261 Q281.48 574.261 278.903 570.537 Q276.327 566.794 276.327 559.703 Q276.327 553.045 279.486 549.096 Q282.646 545.127 287.969 545.127 Q289.398 545.127 290.846 545.41 Q292.313 545.692 293.893 546.256 Z" fill="#000000" fill-rule="nonzero" fill-opacity="1" /><path clip-path="url(#clip830)" d="M123.272 135.607 Q126.628 136.324 128.503 138.593 Q130.402 140.861 130.402 144.195 Q130.402 149.31 126.883 152.111 Q123.365 154.912 116.883 154.912 Q114.707 154.912 112.392 154.472 Q110.101 154.056 107.647 153.199 L107.647 148.685 Q109.591 149.82 111.906 150.398 Q114.221 150.977 116.744 150.977 Q121.142 150.977 123.434 149.241 Q125.749 147.505 125.749 144.195 Q125.749 141.139 123.596 139.426 Q121.466 137.69 117.647 137.69 L113.619 137.69 L113.619 133.847 L117.832 133.847 Q121.281 133.847 123.11 132.482 Q124.939 131.093 124.939 128.5 Q124.939 125.838 123.04 124.426 Q121.165 122.991 117.647 122.991 Q115.726 122.991 113.527 123.408 Q111.328 123.824 108.689 124.704 L108.689 120.537 Q111.351 119.797 113.666 119.426 Q116.003 119.056 118.064 119.056 Q123.388 119.056 126.49 121.486 Q129.591 123.894 129.591 128.014 Q129.591 130.884 127.948 132.875 Q126.304 134.843 123.272 135.607 Z" fill="#000000" fill-rule="nonzero" fill-opacity="1" /><path clip-path="url(#clip830)" d="M139.267 148.361 L144.151 148.361 L144.151 154.241 L139.267 154.241 L139.267 148.361 Z" fill="#000000" fill-rule="nonzero" fill-opacity="1" /><path clip-path="url(#clip830)" d="M164.337 122.759 Q160.725 122.759 158.897 126.324 Q157.091 129.866 157.091 136.996 Q157.091 144.102 158.897 147.667 Q160.725 151.208 164.337 151.208 Q167.971 151.208 169.776 147.667 Q171.605 144.102 171.605 136.996 Q171.605 129.866 169.776 126.324 Q167.971 122.759 164.337 122.759 M164.337 119.056 Q170.147 119.056 173.202 123.662 Q176.281 128.246 176.281 136.996 Q176.281 145.722 173.202 150.329 Q170.147 154.912 164.337 154.912 Q158.526 154.912 155.448 150.329 Q152.392 145.722 152.392 136.996 Q152.392 128.246 155.448 123.662 Q158.526 119.056 164.337 119.056 Z" fill="#000000" fill-rule="nonzero" fill-opacity="1" /><path clip-path="url(#clip830)" d="M212.67 128.778 L202.091 139.403 L212.67 149.982 L209.915 152.782 L199.29 142.158 L188.665 152.782 L185.934 149.982 L196.489 139.403 L185.934 128.778 L188.665 125.977 L199.29 136.602 L209.915 125.977 L212.67 128.778 Z" fill="#000000" fill-rule="nonzero" fill-opacity="1" /><path clip-path="url(#clip830)" d="M225.031 150.306 L232.67 150.306 L232.67 123.94 L224.359 125.607 L224.359 121.347 L232.623 119.681 L237.299 119.681 L237.299 150.306 L244.938 150.306 L244.938 154.241 L225.031 154.241 L225.031 150.306 Z" fill="#000000" fill-rule="nonzero" fill-opacity="1" /><path clip-path="url(#clip830)" d="M264.382 122.759 Q260.771 122.759 258.943 126.324 Q257.137 129.866 257.137 136.996 Q257.137 144.102 258.943 147.667 Q260.771 151.208 264.382 151.208 Q268.017 151.208 269.822 147.667 Q271.651 144.102 271.651 136.996 Q271.651 129.866 269.822 126.324 Q268.017 122.759 264.382 122.759 M264.382 119.056 Q270.192 119.056 273.248 123.662 Q276.327 128.246 276.327 136.996 Q276.327 145.722 273.248 150.329 Q270.192 154.912 264.382 154.912 Q258.572 154.912 255.493 150.329 Q252.438 145.722 252.438 136.996 Q252.438 128.246 255.493 123.662 Q258.572 119.056 264.382 119.056 Z" fill="#000000" fill-rule="nonzero" fill-opacity="1" /><path clip-path="url(#clip830)" d="M286.351 111.276 Q283.793 111.276 282.289 113.025 Q280.803 114.775 280.803 117.821 Q280.803 120.85 282.289 122.617 Q283.793 124.367 286.351 124.367 Q288.909 124.367 290.395 122.617 Q291.9 120.85 291.9 117.821 Q291.9 114.775 290.395 113.025 Q288.909 111.276 286.351 111.276 M293.893 99.3711 L293.893 102.832 Q292.464 102.155 290.997 101.797 Q289.549 101.44 288.119 101.44 Q284.358 101.44 282.364 103.979 Q280.389 106.518 280.107 111.653 Q281.217 110.016 282.891 109.151 Q284.565 108.267 286.577 108.267 Q290.809 108.267 293.254 110.844 Q295.718 113.402 295.718 117.821 Q295.718 122.147 293.16 124.762 Q290.602 127.376 286.351 127.376 Q281.48 127.376 278.903 123.652 Q276.327 119.909 276.327 112.819 Q276.327 106.161 279.486 102.211 Q282.646 98.2426 287.969 98.2426 Q289.398 98.2426 290.846 98.5247 Q292.313 98.8068 293.893 99.3711 Z" fill="#000000" fill-rule="nonzero" fill-opacity="1" /><path clip-path="url(#clip830)" d="M9.01569 972.846 L26.8715 972.846 L26.8715 964.762 Q26.8715 960.274 24.548 957.823 Q22.2245 955.372 17.9277 955.372 Q13.6627 955.372 11.3392 957.823 Q9.01569 960.274 9.01569 964.762 L9.01569 972.846 M3.73216 979.276 L3.73216 964.762 Q3.73216 956.773 7.36061 952.699 Q10.9572 948.593 17.9277 948.593 Q24.9618 948.593 28.5584 952.699 Q32.155 956.773 32.155 964.762 L32.155 972.846 L51.2522 972.846 L51.2522 979.276 L3.73216 979.276 Z" fill="#000000" fill-rule="nonzero" fill-opacity="1" /><path clip-path="url(#clip830)" d="M19.7101 928.732 Q19.7101 933.443 23.4022 936.18 Q27.0625 938.917 33.46 938.917 Q39.8575 938.917 43.5497 936.212 Q47.2099 933.474 47.2099 928.732 Q47.2099 924.053 43.5178 921.316 Q39.8257 918.579 33.46 918.579 Q27.1261 918.579 23.434 921.316 Q19.7101 924.053 19.7101 928.732 M14.7448 928.732 Q14.7448 921.093 19.7101 916.733 Q24.6753 912.372 33.46 912.372 Q42.2129 912.372 47.2099 916.733 Q52.1752 921.093 52.1752 928.732 Q52.1752 936.403 47.2099 940.763 Q42.2129 945.092 33.46 945.092 Q24.6753 945.092 19.7101 940.763 Q14.7448 936.403 14.7448 928.732 Z" fill="#000000" fill-rule="nonzero" fill-opacity="1" /><path clip-path="url(#clip830)" d="M45.905 896.999 L64.8111 896.999 L64.8111 902.887 L15.6042 902.887 L15.6042 896.999 L21.0151 896.999 Q17.8322 895.153 16.3044 892.352 Q14.7448 889.519 14.7448 885.604 Q14.7448 879.111 19.9011 875.069 Q25.0573 870.995 33.46 870.995 Q41.8627 870.995 47.019 875.069 Q52.1752 879.111 52.1752 885.604 Q52.1752 889.519 50.6474 892.352 Q49.0878 895.153 45.905 896.999 M33.46 877.074 Q26.9988 877.074 23.3385 879.748 Q19.6464 882.39 19.6464 887.037 Q19.6464 891.684 23.3385 894.357 Q26.9988 896.999 33.46 896.999 Q39.9212 896.999 43.6133 894.357 Q47.2736 891.684 47.2736 887.037 Q47.2736 882.39 43.6133 879.748 Q39.9212 877.074 33.46 877.074 Z" fill="#000000" fill-rule="nonzero" fill-opacity="1" /><path clip-path="url(#clip830)" d="M37.1839 861.892 L15.6042 861.892 L15.6042 856.036 L36.9611 856.036 Q42.0219 856.036 44.5682 854.062 Q47.0826 852.089 47.0826 848.142 Q47.0826 843.4 44.0589 840.662 Q41.0352 837.893 35.8153 837.893 L15.6042 837.893 L15.6042 832.037 L51.2522 832.037 L51.2522 837.893 L45.7776 837.893 Q49.0242 840.026 50.6156 842.859 Q52.1752 845.659 52.1752 849.383 Q52.1752 855.526 48.3558 858.709 Q44.5363 861.892 37.1839 861.892 M14.7448 847.155 L14.7448 847.155 Z" fill="#000000" fill-rule="nonzero" fill-opacity="1" /><path clip-path="url(#clip830)" d="M1.72696 819.974 L1.72696 814.117 L51.2522 814.117 L51.2522 819.974 L1.72696 819.974 Z" fill="#000000" fill-rule="nonzero" fill-opacity="1" /><path clip-path="url(#clip830)" d="M33.3327 785.663 Q33.3327 792.76 34.9559 795.498 Q36.5792 798.235 40.4941 798.235 Q43.6133 798.235 45.4594 796.198 Q47.2736 794.129 47.2736 790.596 Q47.2736 785.726 43.8361 782.798 Q40.3668 779.838 34.6377 779.838 L33.3327 779.838 L33.3327 785.663 M30.9137 773.982 L51.2522 773.982 L51.2522 779.838 L45.8413 779.838 Q49.0878 781.843 50.6474 784.835 Q52.1752 787.827 52.1752 792.156 Q52.1752 797.63 49.1196 800.877 Q46.0323 804.091 40.8761 804.091 Q34.8605 804.091 31.8049 800.081 Q28.7494 796.039 28.7494 788.05 L28.7494 779.838 L28.1765 779.838 Q24.1342 779.838 21.9381 782.512 Q19.7101 785.153 19.7101 789.96 Q19.7101 793.015 20.4421 795.911 Q21.1742 798.808 22.6383 801.481 L17.2275 801.481 Q15.9861 798.267 15.3814 795.243 Q14.7448 792.219 14.7448 789.355 Q14.7448 781.62 18.7552 777.801 Q22.7656 773.982 30.9137 773.982 Z" fill="#000000" fill-rule="nonzero" fill-opacity="1" /><path clip-path="url(#clip830)" d="M5.48273 756.126 L15.6042 756.126 L15.6042 744.063 L20.1557 744.063 L20.1557 756.126 L39.5074 756.126 Q43.8679 756.126 45.1093 754.948 Q46.3506 753.739 46.3506 750.078 L46.3506 744.063 L51.2522 744.063 L51.2522 750.078 Q51.2522 756.858 48.7377 759.436 Q46.1914 762.014 39.5074 762.014 L20.1557 762.014 L20.1557 766.311 L15.6042 766.311 L15.6042 762.014 L5.48273 762.014 L5.48273 756.126 Z" fill="#000000" fill-rule="nonzero" fill-opacity="1" /><path clip-path="url(#clip830)" d="M15.6042 736.36 L15.6042 730.504 L51.2522 730.504 L51.2522 736.36 L15.6042 736.36 M1.72696 736.36 L1.72696 730.504 L9.14301 730.504 L9.14301 736.36 L1.72696 736.36 Z" fill="#000000" fill-rule="nonzero" fill-opacity="1" /><path clip-path="url(#clip830)" d="M19.7101 704.436 Q19.7101 709.147 23.4022 711.884 Q27.0625 714.621 33.46 714.621 Q39.8575 714.621 43.5497 711.916 Q47.2099 709.179 47.2099 704.436 Q47.2099 699.757 43.5178 697.02 Q39.8257 694.283 33.46 694.283 Q27.1261 694.283 23.434 697.02 Q19.7101 699.757 19.7101 704.436 M14.7448 704.436 Q14.7448 696.797 19.7101 692.437 Q24.6753 688.076 33.46 688.076 Q42.2129 688.076 47.2099 692.437 Q52.1752 696.797 52.1752 704.436 Q52.1752 712.107 47.2099 716.467 Q42.2129 720.796 33.46 720.796 Q24.6753 720.796 19.7101 716.467 Q14.7448 712.107 14.7448 704.436 Z" fill="#000000" fill-rule="nonzero" fill-opacity="1" /><path clip-path="url(#clip830)" d="M29.7361 648.736 L51.2522 648.736 L51.2522 654.593 L29.927 654.593 Q24.8663 654.593 22.3518 656.566 Q19.8374 658.54 19.8374 662.486 Q19.8374 667.229 22.8611 669.966 Q25.8848 672.703 31.1047 672.703 L51.2522 672.703 L51.2522 678.591 L15.6042 678.591 L15.6042 672.703 L21.1424 672.703 Q17.9277 670.603 16.3363 667.77 Q14.7448 664.905 14.7448 661.181 Q14.7448 655.038 18.5643 651.887 Q22.3518 648.736 29.7361 648.736 Z" fill="#000000" fill-rule="nonzero" fill-opacity="1" /><path clip-path="url(#clip830)" d="M489.895 12.096 L498.078 12.096 L498.078 72.576 L489.895 72.576 L489.895 12.096 Z" fill="#000000" fill-rule="nonzero" fill-opacity="1" /><path clip-path="url(#clip830)" d="M551.752 45.1919 L551.752 72.576 L544.299 72.576 L544.299 45.4349 Q544.299 38.994 541.787 35.7938 Q539.276 32.5936 534.253 32.5936 Q528.217 32.5936 524.733 36.4419 Q521.249 40.2903 521.249 46.9338 L521.249 72.576 L513.755 72.576 L513.755 27.2059 L521.249 27.2059 L521.249 34.2544 Q523.923 30.163 527.528 28.1376 Q531.174 26.1121 535.913 26.1121 Q543.732 26.1121 547.742 30.9732 Q551.752 35.7938 551.752 45.1919 Z" fill="#000000" fill-rule="nonzero" fill-opacity="1" /><path clip-path="url(#clip830)" d="M573.992 14.324 L573.992 27.2059 L589.345 27.2059 L589.345 32.9987 L573.992 32.9987 L573.992 57.6282 Q573.992 63.1779 575.491 64.7578 Q577.03 66.3376 581.689 66.3376 L589.345 66.3376 L589.345 72.576 L581.689 72.576 Q573.06 72.576 569.779 69.3758 Q566.498 66.1351 566.498 57.6282 L566.498 32.9987 L561.029 32.9987 L561.029 27.2059 L566.498 27.2059 L566.498 14.324 L573.992 14.324 Z" fill="#000000" fill-rule="nonzero" fill-opacity="1" /><path clip-path="url(#clip830)" d="M637.956 48.0275 L637.956 51.6733 L603.685 51.6733 Q604.171 59.3701 608.303 63.421 Q612.476 67.4314 619.889 67.4314 Q624.183 67.4314 628.193 66.3781 Q632.244 65.3249 636.214 63.2184 L636.214 70.267 Q632.203 71.9684 627.99 72.8596 Q623.778 73.7508 619.443 73.7508 Q608.587 73.7508 602.227 67.4314 Q595.907 61.1119 595.907 50.3365 Q595.907 39.1965 601.903 32.6746 Q607.938 26.1121 618.147 26.1121 Q627.302 26.1121 632.608 32.0264 Q637.956 37.9003 637.956 48.0275 M630.502 45.84 Q630.421 39.7232 627.059 36.0774 Q623.737 32.4315 618.228 32.4315 Q611.989 32.4315 608.222 35.9558 Q604.495 39.4801 603.928 45.8805 L630.502 45.84 Z" fill="#000000" fill-rule="nonzero" fill-opacity="1" /><path clip-path="url(#clip830)" d="M680.045 49.3643 Q680.045 41.2625 676.682 36.8065 Q673.361 32.3505 667.325 32.3505 Q661.329 32.3505 657.967 36.8065 Q654.645 41.2625 654.645 49.3643 Q654.645 57.4256 657.967 61.8816 Q661.329 66.3376 667.325 66.3376 Q673.361 66.3376 676.682 61.8816 Q680.045 57.4256 680.045 49.3643 M687.498 66.9452 Q687.498 78.5308 682.354 84.1616 Q677.209 89.8329 666.596 89.8329 Q662.666 89.8329 659.182 89.2252 Q655.699 88.6581 652.417 87.4428 L652.417 80.1917 Q655.699 81.9741 658.899 82.8248 Q662.099 83.6755 665.421 83.6755 Q672.753 83.6755 676.399 79.8271 Q680.045 76.0193 680.045 68.282 L680.045 64.5957 Q677.736 68.6061 674.13 70.5911 Q670.525 72.576 665.502 72.576 Q657.157 72.576 652.053 66.2161 Q646.949 59.8562 646.949 49.3643 Q646.949 38.832 652.053 32.472 Q657.157 26.1121 665.502 26.1121 Q670.525 26.1121 674.13 28.0971 Q677.736 30.082 680.045 34.0924 L680.045 27.2059 L687.498 27.2059 L687.498 66.9452 Z" fill="#000000" fill-rule="nonzero" fill-opacity="1" /><path clip-path="url(#clip830)" d="M729.142 34.1734 Q727.886 33.4443 726.387 33.1202 Q724.929 32.7556 723.146 32.7556 Q716.827 32.7556 713.424 36.8875 Q710.062 40.9789 710.062 48.6757 L710.062 72.576 L702.568 72.576 L702.568 27.2059 L710.062 27.2059 L710.062 34.2544 Q712.411 30.1225 716.179 28.1376 Q719.946 26.1121 725.334 26.1121 Q726.103 26.1121 727.035 26.2337 Q727.967 26.3147 729.101 26.5172 L729.142 34.1734 Z" fill="#000000" fill-rule="nonzero" fill-opacity="1" /><path clip-path="url(#clip830)" d="M757.579 49.7694 Q748.545 49.7694 745.062 51.8354 Q741.578 53.9013 741.578 58.8839 Q741.578 62.8538 744.17 65.2034 Q746.803 67.5124 751.3 67.5124 Q757.498 67.5124 761.225 63.1374 Q764.992 58.7219 764.992 51.4303 L764.992 49.7694 L757.579 49.7694 M772.446 46.6907 L772.446 72.576 L764.992 72.576 L764.992 65.6895 Q762.44 69.8214 758.632 71.8063 Q754.824 73.7508 749.315 73.7508 Q742.347 73.7508 738.216 69.8619 Q734.124 65.9325 734.124 59.3701 Q734.124 51.7138 739.228 47.825 Q744.373 43.9361 754.541 43.9361 L764.992 43.9361 L764.992 43.2069 Q764.992 38.0623 761.589 35.2672 Q758.227 32.4315 752.11 32.4315 Q748.221 32.4315 744.535 33.3632 Q740.849 34.295 737.446 36.1584 L737.446 29.2718 Q741.537 27.692 745.386 26.9223 Q749.234 26.1121 752.88 26.1121 Q762.724 26.1121 767.585 31.2163 Q772.446 36.3204 772.446 46.6907 Z" fill="#000000" fill-rule="nonzero" fill-opacity="1" /><path clip-path="url(#clip830)" d="M795.171 14.324 L795.171 27.2059 L810.524 27.2059 L810.524 32.9987 L795.171 32.9987 L795.171 57.6282 Q795.171 63.1779 796.67 64.7578 Q798.209 66.3376 802.868 66.3376 L810.524 66.3376 L810.524 72.576 L802.868 72.576 Q794.24 72.576 790.958 69.3758 Q787.677 66.1351 787.677 57.6282 L787.677 32.9987 L782.208 32.9987 L782.208 27.2059 L787.677 27.2059 L787.677 14.324 L795.171 14.324 Z" fill="#000000" fill-rule="nonzero" fill-opacity="1" /><path clip-path="url(#clip830)" d="M859.135 48.0275 L859.135 51.6733 L824.864 51.6733 Q825.351 59.3701 829.482 63.421 Q833.655 67.4314 841.068 67.4314 Q845.362 67.4314 849.372 66.3781 Q853.423 65.3249 857.393 63.2184 L857.393 70.267 Q853.383 71.9684 849.17 72.8596 Q844.957 73.7508 840.622 73.7508 Q829.766 73.7508 823.406 67.4314 Q817.087 61.1119 817.087 50.3365 Q817.087 39.1965 823.082 32.6746 Q829.118 26.1121 839.326 26.1121 Q848.481 26.1121 853.788 32.0264 Q859.135 37.9003 859.135 48.0275 M851.681 45.84 Q851.6 39.7232 848.238 36.0774 Q844.916 32.4315 839.407 32.4315 Q833.169 32.4315 829.401 35.9558 Q825.675 39.4801 825.107 45.8805 L851.681 45.84 Z" fill="#000000" fill-rule="nonzero" fill-opacity="1" /><path clip-path="url(#clip830)" d="M901.224 34.0924 L901.224 9.54393 L908.678 9.54393 L908.678 72.576 L901.224 72.576 L901.224 65.7705 Q898.874 69.8214 895.269 71.8063 Q891.704 73.7508 886.681 73.7508 Q878.458 73.7508 873.273 67.1883 Q868.128 60.6258 868.128 49.9314 Q868.128 39.2371 873.273 32.6746 Q878.458 26.1121 886.681 26.1121 Q891.704 26.1121 895.269 28.0971 Q898.874 30.0415 901.224 34.0924 M875.825 49.9314 Q875.825 58.1548 879.187 62.8538 Q882.59 67.5124 888.504 67.5124 Q894.418 67.5124 897.821 62.8538 Q901.224 58.1548 901.224 49.9314 Q901.224 41.7081 897.821 37.0496 Q894.418 32.3505 888.504 32.3505 Q882.59 32.3505 879.187 37.0496 Q875.825 41.7081 875.825 49.9314 Z" fill="#000000" fill-rule="nonzero" fill-opacity="1" /><path clip-path="url(#clip830)" d="M958.909 18.8205 L958.909 65.8515 L968.793 65.8515 Q981.31 65.8515 987.103 60.1802 Q992.936 54.509 992.936 42.2752 Q992.936 30.1225 987.103 24.4918 Q981.31 18.8205 968.793 18.8205 L958.909 18.8205 M950.726 12.096 L967.537 12.096 Q985.118 12.096 993.342 19.4281 Q1001.56 26.7198 1001.56 42.2752 Q1001.56 57.9117 993.301 65.2439 Q985.037 72.576 967.537 72.576 L950.726 72.576 L950.726 12.096 Z" fill="#000000" fill-rule="nonzero" fill-opacity="1" /><path clip-path="url(#clip830)" d="M1033.16 76.7889 Q1030 84.8907 1027 87.3618 Q1024.01 89.8329 1018.98 89.8329 L1013.03 89.8329 L1013.03 83.5945 L1017.4 83.5945 Q1020.48 83.5945 1022.18 82.1361 Q1023.89 80.6778 1025.95 75.2496 L1027.29 71.8468 L1008.94 27.2059 L1016.84 27.2059 L1031.01 62.6918 L1045.19 27.2059 L1053.09 27.2059 L1033.16 76.7889 Z" fill="#000000" fill-rule="nonzero" fill-opacity="1" /><path clip-path="url(#clip830)" d="M1101.1 45.1919 L1101.1 72.576 L1093.64 72.576 L1093.64 45.4349 Q1093.64 38.994 1091.13 35.7938 Q1088.62 32.5936 1083.6 32.5936 Q1077.56 32.5936 1074.08 36.4419 Q1070.59 40.2903 1070.59 46.9338 L1070.59 72.576 L1063.1 72.576 L1063.1 27.2059 L1070.59 27.2059 L1070.59 34.2544 Q1073.27 30.163 1076.87 28.1376 Q1080.52 26.1121 1085.26 26.1121 Q1093.07 26.1121 1097.09 30.9732 Q1101.1 35.7938 1101.1 45.1919 Z" fill="#000000" fill-rule="nonzero" fill-opacity="1" /><path clip-path="url(#clip830)" d="M1136.58 49.7694 Q1127.55 49.7694 1124.06 51.8354 Q1120.58 53.9013 1120.58 58.8839 Q1120.58 62.8538 1123.17 65.2034 Q1125.81 67.5124 1130.3 67.5124 Q1136.5 67.5124 1140.23 63.1374 Q1143.99 58.7219 1143.99 51.4303 L1143.99 49.7694 L1136.58 49.7694 M1151.45 46.6907 L1151.45 72.576 L1143.99 72.576 L1143.99 65.6895 Q1141.44 69.8214 1137.63 71.8063 Q1133.83 73.7508 1128.32 73.7508 Q1121.35 73.7508 1117.22 69.8619 Q1113.13 65.9325 1113.13 59.3701 Q1113.13 51.7138 1118.23 47.825 Q1123.38 43.9361 1133.54 43.9361 L1143.99 43.9361 L1143.99 43.2069 Q1143.99 38.0623 1140.59 35.2672 Q1137.23 32.4315 1131.11 32.4315 Q1127.22 32.4315 1123.54 33.3632 Q1119.85 34.295 1116.45 36.1584 L1116.45 29.2718 Q1120.54 27.692 1124.39 26.9223 Q1128.24 26.1121 1131.88 26.1121 Q1141.73 26.1121 1146.59 31.2163 Q1151.45 36.3204 1151.45 46.6907 Z" fill="#000000" fill-rule="nonzero" fill-opacity="1" /><path clip-path="url(#clip830)" d="M1202.13 35.9153 Q1204.92 30.8922 1208.81 28.5022 Q1212.7 26.1121 1217.96 26.1121 Q1225.05 26.1121 1228.9 31.0947 Q1232.75 36.0368 1232.75 45.1919 L1232.75 72.576 L1225.26 72.576 L1225.26 45.4349 Q1225.26 38.913 1222.95 35.7533 Q1220.64 32.5936 1215.9 32.5936 Q1210.11 32.5936 1206.74 36.4419 Q1203.38 40.2903 1203.38 46.9338 L1203.38 72.576 L1195.89 72.576 L1195.89 45.4349 Q1195.89 38.8725 1193.58 35.7533 Q1191.27 32.5936 1186.45 32.5936 Q1180.74 32.5936 1177.37 36.4824 Q1174.01 40.3308 1174.01 46.9338 L1174.01 72.576 L1166.52 72.576 L1166.52 27.2059 L1174.01 27.2059 L1174.01 34.2544 Q1176.56 30.082 1180.13 28.0971 Q1183.69 26.1121 1188.6 26.1121 Q1193.54 26.1121 1196.98 28.6237 Q1200.46 31.1352 1202.13 35.9153 Z" fill="#000000" fill-rule="nonzero" fill-opacity="1" /><path clip-path="url(#clip830)" d="M1247.62 27.2059 L1255.07 27.2059 L1255.07 72.576 L1247.62 72.576 L1247.62 27.2059 M1247.62 9.54393 L1255.07 9.54393 L1255.07 18.9825 L1247.62 18.9825 L1247.62 9.54393 Z" fill="#000000" fill-rule="nonzero" fill-opacity="1" /><path clip-path="url(#clip830)" d="M1303.32 28.9478 L1303.32 35.9153 Q1300.16 34.1734 1296.96 33.3227 Q1293.8 32.4315 1290.56 32.4315 Q1283.31 32.4315 1279.29 37.0496 Q1275.28 41.6271 1275.28 49.9314 Q1275.28 58.2358 1279.29 62.8538 Q1283.31 67.4314 1290.56 67.4314 Q1293.8 67.4314 1296.96 66.5807 Q1300.16 65.6895 1303.32 63.9476 L1303.32 70.8341 Q1300.2 72.2924 1296.84 73.0216 Q1293.51 73.7508 1289.75 73.7508 Q1279.5 73.7508 1273.46 67.3098 Q1267.43 60.8689 1267.43 49.9314 Q1267.43 38.832 1273.5 32.472 Q1279.62 26.1121 1290.23 26.1121 Q1293.68 26.1121 1296.96 26.8413 Q1300.24 27.5299 1303.32 28.9478 Z" fill="#000000" fill-rule="nonzero" fill-opacity="1" /><path clip-path="url(#clip830)" d="M1345.2 28.5427 L1345.2 35.5912 Q1342.04 33.9709 1338.64 33.1607 Q1335.24 32.3505 1331.59 32.3505 Q1326.04 32.3505 1323.25 34.0519 Q1320.49 35.7533 1320.49 39.156 Q1320.49 41.7486 1322.48 43.2475 Q1324.46 44.7058 1330.46 46.0426 L1333.01 46.6097 Q1340.95 48.3111 1344.27 51.4303 Q1347.63 54.509 1347.63 60.0587 Q1347.63 66.3781 1342.61 70.0644 Q1337.63 73.7508 1328.88 73.7508 Q1325.23 73.7508 1321.26 73.0216 Q1317.33 72.3329 1312.96 70.9151 L1312.96 63.2184 Q1317.09 65.3654 1321.1 66.4591 Q1325.11 67.5124 1329.04 67.5124 Q1334.31 67.5124 1337.14 65.73 Q1339.98 63.9071 1339.98 60.6258 Q1339.98 57.5877 1337.91 55.9673 Q1335.89 54.3469 1328.96 52.8481 L1326.37 52.2405 Q1319.44 50.7821 1316.36 47.7845 Q1313.28 44.7463 1313.28 39.4801 Q1313.28 33.0797 1317.82 29.5959 Q1322.36 26.1121 1330.7 26.1121 Q1334.83 26.1121 1338.48 26.7198 Q1342.12 27.3274 1345.2 28.5427 Z" fill="#000000" fill-rule="nonzero" fill-opacity="1" /><path clip-path="url(#clip830)" d="M1403.46 32.4315 Q1397.46 32.4315 1393.98 37.1306 Q1390.49 41.7891 1390.49 49.9314 Q1390.49 58.0738 1393.94 62.7728 Q1397.42 67.4314 1403.46 67.4314 Q1409.41 67.4314 1412.89 62.7323 Q1416.38 58.0333 1416.38 49.9314 Q1416.38 41.8701 1412.89 37.1711 Q1409.41 32.4315 1403.46 32.4315 M1403.46 26.1121 Q1413.18 26.1121 1418.73 32.4315 Q1424.28 38.7509 1424.28 49.9314 Q1424.28 61.0714 1418.73 67.4314 Q1413.18 73.7508 1403.46 73.7508 Q1393.69 73.7508 1388.14 67.4314 Q1382.63 61.0714 1382.63 49.9314 Q1382.63 38.7509 1388.14 32.4315 Q1393.69 26.1121 1403.46 26.1121 Z" fill="#000000" fill-rule="nonzero" fill-opacity="1" /><path clip-path="url(#clip830)" d="M1459.6 9.54393 L1459.6 15.7418 L1452.47 15.7418 Q1448.46 15.7418 1446.88 17.3622 Q1445.34 18.9825 1445.34 23.1955 L1445.34 27.2059 L1457.62 27.2059 L1457.62 32.9987 L1445.34 32.9987 L1445.34 72.576 L1437.85 72.576 L1437.85 32.9987 L1430.72 32.9987 L1430.72 27.2059 L1437.85 27.2059 L1437.85 24.0462 Q1437.85 16.471 1441.37 13.0277 Q1444.9 9.54393 1452.55 9.54393 L1459.6 9.54393 Z" fill="#000000" fill-rule="nonzero" fill-opacity="1" /><path clip-path="url(#clip830)" d="M1500.72 18.8205 L1500.72 65.8515 L1510.6 65.8515 Q1523.12 65.8515 1528.91 60.1802 Q1534.74 54.509 1534.74 42.2752 Q1534.74 30.1225 1528.91 24.4918 Q1523.12 18.8205 1510.6 18.8205 L1500.72 18.8205 M1492.53 12.096 L1509.35 12.096 Q1526.93 12.096 1535.15 19.4281 Q1543.37 26.7198 1543.37 42.2752 Q1543.37 57.9117 1535.11 65.2439 Q1526.85 72.576 1509.35 72.576 L1492.53 72.576 L1492.53 12.096 Z" fill="#000000" fill-rule="nonzero" fill-opacity="1" /><path clip-path="url(#clip830)" d="M1556.09 27.2059 L1563.55 27.2059 L1563.55 72.576 L1556.09 72.576 L1556.09 27.2059 M1556.09 9.54393 L1563.55 9.54393 L1563.55 18.9825 L1556.09 18.9825 L1556.09 9.54393 Z" fill="#000000" fill-rule="nonzero" fill-opacity="1" /><path clip-path="url(#clip830)" d="M1599.76 49.7694 Q1590.73 49.7694 1587.24 51.8354 Q1583.76 53.9013 1583.76 58.8839 Q1583.76 62.8538 1586.35 65.2034 Q1588.99 67.5124 1593.48 67.5124 Q1599.68 67.5124 1603.41 63.1374 Q1607.18 58.7219 1607.18 51.4303 L1607.18 49.7694 L1599.76 49.7694 M1614.63 46.6907 L1614.63 72.576 L1607.18 72.576 L1607.18 65.6895 Q1604.62 69.8214 1600.82 71.8063 Q1597.01 73.7508 1591.5 73.7508 Q1584.53 73.7508 1580.4 69.8619 Q1576.31 65.9325 1576.31 59.3701 Q1576.31 51.7138 1581.41 47.825 Q1586.56 43.9361 1596.72 43.9361 L1607.18 43.9361 L1607.18 43.2069 Q1607.18 38.0623 1603.77 35.2672 Q1600.41 32.4315 1594.29 32.4315 Q1590.4 32.4315 1586.72 33.3632 Q1583.03 34.295 1579.63 36.1584 L1579.63 29.2718 Q1583.72 27.692 1587.57 26.9223 Q1591.42 26.1121 1595.06 26.1121 Q1604.91 26.1121 1609.77 31.2163 Q1614.63 36.3204 1614.63 46.6907 Z" fill="#000000" fill-rule="nonzero" fill-opacity="1" /><path clip-path="url(#clip830)" d="M1637.19 65.7705 L1637.19 89.8329 L1629.7 89.8329 L1629.7 27.2059 L1637.19 27.2059 L1637.19 34.0924 Q1639.54 30.0415 1643.11 28.0971 Q1646.71 26.1121 1651.69 26.1121 Q1659.96 26.1121 1665.1 32.6746 Q1670.29 39.2371 1670.29 49.9314 Q1670.29 60.6258 1665.1 67.1883 Q1659.96 73.7508 1651.69 73.7508 Q1646.71 73.7508 1643.11 71.8063 Q1639.54 69.8214 1637.19 65.7705 M1662.55 49.9314 Q1662.55 41.7081 1659.15 37.0496 Q1655.79 32.3505 1649.87 32.3505 Q1643.96 32.3505 1640.55 37.0496 Q1637.19 41.7081 1637.19 49.9314 Q1637.19 58.1548 1640.55 62.8538 Q1643.96 67.5124 1649.87 67.5124 Q1655.79 67.5124 1659.15 62.8538 Q1662.55 58.1548 1662.55 49.9314 Z" fill="#000000" fill-rule="nonzero" fill-opacity="1" /><path clip-path="url(#clip830)" d="M1720.36 45.1919 L1720.36 72.576 L1712.9 72.576 L1712.9 45.4349 Q1712.9 38.994 1710.39 35.7938 Q1707.88 32.5936 1702.86 32.5936 Q1696.82 32.5936 1693.34 36.4419 Q1689.85 40.2903 1689.85 46.9338 L1689.85 72.576 L1682.36 72.576 L1682.36 9.54393 L1689.85 9.54393 L1689.85 34.2544 Q1692.53 30.163 1696.13 28.1376 Q1699.78 26.1121 1704.52 26.1121 Q1712.34 26.1121 1716.35 30.9732 Q1720.36 35.7938 1720.36 45.1919 Z" fill="#000000" fill-rule="nonzero" fill-opacity="1" /><path clip-path="url(#clip830)" d="M1752.81 32.4315 Q1746.81 32.4315 1743.33 37.1306 Q1739.84 41.7891 1739.84 49.9314 Q1739.84 58.0738 1743.29 62.7728 Q1746.77 67.4314 1752.81 67.4314 Q1758.76 67.4314 1762.24 62.7323 Q1765.73 58.0333 1765.73 49.9314 Q1765.73 41.8701 1762.24 37.1711 Q1758.76 32.4315 1752.81 32.4315 M1752.81 26.1121 Q1762.53 26.1121 1768.08 32.4315 Q1773.63 38.7509 1773.63 49.9314 Q1773.63 61.0714 1768.08 67.4314 Q1762.53 73.7508 1752.81 73.7508 Q1743.04 73.7508 1737.49 67.4314 Q1731.98 61.0714 1731.98 49.9314 Q1731.98 38.7509 1737.49 32.4315 Q1743.04 26.1121 1752.81 26.1121 Z" fill="#000000" fill-rule="nonzero" fill-opacity="1" /><path clip-path="url(#clip830)" d="M1812.27 34.1734 Q1811.02 33.4443 1809.52 33.1202 Q1808.06 32.7556 1806.28 32.7556 Q1799.96 32.7556 1796.55 36.8875 Q1793.19 40.9789 1793.19 48.6757 L1793.19 72.576 L1785.7 72.576 L1785.7 27.2059 L1793.19 27.2059 L1793.19 34.2544 Q1795.54 30.1225 1799.31 28.1376 Q1803.08 26.1121 1808.46 26.1121 Q1809.23 26.1121 1810.17 26.2337 Q1811.1 26.3147 1812.23 26.5172 L1812.27 34.1734 Z" fill="#000000" fill-rule="nonzero" fill-opacity="1" /><path clip-path="url(#clip830)" d="M1820.09 27.2059 L1827.54 27.2059 L1827.54 72.576 L1820.09 72.576 L1820.09 27.2059 M1820.09 9.54393 L1827.54 9.54393 L1827.54 18.9825 L1820.09 18.9825 L1820.09 9.54393 Z" fill="#000000" fill-rule="nonzero" fill-opacity="1" /><path clip-path="url(#clip830)" d="M1880.85 45.1919 L1880.85 72.576 L1873.4 72.576 L1873.4 45.4349 Q1873.4 38.994 1870.89 35.7938 Q1868.38 32.5936 1863.35 32.5936 Q1857.32 32.5936 1853.83 36.4419 Q1850.35 40.2903 1850.35 46.9338 L1850.35 72.576 L1842.86 72.576 L1842.86 27.2059 L1850.35 27.2059 L1850.35 34.2544 Q1853.02 30.163 1856.63 28.1376 Q1860.28 26.1121 1865.02 26.1121 Q1872.83 26.1121 1876.84 30.9732 Q1880.85 35.7938 1880.85 45.1919 Z" fill="#000000" fill-rule="nonzero" fill-opacity="1" /><path clip-path="url(#clip830)" d="M1916.34 49.7694 Q1907.31 49.7694 1903.82 51.8354 Q1900.34 53.9013 1900.34 58.8839 Q1900.34 62.8538 1902.93 65.2034 Q1905.56 67.5124 1910.06 67.5124 Q1916.26 67.5124 1919.99 63.1374 Q1923.75 58.7219 1923.75 51.4303 L1923.75 49.7694 L1916.34 49.7694 M1931.21 46.6907 L1931.21 72.576 L1923.75 72.576 L1923.75 65.6895 Q1921.2 69.8214 1917.39 71.8063 Q1913.59 73.7508 1908.08 73.7508 Q1901.11 73.7508 1896.98 69.8619 Q1892.89 65.9325 1892.89 59.3701 Q1892.89 51.7138 1897.99 47.825 Q1903.13 43.9361 1913.3 43.9361 L1923.75 43.9361 L1923.75 43.2069 Q1923.75 38.0623 1920.35 35.2672 Q1916.99 32.4315 1910.87 32.4315 Q1906.98 32.4315 1903.3 33.3632 Q1899.61 34.295 1896.21 36.1584 L1896.21 29.2718 Q1900.3 27.692 1904.15 26.9223 Q1908 26.1121 1911.64 26.1121 Q1921.48 26.1121 1926.35 31.2163 Q1931.21 36.3204 1931.21 46.6907 Z" fill="#000000" fill-rule="nonzero" fill-opacity="1" /><path clip-path="url(#clip830)" d="M2005.58 28.9478 L2005.58 35.9153 Q2002.42 34.1734 1999.22 33.3227 Q1996.06 32.4315 1992.82 32.4315 Q1985.57 32.4315 1981.56 37.0496 Q1977.55 41.6271 1977.55 49.9314 Q1977.55 58.2358 1981.56 62.8538 Q1985.57 67.4314 1992.82 67.4314 Q1996.06 67.4314 1999.22 66.5807 Q2002.42 65.6895 2005.58 63.9476 L2005.58 70.8341 Q2002.46 72.2924 1999.1 73.0216 Q1995.78 73.7508 1992.01 73.7508 Q1981.76 73.7508 1975.73 67.3098 Q1969.69 60.8689 1969.69 49.9314 Q1969.69 38.832 1975.77 32.472 Q1981.88 26.1121 1992.5 26.1121 Q1995.94 26.1121 1999.22 26.8413 Q2002.5 27.5299 2005.58 28.9478 Z" fill="#000000" fill-rule="nonzero" fill-opacity="1" /><path clip-path="url(#clip830)" d="M2018.54 27.2059 L2026 27.2059 L2026 72.576 L2018.54 72.576 L2018.54 27.2059 M2018.54 9.54393 L2026 9.54393 L2026 18.9825 L2018.54 18.9825 L2018.54 9.54393 Z" fill="#000000" fill-rule="nonzero" fill-opacity="1" /><path clip-path="url(#clip830)" d="M2048.97 14.324 L2048.97 27.2059 L2064.32 27.2059 L2064.32 32.9987 L2048.97 32.9987 L2048.97 57.6282 Q2048.97 63.1779 2050.47 64.7578 Q2052 66.3376 2056.66 66.3376 L2064.32 66.3376 L2064.32 72.576 L2056.66 72.576 Q2048.03 72.576 2044.75 69.3758 Q2041.47 66.1351 2041.47 57.6282 L2041.47 32.9987 L2036 32.9987 L2036 27.2059 L2041.47 27.2059 L2041.47 14.324 L2048.97 14.324 Z" fill="#000000" fill-rule="nonzero" fill-opacity="1" /><path clip-path="url(#clip830)" d="M2100.41 34.1734 Q2099.16 33.4443 2097.66 33.1202 Q2096.2 32.7556 2094.42 32.7556 Q2088.1 32.7556 2084.7 36.8875 Q2081.33 40.9789 2081.33 48.6757 L2081.33 72.576 L2073.84 72.576 L2073.84 27.2059 L2081.33 27.2059 L2081.33 34.2544 Q2083.68 30.1225 2087.45 28.1376 Q2091.22 26.1121 2096.61 26.1121 Q2097.37 26.1121 2098.31 26.2337 Q2099.24 26.3147 2100.37 26.5172 L2100.41 34.1734 Z" fill="#000000" fill-rule="nonzero" fill-opacity="1" /><path clip-path="url(#clip830)" d="M2108.23 27.2059 L2115.69 27.2059 L2115.69 72.576 L2108.23 72.576 L2108.23 27.2059 M2108.23 9.54393 L2115.69 9.54393 L2115.69 18.9825 L2108.23 18.9825 L2108.23 9.54393 Z" fill="#000000" fill-rule="nonzero" fill-opacity="1" /><path clip-path="url(#clip830)" d="M2175.56 9.62495 Q2170.13 18.942 2167.5 28.0566 Q2164.86 37.1711 2164.86 46.5287 Q2164.86 55.8863 2167.5 65.0818 Q2170.17 74.2369 2175.56 83.5134 L2169.08 83.5134 Q2163 73.9938 2159.96 64.7983 Q2156.96 55.6027 2156.96 46.5287 Q2156.96 37.4952 2159.96 28.3401 Q2162.96 19.1851 2169.08 9.62495 L2175.56 9.62495 Z" fill="#000000" fill-rule="nonzero" fill-opacity="1" /><path clip-path="url(#clip830)" d="M2191.15 12.096 L2223.28 12.096 L2223.28 18.9825 L2198.65 18.9825 L2198.65 33.8088 Q2200.43 33.2012 2202.21 32.9176 Q2203.99 32.5936 2205.78 32.5936 Q2215.9 32.5936 2221.82 38.1433 Q2227.73 43.6931 2227.73 53.1722 Q2227.73 62.9348 2221.66 68.3631 Q2215.58 73.7508 2204.52 73.7508 Q2200.71 73.7508 2196.74 73.1026 Q2192.81 72.4545 2188.6 71.1582 L2188.6 62.9348 Q2192.25 64.9198 2196.14 65.892 Q2200.02 66.8642 2204.36 66.8642 Q2211.37 66.8642 2215.46 63.1779 Q2219.55 59.4916 2219.55 53.1722 Q2219.55 46.8528 2215.46 43.1664 Q2211.37 39.4801 2204.36 39.4801 Q2201.08 39.4801 2197.8 40.2093 Q2194.56 40.9384 2191.15 42.4778 L2191.15 12.096 Z" fill="#000000" fill-rule="nonzero" fill-opacity="1" /><path clip-path="url(#clip830)" d="M2250.9 65.6895 L2279.46 65.6895 L2279.46 72.576 L2241.06 72.576 L2241.06 65.6895 Q2245.72 60.8689 2253.74 52.7671 Q2261.8 44.6248 2263.87 42.2752 Q2267.8 37.8598 2269.34 34.8216 Q2270.92 31.7429 2270.92 28.7857 Q2270.92 23.9651 2267.51 20.927 Q2264.15 17.8888 2258.72 17.8888 Q2254.87 17.8888 2250.58 19.2256 Q2246.33 20.5624 2241.47 23.2765 L2241.47 15.0127 Q2246.41 13.0277 2250.7 12.015 Q2255 11.0023 2258.56 11.0023 Q2267.96 11.0023 2273.55 15.7013 Q2279.14 20.4004 2279.14 28.2591 Q2279.14 31.9859 2277.72 35.3482 Q2276.34 38.6699 2272.66 43.2069 Q2271.64 44.3817 2266.22 50.0125 Q2260.79 55.6027 2250.9 65.6895 Z" fill="#000000" fill-rule="nonzero" fill-opacity="1" /><path clip-path="url(#clip830)" d="M2317.62 27.2059 L2325.08 27.2059 L2334.39 62.6108 L2343.67 27.2059 L2352.46 27.2059 L2361.78 62.6108 L2371.05 27.2059 L2378.51 27.2059 L2366.64 72.576 L2357.85 72.576 L2348.09 35.3887 L2338.28 72.576 L2329.49 72.576 L2317.62 27.2059 Z" fill="#000000" fill-rule="nonzero" fill-opacity="1" /><path clip-path="url(#clip830)" d="M2428.62 48.0275 L2428.62 51.6733 L2394.35 51.6733 Q2394.83 59.3701 2398.96 63.421 Q2403.14 67.4314 2410.55 67.4314 Q2414.84 67.4314 2418.85 66.3781 Q2422.91 65.3249 2426.88 63.2184 L2426.88 70.267 Q2422.87 71.9684 2418.65 72.8596 Q2414.44 73.7508 2410.1 73.7508 Q2399.25 73.7508 2392.89 67.4314 Q2386.57 61.1119 2386.57 50.3365 Q2386.57 39.1965 2392.56 32.6746 Q2398.6 26.1121 2408.81 26.1121 Q2417.96 26.1121 2423.27 32.0264 Q2428.62 37.9003 2428.62 48.0275 M2421.16 45.84 Q2421.08 39.7232 2417.72 36.0774 Q2414.4 32.4315 2408.89 32.4315 Q2402.65 32.4315 2398.88 35.9558 Q2395.16 39.4801 2394.59 45.8805 L2421.16 45.84 Z" fill="#000000" fill-rule="nonzero" fill-opacity="1" /><path clip-path="url(#clip830)" d="M2479.66 48.0275 L2479.66 51.6733 L2445.39 51.6733 Q2445.87 59.3701 2450.01 63.421 Q2454.18 67.4314 2461.59 67.4314 Q2465.89 67.4314 2469.9 66.3781 Q2473.95 65.3249 2477.92 63.2184 L2477.92 70.267 Q2473.91 71.9684 2469.69 72.8596 Q2465.48 73.7508 2461.15 73.7508 Q2450.29 73.7508 2443.93 67.4314 Q2437.61 61.1119 2437.61 50.3365 Q2437.61 39.1965 2443.61 32.6746 Q2449.64 26.1121 2459.85 26.1121 Q2469 26.1121 2474.31 32.0264 Q2479.66 37.9003 2479.66 48.0275 M2472.21 45.84 Q2472.12 39.7232 2468.76 36.0774 Q2465.44 32.4315 2459.93 32.4315 Q2453.69 32.4315 2449.93 35.9558 Q2446.2 39.4801 2445.63 45.8805 L2472.21 45.84 Z" fill="#000000" fill-rule="nonzero" fill-opacity="1" /><path clip-path="url(#clip830)" d="M2491.61 9.54393 L2499.1 9.54393 L2499.1 46.7717 L2521.34 27.2059 L2530.86 27.2059 L2506.8 48.4326 L2531.87 72.576 L2522.15 72.576 L2499.1 50.4176 L2499.1 72.576 L2491.61 72.576 L2491.61 9.54393 Z" fill="#000000" fill-rule="nonzero" fill-opacity="1" /><path clip-path="url(#clip830)" d="M2568.86 28.5427 L2568.86 35.5912 Q2565.7 33.9709 2562.3 33.1607 Q2558.89 32.3505 2555.25 32.3505 Q2549.7 32.3505 2546.9 34.0519 Q2544.15 35.7533 2544.15 39.156 Q2544.15 41.7486 2546.13 43.2475 Q2548.12 44.7058 2554.11 46.0426 L2556.67 46.6097 Q2564.61 48.3111 2567.93 51.4303 Q2571.29 54.509 2571.29 60.0587 Q2571.29 66.3781 2566.27 70.0644 Q2561.28 73.7508 2552.53 73.7508 Q2548.89 73.7508 2544.92 73.0216 Q2540.99 72.3329 2536.61 70.9151 L2536.61 63.2184 Q2540.75 65.3654 2544.76 66.4591 Q2548.77 67.5124 2552.7 67.5124 Q2557.96 67.5124 2560.8 65.73 Q2563.63 63.9071 2563.63 60.6258 Q2563.63 57.5877 2561.57 55.9673 Q2559.54 54.3469 2552.62 52.8481 L2550.02 52.2405 Q2543.1 50.7821 2540.02 47.7845 Q2536.94 44.7463 2536.94 39.4801 Q2536.94 33.0797 2541.48 29.5959 Q2546.01 26.1121 2554.36 26.1121 Q2558.49 26.1121 2562.14 26.7198 Q2565.78 27.3274 2568.86 28.5427 Z" fill="#000000" fill-rule="nonzero" fill-opacity="1" /><path clip-path="url(#clip830)" d="M2581.98 9.62495 L2588.47 9.62495 Q2594.54 19.1851 2597.54 28.3401 Q2600.58 37.4952 2600.58 46.5287 Q2600.58 55.6027 2597.54 64.7983 Q2594.54 73.9938 2588.47 83.5134 L2581.98 83.5134 Q2587.37 74.2369 2590.01 65.0818 Q2592.68 55.8863 2592.68 46.5287 Q2592.68 37.1711 2590.01 28.0566 Q2587.37 18.942 2581.98 9.62495 Z" fill="#000000" fill-rule="nonzero" fill-opacity="1" /><polyline clip-path="url(#clip831)" style="stroke:#0000ff; stroke-linecap:round; stroke-linejoin:round; stroke-width:10; stroke-opacity:1; fill:none" points="406.068,1471.12 449.882,1470.92 493.696,1470.72 537.51,1470.48 581.324,1469.84 625.139,1468.33 668.953,1465.49 712.767,1460.62 756.581,1451.16 800.395,1432.6 844.21,1398.12 888.024,1335.63 931.838,1192.33 975.652,913.941 1019.47,473.746 1063.28,156.853 1107.09,195.285 1150.91,626.89 1194.72,455.202 1238.54,769.509 1282.35,624.996 1326.17,741.976 1369.98,753.858 1413.79,819.394 1457.61,943.809 1501.42,1017.11 1545.24,1097.17 1589.05,1205.63 1632.87,1279.79 1676.68,1331.19 1720.49,1367.28 1764.31,1392.96 1808.12,1411.45 1851.94,1424.93 1895.75,1434.87 1939.56,1442.84 1983.38,1449.18 2027.19,1454.21 2071.01,1458.16 2114.82,1461.25 2158.64,1463.65 2202.45,1420.96 2246.26,1358.82 2290.08,1295.28 2333.89,1240.57 2377.71,1176.65 2421.52,1114.44 2465.33,1053.14 2509.15,953.643 2552.96,810.556 2596.78,614.23 2640.59,384.687 2684.41,229.342 "/>
<polyline clip-path="url(#clip831)" style="stroke:#ff0000; stroke-linecap:round; stroke-linejoin:round; stroke-width:10; stroke-opacity:1; fill:none" points="406.068,1471.15 449.882,1471.14 493.696,1471.08 537.51,1470.98 581.324,1470.85 625.139,1470.58 668.953,1469.96 712.767,1468.74 756.581,1466.55 800.395,1462.39 844.21,1454.33 888.024,1439.15 931.838,1411.3 975.652,1351.59 1019.47,1232.26 1063.28,1028.59 1107.09,811.329 1150.91,697.516 1194.72,757.635 1238.54,747.983 1282.35,832.028 1326.17,846.435 1369.98,896.333 1413.79,941.142 1457.61,993.431 1501.42,1057.65 1545.24,1118.95 1589.05,1176.86 1632.87,1230.23 1676.68,1276.31 1720.49,1314.7 1764.31,1346.01 1808.12,1371.23 1851.94,1391.4 1895.75,1407.46 1939.56,1420.32 1983.38,1430.62 2027.19,1438.87 2071.01,1445.48 2114.82,1450.78 2158.64,1455.01 2202.45,1458.42 2246.26,1458.14 2290.08,1452.4 2333.89,1440.89 2377.71,1424.58 2421.52,1402.51 2465.33,1375.19 2509.15,1337.74 2552.96,1283.86 2596.78,1205.6 2640.59,1092.82 2684.41,941.573 "/>
<polyline clip-path="url(#clip831)" style="stroke:#008000; stroke-linecap:round; stroke-linejoin:round; stroke-width:10; stroke-opacity:1; fill:none" points="406.068,1471.16 449.882,1471.16 493.696,1471.15 537.51,1471.14 581.324,1471.1 625.139,1471.05 668.953,1470.95 712.767,1470.74 756.581,1470.32 800.395,1469.52 844.21,1468.01 888.024,1465.12 931.838,1459.62 975.652,1449.38 1019.47,1428.73 1063.28,1387.32 1107.09,1311.38 1150.91,1206.02 1194.72,1097.25 1238.54,1019.19 1282.35,953.924 1326.17,916.466 1369.98,899.714 1413.79,904.955 1457.61,926.284 1501.42,960.243 1545.24,1003.8 1589.05,1052.77 1632.87,1099.98 1676.68,1144.64 1720.49,1186.1 1764.31,1223.94 1808.12,1257.99 1851.94,1288.25 1895.75,1314.89 1939.56,1337.51 1983.38,1356.74 2027.19,1373.13 2071.01,1387.13 2114.82,1399.09 2158.64,1409.33 2202.45,1418.02 2246.26,1425.41 2290.08,1431.58 2333.89,1436.35 2377.71,1439.42 2421.52,1440.49 2465.33,1439.05 2509.15,1433.63 2552.96,1422.54 2596.78,1402.86 2640.59,1369.9 2684.41,1316.49 "/>
<path clip-path="url(#clip830)" d="M2157.42 371.223 L2672.25 371.223 L2672.25 163.863 L2157.42 163.863  Z" fill="#ffffff" fill-rule="evenodd" fill-opacity="1"/>
<polyline clip-path="url(#clip830)" style="stroke:#000000; stroke-linecap:round; stroke-linejoin:round; stroke-width:4; stroke-opacity:1; fill:none" points="2157.42,371.223 2672.25,371.223 2672.25,163.863 2157.42,163.863 2157.42,371.223 "/>
<polyline clip-path="url(#clip830)" style="stroke:#0000ff; stroke-linecap:round; stroke-linejoin:round; stroke-width:10; stroke-opacity:1; fill:none" points="2184.25,215.703 2345.26,215.703 "/>
<path clip-path="url(#clip830)" d="M2372.09 198.423 L2393.94 198.423 L2393.94 202.358 L2376.76 202.358 L2376.76 212.59 L2393.22 212.59 L2393.22 216.525 L2376.76 216.525 L2376.76 229.048 L2394.36 229.048 L2394.36 232.983 L2372.09 232.983 L2372.09 198.423 Z" fill="#000000" fill-rule="nonzero" fill-opacity="1" /><path clip-path="url(#clip830)" d="M2427.16 197.011 Q2424.06 202.335 2422.55 207.543 Q2421.05 212.752 2421.05 218.099 Q2421.05 223.446 2422.55 228.701 Q2424.08 233.932 2427.16 239.233 L2423.45 239.233 Q2419.98 233.793 2418.25 228.538 Q2416.53 223.284 2416.53 218.099 Q2416.53 212.937 2418.25 207.705 Q2419.96 202.474 2423.45 197.011 L2427.16 197.011 Z" fill="#000000" fill-rule="nonzero" fill-opacity="1" /><path clip-path="url(#clip830)" d="M2435.61 198.423 L2457.46 198.423 L2457.46 202.358 L2440.28 202.358 L2440.28 212.59 L2456.74 212.59 L2456.74 216.525 L2440.28 216.525 L2440.28 229.048 L2457.88 229.048 L2457.88 232.983 L2435.61 232.983 L2435.61 198.423 Z" fill="#000000" fill-rule="nonzero" fill-opacity="1" /><path clip-path="url(#clip830)" d="M2482.44 219.719 Q2482.44 215.089 2480.51 212.543 Q2478.62 209.997 2475.17 209.997 Q2471.74 209.997 2469.82 212.543 Q2467.92 215.089 2467.92 219.719 Q2467.92 224.326 2469.82 226.872 Q2471.74 229.418 2475.17 229.418 Q2478.62 229.418 2480.51 226.872 Q2482.44 224.326 2482.44 219.719 M2486.69 229.765 Q2486.69 236.386 2483.76 239.603 Q2480.82 242.844 2474.75 242.844 Q2472.51 242.844 2470.51 242.497 Q2468.52 242.173 2466.65 241.478 L2466.65 237.335 Q2468.52 238.353 2470.35 238.839 Q2472.18 239.325 2474.08 239.325 Q2478.27 239.325 2480.35 237.126 Q2482.44 234.95 2482.44 230.529 L2482.44 228.423 Q2481.12 230.714 2479.06 231.849 Q2477 232.983 2474.13 232.983 Q2469.36 232.983 2466.44 229.349 Q2463.52 225.714 2463.52 219.719 Q2463.52 213.701 2466.44 210.066 Q2469.36 206.432 2474.13 206.432 Q2477 206.432 2479.06 207.566 Q2481.12 208.701 2482.44 210.992 L2482.44 207.057 L2486.69 207.057 L2486.69 229.765 Z" fill="#000000" fill-rule="nonzero" fill-opacity="1" /><path clip-path="url(#clip830)" d="M2512.53 219.719 Q2512.53 215.089 2510.61 212.543 Q2508.71 209.997 2505.26 209.997 Q2501.83 209.997 2499.91 212.543 Q2498.01 215.089 2498.01 219.719 Q2498.01 224.326 2499.91 226.872 Q2501.83 229.418 2505.26 229.418 Q2508.71 229.418 2510.61 226.872 Q2512.53 224.326 2512.53 219.719 M2516.79 229.765 Q2516.79 236.386 2513.85 239.603 Q2510.91 242.844 2504.84 242.844 Q2502.6 242.844 2500.61 242.497 Q2498.62 242.173 2496.74 241.478 L2496.74 237.335 Q2498.62 238.353 2500.44 238.839 Q2502.27 239.325 2504.17 239.325 Q2508.36 239.325 2510.44 237.126 Q2512.53 234.95 2512.53 230.529 L2512.53 228.423 Q2511.21 230.714 2509.15 231.849 Q2507.09 232.983 2504.22 232.983 Q2499.45 232.983 2496.53 229.349 Q2493.62 225.714 2493.62 219.719 Q2493.62 213.701 2496.53 210.066 Q2499.45 206.432 2504.22 206.432 Q2507.09 206.432 2509.15 207.566 Q2511.21 208.701 2512.53 210.992 L2512.53 207.057 L2516.79 207.057 L2516.79 229.765 Z" fill="#000000" fill-rule="nonzero" fill-opacity="1" /><path clip-path="url(#clip830)" d="M2542.09 207.821 L2542.09 211.849 Q2540.28 210.923 2538.34 210.46 Q2536.39 209.997 2534.31 209.997 Q2531.14 209.997 2529.54 210.969 Q2527.97 211.941 2527.97 213.886 Q2527.97 215.367 2529.1 216.224 Q2530.24 217.057 2533.66 217.821 L2535.12 218.145 Q2539.66 219.117 2541.56 220.9 Q2543.48 222.659 2543.48 225.83 Q2543.48 229.441 2540.61 231.548 Q2537.76 233.654 2532.76 233.654 Q2530.68 233.654 2528.41 233.238 Q2526.16 232.844 2523.66 232.034 L2523.66 227.636 Q2526.02 228.863 2528.32 229.488 Q2530.61 230.089 2532.85 230.089 Q2535.86 230.089 2537.48 229.071 Q2539.1 228.029 2539.1 226.154 Q2539.1 224.418 2537.92 223.492 Q2536.76 222.566 2532.81 221.71 L2531.32 221.363 Q2527.37 220.529 2525.61 218.816 Q2523.85 217.08 2523.85 214.071 Q2523.85 210.414 2526.44 208.423 Q2529.03 206.432 2533.8 206.432 Q2536.16 206.432 2538.25 206.779 Q2540.33 207.127 2542.09 207.821 Z" fill="#000000" fill-rule="nonzero" fill-opacity="1" /><path clip-path="url(#clip830)" d="M2549.59 197.011 L2553.29 197.011 Q2556.76 202.474 2558.48 207.705 Q2560.21 212.937 2560.21 218.099 Q2560.21 223.284 2558.48 228.538 Q2556.76 233.793 2553.29 239.233 L2549.59 239.233 Q2552.67 233.932 2554.17 228.701 Q2555.7 223.446 2555.7 218.099 Q2555.7 212.752 2554.17 207.543 Q2552.67 202.335 2549.59 197.011 Z" fill="#000000" fill-rule="nonzero" fill-opacity="1" /><polyline clip-path="url(#clip830)" style="stroke:#ff0000; stroke-linecap:round; stroke-linejoin:round; stroke-width:10; stroke-opacity:1; fill:none" points="2184.25,267.543 2345.26,267.543 "/>
<path clip-path="url(#clip830)" d="M2372.09 250.263 L2378.39 250.263 L2393.71 279.175 L2393.71 250.263 L2398.25 250.263 L2398.25 284.823 L2391.95 284.823 L2376.63 255.911 L2376.63 284.823 L2372.09 284.823 L2372.09 250.263 Z" fill="#000000" fill-rule="nonzero" fill-opacity="1" /><path clip-path="url(#clip830)" d="M2432.67 248.851 Q2429.57 254.175 2428.06 259.383 Q2426.56 264.592 2426.56 269.939 Q2426.56 275.286 2428.06 280.541 Q2429.59 285.772 2432.67 291.073 L2428.96 291.073 Q2425.49 285.633 2423.76 280.378 Q2422.04 275.124 2422.04 269.939 Q2422.04 264.777 2423.76 259.545 Q2425.47 254.314 2428.96 248.851 L2432.67 248.851 Z" fill="#000000" fill-rule="nonzero" fill-opacity="1" /><path clip-path="url(#clip830)" d="M2441.12 250.263 L2447.41 250.263 L2462.74 279.175 L2462.74 250.263 L2467.27 250.263 L2467.27 284.823 L2460.98 284.823 L2445.65 255.911 L2445.65 284.823 L2441.12 284.823 L2441.12 250.263 Z" fill="#000000" fill-rule="nonzero" fill-opacity="1" /><path clip-path="url(#clip830)" d="M2487.18 287.23 Q2485.38 291.86 2483.66 293.272 Q2481.95 294.684 2479.08 294.684 L2475.68 294.684 L2475.68 291.119 L2478.18 291.119 Q2479.94 291.119 2480.91 290.286 Q2481.88 289.453 2483.06 286.351 L2483.82 284.406 L2473.34 258.897 L2477.85 258.897 L2485.95 279.175 L2494.06 258.897 L2498.57 258.897 L2487.18 287.23 Z" fill="#000000" fill-rule="nonzero" fill-opacity="1" /><path clip-path="url(#clip830)" d="M2524.63 263.874 Q2526.23 261.004 2528.45 259.638 Q2530.68 258.272 2533.69 258.272 Q2537.74 258.272 2539.94 261.119 Q2542.13 263.943 2542.13 269.175 L2542.13 284.823 L2537.85 284.823 L2537.85 269.314 Q2537.85 265.587 2536.53 263.781 Q2535.21 261.976 2532.5 261.976 Q2529.19 261.976 2527.27 264.175 Q2525.35 266.374 2525.35 270.17 L2525.35 284.823 L2521.07 284.823 L2521.07 269.314 Q2521.07 265.564 2519.75 263.781 Q2518.43 261.976 2515.68 261.976 Q2512.41 261.976 2510.49 264.198 Q2508.57 266.397 2508.57 270.17 L2508.57 284.823 L2504.29 284.823 L2504.29 258.897 L2508.57 258.897 L2508.57 262.925 Q2510.03 260.541 2512.07 259.406 Q2514.1 258.272 2516.9 258.272 Q2519.73 258.272 2521.69 259.707 Q2523.69 261.142 2524.63 263.874 Z" fill="#000000" fill-rule="nonzero" fill-opacity="1" /><path clip-path="url(#clip830)" d="M2554.75 280.934 L2554.75 294.684 L2550.47 294.684 L2550.47 258.897 L2554.75 258.897 L2554.75 262.832 Q2556.09 260.517 2558.13 259.406 Q2560.19 258.272 2563.04 258.272 Q2567.76 258.272 2570.7 262.022 Q2573.66 265.772 2573.66 271.883 Q2573.66 277.994 2570.7 281.744 Q2567.76 285.494 2563.04 285.494 Q2560.19 285.494 2558.13 284.383 Q2556.09 283.249 2554.75 280.934 M2569.24 271.883 Q2569.24 267.184 2567.3 264.522 Q2565.37 261.837 2562 261.837 Q2558.62 261.837 2556.67 264.522 Q2554.75 267.184 2554.75 271.883 Q2554.75 276.582 2556.67 279.267 Q2558.62 281.929 2562 281.929 Q2565.37 281.929 2567.3 279.267 Q2569.24 276.582 2569.24 271.883 Z" fill="#000000" fill-rule="nonzero" fill-opacity="1" /><path clip-path="url(#clip830)" d="M2602.27 269.175 L2602.27 284.823 L2598.01 284.823 L2598.01 269.314 Q2598.01 265.633 2596.58 263.805 Q2595.14 261.976 2592.27 261.976 Q2588.82 261.976 2586.83 264.175 Q2584.84 266.374 2584.84 270.17 L2584.84 284.823 L2580.56 284.823 L2580.56 248.805 L2584.84 248.805 L2584.84 262.925 Q2586.37 260.587 2588.43 259.43 Q2590.51 258.272 2593.22 258.272 Q2597.69 258.272 2599.98 261.05 Q2602.27 263.805 2602.27 269.175 Z" fill="#000000" fill-rule="nonzero" fill-opacity="1" /><path clip-path="url(#clip830)" d="M2627.3 259.661 L2627.3 263.689 Q2625.49 262.763 2623.55 262.3 Q2621.6 261.837 2619.52 261.837 Q2616.35 261.837 2614.75 262.809 Q2613.18 263.781 2613.18 265.726 Q2613.18 267.207 2614.31 268.064 Q2615.44 268.897 2618.87 269.661 L2620.33 269.985 Q2624.87 270.957 2626.76 272.74 Q2628.68 274.499 2628.68 277.67 Q2628.68 281.281 2625.81 283.388 Q2622.97 285.494 2617.97 285.494 Q2615.88 285.494 2613.62 285.078 Q2611.37 284.684 2608.87 283.874 L2608.87 279.476 Q2611.23 280.703 2613.52 281.328 Q2615.81 281.929 2618.06 281.929 Q2621.07 281.929 2622.69 280.911 Q2624.31 279.869 2624.31 277.994 Q2624.31 276.258 2623.13 275.332 Q2621.97 274.406 2618.01 273.55 L2616.53 273.203 Q2612.57 272.369 2610.81 270.656 Q2609.06 268.92 2609.06 265.911 Q2609.06 262.254 2611.65 260.263 Q2614.24 258.272 2619.01 258.272 Q2621.37 258.272 2623.45 258.619 Q2625.54 258.967 2627.3 259.661 Z" fill="#000000" fill-rule="nonzero" fill-opacity="1" /><path clip-path="url(#clip830)" d="M2634.8 248.851 L2638.5 248.851 Q2641.97 254.314 2643.68 259.545 Q2645.42 264.777 2645.42 269.939 Q2645.42 275.124 2643.68 280.378 Q2641.97 285.633 2638.5 291.073 L2634.8 291.073 Q2637.87 285.772 2639.38 280.541 Q2640.91 275.286 2640.91 269.939 Q2640.91 264.592 2639.38 259.383 Q2637.87 254.175 2634.8 248.851 Z" fill="#000000" fill-rule="nonzero" fill-opacity="1" /><polyline clip-path="url(#clip830)" style="stroke:#008000; stroke-linecap:round; stroke-linejoin:round; stroke-width:10; stroke-opacity:1; fill:none" points="2184.25,319.383 2345.26,319.383 "/>
<path clip-path="url(#clip830)" d="M2387.92 306.709 L2381.58 323.908 L2394.29 323.908 L2387.92 306.709 M2385.28 302.103 L2390.58 302.103 L2403.76 336.663 L2398.89 336.663 L2395.75 327.797 L2380.17 327.797 L2377.02 336.663 L2372.09 336.663 L2385.28 302.103 Z" fill="#000000" fill-rule="nonzero" fill-opacity="1" /><path clip-path="url(#clip830)" d="M2433.92 300.691 Q2430.82 306.015 2429.31 311.223 Q2427.81 316.432 2427.81 321.779 Q2427.81 327.126 2429.31 332.381 Q2430.84 337.612 2433.92 342.913 L2430.21 342.913 Q2426.74 337.473 2425.01 332.218 Q2423.29 326.964 2423.29 321.779 Q2423.29 316.617 2425.01 311.385 Q2426.72 306.154 2430.21 300.691 L2433.92 300.691 Z" fill="#000000" fill-rule="nonzero" fill-opacity="1" /><path clip-path="url(#clip830)" d="M2453.92 306.709 L2447.57 323.908 L2460.28 323.908 L2453.92 306.709 M2451.28 302.103 L2456.58 302.103 L2469.75 336.663 L2464.89 336.663 L2461.74 327.797 L2446.16 327.797 L2443.01 336.663 L2438.08 336.663 L2451.28 302.103 Z" fill="#000000" fill-rule="nonzero" fill-opacity="1" /><path clip-path="url(#clip830)" d="M2490.84 314.672 L2490.84 300.645 L2495.1 300.645 L2495.1 336.663 L2490.84 336.663 L2490.84 332.774 Q2489.5 335.089 2487.44 336.223 Q2485.4 337.334 2482.53 337.334 Q2477.83 337.334 2474.87 333.584 Q2471.93 329.834 2471.93 323.723 Q2471.93 317.612 2474.87 313.862 Q2477.83 310.112 2482.53 310.112 Q2485.4 310.112 2487.44 311.246 Q2489.5 312.357 2490.84 314.672 M2476.32 323.723 Q2476.32 328.422 2478.25 331.107 Q2480.19 333.769 2483.57 333.769 Q2486.95 333.769 2488.89 331.107 Q2490.84 328.422 2490.84 323.723 Q2490.84 319.024 2488.89 316.362 Q2486.95 313.677 2483.57 313.677 Q2480.19 313.677 2478.25 316.362 Q2476.32 319.024 2476.32 323.723 Z" fill="#000000" fill-rule="nonzero" fill-opacity="1" /><path clip-path="url(#clip830)" d="M2503.43 326.431 L2503.43 310.737 L2507.69 310.737 L2507.69 326.269 Q2507.69 329.95 2509.13 331.802 Q2510.56 333.631 2513.43 333.631 Q2516.88 333.631 2518.87 331.431 Q2520.88 329.232 2520.88 325.436 L2520.88 310.737 L2525.14 310.737 L2525.14 336.663 L2520.88 336.663 L2520.88 332.681 Q2519.33 335.043 2517.27 336.2 Q2515.24 337.334 2512.53 337.334 Q2508.06 337.334 2505.75 334.556 Q2503.43 331.779 2503.43 326.431 M2514.15 310.112 L2514.15 310.112 Z" fill="#000000" fill-rule="nonzero" fill-opacity="1" /><path clip-path="url(#clip830)" d="M2533.92 300.645 L2538.18 300.645 L2538.18 336.663 L2533.92 336.663 L2533.92 300.645 Z" fill="#000000" fill-rule="nonzero" fill-opacity="1" /><path clip-path="url(#clip830)" d="M2551.3 303.376 L2551.3 310.737 L2560.07 310.737 L2560.07 314.047 L2551.3 314.047 L2551.3 328.121 Q2551.3 331.293 2552.16 332.195 Q2553.04 333.098 2555.7 333.098 L2560.07 333.098 L2560.07 336.663 L2555.7 336.663 Q2550.77 336.663 2548.89 334.834 Q2547.02 332.982 2547.02 328.121 L2547.02 314.047 L2543.89 314.047 L2543.89 310.737 L2547.02 310.737 L2547.02 303.376 L2551.3 303.376 Z" fill="#000000" fill-rule="nonzero" fill-opacity="1" /><path clip-path="url(#clip830)" d="M2582.2 311.501 L2582.2 315.529 Q2580.4 314.603 2578.45 314.14 Q2576.51 313.677 2574.43 313.677 Q2571.25 313.677 2569.66 314.649 Q2568.08 315.621 2568.08 317.566 Q2568.08 319.047 2569.22 319.904 Q2570.35 320.737 2573.78 321.501 L2575.24 321.825 Q2579.77 322.797 2581.67 324.58 Q2583.59 326.339 2583.59 329.51 Q2583.59 333.121 2580.72 335.228 Q2577.87 337.334 2572.87 337.334 Q2570.79 337.334 2568.52 336.918 Q2566.28 336.524 2563.78 335.714 L2563.78 331.316 Q2566.14 332.543 2568.43 333.168 Q2570.72 333.769 2572.97 333.769 Q2575.98 333.769 2577.6 332.751 Q2579.22 331.709 2579.22 329.834 Q2579.22 328.098 2578.04 327.172 Q2576.88 326.246 2572.92 325.39 L2571.44 325.043 Q2567.48 324.209 2565.72 322.496 Q2563.96 320.76 2563.96 317.751 Q2563.96 314.094 2566.56 312.103 Q2569.15 310.112 2573.92 310.112 Q2576.28 310.112 2578.36 310.459 Q2580.44 310.807 2582.2 311.501 Z" fill="#000000" fill-rule="nonzero" fill-opacity="1" /><path clip-path="url(#clip830)" d="M2589.7 300.691 L2593.41 300.691 Q2596.88 306.154 2598.59 311.385 Q2600.33 316.617 2600.33 321.779 Q2600.33 326.964 2598.59 332.218 Q2596.88 337.473 2593.41 342.913 L2589.7 342.913 Q2592.78 337.612 2594.29 332.381 Q2595.81 327.126 2595.81 321.779 Q2595.81 316.432 2594.29 311.223 Q2592.78 306.015 2589.7 300.691 Z" fill="#000000" fill-rule="nonzero" fill-opacity="1" /></svg>
