<?xml version="1.0" encoding="utf-8"?>
<svg xmlns="http://www.w3.org/2000/svg" xmlns:xlink="http://www.w3.org/1999/xlink" width="672" height="480" viewBox="0 0 2688 1920">
<defs>
  <clipPath id="clip190">
    <rect x="0" y="0" width="2688" height="1920"/>
  </clipPath>
</defs>
<path clip-path="url(#clip190)" d="M0 1920 L2688 1920 L2688 -4.26326e-14 L0 -4.26326e-14  Z" fill="#ffffff" fill-rule="evenodd" fill-opacity="1"/>
<defs>
  <clipPath id="clip191">
    <rect x="319" y="127" width="2322" height="1607"/>
  </clipPath>
</defs>
<path clip-path="url(#clip190)" d="M319.9 1734.12 L2640.76 1734.12 L2640.76 127.792 L319.9 127.792  Z" fill="#ffffff" fill-rule="evenodd" fill-opacity="1"/>
<polyline clip-path="url(#clip191)" style="stroke:#000000; stroke-linecap:round; stroke-linejoin:round; stroke-width:2; stroke-opacity:0.1; fill:none" points="385.585,1734.12 385.585,127.792 "/>
<polyline clip-path="url(#clip191)" style="stroke:#000000; stroke-linecap:round; stroke-linejoin:round; stroke-width:2; stroke-opacity:0.1; fill:none" points="750.499,1734.12 750.499,127.792 "/>
<polyline clip-path="url(#clip191)" style="stroke:#000000; stroke-linecap:round; stroke-linejoin:round; stroke-width:2; stroke-opacity:0.1; fill:none" points="1115.41,1734.12 1115.41,127.792 "/>
<polyline clip-path="url(#clip191)" style="stroke:#000000; stroke-linecap:round; stroke-linejoin:round; stroke-width:2; stroke-opacity:0.1; fill:none" points="1480.33,1734.12 1480.33,127.792 "/>
<polyline clip-path="url(#clip191)" style="stroke:#000000; stroke-linecap:round; stroke-linejoin:round; stroke-width:2; stroke-opacity:0.1; fill:none" points="1845.24,1734.12 1845.24,127.792 "/>
<polyline clip-path="url(#clip191)" style="stroke:#000000; stroke-linecap:round; stroke-linejoin:round; stroke-width:2; stroke-opacity:0.1; fill:none" points="2210.16,1734.12 2210.16,127.792 "/>
<polyline clip-path="url(#clip191)" style="stroke:#000000; stroke-linecap:round; stroke-linejoin:round; stroke-width:2; stroke-opacity:0.1; fill:none" points="2575.07,1734.12 2575.07,127.792 "/>
<polyline clip-path="url(#clip191)" style="stroke:#000000; stroke-linecap:round; stroke-linejoin:round; stroke-width:2; stroke-opacity:0.1; fill:none" points="319.9,1554.76 2640.76,1554.76 "/>
<polyline clip-path="url(#clip191)" style="stroke:#000000; stroke-linecap:round; stroke-linejoin:round; stroke-width:2; stroke-opacity:0.1; fill:none" points="319.9,1241.39 2640.76,1241.39 "/>
<polyline clip-path="url(#clip191)" style="stroke:#000000; stroke-linecap:round; stroke-linejoin:round; stroke-width:2; stroke-opacity:0.1; fill:none" points="319.9,928.015 2640.76,928.015 "/>
<polyline clip-path="url(#clip191)" style="stroke:#000000; stroke-linecap:round; stroke-linejoin:round; stroke-width:2; stroke-opacity:0.1; fill:none" points="319.9,614.642 2640.76,614.642 "/>
<polyline clip-path="url(#clip191)" style="stroke:#000000; stroke-linecap:round; stroke-linejoin:round; stroke-width:2; stroke-opacity:0.1; fill:none" points="319.9,301.269 2640.76,301.269 "/>
<polyline clip-path="url(#clip190)" style="stroke:#000000; stroke-linecap:round; stroke-linejoin:round; stroke-width:4; stroke-opacity:1; fill:none" points="319.9,1734.12 2640.76,1734.12 "/>
<polyline clip-path="url(#clip190)" style="stroke:#000000; stroke-linecap:round; stroke-linejoin:round; stroke-width:4; stroke-opacity:1; fill:none" points="385.585,1734.12 385.585,1715.22 "/>
<polyline clip-path="url(#clip190)" style="stroke:#000000; stroke-linecap:round; stroke-linejoin:round; stroke-width:4; stroke-opacity:1; fill:none" points="750.499,1734.12 750.499,1715.22 "/>
<polyline clip-path="url(#clip190)" style="stroke:#000000; stroke-linecap:round; stroke-linejoin:round; stroke-width:4; stroke-opacity:1; fill:none" points="1115.41,1734.12 1115.41,1715.22 "/>
<polyline clip-path="url(#clip190)" style="stroke:#000000; stroke-linecap:round; stroke-linejoin:round; stroke-width:4; stroke-opacity:1; fill:none" points="1480.33,1734.12 1480.33,1715.22 "/>
<polyline clip-path="url(#clip190)" style="stroke:#000000; stroke-linecap:round; stroke-linejoin:round; stroke-width:4; stroke-opacity:1; fill:none" points="1845.24,1734.12 1845.24,1715.22 "/>
<polyline clip-path="url(#clip190)" style="stroke:#000000; stroke-linecap:round; stroke-linejoin:round; stroke-width:4; stroke-opacity:1; fill:none" points="2210.16,1734.12 2210.16,1715.22 "/>
<polyline clip-path="url(#clip190)" style="stroke:#000000; stroke-linecap:round; stroke-linejoin:round; stroke-width:4; stroke-opacity:1; fill:none" points="2575.07,1734.12 2575.07,1715.22 "/>
<path clip-path="url(#clip190)" d="M385.585 1767.34 Q381.974 1767.34 380.145 1770.9 Q378.339 1774.45 378.339 1781.58 Q378.339 1788.68 380.145 1792.25 Q381.974 1795.79 385.585 1795.79 Q389.219 1795.79 391.025 1792.25 Q392.853 1788.68 392.853 1781.58 Q392.853 1774.45 391.025 1770.9 Q389.219 1767.34 385.585 1767.34 M385.585 1763.64 Q391.395 1763.64 394.45 1768.24 Q397.529 1772.83 397.529 1781.58 Q397.529 1790.3 394.45 1794.91 Q391.395 1799.49 385.585 1799.49 Q379.775 1799.49 376.696 1794.91 Q373.64 1790.3 373.64 1781.58 Q373.64 1772.83 376.696 1768.24 Q379.775 1763.64 385.585 1763.64 Z" fill="#000000" fill-rule="nonzero" fill-opacity="1" /><path clip-path="url(#clip190)" d="M725.187 1794.89 L732.826 1794.89 L732.826 1768.52 L724.516 1770.19 L724.516 1765.93 L732.779 1764.26 L737.455 1764.26 L737.455 1794.89 L745.094 1794.89 L745.094 1798.82 L725.187 1798.82 L725.187 1794.89 Z" fill="#000000" fill-rule="nonzero" fill-opacity="1" /><path clip-path="url(#clip190)" d="M764.538 1767.34 Q760.927 1767.34 759.099 1770.9 Q757.293 1774.45 757.293 1781.58 Q757.293 1788.68 759.099 1792.25 Q760.927 1795.79 764.538 1795.79 Q768.173 1795.79 769.978 1792.25 Q771.807 1788.68 771.807 1781.58 Q771.807 1774.45 769.978 1770.9 Q768.173 1767.34 764.538 1767.34 M764.538 1763.64 Q770.349 1763.64 773.404 1768.24 Q776.483 1772.83 776.483 1781.58 Q776.483 1790.3 773.404 1794.91 Q770.349 1799.49 764.538 1799.49 Q758.728 1799.49 755.65 1794.91 Q752.594 1790.3 752.594 1781.58 Q752.594 1772.83 755.65 1768.24 Q758.728 1763.64 764.538 1763.64 Z" fill="#000000" fill-rule="nonzero" fill-opacity="1" /><path clip-path="url(#clip190)" d="M1094.19 1794.89 L1110.51 1794.89 L1110.51 1798.82 L1088.56 1798.82 L1088.56 1794.89 Q1091.22 1792.13 1095.81 1787.5 Q1100.41 1782.85 1101.59 1781.51 Q1103.84 1778.98 1104.72 1777.25 Q1105.62 1775.49 1105.62 1773.8 Q1105.62 1771.04 1103.68 1769.31 Q1101.76 1767.57 1098.65 1767.57 Q1096.46 1767.57 1094 1768.34 Q1091.57 1769.1 1088.79 1770.65 L1088.79 1765.93 Q1091.62 1764.79 1094.07 1764.21 Q1096.52 1763.64 1098.56 1763.64 Q1103.93 1763.64 1107.13 1766.32 Q1110.32 1769.01 1110.32 1773.5 Q1110.32 1775.63 1109.51 1777.55 Q1108.72 1779.45 1106.62 1782.04 Q1106.04 1782.71 1102.94 1785.93 Q1099.83 1789.12 1094.19 1794.89 Z" fill="#000000" fill-rule="nonzero" fill-opacity="1" /><path clip-path="url(#clip190)" d="M1130.32 1767.34 Q1126.71 1767.34 1124.88 1770.9 Q1123.08 1774.45 1123.08 1781.58 Q1123.08 1788.68 1124.88 1792.25 Q1126.71 1795.79 1130.32 1795.79 Q1133.96 1795.79 1135.76 1792.25 Q1137.59 1788.68 1137.59 1781.58 Q1137.59 1774.45 1135.76 1770.9 Q1133.96 1767.34 1130.32 1767.34 M1130.32 1763.64 Q1136.13 1763.64 1139.19 1768.24 Q1142.27 1772.83 1142.27 1781.58 Q1142.27 1790.3 1139.19 1794.91 Q1136.13 1799.49 1130.32 1799.49 Q1124.51 1799.49 1121.43 1794.91 Q1118.38 1790.3 1118.38 1781.58 Q1118.38 1772.83 1121.43 1768.24 Q1124.51 1763.64 1130.32 1763.64 Z" fill="#000000" fill-rule="nonzero" fill-opacity="1" /><path clip-path="url(#clip190)" d="M1469.17 1780.19 Q1472.53 1780.9 1474.4 1783.17 Q1476.3 1785.44 1476.3 1788.77 Q1476.3 1793.89 1472.78 1796.69 Q1469.26 1799.49 1462.78 1799.49 Q1460.61 1799.49 1458.29 1799.05 Q1456 1798.64 1453.55 1797.78 L1453.55 1793.27 Q1455.49 1794.4 1457.81 1794.98 Q1460.12 1795.56 1462.64 1795.56 Q1467.04 1795.56 1469.33 1793.82 Q1471.65 1792.08 1471.65 1788.77 Q1471.65 1785.72 1469.49 1784.01 Q1467.37 1782.27 1463.55 1782.27 L1459.52 1782.27 L1459.52 1778.43 L1463.73 1778.43 Q1467.18 1778.43 1469.01 1777.06 Q1470.84 1775.67 1470.84 1773.08 Q1470.84 1770.42 1468.94 1769.01 Q1467.06 1767.57 1463.55 1767.57 Q1461.62 1767.57 1459.43 1767.99 Q1457.23 1768.4 1454.59 1769.28 L1454.59 1765.12 Q1457.25 1764.38 1459.56 1764.01 Q1461.9 1763.64 1463.96 1763.64 Q1469.29 1763.64 1472.39 1766.07 Q1475.49 1768.47 1475.49 1772.59 Q1475.49 1775.46 1473.85 1777.46 Q1472.2 1779.42 1469.17 1780.19 Z" fill="#000000" fill-rule="nonzero" fill-opacity="1" /><path clip-path="url(#clip190)" d="M1495.17 1767.34 Q1491.55 1767.34 1489.73 1770.9 Q1487.92 1774.45 1487.92 1781.58 Q1487.92 1788.68 1489.73 1792.25 Q1491.55 1795.79 1495.17 1795.79 Q1498.8 1795.79 1500.61 1792.25 Q1502.43 1788.68 1502.43 1781.58 Q1502.43 1774.45 1500.61 1770.9 Q1498.8 1767.34 1495.17 1767.34 M1495.17 1763.64 Q1500.98 1763.64 1504.03 1768.24 Q1507.11 1772.83 1507.11 1781.58 Q1507.11 1790.3 1504.03 1794.91 Q1500.98 1799.49 1495.17 1799.49 Q1489.36 1799.49 1486.28 1794.91 Q1483.22 1790.3 1483.22 1781.58 Q1483.22 1772.83 1486.28 1768.24 Q1489.36 1763.64 1495.17 1763.64 Z" fill="#000000" fill-rule="nonzero" fill-opacity="1" /><path clip-path="url(#clip190)" d="M1833.41 1768.34 L1821.61 1786.78 L1833.41 1786.78 L1833.41 1768.34 M1832.19 1764.26 L1838.07 1764.26 L1838.07 1786.78 L1843 1786.78 L1843 1790.67 L1838.07 1790.67 L1838.07 1798.82 L1833.41 1798.82 L1833.41 1790.67 L1817.81 1790.67 L1817.81 1786.16 L1832.19 1764.26 Z" fill="#000000" fill-rule="nonzero" fill-opacity="1" /><path clip-path="url(#clip190)" d="M1860.73 1767.34 Q1857.12 1767.34 1855.29 1770.9 Q1853.48 1774.45 1853.48 1781.58 Q1853.48 1788.68 1855.29 1792.25 Q1857.12 1795.79 1860.73 1795.79 Q1864.36 1795.79 1866.17 1792.25 Q1868 1788.68 1868 1781.58 Q1868 1774.45 1866.17 1770.9 Q1864.36 1767.34 1860.73 1767.34 M1860.73 1763.64 Q1866.54 1763.64 1869.59 1768.24 Q1872.67 1772.83 1872.67 1781.58 Q1872.67 1790.3 1869.59 1794.91 Q1866.54 1799.49 1860.73 1799.49 Q1854.92 1799.49 1851.84 1794.91 Q1848.78 1790.3 1848.78 1781.58 Q1848.78 1772.83 1851.84 1768.24 Q1854.92 1763.64 1860.73 1763.64 Z" fill="#000000" fill-rule="nonzero" fill-opacity="1" /><path clip-path="url(#clip190)" d="M2184.86 1764.26 L2203.21 1764.26 L2203.21 1768.2 L2189.14 1768.2 L2189.14 1776.67 Q2190.16 1776.32 2191.18 1776.16 Q2192.19 1775.97 2193.21 1775.97 Q2199 1775.97 2202.38 1779.15 Q2205.76 1782.32 2205.76 1787.73 Q2205.76 1793.31 2202.29 1796.41 Q2198.81 1799.49 2192.49 1799.49 Q2190.32 1799.49 2188.05 1799.12 Q2185.81 1798.75 2183.4 1798.01 L2183.4 1793.31 Q2185.48 1794.45 2187.7 1795 Q2189.93 1795.56 2192.4 1795.56 Q2196.41 1795.56 2198.74 1793.45 Q2201.08 1791.34 2201.08 1787.73 Q2201.08 1784.12 2198.74 1782.02 Q2196.41 1779.91 2192.4 1779.91 Q2190.53 1779.91 2188.65 1780.33 Q2186.8 1780.74 2184.86 1781.62 L2184.86 1764.26 Z" fill="#000000" fill-rule="nonzero" fill-opacity="1" /><path clip-path="url(#clip190)" d="M2224.97 1767.34 Q2221.36 1767.34 2219.53 1770.9 Q2217.73 1774.45 2217.73 1781.58 Q2217.73 1788.68 2219.53 1792.25 Q2221.36 1795.79 2224.97 1795.79 Q2228.61 1795.79 2230.41 1792.25 Q2232.24 1788.68 2232.24 1781.58 Q2232.24 1774.45 2230.41 1770.9 Q2228.61 1767.34 2224.97 1767.34 M2224.97 1763.64 Q2230.78 1763.64 2233.84 1768.24 Q2236.92 1772.83 2236.92 1781.58 Q2236.92 1790.3 2233.84 1794.91 Q2230.78 1799.49 2224.97 1799.49 Q2219.16 1799.49 2216.08 1794.91 Q2213.03 1790.3 2213.03 1781.58 Q2213.03 1772.83 2216.08 1768.24 Q2219.16 1763.64 2224.97 1763.64 Z" fill="#000000" fill-rule="nonzero" fill-opacity="1" /><path clip-path="url(#clip190)" d="M2560.48 1779.68 Q2557.33 1779.68 2555.48 1781.83 Q2553.65 1783.98 2553.65 1787.73 Q2553.65 1791.46 2555.48 1793.64 Q2557.33 1795.79 2560.48 1795.79 Q2563.62 1795.79 2565.45 1793.64 Q2567.31 1791.46 2567.31 1787.73 Q2567.31 1783.98 2565.45 1781.83 Q2563.62 1779.68 2560.48 1779.68 M2569.76 1765.02 L2569.76 1769.28 Q2568 1768.45 2566.19 1768.01 Q2564.41 1767.57 2562.65 1767.57 Q2558.02 1767.57 2555.57 1770.7 Q2553.14 1773.82 2552.79 1780.14 Q2554.16 1778.13 2556.22 1777.06 Q2558.28 1775.97 2560.75 1775.97 Q2565.96 1775.97 2568.97 1779.15 Q2572 1782.29 2572 1787.73 Q2572 1793.06 2568.86 1796.27 Q2565.71 1799.49 2560.48 1799.49 Q2554.48 1799.49 2551.31 1794.91 Q2548.14 1790.3 2548.14 1781.58 Q2548.14 1773.38 2552.03 1768.52 Q2555.92 1763.64 2562.47 1763.64 Q2564.23 1763.64 2566.01 1763.98 Q2567.81 1764.33 2569.76 1765.02 Z" fill="#000000" fill-rule="nonzero" fill-opacity="1" /><path clip-path="url(#clip190)" d="M2590.06 1767.34 Q2586.45 1767.34 2584.62 1770.9 Q2582.81 1774.45 2582.81 1781.58 Q2582.81 1788.68 2584.62 1792.25 Q2586.45 1795.79 2590.06 1795.79 Q2593.69 1795.79 2595.5 1792.25 Q2597.33 1788.68 2597.33 1781.58 Q2597.33 1774.45 2595.5 1770.9 Q2593.69 1767.34 2590.06 1767.34 M2590.06 1763.64 Q2595.87 1763.64 2598.93 1768.24 Q2602 1772.83 2602 1781.58 Q2602 1790.3 2598.93 1794.91 Q2595.87 1799.49 2590.06 1799.49 Q2584.25 1799.49 2581.17 1794.91 Q2578.12 1790.3 2578.12 1781.58 Q2578.12 1772.83 2581.17 1768.24 Q2584.25 1763.64 2590.06 1763.64 Z" fill="#000000" fill-rule="nonzero" fill-opacity="1" /><path clip-path="url(#clip190)" d="M1441.05 1842.11 L1432.33 1865.76 L1449.8 1865.76 L1441.05 1842.11 M1437.42 1835.78 L1444.71 1835.78 L1462.82 1883.3 L1456.14 1883.3 L1451.81 1871.11 L1430.39 1871.11 L1426.06 1883.3 L1419.28 1883.3 L1437.42 1835.78 Z" fill="#000000" fill-rule="nonzero" fill-opacity="1" /><path clip-path="url(#clip190)" d="M1492.96 1865.06 Q1492.96 1858.7 1490.32 1855.2 Q1487.71 1851.7 1482.97 1851.7 Q1478.26 1851.7 1475.62 1855.2 Q1473.01 1858.7 1473.01 1865.06 Q1473.01 1871.4 1475.62 1874.9 Q1478.26 1878.4 1482.97 1878.4 Q1487.71 1878.4 1490.32 1874.9 Q1492.96 1871.4 1492.96 1865.06 M1498.82 1878.88 Q1498.82 1887.98 1494.78 1892.4 Q1490.74 1896.86 1482.4 1896.86 Q1479.31 1896.86 1476.57 1896.38 Q1473.84 1895.94 1471.26 1894.98 L1471.26 1889.28 Q1473.84 1890.69 1476.35 1891.35 Q1478.86 1892.02 1481.47 1892.02 Q1487.23 1892.02 1490.1 1889 Q1492.96 1886.01 1492.96 1879.93 L1492.96 1877.03 Q1491.15 1880.18 1488.32 1881.74 Q1485.48 1883.3 1481.54 1883.3 Q1474.98 1883.3 1470.97 1878.3 Q1466.96 1873.31 1466.96 1865.06 Q1466.96 1856.79 1470.97 1851.79 Q1474.98 1846.79 1481.54 1846.79 Q1485.48 1846.79 1488.32 1848.35 Q1491.15 1849.91 1492.96 1853.06 L1492.96 1847.65 L1498.82 1847.65 L1498.82 1878.88 Z" fill="#000000" fill-rule="nonzero" fill-opacity="1" /><path clip-path="url(#clip190)" d="M1541.38 1864.01 L1541.38 1866.88 L1514.45 1866.88 Q1514.83 1872.92 1518.08 1876.11 Q1521.36 1879.26 1527.18 1879.26 Q1530.55 1879.26 1533.7 1878.43 Q1536.89 1877.6 1540.01 1875.95 L1540.01 1881.49 Q1536.86 1882.82 1533.55 1883.52 Q1530.24 1884.22 1526.83 1884.22 Q1518.3 1884.22 1513.3 1879.26 Q1508.34 1874.29 1508.34 1865.83 Q1508.34 1857.07 1513.05 1851.95 Q1517.79 1846.79 1525.81 1846.79 Q1533 1846.79 1537.17 1851.44 Q1541.38 1856.06 1541.38 1864.01 M1535.52 1862.29 Q1535.46 1857.49 1532.81 1854.62 Q1530.2 1851.76 1525.87 1851.76 Q1520.97 1851.76 1518.01 1854.53 Q1515.08 1857.3 1514.64 1862.33 L1535.52 1862.29 Z" fill="#000000" fill-rule="nonzero" fill-opacity="1" /><polyline clip-path="url(#clip190)" style="stroke:#000000; stroke-linecap:round; stroke-linejoin:round; stroke-width:4; stroke-opacity:1; fill:none" points="319.9,1734.12 319.9,127.792 "/>
<polyline clip-path="url(#clip190)" style="stroke:#000000; stroke-linecap:round; stroke-linejoin:round; stroke-width:4; stroke-opacity:1; fill:none" points="319.9,1554.76 338.798,1554.76 "/>
<polyline clip-path="url(#clip190)" style="stroke:#000000; stroke-linecap:round; stroke-linejoin:round; stroke-width:4; stroke-opacity:1; fill:none" points="319.9,1241.39 338.798,1241.39 "/>
<polyline clip-path="url(#clip190)" style="stroke:#000000; stroke-linecap:round; stroke-linejoin:round; stroke-width:4; stroke-opacity:1; fill:none" points="319.9,928.015 338.798,928.015 "/>
<polyline clip-path="url(#clip190)" style="stroke:#000000; stroke-linecap:round; stroke-linejoin:round; stroke-width:4; stroke-opacity:1; fill:none" points="319.9,614.642 338.798,614.642 "/>
<polyline clip-path="url(#clip190)" style="stroke:#000000; stroke-linecap:round; stroke-linejoin:round; stroke-width:4; stroke-opacity:1; fill:none" points="319.9,301.269 338.798,301.269 "/>
<path clip-path="url(#clip190)" d="M116.886 1574.55 L124.525 1574.55 L124.525 1548.19 L116.214 1549.85 L116.214 1545.6 L124.478 1543.93 L129.154 1543.93 L129.154 1574.55 L136.793 1574.55 L136.793 1578.49 L116.886 1578.49 L116.886 1574.55 Z" fill="#000000" fill-rule="nonzero" fill-opacity="1" /><path clip-path="url(#clip190)" d="M156.237 1547.01 Q152.626 1547.01 150.798 1550.57 Q148.992 1554.11 148.992 1561.24 Q148.992 1568.35 150.798 1571.91 Q152.626 1575.46 156.237 1575.46 Q159.872 1575.46 161.677 1571.91 Q163.506 1568.35 163.506 1561.24 Q163.506 1554.11 161.677 1550.57 Q159.872 1547.01 156.237 1547.01 M156.237 1543.3 Q162.048 1543.3 165.103 1547.91 Q168.182 1552.49 168.182 1561.24 Q168.182 1569.97 165.103 1574.58 Q162.048 1579.16 156.237 1579.16 Q150.427 1579.16 147.349 1574.58 Q144.293 1569.97 144.293 1561.24 Q144.293 1552.49 147.349 1547.91 Q150.427 1543.3 156.237 1543.3 Z" fill="#000000" fill-rule="nonzero" fill-opacity="1" /><path clip-path="url(#clip190)" d="M168.182 1537.4 L192.293 1537.4 L192.293 1540.6 L168.182 1540.6 L168.182 1537.4 Z" fill="#000000" fill-rule="nonzero" fill-opacity="1" /><path clip-path="url(#clip190)" d="M203.766 1547.88 L217.026 1547.88 L217.026 1551.08 L199.196 1551.08 L199.196 1547.88 Q201.359 1545.64 205.083 1541.88 Q208.825 1538.1 209.785 1537.01 Q211.609 1534.96 212.324 1533.55 Q213.057 1532.12 213.057 1530.75 Q213.057 1528.51 211.477 1527.1 Q209.916 1525.69 207.396 1525.69 Q205.609 1525.69 203.616 1526.31 Q201.641 1526.93 199.384 1528.19 L199.384 1524.35 Q201.678 1523.43 203.672 1522.96 Q205.666 1522.49 207.321 1522.49 Q211.684 1522.49 214.28 1524.67 Q216.875 1526.85 216.875 1530.5 Q216.875 1532.23 216.217 1533.79 Q215.577 1535.34 213.866 1537.44 Q213.396 1537.99 210.875 1540.6 Q208.355 1543.2 203.766 1547.88 Z" fill="#000000" fill-rule="nonzero" fill-opacity="1" /><path clip-path="url(#clip190)" d="M225 1546.3 L228.968 1546.3 L228.968 1551.08 L225 1551.08 L225 1546.3 Z" fill="#000000" fill-rule="nonzero" fill-opacity="1" /><path clip-path="url(#clip190)" d="M245.369 1525.5 Q242.435 1525.5 240.949 1528.4 Q239.482 1531.27 239.482 1537.07 Q239.482 1542.84 240.949 1545.74 Q242.435 1548.61 245.369 1548.61 Q248.322 1548.61 249.789 1545.74 Q251.274 1542.84 251.274 1537.07 Q251.274 1531.27 249.789 1528.4 Q248.322 1525.5 245.369 1525.5 M245.369 1522.49 Q250.09 1522.49 252.572 1526.23 Q255.074 1529.96 255.074 1537.07 Q255.074 1544.16 252.572 1547.9 Q250.09 1551.62 245.369 1551.62 Q240.648 1551.62 238.147 1547.9 Q235.664 1544.16 235.664 1537.07 Q235.664 1529.96 238.147 1526.23 Q240.648 1522.49 245.369 1522.49 Z" fill="#000000" fill-rule="nonzero" fill-opacity="1" /><path clip-path="url(#clip190)" d="M269.875 1525.5 Q266.941 1525.5 265.456 1528.4 Q263.989 1531.27 263.989 1537.07 Q263.989 1542.84 265.456 1545.74 Q266.941 1548.61 269.875 1548.61 Q272.828 1548.61 274.295 1545.74 Q275.781 1542.84 275.781 1537.07 Q275.781 1531.27 274.295 1528.4 Q272.828 1525.5 269.875 1525.5 M269.875 1522.49 Q274.596 1522.49 277.079 1526.23 Q279.58 1529.96 279.58 1537.07 Q279.58 1544.16 277.079 1547.9 Q274.596 1551.62 269.875 1551.62 Q265.155 1551.62 262.653 1547.9 Q260.171 1544.16 260.171 1537.07 Q260.171 1529.96 262.653 1526.23 Q265.155 1522.49 269.875 1522.49 Z" fill="#000000" fill-rule="nonzero" fill-opacity="1" /><path clip-path="url(#clip190)" d="M117.694 1261.18 L125.333 1261.18 L125.333 1234.81 L117.023 1236.48 L117.023 1232.22 L125.287 1230.56 L129.963 1230.56 L129.963 1261.18 L137.602 1261.18 L137.602 1265.12 L117.694 1265.12 L117.694 1261.18 Z" fill="#000000" fill-rule="nonzero" fill-opacity="1" /><path clip-path="url(#clip190)" d="M157.046 1233.63 Q153.435 1233.63 151.606 1237.2 Q149.801 1240.74 149.801 1247.87 Q149.801 1254.98 151.606 1258.54 Q153.435 1262.08 157.046 1262.08 Q160.68 1262.08 162.486 1258.54 Q164.315 1254.98 164.315 1247.87 Q164.315 1240.74 162.486 1237.2 Q160.68 1233.63 157.046 1233.63 M157.046 1229.93 Q162.856 1229.93 165.912 1234.54 Q168.99 1239.12 168.99 1247.87 Q168.99 1256.6 165.912 1261.2 Q162.856 1265.79 157.046 1265.79 Q151.236 1265.79 148.157 1261.2 Q145.102 1256.6 145.102 1247.87 Q145.102 1239.12 148.157 1234.54 Q151.236 1229.93 157.046 1229.93 Z" fill="#000000" fill-rule="nonzero" fill-opacity="1" /><path clip-path="url(#clip190)" d="M168.99 1224.03 L193.102 1224.03 L193.102 1227.23 L168.99 1227.23 L168.99 1224.03 Z" fill="#000000" fill-rule="nonzero" fill-opacity="1" /><path clip-path="url(#clip190)" d="M201.961 1234.51 L208.167 1234.51 L208.167 1213.09 L201.415 1214.44 L201.415 1210.98 L208.129 1209.63 L211.929 1209.63 L211.929 1234.51 L218.135 1234.51 L218.135 1237.71 L201.961 1237.71 L201.961 1234.51 Z" fill="#000000" fill-rule="nonzero" fill-opacity="1" /><path clip-path="url(#clip190)" d="M225.809 1232.93 L229.777 1232.93 L229.777 1237.71 L225.809 1237.71 L225.809 1232.93 Z" fill="#000000" fill-rule="nonzero" fill-opacity="1" /><path clip-path="url(#clip190)" d="M237.093 1209.63 L255.149 1209.63 L255.149 1211.24 L244.955 1237.71 L240.987 1237.71 L250.579 1212.82 L237.093 1212.82 L237.093 1209.63 Z" fill="#000000" fill-rule="nonzero" fill-opacity="1" /><path clip-path="url(#clip190)" d="M262.597 1209.63 L277.511 1209.63 L277.511 1212.82 L266.076 1212.82 L266.076 1219.71 Q266.904 1219.42 267.731 1219.29 Q268.559 1219.14 269.386 1219.14 Q274.088 1219.14 276.834 1221.72 Q279.58 1224.3 279.58 1228.7 Q279.58 1233.23 276.759 1235.75 Q273.938 1238.25 268.803 1238.25 Q267.035 1238.25 265.192 1237.95 Q263.368 1237.65 261.412 1237.05 L261.412 1233.23 Q263.105 1234.15 264.91 1234.6 Q266.716 1235.05 268.728 1235.05 Q271.982 1235.05 273.881 1233.34 Q275.781 1231.63 275.781 1228.7 Q275.781 1225.76 273.881 1224.05 Q271.982 1222.34 268.728 1222.34 Q267.205 1222.34 265.681 1222.68 Q264.177 1223.02 262.597 1223.73 L262.597 1209.63 Z" fill="#000000" fill-rule="nonzero" fill-opacity="1" /><path clip-path="url(#clip190)" d="M116.886 947.807 L124.525 947.807 L124.525 921.442 L116.214 923.108 L116.214 918.849 L124.478 917.182 L129.154 917.182 L129.154 947.807 L136.793 947.807 L136.793 951.742 L116.886 951.742 L116.886 947.807 Z" fill="#000000" fill-rule="nonzero" fill-opacity="1" /><path clip-path="url(#clip190)" d="M156.237 920.261 Q152.626 920.261 150.798 923.826 Q148.992 927.368 148.992 934.497 Q148.992 941.604 150.798 945.168 Q152.626 948.71 156.237 948.71 Q159.872 948.71 161.677 945.168 Q163.506 941.604 163.506 934.497 Q163.506 927.368 161.677 923.826 Q159.872 920.261 156.237 920.261 M156.237 916.557 Q162.048 916.557 165.103 921.164 Q168.182 925.747 168.182 934.497 Q168.182 943.224 165.103 947.83 Q162.048 952.414 156.237 952.414 Q150.427 952.414 147.349 947.83 Q144.293 943.224 144.293 934.497 Q144.293 925.747 147.349 921.164 Q150.427 916.557 156.237 916.557 Z" fill="#000000" fill-rule="nonzero" fill-opacity="1" /><path clip-path="url(#clip190)" d="M168.182 910.659 L192.293 910.659 L192.293 913.856 L168.182 913.856 L168.182 910.659 Z" fill="#000000" fill-rule="nonzero" fill-opacity="1" /><path clip-path="url(#clip190)" d="M201.152 921.135 L207.358 921.135 L207.358 899.713 L200.606 901.067 L200.606 897.606 L207.321 896.252 L211.12 896.252 L211.12 921.135 L217.326 921.135 L217.326 924.332 L201.152 924.332 L201.152 921.135 Z" fill="#000000" fill-rule="nonzero" fill-opacity="1" /><path clip-path="url(#clip190)" d="M225 919.555 L228.968 919.555 L228.968 924.332 L225 924.332 L225 919.555 Z" fill="#000000" fill-rule="nonzero" fill-opacity="1" /><path clip-path="url(#clip190)" d="M237.282 896.252 L252.196 896.252 L252.196 899.449 L240.761 899.449 L240.761 906.333 Q241.588 906.051 242.416 905.919 Q243.244 905.769 244.071 905.769 Q248.773 905.769 251.519 908.345 Q254.265 910.922 254.265 915.323 Q254.265 919.856 251.444 922.376 Q248.623 924.877 243.488 924.877 Q241.72 924.877 239.877 924.577 Q238.053 924.276 236.097 923.674 L236.097 919.856 Q237.789 920.777 239.595 921.229 Q241.4 921.68 243.413 921.68 Q246.667 921.68 248.566 919.969 Q250.466 918.257 250.466 915.323 Q250.466 912.389 248.566 910.678 Q246.667 908.966 243.413 908.966 Q241.889 908.966 240.366 909.305 Q238.861 909.643 237.282 910.358 L237.282 896.252 Z" fill="#000000" fill-rule="nonzero" fill-opacity="1" /><path clip-path="url(#clip190)" d="M269.875 898.753 Q266.941 898.753 265.456 901.65 Q263.989 904.527 263.989 910.32 Q263.989 916.094 265.456 918.991 Q266.941 921.868 269.875 921.868 Q272.828 921.868 274.295 918.991 Q275.781 916.094 275.781 910.32 Q275.781 904.527 274.295 901.65 Q272.828 898.753 269.875 898.753 M269.875 895.744 Q274.596 895.744 277.079 899.487 Q279.58 903.211 279.58 910.32 Q279.58 917.411 277.079 921.154 Q274.596 924.877 269.875 924.877 Q265.155 924.877 262.653 921.154 Q260.171 917.411 260.171 910.32 Q260.171 903.211 262.653 899.487 Q265.155 895.744 269.875 895.744 Z" fill="#000000" fill-rule="nonzero" fill-opacity="1" /><path clip-path="url(#clip190)" d="M117.694 634.434 L125.333 634.434 L125.333 608.069 L117.023 609.735 L117.023 605.476 L125.287 603.809 L129.963 603.809 L129.963 634.434 L137.602 634.434 L137.602 638.369 L117.694 638.369 L117.694 634.434 Z" fill="#000000" fill-rule="nonzero" fill-opacity="1" /><path clip-path="url(#clip190)" d="M157.046 606.888 Q153.435 606.888 151.606 610.453 Q149.801 613.994 149.801 621.124 Q149.801 628.231 151.606 631.795 Q153.435 635.337 157.046 635.337 Q160.68 635.337 162.486 631.795 Q164.315 628.231 164.315 621.124 Q164.315 613.994 162.486 610.453 Q160.68 606.888 157.046 606.888 M157.046 603.184 Q162.856 603.184 165.912 607.791 Q168.99 612.374 168.99 621.124 Q168.99 629.851 165.912 634.457 Q162.856 639.041 157.046 639.041 Q151.236 639.041 148.157 634.457 Q145.102 629.851 145.102 621.124 Q145.102 612.374 148.157 607.791 Q151.236 603.184 157.046 603.184 Z" fill="#000000" fill-rule="nonzero" fill-opacity="1" /><path clip-path="url(#clip190)" d="M168.99 597.286 L193.102 597.286 L193.102 600.483 L168.99 600.483 L168.99 597.286 Z" fill="#000000" fill-rule="nonzero" fill-opacity="1" /><path clip-path="url(#clip190)" d="M201.961 607.762 L208.167 607.762 L208.167 586.34 L201.415 587.694 L201.415 584.233 L208.129 582.879 L211.929 582.879 L211.929 607.762 L218.135 607.762 L218.135 610.959 L201.961 610.959 L201.961 607.762 Z" fill="#000000" fill-rule="nonzero" fill-opacity="1" /><path clip-path="url(#clip190)" d="M225.809 606.182 L229.777 606.182 L229.777 610.959 L225.809 610.959 L225.809 606.182 Z" fill="#000000" fill-rule="nonzero" fill-opacity="1" /><path clip-path="url(#clip190)" d="M241.325 607.762 L254.585 607.762 L254.585 610.959 L236.755 610.959 L236.755 607.762 Q238.918 605.524 242.642 601.762 Q246.384 597.982 247.344 596.891 Q249.168 594.841 249.883 593.43 Q250.616 592.001 250.616 590.628 Q250.616 588.39 249.036 586.979 Q247.475 585.568 244.955 585.568 Q243.168 585.568 241.175 586.189 Q239.2 586.81 236.943 588.07 L236.943 584.233 Q239.238 583.312 241.231 582.841 Q243.225 582.371 244.88 582.371 Q249.243 582.371 251.839 584.553 Q254.434 586.735 254.434 590.383 Q254.434 592.114 253.776 593.675 Q253.136 595.217 251.425 597.323 Q250.955 597.869 248.435 600.483 Q245.914 603.078 241.325 607.762 Z" fill="#000000" fill-rule="nonzero" fill-opacity="1" /><path clip-path="url(#clip190)" d="M262.597 582.879 L277.511 582.879 L277.511 586.076 L266.076 586.076 L266.076 592.96 Q266.904 592.678 267.731 592.546 Q268.559 592.396 269.386 592.396 Q274.088 592.396 276.834 594.972 Q279.58 597.549 279.58 601.95 Q279.58 606.483 276.759 609.003 Q273.938 611.504 268.803 611.504 Q267.035 611.504 265.192 611.203 Q263.368 610.903 261.412 610.301 L261.412 606.483 Q263.105 607.404 264.91 607.856 Q266.716 608.307 268.728 608.307 Q271.982 608.307 273.881 606.596 Q275.781 604.884 275.781 601.95 Q275.781 599.016 273.881 597.305 Q271.982 595.593 268.728 595.593 Q267.205 595.593 265.681 595.932 Q264.177 596.27 262.597 596.985 L262.597 582.879 Z" fill="#000000" fill-rule="nonzero" fill-opacity="1" /><path clip-path="url(#clip190)" d="M116.886 321.061 L124.525 321.061 L124.525 294.696 L116.214 296.362 L116.214 292.103 L124.478 290.436 L129.154 290.436 L129.154 321.061 L136.793 321.061 L136.793 324.996 L116.886 324.996 L116.886 321.061 Z" fill="#000000" fill-rule="nonzero" fill-opacity="1" /><path clip-path="url(#clip190)" d="M156.237 293.515 Q152.626 293.515 150.798 297.08 Q148.992 300.621 148.992 307.751 Q148.992 314.857 150.798 318.422 Q152.626 321.964 156.237 321.964 Q159.872 321.964 161.677 318.422 Q163.506 314.857 163.506 307.751 Q163.506 300.621 161.677 297.08 Q159.872 293.515 156.237 293.515 M156.237 289.811 Q162.048 289.811 165.103 294.418 Q168.182 299.001 168.182 307.751 Q168.182 316.478 165.103 321.084 Q162.048 325.668 156.237 325.668 Q150.427 325.668 147.349 321.084 Q144.293 316.478 144.293 307.751 Q144.293 299.001 147.349 294.418 Q150.427 289.811 156.237 289.811 Z" fill="#000000" fill-rule="nonzero" fill-opacity="1" /><path clip-path="url(#clip190)" d="M168.182 283.913 L192.293 283.913 L192.293 287.11 L168.182 287.11 L168.182 283.913 Z" fill="#000000" fill-rule="nonzero" fill-opacity="1" /><path clip-path="url(#clip190)" d="M201.152 294.389 L207.358 294.389 L207.358 272.966 L200.606 274.321 L200.606 270.86 L207.321 269.506 L211.12 269.506 L211.12 294.389 L217.326 294.389 L217.326 297.586 L201.152 297.586 L201.152 294.389 Z" fill="#000000" fill-rule="nonzero" fill-opacity="1" /><path clip-path="url(#clip190)" d="M225 292.809 L228.968 292.809 L228.968 297.586 L225 297.586 L225 292.809 Z" fill="#000000" fill-rule="nonzero" fill-opacity="1" /><path clip-path="url(#clip190)" d="M245.369 272.007 Q242.435 272.007 240.949 274.904 Q239.482 277.781 239.482 283.574 Q239.482 289.348 240.949 292.244 Q242.435 295.122 245.369 295.122 Q248.322 295.122 249.789 292.244 Q251.274 289.348 251.274 283.574 Q251.274 277.781 249.789 274.904 Q248.322 272.007 245.369 272.007 M245.369 268.998 Q250.09 268.998 252.572 272.741 Q255.074 276.465 255.074 283.574 Q255.074 290.665 252.572 294.407 Q250.09 298.131 245.369 298.131 Q240.648 298.131 238.147 294.407 Q235.664 290.665 235.664 283.574 Q235.664 276.465 238.147 272.741 Q240.648 268.998 245.369 268.998 Z" fill="#000000" fill-rule="nonzero" fill-opacity="1" /><path clip-path="url(#clip190)" d="M269.875 272.007 Q266.941 272.007 265.456 274.904 Q263.989 277.781 263.989 283.574 Q263.989 289.348 265.456 292.244 Q266.941 295.122 269.875 295.122 Q272.828 295.122 274.295 292.244 Q275.781 289.348 275.781 283.574 Q275.781 277.781 274.295 274.904 Q272.828 272.007 269.875 272.007 M269.875 268.998 Q274.596 268.998 277.079 272.741 Q279.58 276.465 279.58 283.574 Q279.58 290.665 277.079 294.407 Q274.596 298.131 269.875 298.131 Q265.155 298.131 262.653 294.407 Q260.171 290.665 260.171 283.574 Q260.171 276.465 262.653 272.741 Q265.155 268.998 269.875 268.998 Z" fill="#000000" fill-rule="nonzero" fill-opacity="1" /><path clip-path="url(#clip190)" d="M14.1184 1115.77 L14.1184 1109.34 L33.5975 1109.34 L33.5975 1085.98 L14.1184 1085.98 L14.1184 1079.55 L61.6384 1079.55 L61.6384 1085.98 L39.0084 1085.98 L39.0084 1109.34 L61.6384 1109.34 L61.6384 1115.77 L14.1184 1115.77 Z" fill="#000000" fill-rule="nonzero" fill-opacity="1" /><path clip-path="url(#clip190)" d="M43.719 1050.8 Q43.719 1057.9 45.3422 1060.64 Q46.9655 1063.38 50.8804 1063.38 Q53.9996 1063.38 55.8457 1061.34 Q57.6599 1059.27 57.6599 1055.74 Q57.6599 1050.87 54.2224 1047.94 Q50.7531 1044.98 45.0239 1044.98 L43.719 1044.98 L43.719 1050.8 M41.3 1039.12 L61.6384 1039.12 L61.6384 1044.98 L56.2276 1044.98 Q59.4741 1046.99 61.0337 1049.98 Q62.5615 1052.97 62.5615 1057.3 Q62.5615 1062.77 59.5059 1066.02 Q56.4186 1069.23 51.2623 1069.23 Q45.2467 1069.23 42.1912 1065.22 Q39.1357 1061.18 39.1357 1053.19 L39.1357 1044.98 L38.5628 1044.98 Q34.5205 1044.98 32.3244 1047.65 Q30.0964 1050.3 30.0964 1055.1 Q30.0964 1058.16 30.8284 1061.05 Q31.5605 1063.95 33.0246 1066.62 L27.6137 1066.62 Q26.3724 1063.41 25.7677 1060.39 Q25.1311 1057.36 25.1311 1054.5 Q25.1311 1046.76 29.1415 1042.94 Q33.1519 1039.12 41.3 1039.12 Z" fill="#000000" fill-rule="nonzero" fill-opacity="1" /><path clip-path="url(#clip190)" d="M25.9905 1029.61 L25.9905 1001.79 L31.3377 1001.79 L56.9596 1023.81 L56.9596 1001.79 L61.6384 1001.79 L61.6384 1030.4 L56.2912 1030.4 L30.6693 1008.38 L30.6693 1029.61 L25.9905 1029.61 Z" fill="#000000" fill-rule="nonzero" fill-opacity="1" /><path clip-path="url(#clip190)" d="M43.719 976.644 Q43.719 983.742 45.3422 986.479 Q46.9655 989.217 50.8804 989.217 Q53.9996 989.217 55.8457 987.18 Q57.6599 985.111 57.6599 981.578 Q57.6599 976.708 54.2224 973.78 Q50.7531 970.82 45.0239 970.82 L43.719 970.82 L43.719 976.644 M41.3 964.963 L61.6384 964.963 L61.6384 970.82 L56.2276 970.82 Q59.4741 972.825 61.0337 975.817 Q62.5615 978.809 62.5615 983.137 Q62.5615 988.612 59.5059 991.858 Q56.4186 995.073 51.2623 995.073 Q45.2467 995.073 42.1912 991.063 Q39.1357 987.021 39.1357 979.032 L39.1357 970.82 L38.5628 970.82 Q34.5205 970.82 32.3244 973.493 Q30.0964 976.135 30.0964 980.941 Q30.0964 983.997 30.8284 986.893 Q31.5605 989.79 33.0246 992.463 L27.6137 992.463 Q26.3724 989.249 25.7677 986.225 Q25.1311 983.201 25.1311 980.337 Q25.1311 972.602 29.1415 968.783 Q33.1519 964.963 41.3 964.963 Z" fill="#000000" fill-rule="nonzero" fill-opacity="1" /><path clip-path="url(#clip190)" d="M31.465 932.244 Q30.8921 933.23 30.6375 934.408 Q30.351 935.554 30.351 936.954 Q30.351 941.919 33.5975 944.593 Q36.8122 947.235 42.8596 947.235 L61.6384 947.235 L61.6384 953.123 L25.9905 953.123 L25.9905 947.235 L31.5287 947.235 Q28.2821 945.389 26.7225 942.429 Q25.1311 939.469 25.1311 935.235 Q25.1311 934.631 25.2266 933.899 Q25.2903 933.167 25.4494 932.275 L31.465 932.244 Z" fill="#000000" fill-rule="nonzero" fill-opacity="1" /><path clip-path="url(#clip190)" d="M31.4013 903.789 L12.1132 903.789 L12.1132 897.932 L61.6384 897.932 L61.6384 903.789 L56.2912 903.789 Q59.4741 905.635 61.0337 908.468 Q62.5615 911.269 62.5615 915.215 Q62.5615 921.677 57.4052 925.751 Q52.249 929.793 43.8463 929.793 Q35.4436 929.793 30.2873 925.751 Q25.1311 921.677 25.1311 915.215 Q25.1311 911.269 26.6907 908.468 Q28.2185 905.635 31.4013 903.789 M43.8463 923.745 Q50.3075 923.745 53.9996 921.104 Q57.6599 918.43 57.6599 913.783 Q57.6599 909.136 53.9996 906.462 Q50.3075 903.789 43.8463 903.789 Q37.3851 903.789 33.7248 906.462 Q30.0327 909.136 30.0327 913.783 Q30.0327 918.43 33.7248 921.104 Q37.3851 923.745 43.8463 923.745 Z" fill="#000000" fill-rule="nonzero" fill-opacity="1" /><path clip-path="url(#clip190)" d="M40.1224 835.517 L61.6384 835.517 L61.6384 841.373 L40.3133 841.373 Q35.2526 841.373 32.7381 843.347 Q30.2237 845.32 30.2237 849.267 Q30.2237 854.009 33.2474 856.746 Q36.2711 859.484 41.491 859.484 L61.6384 859.484 L61.6384 865.372 L12.1132 865.372 L12.1132 859.484 L31.5287 859.484 Q28.314 857.383 26.7225 854.55 Q25.1311 851.686 25.1311 847.962 Q25.1311 841.819 28.9505 838.668 Q32.7381 835.517 40.1224 835.517 Z" fill="#000000" fill-rule="nonzero" fill-opacity="1" /><path clip-path="url(#clip190)" d="M12.1769 809.767 Q19.4975 814.032 26.6589 816.101 Q33.8203 818.17 41.1727 818.17 Q48.5251 818.17 55.7502 816.101 Q62.9434 814.001 70.2321 809.767 L70.2321 814.86 Q62.7524 819.634 55.5274 822.021 Q48.3023 824.377 41.1727 824.377 Q34.0749 824.377 26.8817 822.021 Q19.6884 819.666 12.1769 814.86 L12.1769 809.767 Z" fill="#000000" fill-rule="nonzero" fill-opacity="1" /><path clip-path="url(#clip190)" d="M25.9905 768.772 L43.337 781.663 L61.6384 768.104 L61.6384 775.011 L47.6339 785.387 L61.6384 795.763 L61.6384 802.67 L42.9869 788.824 L25.9905 801.492 L25.9905 794.585 L38.6901 785.132 L25.9905 775.679 L25.9905 768.772 Z" fill="#000000" fill-rule="nonzero" fill-opacity="1" /><path clip-path="url(#clip190)" d="M12.1769 760.751 L12.1769 755.659 Q19.6884 750.885 26.8817 748.529 Q34.0749 746.142 41.1727 746.142 Q48.3023 746.142 55.5274 748.529 Q62.7524 750.885 70.2321 755.659 L70.2321 760.751 Q62.9434 756.518 55.7502 754.449 Q48.5251 752.349 41.1727 752.349 Q33.8203 752.349 26.6589 754.449 Q19.4975 756.518 12.1769 760.751 Z" fill="#000000" fill-rule="nonzero" fill-opacity="1" /><path clip-path="url(#clip190)" d="M870.221 14.0809 L870.221 22.0612 Q865.563 19.8332 861.431 18.7395 Q857.299 17.6457 853.451 17.6457 Q846.767 17.6457 843.121 20.2383 Q839.516 22.8309 839.516 27.611 Q839.516 31.6214 841.906 33.6873 Q844.336 35.7128 851.061 36.9686 L856.003 37.9813 Q865.158 39.7232 869.492 44.1387 Q873.867 48.5136 873.867 55.8863 Q873.867 64.6767 867.953 69.2137 Q862.079 73.7508 850.696 73.7508 Q846.402 73.7508 841.541 72.7785 Q836.72 71.8063 831.535 69.9024 L831.535 61.4765 Q836.518 64.2716 841.298 65.6895 Q846.078 67.1073 850.696 67.1073 Q857.704 67.1073 861.512 64.3527 Q865.32 61.598 865.32 56.4939 Q865.32 52.0379 862.565 49.5264 Q859.851 47.0148 853.613 45.759 L848.63 44.7868 Q839.475 42.9639 835.384 39.075 Q831.292 35.1862 831.292 28.2591 Q831.292 20.2383 836.923 15.6203 Q842.594 11.0023 852.519 11.0023 Q856.772 11.0023 861.188 11.7719 Q865.603 12.5416 870.221 14.0809 Z" fill="#000000" fill-rule="nonzero" fill-opacity="1" /><path clip-path="url(#clip190)" d="M886.303 27.2059 L893.757 27.2059 L893.757 72.576 L886.303 72.576 L886.303 27.2059 M886.303 9.54393 L893.757 9.54393 L893.757 18.9825 L886.303 18.9825 L886.303 9.54393 Z" fill="#000000" fill-rule="nonzero" fill-opacity="1" /><path clip-path="url(#clip190)" d="M909.353 9.54393 L916.807 9.54393 L916.807 72.576 L909.353 72.576 L909.353 9.54393 Z" fill="#000000" fill-rule="nonzero" fill-opacity="1" /><path clip-path="url(#clip190)" d="M971.21 48.0275 L971.21 51.6733 L936.94 51.6733 Q937.426 59.3701 941.558 63.421 Q945.73 67.4314 953.143 67.4314 Q957.437 67.4314 961.448 66.3781 Q965.499 65.3249 969.469 63.2184 L969.469 70.267 Q965.458 71.9684 961.245 72.8596 Q957.032 73.7508 952.698 73.7508 Q941.841 73.7508 935.481 67.4314 Q929.162 61.1119 929.162 50.3365 Q929.162 39.1965 935.157 32.6746 Q941.193 26.1121 951.401 26.1121 Q960.557 26.1121 965.863 32.0264 Q971.21 37.9003 971.21 48.0275 M963.757 45.84 Q963.676 39.7232 960.313 36.0774 Q956.992 32.4315 951.482 32.4315 Q945.244 32.4315 941.477 35.9558 Q937.75 39.4801 937.183 45.8805 L963.757 45.84 Z" fill="#000000" fill-rule="nonzero" fill-opacity="1" /><path clip-path="url(#clip190)" d="M1009.73 34.1734 Q1008.48 33.4443 1006.98 33.1202 Q1005.52 32.7556 1003.74 32.7556 Q997.42 32.7556 994.017 36.8875 Q990.655 40.9789 990.655 48.6757 L990.655 72.576 L983.161 72.576 L983.161 27.2059 L990.655 27.2059 L990.655 34.2544 Q993.004 30.1225 996.772 28.1376 Q1000.54 26.1121 1005.93 26.1121 Q1006.7 26.1121 1007.63 26.2337 Q1008.56 26.3147 1009.69 26.5172 L1009.73 34.1734 Z" fill="#000000" fill-rule="nonzero" fill-opacity="1" /><path clip-path="url(#clip190)" d="M1079.25 35.9153 Q1082.04 30.8922 1085.93 28.5022 Q1089.82 26.1121 1095.09 26.1121 Q1102.18 26.1121 1106.02 31.0947 Q1109.87 36.0368 1109.87 45.1919 L1109.87 72.576 L1102.38 72.576 L1102.38 45.4349 Q1102.38 38.913 1100.07 35.7533 Q1097.76 32.5936 1093.02 32.5936 Q1087.23 32.5936 1083.87 36.4419 Q1080.5 40.2903 1080.5 46.9338 L1080.5 72.576 L1073.01 72.576 L1073.01 45.4349 Q1073.01 38.8725 1070.7 35.7533 Q1068.39 32.5936 1063.57 32.5936 Q1057.86 32.5936 1054.5 36.4824 Q1051.13 40.3308 1051.13 46.9338 L1051.13 72.576 L1043.64 72.576 L1043.64 27.2059 L1051.13 27.2059 L1051.13 34.2544 Q1053.69 30.082 1057.25 28.0971 Q1060.82 26.1121 1065.72 26.1121 Q1070.66 26.1121 1074.1 28.6237 Q1077.59 31.1352 1079.25 35.9153 Z" fill="#000000" fill-rule="nonzero" fill-opacity="1" /><path clip-path="url(#clip190)" d="M1142.32 32.4315 Q1136.33 32.4315 1132.84 37.1306 Q1129.36 41.7891 1129.36 49.9314 Q1129.36 58.0738 1132.8 62.7728 Q1136.28 67.4314 1142.32 67.4314 Q1148.28 67.4314 1151.76 62.7323 Q1155.24 58.0333 1155.24 49.9314 Q1155.24 41.8701 1151.76 37.1711 Q1148.28 32.4315 1142.32 32.4315 M1142.32 26.1121 Q1152.04 26.1121 1157.59 32.4315 Q1163.14 38.7509 1163.14 49.9314 Q1163.14 61.0714 1157.59 67.4314 Q1152.04 73.7508 1142.32 73.7508 Q1132.56 73.7508 1127.01 67.4314 Q1121.5 61.0714 1121.5 49.9314 Q1121.5 38.7509 1127.01 32.4315 Q1132.56 26.1121 1142.32 26.1121 Z" fill="#000000" fill-rule="nonzero" fill-opacity="1" /><path clip-path="url(#clip190)" d="M1201.79 34.1734 Q1200.53 33.4443 1199.03 33.1202 Q1197.57 32.7556 1195.79 32.7556 Q1189.47 32.7556 1186.07 36.8875 Q1182.71 40.9789 1182.71 48.6757 L1182.71 72.576 L1175.21 72.576 L1175.21 27.2059 L1182.71 27.2059 L1182.71 34.2544 Q1185.06 30.1225 1188.82 28.1376 Q1192.59 26.1121 1197.98 26.1121 Q1198.75 26.1121 1199.68 26.2337 Q1200.61 26.3147 1201.75 26.5172 L1201.79 34.1734 Z" fill="#000000" fill-rule="nonzero" fill-opacity="1" /><path clip-path="url(#clip190)" d="M1216.98 14.324 L1216.98 27.2059 L1232.33 27.2059 L1232.33 32.9987 L1216.98 32.9987 L1216.98 57.6282 Q1216.98 63.1779 1218.48 64.7578 Q1220.02 66.3376 1224.68 66.3376 L1232.33 66.3376 L1232.33 72.576 L1224.68 72.576 Q1216.05 72.576 1212.77 69.3758 Q1209.48 66.1351 1209.48 57.6282 L1209.48 32.9987 L1204.02 32.9987 L1204.02 27.2059 L1209.48 27.2059 L1209.48 14.324 L1216.98 14.324 Z" fill="#000000" fill-rule="nonzero" fill-opacity="1" /><path clip-path="url(#clip190)" d="M1262.75 49.7694 Q1253.72 49.7694 1250.24 51.8354 Q1246.75 53.9013 1246.75 58.8839 Q1246.75 62.8538 1249.35 65.2034 Q1251.98 67.5124 1256.48 67.5124 Q1262.67 67.5124 1266.4 63.1374 Q1270.17 58.7219 1270.17 51.4303 L1270.17 49.7694 L1262.75 49.7694 M1277.62 46.6907 L1277.62 72.576 L1270.17 72.576 L1270.17 65.6895 Q1267.62 69.8214 1263.81 71.8063 Q1260 73.7508 1254.49 73.7508 Q1247.52 73.7508 1243.39 69.8619 Q1239.3 65.9325 1239.3 59.3701 Q1239.3 51.7138 1244.4 47.825 Q1249.55 43.9361 1259.72 43.9361 L1270.17 43.9361 L1270.17 43.2069 Q1270.17 38.0623 1266.76 35.2672 Q1263.4 32.4315 1257.29 32.4315 Q1253.4 32.4315 1249.71 33.3632 Q1246.02 34.295 1242.62 36.1584 L1242.62 29.2718 Q1246.71 27.692 1250.56 26.9223 Q1254.41 26.1121 1258.05 26.1121 Q1267.9 26.1121 1272.76 31.2163 Q1277.62 36.3204 1277.62 46.6907 Z" fill="#000000" fill-rule="nonzero" fill-opacity="1" /><path clip-path="url(#clip190)" d="M1292.97 9.54393 L1300.43 9.54393 L1300.43 72.576 L1292.97 72.576 L1292.97 9.54393 Z" fill="#000000" fill-rule="nonzero" fill-opacity="1" /><path clip-path="url(#clip190)" d="M1316.02 27.2059 L1323.48 27.2059 L1323.48 72.576 L1316.02 72.576 L1316.02 27.2059 M1316.02 9.54393 L1323.48 9.54393 L1323.48 18.9825 L1316.02 18.9825 L1316.02 9.54393 Z" fill="#000000" fill-rule="nonzero" fill-opacity="1" /><path clip-path="url(#clip190)" d="M1346.45 14.324 L1346.45 27.2059 L1361.8 27.2059 L1361.8 32.9987 L1346.45 32.9987 L1346.45 57.6282 Q1346.45 63.1779 1347.94 64.7578 Q1349.48 66.3376 1354.14 66.3376 L1361.8 66.3376 L1361.8 72.576 L1354.14 72.576 Q1345.51 72.576 1342.23 69.3758 Q1338.95 66.1351 1338.95 57.6282 L1338.95 32.9987 L1333.48 32.9987 L1333.48 27.2059 L1338.95 27.2059 L1338.95 14.324 L1346.45 14.324 Z" fill="#000000" fill-rule="nonzero" fill-opacity="1" /><path clip-path="url(#clip190)" d="M1390.48 76.7889 Q1387.32 84.8907 1384.32 87.3618 Q1381.32 89.8329 1376.3 89.8329 L1370.35 89.8329 L1370.35 83.5945 L1374.72 83.5945 Q1377.8 83.5945 1379.5 82.1361 Q1381.2 80.6778 1383.27 75.2496 L1384.61 71.8468 L1366.25 27.2059 L1374.15 27.2059 L1388.33 62.6918 L1402.51 27.2059 L1410.41 27.2059 L1390.48 76.7889 Z" fill="#000000" fill-rule="nonzero" fill-opacity="1" /><path clip-path="url(#clip190)" d="M1443.3 46.9338 L1518.16 46.9338 L1518.16 52.7671 L1443.3 52.7671 L1443.3 46.9338 Z" fill="#000000" fill-rule="nonzero" fill-opacity="1" /><path clip-path="url(#clip190)" d="M1588.97 49.9314 Q1588.97 41.7081 1585.57 37.0496 Q1582.21 32.3505 1576.29 32.3505 Q1570.38 32.3505 1566.98 37.0496 Q1563.61 41.7081 1563.61 49.9314 Q1563.61 58.1548 1566.98 62.8538 Q1570.38 67.5124 1576.29 67.5124 Q1582.21 67.5124 1585.57 62.8538 Q1588.97 58.1548 1588.97 49.9314 M1563.61 34.0924 Q1565.96 30.0415 1569.53 28.0971 Q1573.13 26.1121 1578.12 26.1121 Q1586.38 26.1121 1591.53 32.6746 Q1596.71 39.2371 1596.71 49.9314 Q1596.71 60.6258 1591.53 67.1883 Q1586.38 73.7508 1578.12 73.7508 Q1573.13 73.7508 1569.53 71.8063 Q1565.96 69.8214 1563.61 65.7705 L1563.61 72.576 L1556.12 72.576 L1556.12 9.54393 L1563.61 9.54393 L1563.61 34.0924 Z" fill="#000000" fill-rule="nonzero" fill-opacity="1" /><path clip-path="url(#clip190)" d="M1629.68 49.7694 Q1620.65 49.7694 1617.17 51.8354 Q1613.68 53.9013 1613.68 58.8839 Q1613.68 62.8538 1616.28 65.2034 Q1618.91 67.5124 1623.41 67.5124 Q1629.6 67.5124 1633.33 63.1374 Q1637.1 58.7219 1637.1 51.4303 L1637.1 49.7694 L1629.68 49.7694 M1644.55 46.6907 L1644.55 72.576 L1637.1 72.576 L1637.1 65.6895 Q1634.55 69.8214 1630.74 71.8063 Q1626.93 73.7508 1621.42 73.7508 Q1614.45 73.7508 1610.32 69.8619 Q1606.23 65.9325 1606.23 59.3701 Q1606.23 51.7138 1611.33 47.825 Q1616.48 43.9361 1626.65 43.9361 L1637.1 43.9361 L1637.1 43.2069 Q1637.1 38.0623 1633.7 35.2672 Q1630.33 32.4315 1624.22 32.4315 Q1620.33 32.4315 1616.64 33.3632 Q1612.95 34.295 1609.55 36.1584 L1609.55 29.2718 Q1613.64 27.692 1617.49 26.9223 Q1621.34 26.1121 1624.99 26.1121 Q1634.83 26.1121 1639.69 31.2163 Q1644.55 36.3204 1644.55 46.6907 Z" fill="#000000" fill-rule="nonzero" fill-opacity="1" /><path clip-path="url(#clip190)" d="M1667.28 14.324 L1667.28 27.2059 L1682.63 27.2059 L1682.63 32.9987 L1667.28 32.9987 L1667.28 57.6282 Q1667.28 63.1779 1668.78 64.7578 Q1670.32 66.3376 1674.97 66.3376 L1682.63 66.3376 L1682.63 72.576 L1674.97 72.576 Q1666.35 72.576 1663.06 69.3758 Q1659.78 66.1351 1659.78 57.6282 L1659.78 32.9987 L1654.31 32.9987 L1654.31 27.2059 L1659.78 27.2059 L1659.78 14.324 L1667.28 14.324 Z" fill="#000000" fill-rule="nonzero" fill-opacity="1" /><path clip-path="url(#clip190)" d="M1730.15 45.1919 L1730.15 72.576 L1722.69 72.576 L1722.69 45.4349 Q1722.69 38.994 1720.18 35.7938 Q1717.67 32.5936 1712.65 32.5936 Q1706.61 32.5936 1703.13 36.4419 Q1699.64 40.2903 1699.64 46.9338 L1699.64 72.576 L1692.15 72.576 L1692.15 9.54393 L1699.64 9.54393 L1699.64 34.2544 Q1702.32 30.163 1705.92 28.1376 Q1709.57 26.1121 1714.31 26.1121 Q1722.13 26.1121 1726.14 30.9732 Q1730.15 35.7938 1730.15 45.1919 Z" fill="#000000" fill-rule="nonzero" fill-opacity="1" /><path clip-path="url(#clip190)" d="M1752.39 14.324 L1752.39 27.2059 L1767.74 27.2059 L1767.74 32.9987 L1752.39 32.9987 L1752.39 57.6282 Q1752.39 63.1779 1753.89 64.7578 Q1755.42 66.3376 1760.08 66.3376 L1767.74 66.3376 L1767.74 72.576 L1760.08 72.576 Q1751.46 72.576 1748.17 69.3758 Q1744.89 66.1351 1744.89 57.6282 L1744.89 32.9987 L1739.42 32.9987 L1739.42 27.2059 L1744.89 27.2059 L1744.89 14.324 L1752.39 14.324 Z" fill="#000000" fill-rule="nonzero" fill-opacity="1" /><path clip-path="url(#clip190)" d="M1776.77 54.671 L1776.77 27.2059 L1784.23 27.2059 L1784.23 54.3874 Q1784.23 60.8284 1786.74 64.0691 Q1789.25 67.2693 1794.27 67.2693 Q1800.31 67.2693 1803.79 63.421 Q1807.32 59.5726 1807.32 52.9291 L1807.32 27.2059 L1814.77 27.2059 L1814.77 72.576 L1807.32 72.576 L1807.32 65.6084 Q1804.6 69.7404 1801 71.7658 Q1797.43 73.7508 1792.69 73.7508 Q1784.88 73.7508 1780.82 68.8897 Q1776.77 64.0286 1776.77 54.671 M1795.53 26.1121 L1795.53 26.1121 Z" fill="#000000" fill-rule="nonzero" fill-opacity="1" /><path clip-path="url(#clip190)" d="M1862.69 49.9314 Q1862.69 41.7081 1859.29 37.0496 Q1855.93 32.3505 1850.01 32.3505 Q1844.1 32.3505 1840.7 37.0496 Q1837.33 41.7081 1837.33 49.9314 Q1837.33 58.1548 1840.7 62.8538 Q1844.1 67.5124 1850.01 67.5124 Q1855.93 67.5124 1859.29 62.8538 Q1862.69 58.1548 1862.69 49.9314 M1837.33 34.0924 Q1839.68 30.0415 1843.25 28.0971 Q1846.85 26.1121 1851.84 26.1121 Q1860.1 26.1121 1865.24 32.6746 Q1870.43 39.2371 1870.43 49.9314 Q1870.43 60.6258 1865.24 67.1883 Q1860.1 73.7508 1851.84 73.7508 Q1846.85 73.7508 1843.25 71.8063 Q1839.68 69.8214 1837.33 65.7705 L1837.33 72.576 L1829.84 72.576 L1829.84 9.54393 L1837.33 9.54393 L1837.33 34.0924 Z" fill="#000000" fill-rule="nonzero" fill-opacity="1" /><path clip-path="url(#clip190)" d="M1941.81 28.9478 L1941.81 35.9153 Q1938.65 34.1734 1935.45 33.3227 Q1932.29 32.4315 1929.05 32.4315 Q1921.8 32.4315 1917.79 37.0496 Q1913.77 41.6271 1913.77 49.9314 Q1913.77 58.2358 1917.79 62.8538 Q1921.8 67.4314 1929.05 67.4314 Q1932.29 67.4314 1935.45 66.5807 Q1938.65 65.6895 1941.81 63.9476 L1941.81 70.8341 Q1938.69 72.2924 1935.33 73.0216 Q1932 73.7508 1928.24 73.7508 Q1917.99 73.7508 1911.95 67.3098 Q1905.92 60.8689 1905.92 49.9314 Q1905.92 38.832 1911.99 32.472 Q1918.11 26.1121 1928.72 26.1121 Q1932.17 26.1121 1935.45 26.8413 Q1938.73 27.5299 1941.81 28.9478 Z" fill="#000000" fill-rule="nonzero" fill-opacity="1" /><path clip-path="url(#clip190)" d="M1954 54.671 L1954 27.2059 L1961.45 27.2059 L1961.45 54.3874 Q1961.45 60.8284 1963.97 64.0691 Q1966.48 67.2693 1971.5 67.2693 Q1977.54 67.2693 1981.02 63.421 Q1984.54 59.5726 1984.54 52.9291 L1984.54 27.2059 L1992 27.2059 L1992 72.576 L1984.54 72.576 L1984.54 65.6084 Q1981.83 69.7404 1978.22 71.7658 Q1974.66 73.7508 1969.92 73.7508 Q1962.1 73.7508 1958.05 68.8897 Q1954 64.0286 1954 54.671 M1972.76 26.1121 L1972.76 26.1121 Z" fill="#000000" fill-rule="nonzero" fill-opacity="1" /><path clip-path="url(#clip190)" d="M2033.64 34.1734 Q2032.39 33.4443 2030.89 33.1202 Q2029.43 32.7556 2027.65 32.7556 Q2021.33 32.7556 2017.92 36.8875 Q2014.56 40.9789 2014.56 48.6757 L2014.56 72.576 L2007.07 72.576 L2007.07 27.2059 L2014.56 27.2059 L2014.56 34.2544 Q2016.91 30.1225 2020.68 28.1376 Q2024.45 26.1121 2029.83 26.1121 Q2030.6 26.1121 2031.53 26.2337 Q2032.47 26.3147 2033.6 26.5172 L2033.64 34.1734 Z" fill="#000000" fill-rule="nonzero" fill-opacity="1" /><path clip-path="url(#clip190)" d="M2036.11 27.2059 L2044.01 27.2059 L2058.19 65.2844 L2072.37 27.2059 L2080.27 27.2059 L2063.25 72.576 L2053.13 72.576 L2036.11 27.2059 Z" fill="#000000" fill-rule="nonzero" fill-opacity="1" /><path clip-path="url(#clip190)" d="M2129.36 48.0275 L2129.36 51.6733 L2095.09 51.6733 Q2095.58 59.3701 2099.71 63.421 Q2103.88 67.4314 2111.3 67.4314 Q2115.59 67.4314 2119.6 66.3781 Q2123.65 65.3249 2127.62 63.2184 L2127.62 70.267 Q2123.61 71.9684 2119.4 72.8596 Q2115.19 73.7508 2110.85 73.7508 Q2099.99 73.7508 2093.63 67.4314 Q2087.32 61.1119 2087.32 50.3365 Q2087.32 39.1965 2093.31 32.6746 Q2099.35 26.1121 2109.55 26.1121 Q2118.71 26.1121 2124.02 32.0264 Q2129.36 37.9003 2129.36 48.0275 M2121.91 45.84 Q2121.83 39.7232 2118.47 36.0774 Q2115.15 32.4315 2109.64 32.4315 Q2103.4 32.4315 2099.63 35.9558 Q2095.9 39.4801 2095.34 45.8805 L2121.91 45.84 Z" fill="#000000" fill-rule="nonzero" fill-opacity="1" /><polyline clip-path="url(#clip191)" style="stroke:#009af9; stroke-linecap:round; stroke-linejoin:round; stroke-width:8; stroke-opacity:1; fill:none" points="385.585,269.548 422.076,521.429 458.568,761.201 495.059,983.009 531.551,1179.86 568.042,1345.02 604.533,1474.21 641.025,1567.41 677.516,1628.82 714.008,1665.1 750.499,1683.13 786.991,1688.65 823.482,1685.88 859.974,1677.63 896.465,1665.72 932.956,1651.27 969.448,1634.96 1005.94,1617.19 1042.43,1598.2 1078.92,1578.14 1115.41,1557.08 1151.91,1535.07 1188.4,1512.15 1224.89,1488.35 1261.38,1463.66 1297.87,1438.12 1334.36,1411.74 1370.85,1384.53 1407.35,1356.5 1443.84,1327.69 1480.33,1298.11 1516.82,1267.78 1553.31,1236.72 1589.8,1204.97 1626.29,1172.54 1662.79,1139.46 1699.28,1105.75 1735.77,1071.45 1772.26,1036.58 1808.75,1001.17 1845.24,965.243 1881.73,928.825 1918.23,891.942 1954.72,854.62 1991.21,816.883 2027.7,778.755 2064.19,740.259 2100.68,701.416 2137.17,662.247 2173.67,622.773 2210.16,583.013 2246.65,542.985 2283.14,502.706 2319.63,462.194 2356.12,421.463 2392.61,380.528 2429.11,339.403 2465.6,298.102 2502.09,256.635 2538.58,215.016 2575.07,173.254 "/>
</svg>
