<?xml version="1.0" encoding="utf-8"?>
<svg xmlns="http://www.w3.org/2000/svg" xmlns:xlink="http://www.w3.org/1999/xlink" width="672" height="480" viewBox="0 0 2688 1920">
<defs>
  <clipPath id="clip220">
    <rect x="0" y="0" width="2688" height="1920"/>
  </clipPath>
</defs>
<path clip-path="url(#clip220)" d="M0 1920 L2688 1920 L2688 -4.26326e-14 L0 -4.26326e-14  Z" fill="#ffffff" fill-rule="evenodd" fill-opacity="1"/>
<defs>
  <clipPath id="clip221">
    <rect x="255" y="127" width="2386" height="1607"/>
  </clipPath>
</defs>
<path clip-path="url(#clip220)" d="M255.816 1734.12 L2640.76 1734.12 L2640.76 127.792 L255.816 127.792  Z" fill="#ffffff" fill-rule="evenodd" fill-opacity="1"/>
<polyline clip-path="url(#clip221)" style="stroke:#000000; stroke-linecap:round; stroke-linejoin:round; stroke-width:2; stroke-opacity:0.1; fill:none" points="323.315,1734.12 323.315,127.792 "/>
<polyline clip-path="url(#clip221)" style="stroke:#000000; stroke-linecap:round; stroke-linejoin:round; stroke-width:2; stroke-opacity:0.1; fill:none" points="773.303,1734.12 773.303,127.792 "/>
<polyline clip-path="url(#clip221)" style="stroke:#000000; stroke-linecap:round; stroke-linejoin:round; stroke-width:2; stroke-opacity:0.1; fill:none" points="1223.29,1734.12 1223.29,127.792 "/>
<polyline clip-path="url(#clip221)" style="stroke:#000000; stroke-linecap:round; stroke-linejoin:round; stroke-width:2; stroke-opacity:0.1; fill:none" points="1673.28,1734.12 1673.28,127.792 "/>
<polyline clip-path="url(#clip221)" style="stroke:#000000; stroke-linecap:round; stroke-linejoin:round; stroke-width:2; stroke-opacity:0.1; fill:none" points="2123.27,1734.12 2123.27,127.792 "/>
<polyline clip-path="url(#clip221)" style="stroke:#000000; stroke-linecap:round; stroke-linejoin:round; stroke-width:2; stroke-opacity:0.1; fill:none" points="2573.26,1734.12 2573.26,127.792 "/>
<polyline clip-path="url(#clip221)" style="stroke:#000000; stroke-linecap:round; stroke-linejoin:round; stroke-width:2; stroke-opacity:0.1; fill:none" points="255.816,1697.99 2640.76,1697.99 "/>
<polyline clip-path="url(#clip221)" style="stroke:#000000; stroke-linecap:round; stroke-linejoin:round; stroke-width:2; stroke-opacity:0.1; fill:none" points="255.816,1316.8 2640.76,1316.8 "/>
<polyline clip-path="url(#clip221)" style="stroke:#000000; stroke-linecap:round; stroke-linejoin:round; stroke-width:2; stroke-opacity:0.1; fill:none" points="255.816,935.62 2640.76,935.62 "/>
<polyline clip-path="url(#clip221)" style="stroke:#000000; stroke-linecap:round; stroke-linejoin:round; stroke-width:2; stroke-opacity:0.1; fill:none" points="255.816,554.437 2640.76,554.437 "/>
<polyline clip-path="url(#clip221)" style="stroke:#000000; stroke-linecap:round; stroke-linejoin:round; stroke-width:2; stroke-opacity:0.1; fill:none" points="255.816,173.254 2640.76,173.254 "/>
<polyline clip-path="url(#clip220)" style="stroke:#000000; stroke-linecap:round; stroke-linejoin:round; stroke-width:4; stroke-opacity:1; fill:none" points="255.816,1734.12 2640.76,1734.12 "/>
<polyline clip-path="url(#clip220)" style="stroke:#000000; stroke-linecap:round; stroke-linejoin:round; stroke-width:4; stroke-opacity:1; fill:none" points="323.315,1734.12 323.315,1715.22 "/>
<polyline clip-path="url(#clip220)" style="stroke:#000000; stroke-linecap:round; stroke-linejoin:round; stroke-width:4; stroke-opacity:1; fill:none" points="773.303,1734.12 773.303,1715.22 "/>
<polyline clip-path="url(#clip220)" style="stroke:#000000; stroke-linecap:round; stroke-linejoin:round; stroke-width:4; stroke-opacity:1; fill:none" points="1223.29,1734.12 1223.29,1715.22 "/>
<polyline clip-path="url(#clip220)" style="stroke:#000000; stroke-linecap:round; stroke-linejoin:round; stroke-width:4; stroke-opacity:1; fill:none" points="1673.28,1734.12 1673.28,1715.22 "/>
<polyline clip-path="url(#clip220)" style="stroke:#000000; stroke-linecap:round; stroke-linejoin:round; stroke-width:4; stroke-opacity:1; fill:none" points="2123.27,1734.12 2123.27,1715.22 "/>
<polyline clip-path="url(#clip220)" style="stroke:#000000; stroke-linecap:round; stroke-linejoin:round; stroke-width:4; stroke-opacity:1; fill:none" points="2573.26,1734.12 2573.26,1715.22 "/>
<path clip-path="url(#clip220)" d="M323.315 1767.34 Q319.704 1767.34 317.875 1770.9 Q316.069 1774.45 316.069 1781.58 Q316.069 1788.68 317.875 1792.25 Q319.704 1795.79 323.315 1795.79 Q326.949 1795.79 328.754 1792.25 Q330.583 1788.68 330.583 1781.58 Q330.583 1774.45 328.754 1770.9 Q326.949 1767.34 323.315 1767.34 M323.315 1763.64 Q329.125 1763.64 332.18 1768.24 Q335.259 1772.83 335.259 1781.58 Q335.259 1790.3 332.18 1794.91 Q329.125 1799.49 323.315 1799.49 Q317.504 1799.49 314.426 1794.91 Q311.37 1790.3 311.37 1781.58 Q311.37 1772.83 314.426 1768.24 Q317.504 1763.64 323.315 1763.64 Z" fill="#000000" fill-rule="nonzero" fill-opacity="1" /><path clip-path="url(#clip220)" d="M747.991 1794.89 L755.63 1794.89 L755.63 1768.52 L747.32 1770.19 L747.32 1765.93 L755.583 1764.26 L760.259 1764.26 L760.259 1794.89 L767.898 1794.89 L767.898 1798.82 L747.991 1798.82 L747.991 1794.89 Z" fill="#000000" fill-rule="nonzero" fill-opacity="1" /><path clip-path="url(#clip220)" d="M787.342 1767.34 Q783.731 1767.34 781.903 1770.9 Q780.097 1774.45 780.097 1781.58 Q780.097 1788.68 781.903 1792.25 Q783.731 1795.79 787.342 1795.79 Q790.977 1795.79 792.782 1792.25 Q794.611 1788.68 794.611 1781.58 Q794.611 1774.45 792.782 1770.9 Q790.977 1767.34 787.342 1767.34 M787.342 1763.64 Q793.153 1763.64 796.208 1768.24 Q799.287 1772.83 799.287 1781.58 Q799.287 1790.3 796.208 1794.91 Q793.153 1799.49 787.342 1799.49 Q781.532 1799.49 778.454 1794.91 Q775.398 1790.3 775.398 1781.58 Q775.398 1772.83 778.454 1768.24 Q781.532 1763.64 787.342 1763.64 Z" fill="#000000" fill-rule="nonzero" fill-opacity="1" /><path clip-path="url(#clip220)" d="M1202.07 1794.89 L1218.38 1794.89 L1218.38 1798.82 L1196.44 1798.82 L1196.44 1794.89 Q1199.1 1792.13 1203.69 1787.5 Q1208.29 1782.85 1209.47 1781.51 Q1211.72 1778.98 1212.6 1777.25 Q1213.5 1775.49 1213.5 1773.8 Q1213.5 1771.04 1211.56 1769.31 Q1209.63 1767.57 1206.53 1767.57 Q1204.33 1767.57 1201.88 1768.34 Q1199.45 1769.1 1196.67 1770.65 L1196.67 1765.93 Q1199.5 1764.79 1201.95 1764.21 Q1204.4 1763.64 1206.44 1763.64 Q1211.81 1763.64 1215 1766.32 Q1218.2 1769.01 1218.2 1773.5 Q1218.2 1775.63 1217.39 1777.55 Q1216.6 1779.45 1214.5 1782.04 Q1213.92 1782.71 1210.82 1785.93 Q1207.71 1789.12 1202.07 1794.89 Z" fill="#000000" fill-rule="nonzero" fill-opacity="1" /><path clip-path="url(#clip220)" d="M1238.2 1767.34 Q1234.59 1767.34 1232.76 1770.9 Q1230.95 1774.45 1230.95 1781.58 Q1230.95 1788.68 1232.76 1792.25 Q1234.59 1795.79 1238.2 1795.79 Q1241.83 1795.79 1243.64 1792.25 Q1245.47 1788.68 1245.47 1781.58 Q1245.47 1774.45 1243.64 1770.9 Q1241.83 1767.34 1238.2 1767.34 M1238.2 1763.64 Q1244.01 1763.64 1247.06 1768.24 Q1250.14 1772.83 1250.14 1781.58 Q1250.14 1790.3 1247.06 1794.91 Q1244.01 1799.49 1238.2 1799.49 Q1232.39 1799.49 1229.31 1794.91 Q1226.25 1790.3 1226.25 1781.58 Q1226.25 1772.83 1229.31 1768.24 Q1232.39 1763.64 1238.2 1763.64 Z" fill="#000000" fill-rule="nonzero" fill-opacity="1" /><path clip-path="url(#clip220)" d="M1662.12 1780.19 Q1665.48 1780.9 1667.35 1783.17 Q1669.25 1785.44 1669.25 1788.77 Q1669.25 1793.89 1665.73 1796.69 Q1662.22 1799.49 1655.73 1799.49 Q1653.56 1799.49 1651.24 1799.05 Q1648.95 1798.64 1646.5 1797.78 L1646.5 1793.27 Q1648.44 1794.4 1650.76 1794.98 Q1653.07 1795.56 1655.6 1795.56 Q1659.99 1795.56 1662.29 1793.82 Q1664.6 1792.08 1664.6 1788.77 Q1664.6 1785.72 1662.45 1784.01 Q1660.32 1782.27 1656.5 1782.27 L1652.47 1782.27 L1652.47 1778.43 L1656.68 1778.43 Q1660.13 1778.43 1661.96 1777.06 Q1663.79 1775.67 1663.79 1773.08 Q1663.79 1770.42 1661.89 1769.01 Q1660.02 1767.57 1656.5 1767.57 Q1654.58 1767.57 1652.38 1767.99 Q1650.18 1768.4 1647.54 1769.28 L1647.54 1765.12 Q1650.2 1764.38 1652.52 1764.01 Q1654.85 1763.64 1656.91 1763.64 Q1662.24 1763.64 1665.34 1766.07 Q1668.44 1768.47 1668.44 1772.59 Q1668.44 1775.46 1666.8 1777.46 Q1665.16 1779.42 1662.12 1780.19 Z" fill="#000000" fill-rule="nonzero" fill-opacity="1" /><path clip-path="url(#clip220)" d="M1688.12 1767.34 Q1684.51 1767.34 1682.68 1770.9 Q1680.87 1774.45 1680.87 1781.58 Q1680.87 1788.68 1682.68 1792.25 Q1684.51 1795.79 1688.12 1795.79 Q1691.75 1795.79 1693.56 1792.25 Q1695.39 1788.68 1695.39 1781.58 Q1695.39 1774.45 1693.56 1770.9 Q1691.75 1767.34 1688.12 1767.34 M1688.12 1763.64 Q1693.93 1763.64 1696.98 1768.24 Q1700.06 1772.83 1700.06 1781.58 Q1700.06 1790.3 1696.98 1794.91 Q1693.93 1799.49 1688.12 1799.49 Q1682.31 1799.49 1679.23 1794.91 Q1676.17 1790.3 1676.17 1781.58 Q1676.17 1772.83 1679.23 1768.24 Q1682.31 1763.64 1688.12 1763.64 Z" fill="#000000" fill-rule="nonzero" fill-opacity="1" /><path clip-path="url(#clip220)" d="M2111.44 1768.34 L2099.63 1786.78 L2111.44 1786.78 L2111.44 1768.34 M2110.21 1764.26 L2116.09 1764.26 L2116.09 1786.78 L2121.02 1786.78 L2121.02 1790.67 L2116.09 1790.67 L2116.09 1798.82 L2111.44 1798.82 L2111.44 1790.67 L2095.84 1790.67 L2095.84 1786.16 L2110.21 1764.26 Z" fill="#000000" fill-rule="nonzero" fill-opacity="1" /><path clip-path="url(#clip220)" d="M2138.76 1767.34 Q2135.14 1767.34 2133.32 1770.9 Q2131.51 1774.45 2131.51 1781.58 Q2131.51 1788.68 2133.32 1792.25 Q2135.14 1795.79 2138.76 1795.79 Q2142.39 1795.79 2144.19 1792.25 Q2146.02 1788.68 2146.02 1781.58 Q2146.02 1774.45 2144.19 1770.9 Q2142.39 1767.34 2138.76 1767.34 M2138.76 1763.64 Q2144.57 1763.64 2147.62 1768.24 Q2150.7 1772.83 2150.7 1781.58 Q2150.7 1790.3 2147.62 1794.91 Q2144.57 1799.49 2138.76 1799.49 Q2132.94 1799.49 2129.87 1794.91 Q2126.81 1790.3 2126.81 1781.58 Q2126.81 1772.83 2129.87 1768.24 Q2132.94 1763.64 2138.76 1763.64 Z" fill="#000000" fill-rule="nonzero" fill-opacity="1" /><path clip-path="url(#clip220)" d="M2547.96 1764.26 L2566.31 1764.26 L2566.31 1768.2 L2552.24 1768.2 L2552.24 1776.67 Q2553.26 1776.32 2554.28 1776.16 Q2555.29 1775.97 2556.31 1775.97 Q2562.1 1775.97 2565.48 1779.15 Q2568.86 1782.32 2568.86 1787.73 Q2568.86 1793.31 2565.39 1796.41 Q2561.92 1799.49 2555.6 1799.49 Q2553.42 1799.49 2551.15 1799.12 Q2548.91 1798.75 2546.5 1798.01 L2546.5 1793.31 Q2548.58 1794.45 2550.8 1795 Q2553.03 1795.56 2555.5 1795.56 Q2559.51 1795.56 2561.85 1793.45 Q2564.18 1791.34 2564.18 1787.73 Q2564.18 1784.12 2561.85 1782.02 Q2559.51 1779.91 2555.5 1779.91 Q2553.63 1779.91 2551.75 1780.33 Q2549.9 1780.74 2547.96 1781.62 L2547.96 1764.26 Z" fill="#000000" fill-rule="nonzero" fill-opacity="1" /><path clip-path="url(#clip220)" d="M2588.07 1767.34 Q2584.46 1767.34 2582.63 1770.9 Q2580.83 1774.45 2580.83 1781.58 Q2580.83 1788.68 2582.63 1792.25 Q2584.46 1795.79 2588.07 1795.79 Q2591.71 1795.79 2593.51 1792.25 Q2595.34 1788.68 2595.34 1781.58 Q2595.34 1774.45 2593.51 1770.9 Q2591.71 1767.34 2588.07 1767.34 M2588.07 1763.64 Q2593.88 1763.64 2596.94 1768.24 Q2600.02 1772.83 2600.02 1781.58 Q2600.02 1790.3 2596.94 1794.91 Q2593.88 1799.49 2588.07 1799.49 Q2582.26 1799.49 2579.18 1794.91 Q2576.13 1790.3 2576.13 1781.58 Q2576.13 1772.83 2579.18 1768.24 Q2582.26 1763.64 2588.07 1763.64 Z" fill="#000000" fill-rule="nonzero" fill-opacity="1" /><path clip-path="url(#clip220)" d="M1409.01 1842.11 L1400.29 1865.76 L1417.76 1865.76 L1409.01 1842.11 M1405.38 1835.78 L1412.67 1835.78 L1430.78 1883.3 L1424.1 1883.3 L1419.77 1871.11 L1398.35 1871.11 L1394.02 1883.3 L1387.24 1883.3 L1405.38 1835.78 Z" fill="#000000" fill-rule="nonzero" fill-opacity="1" /><path clip-path="url(#clip220)" d="M1460.92 1865.06 Q1460.92 1858.7 1458.28 1855.2 Q1455.67 1851.7 1450.93 1851.7 Q1446.22 1851.7 1443.58 1855.2 Q1440.97 1858.7 1440.97 1865.06 Q1440.97 1871.4 1443.58 1874.9 Q1446.22 1878.4 1450.93 1878.4 Q1455.67 1878.4 1458.28 1874.9 Q1460.92 1871.4 1460.92 1865.06 M1466.78 1878.88 Q1466.78 1887.98 1462.74 1892.4 Q1458.69 1896.86 1450.35 1896.86 Q1447.27 1896.86 1444.53 1896.38 Q1441.79 1895.94 1439.21 1894.98 L1439.21 1889.28 Q1441.79 1890.69 1444.31 1891.35 Q1446.82 1892.02 1449.43 1892.02 Q1455.19 1892.02 1458.06 1889 Q1460.92 1886.01 1460.92 1879.93 L1460.92 1877.03 Q1459.11 1880.18 1456.28 1881.74 Q1453.44 1883.3 1449.5 1883.3 Q1442.94 1883.3 1438.93 1878.3 Q1434.92 1873.31 1434.92 1865.06 Q1434.92 1856.79 1438.93 1851.79 Q1442.94 1846.79 1449.5 1846.79 Q1453.44 1846.79 1456.28 1848.35 Q1459.11 1849.91 1460.92 1853.06 L1460.92 1847.65 L1466.78 1847.65 L1466.78 1878.88 Z" fill="#000000" fill-rule="nonzero" fill-opacity="1" /><path clip-path="url(#clip220)" d="M1509.33 1864.01 L1509.33 1866.88 L1482.41 1866.88 Q1482.79 1872.92 1486.03 1876.11 Q1489.31 1879.26 1495.14 1879.26 Q1498.51 1879.26 1501.66 1878.43 Q1504.85 1877.6 1507.96 1875.95 L1507.96 1881.49 Q1504.81 1882.82 1501.5 1883.52 Q1498.19 1884.22 1494.79 1884.22 Q1486.26 1884.22 1481.26 1879.26 Q1476.3 1874.29 1476.3 1865.83 Q1476.3 1857.07 1481.01 1851.95 Q1485.75 1846.79 1493.77 1846.79 Q1500.96 1846.79 1505.13 1851.44 Q1509.33 1856.06 1509.33 1864.01 M1503.48 1862.29 Q1503.41 1857.49 1500.77 1854.62 Q1498.16 1851.76 1493.83 1851.76 Q1488.93 1851.76 1485.97 1854.53 Q1483.04 1857.3 1482.6 1862.33 L1503.48 1862.29 Z" fill="#000000" fill-rule="nonzero" fill-opacity="1" /><polyline clip-path="url(#clip220)" style="stroke:#000000; stroke-linecap:round; stroke-linejoin:round; stroke-width:4; stroke-opacity:1; fill:none" points="255.816,1734.12 255.816,127.792 "/>
<polyline clip-path="url(#clip220)" style="stroke:#000000; stroke-linecap:round; stroke-linejoin:round; stroke-width:4; stroke-opacity:1; fill:none" points="255.816,1697.99 274.714,1697.99 "/>
<polyline clip-path="url(#clip220)" style="stroke:#000000; stroke-linecap:round; stroke-linejoin:round; stroke-width:4; stroke-opacity:1; fill:none" points="255.816,1316.8 274.714,1316.8 "/>
<polyline clip-path="url(#clip220)" style="stroke:#000000; stroke-linecap:round; stroke-linejoin:round; stroke-width:4; stroke-opacity:1; fill:none" points="255.816,935.62 274.714,935.62 "/>
<polyline clip-path="url(#clip220)" style="stroke:#000000; stroke-linecap:round; stroke-linejoin:round; stroke-width:4; stroke-opacity:1; fill:none" points="255.816,554.437 274.714,554.437 "/>
<polyline clip-path="url(#clip220)" style="stroke:#000000; stroke-linecap:round; stroke-linejoin:round; stroke-width:4; stroke-opacity:1; fill:none" points="255.816,173.254 274.714,173.254 "/>
<path clip-path="url(#clip220)" d="M128.159 1683.78 Q124.548 1683.78 122.719 1687.35 Q120.913 1690.89 120.913 1698.02 Q120.913 1705.13 122.719 1708.69 Q124.548 1712.23 128.159 1712.23 Q131.793 1712.23 133.599 1708.69 Q135.427 1705.13 135.427 1698.02 Q135.427 1690.89 133.599 1687.35 Q131.793 1683.78 128.159 1683.78 M128.159 1680.08 Q133.969 1680.08 137.025 1684.69 Q140.103 1689.27 140.103 1698.02 Q140.103 1706.75 137.025 1711.35 Q133.969 1715.94 128.159 1715.94 Q122.349 1715.94 119.27 1711.35 Q116.214 1706.75 116.214 1698.02 Q116.214 1689.27 119.27 1684.69 Q122.349 1680.08 128.159 1680.08 Z" fill="#000000" fill-rule="nonzero" fill-opacity="1" /><path clip-path="url(#clip220)" d="M148.321 1709.39 L153.205 1709.39 L153.205 1715.27 L148.321 1715.27 L148.321 1709.39 Z" fill="#000000" fill-rule="nonzero" fill-opacity="1" /><path clip-path="url(#clip220)" d="M173.39 1683.78 Q169.779 1683.78 167.95 1687.35 Q166.145 1690.89 166.145 1698.02 Q166.145 1705.13 167.95 1708.69 Q169.779 1712.23 173.39 1712.23 Q177.024 1712.23 178.83 1708.69 Q180.659 1705.13 180.659 1698.02 Q180.659 1690.89 178.83 1687.35 Q177.024 1683.78 173.39 1683.78 M173.39 1680.08 Q179.2 1680.08 182.256 1684.69 Q185.334 1689.27 185.334 1698.02 Q185.334 1706.75 182.256 1711.35 Q179.2 1715.94 173.39 1715.94 Q167.58 1715.94 164.501 1711.35 Q161.446 1706.75 161.446 1698.02 Q161.446 1689.27 164.501 1684.69 Q167.58 1680.08 173.39 1680.08 Z" fill="#000000" fill-rule="nonzero" fill-opacity="1" /><path clip-path="url(#clip220)" d="M203.552 1683.78 Q199.941 1683.78 198.112 1687.35 Q196.307 1690.89 196.307 1698.02 Q196.307 1705.13 198.112 1708.69 Q199.941 1712.23 203.552 1712.23 Q207.186 1712.23 208.992 1708.69 Q210.82 1705.13 210.82 1698.02 Q210.82 1690.89 208.992 1687.35 Q207.186 1683.78 203.552 1683.78 M203.552 1680.08 Q209.362 1680.08 212.418 1684.69 Q215.496 1689.27 215.496 1698.02 Q215.496 1706.75 212.418 1711.35 Q209.362 1715.94 203.552 1715.94 Q197.742 1715.94 194.663 1711.35 Q191.608 1706.75 191.608 1698.02 Q191.608 1689.27 194.663 1684.69 Q197.742 1680.08 203.552 1680.08 Z" fill="#000000" fill-rule="nonzero" fill-opacity="1" /><path clip-path="url(#clip220)" d="M129.154 1302.6 Q125.543 1302.6 123.714 1306.17 Q121.909 1309.71 121.909 1316.84 Q121.909 1323.94 123.714 1327.51 Q125.543 1331.05 129.154 1331.05 Q132.788 1331.05 134.594 1327.51 Q136.423 1323.94 136.423 1316.84 Q136.423 1309.71 134.594 1306.17 Q132.788 1302.6 129.154 1302.6 M129.154 1298.9 Q134.964 1298.9 138.02 1303.5 Q141.099 1308.09 141.099 1316.84 Q141.099 1325.56 138.02 1330.17 Q134.964 1334.75 129.154 1334.75 Q123.344 1334.75 120.265 1330.17 Q117.21 1325.56 117.21 1316.84 Q117.21 1308.09 120.265 1303.5 Q123.344 1298.9 129.154 1298.9 Z" fill="#000000" fill-rule="nonzero" fill-opacity="1" /><path clip-path="url(#clip220)" d="M149.316 1328.2 L154.2 1328.2 L154.2 1334.08 L149.316 1334.08 L149.316 1328.2 Z" fill="#000000" fill-rule="nonzero" fill-opacity="1" /><path clip-path="url(#clip220)" d="M168.413 1330.15 L184.733 1330.15 L184.733 1334.08 L162.788 1334.08 L162.788 1330.15 Q165.45 1327.39 170.034 1322.76 Q174.64 1318.11 175.821 1316.77 Q178.066 1314.24 178.946 1312.51 Q179.848 1310.75 179.848 1309.06 Q179.848 1306.3 177.904 1304.57 Q175.983 1302.83 172.881 1302.83 Q170.682 1302.83 168.228 1303.6 Q165.798 1304.36 163.02 1305.91 L163.02 1301.19 Q165.844 1300.06 168.297 1299.48 Q170.751 1298.9 172.788 1298.9 Q178.159 1298.9 181.353 1301.58 Q184.547 1304.27 184.547 1308.76 Q184.547 1310.89 183.737 1312.81 Q182.95 1314.71 180.844 1317.3 Q180.265 1317.97 177.163 1321.19 Q174.061 1324.38 168.413 1330.15 Z" fill="#000000" fill-rule="nonzero" fill-opacity="1" /><path clip-path="url(#clip220)" d="M194.594 1299.52 L212.95 1299.52 L212.95 1303.46 L198.876 1303.46 L198.876 1311.93 Q199.895 1311.58 200.913 1311.42 Q201.932 1311.24 202.95 1311.24 Q208.737 1311.24 212.117 1314.41 Q215.496 1317.58 215.496 1322.99 Q215.496 1328.57 212.024 1331.68 Q208.552 1334.75 202.233 1334.75 Q200.057 1334.75 197.788 1334.38 Q195.543 1334.01 193.135 1333.27 L193.135 1328.57 Q195.219 1329.71 197.441 1330.26 Q199.663 1330.82 202.14 1330.82 Q206.145 1330.82 208.482 1328.71 Q210.82 1326.61 210.82 1322.99 Q210.82 1319.38 208.482 1317.28 Q206.145 1315.17 202.14 1315.17 Q200.265 1315.17 198.39 1315.59 Q196.538 1316 194.594 1316.88 L194.594 1299.52 Z" fill="#000000" fill-rule="nonzero" fill-opacity="1" /><path clip-path="url(#clip220)" d="M128.159 921.418 Q124.548 921.418 122.719 924.983 Q120.913 928.525 120.913 935.655 Q120.913 942.761 122.719 946.326 Q124.548 949.867 128.159 949.867 Q131.793 949.867 133.599 946.326 Q135.427 942.761 135.427 935.655 Q135.427 928.525 133.599 924.983 Q131.793 921.418 128.159 921.418 M128.159 917.715 Q133.969 917.715 137.025 922.321 Q140.103 926.905 140.103 935.655 Q140.103 944.381 137.025 948.988 Q133.969 953.571 128.159 953.571 Q122.349 953.571 119.27 948.988 Q116.214 944.381 116.214 935.655 Q116.214 926.905 119.27 922.321 Q122.349 917.715 128.159 917.715 Z" fill="#000000" fill-rule="nonzero" fill-opacity="1" /><path clip-path="url(#clip220)" d="M148.321 947.02 L153.205 947.02 L153.205 952.9 L148.321 952.9 L148.321 947.02 Z" fill="#000000" fill-rule="nonzero" fill-opacity="1" /><path clip-path="url(#clip220)" d="M163.436 918.34 L181.793 918.34 L181.793 922.275 L167.719 922.275 L167.719 930.747 Q168.737 930.4 169.756 930.238 Q170.774 930.053 171.793 930.053 Q177.58 930.053 180.959 933.224 Q184.339 936.395 184.339 941.812 Q184.339 947.391 180.867 950.492 Q177.395 953.571 171.075 953.571 Q168.899 953.571 166.631 953.201 Q164.385 952.83 161.978 952.09 L161.978 947.391 Q164.061 948.525 166.284 949.08 Q168.506 949.636 170.983 949.636 Q174.987 949.636 177.325 947.529 Q179.663 945.423 179.663 941.812 Q179.663 938.201 177.325 936.094 Q174.987 933.988 170.983 933.988 Q169.108 933.988 167.233 934.405 Q165.381 934.821 163.436 935.701 L163.436 918.34 Z" fill="#000000" fill-rule="nonzero" fill-opacity="1" /><path clip-path="url(#clip220)" d="M203.552 921.418 Q199.941 921.418 198.112 924.983 Q196.307 928.525 196.307 935.655 Q196.307 942.761 198.112 946.326 Q199.941 949.867 203.552 949.867 Q207.186 949.867 208.992 946.326 Q210.82 942.761 210.82 935.655 Q210.82 928.525 208.992 924.983 Q207.186 921.418 203.552 921.418 M203.552 917.715 Q209.362 917.715 212.418 922.321 Q215.496 926.905 215.496 935.655 Q215.496 944.381 212.418 948.988 Q209.362 953.571 203.552 953.571 Q197.742 953.571 194.663 948.988 Q191.608 944.381 191.608 935.655 Q191.608 926.905 194.663 922.321 Q197.742 917.715 203.552 917.715 Z" fill="#000000" fill-rule="nonzero" fill-opacity="1" /><path clip-path="url(#clip220)" d="M129.154 540.236 Q125.543 540.236 123.714 543.8 Q121.909 547.342 121.909 554.472 Q121.909 561.578 123.714 565.143 Q125.543 568.685 129.154 568.685 Q132.788 568.685 134.594 565.143 Q136.423 561.578 136.423 554.472 Q136.423 547.342 134.594 543.8 Q132.788 540.236 129.154 540.236 M129.154 536.532 Q134.964 536.532 138.02 541.138 Q141.099 545.722 141.099 554.472 Q141.099 563.198 138.02 567.805 Q134.964 572.388 129.154 572.388 Q123.344 572.388 120.265 567.805 Q117.21 563.198 117.21 554.472 Q117.21 545.722 120.265 541.138 Q123.344 536.532 129.154 536.532 Z" fill="#000000" fill-rule="nonzero" fill-opacity="1" /><path clip-path="url(#clip220)" d="M149.316 565.837 L154.2 565.837 L154.2 571.717 L149.316 571.717 L149.316 565.837 Z" fill="#000000" fill-rule="nonzero" fill-opacity="1" /><path clip-path="url(#clip220)" d="M163.205 537.157 L185.427 537.157 L185.427 539.148 L172.881 571.717 L167.997 571.717 L179.802 541.092 L163.205 541.092 L163.205 537.157 Z" fill="#000000" fill-rule="nonzero" fill-opacity="1" /><path clip-path="url(#clip220)" d="M194.594 537.157 L212.95 537.157 L212.95 541.092 L198.876 541.092 L198.876 549.564 Q199.895 549.217 200.913 549.055 Q201.932 548.87 202.95 548.87 Q208.737 548.87 212.117 552.041 Q215.496 555.212 215.496 560.629 Q215.496 566.208 212.024 569.31 Q208.552 572.388 202.233 572.388 Q200.057 572.388 197.788 572.018 Q195.543 571.648 193.135 570.907 L193.135 566.208 Q195.219 567.342 197.441 567.898 Q199.663 568.453 202.14 568.453 Q206.145 568.453 208.482 566.347 Q210.82 564.24 210.82 560.629 Q210.82 557.018 208.482 554.912 Q206.145 552.805 202.14 552.805 Q200.265 552.805 198.39 553.222 Q196.538 553.638 194.594 554.518 L194.594 537.157 Z" fill="#000000" fill-rule="nonzero" fill-opacity="1" /><path clip-path="url(#clip220)" d="M118.969 186.599 L126.608 186.599 L126.608 160.233 L118.298 161.9 L118.298 157.641 L126.562 155.974 L131.238 155.974 L131.238 186.599 L138.876 186.599 L138.876 190.534 L118.969 190.534 L118.969 186.599 Z" fill="#000000" fill-rule="nonzero" fill-opacity="1" /><path clip-path="url(#clip220)" d="M148.321 184.655 L153.205 184.655 L153.205 190.534 L148.321 190.534 L148.321 184.655 Z" fill="#000000" fill-rule="nonzero" fill-opacity="1" /><path clip-path="url(#clip220)" d="M173.39 159.053 Q169.779 159.053 167.95 162.618 Q166.145 166.159 166.145 173.289 Q166.145 180.395 167.95 183.96 Q169.779 187.502 173.39 187.502 Q177.024 187.502 178.83 183.96 Q180.659 180.395 180.659 173.289 Q180.659 166.159 178.83 162.618 Q177.024 159.053 173.39 159.053 M173.39 155.349 Q179.2 155.349 182.256 159.956 Q185.334 164.539 185.334 173.289 Q185.334 182.016 182.256 186.622 Q179.2 191.205 173.39 191.205 Q167.58 191.205 164.501 186.622 Q161.446 182.016 161.446 173.289 Q161.446 164.539 164.501 159.956 Q167.58 155.349 173.39 155.349 Z" fill="#000000" fill-rule="nonzero" fill-opacity="1" /><path clip-path="url(#clip220)" d="M203.552 159.053 Q199.941 159.053 198.112 162.618 Q196.307 166.159 196.307 173.289 Q196.307 180.395 198.112 183.96 Q199.941 187.502 203.552 187.502 Q207.186 187.502 208.992 183.96 Q210.82 180.395 210.82 173.289 Q210.82 166.159 208.992 162.618 Q207.186 159.053 203.552 159.053 M203.552 155.349 Q209.362 155.349 212.418 159.956 Q215.496 164.539 215.496 173.289 Q215.496 182.016 212.418 186.622 Q209.362 191.205 203.552 191.205 Q197.742 191.205 194.663 186.622 Q191.608 182.016 191.608 173.289 Q191.608 164.539 194.663 159.956 Q197.742 155.349 203.552 155.349 Z" fill="#000000" fill-rule="nonzero" fill-opacity="1" /><path clip-path="url(#clip220)" d="M15.678 1162.65 L21.9483 1162.65 Q20.1977 1166.31 19.3383 1169.56 Q18.479 1172.8 18.479 1175.83 Q18.479 1181.08 20.516 1183.94 Q22.553 1186.78 26.3088 1186.78 Q29.4598 1186.78 31.0831 1184.9 Q32.6745 1182.99 33.6612 1177.71 L34.4569 1173.82 Q35.8255 1166.63 39.2948 1163.22 Q42.7323 1159.79 48.5251 1159.79 Q55.4319 1159.79 58.9967 1164.43 Q62.5615 1169.05 62.5615 1177.99 Q62.5615 1181.37 61.7976 1185.18 Q61.0337 1188.97 59.5378 1193.05 L52.9174 1193.05 Q55.1136 1189.13 56.2276 1185.38 Q57.3416 1181.62 57.3416 1177.99 Q57.3416 1172.49 55.1773 1169.49 Q53.0129 1166.5 49.0025 1166.5 Q45.5014 1166.5 43.528 1168.67 Q41.5546 1170.8 40.568 1175.7 L39.8041 1179.61 Q38.3718 1186.81 35.3162 1190.02 Q32.2607 1193.24 26.818 1193.24 Q20.516 1193.24 16.8875 1188.81 Q13.2591 1184.36 13.2591 1176.56 Q13.2591 1173.22 13.8638 1169.75 Q14.4686 1166.28 15.678 1162.65 Z" fill="#000000" fill-rule="nonzero" fill-opacity="1" /><path clip-path="url(#clip220)" d="M47.5702 1150.62 L25.9905 1150.62 L25.9905 1144.76 L47.3474 1144.76 Q52.4082 1144.76 54.9545 1142.79 Q57.4689 1140.82 57.4689 1136.87 Q57.4689 1132.13 54.4452 1129.39 Q51.4215 1126.62 46.2016 1126.62 L25.9905 1126.62 L25.9905 1120.76 L61.6384 1120.76 L61.6384 1126.62 L56.1639 1126.62 Q59.4104 1128.75 61.0019 1131.59 Q62.5615 1134.39 62.5615 1138.11 Q62.5615 1144.25 58.742 1147.44 Q54.9226 1150.62 47.5702 1150.62 M25.1311 1135.88 L25.1311 1135.88 Z" fill="#000000" fill-rule="nonzero" fill-opacity="1" /><path clip-path="url(#clip220)" d="M31.465 1088.04 Q30.8921 1089.03 30.6375 1090.21 Q30.351 1091.35 30.351 1092.75 Q30.351 1097.72 33.5975 1100.39 Q36.8122 1103.04 42.8596 1103.04 L61.6384 1103.04 L61.6384 1108.92 L25.9905 1108.92 L25.9905 1103.04 L31.5287 1103.04 Q28.2821 1101.19 26.7225 1098.23 Q25.1311 1095.27 25.1311 1091.04 Q25.1311 1090.43 25.2266 1089.7 Q25.2903 1088.97 25.4494 1088.08 L31.465 1088.04 Z" fill="#000000" fill-rule="nonzero" fill-opacity="1" /><path clip-path="url(#clip220)" d="M25.9905 1086.1 L25.9905 1079.9 L55.9093 1068.76 L25.9905 1057.62 L25.9905 1051.41 L61.6384 1064.78 L61.6384 1072.73 L25.9905 1086.1 Z" fill="#000000" fill-rule="nonzero" fill-opacity="1" /><path clip-path="url(#clip220)" d="M25.9905 1043.33 L25.9905 1037.47 L61.6384 1037.47 L61.6384 1043.33 L25.9905 1043.33 M12.1132 1043.33 L12.1132 1037.47 L19.5293 1037.47 L19.5293 1043.33 L12.1132 1043.33 Z" fill="#000000" fill-rule="nonzero" fill-opacity="1" /><path clip-path="url(#clip220)" d="M25.9905 1029.42 L25.9905 1023.21 L55.9093 1012.07 L25.9905 1000.93 L25.9905 994.723 L61.6384 1008.09 L61.6384 1016.05 L25.9905 1029.42 Z" fill="#000000" fill-rule="nonzero" fill-opacity="1" /><path clip-path="url(#clip220)" d="M30.0964 972.825 Q30.0964 977.536 33.7885 980.273 Q37.4488 983.01 43.8463 983.01 Q50.2438 983.01 53.9359 980.305 Q57.5962 977.567 57.5962 972.825 Q57.5962 968.146 53.9041 965.409 Q50.212 962.672 43.8463 962.672 Q37.5124 962.672 33.8203 965.409 Q30.0964 968.146 30.0964 972.825 M25.1311 972.825 Q25.1311 965.186 30.0964 960.826 Q35.0616 956.465 43.8463 956.465 Q52.5991 956.465 57.5962 960.826 Q62.5615 965.186 62.5615 972.825 Q62.5615 980.496 57.5962 984.856 Q52.5991 989.185 43.8463 989.185 Q35.0616 989.185 30.0964 984.856 Q25.1311 980.496 25.1311 972.825 Z" fill="#000000" fill-rule="nonzero" fill-opacity="1" /><path clip-path="url(#clip220)" d="M31.465 926.101 Q30.8921 927.087 30.6375 928.265 Q30.351 929.411 30.351 930.811 Q30.351 935.777 33.5975 938.45 Q36.8122 941.092 42.8596 941.092 L61.6384 941.092 L61.6384 946.98 L25.9905 946.98 L25.9905 941.092 L31.5287 941.092 Q28.2821 939.246 26.7225 936.286 Q25.1311 933.326 25.1311 929.093 Q25.1311 928.488 25.2266 927.756 Q25.2903 927.024 25.4494 926.133 L31.465 926.101 Z" fill="#000000" fill-rule="nonzero" fill-opacity="1" /><path clip-path="url(#clip220)" d="M27.0408 897.232 L32.579 897.232 Q31.3059 899.715 30.6693 902.388 Q30.0327 905.062 30.0327 907.927 Q30.0327 912.287 31.3695 914.483 Q32.7063 916.648 35.3799 916.648 Q37.4169 916.648 38.5946 915.088 Q39.7404 913.528 40.7908 908.818 L41.2364 906.813 Q42.5732 900.574 45.0239 897.964 Q47.4429 895.323 51.8034 895.323 Q56.7687 895.323 59.6651 899.269 Q62.5615 903.184 62.5615 910.059 Q62.5615 912.924 61.9886 916.043 Q61.4475 919.13 60.3335 922.568 L54.2861 922.568 Q55.973 919.321 56.8323 916.17 Q57.6599 913.019 57.6599 909.932 Q57.6599 905.794 56.2594 903.566 Q54.8271 901.338 52.249 901.338 Q49.8619 901.338 48.5887 902.961 Q47.3156 904.553 46.1379 909.995 L45.6605 912.032 Q44.5147 917.475 42.1594 919.894 Q39.7722 922.313 35.6345 922.313 Q30.6056 922.313 27.8684 918.748 Q25.1311 915.184 25.1311 908.627 Q25.1311 905.38 25.6085 902.516 Q26.086 899.651 27.0408 897.232 Z" fill="#000000" fill-rule="nonzero" fill-opacity="1" /><path clip-path="url(#clip220)" d="M40.1224 856.364 L61.6384 856.364 L61.6384 862.221 L40.3133 862.221 Q35.2526 862.221 32.7381 864.194 Q30.2237 866.168 30.2237 870.114 Q30.2237 874.857 33.2474 877.594 Q36.2711 880.331 41.491 880.331 L61.6384 880.331 L61.6384 886.22 L12.1132 886.22 L12.1132 880.331 L31.5287 880.331 Q28.314 878.231 26.7225 875.398 Q25.1311 872.533 25.1311 868.809 Q25.1311 862.666 28.9505 859.515 Q32.7381 856.364 40.1224 856.364 Z" fill="#000000" fill-rule="nonzero" fill-opacity="1" /><path clip-path="url(#clip220)" d="M25.9905 844.683 L25.9905 838.827 L61.6384 838.827 L61.6384 844.683 L25.9905 844.683 M12.1132 844.683 L12.1132 838.827 L19.5293 838.827 L19.5293 844.683 L12.1132 844.683 Z" fill="#000000" fill-rule="nonzero" fill-opacity="1" /><path clip-path="url(#clip220)" d="M56.2912 820.907 L75.1974 820.907 L75.1974 826.796 L25.9905 826.796 L25.9905 820.907 L31.4013 820.907 Q28.2185 819.061 26.6907 816.26 Q25.1311 813.428 25.1311 809.513 Q25.1311 803.02 30.2873 798.978 Q35.4436 794.903 43.8463 794.903 Q52.249 794.903 57.4052 798.978 Q62.5615 803.02 62.5615 809.513 Q62.5615 813.428 61.0337 816.26 Q59.4741 819.061 56.2912 820.907 M43.8463 800.983 Q37.3851 800.983 33.7248 803.656 Q30.0327 806.298 30.0327 810.945 Q30.0327 815.592 33.7248 818.266 Q37.3851 820.907 43.8463 820.907 Q50.3075 820.907 53.9996 818.266 Q57.6599 815.592 57.6599 810.945 Q57.6599 806.298 53.9996 803.656 Q50.3075 800.983 43.8463 800.983 Z" fill="#000000" fill-rule="nonzero" fill-opacity="1" /><path clip-path="url(#clip220)" d="M12.1132 764.475 L12.1132 758.619 L61.6384 758.619 L61.6384 764.475 L12.1132 764.475 Z" fill="#000000" fill-rule="nonzero" fill-opacity="1" /><path clip-path="url(#clip220)" d="M12.1769 732.297 Q19.4975 736.562 26.6589 738.631 Q33.8203 740.699 41.1727 740.699 Q48.5251 740.699 55.7502 738.631 Q62.9434 736.53 70.2321 732.297 L70.2321 737.389 Q62.7524 742.164 55.5274 744.551 Q48.3023 746.906 41.1727 746.906 Q34.0749 746.906 26.8817 744.551 Q19.6884 742.195 12.1769 737.389 L12.1769 732.297 Z" fill="#000000" fill-rule="nonzero" fill-opacity="1" /><path clip-path="url(#clip220)" d="M25.9905 691.302 L43.337 704.192 L61.6384 690.633 L61.6384 697.54 L47.6339 707.916 L61.6384 718.292 L61.6384 725.199 L42.9869 711.354 L25.9905 724.021 L25.9905 717.115 L38.6901 707.661 L25.9905 698.208 L25.9905 691.302 Z" fill="#000000" fill-rule="nonzero" fill-opacity="1" /><path clip-path="url(#clip220)" d="M12.1769 683.281 L12.1769 678.188 Q19.6884 673.414 26.8817 671.059 Q34.0749 668.672 41.1727 668.672 Q48.3023 668.672 55.5274 671.059 Q62.7524 673.414 70.2321 678.188 L70.2321 683.281 Q62.9434 679.048 55.7502 676.979 Q48.5251 674.878 41.1727 674.878 Q33.8203 674.878 26.6589 676.979 Q19.4975 679.048 12.1769 683.281 Z" fill="#000000" fill-rule="nonzero" fill-opacity="1" /><path clip-path="url(#clip220)" d="M543.294 14.0809 L543.294 22.0612 Q538.635 19.8332 534.503 18.7395 Q530.371 17.6457 526.523 17.6457 Q519.839 17.6457 516.193 20.2383 Q512.588 22.8309 512.588 27.611 Q512.588 31.6214 514.978 33.6873 Q517.409 35.7128 524.133 36.9686 L529.075 37.9813 Q538.23 39.7232 542.565 44.1387 Q546.94 48.5136 546.94 55.8863 Q546.94 64.6767 541.025 69.2137 Q535.152 73.7508 523.768 73.7508 Q519.475 73.7508 514.613 72.7785 Q509.793 71.8063 504.608 69.9024 L504.608 61.4765 Q509.59 64.2716 514.37 65.6895 Q519.15 67.1073 523.768 67.1073 Q530.777 67.1073 534.584 64.3527 Q538.392 61.598 538.392 56.4939 Q538.392 52.0379 535.638 49.5264 Q532.924 47.0148 526.685 45.759 L521.703 44.7868 Q512.547 42.9639 508.456 39.075 Q504.365 35.1862 504.365 28.2591 Q504.365 20.2383 509.995 15.6203 Q515.667 11.0023 525.591 11.0023 Q529.845 11.0023 534.26 11.7719 Q538.676 12.5416 543.294 14.0809 Z" fill="#000000" fill-rule="nonzero" fill-opacity="1" /><path clip-path="url(#clip220)" d="M558.606 54.671 L558.606 27.2059 L566.06 27.2059 L566.06 54.3874 Q566.06 60.8284 568.571 64.0691 Q571.083 67.2693 576.106 67.2693 Q582.142 67.2693 585.626 63.421 Q589.15 59.5726 589.15 52.9291 L589.15 27.2059 L596.604 27.2059 L596.604 72.576 L589.15 72.576 L589.15 65.6084 Q586.436 69.7404 582.831 71.7658 Q579.266 73.7508 574.526 73.7508 Q566.708 73.7508 562.657 68.8897 Q558.606 64.0286 558.606 54.671 M577.362 26.1121 L577.362 26.1121 Z" fill="#000000" fill-rule="nonzero" fill-opacity="1" /><path clip-path="url(#clip220)" d="M638.247 34.1734 Q636.991 33.4443 635.492 33.1202 Q634.034 32.7556 632.252 32.7556 Q625.932 32.7556 622.53 36.8875 Q619.167 40.9789 619.167 48.6757 L619.167 72.576 L611.673 72.576 L611.673 27.2059 L619.167 27.2059 L619.167 34.2544 Q621.517 30.1225 625.284 28.1376 Q629.051 26.1121 634.439 26.1121 Q635.209 26.1121 636.141 26.2337 Q637.072 26.3147 638.207 26.5172 L638.247 34.1734 Z" fill="#000000" fill-rule="nonzero" fill-opacity="1" /><path clip-path="url(#clip220)" d="M640.718 27.2059 L648.617 27.2059 L662.796 65.2844 L676.974 27.2059 L684.873 27.2059 L667.859 72.576 L657.732 72.576 L640.718 27.2059 Z" fill="#000000" fill-rule="nonzero" fill-opacity="1" /><path clip-path="url(#clip220)" d="M695.162 27.2059 L702.616 27.2059 L702.616 72.576 L695.162 72.576 L695.162 27.2059 M695.162 9.54393 L702.616 9.54393 L702.616 18.9825 L695.162 18.9825 L695.162 9.54393 Z" fill="#000000" fill-rule="nonzero" fill-opacity="1" /><path clip-path="url(#clip220)" d="M712.865 27.2059 L720.764 27.2059 L734.942 65.2844 L749.12 27.2059 L757.02 27.2059 L740.006 72.576 L729.879 72.576 L712.865 27.2059 Z" fill="#000000" fill-rule="nonzero" fill-opacity="1" /><path clip-path="url(#clip220)" d="M784.89 32.4315 Q778.894 32.4315 775.411 37.1306 Q771.927 41.7891 771.927 49.9314 Q771.927 58.0738 775.37 62.7728 Q778.854 67.4314 784.89 67.4314 Q790.845 67.4314 794.328 62.7323 Q797.812 58.0333 797.812 49.9314 Q797.812 41.8701 794.328 37.1711 Q790.845 32.4315 784.89 32.4315 M784.89 26.1121 Q794.612 26.1121 800.162 32.4315 Q805.711 38.7509 805.711 49.9314 Q805.711 61.0714 800.162 67.4314 Q794.612 73.7508 784.89 73.7508 Q775.127 73.7508 769.577 67.4314 Q764.068 61.0714 764.068 49.9314 Q764.068 38.7509 769.577 32.4315 Q775.127 26.1121 784.89 26.1121 Z" fill="#000000" fill-rule="nonzero" fill-opacity="1" /><path clip-path="url(#clip220)" d="M844.357 34.1734 Q843.101 33.4443 841.602 33.1202 Q840.144 32.7556 838.362 32.7556 Q832.042 32.7556 828.64 36.8875 Q825.277 40.9789 825.277 48.6757 L825.277 72.576 L817.783 72.576 L817.783 27.2059 L825.277 27.2059 L825.277 34.2544 Q827.627 30.1225 831.394 28.1376 Q835.162 26.1121 840.549 26.1121 Q841.319 26.1121 842.251 26.2337 Q843.182 26.3147 844.317 26.5172 L844.357 34.1734 Z" fill="#000000" fill-rule="nonzero" fill-opacity="1" /><path clip-path="url(#clip220)" d="M881.099 28.5427 L881.099 35.5912 Q877.939 33.9709 874.536 33.1607 Q871.134 32.3505 867.488 32.3505 Q861.938 32.3505 859.143 34.0519 Q856.388 35.7533 856.388 39.156 Q856.388 41.7486 858.373 43.2475 Q860.358 44.7058 866.353 46.0426 L868.906 46.6097 Q876.845 48.3111 880.167 51.4303 Q883.529 54.509 883.529 60.0587 Q883.529 66.3781 878.506 70.0644 Q873.524 73.7508 864.774 73.7508 Q861.128 73.7508 857.158 73.0216 Q853.229 72.3329 848.854 70.9151 L848.854 63.2184 Q852.985 65.3654 856.996 66.4591 Q861.006 67.5124 864.936 67.5124 Q870.202 67.5124 873.037 65.73 Q875.873 63.9071 875.873 60.6258 Q875.873 57.5877 873.807 55.9673 Q871.782 54.3469 864.855 52.8481 L862.262 52.2405 Q855.335 50.7821 852.256 47.7845 Q849.178 44.7463 849.178 39.4801 Q849.178 33.0797 853.715 29.5959 Q858.252 26.1121 866.597 26.1121 Q870.728 26.1121 874.374 26.7198 Q878.02 27.3274 881.099 28.5427 Z" fill="#000000" fill-rule="nonzero" fill-opacity="1" /><path clip-path="url(#clip220)" d="M933.112 45.1919 L933.112 72.576 L925.659 72.576 L925.659 45.4349 Q925.659 38.994 923.147 35.7938 Q920.636 32.5936 915.612 32.5936 Q909.577 32.5936 906.093 36.4419 Q902.609 40.2903 902.609 46.9338 L902.609 72.576 L895.115 72.576 L895.115 9.54393 L902.609 9.54393 L902.609 34.2544 Q905.283 30.163 908.888 28.1376 Q912.534 26.1121 917.273 26.1121 Q925.092 26.1121 929.102 30.9732 Q933.112 35.7938 933.112 45.1919 Z" fill="#000000" fill-rule="nonzero" fill-opacity="1" /><path clip-path="url(#clip220)" d="M947.979 27.2059 L955.433 27.2059 L955.433 72.576 L947.979 72.576 L947.979 27.2059 M947.979 9.54393 L955.433 9.54393 L955.433 18.9825 L947.979 18.9825 L947.979 9.54393 Z" fill="#000000" fill-rule="nonzero" fill-opacity="1" /><path clip-path="url(#clip220)" d="M978.239 65.7705 L978.239 89.8329 L970.745 89.8329 L970.745 27.2059 L978.239 27.2059 L978.239 34.0924 Q980.589 30.0415 984.154 28.0971 Q987.759 26.1121 992.742 26.1121 Q1001.01 26.1121 1006.15 32.6746 Q1011.34 39.2371 1011.34 49.9314 Q1011.34 60.6258 1006.15 67.1883 Q1001.01 73.7508 992.742 73.7508 Q987.759 73.7508 984.154 71.8063 Q980.589 69.8214 978.239 65.7705 M1003.6 49.9314 Q1003.6 41.7081 1000.2 37.0496 Q996.833 32.3505 990.919 32.3505 Q985.004 32.3505 981.602 37.0496 Q978.239 41.7081 978.239 49.9314 Q978.239 58.1548 981.602 62.8538 Q985.004 67.5124 990.919 67.5124 Q996.833 67.5124 1000.2 62.8538 Q1003.6 58.1548 1003.6 49.9314 Z" fill="#000000" fill-rule="nonzero" fill-opacity="1" /><path clip-path="url(#clip220)" d="M1049.29 54.671 L1049.29 27.2059 L1056.75 27.2059 L1056.75 54.3874 Q1056.75 60.8284 1059.26 64.0691 Q1061.77 67.2693 1066.79 67.2693 Q1072.83 67.2693 1076.31 63.421 Q1079.84 59.5726 1079.84 52.9291 L1079.84 27.2059 L1087.29 27.2059 L1087.29 72.576 L1079.84 72.576 L1079.84 65.6084 Q1077.12 69.7404 1073.52 71.7658 Q1069.95 73.7508 1065.21 73.7508 Q1057.39 73.7508 1053.34 68.8897 Q1049.29 64.0286 1049.29 54.671 M1068.05 26.1121 L1068.05 26.1121 Z" fill="#000000" fill-rule="nonzero" fill-opacity="1" /><path clip-path="url(#clip220)" d="M1140.36 45.1919 L1140.36 72.576 L1132.9 72.576 L1132.9 45.4349 Q1132.9 38.994 1130.39 35.7938 Q1127.88 32.5936 1122.86 32.5936 Q1116.82 32.5936 1113.34 36.4419 Q1109.85 40.2903 1109.85 46.9338 L1109.85 72.576 L1102.36 72.576 L1102.36 27.2059 L1109.85 27.2059 L1109.85 34.2544 Q1112.53 30.163 1116.13 28.1376 Q1119.78 26.1121 1124.52 26.1121 Q1132.34 26.1121 1136.35 30.9732 Q1140.36 35.7938 1140.36 45.1919 Z" fill="#000000" fill-rule="nonzero" fill-opacity="1" /><path clip-path="url(#clip220)" d="M1185.08 34.0924 L1185.08 9.54393 L1192.53 9.54393 L1192.53 72.576 L1185.08 72.576 L1185.08 65.7705 Q1182.73 69.8214 1179.12 71.8063 Q1175.56 73.7508 1170.54 73.7508 Q1162.31 73.7508 1157.13 67.1883 Q1151.98 60.6258 1151.98 49.9314 Q1151.98 39.2371 1157.13 32.6746 Q1162.31 26.1121 1170.54 26.1121 Q1175.56 26.1121 1179.12 28.0971 Q1182.73 30.0415 1185.08 34.0924 M1159.68 49.9314 Q1159.68 58.1548 1163.04 62.8538 Q1166.44 67.5124 1172.36 67.5124 Q1178.27 67.5124 1181.68 62.8538 Q1185.08 58.1548 1185.08 49.9314 Q1185.08 41.7081 1181.68 37.0496 Q1178.27 32.3505 1172.36 32.3505 Q1166.44 32.3505 1163.04 37.0496 Q1159.68 41.7081 1159.68 49.9314 Z" fill="#000000" fill-rule="nonzero" fill-opacity="1" /><path clip-path="url(#clip220)" d="M1246.69 48.0275 L1246.69 51.6733 L1212.42 51.6733 Q1212.91 59.3701 1217.04 63.421 Q1221.21 67.4314 1228.63 67.4314 Q1232.92 67.4314 1236.93 66.3781 Q1240.98 65.3249 1244.95 63.2184 L1244.95 70.267 Q1240.94 71.9684 1236.73 72.8596 Q1232.51 73.7508 1228.18 73.7508 Q1217.32 73.7508 1210.96 67.4314 Q1204.64 61.1119 1204.64 50.3365 Q1204.64 39.1965 1210.64 32.6746 Q1216.68 26.1121 1226.88 26.1121 Q1236.04 26.1121 1241.35 32.0264 Q1246.69 37.9003 1246.69 48.0275 M1239.24 45.84 Q1239.16 39.7232 1235.8 36.0774 Q1232.47 32.4315 1226.96 32.4315 Q1220.73 32.4315 1216.96 35.9558 Q1213.23 39.4801 1212.67 45.8805 L1239.24 45.84 Z" fill="#000000" fill-rule="nonzero" fill-opacity="1" /><path clip-path="url(#clip220)" d="M1285.22 34.1734 Q1283.96 33.4443 1282.46 33.1202 Q1281 32.7556 1279.22 32.7556 Q1272.9 32.7556 1269.5 36.8875 Q1266.14 40.9789 1266.14 48.6757 L1266.14 72.576 L1258.64 72.576 L1258.64 27.2059 L1266.14 27.2059 L1266.14 34.2544 Q1268.49 30.1225 1272.25 28.1376 Q1276.02 26.1121 1281.41 26.1121 Q1282.18 26.1121 1283.11 26.2337 Q1284.04 26.3147 1285.18 26.5172 L1285.22 34.1734 Z" fill="#000000" fill-rule="nonzero" fill-opacity="1" /><path clip-path="url(#clip220)" d="M1349.26 34.0924 L1349.26 9.54393 L1356.72 9.54393 L1356.72 72.576 L1349.26 72.576 L1349.26 65.7705 Q1346.91 69.8214 1343.31 71.8063 Q1339.74 73.7508 1334.72 73.7508 Q1326.5 73.7508 1321.31 67.1883 Q1316.17 60.6258 1316.17 49.9314 Q1316.17 39.2371 1321.31 32.6746 Q1326.5 26.1121 1334.72 26.1121 Q1339.74 26.1121 1343.31 28.0971 Q1346.91 30.0415 1349.26 34.0924 M1323.86 49.9314 Q1323.86 58.1548 1327.22 62.8538 Q1330.63 67.5124 1336.54 67.5124 Q1342.46 67.5124 1345.86 62.8538 Q1349.26 58.1548 1349.26 49.9314 Q1349.26 41.7081 1345.86 37.0496 Q1342.46 32.3505 1336.54 32.3505 Q1330.63 32.3505 1327.22 37.0496 Q1323.86 41.7081 1323.86 49.9314 Z" fill="#000000" fill-rule="nonzero" fill-opacity="1" /><path clip-path="url(#clip220)" d="M1372.07 27.2059 L1379.52 27.2059 L1379.52 72.576 L1372.07 72.576 L1372.07 27.2059 M1372.07 9.54393 L1379.52 9.54393 L1379.52 18.9825 L1372.07 18.9825 L1372.07 9.54393 Z" fill="#000000" fill-rule="nonzero" fill-opacity="1" /><path clip-path="url(#clip220)" d="M1418.09 9.54393 L1418.09 15.7418 L1410.96 15.7418 Q1406.95 15.7418 1405.37 17.3622 Q1403.83 18.9825 1403.83 23.1955 L1403.83 27.2059 L1416.1 27.2059 L1416.1 32.9987 L1403.83 32.9987 L1403.83 72.576 L1396.33 72.576 L1396.33 32.9987 L1389.2 32.9987 L1389.2 27.2059 L1396.33 27.2059 L1396.33 24.0462 Q1396.33 16.471 1399.86 13.0277 Q1403.38 9.54393 1411.04 9.54393 L1418.09 9.54393 Z" fill="#000000" fill-rule="nonzero" fill-opacity="1" /><path clip-path="url(#clip220)" d="M1447.29 9.54393 L1447.29 15.7418 L1440.16 15.7418 Q1436.15 15.7418 1434.57 17.3622 Q1433.03 18.9825 1433.03 23.1955 L1433.03 27.2059 L1445.31 27.2059 L1445.31 32.9987 L1433.03 32.9987 L1433.03 72.576 L1425.54 72.576 L1425.54 32.9987 L1418.41 32.9987 L1418.41 27.2059 L1425.54 27.2059 L1425.54 24.0462 Q1425.54 16.471 1429.06 13.0277 Q1432.59 9.54393 1440.25 9.54393 L1447.29 9.54393 Z" fill="#000000" fill-rule="nonzero" fill-opacity="1" /><path clip-path="url(#clip220)" d="M1492.34 48.0275 L1492.34 51.6733 L1458.07 51.6733 Q1458.56 59.3701 1462.69 63.421 Q1466.86 67.4314 1474.27 67.4314 Q1478.57 67.4314 1482.58 66.3781 Q1486.63 65.3249 1490.6 63.2184 L1490.6 70.267 Q1486.59 71.9684 1482.37 72.8596 Q1478.16 73.7508 1473.83 73.7508 Q1462.97 73.7508 1456.61 67.4314 Q1450.29 61.1119 1450.29 50.3365 Q1450.29 39.1965 1456.29 32.6746 Q1462.32 26.1121 1472.53 26.1121 Q1481.69 26.1121 1486.99 32.0264 Q1492.34 37.9003 1492.34 48.0275 M1484.89 45.84 Q1484.81 39.7232 1481.44 36.0774 Q1478.12 32.4315 1472.61 32.4315 Q1466.37 32.4315 1462.61 35.9558 Q1458.88 39.4801 1458.31 45.8805 L1484.89 45.84 Z" fill="#000000" fill-rule="nonzero" fill-opacity="1" /><path clip-path="url(#clip220)" d="M1530.86 34.1734 Q1529.61 33.4443 1528.11 33.1202 Q1526.65 32.7556 1524.87 32.7556 Q1518.55 32.7556 1515.15 36.8875 Q1511.78 40.9789 1511.78 48.6757 L1511.78 72.576 L1504.29 72.576 L1504.29 27.2059 L1511.78 27.2059 L1511.78 34.2544 Q1514.13 30.1225 1517.9 28.1376 Q1521.67 26.1121 1527.06 26.1121 Q1527.83 26.1121 1528.76 26.2337 Q1529.69 26.3147 1530.82 26.5172 L1530.86 34.1734 Z" fill="#000000" fill-rule="nonzero" fill-opacity="1" /><path clip-path="url(#clip220)" d="M1575.67 48.0275 L1575.67 51.6733 L1541.4 51.6733 Q1541.88 59.3701 1546.01 63.421 Q1550.19 67.4314 1557.6 67.4314 Q1561.89 67.4314 1565.9 66.3781 Q1569.96 65.3249 1573.92 63.2184 L1573.92 70.267 Q1569.91 71.9684 1565.7 72.8596 Q1561.49 73.7508 1557.15 73.7508 Q1546.3 73.7508 1539.94 67.4314 Q1533.62 61.1119 1533.62 50.3365 Q1533.62 39.1965 1539.61 32.6746 Q1545.65 26.1121 1555.86 26.1121 Q1565.01 26.1121 1570.32 32.0264 Q1575.67 37.9003 1575.67 48.0275 M1568.21 45.84 Q1568.13 39.7232 1564.77 36.0774 Q1561.45 32.4315 1555.94 32.4315 Q1549.7 32.4315 1545.93 35.9558 Q1542.21 39.4801 1541.64 45.8805 L1568.21 45.84 Z" fill="#000000" fill-rule="nonzero" fill-opacity="1" /><path clip-path="url(#clip220)" d="M1625.61 45.1919 L1625.61 72.576 L1618.16 72.576 L1618.16 45.4349 Q1618.16 38.994 1615.65 35.7938 Q1613.14 32.5936 1608.11 32.5936 Q1602.08 32.5936 1598.59 36.4419 Q1595.11 40.2903 1595.11 46.9338 L1595.11 72.576 L1587.62 72.576 L1587.62 27.2059 L1595.11 27.2059 L1595.11 34.2544 Q1597.78 30.163 1601.39 28.1376 Q1605.04 26.1121 1609.78 26.1121 Q1617.59 26.1121 1621.6 30.9732 Q1625.61 35.7938 1625.61 45.1919 Z" fill="#000000" fill-rule="nonzero" fill-opacity="1" /><path clip-path="url(#clip220)" d="M1647.85 14.324 L1647.85 27.2059 L1663.21 27.2059 L1663.21 32.9987 L1647.85 32.9987 L1647.85 57.6282 Q1647.85 63.1779 1649.35 64.7578 Q1650.89 66.3376 1655.55 66.3376 L1663.21 66.3376 L1663.21 72.576 L1655.55 72.576 Q1646.92 72.576 1643.64 69.3758 Q1640.36 66.1351 1640.36 57.6282 L1640.36 32.9987 L1634.89 32.9987 L1634.89 27.2059 L1640.36 27.2059 L1640.36 14.324 L1647.85 14.324 Z" fill="#000000" fill-rule="nonzero" fill-opacity="1" /><path clip-path="url(#clip220)" d="M1734.71 35.9153 Q1737.5 30.8922 1741.39 28.5022 Q1745.28 26.1121 1750.54 26.1121 Q1757.63 26.1121 1761.48 31.0947 Q1765.33 36.0368 1765.33 45.1919 L1765.33 72.576 L1757.84 72.576 L1757.84 45.4349 Q1757.84 38.913 1755.53 35.7533 Q1753.22 32.5936 1748.48 32.5936 Q1742.69 32.5936 1739.32 36.4419 Q1735.96 40.2903 1735.96 46.9338 L1735.96 72.576 L1728.47 72.576 L1728.47 45.4349 Q1728.47 38.8725 1726.16 35.7533 Q1723.85 32.5936 1719.03 32.5936 Q1713.32 32.5936 1709.95 36.4824 Q1706.59 40.3308 1706.59 46.9338 L1706.59 72.576 L1699.1 72.576 L1699.1 27.2059 L1706.59 27.2059 L1706.59 34.2544 Q1709.14 30.082 1712.71 28.0971 Q1716.27 26.1121 1721.18 26.1121 Q1726.12 26.1121 1729.56 28.6237 Q1733.04 31.1352 1734.71 35.9153 Z" fill="#000000" fill-rule="nonzero" fill-opacity="1" /><path clip-path="url(#clip220)" d="M1797.78 32.4315 Q1791.78 32.4315 1788.3 37.1306 Q1784.81 41.7891 1784.81 49.9314 Q1784.81 58.0738 1788.26 62.7728 Q1791.74 67.4314 1797.78 67.4314 Q1803.73 67.4314 1807.22 62.7323 Q1810.7 58.0333 1810.7 49.9314 Q1810.7 41.8701 1807.22 37.1711 Q1803.73 32.4315 1797.78 32.4315 M1797.78 26.1121 Q1807.5 26.1121 1813.05 32.4315 Q1818.6 38.7509 1818.6 49.9314 Q1818.6 61.0714 1813.05 67.4314 Q1807.5 73.7508 1797.78 73.7508 Q1788.02 73.7508 1782.47 67.4314 Q1776.96 61.0714 1776.96 49.9314 Q1776.96 38.7509 1782.47 32.4315 Q1788.02 26.1121 1797.78 26.1121 Z" fill="#000000" fill-rule="nonzero" fill-opacity="1" /><path clip-path="url(#clip220)" d="M1857.25 34.1734 Q1855.99 33.4443 1854.49 33.1202 Q1853.03 32.7556 1851.25 32.7556 Q1844.93 32.7556 1841.53 36.8875 Q1838.17 40.9789 1838.17 48.6757 L1838.17 72.576 L1830.67 72.576 L1830.67 27.2059 L1838.17 27.2059 L1838.17 34.2544 Q1840.51 30.1225 1844.28 28.1376 Q1848.05 26.1121 1853.44 26.1121 Q1854.21 26.1121 1855.14 26.2337 Q1856.07 26.3147 1857.2 26.5172 L1857.25 34.1734 Z" fill="#000000" fill-rule="nonzero" fill-opacity="1" /><path clip-path="url(#clip220)" d="M1872.44 14.324 L1872.44 27.2059 L1887.79 27.2059 L1887.79 32.9987 L1872.44 32.9987 L1872.44 57.6282 Q1872.44 63.1779 1873.93 64.7578 Q1875.47 66.3376 1880.13 66.3376 L1887.79 66.3376 L1887.79 72.576 L1880.13 72.576 Q1871.5 72.576 1868.22 69.3758 Q1864.94 66.1351 1864.94 57.6282 L1864.94 32.9987 L1859.47 32.9987 L1859.47 27.2059 L1864.94 27.2059 L1864.94 14.324 L1872.44 14.324 Z" fill="#000000" fill-rule="nonzero" fill-opacity="1" /><path clip-path="url(#clip220)" d="M1918.21 49.7694 Q1909.18 49.7694 1905.69 51.8354 Q1902.21 53.9013 1902.21 58.8839 Q1902.21 62.8538 1904.8 65.2034 Q1907.44 67.5124 1911.93 67.5124 Q1918.13 67.5124 1921.86 63.1374 Q1925.62 58.7219 1925.62 51.4303 L1925.62 49.7694 L1918.21 49.7694 M1933.08 46.6907 L1933.08 72.576 L1925.62 72.576 L1925.62 65.6895 Q1923.07 69.8214 1919.26 71.8063 Q1915.46 73.7508 1909.95 73.7508 Q1902.98 73.7508 1898.85 69.8619 Q1894.76 65.9325 1894.76 59.3701 Q1894.76 51.7138 1899.86 47.825 Q1905.01 43.9361 1915.17 43.9361 L1925.62 43.9361 L1925.62 43.2069 Q1925.62 38.0623 1922.22 35.2672 Q1918.86 32.4315 1912.74 32.4315 Q1908.85 32.4315 1905.17 33.3632 Q1901.48 34.295 1898.08 36.1584 L1898.08 29.2718 Q1902.17 27.692 1906.02 26.9223 Q1909.87 26.1121 1913.51 26.1121 Q1923.36 26.1121 1928.22 31.2163 Q1933.08 36.3204 1933.08 46.6907 Z" fill="#000000" fill-rule="nonzero" fill-opacity="1" /><path clip-path="url(#clip220)" d="M1948.43 9.54393 L1955.88 9.54393 L1955.88 72.576 L1948.43 72.576 L1948.43 9.54393 Z" fill="#000000" fill-rule="nonzero" fill-opacity="1" /><path clip-path="url(#clip220)" d="M1971.48 27.2059 L1978.93 27.2059 L1978.93 72.576 L1971.48 72.576 L1971.48 27.2059 M1971.48 9.54393 L1978.93 9.54393 L1978.93 18.9825 L1971.48 18.9825 L1971.48 9.54393 Z" fill="#000000" fill-rule="nonzero" fill-opacity="1" /><path clip-path="url(#clip220)" d="M2001.9 14.324 L2001.9 27.2059 L2017.26 27.2059 L2017.26 32.9987 L2001.9 32.9987 L2001.9 57.6282 Q2001.9 63.1779 2003.4 64.7578 Q2004.94 66.3376 2009.6 66.3376 L2017.26 66.3376 L2017.26 72.576 L2009.6 72.576 Q2000.97 72.576 1997.69 69.3758 Q1994.41 66.1351 1994.41 57.6282 L1994.41 32.9987 L1988.94 32.9987 L1988.94 27.2059 L1994.41 27.2059 L1994.41 14.324 L2001.9 14.324 Z" fill="#000000" fill-rule="nonzero" fill-opacity="1" /><path clip-path="url(#clip220)" d="M2045.94 76.7889 Q2042.78 84.8907 2039.78 87.3618 Q2036.78 89.8329 2031.76 89.8329 L2025.8 89.8329 L2025.8 83.5945 L2030.18 83.5945 Q2033.26 83.5945 2034.96 82.1361 Q2036.66 80.6778 2038.73 75.2496 L2040.06 71.8468 L2021.71 27.2059 L2029.61 27.2059 L2043.79 62.6918 L2057.97 27.2059 L2065.87 27.2059 L2045.94 76.7889 Z" fill="#000000" fill-rule="nonzero" fill-opacity="1" /><path clip-path="url(#clip220)" d="M2137.85 35.9153 Q2140.65 30.8922 2144.54 28.5022 Q2148.42 26.1121 2153.69 26.1121 Q2160.78 26.1121 2164.63 31.0947 Q2168.48 36.0368 2168.48 45.1919 L2168.48 72.576 L2160.98 72.576 L2160.98 45.4349 Q2160.98 38.913 2158.67 35.7533 Q2156.36 32.5936 2151.62 32.5936 Q2145.83 32.5936 2142.47 36.4419 Q2139.11 40.2903 2139.11 46.9338 L2139.11 72.576 L2131.61 72.576 L2131.61 45.4349 Q2131.61 38.8725 2129.3 35.7533 Q2126.99 32.5936 2122.17 32.5936 Q2116.46 32.5936 2113.1 36.4824 Q2109.74 40.3308 2109.74 46.9338 L2109.74 72.576 L2102.24 72.576 L2102.24 27.2059 L2109.74 27.2059 L2109.74 34.2544 Q2112.29 30.082 2115.85 28.0971 Q2119.42 26.1121 2124.32 26.1121 Q2129.26 26.1121 2132.71 28.6237 Q2136.19 31.1352 2137.85 35.9153 Z" fill="#000000" fill-rule="nonzero" fill-opacity="1" /><path clip-path="url(#clip220)" d="M2200.92 32.4315 Q2194.93 32.4315 2191.44 37.1306 Q2187.96 41.7891 2187.96 49.9314 Q2187.96 58.0738 2191.4 62.7728 Q2194.89 67.4314 2200.92 67.4314 Q2206.88 67.4314 2210.36 62.7323 Q2213.85 58.0333 2213.85 49.9314 Q2213.85 41.8701 2210.36 37.1711 Q2206.88 32.4315 2200.92 32.4315 M2200.92 26.1121 Q2210.65 26.1121 2216.2 32.4315 Q2221.75 38.7509 2221.75 49.9314 Q2221.75 61.0714 2216.2 67.4314 Q2210.65 73.7508 2200.92 73.7508 Q2191.16 73.7508 2185.61 67.4314 Q2180.1 61.0714 2180.1 49.9314 Q2180.1 38.7509 2185.61 32.4315 Q2191.16 26.1121 2200.92 26.1121 Z" fill="#000000" fill-rule="nonzero" fill-opacity="1" /><path clip-path="url(#clip220)" d="M2263.96 34.0924 L2263.96 9.54393 L2271.41 9.54393 L2271.41 72.576 L2263.96 72.576 L2263.96 65.7705 Q2261.61 69.8214 2258 71.8063 Q2254.44 73.7508 2249.41 73.7508 Q2241.19 73.7508 2236 67.1883 Q2230.86 60.6258 2230.86 49.9314 Q2230.86 39.2371 2236 32.6746 Q2241.19 26.1121 2249.41 26.1121 Q2254.44 26.1121 2258 28.0971 Q2261.61 30.0415 2263.96 34.0924 M2238.56 49.9314 Q2238.56 58.1548 2241.92 62.8538 Q2245.32 67.5124 2251.24 67.5124 Q2257.15 67.5124 2260.55 62.8538 Q2263.96 58.1548 2263.96 49.9314 Q2263.96 41.7081 2260.55 37.0496 Q2257.15 32.3505 2251.24 32.3505 Q2245.32 32.3505 2241.92 37.0496 Q2238.56 41.7081 2238.56 49.9314 Z" fill="#000000" fill-rule="nonzero" fill-opacity="1" /><path clip-path="url(#clip220)" d="M2325.57 48.0275 L2325.57 51.6733 L2291.3 51.6733 Q2291.79 59.3701 2295.92 63.421 Q2300.09 67.4314 2307.5 67.4314 Q2311.8 67.4314 2315.81 66.3781 Q2319.86 65.3249 2323.83 63.2184 L2323.83 70.267 Q2319.82 71.9684 2315.6 72.8596 Q2311.39 73.7508 2307.06 73.7508 Q2296.2 73.7508 2289.84 67.4314 Q2283.52 61.1119 2283.52 50.3365 Q2283.52 39.1965 2289.52 32.6746 Q2295.55 26.1121 2305.76 26.1121 Q2314.92 26.1121 2320.22 32.0264 Q2325.57 37.9003 2325.57 48.0275 M2318.12 45.84 Q2318.04 39.7232 2314.67 36.0774 Q2311.35 32.4315 2305.84 32.4315 Q2299.6 32.4315 2295.84 35.9558 Q2292.11 39.4801 2291.54 45.8805 L2318.12 45.84 Z" fill="#000000" fill-rule="nonzero" fill-opacity="1" /><path clip-path="url(#clip220)" d="M2337.8 9.54393 L2345.26 9.54393 L2345.26 72.576 L2337.8 72.576 L2337.8 9.54393 Z" fill="#000000" fill-rule="nonzero" fill-opacity="1" /><path clip-path="url(#clip220)" d="M2389.78 28.5427 L2389.78 35.5912 Q2386.62 33.9709 2383.21 33.1607 Q2379.81 32.3505 2376.17 32.3505 Q2370.62 32.3505 2367.82 34.0519 Q2365.07 35.7533 2365.07 39.156 Q2365.07 41.7486 2367.05 43.2475 Q2369.04 44.7058 2375.03 46.0426 L2377.58 46.6097 Q2385.52 48.3111 2388.85 51.4303 Q2392.21 54.509 2392.21 60.0587 Q2392.21 66.3781 2387.18 70.0644 Q2382.2 73.7508 2373.45 73.7508 Q2369.81 73.7508 2365.84 73.0216 Q2361.91 72.3329 2357.53 70.9151 L2357.53 63.2184 Q2361.66 65.3654 2365.67 66.4591 Q2369.68 67.5124 2373.61 67.5124 Q2378.88 67.5124 2381.72 65.73 Q2384.55 63.9071 2384.55 60.6258 Q2384.55 57.5877 2382.49 55.9673 Q2380.46 54.3469 2373.53 52.8481 L2370.94 52.2405 Q2364.01 50.7821 2360.93 47.7845 Q2357.86 44.7463 2357.86 39.4801 Q2357.86 33.0797 2362.39 29.5959 Q2366.93 26.1121 2375.27 26.1121 Q2379.41 26.1121 2383.05 26.7198 Q2386.7 27.3274 2389.78 28.5427 Z" fill="#000000" fill-rule="nonzero" fill-opacity="1" /><polyline clip-path="url(#clip221)" style="stroke:#009af9; stroke-linecap:round; stroke-linejoin:round; stroke-width:8; stroke-opacity:1; fill:none" points="323.315,188.425 368.313,205.017 413.312,223.141 458.311,242.916 503.31,264.462 548.309,287.903 593.308,313.363 638.307,340.967 683.305,370.835 728.304,403.079 773.303,437.804 818.302,475.099 863.301,515.034 908.3,557.653 953.299,602.971 998.298,650.963 1043.3,701.559 1088.3,754.637 1133.29,810.014 1178.29,867.442 1223.29,926.598 1268.29,987.088 1313.29,1048.44 1358.29,1110.1 1403.29,1171.46 1448.29,1231.85 1493.28,1290.57 1538.28,1346.89 1583.28,1400.13 1628.28,1449.63 1673.28,1494.82 1718.28,1535.27 1763.28,1570.67 1808.28,1600.9 1853.28,1626.04 1898.27,1646.32 1943.27,1662.16 1988.27,1674.07 2033.27,1682.69 2078.27,1688.65 "/>
<polyline clip-path="url(#clip221)" style="stroke:#e26f46; stroke-linecap:round; stroke-linejoin:round; stroke-width:8; stroke-opacity:1; fill:none" points="323.315,203.446 368.313,234.58 413.312,266.729 458.311,299.97 503.31,334.375 548.309,370.019 593.308,406.972 638.307,445.3 683.305,485.061 728.304,526.306 773.303,569.072 818.302,613.383 863.301,659.241 908.3,706.628 953.299,755.498 998.298,805.771 1043.3,857.335 1088.3,910.034 1133.29,963.669 1178.29,1017.99 1223.29,1072.71 1268.29,1127.48 1313.29,1181.9 1358.29,1235.54 1403.29,1287.92 1448.29,1338.57 1493.28,1386.97 1538.28,1432.64 1583.28,1475.11 1628.28,1514 1673.28,1548.98 1718.28,1579.83 1763.28,1606.45 1808.28,1628.88 1853.28,1647.29 1898.27,1661.94 1943.27,1673.24 1988.27,1681.63 2033.27,1687.63 "/>
<polyline clip-path="url(#clip221)" style="stroke:#3da44d; stroke-linecap:round; stroke-linejoin:round; stroke-width:8; stroke-opacity:1; fill:none" points="323.315,247.616 368.313,318.352 413.312,385.637 458.311,449.641 503.31,510.524 548.309,568.437 593.308,623.525 638.307,675.927 683.305,725.774 728.304,773.189 773.303,818.292 818.302,861.195 863.301,902.006 908.3,940.826 953.299,977.753 998.298,1012.88 1043.3,1046.29 1088.3,1078.08 1133.29,1108.31 1178.29,1137.07 1223.29,1164.42 1268.29,1190.45 1313.29,1215.2 1358.29,1238.75 1403.29,1261.14 1448.29,1282.45 1493.28,1302.71 1538.28,1321.99 1583.28,1340.33 1628.28,1357.77 1673.28,1374.36 1718.28,1390.15 1763.28,1405.16 1808.28,1419.44 1853.28,1433.03 1898.27,1445.95 1943.27,1458.24 1988.27,1469.93 2033.27,1481.06 2078.27,1491.64 2123.27,1501.7 2168.27,1511.27 2213.27,1520.38 2258.27,1529.04 2303.26,1537.28 2348.26,1545.12 2393.26,1552.57 2438.26,1559.66 2483.26,1566.41 2528.26,1572.83 2573.26,1578.93 "/>
<polyline clip-path="url(#clip221)" style="stroke:#c271d2; stroke-linecap:round; stroke-linejoin:round; stroke-width:8; stroke-opacity:1; fill:none" points="323.315,326.605 368.313,415.138 413.312,469.084 458.311,503.714 503.31,527.258 548.309,544.342 593.308,557.641 638.307,568.728 683.305,578.542 728.304,587.645 773.303,596.382 818.302,604.962 863.301,613.519 908.3,622.138 953.299,630.877 998.298,639.777 1043.3,648.871 1088.3,658.183 1133.29,667.74 1178.29,677.562 1223.29,687.673 1268.29,698.094 1313.29,708.848 1358.29,719.96 1403.29,731.454 1448.29,743.355 1493.28,755.689 1538.28,768.484 1583.28,781.767 1628.28,795.566 1673.28,809.911 1718.28,824.829 1763.28,840.35 1808.28,856.503 1853.28,873.314 1898.27,890.81 1943.27,909.017 1988.27,927.956 2033.27,947.648 2078.27,968.108 2123.27,989.348 2168.27,1011.37 2213.27,1034.19 2258.27,1057.78 2303.26,1082.13 2348.26,1107.23 2393.26,1133.02 2438.26,1159.47 2483.26,1186.52 2528.26,1214.08 2573.26,1242.08 "/>
<polyline clip-path="url(#clip221)" style="stroke:#ac8d18; stroke-linecap:round; stroke-linejoin:round; stroke-width:8; stroke-opacity:1; fill:none" points="323.315,173.254 368.313,174.473 413.312,176.909 458.311,180.555 503.31,185.403 548.309,191.442 593.308,198.656 638.307,207.028 683.305,216.54 728.304,227.168 773.303,238.888 818.302,251.672 863.301,265.49 908.3,280.31 953.299,296.1 998.298,312.822 1043.3,330.439 1088.3,348.912 1133.29,368.199 1178.29,388.259 1223.29,409.048 1268.29,430.521 1313.29,452.633 1358.29,475.338 1403.29,498.589 1448.29,522.339 1493.28,546.54 1538.28,571.144 1583.28,596.105 1628.28,621.374 1673.28,646.905 1718.28,672.652 1763.28,698.567 1808.28,724.606 1853.28,750.726 1898.27,776.881 1943.27,803.03 1988.27,829.133 2033.27,855.149 2078.27,881.039 2123.27,906.767 2168.27,932.298 2213.27,957.598 2258.27,982.634 2303.26,1007.38 2348.26,1031.8 2393.26,1055.87 2438.26,1079.56 2483.26,1102.86 2528.26,1125.74 2573.26,1148.18 "/>
<polyline clip-path="url(#clip221)" style="stroke:#00a9ad; stroke-linecap:round; stroke-linejoin:round; stroke-width:8; stroke-opacity:1; fill:none" points="323.315,188.425 368.313,204.641 413.312,221.864 458.311,240.055 503.31,259.173 548.309,279.176 593.308,300.02 638.307,321.659 683.305,344.046 728.304,367.135 773.303,390.876 818.302,415.22 863.301,440.117 908.3,465.518 953.299,491.371 998.298,517.627 1043.3,544.235 1088.3,571.144 1133.29,598.307 1178.29,625.672 1223.29,653.193 1268.29,680.822 1313.29,708.511 1358.29,736.217 1403.29,763.895 1448.29,791.501 1493.28,818.995 1538.28,846.337 1583.28,873.488 1628.28,900.412 1673.28,927.074 1718.28,953.44 1763.28,979.48 1808.28,1005.16 1853.28,1030.46 1898.27,1055.35 1943.27,1079.81 1988.27,1103.81 2033.27,1127.34 2078.27,1150.37 2123.27,1172.89 2168.27,1194.89 2213.27,1216.36 2258.27,1237.27 2303.26,1257.63 2348.26,1277.43 2393.26,1296.66 2438.26,1315.32 2483.26,1333.4 2528.26,1350.9 2573.26,1367.83 "/>
<path clip-path="url(#clip220)" d="M1848.04 544.216 L2561.26 544.216 L2561.26 181.336 L1848.04 181.336  Z" fill="#ffffff" fill-rule="evenodd" fill-opacity="1"/>
<polyline clip-path="url(#clip220)" style="stroke:#000000; stroke-linecap:round; stroke-linejoin:round; stroke-width:4; stroke-opacity:1; fill:none" points="1848.04,544.216 2561.26,544.216 2561.26,181.336 1848.04,181.336 1848.04,544.216 "/>
<polyline clip-path="url(#clip220)" style="stroke:#009af9; stroke-linecap:round; stroke-linejoin:round; stroke-width:8; stroke-opacity:1; fill:none" points="1874.54,233.176 2033.54,233.176 "/>
<path clip-path="url(#clip220)" d="M2085.59 245.526 L2085.59 236.243 L2077.96 236.243 L2077.96 232.401 L2090.22 232.401 L2090.22 247.239 Q2087.52 249.16 2084.25 250.155 Q2080.99 251.128 2077.28 251.128 Q2069.18 251.128 2064.6 246.405 Q2060.04 241.66 2060.04 233.211 Q2060.04 224.739 2064.6 220.017 Q2069.18 215.271 2077.28 215.271 Q2080.66 215.271 2083.7 216.105 Q2086.75 216.938 2089.32 218.558 L2089.32 223.535 Q2086.73 221.336 2083.81 220.225 Q2080.9 219.114 2077.68 219.114 Q2071.34 219.114 2068.14 222.656 Q2064.97 226.197 2064.97 233.211 Q2064.97 240.202 2068.14 243.743 Q2071.34 247.285 2077.68 247.285 Q2080.15 247.285 2082.1 246.868 Q2084.04 246.429 2085.59 245.526 Z" fill="#000000" fill-rule="nonzero" fill-opacity="1" /><path clip-path="url(#clip220)" d="M2108.63 227.517 Q2105.2 227.517 2103.21 230.202 Q2101.22 232.864 2101.22 237.517 Q2101.22 242.169 2103.19 244.854 Q2105.18 247.516 2108.63 247.516 Q2112.03 247.516 2114.02 244.831 Q2116.01 242.146 2116.01 237.517 Q2116.01 232.91 2114.02 230.225 Q2112.03 227.517 2108.63 227.517 M2108.63 223.906 Q2114.18 223.906 2117.35 227.517 Q2120.52 231.128 2120.52 237.517 Q2120.52 243.882 2117.35 247.516 Q2114.18 251.128 2108.63 251.128 Q2103.05 251.128 2099.88 247.516 Q2096.73 243.882 2096.73 237.517 Q2096.73 231.128 2099.88 227.517 Q2103.05 223.906 2108.63 223.906 Z" fill="#000000" fill-rule="nonzero" fill-opacity="1" /><path clip-path="url(#clip220)" d="M2147.77 229.507 Q2149.37 226.637 2151.59 225.271 Q2153.81 223.906 2156.82 223.906 Q2160.87 223.906 2163.07 226.753 Q2165.27 229.577 2165.27 234.808 L2165.27 250.456 L2160.99 250.456 L2160.99 234.947 Q2160.99 231.22 2159.67 229.415 Q2158.35 227.609 2155.64 227.609 Q2152.33 227.609 2150.41 229.808 Q2148.49 232.007 2148.49 235.804 L2148.49 250.456 L2144.21 250.456 L2144.21 234.947 Q2144.21 231.197 2142.89 229.415 Q2141.57 227.609 2138.81 227.609 Q2135.55 227.609 2133.63 229.831 Q2131.71 232.03 2131.71 235.804 L2131.71 250.456 L2127.42 250.456 L2127.42 224.531 L2131.71 224.531 L2131.71 228.558 Q2133.16 226.174 2135.2 225.04 Q2137.24 223.906 2140.04 223.906 Q2142.86 223.906 2144.83 225.341 Q2146.82 226.776 2147.77 229.507 Z" fill="#000000" fill-rule="nonzero" fill-opacity="1" /><path clip-path="url(#clip220)" d="M2177.89 246.567 L2177.89 260.317 L2173.6 260.317 L2173.6 224.531 L2177.89 224.531 L2177.89 228.466 Q2179.23 226.151 2181.27 225.04 Q2183.33 223.906 2186.17 223.906 Q2190.89 223.906 2193.83 227.655 Q2196.8 231.405 2196.8 237.517 Q2196.8 243.628 2193.83 247.378 Q2190.89 251.128 2186.17 251.128 Q2183.33 251.128 2181.27 250.016 Q2179.23 248.882 2177.89 246.567 M2192.38 237.517 Q2192.38 232.817 2190.43 230.155 Q2188.51 227.47 2185.13 227.47 Q2181.75 227.47 2179.81 230.155 Q2177.89 232.817 2177.89 237.517 Q2177.89 242.216 2179.81 244.901 Q2181.75 247.563 2185.13 247.563 Q2188.51 247.563 2190.43 244.901 Q2192.38 242.216 2192.38 237.517 Z" fill="#000000" fill-rule="nonzero" fill-opacity="1" /><path clip-path="url(#clip220)" d="M2226.03 236.429 L2226.03 238.512 L2206.45 238.512 Q2206.73 242.91 2209.09 245.225 Q2211.47 247.516 2215.71 247.516 Q2218.16 247.516 2220.45 246.915 Q2222.77 246.313 2225.04 245.109 L2225.04 249.137 Q2222.75 250.109 2220.34 250.618 Q2217.93 251.128 2215.45 251.128 Q2209.25 251.128 2205.62 247.516 Q2202.01 243.905 2202.01 237.748 Q2202.01 231.382 2205.43 227.655 Q2208.88 223.906 2214.71 223.906 Q2219.95 223.906 2222.98 227.285 Q2226.03 230.642 2226.03 236.429 M2221.77 235.179 Q2221.73 231.683 2219.81 229.6 Q2217.91 227.517 2214.76 227.517 Q2211.2 227.517 2209.04 229.53 Q2206.91 231.544 2206.59 235.202 L2221.77 235.179 Z" fill="#000000" fill-rule="nonzero" fill-opacity="1" /><path clip-path="url(#clip220)" d="M2248.05 228.512 Q2247.33 228.095 2246.47 227.91 Q2245.64 227.702 2244.62 227.702 Q2241.01 227.702 2239.07 230.063 Q2237.14 232.401 2237.14 236.799 L2237.14 250.456 L2232.86 250.456 L2232.86 224.531 L2237.14 224.531 L2237.14 228.558 Q2238.49 226.197 2240.64 225.063 Q2242.79 223.906 2245.87 223.906 Q2246.31 223.906 2246.84 223.975 Q2247.38 224.021 2248.02 224.137 L2248.05 228.512 Z" fill="#000000" fill-rule="nonzero" fill-opacity="1" /><path clip-path="url(#clip220)" d="M2256.73 217.169 L2256.73 224.531 L2265.5 224.531 L2265.5 227.841 L2256.73 227.841 L2256.73 241.915 Q2256.73 245.086 2257.58 245.989 Q2258.46 246.891 2261.13 246.891 L2265.5 246.891 L2265.5 250.456 L2261.13 250.456 Q2256.2 250.456 2254.32 248.628 Q2252.45 246.776 2252.45 241.915 L2252.45 227.841 L2249.32 227.841 L2249.32 224.531 L2252.45 224.531 L2252.45 217.169 L2256.73 217.169 Z" fill="#000000" fill-rule="nonzero" fill-opacity="1" /><path clip-path="url(#clip220)" d="M2269.25 224.531 L2289.48 224.531 L2289.48 228.419 L2273.46 247.054 L2289.48 247.054 L2289.48 250.456 L2268.67 250.456 L2268.67 246.567 L2284.69 227.933 L2269.25 227.933 L2269.25 224.531 Z" fill="#000000" fill-rule="nonzero" fill-opacity="1" /><polyline clip-path="url(#clip220)" style="stroke:#e26f46; stroke-linecap:round; stroke-linejoin:round; stroke-width:8; stroke-opacity:1; fill:none" points="1874.54,285.016 2033.54,285.016 "/>
<path clip-path="url(#clip220)" d="M2085.59 297.366 L2085.59 288.083 L2077.96 288.083 L2077.96 284.241 L2090.22 284.241 L2090.22 299.079 Q2087.52 301 2084.25 301.995 Q2080.99 302.968 2077.28 302.968 Q2069.18 302.968 2064.6 298.245 Q2060.04 293.5 2060.04 285.051 Q2060.04 276.579 2064.6 271.857 Q2069.18 267.111 2077.28 267.111 Q2080.66 267.111 2083.7 267.945 Q2086.75 268.778 2089.32 270.398 L2089.32 275.375 Q2086.73 273.176 2083.81 272.065 Q2080.9 270.954 2077.68 270.954 Q2071.34 270.954 2068.14 274.496 Q2064.97 278.037 2064.97 285.051 Q2064.97 292.042 2068.14 295.583 Q2071.34 299.125 2077.68 299.125 Q2080.15 299.125 2082.1 298.708 Q2084.04 298.269 2085.59 297.366 Z" fill="#000000" fill-rule="nonzero" fill-opacity="1" /><path clip-path="url(#clip220)" d="M2108.63 279.357 Q2105.2 279.357 2103.21 282.042 Q2101.22 284.704 2101.22 289.357 Q2101.22 294.009 2103.19 296.694 Q2105.18 299.356 2108.63 299.356 Q2112.03 299.356 2114.02 296.671 Q2116.01 293.986 2116.01 289.357 Q2116.01 284.75 2114.02 282.065 Q2112.03 279.357 2108.63 279.357 M2108.63 275.746 Q2114.18 275.746 2117.35 279.357 Q2120.52 282.968 2120.52 289.357 Q2120.52 295.722 2117.35 299.356 Q2114.18 302.968 2108.63 302.968 Q2103.05 302.968 2099.88 299.356 Q2096.73 295.722 2096.73 289.357 Q2096.73 282.968 2099.88 279.357 Q2103.05 275.746 2108.63 275.746 Z" fill="#000000" fill-rule="nonzero" fill-opacity="1" /><path clip-path="url(#clip220)" d="M2147.77 281.347 Q2149.37 278.477 2151.59 277.111 Q2153.81 275.746 2156.82 275.746 Q2160.87 275.746 2163.07 278.593 Q2165.27 281.417 2165.27 286.648 L2165.27 302.296 L2160.99 302.296 L2160.99 286.787 Q2160.99 283.06 2159.67 281.255 Q2158.35 279.449 2155.64 279.449 Q2152.33 279.449 2150.41 281.648 Q2148.49 283.847 2148.49 287.644 L2148.49 302.296 L2144.21 302.296 L2144.21 286.787 Q2144.21 283.037 2142.89 281.255 Q2141.57 279.449 2138.81 279.449 Q2135.55 279.449 2133.63 281.671 Q2131.71 283.87 2131.71 287.644 L2131.71 302.296 L2127.42 302.296 L2127.42 276.371 L2131.71 276.371 L2131.71 280.398 Q2133.16 278.014 2135.2 276.88 Q2137.24 275.746 2140.04 275.746 Q2142.86 275.746 2144.83 277.181 Q2146.82 278.616 2147.77 281.347 Z" fill="#000000" fill-rule="nonzero" fill-opacity="1" /><path clip-path="url(#clip220)" d="M2177.89 298.407 L2177.89 312.157 L2173.6 312.157 L2173.6 276.371 L2177.89 276.371 L2177.89 280.306 Q2179.23 277.991 2181.27 276.88 Q2183.33 275.746 2186.17 275.746 Q2190.89 275.746 2193.83 279.495 Q2196.8 283.245 2196.8 289.357 Q2196.8 295.468 2193.83 299.218 Q2190.89 302.968 2186.17 302.968 Q2183.33 302.968 2181.27 301.856 Q2179.23 300.722 2177.89 298.407 M2192.38 289.357 Q2192.38 284.657 2190.43 281.995 Q2188.51 279.31 2185.13 279.31 Q2181.75 279.31 2179.81 281.995 Q2177.89 284.657 2177.89 289.357 Q2177.89 294.056 2179.81 296.741 Q2181.75 299.403 2185.13 299.403 Q2188.51 299.403 2190.43 296.741 Q2192.38 294.056 2192.38 289.357 Z" fill="#000000" fill-rule="nonzero" fill-opacity="1" /><path clip-path="url(#clip220)" d="M2226.03 288.269 L2226.03 290.352 L2206.45 290.352 Q2206.73 294.75 2209.09 297.065 Q2211.47 299.356 2215.71 299.356 Q2218.16 299.356 2220.45 298.755 Q2222.77 298.153 2225.04 296.949 L2225.04 300.977 Q2222.75 301.949 2220.34 302.458 Q2217.93 302.968 2215.45 302.968 Q2209.25 302.968 2205.62 299.356 Q2202.01 295.745 2202.01 289.588 Q2202.01 283.222 2205.43 279.495 Q2208.88 275.746 2214.71 275.746 Q2219.95 275.746 2222.98 279.125 Q2226.03 282.482 2226.03 288.269 M2221.77 287.019 Q2221.73 283.523 2219.81 281.44 Q2217.91 279.357 2214.76 279.357 Q2211.2 279.357 2209.04 281.37 Q2206.91 283.384 2206.59 287.042 L2221.77 287.019 Z" fill="#000000" fill-rule="nonzero" fill-opacity="1" /><path clip-path="url(#clip220)" d="M2248.05 280.352 Q2247.33 279.935 2246.47 279.75 Q2245.64 279.542 2244.62 279.542 Q2241.01 279.542 2239.07 281.903 Q2237.14 284.241 2237.14 288.639 L2237.14 302.296 L2232.86 302.296 L2232.86 276.371 L2237.14 276.371 L2237.14 280.398 Q2238.49 278.037 2240.64 276.903 Q2242.79 275.746 2245.87 275.746 Q2246.31 275.746 2246.84 275.815 Q2247.38 275.861 2248.02 275.977 L2248.05 280.352 Z" fill="#000000" fill-rule="nonzero" fill-opacity="1" /><path clip-path="url(#clip220)" d="M2256.73 269.009 L2256.73 276.371 L2265.5 276.371 L2265.5 279.681 L2256.73 279.681 L2256.73 293.755 Q2256.73 296.926 2257.58 297.829 Q2258.46 298.731 2261.13 298.731 L2265.5 298.731 L2265.5 302.296 L2261.13 302.296 Q2256.2 302.296 2254.32 300.468 Q2252.45 298.616 2252.45 293.755 L2252.45 279.681 L2249.32 279.681 L2249.32 276.371 L2252.45 276.371 L2252.45 269.009 L2256.73 269.009 Z" fill="#000000" fill-rule="nonzero" fill-opacity="1" /><path clip-path="url(#clip220)" d="M2269.25 276.371 L2289.48 276.371 L2289.48 280.259 L2273.46 298.894 L2289.48 298.894 L2289.48 302.296 L2268.67 302.296 L2268.67 298.407 L2284.69 279.773 L2269.25 279.773 L2269.25 276.371 Z" fill="#000000" fill-rule="nonzero" fill-opacity="1" /><path clip-path="url(#clip220)" d="M2293.83 287.412 L2306.31 287.412 L2306.31 291.208 L2293.83 291.208 L2293.83 287.412 Z" fill="#000000" fill-rule="nonzero" fill-opacity="1" /><path clip-path="url(#clip220)" d="M2313.28 267.736 L2320.25 267.736 L2329.07 291.255 L2337.93 267.736 L2344.9 267.736 L2344.9 302.296 L2340.34 302.296 L2340.34 271.949 L2331.43 295.653 L2326.73 295.653 L2317.82 271.949 L2317.82 302.296 L2313.28 302.296 L2313.28 267.736 Z" fill="#000000" fill-rule="nonzero" fill-opacity="1" /><path clip-path="url(#clip220)" d="M2365.78 289.264 Q2360.62 289.264 2358.63 290.444 Q2356.63 291.625 2356.63 294.472 Q2356.63 296.741 2358.12 298.083 Q2359.62 299.403 2362.19 299.403 Q2365.73 299.403 2367.86 296.903 Q2370.01 294.38 2370.01 290.213 L2370.01 289.264 L2365.78 289.264 M2374.27 287.505 L2374.27 302.296 L2370.01 302.296 L2370.01 298.361 Q2368.56 300.722 2366.38 301.856 Q2364.2 302.968 2361.06 302.968 Q2357.07 302.968 2354.71 300.745 Q2352.38 298.5 2352.38 294.75 Q2352.38 290.375 2355.29 288.153 Q2358.23 285.931 2364.04 285.931 L2370.01 285.931 L2370.01 285.514 Q2370.01 282.574 2368.07 280.977 Q2366.15 279.357 2362.65 279.357 Q2360.43 279.357 2358.32 279.889 Q2356.22 280.421 2354.27 281.486 L2354.27 277.551 Q2356.61 276.648 2358.81 276.208 Q2361.01 275.746 2363.09 275.746 Q2368.72 275.746 2371.5 278.662 Q2374.27 281.579 2374.27 287.505 Z" fill="#000000" fill-rule="nonzero" fill-opacity="1" /><path clip-path="url(#clip220)" d="M2382.88 266.278 L2387.17 266.278 L2387.17 287.551 L2399.88 276.371 L2405.31 276.371 L2391.56 288.5 L2405.89 302.296 L2400.34 302.296 L2387.17 289.634 L2387.17 302.296 L2382.88 302.296 L2382.88 266.278 Z" fill="#000000" fill-rule="nonzero" fill-opacity="1" /><path clip-path="url(#clip220)" d="M2430.99 288.269 L2430.99 290.352 L2411.4 290.352 Q2411.68 294.75 2414.04 297.065 Q2416.43 299.356 2420.66 299.356 Q2423.12 299.356 2425.41 298.755 Q2427.72 298.153 2429.99 296.949 L2429.99 300.977 Q2427.7 301.949 2425.29 302.458 Q2422.88 302.968 2420.41 302.968 Q2414.2 302.968 2410.57 299.356 Q2406.96 295.745 2406.96 289.588 Q2406.96 283.222 2410.38 279.495 Q2413.83 275.746 2419.67 275.746 Q2424.9 275.746 2427.93 279.125 Q2430.99 282.482 2430.99 288.269 M2426.73 287.019 Q2426.68 283.523 2424.76 281.44 Q2422.86 279.357 2419.71 279.357 Q2416.15 279.357 2414 281.37 Q2411.87 283.384 2411.54 287.042 L2426.73 287.019 Z" fill="#000000" fill-rule="nonzero" fill-opacity="1" /><path clip-path="url(#clip220)" d="M2459.53 286.648 L2459.53 302.296 L2455.27 302.296 L2455.27 286.787 Q2455.27 283.107 2453.83 281.278 Q2452.4 279.449 2449.53 279.449 Q2446.08 279.449 2444.09 281.648 Q2442.1 283.847 2442.1 287.644 L2442.1 302.296 L2437.81 302.296 L2437.81 266.278 L2442.1 266.278 L2442.1 280.398 Q2443.62 278.06 2445.68 276.903 Q2447.77 275.746 2450.48 275.746 Q2454.94 275.746 2457.24 278.523 Q2459.53 281.278 2459.53 286.648 Z" fill="#000000" fill-rule="nonzero" fill-opacity="1" /><path clip-path="url(#clip220)" d="M2479.81 289.264 Q2474.64 289.264 2472.65 290.444 Q2470.66 291.625 2470.66 294.472 Q2470.66 296.741 2472.14 298.083 Q2473.65 299.403 2476.22 299.403 Q2479.76 299.403 2481.89 296.903 Q2484.04 294.38 2484.04 290.213 L2484.04 289.264 L2479.81 289.264 M2488.3 287.505 L2488.3 302.296 L2484.04 302.296 L2484.04 298.361 Q2482.58 300.722 2480.41 301.856 Q2478.23 302.968 2475.08 302.968 Q2471.1 302.968 2468.74 300.745 Q2466.4 298.5 2466.4 294.75 Q2466.4 290.375 2469.32 288.153 Q2472.26 285.931 2478.07 285.931 L2484.04 285.931 L2484.04 285.514 Q2484.04 282.574 2482.1 280.977 Q2480.18 279.357 2476.68 279.357 Q2474.46 279.357 2472.35 279.889 Q2470.25 280.421 2468.3 281.486 L2468.3 277.551 Q2470.64 276.648 2472.84 276.208 Q2475.04 275.746 2477.12 275.746 Q2482.74 275.746 2485.52 278.662 Q2488.3 281.579 2488.3 287.505 Z" fill="#000000" fill-rule="nonzero" fill-opacity="1" /><path clip-path="url(#clip220)" d="M2517.26 281.347 Q2518.86 278.477 2521.08 277.111 Q2523.3 275.746 2526.31 275.746 Q2530.36 275.746 2532.56 278.593 Q2534.76 281.417 2534.76 286.648 L2534.76 302.296 L2530.48 302.296 L2530.48 286.787 Q2530.48 283.06 2529.16 281.255 Q2527.84 279.449 2525.13 279.449 Q2521.82 279.449 2519.9 281.648 Q2517.98 283.847 2517.98 287.644 L2517.98 302.296 L2513.69 302.296 L2513.69 286.787 Q2513.69 283.037 2512.37 281.255 Q2511.06 279.449 2508.3 279.449 Q2505.04 279.449 2503.12 281.671 Q2501.19 283.87 2501.19 287.644 L2501.19 302.296 L2496.91 302.296 L2496.91 276.371 L2501.19 276.371 L2501.19 280.398 Q2502.65 278.014 2504.69 276.88 Q2506.73 275.746 2509.53 275.746 Q2512.35 275.746 2514.32 277.181 Q2516.31 278.616 2517.26 281.347 Z" fill="#000000" fill-rule="nonzero" fill-opacity="1" /><polyline clip-path="url(#clip220)" style="stroke:#3da44d; stroke-linecap:round; stroke-linejoin:round; stroke-width:8; stroke-opacity:1; fill:none" points="1874.54,336.856 2033.54,336.856 "/>
<path clip-path="url(#clip220)" d="M2060.04 319.576 L2081.89 319.576 L2081.89 323.511 L2064.71 323.511 L2064.71 333.743 L2081.17 333.743 L2081.17 337.678 L2064.71 337.678 L2064.71 350.201 L2082.31 350.201 L2082.31 354.136 L2060.04 354.136 L2060.04 319.576 Z" fill="#000000" fill-rule="nonzero" fill-opacity="1" /><path clip-path="url(#clip220)" d="M2111.36 328.211 L2101.98 340.826 L2111.84 354.136 L2106.82 354.136 L2099.27 343.951 L2091.73 354.136 L2086.71 354.136 L2096.77 340.572 L2087.56 328.211 L2092.59 328.211 L2099.46 337.447 L2106.33 328.211 L2111.36 328.211 Z" fill="#000000" fill-rule="nonzero" fill-opacity="1" /><path clip-path="url(#clip220)" d="M2121.98 350.247 L2121.98 363.997 L2117.7 363.997 L2117.7 328.211 L2121.98 328.211 L2121.98 332.146 Q2123.33 329.831 2125.36 328.72 Q2127.42 327.586 2130.27 327.586 Q2134.99 327.586 2137.93 331.335 Q2140.89 335.085 2140.89 341.197 Q2140.89 347.308 2137.93 351.058 Q2134.99 354.808 2130.27 354.808 Q2127.42 354.808 2125.36 353.696 Q2123.33 352.562 2121.98 350.247 M2136.47 341.197 Q2136.47 336.497 2134.53 333.835 Q2132.61 331.15 2129.23 331.15 Q2125.85 331.15 2123.9 333.835 Q2121.98 336.497 2121.98 341.197 Q2121.98 345.896 2123.9 348.581 Q2125.85 351.243 2129.23 351.243 Q2132.61 351.243 2134.53 348.581 Q2136.47 345.896 2136.47 341.197 Z" fill="#000000" fill-rule="nonzero" fill-opacity="1" /><path clip-path="url(#clip220)" d="M2158 331.197 Q2154.58 331.197 2152.58 333.882 Q2150.59 336.544 2150.59 341.197 Q2150.59 345.849 2152.56 348.534 Q2154.55 351.196 2158 351.196 Q2161.4 351.196 2163.39 348.511 Q2165.39 345.826 2165.39 341.197 Q2165.39 336.59 2163.39 333.905 Q2161.4 331.197 2158 331.197 M2158 327.586 Q2163.56 327.586 2166.73 331.197 Q2169.9 334.808 2169.9 341.197 Q2169.9 347.562 2166.73 351.196 Q2163.56 354.808 2158 354.808 Q2152.42 354.808 2149.25 351.196 Q2146.1 347.562 2146.1 341.197 Q2146.1 334.808 2149.25 331.197 Q2152.42 327.586 2158 327.586 Z" fill="#000000" fill-rule="nonzero" fill-opacity="1" /><path clip-path="url(#clip220)" d="M2198.51 338.488 L2198.51 354.136 L2194.25 354.136 L2194.25 338.627 Q2194.25 334.947 2192.82 333.118 Q2191.38 331.289 2188.51 331.289 Q2185.06 331.289 2183.07 333.488 Q2181.08 335.687 2181.08 339.484 L2181.08 354.136 L2176.8 354.136 L2176.8 328.211 L2181.08 328.211 L2181.08 332.238 Q2182.61 329.9 2184.67 328.743 Q2186.75 327.586 2189.46 327.586 Q2193.93 327.586 2196.22 330.363 Q2198.51 333.118 2198.51 338.488 Z" fill="#000000" fill-rule="nonzero" fill-opacity="1" /><path clip-path="url(#clip220)" d="M2229.18 340.109 L2229.18 342.192 L2209.6 342.192 Q2209.88 346.59 2212.24 348.905 Q2214.62 351.196 2218.86 351.196 Q2221.31 351.196 2223.6 350.595 Q2225.92 349.993 2228.19 348.789 L2228.19 352.817 Q2225.89 353.789 2223.49 354.298 Q2221.08 354.808 2218.6 354.808 Q2212.4 354.808 2208.76 351.196 Q2205.15 347.585 2205.15 341.428 Q2205.15 335.062 2208.58 331.335 Q2212.03 327.586 2217.86 327.586 Q2223.09 327.586 2226.13 330.965 Q2229.18 334.322 2229.18 340.109 M2224.92 338.859 Q2224.88 335.363 2222.95 333.28 Q2221.06 331.197 2217.91 331.197 Q2214.34 331.197 2212.19 333.21 Q2210.06 335.224 2209.74 338.882 L2224.92 338.859 Z" fill="#000000" fill-rule="nonzero" fill-opacity="1" /><path clip-path="url(#clip220)" d="M2257.72 338.488 L2257.72 354.136 L2253.46 354.136 L2253.46 338.627 Q2253.46 334.947 2252.03 333.118 Q2250.59 331.289 2247.72 331.289 Q2244.27 331.289 2242.28 333.488 Q2240.29 335.687 2240.29 339.484 L2240.29 354.136 L2236.01 354.136 L2236.01 328.211 L2240.29 328.211 L2240.29 332.238 Q2241.82 329.9 2243.88 328.743 Q2245.96 327.586 2248.67 327.586 Q2253.14 327.586 2255.43 330.363 Q2257.72 333.118 2257.72 338.488 Z" fill="#000000" fill-rule="nonzero" fill-opacity="1" /><path clip-path="url(#clip220)" d="M2270.43 320.849 L2270.43 328.211 L2279.2 328.211 L2279.2 331.521 L2270.43 331.521 L2270.43 345.595 Q2270.43 348.766 2271.29 349.669 Q2272.17 350.571 2274.83 350.571 L2279.2 350.571 L2279.2 354.136 L2274.83 354.136 Q2269.9 354.136 2268.02 352.308 Q2266.15 350.456 2266.15 345.595 L2266.15 331.521 L2263.02 331.521 L2263.02 328.211 L2266.15 328.211 L2266.15 320.849 L2270.43 320.849 Z" fill="#000000" fill-rule="nonzero" fill-opacity="1" /><path clip-path="url(#clip220)" d="M2284.81 328.211 L2289.07 328.211 L2289.07 354.136 L2284.81 354.136 L2284.81 328.211 M2284.81 318.118 L2289.07 318.118 L2289.07 323.511 L2284.81 323.511 L2284.81 318.118 Z" fill="#000000" fill-rule="nonzero" fill-opacity="1" /><path clip-path="url(#clip220)" d="M2309.76 341.104 Q2304.6 341.104 2302.61 342.284 Q2300.62 343.465 2300.62 346.312 Q2300.62 348.581 2302.1 349.923 Q2303.6 351.243 2306.17 351.243 Q2309.71 351.243 2311.84 348.743 Q2314 346.22 2314 342.053 L2314 341.104 L2309.76 341.104 M2318.26 339.345 L2318.26 354.136 L2314 354.136 L2314 350.201 Q2312.54 352.562 2310.36 353.696 Q2308.19 354.808 2305.04 354.808 Q2301.06 354.808 2298.7 352.585 Q2296.36 350.34 2296.36 346.59 Q2296.36 342.215 2299.27 339.993 Q2302.21 337.771 2308.02 337.771 L2314 337.771 L2314 337.354 Q2314 334.414 2312.05 332.817 Q2310.13 331.197 2306.63 331.197 Q2304.41 331.197 2302.31 331.729 Q2300.2 332.261 2298.26 333.326 L2298.26 329.391 Q2300.59 328.488 2302.79 328.048 Q2304.99 327.586 2307.07 327.586 Q2312.7 327.586 2315.48 330.502 Q2318.26 333.419 2318.26 339.345 Z" fill="#000000" fill-rule="nonzero" fill-opacity="1" /><path clip-path="url(#clip220)" d="M2327.03 318.118 L2331.29 318.118 L2331.29 354.136 L2327.03 354.136 L2327.03 318.118 Z" fill="#000000" fill-rule="nonzero" fill-opacity="1" /><polyline clip-path="url(#clip220)" style="stroke:#c271d2; stroke-linecap:round; stroke-linejoin:round; stroke-width:8; stroke-opacity:1; fill:none" points="1874.54,388.696 2033.54,388.696 "/>
<path clip-path="url(#clip220)" d="M2082.28 372.551 L2082.28 377.111 Q2079.62 375.838 2077.26 375.213 Q2074.9 374.588 2072.7 374.588 Q2068.88 374.588 2066.8 376.069 Q2064.74 377.551 2064.74 380.282 Q2064.74 382.574 2066.1 383.754 Q2067.49 384.912 2071.34 385.629 L2074.16 386.208 Q2079.39 387.203 2081.87 389.726 Q2084.37 392.226 2084.37 396.439 Q2084.37 401.462 2080.99 404.055 Q2077.63 406.648 2071.13 406.648 Q2068.67 406.648 2065.9 406.092 Q2063.14 405.536 2060.18 404.449 L2060.18 399.634 Q2063.03 401.231 2065.76 402.041 Q2068.49 402.851 2071.13 402.851 Q2075.13 402.851 2077.31 401.277 Q2079.48 399.703 2079.48 396.787 Q2079.48 394.24 2077.91 392.805 Q2076.36 391.37 2072.79 390.652 L2069.95 390.097 Q2064.71 389.055 2062.38 386.833 Q2060.04 384.611 2060.04 380.652 Q2060.04 376.069 2063.26 373.43 Q2066.5 370.791 2072.17 370.791 Q2074.6 370.791 2077.12 371.231 Q2079.65 371.671 2082.28 372.551 Z" fill="#000000" fill-rule="nonzero" fill-opacity="1" /><path clip-path="url(#clip220)" d="M2091.47 380.051 L2095.73 380.051 L2095.73 405.976 L2091.47 405.976 L2091.47 380.051 M2091.47 369.958 L2095.73 369.958 L2095.73 375.351 L2091.47 375.351 L2091.47 369.958 Z" fill="#000000" fill-rule="nonzero" fill-opacity="1" /><path clip-path="url(#clip220)" d="M2104.65 369.958 L2108.9 369.958 L2108.9 405.976 L2104.65 405.976 L2104.65 369.958 Z" fill="#000000" fill-rule="nonzero" fill-opacity="1" /><path clip-path="url(#clip220)" d="M2139.99 391.949 L2139.99 394.032 L2120.41 394.032 Q2120.69 398.43 2123.05 400.745 Q2125.43 403.036 2129.67 403.036 Q2132.12 403.036 2134.41 402.435 Q2136.73 401.833 2139 400.629 L2139 404.657 Q2136.71 405.629 2134.3 406.138 Q2131.89 406.648 2129.41 406.648 Q2123.21 406.648 2119.58 403.036 Q2115.96 399.425 2115.96 393.268 Q2115.96 386.902 2119.39 383.175 Q2122.84 379.426 2128.67 379.426 Q2133.9 379.426 2136.94 382.805 Q2139.99 386.162 2139.99 391.949 M2135.73 390.699 Q2135.69 387.203 2133.77 385.12 Q2131.87 383.037 2128.72 383.037 Q2125.15 383.037 2123 385.05 Q2120.87 387.064 2120.55 390.722 L2135.73 390.699 Z" fill="#000000" fill-rule="nonzero" fill-opacity="1" /><path clip-path="url(#clip220)" d="M2162.01 384.032 Q2161.29 383.615 2160.43 383.43 Q2159.6 383.222 2158.58 383.222 Q2154.97 383.222 2153.02 385.583 Q2151.1 387.921 2151.1 392.319 L2151.1 405.976 L2146.82 405.976 L2146.82 380.051 L2151.1 380.051 L2151.1 384.078 Q2152.45 381.717 2154.6 380.583 Q2156.75 379.426 2159.83 379.426 Q2160.27 379.426 2160.8 379.495 Q2161.33 379.541 2161.98 379.657 L2162.01 384.032 Z" fill="#000000" fill-rule="nonzero" fill-opacity="1" /><polyline clip-path="url(#clip220)" style="stroke:#ac8d18; stroke-linecap:round; stroke-linejoin:round; stroke-width:8; stroke-opacity:1; fill:none" points="1874.54,440.536 2033.54,440.536 "/>
<path clip-path="url(#clip220)" d="M2060.04 423.256 L2064.76 423.256 L2072.03 452.469 L2079.27 423.256 L2084.53 423.256 L2091.8 452.469 L2099.04 423.256 L2103.79 423.256 L2095.11 457.816 L2089.23 457.816 L2081.94 427.816 L2074.58 457.816 L2068.7 457.816 L2060.04 423.256 Z" fill="#000000" fill-rule="nonzero" fill-opacity="1" /><path clip-path="url(#clip220)" d="M2129.21 443.789 L2129.21 445.872 L2109.62 445.872 Q2109.9 450.27 2112.26 452.585 Q2114.65 454.876 2118.88 454.876 Q2121.33 454.876 2123.63 454.275 Q2125.94 453.673 2128.21 452.469 L2128.21 456.497 Q2125.92 457.469 2123.51 457.978 Q2121.1 458.488 2118.63 458.488 Q2112.42 458.488 2108.79 454.876 Q2105.18 451.265 2105.18 445.108 Q2105.18 438.742 2108.6 435.015 Q2112.05 431.266 2117.89 431.266 Q2123.12 431.266 2126.15 434.645 Q2129.21 438.002 2129.21 443.789 M2124.95 442.539 Q2124.9 439.043 2122.98 436.96 Q2121.08 434.877 2117.93 434.877 Q2114.37 434.877 2112.21 436.89 Q2110.08 438.904 2109.76 442.562 L2124.95 442.539 Z" fill="#000000" fill-rule="nonzero" fill-opacity="1" /><path clip-path="url(#clip220)" d="M2136.2 431.891 L2140.46 431.891 L2140.46 457.816 L2136.2 457.816 L2136.2 431.891 M2136.2 421.798 L2140.46 421.798 L2140.46 427.191 L2136.2 427.191 L2136.2 421.798 Z" fill="#000000" fill-rule="nonzero" fill-opacity="1" /><path clip-path="url(#clip220)" d="M2167.98 444.877 Q2167.98 440.177 2166.03 437.515 Q2164.11 434.83 2160.73 434.83 Q2157.35 434.83 2155.41 437.515 Q2153.49 440.177 2153.49 444.877 Q2153.49 449.576 2155.41 452.261 Q2157.35 454.923 2160.73 454.923 Q2164.11 454.923 2166.03 452.261 Q2167.98 449.576 2167.98 444.877 M2153.49 435.826 Q2154.83 433.511 2156.87 432.4 Q2158.93 431.266 2161.77 431.266 Q2166.5 431.266 2169.44 435.015 Q2172.4 438.765 2172.4 444.877 Q2172.4 450.988 2169.44 454.738 Q2166.5 458.488 2161.77 458.488 Q2158.93 458.488 2156.87 457.376 Q2154.83 456.242 2153.49 453.927 L2153.49 457.816 L2149.21 457.816 L2149.21 421.798 L2153.49 421.798 L2153.49 435.826 Z" fill="#000000" fill-rule="nonzero" fill-opacity="1" /><path clip-path="url(#clip220)" d="M2179.02 447.585 L2179.02 431.891 L2183.28 431.891 L2183.28 447.423 Q2183.28 451.103 2184.71 452.955 Q2186.15 454.784 2189.02 454.784 Q2192.47 454.784 2194.46 452.585 Q2196.47 450.386 2196.47 446.589 L2196.47 431.891 L2200.73 431.891 L2200.73 457.816 L2196.47 457.816 L2196.47 453.835 Q2194.92 456.196 2192.86 457.353 Q2190.83 458.488 2188.12 458.488 Q2183.65 458.488 2181.33 455.71 Q2179.02 452.932 2179.02 447.585 M2189.74 431.266 L2189.74 431.266 Z" fill="#000000" fill-rule="nonzero" fill-opacity="1" /><path clip-path="url(#clip220)" d="M2209.51 421.798 L2213.76 421.798 L2213.76 457.816 L2209.51 457.816 L2209.51 421.798 Z" fill="#000000" fill-rule="nonzero" fill-opacity="1" /><path clip-path="url(#clip220)" d="M2222.68 421.798 L2226.94 421.798 L2226.94 457.816 L2222.68 457.816 L2222.68 421.798 Z" fill="#000000" fill-rule="nonzero" fill-opacity="1" /><polyline clip-path="url(#clip220)" style="stroke:#00a9ad; stroke-linecap:round; stroke-linejoin:round; stroke-width:8; stroke-opacity:1; fill:none" points="1874.54,492.376 2033.54,492.376 "/>
<path clip-path="url(#clip220)" d="M2060.04 475.096 L2064.76 475.096 L2072.03 504.309 L2079.27 475.096 L2084.53 475.096 L2091.8 504.309 L2099.04 475.096 L2103.79 475.096 L2095.11 509.656 L2089.23 509.656 L2081.94 479.656 L2074.58 509.656 L2068.7 509.656 L2060.04 475.096 Z" fill="#000000" fill-rule="nonzero" fill-opacity="1" /><path clip-path="url(#clip220)" d="M2129.21 495.629 L2129.21 497.712 L2109.62 497.712 Q2109.9 502.11 2112.26 504.425 Q2114.65 506.716 2118.88 506.716 Q2121.33 506.716 2123.63 506.115 Q2125.94 505.513 2128.21 504.309 L2128.21 508.337 Q2125.92 509.309 2123.51 509.818 Q2121.1 510.328 2118.63 510.328 Q2112.42 510.328 2108.79 506.716 Q2105.18 503.105 2105.18 496.948 Q2105.18 490.582 2108.6 486.855 Q2112.05 483.106 2117.89 483.106 Q2123.12 483.106 2126.15 486.485 Q2129.21 489.842 2129.21 495.629 M2124.95 494.379 Q2124.9 490.883 2122.98 488.8 Q2121.08 486.717 2117.93 486.717 Q2114.37 486.717 2112.21 488.73 Q2110.08 490.744 2109.76 494.402 L2124.95 494.379 Z" fill="#000000" fill-rule="nonzero" fill-opacity="1" /><path clip-path="url(#clip220)" d="M2136.2 483.731 L2140.46 483.731 L2140.46 509.656 L2136.2 509.656 L2136.2 483.731 M2136.2 473.638 L2140.46 473.638 L2140.46 479.031 L2136.2 479.031 L2136.2 473.638 Z" fill="#000000" fill-rule="nonzero" fill-opacity="1" /><path clip-path="url(#clip220)" d="M2167.98 496.717 Q2167.98 492.017 2166.03 489.355 Q2164.11 486.67 2160.73 486.67 Q2157.35 486.67 2155.41 489.355 Q2153.49 492.017 2153.49 496.717 Q2153.49 501.416 2155.41 504.101 Q2157.35 506.763 2160.73 506.763 Q2164.11 506.763 2166.03 504.101 Q2167.98 501.416 2167.98 496.717 M2153.49 487.666 Q2154.83 485.351 2156.87 484.24 Q2158.93 483.106 2161.77 483.106 Q2166.5 483.106 2169.44 486.855 Q2172.4 490.605 2172.4 496.717 Q2172.4 502.828 2169.44 506.578 Q2166.5 510.328 2161.77 510.328 Q2158.93 510.328 2156.87 509.216 Q2154.83 508.082 2153.49 505.767 L2153.49 509.656 L2149.21 509.656 L2149.21 473.638 L2153.49 473.638 L2153.49 487.666 Z" fill="#000000" fill-rule="nonzero" fill-opacity="1" /><path clip-path="url(#clip220)" d="M2179.02 499.425 L2179.02 483.731 L2183.28 483.731 L2183.28 499.263 Q2183.28 502.943 2184.71 504.795 Q2186.15 506.624 2189.02 506.624 Q2192.47 506.624 2194.46 504.425 Q2196.47 502.226 2196.47 498.429 L2196.47 483.731 L2200.73 483.731 L2200.73 509.656 L2196.47 509.656 L2196.47 505.675 Q2194.92 508.036 2192.86 509.193 Q2190.83 510.328 2188.12 510.328 Q2183.65 510.328 2181.33 507.55 Q2179.02 504.772 2179.02 499.425 M2189.74 483.106 L2189.74 483.106 Z" fill="#000000" fill-rule="nonzero" fill-opacity="1" /><path clip-path="url(#clip220)" d="M2209.51 473.638 L2213.76 473.638 L2213.76 509.656 L2209.51 509.656 L2209.51 473.638 Z" fill="#000000" fill-rule="nonzero" fill-opacity="1" /><path clip-path="url(#clip220)" d="M2222.68 473.638 L2226.94 473.638 L2226.94 509.656 L2222.68 509.656 L2222.68 473.638 Z" fill="#000000" fill-rule="nonzero" fill-opacity="1" /><path clip-path="url(#clip220)" d="M2233.7 494.772 L2246.17 494.772 L2246.17 498.568 L2233.7 498.568 L2233.7 494.772 Z" fill="#000000" fill-rule="nonzero" fill-opacity="1" /><path clip-path="url(#clip220)" d="M2253.14 475.096 L2260.11 475.096 L2268.93 498.615 L2277.79 475.096 L2284.76 475.096 L2284.76 509.656 L2280.2 509.656 L2280.2 479.309 L2271.29 503.013 L2266.59 503.013 L2257.68 479.309 L2257.68 509.656 L2253.14 509.656 L2253.14 475.096 Z" fill="#000000" fill-rule="nonzero" fill-opacity="1" /><path clip-path="url(#clip220)" d="M2305.64 496.624 Q2300.48 496.624 2298.49 497.804 Q2296.5 498.985 2296.5 501.832 Q2296.5 504.101 2297.98 505.443 Q2299.48 506.763 2302.05 506.763 Q2305.59 506.763 2307.72 504.263 Q2309.88 501.74 2309.88 497.573 L2309.88 496.624 L2305.64 496.624 M2314.13 494.865 L2314.13 509.656 L2309.88 509.656 L2309.88 505.721 Q2308.42 508.082 2306.24 509.216 Q2304.07 510.328 2300.92 510.328 Q2296.94 510.328 2294.57 508.105 Q2292.24 505.86 2292.24 502.11 Q2292.24 497.735 2295.15 495.513 Q2298.09 493.291 2303.9 493.291 L2309.88 493.291 L2309.88 492.874 Q2309.88 489.934 2307.93 488.337 Q2306.01 486.717 2302.51 486.717 Q2300.29 486.717 2298.19 487.249 Q2296.08 487.781 2294.13 488.846 L2294.13 484.911 Q2296.47 484.008 2298.67 483.568 Q2300.87 483.106 2302.95 483.106 Q2308.58 483.106 2311.36 486.022 Q2314.13 488.939 2314.13 494.865 Z" fill="#000000" fill-rule="nonzero" fill-opacity="1" /><path clip-path="url(#clip220)" d="M2322.75 473.638 L2327.03 473.638 L2327.03 494.911 L2339.74 483.731 L2345.18 483.731 L2331.43 495.86 L2345.75 509.656 L2340.2 509.656 L2327.03 496.994 L2327.03 509.656 L2322.75 509.656 L2322.75 473.638 Z" fill="#000000" fill-rule="nonzero" fill-opacity="1" /><path clip-path="url(#clip220)" d="M2370.85 495.629 L2370.85 497.712 L2351.26 497.712 Q2351.54 502.11 2353.9 504.425 Q2356.29 506.716 2360.52 506.716 Q2362.98 506.716 2365.27 506.115 Q2367.58 505.513 2369.85 504.309 L2369.85 508.337 Q2367.56 509.309 2365.15 509.818 Q2362.75 510.328 2360.27 510.328 Q2354.07 510.328 2350.43 506.716 Q2346.82 503.105 2346.82 496.948 Q2346.82 490.582 2350.25 486.855 Q2353.69 483.106 2359.53 483.106 Q2364.76 483.106 2367.79 486.485 Q2370.85 489.842 2370.85 495.629 M2366.59 494.379 Q2366.54 490.883 2364.62 488.8 Q2362.72 486.717 2359.57 486.717 Q2356.01 486.717 2353.86 488.73 Q2351.73 490.744 2351.4 494.402 L2366.59 494.379 Z" fill="#000000" fill-rule="nonzero" fill-opacity="1" /><path clip-path="url(#clip220)" d="M2399.39 494.008 L2399.39 509.656 L2395.13 509.656 L2395.13 494.147 Q2395.13 490.467 2393.69 488.638 Q2392.26 486.809 2389.39 486.809 Q2385.94 486.809 2383.95 489.008 Q2381.96 491.207 2381.96 495.004 L2381.96 509.656 L2377.68 509.656 L2377.68 473.638 L2381.96 473.638 L2381.96 487.758 Q2383.49 485.42 2385.55 484.263 Q2387.63 483.106 2390.34 483.106 Q2394.81 483.106 2397.1 485.883 Q2399.39 488.638 2399.39 494.008 Z" fill="#000000" fill-rule="nonzero" fill-opacity="1" /><path clip-path="url(#clip220)" d="M2419.67 496.624 Q2414.5 496.624 2412.51 497.804 Q2410.52 498.985 2410.52 501.832 Q2410.52 504.101 2412 505.443 Q2413.51 506.763 2416.08 506.763 Q2419.62 506.763 2421.75 504.263 Q2423.9 501.74 2423.9 497.573 L2423.9 496.624 L2419.67 496.624 M2428.16 494.865 L2428.16 509.656 L2423.9 509.656 L2423.9 505.721 Q2422.44 508.082 2420.27 509.216 Q2418.09 510.328 2414.94 510.328 Q2410.96 510.328 2408.6 508.105 Q2406.26 505.86 2406.26 502.11 Q2406.26 497.735 2409.18 495.513 Q2412.12 493.291 2417.93 493.291 L2423.9 493.291 L2423.9 492.874 Q2423.9 489.934 2421.96 488.337 Q2420.04 486.717 2416.54 486.717 Q2414.32 486.717 2412.21 487.249 Q2410.11 487.781 2408.16 488.846 L2408.16 484.911 Q2410.5 484.008 2412.7 483.568 Q2414.9 483.106 2416.98 483.106 Q2422.61 483.106 2425.38 486.022 Q2428.16 488.939 2428.16 494.865 Z" fill="#000000" fill-rule="nonzero" fill-opacity="1" /><path clip-path="url(#clip220)" d="M2457.12 488.707 Q2458.72 485.837 2460.94 484.471 Q2463.16 483.106 2466.17 483.106 Q2470.22 483.106 2472.42 485.953 Q2474.62 488.777 2474.62 494.008 L2474.62 509.656 L2470.34 509.656 L2470.34 494.147 Q2470.34 490.42 2469.02 488.615 Q2467.7 486.809 2464.99 486.809 Q2461.68 486.809 2459.76 489.008 Q2457.84 491.207 2457.84 495.004 L2457.84 509.656 L2453.56 509.656 L2453.56 494.147 Q2453.56 490.397 2452.24 488.615 Q2450.92 486.809 2448.16 486.809 Q2444.9 486.809 2442.98 489.031 Q2441.06 491.23 2441.06 495.004 L2441.06 509.656 L2436.77 509.656 L2436.77 483.731 L2441.06 483.731 L2441.06 487.758 Q2442.51 485.374 2444.55 484.24 Q2446.59 483.106 2449.39 483.106 Q2452.21 483.106 2454.18 484.541 Q2456.17 485.976 2457.12 488.707 Z" fill="#000000" fill-rule="nonzero" fill-opacity="1" /></svg>
