<?xml version="1.0" encoding="utf-8"?>
<svg xmlns="http://www.w3.org/2000/svg" xmlns:xlink="http://www.w3.org/1999/xlink" width="800" height="350" viewBox="0 0 3200 1400">
<defs>
  <clipPath id="clip340">
    <rect x="0" y="0" width="3200" height="1400"/>
  </clipPath>
</defs>
<path clip-path="url(#clip340)" d="M0 1400 L3200 1400 L3200 0 L0 0  Z" fill="#ffffff" fill-rule="evenodd" fill-opacity="1"/>
<defs>
  <clipPath id="clip341">
    <rect x="1811" y="102" width="1342" height="1152"/>
  </clipPath>
</defs>
<path clip-path="url(#clip340)" d="M211.531 1253.39 L1553 1253.39 L1553 102.682 L211.531 102.682  Z" fill="#ffffff" fill-rule="evenodd" fill-opacity="1"/>
<defs>
  <clipPath id="clip342">
    <rect x="211" y="102" width="1342" height="1152"/>
  </clipPath>
</defs>
<polyline clip-path="url(#clip342)" style="stroke:#000000; stroke-linecap:round; stroke-linejoin:round; stroke-width:2; stroke-opacity:0.1; fill:none" points="236.913,1253.39 236.913,102.682 "/>
<polyline clip-path="url(#clip342)" style="stroke:#000000; stroke-linecap:round; stroke-linejoin:round; stroke-width:2; stroke-opacity:0.1; fill:none" points="640.258,1253.39 640.258,102.682 "/>
<polyline clip-path="url(#clip342)" style="stroke:#000000; stroke-linecap:round; stroke-linejoin:round; stroke-width:2; stroke-opacity:0.1; fill:none" points="1043.6,1253.39 1043.6,102.682 "/>
<polyline clip-path="url(#clip342)" style="stroke:#000000; stroke-linecap:round; stroke-linejoin:round; stroke-width:2; stroke-opacity:0.1; fill:none" points="1446.95,1253.39 1446.95,102.682 "/>
<polyline clip-path="url(#clip342)" style="stroke:#000000; stroke-linecap:round; stroke-linejoin:round; stroke-width:2; stroke-opacity:0.1; fill:none" points="211.531,1253.39 1553,1253.39 "/>
<polyline clip-path="url(#clip342)" style="stroke:#000000; stroke-linecap:round; stroke-linejoin:round; stroke-width:2; stroke-opacity:0.1; fill:none" points="211.531,993.196 1553,993.196 "/>
<polyline clip-path="url(#clip342)" style="stroke:#000000; stroke-linecap:round; stroke-linejoin:round; stroke-width:2; stroke-opacity:0.1; fill:none" points="211.531,732.998 1553,732.998 "/>
<polyline clip-path="url(#clip342)" style="stroke:#000000; stroke-linecap:round; stroke-linejoin:round; stroke-width:2; stroke-opacity:0.1; fill:none" points="211.531,472.8 1553,472.8 "/>
<polyline clip-path="url(#clip342)" style="stroke:#000000; stroke-linecap:round; stroke-linejoin:round; stroke-width:2; stroke-opacity:0.1; fill:none" points="211.531,212.601 1553,212.601 "/>
<polyline clip-path="url(#clip340)" style="stroke:#000000; stroke-linecap:round; stroke-linejoin:round; stroke-width:4; stroke-opacity:1; fill:none" points="211.531,1253.39 1553,1253.39 "/>
<polyline clip-path="url(#clip340)" style="stroke:#000000; stroke-linecap:round; stroke-linejoin:round; stroke-width:4; stroke-opacity:1; fill:none" points="236.913,1253.39 236.913,1234.5 "/>
<polyline clip-path="url(#clip340)" style="stroke:#000000; stroke-linecap:round; stroke-linejoin:round; stroke-width:4; stroke-opacity:1; fill:none" points="640.258,1253.39 640.258,1234.5 "/>
<polyline clip-path="url(#clip340)" style="stroke:#000000; stroke-linecap:round; stroke-linejoin:round; stroke-width:4; stroke-opacity:1; fill:none" points="1043.6,1253.39 1043.6,1234.5 "/>
<polyline clip-path="url(#clip340)" style="stroke:#000000; stroke-linecap:round; stroke-linejoin:round; stroke-width:4; stroke-opacity:1; fill:none" points="1446.95,1253.39 1446.95,1234.5 "/>
<path clip-path="url(#clip340)" d="M236.913 1290.71 Q233.302 1290.71 231.473 1294.28 Q229.668 1297.82 229.668 1304.95 Q229.668 1312.06 231.473 1315.62 Q233.302 1319.16 236.913 1319.16 Q240.547 1319.16 242.353 1315.62 Q244.181 1312.06 244.181 1304.95 Q244.181 1297.82 242.353 1294.28 Q240.547 1290.71 236.913 1290.71 M236.913 1287.01 Q242.723 1287.01 245.779 1291.62 Q248.857 1296.2 248.857 1304.95 Q248.857 1313.68 245.779 1318.28 Q242.723 1322.87 236.913 1322.87 Q231.103 1322.87 228.024 1318.28 Q224.969 1313.68 224.969 1304.95 Q224.969 1296.2 228.024 1291.62 Q231.103 1287.01 236.913 1287.01 Z" fill="#000000" fill-rule="nonzero" fill-opacity="1" /><path clip-path="url(#clip340)" d="M630.536 1287.63 L648.892 1287.63 L648.892 1291.57 L634.818 1291.57 L634.818 1300.04 Q635.837 1299.69 636.855 1299.53 Q637.874 1299.35 638.892 1299.35 Q644.679 1299.35 648.059 1302.52 Q651.439 1305.69 651.439 1311.11 Q651.439 1316.69 647.966 1319.79 Q644.494 1322.87 638.175 1322.87 Q635.999 1322.87 633.73 1322.5 Q631.485 1322.13 629.078 1321.38 L629.078 1316.69 Q631.161 1317.82 633.383 1318.38 Q635.605 1318.93 638.082 1318.93 Q642.087 1318.93 644.425 1316.82 Q646.763 1314.72 646.763 1311.11 Q646.763 1307.5 644.425 1305.39 Q642.087 1303.28 638.082 1303.28 Q636.207 1303.28 634.332 1303.7 Q632.48 1304.12 630.536 1305 L630.536 1287.63 Z" fill="#000000" fill-rule="nonzero" fill-opacity="1" /><path clip-path="url(#clip340)" d="M1018.29 1318.26 L1025.93 1318.26 L1025.93 1291.89 L1017.62 1293.56 L1017.62 1289.3 L1025.88 1287.63 L1030.56 1287.63 L1030.56 1318.26 L1038.2 1318.26 L1038.2 1322.19 L1018.29 1322.19 L1018.29 1318.26 Z" fill="#000000" fill-rule="nonzero" fill-opacity="1" /><path clip-path="url(#clip340)" d="M1057.64 1290.71 Q1054.03 1290.71 1052.2 1294.28 Q1050.4 1297.82 1050.4 1304.95 Q1050.4 1312.06 1052.2 1315.62 Q1054.03 1319.16 1057.64 1319.16 Q1061.28 1319.16 1063.08 1315.62 Q1064.91 1312.06 1064.91 1304.95 Q1064.91 1297.82 1063.08 1294.28 Q1061.28 1290.71 1057.64 1290.71 M1057.64 1287.01 Q1063.45 1287.01 1066.51 1291.62 Q1069.59 1296.2 1069.59 1304.95 Q1069.59 1313.68 1066.51 1318.28 Q1063.45 1322.87 1057.64 1322.87 Q1051.83 1322.87 1048.75 1318.28 Q1045.7 1313.68 1045.7 1304.95 Q1045.7 1296.2 1048.75 1291.62 Q1051.83 1287.01 1057.64 1287.01 Z" fill="#000000" fill-rule="nonzero" fill-opacity="1" /><path clip-path="url(#clip340)" d="M1422.13 1318.26 L1429.77 1318.26 L1429.77 1291.89 L1421.46 1293.56 L1421.46 1289.3 L1429.73 1287.63 L1434.4 1287.63 L1434.4 1318.26 L1442.04 1318.26 L1442.04 1322.19 L1422.13 1322.19 L1422.13 1318.26 Z" fill="#000000" fill-rule="nonzero" fill-opacity="1" /><path clip-path="url(#clip340)" d="M1451.53 1287.63 L1469.89 1287.63 L1469.89 1291.57 L1455.81 1291.57 L1455.81 1300.04 Q1456.83 1299.69 1457.85 1299.53 Q1458.87 1299.35 1459.89 1299.35 Q1465.67 1299.35 1469.05 1302.52 Q1472.43 1305.69 1472.43 1311.11 Q1472.43 1316.69 1468.96 1319.79 Q1465.49 1322.87 1459.17 1322.87 Q1456.99 1322.87 1454.73 1322.5 Q1452.48 1322.13 1450.07 1321.38 L1450.07 1316.69 Q1452.16 1317.82 1454.38 1318.38 Q1456.6 1318.93 1459.08 1318.93 Q1463.08 1318.93 1465.42 1316.82 Q1467.76 1314.72 1467.76 1311.11 Q1467.76 1307.5 1465.42 1305.39 Q1463.08 1303.28 1459.08 1303.28 Q1457.2 1303.28 1455.33 1303.7 Q1453.48 1304.12 1451.53 1305 L1451.53 1287.63 Z" fill="#000000" fill-rule="nonzero" fill-opacity="1" /><path clip-path="url(#clip340)" d="M751.577 1369.07 L742.856 1392.72 L760.33 1392.72 L751.577 1369.07 M747.949 1362.74 L755.237 1362.74 L773.348 1410.26 L766.664 1410.26 L762.335 1398.07 L740.915 1398.07 L736.586 1410.26 L729.806 1410.26 L747.949 1362.74 Z" fill="#000000" fill-rule="nonzero" fill-opacity="1" /><path clip-path="url(#clip340)" d="M803.489 1392.02 Q803.489 1385.66 800.848 1382.15 Q798.238 1378.65 793.495 1378.65 Q788.785 1378.65 786.143 1382.15 Q783.533 1385.66 783.533 1392.02 Q783.533 1398.35 786.143 1401.86 Q788.785 1405.36 793.495 1405.36 Q798.238 1405.36 800.848 1401.86 Q803.489 1398.35 803.489 1392.02 M809.346 1405.83 Q809.346 1414.94 805.304 1419.36 Q801.261 1423.82 792.922 1423.82 Q789.835 1423.82 787.098 1423.34 Q784.361 1422.89 781.782 1421.94 L781.782 1416.24 Q784.361 1417.64 786.875 1418.31 Q789.389 1418.98 791.999 1418.98 Q797.76 1418.98 800.625 1415.96 Q803.489 1412.96 803.489 1406.89 L803.489 1403.99 Q801.675 1407.14 798.843 1408.7 Q796.01 1410.26 792.063 1410.26 Q785.506 1410.26 781.496 1405.26 Q777.486 1400.26 777.486 1392.02 Q777.486 1383.75 781.496 1378.75 Q785.506 1373.75 792.063 1373.75 Q796.01 1373.75 798.843 1375.31 Q801.675 1376.87 803.489 1380.02 L803.489 1374.61 L809.346 1374.61 L809.346 1405.83 Z" fill="#000000" fill-rule="nonzero" fill-opacity="1" /><path clip-path="url(#clip340)" d="M851.901 1390.97 L851.901 1393.84 L824.974 1393.84 Q825.356 1399.88 828.602 1403.07 Q831.881 1406.22 837.705 1406.22 Q841.079 1406.22 844.23 1405.39 Q847.413 1404.56 850.532 1402.91 L850.532 1408.44 Q847.381 1409.78 844.071 1410.48 Q840.761 1411.18 837.355 1411.18 Q828.825 1411.18 823.828 1406.22 Q818.863 1401.25 818.863 1392.78 Q818.863 1384.03 823.573 1378.91 Q828.316 1373.75 836.337 1373.75 Q843.53 1373.75 847.699 1378.4 Q851.901 1383.01 851.901 1390.97 M846.044 1389.25 Q845.981 1384.45 843.339 1381.58 Q840.729 1378.72 836.4 1378.72 Q831.499 1378.72 828.539 1381.49 Q825.61 1384.25 825.165 1389.28 L846.044 1389.25 Z" fill="#000000" fill-rule="nonzero" fill-opacity="1" /><path clip-path="url(#clip340)" d="M907.887 1375.98 L907.887 1381.45 Q905.404 1380.09 902.89 1379.42 Q900.407 1378.72 897.861 1378.72 Q892.164 1378.72 889.013 1382.35 Q885.862 1385.94 885.862 1392.47 Q885.862 1398.99 889.013 1402.62 Q892.164 1406.22 897.861 1406.22 Q900.407 1406.22 902.89 1405.55 Q905.404 1404.85 907.887 1403.48 L907.887 1408.89 Q905.436 1410.04 902.795 1410.61 Q900.185 1411.18 897.225 1411.18 Q889.172 1411.18 884.429 1406.12 Q879.687 1401.06 879.687 1392.47 Q879.687 1383.75 884.461 1378.75 Q889.267 1373.75 897.606 1373.75 Q900.312 1373.75 902.89 1374.32 Q905.468 1374.87 907.887 1375.98 Z" fill="#000000" fill-rule="nonzero" fill-opacity="1" /><path clip-path="url(#clip340)" d="M918.072 1360.73 L923.929 1360.73 L923.929 1410.26 L918.072 1410.26 L918.072 1360.73 Z" fill="#000000" fill-rule="nonzero" fill-opacity="1" /><path clip-path="url(#clip340)" d="M952.383 1392.34 Q945.286 1392.34 942.548 1393.96 Q939.811 1395.59 939.811 1399.5 Q939.811 1402.62 941.848 1404.47 Q943.917 1406.28 947.45 1406.28 Q952.32 1406.28 955.248 1402.84 Q958.208 1399.37 958.208 1393.64 L958.208 1392.34 L952.383 1392.34 M964.064 1389.92 L964.064 1410.26 L958.208 1410.26 L958.208 1404.85 Q956.203 1408.09 953.211 1409.65 Q950.219 1411.18 945.89 1411.18 Q940.416 1411.18 937.169 1408.13 Q933.955 1405.04 933.955 1399.88 Q933.955 1393.87 937.965 1390.81 Q942.007 1387.76 949.996 1387.76 L958.208 1387.76 L958.208 1387.18 Q958.208 1383.14 955.534 1380.94 Q952.893 1378.72 948.087 1378.72 Q945.031 1378.72 942.135 1379.45 Q939.238 1380.18 936.565 1381.64 L936.565 1376.23 Q939.779 1374.99 942.803 1374.39 Q945.827 1373.75 948.691 1373.75 Q956.426 1373.75 960.245 1377.76 Q964.064 1381.77 964.064 1389.92 Z" fill="#000000" fill-rule="nonzero" fill-opacity="1" /><path clip-path="url(#clip340)" d="M998.853 1375.66 L998.853 1381.2 Q996.37 1379.93 993.697 1379.29 Q991.023 1378.65 988.159 1378.65 Q983.798 1378.65 981.602 1379.99 Q979.438 1381.33 979.438 1384 Q979.438 1386.04 980.997 1387.21 Q982.557 1388.36 987.267 1389.41 L989.273 1389.86 Q995.511 1391.19 998.121 1393.64 Q1000.76 1396.06 1000.76 1400.42 Q1000.76 1405.39 996.816 1408.29 Q992.901 1411.18 986.026 1411.18 Q983.162 1411.18 980.042 1410.61 Q976.955 1410.07 973.518 1408.95 L973.518 1402.91 Q976.764 1404.59 979.915 1405.45 Q983.066 1406.28 986.153 1406.28 Q990.291 1406.28 992.519 1404.88 Q994.747 1403.45 994.747 1400.87 Q994.747 1398.48 993.124 1397.21 Q991.532 1395.94 986.09 1394.76 L984.053 1394.28 Q978.61 1393.14 976.191 1390.78 Q973.772 1388.39 973.772 1384.25 Q973.772 1379.23 977.337 1376.49 Q980.902 1373.75 987.458 1373.75 Q990.705 1373.75 993.569 1374.23 Q996.434 1374.71 998.853 1375.66 Z" fill="#000000" fill-rule="nonzero" fill-opacity="1" /><path clip-path="url(#clip340)" d="M1032.81 1375.66 L1032.81 1381.2 Q1030.33 1379.93 1027.66 1379.29 Q1024.98 1378.65 1022.12 1378.65 Q1017.76 1378.65 1015.56 1379.99 Q1013.4 1381.33 1013.4 1384 Q1013.4 1386.04 1014.96 1387.21 Q1016.52 1388.36 1021.23 1389.41 L1023.23 1389.86 Q1029.47 1391.19 1032.08 1393.64 Q1034.72 1396.06 1034.72 1400.42 Q1034.72 1405.39 1030.78 1408.29 Q1026.86 1411.18 1019.99 1411.18 Q1017.12 1411.18 1014 1410.61 Q1010.92 1410.07 1007.48 1408.95 L1007.48 1402.91 Q1010.73 1404.59 1013.88 1405.45 Q1017.03 1406.28 1020.11 1406.28 Q1024.25 1406.28 1026.48 1404.88 Q1028.71 1403.45 1028.71 1400.87 Q1028.71 1398.48 1027.08 1397.21 Q1025.49 1395.94 1020.05 1394.76 L1018.01 1394.28 Q1012.57 1393.14 1010.15 1390.78 Q1007.73 1388.39 1007.73 1384.25 Q1007.73 1379.23 1011.3 1376.49 Q1014.86 1373.75 1021.42 1373.75 Q1024.67 1373.75 1027.53 1374.23 Q1030.4 1374.71 1032.81 1375.66 Z" fill="#000000" fill-rule="nonzero" fill-opacity="1" /><polyline clip-path="url(#clip340)" style="stroke:#000000; stroke-linecap:round; stroke-linejoin:round; stroke-width:4; stroke-opacity:1; fill:none" points="211.531,1253.39 211.531,102.682 "/>
<polyline clip-path="url(#clip340)" style="stroke:#000000; stroke-linecap:round; stroke-linejoin:round; stroke-width:4; stroke-opacity:1; fill:none" points="211.531,1253.39 230.429,1253.39 "/>
<polyline clip-path="url(#clip340)" style="stroke:#000000; stroke-linecap:round; stroke-linejoin:round; stroke-width:4; stroke-opacity:1; fill:none" points="211.531,993.196 230.429,993.196 "/>
<polyline clip-path="url(#clip340)" style="stroke:#000000; stroke-linecap:round; stroke-linejoin:round; stroke-width:4; stroke-opacity:1; fill:none" points="211.531,732.998 230.429,732.998 "/>
<polyline clip-path="url(#clip340)" style="stroke:#000000; stroke-linecap:round; stroke-linejoin:round; stroke-width:4; stroke-opacity:1; fill:none" points="211.531,472.8 230.429,472.8 "/>
<polyline clip-path="url(#clip340)" style="stroke:#000000; stroke-linecap:round; stroke-linejoin:round; stroke-width:4; stroke-opacity:1; fill:none" points="211.531,212.601 230.429,212.601 "/>
<path clip-path="url(#clip340)" d="M106.356 1239.19 Q102.745 1239.19 100.916 1242.76 Q99.1103 1246.3 99.1103 1253.43 Q99.1103 1260.54 100.916 1264.1 Q102.745 1267.64 106.356 1267.64 Q109.99 1267.64 111.795 1264.1 Q113.624 1260.54 113.624 1253.43 Q113.624 1246.3 111.795 1242.76 Q109.99 1239.19 106.356 1239.19 M106.356 1235.49 Q112.166 1235.49 115.221 1240.1 Q118.3 1244.68 118.3 1253.43 Q118.3 1262.16 115.221 1266.76 Q112.166 1271.35 106.356 1271.35 Q100.545 1271.35 97.4668 1266.76 Q94.4113 1262.16 94.4113 1253.43 Q94.4113 1244.68 97.4668 1240.1 Q100.545 1235.49 106.356 1235.49 Z" fill="#000000" fill-rule="nonzero" fill-opacity="1" /><path clip-path="url(#clip340)" d="M126.518 1264.8 L131.402 1264.8 L131.402 1270.67 L126.518 1270.67 L126.518 1264.8 Z" fill="#000000" fill-rule="nonzero" fill-opacity="1" /><path clip-path="url(#clip340)" d="M151.587 1239.19 Q147.976 1239.19 146.147 1242.76 Q144.342 1246.3 144.342 1253.43 Q144.342 1260.54 146.147 1264.1 Q147.976 1267.64 151.587 1267.64 Q155.221 1267.64 157.027 1264.1 Q158.855 1260.54 158.855 1253.43 Q158.855 1246.3 157.027 1242.76 Q155.221 1239.19 151.587 1239.19 M151.587 1235.49 Q157.397 1235.49 160.453 1240.1 Q163.531 1244.68 163.531 1253.43 Q163.531 1262.16 160.453 1266.76 Q157.397 1271.35 151.587 1271.35 Q145.777 1271.35 142.698 1266.76 Q139.643 1262.16 139.643 1253.43 Q139.643 1244.68 142.698 1240.1 Q145.777 1235.49 151.587 1235.49 Z" fill="#000000" fill-rule="nonzero" fill-opacity="1" /><path clip-path="url(#clip340)" d="M107.582 978.995 Q103.971 978.995 102.143 982.56 Q100.337 986.102 100.337 993.231 Q100.337 1000.34 102.143 1003.9 Q103.971 1007.44 107.582 1007.44 Q111.217 1007.44 113.022 1003.9 Q114.851 1000.34 114.851 993.231 Q114.851 986.102 113.022 982.56 Q111.217 978.995 107.582 978.995 M107.582 975.291 Q113.393 975.291 116.448 979.898 Q119.527 984.481 119.527 993.231 Q119.527 1001.96 116.448 1006.56 Q113.393 1011.15 107.582 1011.15 Q101.772 1011.15 98.6937 1006.56 Q95.6381 1001.96 95.6381 993.231 Q95.6381 984.481 98.6937 979.898 Q101.772 975.291 107.582 975.291 Z" fill="#000000" fill-rule="nonzero" fill-opacity="1" /><path clip-path="url(#clip340)" d="M127.744 1004.6 L132.629 1004.6 L132.629 1010.48 L127.744 1010.48 L127.744 1004.6 Z" fill="#000000" fill-rule="nonzero" fill-opacity="1" /><path clip-path="url(#clip340)" d="M143.624 1006.54 L151.263 1006.54 L151.263 980.176 L142.953 981.842 L142.953 977.583 L151.217 975.916 L155.892 975.916 L155.892 1006.54 L163.531 1006.54 L163.531 1010.48 L143.624 1010.48 L143.624 1006.54 Z" fill="#000000" fill-rule="nonzero" fill-opacity="1" /><path clip-path="url(#clip340)" d="M107.953 718.797 Q104.342 718.797 102.513 722.362 Q100.708 725.903 100.708 733.033 Q100.708 740.139 102.513 743.704 Q104.342 747.246 107.953 747.246 Q111.587 747.246 113.393 743.704 Q115.221 740.139 115.221 733.033 Q115.221 725.903 113.393 722.362 Q111.587 718.797 107.953 718.797 M107.953 715.093 Q113.763 715.093 116.819 719.7 Q119.897 724.283 119.897 733.033 Q119.897 741.76 116.819 746.366 Q113.763 750.949 107.953 750.949 Q102.143 750.949 99.064 746.366 Q96.0085 741.76 96.0085 733.033 Q96.0085 724.283 99.064 719.7 Q102.143 715.093 107.953 715.093 Z" fill="#000000" fill-rule="nonzero" fill-opacity="1" /><path clip-path="url(#clip340)" d="M128.115 744.399 L132.999 744.399 L132.999 750.278 L128.115 750.278 L128.115 744.399 Z" fill="#000000" fill-rule="nonzero" fill-opacity="1" /><path clip-path="url(#clip340)" d="M147.212 746.343 L163.531 746.343 L163.531 750.278 L141.587 750.278 L141.587 746.343 Q144.249 743.588 148.832 738.959 Q153.439 734.306 154.619 732.963 Q156.865 730.44 157.744 728.704 Q158.647 726.945 158.647 725.255 Q158.647 722.501 156.703 720.764 Q154.781 719.028 151.679 719.028 Q149.48 719.028 147.027 719.792 Q144.596 720.556 141.818 722.107 L141.818 717.385 Q144.642 716.251 147.096 715.672 Q149.55 715.093 151.587 715.093 Q156.957 715.093 160.152 717.778 Q163.346 720.463 163.346 724.954 Q163.346 727.084 162.536 729.005 Q161.749 730.903 159.642 733.496 Q159.064 734.167 155.962 737.385 Q152.86 740.579 147.212 746.343 Z" fill="#000000" fill-rule="nonzero" fill-opacity="1" /><path clip-path="url(#clip340)" d="M107.004 458.598 Q103.393 458.598 101.564 462.163 Q99.7585 465.705 99.7585 472.835 Q99.7585 479.941 101.564 483.506 Q103.393 487.047 107.004 487.047 Q110.638 487.047 112.444 483.506 Q114.272 479.941 114.272 472.835 Q114.272 465.705 112.444 462.163 Q110.638 458.598 107.004 458.598 M107.004 454.895 Q112.814 454.895 115.869 459.501 Q118.948 464.085 118.948 472.835 Q118.948 481.561 115.869 486.168 Q112.814 490.751 107.004 490.751 Q101.194 490.751 98.1149 486.168 Q95.0594 481.561 95.0594 472.835 Q95.0594 464.085 98.1149 459.501 Q101.194 454.895 107.004 454.895 Z" fill="#000000" fill-rule="nonzero" fill-opacity="1" /><path clip-path="url(#clip340)" d="M127.166 484.2 L132.05 484.2 L132.05 490.08 L127.166 490.08 L127.166 484.2 Z" fill="#000000" fill-rule="nonzero" fill-opacity="1" /><path clip-path="url(#clip340)" d="M156.402 471.446 Q159.758 472.163 161.633 474.432 Q163.531 476.7 163.531 480.034 Q163.531 485.149 160.013 487.95 Q156.494 490.751 150.013 490.751 Q147.837 490.751 145.522 490.311 Q143.23 489.895 140.777 489.038 L140.777 484.524 Q142.721 485.659 145.036 486.237 Q147.351 486.816 149.874 486.816 Q154.272 486.816 156.564 485.08 Q158.879 483.344 158.879 480.034 Q158.879 476.978 156.726 475.265 Q154.596 473.529 150.777 473.529 L146.749 473.529 L146.749 469.686 L150.962 469.686 Q154.411 469.686 156.24 468.321 Q158.068 466.932 158.068 464.339 Q158.068 461.677 156.17 460.265 Q154.295 458.83 150.777 458.83 Q148.855 458.83 146.656 459.247 Q144.457 459.663 141.818 460.543 L141.818 456.376 Q144.48 455.636 146.795 455.265 Q149.133 454.895 151.193 454.895 Q156.517 454.895 159.619 457.325 Q162.721 459.733 162.721 463.853 Q162.721 466.723 161.078 468.714 Q159.434 470.682 156.402 471.446 Z" fill="#000000" fill-rule="nonzero" fill-opacity="1" /><path clip-path="url(#clip340)" d="M105.87 198.4 Q102.258 198.4 100.43 201.965 Q98.6242 205.507 98.6242 212.636 Q98.6242 219.743 100.43 223.307 Q102.258 226.849 105.87 226.849 Q109.504 226.849 111.309 223.307 Q113.138 219.743 113.138 212.636 Q113.138 205.507 111.309 201.965 Q109.504 198.4 105.87 198.4 M105.87 194.696 Q111.68 194.696 114.735 199.303 Q117.814 203.886 117.814 212.636 Q117.814 221.363 114.735 225.969 Q111.68 230.553 105.87 230.553 Q100.059 230.553 96.9807 225.969 Q93.9252 221.363 93.9252 212.636 Q93.9252 203.886 96.9807 199.303 Q100.059 194.696 105.87 194.696 Z" fill="#000000" fill-rule="nonzero" fill-opacity="1" /><path clip-path="url(#clip340)" d="M126.031 224.002 L130.916 224.002 L130.916 229.881 L126.031 229.881 L126.031 224.002 Z" fill="#000000" fill-rule="nonzero" fill-opacity="1" /><path clip-path="url(#clip340)" d="M153.948 199.395 L142.142 217.844 L153.948 217.844 L153.948 199.395 M152.721 195.321 L158.601 195.321 L158.601 217.844 L163.531 217.844 L163.531 221.733 L158.601 221.733 L158.601 229.881 L153.948 229.881 L153.948 221.733 L138.346 221.733 L138.346 217.219 L152.721 195.321 Z" fill="#000000" fill-rule="nonzero" fill-opacity="1" /><path clip-path="url(#clip340)" d="M-10.5673 833.807 L7.2885 833.807 L7.2885 825.723 Q7.2885 821.235 4.96502 818.784 Q2.64154 816.333 -1.65532 816.333 Q-5.92034 816.333 -8.24382 818.784 Q-10.5673 821.235 -10.5673 825.723 L-10.5673 833.807 M-15.8508 840.237 L-15.8508 825.723 Q-15.8508 817.734 -12.2224 813.66 Q-8.62577 809.554 -1.65532 809.554 Q5.37879 809.554 8.97541 813.66 Q12.572 817.734 12.572 825.723 L12.572 833.807 L31.6692 833.807 L31.6692 840.237 L-15.8508 840.237 Z" fill="#000000" fill-rule="nonzero" fill-opacity="1" /><path clip-path="url(#clip340)" d="M1.49571 781.672 Q0.922794 782.659 0.668166 783.837 Q0.381709 784.982 0.381709 786.383 Q0.381709 791.348 3.62822 794.022 Q6.8429 796.663 12.8903 796.663 L31.6692 796.663 L31.6692 802.552 L-3.9788 802.552 L-3.9788 796.663 L1.55937 796.663 Q-1.68715 794.817 -3.24674 791.857 Q-4.83817 788.897 -4.83817 784.664 Q-4.83817 784.059 -4.74268 783.327 Q-4.67903 782.595 -4.51988 781.704 L1.49571 781.672 Z" fill="#000000" fill-rule="nonzero" fill-opacity="1" /><path clip-path="url(#clip340)" d="M0.127081 763.148 Q0.127081 767.859 3.81919 770.596 Q7.47947 773.333 13.877 773.333 Q20.2745 773.333 23.9667 770.628 Q27.6269 767.89 27.6269 763.148 Q27.6269 758.469 23.9348 755.732 Q20.2427 752.995 13.877 752.995 Q7.54313 752.995 3.85102 755.732 Q0.127081 758.469 0.127081 763.148 M-4.83817 763.148 Q-4.83817 755.509 0.127081 751.149 Q5.09233 746.788 13.877 746.788 Q22.6299 746.788 27.6269 751.149 Q32.5922 755.509 32.5922 763.148 Q32.5922 770.819 27.6269 775.179 Q22.6299 779.508 13.877 779.508 Q5.09233 779.508 0.127081 775.179 Q-4.83817 770.819 -4.83817 763.148 Z" fill="#000000" fill-rule="nonzero" fill-opacity="1" /><path clip-path="url(#clip340)" d="M26.322 731.415 L45.2281 731.415 L45.2281 737.303 L-3.9788 737.303 L-3.9788 731.415 L1.43205 731.415 Q-1.7508 729.569 -3.27857 726.768 Q-4.83817 723.935 -4.83817 720.02 Q-4.83817 713.527 0.318052 709.485 Q5.47427 705.411 13.877 705.411 Q22.2797 705.411 27.436 709.485 Q32.5922 713.527 32.5922 720.02 Q32.5922 723.935 31.0644 726.768 Q29.5048 729.569 26.322 731.415 M13.877 711.49 Q7.41582 711.49 3.75553 714.164 Q0.0634241 716.806 0.0634241 721.453 Q0.0634241 726.1 3.75553 728.773 Q7.41582 731.415 13.877 731.415 Q20.3382 731.415 24.0303 728.773 Q27.6906 726.1 27.6906 721.453 Q27.6906 716.806 24.0303 714.164 Q20.3382 711.49 13.877 711.49 Z" fill="#000000" fill-rule="nonzero" fill-opacity="1" /><path clip-path="url(#clip340)" d="M0.127081 681.89 Q0.127081 686.6 3.81919 689.338 Q7.47947 692.075 13.877 692.075 Q20.2745 692.075 23.9667 689.369 Q27.6269 686.632 27.6269 681.89 Q27.6269 677.211 23.9348 674.474 Q20.2427 671.736 13.877 671.736 Q7.54313 671.736 3.85102 674.474 Q0.127081 677.211 0.127081 681.89 M-4.83817 681.89 Q-4.83817 674.251 0.127081 669.89 Q5.09233 665.53 13.877 665.53 Q22.6299 665.53 27.6269 669.89 Q32.5922 674.251 32.5922 681.89 Q32.5922 689.56 27.6269 693.921 Q22.6299 698.25 13.877 698.25 Q5.09233 698.25 0.127081 693.921 Q-4.83817 689.56 -4.83817 681.89 Z" fill="#000000" fill-rule="nonzero" fill-opacity="1" /><path clip-path="url(#clip340)" d="M1.49571 635.165 Q0.922794 636.152 0.668166 637.33 Q0.381709 638.476 0.381709 639.876 Q0.381709 644.841 3.62822 647.515 Q6.8429 650.157 12.8903 650.157 L31.6692 650.157 L31.6692 656.045 L-3.9788 656.045 L-3.9788 650.157 L1.55937 650.157 Q-1.68715 648.311 -3.24674 645.351 Q-4.83817 642.391 -4.83817 638.157 Q-4.83817 637.553 -4.74268 636.821 Q-4.67903 636.088 -4.51988 635.197 L1.49571 635.165 Z" fill="#000000" fill-rule="nonzero" fill-opacity="1" /><path clip-path="url(#clip340)" d="M-14.1003 623.23 L-3.9788 623.23 L-3.9788 611.167 L0.572681 611.167 L0.572681 623.23 L19.9244 623.23 Q24.2849 623.23 25.5263 622.052 Q26.7676 620.843 26.7676 617.182 L26.7676 611.167 L31.6692 611.167 L31.6692 617.182 Q31.6692 623.962 29.1547 626.54 Q26.6084 629.118 19.9244 629.118 L0.572681 629.118 L0.572681 633.415 L-3.9788 633.415 L-3.9788 629.118 L-14.1003 629.118 L-14.1003 623.23 Z" fill="#000000" fill-rule="nonzero" fill-opacity="1" /><path clip-path="url(#clip340)" d="M-3.9788 603.464 L-3.9788 597.608 L31.6692 597.608 L31.6692 603.464 L-3.9788 603.464 M-17.856 603.464 L-17.856 597.608 L-10.44 597.608 L-10.44 603.464 L-17.856 603.464 Z" fill="#000000" fill-rule="nonzero" fill-opacity="1" /><path clip-path="url(#clip340)" d="M0.127081 571.54 Q0.127081 576.251 3.81919 578.988 Q7.47947 581.725 13.877 581.725 Q20.2745 581.725 23.9667 579.02 Q27.6269 576.283 27.6269 571.54 Q27.6269 566.861 23.9348 564.124 Q20.2427 561.387 13.877 561.387 Q7.54313 561.387 3.85102 564.124 Q0.127081 566.861 0.127081 571.54 M-4.83817 571.54 Q-4.83817 563.901 0.127081 559.541 Q5.09233 555.18 13.877 555.18 Q22.6299 555.18 27.6269 559.541 Q32.5922 563.901 32.5922 571.54 Q32.5922 579.211 27.6269 583.571 Q22.6299 587.9 13.877 587.9 Q5.09233 587.9 0.127081 583.571 Q-4.83817 579.211 -4.83817 571.54 Z" fill="#000000" fill-rule="nonzero" fill-opacity="1" /><path clip-path="url(#clip340)" d="M10.1531 515.84 L31.6692 515.84 L31.6692 521.697 L10.344 521.697 Q5.2833 521.697 2.76885 523.67 Q0.254395 525.643 0.254395 529.59 Q0.254395 534.333 3.27811 537.07 Q6.30182 539.807 11.5217 539.807 L31.6692 539.807 L31.6692 545.695 L-3.9788 545.695 L-3.9788 539.807 L1.55937 539.807 Q-1.65532 537.706 -3.24674 534.874 Q-4.83817 532.009 -4.83817 528.285 Q-4.83817 522.142 -1.01875 518.991 Q2.76885 515.84 10.1531 515.84 Z" fill="#000000" fill-rule="nonzero" fill-opacity="1" /><path clip-path="url(#clip340)" d="M456.029 14.0809 L456.029 22.0612 Q451.37 19.8332 447.239 18.7395 Q443.107 17.6457 439.258 17.6457 Q432.574 17.6457 428.928 20.2383 Q425.323 22.8309 425.323 27.611 Q425.323 31.6214 427.713 33.6873 Q430.144 35.7128 436.868 36.9686 L441.81 37.9813 Q450.965 39.7232 455.3 44.1387 Q459.675 48.5136 459.675 55.8863 Q459.675 64.6767 453.76 69.2137 Q447.887 73.7508 436.504 73.7508 Q432.21 73.7508 427.349 72.7785 Q422.528 71.8063 417.343 69.9024 L417.343 61.4765 Q422.325 64.2716 427.106 65.6895 Q431.886 67.1073 436.504 67.1073 Q443.512 67.1073 447.32 64.3527 Q451.127 61.598 451.127 56.4939 Q451.127 52.0379 448.373 49.5264 Q445.659 47.0148 439.42 45.759 L434.438 44.7868 Q425.283 42.9639 421.191 39.075 Q417.1 35.1862 417.1 28.2591 Q417.1 20.2383 422.731 15.6203 Q428.402 11.0023 438.327 11.0023 Q442.58 11.0023 446.995 11.7719 Q451.411 12.5416 456.029 14.0809 Z" fill="#000000" fill-rule="nonzero" fill-opacity="1" /><path clip-path="url(#clip340)" d="M479.484 14.324 L479.484 27.2059 L494.837 27.2059 L494.837 32.9987 L479.484 32.9987 L479.484 57.6282 Q479.484 63.1779 480.983 64.7578 Q482.522 66.3376 487.18 66.3376 L494.837 66.3376 L494.837 72.576 L487.18 72.576 Q478.552 72.576 475.271 69.3758 Q471.99 66.1351 471.99 57.6282 L471.99 32.9987 L466.521 32.9987 L466.521 27.2059 L471.99 27.2059 L471.99 14.324 L479.484 14.324 Z" fill="#000000" fill-rule="nonzero" fill-opacity="1" /><path clip-path="url(#clip340)" d="M525.259 49.7694 Q516.225 49.7694 512.742 51.8354 Q509.258 53.9013 509.258 58.8839 Q509.258 62.8538 511.85 65.2034 Q514.484 67.5124 518.98 67.5124 Q525.178 67.5124 528.905 63.1374 Q532.672 58.7219 532.672 51.4303 L532.672 49.7694 L525.259 49.7694 M540.126 46.6907 L540.126 72.576 L532.672 72.576 L532.672 65.6895 Q530.12 69.8214 526.312 71.8063 Q522.504 73.7508 516.995 73.7508 Q510.028 73.7508 505.896 69.8619 Q501.804 65.9325 501.804 59.3701 Q501.804 51.7138 506.908 47.825 Q512.053 43.9361 522.221 43.9361 L532.672 43.9361 L532.672 43.2069 Q532.672 38.0623 529.269 35.2672 Q525.907 32.4315 519.79 32.4315 Q515.901 32.4315 512.215 33.3632 Q508.529 34.295 505.126 36.1584 L505.126 29.2718 Q509.217 27.692 513.066 26.9223 Q516.914 26.1121 520.56 26.1121 Q530.404 26.1121 535.265 31.2163 Q540.126 36.3204 540.126 46.6907 Z" fill="#000000" fill-rule="nonzero" fill-opacity="1" /><path clip-path="url(#clip340)" d="M588.048 49.9314 Q588.048 41.7081 584.645 37.0496 Q581.283 32.3505 575.369 32.3505 Q569.454 32.3505 566.052 37.0496 Q562.689 41.7081 562.689 49.9314 Q562.689 58.1548 566.052 62.8538 Q569.454 67.5124 575.369 67.5124 Q581.283 67.5124 584.645 62.8538 Q588.048 58.1548 588.048 49.9314 M562.689 34.0924 Q565.039 30.0415 568.604 28.0971 Q572.209 26.1121 577.192 26.1121 Q585.455 26.1121 590.6 32.6746 Q595.785 39.2371 595.785 49.9314 Q595.785 60.6258 590.6 67.1883 Q585.455 73.7508 577.192 73.7508 Q572.209 73.7508 568.604 71.8063 Q565.039 69.8214 562.689 65.7705 L562.689 72.576 L555.195 72.576 L555.195 9.54393 L562.689 9.54393 L562.689 34.0924 Z" fill="#000000" fill-rule="nonzero" fill-opacity="1" /><path clip-path="url(#clip340)" d="M608.14 9.54393 L615.594 9.54393 L615.594 72.576 L608.14 72.576 L608.14 9.54393 Z" fill="#000000" fill-rule="nonzero" fill-opacity="1" /><path clip-path="url(#clip340)" d="M669.998 48.0275 L669.998 51.6733 L635.727 51.6733 Q636.213 59.3701 640.345 63.421 Q644.518 67.4314 651.931 67.4314 Q656.225 67.4314 660.235 66.3781 Q664.286 65.3249 668.256 63.2184 L668.256 70.267 Q664.245 71.9684 660.033 72.8596 Q655.82 73.7508 651.485 73.7508 Q640.629 73.7508 634.269 67.4314 Q627.949 61.1119 627.949 50.3365 Q627.949 39.1965 633.945 32.6746 Q639.981 26.1121 650.189 26.1121 Q659.344 26.1121 664.651 32.0264 Q669.998 37.9003 669.998 48.0275 M662.544 45.84 Q662.463 39.7232 659.101 36.0774 Q655.779 32.4315 650.27 32.4315 Q644.031 32.4315 640.264 35.9558 Q636.537 39.4801 635.97 45.8805 L662.544 45.84 Z" fill="#000000" fill-rule="nonzero" fill-opacity="1" /><path clip-path="url(#clip340)" d="M729.222 49.7694 Q720.188 49.7694 716.705 51.8354 Q713.221 53.9013 713.221 58.8839 Q713.221 62.8538 715.813 65.2034 Q718.447 67.5124 722.943 67.5124 Q729.141 67.5124 732.868 63.1374 Q736.635 58.7219 736.635 51.4303 L736.635 49.7694 L729.222 49.7694 M744.089 46.6907 L744.089 72.576 L736.635 72.576 L736.635 65.6895 Q734.083 69.8214 730.275 71.8063 Q726.467 73.7508 720.958 73.7508 Q713.991 73.7508 709.859 69.8619 Q705.767 65.9325 705.767 59.3701 Q705.767 51.7138 710.871 47.825 Q716.016 43.9361 726.184 43.9361 L736.635 43.9361 L736.635 43.2069 Q736.635 38.0623 733.232 35.2672 Q729.87 32.4315 723.753 32.4315 Q719.864 32.4315 716.178 33.3632 Q712.492 34.295 709.089 36.1584 L709.089 29.2718 Q713.18 27.692 717.029 26.9223 Q720.877 26.1121 724.523 26.1121 Q734.367 26.1121 739.228 31.2163 Q744.089 36.3204 744.089 46.6907 Z" fill="#000000" fill-rule="nonzero" fill-opacity="1" /><path clip-path="url(#clip340)" d="M789.297 49.3643 Q789.297 41.2625 785.935 36.8065 Q782.613 32.3505 776.577 32.3505 Q770.582 32.3505 767.219 36.8065 Q763.898 41.2625 763.898 49.3643 Q763.898 57.4256 767.219 61.8816 Q770.582 66.3376 776.577 66.3376 Q782.613 66.3376 785.935 61.8816 Q789.297 57.4256 789.297 49.3643 M796.751 66.9452 Q796.751 78.5308 791.606 84.1616 Q786.461 89.8329 775.848 89.8329 Q771.918 89.8329 768.435 89.2252 Q764.951 88.6581 761.67 87.4428 L761.67 80.1917 Q764.951 81.9741 768.151 82.8248 Q771.351 83.6755 774.673 83.6755 Q782.005 83.6755 785.651 79.8271 Q789.297 76.0193 789.297 68.282 L789.297 64.5957 Q786.988 68.6061 783.383 70.5911 Q779.777 72.576 774.754 72.576 Q766.409 72.576 761.305 66.2161 Q756.201 59.8562 756.201 49.3643 Q756.201 38.832 761.305 32.472 Q766.409 26.1121 774.754 26.1121 Q779.777 26.1121 783.383 28.0971 Q786.988 30.082 789.297 34.0924 L789.297 27.2059 L796.751 27.2059 L796.751 66.9452 Z" fill="#000000" fill-rule="nonzero" fill-opacity="1" /><path clip-path="url(#clip340)" d="M850.911 48.0275 L850.911 51.6733 L816.64 51.6733 Q817.127 59.3701 821.258 63.421 Q825.431 67.4314 832.844 67.4314 Q837.138 67.4314 841.148 66.3781 Q845.199 65.3249 849.169 63.2184 L849.169 70.267 Q845.159 71.9684 840.946 72.8596 Q836.733 73.7508 832.398 73.7508 Q821.542 73.7508 815.182 67.4314 Q808.863 61.1119 808.863 50.3365 Q808.863 39.1965 814.858 32.6746 Q820.894 26.1121 831.102 26.1121 Q840.257 26.1121 845.564 32.0264 Q850.911 37.9003 850.911 48.0275 M843.457 45.84 Q843.376 39.7232 840.014 36.0774 Q836.692 32.4315 831.183 32.4315 Q824.945 32.4315 821.177 35.9558 Q817.451 39.4801 816.884 45.8805 L843.457 45.84 Z" fill="#000000" fill-rule="nonzero" fill-opacity="1" /><path clip-path="url(#clip340)" d="M919.371 34.0924 L919.371 9.54393 L926.825 9.54393 L926.825 72.576 L919.371 72.576 L919.371 65.7705 Q917.022 69.8214 913.417 71.8063 Q909.852 73.7508 904.829 73.7508 Q896.605 73.7508 891.42 67.1883 Q886.276 60.6258 886.276 49.9314 Q886.276 39.2371 891.42 32.6746 Q896.605 26.1121 904.829 26.1121 Q909.852 26.1121 913.417 28.0971 Q917.022 30.0415 919.371 34.0924 M893.972 49.9314 Q893.972 58.1548 897.334 62.8538 Q900.737 67.5124 906.652 67.5124 Q912.566 67.5124 915.969 62.8538 Q919.371 58.1548 919.371 49.9314 Q919.371 41.7081 915.969 37.0496 Q912.566 32.3505 906.652 32.3505 Q900.737 32.3505 897.334 37.0496 Q893.972 41.7081 893.972 49.9314 Z" fill="#000000" fill-rule="nonzero" fill-opacity="1" /><path clip-path="url(#clip340)" d="M942.178 27.2059 L949.632 27.2059 L949.632 72.576 L942.178 72.576 L942.178 27.2059 M942.178 9.54393 L949.632 9.54393 L949.632 18.9825 L942.178 18.9825 L942.178 9.54393 Z" fill="#000000" fill-rule="nonzero" fill-opacity="1" /><path clip-path="url(#clip340)" d="M994.151 28.5427 L994.151 35.5912 Q990.991 33.9709 987.589 33.1607 Q984.186 32.3505 980.54 32.3505 Q974.99 32.3505 972.195 34.0519 Q969.441 35.7533 969.441 39.156 Q969.441 41.7486 971.426 43.2475 Q973.41 44.7058 979.406 46.0426 L981.958 46.6097 Q989.898 48.3111 993.219 51.4303 Q996.582 54.509 996.582 60.0587 Q996.582 66.3781 991.559 70.0644 Q986.576 73.7508 977.826 73.7508 Q974.18 73.7508 970.21 73.0216 Q966.281 72.3329 961.906 70.9151 L961.906 63.2184 Q966.038 65.3654 970.048 66.4591 Q974.059 67.5124 977.988 67.5124 Q983.254 67.5124 986.09 65.73 Q988.925 63.9071 988.925 60.6258 Q988.925 57.5877 986.859 55.9673 Q984.834 54.3469 977.907 52.8481 L975.314 52.2405 Q968.387 50.7821 965.309 47.7845 Q962.23 44.7463 962.23 39.4801 Q962.23 33.0797 966.767 29.5959 Q971.304 26.1121 979.649 26.1121 Q983.781 26.1121 987.427 26.7198 Q991.072 27.3274 994.151 28.5427 Z" fill="#000000" fill-rule="nonzero" fill-opacity="1" /><path clip-path="url(#clip340)" d="M1015.82 14.324 L1015.82 27.2059 L1031.18 27.2059 L1031.18 32.9987 L1015.82 32.9987 L1015.82 57.6282 Q1015.82 63.1779 1017.32 64.7578 Q1018.86 66.3376 1023.52 66.3376 L1031.18 66.3376 L1031.18 72.576 L1023.52 72.576 Q1014.89 72.576 1011.61 69.3758 Q1008.33 66.1351 1008.33 57.6282 L1008.33 32.9987 L1002.86 32.9987 L1002.86 27.2059 L1008.33 27.2059 L1008.33 14.324 L1015.82 14.324 Z" fill="#000000" fill-rule="nonzero" fill-opacity="1" /><path clip-path="url(#clip340)" d="M1067.27 34.1734 Q1066.01 33.4443 1064.52 33.1202 Q1063.06 32.7556 1061.27 32.7556 Q1054.96 32.7556 1051.55 36.8875 Q1048.19 40.9789 1048.19 48.6757 L1048.19 72.576 L1040.7 72.576 L1040.7 27.2059 L1048.19 27.2059 L1048.19 34.2544 Q1050.54 30.1225 1054.31 28.1376 Q1058.07 26.1121 1063.46 26.1121 Q1064.23 26.1121 1065.16 26.2337 Q1066.1 26.3147 1067.23 26.5172 L1067.27 34.1734 Z" fill="#000000" fill-rule="nonzero" fill-opacity="1" /><path clip-path="url(#clip340)" d="M1075.09 27.2059 L1082.54 27.2059 L1082.54 72.576 L1075.09 72.576 L1075.09 27.2059 M1075.09 9.54393 L1082.54 9.54393 L1082.54 18.9825 L1075.09 18.9825 L1075.09 9.54393 Z" fill="#000000" fill-rule="nonzero" fill-opacity="1" /><path clip-path="url(#clip340)" d="M1130.71 49.9314 Q1130.71 41.7081 1127.3 37.0496 Q1123.94 32.3505 1118.03 32.3505 Q1112.11 32.3505 1108.71 37.0496 Q1105.35 41.7081 1105.35 49.9314 Q1105.35 58.1548 1108.71 62.8538 Q1112.11 67.5124 1118.03 67.5124 Q1123.94 67.5124 1127.3 62.8538 Q1130.71 58.1548 1130.71 49.9314 M1105.35 34.0924 Q1107.7 30.0415 1111.26 28.0971 Q1114.87 26.1121 1119.85 26.1121 Q1128.11 26.1121 1133.26 32.6746 Q1138.44 39.2371 1138.44 49.9314 Q1138.44 60.6258 1133.26 67.1883 Q1128.11 73.7508 1119.85 73.7508 Q1114.87 73.7508 1111.26 71.8063 Q1107.7 69.8214 1105.35 65.7705 L1105.35 72.576 L1097.85 72.576 L1097.85 9.54393 L1105.35 9.54393 L1105.35 34.0924 Z" fill="#000000" fill-rule="nonzero" fill-opacity="1" /><path clip-path="url(#clip340)" d="M1150.03 54.671 L1150.03 27.2059 L1157.48 27.2059 L1157.48 54.3874 Q1157.48 60.8284 1160 64.0691 Q1162.51 67.2693 1167.53 67.2693 Q1173.57 67.2693 1177.05 63.421 Q1180.57 59.5726 1180.57 52.9291 L1180.57 27.2059 L1188.03 27.2059 L1188.03 72.576 L1180.57 72.576 L1180.57 65.6084 Q1177.86 69.7404 1174.25 71.7658 Q1170.69 73.7508 1165.95 73.7508 Q1158.13 73.7508 1154.08 68.8897 Q1150.03 64.0286 1150.03 54.671 M1168.79 26.1121 L1168.79 26.1121 Z" fill="#000000" fill-rule="nonzero" fill-opacity="1" /><path clip-path="url(#clip340)" d="M1210.75 14.324 L1210.75 27.2059 L1226.11 27.2059 L1226.11 32.9987 L1210.75 32.9987 L1210.75 57.6282 Q1210.75 63.1779 1212.25 64.7578 Q1213.79 66.3376 1218.45 66.3376 L1226.11 66.3376 L1226.11 72.576 L1218.45 72.576 Q1209.82 72.576 1206.54 69.3758 Q1203.26 66.1351 1203.26 57.6282 L1203.26 32.9987 L1197.79 32.9987 L1197.79 27.2059 L1203.26 27.2059 L1203.26 14.324 L1210.75 14.324 Z" fill="#000000" fill-rule="nonzero" fill-opacity="1" /><path clip-path="url(#clip340)" d="M1235.91 27.2059 L1243.36 27.2059 L1243.36 72.576 L1235.91 72.576 L1235.91 27.2059 M1235.91 9.54393 L1243.36 9.54393 L1243.36 18.9825 L1235.91 18.9825 L1235.91 9.54393 Z" fill="#000000" fill-rule="nonzero" fill-opacity="1" /><path clip-path="url(#clip340)" d="M1276.54 32.4315 Q1270.54 32.4315 1267.06 37.1306 Q1263.58 41.7891 1263.58 49.9314 Q1263.58 58.0738 1267.02 62.7728 Q1270.5 67.4314 1276.54 67.4314 Q1282.49 67.4314 1285.98 62.7323 Q1289.46 58.0333 1289.46 49.9314 Q1289.46 41.8701 1285.98 37.1711 Q1282.49 32.4315 1276.54 32.4315 M1276.54 26.1121 Q1286.26 26.1121 1291.81 32.4315 Q1297.36 38.7509 1297.36 49.9314 Q1297.36 61.0714 1291.81 67.4314 Q1286.26 73.7508 1276.54 73.7508 Q1266.78 73.7508 1261.23 67.4314 Q1255.72 61.0714 1255.72 49.9314 Q1255.72 38.7509 1261.23 32.4315 Q1266.78 26.1121 1276.54 26.1121 Z" fill="#000000" fill-rule="nonzero" fill-opacity="1" /><path clip-path="url(#clip340)" d="M1347.43 45.1919 L1347.43 72.576 L1339.98 72.576 L1339.98 45.4349 Q1339.98 38.994 1337.47 35.7938 Q1334.95 32.5936 1329.93 32.5936 Q1323.89 32.5936 1320.41 36.4419 Q1316.93 40.2903 1316.93 46.9338 L1316.93 72.576 L1309.43 72.576 L1309.43 27.2059 L1316.93 27.2059 L1316.93 34.2544 Q1319.6 30.163 1323.21 28.1376 Q1326.85 26.1121 1331.59 26.1121 Q1339.41 26.1121 1343.42 30.9732 Q1347.43 35.7938 1347.43 45.1919 Z" fill="#000000" fill-rule="nonzero" fill-opacity="1" /><path clip-path="url(#clip342)" d="M285.314 102.682 L285.314 1253.39 L349.85 1253.39 L349.85 102.682 L285.314 102.682 L285.314 102.682  Z" fill="#008080" fill-rule="evenodd" fill-opacity="0.7"/>
<polyline clip-path="url(#clip342)" style="stroke:#000000; stroke-linecap:round; stroke-linejoin:round; stroke-width:4; stroke-opacity:0.7; fill:none" points="285.314,102.682 285.314,1253.39 349.85,1253.39 349.85,102.682 285.314,102.682 "/>
<path clip-path="url(#clip342)" d="M365.983 825.732 L365.983 1253.39 L430.519 1253.39 L430.519 825.732 L365.983 825.732 L365.983 825.732  Z" fill="#008080" fill-rule="evenodd" fill-opacity="0.7"/>
<polyline clip-path="url(#clip342)" style="stroke:#000000; stroke-linecap:round; stroke-linejoin:round; stroke-width:4; stroke-opacity:0.7; fill:none" points="365.983,825.732 365.983,1253.39 430.519,1253.39 430.519,825.732 365.983,825.732 "/>
<path clip-path="url(#clip342)" d="M446.652 1014.98 L446.652 1253.39 L511.188 1253.39 L511.188 1014.98 L446.652 1014.98 L446.652 1014.98  Z" fill="#008080" fill-rule="evenodd" fill-opacity="0.7"/>
<polyline clip-path="url(#clip342)" style="stroke:#000000; stroke-linecap:round; stroke-linejoin:round; stroke-width:4; stroke-opacity:0.7; fill:none" points="446.652,1014.98 446.652,1253.39 511.188,1253.39 511.188,1014.98 446.652,1014.98 "/>
<path clip-path="url(#clip342)" d="M527.321 1067.32 L527.321 1253.39 L591.857 1253.39 L591.857 1067.32 L527.321 1067.32 L527.321 1067.32  Z" fill="#008080" fill-rule="evenodd" fill-opacity="0.7"/>
<polyline clip-path="url(#clip342)" style="stroke:#000000; stroke-linecap:round; stroke-linejoin:round; stroke-width:4; stroke-opacity:0.7; fill:none" points="527.321,1067.32 527.321,1253.39 591.857,1253.39 591.857,1067.32 527.321,1067.32 "/>
<path clip-path="url(#clip342)" d="M607.99 1108.17 L607.99 1253.39 L672.526 1253.39 L672.526 1108.17 L607.99 1108.17 L607.99 1108.17  Z" fill="#008080" fill-rule="evenodd" fill-opacity="0.7"/>
<polyline clip-path="url(#clip342)" style="stroke:#000000; stroke-linecap:round; stroke-linejoin:round; stroke-width:4; stroke-opacity:0.7; fill:none" points="607.99,1108.17 607.99,1253.39 672.526,1253.39 672.526,1108.17 607.99,1108.17 "/>
<path clip-path="url(#clip342)" d="M688.659 1140.05 L688.659 1253.39 L753.195 1253.39 L753.195 1140.05 L688.659 1140.05 L688.659 1140.05  Z" fill="#008080" fill-rule="evenodd" fill-opacity="0.7"/>
<polyline clip-path="url(#clip342)" style="stroke:#000000; stroke-linecap:round; stroke-linejoin:round; stroke-width:4; stroke-opacity:0.7; fill:none" points="688.659,1140.05 688.659,1253.39 753.195,1253.39 753.195,1140.05 688.659,1140.05 "/>
<path clip-path="url(#clip342)" d="M769.328 1164.94 L769.328 1253.39 L833.864 1253.39 L833.864 1164.94 L769.328 1164.94 L769.328 1164.94  Z" fill="#008080" fill-rule="evenodd" fill-opacity="0.7"/>
<polyline clip-path="url(#clip342)" style="stroke:#000000; stroke-linecap:round; stroke-linejoin:round; stroke-width:4; stroke-opacity:0.7; fill:none" points="769.328,1164.94 769.328,1253.39 833.864,1253.39 833.864,1164.94 769.328,1164.94 "/>
<path clip-path="url(#clip342)" d="M849.998 1184.36 L849.998 1253.39 L914.533 1253.39 L914.533 1184.36 L849.998 1184.36 L849.998 1184.36  Z" fill="#008080" fill-rule="evenodd" fill-opacity="0.7"/>
<polyline clip-path="url(#clip342)" style="stroke:#000000; stroke-linecap:round; stroke-linejoin:round; stroke-width:4; stroke-opacity:0.7; fill:none" points="849.998,1184.36 849.998,1253.39 914.533,1253.39 914.533,1184.36 849.998,1184.36 "/>
<path clip-path="url(#clip342)" d="M930.667 1199.51 L930.667 1253.39 L995.202 1253.39 L995.202 1199.51 L930.667 1199.51 L930.667 1199.51  Z" fill="#008080" fill-rule="evenodd" fill-opacity="0.7"/>
<polyline clip-path="url(#clip342)" style="stroke:#000000; stroke-linecap:round; stroke-linejoin:round; stroke-width:4; stroke-opacity:0.7; fill:none" points="930.667,1199.51 930.667,1253.39 995.202,1253.39 995.202,1199.51 930.667,1199.51 "/>
<path clip-path="url(#clip342)" d="M1011.34 1211.34 L1011.34 1253.39 L1075.87 1253.39 L1075.87 1211.34 L1011.34 1211.34 L1011.34 1211.34  Z" fill="#008080" fill-rule="evenodd" fill-opacity="0.7"/>
<polyline clip-path="url(#clip342)" style="stroke:#000000; stroke-linecap:round; stroke-linejoin:round; stroke-width:4; stroke-opacity:0.7; fill:none" points="1011.34,1211.34 1011.34,1253.39 1075.87,1253.39 1075.87,1211.34 1011.34,1211.34 "/>
<path clip-path="url(#clip342)" d="M1092 1221.36 L1092 1253.39 L1156.54 1253.39 L1156.54 1221.36 L1092 1221.36 L1092 1221.36  Z" fill="#008080" fill-rule="evenodd" fill-opacity="0.7"/>
<polyline clip-path="url(#clip342)" style="stroke:#000000; stroke-linecap:round; stroke-linejoin:round; stroke-width:4; stroke-opacity:0.7; fill:none" points="1092,1221.36 1092,1253.39 1156.54,1253.39 1156.54,1221.36 1092,1221.36 "/>
<path clip-path="url(#clip342)" d="M1172.67 1229.58 L1172.67 1253.39 L1237.21 1253.39 L1237.21 1229.58 L1172.67 1229.58 L1172.67 1229.58  Z" fill="#008080" fill-rule="evenodd" fill-opacity="0.7"/>
<polyline clip-path="url(#clip342)" style="stroke:#000000; stroke-linecap:round; stroke-linejoin:round; stroke-width:4; stroke-opacity:0.7; fill:none" points="1172.67,1229.58 1172.67,1253.39 1237.21,1253.39 1237.21,1229.58 1172.67,1229.58 "/>
<path clip-path="url(#clip342)" d="M1253.34 1236.8 L1253.34 1253.39 L1317.88 1253.39 L1317.88 1236.8 L1253.34 1236.8 L1253.34 1236.8  Z" fill="#008080" fill-rule="evenodd" fill-opacity="0.7"/>
<polyline clip-path="url(#clip342)" style="stroke:#000000; stroke-linecap:round; stroke-linejoin:round; stroke-width:4; stroke-opacity:0.7; fill:none" points="1253.34,1236.8 1253.34,1253.39 1317.88,1253.39 1317.88,1236.8 1253.34,1236.8 "/>
<path clip-path="url(#clip342)" d="M1334.01 1243.37 L1334.01 1253.39 L1398.55 1253.39 L1398.55 1243.37 L1334.01 1243.37 L1334.01 1243.37  Z" fill="#008080" fill-rule="evenodd" fill-opacity="0.7"/>
<polyline clip-path="url(#clip342)" style="stroke:#000000; stroke-linecap:round; stroke-linejoin:round; stroke-width:4; stroke-opacity:0.7; fill:none" points="1334.01,1243.37 1334.01,1253.39 1398.55,1253.39 1398.55,1243.37 1334.01,1243.37 "/>
<path clip-path="url(#clip342)" d="M1414.68 1248.74 L1414.68 1253.39 L1479.22 1253.39 L1479.22 1248.74 L1414.68 1248.74 L1414.68 1248.74  Z" fill="#008080" fill-rule="evenodd" fill-opacity="0.7"/>
<polyline clip-path="url(#clip342)" style="stroke:#000000; stroke-linecap:round; stroke-linejoin:round; stroke-width:4; stroke-opacity:0.7; fill:none" points="1414.68,1248.74 1414.68,1253.39 1479.22,1253.39 1479.22,1248.74 1414.68,1248.74 "/>
<circle clip-path="url(#clip342)" style="fill:#008080; stroke:none; fill-opacity:0" cx="398.251" cy="825.732" r="2"/>
<circle clip-path="url(#clip342)" style="fill:#008080; stroke:none; fill-opacity:0" cx="478.92" cy="1014.98" r="2"/>
<circle clip-path="url(#clip342)" style="fill:#008080; stroke:none; fill-opacity:0" cx="559.589" cy="1067.32" r="2"/>
<circle clip-path="url(#clip342)" style="fill:#008080; stroke:none; fill-opacity:0" cx="640.258" cy="1108.17" r="2"/>
<circle clip-path="url(#clip342)" style="fill:#008080; stroke:none; fill-opacity:0" cx="720.927" cy="1140.05" r="2"/>
<circle clip-path="url(#clip342)" style="fill:#008080; stroke:none; fill-opacity:0" cx="801.596" cy="1164.94" r="2"/>
<circle clip-path="url(#clip342)" style="fill:#008080; stroke:none; fill-opacity:0" cx="882.265" cy="1184.36" r="2"/>
<circle clip-path="url(#clip342)" style="fill:#008080; stroke:none; fill-opacity:0" cx="962.934" cy="1199.51" r="2"/>
<circle clip-path="url(#clip342)" style="fill:#008080; stroke:none; fill-opacity:0" cx="1043.6" cy="1211.34" r="2"/>
<circle clip-path="url(#clip342)" style="fill:#008080; stroke:none; fill-opacity:0" cx="1124.27" cy="1221.36" r="2"/>
<circle clip-path="url(#clip342)" style="fill:#008080; stroke:none; fill-opacity:0" cx="1204.94" cy="1229.58" r="2"/>
<circle clip-path="url(#clip342)" style="fill:#008080; stroke:none; fill-opacity:0" cx="1285.61" cy="1236.8" r="2"/>
<circle clip-path="url(#clip342)" style="fill:#008080; stroke:none; fill-opacity:0" cx="1366.28" cy="1243.37" r="2"/>
<circle clip-path="url(#clip342)" style="fill:#008080; stroke:none; fill-opacity:0" cx="1446.95" cy="1248.74" r="2"/>
<path clip-path="url(#clip340)" d="M1811.29 1253.39 L3152.76 1253.39 L3152.76 102.682 L1811.29 102.682  Z" fill="#ffffff" fill-rule="evenodd" fill-opacity="1"/>
<polyline clip-path="url(#clip341)" style="stroke:#000000; stroke-linecap:round; stroke-linejoin:round; stroke-width:2; stroke-opacity:0.1; fill:none" points="1836.67,1253.39 1836.67,102.682 "/>
<polyline clip-path="url(#clip341)" style="stroke:#000000; stroke-linecap:round; stroke-linejoin:round; stroke-width:2; stroke-opacity:0.1; fill:none" points="2240.02,1253.39 2240.02,102.682 "/>
<polyline clip-path="url(#clip341)" style="stroke:#000000; stroke-linecap:round; stroke-linejoin:round; stroke-width:2; stroke-opacity:0.1; fill:none" points="2643.36,1253.39 2643.36,102.682 "/>
<polyline clip-path="url(#clip341)" style="stroke:#000000; stroke-linecap:round; stroke-linejoin:round; stroke-width:2; stroke-opacity:0.1; fill:none" points="3046.71,1253.39 3046.71,102.682 "/>
<polyline clip-path="url(#clip341)" style="stroke:#000000; stroke-linecap:round; stroke-linejoin:round; stroke-width:2; stroke-opacity:0.1; fill:none" points="1811.29,1253.39 3152.76,1253.39 "/>
<polyline clip-path="url(#clip341)" style="stroke:#000000; stroke-linecap:round; stroke-linejoin:round; stroke-width:2; stroke-opacity:0.1; fill:none" points="1811.29,984.478 3152.76,984.478 "/>
<polyline clip-path="url(#clip341)" style="stroke:#000000; stroke-linecap:round; stroke-linejoin:round; stroke-width:2; stroke-opacity:0.1; fill:none" points="1811.29,715.561 3152.76,715.561 "/>
<polyline clip-path="url(#clip341)" style="stroke:#000000; stroke-linecap:round; stroke-linejoin:round; stroke-width:2; stroke-opacity:0.1; fill:none" points="1811.29,446.645 3152.76,446.645 "/>
<polyline clip-path="url(#clip341)" style="stroke:#000000; stroke-linecap:round; stroke-linejoin:round; stroke-width:2; stroke-opacity:0.1; fill:none" points="1811.29,177.728 3152.76,177.728 "/>
<polyline clip-path="url(#clip340)" style="stroke:#000000; stroke-linecap:round; stroke-linejoin:round; stroke-width:4; stroke-opacity:1; fill:none" points="1811.29,1253.39 3152.76,1253.39 "/>
<polyline clip-path="url(#clip340)" style="stroke:#000000; stroke-linecap:round; stroke-linejoin:round; stroke-width:4; stroke-opacity:1; fill:none" points="1836.67,1253.39 1836.67,1234.5 "/>
<polyline clip-path="url(#clip340)" style="stroke:#000000; stroke-linecap:round; stroke-linejoin:round; stroke-width:4; stroke-opacity:1; fill:none" points="2240.02,1253.39 2240.02,1234.5 "/>
<polyline clip-path="url(#clip340)" style="stroke:#000000; stroke-linecap:round; stroke-linejoin:round; stroke-width:4; stroke-opacity:1; fill:none" points="2643.36,1253.39 2643.36,1234.5 "/>
<polyline clip-path="url(#clip340)" style="stroke:#000000; stroke-linecap:round; stroke-linejoin:round; stroke-width:4; stroke-opacity:1; fill:none" points="3046.71,1253.39 3046.71,1234.5 "/>
<path clip-path="url(#clip340)" d="M1836.67 1290.71 Q1833.06 1290.71 1831.23 1294.28 Q1829.42 1297.82 1829.42 1304.95 Q1829.42 1312.06 1831.23 1315.62 Q1833.06 1319.16 1836.67 1319.16 Q1840.3 1319.16 1842.11 1315.62 Q1843.94 1312.06 1843.94 1304.95 Q1843.94 1297.82 1842.11 1294.28 Q1840.3 1290.71 1836.67 1290.71 M1836.67 1287.01 Q1842.48 1287.01 1845.54 1291.62 Q1848.61 1296.2 1848.61 1304.95 Q1848.61 1313.68 1845.54 1318.28 Q1842.48 1322.87 1836.67 1322.87 Q1830.86 1322.87 1827.78 1318.28 Q1824.73 1313.68 1824.73 1304.95 Q1824.73 1296.2 1827.78 1291.62 Q1830.86 1287.01 1836.67 1287.01 Z" fill="#000000" fill-rule="nonzero" fill-opacity="1" /><path clip-path="url(#clip340)" d="M2230.29 1287.63 L2248.65 1287.63 L2248.65 1291.57 L2234.58 1291.57 L2234.58 1300.04 Q2235.59 1299.69 2236.61 1299.53 Q2237.63 1299.35 2238.65 1299.35 Q2244.44 1299.35 2247.82 1302.52 Q2251.2 1305.69 2251.2 1311.11 Q2251.2 1316.69 2247.72 1319.79 Q2244.25 1322.87 2237.93 1322.87 Q2235.76 1322.87 2233.49 1322.5 Q2231.24 1322.13 2228.83 1321.38 L2228.83 1316.69 Q2230.92 1317.82 2233.14 1318.38 Q2235.36 1318.93 2237.84 1318.93 Q2241.84 1318.93 2244.18 1316.82 Q2246.52 1314.72 2246.52 1311.11 Q2246.52 1307.5 2244.18 1305.39 Q2241.84 1303.28 2237.84 1303.28 Q2235.96 1303.28 2234.09 1303.7 Q2232.24 1304.12 2230.29 1305 L2230.29 1287.63 Z" fill="#000000" fill-rule="nonzero" fill-opacity="1" /><path clip-path="url(#clip340)" d="M2618.05 1318.26 L2625.69 1318.26 L2625.69 1291.89 L2617.38 1293.56 L2617.38 1289.3 L2625.64 1287.63 L2630.32 1287.63 L2630.32 1318.26 L2637.96 1318.26 L2637.96 1322.19 L2618.05 1322.19 L2618.05 1318.26 Z" fill="#000000" fill-rule="nonzero" fill-opacity="1" /><path clip-path="url(#clip340)" d="M2657.4 1290.71 Q2653.79 1290.71 2651.96 1294.28 Q2650.15 1297.82 2650.15 1304.95 Q2650.15 1312.06 2651.96 1315.62 Q2653.79 1319.16 2657.4 1319.16 Q2661.03 1319.16 2662.84 1315.62 Q2664.67 1312.06 2664.67 1304.95 Q2664.67 1297.82 2662.84 1294.28 Q2661.03 1290.71 2657.4 1290.71 M2657.4 1287.01 Q2663.21 1287.01 2666.27 1291.62 Q2669.34 1296.2 2669.34 1304.95 Q2669.34 1313.68 2666.27 1318.28 Q2663.21 1322.87 2657.4 1322.87 Q2651.59 1322.87 2648.51 1318.28 Q2645.45 1313.68 2645.45 1304.95 Q2645.45 1296.2 2648.51 1291.62 Q2651.59 1287.01 2657.4 1287.01 Z" fill="#000000" fill-rule="nonzero" fill-opacity="1" /><path clip-path="url(#clip340)" d="M3021.89 1318.26 L3029.53 1318.26 L3029.53 1291.89 L3021.22 1293.56 L3021.22 1289.3 L3029.48 1287.63 L3034.16 1287.63 L3034.16 1318.26 L3041.8 1318.26 L3041.8 1322.19 L3021.89 1322.19 L3021.89 1318.26 Z" fill="#000000" fill-rule="nonzero" fill-opacity="1" /><path clip-path="url(#clip340)" d="M3051.29 1287.63 L3069.64 1287.63 L3069.64 1291.57 L3055.57 1291.57 L3055.57 1300.04 Q3056.59 1299.69 3057.61 1299.53 Q3058.63 1299.35 3059.64 1299.35 Q3065.43 1299.35 3068.81 1302.52 Q3072.19 1305.69 3072.19 1311.11 Q3072.19 1316.69 3068.72 1319.79 Q3065.25 1322.87 3058.93 1322.87 Q3056.75 1322.87 3054.48 1322.5 Q3052.24 1322.13 3049.83 1321.38 L3049.83 1316.69 Q3051.91 1317.82 3054.14 1318.38 Q3056.36 1318.93 3058.83 1318.93 Q3062.84 1318.93 3065.18 1316.82 Q3067.52 1314.72 3067.52 1311.11 Q3067.52 1307.5 3065.18 1305.39 Q3062.84 1303.28 3058.83 1303.28 Q3056.96 1303.28 3055.08 1303.7 Q3053.23 1304.12 3051.29 1305 L3051.29 1287.63 Z" fill="#000000" fill-rule="nonzero" fill-opacity="1" /><path clip-path="url(#clip340)" d="M2351.33 1369.07 L2342.61 1392.72 L2360.09 1392.72 L2351.33 1369.07 M2347.71 1362.74 L2354.99 1362.74 L2373.1 1410.26 L2366.42 1410.26 L2362.09 1398.07 L2340.67 1398.07 L2336.34 1410.26 L2329.56 1410.26 L2347.71 1362.74 Z" fill="#000000" fill-rule="nonzero" fill-opacity="1" /><path clip-path="url(#clip340)" d="M2403.25 1392.02 Q2403.25 1385.66 2400.6 1382.15 Q2397.99 1378.65 2393.25 1378.65 Q2388.54 1378.65 2385.9 1382.15 Q2383.29 1385.66 2383.29 1392.02 Q2383.29 1398.35 2385.9 1401.86 Q2388.54 1405.36 2393.25 1405.36 Q2397.99 1405.36 2400.6 1401.86 Q2403.25 1398.35 2403.25 1392.02 M2409.1 1405.83 Q2409.1 1414.94 2405.06 1419.36 Q2401.02 1423.82 2392.68 1423.82 Q2389.59 1423.82 2386.85 1423.34 Q2384.12 1422.89 2381.54 1421.94 L2381.54 1416.24 Q2384.12 1417.64 2386.63 1418.31 Q2389.15 1418.98 2391.76 1418.98 Q2397.52 1418.98 2400.38 1415.96 Q2403.25 1412.96 2403.25 1406.89 L2403.25 1403.99 Q2401.43 1407.14 2398.6 1408.7 Q2395.77 1410.26 2391.82 1410.26 Q2385.26 1410.26 2381.25 1405.26 Q2377.24 1400.26 2377.24 1392.02 Q2377.24 1383.75 2381.25 1378.75 Q2385.26 1373.75 2391.82 1373.75 Q2395.77 1373.75 2398.6 1375.31 Q2401.43 1376.87 2403.25 1380.02 L2403.25 1374.61 L2409.1 1374.61 L2409.1 1405.83 Z" fill="#000000" fill-rule="nonzero" fill-opacity="1" /><path clip-path="url(#clip340)" d="M2451.66 1390.97 L2451.66 1393.84 L2424.73 1393.84 Q2425.11 1399.88 2428.36 1403.07 Q2431.64 1406.22 2437.46 1406.22 Q2440.84 1406.22 2443.99 1405.39 Q2447.17 1404.56 2450.29 1402.91 L2450.29 1408.44 Q2447.14 1409.78 2443.83 1410.48 Q2440.52 1411.18 2437.11 1411.18 Q2428.58 1411.18 2423.58 1406.22 Q2418.62 1401.25 2418.62 1392.78 Q2418.62 1384.03 2423.33 1378.91 Q2428.07 1373.75 2436.09 1373.75 Q2443.29 1373.75 2447.46 1378.4 Q2451.66 1383.01 2451.66 1390.97 M2445.8 1389.25 Q2445.74 1384.45 2443.1 1381.58 Q2440.49 1378.72 2436.16 1378.72 Q2431.26 1378.72 2428.3 1381.49 Q2425.37 1384.25 2424.92 1389.28 L2445.8 1389.25 Z" fill="#000000" fill-rule="nonzero" fill-opacity="1" /><path clip-path="url(#clip340)" d="M2507.64 1375.98 L2507.64 1381.45 Q2505.16 1380.09 2502.65 1379.42 Q2500.16 1378.72 2497.62 1378.72 Q2491.92 1378.72 2488.77 1382.35 Q2485.62 1385.94 2485.62 1392.47 Q2485.62 1398.99 2488.77 1402.62 Q2491.92 1406.22 2497.62 1406.22 Q2500.16 1406.22 2502.65 1405.55 Q2505.16 1404.85 2507.64 1403.48 L2507.64 1408.89 Q2505.19 1410.04 2502.55 1410.61 Q2499.94 1411.18 2496.98 1411.18 Q2488.93 1411.18 2484.19 1406.12 Q2479.44 1401.06 2479.44 1392.47 Q2479.44 1383.75 2484.22 1378.75 Q2489.02 1373.75 2497.36 1373.75 Q2500.07 1373.75 2502.65 1374.32 Q2505.23 1374.87 2507.64 1375.98 Z" fill="#000000" fill-rule="nonzero" fill-opacity="1" /><path clip-path="url(#clip340)" d="M2517.83 1360.73 L2523.69 1360.73 L2523.69 1410.26 L2517.83 1410.26 L2517.83 1360.73 Z" fill="#000000" fill-rule="nonzero" fill-opacity="1" /><path clip-path="url(#clip340)" d="M2552.14 1392.34 Q2545.04 1392.34 2542.31 1393.96 Q2539.57 1395.59 2539.57 1399.5 Q2539.57 1402.62 2541.61 1404.47 Q2543.67 1406.28 2547.21 1406.28 Q2552.08 1406.28 2555 1402.84 Q2557.96 1399.37 2557.96 1393.64 L2557.96 1392.34 L2552.14 1392.34 M2563.82 1389.92 L2563.82 1410.26 L2557.96 1410.26 L2557.96 1404.85 Q2555.96 1408.09 2552.97 1409.65 Q2549.98 1411.18 2545.65 1411.18 Q2540.17 1411.18 2536.93 1408.13 Q2533.71 1405.04 2533.71 1399.88 Q2533.71 1393.87 2537.72 1390.81 Q2541.76 1387.76 2549.75 1387.76 L2557.96 1387.76 L2557.96 1387.18 Q2557.96 1383.14 2555.29 1380.94 Q2552.65 1378.72 2547.84 1378.72 Q2544.79 1378.72 2541.89 1379.45 Q2539 1380.18 2536.32 1381.64 L2536.32 1376.23 Q2539.54 1374.99 2542.56 1374.39 Q2545.58 1373.75 2548.45 1373.75 Q2556.18 1373.75 2560 1377.76 Q2563.82 1381.77 2563.82 1389.92 Z" fill="#000000" fill-rule="nonzero" fill-opacity="1" /><path clip-path="url(#clip340)" d="M2598.61 1375.66 L2598.61 1381.2 Q2596.13 1379.93 2593.45 1379.29 Q2590.78 1378.65 2587.92 1378.65 Q2583.56 1378.65 2581.36 1379.99 Q2579.19 1381.33 2579.19 1384 Q2579.19 1386.04 2580.75 1387.21 Q2582.31 1388.36 2587.02 1389.41 L2589.03 1389.86 Q2595.27 1391.19 2597.88 1393.64 Q2600.52 1396.06 2600.52 1400.42 Q2600.52 1405.39 2596.57 1408.29 Q2592.66 1411.18 2585.78 1411.18 Q2582.92 1411.18 2579.8 1410.61 Q2576.71 1410.07 2573.27 1408.95 L2573.27 1402.91 Q2576.52 1404.59 2579.67 1405.45 Q2582.82 1406.28 2585.91 1406.28 Q2590.05 1406.28 2592.28 1404.88 Q2594.5 1403.45 2594.5 1400.87 Q2594.5 1398.48 2592.88 1397.21 Q2591.29 1395.94 2585.85 1394.76 L2583.81 1394.28 Q2578.37 1393.14 2575.95 1390.78 Q2573.53 1388.39 2573.53 1384.25 Q2573.53 1379.23 2577.09 1376.49 Q2580.66 1373.75 2587.22 1373.75 Q2590.46 1373.75 2593.33 1374.23 Q2596.19 1374.71 2598.61 1375.66 Z" fill="#000000" fill-rule="nonzero" fill-opacity="1" /><path clip-path="url(#clip340)" d="M2632.57 1375.66 L2632.57 1381.2 Q2630.09 1379.93 2627.41 1379.29 Q2624.74 1378.65 2621.88 1378.65 Q2617.52 1378.65 2615.32 1379.99 Q2613.16 1381.33 2613.16 1384 Q2613.16 1386.04 2614.72 1387.21 Q2616.27 1388.36 2620.99 1389.41 L2622.99 1389.86 Q2629.23 1391.19 2631.84 1393.64 Q2634.48 1396.06 2634.48 1400.42 Q2634.48 1405.39 2630.53 1408.29 Q2626.62 1411.18 2619.74 1411.18 Q2616.88 1411.18 2613.76 1410.61 Q2610.67 1410.07 2607.24 1408.95 L2607.24 1402.91 Q2610.48 1404.59 2613.63 1405.45 Q2616.78 1406.28 2619.87 1406.28 Q2624.01 1406.28 2626.24 1404.88 Q2628.47 1403.45 2628.47 1400.87 Q2628.47 1398.48 2626.84 1397.21 Q2625.25 1395.94 2619.81 1394.76 L2617.77 1394.28 Q2612.33 1393.14 2609.91 1390.78 Q2607.49 1388.39 2607.49 1384.25 Q2607.49 1379.23 2611.05 1376.49 Q2614.62 1373.75 2621.18 1373.75 Q2624.42 1373.75 2627.29 1374.23 Q2630.15 1374.71 2632.57 1375.66 Z" fill="#000000" fill-rule="nonzero" fill-opacity="1" /><polyline clip-path="url(#clip340)" style="stroke:#000000; stroke-linecap:round; stroke-linejoin:round; stroke-width:4; stroke-opacity:1; fill:none" points="1811.29,1253.39 1811.29,102.682 "/>
<polyline clip-path="url(#clip340)" style="stroke:#000000; stroke-linecap:round; stroke-linejoin:round; stroke-width:4; stroke-opacity:1; fill:none" points="1811.29,1253.39 1830.19,1253.39 "/>
<polyline clip-path="url(#clip340)" style="stroke:#000000; stroke-linecap:round; stroke-linejoin:round; stroke-width:4; stroke-opacity:1; fill:none" points="1811.29,984.478 1830.19,984.478 "/>
<polyline clip-path="url(#clip340)" style="stroke:#000000; stroke-linecap:round; stroke-linejoin:round; stroke-width:4; stroke-opacity:1; fill:none" points="1811.29,715.561 1830.19,715.561 "/>
<polyline clip-path="url(#clip340)" style="stroke:#000000; stroke-linecap:round; stroke-linejoin:round; stroke-width:4; stroke-opacity:1; fill:none" points="1811.29,446.645 1830.19,446.645 "/>
<polyline clip-path="url(#clip340)" style="stroke:#000000; stroke-linecap:round; stroke-linejoin:round; stroke-width:4; stroke-opacity:1; fill:none" points="1811.29,177.728 1830.19,177.728 "/>
<path clip-path="url(#clip340)" d="M1706.11 1239.19 Q1702.5 1239.19 1700.67 1242.76 Q1698.87 1246.3 1698.87 1253.43 Q1698.87 1260.54 1700.67 1264.1 Q1702.5 1267.64 1706.11 1267.64 Q1709.75 1267.64 1711.55 1264.1 Q1713.38 1260.54 1713.38 1253.43 Q1713.38 1246.3 1711.55 1242.76 Q1709.75 1239.19 1706.11 1239.19 M1706.11 1235.49 Q1711.92 1235.49 1714.98 1240.1 Q1718.06 1244.68 1718.06 1253.43 Q1718.06 1262.16 1714.98 1266.76 Q1711.92 1271.35 1706.11 1271.35 Q1700.3 1271.35 1697.22 1266.76 Q1694.17 1262.16 1694.17 1253.43 Q1694.17 1244.68 1697.22 1240.1 Q1700.3 1235.49 1706.11 1235.49 Z" fill="#000000" fill-rule="nonzero" fill-opacity="1" /><path clip-path="url(#clip340)" d="M1726.27 1264.8 L1731.16 1264.8 L1731.16 1270.67 L1726.27 1270.67 L1726.27 1264.8 Z" fill="#000000" fill-rule="nonzero" fill-opacity="1" /><path clip-path="url(#clip340)" d="M1751.34 1239.19 Q1747.73 1239.19 1745.9 1242.76 Q1744.1 1246.3 1744.1 1253.43 Q1744.1 1260.54 1745.9 1264.1 Q1747.73 1267.64 1751.34 1267.64 Q1754.98 1267.64 1756.78 1264.1 Q1758.61 1260.54 1758.61 1253.43 Q1758.61 1246.3 1756.78 1242.76 Q1754.98 1239.19 1751.34 1239.19 M1751.34 1235.49 Q1757.15 1235.49 1760.21 1240.1 Q1763.29 1244.68 1763.29 1253.43 Q1763.29 1262.16 1760.21 1266.76 Q1757.15 1271.35 1751.34 1271.35 Q1745.53 1271.35 1742.45 1266.76 Q1739.4 1262.16 1739.4 1253.43 Q1739.4 1244.68 1742.45 1240.1 Q1745.53 1235.49 1751.34 1235.49 Z" fill="#000000" fill-rule="nonzero" fill-opacity="1" /><path clip-path="url(#clip340)" d="M1707.11 970.277 Q1703.5 970.277 1701.67 973.842 Q1699.86 977.383 1699.86 984.513 Q1699.86 991.619 1701.67 995.184 Q1703.5 998.726 1707.11 998.726 Q1710.74 998.726 1712.55 995.184 Q1714.38 991.619 1714.38 984.513 Q1714.38 977.383 1712.55 973.842 Q1710.74 970.277 1707.11 970.277 M1707.11 966.573 Q1712.92 966.573 1715.97 971.18 Q1719.05 975.763 1719.05 984.513 Q1719.05 993.24 1715.97 997.846 Q1712.92 1002.43 1707.11 1002.43 Q1701.3 1002.43 1698.22 997.846 Q1695.16 993.24 1695.16 984.513 Q1695.16 975.763 1698.22 971.18 Q1701.3 966.573 1707.11 966.573 Z" fill="#000000" fill-rule="nonzero" fill-opacity="1" /><path clip-path="url(#clip340)" d="M1727.27 995.878 L1732.15 995.878 L1732.15 1001.76 L1727.27 1001.76 L1727.27 995.878 Z" fill="#000000" fill-rule="nonzero" fill-opacity="1" /><path clip-path="url(#clip340)" d="M1742.39 967.198 L1760.74 967.198 L1760.74 971.133 L1746.67 971.133 L1746.67 979.605 Q1747.69 979.258 1748.7 979.096 Q1749.72 978.911 1750.74 978.911 Q1756.53 978.911 1759.91 982.082 Q1763.29 985.254 1763.29 990.67 Q1763.29 996.249 1759.82 999.351 Q1756.34 1002.43 1750.02 1002.43 Q1747.85 1002.43 1745.58 1002.06 Q1743.33 1001.69 1740.93 1000.95 L1740.93 996.249 Q1743.01 997.383 1745.23 997.939 Q1747.45 998.494 1749.93 998.494 Q1753.94 998.494 1756.27 996.388 Q1758.61 994.281 1758.61 990.67 Q1758.61 987.059 1756.27 984.953 Q1753.94 982.846 1749.93 982.846 Q1748.06 982.846 1746.18 983.263 Q1744.33 983.679 1742.39 984.559 L1742.39 967.198 Z" fill="#000000" fill-rule="nonzero" fill-opacity="1" /><path clip-path="url(#clip340)" d="M1696.92 728.906 L1704.56 728.906 L1704.56 702.541 L1696.25 704.207 L1696.25 699.948 L1704.52 698.281 L1709.19 698.281 L1709.19 728.906 L1716.83 728.906 L1716.83 732.841 L1696.92 732.841 L1696.92 728.906 Z" fill="#000000" fill-rule="nonzero" fill-opacity="1" /><path clip-path="url(#clip340)" d="M1726.27 726.962 L1731.16 726.962 L1731.16 732.841 L1726.27 732.841 L1726.27 726.962 Z" fill="#000000" fill-rule="nonzero" fill-opacity="1" /><path clip-path="url(#clip340)" d="M1751.34 701.36 Q1747.73 701.36 1745.9 704.925 Q1744.1 708.466 1744.1 715.596 Q1744.1 722.702 1745.9 726.267 Q1747.73 729.809 1751.34 729.809 Q1754.98 729.809 1756.78 726.267 Q1758.61 722.702 1758.61 715.596 Q1758.61 708.466 1756.78 704.925 Q1754.98 701.36 1751.34 701.36 M1751.34 697.656 Q1757.15 697.656 1760.21 702.263 Q1763.29 706.846 1763.29 715.596 Q1763.29 724.323 1760.21 728.929 Q1757.15 733.513 1751.34 733.513 Q1745.53 733.513 1742.45 728.929 Q1739.4 724.323 1739.4 715.596 Q1739.4 706.846 1742.45 702.263 Q1745.53 697.656 1751.34 697.656 Z" fill="#000000" fill-rule="nonzero" fill-opacity="1" /><path clip-path="url(#clip340)" d="M1697.92 459.989 L1705.56 459.989 L1705.56 433.624 L1697.25 435.29 L1697.25 431.031 L1705.51 429.365 L1710.19 429.365 L1710.19 459.989 L1717.83 459.989 L1717.83 463.925 L1697.92 463.925 L1697.92 459.989 Z" fill="#000000" fill-rule="nonzero" fill-opacity="1" /><path clip-path="url(#clip340)" d="M1727.27 458.045 L1732.15 458.045 L1732.15 463.925 L1727.27 463.925 L1727.27 458.045 Z" fill="#000000" fill-rule="nonzero" fill-opacity="1" /><path clip-path="url(#clip340)" d="M1742.39 429.365 L1760.74 429.365 L1760.74 433.3 L1746.67 433.3 L1746.67 441.772 Q1747.69 441.425 1748.7 441.263 Q1749.72 441.077 1750.74 441.077 Q1756.53 441.077 1759.91 444.249 Q1763.29 447.42 1763.29 452.837 Q1763.29 458.415 1759.82 461.517 Q1756.34 464.596 1750.02 464.596 Q1747.85 464.596 1745.58 464.225 Q1743.33 463.855 1740.93 463.114 L1740.93 458.415 Q1743.01 459.55 1745.23 460.105 Q1747.45 460.661 1749.93 460.661 Q1753.94 460.661 1756.27 458.554 Q1758.61 456.448 1758.61 452.837 Q1758.61 449.226 1756.27 447.119 Q1753.94 445.013 1749.93 445.013 Q1748.06 445.013 1746.18 445.429 Q1744.33 445.846 1742.39 446.726 L1742.39 429.365 Z" fill="#000000" fill-rule="nonzero" fill-opacity="1" /><path clip-path="url(#clip340)" d="M1700.14 191.073 L1716.46 191.073 L1716.46 195.008 L1694.52 195.008 L1694.52 191.073 Q1697.18 188.318 1701.76 183.688 Q1706.37 179.036 1707.55 177.693 Q1709.79 175.17 1710.67 173.434 Q1711.58 171.675 1711.58 169.985 Q1711.58 167.23 1709.63 165.494 Q1707.71 163.758 1704.61 163.758 Q1702.41 163.758 1699.96 164.522 Q1697.52 165.286 1694.75 166.837 L1694.75 162.114 Q1697.57 160.98 1700.02 160.401 Q1702.48 159.823 1704.52 159.823 Q1709.89 159.823 1713.08 162.508 Q1716.27 165.193 1716.27 169.684 Q1716.27 171.813 1715.46 173.735 Q1714.68 175.633 1712.57 178.225 Q1711.99 178.897 1708.89 182.114 Q1705.79 185.309 1700.14 191.073 Z" fill="#000000" fill-rule="nonzero" fill-opacity="1" /><path clip-path="url(#clip340)" d="M1726.27 189.128 L1731.16 189.128 L1731.16 195.008 L1726.27 195.008 L1726.27 189.128 Z" fill="#000000" fill-rule="nonzero" fill-opacity="1" /><path clip-path="url(#clip340)" d="M1751.34 163.526 Q1747.73 163.526 1745.9 167.091 Q1744.1 170.633 1744.1 177.762 Q1744.1 184.869 1745.9 188.434 Q1747.73 191.975 1751.34 191.975 Q1754.98 191.975 1756.78 188.434 Q1758.61 184.869 1758.61 177.762 Q1758.61 170.633 1756.78 167.091 Q1754.98 163.526 1751.34 163.526 M1751.34 159.823 Q1757.15 159.823 1760.21 164.429 Q1763.29 169.013 1763.29 177.762 Q1763.29 186.489 1760.21 191.096 Q1757.15 195.679 1751.34 195.679 Q1745.53 195.679 1742.45 191.096 Q1739.4 186.489 1739.4 177.762 Q1739.4 169.013 1742.45 164.429 Q1745.53 159.823 1751.34 159.823 Z" fill="#000000" fill-rule="nonzero" fill-opacity="1" /><path clip-path="url(#clip340)" d="M1609.63 964.941 Q1610.33 962.872 1612.62 960.93 Q1614.92 958.957 1618.93 956.984 L1631.91 950.459 L1631.91 957.366 L1619.72 963.445 Q1614.95 965.8 1613.39 968.028 Q1611.83 970.224 1611.83 974.044 L1611.83 981.046 L1631.91 981.046 L1631.91 987.475 L1584.39 987.475 L1584.39 972.962 Q1584.39 964.814 1587.8 960.803 Q1591.2 956.793 1598.08 956.793 Q1602.57 956.793 1605.53 958.893 Q1608.49 960.962 1609.63 964.941 M1589.68 981.046 L1606.54 981.046 L1606.54 972.962 Q1606.54 968.315 1604.41 965.959 Q1602.25 963.572 1598.08 963.572 Q1593.91 963.572 1591.81 965.959 Q1589.68 968.315 1589.68 972.962 L1589.68 981.046 Z" fill="#000000" fill-rule="nonzero" fill-opacity="1" /><path clip-path="url(#clip340)" d="M1612.62 914.875 L1615.49 914.875 L1615.49 941.802 Q1621.54 941.42 1624.72 938.173 Q1627.87 934.895 1627.87 929.07 Q1627.87 925.696 1627.04 922.545 Q1626.21 919.362 1624.56 916.243 L1630.1 916.243 Q1631.43 919.394 1632.14 922.704 Q1632.84 926.015 1632.84 929.42 Q1632.84 937.95 1627.87 942.947 Q1622.9 947.913 1614.44 947.913 Q1605.69 947.913 1600.56 943.202 Q1595.4 938.46 1595.4 930.439 Q1595.4 923.246 1600.05 919.076 Q1604.67 914.875 1612.62 914.875 M1610.91 920.731 Q1606.1 920.795 1603.23 923.436 Q1600.37 926.046 1600.37 930.375 Q1600.37 935.277 1603.14 938.237 Q1605.91 941.165 1610.94 941.611 L1610.91 920.731 Z" fill="#000000" fill-rule="nonzero" fill-opacity="1" /><path clip-path="url(#clip340)" d="M1626.57 899.597 L1645.47 899.597 L1645.47 905.485 L1596.26 905.485 L1596.26 899.597 L1601.68 899.597 Q1598.49 897.751 1596.96 894.95 Q1595.4 892.117 1595.4 888.202 Q1595.4 881.709 1600.56 877.667 Q1605.72 873.593 1614.12 873.593 Q1622.52 873.593 1627.68 877.667 Q1632.84 881.709 1632.84 888.202 Q1632.84 892.117 1631.31 894.95 Q1629.75 897.751 1626.57 899.597 M1614.12 879.672 Q1607.66 879.672 1604 882.346 Q1600.31 884.988 1600.31 889.635 Q1600.31 894.282 1604 896.955 Q1607.66 899.597 1614.12 899.597 Q1620.58 899.597 1624.27 896.955 Q1627.93 894.282 1627.93 889.635 Q1627.93 884.988 1624.27 882.346 Q1620.58 879.672 1614.12 879.672 Z" fill="#000000" fill-rule="nonzero" fill-opacity="1" /><path clip-path="url(#clip340)" d="M1601.74 843.229 Q1601.17 844.215 1600.91 845.393 Q1600.62 846.539 1600.62 847.939 Q1600.62 852.904 1603.87 855.578 Q1607.09 858.22 1613.13 858.22 L1631.91 858.22 L1631.91 864.108 L1596.26 864.108 L1596.26 858.22 L1601.8 858.22 Q1598.56 856.374 1597 853.414 Q1595.4 850.454 1595.4 846.22 Q1595.4 845.616 1595.5 844.884 Q1595.56 844.152 1595.72 843.26 L1601.74 843.229 Z" fill="#000000" fill-rule="nonzero" fill-opacity="1" /><path clip-path="url(#clip340)" d="M1600.37 824.704 Q1600.37 829.415 1604.06 832.152 Q1607.72 834.889 1614.12 834.889 Q1620.52 834.889 1624.21 832.184 Q1627.87 829.447 1627.87 824.704 Q1627.87 820.026 1624.18 817.288 Q1620.49 814.551 1614.12 814.551 Q1607.79 814.551 1604.09 817.288 Q1600.37 820.026 1600.37 824.704 M1595.4 824.704 Q1595.4 817.066 1600.37 812.705 Q1605.34 808.344 1614.12 808.344 Q1622.87 808.344 1627.87 812.705 Q1632.84 817.066 1632.84 824.704 Q1632.84 832.375 1627.87 836.736 Q1622.87 841.064 1614.12 841.064 Q1605.34 841.064 1600.37 836.736 Q1595.4 832.375 1595.4 824.704 Z" fill="#000000" fill-rule="nonzero" fill-opacity="1" /><path clip-path="url(#clip340)" d="M1601.68 775.179 L1582.39 775.179 L1582.39 769.323 L1631.91 769.323 L1631.91 775.179 L1626.57 775.179 Q1629.75 777.025 1631.31 779.858 Q1632.84 782.659 1632.84 786.606 Q1632.84 793.067 1627.68 797.141 Q1622.52 801.183 1614.12 801.183 Q1605.72 801.183 1600.56 797.141 Q1595.4 793.067 1595.4 786.606 Q1595.4 782.659 1596.96 779.858 Q1598.49 777.025 1601.68 775.179 M1614.12 795.136 Q1620.58 795.136 1624.27 792.494 Q1627.93 789.82 1627.93 785.173 Q1627.93 780.526 1624.27 777.853 Q1620.58 775.179 1614.12 775.179 Q1607.66 775.179 1604 777.853 Q1600.31 780.526 1600.31 785.173 Q1600.31 789.82 1604 792.494 Q1607.66 795.136 1614.12 795.136 Z" fill="#000000" fill-rule="nonzero" fill-opacity="1" /><path clip-path="url(#clip340)" d="M1617.84 757.864 L1596.26 757.864 L1596.26 752.008 L1617.62 752.008 Q1622.68 752.008 1625.23 750.035 Q1627.74 748.061 1627.74 744.115 Q1627.74 739.372 1624.72 736.635 Q1621.7 733.866 1616.48 733.866 L1596.26 733.866 L1596.26 728.009 L1631.91 728.009 L1631.91 733.866 L1626.44 733.866 Q1629.68 735.998 1631.28 738.831 Q1632.84 741.632 1632.84 745.356 Q1632.84 751.499 1629.02 754.682 Q1625.2 757.864 1617.84 757.864 M1595.4 743.128 L1595.4 743.128 Z" fill="#000000" fill-rule="nonzero" fill-opacity="1" /><path clip-path="url(#clip340)" d="M1597.63 690.292 L1603.11 690.292 Q1601.74 692.775 1601.07 695.29 Q1600.37 697.772 1600.37 700.318 Q1600.37 706.016 1604 709.167 Q1607.6 712.318 1614.12 712.318 Q1620.64 712.318 1624.27 709.167 Q1627.87 706.016 1627.87 700.318 Q1627.87 697.772 1627.2 695.29 Q1626.5 692.775 1625.13 690.292 L1630.54 690.292 Q1631.69 692.743 1632.26 695.385 Q1632.84 697.995 1632.84 700.955 Q1632.84 709.008 1627.77 713.75 Q1622.71 718.493 1614.12 718.493 Q1605.4 718.493 1600.4 713.718 Q1595.4 708.912 1595.4 700.573 Q1595.4 697.868 1595.98 695.29 Q1596.52 692.711 1597.63 690.292 Z" fill="#000000" fill-rule="nonzero" fill-opacity="1" /><path clip-path="url(#clip340)" d="M1586.14 674.315 L1596.26 674.315 L1596.26 662.252 L1600.82 662.252 L1600.82 674.315 L1620.17 674.315 Q1624.53 674.315 1625.77 673.137 Q1627.01 671.927 1627.01 668.267 L1627.01 662.252 L1631.91 662.252 L1631.91 668.267 Q1631.91 675.047 1629.4 677.625 Q1626.85 680.203 1620.17 680.203 L1600.82 680.203 L1600.82 684.5 L1596.26 684.5 L1596.26 680.203 L1586.14 680.203 L1586.14 674.315 Z" fill="#000000" fill-rule="nonzero" fill-opacity="1" /><path clip-path="url(#clip340)" d="M1596.26 654.549 L1596.26 648.693 L1631.91 648.693 L1631.91 654.549 L1596.26 654.549 M1582.39 654.549 L1582.39 648.693 L1589.8 648.693 L1589.8 654.549 L1582.39 654.549 Z" fill="#000000" fill-rule="nonzero" fill-opacity="1" /><path clip-path="url(#clip340)" d="M1596.26 640.64 L1596.26 634.433 L1626.18 623.293 L1596.26 612.153 L1596.26 605.947 L1631.91 619.315 L1631.91 627.272 L1596.26 640.64 Z" fill="#000000" fill-rule="nonzero" fill-opacity="1" /><path clip-path="url(#clip340)" d="M1612.62 567.371 L1615.49 567.371 L1615.49 594.298 Q1621.54 593.916 1624.72 590.669 Q1627.87 587.391 1627.87 581.566 Q1627.87 578.192 1627.04 575.041 Q1626.21 571.858 1624.56 568.739 L1630.1 568.739 Q1631.43 571.89 1632.14 575.2 Q1632.84 578.511 1632.84 581.916 Q1632.84 590.446 1627.87 595.443 Q1622.9 600.409 1614.44 600.409 Q1605.69 600.409 1600.56 595.698 Q1595.4 590.956 1595.4 582.935 Q1595.4 575.742 1600.05 571.572 Q1604.67 567.371 1612.62 567.371 M1610.91 573.227 Q1606.1 573.291 1603.23 575.933 Q1600.37 578.542 1600.37 582.871 Q1600.37 587.773 1603.14 590.733 Q1605.91 593.661 1610.94 594.107 L1610.91 573.227 Z" fill="#000000" fill-rule="nonzero" fill-opacity="1" /><path clip-path="url(#clip340)" d="M1596.26 541.239 L1596.26 535.033 L1626.18 523.893 L1596.26 512.753 L1596.26 506.546 L1631.91 519.914 L1631.91 527.871 L1596.26 541.239 Z" fill="#000000" fill-rule="nonzero" fill-opacity="1" /><path clip-path="url(#clip340)" d="M1613.99 482.261 Q1613.99 489.359 1615.62 492.096 Q1617.24 494.833 1621.15 494.833 Q1624.27 494.833 1626.12 492.796 Q1627.93 490.728 1627.93 487.195 Q1627.93 482.325 1624.5 479.397 Q1621.03 476.437 1615.3 476.437 L1613.99 476.437 L1613.99 482.261 M1611.57 470.58 L1631.91 470.58 L1631.91 476.437 L1626.5 476.437 Q1629.75 478.442 1631.31 481.434 Q1632.84 484.426 1632.84 488.754 Q1632.84 494.229 1629.78 497.475 Q1626.69 500.69 1621.54 500.69 Q1615.52 500.69 1612.46 496.68 Q1609.41 492.637 1609.41 484.648 L1609.41 476.437 L1608.84 476.437 Q1604.79 476.437 1602.6 479.11 Q1600.37 481.752 1600.37 486.558 Q1600.37 489.614 1601.1 492.51 Q1601.83 495.406 1603.3 498.08 L1597.89 498.08 Q1596.65 494.865 1596.04 491.842 Q1595.4 488.818 1595.4 485.953 Q1595.4 478.219 1599.42 474.4 Q1603.43 470.58 1611.57 470.58 Z" fill="#000000" fill-rule="nonzero" fill-opacity="1" /><path clip-path="url(#clip340)" d="M1582.39 458.517 L1582.39 452.661 L1631.91 452.661 L1631.91 458.517 L1582.39 458.517 Z" fill="#000000" fill-rule="nonzero" fill-opacity="1" /><path clip-path="url(#clip340)" d="M1617.84 441.011 L1596.26 441.011 L1596.26 435.155 L1617.62 435.155 Q1622.68 435.155 1625.23 433.182 Q1627.74 431.208 1627.74 427.261 Q1627.74 422.519 1624.72 419.782 Q1621.7 417.013 1616.48 417.013 L1596.26 417.013 L1596.26 411.156 L1631.91 411.156 L1631.91 417.013 L1626.44 417.013 Q1629.68 419.145 1631.28 421.978 Q1632.84 424.779 1632.84 428.503 Q1632.84 434.646 1629.02 437.829 Q1625.2 441.011 1617.84 441.011 M1595.4 426.275 L1595.4 426.275 Z" fill="#000000" fill-rule="nonzero" fill-opacity="1" /><path clip-path="url(#clip340)" d="M1612.62 368.601 L1615.49 368.601 L1615.49 395.528 Q1621.54 395.146 1624.72 391.9 Q1627.87 388.622 1627.87 382.797 Q1627.87 379.423 1627.04 376.272 Q1626.21 373.089 1624.56 369.97 L1630.1 369.97 Q1631.43 373.121 1632.14 376.431 Q1632.84 379.741 1632.84 383.147 Q1632.84 391.677 1627.87 396.674 Q1622.9 401.64 1614.44 401.64 Q1605.69 401.64 1600.56 396.929 Q1595.4 392.186 1595.4 384.166 Q1595.4 376.972 1600.05 372.803 Q1604.67 368.601 1612.62 368.601 M1610.91 374.458 Q1606.1 374.522 1603.23 377.163 Q1600.37 379.773 1600.37 384.102 Q1600.37 389.004 1603.14 391.964 Q1605.91 394.892 1610.94 395.337 L1610.91 374.458 Z" fill="#000000" fill-rule="nonzero" fill-opacity="1" /><path clip-path="url(#clip340)" d="M2116.87 44.2197 Q2119.51 45.1109 2121.98 48.0275 Q2124.49 50.9442 2127 56.0483 L2135.31 72.576 L2126.51 72.576 L2118.78 57.061 Q2115.78 50.9847 2112.94 48.9997 Q2110.15 47.0148 2105.29 47.0148 L2096.38 47.0148 L2096.38 72.576 L2088.19 72.576 L2088.19 12.096 L2106.67 12.096 Q2117.04 12.096 2122.14 16.4305 Q2127.24 20.7649 2127.24 29.5149 Q2127.24 35.2267 2124.57 38.994 Q2121.94 42.7613 2116.87 44.2197 M2096.38 18.8205 L2096.38 40.2903 L2106.67 40.2903 Q2112.58 40.2903 2115.58 37.5762 Q2118.62 34.8216 2118.62 29.5149 Q2118.62 24.2082 2115.58 21.5346 Q2112.58 18.8205 2106.67 18.8205 L2096.38 18.8205 Z" fill="#000000" fill-rule="nonzero" fill-opacity="1" /><path clip-path="url(#clip340)" d="M2180.59 48.0275 L2180.59 51.6733 L2146.32 51.6733 Q2146.81 59.3701 2150.94 63.421 Q2155.11 67.4314 2162.53 67.4314 Q2166.82 67.4314 2170.83 66.3781 Q2174.88 65.3249 2178.85 63.2184 L2178.85 70.267 Q2174.84 71.9684 2170.63 72.8596 Q2166.42 73.7508 2162.08 73.7508 Q2151.23 73.7508 2144.87 67.4314 Q2138.55 61.1119 2138.55 50.3365 Q2138.55 39.1965 2144.54 32.6746 Q2150.58 26.1121 2160.79 26.1121 Q2169.94 26.1121 2175.25 32.0264 Q2180.59 37.9003 2180.59 48.0275 M2173.14 45.84 Q2173.06 39.7232 2169.7 36.0774 Q2166.38 32.4315 2160.87 32.4315 Q2154.63 32.4315 2150.86 35.9558 Q2147.13 39.4801 2146.57 45.8805 L2173.14 45.84 Z" fill="#000000" fill-rule="nonzero" fill-opacity="1" /><path clip-path="url(#clip340)" d="M2200.04 65.7705 L2200.04 89.8329 L2192.54 89.8329 L2192.54 27.2059 L2200.04 27.2059 L2200.04 34.0924 Q2202.39 30.0415 2205.95 28.0971 Q2209.56 26.1121 2214.54 26.1121 Q2222.8 26.1121 2227.95 32.6746 Q2233.13 39.2371 2233.13 49.9314 Q2233.13 60.6258 2227.95 67.1883 Q2222.8 73.7508 2214.54 73.7508 Q2209.56 73.7508 2205.95 71.8063 Q2202.39 69.8214 2200.04 65.7705 M2225.4 49.9314 Q2225.4 41.7081 2221.99 37.0496 Q2218.63 32.3505 2212.72 32.3505 Q2206.8 32.3505 2203.4 37.0496 Q2200.04 41.7081 2200.04 49.9314 Q2200.04 58.1548 2203.4 62.8538 Q2206.8 67.5124 2212.72 67.5124 Q2218.63 67.5124 2221.99 62.8538 Q2225.4 58.1548 2225.4 49.9314 Z" fill="#000000" fill-rule="nonzero" fill-opacity="1" /><path clip-path="url(#clip340)" d="M2271.78 34.1734 Q2270.52 33.4443 2269.03 33.1202 Q2267.57 32.7556 2265.78 32.7556 Q2259.47 32.7556 2256.06 36.8875 Q2252.7 40.9789 2252.7 48.6757 L2252.7 72.576 L2245.21 72.576 L2245.21 27.2059 L2252.7 27.2059 L2252.7 34.2544 Q2255.05 30.1225 2258.82 28.1376 Q2262.58 26.1121 2267.97 26.1121 Q2268.74 26.1121 2269.67 26.2337 Q2270.61 26.3147 2271.74 26.5172 L2271.78 34.1734 Z" fill="#000000" fill-rule="nonzero" fill-opacity="1" /><path clip-path="url(#clip340)" d="M2295.36 32.4315 Q2289.36 32.4315 2285.88 37.1306 Q2282.39 41.7891 2282.39 49.9314 Q2282.39 58.0738 2285.84 62.7728 Q2289.32 67.4314 2295.36 67.4314 Q2301.31 67.4314 2304.79 62.7323 Q2308.28 58.0333 2308.28 49.9314 Q2308.28 41.8701 2304.79 37.1711 Q2301.31 32.4315 2295.36 32.4315 M2295.36 26.1121 Q2305.08 26.1121 2310.63 32.4315 Q2316.18 38.7509 2316.18 49.9314 Q2316.18 61.0714 2310.63 67.4314 Q2305.08 73.7508 2295.36 73.7508 Q2285.59 73.7508 2280.04 67.4314 Q2274.53 61.0714 2274.53 49.9314 Q2274.53 38.7509 2280.04 32.4315 Q2285.59 26.1121 2295.36 26.1121 Z" fill="#000000" fill-rule="nonzero" fill-opacity="1" /><path clip-path="url(#clip340)" d="M2358.39 34.0924 L2358.39 9.54393 L2365.84 9.54393 L2365.84 72.576 L2358.39 72.576 L2358.39 65.7705 Q2356.04 69.8214 2352.43 71.8063 Q2348.87 73.7508 2343.85 73.7508 Q2335.62 73.7508 2330.44 67.1883 Q2325.29 60.6258 2325.29 49.9314 Q2325.29 39.2371 2330.44 32.6746 Q2335.62 26.1121 2343.85 26.1121 Q2348.87 26.1121 2352.43 28.0971 Q2356.04 30.0415 2358.39 34.0924 M2332.99 49.9314 Q2332.99 58.1548 2336.35 62.8538 Q2339.75 67.5124 2345.67 67.5124 Q2351.58 67.5124 2354.99 62.8538 Q2358.39 58.1548 2358.39 49.9314 Q2358.39 41.7081 2354.99 37.0496 Q2351.58 32.3505 2345.67 32.3505 Q2339.75 32.3505 2336.35 37.0496 Q2332.99 41.7081 2332.99 49.9314 Z" fill="#000000" fill-rule="nonzero" fill-opacity="1" /><path clip-path="url(#clip340)" d="M2380.43 54.671 L2380.43 27.2059 L2387.88 27.2059 L2387.88 54.3874 Q2387.88 60.8284 2390.39 64.0691 Q2392.9 67.2693 2397.93 67.2693 Q2403.96 67.2693 2407.44 63.421 Q2410.97 59.5726 2410.97 52.9291 L2410.97 27.2059 L2418.42 27.2059 L2418.42 72.576 L2410.97 72.576 L2410.97 65.6084 Q2408.26 69.7404 2404.65 71.7658 Q2401.08 73.7508 2396.35 73.7508 Q2388.53 73.7508 2384.48 68.8897 Q2380.43 64.0286 2380.43 54.671 M2399.18 26.1121 L2399.18 26.1121 Z" fill="#000000" fill-rule="nonzero" fill-opacity="1" /><path clip-path="url(#clip340)" d="M2466.43 28.9478 L2466.43 35.9153 Q2463.27 34.1734 2460.07 33.3227 Q2456.91 32.4315 2453.67 32.4315 Q2446.41 32.4315 2442.4 37.0496 Q2438.39 41.6271 2438.39 49.9314 Q2438.39 58.2358 2442.4 62.8538 Q2446.41 67.4314 2453.67 67.4314 Q2456.91 67.4314 2460.07 66.5807 Q2463.27 65.6895 2466.43 63.9476 L2466.43 70.8341 Q2463.31 72.2924 2459.94 73.0216 Q2456.62 73.7508 2452.86 73.7508 Q2442.61 73.7508 2436.57 67.3098 Q2430.54 60.8689 2430.54 49.9314 Q2430.54 38.832 2436.61 32.472 Q2442.73 26.1121 2453.34 26.1121 Q2456.78 26.1121 2460.07 26.8413 Q2463.35 27.5299 2466.43 28.9478 Z" fill="#000000" fill-rule="nonzero" fill-opacity="1" /><path clip-path="url(#clip340)" d="M2486.76 14.324 L2486.76 27.2059 L2502.11 27.2059 L2502.11 32.9987 L2486.76 32.9987 L2486.76 57.6282 Q2486.76 63.1779 2488.26 64.7578 Q2489.8 66.3376 2494.46 66.3376 L2502.11 66.3376 L2502.11 72.576 L2494.46 72.576 Q2485.83 72.576 2482.55 69.3758 Q2479.27 66.1351 2479.27 57.6282 L2479.27 32.9987 L2473.8 32.9987 L2473.8 27.2059 L2479.27 27.2059 L2479.27 14.324 L2486.76 14.324 Z" fill="#000000" fill-rule="nonzero" fill-opacity="1" /><path clip-path="url(#clip340)" d="M2511.92 27.2059 L2519.37 27.2059 L2519.37 72.576 L2511.92 72.576 L2511.92 27.2059 M2511.92 9.54393 L2519.37 9.54393 L2519.37 18.9825 L2511.92 18.9825 L2511.92 9.54393 Z" fill="#000000" fill-rule="nonzero" fill-opacity="1" /><path clip-path="url(#clip340)" d="M2529.62 27.2059 L2537.52 27.2059 L2551.7 65.2844 L2565.88 27.2059 L2573.78 27.2059 L2556.76 72.576 L2546.63 72.576 L2529.62 27.2059 Z" fill="#000000" fill-rule="nonzero" fill-opacity="1" /><path clip-path="url(#clip340)" d="M2622.87 48.0275 L2622.87 51.6733 L2588.6 51.6733 Q2589.09 59.3701 2593.22 63.421 Q2597.39 67.4314 2604.8 67.4314 Q2609.1 67.4314 2613.11 66.3781 Q2617.16 65.3249 2621.13 63.2184 L2621.13 70.267 Q2617.12 71.9684 2612.91 72.8596 Q2608.69 73.7508 2604.36 73.7508 Q2593.5 73.7508 2587.14 67.4314 Q2580.82 61.1119 2580.82 50.3365 Q2580.82 39.1965 2586.82 32.6746 Q2592.85 26.1121 2603.06 26.1121 Q2612.22 26.1121 2617.52 32.0264 Q2622.87 37.9003 2622.87 48.0275 M2615.42 45.84 Q2615.34 39.7232 2611.98 36.0774 Q2608.65 32.4315 2603.14 32.4315 Q2596.91 32.4315 2593.14 35.9558 Q2589.41 39.4801 2588.84 45.8805 L2615.42 45.84 Z" fill="#000000" fill-rule="nonzero" fill-opacity="1" /><path clip-path="url(#clip340)" d="M2656.13 27.2059 L2664.03 27.2059 L2678.21 65.2844 L2692.39 27.2059 L2700.28 27.2059 L2683.27 72.576 L2673.14 72.576 L2656.13 27.2059 Z" fill="#000000" fill-rule="nonzero" fill-opacity="1" /><path clip-path="url(#clip340)" d="M2731.19 49.7694 Q2722.16 49.7694 2718.68 51.8354 Q2715.19 53.9013 2715.19 58.8839 Q2715.19 62.8538 2717.78 65.2034 Q2720.42 67.5124 2724.91 67.5124 Q2731.11 67.5124 2734.84 63.1374 Q2738.61 58.7219 2738.61 51.4303 L2738.61 49.7694 L2731.19 49.7694 M2746.06 46.6907 L2746.06 72.576 L2738.61 72.576 L2738.61 65.6895 Q2736.05 69.8214 2732.25 71.8063 Q2728.44 73.7508 2722.93 73.7508 Q2715.96 73.7508 2711.83 69.8619 Q2707.74 65.9325 2707.74 59.3701 Q2707.74 51.7138 2712.84 47.825 Q2717.99 43.9361 2728.15 43.9361 L2738.61 43.9361 L2738.61 43.2069 Q2738.61 38.0623 2735.2 35.2672 Q2731.84 32.4315 2725.72 32.4315 Q2721.84 32.4315 2718.15 33.3632 Q2714.46 34.295 2711.06 36.1584 L2711.06 29.2718 Q2715.15 27.692 2719 26.9223 Q2722.85 26.1121 2726.49 26.1121 Q2736.34 26.1121 2741.2 31.2163 Q2746.06 36.3204 2746.06 46.6907 Z" fill="#000000" fill-rule="nonzero" fill-opacity="1" /><path clip-path="url(#clip340)" d="M2761.41 9.54393 L2768.87 9.54393 L2768.87 72.576 L2761.41 72.576 L2761.41 9.54393 Z" fill="#000000" fill-rule="nonzero" fill-opacity="1" /><path clip-path="url(#clip340)" d="M2783.69 54.671 L2783.69 27.2059 L2791.15 27.2059 L2791.15 54.3874 Q2791.15 60.8284 2793.66 64.0691 Q2796.17 67.2693 2801.19 67.2693 Q2807.23 67.2693 2810.71 63.421 Q2814.24 59.5726 2814.24 52.9291 L2814.24 27.2059 L2821.69 27.2059 L2821.69 72.576 L2814.24 72.576 L2814.24 65.6084 Q2811.52 69.7404 2807.92 71.7658 Q2804.35 73.7508 2799.61 73.7508 Q2791.79 73.7508 2787.74 68.8897 Q2783.69 64.0286 2783.69 54.671 M2802.45 26.1121 L2802.45 26.1121 Z" fill="#000000" fill-rule="nonzero" fill-opacity="1" /><path clip-path="url(#clip340)" d="M2875.85 48.0275 L2875.85 51.6733 L2841.58 51.6733 Q2842.07 59.3701 2846.2 63.421 Q2850.37 67.4314 2857.78 67.4314 Q2862.08 67.4314 2866.09 66.3781 Q2870.14 65.3249 2874.11 63.2184 L2874.11 70.267 Q2870.1 71.9684 2865.89 72.8596 Q2861.67 73.7508 2857.34 73.7508 Q2846.48 73.7508 2840.12 67.4314 Q2833.8 61.1119 2833.8 50.3365 Q2833.8 39.1965 2839.8 32.6746 Q2845.83 26.1121 2856.04 26.1121 Q2865.2 26.1121 2870.5 32.0264 Q2875.85 37.9003 2875.85 48.0275 M2868.4 45.84 Q2868.32 39.7232 2864.95 36.0774 Q2861.63 32.4315 2856.12 32.4315 Q2849.88 32.4315 2846.12 35.9558 Q2842.39 39.4801 2841.82 45.8805 L2868.4 45.84 Z" fill="#000000" fill-rule="nonzero" fill-opacity="1" /><path clip-path="url(#clip341)" d="M1885.07 1060.67 L1885.07 1253.39 L1949.61 1253.39 L1949.61 1060.67 L1885.07 1060.67 L1885.07 1060.67  Z" fill="#cd5c5c" fill-rule="evenodd" fill-opacity="0.7"/>
<polyline clip-path="url(#clip341)" style="stroke:#000000; stroke-linecap:round; stroke-linejoin:round; stroke-width:4; stroke-opacity:0.7; fill:none" points="1885.07,1060.67 1885.07,1253.39 1949.61,1253.39 1949.61,1060.67 1885.07,1060.67 "/>
<path clip-path="url(#clip341)" d="M1965.74 734.82 L1965.74 1253.39 L2030.28 1253.39 L2030.28 734.82 L1965.74 734.82 L1965.74 734.82  Z" fill="#cd5c5c" fill-rule="evenodd" fill-opacity="0.7"/>
<polyline clip-path="url(#clip341)" style="stroke:#000000; stroke-linecap:round; stroke-linejoin:round; stroke-width:4; stroke-opacity:0.7; fill:none" points="1965.74,734.82 1965.74,1253.39 2030.28,1253.39 2030.28,734.82 1965.74,734.82 "/>
<path clip-path="url(#clip341)" d="M2046.41 323.175 L2046.41 1253.39 L2110.94 1253.39 L2110.94 323.175 L2046.41 323.175 L2046.41 323.175  Z" fill="#cd5c5c" fill-rule="evenodd" fill-opacity="0.7"/>
<polyline clip-path="url(#clip341)" style="stroke:#000000; stroke-linecap:round; stroke-linejoin:round; stroke-width:4; stroke-opacity:0.7; fill:none" points="2046.41,323.175 2046.41,1253.39 2110.94,1253.39 2110.94,323.175 2046.41,323.175 "/>
<path clip-path="url(#clip341)" d="M2127.08 176.235 L2127.08 1253.39 L2191.61 1253.39 L2191.61 176.235 L2127.08 176.235 L2127.08 176.235  Z" fill="#cd5c5c" fill-rule="evenodd" fill-opacity="0.7"/>
<polyline clip-path="url(#clip341)" style="stroke:#000000; stroke-linecap:round; stroke-linejoin:round; stroke-width:4; stroke-opacity:0.7; fill:none" points="2127.08,176.235 2127.08,1253.39 2191.61,1253.39 2191.61,176.235 2127.08,176.235 "/>
<path clip-path="url(#clip341)" d="M2207.75 102.682 L2207.75 1253.39 L2272.28 1253.39 L2272.28 102.682 L2207.75 102.682 L2207.75 102.682  Z" fill="#cd5c5c" fill-rule="evenodd" fill-opacity="0.7"/>
<polyline clip-path="url(#clip341)" style="stroke:#000000; stroke-linecap:round; stroke-linejoin:round; stroke-width:4; stroke-opacity:0.7; fill:none" points="2207.75,102.682 2207.75,1253.39 2272.28,1253.39 2272.28,102.682 2207.75,102.682 "/>
<path clip-path="url(#clip341)" d="M2288.42 123.159 L2288.42 1253.39 L2352.95 1253.39 L2352.95 123.159 L2288.42 123.159 L2288.42 123.159  Z" fill="#cd5c5c" fill-rule="evenodd" fill-opacity="0.7"/>
<polyline clip-path="url(#clip341)" style="stroke:#000000; stroke-linecap:round; stroke-linejoin:round; stroke-width:4; stroke-opacity:0.7; fill:none" points="2288.42,123.159 2288.42,1253.39 2352.95,1253.39 2352.95,123.159 2288.42,123.159 "/>
<path clip-path="url(#clip341)" d="M2369.09 218.227 L2369.09 1253.39 L2433.62 1253.39 L2433.62 218.227 L2369.09 218.227 L2369.09 218.227  Z" fill="#cd5c5c" fill-rule="evenodd" fill-opacity="0.7"/>
<polyline clip-path="url(#clip341)" style="stroke:#000000; stroke-linecap:round; stroke-linejoin:round; stroke-width:4; stroke-opacity:0.7; fill:none" points="2369.09,218.227 2369.09,1253.39 2433.62,1253.39 2433.62,218.227 2369.09,218.227 "/>
<path clip-path="url(#clip341)" d="M2449.75 340.036 L2449.75 1253.39 L2514.29 1253.39 L2514.29 340.036 L2449.75 340.036 L2449.75 340.036  Z" fill="#cd5c5c" fill-rule="evenodd" fill-opacity="0.7"/>
<polyline clip-path="url(#clip341)" style="stroke:#000000; stroke-linecap:round; stroke-linejoin:round; stroke-width:4; stroke-opacity:0.7; fill:none" points="2449.75,340.036 2449.75,1253.39 2514.29,1253.39 2514.29,340.036 2449.75,340.036 "/>
<path clip-path="url(#clip341)" d="M2530.42 496.109 L2530.42 1253.39 L2594.96 1253.39 L2594.96 496.109 L2530.42 496.109 L2530.42 496.109  Z" fill="#cd5c5c" fill-rule="evenodd" fill-opacity="0.7"/>
<polyline clip-path="url(#clip341)" style="stroke:#000000; stroke-linecap:round; stroke-linejoin:round; stroke-width:4; stroke-opacity:0.7; fill:none" points="2530.42,496.109 2530.42,1253.39 2594.96,1253.39 2594.96,496.109 2530.42,496.109 "/>
<path clip-path="url(#clip341)" d="M2611.09 696.082 L2611.09 1253.39 L2675.63 1253.39 L2675.63 696.082 L2611.09 696.082 L2611.09 696.082  Z" fill="#cd5c5c" fill-rule="evenodd" fill-opacity="0.7"/>
<polyline clip-path="url(#clip341)" style="stroke:#000000; stroke-linecap:round; stroke-linejoin:round; stroke-width:4; stroke-opacity:0.7; fill:none" points="2611.09,696.082 2611.09,1253.39 2675.63,1253.39 2675.63,696.082 2611.09,696.082 "/>
<path clip-path="url(#clip341)" d="M2691.76 874.453 L2691.76 1253.39 L2756.3 1253.39 L2756.3 874.453 L2691.76 874.453 L2691.76 874.453  Z" fill="#cd5c5c" fill-rule="evenodd" fill-opacity="0.7"/>
<polyline clip-path="url(#clip341)" style="stroke:#000000; stroke-linecap:round; stroke-linejoin:round; stroke-width:4; stroke-opacity:0.7; fill:none" points="2691.76,874.453 2691.76,1253.39 2756.3,1253.39 2756.3,874.453 2691.76,874.453 "/>
<path clip-path="url(#clip341)" d="M2772.43 1032.68 L2772.43 1253.39 L2836.97 1253.39 L2836.97 1032.68 L2772.43 1032.68 L2772.43 1032.68  Z" fill="#cd5c5c" fill-rule="evenodd" fill-opacity="0.7"/>
<polyline clip-path="url(#clip341)" style="stroke:#000000; stroke-linecap:round; stroke-linejoin:round; stroke-width:4; stroke-opacity:0.7; fill:none" points="2772.43,1032.68 2772.43,1253.39 2836.97,1253.39 2836.97,1032.68 2772.43,1032.68 "/>
<path clip-path="url(#clip341)" d="M2853.1 1142.23 L2853.1 1253.39 L2917.63 1253.39 L2917.63 1142.23 L2853.1 1142.23 L2853.1 1142.23  Z" fill="#cd5c5c" fill-rule="evenodd" fill-opacity="0.7"/>
<polyline clip-path="url(#clip341)" style="stroke:#000000; stroke-linecap:round; stroke-linejoin:round; stroke-width:4; stroke-opacity:0.7; fill:none" points="2853.1,1142.23 2853.1,1253.39 2917.63,1253.39 2917.63,1142.23 2853.1,1142.23 "/>
<path clip-path="url(#clip341)" d="M2933.77 1217.58 L2933.77 1253.39 L2998.3 1253.39 L2998.3 1217.58 L2933.77 1217.58 L2933.77 1217.58  Z" fill="#cd5c5c" fill-rule="evenodd" fill-opacity="0.7"/>
<polyline clip-path="url(#clip341)" style="stroke:#000000; stroke-linecap:round; stroke-linejoin:round; stroke-width:4; stroke-opacity:0.7; fill:none" points="2933.77,1217.58 2933.77,1253.39 2998.3,1253.39 2998.3,1217.58 2933.77,1217.58 "/>
<path clip-path="url(#clip341)" d="M3014.44 1253.39 L3014.44 1253.39 L3078.97 1253.39 L3078.97 1253.39 L3014.44 1253.39 L3014.44 1253.39  Z" fill="#cd5c5c" fill-rule="evenodd" fill-opacity="0.7"/>
<polyline clip-path="url(#clip341)" style="stroke:#000000; stroke-linecap:round; stroke-linejoin:round; stroke-width:4; stroke-opacity:0.7; fill:none" points="3014.44,1253.39 3014.44,1253.39 3078.97,1253.39 3014.44,1253.39 "/>
<circle clip-path="url(#clip341)" style="fill:#cd5c5c; stroke:none; fill-opacity:0" cx="1917.34" cy="1060.67" r="2"/>
<circle clip-path="url(#clip341)" style="fill:#cd5c5c; stroke:none; fill-opacity:0" cx="1998.01" cy="734.82" r="2"/>
<circle clip-path="url(#clip341)" style="fill:#cd5c5c; stroke:none; fill-opacity:0" cx="2078.68" cy="323.175" r="2"/>
<circle clip-path="url(#clip341)" style="fill:#cd5c5c; stroke:none; fill-opacity:0" cx="2159.35" cy="176.235" r="2"/>
<circle clip-path="url(#clip341)" style="fill:#cd5c5c; stroke:none; fill-opacity:0" cx="2240.02" cy="102.682" r="2"/>
<circle clip-path="url(#clip341)" style="fill:#cd5c5c; stroke:none; fill-opacity:0" cx="2320.68" cy="123.159" r="2"/>
<circle clip-path="url(#clip341)" style="fill:#cd5c5c; stroke:none; fill-opacity:0" cx="2401.35" cy="218.227" r="2"/>
<circle clip-path="url(#clip341)" style="fill:#cd5c5c; stroke:none; fill-opacity:0" cx="2482.02" cy="340.036" r="2"/>
<circle clip-path="url(#clip341)" style="fill:#cd5c5c; stroke:none; fill-opacity:0" cx="2562.69" cy="496.109" r="2"/>
<circle clip-path="url(#clip341)" style="fill:#cd5c5c; stroke:none; fill-opacity:0" cx="2643.36" cy="696.082" r="2"/>
<circle clip-path="url(#clip341)" style="fill:#cd5c5c; stroke:none; fill-opacity:0" cx="2724.03" cy="874.453" r="2"/>
<circle clip-path="url(#clip341)" style="fill:#cd5c5c; stroke:none; fill-opacity:0" cx="2804.7" cy="1032.68" r="2"/>
<circle clip-path="url(#clip341)" style="fill:#cd5c5c; stroke:none; fill-opacity:0" cx="2885.37" cy="1142.23" r="2"/>
<circle clip-path="url(#clip341)" style="fill:#cd5c5c; stroke:none; fill-opacity:0" cx="2966.04" cy="1217.58" r="2"/>
<circle clip-path="url(#clip341)" style="fill:#cd5c5c; stroke:none; fill-opacity:0" cx="3046.71" cy="1253.39" r="2"/>
</svg>
