<?xml version="1.0" encoding="utf-8"?>
<svg xmlns="http://www.w3.org/2000/svg" xmlns:xlink="http://www.w3.org/1999/xlink" width="672" height="480" viewBox="0 0 2688 1920">
<defs>
  <clipPath id="clip250">
    <rect x="0" y="0" width="2688" height="1920"/>
  </clipPath>
</defs>
<path clip-path="url(#clip250)" d="M0 1920 L2688 1920 L2688 -4.26326e-14 L0 -4.26326e-14  Z" fill="#ffffff" fill-rule="evenodd" fill-opacity="1"/>
<defs>
  <clipPath id="clip251">
    <rect x="181" y="127" width="2460" height="1607"/>
  </clipPath>
</defs>
<path clip-path="url(#clip250)" d="M181.719 1734.12 L2640.76 1734.12 L2640.76 127.792 L181.719 127.792  Z" fill="#ffffff" fill-rule="evenodd" fill-opacity="1"/>
<polyline clip-path="url(#clip251)" style="stroke:#000000; stroke-linecap:round; stroke-linejoin:round; stroke-width:2; stroke-opacity:0.1; fill:none" points="251.315,1734.12 251.315,127.792 "/>
<polyline clip-path="url(#clip251)" style="stroke:#000000; stroke-linecap:round; stroke-linejoin:round; stroke-width:2; stroke-opacity:0.1; fill:none" points="831.276,1734.12 831.276,127.792 "/>
<polyline clip-path="url(#clip251)" style="stroke:#000000; stroke-linecap:round; stroke-linejoin:round; stroke-width:2; stroke-opacity:0.1; fill:none" points="1411.24,1734.12 1411.24,127.792 "/>
<polyline clip-path="url(#clip251)" style="stroke:#000000; stroke-linecap:round; stroke-linejoin:round; stroke-width:2; stroke-opacity:0.1; fill:none" points="1991.2,1734.12 1991.2,127.792 "/>
<polyline clip-path="url(#clip251)" style="stroke:#000000; stroke-linecap:round; stroke-linejoin:round; stroke-width:2; stroke-opacity:0.1; fill:none" points="2571.16,1734.12 2571.16,127.792 "/>
<polyline clip-path="url(#clip251)" style="stroke:#000000; stroke-linecap:round; stroke-linejoin:round; stroke-width:2; stroke-opacity:0.1; fill:none" points="181.719,1688.65 2640.76,1688.65 "/>
<polyline clip-path="url(#clip251)" style="stroke:#000000; stroke-linecap:round; stroke-linejoin:round; stroke-width:2; stroke-opacity:0.1; fill:none" points="181.719,1385.57 2640.76,1385.57 "/>
<polyline clip-path="url(#clip251)" style="stroke:#000000; stroke-linecap:round; stroke-linejoin:round; stroke-width:2; stroke-opacity:0.1; fill:none" points="181.719,1082.49 2640.76,1082.49 "/>
<polyline clip-path="url(#clip251)" style="stroke:#000000; stroke-linecap:round; stroke-linejoin:round; stroke-width:2; stroke-opacity:0.1; fill:none" points="181.719,779.414 2640.76,779.414 "/>
<polyline clip-path="url(#clip251)" style="stroke:#000000; stroke-linecap:round; stroke-linejoin:round; stroke-width:2; stroke-opacity:0.1; fill:none" points="181.719,476.334 2640.76,476.334 "/>
<polyline clip-path="url(#clip251)" style="stroke:#000000; stroke-linecap:round; stroke-linejoin:round; stroke-width:2; stroke-opacity:0.1; fill:none" points="181.719,173.254 2640.76,173.254 "/>
<polyline clip-path="url(#clip250)" style="stroke:#000000; stroke-linecap:round; stroke-linejoin:round; stroke-width:4; stroke-opacity:1; fill:none" points="181.719,1734.12 2640.76,1734.12 "/>
<polyline clip-path="url(#clip250)" style="stroke:#000000; stroke-linecap:round; stroke-linejoin:round; stroke-width:4; stroke-opacity:1; fill:none" points="251.315,1734.12 251.315,1715.22 "/>
<polyline clip-path="url(#clip250)" style="stroke:#000000; stroke-linecap:round; stroke-linejoin:round; stroke-width:4; stroke-opacity:1; fill:none" points="831.276,1734.12 831.276,1715.22 "/>
<polyline clip-path="url(#clip250)" style="stroke:#000000; stroke-linecap:round; stroke-linejoin:round; stroke-width:4; stroke-opacity:1; fill:none" points="1411.24,1734.12 1411.24,1715.22 "/>
<polyline clip-path="url(#clip250)" style="stroke:#000000; stroke-linecap:round; stroke-linejoin:round; stroke-width:4; stroke-opacity:1; fill:none" points="1991.2,1734.12 1991.2,1715.22 "/>
<polyline clip-path="url(#clip250)" style="stroke:#000000; stroke-linecap:round; stroke-linejoin:round; stroke-width:4; stroke-opacity:1; fill:none" points="2571.16,1734.12 2571.16,1715.22 "/>
<path clip-path="url(#clip250)" d="M251.315 1767.34 Q247.704 1767.34 245.875 1770.9 Q244.07 1774.45 244.07 1781.58 Q244.07 1788.68 245.875 1792.25 Q247.704 1795.79 251.315 1795.79 Q254.949 1795.79 256.755 1792.25 Q258.583 1788.68 258.583 1781.58 Q258.583 1774.45 256.755 1770.9 Q254.949 1767.34 251.315 1767.34 M251.315 1763.64 Q257.125 1763.64 260.181 1768.24 Q263.259 1772.83 263.259 1781.58 Q263.259 1790.3 260.181 1794.91 Q257.125 1799.49 251.315 1799.49 Q245.505 1799.49 242.426 1794.91 Q239.37 1790.3 239.37 1781.58 Q239.37 1772.83 242.426 1768.24 Q245.505 1763.64 251.315 1763.64 Z" fill="#000000" fill-rule="nonzero" fill-opacity="1" /><path clip-path="url(#clip250)" d="M805.964 1794.89 L813.603 1794.89 L813.603 1768.52 L805.293 1770.19 L805.293 1765.93 L813.556 1764.26 L818.232 1764.26 L818.232 1794.89 L825.871 1794.89 L825.871 1798.82 L805.964 1798.82 L805.964 1794.89 Z" fill="#000000" fill-rule="nonzero" fill-opacity="1" /><path clip-path="url(#clip250)" d="M845.316 1767.34 Q841.704 1767.34 839.876 1770.9 Q838.07 1774.45 838.07 1781.58 Q838.07 1788.68 839.876 1792.25 Q841.704 1795.79 845.316 1795.79 Q848.95 1795.79 850.755 1792.25 Q852.584 1788.68 852.584 1781.58 Q852.584 1774.45 850.755 1770.9 Q848.95 1767.34 845.316 1767.34 M845.316 1763.64 Q851.126 1763.64 854.181 1768.24 Q857.26 1772.83 857.26 1781.58 Q857.26 1790.3 854.181 1794.91 Q851.126 1799.49 845.316 1799.49 Q839.505 1799.49 836.427 1794.91 Q833.371 1790.3 833.371 1781.58 Q833.371 1772.83 836.427 1768.24 Q839.505 1763.64 845.316 1763.64 Z" fill="#000000" fill-rule="nonzero" fill-opacity="1" /><path clip-path="url(#clip250)" d="M1390.01 1794.89 L1406.33 1794.89 L1406.33 1798.82 L1384.39 1798.82 L1384.39 1794.89 Q1387.05 1792.13 1391.63 1787.5 Q1396.24 1782.85 1397.42 1781.51 Q1399.66 1778.98 1400.54 1777.25 Q1401.45 1775.49 1401.45 1773.8 Q1401.45 1771.04 1399.5 1769.31 Q1397.58 1767.57 1394.48 1767.57 Q1392.28 1767.57 1389.83 1768.34 Q1387.4 1769.1 1384.62 1770.65 L1384.62 1765.93 Q1387.44 1764.79 1389.9 1764.21 Q1392.35 1763.64 1394.39 1763.64 Q1399.76 1763.64 1402.95 1766.32 Q1406.15 1769.01 1406.15 1773.5 Q1406.15 1775.63 1405.33 1777.55 Q1404.55 1779.45 1402.44 1782.04 Q1401.86 1782.71 1398.76 1785.93 Q1395.66 1789.12 1390.01 1794.89 Z" fill="#000000" fill-rule="nonzero" fill-opacity="1" /><path clip-path="url(#clip250)" d="M1426.15 1767.34 Q1422.53 1767.34 1420.71 1770.9 Q1418.9 1774.45 1418.9 1781.58 Q1418.9 1788.68 1420.71 1792.25 Q1422.53 1795.79 1426.15 1795.79 Q1429.78 1795.79 1431.58 1792.25 Q1433.41 1788.68 1433.41 1781.58 Q1433.41 1774.45 1431.58 1770.9 Q1429.78 1767.34 1426.15 1767.34 M1426.15 1763.64 Q1431.96 1763.64 1435.01 1768.24 Q1438.09 1772.83 1438.09 1781.58 Q1438.09 1790.3 1435.01 1794.91 Q1431.96 1799.49 1426.15 1799.49 Q1420.33 1799.49 1417.26 1794.91 Q1414.2 1790.3 1414.2 1781.58 Q1414.2 1772.83 1417.26 1768.24 Q1420.33 1763.64 1426.15 1763.64 Z" fill="#000000" fill-rule="nonzero" fill-opacity="1" /><path clip-path="url(#clip250)" d="M1980.04 1780.19 Q1983.4 1780.9 1985.27 1783.17 Q1987.17 1785.44 1987.17 1788.77 Q1987.17 1793.89 1983.65 1796.69 Q1980.13 1799.49 1973.65 1799.49 Q1971.48 1799.49 1969.16 1799.05 Q1966.87 1798.64 1964.42 1797.78 L1964.42 1793.27 Q1966.36 1794.4 1968.68 1794.98 Q1970.99 1795.56 1973.51 1795.56 Q1977.91 1795.56 1980.2 1793.82 Q1982.52 1792.08 1982.52 1788.77 Q1982.52 1785.72 1980.37 1784.01 Q1978.24 1782.27 1974.42 1782.27 L1970.39 1782.27 L1970.39 1778.43 L1974.6 1778.43 Q1978.05 1778.43 1979.88 1777.06 Q1981.71 1775.67 1981.71 1773.08 Q1981.71 1770.42 1979.81 1769.01 Q1977.94 1767.57 1974.42 1767.57 Q1972.5 1767.57 1970.3 1767.99 Q1968.1 1768.4 1965.46 1769.28 L1965.46 1765.12 Q1968.12 1764.38 1970.44 1764.01 Q1972.77 1763.64 1974.83 1763.64 Q1980.16 1763.64 1983.26 1766.07 Q1986.36 1768.47 1986.36 1772.59 Q1986.36 1775.46 1984.72 1777.46 Q1983.07 1779.42 1980.04 1780.19 Z" fill="#000000" fill-rule="nonzero" fill-opacity="1" /><path clip-path="url(#clip250)" d="M2006.04 1767.34 Q2002.43 1767.34 2000.6 1770.9 Q1998.79 1774.45 1998.79 1781.58 Q1998.79 1788.68 2000.6 1792.25 Q2002.43 1795.79 2006.04 1795.79 Q2009.67 1795.79 2011.48 1792.25 Q2013.31 1788.68 2013.31 1781.58 Q2013.31 1774.45 2011.48 1770.9 Q2009.67 1767.34 2006.04 1767.34 M2006.04 1763.64 Q2011.85 1763.64 2014.9 1768.24 Q2017.98 1772.83 2017.98 1781.58 Q2017.98 1790.3 2014.9 1794.91 Q2011.85 1799.49 2006.04 1799.49 Q2000.23 1799.49 1997.15 1794.91 Q1994.09 1790.3 1994.09 1781.58 Q1994.09 1772.83 1997.15 1768.24 Q2000.23 1763.64 2006.04 1763.64 Z" fill="#000000" fill-rule="nonzero" fill-opacity="1" /><path clip-path="url(#clip250)" d="M2559.33 1768.34 L2547.53 1786.78 L2559.33 1786.78 L2559.33 1768.34 M2558.11 1764.26 L2563.98 1764.26 L2563.98 1786.78 L2568.92 1786.78 L2568.92 1790.67 L2563.98 1790.67 L2563.98 1798.82 L2559.33 1798.82 L2559.33 1790.67 L2543.73 1790.67 L2543.73 1786.16 L2558.11 1764.26 Z" fill="#000000" fill-rule="nonzero" fill-opacity="1" /><path clip-path="url(#clip250)" d="M2586.65 1767.34 Q2583.04 1767.34 2581.21 1770.9 Q2579.4 1774.45 2579.4 1781.58 Q2579.4 1788.68 2581.21 1792.25 Q2583.04 1795.79 2586.65 1795.79 Q2590.28 1795.79 2592.09 1792.25 Q2593.92 1788.68 2593.92 1781.58 Q2593.92 1774.45 2592.09 1770.9 Q2590.28 1767.34 2586.65 1767.34 M2586.65 1763.64 Q2592.46 1763.64 2595.51 1768.24 Q2598.59 1772.83 2598.59 1781.58 Q2598.59 1790.3 2595.51 1794.91 Q2592.46 1799.49 2586.65 1799.49 Q2580.84 1799.49 2577.76 1794.91 Q2574.7 1790.3 2574.7 1781.58 Q2574.7 1772.83 2577.76 1768.24 Q2580.84 1763.64 2586.65 1763.64 Z" fill="#000000" fill-rule="nonzero" fill-opacity="1" /><path clip-path="url(#clip250)" d="M1371.96 1842.11 L1363.24 1865.76 L1380.71 1865.76 L1371.96 1842.11 M1368.33 1835.78 L1375.62 1835.78 L1393.73 1883.3 L1387.05 1883.3 L1382.72 1871.11 L1361.3 1871.11 L1356.97 1883.3 L1350.19 1883.3 L1368.33 1835.78 Z" fill="#000000" fill-rule="nonzero" fill-opacity="1" /><path clip-path="url(#clip250)" d="M1423.87 1865.06 Q1423.87 1858.7 1421.23 1855.2 Q1418.62 1851.7 1413.88 1851.7 Q1409.17 1851.7 1406.53 1855.2 Q1403.92 1858.7 1403.92 1865.06 Q1403.92 1871.4 1406.53 1874.9 Q1409.17 1878.4 1413.88 1878.4 Q1418.62 1878.4 1421.23 1874.9 Q1423.87 1871.4 1423.87 1865.06 M1429.73 1878.88 Q1429.73 1887.98 1425.69 1892.4 Q1421.65 1896.86 1413.31 1896.86 Q1410.22 1896.86 1407.48 1896.38 Q1404.74 1895.94 1402.17 1894.98 L1402.17 1889.28 Q1404.74 1890.69 1407.26 1891.35 Q1409.77 1892.02 1412.38 1892.02 Q1418.14 1892.02 1421.01 1889 Q1423.87 1886.01 1423.87 1879.93 L1423.87 1877.03 Q1422.06 1880.18 1419.23 1881.74 Q1416.39 1883.3 1412.45 1883.3 Q1405.89 1883.3 1401.88 1878.3 Q1397.87 1873.31 1397.87 1865.06 Q1397.87 1856.79 1401.88 1851.79 Q1405.89 1846.79 1412.45 1846.79 Q1416.39 1846.79 1419.23 1848.35 Q1422.06 1849.91 1423.87 1853.06 L1423.87 1847.65 L1429.73 1847.65 L1429.73 1878.88 Z" fill="#000000" fill-rule="nonzero" fill-opacity="1" /><path clip-path="url(#clip250)" d="M1472.28 1864.01 L1472.28 1866.88 L1445.36 1866.88 Q1445.74 1872.92 1448.99 1876.11 Q1452.26 1879.26 1458.09 1879.26 Q1461.46 1879.26 1464.61 1878.43 Q1467.8 1877.6 1470.92 1875.95 L1470.92 1881.49 Q1467.77 1882.82 1464.46 1883.52 Q1461.14 1884.22 1457.74 1884.22 Q1449.21 1884.22 1444.21 1879.26 Q1439.25 1874.29 1439.25 1865.83 Q1439.25 1857.07 1443.96 1851.95 Q1448.7 1846.79 1456.72 1846.79 Q1463.91 1846.79 1468.08 1851.44 Q1472.28 1856.06 1472.28 1864.01 M1466.43 1862.29 Q1466.36 1857.49 1463.72 1854.62 Q1461.11 1851.76 1456.78 1851.76 Q1451.88 1851.76 1448.92 1854.53 Q1445.99 1857.3 1445.55 1862.33 L1466.43 1862.29 Z" fill="#000000" fill-rule="nonzero" fill-opacity="1" /><polyline clip-path="url(#clip250)" style="stroke:#000000; stroke-linecap:round; stroke-linejoin:round; stroke-width:4; stroke-opacity:1; fill:none" points="181.719,1734.12 181.719,127.792 "/>
<polyline clip-path="url(#clip250)" style="stroke:#000000; stroke-linecap:round; stroke-linejoin:round; stroke-width:4; stroke-opacity:1; fill:none" points="181.719,1688.65 200.617,1688.65 "/>
<polyline clip-path="url(#clip250)" style="stroke:#000000; stroke-linecap:round; stroke-linejoin:round; stroke-width:4; stroke-opacity:1; fill:none" points="181.719,1385.57 200.617,1385.57 "/>
<polyline clip-path="url(#clip250)" style="stroke:#000000; stroke-linecap:round; stroke-linejoin:round; stroke-width:4; stroke-opacity:1; fill:none" points="181.719,1082.49 200.617,1082.49 "/>
<polyline clip-path="url(#clip250)" style="stroke:#000000; stroke-linecap:round; stroke-linejoin:round; stroke-width:4; stroke-opacity:1; fill:none" points="181.719,779.414 200.617,779.414 "/>
<polyline clip-path="url(#clip250)" style="stroke:#000000; stroke-linecap:round; stroke-linejoin:round; stroke-width:4; stroke-opacity:1; fill:none" points="181.719,476.334 200.617,476.334 "/>
<polyline clip-path="url(#clip250)" style="stroke:#000000; stroke-linecap:round; stroke-linejoin:round; stroke-width:4; stroke-opacity:1; fill:none" points="181.719,173.254 200.617,173.254 "/>
<path clip-path="url(#clip250)" d="M129.455 1674.45 Q125.844 1674.45 124.015 1678.02 Q122.21 1681.56 122.21 1688.69 Q122.21 1695.8 124.015 1699.36 Q125.844 1702.9 129.455 1702.9 Q133.089 1702.9 134.895 1699.36 Q136.724 1695.8 136.724 1688.69 Q136.724 1681.56 134.895 1678.02 Q133.089 1674.45 129.455 1674.45 M129.455 1670.75 Q135.265 1670.75 138.321 1675.36 Q141.399 1679.94 141.399 1688.69 Q141.399 1697.42 138.321 1702.02 Q135.265 1706.61 129.455 1706.61 Q123.645 1706.61 120.566 1702.02 Q117.511 1697.42 117.511 1688.69 Q117.511 1679.94 120.566 1675.36 Q123.645 1670.75 129.455 1670.75 Z" fill="#000000" fill-rule="nonzero" fill-opacity="1" /><path clip-path="url(#clip250)" d="M121.492 1398.92 L129.131 1398.92 L129.131 1372.55 L120.821 1374.22 L120.821 1369.96 L129.085 1368.29 L133.761 1368.29 L133.761 1398.92 L141.399 1398.92 L141.399 1402.85 L121.492 1402.85 L121.492 1398.92 Z" fill="#000000" fill-rule="nonzero" fill-opacity="1" /><path clip-path="url(#clip250)" d="M125.08 1095.84 L141.399 1095.84 L141.399 1099.77 L119.455 1099.77 L119.455 1095.84 Q122.117 1093.08 126.7 1088.46 Q131.307 1083.8 132.488 1082.46 Q134.733 1079.94 135.612 1078.2 Q136.515 1076.44 136.515 1074.75 Q136.515 1072 134.571 1070.26 Q132.65 1068.52 129.548 1068.52 Q127.349 1068.52 124.895 1069.29 Q122.464 1070.05 119.687 1071.6 L119.687 1066.88 Q122.511 1065.75 124.964 1065.17 Q127.418 1064.59 129.455 1064.59 Q134.825 1064.59 138.02 1067.27 Q141.214 1069.96 141.214 1074.45 Q141.214 1076.58 140.404 1078.5 Q139.617 1080.4 137.511 1082.99 Q136.932 1083.66 133.83 1086.88 Q130.728 1090.08 125.08 1095.84 Z" fill="#000000" fill-rule="nonzero" fill-opacity="1" /><path clip-path="url(#clip250)" d="M134.27 778.06 Q137.626 778.778 139.501 781.046 Q141.399 783.315 141.399 786.648 Q141.399 791.764 137.881 794.565 Q134.362 797.366 127.881 797.366 Q125.705 797.366 123.39 796.926 Q121.099 796.509 118.645 795.653 L118.645 791.139 Q120.589 792.273 122.904 792.852 Q125.219 793.431 127.742 793.431 Q132.14 793.431 134.432 791.695 Q136.747 789.958 136.747 786.648 Q136.747 783.593 134.594 781.88 Q132.464 780.144 128.645 780.144 L124.617 780.144 L124.617 776.301 L128.83 776.301 Q132.279 776.301 134.108 774.935 Q135.937 773.546 135.937 770.954 Q135.937 768.292 134.038 766.88 Q132.163 765.445 128.645 765.445 Q126.724 765.445 124.525 765.861 Q122.326 766.278 119.687 767.158 L119.687 762.991 Q122.349 762.25 124.663 761.88 Q127.001 761.509 129.062 761.509 Q134.386 761.509 137.487 763.94 Q140.589 766.347 140.589 770.468 Q140.589 773.338 138.946 775.329 Q137.302 777.296 134.27 778.06 Z" fill="#000000" fill-rule="nonzero" fill-opacity="1" /><path clip-path="url(#clip250)" d="M131.816 463.128 L120.011 481.577 L131.816 481.577 L131.816 463.128 M130.589 459.054 L136.469 459.054 L136.469 481.577 L141.399 481.577 L141.399 485.466 L136.469 485.466 L136.469 493.614 L131.816 493.614 L131.816 485.466 L116.214 485.466 L116.214 480.952 L130.589 459.054 Z" fill="#000000" fill-rule="nonzero" fill-opacity="1" /><path clip-path="url(#clip250)" d="M120.497 155.974 L138.853 155.974 L138.853 159.909 L124.779 159.909 L124.779 168.381 Q125.798 168.034 126.816 167.872 Q127.835 167.687 128.853 167.687 Q134.64 167.687 138.02 170.858 Q141.399 174.03 141.399 179.446 Q141.399 185.025 137.927 188.127 Q134.455 191.205 128.136 191.205 Q125.96 191.205 123.691 190.835 Q121.446 190.465 119.039 189.724 L119.039 185.025 Q121.122 186.159 123.344 186.715 Q125.566 187.27 128.043 187.27 Q132.048 187.27 134.386 185.164 Q136.724 183.057 136.724 179.446 Q136.724 175.835 134.386 173.729 Q132.048 171.622 128.043 171.622 Q126.168 171.622 124.293 172.039 Q122.441 172.456 120.497 173.335 L120.497 155.974 Z" fill="#000000" fill-rule="nonzero" fill-opacity="1" /><path clip-path="url(#clip250)" d="M14.1184 1149.57 L14.1184 1122.26 L19.5293 1122.26 L19.5293 1143.14 L33.5338 1143.14 L33.5338 1124.3 L38.9447 1124.3 L38.9447 1143.14 L61.6384 1143.14 L61.6384 1149.57 L14.1184 1149.57 Z" fill="#000000" fill-rule="nonzero" fill-opacity="1" /><path clip-path="url(#clip250)" d="M42.3504 1085.4 L45.2149 1085.4 L45.2149 1112.33 Q51.2623 1111.95 54.4452 1108.7 Q57.5962 1105.42 57.5962 1099.6 Q57.5962 1096.22 56.7687 1093.07 Q55.9411 1089.89 54.2861 1086.77 L59.8242 1086.77 Q61.161 1089.92 61.8612 1093.23 Q62.5615 1096.54 62.5615 1099.95 Q62.5615 1108.48 57.5962 1113.48 Q52.631 1118.44 44.1646 1118.44 Q35.4117 1118.44 30.2873 1113.73 Q25.1311 1108.99 25.1311 1100.97 Q25.1311 1093.77 29.7781 1089.6 Q34.3932 1085.4 42.3504 1085.4 M40.6316 1091.26 Q35.8255 1091.32 32.9609 1093.96 Q30.0964 1096.57 30.0964 1100.9 Q30.0964 1105.8 32.8654 1108.76 Q35.6345 1111.69 40.6634 1112.14 L40.6316 1091.26 Z" fill="#000000" fill-rule="nonzero" fill-opacity="1" /><path clip-path="url(#clip250)" d="M27.3591 1050.14 L32.8336 1050.14 Q31.465 1052.62 30.7966 1055.13 Q30.0964 1057.62 30.0964 1060.16 Q30.0964 1065.86 33.7248 1069.01 Q37.3214 1072.16 43.8463 1072.16 Q50.3711 1072.16 53.9996 1069.01 Q57.5962 1065.86 57.5962 1060.16 Q57.5962 1057.62 56.9278 1055.13 Q56.2276 1052.62 54.859 1050.14 L60.2698 1050.14 Q61.4156 1052.59 61.9886 1055.23 Q62.5615 1057.84 62.5615 1060.8 Q62.5615 1068.85 57.5007 1073.59 Q52.44 1078.34 43.8463 1078.34 Q35.1253 1078.34 30.1282 1073.56 Q25.1311 1068.76 25.1311 1060.42 Q25.1311 1057.71 25.704 1055.13 Q26.2451 1052.56 27.3591 1050.14 Z" fill="#000000" fill-rule="nonzero" fill-opacity="1" /><path clip-path="url(#clip250)" d="M47.5702 1040.56 L25.9905 1040.56 L25.9905 1034.7 L47.3474 1034.7 Q52.4082 1034.7 54.9545 1032.73 Q57.4689 1030.75 57.4689 1026.81 Q57.4689 1022.06 54.4452 1019.33 Q51.4215 1016.56 46.2016 1016.56 L25.9905 1016.56 L25.9905 1010.7 L61.6384 1010.7 L61.6384 1016.56 L56.1639 1016.56 Q59.4104 1018.69 61.0019 1021.52 Q62.5615 1024.32 62.5615 1028.05 Q62.5615 1034.19 58.742 1037.37 Q54.9226 1040.56 47.5702 1040.56 M25.1311 1025.82 L25.1311 1025.82 Z" fill="#000000" fill-rule="nonzero" fill-opacity="1" /><path clip-path="url(#clip250)" d="M40.1224 969.006 L61.6384 969.006 L61.6384 974.862 L40.3133 974.862 Q35.2526 974.862 32.7381 976.835 Q30.2237 978.809 30.2237 982.755 Q30.2237 987.498 33.2474 990.235 Q36.2711 992.972 41.491 992.972 L61.6384 992.972 L61.6384 998.861 L25.9905 998.861 L25.9905 992.972 L31.5287 992.972 Q28.314 990.872 26.7225 988.039 Q25.1311 985.174 25.1311 981.451 Q25.1311 975.308 28.9505 972.157 Q32.7381 969.006 40.1224 969.006 Z" fill="#000000" fill-rule="nonzero" fill-opacity="1" /><path clip-path="url(#clip250)" d="M31.4013 933.867 L12.1132 933.867 L12.1132 928.01 L61.6384 928.01 L61.6384 933.867 L56.2912 933.867 Q59.4741 935.713 61.0337 938.546 Q62.5615 941.347 62.5615 945.293 Q62.5615 951.755 57.4052 955.829 Q52.249 959.871 43.8463 959.871 Q35.4436 959.871 30.2873 955.829 Q25.1311 951.755 25.1311 945.293 Q25.1311 941.347 26.6907 938.546 Q28.2185 935.713 31.4013 933.867 M43.8463 953.823 Q50.3075 953.823 53.9996 951.182 Q57.6599 948.508 57.6599 943.861 Q57.6599 939.214 53.9996 936.54 Q50.3075 933.867 43.8463 933.867 Q37.3851 933.867 33.7248 936.54 Q30.0327 939.214 30.0327 943.861 Q30.0327 948.508 33.7248 951.182 Q37.3851 953.823 43.8463 953.823 Z" fill="#000000" fill-rule="nonzero" fill-opacity="1" /><path clip-path="url(#clip250)" d="M25.9905 915.947 L25.9905 910.091 L61.6384 910.091 L61.6384 915.947 L25.9905 915.947 M12.1132 915.947 L12.1132 910.091 L19.5293 910.091 L19.5293 915.947 L12.1132 915.947 Z" fill="#000000" fill-rule="nonzero" fill-opacity="1" /><path clip-path="url(#clip250)" d="M15.869 892.044 L25.9905 892.044 L25.9905 879.981 L30.542 879.981 L30.542 892.044 L49.8937 892.044 Q54.2542 892.044 55.4955 890.867 Q56.7368 889.657 56.7368 885.997 L56.7368 879.981 L61.6384 879.981 L61.6384 885.997 Q61.6384 892.776 59.124 895.354 Q56.5777 897.932 49.8937 897.932 L30.542 897.932 L30.542 902.229 L25.9905 902.229 L25.9905 897.932 L15.869 897.932 L15.869 892.044 Z" fill="#000000" fill-rule="nonzero" fill-opacity="1" /><path clip-path="url(#clip250)" d="M64.9486 857.447 Q71.3143 859.929 73.2559 862.284 Q75.1974 864.64 75.1974 868.587 L75.1974 873.265 L70.2958 873.265 L70.2958 869.828 Q70.2958 867.409 69.15 866.072 Q68.0041 864.735 63.7391 863.112 L61.0655 862.062 L25.9905 876.48 L25.9905 870.273 L53.8723 859.133 L25.9905 847.993 L25.9905 841.787 L64.9486 857.447 Z" fill="#000000" fill-rule="nonzero" fill-opacity="1" /><path clip-path="url(#clip250)" d="M12.1132 794.935 L16.983 794.935 L16.983 800.537 Q16.983 803.688 18.2562 804.929 Q19.5293 806.139 22.8395 806.139 L25.9905 806.139 L25.9905 796.495 L30.542 796.495 L30.542 806.139 L61.6384 806.139 L61.6384 812.027 L30.542 812.027 L30.542 817.629 L25.9905 817.629 L25.9905 812.027 L23.5079 812.027 Q17.5559 812.027 14.8505 809.258 Q12.1132 806.489 12.1132 800.473 L12.1132 794.935 Z" fill="#000000" fill-rule="nonzero" fill-opacity="1" /><path clip-path="url(#clip250)" d="M12.1769 775.966 Q19.4975 780.231 26.6589 782.299 Q33.8203 784.368 41.1727 784.368 Q48.5251 784.368 55.7502 782.299 Q62.9434 780.199 70.2321 775.966 L70.2321 781.058 Q62.7524 785.832 55.5274 788.219 Q48.3023 790.575 41.1727 790.575 Q34.0749 790.575 26.8817 788.219 Q19.6884 785.864 12.1769 781.058 L12.1769 775.966 Z" fill="#000000" fill-rule="nonzero" fill-opacity="1" /><path clip-path="url(#clip250)" d="M25.9905 734.97 L43.337 747.861 L61.6384 734.302 L61.6384 741.209 L47.6339 751.585 L61.6384 761.961 L61.6384 768.868 L42.9869 755.022 L25.9905 767.69 L25.9905 760.783 L38.6901 751.33 L25.9905 741.877 L25.9905 734.97 Z" fill="#000000" fill-rule="nonzero" fill-opacity="1" /><path clip-path="url(#clip250)" d="M12.1769 726.95 L12.1769 721.857 Q19.6884 717.083 26.8817 714.727 Q34.0749 712.34 41.1727 712.34 Q48.3023 712.34 55.5274 714.727 Q62.7524 717.083 70.2321 721.857 L70.2321 726.95 Q62.9434 722.716 55.7502 720.648 Q48.5251 718.547 41.1727 718.547 Q33.8203 718.547 26.6589 720.648 Q19.4975 722.716 12.1769 726.95 Z" fill="#000000" fill-rule="nonzero" fill-opacity="1" /><path clip-path="url(#clip250)" d="M1052.21 12.096 L1086.96 12.096 L1086.96 18.9825 L1060.39 18.9825 L1060.39 36.8065 L1084.37 36.8065 L1084.37 43.6931 L1060.39 43.6931 L1060.39 72.576 L1052.21 72.576 L1052.21 12.096 Z" fill="#000000" fill-rule="nonzero" fill-opacity="1" /><path clip-path="url(#clip250)" d="M1133.87 48.0275 L1133.87 51.6733 L1099.6 51.6733 Q1100.09 59.3701 1104.22 63.421 Q1108.39 67.4314 1115.81 67.4314 Q1120.1 67.4314 1124.11 66.3781 Q1128.16 65.3249 1132.13 63.2184 L1132.13 70.267 Q1128.12 71.9684 1123.91 72.8596 Q1119.69 73.7508 1115.36 73.7508 Q1104.5 73.7508 1098.14 67.4314 Q1091.82 61.1119 1091.82 50.3365 Q1091.82 39.1965 1097.82 32.6746 Q1103.86 26.1121 1114.06 26.1121 Q1123.22 26.1121 1128.53 32.0264 Q1133.87 37.9003 1133.87 48.0275 M1126.42 45.84 Q1126.34 39.7232 1122.98 36.0774 Q1119.65 32.4315 1114.14 32.4315 Q1107.91 32.4315 1104.14 35.9558 Q1100.41 39.4801 1099.84 45.8805 L1126.42 45.84 Z" fill="#000000" fill-rule="nonzero" fill-opacity="1" /><path clip-path="url(#clip250)" d="M1178.76 28.9478 L1178.76 35.9153 Q1175.6 34.1734 1172.4 33.3227 Q1169.24 32.4315 1166 32.4315 Q1158.74 32.4315 1154.73 37.0496 Q1150.72 41.6271 1150.72 49.9314 Q1150.72 58.2358 1154.73 62.8538 Q1158.74 67.4314 1166 67.4314 Q1169.24 67.4314 1172.4 66.5807 Q1175.6 65.6895 1178.76 63.9476 L1178.76 70.8341 Q1175.64 72.2924 1172.27 73.0216 Q1168.95 73.7508 1165.19 73.7508 Q1154.94 73.7508 1148.9 67.3098 Q1142.87 60.8689 1142.87 49.9314 Q1142.87 38.832 1148.94 32.472 Q1155.06 26.1121 1165.67 26.1121 Q1169.12 26.1121 1172.4 26.8413 Q1175.68 27.5299 1178.76 28.9478 Z" fill="#000000" fill-rule="nonzero" fill-opacity="1" /><path clip-path="url(#clip250)" d="M1190.95 54.671 L1190.95 27.2059 L1198.4 27.2059 L1198.4 54.3874 Q1198.4 60.8284 1200.91 64.0691 Q1203.43 67.2693 1208.45 67.2693 Q1214.49 67.2693 1217.97 63.421 Q1221.49 59.5726 1221.49 52.9291 L1221.49 27.2059 L1228.95 27.2059 L1228.95 72.576 L1221.49 72.576 L1221.49 65.6084 Q1218.78 69.7404 1215.17 71.7658 Q1211.61 73.7508 1206.87 73.7508 Q1199.05 73.7508 1195 68.8897 Q1190.95 64.0286 1190.95 54.671 M1209.71 26.1121 L1209.71 26.1121 Z" fill="#000000" fill-rule="nonzero" fill-opacity="1" /><path clip-path="url(#clip250)" d="M1282.01 45.1919 L1282.01 72.576 L1274.56 72.576 L1274.56 45.4349 Q1274.56 38.994 1272.05 35.7938 Q1269.54 32.5936 1264.51 32.5936 Q1258.48 32.5936 1254.99 36.4419 Q1251.51 40.2903 1251.51 46.9338 L1251.51 72.576 L1244.02 72.576 L1244.02 27.2059 L1251.51 27.2059 L1251.51 34.2544 Q1254.18 30.163 1257.79 28.1376 Q1261.44 26.1121 1266.17 26.1121 Q1273.99 26.1121 1278 30.9732 Q1282.01 35.7938 1282.01 45.1919 Z" fill="#000000" fill-rule="nonzero" fill-opacity="1" /><path clip-path="url(#clip250)" d="M1326.74 34.0924 L1326.74 9.54393 L1334.19 9.54393 L1334.19 72.576 L1326.74 72.576 L1326.74 65.7705 Q1324.39 69.8214 1320.78 71.8063 Q1317.22 73.7508 1312.19 73.7508 Q1303.97 73.7508 1298.78 67.1883 Q1293.64 60.6258 1293.64 49.9314 Q1293.64 39.2371 1298.78 32.6746 Q1303.97 26.1121 1312.19 26.1121 Q1317.22 26.1121 1320.78 28.0971 Q1324.39 30.0415 1326.74 34.0924 M1301.34 49.9314 Q1301.34 58.1548 1304.7 62.8538 Q1308.1 67.5124 1314.02 67.5124 Q1319.93 67.5124 1323.33 62.8538 Q1326.74 58.1548 1326.74 49.9314 Q1326.74 41.7081 1323.33 37.0496 Q1319.93 32.3505 1314.02 32.3505 Q1308.1 32.3505 1304.7 37.0496 Q1301.34 41.7081 1301.34 49.9314 Z" fill="#000000" fill-rule="nonzero" fill-opacity="1" /><path clip-path="url(#clip250)" d="M1349.54 27.2059 L1357 27.2059 L1357 72.576 L1349.54 72.576 L1349.54 27.2059 M1349.54 9.54393 L1357 9.54393 L1357 18.9825 L1349.54 18.9825 L1349.54 9.54393 Z" fill="#000000" fill-rule="nonzero" fill-opacity="1" /><path clip-path="url(#clip250)" d="M1379.96 14.324 L1379.96 27.2059 L1395.32 27.2059 L1395.32 32.9987 L1379.96 32.9987 L1379.96 57.6282 Q1379.96 63.1779 1381.46 64.7578 Q1383 66.3376 1387.66 66.3376 L1395.32 66.3376 L1395.32 72.576 L1387.66 72.576 Q1379.03 72.576 1375.75 69.3758 Q1372.47 66.1351 1372.47 57.6282 L1372.47 32.9987 L1367 32.9987 L1367 27.2059 L1372.47 27.2059 L1372.47 14.324 L1379.96 14.324 Z" fill="#000000" fill-rule="nonzero" fill-opacity="1" /><path clip-path="url(#clip250)" d="M1424 76.7889 Q1420.84 84.8907 1417.84 87.3618 Q1414.84 89.8329 1409.82 89.8329 L1403.87 89.8329 L1403.87 83.5945 L1408.24 83.5945 Q1411.32 83.5945 1413.02 82.1361 Q1414.72 80.6778 1416.79 75.2496 L1418.12 71.8468 L1399.77 27.2059 L1407.67 27.2059 L1421.85 62.6918 L1436.03 27.2059 L1443.93 27.2059 L1424 76.7889 Z" fill="#000000" fill-rule="nonzero" fill-opacity="1" /><path clip-path="url(#clip250)" d="M1515.91 35.9153 Q1518.71 30.8922 1522.6 28.5022 Q1526.49 26.1121 1531.75 26.1121 Q1538.84 26.1121 1542.69 31.0947 Q1546.54 36.0368 1546.54 45.1919 L1546.54 72.576 L1539.04 72.576 L1539.04 45.4349 Q1539.04 38.913 1536.73 35.7533 Q1534.43 32.5936 1529.69 32.5936 Q1523.89 32.5936 1520.53 36.4419 Q1517.17 40.2903 1517.17 46.9338 L1517.17 72.576 L1509.67 72.576 L1509.67 45.4349 Q1509.67 38.8725 1507.37 35.7533 Q1505.06 32.5936 1500.24 32.5936 Q1494.52 32.5936 1491.16 36.4824 Q1487.8 40.3308 1487.8 46.9338 L1487.8 72.576 L1480.31 72.576 L1480.31 27.2059 L1487.8 27.2059 L1487.8 34.2544 Q1490.35 30.082 1493.92 28.0971 Q1497.48 26.1121 1502.38 26.1121 Q1507.33 26.1121 1510.77 28.6237 Q1514.25 31.1352 1515.91 35.9153 Z" fill="#000000" fill-rule="nonzero" fill-opacity="1" /><path clip-path="url(#clip250)" d="M1578.99 32.4315 Q1572.99 32.4315 1569.51 37.1306 Q1566.02 41.7891 1566.02 49.9314 Q1566.02 58.0738 1569.47 62.7728 Q1572.95 67.4314 1578.99 67.4314 Q1584.94 67.4314 1588.42 62.7323 Q1591.91 58.0333 1591.91 49.9314 Q1591.91 41.8701 1588.42 37.1711 Q1584.94 32.4315 1578.99 32.4315 M1578.99 26.1121 Q1588.71 26.1121 1594.26 32.4315 Q1599.81 38.7509 1599.81 49.9314 Q1599.81 61.0714 1594.26 67.4314 Q1588.71 73.7508 1578.99 73.7508 Q1569.22 73.7508 1563.67 67.4314 Q1558.16 61.0714 1558.16 49.9314 Q1558.16 38.7509 1563.67 32.4315 Q1569.22 26.1121 1578.99 26.1121 Z" fill="#000000" fill-rule="nonzero" fill-opacity="1" /><path clip-path="url(#clip250)" d="M1642.02 34.0924 L1642.02 9.54393 L1649.47 9.54393 L1649.47 72.576 L1642.02 72.576 L1642.02 65.7705 Q1639.67 69.8214 1636.06 71.8063 Q1632.5 73.7508 1627.47 73.7508 Q1619.25 73.7508 1614.07 67.1883 Q1608.92 60.6258 1608.92 49.9314 Q1608.92 39.2371 1614.07 32.6746 Q1619.25 26.1121 1627.47 26.1121 Q1632.5 26.1121 1636.06 28.0971 Q1639.67 30.0415 1642.02 34.0924 M1616.62 49.9314 Q1616.62 58.1548 1619.98 62.8538 Q1623.38 67.5124 1629.3 67.5124 Q1635.21 67.5124 1638.61 62.8538 Q1642.02 58.1548 1642.02 49.9314 Q1642.02 41.7081 1638.61 37.0496 Q1635.21 32.3505 1629.3 32.3505 Q1623.38 32.3505 1619.98 37.0496 Q1616.62 41.7081 1616.62 49.9314 Z" fill="#000000" fill-rule="nonzero" fill-opacity="1" /><path clip-path="url(#clip250)" d="M1703.63 48.0275 L1703.63 51.6733 L1669.36 51.6733 Q1669.85 59.3701 1673.98 63.421 Q1678.15 67.4314 1685.56 67.4314 Q1689.86 67.4314 1693.87 66.3781 Q1697.92 65.3249 1701.89 63.2184 L1701.89 70.267 Q1697.88 71.9684 1693.67 72.8596 Q1689.45 73.7508 1685.12 73.7508 Q1674.26 73.7508 1667.9 67.4314 Q1661.58 61.1119 1661.58 50.3365 Q1661.58 39.1965 1667.58 32.6746 Q1673.61 26.1121 1683.82 26.1121 Q1692.98 26.1121 1698.28 32.0264 Q1703.63 37.9003 1703.63 48.0275 M1696.18 45.84 Q1696.1 39.7232 1692.74 36.0774 Q1689.41 32.4315 1683.9 32.4315 Q1677.67 32.4315 1673.9 35.9558 Q1670.17 39.4801 1669.6 45.8805 L1696.18 45.84 Z" fill="#000000" fill-rule="nonzero" fill-opacity="1" /><path clip-path="url(#clip250)" d="M1715.87 9.54393 L1723.32 9.54393 L1723.32 72.576 L1715.87 72.576 L1715.87 9.54393 Z" fill="#000000" fill-rule="nonzero" fill-opacity="1" /><path clip-path="url(#clip250)" d="M1767.84 28.5427 L1767.84 35.5912 Q1764.68 33.9709 1761.28 33.1607 Q1757.87 32.3505 1754.23 32.3505 Q1748.68 32.3505 1745.88 34.0519 Q1743.13 35.7533 1743.13 39.156 Q1743.13 41.7486 1745.11 43.2475 Q1747.1 44.7058 1753.09 46.0426 L1755.65 46.6097 Q1763.59 48.3111 1766.91 51.4303 Q1770.27 54.509 1770.27 60.0587 Q1770.27 66.3781 1765.25 70.0644 Q1760.26 73.7508 1751.51 73.7508 Q1747.87 73.7508 1743.9 73.0216 Q1739.97 72.3329 1735.59 70.9151 L1735.59 63.2184 Q1739.73 65.3654 1743.74 66.4591 Q1747.75 67.5124 1751.68 67.5124 Q1756.94 67.5124 1759.78 65.73 Q1762.61 63.9071 1762.61 60.6258 Q1762.61 57.5877 1760.55 55.9673 Q1758.52 54.3469 1751.59 52.8481 L1749 52.2405 Q1742.08 50.7821 1739 47.7845 Q1735.92 44.7463 1735.92 39.4801 Q1735.92 33.0797 1740.45 29.5959 Q1744.99 26.1121 1753.34 26.1121 Q1757.47 26.1121 1761.11 26.7198 Q1764.76 27.3274 1767.84 28.5427 Z" fill="#000000" fill-rule="nonzero" fill-opacity="1" /><polyline clip-path="url(#clip251)" style="stroke:#009af9; stroke-linecap:round; stroke-linejoin:round; stroke-width:8; stroke-opacity:1; fill:none" points="251.315,1661.4 309.311,1644.24 367.307,1616.79 425.303,1573.7 483.299,1508.01 541.296,1412.21 599.292,1281.1 657.288,1116.53 715.284,930.955 773.28,745.38 831.276,580.808 889.272,449.702 947.269,353.894 1005.26,288.21 1063.26,245.123 1121.26,217.674 1179.25,200.51 1237.25,189.904 1295.25,183.397 1353.24,179.422 1411.24,177.001 1469.23,175.529 1527.23,174.635 1585.23,174.092 1643.22,173.762 1701.22,173.562 1759.21,173.441 1817.21,173.368 1875.21,173.323 1933.2,173.296 1991.2,173.279 2049.2,173.27 2107.19,173.263 2165.19,173.26 2223.18,173.258 2281.18,173.256 2339.18,173.255 2397.17,173.255 2455.17,173.255 2513.16,173.254 2571.16,173.254 "/>
<polyline clip-path="url(#clip251)" style="stroke:#e26f46; stroke-linecap:round; stroke-linejoin:round; stroke-width:8; stroke-opacity:1; fill:none" points="251.315,1688.65 309.311,1688.65 367.307,1688.65 425.303,1688.65 483.299,1688.65 541.296,173.254 599.292,173.254 657.288,173.254 715.284,173.254 773.28,173.254 831.276,173.254 889.272,173.254 947.269,173.254 1005.26,173.254 1063.26,173.254 1121.26,173.254 1179.25,173.254 1237.25,173.254 1295.25,173.254 1353.24,173.254 1411.24,173.254 1469.23,173.254 1527.23,173.254 1585.23,173.254 1643.22,173.254 1701.22,173.254 1759.21,173.254 1817.21,173.254 1875.21,173.254 1933.2,173.254 1991.2,173.254 2049.2,173.254 2107.19,173.254 2165.19,173.254 2223.18,173.254 2281.18,173.254 2339.18,173.254 2397.17,173.254 2455.17,173.254 2513.16,173.254 2571.16,173.254 "/>
<polyline clip-path="url(#clip251)" style="stroke:#3da44d; stroke-linecap:round; stroke-linejoin:round; stroke-width:8; stroke-opacity:1; fill:none" points="251.315,1688.65 309.311,1413.96 367.307,1189.06 425.303,1004.92 483.299,854.168 541.296,730.739 599.292,629.684 657.288,546.947 715.284,479.208 773.28,423.748 831.276,378.341 889.272,341.165 947.269,310.728 1005.26,285.808 1063.26,265.406 1121.26,248.702 1179.25,235.025 1237.25,223.828 1295.25,214.661 1353.24,207.155 1411.24,201.01 1469.23,195.978 1527.23,191.859 1585.23,188.487 1643.22,185.726 1701.22,183.465 1759.21,181.614 1817.21,180.099 1875.21,178.858 1933.2,177.842 1991.2,177.01 2049.2,176.33 2107.19,175.772 2165.19,175.316 2223.18,174.942 2281.18,174.636 2339.18,174.386 2397.17,174.18 2455.17,174.013 2513.16,173.875 2571.16,173.763 "/>
<polyline clip-path="url(#clip251)" style="stroke:#c271d2; stroke-linecap:round; stroke-linejoin:round; stroke-width:8; stroke-opacity:1; fill:none" points="251.315,1671.82 309.311,1658.59 367.307,1637.06 425.303,1603.59 483.299,1553.9 541.296,1483.57 599.292,1388.76 657.288,1267.32 715.284,1119.91 773.28,951.03 831.276,769.518 889.272,588.248 947.269,422.886 1005.26,289.764 1063.26,203.261 1121.26,173.254 1179.25,203.261 1237.25,289.764 1295.25,422.886 1353.24,588.248 1411.24,769.518 1469.23,951.03 1527.23,1119.91 1585.23,1267.32 1643.22,1388.76 1701.22,1483.57 1759.21,1553.9 1817.21,1603.59 1875.21,1637.06 1933.2,1658.59 1991.2,1671.82 2049.2,1679.6 2107.19,1683.97 2165.19,1686.33 2223.18,1687.55 2281.18,1688.15 2339.18,1688.43 2397.17,1688.56 2455.17,1688.62 2513.16,1688.64 2571.16,1688.65 "/>
<polyline clip-path="url(#clip251)" style="stroke:#ac8d18; stroke-linecap:round; stroke-linejoin:round; stroke-width:8; stroke-opacity:1; fill:none" points="251.315,1688.65 309.311,1688.65 367.307,1688.65 425.303,1686.78 483.299,1665.74 541.296,1607.44 599.292,1531.55 657.288,1472.06 715.284,1445.9 773.28,1450.98 831.276,1476.5 889.272,1511.33 947.269,1547.41 1005.26,1580.14 1063.26,1607.57 1121.26,1629.36 1179.25,1646.04 1237.25,1658.44 1295.25,1667.47 1353.24,1673.93 1411.24,1678.5 1469.23,1681.7 1527.23,1683.91 1585.23,1685.44 1643.22,1686.48 1701.22,1687.19 1759.21,1687.67 1817.21,1687.99 1875.21,1688.21 1933.2,1688.36 1991.2,1688.46 2049.2,1688.52 2107.19,1688.57 2165.19,1688.6 2223.18,1688.62 2281.18,1688.63 2339.18,1688.64 2397.17,1688.64 2455.17,1688.65 2513.16,1688.65 2571.16,1688.65 "/>
<path clip-path="url(#clip250)" d="M1950.11 492.376 L2558.79 492.376 L2558.79 181.336 L1950.11 181.336  Z" fill="#ffffff" fill-rule="evenodd" fill-opacity="1"/>
<polyline clip-path="url(#clip250)" style="stroke:#000000; stroke-linecap:round; stroke-linejoin:round; stroke-width:4; stroke-opacity:1; fill:none" points="1950.11,492.376 2558.79,492.376 2558.79,181.336 1950.11,181.336 1950.11,492.376 "/>
<polyline clip-path="url(#clip250)" style="stroke:#009af9; stroke-linecap:round; stroke-linejoin:round; stroke-width:8; stroke-opacity:1; fill:none" points="1977.43,233.176 2141.37,233.176 "/>
<path clip-path="url(#clip250)" d="M2168.69 215.896 L2173.37 215.896 L2173.37 246.521 L2190.19 246.521 L2190.19 250.456 L2168.69 250.456 L2168.69 215.896 Z" fill="#000000" fill-rule="nonzero" fill-opacity="1" /><path clip-path="url(#clip250)" d="M2204.13 227.517 Q2200.7 227.517 2198.71 230.202 Q2196.72 232.864 2196.72 237.517 Q2196.72 242.169 2198.69 244.854 Q2200.68 247.516 2204.13 247.516 Q2207.53 247.516 2209.52 244.831 Q2211.51 242.146 2211.51 237.517 Q2211.51 232.91 2209.52 230.225 Q2207.53 227.517 2204.13 227.517 M2204.13 223.906 Q2209.68 223.906 2212.86 227.517 Q2216.03 231.128 2216.03 237.517 Q2216.03 243.882 2212.86 247.516 Q2209.68 251.128 2204.13 251.128 Q2198.55 251.128 2195.38 247.516 Q2192.23 243.882 2192.23 237.517 Q2192.23 231.128 2195.38 227.517 Q2198.55 223.906 2204.13 223.906 Z" fill="#000000" fill-rule="nonzero" fill-opacity="1" /><path clip-path="url(#clip250)" d="M2240.15 237.192 Q2240.15 232.563 2238.23 230.017 Q2236.33 227.47 2232.88 227.47 Q2229.45 227.47 2227.53 230.017 Q2225.63 232.563 2225.63 237.192 Q2225.63 241.799 2227.53 244.345 Q2229.45 246.891 2232.88 246.891 Q2236.33 246.891 2238.23 244.345 Q2240.15 241.799 2240.15 237.192 M2244.41 247.239 Q2244.41 253.859 2241.47 257.077 Q2238.53 260.317 2232.46 260.317 Q2230.22 260.317 2228.23 259.97 Q2226.24 259.646 2224.36 258.952 L2224.36 254.808 Q2226.24 255.827 2228.06 256.313 Q2229.89 256.799 2231.79 256.799 Q2235.98 256.799 2238.06 254.6 Q2240.15 252.424 2240.15 248.003 L2240.15 245.896 Q2238.83 248.188 2236.77 249.322 Q2234.71 250.456 2231.84 250.456 Q2227.07 250.456 2224.15 246.822 Q2221.24 243.188 2221.24 237.192 Q2221.24 231.174 2224.15 227.54 Q2227.07 223.906 2231.84 223.906 Q2234.71 223.906 2236.77 225.04 Q2238.83 226.174 2240.15 228.466 L2240.15 224.531 L2244.41 224.531 L2244.41 247.239 Z" fill="#000000" fill-rule="nonzero" fill-opacity="1" /><path clip-path="url(#clip250)" d="M2253.18 224.531 L2257.44 224.531 L2257.44 250.456 L2253.18 250.456 L2253.18 224.531 M2253.18 214.438 L2257.44 214.438 L2257.44 219.831 L2253.18 219.831 L2253.18 214.438 Z" fill="#000000" fill-rule="nonzero" fill-opacity="1" /><path clip-path="url(#clip250)" d="M2282.88 225.294 L2282.88 229.322 Q2281.07 228.396 2279.13 227.933 Q2277.18 227.47 2275.1 227.47 Q2271.93 227.47 2270.33 228.443 Q2268.76 229.415 2268.76 231.359 Q2268.76 232.841 2269.89 233.697 Q2271.03 234.53 2274.45 235.294 L2275.91 235.618 Q2280.45 236.591 2282.35 238.373 Q2284.27 240.132 2284.27 243.304 Q2284.27 246.915 2281.4 249.021 Q2278.55 251.128 2273.55 251.128 Q2271.47 251.128 2269.2 250.711 Q2266.95 250.317 2264.45 249.507 L2264.45 245.109 Q2266.81 246.336 2269.11 246.961 Q2271.4 247.563 2273.64 247.563 Q2276.65 247.563 2278.27 246.544 Q2279.89 245.503 2279.89 243.628 Q2279.89 241.892 2278.71 240.966 Q2277.55 240.04 2273.6 239.183 L2272.11 238.836 Q2268.16 238.003 2266.4 236.29 Q2264.64 234.554 2264.64 231.544 Q2264.64 227.887 2267.23 225.896 Q2269.82 223.906 2274.59 223.906 Q2276.95 223.906 2279.04 224.253 Q2281.12 224.6 2282.88 225.294 Z" fill="#000000" fill-rule="nonzero" fill-opacity="1" /><path clip-path="url(#clip250)" d="M2295.26 217.169 L2295.26 224.531 L2304.04 224.531 L2304.04 227.841 L2295.26 227.841 L2295.26 241.915 Q2295.26 245.086 2296.12 245.989 Q2297 246.891 2299.66 246.891 L2304.04 246.891 L2304.04 250.456 L2299.66 250.456 Q2294.73 250.456 2292.86 248.628 Q2290.98 246.776 2290.98 241.915 L2290.98 227.841 L2287.86 227.841 L2287.86 224.531 L2290.98 224.531 L2290.98 217.169 L2295.26 217.169 Z" fill="#000000" fill-rule="nonzero" fill-opacity="1" /><path clip-path="url(#clip250)" d="M2309.64 224.531 L2313.9 224.531 L2313.9 250.456 L2309.64 250.456 L2309.64 224.531 M2309.64 214.438 L2313.9 214.438 L2313.9 219.831 L2309.64 219.831 L2309.64 214.438 Z" fill="#000000" fill-rule="nonzero" fill-opacity="1" /><path clip-path="url(#clip250)" d="M2341.47 225.526 L2341.47 229.507 Q2339.66 228.512 2337.83 228.026 Q2336.03 227.517 2334.17 227.517 Q2330.03 227.517 2327.74 230.155 Q2325.45 232.771 2325.45 237.517 Q2325.45 242.262 2327.74 244.901 Q2330.03 247.516 2334.17 247.516 Q2336.03 247.516 2337.83 247.03 Q2339.66 246.521 2341.47 245.526 L2341.47 249.461 Q2339.68 250.294 2337.76 250.711 Q2335.86 251.128 2333.71 251.128 Q2327.86 251.128 2324.41 247.447 Q2320.96 243.767 2320.96 237.517 Q2320.96 231.174 2324.43 227.54 Q2327.92 223.906 2333.99 223.906 Q2335.96 223.906 2337.83 224.322 Q2339.71 224.716 2341.47 225.526 Z" fill="#000000" fill-rule="nonzero" fill-opacity="1" /><polyline clip-path="url(#clip250)" style="stroke:#e26f46; stroke-linecap:round; stroke-linejoin:round; stroke-width:8; stroke-opacity:1; fill:none" points="1977.43,285.016 2141.37,285.016 "/>
<path clip-path="url(#clip250)" d="M2190.93 268.871 L2190.93 273.431 Q2188.27 272.158 2185.91 271.533 Q2183.55 270.908 2181.35 270.908 Q2177.53 270.908 2175.45 272.389 Q2173.39 273.871 2173.39 276.602 Q2173.39 278.894 2174.75 280.074 Q2176.14 281.232 2179.99 281.949 L2182.81 282.528 Q2188.04 283.523 2190.52 286.046 Q2193.02 288.546 2193.02 292.759 Q2193.02 297.782 2189.64 300.375 Q2186.28 302.968 2179.78 302.968 Q2177.32 302.968 2174.55 302.412 Q2171.79 301.856 2168.83 300.769 L2168.83 295.954 Q2171.68 297.551 2174.41 298.361 Q2177.14 299.171 2179.78 299.171 Q2183.78 299.171 2185.96 297.597 Q2188.13 296.023 2188.13 293.107 Q2188.13 290.56 2186.56 289.125 Q2185.01 287.69 2181.44 286.972 L2178.6 286.417 Q2173.37 285.375 2171.03 283.153 Q2168.69 280.931 2168.69 276.972 Q2168.69 272.389 2171.91 269.75 Q2175.15 267.111 2180.82 267.111 Q2183.25 267.111 2185.77 267.551 Q2188.3 267.991 2190.93 268.871 Z" fill="#000000" fill-rule="nonzero" fill-opacity="1" /><path clip-path="url(#clip250)" d="M2204.34 269.009 L2204.34 276.371 L2213.11 276.371 L2213.11 279.681 L2204.34 279.681 L2204.34 293.755 Q2204.34 296.926 2205.19 297.829 Q2206.07 298.731 2208.74 298.731 L2213.11 298.731 L2213.11 302.296 L2208.74 302.296 Q2203.81 302.296 2201.93 300.468 Q2200.06 298.616 2200.06 293.755 L2200.06 279.681 L2196.93 279.681 L2196.93 276.371 L2200.06 276.371 L2200.06 269.009 L2204.34 269.009 Z" fill="#000000" fill-rule="nonzero" fill-opacity="1" /><path clip-path="url(#clip250)" d="M2240.89 288.269 L2240.89 290.352 L2221.31 290.352 Q2221.58 294.75 2223.94 297.065 Q2226.33 299.356 2230.56 299.356 Q2233.02 299.356 2235.31 298.755 Q2237.62 298.153 2239.89 296.949 L2239.89 300.977 Q2237.6 301.949 2235.19 302.458 Q2232.79 302.968 2230.31 302.968 Q2224.11 302.968 2220.47 299.356 Q2216.86 295.745 2216.86 289.588 Q2216.86 283.222 2220.29 279.495 Q2223.74 275.746 2229.57 275.746 Q2234.8 275.746 2237.83 279.125 Q2240.89 282.482 2240.89 288.269 M2236.63 287.019 Q2236.58 283.523 2234.66 281.44 Q2232.76 279.357 2229.62 279.357 Q2226.05 279.357 2223.9 281.37 Q2221.77 283.384 2221.44 287.042 L2236.63 287.019 Z" fill="#000000" fill-rule="nonzero" fill-opacity="1" /><path clip-path="url(#clip250)" d="M2252 298.407 L2252 312.157 L2247.72 312.157 L2247.72 276.371 L2252 276.371 L2252 280.306 Q2253.34 277.991 2255.38 276.88 Q2257.44 275.746 2260.29 275.746 Q2265.01 275.746 2267.95 279.495 Q2270.91 283.245 2270.91 289.357 Q2270.91 295.468 2267.95 299.218 Q2265.01 302.968 2260.29 302.968 Q2257.44 302.968 2255.38 301.856 Q2253.34 300.722 2252 298.407 M2266.49 289.357 Q2266.49 284.657 2264.55 281.995 Q2262.62 279.31 2259.24 279.31 Q2255.87 279.31 2253.92 281.995 Q2252 284.657 2252 289.357 Q2252 294.056 2253.92 296.741 Q2255.87 299.403 2259.24 299.403 Q2262.62 299.403 2264.55 296.741 Q2266.49 294.056 2266.49 289.357 Z" fill="#000000" fill-rule="nonzero" fill-opacity="1" /><polyline clip-path="url(#clip250)" style="stroke:#3da44d; stroke-linecap:round; stroke-linejoin:round; stroke-width:8; stroke-opacity:1; fill:none" points="1977.43,336.856 2141.37,336.856 "/>
<path clip-path="url(#clip250)" d="M2181.88 354.136 L2168.69 319.576 L2173.57 319.576 L2184.52 348.673 L2195.49 319.576 L2200.36 319.576 L2187.18 354.136 L2181.88 354.136 Z" fill="#000000" fill-rule="nonzero" fill-opacity="1" /><path clip-path="url(#clip250)" d="M2211.58 331.197 Q2208.16 331.197 2206.17 333.882 Q2204.18 336.544 2204.18 341.197 Q2204.18 345.849 2206.14 348.534 Q2208.13 351.196 2211.58 351.196 Q2214.99 351.196 2216.98 348.511 Q2218.97 345.826 2218.97 341.197 Q2218.97 336.59 2216.98 333.905 Q2214.99 331.197 2211.58 331.197 M2211.58 327.586 Q2217.14 327.586 2220.31 331.197 Q2223.48 334.808 2223.48 341.197 Q2223.48 347.562 2220.31 351.196 Q2217.14 354.808 2211.58 354.808 Q2206 354.808 2202.83 351.196 Q2199.68 347.562 2199.68 341.197 Q2199.68 334.808 2202.83 331.197 Q2206 327.586 2211.58 327.586 Z" fill="#000000" fill-rule="nonzero" fill-opacity="1" /><path clip-path="url(#clip250)" d="M2252.09 338.488 L2252.09 354.136 L2247.83 354.136 L2247.83 338.627 Q2247.83 334.947 2246.4 333.118 Q2244.96 331.289 2242.09 331.289 Q2238.64 331.289 2236.65 333.488 Q2234.66 335.687 2234.66 339.484 L2234.66 354.136 L2230.38 354.136 L2230.38 328.211 L2234.66 328.211 L2234.66 332.238 Q2236.19 329.9 2238.25 328.743 Q2240.33 327.586 2243.04 327.586 Q2247.51 327.586 2249.8 330.363 Q2252.09 333.118 2252.09 338.488 Z" fill="#000000" fill-rule="nonzero" fill-opacity="1" /><path clip-path="url(#clip250)" d="M2280.52 337.632 L2280.52 350.294 L2288.02 350.294 Q2291.79 350.294 2293.6 348.743 Q2295.42 347.169 2295.42 343.951 Q2295.42 340.71 2293.6 339.183 Q2291.79 337.632 2288.02 337.632 L2280.52 337.632 M2280.52 323.419 L2280.52 333.835 L2287.44 333.835 Q2290.86 333.835 2292.53 332.562 Q2294.22 331.266 2294.22 328.627 Q2294.22 326.011 2292.53 324.715 Q2290.86 323.419 2287.44 323.419 L2280.52 323.419 M2275.84 319.576 L2287.79 319.576 Q2293.13 319.576 2296.03 321.798 Q2298.92 324.021 2298.92 328.118 Q2298.92 331.289 2297.44 333.164 Q2295.96 335.039 2293.09 335.502 Q2296.54 336.243 2298.43 338.604 Q2300.36 340.942 2300.36 344.46 Q2300.36 349.09 2297.21 351.613 Q2294.06 354.136 2288.25 354.136 L2275.84 354.136 L2275.84 319.576 Z" fill="#000000" fill-rule="nonzero" fill-opacity="1" /><path clip-path="url(#clip250)" d="M2330.36 340.109 L2330.36 342.192 L2310.77 342.192 Q2311.05 346.59 2313.41 348.905 Q2315.8 351.196 2320.03 351.196 Q2322.49 351.196 2324.78 350.595 Q2327.09 349.993 2329.36 348.789 L2329.36 352.817 Q2327.07 353.789 2324.66 354.298 Q2322.25 354.808 2319.78 354.808 Q2313.57 354.808 2309.94 351.196 Q2306.33 347.585 2306.33 341.428 Q2306.33 335.062 2309.75 331.335 Q2313.2 327.586 2319.04 327.586 Q2324.27 327.586 2327.3 330.965 Q2330.36 334.322 2330.36 340.109 M2326.1 338.859 Q2326.05 335.363 2324.13 333.28 Q2322.23 331.197 2319.08 331.197 Q2315.52 331.197 2313.36 333.21 Q2311.24 335.224 2310.91 338.882 L2326.1 338.859 Z" fill="#000000" fill-rule="nonzero" fill-opacity="1" /><path clip-path="url(#clip250)" d="M2352.37 332.192 Q2351.65 331.775 2350.8 331.59 Q2349.96 331.382 2348.94 331.382 Q2345.33 331.382 2343.39 333.743 Q2341.47 336.081 2341.47 340.479 L2341.47 354.136 L2337.18 354.136 L2337.18 328.211 L2341.47 328.211 L2341.47 332.238 Q2342.81 329.877 2344.96 328.743 Q2347.11 327.586 2350.19 327.586 Q2350.63 327.586 2351.17 327.655 Q2351.7 327.701 2352.35 327.817 L2352.37 332.192 Z" fill="#000000" fill-rule="nonzero" fill-opacity="1" /><path clip-path="url(#clip250)" d="M2361.05 320.849 L2361.05 328.211 L2369.82 328.211 L2369.82 331.521 L2361.05 331.521 L2361.05 345.595 Q2361.05 348.766 2361.91 349.669 Q2362.79 350.571 2365.45 350.571 L2369.82 350.571 L2369.82 354.136 L2365.45 354.136 Q2360.52 354.136 2358.64 352.308 Q2356.77 350.456 2356.77 345.595 L2356.77 331.521 L2353.64 331.521 L2353.64 328.211 L2356.77 328.211 L2356.77 320.849 L2361.05 320.849 Z" fill="#000000" fill-rule="nonzero" fill-opacity="1" /><path clip-path="url(#clip250)" d="M2387.21 341.104 Q2382.04 341.104 2380.05 342.284 Q2378.06 343.465 2378.06 346.312 Q2378.06 348.581 2379.54 349.923 Q2381.05 351.243 2383.62 351.243 Q2387.16 351.243 2389.29 348.743 Q2391.44 346.22 2391.44 342.053 L2391.44 341.104 L2387.21 341.104 M2395.7 339.345 L2395.7 354.136 L2391.44 354.136 L2391.44 350.201 Q2389.98 352.562 2387.81 353.696 Q2385.63 354.808 2382.48 354.808 Q2378.5 354.808 2376.14 352.585 Q2373.8 350.34 2373.8 346.59 Q2373.8 342.215 2376.72 339.993 Q2379.66 337.771 2385.47 337.771 L2391.44 337.771 L2391.44 337.354 Q2391.44 334.414 2389.5 332.817 Q2387.58 331.197 2384.08 331.197 Q2381.86 331.197 2379.75 331.729 Q2377.65 332.261 2375.7 333.326 L2375.7 329.391 Q2378.04 328.488 2380.24 328.048 Q2382.44 327.586 2384.52 327.586 Q2390.15 327.586 2392.92 330.502 Q2395.7 333.419 2395.7 339.345 Z" fill="#000000" fill-rule="nonzero" fill-opacity="1" /><path clip-path="url(#clip250)" d="M2404.48 318.118 L2408.73 318.118 L2408.73 354.136 L2404.48 354.136 L2404.48 318.118 Z" fill="#000000" fill-rule="nonzero" fill-opacity="1" /><path clip-path="url(#clip250)" d="M2429.43 341.104 Q2424.27 341.104 2422.28 342.284 Q2420.29 343.465 2420.29 346.312 Q2420.29 348.581 2421.77 349.923 Q2423.27 351.243 2425.84 351.243 Q2429.38 351.243 2431.51 348.743 Q2433.66 346.22 2433.66 342.053 L2433.66 341.104 L2429.43 341.104 M2437.92 339.345 L2437.92 354.136 L2433.66 354.136 L2433.66 350.201 Q2432.21 352.562 2430.03 353.696 Q2427.85 354.808 2424.71 354.808 Q2420.73 354.808 2418.36 352.585 Q2416.03 350.34 2416.03 346.59 Q2416.03 342.215 2418.94 339.993 Q2421.88 337.771 2427.69 337.771 L2433.66 337.771 L2433.66 337.354 Q2433.66 334.414 2431.72 332.817 Q2429.8 331.197 2426.3 331.197 Q2424.08 331.197 2421.98 331.729 Q2419.87 332.261 2417.92 333.326 L2417.92 329.391 Q2420.26 328.488 2422.46 328.048 Q2424.66 327.586 2426.74 327.586 Q2432.37 327.586 2435.15 330.502 Q2437.92 333.419 2437.92 339.345 Z" fill="#000000" fill-rule="nonzero" fill-opacity="1" /><path clip-path="url(#clip250)" d="M2468.25 338.488 L2468.25 354.136 L2463.99 354.136 L2463.99 338.627 Q2463.99 334.947 2462.55 333.118 Q2461.12 331.289 2458.25 331.289 Q2454.8 331.289 2452.81 333.488 Q2450.82 335.687 2450.82 339.484 L2450.82 354.136 L2446.54 354.136 L2446.54 328.211 L2450.82 328.211 L2450.82 332.238 Q2452.35 329.9 2454.41 328.743 Q2456.49 327.586 2459.2 327.586 Q2463.66 327.586 2465.96 330.363 Q2468.25 333.118 2468.25 338.488 Z" fill="#000000" fill-rule="nonzero" fill-opacity="1" /><path clip-path="url(#clip250)" d="M2489.87 318.118 L2489.87 321.66 L2485.79 321.66 Q2483.5 321.66 2482.6 322.586 Q2481.72 323.511 2481.72 325.919 L2481.72 328.211 L2488.73 328.211 L2488.73 331.521 L2481.72 331.521 L2481.72 354.136 L2477.44 354.136 L2477.44 331.521 L2473.36 331.521 L2473.36 328.211 L2477.44 328.211 L2477.44 326.405 Q2477.44 322.076 2479.45 320.109 Q2481.47 318.118 2485.84 318.118 L2489.87 318.118 Z" fill="#000000" fill-rule="nonzero" fill-opacity="1" /><path clip-path="url(#clip250)" d="M2506.56 318.118 L2506.56 321.66 L2502.48 321.66 Q2500.19 321.66 2499.29 322.586 Q2498.41 323.511 2498.41 325.919 L2498.41 328.211 L2505.42 328.211 L2505.42 331.521 L2498.41 331.521 L2498.41 354.136 L2494.13 354.136 L2494.13 331.521 L2490.05 331.521 L2490.05 328.211 L2494.13 328.211 L2494.13 326.405 Q2494.13 322.076 2496.14 320.109 Q2498.16 318.118 2502.53 318.118 L2506.56 318.118 Z" fill="#000000" fill-rule="nonzero" fill-opacity="1" /><path clip-path="url(#clip250)" d="M2520.08 356.544 Q2518.27 361.173 2516.56 362.585 Q2514.85 363.997 2511.97 363.997 L2508.57 363.997 L2508.57 360.433 L2511.07 360.433 Q2512.83 360.433 2513.8 359.599 Q2514.78 358.766 2515.96 355.664 L2516.72 353.72 L2506.23 328.211 L2510.75 328.211 L2518.85 348.488 L2526.95 328.211 L2531.47 328.211 L2520.08 356.544 Z" fill="#000000" fill-rule="nonzero" fill-opacity="1" /><polyline clip-path="url(#clip250)" style="stroke:#c271d2; stroke-linecap:round; stroke-linejoin:round; stroke-width:8; stroke-opacity:1; fill:none" points="1977.43,388.696 2141.37,388.696 "/>
<path clip-path="url(#clip250)" d="M2168.69 371.416 L2174.99 371.416 L2190.31 400.328 L2190.31 371.416 L2194.85 371.416 L2194.85 405.976 L2188.55 405.976 L2173.23 377.064 L2173.23 405.976 L2168.69 405.976 L2168.69 371.416 Z" fill="#000000" fill-rule="nonzero" fill-opacity="1" /><path clip-path="url(#clip250)" d="M2214.01 383.037 Q2210.59 383.037 2208.6 385.722 Q2206.61 388.384 2206.61 393.037 Q2206.61 397.689 2208.57 400.374 Q2210.56 403.036 2214.01 403.036 Q2217.42 403.036 2219.41 400.351 Q2221.4 397.666 2221.4 393.037 Q2221.4 388.43 2219.41 385.745 Q2217.42 383.037 2214.01 383.037 M2214.01 379.426 Q2219.57 379.426 2222.74 383.037 Q2225.91 386.648 2225.91 393.037 Q2225.91 399.402 2222.74 403.036 Q2219.57 406.648 2214.01 406.648 Q2208.43 406.648 2205.26 403.036 Q2202.12 399.402 2202.12 393.037 Q2202.12 386.648 2205.26 383.037 Q2208.43 379.426 2214.01 379.426 Z" fill="#000000" fill-rule="nonzero" fill-opacity="1" /><path clip-path="url(#clip250)" d="M2247.99 384.032 Q2247.28 383.615 2246.42 383.43 Q2245.59 383.222 2244.57 383.222 Q2240.96 383.222 2239.01 385.583 Q2237.09 387.921 2237.09 392.319 L2237.09 405.976 L2232.81 405.976 L2232.81 380.051 L2237.09 380.051 L2237.09 384.078 Q2238.43 381.717 2240.59 380.583 Q2242.74 379.426 2245.82 379.426 Q2246.26 379.426 2246.79 379.495 Q2247.32 379.541 2247.97 379.657 L2247.99 384.032 Z" fill="#000000" fill-rule="nonzero" fill-opacity="1" /><path clip-path="url(#clip250)" d="M2271.81 385.027 Q2273.41 382.157 2275.63 380.791 Q2277.86 379.426 2280.86 379.426 Q2284.92 379.426 2287.11 382.273 Q2289.31 385.097 2289.31 390.328 L2289.31 405.976 L2285.03 405.976 L2285.03 390.467 Q2285.03 386.74 2283.71 384.935 Q2282.39 383.129 2279.68 383.129 Q2276.37 383.129 2274.45 385.328 Q2272.53 387.527 2272.53 391.324 L2272.53 405.976 L2268.25 405.976 L2268.25 390.467 Q2268.25 386.717 2266.93 384.935 Q2265.61 383.129 2262.86 383.129 Q2259.59 383.129 2257.67 385.351 Q2255.75 387.55 2255.75 391.324 L2255.75 405.976 L2251.47 405.976 L2251.47 380.051 L2255.75 380.051 L2255.75 384.078 Q2257.21 381.694 2259.24 380.56 Q2261.28 379.426 2264.08 379.426 Q2266.91 379.426 2268.87 380.861 Q2270.86 382.296 2271.81 385.027 Z" fill="#000000" fill-rule="nonzero" fill-opacity="1" /><path clip-path="url(#clip250)" d="M2309.59 392.944 Q2304.43 392.944 2302.44 394.124 Q2300.45 395.305 2300.45 398.152 Q2300.45 400.421 2301.93 401.763 Q2303.43 403.083 2306 403.083 Q2309.55 403.083 2311.67 400.583 Q2313.83 398.06 2313.83 393.893 L2313.83 392.944 L2309.59 392.944 M2318.09 391.185 L2318.09 405.976 L2313.83 405.976 L2313.83 402.041 Q2312.37 404.402 2310.19 405.536 Q2308.02 406.648 2304.87 406.648 Q2300.89 406.648 2298.53 404.425 Q2296.19 402.18 2296.19 398.43 Q2296.19 394.055 2299.11 391.833 Q2302.05 389.611 2307.86 389.611 L2313.83 389.611 L2313.83 389.194 Q2313.83 386.254 2311.88 384.657 Q2309.96 383.037 2306.47 383.037 Q2304.24 383.037 2302.14 383.569 Q2300.03 384.101 2298.09 385.166 L2298.09 381.231 Q2300.42 380.328 2302.62 379.888 Q2304.82 379.426 2306.91 379.426 Q2312.53 379.426 2315.31 382.342 Q2318.09 385.259 2318.09 391.185 Z" fill="#000000" fill-rule="nonzero" fill-opacity="1" /><path clip-path="url(#clip250)" d="M2326.86 369.958 L2331.12 369.958 L2331.12 405.976 L2326.86 405.976 L2326.86 369.958 Z" fill="#000000" fill-rule="nonzero" fill-opacity="1" /><polyline clip-path="url(#clip250)" style="stroke:#ac8d18; stroke-linecap:round; stroke-linejoin:round; stroke-width:8; stroke-opacity:1; fill:none" points="1977.43,440.536 2141.37,440.536 "/>
<path clip-path="url(#clip250)" d="M2168.69 423.256 L2173.37 423.256 L2173.37 437.423 L2190.36 437.423 L2190.36 423.256 L2195.03 423.256 L2195.03 457.816 L2190.36 457.816 L2190.36 441.358 L2173.37 441.358 L2173.37 457.816 L2168.69 457.816 L2168.69 423.256 Z" fill="#000000" fill-rule="nonzero" fill-opacity="1" /><path clip-path="url(#clip250)" d="M2215.93 444.784 Q2210.77 444.784 2208.78 445.964 Q2206.79 447.145 2206.79 449.992 Q2206.79 452.261 2208.27 453.603 Q2209.78 454.923 2212.35 454.923 Q2215.89 454.923 2218.02 452.423 Q2220.17 449.9 2220.17 445.733 L2220.17 444.784 L2215.93 444.784 M2224.43 443.025 L2224.43 457.816 L2220.17 457.816 L2220.17 453.881 Q2218.71 456.242 2216.54 457.376 Q2214.36 458.488 2211.21 458.488 Q2207.23 458.488 2204.87 456.265 Q2202.53 454.02 2202.53 450.27 Q2202.53 445.895 2205.45 443.673 Q2208.39 441.451 2214.2 441.451 L2220.17 441.451 L2220.17 441.034 Q2220.17 438.094 2218.23 436.497 Q2216.31 434.877 2212.81 434.877 Q2210.59 434.877 2208.48 435.409 Q2206.37 435.941 2204.43 437.006 L2204.43 433.071 Q2206.77 432.168 2208.97 431.728 Q2211.17 431.266 2213.25 431.266 Q2218.87 431.266 2221.65 434.182 Q2224.43 437.099 2224.43 443.025 Z" fill="#000000" fill-rule="nonzero" fill-opacity="1" /><path clip-path="url(#clip250)" d="M2250.26 435.826 L2250.26 421.798 L2254.52 421.798 L2254.52 457.816 L2250.26 457.816 L2250.26 453.927 Q2248.92 456.242 2246.86 457.376 Q2244.82 458.488 2241.95 458.488 Q2237.25 458.488 2234.29 454.738 Q2231.35 450.988 2231.35 444.877 Q2231.35 438.765 2234.29 435.015 Q2237.25 431.266 2241.95 431.266 Q2244.82 431.266 2246.86 432.4 Q2248.92 433.511 2250.26 435.826 M2235.75 444.877 Q2235.75 449.576 2237.67 452.261 Q2239.62 454.923 2242.99 454.923 Q2246.37 454.923 2248.32 452.261 Q2250.26 449.576 2250.26 444.877 Q2250.26 440.177 2248.32 437.515 Q2246.37 434.83 2242.99 434.83 Q2239.62 434.83 2237.67 437.515 Q2235.75 440.177 2235.75 444.877 Z" fill="#000000" fill-rule="nonzero" fill-opacity="1" /><path clip-path="url(#clip250)" d="M2260.82 431.891 L2265.08 431.891 L2270.4 452.122 L2275.7 431.891 L2280.73 431.891 L2286.05 452.122 L2291.35 431.891 L2295.61 431.891 L2288.83 457.816 L2283.8 457.816 L2278.23 436.566 L2272.62 457.816 L2267.6 457.816 L2260.82 431.891 Z" fill="#000000" fill-rule="nonzero" fill-opacity="1" /><path clip-path="url(#clip250)" d="M2302.07 431.891 L2306.33 431.891 L2306.33 457.816 L2302.07 457.816 L2302.07 431.891 M2302.07 421.798 L2306.33 421.798 L2306.33 427.191 L2302.07 427.191 L2302.07 421.798 Z" fill="#000000" fill-rule="nonzero" fill-opacity="1" /><path clip-path="url(#clip250)" d="M2332.3 444.552 Q2332.3 439.923 2330.38 437.377 Q2328.48 434.83 2325.03 434.83 Q2321.61 434.83 2319.68 437.377 Q2317.79 439.923 2317.79 444.552 Q2317.79 449.159 2319.68 451.705 Q2321.61 454.251 2325.03 454.251 Q2328.48 454.251 2330.38 451.705 Q2332.3 449.159 2332.3 444.552 M2336.56 454.599 Q2336.56 461.219 2333.62 464.437 Q2330.68 467.677 2324.61 467.677 Q2322.37 467.677 2320.38 467.33 Q2318.39 467.006 2316.51 466.312 L2316.51 462.168 Q2318.39 463.187 2320.22 463.673 Q2322.05 464.159 2323.94 464.159 Q2328.13 464.159 2330.22 461.96 Q2332.3 459.784 2332.3 455.363 L2332.3 453.256 Q2330.98 455.548 2328.92 456.682 Q2326.86 457.816 2323.99 457.816 Q2319.22 457.816 2316.3 454.182 Q2313.39 450.548 2313.39 444.552 Q2313.39 438.534 2316.3 434.9 Q2319.22 431.266 2323.99 431.266 Q2326.86 431.266 2328.92 432.4 Q2330.98 433.534 2332.3 435.826 L2332.3 431.891 L2336.56 431.891 L2336.56 454.599 Z" fill="#000000" fill-rule="nonzero" fill-opacity="1" /><path clip-path="url(#clip250)" d="M2367.51 443.789 L2367.51 445.872 L2347.92 445.872 Q2348.2 450.27 2350.56 452.585 Q2352.95 454.876 2357.18 454.876 Q2359.64 454.876 2361.93 454.275 Q2364.24 453.673 2366.51 452.469 L2366.51 456.497 Q2364.22 457.469 2361.81 457.978 Q2359.41 458.488 2356.93 458.488 Q2350.73 458.488 2347.09 454.876 Q2343.48 451.265 2343.48 445.108 Q2343.48 438.742 2346.91 435.015 Q2350.36 431.266 2356.19 431.266 Q2361.42 431.266 2364.45 434.645 Q2367.51 438.002 2367.51 443.789 M2363.25 442.539 Q2363.2 439.043 2361.28 436.96 Q2359.38 434.877 2356.23 434.877 Q2352.67 434.877 2350.52 436.89 Q2348.39 438.904 2348.06 442.562 L2363.25 442.539 Z" fill="#000000" fill-rule="nonzero" fill-opacity="1" /><path clip-path="url(#clip250)" d="M2389.52 435.872 Q2388.8 435.455 2387.95 435.27 Q2387.11 435.062 2386.1 435.062 Q2382.48 435.062 2380.54 437.423 Q2378.62 439.761 2378.62 444.159 L2378.62 457.816 L2374.34 457.816 L2374.34 431.891 L2378.62 431.891 L2378.62 435.918 Q2379.96 433.557 2382.11 432.423 Q2384.27 431.266 2387.35 431.266 Q2387.79 431.266 2388.32 431.335 Q2388.85 431.381 2389.5 431.497 L2389.52 435.872 Z" fill="#000000" fill-rule="nonzero" fill-opacity="1" /></svg>
