<?xml version="1.0" encoding="utf-8"?>
<svg xmlns="http://www.w3.org/2000/svg" xmlns:xlink="http://www.w3.org/1999/xlink" width="800" height="350" viewBox="0 0 3200 1400">
<defs>
  <clipPath id="clip160">
    <rect x="0" y="0" width="3200" height="1400"/>
  </clipPath>
</defs>
<path clip-path="url(#clip160)" d="M0 1400 L3200 1400 L3200 0 L0 0  Z" fill="#ffffff" fill-rule="evenodd" fill-opacity="1"/>
<defs>
  <clipPath id="clip161">
    <rect x="1826" y="102" width="1327" height="1152"/>
  </clipPath>
</defs>
<path clip-path="url(#clip160)" d="M211.531 1253.39 L1537.92 1253.39 L1537.92 102.682 L211.531 102.682  Z" fill="#ffffff" fill-rule="evenodd" fill-opacity="1"/>
<defs>
  <clipPath id="clip162">
    <rect x="211" y="102" width="1327" height="1152"/>
  </clipPath>
</defs>
<polyline clip-path="url(#clip162)" style="stroke:#000000; stroke-linecap:round; stroke-linejoin:round; stroke-width:2; stroke-opacity:0.1; fill:none" points="249.071,1253.39 249.071,102.682 "/>
<polyline clip-path="url(#clip162)" style="stroke:#000000; stroke-linecap:round; stroke-linejoin:round; stroke-width:2; stroke-opacity:0.1; fill:none" points="569.919,1253.39 569.919,102.682 "/>
<polyline clip-path="url(#clip162)" style="stroke:#000000; stroke-linecap:round; stroke-linejoin:round; stroke-width:2; stroke-opacity:0.1; fill:none" points="890.767,1253.39 890.767,102.682 "/>
<polyline clip-path="url(#clip162)" style="stroke:#000000; stroke-linecap:round; stroke-linejoin:round; stroke-width:2; stroke-opacity:0.1; fill:none" points="1211.62,1253.39 1211.62,102.682 "/>
<polyline clip-path="url(#clip162)" style="stroke:#000000; stroke-linecap:round; stroke-linejoin:round; stroke-width:2; stroke-opacity:0.1; fill:none" points="1532.46,1253.39 1532.46,102.682 "/>
<polyline clip-path="url(#clip162)" style="stroke:#000000; stroke-linecap:round; stroke-linejoin:round; stroke-width:2; stroke-opacity:0.1; fill:none" points="211.531,1243.26 1537.92,1243.26 "/>
<polyline clip-path="url(#clip162)" style="stroke:#000000; stroke-linecap:round; stroke-linejoin:round; stroke-width:2; stroke-opacity:0.1; fill:none" points="211.531,1018.97 1537.92,1018.97 "/>
<polyline clip-path="url(#clip162)" style="stroke:#000000; stroke-linecap:round; stroke-linejoin:round; stroke-width:2; stroke-opacity:0.1; fill:none" points="211.531,794.692 1537.92,794.692 "/>
<polyline clip-path="url(#clip162)" style="stroke:#000000; stroke-linecap:round; stroke-linejoin:round; stroke-width:2; stroke-opacity:0.1; fill:none" points="211.531,570.411 1537.92,570.411 "/>
<polyline clip-path="url(#clip162)" style="stroke:#000000; stroke-linecap:round; stroke-linejoin:round; stroke-width:2; stroke-opacity:0.1; fill:none" points="211.531,346.129 1537.92,346.129 "/>
<polyline clip-path="url(#clip162)" style="stroke:#000000; stroke-linecap:round; stroke-linejoin:round; stroke-width:2; stroke-opacity:0.1; fill:none" points="211.531,121.847 1537.92,121.847 "/>
<polyline clip-path="url(#clip160)" style="stroke:#000000; stroke-linecap:round; stroke-linejoin:round; stroke-width:4; stroke-opacity:1; fill:none" points="211.531,1253.39 1537.92,1253.39 "/>
<polyline clip-path="url(#clip160)" style="stroke:#000000; stroke-linecap:round; stroke-linejoin:round; stroke-width:4; stroke-opacity:1; fill:none" points="249.071,1253.39 249.071,1234.5 "/>
<polyline clip-path="url(#clip160)" style="stroke:#000000; stroke-linecap:round; stroke-linejoin:round; stroke-width:4; stroke-opacity:1; fill:none" points="569.919,1253.39 569.919,1234.5 "/>
<polyline clip-path="url(#clip160)" style="stroke:#000000; stroke-linecap:round; stroke-linejoin:round; stroke-width:4; stroke-opacity:1; fill:none" points="890.767,1253.39 890.767,1234.5 "/>
<polyline clip-path="url(#clip160)" style="stroke:#000000; stroke-linecap:round; stroke-linejoin:round; stroke-width:4; stroke-opacity:1; fill:none" points="1211.62,1253.39 1211.62,1234.5 "/>
<polyline clip-path="url(#clip160)" style="stroke:#000000; stroke-linecap:round; stroke-linejoin:round; stroke-width:4; stroke-opacity:1; fill:none" points="1532.46,1253.39 1532.46,1234.5 "/>
<path clip-path="url(#clip160)" d="M249.071 1290.71 Q245.459 1290.71 243.631 1294.28 Q241.825 1297.82 241.825 1304.95 Q241.825 1312.06 243.631 1315.62 Q245.459 1319.16 249.071 1319.16 Q252.705 1319.16 254.51 1315.62 Q256.339 1312.06 256.339 1304.95 Q256.339 1297.82 254.51 1294.28 Q252.705 1290.71 249.071 1290.71 M249.071 1287.01 Q254.881 1287.01 257.936 1291.62 Q261.015 1296.2 261.015 1304.95 Q261.015 1313.68 257.936 1318.28 Q254.881 1322.87 249.071 1322.87 Q243.26 1322.87 240.182 1318.28 Q237.126 1313.68 237.126 1304.95 Q237.126 1296.2 240.182 1291.62 Q243.26 1287.01 249.071 1287.01 Z" fill="#000000" fill-rule="nonzero" fill-opacity="1" /><path clip-path="url(#clip160)" d="M544.606 1318.26 L552.245 1318.26 L552.245 1291.89 L543.935 1293.56 L543.935 1289.3 L552.199 1287.63 L556.875 1287.63 L556.875 1318.26 L564.514 1318.26 L564.514 1322.19 L544.606 1322.19 L544.606 1318.26 Z" fill="#000000" fill-rule="nonzero" fill-opacity="1" /><path clip-path="url(#clip160)" d="M583.958 1290.71 Q580.347 1290.71 578.518 1294.28 Q576.713 1297.82 576.713 1304.95 Q576.713 1312.06 578.518 1315.62 Q580.347 1319.16 583.958 1319.16 Q587.592 1319.16 589.398 1315.62 Q591.227 1312.06 591.227 1304.95 Q591.227 1297.82 589.398 1294.28 Q587.592 1290.71 583.958 1290.71 M583.958 1287.01 Q589.768 1287.01 592.824 1291.62 Q595.902 1296.2 595.902 1304.95 Q595.902 1313.68 592.824 1318.28 Q589.768 1322.87 583.958 1322.87 Q578.148 1322.87 575.069 1318.28 Q572.014 1313.68 572.014 1304.95 Q572.014 1296.2 575.069 1291.62 Q578.148 1287.01 583.958 1287.01 Z" fill="#000000" fill-rule="nonzero" fill-opacity="1" /><path clip-path="url(#clip160)" d="M869.54 1318.26 L885.86 1318.26 L885.86 1322.19 L863.915 1322.19 L863.915 1318.26 Q866.577 1315.51 871.161 1310.88 Q875.767 1306.22 876.948 1304.88 Q879.193 1302.36 880.073 1300.62 Q880.975 1298.86 880.975 1297.17 Q880.975 1294.42 879.031 1292.68 Q877.11 1290.95 874.008 1290.95 Q871.809 1290.95 869.355 1291.71 Q866.925 1292.47 864.147 1294.02 L864.147 1289.3 Q866.971 1288.17 869.425 1287.59 Q871.878 1287.01 873.915 1287.01 Q879.286 1287.01 882.48 1289.7 Q885.674 1292.38 885.674 1296.87 Q885.674 1299 884.864 1300.92 Q884.077 1302.82 881.971 1305.41 Q881.392 1306.08 878.29 1309.3 Q875.188 1312.5 869.54 1318.26 Z" fill="#000000" fill-rule="nonzero" fill-opacity="1" /><path clip-path="url(#clip160)" d="M905.674 1290.71 Q902.063 1290.71 900.235 1294.28 Q898.429 1297.82 898.429 1304.95 Q898.429 1312.06 900.235 1315.62 Q902.063 1319.16 905.674 1319.16 Q909.309 1319.16 911.114 1315.62 Q912.943 1312.06 912.943 1304.95 Q912.943 1297.82 911.114 1294.28 Q909.309 1290.71 905.674 1290.71 M905.674 1287.01 Q911.485 1287.01 914.54 1291.62 Q917.619 1296.2 917.619 1304.95 Q917.619 1313.68 914.54 1318.28 Q911.485 1322.87 905.674 1322.87 Q899.864 1322.87 896.786 1318.28 Q893.73 1313.68 893.73 1304.95 Q893.73 1296.2 896.786 1291.62 Q899.864 1287.01 905.674 1287.01 Z" fill="#000000" fill-rule="nonzero" fill-opacity="1" /><path clip-path="url(#clip160)" d="M1200.46 1303.56 Q1203.81 1304.28 1205.69 1306.55 Q1207.59 1308.82 1207.59 1312.15 Q1207.59 1317.26 1204.07 1320.07 Q1200.55 1322.87 1194.07 1322.87 Q1191.89 1322.87 1189.58 1322.43 Q1187.29 1322.01 1184.83 1321.15 L1184.83 1316.64 Q1186.78 1317.77 1189.09 1318.35 Q1191.41 1318.93 1193.93 1318.93 Q1198.33 1318.93 1200.62 1317.19 Q1202.93 1315.46 1202.93 1312.15 Q1202.93 1309.09 1200.78 1307.38 Q1198.65 1305.64 1194.83 1305.64 L1190.81 1305.64 L1190.81 1301.8 L1195.02 1301.8 Q1198.47 1301.8 1200.3 1300.44 Q1202.12 1299.05 1202.12 1296.45 Q1202.12 1293.79 1200.23 1292.38 Q1198.35 1290.95 1194.83 1290.95 Q1192.91 1290.95 1190.71 1291.36 Q1188.51 1291.78 1185.87 1292.66 L1185.87 1288.49 Q1188.54 1287.75 1190.85 1287.38 Q1193.19 1287.01 1195.25 1287.01 Q1200.57 1287.01 1203.68 1289.44 Q1206.78 1291.85 1206.78 1295.97 Q1206.78 1298.84 1205.13 1300.83 Q1203.49 1302.8 1200.46 1303.56 Z" fill="#000000" fill-rule="nonzero" fill-opacity="1" /><path clip-path="url(#clip160)" d="M1226.45 1290.71 Q1222.84 1290.71 1221.01 1294.28 Q1219.21 1297.82 1219.21 1304.95 Q1219.21 1312.06 1221.01 1315.62 Q1222.84 1319.16 1226.45 1319.16 Q1230.09 1319.16 1231.89 1315.62 Q1233.72 1312.06 1233.72 1304.95 Q1233.72 1297.82 1231.89 1294.28 Q1230.09 1290.71 1226.45 1290.71 M1226.45 1287.01 Q1232.26 1287.01 1235.32 1291.62 Q1238.4 1296.2 1238.4 1304.95 Q1238.4 1313.68 1235.32 1318.28 Q1232.26 1322.87 1226.45 1322.87 Q1220.64 1322.87 1217.56 1318.28 Q1214.51 1313.68 1214.51 1304.95 Q1214.51 1296.2 1217.56 1291.62 Q1220.64 1287.01 1226.45 1287.01 Z" fill="#000000" fill-rule="nonzero" fill-opacity="1" /><path clip-path="url(#clip160)" d="M1520.63 1291.71 L1508.83 1310.16 L1520.63 1310.16 L1520.63 1291.71 M1519.41 1287.63 L1525.29 1287.63 L1525.29 1310.16 L1530.22 1310.16 L1530.22 1314.05 L1525.29 1314.05 L1525.29 1322.19 L1520.63 1322.19 L1520.63 1314.05 L1505.03 1314.05 L1505.03 1309.53 L1519.41 1287.63 Z" fill="#000000" fill-rule="nonzero" fill-opacity="1" /><path clip-path="url(#clip160)" d="M1547.95 1290.71 Q1544.34 1290.71 1542.51 1294.28 Q1540.7 1297.82 1540.7 1304.95 Q1540.7 1312.06 1542.51 1315.62 Q1544.34 1319.16 1547.95 1319.16 Q1551.58 1319.16 1553.39 1315.62 Q1555.22 1312.06 1555.22 1304.95 Q1555.22 1297.82 1553.39 1294.28 Q1551.58 1290.71 1547.95 1290.71 M1547.95 1287.01 Q1553.76 1287.01 1556.82 1291.62 Q1559.89 1296.2 1559.89 1304.95 Q1559.89 1313.68 1556.82 1318.28 Q1553.76 1322.87 1547.95 1322.87 Q1542.14 1322.87 1539.06 1318.28 Q1536.01 1313.68 1536.01 1304.95 Q1536.01 1296.2 1539.06 1291.62 Q1542.14 1287.01 1547.95 1287.01 Z" fill="#000000" fill-rule="nonzero" fill-opacity="1" /><path clip-path="url(#clip160)" d="M835.448 1369.07 L826.727 1392.72 L844.201 1392.72 L835.448 1369.07 M831.82 1362.74 L839.109 1362.74 L857.219 1410.26 L850.535 1410.26 L846.206 1398.07 L824.786 1398.07 L820.457 1410.26 L813.678 1410.26 L831.82 1362.74 Z" fill="#000000" fill-rule="nonzero" fill-opacity="1" /><path clip-path="url(#clip160)" d="M887.361 1392.02 Q887.361 1385.66 884.719 1382.15 Q882.109 1378.65 877.366 1378.65 Q872.656 1378.65 870.014 1382.15 Q867.404 1385.66 867.404 1392.02 Q867.404 1398.35 870.014 1401.86 Q872.656 1405.36 877.366 1405.36 Q882.109 1405.36 884.719 1401.86 Q887.361 1398.35 887.361 1392.02 M893.217 1405.83 Q893.217 1414.94 889.175 1419.36 Q885.133 1423.82 876.793 1423.82 Q873.706 1423.82 870.969 1423.34 Q868.232 1422.89 865.654 1421.94 L865.654 1416.24 Q868.232 1417.64 870.746 1418.31 Q873.261 1418.98 875.87 1418.98 Q881.631 1418.98 884.496 1415.96 Q887.361 1412.96 887.361 1406.89 L887.361 1403.99 Q885.546 1407.14 882.714 1408.7 Q879.881 1410.26 875.934 1410.26 Q869.377 1410.26 865.367 1405.26 Q861.357 1400.26 861.357 1392.02 Q861.357 1383.75 865.367 1378.75 Q869.377 1373.75 875.934 1373.75 Q879.881 1373.75 882.714 1375.31 Q885.546 1376.87 887.361 1380.02 L887.361 1374.61 L893.217 1374.61 L893.217 1405.83 Z" fill="#000000" fill-rule="nonzero" fill-opacity="1" /><path clip-path="url(#clip160)" d="M935.772 1390.97 L935.772 1393.84 L908.845 1393.84 Q909.227 1399.88 912.473 1403.07 Q915.752 1406.22 921.576 1406.22 Q924.95 1406.22 928.101 1405.39 Q931.284 1404.56 934.403 1402.91 L934.403 1408.44 Q931.252 1409.78 927.942 1410.48 Q924.632 1411.18 921.226 1411.18 Q912.696 1411.18 907.699 1406.22 Q902.734 1401.25 902.734 1392.78 Q902.734 1384.03 907.444 1378.91 Q912.187 1373.75 920.208 1373.75 Q927.401 1373.75 931.57 1378.4 Q935.772 1383.01 935.772 1390.97 M929.915 1389.25 Q929.852 1384.45 927.21 1381.58 Q924.6 1378.72 920.271 1378.72 Q915.37 1378.72 912.41 1381.49 Q909.481 1384.25 909.036 1389.28 L929.915 1389.25 Z" fill="#000000" fill-rule="nonzero" fill-opacity="1" /><polyline clip-path="url(#clip160)" style="stroke:#000000; stroke-linecap:round; stroke-linejoin:round; stroke-width:4; stroke-opacity:1; fill:none" points="211.531,1253.39 211.531,102.682 "/>
<polyline clip-path="url(#clip160)" style="stroke:#000000; stroke-linecap:round; stroke-linejoin:round; stroke-width:4; stroke-opacity:1; fill:none" points="211.531,1243.26 230.429,1243.26 "/>
<polyline clip-path="url(#clip160)" style="stroke:#000000; stroke-linecap:round; stroke-linejoin:round; stroke-width:4; stroke-opacity:1; fill:none" points="211.531,1018.97 230.429,1018.97 "/>
<polyline clip-path="url(#clip160)" style="stroke:#000000; stroke-linecap:round; stroke-linejoin:round; stroke-width:4; stroke-opacity:1; fill:none" points="211.531,794.692 230.429,794.692 "/>
<polyline clip-path="url(#clip160)" style="stroke:#000000; stroke-linecap:round; stroke-linejoin:round; stroke-width:4; stroke-opacity:1; fill:none" points="211.531,570.411 230.429,570.411 "/>
<polyline clip-path="url(#clip160)" style="stroke:#000000; stroke-linecap:round; stroke-linejoin:round; stroke-width:4; stroke-opacity:1; fill:none" points="211.531,346.129 230.429,346.129 "/>
<polyline clip-path="url(#clip160)" style="stroke:#000000; stroke-linecap:round; stroke-linejoin:round; stroke-width:4; stroke-opacity:1; fill:none" points="211.531,121.847 230.429,121.847 "/>
<path clip-path="url(#clip160)" d="M106.356 1229.05 Q102.745 1229.05 100.916 1232.62 Q99.1103 1236.16 99.1103 1243.29 Q99.1103 1250.4 100.916 1253.96 Q102.745 1257.5 106.356 1257.5 Q109.99 1257.5 111.795 1253.96 Q113.624 1250.4 113.624 1243.29 Q113.624 1236.16 111.795 1232.62 Q109.99 1229.05 106.356 1229.05 M106.356 1225.35 Q112.166 1225.35 115.221 1229.96 Q118.3 1234.54 118.3 1243.29 Q118.3 1252.02 115.221 1256.62 Q112.166 1261.21 106.356 1261.21 Q100.545 1261.21 97.4668 1256.62 Q94.4113 1252.02 94.4113 1243.29 Q94.4113 1234.54 97.4668 1229.96 Q100.545 1225.35 106.356 1225.35 Z" fill="#000000" fill-rule="nonzero" fill-opacity="1" /><path clip-path="url(#clip160)" d="M126.518 1254.66 L131.402 1254.66 L131.402 1260.54 L126.518 1260.54 L126.518 1254.66 Z" fill="#000000" fill-rule="nonzero" fill-opacity="1" /><path clip-path="url(#clip160)" d="M151.587 1229.05 Q147.976 1229.05 146.147 1232.62 Q144.342 1236.16 144.342 1243.29 Q144.342 1250.4 146.147 1253.96 Q147.976 1257.5 151.587 1257.5 Q155.221 1257.5 157.027 1253.96 Q158.855 1250.4 158.855 1243.29 Q158.855 1236.16 157.027 1232.62 Q155.221 1229.05 151.587 1229.05 M151.587 1225.35 Q157.397 1225.35 160.453 1229.96 Q163.531 1234.54 163.531 1243.29 Q163.531 1252.02 160.453 1256.62 Q157.397 1261.21 151.587 1261.21 Q145.777 1261.21 142.698 1256.62 Q139.643 1252.02 139.643 1243.29 Q139.643 1234.54 142.698 1229.96 Q145.777 1225.35 151.587 1225.35 Z" fill="#000000" fill-rule="nonzero" fill-opacity="1" /><path clip-path="url(#clip160)" d="M107.582 1004.77 Q103.971 1004.77 102.143 1008.34 Q100.337 1011.88 100.337 1019.01 Q100.337 1026.12 102.143 1029.68 Q103.971 1033.22 107.582 1033.22 Q111.217 1033.22 113.022 1029.68 Q114.851 1026.12 114.851 1019.01 Q114.851 1011.88 113.022 1008.34 Q111.217 1004.77 107.582 1004.77 M107.582 1001.07 Q113.393 1001.07 116.448 1005.68 Q119.527 1010.26 119.527 1019.01 Q119.527 1027.74 116.448 1032.34 Q113.393 1036.93 107.582 1036.93 Q101.772 1036.93 98.6937 1032.34 Q95.6381 1027.74 95.6381 1019.01 Q95.6381 1010.26 98.6937 1005.68 Q101.772 1001.07 107.582 1001.07 Z" fill="#000000" fill-rule="nonzero" fill-opacity="1" /><path clip-path="url(#clip160)" d="M127.744 1030.37 L132.629 1030.37 L132.629 1036.25 L127.744 1036.25 L127.744 1030.37 Z" fill="#000000" fill-rule="nonzero" fill-opacity="1" /><path clip-path="url(#clip160)" d="M143.624 1032.32 L151.263 1032.32 L151.263 1005.95 L142.953 1007.62 L142.953 1003.36 L151.217 1001.69 L155.892 1001.69 L155.892 1032.32 L163.531 1032.32 L163.531 1036.25 L143.624 1036.25 L143.624 1032.32 Z" fill="#000000" fill-rule="nonzero" fill-opacity="1" /><path clip-path="url(#clip160)" d="M107.953 780.491 Q104.342 780.491 102.513 784.056 Q100.708 787.598 100.708 794.727 Q100.708 801.834 102.513 805.398 Q104.342 808.94 107.953 808.94 Q111.587 808.94 113.393 805.398 Q115.221 801.834 115.221 794.727 Q115.221 787.598 113.393 784.056 Q111.587 780.491 107.953 780.491 M107.953 776.787 Q113.763 776.787 116.819 781.394 Q119.897 785.977 119.897 794.727 Q119.897 803.454 116.819 808.06 Q113.763 812.644 107.953 812.644 Q102.143 812.644 99.064 808.06 Q96.0085 803.454 96.0085 794.727 Q96.0085 785.977 99.064 781.394 Q102.143 776.787 107.953 776.787 Z" fill="#000000" fill-rule="nonzero" fill-opacity="1" /><path clip-path="url(#clip160)" d="M128.115 806.093 L132.999 806.093 L132.999 811.972 L128.115 811.972 L128.115 806.093 Z" fill="#000000" fill-rule="nonzero" fill-opacity="1" /><path clip-path="url(#clip160)" d="M147.212 808.037 L163.531 808.037 L163.531 811.972 L141.587 811.972 L141.587 808.037 Q144.249 805.283 148.832 800.653 Q153.439 796 154.619 794.658 Q156.865 792.135 157.744 790.398 Q158.647 788.639 158.647 786.949 Q158.647 784.195 156.703 782.459 Q154.781 780.723 151.679 780.723 Q149.48 780.723 147.027 781.486 Q144.596 782.25 141.818 783.801 L141.818 779.079 Q144.642 777.945 147.096 777.366 Q149.55 776.787 151.587 776.787 Q156.957 776.787 160.152 779.473 Q163.346 782.158 163.346 786.648 Q163.346 788.778 162.536 790.699 Q161.749 792.598 159.642 795.19 Q159.064 795.861 155.962 799.079 Q152.86 802.273 147.212 808.037 Z" fill="#000000" fill-rule="nonzero" fill-opacity="1" /><path clip-path="url(#clip160)" d="M107.004 556.209 Q103.393 556.209 101.564 559.774 Q99.7585 563.316 99.7585 570.445 Q99.7585 577.552 101.564 581.117 Q103.393 584.658 107.004 584.658 Q110.638 584.658 112.444 581.117 Q114.272 577.552 114.272 570.445 Q114.272 563.316 112.444 559.774 Q110.638 556.209 107.004 556.209 M107.004 552.506 Q112.814 552.506 115.869 557.112 Q118.948 561.696 118.948 570.445 Q118.948 579.172 115.869 583.779 Q112.814 588.362 107.004 588.362 Q101.194 588.362 98.1149 583.779 Q95.0594 579.172 95.0594 570.445 Q95.0594 561.696 98.1149 557.112 Q101.194 552.506 107.004 552.506 Z" fill="#000000" fill-rule="nonzero" fill-opacity="1" /><path clip-path="url(#clip160)" d="M127.166 581.811 L132.05 581.811 L132.05 587.691 L127.166 587.691 L127.166 581.811 Z" fill="#000000" fill-rule="nonzero" fill-opacity="1" /><path clip-path="url(#clip160)" d="M156.402 569.057 Q159.758 569.774 161.633 572.043 Q163.531 574.311 163.531 577.645 Q163.531 582.76 160.013 585.561 Q156.494 588.362 150.013 588.362 Q147.837 588.362 145.522 587.922 Q143.23 587.506 140.777 586.649 L140.777 582.135 Q142.721 583.269 145.036 583.848 Q147.351 584.427 149.874 584.427 Q154.272 584.427 156.564 582.691 Q158.879 580.955 158.879 577.645 Q158.879 574.589 156.726 572.876 Q154.596 571.14 150.777 571.14 L146.749 571.14 L146.749 567.297 L150.962 567.297 Q154.411 567.297 156.24 565.932 Q158.068 564.543 158.068 561.95 Q158.068 559.288 156.17 557.876 Q154.295 556.441 150.777 556.441 Q148.855 556.441 146.656 556.858 Q144.457 557.274 141.818 558.154 L141.818 553.987 Q144.48 553.247 146.795 552.876 Q149.133 552.506 151.193 552.506 Q156.517 552.506 159.619 554.936 Q162.721 557.344 162.721 561.464 Q162.721 564.334 161.078 566.325 Q159.434 568.293 156.402 569.057 Z" fill="#000000" fill-rule="nonzero" fill-opacity="1" /><path clip-path="url(#clip160)" d="M105.87 331.928 Q102.258 331.928 100.43 335.493 Q98.6242 339.034 98.6242 346.164 Q98.6242 353.27 100.43 356.835 Q102.258 360.377 105.87 360.377 Q109.504 360.377 111.309 356.835 Q113.138 353.27 113.138 346.164 Q113.138 339.034 111.309 335.493 Q109.504 331.928 105.87 331.928 M105.87 328.224 Q111.68 328.224 114.735 332.831 Q117.814 337.414 117.814 346.164 Q117.814 354.891 114.735 359.497 Q111.68 364.08 105.87 364.08 Q100.059 364.08 96.9807 359.497 Q93.9252 354.891 93.9252 346.164 Q93.9252 337.414 96.9807 332.831 Q100.059 328.224 105.87 328.224 Z" fill="#000000" fill-rule="nonzero" fill-opacity="1" /><path clip-path="url(#clip160)" d="M126.031 357.53 L130.916 357.53 L130.916 363.409 L126.031 363.409 L126.031 357.53 Z" fill="#000000" fill-rule="nonzero" fill-opacity="1" /><path clip-path="url(#clip160)" d="M153.948 332.923 L142.142 351.372 L153.948 351.372 L153.948 332.923 M152.721 328.849 L158.601 328.849 L158.601 351.372 L163.531 351.372 L163.531 355.261 L158.601 355.261 L158.601 363.409 L153.948 363.409 L153.948 355.261 L138.346 355.261 L138.346 350.747 L152.721 328.849 Z" fill="#000000" fill-rule="nonzero" fill-opacity="1" /><path clip-path="url(#clip160)" d="M107.351 107.646 Q103.74 107.646 101.911 111.211 Q100.106 114.753 100.106 121.882 Q100.106 128.989 101.911 132.553 Q103.74 136.095 107.351 136.095 Q110.985 136.095 112.791 132.553 Q114.619 128.989 114.619 121.882 Q114.619 114.753 112.791 111.211 Q110.985 107.646 107.351 107.646 M107.351 103.943 Q113.161 103.943 116.217 108.549 Q119.295 113.132 119.295 121.882 Q119.295 130.609 116.217 135.215 Q113.161 139.799 107.351 139.799 Q101.541 139.799 98.4622 135.215 Q95.4066 130.609 95.4066 121.882 Q95.4066 113.132 98.4622 108.549 Q101.541 103.943 107.351 103.943 Z" fill="#000000" fill-rule="nonzero" fill-opacity="1" /><path clip-path="url(#clip160)" d="M127.513 133.248 L132.397 133.248 L132.397 139.127 L127.513 139.127 L127.513 133.248 Z" fill="#000000" fill-rule="nonzero" fill-opacity="1" /><path clip-path="url(#clip160)" d="M142.629 104.567 L160.985 104.567 L160.985 108.503 L146.911 108.503 L146.911 116.975 Q147.929 116.628 148.948 116.466 Q149.967 116.28 150.985 116.28 Q156.772 116.28 160.152 119.452 Q163.531 122.623 163.531 128.04 Q163.531 133.618 160.059 136.72 Q156.587 139.799 150.267 139.799 Q148.092 139.799 145.823 139.428 Q143.578 139.058 141.17 138.317 L141.17 133.618 Q143.254 134.753 145.476 135.308 Q147.698 135.864 150.175 135.864 Q154.179 135.864 156.517 133.757 Q158.855 131.651 158.855 128.04 Q158.855 124.429 156.517 122.322 Q154.179 120.216 150.175 120.216 Q148.3 120.216 146.425 120.632 Q144.573 121.049 142.629 121.929 L142.629 104.567 Z" fill="#000000" fill-rule="nonzero" fill-opacity="1" /><path clip-path="url(#clip160)" d="M-15.8508 862.851 L-15.8508 856.421 L3.62822 856.421 L3.62822 833.059 L-15.8508 833.059 L-15.8508 826.63 L31.6692 826.63 L31.6692 833.059 L9.03907 833.059 L9.03907 856.421 L31.6692 856.421 L31.6692 862.851 L-15.8508 862.851 Z" fill="#000000" fill-rule="nonzero" fill-opacity="1" /><path clip-path="url(#clip160)" d="M13.7497 797.889 Q13.7497 804.987 15.3729 807.724 Q16.9962 810.461 20.9111 810.461 Q24.0303 810.461 25.8764 808.424 Q27.6906 806.355 27.6906 802.822 Q27.6906 797.952 24.2531 795.024 Q20.7838 792.064 15.0547 792.064 L13.7497 792.064 L13.7497 797.889 M11.3307 786.208 L31.6692 786.208 L31.6692 792.064 L26.2583 792.064 Q29.5048 794.069 31.0644 797.061 Q32.5922 800.053 32.5922 804.382 Q32.5922 809.856 29.5366 813.103 Q26.4493 816.318 21.2931 816.318 Q15.2775 816.318 12.2219 812.307 Q9.16638 808.265 9.16638 800.276 L9.16638 792.064 L8.59347 792.064 Q4.55125 792.064 2.35508 794.738 Q0.127081 797.38 0.127081 802.186 Q0.127081 805.241 0.859137 808.138 Q1.59119 811.034 3.05531 813.708 L-2.35554 813.708 Q-3.59686 810.493 -4.2016 807.469 Q-4.83817 804.446 -4.83817 801.581 Q-4.83817 793.847 -0.827775 790.027 Q3.18262 786.208 11.3307 786.208 Z" fill="#000000" fill-rule="nonzero" fill-opacity="1" /><path clip-path="url(#clip160)" d="M-3.9788 776.691 L-3.9788 748.873 L1.36839 748.873 L26.9904 770.898 L26.9904 748.873 L31.6692 748.873 L31.6692 777.487 L26.322 777.487 L0.699995 755.461 L0.699995 776.691 L-3.9788 776.691 Z" fill="#000000" fill-rule="nonzero" fill-opacity="1" /><path clip-path="url(#clip160)" d="M13.7497 723.728 Q13.7497 730.826 15.3729 733.563 Q16.9962 736.301 20.9111 736.301 Q24.0303 736.301 25.8764 734.264 Q27.6906 732.195 27.6906 728.662 Q27.6906 723.792 24.2531 720.864 Q20.7838 717.904 15.0547 717.904 L13.7497 717.904 L13.7497 723.728 M11.3307 712.047 L31.6692 712.047 L31.6692 717.904 L26.2583 717.904 Q29.5048 719.909 31.0644 722.901 Q32.5922 725.893 32.5922 730.221 Q32.5922 735.696 29.5366 738.942 Q26.4493 742.157 21.2931 742.157 Q15.2775 742.157 12.2219 738.147 Q9.16638 734.104 9.16638 726.115 L9.16638 717.904 L8.59347 717.904 Q4.55125 717.904 2.35508 720.577 Q0.127081 723.219 0.127081 728.025 Q0.127081 731.081 0.859137 733.977 Q1.59119 736.874 3.05531 739.547 L-2.35554 739.547 Q-3.59686 736.332 -4.2016 733.309 Q-4.83817 730.285 -4.83817 727.42 Q-4.83817 719.686 -0.827775 715.867 Q3.18262 712.047 11.3307 712.047 Z" fill="#000000" fill-rule="nonzero" fill-opacity="1" /><path clip-path="url(#clip160)" d="M1.49571 679.328 Q0.922794 680.314 0.668166 681.492 Q0.381709 682.638 0.381709 684.038 Q0.381709 689.003 3.62822 691.677 Q6.8429 694.319 12.8903 694.319 L31.6692 694.319 L31.6692 700.207 L-3.9788 700.207 L-3.9788 694.319 L1.55937 694.319 Q-1.68715 692.473 -3.24674 689.513 Q-4.83817 686.553 -4.83817 682.319 Q-4.83817 681.715 -4.74268 680.983 Q-4.67903 680.251 -4.51988 679.359 L1.49571 679.328 Z" fill="#000000" fill-rule="nonzero" fill-opacity="1" /><path clip-path="url(#clip160)" d="M1.43205 650.873 L-17.856 650.873 L-17.856 645.016 L31.6692 645.016 L31.6692 650.873 L26.322 650.873 Q29.5048 652.719 31.0644 655.552 Q32.5922 658.353 32.5922 662.299 Q32.5922 668.76 27.436 672.835 Q22.2797 676.877 13.877 676.877 Q5.47427 676.877 0.318052 672.835 Q-4.83817 668.76 -4.83817 662.299 Q-4.83817 658.353 -3.27857 655.552 Q-1.7508 652.719 1.43205 650.873 M13.877 670.829 Q20.3382 670.829 24.0303 668.188 Q27.6906 665.514 27.6906 660.867 Q27.6906 656.22 24.0303 653.546 Q20.3382 650.873 13.877 650.873 Q7.41582 650.873 3.75553 653.546 Q0.0634241 656.22 0.0634241 660.867 Q0.0634241 665.514 3.75553 668.188 Q7.41582 670.829 13.877 670.829 Z" fill="#000000" fill-rule="nonzero" fill-opacity="1" /><path clip-path="url(#clip160)" d="M10.1531 582.601 L31.6692 582.601 L31.6692 588.457 L10.344 588.457 Q5.2833 588.457 2.76885 590.43 Q0.254395 592.404 0.254395 596.351 Q0.254395 601.093 3.27811 603.83 Q6.30182 606.568 11.5217 606.568 L31.6692 606.568 L31.6692 612.456 L-17.856 612.456 L-17.856 606.568 L1.55937 606.568 Q-1.65532 604.467 -3.24674 601.634 Q-4.83817 598.77 -4.83817 595.046 Q-4.83817 588.903 -1.01875 585.752 Q2.76885 582.601 10.1531 582.601 Z" fill="#000000" fill-rule="nonzero" fill-opacity="1" /><path clip-path="url(#clip160)" d="M-17.7924 556.851 Q-10.4718 561.116 -3.3104 563.185 Q3.85102 565.254 11.2034 565.254 Q18.5558 565.254 25.7809 563.185 Q32.9741 561.085 40.2629 556.851 L40.2629 561.944 Q32.7832 566.718 25.5581 569.105 Q18.333 571.461 11.2034 571.461 Q4.10565 571.461 -3.0876 569.105 Q-10.2808 566.75 -17.7924 561.944 L-17.7924 556.851 Z" fill="#000000" fill-rule="nonzero" fill-opacity="1" /><path clip-path="url(#clip160)" d="M-3.9788 515.856 L13.3678 528.747 L31.6692 515.188 L31.6692 522.095 L17.6646 532.471 L31.6692 542.847 L31.6692 549.754 L13.0176 535.908 L-3.9788 548.576 L-3.9788 541.669 L8.72079 532.216 L-3.9788 522.763 L-3.9788 515.856 Z" fill="#000000" fill-rule="nonzero" fill-opacity="1" /><path clip-path="url(#clip160)" d="M-17.7924 507.835 L-17.7924 502.743 Q-10.2808 497.969 -3.0876 495.613 Q4.10565 493.226 11.2034 493.226 Q18.333 493.226 25.5581 495.613 Q32.7832 497.969 40.2629 502.743 L40.2629 507.835 Q32.9741 503.602 25.7809 501.533 Q18.5558 499.433 11.2034 499.433 Q3.85102 499.433 -3.3104 501.533 Q-10.4718 503.602 -17.7924 507.835 Z" fill="#000000" fill-rule="nonzero" fill-opacity="1" /><path clip-path="url(#clip160)" d="M565.924 63.9476 L565.924 47.7034 L552.556 47.7034 L552.556 40.9789 L574.026 40.9789 L574.026 66.9452 Q569.286 70.3075 563.575 72.0494 Q557.863 73.7508 551.381 73.7508 Q537.203 73.7508 529.183 65.4869 Q521.202 57.1826 521.202 42.3968 Q521.202 27.5705 529.183 19.3066 Q537.203 11.0023 551.381 11.0023 Q557.296 11.0023 562.602 12.4606 Q567.95 13.9189 572.446 16.7545 L572.446 25.464 Q567.909 21.6156 562.805 19.6712 Q557.701 17.7268 552.07 17.7268 Q540.971 17.7268 535.38 23.9246 Q529.831 30.1225 529.831 42.3968 Q529.831 54.6305 535.38 60.8284 Q540.971 67.0263 552.07 67.0263 Q556.405 67.0263 559.807 66.2971 Q563.21 65.5274 565.924 63.9476 Z" fill="#000000" fill-rule="nonzero" fill-opacity="1" /><path clip-path="url(#clip160)" d="M606.231 32.4315 Q600.235 32.4315 596.752 37.1306 Q593.268 41.7891 593.268 49.9314 Q593.268 58.0738 596.711 62.7728 Q600.195 67.4314 606.231 67.4314 Q612.186 67.4314 615.669 62.7323 Q619.153 58.0333 619.153 49.9314 Q619.153 41.8701 615.669 37.1711 Q612.186 32.4315 606.231 32.4315 M606.231 26.1121 Q615.953 26.1121 621.503 32.4315 Q627.052 38.7509 627.052 49.9314 Q627.052 61.0714 621.503 67.4314 Q615.953 73.7508 606.231 73.7508 Q596.468 73.7508 590.918 67.4314 Q585.409 61.0714 585.409 49.9314 Q585.409 38.7509 590.918 32.4315 Q596.468 26.1121 606.231 26.1121 Z" fill="#000000" fill-rule="nonzero" fill-opacity="1" /><path clip-path="url(#clip160)" d="M674.732 35.9153 Q677.527 30.8922 681.415 28.5022 Q685.304 26.1121 690.571 26.1121 Q697.66 26.1121 701.508 31.0947 Q705.356 36.0368 705.356 45.1919 L705.356 72.576 L697.862 72.576 L697.862 45.4349 Q697.862 38.913 695.553 35.7533 Q693.244 32.5936 688.505 32.5936 Q682.712 32.5936 679.35 36.4419 Q675.987 40.2903 675.987 46.9338 L675.987 72.576 L668.493 72.576 L668.493 45.4349 Q668.493 38.8725 666.184 35.7533 Q663.875 32.5936 659.055 32.5936 Q653.343 32.5936 649.98 36.4824 Q646.618 40.3308 646.618 46.9338 L646.618 72.576 L639.124 72.576 L639.124 27.2059 L646.618 27.2059 L646.618 34.2544 Q649.17 30.082 652.735 28.0971 Q656.3 26.1121 661.201 26.1121 Q666.144 26.1121 669.587 28.6237 Q673.071 31.1352 674.732 35.9153 Z" fill="#000000" fill-rule="nonzero" fill-opacity="1" /><path clip-path="url(#clip160)" d="M727.434 65.7705 L727.434 89.8329 L719.94 89.8329 L719.94 27.2059 L727.434 27.2059 L727.434 34.0924 Q729.783 30.0415 733.348 28.0971 Q736.953 26.1121 741.936 26.1121 Q750.2 26.1121 755.344 32.6746 Q760.53 39.2371 760.53 49.9314 Q760.53 60.6258 755.344 67.1883 Q750.2 73.7508 741.936 73.7508 Q736.953 73.7508 733.348 71.8063 Q729.783 69.8214 727.434 65.7705 M752.792 49.9314 Q752.792 41.7081 749.39 37.0496 Q746.027 32.3505 740.113 32.3505 Q734.199 32.3505 730.796 37.0496 Q727.434 41.7081 727.434 49.9314 Q727.434 58.1548 730.796 62.8538 Q734.199 67.5124 740.113 67.5124 Q746.027 67.5124 749.39 62.8538 Q752.792 58.1548 752.792 49.9314 Z" fill="#000000" fill-rule="nonzero" fill-opacity="1" /><path clip-path="url(#clip160)" d="M811.693 48.0275 L811.693 51.6733 L777.422 51.6733 Q777.908 59.3701 782.04 63.421 Q786.212 67.4314 793.626 67.4314 Q797.92 67.4314 801.93 66.3781 Q805.981 65.3249 809.951 63.2184 L809.951 70.267 Q805.94 71.9684 801.727 72.8596 Q797.514 73.7508 793.18 73.7508 Q782.324 73.7508 775.964 67.4314 Q769.644 61.1119 769.644 50.3365 Q769.644 39.1965 775.64 32.6746 Q781.675 26.1121 791.884 26.1121 Q801.039 26.1121 806.345 32.0264 Q811.693 37.9003 811.693 48.0275 M804.239 45.84 Q804.158 39.7232 800.796 36.0774 Q797.474 32.4315 791.965 32.4315 Q785.726 32.4315 781.959 35.9558 Q778.232 39.4801 777.665 45.8805 L804.239 45.84 Z" fill="#000000" fill-rule="nonzero" fill-opacity="1" /><path clip-path="url(#clip160)" d="M850.217 34.1734 Q848.961 33.4443 847.462 33.1202 Q846.004 32.7556 844.221 32.7556 Q837.902 32.7556 834.499 36.8875 Q831.137 40.9789 831.137 48.6757 L831.137 72.576 L823.643 72.576 L823.643 27.2059 L831.137 27.2059 L831.137 34.2544 Q833.486 30.1225 837.254 28.1376 Q841.021 26.1121 846.409 26.1121 Q847.178 26.1121 848.11 26.2337 Q849.042 26.3147 850.176 26.5172 L850.217 34.1734 Z" fill="#000000" fill-rule="nonzero" fill-opacity="1" /><path clip-path="url(#clip160)" d="M865.408 14.324 L865.408 27.2059 L880.76 27.2059 L880.76 32.9987 L865.408 32.9987 L865.408 57.6282 Q865.408 63.1779 866.906 64.7578 Q868.446 66.3376 873.104 66.3376 L880.76 66.3376 L880.76 72.576 L873.104 72.576 Q864.476 72.576 861.195 69.3758 Q857.913 66.1351 857.913 57.6282 L857.913 32.9987 L852.445 32.9987 L852.445 27.2059 L857.913 27.2059 L857.913 14.324 L865.408 14.324 Z" fill="#000000" fill-rule="nonzero" fill-opacity="1" /><path clip-path="url(#clip160)" d="M887.323 27.2059 L922.728 27.2059 L922.728 34.0114 L894.696 66.6212 L922.728 66.6212 L922.728 72.576 L886.31 72.576 L886.31 65.7705 L914.342 33.1607 L887.323 33.1607 L887.323 27.2059 Z" fill="#000000" fill-rule="nonzero" fill-opacity="1" /><path clip-path="url(#clip160)" d="M998.196 45.1919 L998.196 72.576 L990.743 72.576 L990.743 45.4349 Q990.743 38.994 988.231 35.7938 Q985.719 32.5936 980.696 32.5936 Q974.66 32.5936 971.177 36.4419 Q967.693 40.2903 967.693 46.9338 L967.693 72.576 L960.199 72.576 L960.199 9.54393 L967.693 9.54393 L967.693 34.2544 Q970.366 30.163 973.972 28.1376 Q977.618 26.1121 982.357 26.1121 Q990.175 26.1121 994.186 30.9732 Q998.196 35.7938 998.196 45.1919 Z" fill="#000000" fill-rule="nonzero" fill-opacity="1" /><path clip-path="url(#clip160)" d="M1033.68 49.7694 Q1024.65 49.7694 1021.16 51.8354 Q1017.68 53.9013 1017.68 58.8839 Q1017.68 62.8538 1020.27 65.2034 Q1022.91 67.5124 1027.4 67.5124 Q1033.6 67.5124 1037.33 63.1374 Q1041.1 58.7219 1041.1 51.4303 L1041.1 49.7694 L1033.68 49.7694 M1048.55 46.6907 L1048.55 72.576 L1041.1 72.576 L1041.1 65.6895 Q1038.54 69.8214 1034.74 71.8063 Q1030.93 73.7508 1025.42 73.7508 Q1018.45 73.7508 1014.32 69.8619 Q1010.23 65.9325 1010.23 59.3701 Q1010.23 51.7138 1015.33 47.825 Q1020.48 43.9361 1030.64 43.9361 L1041.1 43.9361 L1041.1 43.2069 Q1041.1 38.0623 1037.69 35.2672 Q1034.33 32.4315 1028.21 32.4315 Q1024.32 32.4315 1020.64 33.3632 Q1016.95 34.295 1013.55 36.1584 L1013.55 29.2718 Q1017.64 27.692 1021.49 26.9223 Q1025.34 26.1121 1028.98 26.1121 Q1038.83 26.1121 1043.69 31.2163 Q1048.55 36.3204 1048.55 46.6907 Z" fill="#000000" fill-rule="nonzero" fill-opacity="1" /><path clip-path="url(#clip160)" d="M1060.66 27.2059 L1096.07 27.2059 L1096.07 34.0114 L1068.03 66.6212 L1096.07 66.6212 L1096.07 72.576 L1059.65 72.576 L1059.65 65.7705 L1087.68 33.1607 L1060.66 33.1607 L1060.66 27.2059 Z" fill="#000000" fill-rule="nonzero" fill-opacity="1" /><path clip-path="url(#clip160)" d="M1128.07 49.7694 Q1119.03 49.7694 1115.55 51.8354 Q1112.07 53.9013 1112.07 58.8839 Q1112.07 62.8538 1114.66 65.2034 Q1117.29 67.5124 1121.79 67.5124 Q1127.99 67.5124 1131.71 63.1374 Q1135.48 58.7219 1135.48 51.4303 L1135.48 49.7694 L1128.07 49.7694 M1142.94 46.6907 L1142.94 72.576 L1135.48 72.576 L1135.48 65.6895 Q1132.93 69.8214 1129.12 71.8063 Q1125.31 73.7508 1119.8 73.7508 Q1112.84 73.7508 1108.7 69.8619 Q1104.61 65.9325 1104.61 59.3701 Q1104.61 51.7138 1109.72 47.825 Q1114.86 43.9361 1125.03 43.9361 L1135.48 43.9361 L1135.48 43.2069 Q1135.48 38.0623 1132.08 35.2672 Q1128.72 32.4315 1122.6 32.4315 Q1118.71 32.4315 1115.02 33.3632 Q1111.34 34.295 1107.94 36.1584 L1107.94 29.2718 Q1112.03 27.692 1115.87 26.9223 Q1119.72 26.1121 1123.37 26.1121 Q1133.21 26.1121 1138.07 31.2163 Q1142.94 36.3204 1142.94 46.6907 Z" fill="#000000" fill-rule="nonzero" fill-opacity="1" /><path clip-path="url(#clip160)" d="M1184.58 34.1734 Q1183.32 33.4443 1181.82 33.1202 Q1180.37 32.7556 1178.58 32.7556 Q1172.26 32.7556 1168.86 36.8875 Q1165.5 40.9789 1165.5 48.6757 L1165.5 72.576 L1158 72.576 L1158 27.2059 L1165.5 27.2059 L1165.5 34.2544 Q1167.85 30.1225 1171.62 28.1376 Q1175.38 26.1121 1180.77 26.1121 Q1181.54 26.1121 1182.47 26.2337 Q1183.4 26.3147 1184.54 26.5172 L1184.58 34.1734 Z" fill="#000000" fill-rule="nonzero" fill-opacity="1" /><path clip-path="url(#clip160)" d="M1220.79 34.0924 L1220.79 9.54393 L1228.25 9.54393 L1228.25 72.576 L1220.79 72.576 L1220.79 65.7705 Q1218.44 69.8214 1214.84 71.8063 Q1211.27 73.7508 1206.25 73.7508 Q1198.03 73.7508 1192.84 67.1883 Q1187.7 60.6258 1187.7 49.9314 Q1187.7 39.2371 1192.84 32.6746 Q1198.03 26.1121 1206.25 26.1121 Q1211.27 26.1121 1214.84 28.0971 Q1218.44 30.0415 1220.79 34.0924 M1195.39 49.9314 Q1195.39 58.1548 1198.76 62.8538 Q1202.16 67.5124 1208.07 67.5124 Q1213.99 67.5124 1217.39 62.8538 Q1220.79 58.1548 1220.79 49.9314 Q1220.79 41.7081 1217.39 37.0496 Q1213.99 32.3505 1208.07 32.3505 Q1202.16 32.3505 1198.76 37.0496 Q1195.39 41.7081 1195.39 49.9314 Z" fill="#000000" fill-rule="nonzero" fill-opacity="1" /><polyline clip-path="url(#clip162)" style="stroke:#009af9; stroke-linecap:round; stroke-linejoin:round; stroke-width:8; stroke-opacity:1; fill:none" points="249.071,1220.83 281.155,1218.47 313.24,1215.86 345.325,1212.98 377.41,1209.8 409.495,1206.28 441.579,1202.39 473.664,1198.09 505.749,1193.34 537.834,1188.09 569.919,1182.29 602.004,1175.88 634.088,1168.79 666.173,1160.96 698.258,1152.3 730.343,1142.74 762.428,1132.17 794.513,1120.49 826.597,1107.57 858.682,1093.3 890.767,1077.53 922.852,1060.1 954.937,1040.84 987.022,1019.55 1019.11,996.026 1051.19,970.025 1083.28,941.289 1115.36,909.531 1147.45,874.432 1179.53,835.643 1211.62,792.774 1243.7,745.396 1275.78,693.036 1307.87,635.169 1339.95,571.216 1372.04,500.537 1404.12,422.424 1436.21,336.097 1468.29,240.69 1500.38,135.249 "/>
<path clip-path="url(#clip160)" d="M1826.37 1253.39 L3152.76 1253.39 L3152.76 102.682 L1826.37 102.682  Z" fill="#ffffff" fill-rule="evenodd" fill-opacity="1"/>
<polyline clip-path="url(#clip161)" style="stroke:#000000; stroke-linecap:round; stroke-linejoin:round; stroke-width:2; stroke-opacity:0.1; fill:none" points="1863.91,1253.39 1863.91,102.682 "/>
<polyline clip-path="url(#clip161)" style="stroke:#000000; stroke-linecap:round; stroke-linejoin:round; stroke-width:2; stroke-opacity:0.1; fill:none" points="2184.76,1253.39 2184.76,102.682 "/>
<polyline clip-path="url(#clip161)" style="stroke:#000000; stroke-linecap:round; stroke-linejoin:round; stroke-width:2; stroke-opacity:0.1; fill:none" points="2505.6,1253.39 2505.6,102.682 "/>
<polyline clip-path="url(#clip161)" style="stroke:#000000; stroke-linecap:round; stroke-linejoin:round; stroke-width:2; stroke-opacity:0.1; fill:none" points="2826.45,1253.39 2826.45,102.682 "/>
<polyline clip-path="url(#clip161)" style="stroke:#000000; stroke-linecap:round; stroke-linejoin:round; stroke-width:2; stroke-opacity:0.1; fill:none" points="3147.3,1253.39 3147.3,102.682 "/>
<polyline clip-path="url(#clip161)" style="stroke:#000000; stroke-linecap:round; stroke-linejoin:round; stroke-width:2; stroke-opacity:0.1; fill:none" points="1826.37,1227.58 3152.76,1227.58 "/>
<polyline clip-path="url(#clip161)" style="stroke:#000000; stroke-linecap:round; stroke-linejoin:round; stroke-width:2; stroke-opacity:0.1; fill:none" points="1826.37,951.752 3152.76,951.752 "/>
<polyline clip-path="url(#clip161)" style="stroke:#000000; stroke-linecap:round; stroke-linejoin:round; stroke-width:2; stroke-opacity:0.1; fill:none" points="1826.37,675.925 3152.76,675.925 "/>
<polyline clip-path="url(#clip161)" style="stroke:#000000; stroke-linecap:round; stroke-linejoin:round; stroke-width:2; stroke-opacity:0.1; fill:none" points="1826.37,400.098 3152.76,400.098 "/>
<polyline clip-path="url(#clip161)" style="stroke:#000000; stroke-linecap:round; stroke-linejoin:round; stroke-width:2; stroke-opacity:0.1; fill:none" points="1826.37,124.271 3152.76,124.271 "/>
<polyline clip-path="url(#clip160)" style="stroke:#000000; stroke-linecap:round; stroke-linejoin:round; stroke-width:4; stroke-opacity:1; fill:none" points="1826.37,1253.39 3152.76,1253.39 "/>
<polyline clip-path="url(#clip160)" style="stroke:#000000; stroke-linecap:round; stroke-linejoin:round; stroke-width:4; stroke-opacity:1; fill:none" points="1863.91,1253.39 1863.91,1234.5 "/>
<polyline clip-path="url(#clip160)" style="stroke:#000000; stroke-linecap:round; stroke-linejoin:round; stroke-width:4; stroke-opacity:1; fill:none" points="2184.76,1253.39 2184.76,1234.5 "/>
<polyline clip-path="url(#clip160)" style="stroke:#000000; stroke-linecap:round; stroke-linejoin:round; stroke-width:4; stroke-opacity:1; fill:none" points="2505.6,1253.39 2505.6,1234.5 "/>
<polyline clip-path="url(#clip160)" style="stroke:#000000; stroke-linecap:round; stroke-linejoin:round; stroke-width:4; stroke-opacity:1; fill:none" points="2826.45,1253.39 2826.45,1234.5 "/>
<polyline clip-path="url(#clip160)" style="stroke:#000000; stroke-linecap:round; stroke-linejoin:round; stroke-width:4; stroke-opacity:1; fill:none" points="3147.3,1253.39 3147.3,1234.5 "/>
<path clip-path="url(#clip160)" d="M1863.91 1290.71 Q1860.3 1290.71 1858.47 1294.28 Q1856.66 1297.82 1856.66 1304.95 Q1856.66 1312.06 1858.47 1315.62 Q1860.3 1319.16 1863.91 1319.16 Q1867.54 1319.16 1869.35 1315.62 Q1871.18 1312.06 1871.18 1304.95 Q1871.18 1297.82 1869.35 1294.28 Q1867.54 1290.71 1863.91 1290.71 M1863.91 1287.01 Q1869.72 1287.01 1872.77 1291.62 Q1875.85 1296.2 1875.85 1304.95 Q1875.85 1313.68 1872.77 1318.28 Q1869.72 1322.87 1863.91 1322.87 Q1858.1 1322.87 1855.02 1318.28 Q1851.96 1313.68 1851.96 1304.95 Q1851.96 1296.2 1855.02 1291.62 Q1858.1 1287.01 1863.91 1287.01 Z" fill="#000000" fill-rule="nonzero" fill-opacity="1" /><path clip-path="url(#clip160)" d="M2159.44 1318.26 L2167.08 1318.26 L2167.08 1291.89 L2158.77 1293.56 L2158.77 1289.3 L2167.04 1287.63 L2171.71 1287.63 L2171.71 1318.26 L2179.35 1318.26 L2179.35 1322.19 L2159.44 1322.19 L2159.44 1318.26 Z" fill="#000000" fill-rule="nonzero" fill-opacity="1" /><path clip-path="url(#clip160)" d="M2198.8 1290.71 Q2195.18 1290.71 2193.36 1294.28 Q2191.55 1297.82 2191.55 1304.95 Q2191.55 1312.06 2193.36 1315.62 Q2195.18 1319.16 2198.8 1319.16 Q2202.43 1319.16 2204.24 1315.62 Q2206.06 1312.06 2206.06 1304.95 Q2206.06 1297.82 2204.24 1294.28 Q2202.43 1290.71 2198.8 1290.71 M2198.8 1287.01 Q2204.61 1287.01 2207.66 1291.62 Q2210.74 1296.2 2210.74 1304.95 Q2210.74 1313.68 2207.66 1318.28 Q2204.61 1322.87 2198.8 1322.87 Q2192.99 1322.87 2189.91 1318.28 Q2186.85 1313.68 2186.85 1304.95 Q2186.85 1296.2 2189.91 1291.62 Q2192.99 1287.01 2198.8 1287.01 Z" fill="#000000" fill-rule="nonzero" fill-opacity="1" /><path clip-path="url(#clip160)" d="M2484.38 1318.26 L2500.7 1318.26 L2500.7 1322.19 L2478.75 1322.19 L2478.75 1318.26 Q2481.42 1315.51 2486 1310.88 Q2490.61 1306.22 2491.79 1304.88 Q2494.03 1302.36 2494.91 1300.62 Q2495.81 1298.86 2495.81 1297.17 Q2495.81 1294.42 2493.87 1292.68 Q2491.95 1290.95 2488.85 1290.95 Q2486.65 1290.95 2484.19 1291.71 Q2481.76 1292.47 2478.98 1294.02 L2478.98 1289.3 Q2481.81 1288.17 2484.26 1287.59 Q2486.72 1287.01 2488.75 1287.01 Q2494.12 1287.01 2497.32 1289.7 Q2500.51 1292.38 2500.51 1296.87 Q2500.51 1299 2499.7 1300.92 Q2498.92 1302.82 2496.81 1305.41 Q2496.23 1306.08 2493.13 1309.3 Q2490.03 1312.5 2484.38 1318.26 Z" fill="#000000" fill-rule="nonzero" fill-opacity="1" /><path clip-path="url(#clip160)" d="M2520.51 1290.71 Q2516.9 1290.71 2515.07 1294.28 Q2513.27 1297.82 2513.27 1304.95 Q2513.27 1312.06 2515.07 1315.62 Q2516.9 1319.16 2520.51 1319.16 Q2524.15 1319.16 2525.95 1315.62 Q2527.78 1312.06 2527.78 1304.95 Q2527.78 1297.82 2525.95 1294.28 Q2524.15 1290.71 2520.51 1290.71 M2520.51 1287.01 Q2526.32 1287.01 2529.38 1291.62 Q2532.46 1296.2 2532.46 1304.95 Q2532.46 1313.68 2529.38 1318.28 Q2526.32 1322.87 2520.51 1322.87 Q2514.7 1322.87 2511.62 1318.28 Q2508.57 1313.68 2508.57 1304.95 Q2508.57 1296.2 2511.62 1291.62 Q2514.7 1287.01 2520.51 1287.01 Z" fill="#000000" fill-rule="nonzero" fill-opacity="1" /><path clip-path="url(#clip160)" d="M2815.3 1303.56 Q2818.65 1304.28 2820.53 1306.55 Q2822.43 1308.82 2822.43 1312.15 Q2822.43 1317.26 2818.91 1320.07 Q2815.39 1322.87 2808.91 1322.87 Q2806.73 1322.87 2804.42 1322.43 Q2802.12 1322.01 2799.67 1321.15 L2799.67 1316.64 Q2801.62 1317.77 2803.93 1318.35 Q2806.24 1318.93 2808.77 1318.93 Q2813.17 1318.93 2815.46 1317.19 Q2817.77 1315.46 2817.77 1312.15 Q2817.77 1309.09 2815.62 1307.38 Q2813.49 1305.64 2809.67 1305.64 L2805.64 1305.64 L2805.64 1301.8 L2809.86 1301.8 Q2813.31 1301.8 2815.13 1300.44 Q2816.96 1299.05 2816.96 1296.45 Q2816.96 1293.79 2815.06 1292.38 Q2813.19 1290.95 2809.67 1290.95 Q2807.75 1290.95 2805.55 1291.36 Q2803.35 1291.78 2800.71 1292.66 L2800.71 1288.49 Q2803.37 1287.75 2805.69 1287.38 Q2808.03 1287.01 2810.09 1287.01 Q2815.41 1287.01 2818.51 1289.44 Q2821.62 1291.85 2821.62 1295.97 Q2821.62 1298.84 2819.97 1300.83 Q2818.33 1302.8 2815.3 1303.56 Z" fill="#000000" fill-rule="nonzero" fill-opacity="1" /><path clip-path="url(#clip160)" d="M2841.29 1290.71 Q2837.68 1290.71 2835.85 1294.28 Q2834.05 1297.82 2834.05 1304.95 Q2834.05 1312.06 2835.85 1315.62 Q2837.68 1319.16 2841.29 1319.16 Q2844.93 1319.16 2846.73 1315.62 Q2848.56 1312.06 2848.56 1304.95 Q2848.56 1297.82 2846.73 1294.28 Q2844.93 1290.71 2841.29 1290.71 M2841.29 1287.01 Q2847.1 1287.01 2850.16 1291.62 Q2853.24 1296.2 2853.24 1304.95 Q2853.24 1313.68 2850.16 1318.28 Q2847.1 1322.87 2841.29 1322.87 Q2835.48 1322.87 2832.4 1318.28 Q2829.35 1313.68 2829.35 1304.95 Q2829.35 1296.2 2832.4 1291.62 Q2835.48 1287.01 2841.29 1287.01 Z" fill="#000000" fill-rule="nonzero" fill-opacity="1" /><path clip-path="url(#clip160)" d="M3135.47 1291.71 L3123.67 1310.16 L3135.47 1310.16 L3135.47 1291.71 M3134.25 1287.63 L3140.13 1287.63 L3140.13 1310.16 L3145.06 1310.16 L3145.06 1314.05 L3140.13 1314.05 L3140.13 1322.19 L3135.47 1322.19 L3135.47 1314.05 L3119.87 1314.05 L3119.87 1309.53 L3134.25 1287.63 Z" fill="#000000" fill-rule="nonzero" fill-opacity="1" /><path clip-path="url(#clip160)" d="M3162.79 1290.71 Q3159.18 1290.71 3157.35 1294.28 Q3155.54 1297.82 3155.54 1304.95 Q3155.54 1312.06 3157.35 1315.62 Q3159.18 1319.16 3162.79 1319.16 Q3166.42 1319.16 3168.23 1315.62 Q3170.06 1312.06 3170.06 1304.95 Q3170.06 1297.82 3168.23 1294.28 Q3166.42 1290.71 3162.79 1290.71 M3162.79 1287.01 Q3168.6 1287.01 3171.65 1291.62 Q3174.73 1296.2 3174.73 1304.95 Q3174.73 1313.68 3171.65 1318.28 Q3168.6 1322.87 3162.79 1322.87 Q3156.98 1322.87 3153.9 1318.28 Q3150.84 1313.68 3150.84 1304.95 Q3150.84 1296.2 3153.9 1291.62 Q3156.98 1287.01 3162.79 1287.01 Z" fill="#000000" fill-rule="nonzero" fill-opacity="1" /><path clip-path="url(#clip160)" d="M2450.29 1369.07 L2441.57 1392.72 L2459.04 1392.72 L2450.29 1369.07 M2446.66 1362.74 L2453.95 1362.74 L2472.06 1410.26 L2465.37 1410.26 L2461.04 1398.07 L2439.62 1398.07 L2435.29 1410.26 L2428.52 1410.26 L2446.66 1362.74 Z" fill="#000000" fill-rule="nonzero" fill-opacity="1" /><path clip-path="url(#clip160)" d="M2502.2 1392.02 Q2502.2 1385.66 2499.56 1382.15 Q2496.95 1378.65 2492.2 1378.65 Q2487.49 1378.65 2484.85 1382.15 Q2482.24 1385.66 2482.24 1392.02 Q2482.24 1398.35 2484.85 1401.86 Q2487.49 1405.36 2492.2 1405.36 Q2496.95 1405.36 2499.56 1401.86 Q2502.2 1398.35 2502.2 1392.02 M2508.05 1405.83 Q2508.05 1414.94 2504.01 1419.36 Q2499.97 1423.82 2491.63 1423.82 Q2488.54 1423.82 2485.81 1423.34 Q2483.07 1422.89 2480.49 1421.94 L2480.49 1416.24 Q2483.07 1417.64 2485.58 1418.31 Q2488.1 1418.98 2490.71 1418.98 Q2496.47 1418.98 2499.33 1415.96 Q2502.2 1412.96 2502.2 1406.89 L2502.2 1403.99 Q2500.38 1407.14 2497.55 1408.7 Q2494.72 1410.26 2490.77 1410.26 Q2484.22 1410.26 2480.2 1405.26 Q2476.19 1400.26 2476.19 1392.02 Q2476.19 1383.75 2480.2 1378.75 Q2484.22 1373.75 2490.77 1373.75 Q2494.72 1373.75 2497.55 1375.31 Q2500.38 1376.87 2502.2 1380.02 L2502.2 1374.61 L2508.05 1374.61 L2508.05 1405.83 Z" fill="#000000" fill-rule="nonzero" fill-opacity="1" /><path clip-path="url(#clip160)" d="M2550.61 1390.97 L2550.61 1393.84 L2523.68 1393.84 Q2524.06 1399.88 2527.31 1403.07 Q2530.59 1406.22 2536.41 1406.22 Q2539.79 1406.22 2542.94 1405.39 Q2546.12 1404.56 2549.24 1402.91 L2549.24 1408.44 Q2546.09 1409.78 2542.78 1410.48 Q2539.47 1411.18 2536.06 1411.18 Q2527.53 1411.18 2522.54 1406.22 Q2517.57 1401.25 2517.57 1392.78 Q2517.57 1384.03 2522.28 1378.91 Q2527.02 1373.75 2535.05 1373.75 Q2542.24 1373.75 2546.41 1378.4 Q2550.61 1383.01 2550.61 1390.97 M2544.75 1389.25 Q2544.69 1384.45 2542.05 1381.58 Q2539.44 1378.72 2535.11 1378.72 Q2530.21 1378.72 2527.25 1381.49 Q2524.32 1384.25 2523.87 1389.28 L2544.75 1389.25 Z" fill="#000000" fill-rule="nonzero" fill-opacity="1" /><polyline clip-path="url(#clip160)" style="stroke:#000000; stroke-linecap:round; stroke-linejoin:round; stroke-width:4; stroke-opacity:1; fill:none" points="1826.37,1253.39 1826.37,102.682 "/>
<polyline clip-path="url(#clip160)" style="stroke:#000000; stroke-linecap:round; stroke-linejoin:round; stroke-width:4; stroke-opacity:1; fill:none" points="1826.37,1227.58 1845.27,1227.58 "/>
<polyline clip-path="url(#clip160)" style="stroke:#000000; stroke-linecap:round; stroke-linejoin:round; stroke-width:4; stroke-opacity:1; fill:none" points="1826.37,951.752 1845.27,951.752 "/>
<polyline clip-path="url(#clip160)" style="stroke:#000000; stroke-linecap:round; stroke-linejoin:round; stroke-width:4; stroke-opacity:1; fill:none" points="1826.37,675.925 1845.27,675.925 "/>
<polyline clip-path="url(#clip160)" style="stroke:#000000; stroke-linecap:round; stroke-linejoin:round; stroke-width:4; stroke-opacity:1; fill:none" points="1826.37,400.098 1845.27,400.098 "/>
<polyline clip-path="url(#clip160)" style="stroke:#000000; stroke-linecap:round; stroke-linejoin:round; stroke-width:4; stroke-opacity:1; fill:none" points="1826.37,124.271 1845.27,124.271 "/>
<path clip-path="url(#clip160)" d="M1691.03 1213.38 Q1687.42 1213.38 1685.59 1216.94 Q1683.79 1220.48 1683.79 1227.61 Q1683.79 1234.72 1685.59 1238.29 Q1687.42 1241.83 1691.03 1241.83 Q1694.67 1241.83 1696.47 1238.29 Q1698.3 1234.72 1698.3 1227.61 Q1698.3 1220.48 1696.47 1216.94 Q1694.67 1213.38 1691.03 1213.38 M1691.03 1209.67 Q1696.84 1209.67 1699.9 1214.28 Q1702.98 1218.86 1702.98 1227.61 Q1702.98 1236.34 1699.9 1240.95 Q1696.84 1245.53 1691.03 1245.53 Q1685.22 1245.53 1682.14 1240.95 Q1679.09 1236.34 1679.09 1227.61 Q1679.09 1218.86 1682.14 1214.28 Q1685.22 1209.67 1691.03 1209.67 Z" fill="#000000" fill-rule="nonzero" fill-opacity="1" /><path clip-path="url(#clip160)" d="M1711.19 1238.98 L1716.08 1238.98 L1716.08 1244.86 L1711.19 1244.86 L1711.19 1238.98 Z" fill="#000000" fill-rule="nonzero" fill-opacity="1" /><path clip-path="url(#clip160)" d="M1736.26 1213.38 Q1732.65 1213.38 1730.82 1216.94 Q1729.02 1220.48 1729.02 1227.61 Q1729.02 1234.72 1730.82 1238.29 Q1732.65 1241.83 1736.26 1241.83 Q1739.9 1241.83 1741.7 1238.29 Q1743.53 1234.72 1743.53 1227.61 Q1743.53 1220.48 1741.7 1216.94 Q1739.9 1213.38 1736.26 1213.38 M1736.26 1209.67 Q1742.07 1209.67 1745.13 1214.28 Q1748.21 1218.86 1748.21 1227.61 Q1748.21 1236.34 1745.13 1240.95 Q1742.07 1245.53 1736.26 1245.53 Q1730.45 1245.53 1727.37 1240.95 Q1724.32 1236.34 1724.32 1227.61 Q1724.32 1218.86 1727.37 1214.28 Q1730.45 1209.67 1736.26 1209.67 Z" fill="#000000" fill-rule="nonzero" fill-opacity="1" /><path clip-path="url(#clip160)" d="M1766.42 1213.38 Q1762.81 1213.38 1760.98 1216.94 Q1759.18 1220.48 1759.18 1227.61 Q1759.18 1234.72 1760.98 1238.29 Q1762.81 1241.83 1766.42 1241.83 Q1770.06 1241.83 1771.86 1238.29 Q1773.69 1234.72 1773.69 1227.61 Q1773.69 1220.48 1771.86 1216.94 Q1770.06 1213.38 1766.42 1213.38 M1766.42 1209.67 Q1772.23 1209.67 1775.29 1214.28 Q1778.37 1218.86 1778.37 1227.61 Q1778.37 1236.34 1775.29 1240.95 Q1772.23 1245.53 1766.42 1245.53 Q1760.61 1245.53 1757.54 1240.95 Q1754.48 1236.34 1754.48 1227.61 Q1754.48 1218.86 1757.54 1214.28 Q1760.61 1209.67 1766.42 1209.67 Z" fill="#000000" fill-rule="nonzero" fill-opacity="1" /><path clip-path="url(#clip160)" d="M1692.03 937.551 Q1688.42 937.551 1686.59 941.116 Q1684.78 944.657 1684.78 951.787 Q1684.78 958.893 1686.59 962.458 Q1688.42 966 1692.03 966 Q1695.66 966 1697.47 962.458 Q1699.3 958.893 1699.3 951.787 Q1699.3 944.657 1697.47 941.116 Q1695.66 937.551 1692.03 937.551 M1692.03 933.847 Q1697.84 933.847 1700.89 938.454 Q1703.97 943.037 1703.97 951.787 Q1703.97 960.514 1700.89 965.12 Q1697.84 969.703 1692.03 969.703 Q1686.22 969.703 1683.14 965.12 Q1680.08 960.514 1680.08 951.787 Q1680.08 943.037 1683.14 938.454 Q1686.22 933.847 1692.03 933.847 Z" fill="#000000" fill-rule="nonzero" fill-opacity="1" /><path clip-path="url(#clip160)" d="M1712.19 963.153 L1717.07 963.153 L1717.07 969.032 L1712.19 969.032 L1712.19 963.153 Z" fill="#000000" fill-rule="nonzero" fill-opacity="1" /><path clip-path="url(#clip160)" d="M1731.29 965.097 L1747.61 965.097 L1747.61 969.032 L1725.66 969.032 L1725.66 965.097 Q1728.32 962.342 1732.91 957.713 Q1737.51 953.06 1738.69 951.717 Q1740.94 949.194 1741.82 947.458 Q1742.72 945.699 1742.72 944.009 Q1742.72 941.255 1740.78 939.518 Q1738.86 937.782 1735.75 937.782 Q1733.55 937.782 1731.1 938.546 Q1728.67 939.31 1725.89 940.861 L1725.89 936.139 Q1728.72 935.005 1731.17 934.426 Q1733.62 933.847 1735.66 933.847 Q1741.03 933.847 1744.23 936.532 Q1747.42 939.218 1747.42 943.708 Q1747.42 945.838 1746.61 947.759 Q1745.82 949.657 1743.72 952.25 Q1743.14 952.921 1740.04 956.139 Q1736.93 959.333 1731.29 965.097 Z" fill="#000000" fill-rule="nonzero" fill-opacity="1" /><path clip-path="url(#clip160)" d="M1757.47 934.472 L1775.82 934.472 L1775.82 938.407 L1761.75 938.407 L1761.75 946.88 Q1762.77 946.532 1763.79 946.37 Q1764.8 946.185 1765.82 946.185 Q1771.61 946.185 1774.99 949.356 Q1778.37 952.528 1778.37 957.944 Q1778.37 963.523 1774.9 966.625 Q1771.42 969.703 1765.11 969.703 Q1762.93 969.703 1760.66 969.333 Q1758.42 968.963 1756.01 968.222 L1756.01 963.523 Q1758.09 964.657 1760.31 965.213 Q1762.54 965.768 1765.01 965.768 Q1769.02 965.768 1771.36 963.662 Q1773.69 961.555 1773.69 957.944 Q1773.69 954.333 1771.36 952.227 Q1769.02 950.12 1765.01 950.12 Q1763.14 950.12 1761.26 950.537 Q1759.41 950.954 1757.47 951.833 L1757.47 934.472 Z" fill="#000000" fill-rule="nonzero" fill-opacity="1" /><path clip-path="url(#clip160)" d="M1691.03 661.724 Q1687.42 661.724 1685.59 665.289 Q1683.79 668.83 1683.79 675.96 Q1683.79 683.066 1685.59 686.631 Q1687.42 690.173 1691.03 690.173 Q1694.67 690.173 1696.47 686.631 Q1698.3 683.066 1698.3 675.96 Q1698.3 668.83 1696.47 665.289 Q1694.67 661.724 1691.03 661.724 M1691.03 658.02 Q1696.84 658.02 1699.9 662.627 Q1702.98 667.21 1702.98 675.96 Q1702.98 684.687 1699.9 689.293 Q1696.84 693.877 1691.03 693.877 Q1685.22 693.877 1682.14 689.293 Q1679.09 684.687 1679.09 675.96 Q1679.09 667.21 1682.14 662.627 Q1685.22 658.02 1691.03 658.02 Z" fill="#000000" fill-rule="nonzero" fill-opacity="1" /><path clip-path="url(#clip160)" d="M1711.19 687.326 L1716.08 687.326 L1716.08 693.205 L1711.19 693.205 L1711.19 687.326 Z" fill="#000000" fill-rule="nonzero" fill-opacity="1" /><path clip-path="url(#clip160)" d="M1726.31 658.645 L1744.67 658.645 L1744.67 662.58 L1730.59 662.58 L1730.59 671.053 Q1731.61 670.705 1732.63 670.543 Q1733.65 670.358 1734.67 670.358 Q1740.45 670.358 1743.83 673.529 Q1747.21 676.701 1747.21 682.117 Q1747.21 687.696 1743.74 690.798 Q1740.27 693.877 1733.95 693.877 Q1731.77 693.877 1729.5 693.506 Q1727.26 693.136 1724.85 692.395 L1724.85 687.696 Q1726.93 688.83 1729.16 689.386 Q1731.38 689.941 1733.86 689.941 Q1737.86 689.941 1740.2 687.835 Q1742.54 685.728 1742.54 682.117 Q1742.54 678.506 1740.2 676.4 Q1737.86 674.293 1733.86 674.293 Q1731.98 674.293 1730.11 674.71 Q1728.25 675.127 1726.31 676.006 L1726.31 658.645 Z" fill="#000000" fill-rule="nonzero" fill-opacity="1" /><path clip-path="url(#clip160)" d="M1766.42 661.724 Q1762.81 661.724 1760.98 665.289 Q1759.18 668.83 1759.18 675.96 Q1759.18 683.066 1760.98 686.631 Q1762.81 690.173 1766.42 690.173 Q1770.06 690.173 1771.86 686.631 Q1773.69 683.066 1773.69 675.96 Q1773.69 668.83 1771.86 665.289 Q1770.06 661.724 1766.42 661.724 M1766.42 658.02 Q1772.23 658.02 1775.29 662.627 Q1778.37 667.21 1778.37 675.96 Q1778.37 684.687 1775.29 689.293 Q1772.23 693.877 1766.42 693.877 Q1760.61 693.877 1757.54 689.293 Q1754.48 684.687 1754.48 675.96 Q1754.48 667.21 1757.54 662.627 Q1760.61 658.02 1766.42 658.02 Z" fill="#000000" fill-rule="nonzero" fill-opacity="1" /><path clip-path="url(#clip160)" d="M1692.03 385.897 Q1688.42 385.897 1686.59 389.462 Q1684.78 393.003 1684.78 400.133 Q1684.78 407.239 1686.59 410.804 Q1688.42 414.346 1692.03 414.346 Q1695.66 414.346 1697.47 410.804 Q1699.3 407.239 1699.3 400.133 Q1699.3 393.003 1697.47 389.462 Q1695.66 385.897 1692.03 385.897 M1692.03 382.193 Q1697.84 382.193 1700.89 386.8 Q1703.97 391.383 1703.97 400.133 Q1703.97 408.86 1700.89 413.466 Q1697.84 418.05 1692.03 418.05 Q1686.22 418.05 1683.14 413.466 Q1680.08 408.86 1680.08 400.133 Q1680.08 391.383 1683.14 386.8 Q1686.22 382.193 1692.03 382.193 Z" fill="#000000" fill-rule="nonzero" fill-opacity="1" /><path clip-path="url(#clip160)" d="M1712.19 411.499 L1717.07 411.499 L1717.07 417.378 L1712.19 417.378 L1712.19 411.499 Z" fill="#000000" fill-rule="nonzero" fill-opacity="1" /><path clip-path="url(#clip160)" d="M1726.08 382.818 L1748.3 382.818 L1748.3 384.809 L1735.75 417.378 L1730.87 417.378 L1742.67 386.753 L1726.08 386.753 L1726.08 382.818 Z" fill="#000000" fill-rule="nonzero" fill-opacity="1" /><path clip-path="url(#clip160)" d="M1757.47 382.818 L1775.82 382.818 L1775.82 386.753 L1761.75 386.753 L1761.75 395.226 Q1762.77 394.878 1763.79 394.716 Q1764.8 394.531 1765.82 394.531 Q1771.61 394.531 1774.99 397.702 Q1778.37 400.874 1778.37 406.29 Q1778.37 411.869 1774.9 414.971 Q1771.42 418.05 1765.11 418.05 Q1762.93 418.05 1760.66 417.679 Q1758.42 417.309 1756.01 416.568 L1756.01 411.869 Q1758.09 413.003 1760.31 413.559 Q1762.54 414.114 1765.01 414.114 Q1769.02 414.114 1771.36 412.008 Q1773.69 409.901 1773.69 406.29 Q1773.69 402.679 1771.36 400.573 Q1769.02 398.466 1765.01 398.466 Q1763.14 398.466 1761.26 398.883 Q1759.41 399.3 1757.47 400.179 L1757.47 382.818 Z" fill="#000000" fill-rule="nonzero" fill-opacity="1" /><path clip-path="url(#clip160)" d="M1681.84 137.616 L1689.48 137.616 L1689.48 111.251 L1681.17 112.917 L1681.17 108.658 L1689.43 106.991 L1694.11 106.991 L1694.11 137.616 L1701.75 137.616 L1701.75 141.551 L1681.84 141.551 L1681.84 137.616 Z" fill="#000000" fill-rule="nonzero" fill-opacity="1" /><path clip-path="url(#clip160)" d="M1711.19 135.672 L1716.08 135.672 L1716.08 141.551 L1711.19 141.551 L1711.19 135.672 Z" fill="#000000" fill-rule="nonzero" fill-opacity="1" /><path clip-path="url(#clip160)" d="M1736.26 110.07 Q1732.65 110.07 1730.82 113.635 Q1729.02 117.177 1729.02 124.306 Q1729.02 131.413 1730.82 134.977 Q1732.65 138.519 1736.26 138.519 Q1739.9 138.519 1741.7 134.977 Q1743.53 131.413 1743.53 124.306 Q1743.53 117.177 1741.7 113.635 Q1739.9 110.07 1736.26 110.07 M1736.26 106.366 Q1742.07 106.366 1745.13 110.973 Q1748.21 115.556 1748.21 124.306 Q1748.21 133.033 1745.13 137.639 Q1742.07 142.223 1736.26 142.223 Q1730.45 142.223 1727.37 137.639 Q1724.32 133.033 1724.32 124.306 Q1724.32 115.556 1727.37 110.973 Q1730.45 106.366 1736.26 106.366 Z" fill="#000000" fill-rule="nonzero" fill-opacity="1" /><path clip-path="url(#clip160)" d="M1766.42 110.07 Q1762.81 110.07 1760.98 113.635 Q1759.18 117.177 1759.18 124.306 Q1759.18 131.413 1760.98 134.977 Q1762.81 138.519 1766.42 138.519 Q1770.06 138.519 1771.86 134.977 Q1773.69 131.413 1773.69 124.306 Q1773.69 117.177 1771.86 113.635 Q1770.06 110.07 1766.42 110.07 M1766.42 106.366 Q1772.23 106.366 1775.29 110.973 Q1778.37 115.556 1778.37 124.306 Q1778.37 133.033 1775.29 137.639 Q1772.23 142.223 1766.42 142.223 Q1760.61 142.223 1757.54 137.639 Q1754.48 133.033 1754.48 124.306 Q1754.48 115.556 1757.54 110.973 Q1760.61 106.366 1766.42 106.366 Z" fill="#000000" fill-rule="nonzero" fill-opacity="1" /><path clip-path="url(#clip160)" d="M1570.87 909.734 L1577.14 909.734 Q1575.39 913.395 1574.53 916.641 Q1573.67 919.888 1573.67 922.911 Q1573.67 928.163 1575.71 931.028 Q1577.75 933.86 1581.5 933.86 Q1584.65 933.86 1586.28 931.982 Q1587.87 930.073 1588.85 924.789 L1589.65 920.906 Q1591.02 913.713 1594.49 910.307 Q1597.93 906.87 1603.72 906.87 Q1610.62 906.87 1614.19 911.517 Q1617.75 916.132 1617.75 925.076 Q1617.75 928.449 1616.99 932.269 Q1616.23 936.056 1614.73 940.131 L1608.11 940.131 Q1610.31 936.216 1611.42 932.46 Q1612.53 928.704 1612.53 925.076 Q1612.53 919.569 1610.37 916.577 Q1608.21 913.586 1604.2 913.586 Q1600.69 913.586 1598.72 915.75 Q1596.75 917.882 1595.76 922.784 L1595 926.699 Q1593.56 933.892 1590.51 937.107 Q1587.45 940.322 1582.01 940.322 Q1575.71 940.322 1572.08 935.897 Q1568.45 931.441 1568.45 923.643 Q1568.45 920.301 1569.06 916.832 Q1569.66 913.363 1570.87 909.734 Z" fill="#000000" fill-rule="nonzero" fill-opacity="1" /><path clip-path="url(#clip160)" d="M1602.76 897.703 L1581.18 897.703 L1581.18 891.847 L1602.54 891.847 Q1607.6 891.847 1610.15 889.873 Q1612.66 887.9 1612.66 883.953 Q1612.66 879.211 1609.64 876.473 Q1606.61 873.704 1601.39 873.704 L1581.18 873.704 L1581.18 867.848 L1616.83 867.848 L1616.83 873.704 L1611.36 873.704 Q1614.6 875.837 1616.19 878.67 Q1617.75 881.471 1617.75 885.194 Q1617.75 891.337 1613.93 894.52 Q1610.12 897.703 1602.76 897.703 M1580.32 882.966 L1580.32 882.966 Z" fill="#000000" fill-rule="nonzero" fill-opacity="1" /><path clip-path="url(#clip160)" d="M1586.66 835.128 Q1586.08 836.115 1585.83 837.293 Q1585.54 838.438 1585.54 839.839 Q1585.54 844.804 1588.79 847.478 Q1592.01 850.119 1598.05 850.119 L1616.83 850.119 L1616.83 856.008 L1581.18 856.008 L1581.18 850.119 L1586.72 850.119 Q1583.47 848.273 1581.92 845.313 Q1580.32 842.353 1580.32 838.12 Q1580.32 837.515 1580.42 836.783 Q1580.48 836.051 1580.64 835.16 L1586.66 835.128 Z" fill="#000000" fill-rule="nonzero" fill-opacity="1" /><path clip-path="url(#clip160)" d="M1581.18 833.187 L1581.18 826.98 L1611.1 815.84 L1581.18 804.7 L1581.18 798.494 L1616.83 811.862 L1616.83 819.819 L1581.18 833.187 Z" fill="#000000" fill-rule="nonzero" fill-opacity="1" /><path clip-path="url(#clip160)" d="M1581.18 790.409 L1581.18 784.553 L1616.83 784.553 L1616.83 790.409 L1581.18 790.409 M1567.31 790.409 L1567.31 784.553 L1574.72 784.553 L1574.72 790.409 L1567.31 790.409 Z" fill="#000000" fill-rule="nonzero" fill-opacity="1" /><path clip-path="url(#clip160)" d="M1581.18 776.5 L1581.18 770.293 L1611.1 759.154 L1581.18 748.014 L1581.18 741.807 L1616.83 755.175 L1616.83 763.132 L1581.18 776.5 Z" fill="#000000" fill-rule="nonzero" fill-opacity="1" /><path clip-path="url(#clip160)" d="M1585.29 719.909 Q1585.29 724.62 1588.98 727.357 Q1592.64 730.094 1599.04 730.094 Q1605.44 730.094 1609.13 727.389 Q1612.79 724.651 1612.79 719.909 Q1612.79 715.23 1609.1 712.493 Q1605.4 709.756 1599.04 709.756 Q1592.71 709.756 1589.01 712.493 Q1585.29 715.23 1585.29 719.909 M1580.32 719.909 Q1580.32 712.27 1585.29 707.91 Q1590.25 703.549 1599.04 703.549 Q1607.79 703.549 1612.79 707.91 Q1617.75 712.27 1617.75 719.909 Q1617.75 727.58 1612.79 731.94 Q1607.79 736.269 1599.04 736.269 Q1590.25 736.269 1585.29 731.94 Q1580.32 727.58 1580.32 719.909 Z" fill="#000000" fill-rule="nonzero" fill-opacity="1" /><path clip-path="url(#clip160)" d="M1586.66 673.185 Q1586.08 674.171 1585.83 675.349 Q1585.54 676.495 1585.54 677.895 Q1585.54 682.861 1588.79 685.534 Q1592.01 688.176 1598.05 688.176 L1616.83 688.176 L1616.83 694.064 L1581.18 694.064 L1581.18 688.176 L1586.72 688.176 Q1583.47 686.33 1581.92 683.37 Q1580.32 680.41 1580.32 676.177 Q1580.32 675.572 1580.42 674.84 Q1580.48 674.108 1580.64 673.216 L1586.66 673.185 Z" fill="#000000" fill-rule="nonzero" fill-opacity="1" /><path clip-path="url(#clip160)" d="M1582.23 644.316 L1587.77 644.316 Q1586.5 646.799 1585.86 649.472 Q1585.23 652.146 1585.23 655.011 Q1585.23 659.371 1586.56 661.567 Q1587.9 663.732 1590.57 663.732 Q1592.61 663.732 1593.79 662.172 Q1594.93 660.612 1595.98 655.902 L1596.43 653.897 Q1597.77 647.658 1600.22 645.048 Q1602.64 642.406 1607 642.406 Q1611.96 642.406 1614.86 646.353 Q1617.75 650.268 1617.75 657.143 Q1617.75 660.008 1617.18 663.127 Q1616.64 666.214 1615.53 669.652 L1609.48 669.652 Q1611.17 666.405 1612.03 663.254 Q1612.85 660.103 1612.85 657.016 Q1612.85 652.878 1611.45 650.65 Q1610.02 648.422 1607.44 648.422 Q1605.05 648.422 1603.78 650.045 Q1602.51 651.637 1601.33 657.079 L1600.85 659.116 Q1599.71 664.559 1597.35 666.978 Q1594.97 669.397 1590.83 669.397 Q1585.8 669.397 1583.06 665.832 Q1580.32 662.267 1580.32 655.711 Q1580.32 652.464 1580.8 649.6 Q1581.28 646.735 1582.23 644.316 Z" fill="#000000" fill-rule="nonzero" fill-opacity="1" /><path clip-path="url(#clip160)" d="M1595.32 603.448 L1616.83 603.448 L1616.83 609.305 L1595.51 609.305 Q1590.45 609.305 1587.93 611.278 Q1585.42 613.252 1585.42 617.198 Q1585.42 621.941 1588.44 624.678 Q1591.46 627.415 1596.68 627.415 L1616.83 627.415 L1616.83 633.303 L1567.31 633.303 L1567.31 627.415 L1586.72 627.415 Q1583.51 625.315 1581.92 622.482 Q1580.32 619.617 1580.32 615.893 Q1580.32 609.75 1584.14 606.599 Q1587.93 603.448 1595.32 603.448 Z" fill="#000000" fill-rule="nonzero" fill-opacity="1" /><path clip-path="url(#clip160)" d="M1581.18 591.767 L1581.18 585.911 L1616.83 585.911 L1616.83 591.767 L1581.18 591.767 M1567.31 591.767 L1567.31 585.911 L1574.72 585.911 L1574.72 591.767 L1567.31 591.767 Z" fill="#000000" fill-rule="nonzero" fill-opacity="1" /><path clip-path="url(#clip160)" d="M1611.48 567.991 L1630.39 567.991 L1630.39 573.88 L1581.18 573.88 L1581.18 567.991 L1586.59 567.991 Q1583.41 566.145 1581.88 563.344 Q1580.32 560.512 1580.32 556.597 Q1580.32 550.104 1585.48 546.061 Q1590.64 541.987 1599.04 541.987 Q1607.44 541.987 1612.6 546.061 Q1617.75 550.104 1617.75 556.597 Q1617.75 560.512 1616.23 563.344 Q1614.67 566.145 1611.48 567.991 M1599.04 548.067 Q1592.58 548.067 1588.92 550.74 Q1585.23 553.382 1585.23 558.029 Q1585.23 562.676 1588.92 565.35 Q1592.58 567.991 1599.04 567.991 Q1605.5 567.991 1609.19 565.35 Q1612.85 562.676 1612.85 558.029 Q1612.85 553.382 1609.19 550.74 Q1605.5 548.067 1599.04 548.067 Z" fill="#000000" fill-rule="nonzero" fill-opacity="1" /><path clip-path="url(#clip160)" d="M1567.31 511.559 L1567.31 505.703 L1616.83 505.703 L1616.83 511.559 L1567.31 511.559 Z" fill="#000000" fill-rule="nonzero" fill-opacity="1" /><path clip-path="url(#clip160)" d="M1567.37 479.381 Q1574.69 483.646 1581.85 485.715 Q1589.01 487.783 1596.37 487.783 Q1603.72 487.783 1610.94 485.715 Q1618.14 483.614 1625.42 479.381 L1625.42 484.473 Q1617.95 489.248 1610.72 491.635 Q1603.5 493.99 1596.37 493.99 Q1589.27 493.99 1582.07 491.635 Q1574.88 489.279 1567.37 484.473 L1567.37 479.381 Z" fill="#000000" fill-rule="nonzero" fill-opacity="1" /><path clip-path="url(#clip160)" d="M1581.18 438.386 L1598.53 451.276 L1616.83 437.717 L1616.83 444.624 L1602.83 455 L1616.83 465.376 L1616.83 472.283 L1598.18 458.438 L1581.18 471.105 L1581.18 464.198 L1593.88 454.745 L1581.18 445.292 L1581.18 438.386 Z" fill="#000000" fill-rule="nonzero" fill-opacity="1" /><path clip-path="url(#clip160)" d="M1567.37 430.365 L1567.37 425.272 Q1574.88 420.498 1582.07 418.143 Q1589.27 415.755 1596.37 415.755 Q1603.5 415.755 1610.72 418.143 Q1617.95 420.498 1625.42 425.272 L1625.42 430.365 Q1618.14 426.132 1610.94 424.063 Q1603.72 421.962 1596.37 421.962 Q1589.01 421.962 1581.85 424.063 Q1574.69 426.132 1567.37 430.365 Z" fill="#000000" fill-rule="nonzero" fill-opacity="1" /><path clip-path="url(#clip160)" d="M2067.05 63.9476 L2067.05 47.7034 L2053.69 47.7034 L2053.69 40.9789 L2075.16 40.9789 L2075.16 66.9452 Q2070.42 70.3075 2064.7 72.0494 Q2058.99 73.7508 2052.51 73.7508 Q2038.33 73.7508 2030.31 65.4869 Q2022.33 57.1826 2022.33 42.3968 Q2022.33 27.5705 2030.31 19.3066 Q2038.33 11.0023 2052.51 11.0023 Q2058.42 11.0023 2063.73 12.4606 Q2069.08 13.9189 2073.58 16.7545 L2073.58 25.464 Q2069.04 21.6156 2063.93 19.6712 Q2058.83 17.7268 2053.2 17.7268 Q2042.1 17.7268 2036.51 23.9246 Q2030.96 30.1225 2030.96 42.3968 Q2030.96 54.6305 2036.51 60.8284 Q2042.1 67.0263 2053.2 67.0263 Q2057.53 67.0263 2060.94 66.2971 Q2064.34 65.5274 2067.05 63.9476 Z" fill="#000000" fill-rule="nonzero" fill-opacity="1" /><path clip-path="url(#clip160)" d="M2107.36 32.4315 Q2101.36 32.4315 2097.88 37.1306 Q2094.4 41.7891 2094.4 49.9314 Q2094.4 58.0738 2097.84 62.7728 Q2101.32 67.4314 2107.36 67.4314 Q2113.31 67.4314 2116.8 62.7323 Q2120.28 58.0333 2120.28 49.9314 Q2120.28 41.8701 2116.8 37.1711 Q2113.31 32.4315 2107.36 32.4315 M2107.36 26.1121 Q2117.08 26.1121 2122.63 32.4315 Q2128.18 38.7509 2128.18 49.9314 Q2128.18 61.0714 2122.63 67.4314 Q2117.08 73.7508 2107.36 73.7508 Q2097.6 73.7508 2092.05 67.4314 Q2086.54 61.0714 2086.54 49.9314 Q2086.54 38.7509 2092.05 32.4315 Q2097.6 26.1121 2107.36 26.1121 Z" fill="#000000" fill-rule="nonzero" fill-opacity="1" /><path clip-path="url(#clip160)" d="M2175.86 35.9153 Q2178.66 30.8922 2182.54 28.5022 Q2186.43 26.1121 2191.7 26.1121 Q2198.79 26.1121 2202.64 31.0947 Q2206.49 36.0368 2206.49 45.1919 L2206.49 72.576 L2198.99 72.576 L2198.99 45.4349 Q2198.99 38.913 2196.68 35.7533 Q2194.37 32.5936 2189.63 32.5936 Q2183.84 32.5936 2180.48 36.4419 Q2177.12 40.2903 2177.12 46.9338 L2177.12 72.576 L2169.62 72.576 L2169.62 45.4349 Q2169.62 38.8725 2167.31 35.7533 Q2165 32.5936 2160.18 32.5936 Q2154.47 32.5936 2151.11 36.4824 Q2147.75 40.3308 2147.75 46.9338 L2147.75 72.576 L2140.25 72.576 L2140.25 27.2059 L2147.75 27.2059 L2147.75 34.2544 Q2150.3 30.082 2153.86 28.0971 Q2157.43 26.1121 2162.33 26.1121 Q2167.27 26.1121 2170.72 28.6237 Q2174.2 31.1352 2175.86 35.9153 Z" fill="#000000" fill-rule="nonzero" fill-opacity="1" /><path clip-path="url(#clip160)" d="M2228.56 65.7705 L2228.56 89.8329 L2221.07 89.8329 L2221.07 27.2059 L2228.56 27.2059 L2228.56 34.0924 Q2230.91 30.0415 2234.48 28.0971 Q2238.08 26.1121 2243.07 26.1121 Q2251.33 26.1121 2256.47 32.6746 Q2261.66 39.2371 2261.66 49.9314 Q2261.66 60.6258 2256.47 67.1883 Q2251.33 73.7508 2243.07 73.7508 Q2238.08 73.7508 2234.48 71.8063 Q2230.91 69.8214 2228.56 65.7705 M2253.92 49.9314 Q2253.92 41.7081 2250.52 37.0496 Q2247.16 32.3505 2241.24 32.3505 Q2235.33 32.3505 2231.93 37.0496 Q2228.56 41.7081 2228.56 49.9314 Q2228.56 58.1548 2231.93 62.8538 Q2235.33 67.5124 2241.24 67.5124 Q2247.16 67.5124 2250.52 62.8538 Q2253.92 58.1548 2253.92 49.9314 Z" fill="#000000" fill-rule="nonzero" fill-opacity="1" /><path clip-path="url(#clip160)" d="M2312.82 48.0275 L2312.82 51.6733 L2278.55 51.6733 Q2279.04 59.3701 2283.17 63.421 Q2287.34 67.4314 2294.75 67.4314 Q2299.05 67.4314 2303.06 66.3781 Q2307.11 65.3249 2311.08 63.2184 L2311.08 70.267 Q2307.07 71.9684 2302.86 72.8596 Q2298.64 73.7508 2294.31 73.7508 Q2283.45 73.7508 2277.09 67.4314 Q2270.77 61.1119 2270.77 50.3365 Q2270.77 39.1965 2276.77 32.6746 Q2282.8 26.1121 2293.01 26.1121 Q2302.17 26.1121 2307.47 32.0264 Q2312.82 37.9003 2312.82 48.0275 M2305.37 45.84 Q2305.29 39.7232 2301.92 36.0774 Q2298.6 32.4315 2293.09 32.4315 Q2286.86 32.4315 2283.09 35.9558 Q2279.36 39.4801 2278.79 45.8805 L2305.37 45.84 Z" fill="#000000" fill-rule="nonzero" fill-opacity="1" /><path clip-path="url(#clip160)" d="M2351.35 34.1734 Q2350.09 33.4443 2348.59 33.1202 Q2347.13 32.7556 2345.35 32.7556 Q2339.03 32.7556 2335.63 36.8875 Q2332.27 40.9789 2332.27 48.6757 L2332.27 72.576 L2324.77 72.576 L2324.77 27.2059 L2332.27 27.2059 L2332.27 34.2544 Q2334.62 30.1225 2338.38 28.1376 Q2342.15 26.1121 2347.54 26.1121 Q2348.31 26.1121 2349.24 26.2337 Q2350.17 26.3147 2351.31 26.5172 L2351.35 34.1734 Z" fill="#000000" fill-rule="nonzero" fill-opacity="1" /><path clip-path="url(#clip160)" d="M2366.54 14.324 L2366.54 27.2059 L2381.89 27.2059 L2381.89 32.9987 L2366.54 32.9987 L2366.54 57.6282 Q2366.54 63.1779 2368.04 64.7578 Q2369.57 66.3376 2374.23 66.3376 L2381.89 66.3376 L2381.89 72.576 L2374.23 72.576 Q2365.6 72.576 2362.32 69.3758 Q2359.04 66.1351 2359.04 57.6282 L2359.04 32.9987 L2353.57 32.9987 L2353.57 27.2059 L2359.04 27.2059 L2359.04 14.324 L2366.54 14.324 Z" fill="#000000" fill-rule="nonzero" fill-opacity="1" /><path clip-path="url(#clip160)" d="M2388.45 27.2059 L2423.86 27.2059 L2423.86 34.0114 L2395.82 66.6212 L2423.86 66.6212 L2423.86 72.576 L2387.44 72.576 L2387.44 65.7705 L2415.47 33.1607 L2388.45 33.1607 L2388.45 27.2059 Z" fill="#000000" fill-rule="nonzero" fill-opacity="1" /><path clip-path="url(#clip160)" d="M2490.53 28.5427 L2490.53 35.5912 Q2487.38 33.9709 2483.97 33.1607 Q2480.57 32.3505 2476.92 32.3505 Q2471.37 32.3505 2468.58 34.0519 Q2465.82 35.7533 2465.82 39.156 Q2465.82 41.7486 2467.81 43.2475 Q2469.79 44.7058 2475.79 46.0426 L2478.34 46.6097 Q2486.28 48.3111 2489.6 51.4303 Q2492.97 54.509 2492.97 60.0587 Q2492.97 66.3781 2487.94 70.0644 Q2482.96 73.7508 2474.21 73.7508 Q2470.56 73.7508 2466.59 73.0216 Q2462.66 72.3329 2458.29 70.9151 L2458.29 63.2184 Q2462.42 65.3654 2466.43 66.4591 Q2470.44 67.5124 2474.37 67.5124 Q2479.64 67.5124 2482.47 65.73 Q2485.31 63.9071 2485.31 60.6258 Q2485.31 57.5877 2483.24 55.9673 Q2481.22 54.3469 2474.29 52.8481 L2471.7 52.2405 Q2464.77 50.7821 2461.69 47.7845 Q2458.61 44.7463 2458.61 39.4801 Q2458.61 33.0797 2463.15 29.5959 Q2467.69 26.1121 2476.03 26.1121 Q2480.16 26.1121 2483.81 26.7198 Q2487.46 27.3274 2490.53 28.5427 Z" fill="#000000" fill-rule="nonzero" fill-opacity="1" /><path clip-path="url(#clip160)" d="M2504.06 54.671 L2504.06 27.2059 L2511.52 27.2059 L2511.52 54.3874 Q2511.52 60.8284 2514.03 64.0691 Q2516.54 67.2693 2521.56 67.2693 Q2527.6 67.2693 2531.08 63.421 Q2534.61 59.5726 2534.61 52.9291 L2534.61 27.2059 L2542.06 27.2059 L2542.06 72.576 L2534.61 72.576 L2534.61 65.6084 Q2531.89 69.7404 2528.29 71.7658 Q2524.72 73.7508 2519.98 73.7508 Q2512.17 73.7508 2508.12 68.8897 Q2504.06 64.0286 2504.06 54.671 M2522.82 26.1121 L2522.82 26.1121 Z" fill="#000000" fill-rule="nonzero" fill-opacity="1" /><path clip-path="url(#clip160)" d="M2583.71 34.1734 Q2582.45 33.4443 2580.95 33.1202 Q2579.49 32.7556 2577.71 32.7556 Q2571.39 32.7556 2567.99 36.8875 Q2564.63 40.9789 2564.63 48.6757 L2564.63 72.576 L2557.13 72.576 L2557.13 27.2059 L2564.63 27.2059 L2564.63 34.2544 Q2566.98 30.1225 2570.74 28.1376 Q2574.51 26.1121 2579.9 26.1121 Q2580.67 26.1121 2581.6 26.2337 Q2582.53 26.3147 2583.67 26.5172 L2583.71 34.1734 Z" fill="#000000" fill-rule="nonzero" fill-opacity="1" /><path clip-path="url(#clip160)" d="M2586.18 27.2059 L2594.08 27.2059 L2608.25 65.2844 L2622.43 27.2059 L2630.33 27.2059 L2613.32 72.576 L2603.19 72.576 L2586.18 27.2059 Z" fill="#000000" fill-rule="nonzero" fill-opacity="1" /><path clip-path="url(#clip160)" d="M2640.62 27.2059 L2648.07 27.2059 L2648.07 72.576 L2640.62 72.576 L2640.62 27.2059 M2640.62 9.54393 L2648.07 9.54393 L2648.07 18.9825 L2640.62 18.9825 L2640.62 9.54393 Z" fill="#000000" fill-rule="nonzero" fill-opacity="1" /><path clip-path="url(#clip160)" d="M2658.32 27.2059 L2666.22 27.2059 L2680.4 65.2844 L2694.58 27.2059 L2702.48 27.2059 L2685.46 72.576 L2675.34 72.576 L2658.32 27.2059 Z" fill="#000000" fill-rule="nonzero" fill-opacity="1" /><path clip-path="url(#clip160)" d="M2730.35 32.4315 Q2724.35 32.4315 2720.87 37.1306 Q2717.39 41.7891 2717.39 49.9314 Q2717.39 58.0738 2720.83 62.7728 Q2724.31 67.4314 2730.35 67.4314 Q2736.3 67.4314 2739.79 62.7323 Q2743.27 58.0333 2743.27 49.9314 Q2743.27 41.8701 2739.79 37.1711 Q2736.3 32.4315 2730.35 32.4315 M2730.35 26.1121 Q2740.07 26.1121 2745.62 32.4315 Q2751.17 38.7509 2751.17 49.9314 Q2751.17 61.0714 2745.62 67.4314 Q2740.07 73.7508 2730.35 73.7508 Q2720.59 73.7508 2715.04 67.4314 Q2709.53 61.0714 2709.53 49.9314 Q2709.53 38.7509 2715.04 32.4315 Q2720.59 26.1121 2730.35 26.1121 Z" fill="#000000" fill-rule="nonzero" fill-opacity="1" /><path clip-path="url(#clip160)" d="M2789.82 34.1734 Q2788.56 33.4443 2787.06 33.1202 Q2785.6 32.7556 2783.82 32.7556 Q2777.5 32.7556 2774.1 36.8875 Q2770.74 40.9789 2770.74 48.6757 L2770.74 72.576 L2763.24 72.576 L2763.24 27.2059 L2770.74 27.2059 L2770.74 34.2544 Q2773.09 30.1225 2776.85 28.1376 Q2780.62 26.1121 2786.01 26.1121 Q2786.78 26.1121 2787.71 26.2337 Q2788.64 26.3147 2789.78 26.5172 L2789.82 34.1734 Z" fill="#000000" fill-rule="nonzero" fill-opacity="1" /><path clip-path="url(#clip160)" d="M2826.56 28.5427 L2826.56 35.5912 Q2823.4 33.9709 2819.99 33.1607 Q2816.59 32.3505 2812.95 32.3505 Q2807.4 32.3505 2804.6 34.0519 Q2801.85 35.7533 2801.85 39.156 Q2801.85 41.7486 2803.83 43.2475 Q2805.82 44.7058 2811.81 46.0426 L2814.36 46.6097 Q2822.3 48.3111 2825.63 51.4303 Q2828.99 54.509 2828.99 60.0587 Q2828.99 66.3781 2823.96 70.0644 Q2818.98 73.7508 2810.23 73.7508 Q2806.59 73.7508 2802.62 73.0216 Q2798.69 72.3329 2794.31 70.9151 L2794.31 63.2184 Q2798.44 65.3654 2802.45 66.4591 Q2806.46 67.5124 2810.39 67.5124 Q2815.66 67.5124 2818.5 65.73 Q2821.33 63.9071 2821.33 60.6258 Q2821.33 57.5877 2819.27 55.9673 Q2817.24 54.3469 2810.31 52.8481 L2807.72 52.2405 Q2800.79 50.7821 2797.71 47.7845 Q2794.64 44.7463 2794.64 39.4801 Q2794.64 33.0797 2799.17 29.5959 Q2803.71 26.1121 2812.06 26.1121 Q2816.19 26.1121 2819.83 26.7198 Q2823.48 27.3274 2826.56 28.5427 Z" fill="#000000" fill-rule="nonzero" fill-opacity="1" /><path clip-path="url(#clip160)" d="M2878.57 45.1919 L2878.57 72.576 L2871.12 72.576 L2871.12 45.4349 Q2871.12 38.994 2868.61 35.7938 Q2866.09 32.5936 2861.07 32.5936 Q2855.04 32.5936 2851.55 36.4419 Q2848.07 40.2903 2848.07 46.9338 L2848.07 72.576 L2840.57 72.576 L2840.57 9.54393 L2848.07 9.54393 L2848.07 34.2544 Q2850.74 30.163 2854.35 28.1376 Q2857.99 26.1121 2862.73 26.1121 Q2870.55 26.1121 2874.56 30.9732 Q2878.57 35.7938 2878.57 45.1919 Z" fill="#000000" fill-rule="nonzero" fill-opacity="1" /><path clip-path="url(#clip160)" d="M2893.44 27.2059 L2900.89 27.2059 L2900.89 72.576 L2893.44 72.576 L2893.44 27.2059 M2893.44 9.54393 L2900.89 9.54393 L2900.89 18.9825 L2893.44 18.9825 L2893.44 9.54393 Z" fill="#000000" fill-rule="nonzero" fill-opacity="1" /><path clip-path="url(#clip160)" d="M2923.7 65.7705 L2923.7 89.8329 L2916.2 89.8329 L2916.2 27.2059 L2923.7 27.2059 L2923.7 34.0924 Q2926.05 30.0415 2929.61 28.0971 Q2933.22 26.1121 2938.2 26.1121 Q2946.46 26.1121 2951.61 32.6746 Q2956.79 39.2371 2956.79 49.9314 Q2956.79 60.6258 2951.61 67.1883 Q2946.46 73.7508 2938.2 73.7508 Q2933.22 73.7508 2929.61 71.8063 Q2926.05 69.8214 2923.7 65.7705 M2949.06 49.9314 Q2949.06 41.7081 2945.65 37.0496 Q2942.29 32.3505 2936.38 32.3505 Q2930.46 32.3505 2927.06 37.0496 Q2923.7 41.7081 2923.7 49.9314 Q2923.7 58.1548 2927.06 62.8538 Q2930.46 67.5124 2936.38 67.5124 Q2942.29 67.5124 2945.65 62.8538 Q2949.06 58.1548 2949.06 49.9314 Z" fill="#000000" fill-rule="nonzero" fill-opacity="1" /><polyline clip-path="url(#clip161)" style="stroke:#ff0000; stroke-linecap:round; stroke-linejoin:round; stroke-width:8; stroke-opacity:1; fill:none" points="1863.91,135.249 1895.99,147.255 1928.08,160.37 1960.16,174.679 1992.25,190.27 2024.33,207.232 2056.42,225.656 2088.5,245.63 2120.59,267.242 2152.67,290.575 2184.76,315.702 2216.84,342.689 2248.93,371.586 2281.01,402.426 2313.1,435.218 2345.18,469.945 2377.27,506.557 2409.35,544.964 2441.44,585.036 2473.52,626.591 2505.6,669.397 2537.69,713.168 2569.77,757.56 2601.86,802.179 2633.94,846.579 2666.03,890.279 2698.11,932.767 2730.2,973.527 2762.28,1012.05 2794.37,1047.87 2826.45,1080.57 2858.54,1109.83 2890.62,1135.45 2922.71,1157.33 2954.79,1175.52 2986.88,1190.19 3018.96,1201.65 3051.05,1210.28 3083.13,1216.51 3115.22,1220.83 "/>
</svg>
