<?xml version="1.0" encoding="utf-8"?>
<svg xmlns="http://www.w3.org/2000/svg" xmlns:xlink="http://www.w3.org/1999/xlink" width="800" height="350" viewBox="0 0 3200 1400">
<defs>
  <clipPath id="clip310">
    <rect x="0" y="0" width="3200" height="1400"/>
  </clipPath>
</defs>
<path clip-path="url(#clip310)" d="M0 1400 L3200 1400 L3200 0 L0 0  Z" fill="#ffffff" fill-rule="evenodd" fill-opacity="1"/>
<defs>
  <clipPath id="clip311">
    <rect x="1811" y="102" width="1342" height="1152"/>
  </clipPath>
</defs>
<path clip-path="url(#clip310)" d="M211.207 1253.39 L1552.59 1253.39 L1552.59 102.682 L211.207 102.682  Z" fill="#ffffff" fill-rule="evenodd" fill-opacity="1"/>
<defs>
  <clipPath id="clip312">
    <rect x="211" y="102" width="1342" height="1152"/>
  </clipPath>
</defs>
<polyline clip-path="url(#clip312)" style="stroke:#000000; stroke-linecap:round; stroke-linejoin:round; stroke-width:2; stroke-opacity:0.1; fill:none" points="249.171,1253.39 249.171,102.682 "/>
<polyline clip-path="url(#clip312)" style="stroke:#000000; stroke-linecap:round; stroke-linejoin:round; stroke-width:2; stroke-opacity:0.1; fill:none" points="467.354,1253.39 467.354,102.682 "/>
<polyline clip-path="url(#clip312)" style="stroke:#000000; stroke-linecap:round; stroke-linejoin:round; stroke-width:2; stroke-opacity:0.1; fill:none" points="685.536,1253.39 685.536,102.682 "/>
<polyline clip-path="url(#clip312)" style="stroke:#000000; stroke-linecap:round; stroke-linejoin:round; stroke-width:2; stroke-opacity:0.1; fill:none" points="903.719,1253.39 903.719,102.682 "/>
<polyline clip-path="url(#clip312)" style="stroke:#000000; stroke-linecap:round; stroke-linejoin:round; stroke-width:2; stroke-opacity:0.1; fill:none" points="1121.9,1253.39 1121.9,102.682 "/>
<polyline clip-path="url(#clip312)" style="stroke:#000000; stroke-linecap:round; stroke-linejoin:round; stroke-width:2; stroke-opacity:0.1; fill:none" points="1340.08,1253.39 1340.08,102.682 "/>
<polyline clip-path="url(#clip312)" style="stroke:#000000; stroke-linecap:round; stroke-linejoin:round; stroke-width:2; stroke-opacity:0.1; fill:none" points="211.207,1094.26 1552.59,1094.26 "/>
<polyline clip-path="url(#clip312)" style="stroke:#000000; stroke-linecap:round; stroke-linejoin:round; stroke-width:2; stroke-opacity:0.1; fill:none" points="211.207,851.478 1552.59,851.478 "/>
<polyline clip-path="url(#clip312)" style="stroke:#000000; stroke-linecap:round; stroke-linejoin:round; stroke-width:2; stroke-opacity:0.1; fill:none" points="211.207,608.699 1552.59,608.699 "/>
<polyline clip-path="url(#clip312)" style="stroke:#000000; stroke-linecap:round; stroke-linejoin:round; stroke-width:2; stroke-opacity:0.1; fill:none" points="211.207,365.92 1552.59,365.92 "/>
<polyline clip-path="url(#clip312)" style="stroke:#000000; stroke-linecap:round; stroke-linejoin:round; stroke-width:2; stroke-opacity:0.1; fill:none" points="211.207,123.141 1552.59,123.141 "/>
<polyline clip-path="url(#clip310)" style="stroke:#000000; stroke-linecap:round; stroke-linejoin:round; stroke-width:4; stroke-opacity:1; fill:none" points="211.207,1253.39 1552.59,1253.39 "/>
<polyline clip-path="url(#clip310)" style="stroke:#000000; stroke-linecap:round; stroke-linejoin:round; stroke-width:4; stroke-opacity:1; fill:none" points="249.171,1253.39 249.171,1234.5 "/>
<polyline clip-path="url(#clip310)" style="stroke:#000000; stroke-linecap:round; stroke-linejoin:round; stroke-width:4; stroke-opacity:1; fill:none" points="467.354,1253.39 467.354,1234.5 "/>
<polyline clip-path="url(#clip310)" style="stroke:#000000; stroke-linecap:round; stroke-linejoin:round; stroke-width:4; stroke-opacity:1; fill:none" points="685.536,1253.39 685.536,1234.5 "/>
<polyline clip-path="url(#clip310)" style="stroke:#000000; stroke-linecap:round; stroke-linejoin:round; stroke-width:4; stroke-opacity:1; fill:none" points="903.719,1253.39 903.719,1234.5 "/>
<polyline clip-path="url(#clip310)" style="stroke:#000000; stroke-linecap:round; stroke-linejoin:round; stroke-width:4; stroke-opacity:1; fill:none" points="1121.9,1253.39 1121.9,1234.5 "/>
<polyline clip-path="url(#clip310)" style="stroke:#000000; stroke-linecap:round; stroke-linejoin:round; stroke-width:4; stroke-opacity:1; fill:none" points="1340.08,1253.39 1340.08,1234.5 "/>
<path clip-path="url(#clip310)" d="M249.171 1290.71 Q245.56 1290.71 243.731 1294.28 Q241.926 1297.82 241.926 1304.95 Q241.926 1312.06 243.731 1315.62 Q245.56 1319.16 249.171 1319.16 Q252.805 1319.16 254.611 1315.62 Q256.439 1312.06 256.439 1304.95 Q256.439 1297.82 254.611 1294.28 Q252.805 1290.71 249.171 1290.71 M249.171 1287.01 Q254.981 1287.01 258.037 1291.62 Q261.115 1296.2 261.115 1304.95 Q261.115 1313.68 258.037 1318.28 Q254.981 1322.87 249.171 1322.87 Q243.361 1322.87 240.282 1318.28 Q237.227 1313.68 237.227 1304.95 Q237.227 1296.2 240.282 1291.62 Q243.361 1287.01 249.171 1287.01 Z" fill="#000000" fill-rule="nonzero" fill-opacity="1" /><path clip-path="url(#clip310)" d="M457.631 1287.63 L475.988 1287.63 L475.988 1291.57 L461.914 1291.57 L461.914 1300.04 Q462.932 1299.69 463.951 1299.53 Q464.969 1299.35 465.988 1299.35 Q471.775 1299.35 475.154 1302.52 Q478.534 1305.69 478.534 1311.11 Q478.534 1316.69 475.062 1319.79 Q471.59 1322.87 465.27 1322.87 Q463.094 1322.87 460.826 1322.5 Q458.58 1322.13 456.173 1321.38 L456.173 1316.69 Q458.256 1317.82 460.479 1318.38 Q462.701 1318.93 465.178 1318.93 Q469.182 1318.93 471.52 1316.82 Q473.858 1314.72 473.858 1311.11 Q473.858 1307.5 471.52 1305.39 Q469.182 1303.28 465.178 1303.28 Q463.303 1303.28 461.428 1303.7 Q459.576 1304.12 457.631 1305 L457.631 1287.63 Z" fill="#000000" fill-rule="nonzero" fill-opacity="1" /><path clip-path="url(#clip310)" d="M660.224 1318.26 L667.863 1318.26 L667.863 1291.89 L659.553 1293.56 L659.553 1289.3 L667.816 1287.63 L672.492 1287.63 L672.492 1318.26 L680.131 1318.26 L680.131 1322.19 L660.224 1322.19 L660.224 1318.26 Z" fill="#000000" fill-rule="nonzero" fill-opacity="1" /><path clip-path="url(#clip310)" d="M699.575 1290.71 Q695.964 1290.71 694.136 1294.28 Q692.33 1297.82 692.33 1304.95 Q692.33 1312.06 694.136 1315.62 Q695.964 1319.16 699.575 1319.16 Q703.21 1319.16 705.015 1315.62 Q706.844 1312.06 706.844 1304.95 Q706.844 1297.82 705.015 1294.28 Q703.21 1290.71 699.575 1290.71 M699.575 1287.01 Q705.386 1287.01 708.441 1291.62 Q711.52 1296.2 711.52 1304.95 Q711.52 1313.68 708.441 1318.28 Q705.386 1322.87 699.575 1322.87 Q693.765 1322.87 690.687 1318.28 Q687.631 1313.68 687.631 1304.95 Q687.631 1296.2 690.687 1291.62 Q693.765 1287.01 699.575 1287.01 Z" fill="#000000" fill-rule="nonzero" fill-opacity="1" /><path clip-path="url(#clip310)" d="M878.904 1318.26 L886.543 1318.26 L886.543 1291.89 L878.233 1293.56 L878.233 1289.3 L886.497 1287.63 L891.173 1287.63 L891.173 1318.26 L898.811 1318.26 L898.811 1322.19 L878.904 1322.19 L878.904 1318.26 Z" fill="#000000" fill-rule="nonzero" fill-opacity="1" /><path clip-path="url(#clip310)" d="M908.302 1287.63 L926.658 1287.63 L926.658 1291.57 L912.584 1291.57 L912.584 1300.04 Q913.603 1299.69 914.622 1299.53 Q915.64 1299.35 916.659 1299.35 Q922.446 1299.35 925.825 1302.52 Q929.205 1305.69 929.205 1311.11 Q929.205 1316.69 925.733 1319.79 Q922.26 1322.87 915.941 1322.87 Q913.765 1322.87 911.497 1322.5 Q909.251 1322.13 906.844 1321.38 L906.844 1316.69 Q908.927 1317.82 911.149 1318.38 Q913.372 1318.93 915.848 1318.93 Q919.853 1318.93 922.191 1316.82 Q924.529 1314.72 924.529 1311.11 Q924.529 1307.5 922.191 1305.39 Q919.853 1303.28 915.848 1303.28 Q913.973 1303.28 912.098 1303.7 Q910.247 1304.12 908.302 1305 L908.302 1287.63 Z" fill="#000000" fill-rule="nonzero" fill-opacity="1" /><path clip-path="url(#clip310)" d="M1100.67 1318.26 L1116.99 1318.26 L1116.99 1322.19 L1095.05 1322.19 L1095.05 1318.26 Q1097.71 1315.51 1102.3 1310.88 Q1106.9 1306.22 1108.08 1304.88 Q1110.33 1302.36 1111.21 1300.62 Q1112.11 1298.86 1112.11 1297.17 Q1112.11 1294.42 1110.17 1292.68 Q1108.24 1290.95 1105.14 1290.95 Q1102.94 1290.95 1100.49 1291.71 Q1098.06 1292.47 1095.28 1294.02 L1095.28 1289.3 Q1098.11 1288.17 1100.56 1287.59 Q1103.01 1287.01 1105.05 1287.01 Q1110.42 1287.01 1113.61 1289.7 Q1116.81 1292.38 1116.81 1296.87 Q1116.81 1299 1116 1300.92 Q1115.21 1302.82 1113.11 1305.41 Q1112.53 1306.08 1109.42 1309.3 Q1106.32 1312.5 1100.67 1318.26 Z" fill="#000000" fill-rule="nonzero" fill-opacity="1" /><path clip-path="url(#clip310)" d="M1136.81 1290.71 Q1133.2 1290.71 1131.37 1294.28 Q1129.56 1297.82 1129.56 1304.95 Q1129.56 1312.06 1131.37 1315.62 Q1133.2 1319.16 1136.81 1319.16 Q1140.44 1319.16 1142.25 1315.62 Q1144.08 1312.06 1144.08 1304.95 Q1144.08 1297.82 1142.25 1294.28 Q1140.44 1290.71 1136.81 1290.71 M1136.81 1287.01 Q1142.62 1287.01 1145.67 1291.62 Q1148.75 1296.2 1148.75 1304.95 Q1148.75 1313.68 1145.67 1318.28 Q1142.62 1322.87 1136.81 1322.87 Q1131 1322.87 1127.92 1318.28 Q1124.86 1313.68 1124.86 1304.95 Q1124.86 1296.2 1127.92 1291.62 Q1131 1287.01 1136.81 1287.01 Z" fill="#000000" fill-rule="nonzero" fill-opacity="1" /><path clip-path="url(#clip310)" d="M1319.35 1318.26 L1335.67 1318.26 L1335.67 1322.19 L1313.73 1322.19 L1313.73 1318.26 Q1316.39 1315.51 1320.98 1310.88 Q1325.58 1306.22 1326.76 1304.88 Q1329.01 1302.36 1329.89 1300.62 Q1330.79 1298.86 1330.79 1297.17 Q1330.79 1294.42 1328.85 1292.68 Q1326.92 1290.95 1323.82 1290.95 Q1321.62 1290.95 1319.17 1291.71 Q1316.74 1292.47 1313.96 1294.02 L1313.96 1289.3 Q1316.79 1288.17 1319.24 1287.59 Q1321.69 1287.01 1323.73 1287.01 Q1329.1 1287.01 1332.29 1289.7 Q1335.49 1292.38 1335.49 1296.87 Q1335.49 1299 1334.68 1300.92 Q1333.89 1302.82 1331.79 1305.41 Q1331.21 1306.08 1328.1 1309.3 Q1325 1312.5 1319.35 1318.26 Z" fill="#000000" fill-rule="nonzero" fill-opacity="1" /><path clip-path="url(#clip310)" d="M1345.54 1287.63 L1363.89 1287.63 L1363.89 1291.57 L1349.82 1291.57 L1349.82 1300.04 Q1350.84 1299.69 1351.85 1299.53 Q1352.87 1299.35 1353.89 1299.35 Q1359.68 1299.35 1363.06 1302.52 Q1366.44 1305.69 1366.44 1311.11 Q1366.44 1316.69 1362.97 1319.79 Q1359.49 1322.87 1353.17 1322.87 Q1351 1322.87 1348.73 1322.5 Q1346.48 1322.13 1344.08 1321.38 L1344.08 1316.69 Q1346.16 1317.82 1348.38 1318.38 Q1350.6 1318.93 1353.08 1318.93 Q1357.09 1318.93 1359.42 1316.82 Q1361.76 1314.72 1361.76 1311.11 Q1361.76 1307.5 1359.42 1305.39 Q1357.09 1303.28 1353.08 1303.28 Q1351.21 1303.28 1349.33 1303.7 Q1347.48 1304.12 1345.54 1305 L1345.54 1287.63 Z" fill="#000000" fill-rule="nonzero" fill-opacity="1" /><path clip-path="url(#clip310)" d="M842.624 1369.07 L833.903 1392.72 L851.377 1392.72 L842.624 1369.07 M838.996 1362.74 L846.284 1362.74 L864.395 1410.26 L857.711 1410.26 L853.382 1398.07 L831.962 1398.07 L827.633 1410.26 L820.853 1410.26 L838.996 1362.74 Z" fill="#000000" fill-rule="nonzero" fill-opacity="1" /><path clip-path="url(#clip310)" d="M894.536 1392.02 Q894.536 1385.66 891.895 1382.15 Q889.285 1378.65 884.542 1378.65 Q879.832 1378.65 877.19 1382.15 Q874.58 1385.66 874.58 1392.02 Q874.58 1398.35 877.19 1401.86 Q879.832 1405.36 884.542 1405.36 Q889.285 1405.36 891.895 1401.86 Q894.536 1398.35 894.536 1392.02 M900.393 1405.83 Q900.393 1414.94 896.351 1419.36 Q892.308 1423.82 883.969 1423.82 Q880.882 1423.82 878.145 1423.34 Q875.408 1422.89 872.829 1421.94 L872.829 1416.24 Q875.408 1417.64 877.922 1418.31 Q880.436 1418.98 883.046 1418.98 Q888.807 1418.98 891.672 1415.96 Q894.536 1412.96 894.536 1406.89 L894.536 1403.99 Q892.722 1407.14 889.889 1408.7 Q887.057 1410.26 883.11 1410.26 Q876.553 1410.26 872.543 1405.26 Q868.533 1400.26 868.533 1392.02 Q868.533 1383.75 872.543 1378.75 Q876.553 1373.75 883.11 1373.75 Q887.057 1373.75 889.889 1375.31 Q892.722 1376.87 894.536 1380.02 L894.536 1374.61 L900.393 1374.61 L900.393 1405.83 Z" fill="#000000" fill-rule="nonzero" fill-opacity="1" /><path clip-path="url(#clip310)" d="M942.948 1390.97 L942.948 1393.84 L916.021 1393.84 Q916.403 1399.88 919.649 1403.07 Q922.928 1406.22 928.752 1406.22 Q932.126 1406.22 935.277 1405.39 Q938.46 1404.56 941.579 1402.91 L941.579 1408.44 Q938.428 1409.78 935.118 1410.48 Q931.808 1411.18 928.402 1411.18 Q919.872 1411.18 914.875 1406.22 Q909.91 1401.25 909.91 1392.78 Q909.91 1384.03 914.62 1378.91 Q919.363 1373.75 927.384 1373.75 Q934.577 1373.75 938.746 1378.4 Q942.948 1383.01 942.948 1390.97 M937.091 1389.25 Q937.028 1384.45 934.386 1381.58 Q931.776 1378.72 927.447 1378.72 Q922.546 1378.72 919.586 1381.49 Q916.657 1384.25 916.212 1389.28 L937.091 1389.25 Z" fill="#000000" fill-rule="nonzero" fill-opacity="1" /><polyline clip-path="url(#clip310)" style="stroke:#000000; stroke-linecap:round; stroke-linejoin:round; stroke-width:4; stroke-opacity:1; fill:none" points="211.207,1253.39 211.207,102.682 "/>
<polyline clip-path="url(#clip310)" style="stroke:#000000; stroke-linecap:round; stroke-linejoin:round; stroke-width:4; stroke-opacity:1; fill:none" points="211.207,1094.26 230.105,1094.26 "/>
<polyline clip-path="url(#clip310)" style="stroke:#000000; stroke-linecap:round; stroke-linejoin:round; stroke-width:4; stroke-opacity:1; fill:none" points="211.207,851.478 230.105,851.478 "/>
<polyline clip-path="url(#clip310)" style="stroke:#000000; stroke-linecap:round; stroke-linejoin:round; stroke-width:4; stroke-opacity:1; fill:none" points="211.207,608.699 230.105,608.699 "/>
<polyline clip-path="url(#clip310)" style="stroke:#000000; stroke-linecap:round; stroke-linejoin:round; stroke-width:4; stroke-opacity:1; fill:none" points="211.207,365.92 230.105,365.92 "/>
<polyline clip-path="url(#clip310)" style="stroke:#000000; stroke-linecap:round; stroke-linejoin:round; stroke-width:4; stroke-opacity:1; fill:none" points="211.207,123.141 230.105,123.141 "/>
<path clip-path="url(#clip310)" d="M105.87 1080.06 Q102.258 1080.06 100.43 1083.62 Q98.6242 1087.16 98.6242 1094.29 Q98.6242 1101.4 100.43 1104.96 Q102.258 1108.5 105.87 1108.5 Q109.504 1108.5 111.309 1104.96 Q113.138 1101.4 113.138 1094.29 Q113.138 1087.16 111.309 1083.62 Q109.504 1080.06 105.87 1080.06 M105.87 1076.35 Q111.68 1076.35 114.735 1080.96 Q117.814 1085.54 117.814 1094.29 Q117.814 1103.02 114.735 1107.62 Q111.68 1112.21 105.87 1112.21 Q100.059 1112.21 96.9807 1107.62 Q93.9252 1103.02 93.9252 1094.29 Q93.9252 1085.54 96.9807 1080.96 Q100.059 1076.35 105.87 1076.35 Z" fill="#000000" fill-rule="nonzero" fill-opacity="1" /><path clip-path="url(#clip310)" d="M126.031 1105.66 L130.916 1105.66 L130.916 1111.54 L126.031 1111.54 L126.031 1105.66 Z" fill="#000000" fill-rule="nonzero" fill-opacity="1" /><path clip-path="url(#clip310)" d="M151.679 1092.39 Q148.531 1092.39 146.68 1094.55 Q144.851 1096.7 144.851 1100.45 Q144.851 1104.18 146.68 1106.35 Q148.531 1108.5 151.679 1108.5 Q154.828 1108.5 156.656 1106.35 Q158.508 1104.18 158.508 1100.45 Q158.508 1096.7 156.656 1094.55 Q154.828 1092.39 151.679 1092.39 M160.962 1077.74 L160.962 1082 Q159.203 1081.17 157.397 1080.73 Q155.615 1080.29 153.855 1080.29 Q149.226 1080.29 146.772 1083.41 Q144.342 1086.54 143.994 1092.86 Q145.36 1090.84 147.42 1089.78 Q149.48 1088.69 151.957 1088.69 Q157.166 1088.69 160.175 1091.86 Q163.207 1095.01 163.207 1100.45 Q163.207 1105.77 160.059 1108.99 Q156.911 1112.21 151.679 1112.21 Q145.684 1112.21 142.513 1107.62 Q139.342 1103.02 139.342 1094.29 Q139.342 1086.1 143.23 1081.24 Q147.119 1076.35 153.67 1076.35 Q155.429 1076.35 157.212 1076.7 Q159.017 1077.05 160.962 1077.74 Z" fill="#000000" fill-rule="nonzero" fill-opacity="1" /><path clip-path="url(#clip310)" d="M106.934 837.277 Q103.323 837.277 101.495 840.841 Q99.689 844.383 99.689 851.513 Q99.689 858.619 101.495 862.184 Q103.323 865.726 106.934 865.726 Q110.569 865.726 112.374 862.184 Q114.203 858.619 114.203 851.513 Q114.203 844.383 112.374 840.841 Q110.569 837.277 106.934 837.277 M106.934 833.573 Q112.745 833.573 115.8 838.179 Q118.879 842.763 118.879 851.513 Q118.879 860.239 115.8 864.846 Q112.745 869.429 106.934 869.429 Q101.124 869.429 98.0455 864.846 Q94.99 860.239 94.99 851.513 Q94.99 842.763 98.0455 838.179 Q101.124 833.573 106.934 833.573 Z" fill="#000000" fill-rule="nonzero" fill-opacity="1" /><path clip-path="url(#clip310)" d="M127.096 862.878 L131.981 862.878 L131.981 868.758 L127.096 868.758 L127.096 862.878 Z" fill="#000000" fill-rule="nonzero" fill-opacity="1" /><path clip-path="url(#clip310)" d="M140.985 834.198 L163.207 834.198 L163.207 836.189 L150.661 868.758 L145.777 868.758 L157.582 838.133 L140.985 838.133 L140.985 834.198 Z" fill="#000000" fill-rule="nonzero" fill-opacity="1" /><path clip-path="url(#clip310)" d="M106.124 594.498 Q102.513 594.498 100.684 598.062 Q98.8788 601.604 98.8788 608.734 Q98.8788 615.84 100.684 619.405 Q102.513 622.946 106.124 622.946 Q109.758 622.946 111.564 619.405 Q113.393 615.84 113.393 608.734 Q113.393 601.604 111.564 598.062 Q109.758 594.498 106.124 594.498 M106.124 590.794 Q111.934 590.794 114.99 595.4 Q118.069 599.984 118.069 608.734 Q118.069 617.46 114.99 622.067 Q111.934 626.65 106.124 626.65 Q100.314 626.65 97.2353 622.067 Q94.1798 617.46 94.1798 608.734 Q94.1798 599.984 97.2353 595.4 Q100.314 590.794 106.124 590.794 Z" fill="#000000" fill-rule="nonzero" fill-opacity="1" /><path clip-path="url(#clip310)" d="M126.286 620.099 L131.17 620.099 L131.17 625.979 L126.286 625.979 L126.286 620.099 Z" fill="#000000" fill-rule="nonzero" fill-opacity="1" /><path clip-path="url(#clip310)" d="M151.355 609.567 Q148.022 609.567 146.101 611.349 Q144.203 613.132 144.203 616.257 Q144.203 619.382 146.101 621.164 Q148.022 622.946 151.355 622.946 Q154.689 622.946 156.61 621.164 Q158.531 619.359 158.531 616.257 Q158.531 613.132 156.61 611.349 Q154.712 609.567 151.355 609.567 M146.68 607.576 Q143.67 606.835 141.98 604.775 Q140.314 602.715 140.314 599.752 Q140.314 595.609 143.254 593.201 Q146.217 590.794 151.355 590.794 Q156.517 590.794 159.457 593.201 Q162.397 595.609 162.397 599.752 Q162.397 602.715 160.707 604.775 Q159.041 606.835 156.054 607.576 Q159.434 608.363 161.309 610.655 Q163.207 612.947 163.207 616.257 Q163.207 621.28 160.129 623.965 Q157.073 626.65 151.355 626.65 Q145.638 626.65 142.559 623.965 Q139.504 621.28 139.504 616.257 Q139.504 612.947 141.402 610.655 Q143.3 608.363 146.68 607.576 M144.967 600.192 Q144.967 602.877 146.633 604.382 Q148.323 605.886 151.355 605.886 Q154.365 605.886 156.054 604.382 Q157.767 602.877 157.767 600.192 Q157.767 597.507 156.054 596.002 Q154.365 594.498 151.355 594.498 Q148.323 594.498 146.633 596.002 Q144.967 597.507 144.967 600.192 Z" fill="#000000" fill-rule="nonzero" fill-opacity="1" /><path clip-path="url(#clip310)" d="M106.217 351.719 Q102.606 351.719 100.777 355.283 Q98.9714 358.825 98.9714 365.955 Q98.9714 373.061 100.777 376.626 Q102.606 380.167 106.217 380.167 Q109.851 380.167 111.657 376.626 Q113.485 373.061 113.485 365.955 Q113.485 358.825 111.657 355.283 Q109.851 351.719 106.217 351.719 M106.217 348.015 Q112.027 348.015 115.082 352.621 Q118.161 357.205 118.161 365.955 Q118.161 374.681 115.082 379.288 Q112.027 383.871 106.217 383.871 Q100.407 383.871 97.3279 379.288 Q94.2724 374.681 94.2724 365.955 Q94.2724 357.205 97.3279 352.621 Q100.407 348.015 106.217 348.015 Z" fill="#000000" fill-rule="nonzero" fill-opacity="1" /><path clip-path="url(#clip310)" d="M126.379 377.32 L131.263 377.32 L131.263 383.2 L126.379 383.2 L126.379 377.32 Z" fill="#000000" fill-rule="nonzero" fill-opacity="1" /><path clip-path="url(#clip310)" d="M141.587 382.482 L141.587 378.223 Q143.346 379.056 145.152 379.496 Q146.957 379.936 148.693 379.936 Q153.323 379.936 155.754 376.834 Q158.207 373.709 158.554 367.367 Q157.212 369.357 155.152 370.422 Q153.092 371.487 150.592 371.487 Q145.406 371.487 142.374 368.362 Q139.365 365.214 139.365 359.774 Q139.365 354.45 142.513 351.232 Q145.661 348.015 150.892 348.015 Q156.888 348.015 160.036 352.621 Q163.207 357.205 163.207 365.955 Q163.207 374.126 159.318 379.01 Q155.453 383.871 148.902 383.871 Q147.142 383.871 145.337 383.524 Q143.531 383.177 141.587 382.482 M150.892 367.83 Q154.041 367.83 155.869 365.677 Q157.721 363.524 157.721 359.774 Q157.721 356.047 155.869 353.894 Q154.041 351.719 150.892 351.719 Q147.744 351.719 145.892 353.894 Q144.064 356.047 144.064 359.774 Q144.064 363.524 145.892 365.677 Q147.744 367.83 150.892 367.83 Z" fill="#000000" fill-rule="nonzero" fill-opacity="1" /><path clip-path="url(#clip310)" d="M96.8418 136.486 L104.481 136.486 L104.481 110.12 L96.1705 111.787 L96.1705 107.527 L104.434 105.861 L109.11 105.861 L109.11 136.486 L116.749 136.486 L116.749 140.421 L96.8418 140.421 L96.8418 136.486 Z" fill="#000000" fill-rule="nonzero" fill-opacity="1" /><path clip-path="url(#clip310)" d="M126.194 134.541 L131.078 134.541 L131.078 140.421 L126.194 140.421 L126.194 134.541 Z" fill="#000000" fill-rule="nonzero" fill-opacity="1" /><path clip-path="url(#clip310)" d="M151.263 108.939 Q147.652 108.939 145.823 112.504 Q144.017 116.046 144.017 123.176 Q144.017 130.282 145.823 133.847 Q147.652 137.388 151.263 137.388 Q154.897 137.388 156.703 133.847 Q158.531 130.282 158.531 123.176 Q158.531 116.046 156.703 112.504 Q154.897 108.939 151.263 108.939 M151.263 105.236 Q157.073 105.236 160.129 109.842 Q163.207 114.426 163.207 123.176 Q163.207 131.902 160.129 136.509 Q157.073 141.092 151.263 141.092 Q145.453 141.092 142.374 136.509 Q139.318 131.902 139.318 123.176 Q139.318 114.426 142.374 109.842 Q145.453 105.236 151.263 105.236 Z" fill="#000000" fill-rule="nonzero" fill-opacity="1" /><path clip-path="url(#clip310)" d="M-14.2912 846.618 L-8.02102 846.618 Q-9.77159 850.279 -10.631 853.525 Q-11.4903 856.772 -11.4903 859.795 Q-11.4903 865.047 -9.45331 867.912 Q-7.41628 870.744 -3.66051 870.744 Q-0.50949 870.744 1.11377 868.866 Q2.70519 866.957 3.69188 861.673 L4.48759 857.79 Q5.85622 850.597 9.32553 847.191 Q12.763 843.754 18.5558 843.754 Q25.4626 843.754 29.0274 848.401 Q32.5922 853.016 32.5922 861.96 Q32.5922 865.333 31.8283 869.153 Q31.0644 872.941 29.5685 877.015 L22.9481 877.015 Q25.1443 873.1 26.2583 869.344 Q27.3723 865.588 27.3723 861.96 Q27.3723 856.453 25.208 853.461 Q23.0436 850.47 19.0332 850.47 Q15.5321 850.47 13.5587 852.634 Q11.5854 854.766 10.5987 859.668 L9.83478 863.583 Q8.4025 870.776 5.34696 873.991 Q2.29142 877.206 -3.15126 877.206 Q-9.45331 877.206 -13.0818 872.781 Q-16.7102 868.325 -16.7102 860.527 Q-16.7102 857.185 -16.1055 853.716 Q-15.5007 850.247 -14.2912 846.618 Z" fill="#000000" fill-rule="nonzero" fill-opacity="1" /><path clip-path="url(#clip310)" d="M17.6009 834.587 L-3.9788 834.587 L-3.9788 828.731 L17.3781 828.731 Q22.4389 828.731 24.9852 826.757 Q27.4996 824.784 27.4996 820.837 Q27.4996 816.095 24.4759 813.357 Q21.4522 810.588 16.2323 810.588 L-3.9788 810.588 L-3.9788 804.732 L31.6692 804.732 L31.6692 810.588 L26.1946 810.588 Q29.4412 812.721 31.0326 815.554 Q32.5922 818.355 32.5922 822.079 Q32.5922 828.221 28.7728 831.404 Q24.9533 834.587 17.6009 834.587 M-4.83817 819.851 L-4.83817 819.851 Z" fill="#000000" fill-rule="nonzero" fill-opacity="1" /><path clip-path="url(#clip310)" d="M1.49571 772.012 Q0.922794 772.999 0.668166 774.177 Q0.381709 775.322 0.381709 776.723 Q0.381709 781.688 3.62822 784.362 Q6.8429 787.003 12.8903 787.003 L31.6692 787.003 L31.6692 792.892 L-3.9788 792.892 L-3.9788 787.003 L1.55937 787.003 Q-1.68715 785.157 -3.24674 782.197 Q-4.83817 779.237 -4.83817 775.004 Q-4.83817 774.399 -4.74268 773.667 Q-4.67903 772.935 -4.51988 772.044 L1.49571 772.012 Z" fill="#000000" fill-rule="nonzero" fill-opacity="1" /><path clip-path="url(#clip310)" d="M-3.9788 770.071 L-3.9788 763.864 L25.94 752.724 L-3.9788 741.584 L-3.9788 735.378 L31.6692 748.746 L31.6692 756.703 L-3.9788 770.071 Z" fill="#000000" fill-rule="nonzero" fill-opacity="1" /><path clip-path="url(#clip310)" d="M-3.9788 727.293 L-3.9788 721.437 L31.6692 721.437 L31.6692 727.293 L-3.9788 727.293 M-17.856 727.293 L-17.856 721.437 L-10.44 721.437 L-10.44 727.293 L-17.856 727.293 Z" fill="#000000" fill-rule="nonzero" fill-opacity="1" /><path clip-path="url(#clip310)" d="M-3.9788 713.384 L-3.9788 707.178 L25.94 696.038 L-3.9788 684.898 L-3.9788 678.691 L31.6692 692.059 L31.6692 700.016 L-3.9788 713.384 Z" fill="#000000" fill-rule="nonzero" fill-opacity="1" /><path clip-path="url(#clip310)" d="M0.127081 656.793 Q0.127081 661.504 3.81919 664.241 Q7.47947 666.978 13.877 666.978 Q20.2745 666.978 23.9667 664.273 Q27.6269 661.535 27.6269 656.793 Q27.6269 652.114 23.9348 649.377 Q20.2427 646.64 13.877 646.64 Q7.54313 646.64 3.85102 649.377 Q0.127081 652.114 0.127081 656.793 M-4.83817 656.793 Q-4.83817 649.154 0.127081 644.794 Q5.09233 640.433 13.877 640.433 Q22.6299 640.433 27.6269 644.794 Q32.5922 649.154 32.5922 656.793 Q32.5922 664.464 27.6269 668.824 Q22.6299 673.153 13.877 673.153 Q5.09233 673.153 0.127081 668.824 Q-4.83817 664.464 -4.83817 656.793 Z" fill="#000000" fill-rule="nonzero" fill-opacity="1" /><path clip-path="url(#clip310)" d="M1.49571 610.069 Q0.922794 611.055 0.668166 612.233 Q0.381709 613.379 0.381709 614.779 Q0.381709 619.745 3.62822 622.418 Q6.8429 625.06 12.8903 625.06 L31.6692 625.06 L31.6692 630.948 L-3.9788 630.948 L-3.9788 625.06 L1.55937 625.06 Q-1.68715 623.214 -3.24674 620.254 Q-4.83817 617.294 -4.83817 613.061 Q-4.83817 612.456 -4.74268 611.724 Q-4.67903 610.992 -4.51988 610.1 L1.49571 610.069 Z" fill="#000000" fill-rule="nonzero" fill-opacity="1" /><path clip-path="url(#clip310)" d="M-2.92846 581.2 L2.60971 581.2 Q1.33657 583.683 0.699995 586.356 Q0.0634241 589.03 0.0634241 591.895 Q0.0634241 596.255 1.40022 598.451 Q2.73702 600.616 5.41062 600.616 Q7.44764 600.616 8.6253 599.056 Q9.77113 597.496 10.8215 592.786 L11.2671 590.781 Q12.6039 584.542 15.0547 581.932 Q17.4736 579.29 21.8341 579.29 Q26.7994 579.29 29.6958 583.237 Q32.5922 587.152 32.5922 594.027 Q32.5922 596.892 32.0193 600.011 Q31.4782 603.098 30.3642 606.536 L24.3168 606.536 Q26.0037 603.289 26.863 600.138 Q27.6906 596.987 27.6906 593.9 Q27.6906 589.762 26.2901 587.534 Q24.8579 585.306 22.2797 585.306 Q19.8926 585.306 18.6195 586.929 Q17.3463 588.521 16.1687 593.963 L15.6912 596 Q14.5454 601.443 12.1901 603.862 Q9.80296 606.281 5.66525 606.281 Q0.636338 606.281 -2.10092 602.716 Q-4.83817 599.151 -4.83817 592.595 Q-4.83817 589.348 -4.36074 586.484 Q-3.88331 583.619 -2.92846 581.2 Z" fill="#000000" fill-rule="nonzero" fill-opacity="1" /><path clip-path="url(#clip310)" d="M10.1531 540.332 L31.6692 540.332 L31.6692 546.189 L10.344 546.189 Q5.2833 546.189 2.76885 548.162 Q0.254395 550.136 0.254395 554.082 Q0.254395 558.825 3.27811 561.562 Q6.30182 564.299 11.5217 564.299 L31.6692 564.299 L31.6692 570.187 L-17.856 570.187 L-17.856 564.299 L1.55937 564.299 Q-1.65532 562.199 -3.24674 559.366 Q-4.83817 556.501 -4.83817 552.777 Q-4.83817 546.634 -1.01875 543.483 Q2.76885 540.332 10.1531 540.332 Z" fill="#000000" fill-rule="nonzero" fill-opacity="1" /><path clip-path="url(#clip310)" d="M-3.9788 528.651 L-3.9788 522.795 L31.6692 522.795 L31.6692 528.651 L-3.9788 528.651 M-17.856 528.651 L-17.856 522.795 L-10.44 522.795 L-10.44 528.651 L-17.856 528.651 Z" fill="#000000" fill-rule="nonzero" fill-opacity="1" /><path clip-path="url(#clip310)" d="M26.322 504.875 L45.2281 504.875 L45.2281 510.764 L-3.9788 510.764 L-3.9788 504.875 L1.43205 504.875 Q-1.7508 503.029 -3.27857 500.228 Q-4.83817 497.396 -4.83817 493.481 Q-4.83817 486.988 0.318052 482.945 Q5.47427 478.871 13.877 478.871 Q22.2797 478.871 27.436 482.945 Q32.5922 486.988 32.5922 493.481 Q32.5922 497.396 31.0644 500.228 Q29.5048 503.029 26.322 504.875 M13.877 484.951 Q7.41582 484.951 3.75553 487.624 Q0.0634241 490.266 0.0634241 494.913 Q0.0634241 499.56 3.75553 502.234 Q7.41582 504.875 13.877 504.875 Q20.3382 504.875 24.0303 502.234 Q27.6906 499.56 27.6906 494.913 Q27.6906 490.266 24.0303 487.624 Q20.3382 484.951 13.877 484.951 Z" fill="#000000" fill-rule="nonzero" fill-opacity="1" /><path clip-path="url(#clip310)" d="M400.208 20.1573 L389.108 50.2555 L411.347 50.2555 L400.208 20.1573 M395.589 12.096 L404.866 12.096 L427.916 72.576 L419.409 72.576 L413.9 57.061 L386.637 57.061 L381.128 72.576 L372.499 72.576 L395.589 12.096 Z" fill="#000000" fill-rule="nonzero" fill-opacity="1" /><path clip-path="url(#clip310)" d="M436.423 9.54393 L443.876 9.54393 L443.876 72.576 L436.423 72.576 L436.423 9.54393 Z" fill="#000000" fill-rule="nonzero" fill-opacity="1" /><path clip-path="url(#clip310)" d="M492.042 49.9314 Q492.042 41.7081 488.639 37.0496 Q485.276 32.3505 479.362 32.3505 Q473.448 32.3505 470.045 37.0496 Q466.683 41.7081 466.683 49.9314 Q466.683 58.1548 470.045 62.8538 Q473.448 67.5124 479.362 67.5124 Q485.276 67.5124 488.639 62.8538 Q492.042 58.1548 492.042 49.9314 M466.683 34.0924 Q469.032 30.0415 472.597 28.0971 Q476.202 26.1121 481.185 26.1121 Q489.449 26.1121 494.594 32.6746 Q499.779 39.2371 499.779 49.9314 Q499.779 60.6258 494.594 67.1883 Q489.449 73.7508 481.185 73.7508 Q476.202 73.7508 472.597 71.8063 Q469.032 69.8214 466.683 65.7705 L466.683 72.576 L459.189 72.576 L459.189 9.54393 L466.683 9.54393 L466.683 34.0924 Z" fill="#000000" fill-rule="nonzero" fill-opacity="1" /><path clip-path="url(#clip310)" d="M532.753 49.7694 Q523.72 49.7694 520.236 51.8354 Q516.752 53.9013 516.752 58.8839 Q516.752 62.8538 519.345 65.2034 Q521.978 67.5124 526.474 67.5124 Q532.672 67.5124 536.399 63.1374 Q540.166 58.7219 540.166 51.4303 L540.166 49.7694 L532.753 49.7694 M547.62 46.6907 L547.62 72.576 L540.166 72.576 L540.166 65.6895 Q537.614 69.8214 533.806 71.8063 Q529.998 73.7508 524.489 73.7508 Q517.522 73.7508 513.39 69.8619 Q509.298 65.9325 509.298 59.3701 Q509.298 51.7138 514.403 47.825 Q519.547 43.9361 529.715 43.9361 L540.166 43.9361 L540.166 43.2069 Q540.166 38.0623 536.763 35.2672 Q533.401 32.4315 527.284 32.4315 Q523.396 32.4315 519.709 33.3632 Q516.023 34.295 512.62 36.1584 L512.62 29.2718 Q516.712 27.692 520.56 26.9223 Q524.408 26.1121 528.054 26.1121 Q537.898 26.1121 542.759 31.2163 Q547.62 36.3204 547.62 46.6907 Z" fill="#000000" fill-rule="nonzero" fill-opacity="1" /><path clip-path="url(#clip310)" d="M570.345 14.324 L570.345 27.2059 L585.698 27.2059 L585.698 32.9987 L570.345 32.9987 L570.345 57.6282 Q570.345 63.1779 571.844 64.7578 Q573.384 66.3376 578.042 66.3376 L585.698 66.3376 L585.698 72.576 L578.042 72.576 Q569.414 72.576 566.133 69.3758 Q562.851 66.1351 562.851 57.6282 L562.851 32.9987 L557.383 32.9987 L557.383 27.2059 L562.851 27.2059 L562.851 14.324 L570.345 14.324 Z" fill="#000000" fill-rule="nonzero" fill-opacity="1" /><path clip-path="url(#clip310)" d="M621.792 34.1734 Q620.536 33.4443 619.037 33.1202 Q617.579 32.7556 615.797 32.7556 Q609.477 32.7556 606.074 36.8875 Q602.712 40.9789 602.712 48.6757 L602.712 72.576 L595.218 72.576 L595.218 27.2059 L602.712 27.2059 L602.712 34.2544 Q605.062 30.1225 608.829 28.1376 Q612.596 26.1121 617.984 26.1121 Q618.754 26.1121 619.686 26.2337 Q620.617 26.3147 621.751 26.5172 L621.792 34.1734 Z" fill="#000000" fill-rule="nonzero" fill-opacity="1" /><path clip-path="url(#clip310)" d="M645.368 32.4315 Q639.373 32.4315 635.889 37.1306 Q632.405 41.7891 632.405 49.9314 Q632.405 58.0738 635.849 62.7728 Q639.332 67.4314 645.368 67.4314 Q651.323 67.4314 654.807 62.7323 Q658.291 58.0333 658.291 49.9314 Q658.291 41.8701 654.807 37.1711 Q651.323 32.4315 645.368 32.4315 M645.368 26.1121 Q655.09 26.1121 660.64 32.4315 Q666.19 38.7509 666.19 49.9314 Q666.19 61.0714 660.64 67.4314 Q655.09 73.7508 645.368 73.7508 Q635.606 73.7508 630.056 67.4314 Q624.547 61.0714 624.547 49.9314 Q624.547 38.7509 630.056 32.4315 Q635.606 26.1121 645.368 26.1121 Z" fill="#000000" fill-rule="nonzero" fill-opacity="1" /><path clip-path="url(#clip310)" d="M707.469 28.5427 L707.469 35.5912 Q704.309 33.9709 700.906 33.1607 Q697.503 32.3505 693.858 32.3505 Q688.308 32.3505 685.513 34.0519 Q682.758 35.7533 682.758 39.156 Q682.758 41.7486 684.743 43.2475 Q686.728 44.7058 692.723 46.0426 L695.275 46.6097 Q703.215 48.3111 706.537 51.4303 Q709.899 54.509 709.899 60.0587 Q709.899 66.3781 704.876 70.0644 Q699.893 73.7508 691.143 73.7508 Q687.498 73.7508 683.528 73.0216 Q679.598 72.3329 675.223 70.9151 L675.223 63.2184 Q679.355 65.3654 683.366 66.4591 Q687.376 67.5124 691.305 67.5124 Q696.572 67.5124 699.407 65.73 Q702.243 63.9071 702.243 60.6258 Q702.243 57.5877 700.177 55.9673 Q698.152 54.3469 691.224 52.8481 L688.632 52.2405 Q681.705 50.7821 678.626 47.7845 Q675.547 44.7463 675.547 39.4801 Q675.547 33.0797 680.084 29.5959 Q684.621 26.1121 692.966 26.1121 Q697.098 26.1121 700.744 26.7198 Q704.39 27.3274 707.469 28.5427 Z" fill="#000000" fill-rule="nonzero" fill-opacity="1" /><path clip-path="url(#clip310)" d="M750.692 28.5427 L750.692 35.5912 Q747.532 33.9709 744.129 33.1607 Q740.727 32.3505 737.081 32.3505 Q731.531 32.3505 728.736 34.0519 Q725.981 35.7533 725.981 39.156 Q725.981 41.7486 727.966 43.2475 Q729.951 44.7058 735.946 46.0426 L738.499 46.6097 Q746.438 48.3111 749.76 51.4303 Q753.122 54.509 753.122 60.0587 Q753.122 66.3781 748.099 70.0644 Q743.117 73.7508 734.367 73.7508 Q730.721 73.7508 726.751 73.0216 Q722.822 72.3329 718.447 70.9151 L718.447 63.2184 Q722.578 65.3654 726.589 66.4591 Q730.599 67.5124 734.529 67.5124 Q739.795 67.5124 742.63 65.73 Q745.466 63.9071 745.466 60.6258 Q745.466 57.5877 743.4 55.9673 Q741.375 54.3469 734.448 52.8481 L731.855 52.2405 Q724.928 50.7821 721.849 47.7845 Q718.771 44.7463 718.771 39.4801 Q718.771 33.0797 723.308 29.5959 Q727.845 26.1121 736.19 26.1121 Q740.321 26.1121 743.967 26.7198 Q747.613 27.3274 750.692 28.5427 Z" fill="#000000" fill-rule="nonzero" fill-opacity="1" /><path clip-path="url(#clip310)" d="M761.224 46.5287 L783.058 46.5287 L783.058 53.1722 L761.224 53.1722 L761.224 46.5287 Z" fill="#000000" fill-rule="nonzero" fill-opacity="1" /><path clip-path="url(#clip310)" d="M794.928 9.54393 L802.381 9.54393 L802.381 72.576 L794.928 72.576 L794.928 9.54393 Z" fill="#000000" fill-rule="nonzero" fill-opacity="1" /><path clip-path="url(#clip310)" d="M817.977 27.2059 L825.431 27.2059 L825.431 72.576 L817.977 72.576 L817.977 27.2059 M817.977 9.54393 L825.431 9.54393 L825.431 18.9825 L817.977 18.9825 L817.977 9.54393 Z" fill="#000000" fill-rule="nonzero" fill-opacity="1" /><path clip-path="url(#clip310)" d="M840.743 9.54393 L848.238 9.54393 L848.238 46.7717 L870.477 27.2059 L879.997 27.2059 L855.934 48.4326 L881.009 72.576 L871.287 72.576 L848.238 50.4176 L848.238 72.576 L840.743 72.576 L840.743 9.54393 Z" fill="#000000" fill-rule="nonzero" fill-opacity="1" /><path clip-path="url(#clip310)" d="M924.921 48.0275 L924.921 51.6733 L890.65 51.6733 Q891.137 59.3701 895.269 63.421 Q899.441 67.4314 906.854 67.4314 Q911.148 67.4314 915.158 66.3781 Q919.209 65.3249 923.179 63.2184 L923.179 70.267 Q919.169 71.9684 914.956 72.8596 Q910.743 73.7508 906.409 73.7508 Q895.552 73.7508 889.192 67.4314 Q882.873 61.1119 882.873 50.3365 Q882.873 39.1965 888.868 32.6746 Q894.904 26.1121 905.112 26.1121 Q914.267 26.1121 919.574 32.0264 Q924.921 37.9003 924.921 48.0275 M917.467 45.84 Q917.386 39.7232 914.024 36.0774 Q910.702 32.4315 905.193 32.4315 Q898.955 32.4315 895.187 35.9558 Q891.461 39.4801 890.894 45.8805 L917.467 45.84 Z" fill="#000000" fill-rule="nonzero" fill-opacity="1" /><path clip-path="url(#clip310)" d="M963.526 9.54393 L970.98 9.54393 L970.98 72.576 L963.526 72.576 L963.526 9.54393 Z" fill="#000000" fill-rule="nonzero" fill-opacity="1" /><path clip-path="url(#clip310)" d="M986.576 27.2059 L994.03 27.2059 L994.03 72.576 L986.576 72.576 L986.576 27.2059 M986.576 9.54393 L994.03 9.54393 L994.03 18.9825 L986.576 18.9825 L986.576 9.54393 Z" fill="#000000" fill-rule="nonzero" fill-opacity="1" /><path clip-path="url(#clip310)" d="M1032.59 9.54393 L1032.59 15.7418 L1025.46 15.7418 Q1021.45 15.7418 1019.87 17.3622 Q1018.33 18.9825 1018.33 23.1955 L1018.33 27.2059 L1030.61 27.2059 L1030.61 32.9987 L1018.33 32.9987 L1018.33 72.576 L1010.84 72.576 L1010.84 32.9987 L1003.71 32.9987 L1003.71 27.2059 L1010.84 27.2059 L1010.84 24.0462 Q1010.84 16.471 1014.37 13.0277 Q1017.89 9.54393 1025.55 9.54393 L1032.59 9.54393 Z" fill="#000000" fill-rule="nonzero" fill-opacity="1" /><path clip-path="url(#clip310)" d="M1077.64 48.0275 L1077.64 51.6733 L1043.37 51.6733 Q1043.86 59.3701 1047.99 63.421 Q1052.16 67.4314 1059.57 67.4314 Q1063.87 67.4314 1067.88 66.3781 Q1071.93 65.3249 1075.9 63.2184 L1075.9 70.267 Q1071.89 71.9684 1067.67 72.8596 Q1063.46 73.7508 1059.13 73.7508 Q1048.27 73.7508 1041.91 67.4314 Q1035.59 61.1119 1035.59 50.3365 Q1035.59 39.1965 1041.59 32.6746 Q1047.62 26.1121 1057.83 26.1121 Q1066.99 26.1121 1072.29 32.0264 Q1077.64 37.9003 1077.64 48.0275 M1070.19 45.84 Q1070.11 39.7232 1066.74 36.0774 Q1063.42 32.4315 1057.91 32.4315 Q1051.67 32.4315 1047.91 35.9558 Q1044.18 39.4801 1043.61 45.8805 L1070.19 45.84 Z" fill="#000000" fill-rule="nonzero" fill-opacity="1" /><path clip-path="url(#clip310)" d="M1153.96 45.1919 L1153.96 72.576 L1146.51 72.576 L1146.51 45.4349 Q1146.51 38.994 1143.99 35.7938 Q1141.48 32.5936 1136.46 32.5936 Q1130.42 32.5936 1126.94 36.4419 Q1123.46 40.2903 1123.46 46.9338 L1123.46 72.576 L1115.96 72.576 L1115.96 9.54393 L1123.46 9.54393 L1123.46 34.2544 Q1126.13 30.163 1129.73 28.1376 Q1133.38 26.1121 1138.12 26.1121 Q1145.94 26.1121 1149.95 30.9732 Q1153.96 35.7938 1153.96 45.1919 Z" fill="#000000" fill-rule="nonzero" fill-opacity="1" /><path clip-path="url(#clip310)" d="M1168.83 27.2059 L1176.28 27.2059 L1176.28 72.576 L1168.83 72.576 L1168.83 27.2059 M1168.83 9.54393 L1176.28 9.54393 L1176.28 18.9825 L1168.83 18.9825 L1168.83 9.54393 Z" fill="#000000" fill-rule="nonzero" fill-opacity="1" /><path clip-path="url(#clip310)" d="M1220.8 28.5427 L1220.8 35.5912 Q1217.64 33.9709 1214.24 33.1607 Q1210.83 32.3505 1207.19 32.3505 Q1201.64 32.3505 1198.84 34.0519 Q1196.09 35.7533 1196.09 39.156 Q1196.09 41.7486 1198.07 43.2475 Q1200.06 44.7058 1206.05 46.0426 L1208.61 46.6097 Q1216.55 48.3111 1219.87 51.4303 Q1223.23 54.509 1223.23 60.0587 Q1223.23 66.3781 1218.21 70.0644 Q1213.22 73.7508 1204.47 73.7508 Q1200.83 73.7508 1196.86 73.0216 Q1192.93 72.3329 1188.55 70.9151 L1188.55 63.2184 Q1192.69 65.3654 1196.7 66.4591 Q1200.71 67.5124 1204.64 67.5124 Q1209.9 67.5124 1212.74 65.73 Q1215.57 63.9071 1215.57 60.6258 Q1215.57 57.5877 1213.51 55.9673 Q1211.48 54.3469 1204.56 52.8481 L1201.96 52.2405 Q1195.04 50.7821 1191.96 47.7845 Q1188.88 44.7463 1188.88 39.4801 Q1188.88 33.0797 1193.42 29.5959 Q1197.95 26.1121 1206.3 26.1121 Q1210.43 26.1121 1214.07 26.7198 Q1217.72 27.3274 1220.8 28.5427 Z" fill="#000000" fill-rule="nonzero" fill-opacity="1" /><path clip-path="url(#clip310)" d="M1242.47 14.324 L1242.47 27.2059 L1257.82 27.2059 L1257.82 32.9987 L1242.47 32.9987 L1242.47 57.6282 Q1242.47 63.1779 1243.97 64.7578 Q1245.51 66.3376 1250.17 66.3376 L1257.82 66.3376 L1257.82 72.576 L1250.17 72.576 Q1241.54 72.576 1238.26 69.3758 Q1234.98 66.1351 1234.98 57.6282 L1234.98 32.9987 L1229.51 32.9987 L1229.51 27.2059 L1234.98 27.2059 L1234.98 14.324 L1242.47 14.324 Z" fill="#000000" fill-rule="nonzero" fill-opacity="1" /><path clip-path="url(#clip310)" d="M1285.21 32.4315 Q1279.21 32.4315 1275.73 37.1306 Q1272.25 41.7891 1272.25 49.9314 Q1272.25 58.0738 1275.69 62.7728 Q1279.17 67.4314 1285.21 67.4314 Q1291.16 67.4314 1294.65 62.7323 Q1298.13 58.0333 1298.13 49.9314 Q1298.13 41.8701 1294.65 37.1711 Q1291.16 32.4315 1285.21 32.4315 M1285.21 26.1121 Q1294.93 26.1121 1300.48 32.4315 Q1306.03 38.7509 1306.03 49.9314 Q1306.03 61.0714 1300.48 67.4314 Q1294.93 73.7508 1285.21 73.7508 Q1275.45 73.7508 1269.9 67.4314 Q1264.39 61.0714 1264.39 49.9314 Q1264.39 38.7509 1269.9 32.4315 Q1275.45 26.1121 1285.21 26.1121 Z" fill="#000000" fill-rule="nonzero" fill-opacity="1" /><path clip-path="url(#clip310)" d="M1344.68 34.1734 Q1343.42 33.4443 1341.92 33.1202 Q1340.46 32.7556 1338.68 32.7556 Q1332.36 32.7556 1328.96 36.8875 Q1325.6 40.9789 1325.6 48.6757 L1325.6 72.576 L1318.1 72.576 L1318.1 27.2059 L1325.6 27.2059 L1325.6 34.2544 Q1327.95 30.1225 1331.71 28.1376 Q1335.48 26.1121 1340.87 26.1121 Q1341.64 26.1121 1342.57 26.2337 Q1343.5 26.3147 1344.64 26.5172 L1344.68 34.1734 Z" fill="#000000" fill-rule="nonzero" fill-opacity="1" /><path clip-path="url(#clip310)" d="M1371.37 76.7889 Q1368.21 84.8907 1365.21 87.3618 Q1362.22 89.8329 1357.19 89.8329 L1351.24 89.8329 L1351.24 83.5945 L1355.61 83.5945 Q1358.69 83.5945 1360.39 82.1361 Q1362.09 80.6778 1364.16 75.2496 L1365.5 71.8468 L1347.15 27.2059 L1355.05 27.2059 L1369.22 62.6918 L1383.4 27.2059 L1391.3 27.2059 L1371.37 76.7889 Z" fill="#000000" fill-rule="nonzero" fill-opacity="1" /><polyline clip-path="url(#clip312)" style="stroke:#009af9; stroke-linecap:round; stroke-linejoin:round; stroke-width:8; stroke-opacity:1; fill:none" points="249.171,135.249 292.807,148.298 336.444,162.355 380.081,177.489 423.717,193.776 467.354,211.292 510.99,230.121 554.627,250.348 598.263,272.06 641.9,295.349 685.536,320.309 729.173,347.037 772.809,375.629 816.446,406.184 860.082,438.801 903.719,473.574 947.355,510.597 990.992,549.96 1034.63,591.745 1078.26,636.027 1121.9,682.867 1165.54,732.317 1209.17,784.409 1252.81,839.158 1296.45,896.553 1340.08,956.559 1383.72,1019.11 1427.36,1084.1 1470.99,1151.4 1514.63,1220.83 "/>
<path clip-path="url(#clip310)" d="M1304.07 244.719 L1507.88 244.719 L1507.88 141.039 L1304.07 141.039  Z" fill="#ffffff" fill-rule="evenodd" fill-opacity="1"/>
<polyline clip-path="url(#clip310)" style="stroke:#000000; stroke-linecap:round; stroke-linejoin:round; stroke-width:4; stroke-opacity:1; fill:none" points="1304.07,244.719 1507.88,244.719 1507.88,141.039 1304.07,141.039 1304.07,244.719 "/>
<polyline clip-path="url(#clip310)" style="stroke:#009af9; stroke-linecap:round; stroke-linejoin:round; stroke-width:8; stroke-opacity:1; fill:none" points="1318.97,192.879 1408.4,192.879 "/>
<path clip-path="url(#clip310)" d="M1423.3 174.141 L1427.56 174.141 L1427.56 210.159 L1423.3 210.159 L1423.3 174.141 Z" fill="#000000" fill-rule="nonzero" fill-opacity="1" /><path clip-path="url(#clip310)" d="M1446.7 174.187 Q1443.6 179.511 1442.1 184.72 Q1440.59 189.928 1440.59 195.275 Q1440.59 200.622 1442.1 205.877 Q1443.63 211.108 1446.7 216.409 L1443 216.409 Q1439.53 210.969 1437.79 205.715 Q1436.08 200.46 1436.08 195.275 Q1436.08 190.113 1437.79 184.882 Q1439.5 179.65 1443 174.187 L1446.7 174.187 Z" fill="#000000" fill-rule="nonzero" fill-opacity="1" /><path clip-path="url(#clip310)" d="M1476.52 184.233 L1467.14 196.849 L1477 210.159 L1471.98 210.159 L1464.44 199.974 L1456.89 210.159 L1451.87 210.159 L1461.94 196.594 L1452.72 184.233 L1457.75 184.233 L1464.62 193.469 L1471.5 184.233 L1476.52 184.233 Z" fill="#000000" fill-rule="nonzero" fill-opacity="1" /><path clip-path="url(#clip310)" d="M1482.35 174.187 L1486.06 174.187 Q1489.53 179.65 1491.24 184.882 Q1492.98 190.113 1492.98 195.275 Q1492.98 200.46 1491.24 205.715 Q1489.53 210.969 1486.06 216.409 L1482.35 216.409 Q1485.43 211.108 1486.94 205.877 Q1488.46 200.622 1488.46 195.275 Q1488.46 189.928 1486.94 184.72 Q1485.43 179.511 1482.35 174.187 Z" fill="#000000" fill-rule="nonzero" fill-opacity="1" /><path clip-path="url(#clip310)" d="M1811.37 1253.39 L3152.76 1253.39 L3152.76 102.682 L1811.37 102.682  Z" fill="#ffffff" fill-rule="evenodd" fill-opacity="1"/>
<polyline clip-path="url(#clip311)" style="stroke:#000000; stroke-linecap:round; stroke-linejoin:round; stroke-width:2; stroke-opacity:0.1; fill:none" points="1849.33,1253.39 1849.33,102.682 "/>
<polyline clip-path="url(#clip311)" style="stroke:#000000; stroke-linecap:round; stroke-linejoin:round; stroke-width:2; stroke-opacity:0.1; fill:none" points="2067.52,1253.39 2067.52,102.682 "/>
<polyline clip-path="url(#clip311)" style="stroke:#000000; stroke-linecap:round; stroke-linejoin:round; stroke-width:2; stroke-opacity:0.1; fill:none" points="2285.7,1253.39 2285.7,102.682 "/>
<polyline clip-path="url(#clip311)" style="stroke:#000000; stroke-linecap:round; stroke-linejoin:round; stroke-width:2; stroke-opacity:0.1; fill:none" points="2503.88,1253.39 2503.88,102.682 "/>
<polyline clip-path="url(#clip311)" style="stroke:#000000; stroke-linecap:round; stroke-linejoin:round; stroke-width:2; stroke-opacity:0.1; fill:none" points="2722.06,1253.39 2722.06,102.682 "/>
<polyline clip-path="url(#clip311)" style="stroke:#000000; stroke-linecap:round; stroke-linejoin:round; stroke-width:2; stroke-opacity:0.1; fill:none" points="2940.25,1253.39 2940.25,102.682 "/>
<polyline clip-path="url(#clip311)" style="stroke:#000000; stroke-linecap:round; stroke-linejoin:round; stroke-width:2; stroke-opacity:0.1; fill:none" points="1811.37,974.015 3152.76,974.015 "/>
<polyline clip-path="url(#clip311)" style="stroke:#000000; stroke-linecap:round; stroke-linejoin:round; stroke-width:2; stroke-opacity:0.1; fill:none" points="1811.37,694.42 3152.76,694.42 "/>
<polyline clip-path="url(#clip311)" style="stroke:#000000; stroke-linecap:round; stroke-linejoin:round; stroke-width:2; stroke-opacity:0.1; fill:none" points="1811.37,414.826 3152.76,414.826 "/>
<polyline clip-path="url(#clip311)" style="stroke:#000000; stroke-linecap:round; stroke-linejoin:round; stroke-width:2; stroke-opacity:0.1; fill:none" points="1811.37,135.231 3152.76,135.231 "/>
<polyline clip-path="url(#clip310)" style="stroke:#000000; stroke-linecap:round; stroke-linejoin:round; stroke-width:4; stroke-opacity:1; fill:none" points="1811.37,1253.39 3152.76,1253.39 "/>
<polyline clip-path="url(#clip310)" style="stroke:#000000; stroke-linecap:round; stroke-linejoin:round; stroke-width:4; stroke-opacity:1; fill:none" points="1849.33,1253.39 1849.33,1234.5 "/>
<polyline clip-path="url(#clip310)" style="stroke:#000000; stroke-linecap:round; stroke-linejoin:round; stroke-width:4; stroke-opacity:1; fill:none" points="2067.52,1253.39 2067.52,1234.5 "/>
<polyline clip-path="url(#clip310)" style="stroke:#000000; stroke-linecap:round; stroke-linejoin:round; stroke-width:4; stroke-opacity:1; fill:none" points="2285.7,1253.39 2285.7,1234.5 "/>
<polyline clip-path="url(#clip310)" style="stroke:#000000; stroke-linecap:round; stroke-linejoin:round; stroke-width:4; stroke-opacity:1; fill:none" points="2503.88,1253.39 2503.88,1234.5 "/>
<polyline clip-path="url(#clip310)" style="stroke:#000000; stroke-linecap:round; stroke-linejoin:round; stroke-width:4; stroke-opacity:1; fill:none" points="2722.06,1253.39 2722.06,1234.5 "/>
<polyline clip-path="url(#clip310)" style="stroke:#000000; stroke-linecap:round; stroke-linejoin:round; stroke-width:4; stroke-opacity:1; fill:none" points="2940.25,1253.39 2940.25,1234.5 "/>
<path clip-path="url(#clip310)" d="M1849.33 1290.71 Q1845.72 1290.71 1843.89 1294.28 Q1842.09 1297.82 1842.09 1304.95 Q1842.09 1312.06 1843.89 1315.62 Q1845.72 1319.16 1849.33 1319.16 Q1852.97 1319.16 1854.77 1315.62 Q1856.6 1312.06 1856.6 1304.95 Q1856.6 1297.82 1854.77 1294.28 Q1852.97 1290.71 1849.33 1290.71 M1849.33 1287.01 Q1855.14 1287.01 1858.2 1291.62 Q1861.28 1296.2 1861.28 1304.95 Q1861.28 1313.68 1858.2 1318.28 Q1855.14 1322.87 1849.33 1322.87 Q1843.52 1322.87 1840.44 1318.28 Q1837.39 1313.68 1837.39 1304.95 Q1837.39 1296.2 1840.44 1291.62 Q1843.52 1287.01 1849.33 1287.01 Z" fill="#000000" fill-rule="nonzero" fill-opacity="1" /><path clip-path="url(#clip310)" d="M2057.79 1287.63 L2076.15 1287.63 L2076.15 1291.57 L2062.08 1291.57 L2062.08 1300.04 Q2063.09 1299.69 2064.11 1299.53 Q2065.13 1299.35 2066.15 1299.35 Q2071.94 1299.35 2075.32 1302.52 Q2078.7 1305.69 2078.7 1311.11 Q2078.7 1316.69 2075.22 1319.79 Q2071.75 1322.87 2065.43 1322.87 Q2063.26 1322.87 2060.99 1322.5 Q2058.74 1322.13 2056.34 1321.38 L2056.34 1316.69 Q2058.42 1317.82 2060.64 1318.38 Q2062.86 1318.93 2065.34 1318.93 Q2069.34 1318.93 2071.68 1316.82 Q2074.02 1314.72 2074.02 1311.11 Q2074.02 1307.5 2071.68 1305.39 Q2069.34 1303.28 2065.34 1303.28 Q2063.46 1303.28 2061.59 1303.7 Q2059.74 1304.12 2057.79 1305 L2057.79 1287.63 Z" fill="#000000" fill-rule="nonzero" fill-opacity="1" /><path clip-path="url(#clip310)" d="M2260.39 1318.26 L2268.02 1318.26 L2268.02 1291.89 L2259.71 1293.56 L2259.71 1289.3 L2267.98 1287.63 L2272.65 1287.63 L2272.65 1318.26 L2280.29 1318.26 L2280.29 1322.19 L2260.39 1322.19 L2260.39 1318.26 Z" fill="#000000" fill-rule="nonzero" fill-opacity="1" /><path clip-path="url(#clip310)" d="M2299.74 1290.71 Q2296.13 1290.71 2294.3 1294.28 Q2292.49 1297.82 2292.49 1304.95 Q2292.49 1312.06 2294.3 1315.62 Q2296.13 1319.16 2299.74 1319.16 Q2303.37 1319.16 2305.18 1315.62 Q2307.01 1312.06 2307.01 1304.95 Q2307.01 1297.82 2305.18 1294.28 Q2303.37 1290.71 2299.74 1290.71 M2299.74 1287.01 Q2305.55 1287.01 2308.6 1291.62 Q2311.68 1296.2 2311.68 1304.95 Q2311.68 1313.68 2308.6 1318.28 Q2305.55 1322.87 2299.74 1322.87 Q2293.93 1322.87 2290.85 1318.28 Q2287.79 1313.68 2287.79 1304.95 Q2287.79 1296.2 2290.85 1291.62 Q2293.93 1287.01 2299.74 1287.01 Z" fill="#000000" fill-rule="nonzero" fill-opacity="1" /><path clip-path="url(#clip310)" d="M2479.07 1318.26 L2486.7 1318.26 L2486.7 1291.89 L2478.39 1293.56 L2478.39 1289.3 L2486.66 1287.63 L2491.33 1287.63 L2491.33 1318.26 L2498.97 1318.26 L2498.97 1322.19 L2479.07 1322.19 L2479.07 1318.26 Z" fill="#000000" fill-rule="nonzero" fill-opacity="1" /><path clip-path="url(#clip310)" d="M2508.46 1287.63 L2526.82 1287.63 L2526.82 1291.57 L2512.75 1291.57 L2512.75 1300.04 Q2513.77 1299.69 2514.78 1299.53 Q2515.8 1299.35 2516.82 1299.35 Q2522.61 1299.35 2525.99 1302.52 Q2529.37 1305.69 2529.37 1311.11 Q2529.37 1316.69 2525.89 1319.79 Q2522.42 1322.87 2516.1 1322.87 Q2513.93 1322.87 2511.66 1322.5 Q2509.41 1322.13 2507.01 1321.38 L2507.01 1316.69 Q2509.09 1317.82 2511.31 1318.38 Q2513.53 1318.93 2516.01 1318.93 Q2520.02 1318.93 2522.35 1316.82 Q2524.69 1314.72 2524.69 1311.11 Q2524.69 1307.5 2522.35 1305.39 Q2520.02 1303.28 2516.01 1303.28 Q2514.14 1303.28 2512.26 1303.7 Q2510.41 1304.12 2508.46 1305 L2508.46 1287.63 Z" fill="#000000" fill-rule="nonzero" fill-opacity="1" /><path clip-path="url(#clip310)" d="M2700.84 1318.26 L2717.16 1318.26 L2717.16 1322.19 L2695.21 1322.19 L2695.21 1318.26 Q2697.87 1315.51 2702.46 1310.88 Q2707.06 1306.22 2708.24 1304.88 Q2710.49 1302.36 2711.37 1300.62 Q2712.27 1298.86 2712.27 1297.17 Q2712.27 1294.42 2710.33 1292.68 Q2708.41 1290.95 2705.3 1290.95 Q2703.11 1290.95 2700.65 1291.71 Q2698.22 1292.47 2695.44 1294.02 L2695.44 1289.3 Q2698.27 1288.17 2700.72 1287.59 Q2703.17 1287.01 2705.21 1287.01 Q2710.58 1287.01 2713.78 1289.7 Q2716.97 1292.38 2716.97 1296.87 Q2716.97 1299 2716.16 1300.92 Q2715.37 1302.82 2713.27 1305.41 Q2712.69 1306.08 2709.59 1309.3 Q2706.48 1312.5 2700.84 1318.26 Z" fill="#000000" fill-rule="nonzero" fill-opacity="1" /><path clip-path="url(#clip310)" d="M2736.97 1290.71 Q2733.36 1290.71 2731.53 1294.28 Q2729.73 1297.82 2729.73 1304.95 Q2729.73 1312.06 2731.53 1315.62 Q2733.36 1319.16 2736.97 1319.16 Q2740.61 1319.16 2742.41 1315.62 Q2744.24 1312.06 2744.24 1304.95 Q2744.24 1297.82 2742.41 1294.28 Q2740.61 1290.71 2736.97 1290.71 M2736.97 1287.01 Q2742.78 1287.01 2745.84 1291.62 Q2748.92 1296.2 2748.92 1304.95 Q2748.92 1313.68 2745.84 1318.28 Q2742.78 1322.87 2736.97 1322.87 Q2731.16 1322.87 2728.08 1318.28 Q2725.03 1313.68 2725.03 1304.95 Q2725.03 1296.2 2728.08 1291.62 Q2731.16 1287.01 2736.97 1287.01 Z" fill="#000000" fill-rule="nonzero" fill-opacity="1" /><path clip-path="url(#clip310)" d="M2919.52 1318.26 L2935.84 1318.26 L2935.84 1322.19 L2913.89 1322.19 L2913.89 1318.26 Q2916.55 1315.51 2921.14 1310.88 Q2925.74 1306.22 2926.92 1304.88 Q2929.17 1302.36 2930.05 1300.62 Q2930.95 1298.86 2930.95 1297.17 Q2930.95 1294.42 2929.01 1292.68 Q2927.09 1290.95 2923.98 1290.95 Q2921.79 1290.95 2919.33 1291.71 Q2916.9 1292.47 2914.12 1294.02 L2914.12 1289.3 Q2916.95 1288.17 2919.4 1287.59 Q2921.85 1287.01 2923.89 1287.01 Q2929.26 1287.01 2932.46 1289.7 Q2935.65 1292.38 2935.65 1296.87 Q2935.65 1299 2934.84 1300.92 Q2934.05 1302.82 2931.95 1305.41 Q2931.37 1306.08 2928.27 1309.3 Q2925.17 1312.5 2919.52 1318.26 Z" fill="#000000" fill-rule="nonzero" fill-opacity="1" /><path clip-path="url(#clip310)" d="M2945.7 1287.63 L2964.05 1287.63 L2964.05 1291.57 L2949.98 1291.57 L2949.98 1300.04 Q2951 1299.69 2952.02 1299.53 Q2953.04 1299.35 2954.05 1299.35 Q2959.84 1299.35 2963.22 1302.52 Q2966.6 1305.69 2966.6 1311.11 Q2966.6 1316.69 2963.13 1319.79 Q2959.66 1322.87 2953.34 1322.87 Q2951.16 1322.87 2948.89 1322.5 Q2946.65 1322.13 2944.24 1321.38 L2944.24 1316.69 Q2946.32 1317.82 2948.54 1318.38 Q2950.77 1318.93 2953.24 1318.93 Q2957.25 1318.93 2959.59 1316.82 Q2961.92 1314.72 2961.92 1311.11 Q2961.92 1307.5 2959.59 1305.39 Q2957.25 1303.28 2953.24 1303.28 Q2951.37 1303.28 2949.49 1303.7 Q2947.64 1304.12 2945.7 1305 L2945.7 1287.63 Z" fill="#000000" fill-rule="nonzero" fill-opacity="1" /><path clip-path="url(#clip310)" d="M2442.79 1369.07 L2434.07 1392.72 L2451.54 1392.72 L2442.79 1369.07 M2439.16 1362.74 L2446.45 1362.74 L2464.56 1410.26 L2457.87 1410.26 L2453.54 1398.07 L2432.12 1398.07 L2427.79 1410.26 L2421.02 1410.26 L2439.16 1362.74 Z" fill="#000000" fill-rule="nonzero" fill-opacity="1" /><path clip-path="url(#clip310)" d="M2494.7 1392.02 Q2494.7 1385.66 2492.06 1382.15 Q2489.45 1378.65 2484.7 1378.65 Q2479.99 1378.65 2477.35 1382.15 Q2474.74 1385.66 2474.74 1392.02 Q2474.74 1398.35 2477.35 1401.86 Q2479.99 1405.36 2484.7 1405.36 Q2489.45 1405.36 2492.06 1401.86 Q2494.7 1398.35 2494.7 1392.02 M2500.55 1405.83 Q2500.55 1414.94 2496.51 1419.36 Q2492.47 1423.82 2484.13 1423.82 Q2481.04 1423.82 2478.31 1423.34 Q2475.57 1422.89 2472.99 1421.94 L2472.99 1416.24 Q2475.57 1417.64 2478.08 1418.31 Q2480.6 1418.98 2483.21 1418.98 Q2488.97 1418.98 2491.83 1415.96 Q2494.7 1412.96 2494.7 1406.89 L2494.7 1403.99 Q2492.88 1407.14 2490.05 1408.7 Q2487.22 1410.26 2483.27 1410.26 Q2476.72 1410.26 2472.7 1405.26 Q2468.69 1400.26 2468.69 1392.02 Q2468.69 1383.75 2472.7 1378.75 Q2476.72 1373.75 2483.27 1373.75 Q2487.22 1373.75 2490.05 1375.31 Q2492.88 1376.87 2494.7 1380.02 L2494.7 1374.61 L2500.55 1374.61 L2500.55 1405.83 Z" fill="#000000" fill-rule="nonzero" fill-opacity="1" /><path clip-path="url(#clip310)" d="M2543.11 1390.97 L2543.11 1393.84 L2516.18 1393.84 Q2516.56 1399.88 2519.81 1403.07 Q2523.09 1406.22 2528.91 1406.22 Q2532.29 1406.22 2535.44 1405.39 Q2538.62 1404.56 2541.74 1402.91 L2541.74 1408.44 Q2538.59 1409.78 2535.28 1410.48 Q2531.97 1411.18 2528.56 1411.18 Q2520.03 1411.18 2515.04 1406.22 Q2510.07 1401.25 2510.07 1392.78 Q2510.07 1384.03 2514.78 1378.91 Q2519.52 1373.75 2527.55 1373.75 Q2534.74 1373.75 2538.91 1378.4 Q2543.11 1383.01 2543.11 1390.97 M2537.25 1389.25 Q2537.19 1384.45 2534.55 1381.58 Q2531.94 1378.72 2527.61 1378.72 Q2522.71 1378.72 2519.75 1381.49 Q2516.82 1384.25 2516.37 1389.28 L2537.25 1389.25 Z" fill="#000000" fill-rule="nonzero" fill-opacity="1" /><polyline clip-path="url(#clip310)" style="stroke:#000000; stroke-linecap:round; stroke-linejoin:round; stroke-width:4; stroke-opacity:1; fill:none" points="1811.37,1253.39 1811.37,102.682 "/>
<polyline clip-path="url(#clip310)" style="stroke:#000000; stroke-linecap:round; stroke-linejoin:round; stroke-width:4; stroke-opacity:1; fill:none" points="1811.37,974.015 1830.27,974.015 "/>
<polyline clip-path="url(#clip310)" style="stroke:#000000; stroke-linecap:round; stroke-linejoin:round; stroke-width:4; stroke-opacity:1; fill:none" points="1811.37,694.42 1830.27,694.42 "/>
<polyline clip-path="url(#clip310)" style="stroke:#000000; stroke-linecap:round; stroke-linejoin:round; stroke-width:4; stroke-opacity:1; fill:none" points="1811.37,414.826 1830.27,414.826 "/>
<polyline clip-path="url(#clip310)" style="stroke:#000000; stroke-linecap:round; stroke-linejoin:round; stroke-width:4; stroke-opacity:1; fill:none" points="1811.37,135.231 1830.27,135.231 "/>
<path clip-path="url(#clip310)" d="M1707.79 959.814 Q1704.18 959.814 1702.35 963.378 Q1700.55 966.92 1700.55 974.05 Q1700.55 981.156 1702.35 984.721 Q1704.18 988.263 1707.79 988.263 Q1711.43 988.263 1713.23 984.721 Q1715.06 981.156 1715.06 974.05 Q1715.06 966.92 1713.23 963.378 Q1711.43 959.814 1707.79 959.814 M1707.79 956.11 Q1713.6 956.11 1716.66 960.716 Q1719.74 965.3 1719.74 974.05 Q1719.74 982.776 1716.66 987.383 Q1713.6 991.966 1707.79 991.966 Q1701.98 991.966 1698.9 987.383 Q1695.85 982.776 1695.85 974.05 Q1695.85 965.3 1698.9 960.716 Q1701.98 956.11 1707.79 956.11 Z" fill="#000000" fill-rule="nonzero" fill-opacity="1" /><path clip-path="url(#clip310)" d="M1727.95 985.415 L1732.84 985.415 L1732.84 991.295 L1727.95 991.295 L1727.95 985.415 Z" fill="#000000" fill-rule="nonzero" fill-opacity="1" /><path clip-path="url(#clip310)" d="M1747.05 987.36 L1763.37 987.36 L1763.37 991.295 L1741.42 991.295 L1741.42 987.36 Q1744.09 984.605 1748.67 979.976 Q1753.28 975.323 1754.46 973.98 Q1756.7 971.457 1757.58 969.721 Q1758.48 967.962 1758.48 966.272 Q1758.48 963.517 1756.54 961.781 Q1754.62 960.045 1751.52 960.045 Q1749.32 960.045 1746.86 960.809 Q1744.43 961.573 1741.66 963.124 L1741.66 958.402 Q1744.48 957.267 1746.93 956.689 Q1749.39 956.11 1751.42 956.11 Q1756.8 956.11 1759.99 958.795 Q1763.18 961.48 1763.18 965.971 Q1763.18 968.101 1762.37 970.022 Q1761.59 971.92 1759.48 974.513 Q1758.9 975.184 1755.8 978.402 Q1752.7 981.596 1747.05 987.36 Z" fill="#000000" fill-rule="nonzero" fill-opacity="1" /><path clip-path="url(#clip310)" d="M1705.71 680.219 Q1702.1 680.219 1700.27 683.784 Q1698.46 687.325 1698.46 694.455 Q1698.46 701.561 1700.27 705.126 Q1702.1 708.668 1705.71 708.668 Q1709.34 708.668 1711.15 705.126 Q1712.98 701.561 1712.98 694.455 Q1712.98 687.325 1711.15 683.784 Q1709.34 680.219 1705.71 680.219 M1705.71 676.515 Q1711.52 676.515 1714.57 681.122 Q1717.65 685.705 1717.65 694.455 Q1717.65 703.182 1714.57 707.788 Q1711.52 712.372 1705.71 712.372 Q1699.9 712.372 1696.82 707.788 Q1693.76 703.182 1693.76 694.455 Q1693.76 685.705 1696.82 681.122 Q1699.9 676.515 1705.71 676.515 Z" fill="#000000" fill-rule="nonzero" fill-opacity="1" /><path clip-path="url(#clip310)" d="M1725.87 705.821 L1730.75 705.821 L1730.75 711.7 L1725.87 711.7 L1725.87 705.821 Z" fill="#000000" fill-rule="nonzero" fill-opacity="1" /><path clip-path="url(#clip310)" d="M1753.79 681.214 L1741.98 699.663 L1753.79 699.663 L1753.79 681.214 M1752.56 677.14 L1758.44 677.14 L1758.44 699.663 L1763.37 699.663 L1763.37 703.552 L1758.44 703.552 L1758.44 711.7 L1753.79 711.7 L1753.79 703.552 L1738.18 703.552 L1738.18 699.038 L1752.56 677.14 Z" fill="#000000" fill-rule="nonzero" fill-opacity="1" /><path clip-path="url(#clip310)" d="M1706.03 400.624 Q1702.42 400.624 1700.59 404.189 Q1698.79 407.731 1698.79 414.86 Q1698.79 421.967 1700.59 425.531 Q1702.42 429.073 1706.03 429.073 Q1709.67 429.073 1711.47 425.531 Q1713.3 421.967 1713.3 414.86 Q1713.3 407.731 1711.47 404.189 Q1709.67 400.624 1706.03 400.624 M1706.03 396.921 Q1711.84 396.921 1714.9 401.527 Q1717.98 406.11 1717.98 414.86 Q1717.98 423.587 1714.9 428.193 Q1711.84 432.777 1706.03 432.777 Q1700.22 432.777 1697.14 428.193 Q1694.09 423.587 1694.09 414.86 Q1694.09 406.11 1697.14 401.527 Q1700.22 396.921 1706.03 396.921 Z" fill="#000000" fill-rule="nonzero" fill-opacity="1" /><path clip-path="url(#clip310)" d="M1726.19 426.226 L1731.08 426.226 L1731.08 432.106 L1726.19 432.106 L1726.19 426.226 Z" fill="#000000" fill-rule="nonzero" fill-opacity="1" /><path clip-path="url(#clip310)" d="M1751.84 412.962 Q1748.69 412.962 1746.84 415.115 Q1745.01 417.268 1745.01 421.018 Q1745.01 424.744 1746.84 426.92 Q1748.69 429.073 1751.84 429.073 Q1754.99 429.073 1756.82 426.92 Q1758.67 424.744 1758.67 421.018 Q1758.67 417.268 1756.82 415.115 Q1754.99 412.962 1751.84 412.962 M1761.12 398.309 L1761.12 402.569 Q1759.36 401.735 1757.56 401.295 Q1755.78 400.856 1754.02 400.856 Q1749.39 400.856 1746.93 403.981 Q1744.5 407.106 1744.16 413.425 Q1745.52 411.411 1747.58 410.346 Q1749.64 409.258 1752.12 409.258 Q1757.33 409.258 1760.34 412.43 Q1763.37 415.578 1763.37 421.018 Q1763.37 426.342 1760.22 429.559 Q1757.07 432.777 1751.84 432.777 Q1745.85 432.777 1742.67 428.193 Q1739.5 423.587 1739.5 414.86 Q1739.5 406.666 1743.39 401.805 Q1747.28 396.921 1753.83 396.921 Q1755.59 396.921 1757.37 397.268 Q1759.18 397.615 1761.12 398.309 Z" fill="#000000" fill-rule="nonzero" fill-opacity="1" /><path clip-path="url(#clip310)" d="M1706.29 121.029 Q1702.68 121.029 1700.85 124.594 Q1699.04 128.136 1699.04 135.266 Q1699.04 142.372 1700.85 145.937 Q1702.68 149.478 1706.29 149.478 Q1709.92 149.478 1711.73 145.937 Q1713.55 142.372 1713.55 135.266 Q1713.55 128.136 1711.73 124.594 Q1709.92 121.029 1706.29 121.029 M1706.29 117.326 Q1712.1 117.326 1715.15 121.932 Q1718.23 126.516 1718.23 135.266 Q1718.23 143.992 1715.15 148.599 Q1712.1 153.182 1706.29 153.182 Q1700.48 153.182 1697.4 148.599 Q1694.34 143.992 1694.34 135.266 Q1694.34 126.516 1697.4 121.932 Q1700.48 117.326 1706.29 117.326 Z" fill="#000000" fill-rule="nonzero" fill-opacity="1" /><path clip-path="url(#clip310)" d="M1726.45 146.631 L1731.33 146.631 L1731.33 152.511 L1726.45 152.511 L1726.45 146.631 Z" fill="#000000" fill-rule="nonzero" fill-opacity="1" /><path clip-path="url(#clip310)" d="M1751.52 136.099 Q1748.18 136.099 1746.26 137.881 Q1744.36 139.664 1744.36 142.789 Q1744.36 145.914 1746.26 147.696 Q1748.18 149.478 1751.52 149.478 Q1754.85 149.478 1756.77 147.696 Q1758.69 145.89 1758.69 142.789 Q1758.69 139.664 1756.77 137.881 Q1754.87 136.099 1751.52 136.099 M1746.84 134.108 Q1743.83 133.367 1742.14 131.307 Q1740.48 129.247 1740.48 126.284 Q1740.48 122.141 1743.42 119.733 Q1746.38 117.326 1751.52 117.326 Q1756.68 117.326 1759.62 119.733 Q1762.56 122.141 1762.56 126.284 Q1762.56 129.247 1760.87 131.307 Q1759.2 133.367 1756.22 134.108 Q1759.6 134.895 1761.47 137.187 Q1763.37 139.478 1763.37 142.789 Q1763.37 147.812 1760.29 150.497 Q1757.24 153.182 1751.52 153.182 Q1745.8 153.182 1742.72 150.497 Q1739.67 147.812 1739.67 142.789 Q1739.67 139.478 1741.56 137.187 Q1743.46 134.895 1746.84 134.108 M1745.13 126.724 Q1745.13 129.409 1746.8 130.914 Q1748.49 132.418 1751.52 132.418 Q1754.53 132.418 1756.22 130.914 Q1757.93 129.409 1757.93 126.724 Q1757.93 124.039 1756.22 122.534 Q1754.53 121.029 1751.52 121.029 Q1748.49 121.029 1746.8 122.534 Q1745.13 124.039 1745.13 126.724 Z" fill="#000000" fill-rule="nonzero" fill-opacity="1" /><path clip-path="url(#clip310)" d="M1583.99 831.929 L1583.99 804.621 L1589.4 804.621 L1589.4 825.5 L1603.4 825.5 L1603.4 806.658 L1608.81 806.658 L1608.81 825.5 L1631.51 825.5 L1631.51 831.929 L1583.99 831.929 Z" fill="#000000" fill-rule="nonzero" fill-opacity="1" /><path clip-path="url(#clip310)" d="M1612.22 767.763 L1615.08 767.763 L1615.08 794.69 Q1621.13 794.308 1624.31 791.062 Q1627.46 787.783 1627.46 781.959 Q1627.46 778.585 1626.64 775.434 Q1625.81 772.251 1624.15 769.132 L1629.69 769.132 Q1631.03 772.283 1631.73 775.593 Q1632.43 778.903 1632.43 782.309 Q1632.43 790.839 1627.46 795.836 Q1622.5 800.801 1614.03 800.801 Q1605.28 800.801 1600.16 796.091 Q1595 791.348 1595 783.327 Q1595 776.134 1599.65 771.964 Q1604.26 767.763 1612.22 767.763 M1610.5 773.62 Q1605.69 773.683 1602.83 776.325 Q1599.97 778.935 1599.97 783.264 Q1599.97 788.165 1602.73 791.125 Q1605.5 794.053 1610.53 794.499 L1610.5 773.62 Z" fill="#000000" fill-rule="nonzero" fill-opacity="1" /><path clip-path="url(#clip310)" d="M1597.23 732.497 L1602.7 732.497 Q1601.33 734.98 1600.67 737.494 Q1599.97 739.977 1599.97 742.523 Q1599.97 748.22 1603.59 751.371 Q1607.19 754.522 1613.71 754.522 Q1620.24 754.522 1623.87 751.371 Q1627.46 748.22 1627.46 742.523 Q1627.46 739.977 1626.8 737.494 Q1626.1 734.98 1624.73 732.497 L1630.14 732.497 Q1631.28 734.948 1631.86 737.59 Q1632.43 740.2 1632.43 743.16 Q1632.43 751.212 1627.37 755.955 Q1622.31 760.697 1613.71 760.697 Q1604.99 760.697 1600 755.923 Q1595 751.117 1595 742.778 Q1595 740.072 1595.57 737.494 Q1596.11 734.916 1597.23 732.497 Z" fill="#000000" fill-rule="nonzero" fill-opacity="1" /><path clip-path="url(#clip310)" d="M1617.44 722.917 L1595.86 722.917 L1595.86 717.06 L1617.22 717.06 Q1622.28 717.06 1624.82 715.087 Q1627.34 713.114 1627.34 709.167 Q1627.34 704.424 1624.31 701.687 Q1621.29 698.918 1616.07 698.918 L1595.86 698.918 L1595.86 693.062 L1631.51 693.062 L1631.51 698.918 L1626.03 698.918 Q1629.28 701.051 1630.87 703.883 Q1632.43 706.684 1632.43 710.408 Q1632.43 716.551 1628.61 719.734 Q1624.79 722.917 1617.44 722.917 M1595 708.18 L1595 708.18 Z" fill="#000000" fill-rule="nonzero" fill-opacity="1" /><path clip-path="url(#clip310)" d="M1609.99 651.366 L1631.51 651.366 L1631.51 657.223 L1610.18 657.223 Q1605.12 657.223 1602.61 659.196 Q1600.09 661.169 1600.09 665.116 Q1600.09 669.859 1603.12 672.596 Q1606.14 675.333 1611.36 675.333 L1631.51 675.333 L1631.51 681.221 L1595.86 681.221 L1595.86 675.333 L1601.4 675.333 Q1598.18 673.232 1596.59 670.4 Q1595 667.535 1595 663.811 Q1595 657.668 1598.82 654.517 Q1602.61 651.366 1609.99 651.366 Z" fill="#000000" fill-rule="nonzero" fill-opacity="1" /><path clip-path="url(#clip310)" d="M1601.27 616.227 L1581.98 616.227 L1581.98 610.371 L1631.51 610.371 L1631.51 616.227 L1626.16 616.227 Q1629.34 618.074 1630.9 620.906 Q1632.43 623.707 1632.43 627.654 Q1632.43 634.115 1627.27 638.189 Q1622.12 642.231 1613.71 642.231 Q1605.31 642.231 1600.16 638.189 Q1595 634.115 1595 627.654 Q1595 623.707 1596.56 620.906 Q1598.09 618.074 1601.27 616.227 M1613.71 636.184 Q1620.18 636.184 1623.87 633.542 Q1627.53 630.869 1627.53 626.222 Q1627.53 621.575 1623.87 618.901 Q1620.18 616.227 1613.71 616.227 Q1607.25 616.227 1603.59 618.901 Q1599.9 621.575 1599.9 626.222 Q1599.9 630.869 1603.59 633.542 Q1607.25 636.184 1613.71 636.184 Z" fill="#000000" fill-rule="nonzero" fill-opacity="1" /><path clip-path="url(#clip310)" d="M1595.86 598.308 L1595.86 592.452 L1631.51 592.452 L1631.51 598.308 L1595.86 598.308 M1581.98 598.308 L1581.98 592.452 L1589.4 592.452 L1589.4 598.308 L1581.98 598.308 Z" fill="#000000" fill-rule="nonzero" fill-opacity="1" /><path clip-path="url(#clip310)" d="M1585.74 574.405 L1595.86 574.405 L1595.86 562.342 L1600.41 562.342 L1600.41 574.405 L1619.76 574.405 Q1624.12 574.405 1625.36 573.227 Q1626.61 572.018 1626.61 568.357 L1626.61 562.342 L1631.51 562.342 L1631.51 568.357 Q1631.51 575.137 1628.99 577.715 Q1626.45 580.293 1619.76 580.293 L1600.41 580.293 L1600.41 584.59 L1595.86 584.59 L1595.86 580.293 L1585.74 580.293 L1585.74 574.405 Z" fill="#000000" fill-rule="nonzero" fill-opacity="1" /><path clip-path="url(#clip310)" d="M1634.82 539.807 Q1641.18 542.29 1643.12 544.645 Q1645.07 547 1645.07 550.947 L1645.07 555.626 L1640.16 555.626 L1640.16 552.188 Q1640.16 549.769 1639.02 548.433 Q1637.87 547.096 1633.61 545.473 L1630.93 544.422 L1595.86 558.841 L1595.86 552.634 L1623.74 541.494 L1595.86 530.354 L1595.86 524.148 L1634.82 539.807 Z" fill="#000000" fill-rule="nonzero" fill-opacity="1" /><polyline clip-path="url(#clip311)" style="stroke:#ffa500; stroke-linecap:round; stroke-linejoin:round; stroke-width:8; stroke-opacity:1; fill:none" points="1849.33,1220.83 1892.97,1200.57 1936.61,1168.77 1980.24,1120.3 2023.88,1049.59 2067.52,952.831 2111.15,831.376 2154.79,694.42 2198.43,557.464 2242.06,436.009 2285.7,339.252 2329.33,268.545 2372.97,220.069 2416.61,188.271 2460.24,168.013 2503.88,155.346 2547.52,147.518 2591.15,142.716 2634.79,139.783 2678.43,137.996 2722.06,136.91 2765.7,136.25 2809.34,135.849 2852.97,135.606 2896.61,135.458 2940.25,135.369 2983.88,135.314 3027.52,135.282 3071.16,135.262 3114.79,135.249 "/>
<path clip-path="url(#clip310)" d="M1856.08 244.719 L2066.79 244.719 L2066.79 141.039 L1856.08 141.039  Z" fill="#ffffff" fill-rule="evenodd" fill-opacity="1"/>
<polyline clip-path="url(#clip310)" style="stroke:#000000; stroke-linecap:round; stroke-linejoin:round; stroke-width:4; stroke-opacity:1; fill:none" points="1856.08,244.719 2066.79,244.719 2066.79,141.039 1856.08,141.039 1856.08,244.719 "/>
<polyline clip-path="url(#clip310)" style="stroke:#ffa500; stroke-linecap:round; stroke-linejoin:round; stroke-width:8; stroke-opacity:1; fill:none" points="1870.99,192.879 1960.41,192.879 "/>
<path clip-path="url(#clip310)" d="M1991.82 174.141 L1991.82 177.683 L1987.75 177.683 Q1985.46 177.683 1984.55 178.608 Q1983.67 179.534 1983.67 181.942 L1983.67 184.233 L1990.69 184.233 L1990.69 187.544 L1983.67 187.544 L1983.67 210.159 L1979.39 210.159 L1979.39 187.544 L1975.32 187.544 L1975.32 184.233 L1979.39 184.233 L1979.39 182.428 Q1979.39 178.099 1981.4 176.132 Q1983.42 174.141 1987.79 174.141 L1991.82 174.141 Z" fill="#000000" fill-rule="nonzero" fill-opacity="1" /><path clip-path="url(#clip310)" d="M2005.62 174.187 Q2002.52 179.511 2001.01 184.72 Q1999.51 189.928 1999.51 195.275 Q1999.51 200.622 2001.01 205.877 Q2002.54 211.108 2005.62 216.409 L2001.91 216.409 Q1998.44 210.969 1996.71 205.715 Q1994.99 200.46 1994.99 195.275 Q1994.99 190.113 1996.71 184.882 Q1998.42 179.65 2001.91 174.187 L2005.62 174.187 Z" fill="#000000" fill-rule="nonzero" fill-opacity="1" /><path clip-path="url(#clip310)" d="M2035.43 184.233 L2026.06 196.849 L2035.92 210.159 L2030.89 210.159 L2023.35 199.974 L2015.8 210.159 L2010.78 210.159 L2020.85 196.594 L2011.64 184.233 L2016.66 184.233 L2023.53 193.469 L2030.41 184.233 L2035.43 184.233 Z" fill="#000000" fill-rule="nonzero" fill-opacity="1" /><path clip-path="url(#clip310)" d="M2041.27 174.187 L2044.97 174.187 Q2048.44 179.65 2050.15 184.882 Q2051.89 190.113 2051.89 195.275 Q2051.89 200.46 2050.15 205.715 Q2048.44 210.969 2044.97 216.409 L2041.27 216.409 Q2044.34 211.108 2045.85 205.877 Q2047.38 200.622 2047.38 195.275 Q2047.38 189.928 2045.85 184.72 Q2044.34 179.511 2041.27 174.187 Z" fill="#000000" fill-rule="nonzero" fill-opacity="1" /></svg>
