<?xml version="1.0" encoding="utf-8"?>
<svg xmlns="http://www.w3.org/2000/svg" xmlns:xlink="http://www.w3.org/1999/xlink" width="672" height="480" viewBox="0 0 2688 1920">
<defs>
  <clipPath id="clip160">
    <rect x="0" y="0" width="2688" height="1920"/>
  </clipPath>
</defs>
<path clip-path="url(#clip160)" d="M0 1920 L2688 1920 L2688 -4.26326e-14 L0 -4.26326e-14  Z" fill="#ffffff" fill-rule="evenodd" fill-opacity="1"/>
<defs>
  <clipPath id="clip161">
    <rect x="226" y="127" width="2416" height="1607"/>
  </clipPath>
</defs>
<path clip-path="url(#clip160)" d="M226.141 1734.12 L2640.76 1734.12 L2640.76 127.792 L226.141 127.792  Z" fill="#ffffff" fill-rule="evenodd" fill-opacity="1"/>
<polyline clip-path="url(#clip161)" style="stroke:#000000; stroke-linecap:round; stroke-linejoin:round; stroke-width:2; stroke-opacity:0.1; fill:none" points="538.032,1734.12 538.032,127.792 "/>
<polyline clip-path="url(#clip161)" style="stroke:#000000; stroke-linecap:round; stroke-linejoin:round; stroke-width:2; stroke-opacity:0.1; fill:none" points="985.74,1734.12 985.74,127.792 "/>
<polyline clip-path="url(#clip161)" style="stroke:#000000; stroke-linecap:round; stroke-linejoin:round; stroke-width:2; stroke-opacity:0.1; fill:none" points="1433.45,1734.12 1433.45,127.792 "/>
<polyline clip-path="url(#clip161)" style="stroke:#000000; stroke-linecap:round; stroke-linejoin:round; stroke-width:2; stroke-opacity:0.1; fill:none" points="1881.16,1734.12 1881.16,127.792 "/>
<polyline clip-path="url(#clip161)" style="stroke:#000000; stroke-linecap:round; stroke-linejoin:round; stroke-width:2; stroke-opacity:0.1; fill:none" points="2328.86,1734.12 2328.86,127.792 "/>
<polyline clip-path="url(#clip161)" style="stroke:#000000; stroke-linecap:round; stroke-linejoin:round; stroke-width:2; stroke-opacity:0.1; fill:none" points="226.141,1734.12 2640.76,1734.12 "/>
<polyline clip-path="url(#clip161)" style="stroke:#000000; stroke-linecap:round; stroke-linejoin:round; stroke-width:2; stroke-opacity:0.1; fill:none" points="226.141,1337.33 2640.76,1337.33 "/>
<polyline clip-path="url(#clip161)" style="stroke:#000000; stroke-linecap:round; stroke-linejoin:round; stroke-width:2; stroke-opacity:0.1; fill:none" points="226.141,940.55 2640.76,940.55 "/>
<polyline clip-path="url(#clip161)" style="stroke:#000000; stroke-linecap:round; stroke-linejoin:round; stroke-width:2; stroke-opacity:0.1; fill:none" points="226.141,543.767 2640.76,543.767 "/>
<polyline clip-path="url(#clip161)" style="stroke:#000000; stroke-linecap:round; stroke-linejoin:round; stroke-width:2; stroke-opacity:0.1; fill:none" points="226.141,146.983 2640.76,146.983 "/>
<polyline clip-path="url(#clip160)" style="stroke:#000000; stroke-linecap:round; stroke-linejoin:round; stroke-width:4; stroke-opacity:1; fill:none" points="226.141,1734.12 2640.76,1734.12 "/>
<polyline clip-path="url(#clip160)" style="stroke:#000000; stroke-linecap:round; stroke-linejoin:round; stroke-width:4; stroke-opacity:1; fill:none" points="538.032,1734.12 538.032,1715.22 "/>
<polyline clip-path="url(#clip160)" style="stroke:#000000; stroke-linecap:round; stroke-linejoin:round; stroke-width:4; stroke-opacity:1; fill:none" points="985.74,1734.12 985.74,1715.22 "/>
<polyline clip-path="url(#clip160)" style="stroke:#000000; stroke-linecap:round; stroke-linejoin:round; stroke-width:4; stroke-opacity:1; fill:none" points="1433.45,1734.12 1433.45,1715.22 "/>
<polyline clip-path="url(#clip160)" style="stroke:#000000; stroke-linecap:round; stroke-linejoin:round; stroke-width:4; stroke-opacity:1; fill:none" points="1881.16,1734.12 1881.16,1715.22 "/>
<polyline clip-path="url(#clip160)" style="stroke:#000000; stroke-linecap:round; stroke-linejoin:round; stroke-width:4; stroke-opacity:1; fill:none" points="2328.86,1734.12 2328.86,1715.22 "/>
<path clip-path="url(#clip160)" d="M446.713 1764.26 L451.736 1764.26 L461.319 1778.47 L470.833 1764.26 L475.856 1764.26 L463.634 1782.36 L463.634 1798.82 L458.935 1798.82 L458.935 1782.36 L446.713 1764.26 Z" fill="#000000" fill-rule="nonzero" fill-opacity="1" /><path clip-path="url(#clip160)" d="M496.111 1784.79 L496.111 1786.88 L476.528 1786.88 Q476.805 1791.27 479.167 1793.59 Q481.551 1795.88 485.787 1795.88 Q488.241 1795.88 490.532 1795.28 Q492.847 1794.68 495.116 1793.47 L495.116 1797.5 Q492.824 1798.47 490.416 1798.98 Q488.009 1799.49 485.532 1799.49 Q479.329 1799.49 475.694 1795.88 Q472.083 1792.27 472.083 1786.11 Q472.083 1779.75 475.509 1776.02 Q478.958 1772.27 484.791 1772.27 Q490.023 1772.27 493.055 1775.65 Q496.111 1779.01 496.111 1784.79 M491.852 1783.54 Q491.805 1780.05 489.884 1777.96 Q487.986 1775.88 484.838 1775.88 Q481.273 1775.88 479.12 1777.9 Q476.991 1779.91 476.667 1783.57 L491.852 1783.54 Z" fill="#000000" fill-rule="nonzero" fill-opacity="1" /><path clip-path="url(#clip160)" d="M514.884 1785.79 Q509.722 1785.79 507.731 1786.97 Q505.74 1788.15 505.74 1791 Q505.74 1793.27 507.222 1794.61 Q508.727 1795.93 511.296 1795.93 Q514.838 1795.93 516.967 1793.43 Q519.12 1790.9 519.12 1786.74 L519.12 1785.79 L514.884 1785.79 M523.379 1784.03 L523.379 1798.82 L519.12 1798.82 L519.12 1794.89 Q517.662 1797.25 515.486 1798.38 Q513.31 1799.49 510.162 1799.49 Q506.18 1799.49 503.819 1797.27 Q501.481 1795.02 501.481 1791.27 Q501.481 1786.9 504.398 1784.68 Q507.338 1782.46 513.148 1782.46 L519.12 1782.46 L519.12 1782.04 Q519.12 1779.1 517.176 1777.5 Q515.254 1775.88 511.759 1775.88 Q509.537 1775.88 507.43 1776.41 Q505.324 1776.95 503.379 1778.01 L503.379 1774.08 Q505.717 1773.17 507.916 1772.73 Q510.115 1772.27 512.199 1772.27 Q517.824 1772.27 520.601 1775.19 Q523.379 1778.1 523.379 1784.03 Z" fill="#000000" fill-rule="nonzero" fill-opacity="1" /><path clip-path="url(#clip160)" d="M547.175 1776.88 Q546.458 1776.46 545.601 1776.27 Q544.768 1776.07 543.75 1776.07 Q540.138 1776.07 538.194 1778.43 Q536.273 1780.77 536.273 1785.16 L536.273 1798.82 L531.99 1798.82 L531.99 1772.9 L536.273 1772.9 L536.273 1776.92 Q537.615 1774.56 539.768 1773.43 Q541.921 1772.27 545 1772.27 Q545.439 1772.27 545.972 1772.34 Q546.504 1772.39 547.152 1772.5 L547.175 1776.88 Z" fill="#000000" fill-rule="nonzero" fill-opacity="1" /><path clip-path="url(#clip160)" d="M551.643 1762.8 L555.902 1762.8 L555.902 1798.82 L551.643 1798.82 L551.643 1762.8 Z" fill="#000000" fill-rule="nonzero" fill-opacity="1" /><path clip-path="url(#clip160)" d="M564.814 1772.9 L569.073 1772.9 L569.073 1798.82 L564.814 1798.82 L564.814 1772.9 M564.814 1762.8 L569.073 1762.8 L569.073 1768.2 L564.814 1768.2 L564.814 1762.8 Z" fill="#000000" fill-rule="nonzero" fill-opacity="1" /><path clip-path="url(#clip160)" d="M599.536 1783.17 L599.536 1798.82 L595.277 1798.82 L595.277 1783.31 Q595.277 1779.63 593.842 1777.8 Q592.407 1775.97 589.536 1775.97 Q586.087 1775.97 584.097 1778.17 Q582.106 1780.37 582.106 1784.17 L582.106 1798.82 L577.823 1798.82 L577.823 1772.9 L582.106 1772.9 L582.106 1776.92 Q583.634 1774.59 585.694 1773.43 Q587.777 1772.27 590.485 1772.27 Q594.953 1772.27 597.245 1775.05 Q599.536 1777.8 599.536 1783.17 Z" fill="#000000" fill-rule="nonzero" fill-opacity="1" /><path clip-path="url(#clip160)" d="M625.092 1785.56 Q625.092 1780.93 623.17 1778.38 Q621.272 1775.83 617.823 1775.83 Q614.397 1775.83 612.476 1778.38 Q610.578 1780.93 610.578 1785.56 Q610.578 1790.16 612.476 1792.71 Q614.397 1795.26 617.823 1795.26 Q621.272 1795.26 623.17 1792.71 Q625.092 1790.16 625.092 1785.56 M629.351 1795.6 Q629.351 1802.22 626.411 1805.44 Q623.471 1808.68 617.407 1808.68 Q615.161 1808.68 613.17 1808.33 Q611.18 1808.01 609.305 1807.32 L609.305 1803.17 Q611.18 1804.19 613.008 1804.68 Q614.837 1805.16 616.735 1805.16 Q620.925 1805.16 623.008 1802.96 Q625.092 1800.79 625.092 1796.37 L625.092 1794.26 Q623.772 1796.55 621.712 1797.69 Q619.652 1798.82 616.782 1798.82 Q612.013 1798.82 609.096 1795.19 Q606.18 1791.55 606.18 1785.56 Q606.18 1779.54 609.096 1775.9 Q612.013 1772.27 616.782 1772.27 Q619.652 1772.27 621.712 1773.4 Q623.772 1774.54 625.092 1776.83 L625.092 1772.9 L629.351 1772.9 L629.351 1795.6 Z" fill="#000000" fill-rule="nonzero" fill-opacity="1" /><path clip-path="url(#clip160)" d="M901.25 1765.4 L901.25 1769.96 Q898.588 1768.68 896.227 1768.06 Q893.866 1767.43 891.667 1767.43 Q887.847 1767.43 885.764 1768.91 Q883.704 1770.4 883.704 1773.13 Q883.704 1775.42 885.069 1776.6 Q886.458 1777.76 890.301 1778.47 L893.125 1779.05 Q898.356 1780.05 900.833 1782.57 Q903.333 1785.07 903.333 1789.28 Q903.333 1794.31 899.954 1796.9 Q896.597 1799.49 890.092 1799.49 Q887.639 1799.49 884.861 1798.94 Q882.106 1798.38 879.143 1797.29 L879.143 1792.48 Q881.991 1794.08 884.722 1794.89 Q887.454 1795.7 890.092 1795.7 Q894.097 1795.7 896.273 1794.12 Q898.449 1792.55 898.449 1789.63 Q898.449 1787.08 896.875 1785.65 Q895.324 1784.21 891.759 1783.5 L888.912 1782.94 Q883.68 1781.9 881.343 1779.68 Q879.005 1777.46 879.005 1773.5 Q879.005 1768.91 882.222 1766.27 Q885.463 1763.64 891.134 1763.64 Q893.565 1763.64 896.088 1764.08 Q898.611 1764.52 901.25 1765.4 Z" fill="#000000" fill-rule="nonzero" fill-opacity="1" /><path clip-path="url(#clip160)" d="M930.625 1777.87 Q932.222 1775 934.444 1773.64 Q936.666 1772.27 939.676 1772.27 Q943.726 1772.27 945.925 1775.12 Q948.125 1777.94 948.125 1783.17 L948.125 1798.82 L943.842 1798.82 L943.842 1783.31 Q943.842 1779.58 942.523 1777.78 Q941.203 1775.97 938.495 1775.97 Q935.185 1775.97 933.264 1778.17 Q931.342 1780.37 931.342 1784.17 L931.342 1798.82 L927.06 1798.82 L927.06 1783.31 Q927.06 1779.56 925.74 1777.78 Q924.421 1775.97 921.666 1775.97 Q918.402 1775.97 916.481 1778.2 Q914.56 1780.4 914.56 1784.17 L914.56 1798.82 L910.278 1798.82 L910.278 1772.9 L914.56 1772.9 L914.56 1776.92 Q916.018 1774.54 918.055 1773.4 Q920.092 1772.27 922.893 1772.27 Q925.717 1772.27 927.685 1773.71 Q929.676 1775.14 930.625 1777.87 Z" fill="#000000" fill-rule="nonzero" fill-opacity="1" /><path clip-path="url(#clip160)" d="M968.402 1785.79 Q963.24 1785.79 961.249 1786.97 Q959.259 1788.15 959.259 1791 Q959.259 1793.27 960.74 1794.61 Q962.245 1795.93 964.814 1795.93 Q968.356 1795.93 970.486 1793.43 Q972.638 1790.9 972.638 1786.74 L972.638 1785.79 L968.402 1785.79 M976.898 1784.03 L976.898 1798.82 L972.638 1798.82 L972.638 1794.89 Q971.18 1797.25 969.004 1798.38 Q966.828 1799.49 963.68 1799.49 Q959.699 1799.49 957.337 1797.27 Q955 1795.02 955 1791.27 Q955 1786.9 957.916 1784.68 Q960.856 1782.46 966.666 1782.46 L972.638 1782.46 L972.638 1782.04 Q972.638 1779.1 970.694 1777.5 Q968.773 1775.88 965.277 1775.88 Q963.055 1775.88 960.949 1776.41 Q958.842 1776.95 956.898 1778.01 L956.898 1774.08 Q959.236 1773.17 961.435 1772.73 Q963.634 1772.27 965.717 1772.27 Q971.342 1772.27 974.12 1775.19 Q976.898 1778.1 976.898 1784.03 Z" fill="#000000" fill-rule="nonzero" fill-opacity="1" /><path clip-path="url(#clip160)" d="M985.671 1762.8 L989.93 1762.8 L989.93 1798.82 L985.671 1798.82 L985.671 1762.8 Z" fill="#000000" fill-rule="nonzero" fill-opacity="1" /><path clip-path="url(#clip160)" d="M998.842 1762.8 L1003.1 1762.8 L1003.1 1798.82 L998.842 1798.82 L998.842 1762.8 Z" fill="#000000" fill-rule="nonzero" fill-opacity="1" /><path clip-path="url(#clip160)" d="M1027.08 1772.9 L1031.34 1772.9 L1031.34 1799.28 Q1031.34 1804.24 1029.44 1806.46 Q1027.57 1808.68 1023.38 1808.68 L1021.76 1808.68 L1021.76 1805.07 L1022.89 1805.07 Q1025.32 1805.07 1026.2 1803.94 Q1027.08 1802.83 1027.08 1799.28 L1027.08 1772.9 M1027.08 1762.8 L1031.34 1762.8 L1031.34 1768.2 L1027.08 1768.2 L1027.08 1762.8 Z" fill="#000000" fill-rule="nonzero" fill-opacity="1" /><path clip-path="url(#clip160)" d="M1039.81 1788.59 L1039.81 1772.9 L1044.07 1772.9 L1044.07 1788.43 Q1044.07 1792.11 1045.51 1793.96 Q1046.94 1795.79 1049.81 1795.79 Q1053.26 1795.79 1055.25 1793.59 Q1057.27 1791.39 1057.27 1787.59 L1057.27 1772.9 L1061.53 1772.9 L1061.53 1798.82 L1057.27 1798.82 L1057.27 1794.84 Q1055.72 1797.2 1053.66 1798.36 Q1051.62 1799.49 1048.91 1799.49 Q1044.44 1799.49 1042.13 1796.71 Q1039.81 1793.94 1039.81 1788.59 M1050.53 1772.27 L1050.53 1772.27 Z" fill="#000000" fill-rule="nonzero" fill-opacity="1" /><path clip-path="url(#clip160)" d="M1067.24 1772.9 L1071.76 1772.9 L1079.86 1794.65 L1087.96 1772.9 L1092.48 1772.9 L1082.75 1798.82 L1076.97 1798.82 L1067.24 1772.9 Z" fill="#000000" fill-rule="nonzero" fill-opacity="1" /><path clip-path="url(#clip160)" d="M1326.62 1764.26 L1331.3 1764.26 L1331.3 1794.89 L1348.12 1794.89 L1348.12 1798.82 L1326.62 1798.82 L1326.62 1764.26 Z" fill="#000000" fill-rule="nonzero" fill-opacity="1" /><path clip-path="url(#clip160)" d="M1364.63 1785.79 Q1359.47 1785.79 1357.48 1786.97 Q1355.49 1788.15 1355.49 1791 Q1355.49 1793.27 1356.97 1794.61 Q1358.47 1795.93 1361.04 1795.93 Q1364.58 1795.93 1366.71 1793.43 Q1368.87 1790.9 1368.87 1786.74 L1368.87 1785.79 L1364.63 1785.79 M1373.12 1784.03 L1373.12 1798.82 L1368.87 1798.82 L1368.87 1794.89 Q1367.41 1797.25 1365.23 1798.38 Q1363.06 1799.49 1359.91 1799.49 Q1355.93 1799.49 1353.56 1797.27 Q1351.23 1795.02 1351.23 1791.27 Q1351.23 1786.9 1354.14 1784.68 Q1357.08 1782.46 1362.89 1782.46 L1368.87 1782.46 L1368.87 1782.04 Q1368.87 1779.1 1366.92 1777.5 Q1365 1775.88 1361.5 1775.88 Q1359.28 1775.88 1357.18 1776.41 Q1355.07 1776.95 1353.12 1778.01 L1353.12 1774.08 Q1355.46 1773.17 1357.66 1772.73 Q1359.86 1772.27 1361.94 1772.27 Q1367.57 1772.27 1370.35 1775.19 Q1373.12 1778.1 1373.12 1784.03 Z" fill="#000000" fill-rule="nonzero" fill-opacity="1" /><path clip-path="url(#clip160)" d="M1396.92 1776.88 Q1396.2 1776.46 1395.35 1776.27 Q1394.51 1776.07 1393.49 1776.07 Q1389.88 1776.07 1387.94 1778.43 Q1386.02 1780.77 1386.02 1785.16 L1386.02 1798.82 L1381.74 1798.82 L1381.74 1772.9 L1386.02 1772.9 L1386.02 1776.92 Q1387.36 1774.56 1389.51 1773.43 Q1391.67 1772.27 1394.74 1772.27 Q1395.18 1772.27 1395.72 1772.34 Q1396.25 1772.39 1396.9 1772.5 L1396.92 1776.88 Z" fill="#000000" fill-rule="nonzero" fill-opacity="1" /><path clip-path="url(#clip160)" d="M1417.61 1785.56 Q1417.61 1780.93 1415.69 1778.38 Q1413.8 1775.83 1410.35 1775.83 Q1406.92 1775.83 1405 1778.38 Q1403.1 1780.93 1403.1 1785.56 Q1403.1 1790.16 1405 1792.71 Q1406.92 1795.26 1410.35 1795.26 Q1413.8 1795.26 1415.69 1792.71 Q1417.61 1790.16 1417.61 1785.56 M1421.87 1795.6 Q1421.87 1802.22 1418.93 1805.44 Q1415.99 1808.68 1409.93 1808.68 Q1407.68 1808.68 1405.69 1808.33 Q1403.7 1808.01 1401.83 1807.32 L1401.83 1803.17 Q1403.7 1804.19 1405.53 1804.68 Q1407.36 1805.16 1409.26 1805.16 Q1413.45 1805.16 1415.53 1802.96 Q1417.61 1800.79 1417.61 1796.37 L1417.61 1794.26 Q1416.3 1796.55 1414.24 1797.69 Q1412.18 1798.82 1409.3 1798.82 Q1404.54 1798.82 1401.62 1795.19 Q1398.7 1791.55 1398.7 1785.56 Q1398.7 1779.54 1401.62 1775.9 Q1404.54 1772.27 1409.3 1772.27 Q1412.18 1772.27 1414.24 1773.4 Q1416.3 1774.54 1417.61 1776.83 L1417.61 1772.9 L1421.87 1772.9 L1421.87 1795.6 Z" fill="#000000" fill-rule="nonzero" fill-opacity="1" /><path clip-path="url(#clip160)" d="M1452.82 1784.79 L1452.82 1786.88 L1433.24 1786.88 Q1433.52 1791.27 1435.88 1793.59 Q1438.26 1795.88 1442.5 1795.88 Q1444.95 1795.88 1447.24 1795.28 Q1449.56 1794.68 1451.83 1793.47 L1451.83 1797.5 Q1449.54 1798.47 1447.13 1798.98 Q1444.72 1799.49 1442.24 1799.49 Q1436.04 1799.49 1432.41 1795.88 Q1428.8 1792.27 1428.8 1786.11 Q1428.8 1779.75 1432.22 1776.02 Q1435.67 1772.27 1441.5 1772.27 Q1446.74 1772.27 1449.77 1775.65 Q1452.82 1779.01 1452.82 1784.79 M1448.56 1783.54 Q1448.52 1780.05 1446.6 1777.96 Q1444.7 1775.88 1441.55 1775.88 Q1437.99 1775.88 1435.83 1777.9 Q1433.7 1779.91 1433.38 1783.57 L1448.56 1783.54 Z" fill="#000000" fill-rule="nonzero" fill-opacity="1" /><path clip-path="url(#clip160)" d="M1474.88 1772.9 L1479.14 1772.9 L1479.14 1799.28 Q1479.14 1804.24 1477.24 1806.46 Q1475.37 1808.68 1471.18 1808.68 L1469.56 1808.68 L1469.56 1805.07 L1470.69 1805.07 Q1473.12 1805.07 1474 1803.94 Q1474.88 1802.83 1474.88 1799.28 L1474.88 1772.9 M1474.88 1762.8 L1479.14 1762.8 L1479.14 1768.2 L1474.88 1768.2 L1474.88 1762.8 Z" fill="#000000" fill-rule="nonzero" fill-opacity="1" /><path clip-path="url(#clip160)" d="M1487.61 1788.59 L1487.61 1772.9 L1491.87 1772.9 L1491.87 1788.43 Q1491.87 1792.11 1493.31 1793.96 Q1494.74 1795.79 1497.61 1795.79 Q1501.06 1795.79 1503.05 1793.59 Q1505.07 1791.39 1505.07 1787.59 L1505.07 1772.9 L1509.33 1772.9 L1509.33 1798.82 L1505.07 1798.82 L1505.07 1794.84 Q1503.52 1797.2 1501.46 1798.36 Q1499.42 1799.49 1496.71 1799.49 Q1492.24 1799.49 1489.93 1796.71 Q1487.61 1793.94 1487.61 1788.59 M1498.33 1772.27 L1498.33 1772.27 Z" fill="#000000" fill-rule="nonzero" fill-opacity="1" /><path clip-path="url(#clip160)" d="M1515.05 1772.9 L1519.56 1772.9 L1527.66 1794.65 L1535.76 1772.9 L1540.28 1772.9 L1530.55 1798.82 L1524.77 1798.82 L1515.05 1772.9 Z" fill="#000000" fill-rule="nonzero" fill-opacity="1" /><path clip-path="url(#clip160)" d="M1768.92 1764.26 L1773.6 1764.26 L1773.6 1798.82 L1768.92 1798.82 L1768.92 1764.26 Z" fill="#000000" fill-rule="nonzero" fill-opacity="1" /><path clip-path="url(#clip160)" d="M1802.9 1777.87 Q1804.5 1775 1806.72 1773.64 Q1808.95 1772.27 1811.96 1772.27 Q1816.01 1772.27 1818.21 1775.12 Q1820.4 1777.94 1820.4 1783.17 L1820.4 1798.82 L1816.12 1798.82 L1816.12 1783.31 Q1816.12 1779.58 1814.8 1777.78 Q1813.48 1775.97 1810.77 1775.97 Q1807.46 1775.97 1805.54 1778.17 Q1803.62 1780.37 1803.62 1784.17 L1803.62 1798.82 L1799.34 1798.82 L1799.34 1783.31 Q1799.34 1779.56 1798.02 1777.78 Q1796.7 1775.97 1793.95 1775.97 Q1790.68 1775.97 1788.76 1778.2 Q1786.84 1780.4 1786.84 1784.17 L1786.84 1798.82 L1782.56 1798.82 L1782.56 1772.9 L1786.84 1772.9 L1786.84 1776.92 Q1788.3 1774.54 1790.34 1773.4 Q1792.37 1772.27 1795.17 1772.27 Q1798 1772.27 1799.96 1773.71 Q1801.96 1775.14 1802.9 1777.87 Z" fill="#000000" fill-rule="nonzero" fill-opacity="1" /><path clip-path="url(#clip160)" d="M1849.08 1777.87 Q1850.68 1775 1852.9 1773.64 Q1855.13 1772.27 1858.14 1772.27 Q1862.19 1772.27 1864.39 1775.12 Q1866.58 1777.94 1866.58 1783.17 L1866.58 1798.82 L1862.3 1798.82 L1862.3 1783.31 Q1862.3 1779.58 1860.98 1777.78 Q1859.66 1775.97 1856.96 1775.97 Q1853.64 1775.97 1851.72 1778.17 Q1849.8 1780.37 1849.8 1784.17 L1849.8 1798.82 L1845.52 1798.82 L1845.52 1783.31 Q1845.52 1779.56 1844.2 1777.78 Q1842.88 1775.97 1840.13 1775.97 Q1836.86 1775.97 1834.94 1778.2 Q1833.02 1780.4 1833.02 1784.17 L1833.02 1798.82 L1828.74 1798.82 L1828.74 1772.9 L1833.02 1772.9 L1833.02 1776.92 Q1834.48 1774.54 1836.52 1773.4 Q1838.55 1772.27 1841.35 1772.27 Q1844.18 1772.27 1846.14 1773.71 Q1848.14 1775.14 1849.08 1777.87 Z" fill="#000000" fill-rule="nonzero" fill-opacity="1" /><path clip-path="url(#clip160)" d="M1886.86 1785.79 Q1881.7 1785.79 1879.71 1786.97 Q1877.72 1788.15 1877.72 1791 Q1877.72 1793.27 1879.2 1794.61 Q1880.7 1795.93 1883.27 1795.93 Q1886.82 1795.93 1888.95 1793.43 Q1891.1 1790.9 1891.1 1786.74 L1891.1 1785.79 L1886.86 1785.79 M1895.36 1784.03 L1895.36 1798.82 L1891.1 1798.82 L1891.1 1794.89 Q1889.64 1797.25 1887.46 1798.38 Q1885.29 1799.49 1882.14 1799.49 Q1878.16 1799.49 1875.8 1797.27 Q1873.46 1795.02 1873.46 1791.27 Q1873.46 1786.9 1876.38 1784.68 Q1879.32 1782.46 1885.13 1782.46 L1891.1 1782.46 L1891.1 1782.04 Q1891.1 1779.1 1889.15 1777.5 Q1887.23 1775.88 1883.74 1775.88 Q1881.52 1775.88 1879.41 1776.41 Q1877.3 1776.95 1875.36 1778.01 L1875.36 1774.08 Q1877.7 1773.17 1879.89 1772.73 Q1882.09 1772.27 1884.18 1772.27 Q1889.8 1772.27 1892.58 1775.19 Q1895.36 1778.1 1895.36 1784.03 Z" fill="#000000" fill-rule="nonzero" fill-opacity="1" /><path clip-path="url(#clip160)" d="M1908.34 1765.53 L1908.34 1772.9 L1917.12 1772.9 L1917.12 1776.21 L1908.34 1776.21 L1908.34 1790.28 Q1908.34 1793.45 1909.2 1794.35 Q1910.08 1795.26 1912.74 1795.26 L1917.12 1795.26 L1917.12 1798.82 L1912.74 1798.82 Q1907.81 1798.82 1905.94 1796.99 Q1904.06 1795.14 1904.06 1790.28 L1904.06 1776.21 L1900.94 1776.21 L1900.94 1772.9 L1904.06 1772.9 L1904.06 1765.53 L1908.34 1765.53 Z" fill="#000000" fill-rule="nonzero" fill-opacity="1" /><path clip-path="url(#clip160)" d="M1922.28 1788.59 L1922.28 1772.9 L1926.54 1772.9 L1926.54 1788.43 Q1926.54 1792.11 1927.97 1793.96 Q1929.41 1795.79 1932.28 1795.79 Q1935.73 1795.79 1937.72 1793.59 Q1939.73 1791.39 1939.73 1787.59 L1939.73 1772.9 L1943.99 1772.9 L1943.99 1798.82 L1939.73 1798.82 L1939.73 1794.84 Q1938.18 1797.2 1936.12 1798.36 Q1934.08 1799.49 1931.38 1799.49 Q1926.91 1799.49 1924.59 1796.71 Q1922.28 1793.94 1922.28 1788.59 M1933 1772.27 L1933 1772.27 Z" fill="#000000" fill-rule="nonzero" fill-opacity="1" /><path clip-path="url(#clip160)" d="M1967.79 1776.88 Q1967.07 1776.46 1966.21 1776.27 Q1965.38 1776.07 1964.36 1776.07 Q1960.75 1776.07 1958.81 1778.43 Q1956.89 1780.77 1956.89 1785.16 L1956.89 1798.82 L1952.6 1798.82 L1952.6 1772.9 L1956.89 1772.9 L1956.89 1776.92 Q1958.23 1774.56 1960.38 1773.43 Q1962.53 1772.27 1965.61 1772.27 Q1966.05 1772.27 1966.58 1772.34 Q1967.12 1772.39 1967.76 1772.5 L1967.79 1776.88 Z" fill="#000000" fill-rule="nonzero" fill-opacity="1" /><path clip-path="url(#clip160)" d="M1993.39 1784.79 L1993.39 1786.88 L1973.81 1786.88 Q1974.08 1791.27 1976.45 1793.59 Q1978.83 1795.88 1983.07 1795.88 Q1985.52 1795.88 1987.81 1795.28 Q1990.13 1794.68 1992.39 1793.47 L1992.39 1797.5 Q1990.1 1798.47 1987.7 1798.98 Q1985.29 1799.49 1982.81 1799.49 Q1976.61 1799.49 1972.97 1795.88 Q1969.36 1792.27 1969.36 1786.11 Q1969.36 1779.75 1972.79 1776.02 Q1976.24 1772.27 1982.07 1772.27 Q1987.3 1772.27 1990.33 1775.65 Q1993.39 1779.01 1993.39 1784.79 M1989.13 1783.54 Q1989.08 1780.05 1987.16 1777.96 Q1985.26 1775.88 1982.12 1775.88 Q1978.55 1775.88 1976.4 1777.9 Q1974.27 1779.91 1973.95 1783.57 L1989.13 1783.54 Z" fill="#000000" fill-rule="nonzero" fill-opacity="1" /><path clip-path="url(#clip160)" d="M2283.7 1768.87 L2277.36 1786.07 L2290.07 1786.07 L2283.7 1768.87 M2281.06 1764.26 L2286.36 1764.26 L2299.54 1798.82 L2294.67 1798.82 L2291.53 1789.96 L2275.95 1789.96 L2272.8 1798.82 L2267.87 1798.82 L2281.06 1764.26 Z" fill="#000000" fill-rule="nonzero" fill-opacity="1" /><path clip-path="url(#clip160)" d="M2320.62 1776.83 L2320.62 1762.8 L2324.88 1762.8 L2324.88 1798.82 L2320.62 1798.82 L2320.62 1794.93 Q2319.28 1797.25 2317.22 1798.38 Q2315.18 1799.49 2312.31 1799.49 Q2307.61 1799.49 2304.65 1795.74 Q2301.71 1791.99 2301.71 1785.88 Q2301.71 1779.77 2304.65 1776.02 Q2307.61 1772.27 2312.31 1772.27 Q2315.18 1772.27 2317.22 1773.4 Q2319.28 1774.52 2320.62 1776.83 M2306.11 1785.88 Q2306.11 1790.58 2308.03 1793.27 Q2309.98 1795.93 2313.36 1795.93 Q2316.73 1795.93 2318.68 1793.27 Q2320.62 1790.58 2320.62 1785.88 Q2320.62 1781.18 2318.68 1778.52 Q2316.73 1775.83 2313.36 1775.83 Q2309.98 1775.83 2308.03 1778.52 Q2306.11 1781.18 2306.11 1785.88 Z" fill="#000000" fill-rule="nonzero" fill-opacity="1" /><path clip-path="url(#clip160)" d="M2333.22 1788.59 L2333.22 1772.9 L2337.48 1772.9 L2337.48 1788.43 Q2337.48 1792.11 2338.91 1793.96 Q2340.35 1795.79 2343.22 1795.79 Q2346.67 1795.79 2348.66 1793.59 Q2350.67 1791.39 2350.67 1787.59 L2350.67 1772.9 L2354.93 1772.9 L2354.93 1798.82 L2350.67 1798.82 L2350.67 1794.84 Q2349.12 1797.2 2347.06 1798.36 Q2345.02 1799.49 2342.31 1799.49 Q2337.85 1799.49 2335.53 1796.71 Q2333.22 1793.94 2333.22 1788.59 M2343.93 1772.27 L2343.93 1772.27 Z" fill="#000000" fill-rule="nonzero" fill-opacity="1" /><path clip-path="url(#clip160)" d="M2363.7 1762.8 L2367.96 1762.8 L2367.96 1798.82 L2363.7 1798.82 L2363.7 1762.8 Z" fill="#000000" fill-rule="nonzero" fill-opacity="1" /><path clip-path="url(#clip160)" d="M2381.09 1765.53 L2381.09 1772.9 L2389.86 1772.9 L2389.86 1776.21 L2381.09 1776.21 L2381.09 1790.28 Q2381.09 1793.45 2381.94 1794.35 Q2382.82 1795.26 2385.48 1795.26 L2389.86 1795.26 L2389.86 1798.82 L2385.48 1798.82 Q2380.55 1798.82 2378.68 1796.99 Q2376.8 1795.14 2376.8 1790.28 L2376.8 1776.21 L2373.68 1776.21 L2373.68 1772.9 L2376.8 1772.9 L2376.8 1765.53 L2381.09 1765.53 Z" fill="#000000" fill-rule="nonzero" fill-opacity="1" /><path clip-path="url(#clip160)" d="M1373.74 1837.34 L1373.74 1843.61 Q1370.08 1841.86 1366.83 1841 Q1363.58 1840.14 1360.56 1840.14 Q1355.31 1840.14 1352.44 1842.18 Q1349.61 1844.22 1349.61 1847.97 Q1349.61 1851.12 1351.49 1852.75 Q1353.4 1854.34 1358.68 1855.32 L1362.57 1856.12 Q1369.76 1857.49 1373.16 1860.96 Q1376.6 1864.39 1376.6 1870.19 Q1376.6 1877.09 1371.96 1880.66 Q1367.34 1884.22 1358.4 1884.22 Q1355.02 1884.22 1351.2 1883.46 Q1347.42 1882.7 1343.34 1881.2 L1343.34 1874.58 Q1347.26 1876.78 1351.01 1877.89 Q1354.77 1879 1358.4 1879 Q1363.9 1879 1366.89 1876.84 Q1369.89 1874.68 1369.89 1870.67 Q1369.89 1867.16 1367.72 1865.19 Q1365.59 1863.22 1360.69 1862.23 L1356.77 1861.47 Q1349.58 1860.03 1346.37 1856.98 Q1343.15 1853.92 1343.15 1848.48 Q1343.15 1842.18 1347.57 1838.55 Q1352.03 1834.92 1359.83 1834.92 Q1363.17 1834.92 1366.64 1835.53 Q1370.11 1836.13 1373.74 1837.34 Z" fill="#000000" fill-rule="nonzero" fill-opacity="1" /><path clip-path="url(#clip160)" d="M1392.17 1837.53 L1392.17 1847.65 L1404.23 1847.65 L1404.23 1852.2 L1392.17 1852.2 L1392.17 1871.56 Q1392.17 1875.92 1393.34 1877.16 Q1394.55 1878.4 1398.21 1878.4 L1404.23 1878.4 L1404.23 1883.3 L1398.21 1883.3 Q1391.43 1883.3 1388.86 1880.79 Q1386.28 1878.24 1386.28 1871.56 L1386.28 1852.2 L1381.98 1852.2 L1381.98 1847.65 L1386.28 1847.65 L1386.28 1837.53 L1392.17 1837.53 Z" fill="#000000" fill-rule="nonzero" fill-opacity="1" /><path clip-path="url(#clip160)" d="M1428.13 1865.38 Q1421.04 1865.38 1418.3 1867 Q1415.56 1868.63 1415.56 1872.54 Q1415.56 1875.66 1417.6 1877.51 Q1419.67 1879.32 1423.2 1879.32 Q1428.07 1879.32 1431 1875.88 Q1433.96 1872.42 1433.96 1866.69 L1433.96 1865.38 L1428.13 1865.38 M1439.81 1862.96 L1439.81 1883.3 L1433.96 1883.3 L1433.96 1877.89 Q1431.95 1881.14 1428.96 1882.7 Q1425.97 1884.22 1421.64 1884.22 Q1416.17 1884.22 1412.92 1881.17 Q1409.7 1878.08 1409.7 1872.92 Q1409.7 1866.91 1413.71 1863.85 Q1417.76 1860.8 1425.75 1860.8 L1433.96 1860.8 L1433.96 1860.23 Q1433.96 1856.18 1431.28 1853.99 Q1428.64 1851.76 1423.84 1851.76 Q1420.78 1851.76 1417.88 1852.49 Q1414.99 1853.22 1412.31 1854.69 L1412.31 1849.28 Q1415.53 1848.03 1418.55 1847.43 Q1421.58 1846.79 1424.44 1846.79 Q1432.18 1846.79 1435.99 1850.8 Q1439.81 1854.81 1439.81 1862.96 Z" fill="#000000" fill-rule="nonzero" fill-opacity="1" /><path clip-path="url(#clip160)" d="M1475.33 1865.06 Q1475.33 1858.7 1472.69 1855.2 Q1470.08 1851.7 1465.34 1851.7 Q1460.63 1851.7 1457.99 1855.2 Q1455.38 1858.7 1455.38 1865.06 Q1455.38 1871.4 1457.99 1874.9 Q1460.63 1878.4 1465.34 1878.4 Q1470.08 1878.4 1472.69 1874.9 Q1475.33 1871.4 1475.33 1865.06 M1481.19 1878.88 Q1481.19 1887.98 1477.15 1892.4 Q1473.11 1896.86 1464.77 1896.86 Q1461.68 1896.86 1458.94 1896.38 Q1456.21 1895.94 1453.63 1894.98 L1453.63 1889.28 Q1456.21 1890.69 1458.72 1891.35 Q1461.23 1892.02 1463.84 1892.02 Q1469.61 1892.02 1472.47 1889 Q1475.33 1886.01 1475.33 1879.93 L1475.33 1877.03 Q1473.52 1880.18 1470.69 1881.74 Q1467.85 1883.3 1463.91 1883.3 Q1457.35 1883.3 1453.34 1878.3 Q1449.33 1873.31 1449.33 1865.06 Q1449.33 1856.79 1453.34 1851.79 Q1457.35 1846.79 1463.91 1846.79 Q1467.85 1846.79 1470.69 1848.35 Q1473.52 1849.91 1475.33 1853.06 L1475.33 1847.65 L1481.19 1847.65 L1481.19 1878.88 Z" fill="#000000" fill-rule="nonzero" fill-opacity="1" /><path clip-path="url(#clip160)" d="M1523.75 1864.01 L1523.75 1866.88 L1496.82 1866.88 Q1497.2 1872.92 1500.45 1876.11 Q1503.73 1879.26 1509.55 1879.26 Q1512.92 1879.26 1516.08 1878.43 Q1519.26 1877.6 1522.38 1875.95 L1522.38 1881.49 Q1519.23 1882.82 1515.92 1883.52 Q1512.61 1884.22 1509.2 1884.22 Q1500.67 1884.22 1495.67 1879.26 Q1490.71 1874.29 1490.71 1865.83 Q1490.71 1857.07 1495.42 1851.95 Q1500.16 1846.79 1508.18 1846.79 Q1515.37 1846.79 1519.54 1851.44 Q1523.75 1856.06 1523.75 1864.01 M1517.89 1862.29 Q1517.83 1857.49 1515.18 1854.62 Q1512.57 1851.76 1508.25 1851.76 Q1503.34 1851.76 1500.38 1854.53 Q1497.46 1857.3 1497.01 1862.33 L1517.89 1862.29 Z" fill="#000000" fill-rule="nonzero" fill-opacity="1" /><polyline clip-path="url(#clip160)" style="stroke:#000000; stroke-linecap:round; stroke-linejoin:round; stroke-width:4; stroke-opacity:1; fill:none" points="226.141,1734.12 226.141,127.792 "/>
<polyline clip-path="url(#clip160)" style="stroke:#000000; stroke-linecap:round; stroke-linejoin:round; stroke-width:4; stroke-opacity:1; fill:none" points="226.141,1734.12 245.038,1734.12 "/>
<polyline clip-path="url(#clip160)" style="stroke:#000000; stroke-linecap:round; stroke-linejoin:round; stroke-width:4; stroke-opacity:1; fill:none" points="226.141,1337.33 245.038,1337.33 "/>
<polyline clip-path="url(#clip160)" style="stroke:#000000; stroke-linecap:round; stroke-linejoin:round; stroke-width:4; stroke-opacity:1; fill:none" points="226.141,940.55 245.038,940.55 "/>
<polyline clip-path="url(#clip160)" style="stroke:#000000; stroke-linecap:round; stroke-linejoin:round; stroke-width:4; stroke-opacity:1; fill:none" points="226.141,543.767 245.038,543.767 "/>
<polyline clip-path="url(#clip160)" style="stroke:#000000; stroke-linecap:round; stroke-linejoin:round; stroke-width:4; stroke-opacity:1; fill:none" points="226.141,146.983 245.038,146.983 "/>
<path clip-path="url(#clip160)" d="M128.645 1719.92 Q125.034 1719.92 123.205 1723.48 Q121.4 1727.02 121.4 1734.15 Q121.4 1741.26 123.205 1744.82 Q125.034 1748.36 128.645 1748.36 Q132.279 1748.36 134.085 1744.82 Q135.913 1741.26 135.913 1734.15 Q135.913 1727.02 134.085 1723.48 Q132.279 1719.92 128.645 1719.92 M128.645 1716.21 Q134.455 1716.21 137.511 1720.82 Q140.589 1725.4 140.589 1734.15 Q140.589 1742.88 137.511 1747.48 Q134.455 1752.07 128.645 1752.07 Q122.835 1752.07 119.756 1747.48 Q116.701 1742.88 116.701 1734.15 Q116.701 1725.4 119.756 1720.82 Q122.835 1716.21 128.645 1716.21 Z" fill="#000000" fill-rule="nonzero" fill-opacity="1" /><path clip-path="url(#clip160)" d="M148.807 1745.52 L153.691 1745.52 L153.691 1751.4 L148.807 1751.4 L148.807 1745.52 Z" fill="#000000" fill-rule="nonzero" fill-opacity="1" /><path clip-path="url(#clip160)" d="M173.876 1719.92 Q170.265 1719.92 168.436 1723.48 Q166.631 1727.02 166.631 1734.15 Q166.631 1741.26 168.436 1744.82 Q170.265 1748.36 173.876 1748.36 Q177.51 1748.36 179.316 1744.82 Q181.145 1741.26 181.145 1734.15 Q181.145 1727.02 179.316 1723.48 Q177.51 1719.92 173.876 1719.92 M173.876 1716.21 Q179.686 1716.21 182.742 1720.82 Q185.821 1725.4 185.821 1734.15 Q185.821 1742.88 182.742 1747.48 Q179.686 1752.07 173.876 1752.07 Q168.066 1752.07 164.987 1747.48 Q161.932 1742.88 161.932 1734.15 Q161.932 1725.4 164.987 1720.82 Q168.066 1716.21 173.876 1716.21 Z" fill="#000000" fill-rule="nonzero" fill-opacity="1" /><path clip-path="url(#clip160)" d="M129.872 1323.13 Q126.261 1323.13 124.432 1326.7 Q122.626 1330.24 122.626 1337.37 Q122.626 1344.47 124.432 1348.04 Q126.261 1351.58 129.872 1351.58 Q133.506 1351.58 135.312 1348.04 Q137.14 1344.47 137.14 1337.37 Q137.14 1330.24 135.312 1326.7 Q133.506 1323.13 129.872 1323.13 M129.872 1319.43 Q135.682 1319.43 138.737 1324.03 Q141.816 1328.62 141.816 1337.37 Q141.816 1346.1 138.737 1350.7 Q135.682 1355.28 129.872 1355.28 Q124.062 1355.28 120.983 1350.7 Q117.927 1346.1 117.927 1337.37 Q117.927 1328.62 120.983 1324.03 Q124.062 1319.43 129.872 1319.43 Z" fill="#000000" fill-rule="nonzero" fill-opacity="1" /><path clip-path="url(#clip160)" d="M150.034 1348.73 L154.918 1348.73 L154.918 1354.61 L150.034 1354.61 L150.034 1348.73 Z" fill="#000000" fill-rule="nonzero" fill-opacity="1" /><path clip-path="url(#clip160)" d="M165.913 1350.68 L173.552 1350.68 L173.552 1324.31 L165.242 1325.98 L165.242 1321.72 L173.506 1320.05 L178.182 1320.05 L178.182 1350.68 L185.821 1350.68 L185.821 1354.61 L165.913 1354.61 L165.913 1350.68 Z" fill="#000000" fill-rule="nonzero" fill-opacity="1" /><path clip-path="url(#clip160)" d="M130.242 926.349 Q126.631 926.349 124.802 929.914 Q122.997 933.455 122.997 940.585 Q122.997 947.691 124.802 951.256 Q126.631 954.798 130.242 954.798 Q133.876 954.798 135.682 951.256 Q137.511 947.691 137.511 940.585 Q137.511 933.455 135.682 929.914 Q133.876 926.349 130.242 926.349 M130.242 922.645 Q136.052 922.645 139.108 927.252 Q142.187 931.835 142.187 940.585 Q142.187 949.312 139.108 953.918 Q136.052 958.501 130.242 958.501 Q124.432 958.501 121.353 953.918 Q118.298 949.312 118.298 940.585 Q118.298 931.835 121.353 927.252 Q124.432 922.645 130.242 922.645 Z" fill="#000000" fill-rule="nonzero" fill-opacity="1" /><path clip-path="url(#clip160)" d="M150.404 951.95 L155.288 951.95 L155.288 957.83 L150.404 957.83 L150.404 951.95 Z" fill="#000000" fill-rule="nonzero" fill-opacity="1" /><path clip-path="url(#clip160)" d="M169.501 953.895 L185.821 953.895 L185.821 957.83 L163.876 957.83 L163.876 953.895 Q166.538 951.14 171.122 946.511 Q175.728 941.858 176.909 940.515 Q179.154 937.992 180.034 936.256 Q180.936 934.497 180.936 932.807 Q180.936 930.052 178.992 928.316 Q177.071 926.58 173.969 926.58 Q171.77 926.58 169.316 927.344 Q166.885 928.108 164.108 929.659 L164.108 924.937 Q166.932 923.802 169.385 923.224 Q171.839 922.645 173.876 922.645 Q179.247 922.645 182.441 925.33 Q185.635 928.015 185.635 932.506 Q185.635 934.636 184.825 936.557 Q184.038 938.455 181.932 941.048 Q181.353 941.719 178.251 944.937 Q175.149 948.131 169.501 953.895 Z" fill="#000000" fill-rule="nonzero" fill-opacity="1" /><path clip-path="url(#clip160)" d="M129.293 529.565 Q125.682 529.565 123.853 533.13 Q122.048 536.672 122.048 543.801 Q122.048 550.908 123.853 554.473 Q125.682 558.014 129.293 558.014 Q132.927 558.014 134.733 554.473 Q136.562 550.908 136.562 543.801 Q136.562 536.672 134.733 533.13 Q132.927 529.565 129.293 529.565 M129.293 525.862 Q135.103 525.862 138.159 530.468 Q141.237 535.051 141.237 543.801 Q141.237 552.528 138.159 557.135 Q135.103 561.718 129.293 561.718 Q123.483 561.718 120.404 557.135 Q117.349 552.528 117.349 543.801 Q117.349 535.051 120.404 530.468 Q123.483 525.862 129.293 525.862 Z" fill="#000000" fill-rule="nonzero" fill-opacity="1" /><path clip-path="url(#clip160)" d="M149.455 555.167 L154.339 555.167 L154.339 561.047 L149.455 561.047 L149.455 555.167 Z" fill="#000000" fill-rule="nonzero" fill-opacity="1" /><path clip-path="url(#clip160)" d="M178.691 542.412 Q182.047 543.13 183.922 545.399 Q185.821 547.667 185.821 551 Q185.821 556.116 182.302 558.917 Q178.784 561.718 172.302 561.718 Q170.126 561.718 167.811 561.278 Q165.52 560.861 163.066 560.005 L163.066 555.491 Q165.01 556.625 167.325 557.204 Q169.64 557.783 172.163 557.783 Q176.561 557.783 178.853 556.047 Q181.168 554.31 181.168 551 Q181.168 547.945 179.015 546.232 Q176.885 544.496 173.066 544.496 L169.038 544.496 L169.038 540.653 L173.251 540.653 Q176.7 540.653 178.529 539.287 Q180.358 537.899 180.358 535.306 Q180.358 532.644 178.459 531.232 Q176.584 529.797 173.066 529.797 Q171.145 529.797 168.946 530.213 Q166.747 530.63 164.108 531.51 L164.108 527.343 Q166.77 526.602 169.085 526.232 Q171.422 525.862 173.483 525.862 Q178.807 525.862 181.909 528.292 Q185.01 530.7 185.01 534.82 Q185.01 537.69 183.367 539.681 Q181.723 541.649 178.691 542.412 Z" fill="#000000" fill-rule="nonzero" fill-opacity="1" /><path clip-path="url(#clip160)" d="M128.159 132.782 Q124.548 132.782 122.719 136.347 Q120.913 139.888 120.913 147.018 Q120.913 154.124 122.719 157.689 Q124.548 161.231 128.159 161.231 Q131.793 161.231 133.599 157.689 Q135.427 154.124 135.427 147.018 Q135.427 139.888 133.599 136.347 Q131.793 132.782 128.159 132.782 M128.159 129.078 Q133.969 129.078 137.025 133.685 Q140.103 138.268 140.103 147.018 Q140.103 155.745 137.025 160.351 Q133.969 164.934 128.159 164.934 Q122.349 164.934 119.27 160.351 Q116.214 155.745 116.214 147.018 Q116.214 138.268 119.27 133.685 Q122.349 129.078 128.159 129.078 Z" fill="#000000" fill-rule="nonzero" fill-opacity="1" /><path clip-path="url(#clip160)" d="M148.321 158.383 L153.205 158.383 L153.205 164.263 L148.321 164.263 L148.321 158.383 Z" fill="#000000" fill-rule="nonzero" fill-opacity="1" /><path clip-path="url(#clip160)" d="M176.237 133.777 L164.432 152.226 L176.237 152.226 L176.237 133.777 M175.01 129.703 L180.89 129.703 L180.89 152.226 L185.821 152.226 L185.821 156.115 L180.89 156.115 L180.89 164.263 L176.237 164.263 L176.237 156.115 L160.636 156.115 L160.636 151.601 L175.01 129.703 Z" fill="#000000" fill-rule="nonzero" fill-opacity="1" /><path clip-path="url(#clip160)" d="M19.402 1086.72 L37.2578 1086.72 L37.2578 1078.64 Q37.2578 1074.15 34.9343 1071.7 Q32.6108 1069.25 28.314 1069.25 Q24.0489 1069.25 21.7255 1071.7 Q19.402 1074.15 19.402 1078.64 L19.402 1086.72 M14.1184 1093.15 L14.1184 1078.64 Q14.1184 1070.65 17.7469 1066.58 Q21.3435 1062.47 28.314 1062.47 Q35.3481 1062.47 38.9447 1066.58 Q42.5413 1070.65 42.5413 1078.64 L42.5413 1086.72 L61.6384 1086.72 L61.6384 1093.15 L14.1184 1093.15 Z" fill="#000000" fill-rule="nonzero" fill-opacity="1" /><path clip-path="url(#clip160)" d="M31.465 1034.59 Q30.8921 1035.57 30.6375 1036.75 Q30.351 1037.9 30.351 1039.3 Q30.351 1044.26 33.5975 1046.94 Q36.8122 1049.58 42.8596 1049.58 L61.6384 1049.58 L61.6384 1055.47 L25.9905 1055.47 L25.9905 1049.58 L31.5287 1049.58 Q28.2821 1047.73 26.7225 1044.77 Q25.1311 1041.81 25.1311 1037.58 Q25.1311 1036.98 25.2266 1036.24 Q25.2903 1035.51 25.4494 1034.62 L31.465 1034.59 Z" fill="#000000" fill-rule="nonzero" fill-opacity="1" /><path clip-path="url(#clip160)" d="M30.0964 1016.06 Q30.0964 1020.77 33.7885 1023.51 Q37.4488 1026.25 43.8463 1026.25 Q50.2438 1026.25 53.9359 1023.54 Q57.5962 1020.81 57.5962 1016.06 Q57.5962 1011.39 53.9041 1008.65 Q50.212 1005.91 43.8463 1005.91 Q37.5124 1005.91 33.8203 1008.65 Q30.0964 1011.39 30.0964 1016.06 M25.1311 1016.06 Q25.1311 1008.43 30.0964 1004.06 Q35.0616 999.704 43.8463 999.704 Q52.5991 999.704 57.5962 1004.06 Q62.5615 1008.43 62.5615 1016.06 Q62.5615 1023.73 57.5962 1028.1 Q52.5991 1032.42 43.8463 1032.42 Q35.0616 1032.42 30.0964 1028.1 Q25.1311 1023.73 25.1311 1016.06 Z" fill="#000000" fill-rule="nonzero" fill-opacity="1" /><path clip-path="url(#clip160)" d="M56.2912 984.331 L75.1974 984.331 L75.1974 990.219 L25.9905 990.219 L25.9905 984.331 L31.4013 984.331 Q28.2185 982.485 26.6907 979.684 Q25.1311 976.851 25.1311 972.936 Q25.1311 966.443 30.2873 962.401 Q35.4436 958.327 43.8463 958.327 Q52.249 958.327 57.4052 962.401 Q62.5615 966.443 62.5615 972.936 Q62.5615 976.851 61.0337 979.684 Q59.4741 982.485 56.2912 984.331 M43.8463 964.406 Q37.3851 964.406 33.7248 967.08 Q30.0327 969.722 30.0327 974.369 Q30.0327 979.016 33.7248 981.689 Q37.3851 984.331 43.8463 984.331 Q50.3075 984.331 53.9996 981.689 Q57.6599 979.016 57.6599 974.369 Q57.6599 969.722 53.9996 967.08 Q50.3075 964.406 43.8463 964.406 Z" fill="#000000" fill-rule="nonzero" fill-opacity="1" /><path clip-path="url(#clip160)" d="M30.0964 934.806 Q30.0964 939.516 33.7885 942.254 Q37.4488 944.991 43.8463 944.991 Q50.2438 944.991 53.9359 942.286 Q57.5962 939.548 57.5962 934.806 Q57.5962 930.127 53.9041 927.39 Q50.212 924.653 43.8463 924.653 Q37.5124 924.653 33.8203 927.39 Q30.0964 930.127 30.0964 934.806 M25.1311 934.806 Q25.1311 927.167 30.0964 922.806 Q35.0616 918.446 43.8463 918.446 Q52.5991 918.446 57.5962 922.806 Q62.5615 927.167 62.5615 934.806 Q62.5615 942.476 57.5962 946.837 Q52.5991 951.166 43.8463 951.166 Q35.0616 951.166 30.0964 946.837 Q25.1311 942.476 25.1311 934.806 Z" fill="#000000" fill-rule="nonzero" fill-opacity="1" /><path clip-path="url(#clip160)" d="M31.465 888.082 Q30.8921 889.068 30.6375 890.246 Q30.351 891.392 30.351 892.792 Q30.351 897.757 33.5975 900.431 Q36.8122 903.073 42.8596 903.073 L61.6384 903.073 L61.6384 908.961 L25.9905 908.961 L25.9905 903.073 L31.5287 903.073 Q28.2821 901.227 26.7225 898.267 Q25.1311 895.307 25.1311 891.073 Q25.1311 890.469 25.2266 889.737 Q25.2903 889.005 25.4494 888.113 L31.465 888.082 Z" fill="#000000" fill-rule="nonzero" fill-opacity="1" /><path clip-path="url(#clip160)" d="M15.869 876.146 L25.9905 876.146 L25.9905 864.083 L30.542 864.083 L30.542 876.146 L49.8937 876.146 Q54.2542 876.146 55.4955 874.968 Q56.7368 873.759 56.7368 870.098 L56.7368 864.083 L61.6384 864.083 L61.6384 870.098 Q61.6384 876.878 59.124 879.456 Q56.5777 882.034 49.8937 882.034 L30.542 882.034 L30.542 886.331 L25.9905 886.331 L25.9905 882.034 L15.869 882.034 L15.869 876.146 Z" fill="#000000" fill-rule="nonzero" fill-opacity="1" /><path clip-path="url(#clip160)" d="M25.9905 856.38 L25.9905 850.524 L61.6384 850.524 L61.6384 856.38 L25.9905 856.38 M12.1132 856.38 L12.1132 850.524 L19.5293 850.524 L19.5293 856.38 L12.1132 856.38 Z" fill="#000000" fill-rule="nonzero" fill-opacity="1" /><path clip-path="url(#clip160)" d="M30.0964 824.456 Q30.0964 829.167 33.7885 831.904 Q37.4488 834.641 43.8463 834.641 Q50.2438 834.641 53.9359 831.936 Q57.5962 829.199 57.5962 824.456 Q57.5962 819.777 53.9041 817.04 Q50.212 814.303 43.8463 814.303 Q37.5124 814.303 33.8203 817.04 Q30.0964 819.777 30.0964 824.456 M25.1311 824.456 Q25.1311 816.817 30.0964 812.457 Q35.0616 808.096 43.8463 808.096 Q52.5991 808.096 57.5962 812.457 Q62.5615 816.817 62.5615 824.456 Q62.5615 832.127 57.5962 836.487 Q52.5991 840.816 43.8463 840.816 Q35.0616 840.816 30.0964 836.487 Q25.1311 832.127 25.1311 824.456 Z" fill="#000000" fill-rule="nonzero" fill-opacity="1" /><path clip-path="url(#clip160)" d="M40.1224 768.756 L61.6384 768.756 L61.6384 774.613 L40.3133 774.613 Q35.2526 774.613 32.7381 776.586 Q30.2237 778.56 30.2237 782.506 Q30.2237 787.249 33.2474 789.986 Q36.2711 792.723 41.491 792.723 L61.6384 792.723 L61.6384 798.612 L25.9905 798.612 L25.9905 792.723 L31.5287 792.723 Q28.314 790.623 26.7225 787.79 Q25.1311 784.925 25.1311 781.201 Q25.1311 775.058 28.9505 771.907 Q32.7381 768.756 40.1224 768.756 Z" fill="#000000" fill-rule="nonzero" fill-opacity="1" /><path clip-path="url(#clip160)" d="M590.07 14.0809 L590.07 22.0612 Q585.412 19.8332 581.28 18.7395 Q577.148 17.6457 573.299 17.6457 Q566.615 17.6457 562.97 20.2383 Q559.364 22.8309 559.364 27.611 Q559.364 31.6214 561.754 33.6873 Q564.185 35.7128 570.909 36.9686 L575.852 37.9813 Q585.007 39.7232 589.341 44.1387 Q593.716 48.5136 593.716 55.8863 Q593.716 64.6767 587.802 69.2137 Q581.928 73.7508 570.545 73.7508 Q566.251 73.7508 561.39 72.7785 Q556.569 71.8063 551.384 69.9024 L551.384 61.4765 Q556.367 64.2716 561.147 65.6895 Q565.927 67.1073 570.545 67.1073 Q577.553 67.1073 581.361 64.3527 Q585.169 61.598 585.169 56.4939 Q585.169 52.0379 582.414 49.5264 Q579.7 47.0148 573.462 45.759 L568.479 44.7868 Q559.324 42.9639 555.232 39.075 Q551.141 35.1862 551.141 28.2591 Q551.141 20.2383 556.772 15.6203 Q562.443 11.0023 572.368 11.0023 Q576.621 11.0023 581.037 11.7719 Q585.452 12.5416 590.07 14.0809 Z" fill="#000000" fill-rule="nonzero" fill-opacity="1" /><path clip-path="url(#clip160)" d="M613.525 14.324 L613.525 27.2059 L628.878 27.2059 L628.878 32.9987 L613.525 32.9987 L613.525 57.6282 Q613.525 63.1779 615.024 64.7578 Q616.563 66.3376 621.222 66.3376 L628.878 66.3376 L628.878 72.576 L621.222 72.576 Q612.593 72.576 609.312 69.3758 Q606.031 66.1351 606.031 57.6282 L606.031 32.9987 L600.562 32.9987 L600.562 27.2059 L606.031 27.2059 L606.031 14.324 L613.525 14.324 Z" fill="#000000" fill-rule="nonzero" fill-opacity="1" /><path clip-path="url(#clip160)" d="M659.3 49.7694 Q650.267 49.7694 646.783 51.8354 Q643.299 53.9013 643.299 58.8839 Q643.299 62.8538 645.892 65.2034 Q648.525 67.5124 653.021 67.5124 Q659.219 67.5124 662.946 63.1374 Q666.713 58.7219 666.713 51.4303 L666.713 49.7694 L659.3 49.7694 M674.167 46.6907 L674.167 72.576 L666.713 72.576 L666.713 65.6895 Q664.161 69.8214 660.353 71.8063 Q656.546 73.7508 651.036 73.7508 Q644.069 73.7508 639.937 69.8619 Q635.845 65.9325 635.845 59.3701 Q635.845 51.7138 640.95 47.825 Q646.094 43.9361 656.262 43.9361 L666.713 43.9361 L666.713 43.2069 Q666.713 38.0623 663.311 35.2672 Q659.948 32.4315 653.831 32.4315 Q649.943 32.4315 646.256 33.3632 Q642.57 34.295 639.167 36.1584 L639.167 29.2718 Q643.259 27.692 647.107 26.9223 Q650.955 26.1121 654.601 26.1121 Q664.445 26.1121 669.306 31.2163 Q674.167 36.3204 674.167 46.6907 Z" fill="#000000" fill-rule="nonzero" fill-opacity="1" /><path clip-path="url(#clip160)" d="M722.089 49.9314 Q722.089 41.7081 718.686 37.0496 Q715.324 32.3505 709.41 32.3505 Q703.496 32.3505 700.093 37.0496 Q696.731 41.7081 696.731 49.9314 Q696.731 58.1548 700.093 62.8538 Q703.496 67.5124 709.41 67.5124 Q715.324 67.5124 718.686 62.8538 Q722.089 58.1548 722.089 49.9314 M696.731 34.0924 Q699.08 30.0415 702.645 28.0971 Q706.25 26.1121 711.233 26.1121 Q719.497 26.1121 724.641 32.6746 Q729.826 39.2371 729.826 49.9314 Q729.826 60.6258 724.641 67.1883 Q719.497 73.7508 711.233 73.7508 Q706.25 73.7508 702.645 71.8063 Q699.08 69.8214 696.731 65.7705 L696.731 72.576 L689.236 72.576 L689.236 9.54393 L696.731 9.54393 L696.731 34.0924 Z" fill="#000000" fill-rule="nonzero" fill-opacity="1" /><path clip-path="url(#clip160)" d="M742.182 9.54393 L749.635 9.54393 L749.635 72.576 L742.182 72.576 L742.182 9.54393 Z" fill="#000000" fill-rule="nonzero" fill-opacity="1" /><path clip-path="url(#clip160)" d="M804.039 48.0275 L804.039 51.6733 L769.768 51.6733 Q770.254 59.3701 774.386 63.421 Q778.559 67.4314 785.972 67.4314 Q790.266 67.4314 794.276 66.3781 Q798.327 65.3249 802.297 63.2184 L802.297 70.267 Q798.287 71.9684 794.074 72.8596 Q789.861 73.7508 785.526 73.7508 Q774.67 73.7508 768.31 67.4314 Q761.991 61.1119 761.991 50.3365 Q761.991 39.1965 767.986 32.6746 Q774.022 26.1121 784.23 26.1121 Q793.385 26.1121 798.692 32.0264 Q804.039 37.9003 804.039 48.0275 M796.585 45.84 Q796.504 39.7232 793.142 36.0774 Q789.82 32.4315 784.311 32.4315 Q778.073 32.4315 774.305 35.9558 Q770.579 39.4801 770.011 45.8805 L796.585 45.84 Z" fill="#000000" fill-rule="nonzero" fill-opacity="1" /><path clip-path="url(#clip160)" d="M871.568 28.5427 L871.568 35.5912 Q868.408 33.9709 865.005 33.1607 Q861.602 32.3505 857.957 32.3505 Q852.407 32.3505 849.612 34.0519 Q846.857 35.7533 846.857 39.156 Q846.857 41.7486 848.842 43.2475 Q850.827 44.7058 856.822 46.0426 L859.374 46.6097 Q867.314 48.3111 870.636 51.4303 Q873.998 54.509 873.998 60.0587 Q873.998 66.3781 868.975 70.0644 Q863.992 73.7508 855.242 73.7508 Q851.597 73.7508 847.627 73.0216 Q843.697 72.3329 839.322 70.9151 L839.322 63.2184 Q843.454 65.3654 847.465 66.4591 Q851.475 67.5124 855.404 67.5124 Q860.671 67.5124 863.506 65.73 Q866.342 63.9071 866.342 60.6258 Q866.342 57.5877 864.276 55.9673 Q862.25 54.3469 855.323 52.8481 L852.731 52.2405 Q845.804 50.7821 842.725 47.7845 Q839.646 44.7463 839.646 39.4801 Q839.646 33.0797 844.183 29.5959 Q848.72 26.1121 857.065 26.1121 Q861.197 26.1121 864.843 26.7198 Q868.489 27.3274 871.568 28.5427 Z" fill="#000000" fill-rule="nonzero" fill-opacity="1" /><path clip-path="url(#clip160)" d="M893.24 14.324 L893.24 27.2059 L908.593 27.2059 L908.593 32.9987 L893.24 32.9987 L893.24 57.6282 Q893.24 63.1779 894.739 64.7578 Q896.278 66.3376 900.937 66.3376 L908.593 66.3376 L908.593 72.576 L900.937 72.576 Q892.308 72.576 889.027 69.3758 Q885.746 66.1351 885.746 57.6282 L885.746 32.9987 L880.277 32.9987 L880.277 27.2059 L885.746 27.2059 L885.746 14.324 L893.24 14.324 Z" fill="#000000" fill-rule="nonzero" fill-opacity="1" /><path clip-path="url(#clip160)" d="M939.015 49.7694 Q929.982 49.7694 926.498 51.8354 Q923.014 53.9013 923.014 58.8839 Q923.014 62.8538 925.607 65.2034 Q928.24 67.5124 932.736 67.5124 Q938.934 67.5124 942.661 63.1374 Q946.428 58.7219 946.428 51.4303 L946.428 49.7694 L939.015 49.7694 M953.882 46.6907 L953.882 72.576 L946.428 72.576 L946.428 65.6895 Q943.876 69.8214 940.068 71.8063 Q936.26 73.7508 930.751 73.7508 Q923.784 73.7508 919.652 69.8619 Q915.56 65.9325 915.56 59.3701 Q915.56 51.7138 920.665 47.825 Q925.809 43.9361 935.977 43.9361 L946.428 43.9361 L946.428 43.2069 Q946.428 38.0623 943.026 35.2672 Q939.663 32.4315 933.546 32.4315 Q929.658 32.4315 925.971 33.3632 Q922.285 34.295 918.882 36.1584 L918.882 29.2718 Q922.974 27.692 926.822 26.9223 Q930.67 26.1121 934.316 26.1121 Q944.16 26.1121 949.021 31.2163 Q953.882 36.3204 953.882 46.6907 Z" fill="#000000" fill-rule="nonzero" fill-opacity="1" /><path clip-path="url(#clip160)" d="M999.09 49.3643 Q999.09 41.2625 995.728 36.8065 Q992.406 32.3505 986.37 32.3505 Q980.375 32.3505 977.013 36.8065 Q973.691 41.2625 973.691 49.3643 Q973.691 57.4256 977.013 61.8816 Q980.375 66.3376 986.37 66.3376 Q992.406 66.3376 995.728 61.8816 Q999.09 57.4256 999.09 49.3643 M1006.54 66.9452 Q1006.54 78.5308 1001.4 84.1616 Q996.254 89.8329 985.641 89.8329 Q981.712 89.8329 978.228 89.2252 Q974.744 88.6581 971.463 87.4428 L971.463 80.1917 Q974.744 81.9741 977.944 82.8248 Q981.145 83.6755 984.466 83.6755 Q991.798 83.6755 995.444 79.8271 Q999.09 76.0193 999.09 68.282 L999.09 64.5957 Q996.781 68.6061 993.176 70.5911 Q989.57 72.576 984.547 72.576 Q976.202 72.576 971.098 66.2161 Q965.994 59.8562 965.994 49.3643 Q965.994 38.832 971.098 32.472 Q976.202 26.1121 984.547 26.1121 Q989.57 26.1121 993.176 28.0971 Q996.781 30.082 999.09 34.0924 L999.09 27.2059 L1006.54 27.2059 L1006.54 66.9452 Z" fill="#000000" fill-rule="nonzero" fill-opacity="1" /><path clip-path="url(#clip160)" d="M1060.7 48.0275 L1060.7 51.6733 L1026.43 51.6733 Q1026.92 59.3701 1031.05 63.421 Q1035.22 67.4314 1042.64 67.4314 Q1046.93 67.4314 1050.94 66.3781 Q1054.99 65.3249 1058.96 63.2184 L1058.96 70.267 Q1054.95 71.9684 1050.74 72.8596 Q1046.53 73.7508 1042.19 73.7508 Q1031.34 73.7508 1024.98 67.4314 Q1018.66 61.1119 1018.66 50.3365 Q1018.66 39.1965 1024.65 32.6746 Q1030.69 26.1121 1040.9 26.1121 Q1050.05 26.1121 1055.36 32.0264 Q1060.7 37.9003 1060.7 48.0275 M1053.25 45.84 Q1053.17 39.7232 1049.81 36.0774 Q1046.49 32.4315 1040.98 32.4315 Q1034.74 32.4315 1030.97 35.9558 Q1027.24 39.4801 1026.68 45.8805 L1053.25 45.84 Z" fill="#000000" fill-rule="nonzero" fill-opacity="1" /><path clip-path="url(#clip160)" d="M1129.16 34.0924 L1129.16 9.54393 L1136.62 9.54393 L1136.62 72.576 L1129.16 72.576 L1129.16 65.7705 Q1126.82 69.8214 1123.21 71.8063 Q1119.64 73.7508 1114.62 73.7508 Q1106.4 73.7508 1101.21 67.1883 Q1096.07 60.6258 1096.07 49.9314 Q1096.07 39.2371 1101.21 32.6746 Q1106.4 26.1121 1114.62 26.1121 Q1119.64 26.1121 1123.21 28.0971 Q1126.82 30.0415 1129.16 34.0924 M1103.77 49.9314 Q1103.77 58.1548 1107.13 62.8538 Q1110.53 67.5124 1116.44 67.5124 Q1122.36 67.5124 1125.76 62.8538 Q1129.16 58.1548 1129.16 49.9314 Q1129.16 41.7081 1125.76 37.0496 Q1122.36 32.3505 1116.44 32.3505 Q1110.53 32.3505 1107.13 37.0496 Q1103.77 41.7081 1103.77 49.9314 Z" fill="#000000" fill-rule="nonzero" fill-opacity="1" /><path clip-path="url(#clip160)" d="M1151.97 27.2059 L1159.42 27.2059 L1159.42 72.576 L1151.97 72.576 L1151.97 27.2059 M1151.97 9.54393 L1159.42 9.54393 L1159.42 18.9825 L1151.97 18.9825 L1151.97 9.54393 Z" fill="#000000" fill-rule="nonzero" fill-opacity="1" /><path clip-path="url(#clip160)" d="M1203.94 28.5427 L1203.94 35.5912 Q1200.78 33.9709 1197.38 33.1607 Q1193.98 32.3505 1190.33 32.3505 Q1184.78 32.3505 1181.99 34.0519 Q1179.23 35.7533 1179.23 39.156 Q1179.23 41.7486 1181.22 43.2475 Q1183.2 44.7058 1189.2 46.0426 L1191.75 46.6097 Q1199.69 48.3111 1203.01 51.4303 Q1206.37 54.509 1206.37 60.0587 Q1206.37 66.3781 1201.35 70.0644 Q1196.37 73.7508 1187.62 73.7508 Q1183.97 73.7508 1180 73.0216 Q1176.07 72.3329 1171.7 70.9151 L1171.7 63.2184 Q1175.83 65.3654 1179.84 66.4591 Q1183.85 67.5124 1187.78 67.5124 Q1193.05 67.5124 1195.88 65.73 Q1198.72 63.9071 1198.72 60.6258 Q1198.72 57.5877 1196.65 55.9673 Q1194.63 54.3469 1187.7 52.8481 L1185.11 52.2405 Q1178.18 50.7821 1175.1 47.7845 Q1172.02 44.7463 1172.02 39.4801 Q1172.02 33.0797 1176.56 29.5959 Q1181.1 26.1121 1189.44 26.1121 Q1193.57 26.1121 1197.22 26.7198 Q1200.87 27.3274 1203.94 28.5427 Z" fill="#000000" fill-rule="nonzero" fill-opacity="1" /><path clip-path="url(#clip160)" d="M1225.62 14.324 L1225.62 27.2059 L1240.97 27.2059 L1240.97 32.9987 L1225.62 32.9987 L1225.62 57.6282 Q1225.62 63.1779 1227.12 64.7578 Q1228.65 66.3376 1233.31 66.3376 L1240.97 66.3376 L1240.97 72.576 L1233.31 72.576 Q1224.68 72.576 1221.4 69.3758 Q1218.12 66.1351 1218.12 57.6282 L1218.12 32.9987 L1212.65 32.9987 L1212.65 27.2059 L1218.12 27.2059 L1218.12 14.324 L1225.62 14.324 Z" fill="#000000" fill-rule="nonzero" fill-opacity="1" /><path clip-path="url(#clip160)" d="M1277.06 34.1734 Q1275.81 33.4443 1274.31 33.1202 Q1272.85 32.7556 1271.07 32.7556 Q1264.75 32.7556 1261.35 36.8875 Q1257.98 40.9789 1257.98 48.6757 L1257.98 72.576 L1250.49 72.576 L1250.49 27.2059 L1257.98 27.2059 L1257.98 34.2544 Q1260.33 30.1225 1264.1 28.1376 Q1267.87 26.1121 1273.26 26.1121 Q1274.02 26.1121 1274.96 26.2337 Q1275.89 26.3147 1277.02 26.5172 L1277.06 34.1734 Z" fill="#000000" fill-rule="nonzero" fill-opacity="1" /><path clip-path="url(#clip160)" d="M1284.88 27.2059 L1292.33 27.2059 L1292.33 72.576 L1284.88 72.576 L1284.88 27.2059 M1284.88 9.54393 L1292.33 9.54393 L1292.33 18.9825 L1284.88 18.9825 L1284.88 9.54393 Z" fill="#000000" fill-rule="nonzero" fill-opacity="1" /><path clip-path="url(#clip160)" d="M1340.5 49.9314 Q1340.5 41.7081 1337.1 37.0496 Q1333.74 32.3505 1327.82 32.3505 Q1321.91 32.3505 1318.5 37.0496 Q1315.14 41.7081 1315.14 49.9314 Q1315.14 58.1548 1318.5 62.8538 Q1321.91 67.5124 1327.82 67.5124 Q1333.74 67.5124 1337.1 62.8538 Q1340.5 58.1548 1340.5 49.9314 M1315.14 34.0924 Q1317.49 30.0415 1321.06 28.0971 Q1324.66 26.1121 1329.64 26.1121 Q1337.91 26.1121 1343.05 32.6746 Q1348.24 39.2371 1348.24 49.9314 Q1348.24 60.6258 1343.05 67.1883 Q1337.91 73.7508 1329.64 73.7508 Q1324.66 73.7508 1321.06 71.8063 Q1317.49 69.8214 1315.14 65.7705 L1315.14 72.576 L1307.65 72.576 L1307.65 9.54393 L1315.14 9.54393 L1315.14 34.0924 Z" fill="#000000" fill-rule="nonzero" fill-opacity="1" /><path clip-path="url(#clip160)" d="M1359.82 54.671 L1359.82 27.2059 L1367.28 27.2059 L1367.28 54.3874 Q1367.28 60.8284 1369.79 64.0691 Q1372.3 67.2693 1377.32 67.2693 Q1383.36 67.2693 1386.84 63.421 Q1390.37 59.5726 1390.37 52.9291 L1390.37 27.2059 L1397.82 27.2059 L1397.82 72.576 L1390.37 72.576 L1390.37 65.6084 Q1387.65 69.7404 1384.05 71.7658 Q1380.48 73.7508 1375.74 73.7508 Q1367.92 73.7508 1363.87 68.8897 Q1359.82 64.0286 1359.82 54.671 M1378.58 26.1121 L1378.58 26.1121 Z" fill="#000000" fill-rule="nonzero" fill-opacity="1" /><path clip-path="url(#clip160)" d="M1420.55 14.324 L1420.55 27.2059 L1435.9 27.2059 L1435.9 32.9987 L1420.55 32.9987 L1420.55 57.6282 Q1420.55 63.1779 1422.04 64.7578 Q1423.58 66.3376 1428.24 66.3376 L1435.9 66.3376 L1435.9 72.576 L1428.24 72.576 Q1419.61 72.576 1416.33 69.3758 Q1413.05 66.1351 1413.05 57.6282 L1413.05 32.9987 L1407.58 32.9987 L1407.58 27.2059 L1413.05 27.2059 L1413.05 14.324 L1420.55 14.324 Z" fill="#000000" fill-rule="nonzero" fill-opacity="1" /><path clip-path="url(#clip160)" d="M1445.7 27.2059 L1453.16 27.2059 L1453.16 72.576 L1445.7 72.576 L1445.7 27.2059 M1445.7 9.54393 L1453.16 9.54393 L1453.16 18.9825 L1445.7 18.9825 L1445.7 9.54393 Z" fill="#000000" fill-rule="nonzero" fill-opacity="1" /><path clip-path="url(#clip160)" d="M1486.33 32.4315 Q1480.34 32.4315 1476.85 37.1306 Q1473.37 41.7891 1473.37 49.9314 Q1473.37 58.0738 1476.81 62.7728 Q1480.3 67.4314 1486.33 67.4314 Q1492.29 67.4314 1495.77 62.7323 Q1499.26 58.0333 1499.26 49.9314 Q1499.26 41.8701 1495.77 37.1711 Q1492.29 32.4315 1486.33 32.4315 M1486.33 26.1121 Q1496.05 26.1121 1501.6 32.4315 Q1507.15 38.7509 1507.15 49.9314 Q1507.15 61.0714 1501.6 67.4314 Q1496.05 73.7508 1486.33 73.7508 Q1476.57 73.7508 1471.02 67.4314 Q1465.51 61.0714 1465.51 49.9314 Q1465.51 38.7509 1471.02 32.4315 Q1476.57 26.1121 1486.33 26.1121 Z" fill="#000000" fill-rule="nonzero" fill-opacity="1" /><path clip-path="url(#clip160)" d="M1557.22 45.1919 L1557.22 72.576 L1549.77 72.576 L1549.77 45.4349 Q1549.77 38.994 1547.26 35.7938 Q1544.75 32.5936 1539.72 32.5936 Q1533.69 32.5936 1530.2 36.4419 Q1526.72 40.2903 1526.72 46.9338 L1526.72 72.576 L1519.23 72.576 L1519.23 27.2059 L1526.72 27.2059 L1526.72 34.2544 Q1529.39 30.163 1533 28.1376 Q1536.65 26.1121 1541.38 26.1121 Q1549.2 26.1121 1553.21 30.9732 Q1557.22 35.7938 1557.22 45.1919 Z" fill="#000000" fill-rule="nonzero" fill-opacity="1" /><path clip-path="url(#clip160)" d="M1594.69 46.9338 L1669.56 46.9338 L1669.56 52.7671 L1594.69 52.7671 L1594.69 46.9338 Z" fill="#000000" fill-rule="nonzero" fill-opacity="1" /><path clip-path="url(#clip160)" d="M1716.3 18.8205 L1716.3 65.8515 L1726.19 65.8515 Q1738.7 65.8515 1744.5 60.1802 Q1750.33 54.509 1750.33 42.2752 Q1750.33 30.1225 1744.5 24.4918 Q1738.7 18.8205 1726.19 18.8205 L1716.3 18.8205 M1708.12 12.096 L1724.93 12.096 Q1742.51 12.096 1750.74 19.4281 Q1758.96 26.7198 1758.96 42.2752 Q1758.96 57.9117 1750.69 65.2439 Q1742.43 72.576 1724.93 72.576 L1708.12 72.576 L1708.12 12.096 Z" fill="#000000" fill-rule="nonzero" fill-opacity="1" /><path clip-path="url(#clip160)" d="M1810.49 48.0275 L1810.49 51.6733 L1776.22 51.6733 Q1776.7 59.3701 1780.83 63.421 Q1785.01 67.4314 1792.42 67.4314 Q1796.71 67.4314 1800.72 66.3781 Q1804.77 65.3249 1808.74 63.2184 L1808.74 70.267 Q1804.73 71.9684 1800.52 72.8596 Q1796.31 73.7508 1791.97 73.7508 Q1781.12 73.7508 1774.76 67.4314 Q1768.44 61.1119 1768.44 50.3365 Q1768.44 39.1965 1774.43 32.6746 Q1780.47 26.1121 1790.68 26.1121 Q1799.83 26.1121 1805.14 32.0264 Q1810.49 37.9003 1810.49 48.0275 M1803.03 45.84 Q1802.95 39.7232 1799.59 36.0774 Q1796.27 32.4315 1790.76 32.4315 Q1784.52 32.4315 1780.75 35.9558 Q1777.03 39.4801 1776.46 45.8805 L1803.03 45.84 Z" fill="#000000" fill-rule="nonzero" fill-opacity="1" /><path clip-path="url(#clip160)" d="M1851.64 28.5427 L1851.64 35.5912 Q1848.48 33.9709 1845.08 33.1607 Q1841.68 32.3505 1838.03 32.3505 Q1832.48 32.3505 1829.69 34.0519 Q1826.93 35.7533 1826.93 39.156 Q1826.93 41.7486 1828.92 43.2475 Q1830.9 44.7058 1836.9 46.0426 L1839.45 46.6097 Q1847.39 48.3111 1850.71 51.4303 Q1854.07 54.509 1854.07 60.0587 Q1854.07 66.3781 1849.05 70.0644 Q1844.07 73.7508 1835.32 73.7508 Q1831.67 73.7508 1827.7 73.0216 Q1823.77 72.3329 1819.4 70.9151 L1819.4 63.2184 Q1823.53 65.3654 1827.54 66.4591 Q1831.55 67.5124 1835.48 67.5124 Q1840.75 67.5124 1843.58 65.73 Q1846.42 63.9071 1846.42 60.6258 Q1846.42 57.5877 1844.35 55.9673 Q1842.33 54.3469 1835.4 52.8481 L1832.81 52.2405 Q1825.88 50.7821 1822.8 47.7845 Q1819.72 44.7463 1819.72 39.4801 Q1819.72 33.0797 1824.26 29.5959 Q1828.8 26.1121 1837.14 26.1121 Q1841.27 26.1121 1844.92 26.7198 Q1848.56 27.3274 1851.64 28.5427 Z" fill="#000000" fill-rule="nonzero" fill-opacity="1" /><path clip-path="url(#clip160)" d="M1904.75 48.0275 L1904.75 51.6733 L1870.48 51.6733 Q1870.97 59.3701 1875.1 63.421 Q1879.27 67.4314 1886.68 67.4314 Q1890.98 67.4314 1894.99 66.3781 Q1899.04 65.3249 1903.01 63.2184 L1903.01 70.267 Q1899 71.9684 1894.79 72.8596 Q1890.57 73.7508 1886.24 73.7508 Q1875.38 73.7508 1869.02 67.4314 Q1862.7 61.1119 1862.7 50.3365 Q1862.7 39.1965 1868.7 32.6746 Q1874.73 26.1121 1884.94 26.1121 Q1894.1 26.1121 1899.4 32.0264 Q1904.75 37.9003 1904.75 48.0275 M1897.3 45.84 Q1897.22 39.7232 1893.85 36.0774 Q1890.53 32.4315 1885.02 32.4315 Q1878.78 32.4315 1875.02 35.9558 Q1871.29 39.4801 1870.72 45.8805 L1897.3 45.84 Z" fill="#000000" fill-rule="nonzero" fill-opacity="1" /><path clip-path="url(#clip160)" d="M1943.27 34.1734 Q1942.02 33.4443 1940.52 33.1202 Q1939.06 32.7556 1937.28 32.7556 Q1930.96 32.7556 1927.56 36.8875 Q1924.2 40.9789 1924.2 48.6757 L1924.2 72.576 L1916.7 72.576 L1916.7 27.2059 L1924.2 27.2059 L1924.2 34.2544 Q1926.54 30.1225 1930.31 28.1376 Q1934.08 26.1121 1939.47 26.1121 Q1940.24 26.1121 1941.17 26.2337 Q1942.1 26.3147 1943.23 26.5172 L1943.27 34.1734 Z" fill="#000000" fill-rule="nonzero" fill-opacity="1" /><path clip-path="url(#clip160)" d="M1958.47 14.324 L1958.47 27.2059 L1973.82 27.2059 L1973.82 32.9987 L1958.47 32.9987 L1958.47 57.6282 Q1958.47 63.1779 1959.96 64.7578 Q1961.5 66.3376 1966.16 66.3376 L1973.82 66.3376 L1973.82 72.576 L1966.16 72.576 Q1957.53 72.576 1954.25 69.3758 Q1950.97 66.1351 1950.97 57.6282 L1950.97 32.9987 L1945.5 32.9987 L1945.5 27.2059 L1950.97 27.2059 L1950.97 14.324 L1958.47 14.324 Z" fill="#000000" fill-rule="nonzero" fill-opacity="1" /><path clip-path="url(#clip160)" d="M2017.37 14.324 L2017.37 27.2059 L2032.72 27.2059 L2032.72 32.9987 L2017.37 32.9987 L2017.37 57.6282 Q2017.37 63.1779 2018.86 64.7578 Q2020.4 66.3376 2025.06 66.3376 L2032.72 66.3376 L2032.72 72.576 L2025.06 72.576 Q2016.43 72.576 2013.15 69.3758 Q2009.87 66.1351 2009.87 57.6282 L2009.87 32.9987 L2004.4 32.9987 L2004.4 27.2059 L2009.87 27.2059 L2009.87 14.324 L2017.37 14.324 Z" fill="#000000" fill-rule="nonzero" fill-opacity="1" /><path clip-path="url(#clip160)" d="M2060.1 32.4315 Q2054.11 32.4315 2050.62 37.1306 Q2047.14 41.7891 2047.14 49.9314 Q2047.14 58.0738 2050.58 62.7728 Q2054.07 67.4314 2060.1 67.4314 Q2066.06 67.4314 2069.54 62.7323 Q2073.03 58.0333 2073.03 49.9314 Q2073.03 41.8701 2069.54 37.1711 Q2066.06 32.4315 2060.1 32.4315 M2060.1 26.1121 Q2069.83 26.1121 2075.37 32.4315 Q2080.92 38.7509 2080.92 49.9314 Q2080.92 61.0714 2075.37 67.4314 Q2069.83 73.7508 2060.1 73.7508 Q2050.34 73.7508 2044.79 67.4314 Q2039.28 61.0714 2039.28 49.9314 Q2039.28 38.7509 2044.79 32.4315 Q2050.34 26.1121 2060.1 26.1121 Z" fill="#000000" fill-rule="nonzero" fill-opacity="1" /><path clip-path="url(#clip160)" d="M2119.57 34.1734 Q2118.31 33.4443 2116.82 33.1202 Q2115.36 32.7556 2113.57 32.7556 Q2107.26 32.7556 2103.85 36.8875 Q2100.49 40.9789 2100.49 48.6757 L2100.49 72.576 L2093 72.576 L2093 27.2059 L2100.49 27.2059 L2100.49 34.2544 Q2102.84 30.1225 2106.61 28.1376 Q2110.37 26.1121 2115.76 26.1121 Q2116.53 26.1121 2117.46 26.2337 Q2118.4 26.3147 2119.53 26.5172 L2119.57 34.1734 Z" fill="#000000" fill-rule="nonzero" fill-opacity="1" /><path clip-path="url(#clip160)" d="M2134.76 14.324 L2134.76 27.2059 L2150.11 27.2059 L2150.11 32.9987 L2134.76 32.9987 L2134.76 57.6282 Q2134.76 63.1779 2136.26 64.7578 Q2137.8 66.3376 2142.46 66.3376 L2150.11 66.3376 L2150.11 72.576 L2142.46 72.576 Q2133.83 72.576 2130.55 69.3758 Q2127.27 66.1351 2127.27 57.6282 L2127.27 32.9987 L2121.8 32.9987 L2121.8 27.2059 L2127.27 27.2059 L2127.27 14.324 L2134.76 14.324 Z" fill="#000000" fill-rule="nonzero" fill-opacity="1" /><path clip-path="url(#clip160)" d="M2177.5 32.4315 Q2171.5 32.4315 2168.02 37.1306 Q2164.54 41.7891 2164.54 49.9314 Q2164.54 58.0738 2167.98 62.7728 Q2171.46 67.4314 2177.5 67.4314 Q2183.45 67.4314 2186.94 62.7323 Q2190.42 58.0333 2190.42 49.9314 Q2190.42 41.8701 2186.94 37.1711 Q2183.45 32.4315 2177.5 32.4315 M2177.5 26.1121 Q2187.22 26.1121 2192.77 32.4315 Q2198.32 38.7509 2198.32 49.9314 Q2198.32 61.0714 2192.77 67.4314 Q2187.22 73.7508 2177.5 73.7508 Q2167.74 73.7508 2162.19 67.4314 Q2156.68 61.0714 2156.68 49.9314 Q2156.68 38.7509 2162.19 32.4315 Q2167.74 26.1121 2177.5 26.1121 Z" fill="#000000" fill-rule="nonzero" fill-opacity="1" /><path clip-path="url(#clip160)" d="M2210.67 27.2059 L2218.13 27.2059 L2218.13 72.576 L2210.67 72.576 L2210.67 27.2059 M2210.67 9.54393 L2218.13 9.54393 L2218.13 18.9825 L2210.67 18.9825 L2210.67 9.54393 Z" fill="#000000" fill-rule="nonzero" fill-opacity="1" /><path clip-path="url(#clip160)" d="M2262.65 28.5427 L2262.65 35.5912 Q2259.49 33.9709 2256.09 33.1607 Q2252.68 32.3505 2249.04 32.3505 Q2243.49 32.3505 2240.69 34.0519 Q2237.94 35.7533 2237.94 39.156 Q2237.94 41.7486 2239.92 43.2475 Q2241.91 44.7058 2247.9 46.0426 L2250.45 46.6097 Q2258.39 48.3111 2261.72 51.4303 Q2265.08 54.509 2265.08 60.0587 Q2265.08 66.3781 2260.06 70.0644 Q2255.07 73.7508 2246.32 73.7508 Q2242.68 73.7508 2238.71 73.0216 Q2234.78 72.3329 2230.4 70.9151 L2230.4 63.2184 Q2234.53 65.3654 2238.55 66.4591 Q2242.56 67.5124 2246.48 67.5124 Q2251.75 67.5124 2254.59 65.73 Q2257.42 63.9071 2257.42 60.6258 Q2257.42 57.5877 2255.36 55.9673 Q2253.33 54.3469 2246.4 52.8481 L2243.81 52.2405 Q2236.88 50.7821 2233.81 47.7845 Q2230.73 44.7463 2230.73 39.4801 Q2230.73 33.0797 2235.26 29.5959 Q2239.8 26.1121 2248.15 26.1121 Q2252.28 26.1121 2255.92 26.7198 Q2259.57 27.3274 2262.65 28.5427 Z" fill="#000000" fill-rule="nonzero" fill-opacity="1" /><path clip-path="url(#clip160)" d="M2315.76 48.0275 L2315.76 51.6733 L2281.48 51.6733 Q2281.97 59.3701 2286.1 63.421 Q2290.28 67.4314 2297.69 67.4314 Q2301.98 67.4314 2305.99 66.3781 Q2310.04 65.3249 2314.01 63.2184 L2314.01 70.267 Q2310 71.9684 2305.79 72.8596 Q2301.58 73.7508 2297.24 73.7508 Q2286.39 73.7508 2280.03 67.4314 Q2273.71 61.1119 2273.71 50.3365 Q2273.71 39.1965 2279.7 32.6746 Q2285.74 26.1121 2295.95 26.1121 Q2305.1 26.1121 2310.41 32.0264 Q2315.76 37.9003 2315.76 48.0275 M2308.3 45.84 Q2308.22 39.7232 2304.86 36.0774 Q2301.54 32.4315 2296.03 32.4315 Q2289.79 32.4315 2286.02 35.9558 Q2282.29 39.4801 2281.73 45.8805 L2308.3 45.84 Z" fill="#000000" fill-rule="nonzero" fill-opacity="1" /><path clip-path="url(#clip161)" d="M358.949 910.787 L358.949 1734.12 L717.115 1734.12 L717.115 910.787 L358.949 910.787 L358.949 910.787  Z" fill="#008080" fill-rule="evenodd" fill-opacity="0.7"/>
<polyline clip-path="url(#clip161)" style="stroke:#000000; stroke-linecap:round; stroke-linejoin:round; stroke-width:4; stroke-opacity:0.7; fill:none" points="358.949,910.787 358.949,1734.12 717.115,1734.12 717.115,910.787 358.949,910.787 "/>
<path clip-path="url(#clip161)" d="M806.657 127.792 L806.657 1734.12 L1164.82 1734.12 L1164.82 127.792 L806.657 127.792 L806.657 127.792  Z" fill="#008080" fill-rule="evenodd" fill-opacity="0.7"/>
<polyline clip-path="url(#clip161)" style="stroke:#000000; stroke-linecap:round; stroke-linejoin:round; stroke-width:4; stroke-opacity:0.7; fill:none" points="806.657,127.792 806.657,1734.12 1164.82,1734.12 1164.82,127.792 806.657,127.792 "/>
<path clip-path="url(#clip161)" d="M1254.36 1081.94 L1254.36 1734.12 L1612.53 1734.12 L1612.53 1081.94 L1254.36 1081.94 L1254.36 1081.94  Z" fill="#008080" fill-rule="evenodd" fill-opacity="0.7"/>
<polyline clip-path="url(#clip161)" style="stroke:#000000; stroke-linecap:round; stroke-linejoin:round; stroke-width:4; stroke-opacity:0.7; fill:none" points="1254.36,1081.94 1254.36,1734.12 1612.53,1734.12 1612.53,1081.94 1254.36,1081.94 "/>
<path clip-path="url(#clip161)" d="M1702.07 1439.64 L1702.07 1734.12 L2060.24 1734.12 L2060.24 1439.64 L1702.07 1439.64 L1702.07 1439.64  Z" fill="#008080" fill-rule="evenodd" fill-opacity="0.7"/>
<polyline clip-path="url(#clip161)" style="stroke:#000000; stroke-linecap:round; stroke-linejoin:round; stroke-width:4; stroke-opacity:0.7; fill:none" points="1702.07,1439.64 1702.07,1734.12 2060.24,1734.12 2060.24,1439.64 1702.07,1439.64 "/>
<path clip-path="url(#clip161)" d="M2149.78 1142.59 L2149.78 1734.12 L2507.95 1734.12 L2507.95 1142.59 L2149.78 1142.59 L2149.78 1142.59  Z" fill="#008080" fill-rule="evenodd" fill-opacity="0.7"/>
<polyline clip-path="url(#clip161)" style="stroke:#000000; stroke-linecap:round; stroke-linejoin:round; stroke-width:4; stroke-opacity:0.7; fill:none" points="2149.78,1142.59 2149.78,1734.12 2507.95,1734.12 2507.95,1142.59 2149.78,1142.59 "/>
<circle clip-path="url(#clip161)" style="fill:#008080; stroke:none; fill-opacity:0" cx="538.032" cy="910.787" r="2"/>
<circle clip-path="url(#clip161)" style="fill:#008080; stroke:none; fill-opacity:0" cx="985.74" cy="127.792" r="2"/>
<circle clip-path="url(#clip161)" style="fill:#008080; stroke:none; fill-opacity:0" cx="1433.45" cy="1081.94" r="2"/>
<circle clip-path="url(#clip161)" style="fill:#008080; stroke:none; fill-opacity:0" cx="1881.16" cy="1439.64" r="2"/>
<circle clip-path="url(#clip161)" style="fill:#008080; stroke:none; fill-opacity:0" cx="2328.86" cy="1142.59" r="2"/>
</svg>
