<?xml version="1.0" encoding="utf-8"?>
<svg xmlns="http://www.w3.org/2000/svg" xmlns:xlink="http://www.w3.org/1999/xlink" width="672" height="480" viewBox="0 0 2688 1920">
<defs>
  <clipPath id="clip220">
    <rect x="0" y="0" width="2688" height="1920"/>
  </clipPath>
</defs>
<path clip-path="url(#clip220)" d="M0 1920 L2688 1920 L2688 -4.26326e-14 L0 -4.26326e-14  Z" fill="#ffffff" fill-rule="evenodd" fill-opacity="1"/>
<defs>
  <clipPath id="clip221">
    <rect x="226" y="127" width="2415" height="1607"/>
  </clipPath>
</defs>
<path clip-path="url(#clip220)" d="M226.332 1734.12 L2640.76 1734.12 L2640.76 127.792 L226.332 127.792  Z" fill="#ffffff" fill-rule="evenodd" fill-opacity="1"/>
<polyline clip-path="url(#clip221)" style="stroke:#000000; stroke-linecap:round; stroke-linejoin:round; stroke-width:2; stroke-opacity:0.1; fill:none" points="294.664,1734.12 294.664,127.792 "/>
<polyline clip-path="url(#clip221)" style="stroke:#000000; stroke-linecap:round; stroke-linejoin:round; stroke-width:2; stroke-opacity:0.1; fill:none" points="750.216,1734.12 750.216,127.792 "/>
<polyline clip-path="url(#clip221)" style="stroke:#000000; stroke-linecap:round; stroke-linejoin:round; stroke-width:2; stroke-opacity:0.1; fill:none" points="1205.77,1734.12 1205.77,127.792 "/>
<polyline clip-path="url(#clip221)" style="stroke:#000000; stroke-linecap:round; stroke-linejoin:round; stroke-width:2; stroke-opacity:0.1; fill:none" points="1661.32,1734.12 1661.32,127.792 "/>
<polyline clip-path="url(#clip221)" style="stroke:#000000; stroke-linecap:round; stroke-linejoin:round; stroke-width:2; stroke-opacity:0.1; fill:none" points="2116.87,1734.12 2116.87,127.792 "/>
<polyline clip-path="url(#clip221)" style="stroke:#000000; stroke-linecap:round; stroke-linejoin:round; stroke-width:2; stroke-opacity:0.1; fill:none" points="2572.42,1734.12 2572.42,127.792 "/>
<polyline clip-path="url(#clip221)" style="stroke:#000000; stroke-linecap:round; stroke-linejoin:round; stroke-width:2; stroke-opacity:0.1; fill:none" points="226.332,1111.79 2640.76,1111.79 "/>
<polyline clip-path="url(#clip221)" style="stroke:#000000; stroke-linecap:round; stroke-linejoin:round; stroke-width:2; stroke-opacity:0.1; fill:none" points="226.332,173.254 2640.76,173.254 "/>
<polyline clip-path="url(#clip220)" style="stroke:#000000; stroke-linecap:round; stroke-linejoin:round; stroke-width:4; stroke-opacity:1; fill:none" points="226.332,1734.12 2640.76,1734.12 "/>
<polyline clip-path="url(#clip220)" style="stroke:#000000; stroke-linecap:round; stroke-linejoin:round; stroke-width:4; stroke-opacity:1; fill:none" points="294.664,1734.12 294.664,1715.22 "/>
<polyline clip-path="url(#clip220)" style="stroke:#000000; stroke-linecap:round; stroke-linejoin:round; stroke-width:4; stroke-opacity:1; fill:none" points="750.216,1734.12 750.216,1715.22 "/>
<polyline clip-path="url(#clip220)" style="stroke:#000000; stroke-linecap:round; stroke-linejoin:round; stroke-width:4; stroke-opacity:1; fill:none" points="1205.77,1734.12 1205.77,1715.22 "/>
<polyline clip-path="url(#clip220)" style="stroke:#000000; stroke-linecap:round; stroke-linejoin:round; stroke-width:4; stroke-opacity:1; fill:none" points="1661.32,1734.12 1661.32,1715.22 "/>
<polyline clip-path="url(#clip220)" style="stroke:#000000; stroke-linecap:round; stroke-linejoin:round; stroke-width:4; stroke-opacity:1; fill:none" points="2116.87,1734.12 2116.87,1715.22 "/>
<polyline clip-path="url(#clip220)" style="stroke:#000000; stroke-linecap:round; stroke-linejoin:round; stroke-width:4; stroke-opacity:1; fill:none" points="2572.42,1734.12 2572.42,1715.22 "/>
<path clip-path="url(#clip220)" d="M294.664 1767.34 Q291.053 1767.34 289.225 1770.9 Q287.419 1774.45 287.419 1781.58 Q287.419 1788.68 289.225 1792.25 Q291.053 1795.79 294.664 1795.79 Q298.299 1795.79 300.104 1792.25 Q301.933 1788.68 301.933 1781.58 Q301.933 1774.45 300.104 1770.9 Q298.299 1767.34 294.664 1767.34 M294.664 1763.64 Q300.474 1763.64 303.53 1768.24 Q306.609 1772.83 306.609 1781.58 Q306.609 1790.3 303.53 1794.91 Q300.474 1799.49 294.664 1799.49 Q288.854 1799.49 285.775 1794.91 Q282.72 1790.3 282.72 1781.58 Q282.72 1772.83 285.775 1768.24 Q288.854 1763.64 294.664 1763.64 Z" fill="#000000" fill-rule="nonzero" fill-opacity="1" /><path clip-path="url(#clip220)" d="M724.904 1794.89 L732.543 1794.89 L732.543 1768.52 L724.232 1770.19 L724.232 1765.93 L732.496 1764.26 L737.172 1764.26 L737.172 1794.89 L744.811 1794.89 L744.811 1798.82 L724.904 1798.82 L724.904 1794.89 Z" fill="#000000" fill-rule="nonzero" fill-opacity="1" /><path clip-path="url(#clip220)" d="M764.255 1767.34 Q760.644 1767.34 758.816 1770.9 Q757.01 1774.45 757.01 1781.58 Q757.01 1788.68 758.816 1792.25 Q760.644 1795.79 764.255 1795.79 Q767.89 1795.79 769.695 1792.25 Q771.524 1788.68 771.524 1781.58 Q771.524 1774.45 769.695 1770.9 Q767.89 1767.34 764.255 1767.34 M764.255 1763.64 Q770.065 1763.64 773.121 1768.24 Q776.2 1772.83 776.2 1781.58 Q776.2 1790.3 773.121 1794.91 Q770.065 1799.49 764.255 1799.49 Q758.445 1799.49 755.366 1794.91 Q752.311 1790.3 752.311 1781.58 Q752.311 1772.83 755.366 1768.24 Q758.445 1763.64 764.255 1763.64 Z" fill="#000000" fill-rule="nonzero" fill-opacity="1" /><path clip-path="url(#clip220)" d="M1184.54 1794.89 L1200.86 1794.89 L1200.86 1798.82 L1178.92 1798.82 L1178.92 1794.89 Q1181.58 1792.13 1186.16 1787.5 Q1190.77 1782.85 1191.95 1781.51 Q1194.19 1778.98 1195.07 1777.25 Q1195.98 1775.49 1195.98 1773.8 Q1195.98 1771.04 1194.03 1769.31 Q1192.11 1767.57 1189.01 1767.57 Q1186.81 1767.57 1184.36 1768.34 Q1181.93 1769.1 1179.15 1770.65 L1179.15 1765.93 Q1181.97 1764.79 1184.43 1764.21 Q1186.88 1763.64 1188.92 1763.64 Q1194.29 1763.64 1197.48 1766.32 Q1200.68 1769.01 1200.68 1773.5 Q1200.68 1775.63 1199.87 1777.55 Q1199.08 1779.45 1196.97 1782.04 Q1196.39 1782.71 1193.29 1785.93 Q1190.19 1789.12 1184.54 1794.89 Z" fill="#000000" fill-rule="nonzero" fill-opacity="1" /><path clip-path="url(#clip220)" d="M1220.68 1767.34 Q1217.06 1767.34 1215.24 1770.9 Q1213.43 1774.45 1213.43 1781.58 Q1213.43 1788.68 1215.24 1792.25 Q1217.06 1795.79 1220.68 1795.79 Q1224.31 1795.79 1226.11 1792.25 Q1227.94 1788.68 1227.94 1781.58 Q1227.94 1774.45 1226.11 1770.9 Q1224.31 1767.34 1220.68 1767.34 M1220.68 1763.64 Q1226.49 1763.64 1229.54 1768.24 Q1232.62 1772.83 1232.62 1781.58 Q1232.62 1790.3 1229.54 1794.91 Q1226.49 1799.49 1220.68 1799.49 Q1214.87 1799.49 1211.79 1794.91 Q1208.73 1790.3 1208.73 1781.58 Q1208.73 1772.83 1211.79 1768.24 Q1214.87 1763.64 1220.68 1763.64 Z" fill="#000000" fill-rule="nonzero" fill-opacity="1" /><path clip-path="url(#clip220)" d="M1650.16 1780.19 Q1653.52 1780.9 1655.39 1783.17 Q1657.29 1785.44 1657.29 1788.77 Q1657.29 1793.89 1653.77 1796.69 Q1650.25 1799.49 1643.77 1799.49 Q1641.6 1799.49 1639.28 1799.05 Q1636.99 1798.64 1634.54 1797.78 L1634.54 1793.27 Q1636.48 1794.4 1638.8 1794.98 Q1641.11 1795.56 1643.63 1795.56 Q1648.03 1795.56 1650.32 1793.82 Q1652.64 1792.08 1652.64 1788.77 Q1652.64 1785.72 1650.49 1784.01 Q1648.36 1782.27 1644.54 1782.27 L1640.51 1782.27 L1640.51 1778.43 L1644.72 1778.43 Q1648.17 1778.43 1650 1777.06 Q1651.83 1775.67 1651.83 1773.08 Q1651.83 1770.42 1649.93 1769.01 Q1648.06 1767.57 1644.54 1767.57 Q1642.62 1767.57 1640.42 1767.99 Q1638.22 1768.4 1635.58 1769.28 L1635.58 1765.12 Q1638.24 1764.38 1640.56 1764.01 Q1642.89 1763.64 1644.95 1763.64 Q1650.28 1763.64 1653.38 1766.07 Q1656.48 1768.47 1656.48 1772.59 Q1656.48 1775.46 1654.84 1777.46 Q1653.19 1779.42 1650.16 1780.19 Z" fill="#000000" fill-rule="nonzero" fill-opacity="1" /><path clip-path="url(#clip220)" d="M1676.16 1767.34 Q1672.55 1767.34 1670.72 1770.9 Q1668.91 1774.45 1668.91 1781.58 Q1668.91 1788.68 1670.72 1792.25 Q1672.55 1795.79 1676.16 1795.79 Q1679.79 1795.79 1681.6 1792.25 Q1683.43 1788.68 1683.43 1781.58 Q1683.43 1774.45 1681.6 1770.9 Q1679.79 1767.34 1676.16 1767.34 M1676.16 1763.64 Q1681.97 1763.64 1685.02 1768.24 Q1688.1 1772.83 1688.1 1781.58 Q1688.1 1790.3 1685.02 1794.91 Q1681.97 1799.49 1676.16 1799.49 Q1670.35 1799.49 1667.27 1794.91 Q1664.21 1790.3 1664.21 1781.58 Q1664.21 1772.83 1667.27 1768.24 Q1670.35 1763.64 1676.16 1763.64 Z" fill="#000000" fill-rule="nonzero" fill-opacity="1" /><path clip-path="url(#clip220)" d="M2105.04 1768.34 L2093.24 1786.78 L2105.04 1786.78 L2105.04 1768.34 M2103.82 1764.26 L2109.7 1764.26 L2109.7 1786.78 L2114.63 1786.78 L2114.63 1790.67 L2109.7 1790.67 L2109.7 1798.82 L2105.04 1798.82 L2105.04 1790.67 L2089.44 1790.67 L2089.44 1786.16 L2103.82 1764.26 Z" fill="#000000" fill-rule="nonzero" fill-opacity="1" /><path clip-path="url(#clip220)" d="M2132.36 1767.34 Q2128.75 1767.34 2126.92 1770.9 Q2125.11 1774.45 2125.11 1781.58 Q2125.11 1788.68 2126.92 1792.25 Q2128.75 1795.79 2132.36 1795.79 Q2135.99 1795.79 2137.8 1792.25 Q2139.63 1788.68 2139.63 1781.58 Q2139.63 1774.45 2137.8 1770.9 Q2135.99 1767.34 2132.36 1767.34 M2132.36 1763.64 Q2138.17 1763.64 2141.22 1768.24 Q2144.3 1772.83 2144.3 1781.58 Q2144.3 1790.3 2141.22 1794.91 Q2138.17 1799.49 2132.36 1799.49 Q2126.55 1799.49 2123.47 1794.91 Q2120.41 1790.3 2120.41 1781.58 Q2120.41 1772.83 2123.47 1768.24 Q2126.55 1763.64 2132.36 1763.64 Z" fill="#000000" fill-rule="nonzero" fill-opacity="1" /><path clip-path="url(#clip220)" d="M2547.12 1764.26 L2565.48 1764.26 L2565.48 1768.2 L2551.4 1768.2 L2551.4 1776.67 Q2552.42 1776.32 2553.44 1776.16 Q2554.46 1775.97 2555.48 1775.97 Q2561.27 1775.97 2564.65 1779.15 Q2568.03 1782.32 2568.03 1787.73 Q2568.03 1793.31 2564.55 1796.41 Q2561.08 1799.49 2554.76 1799.49 Q2552.59 1799.49 2550.32 1799.12 Q2548.07 1798.75 2545.66 1798.01 L2545.66 1793.31 Q2547.75 1794.45 2549.97 1795 Q2552.19 1795.56 2554.67 1795.56 Q2558.67 1795.56 2561.01 1793.45 Q2563.35 1791.34 2563.35 1787.73 Q2563.35 1784.12 2561.01 1782.02 Q2558.67 1779.91 2554.67 1779.91 Q2552.79 1779.91 2550.92 1780.33 Q2549.07 1780.74 2547.12 1781.62 L2547.12 1764.26 Z" fill="#000000" fill-rule="nonzero" fill-opacity="1" /><path clip-path="url(#clip220)" d="M2587.24 1767.34 Q2583.63 1767.34 2581.8 1770.9 Q2579.99 1774.45 2579.99 1781.58 Q2579.99 1788.68 2581.8 1792.25 Q2583.63 1795.79 2587.24 1795.79 Q2590.87 1795.79 2592.68 1792.25 Q2594.51 1788.68 2594.51 1781.58 Q2594.51 1774.45 2592.68 1770.9 Q2590.87 1767.34 2587.24 1767.34 M2587.24 1763.64 Q2593.05 1763.64 2596.1 1768.24 Q2599.18 1772.83 2599.18 1781.58 Q2599.18 1790.3 2596.1 1794.91 Q2593.05 1799.49 2587.24 1799.49 Q2581.43 1799.49 2578.35 1794.91 Q2575.29 1790.3 2575.29 1781.58 Q2575.29 1772.83 2578.35 1768.24 Q2581.43 1763.64 2587.24 1763.64 Z" fill="#000000" fill-rule="nonzero" fill-opacity="1" /><path clip-path="url(#clip220)" d="M1150.14 1835.78 L1190.34 1835.78 L1190.34 1841.19 L1173.47 1841.19 L1173.47 1883.3 L1167.01 1883.3 L1167.01 1841.19 L1150.14 1841.19 L1150.14 1835.78 Z" fill="#000000" fill-rule="nonzero" fill-opacity="1" /><path clip-path="url(#clip220)" d="M1194.29 1847.65 L1200.15 1847.65 L1200.15 1883.3 L1194.29 1883.3 L1194.29 1847.65 M1194.29 1833.78 L1200.15 1833.78 L1200.15 1841.19 L1194.29 1841.19 L1194.29 1833.78 Z" fill="#000000" fill-rule="nonzero" fill-opacity="1" /><path clip-path="url(#clip220)" d="M1240.15 1854.5 Q1242.35 1850.55 1245.41 1848.67 Q1248.46 1846.79 1252.6 1846.79 Q1258.17 1846.79 1261.19 1850.71 Q1264.22 1854.59 1264.22 1861.78 L1264.22 1883.3 L1258.33 1883.3 L1258.33 1861.98 Q1258.33 1856.85 1256.51 1854.37 Q1254.7 1851.89 1250.98 1851.89 Q1246.42 1851.89 1243.78 1854.91 Q1241.14 1857.93 1241.14 1863.15 L1241.14 1883.3 L1235.25 1883.3 L1235.25 1861.98 Q1235.25 1856.82 1233.44 1854.37 Q1231.62 1851.89 1227.84 1851.89 Q1223.35 1851.89 1220.71 1854.94 Q1218.06 1857.97 1218.06 1863.15 L1218.06 1883.3 L1212.18 1883.3 L1212.18 1847.65 L1218.06 1847.65 L1218.06 1853.19 Q1220.07 1849.91 1222.87 1848.35 Q1225.67 1846.79 1229.52 1846.79 Q1233.41 1846.79 1236.11 1848.77 Q1238.85 1850.74 1240.15 1854.5 Z" fill="#000000" fill-rule="nonzero" fill-opacity="1" /><path clip-path="url(#clip220)" d="M1306.39 1864.01 L1306.39 1866.88 L1279.46 1866.88 Q1279.84 1872.92 1283.09 1876.11 Q1286.37 1879.26 1292.19 1879.26 Q1295.57 1879.26 1298.72 1878.43 Q1301.9 1877.6 1305.02 1875.95 L1305.02 1881.49 Q1301.87 1882.82 1298.56 1883.52 Q1295.25 1884.22 1291.84 1884.22 Q1283.31 1884.22 1278.32 1879.26 Q1273.35 1874.29 1273.35 1865.83 Q1273.35 1857.07 1278.06 1851.95 Q1282.8 1846.79 1290.82 1846.79 Q1298.02 1846.79 1302.19 1851.44 Q1306.39 1856.06 1306.39 1864.01 M1300.53 1862.29 Q1300.47 1857.49 1297.83 1854.62 Q1295.22 1851.76 1290.89 1851.76 Q1285.99 1851.76 1283.03 1854.53 Q1280.1 1857.3 1279.65 1862.33 L1300.53 1862.29 Z" fill="#000000" fill-rule="nonzero" fill-opacity="1" /><path clip-path="url(#clip220)" d="M1359.45 1848.7 L1359.45 1854.24 Q1356.96 1852.97 1354.29 1852.33 Q1351.62 1851.7 1348.75 1851.7 Q1344.39 1851.7 1342.2 1853.03 Q1340.03 1854.37 1340.03 1857.04 Q1340.03 1859.08 1341.59 1860.26 Q1343.15 1861.4 1347.86 1862.45 L1349.87 1862.9 Q1356.1 1864.24 1358.71 1866.69 Q1361.36 1869.11 1361.36 1873.47 Q1361.36 1878.43 1357.41 1881.33 Q1353.49 1884.22 1346.62 1884.22 Q1343.76 1884.22 1340.64 1883.65 Q1337.55 1883.11 1334.11 1882 L1334.11 1875.95 Q1337.36 1877.64 1340.51 1878.49 Q1343.66 1879.32 1346.75 1879.32 Q1350.89 1879.32 1353.11 1877.92 Q1355.34 1876.49 1355.34 1873.91 Q1355.34 1871.52 1353.72 1870.25 Q1352.13 1868.98 1346.68 1867.8 L1344.65 1867.32 Q1339.2 1866.18 1336.78 1863.82 Q1334.37 1861.43 1334.37 1857.3 Q1334.37 1852.27 1337.93 1849.53 Q1341.5 1846.79 1348.05 1846.79 Q1351.3 1846.79 1354.16 1847.27 Q1357.03 1847.75 1359.45 1848.7 Z" fill="#000000" fill-rule="nonzero" fill-opacity="1" /><path clip-path="url(#clip220)" d="M1376.48 1837.53 L1376.48 1847.65 L1388.54 1847.65 L1388.54 1852.2 L1376.48 1852.2 L1376.48 1871.56 Q1376.48 1875.92 1377.65 1877.16 Q1378.86 1878.4 1382.52 1878.4 L1388.54 1878.4 L1388.54 1883.3 L1382.52 1883.3 Q1375.74 1883.3 1373.16 1880.79 Q1370.59 1878.24 1370.59 1871.56 L1370.59 1852.2 L1366.29 1852.2 L1366.29 1847.65 L1370.59 1847.65 L1370.59 1837.53 L1376.48 1837.53 Z" fill="#000000" fill-rule="nonzero" fill-opacity="1" /><path clip-path="url(#clip220)" d="M1426.73 1864.01 L1426.73 1866.88 L1399.81 1866.88 Q1400.19 1872.92 1403.43 1876.11 Q1406.71 1879.26 1412.54 1879.26 Q1415.91 1879.26 1419.06 1878.43 Q1422.24 1877.6 1425.36 1875.95 L1425.36 1881.49 Q1422.21 1882.82 1418.9 1883.52 Q1415.59 1884.22 1412.19 1884.22 Q1403.66 1884.22 1398.66 1879.26 Q1393.69 1874.29 1393.69 1865.83 Q1393.69 1857.07 1398.41 1851.95 Q1403.15 1846.79 1411.17 1846.79 Q1418.36 1846.79 1422.53 1851.44 Q1426.73 1856.06 1426.73 1864.01 M1420.88 1862.29 Q1420.81 1857.49 1418.17 1854.62 Q1415.56 1851.76 1411.23 1851.76 Q1406.33 1851.76 1403.37 1854.53 Q1400.44 1857.3 1400 1862.33 L1420.88 1862.29 Z" fill="#000000" fill-rule="nonzero" fill-opacity="1" /><path clip-path="url(#clip220)" d="M1442.01 1877.95 L1442.01 1896.86 L1436.12 1896.86 L1436.12 1847.65 L1442.01 1847.65 L1442.01 1853.06 Q1443.86 1849.88 1446.66 1848.35 Q1449.49 1846.79 1453.4 1846.79 Q1459.9 1846.79 1463.94 1851.95 Q1468.01 1857.11 1468.01 1865.51 Q1468.01 1873.91 1463.94 1879.07 Q1459.9 1884.22 1453.4 1884.22 Q1449.49 1884.22 1446.66 1882.7 Q1443.86 1881.14 1442.01 1877.95 M1461.93 1865.51 Q1461.93 1859.05 1459.26 1855.39 Q1456.62 1851.7 1451.97 1851.7 Q1447.33 1851.7 1444.65 1855.39 Q1442.01 1859.05 1442.01 1865.51 Q1442.01 1871.97 1444.65 1875.66 Q1447.33 1879.32 1451.97 1879.32 Q1456.62 1879.32 1459.26 1875.66 Q1461.93 1871.97 1461.93 1865.51 Z" fill="#000000" fill-rule="nonzero" fill-opacity="1" /><path clip-path="url(#clip220)" d="M1512.51 1833.84 Q1508.25 1841.16 1506.18 1848.32 Q1504.11 1855.48 1504.11 1862.84 Q1504.11 1870.19 1506.18 1877.41 Q1508.28 1884.61 1512.51 1891.89 L1507.42 1891.89 Q1502.64 1884.41 1500.26 1877.19 Q1497.9 1869.96 1497.9 1862.84 Q1497.9 1855.74 1500.26 1848.54 Q1502.61 1841.35 1507.42 1833.84 L1512.51 1833.84 Z" fill="#000000" fill-rule="nonzero" fill-opacity="1" /><path clip-path="url(#clip220)" d="M1538.71 1886.61 Q1536.22 1892.98 1533.87 1894.92 Q1531.51 1896.86 1527.57 1896.86 L1522.89 1896.86 L1522.89 1891.96 L1526.32 1891.96 Q1528.74 1891.96 1530.08 1890.81 Q1531.42 1889.67 1533.04 1885.4 L1534.09 1882.73 L1519.67 1847.65 L1525.88 1847.65 L1537.02 1875.53 L1548.16 1847.65 L1554.36 1847.65 L1538.71 1886.61 Z" fill="#000000" fill-rule="nonzero" fill-opacity="1" /><path clip-path="url(#clip220)" d="M1592.94 1864.01 L1592.94 1866.88 L1566.01 1866.88 Q1566.4 1872.92 1569.64 1876.11 Q1572.92 1879.26 1578.75 1879.26 Q1582.12 1879.26 1585.27 1878.43 Q1588.45 1877.6 1591.57 1875.95 L1591.57 1881.49 Q1588.42 1882.82 1585.11 1883.52 Q1581.8 1884.22 1578.4 1884.22 Q1569.87 1884.22 1564.87 1879.26 Q1559.9 1874.29 1559.9 1865.83 Q1559.9 1857.07 1564.61 1851.95 Q1569.36 1846.79 1577.38 1846.79 Q1584.57 1846.79 1588.74 1851.44 Q1592.94 1856.06 1592.94 1864.01 M1587.08 1862.29 Q1587.02 1857.49 1584.38 1854.62 Q1581.77 1851.76 1577.44 1851.76 Q1572.54 1851.76 1569.58 1854.53 Q1566.65 1857.3 1566.21 1862.33 L1587.08 1862.29 Z" fill="#000000" fill-rule="nonzero" fill-opacity="1" /><path clip-path="url(#clip220)" d="M1618.75 1865.38 Q1611.66 1865.38 1608.92 1867 Q1606.18 1868.63 1606.18 1872.54 Q1606.18 1875.66 1608.22 1877.51 Q1610.29 1879.32 1613.82 1879.32 Q1618.69 1879.32 1621.62 1875.88 Q1624.58 1872.42 1624.58 1866.69 L1624.58 1865.38 L1618.75 1865.38 M1630.44 1862.96 L1630.44 1883.3 L1624.58 1883.3 L1624.58 1877.89 Q1622.57 1881.14 1619.58 1882.7 Q1616.59 1884.22 1612.26 1884.22 Q1606.79 1884.22 1603.54 1881.17 Q1600.33 1878.08 1600.33 1872.92 Q1600.33 1866.91 1604.34 1863.85 Q1608.38 1860.8 1616.37 1860.8 L1624.58 1860.8 L1624.58 1860.23 Q1624.58 1856.18 1621.9 1853.99 Q1619.26 1851.76 1614.46 1851.76 Q1611.4 1851.76 1608.51 1852.49 Q1605.61 1853.22 1602.94 1854.69 L1602.94 1849.28 Q1606.15 1848.03 1609.17 1847.43 Q1612.2 1846.79 1615.06 1846.79 Q1622.8 1846.79 1626.62 1850.8 Q1630.44 1854.81 1630.44 1862.96 Z" fill="#000000" fill-rule="nonzero" fill-opacity="1" /><path clip-path="url(#clip220)" d="M1663.15 1853.13 Q1662.17 1852.55 1660.99 1852.3 Q1659.84 1852.01 1658.44 1852.01 Q1653.48 1852.01 1650.81 1855.26 Q1648.16 1858.47 1648.16 1864.52 L1648.16 1883.3 L1642.28 1883.3 L1642.28 1847.65 L1648.16 1847.65 L1648.16 1853.19 Q1650.01 1849.94 1652.97 1848.39 Q1655.93 1846.79 1660.16 1846.79 Q1660.77 1846.79 1661.5 1846.89 Q1662.23 1846.95 1663.12 1847.11 L1663.15 1853.13 Z" fill="#000000" fill-rule="nonzero" fill-opacity="1" /><path clip-path="url(#clip220)" d="M1692.02 1848.7 L1692.02 1854.24 Q1689.54 1852.97 1686.87 1852.33 Q1684.19 1851.7 1681.33 1851.7 Q1676.97 1851.7 1674.77 1853.03 Q1672.61 1854.37 1672.61 1857.04 Q1672.61 1859.08 1674.17 1860.26 Q1675.73 1861.4 1680.44 1862.45 L1682.44 1862.9 Q1688.68 1864.24 1691.29 1866.69 Q1693.93 1869.11 1693.93 1873.47 Q1693.93 1878.43 1689.99 1881.33 Q1686.07 1884.22 1679.2 1884.22 Q1676.33 1884.22 1673.21 1883.65 Q1670.13 1883.11 1666.69 1882 L1666.69 1875.95 Q1669.93 1877.64 1673.09 1878.49 Q1676.24 1879.32 1679.32 1879.32 Q1683.46 1879.32 1685.69 1877.92 Q1687.92 1876.49 1687.92 1873.91 Q1687.92 1871.52 1686.29 1870.25 Q1684.7 1868.98 1679.26 1867.8 L1677.22 1867.32 Q1671.78 1866.18 1669.36 1863.82 Q1666.94 1861.43 1666.94 1857.3 Q1666.94 1852.27 1670.51 1849.53 Q1674.07 1846.79 1680.63 1846.79 Q1683.88 1846.79 1686.74 1847.27 Q1689.6 1847.75 1692.02 1848.7 Z" fill="#000000" fill-rule="nonzero" fill-opacity="1" /><path clip-path="url(#clip220)" d="M1702.34 1833.84 L1707.43 1833.84 Q1712.2 1841.35 1714.56 1848.54 Q1716.94 1855.74 1716.94 1862.84 Q1716.94 1869.96 1714.56 1877.19 Q1712.2 1884.41 1707.43 1891.89 L1702.34 1891.89 Q1706.57 1884.61 1708.64 1877.41 Q1710.74 1870.19 1710.74 1862.84 Q1710.74 1855.48 1708.64 1848.32 Q1706.57 1841.16 1702.34 1833.84 Z" fill="#000000" fill-rule="nonzero" fill-opacity="1" /><polyline clip-path="url(#clip220)" style="stroke:#000000; stroke-linecap:round; stroke-linejoin:round; stroke-width:4; stroke-opacity:1; fill:none" points="226.332,1734.12 226.332,127.792 "/>
<polyline clip-path="url(#clip220)" style="stroke:#000000; stroke-linecap:round; stroke-linejoin:round; stroke-width:4; stroke-opacity:1; fill:none" points="226.332,1111.79 245.229,1111.79 "/>
<polyline clip-path="url(#clip220)" style="stroke:#000000; stroke-linecap:round; stroke-linejoin:round; stroke-width:4; stroke-opacity:1; fill:none" points="226.332,173.254 245.229,173.254 "/>
<path clip-path="url(#clip220)" d="M117.995 1131.58 L125.634 1131.58 L125.634 1105.22 L117.324 1106.88 L117.324 1102.62 L125.588 1100.96 L130.264 1100.96 L130.264 1131.58 L137.903 1131.58 L137.903 1135.52 L117.995 1135.52 L117.995 1131.58 Z" fill="#000000" fill-rule="nonzero" fill-opacity="1" /><path clip-path="url(#clip220)" d="M157.347 1104.04 Q153.736 1104.04 151.907 1107.6 Q150.102 1111.14 150.102 1118.27 Q150.102 1125.38 151.907 1128.94 Q153.736 1132.48 157.347 1132.48 Q160.981 1132.48 162.787 1128.94 Q164.616 1125.38 164.616 1118.27 Q164.616 1111.14 162.787 1107.6 Q160.981 1104.04 157.347 1104.04 M157.347 1100.33 Q163.157 1100.33 166.213 1104.94 Q169.291 1109.52 169.291 1118.27 Q169.291 1127 166.213 1131.6 Q163.157 1136.19 157.347 1136.19 Q151.537 1136.19 148.458 1131.6 Q145.403 1127 145.403 1118.27 Q145.403 1109.52 148.458 1104.94 Q151.537 1100.33 157.347 1100.33 Z" fill="#000000" fill-rule="nonzero" fill-opacity="1" /><path clip-path="url(#clip220)" d="M169.837 1104.91 L176.043 1104.91 L176.043 1083.49 L169.291 1084.84 L169.291 1081.38 L176.006 1080.03 L179.805 1080.03 L179.805 1104.91 L186.012 1104.91 L186.012 1108.11 L169.837 1108.11 L169.837 1104.91 Z" fill="#000000" fill-rule="nonzero" fill-opacity="1" /><path clip-path="url(#clip220)" d="M116.886 193.047 L124.525 193.047 L124.525 166.681 L116.214 168.348 L116.214 164.088 L124.478 162.422 L129.154 162.422 L129.154 193.047 L136.793 193.047 L136.793 196.982 L116.886 196.982 L116.886 193.047 Z" fill="#000000" fill-rule="nonzero" fill-opacity="1" /><path clip-path="url(#clip220)" d="M156.237 165.5 Q152.626 165.5 150.798 169.065 Q148.992 172.607 148.992 179.736 Q148.992 186.843 150.798 190.408 Q152.626 193.949 156.237 193.949 Q159.872 193.949 161.677 190.408 Q163.506 186.843 163.506 179.736 Q163.506 172.607 161.677 169.065 Q159.872 165.5 156.237 165.5 M156.237 161.797 Q162.048 161.797 165.103 166.403 Q168.182 170.987 168.182 179.736 Q168.182 188.463 165.103 193.07 Q162.048 197.653 156.237 197.653 Q150.427 197.653 147.349 193.07 Q144.293 188.463 144.293 179.736 Q144.293 170.987 147.349 166.403 Q150.427 161.797 156.237 161.797 Z" fill="#000000" fill-rule="nonzero" fill-opacity="1" /><path clip-path="url(#clip220)" d="M172.752 166.374 L186.012 166.374 L186.012 169.571 L168.182 169.571 L168.182 166.374 Q170.345 164.136 174.069 160.374 Q177.811 156.594 178.771 155.503 Q180.595 153.453 181.31 152.043 Q182.043 150.613 182.043 149.24 Q182.043 147.002 180.463 145.591 Q178.902 144.181 176.382 144.181 Q174.595 144.181 172.602 144.802 Q170.627 145.422 168.37 146.682 L168.37 142.846 Q170.664 141.924 172.658 141.454 Q174.652 140.984 176.307 140.984 Q180.67 140.984 183.266 143.165 Q185.861 145.347 185.861 148.996 Q185.861 150.726 185.203 152.287 Q184.563 153.829 182.852 155.936 Q182.382 156.481 179.861 159.095 Q177.341 161.691 172.752 166.374 Z" fill="#000000" fill-rule="nonzero" fill-opacity="1" /><path clip-path="url(#clip220)" d="M14.1184 1188.19 L14.1184 1147.99 L19.5293 1147.99 L19.5293 1164.86 L61.6384 1164.86 L61.6384 1171.32 L19.5293 1171.32 L19.5293 1188.19 L14.1184 1188.19 Z" fill="#000000" fill-rule="nonzero" fill-opacity="1" /><path clip-path="url(#clip220)" d="M30.0964 1139.3 Q30.0964 1144.01 33.7885 1146.75 Q37.4488 1149.49 43.8463 1149.49 Q50.2438 1149.49 53.9359 1146.78 Q57.5962 1144.05 57.5962 1139.3 Q57.5962 1134.63 53.9041 1131.89 Q50.212 1129.15 43.8463 1129.15 Q37.5124 1129.15 33.8203 1131.89 Q30.0964 1134.63 30.0964 1139.3 M25.1311 1139.3 Q25.1311 1131.67 30.0964 1127.3 Q35.0616 1122.94 43.8463 1122.94 Q52.5991 1122.94 57.5962 1127.3 Q62.5615 1131.67 62.5615 1139.3 Q62.5615 1146.97 57.5962 1151.34 Q52.5991 1155.66 43.8463 1155.66 Q35.0616 1155.66 30.0964 1151.34 Q25.1311 1146.97 25.1311 1139.3 Z" fill="#000000" fill-rule="nonzero" fill-opacity="1" /><path clip-path="url(#clip220)" d="M15.869 1107.44 L25.9905 1107.44 L25.9905 1095.38 L30.542 1095.38 L30.542 1107.44 L49.8937 1107.44 Q54.2542 1107.44 55.4955 1106.27 Q56.7368 1105.06 56.7368 1101.4 L56.7368 1095.38 L61.6384 1095.38 L61.6384 1101.4 Q61.6384 1108.18 59.124 1110.75 Q56.5777 1113.33 49.8937 1113.33 L30.542 1113.33 L30.542 1117.63 L25.9905 1117.63 L25.9905 1113.33 L15.869 1113.33 L15.869 1107.44 Z" fill="#000000" fill-rule="nonzero" fill-opacity="1" /><path clip-path="url(#clip220)" d="M43.719 1071.48 Q43.719 1078.58 45.3422 1081.31 Q46.9655 1084.05 50.8804 1084.05 Q53.9996 1084.05 55.8457 1082.01 Q57.6599 1079.94 57.6599 1076.41 Q57.6599 1071.54 54.2224 1068.61 Q50.7531 1065.65 45.0239 1065.65 L43.719 1065.65 L43.719 1071.48 M41.3 1059.8 L61.6384 1059.8 L61.6384 1065.65 L56.2276 1065.65 Q59.4741 1067.66 61.0337 1070.65 Q62.5615 1073.64 62.5615 1077.97 Q62.5615 1083.45 59.5059 1086.69 Q56.4186 1089.91 51.2623 1089.91 Q45.2467 1089.91 42.1912 1085.9 Q39.1357 1081.85 39.1357 1073.86 L39.1357 1065.65 L38.5628 1065.65 Q34.5205 1065.65 32.3244 1068.33 Q30.0964 1070.97 30.0964 1075.77 Q30.0964 1078.83 30.8284 1081.73 Q31.5605 1084.62 33.0246 1087.3 L27.6137 1087.3 Q26.3724 1084.08 25.7677 1081.06 Q25.1311 1078.03 25.1311 1075.17 Q25.1311 1067.44 29.1415 1063.62 Q33.1519 1059.8 41.3 1059.8 Z" fill="#000000" fill-rule="nonzero" fill-opacity="1" /><path clip-path="url(#clip220)" d="M12.1132 1047.73 L12.1132 1041.88 L61.6384 1041.88 L61.6384 1047.73 L12.1132 1047.73 Z" fill="#000000" fill-rule="nonzero" fill-opacity="1" /><path clip-path="url(#clip220)" d="M56.2912 1003.24 L75.1974 1003.24 L75.1974 1009.13 L25.9905 1009.13 L25.9905 1003.24 L31.4013 1003.24 Q28.2185 1001.39 26.6907 998.59 Q25.1311 995.757 25.1311 991.843 Q25.1311 985.35 30.2873 981.307 Q35.4436 977.233 43.8463 977.233 Q52.249 977.233 57.4052 981.307 Q62.5615 985.35 62.5615 991.843 Q62.5615 995.757 61.0337 998.59 Q59.4741 1001.39 56.2912 1003.24 M43.8463 983.312 Q37.3851 983.312 33.7248 985.986 Q30.0327 988.628 30.0327 993.275 Q30.0327 997.922 33.7248 1000.6 Q37.3851 1003.24 43.8463 1003.24 Q50.3075 1003.24 53.9996 1000.6 Q57.6599 997.922 57.6599 993.275 Q57.6599 988.628 53.9996 985.986 Q50.3075 983.312 43.8463 983.312 Z" fill="#000000" fill-rule="nonzero" fill-opacity="1" /><path clip-path="url(#clip220)" d="M30.0964 953.712 Q30.0964 958.423 33.7885 961.16 Q37.4488 963.897 43.8463 963.897 Q50.2438 963.897 53.9359 961.192 Q57.5962 958.454 57.5962 953.712 Q57.5962 949.033 53.9041 946.296 Q50.212 943.559 43.8463 943.559 Q37.5124 943.559 33.8203 946.296 Q30.0964 949.033 30.0964 953.712 M25.1311 953.712 Q25.1311 946.073 30.0964 941.713 Q35.0616 937.352 43.8463 937.352 Q52.5991 937.352 57.5962 941.713 Q62.5615 946.073 62.5615 953.712 Q62.5615 961.383 57.5962 965.743 Q52.5991 970.072 43.8463 970.072 Q35.0616 970.072 30.0964 965.743 Q25.1311 961.383 25.1311 953.712 Z" fill="#000000" fill-rule="nonzero" fill-opacity="1" /><path clip-path="url(#clip220)" d="M56.2912 921.979 L75.1974 921.979 L75.1974 927.867 L25.9905 927.867 L25.9905 921.979 L31.4013 921.979 Q28.2185 920.133 26.6907 917.332 Q25.1311 914.499 25.1311 910.584 Q25.1311 904.091 30.2873 900.049 Q35.4436 895.975 43.8463 895.975 Q52.249 895.975 57.4052 900.049 Q62.5615 904.091 62.5615 910.584 Q62.5615 914.499 61.0337 917.332 Q59.4741 920.133 56.2912 921.979 M43.8463 902.054 Q37.3851 902.054 33.7248 904.728 Q30.0327 907.37 30.0327 912.017 Q30.0327 916.664 33.7248 919.337 Q37.3851 921.979 43.8463 921.979 Q50.3075 921.979 53.9996 919.337 Q57.6599 916.664 57.6599 912.017 Q57.6599 907.37 53.9996 904.728 Q50.3075 902.054 43.8463 902.054 Z" fill="#000000" fill-rule="nonzero" fill-opacity="1" /><path clip-path="url(#clip220)" d="M47.5702 886.872 L25.9905 886.872 L25.9905 881.016 L47.3474 881.016 Q52.4082 881.016 54.9545 879.042 Q57.4689 877.069 57.4689 873.122 Q57.4689 868.38 54.4452 865.642 Q51.4215 862.873 46.2016 862.873 L25.9905 862.873 L25.9905 857.017 L61.6384 857.017 L61.6384 862.873 L56.1639 862.873 Q59.4104 865.006 61.0019 867.839 Q62.5615 870.639 62.5615 874.363 Q62.5615 880.506 58.742 883.689 Q54.9226 886.872 47.5702 886.872 M25.1311 872.135 L25.1311 872.135 Z" fill="#000000" fill-rule="nonzero" fill-opacity="1" /><path clip-path="url(#clip220)" d="M12.1132 844.954 L12.1132 839.097 L61.6384 839.097 L61.6384 844.954 L12.1132 844.954 Z" fill="#000000" fill-rule="nonzero" fill-opacity="1" /><path clip-path="url(#clip220)" d="M43.719 810.643 Q43.719 817.74 45.3422 820.478 Q46.9655 823.215 50.8804 823.215 Q53.9996 823.215 55.8457 821.178 Q57.6599 819.109 57.6599 815.576 Q57.6599 810.706 54.2224 807.778 Q50.7531 804.818 45.0239 804.818 L43.719 804.818 L43.719 810.643 M41.3 798.962 L61.6384 798.962 L61.6384 804.818 L56.2276 804.818 Q59.4741 806.823 61.0337 809.815 Q62.5615 812.807 62.5615 817.136 Q62.5615 822.61 59.5059 825.857 Q56.4186 829.071 51.2623 829.071 Q45.2467 829.071 42.1912 825.061 Q39.1357 821.019 39.1357 813.03 L39.1357 804.818 L38.5628 804.818 Q34.5205 804.818 32.3244 807.492 Q30.0964 810.133 30.0964 814.94 Q30.0964 817.995 30.8284 820.891 Q31.5605 823.788 33.0246 826.461 L27.6137 826.461 Q26.3724 823.247 25.7677 820.223 Q25.1311 817.199 25.1311 814.335 Q25.1311 806.6 29.1415 802.781 Q33.1519 798.962 41.3 798.962 Z" fill="#000000" fill-rule="nonzero" fill-opacity="1" /><path clip-path="url(#clip220)" d="M15.869 781.106 L25.9905 781.106 L25.9905 769.043 L30.542 769.043 L30.542 781.106 L49.8937 781.106 Q54.2542 781.106 55.4955 779.928 Q56.7368 778.719 56.7368 775.058 L56.7368 769.043 L61.6384 769.043 L61.6384 775.058 Q61.6384 781.838 59.124 784.416 Q56.5777 786.994 49.8937 786.994 L30.542 786.994 L30.542 791.291 L25.9905 791.291 L25.9905 786.994 L15.869 786.994 L15.869 781.106 Z" fill="#000000" fill-rule="nonzero" fill-opacity="1" /><path clip-path="url(#clip220)" d="M25.9905 761.34 L25.9905 755.484 L61.6384 755.484 L61.6384 761.34 L25.9905 761.34 M12.1132 761.34 L12.1132 755.484 L19.5293 755.484 L19.5293 761.34 L12.1132 761.34 Z" fill="#000000" fill-rule="nonzero" fill-opacity="1" /><path clip-path="url(#clip220)" d="M30.0964 729.416 Q30.0964 734.127 33.7885 736.864 Q37.4488 739.601 43.8463 739.601 Q50.2438 739.601 53.9359 736.896 Q57.5962 734.159 57.5962 729.416 Q57.5962 724.737 53.9041 722 Q50.212 719.263 43.8463 719.263 Q37.5124 719.263 33.8203 722 Q30.0964 724.737 30.0964 729.416 M25.1311 729.416 Q25.1311 721.777 30.0964 717.417 Q35.0616 713.056 43.8463 713.056 Q52.5991 713.056 57.5962 717.417 Q62.5615 721.777 62.5615 729.416 Q62.5615 737.087 57.5962 741.447 Q52.5991 745.776 43.8463 745.776 Q35.0616 745.776 30.0964 741.447 Q25.1311 737.087 25.1311 729.416 Z" fill="#000000" fill-rule="nonzero" fill-opacity="1" /><path clip-path="url(#clip220)" d="M40.1224 673.716 L61.6384 673.716 L61.6384 679.573 L40.3133 679.573 Q35.2526 679.573 32.7381 681.546 Q30.2237 683.52 30.2237 687.466 Q30.2237 692.209 33.2474 694.946 Q36.2711 697.683 41.491 697.683 L61.6384 697.683 L61.6384 703.572 L25.9905 703.572 L25.9905 697.683 L31.5287 697.683 Q28.314 695.583 26.7225 692.75 Q25.1311 689.885 25.1311 686.161 Q25.1311 680.018 28.9505 676.867 Q32.7381 673.716 40.1224 673.716 Z" fill="#000000" fill-rule="nonzero" fill-opacity="1" /><path clip-path="url(#clip220)" d="M631.768 18.8205 L631.768 41.5461 L642.058 41.5461 Q647.77 41.5461 650.889 38.5889 Q654.008 35.6318 654.008 30.163 Q654.008 24.7348 650.889 21.7777 Q647.77 18.8205 642.058 18.8205 L631.768 18.8205 M623.586 12.096 L642.058 12.096 Q652.226 12.096 657.411 16.714 Q662.636 21.2916 662.636 30.163 Q662.636 39.1155 657.411 43.6931 Q652.226 48.2706 642.058 48.2706 L631.768 48.2706 L631.768 72.576 L623.586 72.576 L623.586 12.096 Z" fill="#000000" fill-rule="nonzero" fill-opacity="1" /><path clip-path="url(#clip220)" d="M687.914 32.4315 Q681.919 32.4315 678.435 37.1306 Q674.951 41.7891 674.951 49.9314 Q674.951 58.0738 678.394 62.7728 Q681.878 67.4314 687.914 67.4314 Q693.869 67.4314 697.353 62.7323 Q700.836 58.0333 700.836 49.9314 Q700.836 41.8701 697.353 37.1711 Q693.869 32.4315 687.914 32.4315 M687.914 26.1121 Q697.636 26.1121 703.186 32.4315 Q708.736 38.7509 708.736 49.9314 Q708.736 61.0714 703.186 67.4314 Q697.636 73.7508 687.914 73.7508 Q678.151 73.7508 672.602 67.4314 Q667.092 61.0714 667.092 49.9314 Q667.092 38.7509 672.602 32.4315 Q678.151 26.1121 687.914 26.1121 Z" fill="#000000" fill-rule="nonzero" fill-opacity="1" /><path clip-path="url(#clip220)" d="M728.302 65.7705 L728.302 89.8329 L720.807 89.8329 L720.807 27.2059 L728.302 27.2059 L728.302 34.0924 Q730.651 30.0415 734.216 28.0971 Q737.821 26.1121 742.804 26.1121 Q751.068 26.1121 756.212 32.6746 Q761.397 39.2371 761.397 49.9314 Q761.397 60.6258 756.212 67.1883 Q751.068 73.7508 742.804 73.7508 Q737.821 73.7508 734.216 71.8063 Q730.651 69.8214 728.302 65.7705 M753.66 49.9314 Q753.66 41.7081 750.257 37.0496 Q746.895 32.3505 740.981 32.3505 Q735.067 32.3505 731.664 37.0496 Q728.302 41.7081 728.302 49.9314 Q728.302 58.1548 731.664 62.8538 Q735.067 67.5124 740.981 67.5124 Q746.895 67.5124 750.257 62.8538 Q753.66 58.1548 753.66 49.9314 Z" fill="#000000" fill-rule="nonzero" fill-opacity="1" /><path clip-path="url(#clip220)" d="M772.983 54.671 L772.983 27.2059 L780.437 27.2059 L780.437 54.3874 Q780.437 60.8284 782.948 64.0691 Q785.46 67.2693 790.483 67.2693 Q796.519 67.2693 800.003 63.421 Q803.527 59.5726 803.527 52.9291 L803.527 27.2059 L810.98 27.2059 L810.98 72.576 L803.527 72.576 L803.527 65.6084 Q800.813 69.7404 797.207 71.7658 Q793.643 73.7508 788.903 73.7508 Q781.085 73.7508 777.034 68.8897 Q772.983 64.0286 772.983 54.671 M791.739 26.1121 L791.739 26.1121 Z" fill="#000000" fill-rule="nonzero" fill-opacity="1" /><path clip-path="url(#clip220)" d="M826.333 9.54393 L833.787 9.54393 L833.787 72.576 L826.333 72.576 L826.333 9.54393 Z" fill="#000000" fill-rule="nonzero" fill-opacity="1" /><path clip-path="url(#clip220)" d="M870.002 49.7694 Q860.969 49.7694 857.485 51.8354 Q854.001 53.9013 854.001 58.8839 Q854.001 62.8538 856.594 65.2034 Q859.227 67.5124 863.723 67.5124 Q869.921 67.5124 873.648 63.1374 Q877.415 58.7219 877.415 51.4303 L877.415 49.7694 L870.002 49.7694 M884.869 46.6907 L884.869 72.576 L877.415 72.576 L877.415 65.6895 Q874.863 69.8214 871.055 71.8063 Q867.248 73.7508 861.738 73.7508 Q854.771 73.7508 850.639 69.8619 Q846.547 65.9325 846.547 59.3701 Q846.547 51.7138 851.652 47.825 Q856.796 43.9361 866.964 43.9361 L877.415 43.9361 L877.415 43.2069 Q877.415 38.0623 874.013 35.2672 Q870.65 32.4315 864.533 32.4315 Q860.645 32.4315 856.958 33.3632 Q853.272 34.295 849.869 36.1584 L849.869 29.2718 Q853.961 27.692 857.809 26.9223 Q861.657 26.1121 865.303 26.1121 Q875.147 26.1121 880.008 31.2163 Q884.869 36.3204 884.869 46.6907 Z" fill="#000000" fill-rule="nonzero" fill-opacity="1" /><path clip-path="url(#clip220)" d="M907.595 14.324 L907.595 27.2059 L922.947 27.2059 L922.947 32.9987 L907.595 32.9987 L907.595 57.6282 Q907.595 63.1779 909.093 64.7578 Q910.633 66.3376 915.291 66.3376 L922.947 66.3376 L922.947 72.576 L915.291 72.576 Q906.663 72.576 903.382 69.3758 Q900.1 66.1351 900.1 57.6282 L900.1 32.9987 L894.632 32.9987 L894.632 27.2059 L900.1 27.2059 L900.1 14.324 L907.595 14.324 Z" fill="#000000" fill-rule="nonzero" fill-opacity="1" /><path clip-path="url(#clip220)" d="M932.751 27.2059 L940.204 27.2059 L940.204 72.576 L932.751 72.576 L932.751 27.2059 M932.751 9.54393 L940.204 9.54393 L940.204 18.9825 L932.751 18.9825 L932.751 9.54393 Z" fill="#000000" fill-rule="nonzero" fill-opacity="1" /><path clip-path="url(#clip220)" d="M973.381 32.4315 Q967.386 32.4315 963.902 37.1306 Q960.418 41.7891 960.418 49.9314 Q960.418 58.0738 963.862 62.7728 Q967.345 67.4314 973.381 67.4314 Q979.336 67.4314 982.82 62.7323 Q986.304 58.0333 986.304 49.9314 Q986.304 41.8701 982.82 37.1711 Q979.336 32.4315 973.381 32.4315 M973.381 26.1121 Q983.103 26.1121 988.653 32.4315 Q994.203 38.7509 994.203 49.9314 Q994.203 61.0714 988.653 67.4314 Q983.103 73.7508 973.381 73.7508 Q963.619 73.7508 958.069 67.4314 Q952.56 61.0714 952.56 49.9314 Q952.56 38.7509 958.069 32.4315 Q963.619 26.1121 973.381 26.1121 Z" fill="#000000" fill-rule="nonzero" fill-opacity="1" /><path clip-path="url(#clip220)" d="M1044.27 45.1919 L1044.27 72.576 L1036.82 72.576 L1036.82 45.4349 Q1036.82 38.994 1034.31 35.7938 Q1031.8 32.5936 1026.77 32.5936 Q1020.74 32.5936 1017.25 36.4419 Q1013.77 40.2903 1013.77 46.9338 L1013.77 72.576 L1006.27 72.576 L1006.27 27.2059 L1013.77 27.2059 L1013.77 34.2544 Q1016.44 30.163 1020.05 28.1376 Q1023.69 26.1121 1028.43 26.1121 Q1036.25 26.1121 1040.26 30.9732 Q1044.27 35.7938 1044.27 45.1919 Z" fill="#000000" fill-rule="nonzero" fill-opacity="1" /><path clip-path="url(#clip220)" d="M1092.72 65.7705 L1092.72 89.8329 L1085.23 89.8329 L1085.23 27.2059 L1092.72 27.2059 L1092.72 34.0924 Q1095.07 30.0415 1098.64 28.0971 Q1102.24 26.1121 1107.22 26.1121 Q1115.49 26.1121 1120.63 32.6746 Q1125.82 39.2371 1125.82 49.9314 Q1125.82 60.6258 1120.63 67.1883 Q1115.49 73.7508 1107.22 73.7508 Q1102.24 73.7508 1098.64 71.8063 Q1095.07 69.8214 1092.72 65.7705 M1118.08 49.9314 Q1118.08 41.7081 1114.68 37.0496 Q1111.31 32.3505 1105.4 32.3505 Q1099.49 32.3505 1096.08 37.0496 Q1092.72 41.7081 1092.72 49.9314 Q1092.72 58.1548 1096.08 62.8538 Q1099.49 67.5124 1105.4 67.5124 Q1111.31 67.5124 1114.68 62.8538 Q1118.08 58.1548 1118.08 49.9314 Z" fill="#000000" fill-rule="nonzero" fill-opacity="1" /><path clip-path="url(#clip220)" d="M1164.46 34.1734 Q1163.21 33.4443 1161.71 33.1202 Q1160.25 32.7556 1158.47 32.7556 Q1152.15 32.7556 1148.74 36.8875 Q1145.38 40.9789 1145.38 48.6757 L1145.38 72.576 L1137.89 72.576 L1137.89 27.2059 L1145.38 27.2059 L1145.38 34.2544 Q1147.73 30.1225 1151.5 28.1376 Q1155.27 26.1121 1160.65 26.1121 Q1161.42 26.1121 1162.36 26.2337 Q1163.29 26.3147 1164.42 26.5172 L1164.46 34.1734 Z" fill="#000000" fill-rule="nonzero" fill-opacity="1" /><path clip-path="url(#clip220)" d="M1188.04 32.4315 Q1182.04 32.4315 1178.56 37.1306 Q1175.08 41.7891 1175.08 49.9314 Q1175.08 58.0738 1178.52 62.7728 Q1182 67.4314 1188.04 67.4314 Q1193.99 67.4314 1197.48 62.7323 Q1200.96 58.0333 1200.96 49.9314 Q1200.96 41.8701 1197.48 37.1711 Q1193.99 32.4315 1188.04 32.4315 M1188.04 26.1121 Q1197.76 26.1121 1203.31 32.4315 Q1208.86 38.7509 1208.86 49.9314 Q1208.86 61.0714 1203.31 67.4314 Q1197.76 73.7508 1188.04 73.7508 Q1178.28 73.7508 1172.73 67.4314 Q1167.22 61.0714 1167.22 49.9314 Q1167.22 38.7509 1172.73 32.4315 Q1178.28 26.1121 1188.04 26.1121 Z" fill="#000000" fill-rule="nonzero" fill-opacity="1" /><path clip-path="url(#clip220)" d="M1221.22 27.2059 L1228.67 27.2059 L1228.67 73.3862 Q1228.67 82.0551 1225.35 85.944 Q1222.07 89.8329 1214.73 89.8329 L1211.9 89.8329 L1211.9 83.5134 L1213.88 83.5134 Q1218.14 83.5134 1219.68 81.5285 Q1221.22 79.5841 1221.22 73.3862 L1221.22 27.2059 M1221.22 9.54393 L1228.67 9.54393 L1228.67 18.9825 L1221.22 18.9825 L1221.22 9.54393 Z" fill="#000000" fill-rule="nonzero" fill-opacity="1" /><path clip-path="url(#clip220)" d="M1283.07 48.0275 L1283.07 51.6733 L1248.8 51.6733 Q1249.29 59.3701 1253.42 63.421 Q1257.59 67.4314 1265.01 67.4314 Q1269.3 67.4314 1273.31 66.3781 Q1277.36 65.3249 1281.33 63.2184 L1281.33 70.267 Q1277.32 71.9684 1273.11 72.8596 Q1268.89 73.7508 1264.56 73.7508 Q1253.7 73.7508 1247.34 67.4314 Q1241.02 61.1119 1241.02 50.3365 Q1241.02 39.1965 1247.02 32.6746 Q1253.06 26.1121 1263.26 26.1121 Q1272.42 26.1121 1277.73 32.0264 Q1283.07 37.9003 1283.07 48.0275 M1275.62 45.84 Q1275.54 39.7232 1272.18 36.0774 Q1268.85 32.4315 1263.34 32.4315 Q1257.11 32.4315 1253.34 35.9558 Q1249.61 39.4801 1249.05 45.8805 L1275.62 45.84 Z" fill="#000000" fill-rule="nonzero" fill-opacity="1" /><path clip-path="url(#clip220)" d="M1327.96 28.9478 L1327.96 35.9153 Q1324.8 34.1734 1321.6 33.3227 Q1318.44 32.4315 1315.2 32.4315 Q1307.95 32.4315 1303.94 37.0496 Q1299.92 41.6271 1299.92 49.9314 Q1299.92 58.2358 1303.94 62.8538 Q1307.95 67.4314 1315.2 67.4314 Q1318.44 67.4314 1321.6 66.5807 Q1324.8 65.6895 1327.96 63.9476 L1327.96 70.8341 Q1324.84 72.2924 1321.48 73.0216 Q1318.15 73.7508 1314.39 73.7508 Q1304.14 73.7508 1298.1 67.3098 Q1292.07 60.8689 1292.07 49.9314 Q1292.07 38.832 1298.14 32.472 Q1304.26 26.1121 1314.87 26.1121 Q1318.32 26.1121 1321.6 26.8413 Q1324.88 27.5299 1327.96 28.9478 Z" fill="#000000" fill-rule="nonzero" fill-opacity="1" /><path clip-path="url(#clip220)" d="M1348.29 14.324 L1348.29 27.2059 L1363.65 27.2059 L1363.65 32.9987 L1348.29 32.9987 L1348.29 57.6282 Q1348.29 63.1779 1349.79 64.7578 Q1351.33 66.3376 1355.99 66.3376 L1363.65 66.3376 L1363.65 72.576 L1355.99 72.576 Q1347.36 72.576 1344.08 69.3758 Q1340.8 66.1351 1340.8 57.6282 L1340.8 32.9987 L1335.33 32.9987 L1335.33 27.2059 L1340.8 27.2059 L1340.8 14.324 L1348.29 14.324 Z" fill="#000000" fill-rule="nonzero" fill-opacity="1" /><path clip-path="url(#clip220)" d="M1373.45 27.2059 L1380.9 27.2059 L1380.9 72.576 L1373.45 72.576 L1373.45 27.2059 M1373.45 9.54393 L1380.9 9.54393 L1380.9 18.9825 L1373.45 18.9825 L1373.45 9.54393 Z" fill="#000000" fill-rule="nonzero" fill-opacity="1" /><path clip-path="url(#clip220)" d="M1414.08 32.4315 Q1408.08 32.4315 1404.6 37.1306 Q1401.12 41.7891 1401.12 49.9314 Q1401.12 58.0738 1404.56 62.7728 Q1408.04 67.4314 1414.08 67.4314 Q1420.03 67.4314 1423.52 62.7323 Q1427 58.0333 1427 49.9314 Q1427 41.8701 1423.52 37.1711 Q1420.03 32.4315 1414.08 32.4315 M1414.08 26.1121 Q1423.8 26.1121 1429.35 32.4315 Q1434.9 38.7509 1434.9 49.9314 Q1434.9 61.0714 1429.35 67.4314 Q1423.8 73.7508 1414.08 73.7508 Q1404.32 73.7508 1398.77 67.4314 Q1393.26 61.0714 1393.26 49.9314 Q1393.26 38.7509 1398.77 32.4315 Q1404.32 26.1121 1414.08 26.1121 Z" fill="#000000" fill-rule="nonzero" fill-opacity="1" /><path clip-path="url(#clip220)" d="M1484.97 45.1919 L1484.97 72.576 L1477.52 72.576 L1477.52 45.4349 Q1477.52 38.994 1475 35.7938 Q1472.49 32.5936 1467.47 32.5936 Q1461.43 32.5936 1457.95 36.4419 Q1454.47 40.2903 1454.47 46.9338 L1454.47 72.576 L1446.97 72.576 L1446.97 27.2059 L1454.47 27.2059 L1454.47 34.2544 Q1457.14 30.163 1460.75 28.1376 Q1464.39 26.1121 1469.13 26.1121 Q1476.95 26.1121 1480.96 30.9732 Q1484.97 35.7938 1484.97 45.1919 Z" fill="#000000" fill-rule="nonzero" fill-opacity="1" /><path clip-path="url(#clip220)" d="M1522.44 46.9338 L1597.3 46.9338 L1597.3 52.7671 L1522.44 52.7671 L1522.44 46.9338 Z" fill="#000000" fill-rule="nonzero" fill-opacity="1" /><path clip-path="url(#clip220)" d="M1644.05 18.8205 L1644.05 65.8515 L1653.93 65.8515 Q1666.45 65.8515 1672.24 60.1802 Q1678.08 54.509 1678.08 42.2752 Q1678.08 30.1225 1672.24 24.4918 Q1666.45 18.8205 1653.93 18.8205 L1644.05 18.8205 M1635.87 12.096 L1652.68 12.096 Q1670.26 12.096 1678.48 19.4281 Q1686.7 26.7198 1686.7 42.2752 Q1686.7 57.9117 1678.44 65.2439 Q1670.18 72.576 1652.68 72.576 L1635.87 72.576 L1635.87 12.096 Z" fill="#000000" fill-rule="nonzero" fill-opacity="1" /><path clip-path="url(#clip220)" d="M1738.23 48.0275 L1738.23 51.6733 L1703.96 51.6733 Q1704.45 59.3701 1708.58 63.421 Q1712.75 67.4314 1720.17 67.4314 Q1724.46 67.4314 1728.47 66.3781 Q1732.52 65.3249 1736.49 63.2184 L1736.49 70.267 Q1732.48 71.9684 1728.27 72.8596 Q1724.05 73.7508 1719.72 73.7508 Q1708.86 73.7508 1702.5 67.4314 Q1696.18 61.1119 1696.18 50.3365 Q1696.18 39.1965 1702.18 32.6746 Q1708.22 26.1121 1718.42 26.1121 Q1727.58 26.1121 1732.89 32.0264 Q1738.23 37.9003 1738.23 48.0275 M1730.78 45.84 Q1730.7 39.7232 1727.34 36.0774 Q1724.01 32.4315 1718.5 32.4315 Q1712.27 32.4315 1708.5 35.9558 Q1704.77 39.4801 1704.2 45.8805 L1730.78 45.84 Z" fill="#000000" fill-rule="nonzero" fill-opacity="1" /><path clip-path="url(#clip220)" d="M1779.39 28.5427 L1779.39 35.5912 Q1776.23 33.9709 1772.83 33.1607 Q1769.42 32.3505 1765.78 32.3505 Q1760.23 32.3505 1757.43 34.0519 Q1754.68 35.7533 1754.68 39.156 Q1754.68 41.7486 1756.66 43.2475 Q1758.65 44.7058 1764.64 46.0426 L1767.2 46.6097 Q1775.14 48.3111 1778.46 51.4303 Q1781.82 54.509 1781.82 60.0587 Q1781.82 66.3781 1776.8 70.0644 Q1771.81 73.7508 1763.06 73.7508 Q1759.42 73.7508 1755.45 73.0216 Q1751.52 72.3329 1747.14 70.9151 L1747.14 63.2184 Q1751.28 65.3654 1755.29 66.4591 Q1759.3 67.5124 1763.23 67.5124 Q1768.49 67.5124 1771.33 65.73 Q1774.16 63.9071 1774.16 60.6258 Q1774.16 57.5877 1772.1 55.9673 Q1770.07 54.3469 1763.15 52.8481 L1760.55 52.2405 Q1753.63 50.7821 1750.55 47.7845 Q1747.47 44.7463 1747.47 39.4801 Q1747.47 33.0797 1752.01 29.5959 Q1756.54 26.1121 1764.89 26.1121 Q1769.02 26.1121 1772.67 26.7198 Q1776.31 27.3274 1779.39 28.5427 Z" fill="#000000" fill-rule="nonzero" fill-opacity="1" /><path clip-path="url(#clip220)" d="M1832.5 48.0275 L1832.5 51.6733 L1798.23 51.6733 Q1798.71 59.3701 1802.84 63.421 Q1807.02 67.4314 1814.43 67.4314 Q1818.72 67.4314 1822.73 66.3781 Q1826.79 65.3249 1830.76 63.2184 L1830.76 70.267 Q1826.74 71.9684 1822.53 72.8596 Q1818.32 73.7508 1813.98 73.7508 Q1803.13 73.7508 1796.77 67.4314 Q1790.45 61.1119 1790.45 50.3365 Q1790.45 39.1965 1796.44 32.6746 Q1802.48 26.1121 1812.69 26.1121 Q1821.84 26.1121 1827.15 32.0264 Q1832.5 37.9003 1832.5 48.0275 M1825.04 45.84 Q1824.96 39.7232 1821.6 36.0774 Q1818.28 32.4315 1812.77 32.4315 Q1806.53 32.4315 1802.76 35.9558 Q1799.04 39.4801 1798.47 45.8805 L1825.04 45.84 Z" fill="#000000" fill-rule="nonzero" fill-opacity="1" /><path clip-path="url(#clip220)" d="M1871.02 34.1734 Q1869.77 33.4443 1868.27 33.1202 Q1866.81 32.7556 1865.03 32.7556 Q1858.71 32.7556 1855.3 36.8875 Q1851.94 40.9789 1851.94 48.6757 L1851.94 72.576 L1844.45 72.576 L1844.45 27.2059 L1851.94 27.2059 L1851.94 34.2544 Q1854.29 30.1225 1858.06 28.1376 Q1861.83 26.1121 1867.21 26.1121 Q1867.98 26.1121 1868.91 26.2337 Q1869.85 26.3147 1870.98 26.5172 L1871.02 34.1734 Z" fill="#000000" fill-rule="nonzero" fill-opacity="1" /><path clip-path="url(#clip220)" d="M1886.21 14.324 L1886.21 27.2059 L1901.56 27.2059 L1901.56 32.9987 L1886.21 32.9987 L1886.21 57.6282 Q1886.21 63.1779 1887.71 64.7578 Q1889.25 66.3376 1893.91 66.3376 L1901.56 66.3376 L1901.56 72.576 L1893.91 72.576 Q1885.28 72.576 1882 69.3758 Q1878.72 66.1351 1878.72 57.6282 L1878.72 32.9987 L1873.25 32.9987 L1873.25 27.2059 L1878.72 27.2059 L1878.72 14.324 L1886.21 14.324 Z" fill="#000000" fill-rule="nonzero" fill-opacity="1" /><path clip-path="url(#clip220)" d="M1945.11 14.324 L1945.11 27.2059 L1960.47 27.2059 L1960.47 32.9987 L1945.11 32.9987 L1945.11 57.6282 Q1945.11 63.1779 1946.61 64.7578 Q1948.15 66.3376 1952.81 66.3376 L1960.47 66.3376 L1960.47 72.576 L1952.81 72.576 Q1944.18 72.576 1940.9 69.3758 Q1937.62 66.1351 1937.62 57.6282 L1937.62 32.9987 L1932.15 32.9987 L1932.15 27.2059 L1937.62 27.2059 L1937.62 14.324 L1945.11 14.324 Z" fill="#000000" fill-rule="nonzero" fill-opacity="1" /><path clip-path="url(#clip220)" d="M1987.85 32.4315 Q1981.85 32.4315 1978.37 37.1306 Q1974.89 41.7891 1974.89 49.9314 Q1974.89 58.0738 1978.33 62.7728 Q1981.81 67.4314 1987.85 67.4314 Q1993.8 67.4314 1997.29 62.7323 Q2000.77 58.0333 2000.77 49.9314 Q2000.77 41.8701 1997.29 37.1711 Q1993.8 32.4315 1987.85 32.4315 M1987.85 26.1121 Q1997.57 26.1121 2003.12 32.4315 Q2008.67 38.7509 2008.67 49.9314 Q2008.67 61.0714 2003.12 67.4314 Q1997.57 73.7508 1987.85 73.7508 Q1978.09 73.7508 1972.54 67.4314 Q1967.03 61.0714 1967.03 49.9314 Q1967.03 38.7509 1972.54 32.4315 Q1978.09 26.1121 1987.85 26.1121 Z" fill="#000000" fill-rule="nonzero" fill-opacity="1" /><path clip-path="url(#clip220)" d="M2047.32 34.1734 Q2046.06 33.4443 2044.56 33.1202 Q2043.1 32.7556 2041.32 32.7556 Q2035 32.7556 2031.6 36.8875 Q2028.24 40.9789 2028.24 48.6757 L2028.24 72.576 L2020.74 72.576 L2020.74 27.2059 L2028.24 27.2059 L2028.24 34.2544 Q2030.59 30.1225 2034.35 28.1376 Q2038.12 26.1121 2043.51 26.1121 Q2044.28 26.1121 2045.21 26.2337 Q2046.14 26.3147 2047.28 26.5172 L2047.32 34.1734 Z" fill="#000000" fill-rule="nonzero" fill-opacity="1" /><path clip-path="url(#clip220)" d="M2062.51 14.324 L2062.51 27.2059 L2077.86 27.2059 L2077.86 32.9987 L2062.51 32.9987 L2062.51 57.6282 Q2062.51 63.1779 2064.01 64.7578 Q2065.55 66.3376 2070.2 66.3376 L2077.86 66.3376 L2077.86 72.576 L2070.2 72.576 Q2061.58 72.576 2058.29 69.3758 Q2055.01 66.1351 2055.01 57.6282 L2055.01 32.9987 L2049.54 32.9987 L2049.54 27.2059 L2055.01 27.2059 L2055.01 14.324 L2062.51 14.324 Z" fill="#000000" fill-rule="nonzero" fill-opacity="1" /><path clip-path="url(#clip220)" d="M2105.24 32.4315 Q2099.25 32.4315 2095.77 37.1306 Q2092.28 41.7891 2092.28 49.9314 Q2092.28 58.0738 2095.72 62.7728 Q2099.21 67.4314 2105.24 67.4314 Q2111.2 67.4314 2114.68 62.7323 Q2118.17 58.0333 2118.17 49.9314 Q2118.17 41.8701 2114.68 37.1711 Q2111.2 32.4315 2105.24 32.4315 M2105.24 26.1121 Q2114.97 26.1121 2120.52 32.4315 Q2126.07 38.7509 2126.07 49.9314 Q2126.07 61.0714 2120.52 67.4314 Q2114.97 73.7508 2105.24 73.7508 Q2095.48 73.7508 2089.93 67.4314 Q2084.42 61.0714 2084.42 49.9314 Q2084.42 38.7509 2089.93 32.4315 Q2095.48 26.1121 2105.24 26.1121 Z" fill="#000000" fill-rule="nonzero" fill-opacity="1" /><path clip-path="url(#clip220)" d="M2138.42 27.2059 L2145.87 27.2059 L2145.87 72.576 L2138.42 72.576 L2138.42 27.2059 M2138.42 9.54393 L2145.87 9.54393 L2145.87 18.9825 L2138.42 18.9825 L2138.42 9.54393 Z" fill="#000000" fill-rule="nonzero" fill-opacity="1" /><path clip-path="url(#clip220)" d="M2190.39 28.5427 L2190.39 35.5912 Q2187.23 33.9709 2183.83 33.1607 Q2180.43 32.3505 2176.78 32.3505 Q2171.23 32.3505 2168.44 34.0519 Q2165.68 35.7533 2165.68 39.156 Q2165.68 41.7486 2167.67 43.2475 Q2169.65 44.7058 2175.65 46.0426 L2178.2 46.6097 Q2186.14 48.3111 2189.46 51.4303 Q2192.82 54.509 2192.82 60.0587 Q2192.82 66.3781 2187.8 70.0644 Q2182.82 73.7508 2174.07 73.7508 Q2170.42 73.7508 2166.45 73.0216 Q2162.52 72.3329 2158.15 70.9151 L2158.15 63.2184 Q2162.28 65.3654 2166.29 66.4591 Q2170.3 67.5124 2174.23 67.5124 Q2179.5 67.5124 2182.33 65.73 Q2185.17 63.9071 2185.17 60.6258 Q2185.17 57.5877 2183.1 55.9673 Q2181.08 54.3469 2174.15 52.8481 L2171.56 52.2405 Q2164.63 50.7821 2161.55 47.7845 Q2158.47 44.7463 2158.47 39.4801 Q2158.47 33.0797 2163.01 29.5959 Q2167.55 26.1121 2175.89 26.1121 Q2180.02 26.1121 2183.67 26.7198 Q2187.32 27.3274 2190.39 28.5427 Z" fill="#000000" fill-rule="nonzero" fill-opacity="1" /><path clip-path="url(#clip220)" d="M2243.5 48.0275 L2243.5 51.6733 L2209.23 51.6733 Q2209.72 59.3701 2213.85 63.421 Q2218.02 67.4314 2225.43 67.4314 Q2229.73 67.4314 2233.74 66.3781 Q2237.79 65.3249 2241.76 63.2184 L2241.76 70.267 Q2237.75 71.9684 2233.54 72.8596 Q2229.32 73.7508 2224.99 73.7508 Q2214.13 73.7508 2207.77 67.4314 Q2201.45 61.1119 2201.45 50.3365 Q2201.45 39.1965 2207.45 32.6746 Q2213.48 26.1121 2223.69 26.1121 Q2232.85 26.1121 2238.15 32.0264 Q2243.5 37.9003 2243.5 48.0275 M2236.05 45.84 Q2235.97 39.7232 2232.6 36.0774 Q2229.28 32.4315 2223.77 32.4315 Q2217.54 32.4315 2213.77 35.9558 Q2210.04 39.4801 2209.47 45.8805 L2236.05 45.84 Z" fill="#000000" fill-rule="nonzero" fill-opacity="1" /><polyline clip-path="url(#clip221)" style="stroke:#009af9; stroke-linecap:round; stroke-linejoin:round; stroke-width:8; stroke-opacity:1; fill:none" points="294.664,173.254 340.219,265.049 385.775,335.304 431.33,388.131 476.885,428.491 522.44,459.925 567.995,485.69 613.551,508.6 659.106,530.743 704.661,553.42 750.216,577.269 795.771,602.454 841.326,628.851 886.882,656.188 932.437,684.157 977.992,712.475 1023.55,740.916 1069.1,769.33 1114.66,797.632 1160.21,825.791 1205.77,853.812 1251.32,881.721 1296.88,909.553 1342.43,937.339 1387.99,965.108 1433.54,992.877 1479.1,1020.66 1524.65,1048.45 1570.21,1076.26 1615.76,1104.09 1661.32,1131.92 1706.87,1159.76 1752.43,1187.6 1797.99,1215.45 1843.54,1243.29 1889.1,1271.13 1934.65,1298.97 1980.21,1326.8 2025.76,1354.64 2071.32,1382.47 2116.87,1410.31 2162.43,1438.14 2207.98,1465.98 2253.54,1493.81 2299.09,1521.64 2344.65,1549.48 2390.2,1577.31 2435.76,1605.15 2481.31,1632.98 2526.87,1660.82 2572.42,1688.65 "/>
<path clip-path="url(#clip220)" d="M2236.52 285.016 L2560.28 285.016 L2560.28 181.336 L2236.52 181.336  Z" fill="#ffffff" fill-rule="evenodd" fill-opacity="1"/>
<polyline clip-path="url(#clip220)" style="stroke:#000000; stroke-linecap:round; stroke-linejoin:round; stroke-width:4; stroke-opacity:1; fill:none" points="2236.52,285.016 2560.28,285.016 2560.28,181.336 2236.52,181.336 2236.52,285.016 "/>
<polyline clip-path="url(#clip220)" style="stroke:#009af9; stroke-linecap:round; stroke-linejoin:round; stroke-width:8; stroke-opacity:1; fill:none" points="2263.35,233.176 2424.31,233.176 "/>
<path clip-path="url(#clip220)" d="M2451.13 215.896 L2457.43 215.896 L2472.75 244.808 L2472.75 215.896 L2477.29 215.896 L2477.29 250.456 L2470.99 250.456 L2455.67 221.544 L2455.67 250.456 L2451.13 250.456 L2451.13 215.896 Z" fill="#000000" fill-rule="nonzero" fill-opacity="1" /><path clip-path="url(#clip220)" d="M2496.64 214.484 Q2493.54 219.808 2492.04 225.017 Q2490.53 230.225 2490.53 235.572 Q2490.53 240.919 2492.04 246.174 Q2493.56 251.405 2496.64 256.706 L2492.94 256.706 Q2489.47 251.266 2487.73 246.012 Q2486.02 240.757 2486.02 235.572 Q2486.02 230.41 2487.73 225.179 Q2489.44 219.947 2492.94 214.484 L2496.64 214.484 Z" fill="#000000" fill-rule="nonzero" fill-opacity="1" /><path clip-path="url(#clip220)" d="M2509.12 217.169 L2509.12 224.531 L2517.89 224.531 L2517.89 227.841 L2509.12 227.841 L2509.12 241.915 Q2509.12 245.086 2509.98 245.989 Q2510.86 246.891 2513.52 246.891 L2517.89 246.891 L2517.89 250.456 L2513.52 250.456 Q2508.59 250.456 2506.71 248.628 Q2504.84 246.776 2504.84 241.915 L2504.84 227.841 L2501.71 227.841 L2501.71 224.531 L2504.84 224.531 L2504.84 217.169 L2509.12 217.169 Z" fill="#000000" fill-rule="nonzero" fill-opacity="1" /><path clip-path="url(#clip220)" d="M2522.82 214.484 L2526.53 214.484 Q2530 219.947 2531.71 225.179 Q2533.45 230.41 2533.45 235.572 Q2533.45 240.757 2531.71 246.012 Q2530 251.266 2526.53 256.706 L2522.82 256.706 Q2525.9 251.405 2527.41 246.174 Q2528.93 240.919 2528.93 235.572 Q2528.93 230.225 2527.41 225.017 Q2525.9 219.808 2522.82 214.484 Z" fill="#000000" fill-rule="nonzero" fill-opacity="1" /></svg>
