<?xml version="1.0" encoding="utf-8"?>
<svg xmlns="http://www.w3.org/2000/svg" xmlns:xlink="http://www.w3.org/1999/xlink" width="672" height="480" viewBox="0 0 2688 1920">
<defs>
  <clipPath id="clip190">
    <rect x="0" y="0" width="2688" height="1920"/>
  </clipPath>
</defs>
<path clip-path="url(#clip190)" d="M0 1920 L2688 1920 L2688 -4.26326e-14 L0 -4.26326e-14  Z" fill="#ffffff" fill-rule="evenodd" fill-opacity="1"/>
<defs>
  <clipPath id="clip191">
    <rect x="180" y="127" width="2461" height="1607"/>
  </clipPath>
</defs>
<path clip-path="url(#clip190)" d="M180.423 1734.12 L2640.76 1734.12 L2640.76 127.792 L180.423 127.792  Z" fill="#ffffff" fill-rule="evenodd" fill-opacity="1"/>
<polyline clip-path="url(#clip191)" style="stroke:#000000; stroke-linecap:round; stroke-linejoin:round; stroke-width:2; stroke-opacity:0.1; fill:none" points="498.22,1734.12 498.22,127.792 "/>
<polyline clip-path="url(#clip191)" style="stroke:#000000; stroke-linecap:round; stroke-linejoin:round; stroke-width:2; stroke-opacity:0.1; fill:none" points="954.405,1734.12 954.405,127.792 "/>
<polyline clip-path="url(#clip191)" style="stroke:#000000; stroke-linecap:round; stroke-linejoin:round; stroke-width:2; stroke-opacity:0.1; fill:none" points="1410.59,1734.12 1410.59,127.792 "/>
<polyline clip-path="url(#clip191)" style="stroke:#000000; stroke-linecap:round; stroke-linejoin:round; stroke-width:2; stroke-opacity:0.1; fill:none" points="1866.77,1734.12 1866.77,127.792 "/>
<polyline clip-path="url(#clip191)" style="stroke:#000000; stroke-linecap:round; stroke-linejoin:round; stroke-width:2; stroke-opacity:0.1; fill:none" points="2322.96,1734.12 2322.96,127.792 "/>
<polyline clip-path="url(#clip191)" style="stroke:#000000; stroke-linecap:round; stroke-linejoin:round; stroke-width:2; stroke-opacity:0.1; fill:none" points="180.423,1734.12 2640.76,1734.12 "/>
<polyline clip-path="url(#clip191)" style="stroke:#000000; stroke-linecap:round; stroke-linejoin:round; stroke-width:2; stroke-opacity:0.1; fill:none" points="180.423,1227.07 2640.76,1227.07 "/>
<polyline clip-path="url(#clip191)" style="stroke:#000000; stroke-linecap:round; stroke-linejoin:round; stroke-width:2; stroke-opacity:0.1; fill:none" points="180.423,720.032 2640.76,720.032 "/>
<polyline clip-path="url(#clip191)" style="stroke:#000000; stroke-linecap:round; stroke-linejoin:round; stroke-width:2; stroke-opacity:0.1; fill:none" points="180.423,212.989 2640.76,212.989 "/>
<polyline clip-path="url(#clip190)" style="stroke:#000000; stroke-linecap:round; stroke-linejoin:round; stroke-width:4; stroke-opacity:1; fill:none" points="180.423,1734.12 2640.76,1734.12 "/>
<polyline clip-path="url(#clip190)" style="stroke:#000000; stroke-linecap:round; stroke-linejoin:round; stroke-width:4; stroke-opacity:1; fill:none" points="498.22,1734.12 498.22,1715.22 "/>
<polyline clip-path="url(#clip190)" style="stroke:#000000; stroke-linecap:round; stroke-linejoin:round; stroke-width:4; stroke-opacity:1; fill:none" points="954.405,1734.12 954.405,1715.22 "/>
<polyline clip-path="url(#clip190)" style="stroke:#000000; stroke-linecap:round; stroke-linejoin:round; stroke-width:4; stroke-opacity:1; fill:none" points="1410.59,1734.12 1410.59,1715.22 "/>
<polyline clip-path="url(#clip190)" style="stroke:#000000; stroke-linecap:round; stroke-linejoin:round; stroke-width:4; stroke-opacity:1; fill:none" points="1866.77,1734.12 1866.77,1715.22 "/>
<polyline clip-path="url(#clip190)" style="stroke:#000000; stroke-linecap:round; stroke-linejoin:round; stroke-width:4; stroke-opacity:1; fill:none" points="2322.96,1734.12 2322.96,1715.22 "/>
<path clip-path="url(#clip190)" d="M406.901 1764.26 L411.924 1764.26 L421.507 1778.47 L431.021 1764.26 L436.044 1764.26 L423.822 1782.36 L423.822 1798.82 L419.123 1798.82 L419.123 1782.36 L406.901 1764.26 Z" fill="#000000" fill-rule="nonzero" fill-opacity="1" /><path clip-path="url(#clip190)" d="M456.299 1784.79 L456.299 1786.88 L436.716 1786.88 Q436.993 1791.27 439.354 1793.59 Q441.739 1795.88 445.975 1795.88 Q448.428 1795.88 450.72 1795.28 Q453.035 1794.68 455.303 1793.47 L455.303 1797.5 Q453.012 1798.47 450.604 1798.98 Q448.197 1799.49 445.72 1799.49 Q439.516 1799.49 435.882 1795.88 Q432.271 1792.27 432.271 1786.11 Q432.271 1779.75 435.697 1776.02 Q439.146 1772.27 444.979 1772.27 Q450.211 1772.27 453.243 1775.65 Q456.299 1779.01 456.299 1784.79 M452.04 1783.54 Q451.993 1780.05 450.072 1777.96 Q448.174 1775.88 445.026 1775.88 Q441.461 1775.88 439.308 1777.9 Q437.178 1779.91 436.854 1783.57 L452.04 1783.54 Z" fill="#000000" fill-rule="nonzero" fill-opacity="1" /><path clip-path="url(#clip190)" d="M475.072 1785.79 Q469.91 1785.79 467.919 1786.97 Q465.928 1788.15 465.928 1791 Q465.928 1793.27 467.41 1794.61 Q468.914 1795.93 471.484 1795.93 Q475.026 1795.93 477.155 1793.43 Q479.308 1790.9 479.308 1786.74 L479.308 1785.79 L475.072 1785.79 M483.567 1784.03 L483.567 1798.82 L479.308 1798.82 L479.308 1794.89 Q477.85 1797.25 475.674 1798.38 Q473.498 1799.49 470.35 1799.49 Q466.368 1799.49 464.007 1797.27 Q461.669 1795.02 461.669 1791.27 Q461.669 1786.9 464.586 1784.68 Q467.526 1782.46 473.336 1782.46 L479.308 1782.46 L479.308 1782.04 Q479.308 1779.1 477.363 1777.5 Q475.442 1775.88 471.947 1775.88 Q469.725 1775.88 467.618 1776.41 Q465.512 1776.95 463.567 1778.01 L463.567 1774.08 Q465.905 1773.17 468.104 1772.73 Q470.303 1772.27 472.387 1772.27 Q478.012 1772.27 480.789 1775.19 Q483.567 1778.1 483.567 1784.03 Z" fill="#000000" fill-rule="nonzero" fill-opacity="1" /><path clip-path="url(#clip190)" d="M507.363 1776.88 Q506.646 1776.46 505.789 1776.27 Q504.956 1776.07 503.937 1776.07 Q500.326 1776.07 498.382 1778.43 Q496.461 1780.77 496.461 1785.16 L496.461 1798.82 L492.178 1798.82 L492.178 1772.9 L496.461 1772.9 L496.461 1776.92 Q497.803 1774.56 499.956 1773.43 Q502.109 1772.27 505.187 1772.27 Q505.627 1772.27 506.16 1772.34 Q506.692 1772.39 507.34 1772.5 L507.363 1776.88 Z" fill="#000000" fill-rule="nonzero" fill-opacity="1" /><path clip-path="url(#clip190)" d="M511.831 1762.8 L516.09 1762.8 L516.09 1798.82 L511.831 1798.82 L511.831 1762.8 Z" fill="#000000" fill-rule="nonzero" fill-opacity="1" /><path clip-path="url(#clip190)" d="M525.002 1772.9 L529.261 1772.9 L529.261 1798.82 L525.002 1798.82 L525.002 1772.9 M525.002 1762.8 L529.261 1762.8 L529.261 1768.2 L525.002 1768.2 L525.002 1762.8 Z" fill="#000000" fill-rule="nonzero" fill-opacity="1" /><path clip-path="url(#clip190)" d="M559.724 1783.17 L559.724 1798.82 L555.465 1798.82 L555.465 1783.31 Q555.465 1779.63 554.03 1777.8 Q552.595 1775.97 549.724 1775.97 Q546.275 1775.97 544.284 1778.17 Q542.294 1780.37 542.294 1784.17 L542.294 1798.82 L538.011 1798.82 L538.011 1772.9 L542.294 1772.9 L542.294 1776.92 Q543.821 1774.59 545.882 1773.43 Q547.965 1772.27 550.673 1772.27 Q555.141 1772.27 557.432 1775.05 Q559.724 1777.8 559.724 1783.17 Z" fill="#000000" fill-rule="nonzero" fill-opacity="1" /><path clip-path="url(#clip190)" d="M585.28 1785.56 Q585.28 1780.93 583.358 1778.38 Q581.46 1775.83 578.011 1775.83 Q574.585 1775.83 572.664 1778.38 Q570.766 1780.93 570.766 1785.56 Q570.766 1790.16 572.664 1792.71 Q574.585 1795.26 578.011 1795.26 Q581.46 1795.26 583.358 1792.71 Q585.28 1790.16 585.28 1785.56 M589.539 1795.6 Q589.539 1802.22 586.599 1805.44 Q583.659 1808.68 577.594 1808.68 Q575.349 1808.68 573.358 1808.33 Q571.368 1808.01 569.493 1807.32 L569.493 1803.17 Q571.368 1804.19 573.196 1804.68 Q575.025 1805.16 576.923 1805.16 Q581.113 1805.16 583.196 1802.96 Q585.28 1800.79 585.28 1796.37 L585.28 1794.26 Q583.96 1796.55 581.9 1797.69 Q579.84 1798.82 576.969 1798.82 Q572.201 1798.82 569.284 1795.19 Q566.368 1791.55 566.368 1785.56 Q566.368 1779.54 569.284 1775.9 Q572.201 1772.27 576.969 1772.27 Q579.84 1772.27 581.9 1773.4 Q583.96 1774.54 585.28 1776.83 L585.28 1772.9 L589.539 1772.9 L589.539 1795.6 Z" fill="#000000" fill-rule="nonzero" fill-opacity="1" /><path clip-path="url(#clip190)" d="M869.914 1765.4 L869.914 1769.96 Q867.252 1768.68 864.891 1768.06 Q862.53 1767.43 860.331 1767.43 Q856.512 1767.43 854.428 1768.91 Q852.368 1770.4 852.368 1773.13 Q852.368 1775.42 853.734 1776.6 Q855.123 1777.76 858.965 1778.47 L861.789 1779.05 Q867.021 1780.05 869.498 1782.57 Q871.998 1785.07 871.998 1789.28 Q871.998 1794.31 868.618 1796.9 Q865.262 1799.49 858.757 1799.49 Q856.303 1799.49 853.526 1798.94 Q850.771 1798.38 847.808 1797.29 L847.808 1792.48 Q850.655 1794.08 853.387 1794.89 Q856.118 1795.7 858.757 1795.7 Q862.762 1795.7 864.938 1794.12 Q867.113 1792.55 867.113 1789.63 Q867.113 1787.08 865.539 1785.65 Q863.989 1784.21 860.424 1783.5 L857.577 1782.94 Q852.345 1781.9 850.007 1779.68 Q847.669 1777.46 847.669 1773.5 Q847.669 1768.91 850.887 1766.27 Q854.127 1763.64 859.799 1763.64 Q862.229 1763.64 864.752 1764.08 Q867.276 1764.52 869.914 1765.4 Z" fill="#000000" fill-rule="nonzero" fill-opacity="1" /><path clip-path="url(#clip190)" d="M899.289 1777.87 Q900.886 1775 903.109 1773.64 Q905.331 1772.27 908.34 1772.27 Q912.391 1772.27 914.59 1775.12 Q916.789 1777.94 916.789 1783.17 L916.789 1798.82 L912.507 1798.82 L912.507 1783.31 Q912.507 1779.58 911.187 1777.78 Q909.868 1775.97 907.16 1775.97 Q903.849 1775.97 901.928 1778.17 Q900.007 1780.37 900.007 1784.17 L900.007 1798.82 L895.724 1798.82 L895.724 1783.31 Q895.724 1779.56 894.405 1777.78 Q893.086 1775.97 890.331 1775.97 Q887.067 1775.97 885.146 1778.2 Q883.225 1780.4 883.225 1784.17 L883.225 1798.82 L878.942 1798.82 L878.942 1772.9 L883.225 1772.9 L883.225 1776.92 Q884.683 1774.54 886.72 1773.4 Q888.757 1772.27 891.558 1772.27 Q894.382 1772.27 896.349 1773.71 Q898.34 1775.14 899.289 1777.87 Z" fill="#000000" fill-rule="nonzero" fill-opacity="1" /><path clip-path="url(#clip190)" d="M937.067 1785.79 Q931.905 1785.79 929.914 1786.97 Q927.923 1788.15 927.923 1791 Q927.923 1793.27 929.405 1794.61 Q930.909 1795.93 933.479 1795.93 Q937.021 1795.93 939.15 1793.43 Q941.303 1790.9 941.303 1786.74 L941.303 1785.79 L937.067 1785.79 M945.562 1784.03 L945.562 1798.82 L941.303 1798.82 L941.303 1794.89 Q939.845 1797.25 937.669 1798.38 Q935.493 1799.49 932.345 1799.49 Q928.363 1799.49 926.002 1797.27 Q923.664 1795.02 923.664 1791.27 Q923.664 1786.9 926.581 1784.68 Q929.521 1782.46 935.331 1782.46 L941.303 1782.46 L941.303 1782.04 Q941.303 1779.1 939.358 1777.5 Q937.437 1775.88 933.942 1775.88 Q931.72 1775.88 929.613 1776.41 Q927.507 1776.95 925.562 1778.01 L925.562 1774.08 Q927.9 1773.17 930.099 1772.73 Q932.298 1772.27 934.382 1772.27 Q940.007 1772.27 942.784 1775.19 Q945.562 1778.1 945.562 1784.03 Z" fill="#000000" fill-rule="nonzero" fill-opacity="1" /><path clip-path="url(#clip190)" d="M954.335 1762.8 L958.594 1762.8 L958.594 1798.82 L954.335 1798.82 L954.335 1762.8 Z" fill="#000000" fill-rule="nonzero" fill-opacity="1" /><path clip-path="url(#clip190)" d="M967.506 1762.8 L971.766 1762.8 L971.766 1798.82 L967.506 1798.82 L967.506 1762.8 Z" fill="#000000" fill-rule="nonzero" fill-opacity="1" /><path clip-path="url(#clip190)" d="M995.747 1772.9 L1000.01 1772.9 L1000.01 1799.28 Q1000.01 1804.24 998.108 1806.46 Q996.233 1808.68 992.043 1808.68 L990.423 1808.68 L990.423 1805.07 L991.557 1805.07 Q993.988 1805.07 994.867 1803.94 Q995.747 1802.83 995.747 1799.28 L995.747 1772.9 M995.747 1762.8 L1000.01 1762.8 L1000.01 1768.2 L995.747 1768.2 L995.747 1762.8 Z" fill="#000000" fill-rule="nonzero" fill-opacity="1" /><path clip-path="url(#clip190)" d="M1008.48 1788.59 L1008.48 1772.9 L1012.74 1772.9 L1012.74 1788.43 Q1012.74 1792.11 1014.17 1793.96 Q1015.61 1795.79 1018.48 1795.79 Q1021.93 1795.79 1023.92 1793.59 Q1025.93 1791.39 1025.93 1787.59 L1025.93 1772.9 L1030.19 1772.9 L1030.19 1798.82 L1025.93 1798.82 L1025.93 1794.84 Q1024.38 1797.2 1022.32 1798.36 Q1020.28 1799.49 1017.58 1799.49 Q1013.11 1799.49 1010.79 1796.71 Q1008.48 1793.94 1008.48 1788.59 M1019.2 1772.27 L1019.2 1772.27 Z" fill="#000000" fill-rule="nonzero" fill-opacity="1" /><path clip-path="url(#clip190)" d="M1035.91 1772.9 L1040.42 1772.9 L1048.52 1794.65 L1056.63 1772.9 L1061.14 1772.9 L1051.42 1798.82 L1045.63 1798.82 L1035.91 1772.9 Z" fill="#000000" fill-rule="nonzero" fill-opacity="1" /><path clip-path="url(#clip190)" d="M1303.76 1764.26 L1308.44 1764.26 L1308.44 1794.89 L1325.27 1794.89 L1325.27 1798.82 L1303.76 1798.82 L1303.76 1764.26 Z" fill="#000000" fill-rule="nonzero" fill-opacity="1" /><path clip-path="url(#clip190)" d="M1341.77 1785.79 Q1336.61 1785.79 1334.62 1786.97 Q1332.63 1788.15 1332.63 1791 Q1332.63 1793.27 1334.11 1794.61 Q1335.61 1795.93 1338.18 1795.93 Q1341.72 1795.93 1343.85 1793.43 Q1346.01 1790.9 1346.01 1786.74 L1346.01 1785.79 L1341.77 1785.79 M1350.27 1784.03 L1350.27 1798.82 L1346.01 1798.82 L1346.01 1794.89 Q1344.55 1797.25 1342.37 1798.38 Q1340.2 1799.49 1337.05 1799.49 Q1333.07 1799.49 1330.71 1797.27 Q1328.37 1795.02 1328.37 1791.27 Q1328.37 1786.9 1331.28 1784.68 Q1334.22 1782.46 1340.03 1782.46 L1346.01 1782.46 L1346.01 1782.04 Q1346.01 1779.1 1344.06 1777.5 Q1342.14 1775.88 1338.65 1775.88 Q1336.42 1775.88 1334.32 1776.41 Q1332.21 1776.95 1330.27 1778.01 L1330.27 1774.08 Q1332.6 1773.17 1334.8 1772.73 Q1337 1772.27 1339.09 1772.27 Q1344.71 1772.27 1347.49 1775.19 Q1350.27 1778.1 1350.27 1784.03 Z" fill="#000000" fill-rule="nonzero" fill-opacity="1" /><path clip-path="url(#clip190)" d="M1374.06 1776.88 Q1373.34 1776.46 1372.49 1776.27 Q1371.65 1776.07 1370.64 1776.07 Q1367.02 1776.07 1365.08 1778.43 Q1363.16 1780.77 1363.16 1785.16 L1363.16 1798.82 L1358.88 1798.82 L1358.88 1772.9 L1363.16 1772.9 L1363.16 1776.92 Q1364.5 1774.56 1366.65 1773.43 Q1368.81 1772.27 1371.89 1772.27 Q1372.33 1772.27 1372.86 1772.34 Q1373.39 1772.39 1374.04 1772.5 L1374.06 1776.88 Z" fill="#000000" fill-rule="nonzero" fill-opacity="1" /><path clip-path="url(#clip190)" d="M1394.76 1785.56 Q1394.76 1780.93 1392.84 1778.38 Q1390.94 1775.83 1387.49 1775.83 Q1384.06 1775.83 1382.14 1778.38 Q1380.24 1780.93 1380.24 1785.56 Q1380.24 1790.16 1382.14 1792.71 Q1384.06 1795.26 1387.49 1795.26 Q1390.94 1795.26 1392.84 1792.71 Q1394.76 1790.16 1394.76 1785.56 M1399.02 1795.6 Q1399.02 1802.22 1396.08 1805.44 Q1393.14 1808.68 1387.07 1808.68 Q1384.83 1808.68 1382.84 1808.33 Q1380.84 1808.01 1378.97 1807.32 L1378.97 1803.17 Q1380.84 1804.19 1382.67 1804.68 Q1384.5 1805.16 1386.4 1805.16 Q1390.59 1805.16 1392.67 1802.96 Q1394.76 1800.79 1394.76 1796.37 L1394.76 1794.26 Q1393.44 1796.55 1391.38 1797.69 Q1389.32 1798.82 1386.45 1798.82 Q1381.68 1798.82 1378.76 1795.19 Q1375.84 1791.55 1375.84 1785.56 Q1375.84 1779.54 1378.76 1775.9 Q1381.68 1772.27 1386.45 1772.27 Q1389.32 1772.27 1391.38 1773.4 Q1393.44 1774.54 1394.76 1776.83 L1394.76 1772.9 L1399.02 1772.9 L1399.02 1795.6 Z" fill="#000000" fill-rule="nonzero" fill-opacity="1" /><path clip-path="url(#clip190)" d="M1429.96 1784.79 L1429.96 1786.88 L1410.38 1786.88 Q1410.66 1791.27 1413.02 1793.59 Q1415.4 1795.88 1419.64 1795.88 Q1422.09 1795.88 1424.39 1795.28 Q1426.7 1794.68 1428.97 1793.47 L1428.97 1797.5 Q1426.68 1798.47 1424.27 1798.98 Q1421.86 1799.49 1419.39 1799.49 Q1413.18 1799.49 1409.55 1795.88 Q1405.94 1792.27 1405.94 1786.11 Q1405.94 1779.75 1409.36 1776.02 Q1412.81 1772.27 1418.65 1772.27 Q1423.88 1772.27 1426.91 1775.65 Q1429.96 1779.01 1429.96 1784.79 M1425.71 1783.54 Q1425.66 1780.05 1423.74 1777.96 Q1421.84 1775.88 1418.69 1775.88 Q1415.13 1775.88 1412.97 1777.9 Q1410.84 1779.91 1410.52 1783.57 L1425.71 1783.54 Z" fill="#000000" fill-rule="nonzero" fill-opacity="1" /><path clip-path="url(#clip190)" d="M1452.02 1772.9 L1456.28 1772.9 L1456.28 1799.28 Q1456.28 1804.24 1454.39 1806.46 Q1452.51 1808.68 1448.32 1808.68 L1446.7 1808.68 L1446.7 1805.07 L1447.83 1805.07 Q1450.27 1805.07 1451.14 1803.94 Q1452.02 1802.83 1452.02 1799.28 L1452.02 1772.9 M1452.02 1762.8 L1456.28 1762.8 L1456.28 1768.2 L1452.02 1768.2 L1452.02 1762.8 Z" fill="#000000" fill-rule="nonzero" fill-opacity="1" /><path clip-path="url(#clip190)" d="M1464.76 1788.59 L1464.76 1772.9 L1469.02 1772.9 L1469.02 1788.43 Q1469.02 1792.11 1470.45 1793.96 Q1471.89 1795.79 1474.76 1795.79 Q1478.2 1795.79 1480.2 1793.59 Q1482.21 1791.39 1482.21 1787.59 L1482.21 1772.9 L1486.47 1772.9 L1486.47 1798.82 L1482.21 1798.82 L1482.21 1794.84 Q1480.66 1797.2 1478.6 1798.36 Q1476.56 1799.49 1473.85 1799.49 Q1469.39 1799.49 1467.07 1796.71 Q1464.76 1793.94 1464.76 1788.59 M1475.47 1772.27 L1475.47 1772.27 Z" fill="#000000" fill-rule="nonzero" fill-opacity="1" /><path clip-path="url(#clip190)" d="M1492.19 1772.9 L1496.7 1772.9 L1504.8 1794.65 L1512.9 1772.9 L1517.42 1772.9 L1507.7 1798.82 L1501.91 1798.82 L1492.19 1772.9 Z" fill="#000000" fill-rule="nonzero" fill-opacity="1" /><path clip-path="url(#clip190)" d="M1754.54 1764.26 L1759.22 1764.26 L1759.22 1798.82 L1754.54 1798.82 L1754.54 1764.26 Z" fill="#000000" fill-rule="nonzero" fill-opacity="1" /><path clip-path="url(#clip190)" d="M1788.52 1777.87 Q1790.12 1775 1792.34 1773.64 Q1794.56 1772.27 1797.57 1772.27 Q1801.62 1772.27 1803.82 1775.12 Q1806.02 1777.94 1806.02 1783.17 L1806.02 1798.82 L1801.74 1798.82 L1801.74 1783.31 Q1801.74 1779.58 1800.42 1777.78 Q1799.1 1775.97 1796.39 1775.97 Q1793.08 1775.97 1791.16 1778.17 Q1789.24 1780.37 1789.24 1784.17 L1789.24 1798.82 L1784.96 1798.82 L1784.96 1783.31 Q1784.96 1779.56 1783.64 1777.78 Q1782.32 1775.97 1779.56 1775.97 Q1776.3 1775.97 1774.38 1778.2 Q1772.46 1780.4 1772.46 1784.17 L1772.46 1798.82 L1768.18 1798.82 L1768.18 1772.9 L1772.46 1772.9 L1772.46 1776.92 Q1773.92 1774.54 1775.95 1773.4 Q1777.99 1772.27 1780.79 1772.27 Q1783.62 1772.27 1785.58 1773.71 Q1787.57 1775.14 1788.52 1777.87 Z" fill="#000000" fill-rule="nonzero" fill-opacity="1" /><path clip-path="url(#clip190)" d="M1834.7 1777.87 Q1836.3 1775 1838.52 1773.64 Q1840.74 1772.27 1843.75 1772.27 Q1847.8 1772.27 1850 1775.12 Q1852.2 1777.94 1852.2 1783.17 L1852.2 1798.82 L1847.92 1798.82 L1847.92 1783.31 Q1847.92 1779.58 1846.6 1777.78 Q1845.28 1775.97 1842.57 1775.97 Q1839.26 1775.97 1837.34 1778.17 Q1835.42 1780.37 1835.42 1784.17 L1835.42 1798.82 L1831.14 1798.82 L1831.14 1783.31 Q1831.14 1779.56 1829.82 1777.78 Q1828.5 1775.97 1825.74 1775.97 Q1822.48 1775.97 1820.56 1778.2 Q1818.64 1780.4 1818.64 1784.17 L1818.64 1798.82 L1814.36 1798.82 L1814.36 1772.9 L1818.64 1772.9 L1818.64 1776.92 Q1820.1 1774.54 1822.13 1773.4 Q1824.17 1772.27 1826.97 1772.27 Q1829.8 1772.27 1831.76 1773.71 Q1833.75 1775.14 1834.7 1777.87 Z" fill="#000000" fill-rule="nonzero" fill-opacity="1" /><path clip-path="url(#clip190)" d="M1872.48 1785.79 Q1867.32 1785.79 1865.33 1786.97 Q1863.34 1788.15 1863.34 1791 Q1863.34 1793.27 1864.82 1794.61 Q1866.32 1795.93 1868.89 1795.93 Q1872.43 1795.93 1874.56 1793.43 Q1876.72 1790.9 1876.72 1786.74 L1876.72 1785.79 L1872.48 1785.79 M1880.98 1784.03 L1880.98 1798.82 L1876.72 1798.82 L1876.72 1794.89 Q1875.26 1797.25 1873.08 1798.38 Q1870.91 1799.49 1867.76 1799.49 Q1863.78 1799.49 1861.42 1797.27 Q1859.08 1795.02 1859.08 1791.27 Q1859.08 1786.9 1861.99 1784.68 Q1864.93 1782.46 1870.74 1782.46 L1876.72 1782.46 L1876.72 1782.04 Q1876.72 1779.1 1874.77 1777.5 Q1872.85 1775.88 1869.36 1775.88 Q1867.13 1775.88 1865.03 1776.41 Q1862.92 1776.95 1860.98 1778.01 L1860.98 1774.08 Q1863.31 1773.17 1865.51 1772.73 Q1867.71 1772.27 1869.8 1772.27 Q1875.42 1772.27 1878.2 1775.19 Q1880.98 1778.1 1880.98 1784.03 Z" fill="#000000" fill-rule="nonzero" fill-opacity="1" /><path clip-path="url(#clip190)" d="M1893.96 1765.53 L1893.96 1772.9 L1902.73 1772.9 L1902.73 1776.21 L1893.96 1776.21 L1893.96 1790.28 Q1893.96 1793.45 1894.82 1794.35 Q1895.7 1795.26 1898.36 1795.26 L1902.73 1795.26 L1902.73 1798.82 L1898.36 1798.82 Q1893.43 1798.82 1891.55 1796.99 Q1889.68 1795.14 1889.68 1790.28 L1889.68 1776.21 L1886.55 1776.21 L1886.55 1772.9 L1889.68 1772.9 L1889.68 1765.53 L1893.96 1765.53 Z" fill="#000000" fill-rule="nonzero" fill-opacity="1" /><path clip-path="url(#clip190)" d="M1907.9 1788.59 L1907.9 1772.9 L1912.16 1772.9 L1912.16 1788.43 Q1912.16 1792.11 1913.59 1793.96 Q1915.03 1795.79 1917.9 1795.79 Q1921.35 1795.79 1923.34 1793.59 Q1925.35 1791.39 1925.35 1787.59 L1925.35 1772.9 L1929.61 1772.9 L1929.61 1798.82 L1925.35 1798.82 L1925.35 1794.84 Q1923.8 1797.2 1921.74 1798.36 Q1919.7 1799.49 1916.99 1799.49 Q1912.53 1799.49 1910.21 1796.71 Q1907.9 1793.94 1907.9 1788.59 M1918.61 1772.27 L1918.61 1772.27 Z" fill="#000000" fill-rule="nonzero" fill-opacity="1" /><path clip-path="url(#clip190)" d="M1953.41 1776.88 Q1952.69 1776.46 1951.83 1776.27 Q1951 1776.07 1949.98 1776.07 Q1946.37 1776.07 1944.42 1778.43 Q1942.5 1780.77 1942.5 1785.16 L1942.5 1798.82 L1938.22 1798.82 L1938.22 1772.9 L1942.5 1772.9 L1942.5 1776.92 Q1943.85 1774.56 1946 1773.43 Q1948.15 1772.27 1951.23 1772.27 Q1951.67 1772.27 1952.2 1772.34 Q1952.73 1772.39 1953.38 1772.5 L1953.41 1776.88 Z" fill="#000000" fill-rule="nonzero" fill-opacity="1" /><path clip-path="url(#clip190)" d="M1979.01 1784.79 L1979.01 1786.88 L1959.42 1786.88 Q1959.7 1791.27 1962.06 1793.59 Q1964.45 1795.88 1968.68 1795.88 Q1971.14 1795.88 1973.43 1795.28 Q1975.74 1794.68 1978.01 1793.47 L1978.01 1797.5 Q1975.72 1798.47 1973.31 1798.98 Q1970.91 1799.49 1968.43 1799.49 Q1962.23 1799.49 1958.59 1795.88 Q1954.98 1792.27 1954.98 1786.11 Q1954.98 1779.75 1958.41 1776.02 Q1961.85 1772.27 1967.69 1772.27 Q1972.92 1772.27 1975.95 1775.65 Q1979.01 1779.01 1979.01 1784.79 M1974.75 1783.54 Q1974.7 1780.05 1972.78 1777.96 Q1970.88 1775.88 1967.73 1775.88 Q1964.17 1775.88 1962.02 1777.9 Q1959.89 1779.91 1959.56 1783.57 L1974.75 1783.54 Z" fill="#000000" fill-rule="nonzero" fill-opacity="1" /><path clip-path="url(#clip190)" d="M2277.8 1768.87 L2271.45 1786.07 L2284.16 1786.07 L2277.8 1768.87 M2275.16 1764.26 L2280.46 1764.26 L2293.63 1798.82 L2288.77 1798.82 L2285.62 1789.96 L2270.04 1789.96 L2266.89 1798.82 L2261.96 1798.82 L2275.16 1764.26 Z" fill="#000000" fill-rule="nonzero" fill-opacity="1" /><path clip-path="url(#clip190)" d="M2314.72 1776.83 L2314.72 1762.8 L2318.98 1762.8 L2318.98 1798.82 L2314.72 1798.82 L2314.72 1794.93 Q2313.38 1797.25 2311.32 1798.38 Q2309.28 1799.49 2306.41 1799.49 Q2301.71 1799.49 2298.75 1795.74 Q2295.81 1791.99 2295.81 1785.88 Q2295.81 1779.77 2298.75 1776.02 Q2301.71 1772.27 2306.41 1772.27 Q2309.28 1772.27 2311.32 1773.4 Q2313.38 1774.52 2314.72 1776.83 M2300.2 1785.88 Q2300.2 1790.58 2302.13 1793.27 Q2304.07 1795.93 2307.45 1795.93 Q2310.83 1795.93 2312.77 1793.27 Q2314.72 1790.58 2314.72 1785.88 Q2314.72 1781.18 2312.77 1778.52 Q2310.83 1775.83 2307.45 1775.83 Q2304.07 1775.83 2302.13 1778.52 Q2300.2 1781.18 2300.2 1785.88 Z" fill="#000000" fill-rule="nonzero" fill-opacity="1" /><path clip-path="url(#clip190)" d="M2327.31 1788.59 L2327.31 1772.9 L2331.57 1772.9 L2331.57 1788.43 Q2331.57 1792.11 2333.01 1793.96 Q2334.44 1795.79 2337.31 1795.79 Q2340.76 1795.79 2342.75 1793.59 Q2344.76 1791.39 2344.76 1787.59 L2344.76 1772.9 L2349.02 1772.9 L2349.02 1798.82 L2344.76 1798.82 L2344.76 1794.84 Q2343.21 1797.2 2341.15 1798.36 Q2339.12 1799.49 2336.41 1799.49 Q2331.94 1799.49 2329.63 1796.71 Q2327.31 1793.94 2327.31 1788.59 M2338.03 1772.27 L2338.03 1772.27 Z" fill="#000000" fill-rule="nonzero" fill-opacity="1" /><path clip-path="url(#clip190)" d="M2357.8 1762.8 L2362.06 1762.8 L2362.06 1798.82 L2357.8 1798.82 L2357.8 1762.8 Z" fill="#000000" fill-rule="nonzero" fill-opacity="1" /><path clip-path="url(#clip190)" d="M2375.18 1765.53 L2375.18 1772.9 L2383.95 1772.9 L2383.95 1776.21 L2375.18 1776.21 L2375.18 1790.28 Q2375.18 1793.45 2376.04 1794.35 Q2376.92 1795.26 2379.58 1795.26 L2383.95 1795.26 L2383.95 1798.82 L2379.58 1798.82 Q2374.65 1798.82 2372.77 1796.99 Q2370.9 1795.14 2370.9 1790.28 L2370.9 1776.21 L2367.77 1776.21 L2367.77 1772.9 L2370.9 1772.9 L2370.9 1765.53 L2375.18 1765.53 Z" fill="#000000" fill-rule="nonzero" fill-opacity="1" /><path clip-path="url(#clip190)" d="M1350.88 1837.34 L1350.88 1843.61 Q1347.22 1841.86 1343.97 1841 Q1340.73 1840.14 1337.7 1840.14 Q1332.45 1840.14 1329.59 1842.18 Q1326.75 1844.22 1326.75 1847.97 Q1326.75 1851.12 1328.63 1852.75 Q1330.54 1854.34 1335.82 1855.32 L1339.71 1856.12 Q1346.9 1857.49 1350.31 1860.96 Q1353.74 1864.39 1353.74 1870.19 Q1353.74 1877.09 1349.1 1880.66 Q1344.48 1884.22 1335.54 1884.22 Q1332.16 1884.22 1328.34 1883.46 Q1324.56 1882.7 1320.48 1881.2 L1320.48 1874.58 Q1324.4 1876.78 1328.15 1877.89 Q1331.91 1879 1335.54 1879 Q1341.04 1879 1344.04 1876.84 Q1347.03 1874.68 1347.03 1870.67 Q1347.03 1867.16 1344.86 1865.19 Q1342.73 1863.22 1337.83 1862.23 L1333.91 1861.47 Q1326.72 1860.03 1323.51 1856.98 Q1320.29 1853.92 1320.29 1848.48 Q1320.29 1842.18 1324.72 1838.55 Q1329.17 1834.92 1336.97 1834.92 Q1340.31 1834.92 1343.78 1835.53 Q1347.25 1836.13 1350.88 1837.34 Z" fill="#000000" fill-rule="nonzero" fill-opacity="1" /><path clip-path="url(#clip190)" d="M1369.31 1837.53 L1369.31 1847.65 L1381.37 1847.65 L1381.37 1852.2 L1369.31 1852.2 L1369.31 1871.56 Q1369.31 1875.92 1370.49 1877.16 Q1371.7 1878.4 1375.36 1878.4 L1381.37 1878.4 L1381.37 1883.3 L1375.36 1883.3 Q1368.58 1883.3 1366 1880.79 Q1363.42 1878.24 1363.42 1871.56 L1363.42 1852.2 L1359.12 1852.2 L1359.12 1847.65 L1363.42 1847.65 L1363.42 1837.53 L1369.31 1837.53 Z" fill="#000000" fill-rule="nonzero" fill-opacity="1" /><path clip-path="url(#clip190)" d="M1405.27 1865.38 Q1398.18 1865.38 1395.44 1867 Q1392.7 1868.63 1392.7 1872.54 Q1392.7 1875.66 1394.74 1877.51 Q1396.81 1879.32 1400.34 1879.32 Q1405.21 1879.32 1408.14 1875.88 Q1411.1 1872.42 1411.1 1866.69 L1411.1 1865.38 L1405.27 1865.38 M1416.96 1862.96 L1416.96 1883.3 L1411.1 1883.3 L1411.1 1877.89 Q1409.09 1881.14 1406.1 1882.7 Q1403.11 1884.22 1398.78 1884.22 Q1393.31 1884.22 1390.06 1881.17 Q1386.85 1878.08 1386.85 1872.92 Q1386.85 1866.91 1390.86 1863.85 Q1394.9 1860.8 1402.89 1860.8 L1411.1 1860.8 L1411.1 1860.23 Q1411.1 1856.18 1408.43 1853.99 Q1405.78 1851.76 1400.98 1851.76 Q1397.92 1851.76 1395.03 1852.49 Q1392.13 1853.22 1389.46 1854.69 L1389.46 1849.28 Q1392.67 1848.03 1395.69 1847.43 Q1398.72 1846.79 1401.58 1846.79 Q1409.32 1846.79 1413.14 1850.8 Q1416.96 1854.81 1416.96 1862.96 Z" fill="#000000" fill-rule="nonzero" fill-opacity="1" /><path clip-path="url(#clip190)" d="M1452.48 1865.06 Q1452.48 1858.7 1449.83 1855.2 Q1447.22 1851.7 1442.48 1851.7 Q1437.77 1851.7 1435.13 1855.2 Q1432.52 1858.7 1432.52 1865.06 Q1432.52 1871.4 1435.13 1874.9 Q1437.77 1878.4 1442.48 1878.4 Q1447.22 1878.4 1449.83 1874.9 Q1452.48 1871.4 1452.48 1865.06 M1458.33 1878.88 Q1458.33 1887.98 1454.29 1892.4 Q1450.25 1896.86 1441.91 1896.86 Q1438.82 1896.86 1436.08 1896.38 Q1433.35 1895.94 1430.77 1894.98 L1430.77 1889.28 Q1433.35 1890.69 1435.86 1891.35 Q1438.38 1892.02 1440.99 1892.02 Q1446.75 1892.02 1449.61 1889 Q1452.48 1886.01 1452.48 1879.93 L1452.48 1877.03 Q1450.66 1880.18 1447.83 1881.74 Q1445 1883.3 1441.05 1883.3 Q1434.49 1883.3 1430.48 1878.3 Q1426.47 1873.31 1426.47 1865.06 Q1426.47 1856.79 1430.48 1851.79 Q1434.49 1846.79 1441.05 1846.79 Q1445 1846.79 1447.83 1848.35 Q1450.66 1849.91 1452.48 1853.06 L1452.48 1847.65 L1458.33 1847.65 L1458.33 1878.88 Z" fill="#000000" fill-rule="nonzero" fill-opacity="1" /><path clip-path="url(#clip190)" d="M1500.89 1864.01 L1500.89 1866.88 L1473.96 1866.88 Q1474.34 1872.92 1477.59 1876.11 Q1480.87 1879.26 1486.69 1879.26 Q1490.07 1879.26 1493.22 1878.43 Q1496.4 1877.6 1499.52 1875.95 L1499.52 1881.49 Q1496.37 1882.82 1493.06 1883.52 Q1489.75 1884.22 1486.34 1884.22 Q1477.81 1884.22 1472.81 1879.26 Q1467.85 1874.29 1467.85 1865.83 Q1467.85 1857.07 1472.56 1851.95 Q1477.3 1846.79 1485.32 1846.79 Q1492.52 1846.79 1496.69 1851.44 Q1500.89 1856.06 1500.89 1864.01 M1495.03 1862.29 Q1494.97 1857.49 1492.33 1854.62 Q1489.72 1851.76 1485.39 1851.76 Q1480.49 1851.76 1477.52 1854.53 Q1474.6 1857.3 1474.15 1862.33 L1495.03 1862.29 Z" fill="#000000" fill-rule="nonzero" fill-opacity="1" /><polyline clip-path="url(#clip190)" style="stroke:#000000; stroke-linecap:round; stroke-linejoin:round; stroke-width:4; stroke-opacity:1; fill:none" points="180.423,1734.12 180.423,127.792 "/>
<polyline clip-path="url(#clip190)" style="stroke:#000000; stroke-linecap:round; stroke-linejoin:round; stroke-width:4; stroke-opacity:1; fill:none" points="180.423,1734.12 199.321,1734.12 "/>
<polyline clip-path="url(#clip190)" style="stroke:#000000; stroke-linecap:round; stroke-linejoin:round; stroke-width:4; stroke-opacity:1; fill:none" points="180.423,1227.07 199.321,1227.07 "/>
<polyline clip-path="url(#clip190)" style="stroke:#000000; stroke-linecap:round; stroke-linejoin:round; stroke-width:4; stroke-opacity:1; fill:none" points="180.423,720.032 199.321,720.032 "/>
<polyline clip-path="url(#clip190)" style="stroke:#000000; stroke-linecap:round; stroke-linejoin:round; stroke-width:4; stroke-opacity:1; fill:none" points="180.423,212.989 199.321,212.989 "/>
<path clip-path="url(#clip190)" d="M128.159 1719.92 Q124.548 1719.92 122.719 1723.48 Q120.913 1727.02 120.913 1734.15 Q120.913 1741.26 122.719 1744.82 Q124.548 1748.36 128.159 1748.36 Q131.793 1748.36 133.599 1744.82 Q135.427 1741.26 135.427 1734.15 Q135.427 1727.02 133.599 1723.48 Q131.793 1719.92 128.159 1719.92 M128.159 1716.21 Q133.969 1716.21 137.025 1720.82 Q140.103 1725.4 140.103 1734.15 Q140.103 1742.88 137.025 1747.48 Q133.969 1752.07 128.159 1752.07 Q122.349 1752.07 119.27 1747.48 Q116.214 1742.88 116.214 1734.15 Q116.214 1725.4 119.27 1720.82 Q122.349 1716.21 128.159 1716.21 Z" fill="#000000" fill-rule="nonzero" fill-opacity="1" /><path clip-path="url(#clip190)" d="M120.196 1240.42 L127.835 1240.42 L127.835 1214.05 L119.525 1215.72 L119.525 1211.46 L127.788 1209.79 L132.464 1209.79 L132.464 1240.42 L140.103 1240.42 L140.103 1244.35 L120.196 1244.35 L120.196 1240.42 Z" fill="#000000" fill-rule="nonzero" fill-opacity="1" /><path clip-path="url(#clip190)" d="M123.784 733.377 L140.103 733.377 L140.103 737.312 L118.159 737.312 L118.159 733.377 Q120.821 730.622 125.404 725.992 Q130.011 721.34 131.191 719.997 Q133.437 717.474 134.316 715.738 Q135.219 713.979 135.219 712.289 Q135.219 709.534 133.275 707.798 Q131.353 706.062 128.251 706.062 Q126.052 706.062 123.599 706.826 Q121.168 707.59 118.39 709.141 L118.39 704.418 Q121.214 703.284 123.668 702.705 Q126.122 702.127 128.159 702.127 Q133.529 702.127 136.724 704.812 Q139.918 707.497 139.918 711.988 Q139.918 714.117 139.108 716.039 Q138.321 717.937 136.214 720.529 Q135.636 721.201 132.534 724.418 Q129.432 727.613 123.784 733.377 Z" fill="#000000" fill-rule="nonzero" fill-opacity="1" /><path clip-path="url(#clip190)" d="M132.974 211.635 Q136.33 212.353 138.205 214.621 Q140.103 216.89 140.103 220.223 Q140.103 225.339 136.585 228.14 Q133.066 230.94 126.585 230.94 Q124.409 230.94 122.094 230.501 Q119.802 230.084 117.349 229.227 L117.349 224.714 Q119.293 225.848 121.608 226.427 Q123.923 227.005 126.446 227.005 Q130.844 227.005 133.136 225.269 Q135.45 223.533 135.45 220.223 Q135.45 217.167 133.298 215.454 Q131.168 213.718 127.349 213.718 L123.321 213.718 L123.321 209.876 L127.534 209.876 Q130.983 209.876 132.812 208.51 Q134.64 207.121 134.64 204.529 Q134.64 201.867 132.742 200.455 Q130.867 199.019 127.349 199.019 Q125.427 199.019 123.228 199.436 Q121.029 199.853 118.39 200.732 L118.39 196.566 Q121.052 195.825 123.367 195.455 Q125.705 195.084 127.765 195.084 Q133.089 195.084 136.191 197.515 Q139.293 199.922 139.293 204.042 Q139.293 206.913 137.65 208.904 Q136.006 210.871 132.974 211.635 Z" fill="#000000" fill-rule="nonzero" fill-opacity="1" /><path clip-path="url(#clip190)" d="M39.3585 1217.86 Q40.0587 1215.79 42.3504 1213.85 Q44.642 1211.87 48.6524 1209.9 L61.6384 1203.37 L61.6384 1210.28 L49.4481 1216.36 Q44.6738 1218.72 43.1142 1220.94 Q41.5546 1223.14 41.5546 1226.96 L41.5546 1233.96 L61.6384 1233.96 L61.6384 1240.39 L14.1184 1240.39 L14.1184 1225.88 Q14.1184 1217.73 17.5241 1213.72 Q20.9297 1209.71 27.8047 1209.71 Q32.2925 1209.71 35.2526 1211.81 Q38.2126 1213.88 39.3585 1217.86 M19.402 1233.96 L36.2711 1233.96 L36.2711 1225.88 Q36.2711 1221.23 34.1386 1218.88 Q31.9743 1216.49 27.8047 1216.49 Q23.6352 1216.49 21.5345 1218.88 Q19.402 1221.23 19.402 1225.88 L19.402 1233.96 Z" fill="#000000" fill-rule="nonzero" fill-opacity="1" /><path clip-path="url(#clip190)" d="M42.3504 1167.79 L45.2149 1167.79 L45.2149 1194.72 Q51.2623 1194.34 54.4452 1191.09 Q57.5962 1187.81 57.5962 1181.99 Q57.5962 1178.61 56.7687 1175.46 Q55.9411 1172.28 54.2861 1169.16 L59.8242 1169.16 Q61.161 1172.31 61.8612 1175.62 Q62.5615 1178.93 62.5615 1182.34 Q62.5615 1190.87 57.5962 1195.86 Q52.631 1200.83 44.1646 1200.83 Q35.4117 1200.83 30.2873 1196.12 Q25.1311 1191.38 25.1311 1183.35 Q25.1311 1176.16 29.7781 1171.99 Q34.3932 1167.79 42.3504 1167.79 M40.6316 1173.65 Q35.8255 1173.71 32.9609 1176.35 Q30.0964 1178.96 30.0964 1183.29 Q30.0964 1188.19 32.8654 1191.15 Q35.6345 1194.08 40.6634 1194.53 L40.6316 1173.65 Z" fill="#000000" fill-rule="nonzero" fill-opacity="1" /><path clip-path="url(#clip190)" d="M56.2912 1152.51 L75.1974 1152.51 L75.1974 1158.4 L25.9905 1158.4 L25.9905 1152.51 L31.4013 1152.51 Q28.2185 1150.67 26.6907 1147.87 Q25.1311 1145.03 25.1311 1141.12 Q25.1311 1134.63 30.2873 1130.58 Q35.4436 1126.51 43.8463 1126.51 Q52.249 1126.51 57.4052 1130.58 Q62.5615 1134.63 62.5615 1141.12 Q62.5615 1145.03 61.0337 1147.87 Q59.4741 1150.67 56.2912 1152.51 M43.8463 1132.59 Q37.3851 1132.59 33.7248 1135.26 Q30.0327 1137.9 30.0327 1142.55 Q30.0327 1147.2 33.7248 1149.87 Q37.3851 1152.51 43.8463 1152.51 Q50.3075 1152.51 53.9996 1149.87 Q57.6599 1147.2 57.6599 1142.55 Q57.6599 1137.9 53.9996 1135.26 Q50.3075 1132.59 43.8463 1132.59 Z" fill="#000000" fill-rule="nonzero" fill-opacity="1" /><path clip-path="url(#clip190)" d="M31.465 1096.14 Q30.8921 1097.13 30.6375 1098.31 Q30.351 1099.45 30.351 1100.86 Q30.351 1105.82 33.5975 1108.49 Q36.8122 1111.14 42.8596 1111.14 L61.6384 1111.14 L61.6384 1117.02 L25.9905 1117.02 L25.9905 1111.14 L31.5287 1111.14 Q28.2821 1109.29 26.7225 1106.33 Q25.1311 1103.37 25.1311 1099.14 Q25.1311 1098.53 25.2266 1097.8 Q25.2903 1097.07 25.4494 1096.18 L31.465 1096.14 Z" fill="#000000" fill-rule="nonzero" fill-opacity="1" /><path clip-path="url(#clip190)" d="M30.0964 1077.62 Q30.0964 1082.33 33.7885 1085.07 Q37.4488 1087.81 43.8463 1087.81 Q50.2438 1087.81 53.9359 1085.1 Q57.5962 1082.36 57.5962 1077.62 Q57.5962 1072.94 53.9041 1070.2 Q50.212 1067.47 43.8463 1067.47 Q37.5124 1067.47 33.8203 1070.2 Q30.0964 1072.94 30.0964 1077.62 M25.1311 1077.62 Q25.1311 1069.98 30.0964 1065.62 Q35.0616 1061.26 43.8463 1061.26 Q52.5991 1061.26 57.5962 1065.62 Q62.5615 1069.98 62.5615 1077.62 Q62.5615 1085.29 57.5962 1089.65 Q52.5991 1093.98 43.8463 1093.98 Q35.0616 1093.98 30.0964 1089.65 Q25.1311 1085.29 25.1311 1077.62 Z" fill="#000000" fill-rule="nonzero" fill-opacity="1" /><path clip-path="url(#clip190)" d="M31.4013 1028.1 L12.1132 1028.1 L12.1132 1022.24 L61.6384 1022.24 L61.6384 1028.1 L56.2912 1028.1 Q59.4741 1029.94 61.0337 1032.77 Q62.5615 1035.57 62.5615 1039.52 Q62.5615 1045.98 57.4052 1050.06 Q52.249 1054.1 43.8463 1054.1 Q35.4436 1054.1 30.2873 1050.06 Q25.1311 1045.98 25.1311 1039.52 Q25.1311 1035.57 26.6907 1032.77 Q28.2185 1029.94 31.4013 1028.1 M43.8463 1048.05 Q50.3075 1048.05 53.9996 1045.41 Q57.6599 1042.74 57.6599 1038.09 Q57.6599 1033.44 53.9996 1030.77 Q50.3075 1028.1 43.8463 1028.1 Q37.3851 1028.1 33.7248 1030.77 Q30.0327 1033.44 30.0327 1038.09 Q30.0327 1042.74 33.7248 1045.41 Q37.3851 1048.05 43.8463 1048.05 Z" fill="#000000" fill-rule="nonzero" fill-opacity="1" /><path clip-path="url(#clip190)" d="M47.5702 1010.78 L25.9905 1010.78 L25.9905 1004.92 L47.3474 1004.92 Q52.4082 1004.92 54.9545 1002.95 Q57.4689 1000.98 57.4689 997.031 Q57.4689 992.288 54.4452 989.551 Q51.4215 986.782 46.2016 986.782 L25.9905 986.782 L25.9905 980.925 L61.6384 980.925 L61.6384 986.782 L56.1639 986.782 Q59.4104 988.914 61.0019 991.747 Q62.5615 994.548 62.5615 998.272 Q62.5615 1004.41 58.742 1007.6 Q54.9226 1010.78 47.5702 1010.78 M25.1311 996.044 L25.1311 996.044 Z" fill="#000000" fill-rule="nonzero" fill-opacity="1" /><path clip-path="url(#clip190)" d="M27.3591 943.209 L32.8336 943.209 Q31.465 945.691 30.7966 948.206 Q30.0964 950.688 30.0964 953.235 Q30.0964 958.932 33.7248 962.083 Q37.3214 965.234 43.8463 965.234 Q50.3711 965.234 53.9996 962.083 Q57.5962 958.932 57.5962 953.235 Q57.5962 950.688 56.9278 948.206 Q56.2276 945.691 54.859 943.209 L60.2698 943.209 Q61.4156 945.659 61.9886 948.301 Q62.5615 950.911 62.5615 953.871 Q62.5615 961.924 57.5007 966.666 Q52.44 971.409 43.8463 971.409 Q35.1253 971.409 30.1282 966.634 Q25.1311 961.828 25.1311 953.489 Q25.1311 950.784 25.704 948.206 Q26.2451 945.628 27.3591 943.209 Z" fill="#000000" fill-rule="nonzero" fill-opacity="1" /><path clip-path="url(#clip190)" d="M15.869 927.231 L25.9905 927.231 L25.9905 915.168 L30.542 915.168 L30.542 927.231 L49.8937 927.231 Q54.2542 927.231 55.4955 926.053 Q56.7368 924.843 56.7368 921.183 L56.7368 915.168 L61.6384 915.168 L61.6384 921.183 Q61.6384 927.963 59.124 930.541 Q56.5777 933.119 49.8937 933.119 L30.542 933.119 L30.542 937.416 L25.9905 937.416 L25.9905 933.119 L15.869 933.119 L15.869 927.231 Z" fill="#000000" fill-rule="nonzero" fill-opacity="1" /><path clip-path="url(#clip190)" d="M25.9905 907.465 L25.9905 901.609 L61.6384 901.609 L61.6384 907.465 L25.9905 907.465 M12.1132 907.465 L12.1132 901.609 L19.5293 901.609 L19.5293 907.465 L12.1132 907.465 Z" fill="#000000" fill-rule="nonzero" fill-opacity="1" /><path clip-path="url(#clip190)" d="M25.9905 893.556 L25.9905 887.349 L55.9093 876.209 L25.9905 865.069 L25.9905 858.863 L61.6384 872.231 L61.6384 880.188 L25.9905 893.556 Z" fill="#000000" fill-rule="nonzero" fill-opacity="1" /><path clip-path="url(#clip190)" d="M42.3504 820.287 L45.2149 820.287 L45.2149 847.214 Q51.2623 846.832 54.4452 843.585 Q57.5962 840.307 57.5962 834.482 Q57.5962 831.108 56.7687 827.957 Q55.9411 824.775 54.2861 821.655 L59.8242 821.655 Q61.161 824.806 61.8612 828.117 Q62.5615 831.427 62.5615 834.832 Q62.5615 843.362 57.5962 848.36 Q52.631 853.325 44.1646 853.325 Q35.4117 853.325 30.2873 848.614 Q25.1311 843.872 25.1311 835.851 Q25.1311 828.658 29.7781 824.488 Q34.3932 820.287 42.3504 820.287 M40.6316 826.143 Q35.8255 826.207 32.9609 828.849 Q30.0964 831.459 30.0964 835.787 Q30.0964 840.689 32.8654 843.649 Q35.6345 846.577 40.6634 847.023 L40.6316 826.143 Z" fill="#000000" fill-rule="nonzero" fill-opacity="1" /><path clip-path="url(#clip190)" d="M25.9905 794.156 L25.9905 787.949 L55.9093 776.809 L25.9905 765.669 L25.9905 759.462 L61.6384 772.83 L61.6384 780.788 L25.9905 794.156 Z" fill="#000000" fill-rule="nonzero" fill-opacity="1" /><path clip-path="url(#clip190)" d="M43.719 735.177 Q43.719 742.275 45.3422 745.012 Q46.9655 747.75 50.8804 747.75 Q53.9996 747.75 55.8457 745.712 Q57.6599 743.644 57.6599 740.111 Q57.6599 735.241 54.2224 732.313 Q50.7531 729.353 45.0239 729.353 L43.719 729.353 L43.719 735.177 M41.3 723.496 L61.6384 723.496 L61.6384 729.353 L56.2276 729.353 Q59.4741 731.358 61.0337 734.35 Q62.5615 737.342 62.5615 741.67 Q62.5615 747.145 59.5059 750.391 Q56.4186 753.606 51.2623 753.606 Q45.2467 753.606 42.1912 749.596 Q39.1357 745.553 39.1357 737.564 L39.1357 729.353 L38.5628 729.353 Q34.5205 729.353 32.3244 732.026 Q30.0964 734.668 30.0964 739.474 Q30.0964 742.53 30.8284 745.426 Q31.5605 748.322 33.0246 750.996 L27.6137 750.996 Q26.3724 747.781 25.7677 744.758 Q25.1311 741.734 25.1311 738.869 Q25.1311 731.135 29.1415 727.316 Q33.1519 723.496 41.3 723.496 Z" fill="#000000" fill-rule="nonzero" fill-opacity="1" /><path clip-path="url(#clip190)" d="M12.1132 711.433 L12.1132 705.577 L61.6384 705.577 L61.6384 711.433 L12.1132 711.433 Z" fill="#000000" fill-rule="nonzero" fill-opacity="1" /><path clip-path="url(#clip190)" d="M47.5702 693.927 L25.9905 693.927 L25.9905 688.071 L47.3474 688.071 Q52.4082 688.071 54.9545 686.098 Q57.4689 684.124 57.4689 680.178 Q57.4689 675.435 54.4452 672.698 Q51.4215 669.929 46.2016 669.929 L25.9905 669.929 L25.9905 664.072 L61.6384 664.072 L61.6384 669.929 L56.1639 669.929 Q59.4104 672.061 61.0019 674.894 Q62.5615 677.695 62.5615 681.419 Q62.5615 687.562 58.742 690.745 Q54.9226 693.927 47.5702 693.927 M25.1311 679.191 L25.1311 679.191 Z" fill="#000000" fill-rule="nonzero" fill-opacity="1" /><path clip-path="url(#clip190)" d="M42.3504 621.518 L45.2149 621.518 L45.2149 648.444 Q51.2623 648.063 54.4452 644.816 Q57.5962 641.538 57.5962 635.713 Q57.5962 632.339 56.7687 629.188 Q55.9411 626.005 54.2861 622.886 L59.8242 622.886 Q61.161 626.037 61.8612 629.347 Q62.5615 632.658 62.5615 636.063 Q62.5615 644.593 57.5962 649.59 Q52.631 654.556 44.1646 654.556 Q35.4117 654.556 30.2873 649.845 Q25.1311 645.102 25.1311 637.082 Q25.1311 629.888 29.7781 625.719 Q34.3932 621.518 42.3504 621.518 M40.6316 627.374 Q35.8255 627.438 32.9609 630.079 Q30.0964 632.689 30.0964 637.018 Q30.0964 641.92 32.8654 644.88 Q35.6345 647.808 40.6634 648.254 L40.6316 627.374 Z" fill="#000000" fill-rule="nonzero" fill-opacity="1" /><path clip-path="url(#clip190)" d="M667.492 44.2197 Q670.125 45.1109 672.596 48.0275 Q675.107 50.9442 677.619 56.0483 L685.923 72.576 L677.133 72.576 L669.396 57.061 Q666.398 50.9847 663.562 48.9997 Q660.767 47.0148 655.906 47.0148 L646.994 47.0148 L646.994 72.576 L638.811 72.576 L638.811 12.096 L657.283 12.096 Q667.654 12.096 672.758 16.4305 Q677.862 20.7649 677.862 29.5149 Q677.862 35.2267 675.188 38.994 Q672.555 42.7613 667.492 44.2197 M646.994 18.8205 L646.994 40.2903 L657.283 40.2903 Q663.198 40.2903 666.195 37.5762 Q669.234 34.8216 669.234 29.5149 Q669.234 24.2082 666.195 21.5346 Q663.198 18.8205 657.283 18.8205 L646.994 18.8205 Z" fill="#000000" fill-rule="nonzero" fill-opacity="1" /><path clip-path="url(#clip190)" d="M731.212 48.0275 L731.212 51.6733 L696.942 51.6733 Q697.428 59.3701 701.56 63.421 Q705.732 67.4314 713.145 67.4314 Q717.439 67.4314 721.45 66.3781 Q725.501 65.3249 729.471 63.2184 L729.471 70.267 Q725.46 71.9684 721.247 72.8596 Q717.034 73.7508 712.7 73.7508 Q701.843 73.7508 695.483 67.4314 Q689.164 61.1119 689.164 50.3365 Q689.164 39.1965 695.159 32.6746 Q701.195 26.1121 711.403 26.1121 Q720.559 26.1121 725.865 32.0264 Q731.212 37.9003 731.212 48.0275 M723.759 45.84 Q723.678 39.7232 720.315 36.0774 Q716.994 32.4315 711.485 32.4315 Q705.246 32.4315 701.479 35.9558 Q697.752 39.4801 697.185 45.8805 L723.759 45.84 Z" fill="#000000" fill-rule="nonzero" fill-opacity="1" /><path clip-path="url(#clip190)" d="M750.657 65.7705 L750.657 89.8329 L743.163 89.8329 L743.163 27.2059 L750.657 27.2059 L750.657 34.0924 Q753.006 30.0415 756.571 28.0971 Q760.176 26.1121 765.159 26.1121 Q773.423 26.1121 778.567 32.6746 Q783.753 39.2371 783.753 49.9314 Q783.753 60.6258 778.567 67.1883 Q773.423 73.7508 765.159 73.7508 Q760.176 73.7508 756.571 71.8063 Q753.006 69.8214 750.657 65.7705 M776.015 49.9314 Q776.015 41.7081 772.613 37.0496 Q769.25 32.3505 763.336 32.3505 Q757.422 32.3505 754.019 37.0496 Q750.657 41.7081 750.657 49.9314 Q750.657 58.1548 754.019 62.8538 Q757.422 67.5124 763.336 67.5124 Q769.25 67.5124 772.613 62.8538 Q776.015 58.1548 776.015 49.9314 Z" fill="#000000" fill-rule="nonzero" fill-opacity="1" /><path clip-path="url(#clip190)" d="M822.398 34.1734 Q821.142 33.4443 819.644 33.1202 Q818.185 32.7556 816.403 32.7556 Q810.084 32.7556 806.681 36.8875 Q803.319 40.9789 803.319 48.6757 L803.319 72.576 L795.824 72.576 L795.824 27.2059 L803.319 27.2059 L803.319 34.2544 Q805.668 30.1225 809.435 28.1376 Q813.203 26.1121 818.59 26.1121 Q819.36 26.1121 820.292 26.2337 Q821.223 26.3147 822.358 26.5172 L822.398 34.1734 Z" fill="#000000" fill-rule="nonzero" fill-opacity="1" /><path clip-path="url(#clip190)" d="M845.975 32.4315 Q839.979 32.4315 836.495 37.1306 Q833.012 41.7891 833.012 49.9314 Q833.012 58.0738 836.455 62.7728 Q839.939 67.4314 845.975 67.4314 Q851.929 67.4314 855.413 62.7323 Q858.897 58.0333 858.897 49.9314 Q858.897 41.8701 855.413 37.1711 Q851.929 32.4315 845.975 32.4315 M845.975 26.1121 Q855.697 26.1121 861.246 32.4315 Q866.796 38.7509 866.796 49.9314 Q866.796 61.0714 861.246 67.4314 Q855.697 73.7508 845.975 73.7508 Q836.212 73.7508 830.662 67.4314 Q825.153 61.0714 825.153 49.9314 Q825.153 38.7509 830.662 32.4315 Q836.212 26.1121 845.975 26.1121 Z" fill="#000000" fill-rule="nonzero" fill-opacity="1" /><path clip-path="url(#clip190)" d="M909.007 34.0924 L909.007 9.54393 L916.46 9.54393 L916.46 72.576 L909.007 72.576 L909.007 65.7705 Q906.657 69.8214 903.052 71.8063 Q899.487 73.7508 894.464 73.7508 Q886.241 73.7508 881.055 67.1883 Q875.911 60.6258 875.911 49.9314 Q875.911 39.2371 881.055 32.6746 Q886.241 26.1121 894.464 26.1121 Q899.487 26.1121 903.052 28.0971 Q906.657 30.0415 909.007 34.0924 M883.607 49.9314 Q883.607 58.1548 886.97 62.8538 Q890.372 67.5124 896.287 67.5124 Q902.201 67.5124 905.604 62.8538 Q909.007 58.1548 909.007 49.9314 Q909.007 41.7081 905.604 37.0496 Q902.201 32.3505 896.287 32.3505 Q890.372 32.3505 886.97 37.0496 Q883.607 41.7081 883.607 49.9314 Z" fill="#000000" fill-rule="nonzero" fill-opacity="1" /><path clip-path="url(#clip190)" d="M931.044 54.671 L931.044 27.2059 L938.497 27.2059 L938.497 54.3874 Q938.497 60.8284 941.009 64.0691 Q943.52 67.2693 948.543 67.2693 Q954.579 67.2693 958.063 63.421 Q961.587 59.5726 961.587 52.9291 L961.587 27.2059 L969.041 27.2059 L969.041 72.576 L961.587 72.576 L961.587 65.6084 Q958.873 69.7404 955.268 71.7658 Q951.703 73.7508 946.964 73.7508 Q939.145 73.7508 935.094 68.8897 Q931.044 64.0286 931.044 54.671 M949.799 26.1121 L949.799 26.1121 Z" fill="#000000" fill-rule="nonzero" fill-opacity="1" /><path clip-path="url(#clip190)" d="M1017.04 28.9478 L1017.04 35.9153 Q1013.88 34.1734 1010.68 33.3227 Q1007.52 32.4315 1004.28 32.4315 Q997.033 32.4315 993.022 37.0496 Q989.012 41.6271 989.012 49.9314 Q989.012 58.2358 993.022 62.8538 Q997.033 67.4314 1004.28 67.4314 Q1007.52 67.4314 1010.68 66.5807 Q1013.88 65.6895 1017.04 63.9476 L1017.04 70.8341 Q1013.93 72.2924 1010.56 73.0216 Q1007.24 73.7508 1003.47 73.7508 Q993.225 73.7508 987.189 67.3098 Q981.153 60.8689 981.153 49.9314 Q981.153 38.832 987.23 32.472 Q993.346 26.1121 1003.96 26.1121 Q1007.4 26.1121 1010.68 26.8413 Q1013.97 27.5299 1017.04 28.9478 Z" fill="#000000" fill-rule="nonzero" fill-opacity="1" /><path clip-path="url(#clip190)" d="M1037.38 14.324 L1037.38 27.2059 L1052.73 27.2059 L1052.73 32.9987 L1037.38 32.9987 L1037.38 57.6282 Q1037.38 63.1779 1038.88 64.7578 Q1040.42 66.3376 1045.08 66.3376 L1052.73 66.3376 L1052.73 72.576 L1045.08 72.576 Q1036.45 72.576 1033.17 69.3758 Q1029.89 66.1351 1029.89 57.6282 L1029.89 32.9987 L1024.42 32.9987 L1024.42 27.2059 L1029.89 27.2059 L1029.89 14.324 L1037.38 14.324 Z" fill="#000000" fill-rule="nonzero" fill-opacity="1" /><path clip-path="url(#clip190)" d="M1062.54 27.2059 L1069.99 27.2059 L1069.99 72.576 L1062.54 72.576 L1062.54 27.2059 M1062.54 9.54393 L1069.99 9.54393 L1069.99 18.9825 L1062.54 18.9825 L1062.54 9.54393 Z" fill="#000000" fill-rule="nonzero" fill-opacity="1" /><path clip-path="url(#clip190)" d="M1080.24 27.2059 L1088.14 27.2059 L1102.32 65.2844 L1116.49 27.2059 L1124.39 27.2059 L1107.38 72.576 L1097.25 72.576 L1080.24 27.2059 Z" fill="#000000" fill-rule="nonzero" fill-opacity="1" /><path clip-path="url(#clip190)" d="M1173.49 48.0275 L1173.49 51.6733 L1139.22 51.6733 Q1139.71 59.3701 1143.84 63.421 Q1148.01 67.4314 1155.42 67.4314 Q1159.72 67.4314 1163.73 66.3781 Q1167.78 65.3249 1171.75 63.2184 L1171.75 70.267 Q1167.74 71.9684 1163.52 72.8596 Q1159.31 73.7508 1154.98 73.7508 Q1144.12 73.7508 1137.76 67.4314 Q1131.44 61.1119 1131.44 50.3365 Q1131.44 39.1965 1137.44 32.6746 Q1143.47 26.1121 1153.68 26.1121 Q1162.84 26.1121 1168.14 32.0264 Q1173.49 37.9003 1173.49 48.0275 M1166.04 45.84 Q1165.96 39.7232 1162.59 36.0774 Q1159.27 32.4315 1153.76 32.4315 Q1147.52 32.4315 1143.76 35.9558 Q1140.03 39.4801 1139.46 45.8805 L1166.04 45.84 Z" fill="#000000" fill-rule="nonzero" fill-opacity="1" /><path clip-path="url(#clip190)" d="M1206.75 27.2059 L1214.65 27.2059 L1228.83 65.2844 L1243 27.2059 L1250.9 27.2059 L1233.89 72.576 L1223.76 72.576 L1206.75 27.2059 Z" fill="#000000" fill-rule="nonzero" fill-opacity="1" /><path clip-path="url(#clip190)" d="M1281.81 49.7694 Q1272.78 49.7694 1269.29 51.8354 Q1265.81 53.9013 1265.81 58.8839 Q1265.81 62.8538 1268.4 65.2034 Q1271.04 67.5124 1275.53 67.5124 Q1281.73 67.5124 1285.46 63.1374 Q1289.22 58.7219 1289.22 51.4303 L1289.22 49.7694 L1281.81 49.7694 M1296.68 46.6907 L1296.68 72.576 L1289.22 72.576 L1289.22 65.6895 Q1286.67 69.8214 1282.86 71.8063 Q1279.06 73.7508 1273.55 73.7508 Q1266.58 73.7508 1262.45 69.8619 Q1258.36 65.9325 1258.36 59.3701 Q1258.36 51.7138 1263.46 47.825 Q1268.61 43.9361 1278.77 43.9361 L1289.22 43.9361 L1289.22 43.2069 Q1289.22 38.0623 1285.82 35.2672 Q1282.46 32.4315 1276.34 32.4315 Q1272.45 32.4315 1268.77 33.3632 Q1265.08 34.295 1261.68 36.1584 L1261.68 29.2718 Q1265.77 27.692 1269.62 26.9223 Q1273.47 26.1121 1277.11 26.1121 Q1286.96 26.1121 1291.82 31.2163 Q1296.68 36.3204 1296.68 46.6907 Z" fill="#000000" fill-rule="nonzero" fill-opacity="1" /><path clip-path="url(#clip190)" d="M1312.03 9.54393 L1319.48 9.54393 L1319.48 72.576 L1312.03 72.576 L1312.03 9.54393 Z" fill="#000000" fill-rule="nonzero" fill-opacity="1" /><path clip-path="url(#clip190)" d="M1334.31 54.671 L1334.31 27.2059 L1341.76 27.2059 L1341.76 54.3874 Q1341.76 60.8284 1344.28 64.0691 Q1346.79 67.2693 1351.81 67.2693 Q1357.85 67.2693 1361.33 63.421 Q1364.85 59.5726 1364.85 52.9291 L1364.85 27.2059 L1372.31 27.2059 L1372.31 72.576 L1364.85 72.576 L1364.85 65.6084 Q1362.14 69.7404 1358.54 71.7658 Q1354.97 73.7508 1350.23 73.7508 Q1342.41 73.7508 1338.36 68.8897 Q1334.31 64.0286 1334.31 54.671 M1353.07 26.1121 L1353.07 26.1121 Z" fill="#000000" fill-rule="nonzero" fill-opacity="1" /><path clip-path="url(#clip190)" d="M1426.47 48.0275 L1426.47 51.6733 L1392.2 51.6733 Q1392.68 59.3701 1396.82 63.421 Q1400.99 67.4314 1408.4 67.4314 Q1412.7 67.4314 1416.71 66.3781 Q1420.76 65.3249 1424.73 63.2184 L1424.73 70.267 Q1420.72 71.9684 1416.5 72.8596 Q1412.29 73.7508 1407.96 73.7508 Q1397.1 73.7508 1390.74 67.4314 Q1384.42 61.1119 1384.42 50.3365 Q1384.42 39.1965 1390.42 32.6746 Q1396.45 26.1121 1406.66 26.1121 Q1415.82 26.1121 1421.12 32.0264 Q1426.47 37.9003 1426.47 48.0275 M1419.02 45.84 Q1418.93 39.7232 1415.57 36.0774 Q1412.25 32.4315 1406.74 32.4315 Q1400.5 32.4315 1396.74 35.9558 Q1393.01 39.4801 1392.44 45.8805 L1419.02 45.84 Z" fill="#000000" fill-rule="nonzero" fill-opacity="1" /><path clip-path="url(#clip190)" d="M1461.31 46.9338 L1536.17 46.9338 L1536.17 52.7671 L1461.31 52.7671 L1461.31 46.9338 Z" fill="#000000" fill-rule="nonzero" fill-opacity="1" /><path clip-path="url(#clip190)" d="M1582.92 18.8205 L1582.92 65.8515 L1592.8 65.8515 Q1605.32 65.8515 1611.11 60.1802 Q1616.94 54.509 1616.94 42.2752 Q1616.94 30.1225 1611.11 24.4918 Q1605.32 18.8205 1592.8 18.8205 L1582.92 18.8205 M1574.73 12.096 L1591.54 12.096 Q1609.12 12.096 1617.35 19.4281 Q1625.57 26.7198 1625.57 42.2752 Q1625.57 57.9117 1617.31 65.2439 Q1609.04 72.576 1591.54 72.576 L1574.73 72.576 L1574.73 12.096 Z" fill="#000000" fill-rule="nonzero" fill-opacity="1" /><path clip-path="url(#clip190)" d="M1677.1 48.0275 L1677.1 51.6733 L1642.83 51.6733 Q1643.31 59.3701 1647.45 63.421 Q1651.62 67.4314 1659.03 67.4314 Q1663.33 67.4314 1667.34 66.3781 Q1671.39 65.3249 1675.36 63.2184 L1675.36 70.267 Q1671.35 71.9684 1667.13 72.8596 Q1662.92 73.7508 1658.59 73.7508 Q1647.73 73.7508 1641.37 67.4314 Q1635.05 61.1119 1635.05 50.3365 Q1635.05 39.1965 1641.05 32.6746 Q1647.08 26.1121 1657.29 26.1121 Q1666.44 26.1121 1671.75 32.0264 Q1677.1 37.9003 1677.1 48.0275 M1669.64 45.84 Q1669.56 39.7232 1666.2 36.0774 Q1662.88 32.4315 1657.37 32.4315 Q1651.13 32.4315 1647.36 35.9558 Q1643.64 39.4801 1643.07 45.8805 L1669.64 45.84 Z" fill="#000000" fill-rule="nonzero" fill-opacity="1" /><path clip-path="url(#clip190)" d="M1718.26 28.5427 L1718.26 35.5912 Q1715.1 33.9709 1711.69 33.1607 Q1708.29 32.3505 1704.64 32.3505 Q1699.09 32.3505 1696.3 34.0519 Q1693.55 35.7533 1693.55 39.156 Q1693.55 41.7486 1695.53 43.2475 Q1697.52 44.7058 1703.51 46.0426 L1706.06 46.6097 Q1714 48.3111 1717.32 51.4303 Q1720.69 54.509 1720.69 60.0587 Q1720.69 66.3781 1715.66 70.0644 Q1710.68 73.7508 1701.93 73.7508 Q1698.28 73.7508 1694.31 73.0216 Q1690.39 72.3329 1686.01 70.9151 L1686.01 63.2184 Q1690.14 65.3654 1694.15 66.4591 Q1698.16 67.5124 1702.09 67.5124 Q1707.36 67.5124 1710.19 65.73 Q1713.03 63.9071 1713.03 60.6258 Q1713.03 57.5877 1710.96 55.9673 Q1708.94 54.3469 1702.01 52.8481 L1699.42 52.2405 Q1692.49 50.7821 1689.41 47.7845 Q1686.33 44.7463 1686.33 39.4801 Q1686.33 33.0797 1690.87 29.5959 Q1695.41 26.1121 1703.75 26.1121 Q1707.89 26.1121 1711.53 26.7198 Q1715.18 27.3274 1718.26 28.5427 Z" fill="#000000" fill-rule="nonzero" fill-opacity="1" /><path clip-path="url(#clip190)" d="M1771.36 48.0275 L1771.36 51.6733 L1737.09 51.6733 Q1737.58 59.3701 1741.71 63.421 Q1745.88 67.4314 1753.3 67.4314 Q1757.59 67.4314 1761.6 66.3781 Q1765.65 65.3249 1769.62 63.2184 L1769.62 70.267 Q1765.61 71.9684 1761.4 72.8596 Q1757.18 73.7508 1752.85 73.7508 Q1741.99 73.7508 1735.63 67.4314 Q1729.31 61.1119 1729.31 50.3365 Q1729.31 39.1965 1735.31 32.6746 Q1741.35 26.1121 1751.55 26.1121 Q1760.71 26.1121 1766.02 32.0264 Q1771.36 37.9003 1771.36 48.0275 M1763.91 45.84 Q1763.83 39.7232 1760.47 36.0774 Q1757.14 32.4315 1751.64 32.4315 Q1745.4 32.4315 1741.63 35.9558 Q1737.9 39.4801 1737.34 45.8805 L1763.91 45.84 Z" fill="#000000" fill-rule="nonzero" fill-opacity="1" /><path clip-path="url(#clip190)" d="M1809.89 34.1734 Q1808.63 33.4443 1807.13 33.1202 Q1805.67 32.7556 1803.89 32.7556 Q1797.57 32.7556 1794.17 36.8875 Q1790.81 40.9789 1790.81 48.6757 L1790.81 72.576 L1783.31 72.576 L1783.31 27.2059 L1790.81 27.2059 L1790.81 34.2544 Q1793.16 30.1225 1796.92 28.1376 Q1800.69 26.1121 1806.08 26.1121 Q1806.85 26.1121 1807.78 26.2337 Q1808.71 26.3147 1809.85 26.5172 L1809.89 34.1734 Z" fill="#000000" fill-rule="nonzero" fill-opacity="1" /><path clip-path="url(#clip190)" d="M1825.08 14.324 L1825.08 27.2059 L1840.43 27.2059 L1840.43 32.9987 L1825.08 32.9987 L1825.08 57.6282 Q1825.08 63.1779 1826.58 64.7578 Q1828.12 66.3376 1832.77 66.3376 L1840.43 66.3376 L1840.43 72.576 L1832.77 72.576 Q1824.15 72.576 1820.87 69.3758 Q1817.58 66.1351 1817.58 57.6282 L1817.58 32.9987 L1812.12 32.9987 L1812.12 27.2059 L1817.58 27.2059 L1817.58 14.324 L1825.08 14.324 Z" fill="#000000" fill-rule="nonzero" fill-opacity="1" /><path clip-path="url(#clip190)" d="M1883.98 14.324 L1883.98 27.2059 L1899.33 27.2059 L1899.33 32.9987 L1883.98 32.9987 L1883.98 57.6282 Q1883.98 63.1779 1885.48 64.7578 Q1887.02 66.3376 1891.67 66.3376 L1899.33 66.3376 L1899.33 72.576 L1891.67 72.576 Q1883.05 72.576 1879.77 69.3758 Q1876.48 66.1351 1876.48 57.6282 L1876.48 32.9987 L1871.02 32.9987 L1871.02 27.2059 L1876.48 27.2059 L1876.48 14.324 L1883.98 14.324 Z" fill="#000000" fill-rule="nonzero" fill-opacity="1" /><path clip-path="url(#clip190)" d="M1926.72 32.4315 Q1920.72 32.4315 1917.24 37.1306 Q1913.75 41.7891 1913.75 49.9314 Q1913.75 58.0738 1917.2 62.7728 Q1920.68 67.4314 1926.72 67.4314 Q1932.67 67.4314 1936.15 62.7323 Q1939.64 58.0333 1939.64 49.9314 Q1939.64 41.8701 1936.15 37.1711 Q1932.67 32.4315 1926.72 32.4315 M1926.72 26.1121 Q1936.44 26.1121 1941.99 32.4315 Q1947.54 38.7509 1947.54 49.9314 Q1947.54 61.0714 1941.99 67.4314 Q1936.44 73.7508 1926.72 73.7508 Q1916.95 73.7508 1911.4 67.4314 Q1905.89 61.0714 1905.89 49.9314 Q1905.89 38.7509 1911.4 32.4315 Q1916.95 26.1121 1926.72 26.1121 Z" fill="#000000" fill-rule="nonzero" fill-opacity="1" /><path clip-path="url(#clip190)" d="M1986.18 34.1734 Q1984.93 33.4443 1983.43 33.1202 Q1981.97 32.7556 1980.19 32.7556 Q1973.87 32.7556 1970.47 36.8875 Q1967.1 40.9789 1967.1 48.6757 L1967.1 72.576 L1959.61 72.576 L1959.61 27.2059 L1967.1 27.2059 L1967.1 34.2544 Q1969.45 30.1225 1973.22 28.1376 Q1976.99 26.1121 1982.37 26.1121 Q1983.14 26.1121 1984.08 26.2337 Q1985.01 26.3147 1986.14 26.5172 L1986.18 34.1734 Z" fill="#000000" fill-rule="nonzero" fill-opacity="1" /><path clip-path="url(#clip190)" d="M2001.37 14.324 L2001.37 27.2059 L2016.73 27.2059 L2016.73 32.9987 L2001.37 32.9987 L2001.37 57.6282 Q2001.37 63.1779 2002.87 64.7578 Q2004.41 66.3376 2009.07 66.3376 L2016.73 66.3376 L2016.73 72.576 L2009.07 72.576 Q2000.44 72.576 1997.16 69.3758 Q1993.88 66.1351 1993.88 57.6282 L1993.88 32.9987 L1988.41 32.9987 L1988.41 27.2059 L1993.88 27.2059 L1993.88 14.324 L2001.37 14.324 Z" fill="#000000" fill-rule="nonzero" fill-opacity="1" /><path clip-path="url(#clip190)" d="M2044.11 32.4315 Q2038.12 32.4315 2034.63 37.1306 Q2031.15 41.7891 2031.15 49.9314 Q2031.15 58.0738 2034.59 62.7728 Q2038.07 67.4314 2044.11 67.4314 Q2050.07 67.4314 2053.55 62.7323 Q2057.03 58.0333 2057.03 49.9314 Q2057.03 41.8701 2053.55 37.1711 Q2050.07 32.4315 2044.11 32.4315 M2044.11 26.1121 Q2053.83 26.1121 2059.38 32.4315 Q2064.93 38.7509 2064.93 49.9314 Q2064.93 61.0714 2059.38 67.4314 Q2053.83 73.7508 2044.11 73.7508 Q2034.35 73.7508 2028.8 67.4314 Q2023.29 61.0714 2023.29 49.9314 Q2023.29 38.7509 2028.8 32.4315 Q2034.35 26.1121 2044.11 26.1121 Z" fill="#000000" fill-rule="nonzero" fill-opacity="1" /><path clip-path="url(#clip190)" d="M2077.29 27.2059 L2084.74 27.2059 L2084.74 72.576 L2077.29 72.576 L2077.29 27.2059 M2077.29 9.54393 L2084.74 9.54393 L2084.74 18.9825 L2077.29 18.9825 L2077.29 9.54393 Z" fill="#000000" fill-rule="nonzero" fill-opacity="1" /><path clip-path="url(#clip190)" d="M2129.26 28.5427 L2129.26 35.5912 Q2126.1 33.9709 2122.7 33.1607 Q2119.3 32.3505 2115.65 32.3505 Q2110.1 32.3505 2107.3 34.0519 Q2104.55 35.7533 2104.55 39.156 Q2104.55 41.7486 2106.53 43.2475 Q2108.52 44.7058 2114.52 46.0426 L2117.07 46.6097 Q2125.01 48.3111 2128.33 51.4303 Q2131.69 54.509 2131.69 60.0587 Q2131.69 66.3781 2126.67 70.0644 Q2121.69 73.7508 2112.94 73.7508 Q2109.29 73.7508 2105.32 73.0216 Q2101.39 72.3329 2097.02 70.9151 L2097.02 63.2184 Q2101.15 65.3654 2105.16 66.4591 Q2109.17 67.5124 2113.1 67.5124 Q2118.36 67.5124 2121.2 65.73 Q2124.03 63.9071 2124.03 60.6258 Q2124.03 57.5877 2121.97 55.9673 Q2119.94 54.3469 2113.02 52.8481 L2110.42 52.2405 Q2103.5 50.7821 2100.42 47.7845 Q2097.34 44.7463 2097.34 39.4801 Q2097.34 33.0797 2101.88 29.5959 Q2106.41 26.1121 2114.76 26.1121 Q2118.89 26.1121 2122.54 26.7198 Q2126.18 27.3274 2129.26 28.5427 Z" fill="#000000" fill-rule="nonzero" fill-opacity="1" /><path clip-path="url(#clip190)" d="M2182.37 48.0275 L2182.37 51.6733 L2148.1 51.6733 Q2148.58 59.3701 2152.72 63.421 Q2156.89 67.4314 2164.3 67.4314 Q2168.59 67.4314 2172.61 66.3781 Q2176.66 65.3249 2180.63 63.2184 L2180.63 70.267 Q2176.62 71.9684 2172.4 72.8596 Q2168.19 73.7508 2163.86 73.7508 Q2153 73.7508 2146.64 67.4314 Q2140.32 61.1119 2140.32 50.3365 Q2140.32 39.1965 2146.31 32.6746 Q2152.35 26.1121 2162.56 26.1121 Q2171.71 26.1121 2177.02 32.0264 Q2182.37 37.9003 2182.37 48.0275 M2174.91 45.84 Q2174.83 39.7232 2171.47 36.0774 Q2168.15 32.4315 2162.64 32.4315 Q2156.4 32.4315 2152.63 35.9558 Q2148.91 39.4801 2148.34 45.8805 L2174.91 45.84 Z" fill="#000000" fill-rule="nonzero" fill-opacity="1" /><path clip-path="url(#clip191)" d="M315.746 1589.56 L315.746 1734.12 L680.694 1734.12 L680.694 1589.56 L315.746 1589.56 L315.746 1589.56  Z" fill="#cd5c5c" fill-rule="evenodd" fill-opacity="0.7"/>
<polyline clip-path="url(#clip191)" style="stroke:#000000; stroke-linecap:round; stroke-linejoin:round; stroke-width:4; stroke-opacity:0.7; fill:none" points="315.746,1589.56 315.746,1734.12 680.694,1734.12 680.694,1589.56 315.746,1589.56 "/>
<path clip-path="url(#clip191)" d="M771.931 1545.55 L771.931 1734.12 L1136.88 1734.12 L1136.88 1545.55 L771.931 1545.55 L771.931 1545.55  Z" fill="#cd5c5c" fill-rule="evenodd" fill-opacity="0.7"/>
<polyline clip-path="url(#clip191)" style="stroke:#000000; stroke-linecap:round; stroke-linejoin:round; stroke-width:4; stroke-opacity:0.7; fill:none" points="771.931,1545.55 771.931,1734.12 1136.88,1734.12 1136.88,1545.55 771.931,1545.55 "/>
<path clip-path="url(#clip191)" d="M1228.12 1269.67 L1228.12 1734.12 L1593.06 1734.12 L1593.06 1269.67 L1228.12 1269.67 L1228.12 1269.67  Z" fill="#cd5c5c" fill-rule="evenodd" fill-opacity="0.7"/>
<polyline clip-path="url(#clip191)" style="stroke:#000000; stroke-linecap:round; stroke-linejoin:round; stroke-width:4; stroke-opacity:0.7; fill:none" points="1228.12,1269.67 1228.12,1734.12 1593.06,1734.12 1593.06,1269.67 1228.12,1269.67 "/>
<path clip-path="url(#clip191)" d="M1684.3 590.183 L1684.3 1734.12 L2049.25 1734.12 L2049.25 590.183 L1684.3 590.183 L1684.3 590.183  Z" fill="#cd5c5c" fill-rule="evenodd" fill-opacity="0.7"/>
<polyline clip-path="url(#clip191)" style="stroke:#000000; stroke-linecap:round; stroke-linejoin:round; stroke-width:4; stroke-opacity:0.7; fill:none" points="1684.3,590.183 1684.3,1734.12 2049.25,1734.12 2049.25,590.183 1684.3,590.183 "/>
<path clip-path="url(#clip191)" d="M2140.49 127.792 L2140.49 1734.12 L2505.43 1734.12 L2505.43 127.792 L2140.49 127.792 L2140.49 127.792  Z" fill="#cd5c5c" fill-rule="evenodd" fill-opacity="0.7"/>
<polyline clip-path="url(#clip191)" style="stroke:#000000; stroke-linecap:round; stroke-linejoin:round; stroke-width:4; stroke-opacity:0.7; fill:none" points="2140.49,127.792 2140.49,1734.12 2505.43,1734.12 2505.43,127.792 2140.49,127.792 "/>
<circle clip-path="url(#clip191)" style="fill:#cd5c5c; stroke:none; fill-opacity:0" cx="498.22" cy="1589.56" r="2"/>
<circle clip-path="url(#clip191)" style="fill:#cd5c5c; stroke:none; fill-opacity:0" cx="954.405" cy="1545.55" r="2"/>
<circle clip-path="url(#clip191)" style="fill:#cd5c5c; stroke:none; fill-opacity:0" cx="1410.59" cy="1269.67" r="2"/>
<circle clip-path="url(#clip191)" style="fill:#cd5c5c; stroke:none; fill-opacity:0" cx="1866.77" cy="590.183" r="2"/>
<circle clip-path="url(#clip191)" style="fill:#cd5c5c; stroke:none; fill-opacity:0" cx="2322.96" cy="127.792" r="2"/>
</svg>
