<?xml version="1.0" encoding="utf-8"?>
<svg xmlns="http://www.w3.org/2000/svg" xmlns:xlink="http://www.w3.org/1999/xlink" width="672" height="480" viewBox="0 0 2688 1920">
<defs>
  <clipPath id="clip250">
    <rect x="0" y="0" width="2688" height="1920"/>
  </clipPath>
</defs>
<path clip-path="url(#clip250)" d="M0 1920 L2688 1920 L2688 -4.26326e-14 L0 -4.26326e-14  Z" fill="#ffffff" fill-rule="evenodd" fill-opacity="1"/>
<defs>
  <clipPath id="clip251">
    <rect x="256" y="127" width="2385" height="1607"/>
  </clipPath>
</defs>
<path clip-path="url(#clip250)" d="M256.302 1734.12 L2640.76 1734.12 L2640.76 127.792 L256.302 127.792  Z" fill="#ffffff" fill-rule="evenodd" fill-opacity="1"/>
<polyline clip-path="url(#clip251)" style="stroke:#000000; stroke-linecap:round; stroke-linejoin:round; stroke-width:2; stroke-opacity:0.1; fill:none" points="277.879,1734.12 277.879,127.792 "/>
<polyline clip-path="url(#clip251)" style="stroke:#000000; stroke-linecap:round; stroke-linejoin:round; stroke-width:2; stroke-opacity:0.1; fill:none" points="736.958,1734.12 736.958,127.792 "/>
<polyline clip-path="url(#clip251)" style="stroke:#000000; stroke-linecap:round; stroke-linejoin:round; stroke-width:2; stroke-opacity:0.1; fill:none" points="1196.04,1734.12 1196.04,127.792 "/>
<polyline clip-path="url(#clip251)" style="stroke:#000000; stroke-linecap:round; stroke-linejoin:round; stroke-width:2; stroke-opacity:0.1; fill:none" points="1655.11,1734.12 1655.11,127.792 "/>
<polyline clip-path="url(#clip251)" style="stroke:#000000; stroke-linecap:round; stroke-linejoin:round; stroke-width:2; stroke-opacity:0.1; fill:none" points="2114.19,1734.12 2114.19,127.792 "/>
<polyline clip-path="url(#clip251)" style="stroke:#000000; stroke-linecap:round; stroke-linejoin:round; stroke-width:2; stroke-opacity:0.1; fill:none" points="2573.27,1734.12 2573.27,127.792 "/>
<polyline clip-path="url(#clip251)" style="stroke:#000000; stroke-linecap:round; stroke-linejoin:round; stroke-width:2; stroke-opacity:0.1; fill:none" points="256.302,1569.99 2640.76,1569.99 "/>
<polyline clip-path="url(#clip251)" style="stroke:#000000; stroke-linecap:round; stroke-linejoin:round; stroke-width:2; stroke-opacity:0.1; fill:none" points="256.302,1264.41 2640.76,1264.41 "/>
<polyline clip-path="url(#clip251)" style="stroke:#000000; stroke-linecap:round; stroke-linejoin:round; stroke-width:2; stroke-opacity:0.1; fill:none" points="256.302,958.831 2640.76,958.831 "/>
<polyline clip-path="url(#clip251)" style="stroke:#000000; stroke-linecap:round; stroke-linejoin:round; stroke-width:2; stroke-opacity:0.1; fill:none" points="256.302,653.253 2640.76,653.253 "/>
<polyline clip-path="url(#clip251)" style="stroke:#000000; stroke-linecap:round; stroke-linejoin:round; stroke-width:2; stroke-opacity:0.1; fill:none" points="256.302,347.674 2640.76,347.674 "/>
<polyline clip-path="url(#clip250)" style="stroke:#000000; stroke-linecap:round; stroke-linejoin:round; stroke-width:4; stroke-opacity:1; fill:none" points="256.302,1734.12 2640.76,1734.12 "/>
<polyline clip-path="url(#clip250)" style="stroke:#000000; stroke-linecap:round; stroke-linejoin:round; stroke-width:4; stroke-opacity:1; fill:none" points="277.879,1734.12 277.879,1715.22 "/>
<polyline clip-path="url(#clip250)" style="stroke:#000000; stroke-linecap:round; stroke-linejoin:round; stroke-width:4; stroke-opacity:1; fill:none" points="736.958,1734.12 736.958,1715.22 "/>
<polyline clip-path="url(#clip250)" style="stroke:#000000; stroke-linecap:round; stroke-linejoin:round; stroke-width:4; stroke-opacity:1; fill:none" points="1196.04,1734.12 1196.04,1715.22 "/>
<polyline clip-path="url(#clip250)" style="stroke:#000000; stroke-linecap:round; stroke-linejoin:round; stroke-width:4; stroke-opacity:1; fill:none" points="1655.11,1734.12 1655.11,1715.22 "/>
<polyline clip-path="url(#clip250)" style="stroke:#000000; stroke-linecap:round; stroke-linejoin:round; stroke-width:4; stroke-opacity:1; fill:none" points="2114.19,1734.12 2114.19,1715.22 "/>
<polyline clip-path="url(#clip250)" style="stroke:#000000; stroke-linecap:round; stroke-linejoin:round; stroke-width:4; stroke-opacity:1; fill:none" points="2573.27,1734.12 2573.27,1715.22 "/>
<path clip-path="url(#clip250)" d="M277.879 1767.34 Q274.268 1767.34 272.439 1770.9 Q270.634 1774.45 270.634 1781.58 Q270.634 1788.68 272.439 1792.25 Q274.268 1795.79 277.879 1795.79 Q281.513 1795.79 283.319 1792.25 Q285.148 1788.68 285.148 1781.58 Q285.148 1774.45 283.319 1770.9 Q281.513 1767.34 277.879 1767.34 M277.879 1763.64 Q283.689 1763.64 286.745 1768.24 Q289.823 1772.83 289.823 1781.58 Q289.823 1790.3 286.745 1794.91 Q283.689 1799.49 277.879 1799.49 Q272.069 1799.49 268.99 1794.91 Q265.935 1790.3 265.935 1781.58 Q265.935 1772.83 268.99 1768.24 Q272.069 1763.64 277.879 1763.64 Z" fill="#000000" fill-rule="nonzero" fill-opacity="1" /><path clip-path="url(#clip250)" d="M711.645 1794.89 L719.284 1794.89 L719.284 1768.52 L710.974 1770.19 L710.974 1765.93 L719.238 1764.26 L723.914 1764.26 L723.914 1794.89 L731.553 1794.89 L731.553 1798.82 L711.645 1798.82 L711.645 1794.89 Z" fill="#000000" fill-rule="nonzero" fill-opacity="1" /><path clip-path="url(#clip250)" d="M750.997 1767.34 Q747.386 1767.34 745.557 1770.9 Q743.752 1774.45 743.752 1781.58 Q743.752 1788.68 745.557 1792.25 Q747.386 1795.79 750.997 1795.79 Q754.631 1795.79 756.437 1792.25 Q758.265 1788.68 758.265 1781.58 Q758.265 1774.45 756.437 1770.9 Q754.631 1767.34 750.997 1767.34 M750.997 1763.64 Q756.807 1763.64 759.863 1768.24 Q762.941 1772.83 762.941 1781.58 Q762.941 1790.3 759.863 1794.91 Q756.807 1799.49 750.997 1799.49 Q745.187 1799.49 742.108 1794.91 Q739.052 1790.3 739.052 1781.58 Q739.052 1772.83 742.108 1768.24 Q745.187 1763.64 750.997 1763.64 Z" fill="#000000" fill-rule="nonzero" fill-opacity="1" /><path clip-path="url(#clip250)" d="M1174.81 1794.89 L1191.13 1794.89 L1191.13 1798.82 L1169.18 1798.82 L1169.18 1794.89 Q1171.85 1792.13 1176.43 1787.5 Q1181.04 1782.85 1182.22 1781.51 Q1184.46 1778.98 1185.34 1777.25 Q1186.24 1775.49 1186.24 1773.8 Q1186.24 1771.04 1184.3 1769.31 Q1182.38 1767.57 1179.28 1767.57 Q1177.08 1767.57 1174.62 1768.34 Q1172.19 1769.1 1169.42 1770.65 L1169.42 1765.93 Q1172.24 1764.79 1174.69 1764.21 Q1177.15 1763.64 1179.18 1763.64 Q1184.55 1763.64 1187.75 1766.32 Q1190.94 1769.01 1190.94 1773.5 Q1190.94 1775.63 1190.13 1777.55 Q1189.35 1779.45 1187.24 1782.04 Q1186.66 1782.71 1183.56 1785.93 Q1180.46 1789.12 1174.81 1794.89 Z" fill="#000000" fill-rule="nonzero" fill-opacity="1" /><path clip-path="url(#clip250)" d="M1210.94 1767.34 Q1207.33 1767.34 1205.5 1770.9 Q1203.7 1774.45 1203.7 1781.58 Q1203.7 1788.68 1205.5 1792.25 Q1207.33 1795.79 1210.94 1795.79 Q1214.58 1795.79 1216.38 1792.25 Q1218.21 1788.68 1218.21 1781.58 Q1218.21 1774.45 1216.38 1770.9 Q1214.58 1767.34 1210.94 1767.34 M1210.94 1763.64 Q1216.75 1763.64 1219.81 1768.24 Q1222.89 1772.83 1222.89 1781.58 Q1222.89 1790.3 1219.81 1794.91 Q1216.75 1799.49 1210.94 1799.49 Q1205.13 1799.49 1202.05 1794.91 Q1199 1790.3 1199 1781.58 Q1199 1772.83 1202.05 1768.24 Q1205.13 1763.64 1210.94 1763.64 Z" fill="#000000" fill-rule="nonzero" fill-opacity="1" /><path clip-path="url(#clip250)" d="M1643.96 1780.19 Q1647.31 1780.9 1649.19 1783.17 Q1651.09 1785.44 1651.09 1788.77 Q1651.09 1793.89 1647.57 1796.69 Q1644.05 1799.49 1637.57 1799.49 Q1635.39 1799.49 1633.08 1799.05 Q1630.79 1798.64 1628.33 1797.78 L1628.33 1793.27 Q1630.28 1794.4 1632.59 1794.98 Q1634.91 1795.56 1637.43 1795.56 Q1641.83 1795.56 1644.12 1793.82 Q1646.43 1792.08 1646.43 1788.77 Q1646.43 1785.72 1644.28 1784.01 Q1642.15 1782.27 1638.33 1782.27 L1634.3 1782.27 L1634.3 1778.43 L1638.52 1778.43 Q1641.97 1778.43 1643.8 1777.06 Q1645.62 1775.67 1645.62 1773.08 Q1645.62 1770.42 1643.73 1769.01 Q1641.85 1767.57 1638.33 1767.57 Q1636.41 1767.57 1634.21 1767.99 Q1632.01 1768.4 1629.37 1769.28 L1629.37 1765.12 Q1632.04 1764.38 1634.35 1764.01 Q1636.69 1763.64 1638.75 1763.64 Q1644.07 1763.64 1647.17 1766.07 Q1650.28 1768.47 1650.28 1772.59 Q1650.28 1775.46 1648.63 1777.46 Q1646.99 1779.42 1643.96 1780.19 Z" fill="#000000" fill-rule="nonzero" fill-opacity="1" /><path clip-path="url(#clip250)" d="M1669.95 1767.34 Q1666.34 1767.34 1664.51 1770.9 Q1662.71 1774.45 1662.71 1781.58 Q1662.71 1788.68 1664.51 1792.25 Q1666.34 1795.79 1669.95 1795.79 Q1673.59 1795.79 1675.39 1792.25 Q1677.22 1788.68 1677.22 1781.58 Q1677.22 1774.45 1675.39 1770.9 Q1673.59 1767.34 1669.95 1767.34 M1669.95 1763.64 Q1675.76 1763.64 1678.82 1768.24 Q1681.9 1772.83 1681.9 1781.58 Q1681.9 1790.3 1678.82 1794.91 Q1675.76 1799.49 1669.95 1799.49 Q1664.14 1799.49 1661.06 1794.91 Q1658.01 1790.3 1658.01 1781.58 Q1658.01 1772.83 1661.06 1768.24 Q1664.14 1763.64 1669.95 1763.64 Z" fill="#000000" fill-rule="nonzero" fill-opacity="1" /><path clip-path="url(#clip250)" d="M2102.36 1768.34 L2090.56 1786.78 L2102.36 1786.78 L2102.36 1768.34 M2101.14 1764.26 L2107.02 1764.26 L2107.02 1786.78 L2111.95 1786.78 L2111.95 1790.67 L2107.02 1790.67 L2107.02 1798.82 L2102.36 1798.82 L2102.36 1790.67 L2086.76 1790.67 L2086.76 1786.16 L2101.14 1764.26 Z" fill="#000000" fill-rule="nonzero" fill-opacity="1" /><path clip-path="url(#clip250)" d="M2129.68 1767.34 Q2126.07 1767.34 2124.24 1770.9 Q2122.43 1774.45 2122.43 1781.58 Q2122.43 1788.68 2124.24 1792.25 Q2126.07 1795.79 2129.68 1795.79 Q2133.31 1795.79 2135.12 1792.25 Q2136.95 1788.68 2136.95 1781.58 Q2136.95 1774.45 2135.12 1770.9 Q2133.31 1767.34 2129.68 1767.34 M2129.68 1763.64 Q2135.49 1763.64 2138.54 1768.24 Q2141.62 1772.83 2141.62 1781.58 Q2141.62 1790.3 2138.54 1794.91 Q2135.49 1799.49 2129.68 1799.49 Q2123.87 1799.49 2120.79 1794.91 Q2117.73 1790.3 2117.73 1781.58 Q2117.73 1772.83 2120.79 1768.24 Q2123.87 1763.64 2129.68 1763.64 Z" fill="#000000" fill-rule="nonzero" fill-opacity="1" /><path clip-path="url(#clip250)" d="M2547.97 1764.26 L2566.33 1764.26 L2566.33 1768.2 L2552.25 1768.2 L2552.25 1776.67 Q2553.27 1776.32 2554.29 1776.16 Q2555.31 1775.97 2556.33 1775.97 Q2562.11 1775.97 2565.49 1779.15 Q2568.87 1782.32 2568.87 1787.73 Q2568.87 1793.31 2565.4 1796.41 Q2561.93 1799.49 2555.61 1799.49 Q2553.43 1799.49 2551.17 1799.12 Q2548.92 1798.75 2546.51 1798.01 L2546.51 1793.31 Q2548.6 1794.45 2550.82 1795 Q2553.04 1795.56 2555.52 1795.56 Q2559.52 1795.56 2561.86 1793.45 Q2564.2 1791.34 2564.2 1787.73 Q2564.2 1784.12 2561.86 1782.02 Q2559.52 1779.91 2555.52 1779.91 Q2553.64 1779.91 2551.77 1780.33 Q2549.92 1780.74 2547.97 1781.62 L2547.97 1764.26 Z" fill="#000000" fill-rule="nonzero" fill-opacity="1" /><path clip-path="url(#clip250)" d="M2588.09 1767.34 Q2584.48 1767.34 2582.65 1770.9 Q2580.84 1774.45 2580.84 1781.58 Q2580.84 1788.68 2582.65 1792.25 Q2584.48 1795.79 2588.09 1795.79 Q2591.72 1795.79 2593.53 1792.25 Q2595.35 1788.68 2595.35 1781.58 Q2595.35 1774.45 2593.53 1770.9 Q2591.72 1767.34 2588.09 1767.34 M2588.09 1763.64 Q2593.9 1763.64 2596.95 1768.24 Q2600.03 1772.83 2600.03 1781.58 Q2600.03 1790.3 2596.95 1794.91 Q2593.9 1799.49 2588.09 1799.49 Q2582.28 1799.49 2579.2 1794.91 Q2576.14 1790.3 2576.14 1781.58 Q2576.14 1772.83 2579.2 1768.24 Q2582.28 1763.64 2588.09 1763.64 Z" fill="#000000" fill-rule="nonzero" fill-opacity="1" /><path clip-path="url(#clip250)" d="M1289.59 1835.78 L1329.79 1835.78 L1329.79 1841.19 L1312.92 1841.19 L1312.92 1883.3 L1306.46 1883.3 L1306.46 1841.19 L1289.59 1841.19 L1289.59 1835.78 Z" fill="#000000" fill-rule="nonzero" fill-opacity="1" /><path clip-path="url(#clip250)" d="M1333.74 1847.65 L1339.6 1847.65 L1339.6 1883.3 L1333.74 1883.3 L1333.74 1847.65 M1333.74 1833.78 L1339.6 1833.78 L1339.6 1841.19 L1333.74 1841.19 L1333.74 1833.78 Z" fill="#000000" fill-rule="nonzero" fill-opacity="1" /><path clip-path="url(#clip250)" d="M1379.6 1854.5 Q1381.8 1850.55 1384.86 1848.67 Q1387.91 1846.79 1392.05 1846.79 Q1397.62 1846.79 1400.64 1850.71 Q1403.67 1854.59 1403.67 1861.78 L1403.67 1883.3 L1397.78 1883.3 L1397.78 1861.98 Q1397.78 1856.85 1395.96 1854.37 Q1394.15 1851.89 1390.43 1851.89 Q1385.87 1851.89 1383.23 1854.91 Q1380.59 1857.93 1380.59 1863.15 L1380.59 1883.3 L1374.7 1883.3 L1374.7 1861.98 Q1374.7 1856.82 1372.89 1854.37 Q1371.07 1851.89 1367.29 1851.89 Q1362.8 1851.89 1360.16 1854.94 Q1357.52 1857.97 1357.52 1863.15 L1357.52 1883.3 L1351.63 1883.3 L1351.63 1847.65 L1357.52 1847.65 L1357.52 1853.19 Q1359.52 1849.91 1362.32 1848.35 Q1365.12 1846.79 1368.97 1846.79 Q1372.86 1846.79 1375.56 1848.77 Q1378.3 1850.74 1379.6 1854.5 Z" fill="#000000" fill-rule="nonzero" fill-opacity="1" /><path clip-path="url(#clip250)" d="M1445.84 1864.01 L1445.84 1866.88 L1418.91 1866.88 Q1419.29 1872.92 1422.54 1876.11 Q1425.82 1879.26 1431.64 1879.26 Q1435.02 1879.26 1438.17 1878.43 Q1441.35 1877.6 1444.47 1875.95 L1444.47 1881.49 Q1441.32 1882.82 1438.01 1883.52 Q1434.7 1884.22 1431.29 1884.22 Q1422.76 1884.22 1417.77 1879.26 Q1412.8 1874.29 1412.8 1865.83 Q1412.8 1857.07 1417.51 1851.95 Q1422.25 1846.79 1430.28 1846.79 Q1437.47 1846.79 1441.64 1851.44 Q1445.84 1856.06 1445.84 1864.01 M1439.98 1862.29 Q1439.92 1857.49 1437.28 1854.62 Q1434.67 1851.76 1430.34 1851.76 Q1425.44 1851.76 1422.48 1854.53 Q1419.55 1857.3 1419.1 1862.33 L1439.98 1862.29 Z" fill="#000000" fill-rule="nonzero" fill-opacity="1" /><path clip-path="url(#clip250)" d="M1498.9 1848.7 L1498.9 1854.24 Q1496.42 1852.97 1493.74 1852.33 Q1491.07 1851.7 1488.2 1851.7 Q1483.84 1851.7 1481.65 1853.03 Q1479.48 1854.37 1479.48 1857.04 Q1479.48 1859.08 1481.04 1860.26 Q1482.6 1861.4 1487.31 1862.45 L1489.32 1862.9 Q1495.56 1864.24 1498.17 1866.69 Q1500.81 1869.11 1500.81 1873.47 Q1500.81 1878.43 1496.86 1881.33 Q1492.95 1884.22 1486.07 1884.22 Q1483.21 1884.22 1480.09 1883.65 Q1477 1883.11 1473.56 1882 L1473.56 1875.95 Q1476.81 1877.64 1479.96 1878.49 Q1483.11 1879.32 1486.2 1879.32 Q1490.34 1879.32 1492.56 1877.92 Q1494.79 1876.49 1494.79 1873.91 Q1494.79 1871.52 1493.17 1870.25 Q1491.58 1868.98 1486.13 1867.8 L1484.1 1867.32 Q1478.65 1866.18 1476.24 1863.82 Q1473.82 1861.43 1473.82 1857.3 Q1473.82 1852.27 1477.38 1849.53 Q1480.95 1846.79 1487.5 1846.79 Q1490.75 1846.79 1493.61 1847.27 Q1496.48 1847.75 1498.9 1848.7 Z" fill="#000000" fill-rule="nonzero" fill-opacity="1" /><path clip-path="url(#clip250)" d="M1515.93 1837.53 L1515.93 1847.65 L1527.99 1847.65 L1527.99 1852.2 L1515.93 1852.2 L1515.93 1871.56 Q1515.93 1875.92 1517.1 1877.16 Q1518.31 1878.4 1521.97 1878.4 L1527.99 1878.4 L1527.99 1883.3 L1521.97 1883.3 Q1515.19 1883.3 1512.62 1880.79 Q1510.04 1878.24 1510.04 1871.56 L1510.04 1852.2 L1505.74 1852.2 L1505.74 1847.65 L1510.04 1847.65 L1510.04 1837.53 L1515.93 1837.53 Z" fill="#000000" fill-rule="nonzero" fill-opacity="1" /><path clip-path="url(#clip250)" d="M1566.18 1864.01 L1566.18 1866.88 L1539.26 1866.88 Q1539.64 1872.92 1542.88 1876.11 Q1546.16 1879.26 1551.99 1879.26 Q1555.36 1879.26 1558.51 1878.43 Q1561.7 1877.6 1564.81 1875.95 L1564.81 1881.49 Q1561.66 1882.82 1558.35 1883.52 Q1555.04 1884.22 1551.64 1884.22 Q1543.11 1884.22 1538.11 1879.26 Q1533.15 1874.29 1533.15 1865.83 Q1533.15 1857.07 1537.86 1851.95 Q1542.6 1846.79 1550.62 1846.79 Q1557.81 1846.79 1561.98 1851.44 Q1566.18 1856.06 1566.18 1864.01 M1560.33 1862.29 Q1560.26 1857.49 1557.62 1854.62 Q1555.01 1851.76 1550.68 1851.76 Q1545.78 1851.76 1542.82 1854.53 Q1539.89 1857.3 1539.45 1862.33 L1560.33 1862.29 Z" fill="#000000" fill-rule="nonzero" fill-opacity="1" /><path clip-path="url(#clip250)" d="M1581.46 1877.95 L1581.46 1896.86 L1575.57 1896.86 L1575.57 1847.65 L1581.46 1847.65 L1581.46 1853.06 Q1583.31 1849.88 1586.11 1848.35 Q1588.94 1846.79 1592.86 1846.79 Q1599.35 1846.79 1603.39 1851.95 Q1607.46 1857.11 1607.46 1865.51 Q1607.46 1873.91 1603.39 1879.07 Q1599.35 1884.22 1592.86 1884.22 Q1588.94 1884.22 1586.11 1882.7 Q1583.31 1881.14 1581.46 1877.95 M1601.39 1865.51 Q1601.39 1859.05 1598.71 1855.39 Q1596.07 1851.7 1591.42 1851.7 Q1586.78 1851.7 1584.1 1855.39 Q1581.46 1859.05 1581.46 1865.51 Q1581.46 1871.97 1584.1 1875.66 Q1586.78 1879.32 1591.42 1879.32 Q1596.07 1879.32 1598.71 1875.66 Q1601.39 1871.97 1601.39 1865.51 Z" fill="#000000" fill-rule="nonzero" fill-opacity="1" /><polyline clip-path="url(#clip250)" style="stroke:#000000; stroke-linecap:round; stroke-linejoin:round; stroke-width:4; stroke-opacity:1; fill:none" points="256.302,1734.12 256.302,127.792 "/>
<polyline clip-path="url(#clip250)" style="stroke:#000000; stroke-linecap:round; stroke-linejoin:round; stroke-width:4; stroke-opacity:1; fill:none" points="256.302,1569.99 275.2,1569.99 "/>
<polyline clip-path="url(#clip250)" style="stroke:#000000; stroke-linecap:round; stroke-linejoin:round; stroke-width:4; stroke-opacity:1; fill:none" points="256.302,1264.41 275.2,1264.41 "/>
<polyline clip-path="url(#clip250)" style="stroke:#000000; stroke-linecap:round; stroke-linejoin:round; stroke-width:4; stroke-opacity:1; fill:none" points="256.302,958.831 275.2,958.831 "/>
<polyline clip-path="url(#clip250)" style="stroke:#000000; stroke-linecap:round; stroke-linejoin:round; stroke-width:4; stroke-opacity:1; fill:none" points="256.302,653.253 275.2,653.253 "/>
<polyline clip-path="url(#clip250)" style="stroke:#000000; stroke-linecap:round; stroke-linejoin:round; stroke-width:4; stroke-opacity:1; fill:none" points="256.302,347.674 275.2,347.674 "/>
<path clip-path="url(#clip250)" d="M129.872 1555.79 Q126.261 1555.79 124.432 1559.35 Q122.626 1562.89 122.626 1570.02 Q122.626 1577.13 124.432 1580.69 Q126.261 1584.24 129.872 1584.24 Q133.506 1584.24 135.312 1580.69 Q137.14 1577.13 137.14 1570.02 Q137.14 1562.89 135.312 1559.35 Q133.506 1555.79 129.872 1555.79 M129.872 1552.08 Q135.682 1552.08 138.737 1556.69 Q141.816 1561.27 141.816 1570.02 Q141.816 1578.75 138.737 1583.36 Q135.682 1587.94 129.872 1587.94 Q124.062 1587.94 120.983 1583.36 Q117.927 1578.75 117.927 1570.02 Q117.927 1561.27 120.983 1556.69 Q124.062 1552.08 129.872 1552.08 Z" fill="#000000" fill-rule="nonzero" fill-opacity="1" /><path clip-path="url(#clip250)" d="M150.034 1581.39 L154.918 1581.39 L154.918 1587.27 L150.034 1587.27 L150.034 1581.39 Z" fill="#000000" fill-rule="nonzero" fill-opacity="1" /><path clip-path="url(#clip250)" d="M175.103 1570.86 Q171.77 1570.86 169.848 1572.64 Q167.95 1574.42 167.95 1577.55 Q167.95 1580.67 169.848 1582.45 Q171.77 1584.24 175.103 1584.24 Q178.436 1584.24 180.358 1582.45 Q182.279 1580.65 182.279 1577.55 Q182.279 1574.42 180.358 1572.64 Q178.459 1570.86 175.103 1570.86 M170.427 1568.87 Q167.418 1568.13 165.728 1566.06 Q164.061 1564 164.061 1561.04 Q164.061 1556.9 167.001 1554.49 Q169.964 1552.08 175.103 1552.08 Q180.265 1552.08 183.205 1554.49 Q186.145 1556.9 186.145 1561.04 Q186.145 1564 184.455 1566.06 Q182.788 1568.13 179.802 1568.87 Q183.182 1569.65 185.057 1571.94 Q186.955 1574.24 186.955 1577.55 Q186.955 1582.57 183.876 1585.25 Q180.821 1587.94 175.103 1587.94 Q169.385 1587.94 166.307 1585.25 Q163.251 1582.57 163.251 1577.55 Q163.251 1574.24 165.149 1571.94 Q167.048 1569.65 170.427 1568.87 M168.714 1561.48 Q168.714 1564.17 170.381 1565.67 Q172.071 1567.18 175.103 1567.18 Q178.112 1567.18 179.802 1565.67 Q181.515 1564.17 181.515 1561.48 Q181.515 1558.8 179.802 1557.29 Q178.112 1555.79 175.103 1555.79 Q172.071 1555.79 170.381 1557.29 Q168.714 1558.8 168.714 1561.48 Z" fill="#000000" fill-rule="nonzero" fill-opacity="1" /><path clip-path="url(#clip250)" d="M196.075 1583.33 L203.714 1583.33 L203.714 1556.97 L195.404 1558.63 L195.404 1554.38 L203.668 1552.71 L208.344 1552.71 L208.344 1583.33 L215.982 1583.33 L215.982 1587.27 L196.075 1587.27 L196.075 1583.33 Z" fill="#000000" fill-rule="nonzero" fill-opacity="1" /><path clip-path="url(#clip250)" d="M128.159 1250.21 Q124.548 1250.21 122.719 1253.77 Q120.913 1257.32 120.913 1264.44 Q120.913 1271.55 122.719 1275.12 Q124.548 1278.66 128.159 1278.66 Q131.793 1278.66 133.599 1275.12 Q135.427 1271.55 135.427 1264.44 Q135.427 1257.32 133.599 1253.77 Q131.793 1250.21 128.159 1250.21 M128.159 1246.5 Q133.969 1246.5 137.025 1251.11 Q140.103 1255.69 140.103 1264.44 Q140.103 1273.17 137.025 1277.78 Q133.969 1282.36 128.159 1282.36 Q122.349 1282.36 119.27 1277.78 Q116.214 1273.17 116.214 1264.44 Q116.214 1255.69 119.27 1251.11 Q122.349 1246.5 128.159 1246.5 Z" fill="#000000" fill-rule="nonzero" fill-opacity="1" /><path clip-path="url(#clip250)" d="M148.321 1275.81 L153.205 1275.81 L153.205 1281.69 L148.321 1281.69 L148.321 1275.81 Z" fill="#000000" fill-rule="nonzero" fill-opacity="1" /><path clip-path="url(#clip250)" d="M173.39 1265.28 Q170.057 1265.28 168.135 1267.06 Q166.237 1268.84 166.237 1271.97 Q166.237 1275.09 168.135 1276.88 Q170.057 1278.66 173.39 1278.66 Q176.723 1278.66 178.645 1276.88 Q180.566 1275.07 180.566 1271.97 Q180.566 1268.84 178.645 1267.06 Q176.747 1265.28 173.39 1265.28 M168.714 1263.29 Q165.705 1262.55 164.015 1260.49 Q162.348 1258.43 162.348 1255.46 Q162.348 1251.32 165.288 1248.91 Q168.251 1246.5 173.39 1246.5 Q178.552 1246.5 181.492 1248.91 Q184.432 1251.32 184.432 1255.46 Q184.432 1258.43 182.742 1260.49 Q181.075 1262.55 178.089 1263.29 Q181.469 1264.07 183.344 1266.37 Q185.242 1268.66 185.242 1271.97 Q185.242 1276.99 182.163 1279.68 Q179.108 1282.36 173.39 1282.36 Q167.673 1282.36 164.594 1279.68 Q161.538 1276.99 161.538 1271.97 Q161.538 1268.66 163.436 1266.37 Q165.335 1264.07 168.714 1263.29 M167.001 1255.9 Q167.001 1258.59 168.668 1260.09 Q170.358 1261.6 173.39 1261.6 Q176.399 1261.6 178.089 1260.09 Q179.802 1258.59 179.802 1255.9 Q179.802 1253.22 178.089 1251.71 Q176.399 1250.21 173.39 1250.21 Q170.358 1250.21 168.668 1251.71 Q167.001 1253.22 167.001 1255.9 Z" fill="#000000" fill-rule="nonzero" fill-opacity="1" /><path clip-path="url(#clip250)" d="M206.399 1251.2 L194.594 1269.65 L206.399 1269.65 L206.399 1251.2 M205.172 1247.13 L211.052 1247.13 L211.052 1269.65 L215.982 1269.65 L215.982 1273.54 L211.052 1273.54 L211.052 1281.69 L206.399 1281.69 L206.399 1273.54 L190.797 1273.54 L190.797 1269.03 L205.172 1247.13 Z" fill="#000000" fill-rule="nonzero" fill-opacity="1" /><path clip-path="url(#clip250)" d="M129.548 944.63 Q125.937 944.63 124.108 948.195 Q122.302 951.736 122.302 958.866 Q122.302 965.972 124.108 969.537 Q125.937 973.079 129.548 973.079 Q133.182 973.079 134.987 969.537 Q136.816 965.972 136.816 958.866 Q136.816 951.736 134.987 948.195 Q133.182 944.63 129.548 944.63 M129.548 940.926 Q135.358 940.926 138.413 945.533 Q141.492 950.116 141.492 958.866 Q141.492 967.593 138.413 972.199 Q135.358 976.783 129.548 976.783 Q123.738 976.783 120.659 972.199 Q117.603 967.593 117.603 958.866 Q117.603 950.116 120.659 945.533 Q123.738 940.926 129.548 940.926 Z" fill="#000000" fill-rule="nonzero" fill-opacity="1" /><path clip-path="url(#clip250)" d="M149.71 970.232 L154.594 970.232 L154.594 976.111 L149.71 976.111 L149.71 970.232 Z" fill="#000000" fill-rule="nonzero" fill-opacity="1" /><path clip-path="url(#clip250)" d="M174.779 959.699 Q171.446 959.699 169.524 961.482 Q167.626 963.264 167.626 966.389 Q167.626 969.514 169.524 971.296 Q171.446 973.079 174.779 973.079 Q178.112 973.079 180.034 971.296 Q181.955 969.491 181.955 966.389 Q181.955 963.264 180.034 961.482 Q178.135 959.699 174.779 959.699 M170.103 957.709 Q167.094 956.968 165.404 954.908 Q163.737 952.847 163.737 949.885 Q163.737 945.741 166.677 943.334 Q169.64 940.926 174.779 940.926 Q179.941 940.926 182.881 943.334 Q185.821 945.741 185.821 949.885 Q185.821 952.847 184.131 954.908 Q182.464 956.968 179.478 957.709 Q182.858 958.496 184.733 960.787 Q186.631 963.079 186.631 966.389 Q186.631 971.412 183.552 974.097 Q180.497 976.783 174.779 976.783 Q169.061 976.783 165.983 974.097 Q162.927 971.412 162.927 966.389 Q162.927 963.079 164.825 960.787 Q166.723 958.496 170.103 957.709 M168.39 950.324 Q168.39 953.009 170.057 954.514 Q171.747 956.019 174.779 956.019 Q177.788 956.019 179.478 954.514 Q181.191 953.009 181.191 950.324 Q181.191 947.639 179.478 946.135 Q177.788 944.63 174.779 944.63 Q171.747 944.63 170.057 946.135 Q168.39 947.639 168.39 950.324 Z" fill="#000000" fill-rule="nonzero" fill-opacity="1" /><path clip-path="url(#clip250)" d="M193.76 941.551 L215.982 941.551 L215.982 943.542 L203.436 976.111 L198.552 976.111 L210.357 945.486 L193.76 945.486 L193.76 941.551 Z" fill="#000000" fill-rule="nonzero" fill-opacity="1" /><path clip-path="url(#clip250)" d="M128.645 639.051 Q125.034 639.051 123.205 642.616 Q121.4 646.158 121.4 653.287 Q121.4 660.394 123.205 663.959 Q125.034 667.5 128.645 667.5 Q132.279 667.5 134.085 663.959 Q135.913 660.394 135.913 653.287 Q135.913 646.158 134.085 642.616 Q132.279 639.051 128.645 639.051 M128.645 635.348 Q134.455 635.348 137.511 639.954 Q140.589 644.537 140.589 653.287 Q140.589 662.014 137.511 666.621 Q134.455 671.204 128.645 671.204 Q122.835 671.204 119.756 666.621 Q116.701 662.014 116.701 653.287 Q116.701 644.537 119.756 639.954 Q122.835 635.348 128.645 635.348 Z" fill="#000000" fill-rule="nonzero" fill-opacity="1" /><path clip-path="url(#clip250)" d="M148.807 664.653 L153.691 664.653 L153.691 670.533 L148.807 670.533 L148.807 664.653 Z" fill="#000000" fill-rule="nonzero" fill-opacity="1" /><path clip-path="url(#clip250)" d="M164.015 669.815 L164.015 665.556 Q165.774 666.389 167.58 666.829 Q169.385 667.269 171.122 667.269 Q175.751 667.269 178.182 664.167 Q180.635 661.042 180.983 654.699 Q179.64 656.69 177.58 657.755 Q175.52 658.82 173.02 658.82 Q167.835 658.82 164.802 655.695 Q161.793 652.547 161.793 647.107 Q161.793 641.783 164.941 638.565 Q168.089 635.348 173.321 635.348 Q179.316 635.348 182.464 639.954 Q185.635 644.537 185.635 653.287 Q185.635 661.459 181.746 666.343 Q177.881 671.204 171.33 671.204 Q169.571 671.204 167.765 670.857 Q165.96 670.509 164.015 669.815 M173.321 655.162 Q176.469 655.162 178.297 653.009 Q180.149 650.857 180.149 647.107 Q180.149 643.38 178.297 641.227 Q176.469 639.051 173.321 639.051 Q170.172 639.051 168.321 641.227 Q166.492 643.38 166.492 647.107 Q166.492 650.857 168.321 653.009 Q170.172 655.162 173.321 655.162 Z" fill="#000000" fill-rule="nonzero" fill-opacity="1" /><path clip-path="url(#clip250)" d="M204.038 639.051 Q200.427 639.051 198.598 642.616 Q196.793 646.158 196.793 653.287 Q196.793 660.394 198.598 663.959 Q200.427 667.5 204.038 667.5 Q207.672 667.5 209.478 663.959 Q211.307 660.394 211.307 653.287 Q211.307 646.158 209.478 642.616 Q207.672 639.051 204.038 639.051 M204.038 635.348 Q209.848 635.348 212.904 639.954 Q215.982 644.537 215.982 653.287 Q215.982 662.014 212.904 666.621 Q209.848 671.204 204.038 671.204 Q198.228 671.204 195.149 666.621 Q192.094 662.014 192.094 653.287 Q192.094 644.537 195.149 639.954 Q198.228 635.348 204.038 635.348 Z" fill="#000000" fill-rule="nonzero" fill-opacity="1" /><path clip-path="url(#clip250)" d="M129.293 333.473 Q125.682 333.473 123.853 337.037 Q122.048 340.579 122.048 347.709 Q122.048 354.815 123.853 358.38 Q125.682 361.921 129.293 361.921 Q132.927 361.921 134.733 358.38 Q136.562 354.815 136.562 347.709 Q136.562 340.579 134.733 337.037 Q132.927 333.473 129.293 333.473 M129.293 329.769 Q135.103 329.769 138.159 334.375 Q141.237 338.959 141.237 347.709 Q141.237 356.435 138.159 361.042 Q135.103 365.625 129.293 365.625 Q123.483 365.625 120.404 361.042 Q117.349 356.435 117.349 347.709 Q117.349 338.959 120.404 334.375 Q123.483 329.769 129.293 329.769 Z" fill="#000000" fill-rule="nonzero" fill-opacity="1" /><path clip-path="url(#clip250)" d="M149.455 359.074 L154.339 359.074 L154.339 364.954 L149.455 364.954 L149.455 359.074 Z" fill="#000000" fill-rule="nonzero" fill-opacity="1" /><path clip-path="url(#clip250)" d="M164.663 364.236 L164.663 359.977 Q166.423 360.81 168.228 361.25 Q170.034 361.69 171.77 361.69 Q176.399 361.69 178.83 358.588 Q181.284 355.463 181.631 349.121 Q180.288 351.111 178.228 352.176 Q176.168 353.241 173.668 353.241 Q168.483 353.241 165.45 350.116 Q162.441 346.968 162.441 341.528 Q162.441 336.204 165.589 332.986 Q168.737 329.769 173.969 329.769 Q179.964 329.769 183.112 334.375 Q186.284 338.959 186.284 347.709 Q186.284 355.88 182.395 360.764 Q178.529 365.625 171.978 365.625 Q170.219 365.625 168.413 365.278 Q166.608 364.931 164.663 364.236 M173.969 349.584 Q177.117 349.584 178.946 347.431 Q180.797 345.278 180.797 341.528 Q180.797 337.801 178.946 335.648 Q177.117 333.473 173.969 333.473 Q170.821 333.473 168.969 335.648 Q167.14 337.801 167.14 341.528 Q167.14 345.278 168.969 347.431 Q170.821 349.584 173.969 349.584 Z" fill="#000000" fill-rule="nonzero" fill-opacity="1" /><path clip-path="url(#clip250)" d="M208.853 346.32 Q212.209 347.037 214.084 349.306 Q215.982 351.574 215.982 354.908 Q215.982 360.023 212.464 362.824 Q208.945 365.625 202.464 365.625 Q200.288 365.625 197.973 365.185 Q195.682 364.769 193.228 363.912 L193.228 359.398 Q195.172 360.533 197.487 361.111 Q199.802 361.69 202.325 361.69 Q206.723 361.69 209.015 359.954 Q211.33 358.218 211.33 354.908 Q211.33 351.852 209.177 350.139 Q207.047 348.403 203.228 348.403 L199.2 348.403 L199.2 344.56 L203.413 344.56 Q206.862 344.56 208.691 343.195 Q210.519 341.806 210.519 339.213 Q210.519 336.551 208.621 335.139 Q206.746 333.704 203.228 333.704 Q201.307 333.704 199.108 334.121 Q196.908 334.537 194.27 335.417 L194.27 331.25 Q196.932 330.51 199.246 330.139 Q201.584 329.769 203.645 329.769 Q208.969 329.769 212.07 332.199 Q215.172 334.607 215.172 338.727 Q215.172 341.598 213.529 343.588 Q211.885 345.556 208.853 346.32 Z" fill="#000000" fill-rule="nonzero" fill-opacity="1" /><path clip-path="url(#clip250)" d="M17.6832 966.443 L61.6384 949.988 L61.6384 956.195 L35.2844 966.189 L61.6384 978.475 L61.6384 984.681 L27.4546 969.053 L21.1525 971.409 Q17.1422 972.905 17.1422 976.31 L17.1422 979.366 L12.1132 979.366 L12.1769 975.642 Q12.2724 968.449 17.6832 966.443 Z" fill="#000000" fill-rule="nonzero" fill-opacity="1" /><path clip-path="url(#clip250)" d="M12.1769 927.835 Q19.4975 932.1 26.6589 934.169 Q33.8203 936.238 41.1727 936.238 Q48.5251 936.238 55.7502 934.169 Q62.9434 932.069 70.2321 927.835 L70.2321 932.928 Q62.7524 937.702 55.5274 940.089 Q48.3023 942.445 41.1727 942.445 Q34.0749 942.445 26.8817 940.089 Q19.6884 937.734 12.1769 932.928 L12.1769 927.835 Z" fill="#000000" fill-rule="nonzero" fill-opacity="1" /><path clip-path="url(#clip250)" d="M15.869 910.68 L25.9905 910.68 L25.9905 898.617 L30.542 898.617 L30.542 910.68 L49.8937 910.68 Q54.2542 910.68 55.4955 909.502 Q56.7368 908.293 56.7368 904.632 L56.7368 898.617 L61.6384 898.617 L61.6384 904.632 Q61.6384 911.412 59.124 913.99 Q56.5777 916.568 49.8937 916.568 L30.542 916.568 L30.542 920.865 L25.9905 920.865 L25.9905 916.568 L15.869 916.568 L15.869 910.68 Z" fill="#000000" fill-rule="nonzero" fill-opacity="1" /><path clip-path="url(#clip250)" d="M12.1769 891.837 L12.1769 886.745 Q19.6884 881.97 26.8817 879.615 Q34.0749 877.228 41.1727 877.228 Q48.3023 877.228 55.5274 879.615 Q62.7524 881.97 70.2321 886.745 L70.2321 891.837 Q62.9434 887.604 55.7502 885.535 Q48.5251 883.435 41.1727 883.435 Q33.8203 883.435 26.6589 885.535 Q19.4975 887.604 12.1769 891.837 Z" fill="#000000" fill-rule="nonzero" fill-opacity="1" /><path clip-path="url(#clip250)" d="M920.21 16.7545 L920.21 25.383 Q916.078 21.5346 911.379 19.6307 Q906.721 17.7268 901.455 17.7268 Q891.084 17.7268 885.575 24.0867 Q880.066 30.4061 880.066 42.3968 Q880.066 54.3469 885.575 60.7069 Q891.084 67.0263 901.455 67.0263 Q906.721 67.0263 911.379 65.1223 Q916.078 63.2184 920.21 59.3701 L920.21 67.9175 Q915.916 70.8341 911.096 72.2924 Q906.316 73.7508 900.968 73.7508 Q887.236 73.7508 879.337 65.3654 Q871.437 56.9395 871.437 42.3968 Q871.437 27.8135 879.337 19.4281 Q887.236 11.0023 900.968 11.0023 Q906.397 11.0023 911.177 12.4606 Q915.997 13.8784 920.21 16.7545 Z" fill="#000000" fill-rule="nonzero" fill-opacity="1" /><path clip-path="url(#clip250)" d="M950.106 32.4315 Q944.111 32.4315 940.627 37.1306 Q937.143 41.7891 937.143 49.9314 Q937.143 58.0738 940.586 62.7728 Q944.07 67.4314 950.106 67.4314 Q956.061 67.4314 959.545 62.7323 Q963.028 58.0333 963.028 49.9314 Q963.028 41.8701 959.545 37.1711 Q956.061 32.4315 950.106 32.4315 M950.106 26.1121 Q959.828 26.1121 965.378 32.4315 Q970.928 38.7509 970.928 49.9314 Q970.928 61.0714 965.378 67.4314 Q959.828 73.7508 950.106 73.7508 Q940.343 73.7508 934.793 67.4314 Q929.284 61.0714 929.284 49.9314 Q929.284 38.7509 934.793 32.4315 Q940.343 26.1121 950.106 26.1121 Z" fill="#000000" fill-rule="nonzero" fill-opacity="1" /><path clip-path="url(#clip250)" d="M1021 45.1919 L1021 72.576 L1013.54 72.576 L1013.54 45.4349 Q1013.54 38.994 1011.03 35.7938 Q1008.52 32.5936 1003.5 32.5936 Q997.461 32.5936 993.977 36.4419 Q990.493 40.2903 990.493 46.9338 L990.493 72.576 L982.999 72.576 L982.999 27.2059 L990.493 27.2059 L990.493 34.2544 Q993.167 30.163 996.772 28.1376 Q1000.42 26.1121 1005.16 26.1121 Q1012.98 26.1121 1016.99 30.9732 Q1021 35.7938 1021 45.1919 Z" fill="#000000" fill-rule="nonzero" fill-opacity="1" /><path clip-path="url(#clip250)" d="M1030.52 27.2059 L1038.42 27.2059 L1052.59 65.2844 L1066.77 27.2059 L1074.67 27.2059 L1057.66 72.576 L1047.53 72.576 L1030.52 27.2059 Z" fill="#000000" fill-rule="nonzero" fill-opacity="1" /><path clip-path="url(#clip250)" d="M1123.77 48.0275 L1123.77 51.6733 L1089.5 51.6733 Q1089.98 59.3701 1094.12 63.421 Q1098.29 67.4314 1105.7 67.4314 Q1110 67.4314 1114.01 66.3781 Q1118.06 65.3249 1122.03 63.2184 L1122.03 70.267 Q1118.02 71.9684 1113.8 72.8596 Q1109.59 73.7508 1105.26 73.7508 Q1094.4 73.7508 1088.04 67.4314 Q1081.72 61.1119 1081.72 50.3365 Q1081.72 39.1965 1087.72 32.6746 Q1093.75 26.1121 1103.96 26.1121 Q1113.11 26.1121 1118.42 32.0264 Q1123.77 37.9003 1123.77 48.0275 M1116.31 45.84 Q1116.23 39.7232 1112.87 36.0774 Q1109.55 32.4315 1104.04 32.4315 Q1097.8 32.4315 1094.03 35.9558 Q1090.31 39.4801 1089.74 45.8805 L1116.31 45.84 Z" fill="#000000" fill-rule="nonzero" fill-opacity="1" /><path clip-path="url(#clip250)" d="M1162.29 34.1734 Q1161.04 33.4443 1159.54 33.1202 Q1158.08 32.7556 1156.3 32.7556 Q1149.98 32.7556 1146.57 36.8875 Q1143.21 40.9789 1143.21 48.6757 L1143.21 72.576 L1135.72 72.576 L1135.72 27.2059 L1143.21 27.2059 L1143.21 34.2544 Q1145.56 30.1225 1149.33 28.1376 Q1153.1 26.1121 1158.48 26.1121 Q1159.25 26.1121 1160.19 26.2337 Q1161.12 26.3147 1162.25 26.5172 L1162.29 34.1734 Z" fill="#000000" fill-rule="nonzero" fill-opacity="1" /><path clip-path="url(#clip250)" d="M1198.51 49.3643 Q1198.51 41.2625 1195.15 36.8065 Q1191.82 32.3505 1185.79 32.3505 Q1179.79 32.3505 1176.43 36.8065 Q1173.11 41.2625 1173.11 49.3643 Q1173.11 57.4256 1176.43 61.8816 Q1179.79 66.3376 1185.79 66.3376 Q1191.82 66.3376 1195.15 61.8816 Q1198.51 57.4256 1198.51 49.3643 M1205.96 66.9452 Q1205.96 78.5308 1200.82 84.1616 Q1195.67 89.8329 1185.06 89.8329 Q1181.13 89.8329 1177.65 89.2252 Q1174.16 88.6581 1170.88 87.4428 L1170.88 80.1917 Q1174.16 81.9741 1177.36 82.8248 Q1180.56 83.6755 1183.88 83.6755 Q1191.22 83.6755 1194.86 79.8271 Q1198.51 76.0193 1198.51 68.282 L1198.51 64.5957 Q1196.2 68.6061 1192.59 70.5911 Q1188.99 72.576 1183.96 72.576 Q1175.62 72.576 1170.52 66.2161 Q1165.41 59.8562 1165.41 49.3643 Q1165.41 38.832 1170.52 32.472 Q1175.62 26.1121 1183.96 26.1121 Q1188.99 26.1121 1192.59 28.0971 Q1196.2 30.082 1198.51 34.0924 L1198.51 27.2059 L1205.96 27.2059 L1205.96 66.9452 Z" fill="#000000" fill-rule="nonzero" fill-opacity="1" /><path clip-path="url(#clip250)" d="M1260.12 48.0275 L1260.12 51.6733 L1225.85 51.6733 Q1226.34 59.3701 1230.47 63.421 Q1234.64 67.4314 1242.05 67.4314 Q1246.35 67.4314 1250.36 66.3781 Q1254.41 65.3249 1258.38 63.2184 L1258.38 70.267 Q1254.37 71.9684 1250.16 72.8596 Q1245.94 73.7508 1241.61 73.7508 Q1230.75 73.7508 1224.39 67.4314 Q1218.07 61.1119 1218.07 50.3365 Q1218.07 39.1965 1224.07 32.6746 Q1230.1 26.1121 1240.31 26.1121 Q1249.47 26.1121 1254.77 32.0264 Q1260.12 37.9003 1260.12 48.0275 M1252.67 45.84 Q1252.59 39.7232 1249.22 36.0774 Q1245.9 32.4315 1240.39 32.4315 Q1234.16 32.4315 1230.39 35.9558 Q1226.66 39.4801 1226.09 45.8805 L1252.67 45.84 Z" fill="#000000" fill-rule="nonzero" fill-opacity="1" /><path clip-path="url(#clip250)" d="M1310.07 45.1919 L1310.07 72.576 L1302.62 72.576 L1302.62 45.4349 Q1302.62 38.994 1300.1 35.7938 Q1297.59 32.5936 1292.57 32.5936 Q1286.53 32.5936 1283.05 36.4419 Q1279.57 40.2903 1279.57 46.9338 L1279.57 72.576 L1272.07 72.576 L1272.07 27.2059 L1279.57 27.2059 L1279.57 34.2544 Q1282.24 30.163 1285.84 28.1376 Q1289.49 26.1121 1294.23 26.1121 Q1302.05 26.1121 1306.06 30.9732 Q1310.07 35.7938 1310.07 45.1919 Z" fill="#000000" fill-rule="nonzero" fill-opacity="1" /><path clip-path="url(#clip250)" d="M1357.59 28.9478 L1357.59 35.9153 Q1354.43 34.1734 1351.23 33.3227 Q1348.07 32.4315 1344.83 32.4315 Q1337.57 32.4315 1333.56 37.0496 Q1329.55 41.6271 1329.55 49.9314 Q1329.55 58.2358 1333.56 62.8538 Q1337.57 67.4314 1344.83 67.4314 Q1348.07 67.4314 1351.23 66.5807 Q1354.43 65.6895 1357.59 63.9476 L1357.59 70.8341 Q1354.47 72.2924 1351.1 73.0216 Q1347.78 73.7508 1344.02 73.7508 Q1333.77 73.7508 1327.73 67.3098 Q1321.7 60.8689 1321.7 49.9314 Q1321.7 38.832 1327.77 32.472 Q1333.89 26.1121 1344.5 26.1121 Q1347.95 26.1121 1351.23 26.8413 Q1354.51 27.5299 1357.59 28.9478 Z" fill="#000000" fill-rule="nonzero" fill-opacity="1" /><path clip-path="url(#clip250)" d="M1409.36 48.0275 L1409.36 51.6733 L1375.09 51.6733 Q1375.57 59.3701 1379.7 63.421 Q1383.88 67.4314 1391.29 67.4314 Q1395.58 67.4314 1399.59 66.3781 Q1403.65 65.3249 1407.62 63.2184 L1407.62 70.267 Q1403.6 71.9684 1399.39 72.8596 Q1395.18 73.7508 1390.84 73.7508 Q1379.99 73.7508 1373.63 67.4314 Q1367.31 61.1119 1367.31 50.3365 Q1367.31 39.1965 1373.3 32.6746 Q1379.34 26.1121 1389.55 26.1121 Q1398.7 26.1121 1404.01 32.0264 Q1409.36 37.9003 1409.36 48.0275 M1401.9 45.84 Q1401.82 39.7232 1398.46 36.0774 Q1395.14 32.4315 1389.63 32.4315 Q1383.39 32.4315 1379.62 35.9558 Q1375.9 39.4801 1375.33 45.8805 L1401.9 45.84 Z" fill="#000000" fill-rule="nonzero" fill-opacity="1" /><path clip-path="url(#clip250)" d="M1465.54 32.4315 Q1459.55 32.4315 1456.06 37.1306 Q1452.58 41.7891 1452.58 49.9314 Q1452.58 58.0738 1456.02 62.7728 Q1459.51 67.4314 1465.54 67.4314 Q1471.5 67.4314 1474.98 62.7323 Q1478.47 58.0333 1478.47 49.9314 Q1478.47 41.8701 1474.98 37.1711 Q1471.5 32.4315 1465.54 32.4315 M1465.54 26.1121 Q1475.27 26.1121 1480.81 32.4315 Q1486.36 38.7509 1486.36 49.9314 Q1486.36 61.0714 1480.81 67.4314 Q1475.27 73.7508 1465.54 73.7508 Q1455.78 73.7508 1450.23 67.4314 Q1444.72 61.0714 1444.72 49.9314 Q1444.72 38.7509 1450.23 32.4315 Q1455.78 26.1121 1465.54 26.1121 Z" fill="#000000" fill-rule="nonzero" fill-opacity="1" /><path clip-path="url(#clip250)" d="M1521.69 9.54393 L1521.69 15.7418 L1514.56 15.7418 Q1510.55 15.7418 1508.97 17.3622 Q1507.43 18.9825 1507.43 23.1955 L1507.43 27.2059 L1519.7 27.2059 L1519.7 32.9987 L1507.43 32.9987 L1507.43 72.576 L1499.94 72.576 L1499.94 32.9987 L1492.81 32.9987 L1492.81 27.2059 L1499.94 27.2059 L1499.94 24.0462 Q1499.94 16.471 1503.46 13.0277 Q1506.98 9.54393 1514.64 9.54393 L1521.69 9.54393 Z" fill="#000000" fill-rule="nonzero" fill-opacity="1" /><path clip-path="url(#clip250)" d="M1584.15 49.3643 Q1584.15 41.2625 1580.79 36.8065 Q1577.47 32.3505 1571.43 32.3505 Q1565.44 32.3505 1562.08 36.8065 Q1558.75 41.2625 1558.75 49.3643 Q1558.75 57.4256 1562.08 61.8816 Q1565.44 66.3376 1571.43 66.3376 Q1577.47 66.3376 1580.79 61.8816 Q1584.15 57.4256 1584.15 49.3643 M1591.61 66.9452 Q1591.61 78.5308 1586.46 84.1616 Q1581.32 89.8329 1570.7 89.8329 Q1566.78 89.8329 1563.29 89.2252 Q1559.81 88.6581 1556.53 87.4428 L1556.53 80.1917 Q1559.81 81.9741 1563.01 82.8248 Q1566.21 83.6755 1569.53 83.6755 Q1576.86 83.6755 1580.51 79.8271 Q1584.15 76.0193 1584.15 68.282 L1584.15 64.5957 Q1581.84 68.6061 1578.24 70.5911 Q1574.63 72.576 1569.61 72.576 Q1561.27 72.576 1556.16 66.2161 Q1551.06 59.8562 1551.06 49.3643 Q1551.06 38.832 1556.16 32.472 Q1561.27 26.1121 1569.61 26.1121 Q1574.63 26.1121 1578.24 28.0971 Q1581.84 30.082 1584.15 34.0924 L1584.15 27.2059 L1591.61 27.2059 L1591.61 66.9452 Z" fill="#000000" fill-rule="nonzero" fill-opacity="1" /><path clip-path="url(#clip250)" d="M1633.25 34.1734 Q1631.99 33.4443 1630.5 33.1202 Q1629.04 32.7556 1627.26 32.7556 Q1620.94 32.7556 1617.53 36.8875 Q1614.17 40.9789 1614.17 48.6757 L1614.17 72.576 L1606.68 72.576 L1606.68 27.2059 L1614.17 27.2059 L1614.17 34.2544 Q1616.52 30.1225 1620.29 28.1376 Q1624.05 26.1121 1629.44 26.1121 Q1630.21 26.1121 1631.14 26.2337 Q1632.08 26.3147 1633.21 26.5172 L1633.25 34.1734 Z" fill="#000000" fill-rule="nonzero" fill-opacity="1" /><path clip-path="url(#clip250)" d="M1656.83 32.4315 Q1650.83 32.4315 1647.35 37.1306 Q1643.86 41.7891 1643.86 49.9314 Q1643.86 58.0738 1647.31 62.7728 Q1650.79 67.4314 1656.83 67.4314 Q1662.78 67.4314 1666.27 62.7323 Q1669.75 58.0333 1669.75 49.9314 Q1669.75 41.8701 1666.27 37.1711 Q1662.78 32.4315 1656.83 32.4315 M1656.83 26.1121 Q1666.55 26.1121 1672.1 32.4315 Q1677.65 38.7509 1677.65 49.9314 Q1677.65 61.0714 1672.1 67.4314 Q1666.55 73.7508 1656.83 73.7508 Q1647.06 73.7508 1641.51 67.4314 Q1636.01 61.0714 1636.01 49.9314 Q1636.01 38.7509 1641.51 32.4315 Q1647.06 26.1121 1656.83 26.1121 Z" fill="#000000" fill-rule="nonzero" fill-opacity="1" /><path clip-path="url(#clip250)" d="M1685.67 27.2059 L1693.12 27.2059 L1702.44 62.6108 L1711.72 27.2059 L1720.51 27.2059 L1729.82 62.6108 L1739.1 27.2059 L1746.55 27.2059 L1734.69 72.576 L1725.89 72.576 L1716.13 35.3887 L1706.33 72.576 L1697.54 72.576 L1685.67 27.2059 Z" fill="#000000" fill-rule="nonzero" fill-opacity="1" /><path clip-path="url(#clip250)" d="M1765.23 14.324 L1765.23 27.2059 L1780.58 27.2059 L1780.58 32.9987 L1765.23 32.9987 L1765.23 57.6282 Q1765.23 63.1779 1766.73 64.7578 Q1768.27 66.3376 1772.93 66.3376 L1780.58 66.3376 L1780.58 72.576 L1772.93 72.576 Q1764.3 72.576 1761.02 69.3758 Q1757.73 66.1351 1757.73 57.6282 L1757.73 32.9987 L1752.27 32.9987 L1752.27 27.2059 L1757.73 27.2059 L1757.73 14.324 L1765.23 14.324 Z" fill="#000000" fill-rule="nonzero" fill-opacity="1" /><path clip-path="url(#clip250)" d="M1828.1 45.1919 L1828.1 72.576 L1820.65 72.576 L1820.65 45.4349 Q1820.65 38.994 1818.13 35.7938 Q1815.62 32.5936 1810.6 32.5936 Q1804.56 32.5936 1801.08 36.4419 Q1797.6 40.2903 1797.6 46.9338 L1797.6 72.576 L1790.1 72.576 L1790.1 9.54393 L1797.6 9.54393 L1797.6 34.2544 Q1800.27 30.163 1803.87 28.1376 Q1807.52 26.1121 1812.26 26.1121 Q1820.08 26.1121 1824.09 30.9732 Q1828.1 35.7938 1828.1 45.1919 Z" fill="#000000" fill-rule="nonzero" fill-opacity="1" /><path clip-path="url(#clip250)" d="M1895.63 34.1734 Q1894.37 33.4443 1892.87 33.1202 Q1891.41 32.7556 1889.63 32.7556 Q1883.31 32.7556 1879.91 36.8875 Q1876.55 40.9789 1876.55 48.6757 L1876.55 72.576 L1869.05 72.576 L1869.05 27.2059 L1876.55 27.2059 L1876.55 34.2544 Q1878.9 30.1225 1882.66 28.1376 Q1886.43 26.1121 1891.82 26.1121 Q1892.59 26.1121 1893.52 26.2337 Q1894.45 26.3147 1895.59 26.5172 L1895.63 34.1734 Z" fill="#000000" fill-rule="nonzero" fill-opacity="1" /><path clip-path="url(#clip250)" d="M1924.06 49.7694 Q1915.03 49.7694 1911.55 51.8354 Q1908.06 53.9013 1908.06 58.8839 Q1908.06 62.8538 1910.66 65.2034 Q1913.29 67.5124 1917.79 67.5124 Q1923.98 67.5124 1927.71 63.1374 Q1931.48 58.7219 1931.48 51.4303 L1931.48 49.7694 L1924.06 49.7694 M1938.93 46.6907 L1938.93 72.576 L1931.48 72.576 L1931.48 65.6895 Q1928.93 69.8214 1925.12 71.8063 Q1921.31 73.7508 1915.8 73.7508 Q1908.83 73.7508 1904.7 69.8619 Q1900.61 65.9325 1900.61 59.3701 Q1900.61 51.7138 1905.71 47.825 Q1910.86 43.9361 1921.03 43.9361 L1931.48 43.9361 L1931.48 43.2069 Q1931.48 38.0623 1928.08 35.2672 Q1924.71 32.4315 1918.6 32.4315 Q1914.71 32.4315 1911.02 33.3632 Q1907.33 34.295 1903.93 36.1584 L1903.93 29.2718 Q1908.02 27.692 1911.87 26.9223 Q1915.72 26.1121 1919.37 26.1121 Q1929.21 26.1121 1934.07 31.2163 Q1938.93 36.3204 1938.93 46.6907 Z" fill="#000000" fill-rule="nonzero" fill-opacity="1" /><path clip-path="url(#clip250)" d="M1961.66 14.324 L1961.66 27.2059 L1977.01 27.2059 L1977.01 32.9987 L1961.66 32.9987 L1961.66 57.6282 Q1961.66 63.1779 1963.16 64.7578 Q1964.7 66.3376 1969.35 66.3376 L1977.01 66.3376 L1977.01 72.576 L1969.35 72.576 Q1960.73 72.576 1957.44 69.3758 Q1954.16 66.1351 1954.16 57.6282 L1954.16 32.9987 L1948.69 32.9987 L1948.69 27.2059 L1954.16 27.2059 L1954.16 14.324 L1961.66 14.324 Z" fill="#000000" fill-rule="nonzero" fill-opacity="1" /><path clip-path="url(#clip250)" d="M2025.62 48.0275 L2025.62 51.6733 L1991.35 51.6733 Q1991.84 59.3701 1995.97 63.421 Q2000.14 67.4314 2007.55 67.4314 Q2011.85 67.4314 2015.86 66.3781 Q2019.91 65.3249 2023.88 63.2184 L2023.88 70.267 Q2019.87 71.9684 2015.66 72.8596 Q2011.44 73.7508 2007.11 73.7508 Q1996.25 73.7508 1989.89 67.4314 Q1983.57 61.1119 1983.57 50.3365 Q1983.57 39.1965 1989.57 32.6746 Q1995.6 26.1121 2005.81 26.1121 Q2014.97 26.1121 2020.27 32.0264 Q2025.62 37.9003 2025.62 48.0275 M2018.17 45.84 Q2018.09 39.7232 2014.72 36.0774 Q2011.4 32.4315 2005.89 32.4315 Q1999.65 32.4315 1995.89 35.9558 Q1992.16 39.4801 1991.59 45.8805 L2018.17 45.84 Z" fill="#000000" fill-rule="nonzero" fill-opacity="1" /><polyline clip-path="url(#clip251)" style="stroke:#009af9; stroke-linecap:round; stroke-linejoin:round; stroke-width:8; stroke-opacity:1; fill:none" points="323.787,1688.65 369.695,1247.35 415.603,872.846 461.51,594.914 507.418,390.688 553.326,258.587 599.234,191.386 645.142,173.254 691.05,185.885 736.958,213.54 782.865,244.986 828.773,273.391 874.681,295.417 920.589,310.169 966.497,318.283 1012.4,321.182 1058.31,320.544 1104.22,317.93 1150.13,314.588 1196.04,311.373 1241.94,308.768 1287.85,306.954 1333.76,305.905 1379.67,305.479 1425.58,305.489 1471.48,305.751 1517.39,306.118 1563.3,306.485 1609.21,306.792 1655.11,307.012 1701.02,307.145 1746.93,307.205 1792.84,307.212 1838.75,307.187 1884.65,307.147 1930.56,307.106 1976.47,307.07 2022.38,307.043 2068.29,307.027 2114.19,307.018 2160.1,307.017 2206.01,307.019 2251.92,307.023 2297.82,307.028 2343.73,307.032 2389.64,307.035 2435.55,307.037 2481.46,307.038 2527.36,307.039 2573.27,307.038 "/>
<polyline clip-path="url(#clip251)" style="stroke:#ff0000; stroke-linecap:round; stroke-linejoin:round; stroke-width:4; stroke-opacity:1; fill:none" stroke-dasharray="16, 10" points="-2128.15,307.036 5025.21,307.036 "/>
<path clip-path="url(#clip250)" d="M2014.61 1680.57 L2561.27 1680.57 L2561.27 1525.05 L2014.61 1525.05  Z" fill="#ffffff" fill-rule="evenodd" fill-opacity="1"/>
<polyline clip-path="url(#clip250)" style="stroke:#000000; stroke-linecap:round; stroke-linejoin:round; stroke-width:4; stroke-opacity:1; fill:none" points="2014.61,1680.57 2561.27,1680.57 2561.27,1525.05 2014.61,1525.05 2014.61,1680.57 "/>
<polyline clip-path="url(#clip250)" style="stroke:#009af9; stroke-linecap:round; stroke-linejoin:round; stroke-width:8; stroke-opacity:1; fill:none" points="2041.11,1576.89 2200.07,1576.89 "/>
<path clip-path="url(#clip250)" d="M2239.83 1562.21 L2251.8 1594.17 L2247.28 1594.17 L2240.01 1575.01 L2231.08 1594.17 L2226.56 1594.17 L2237.93 1569.31 L2236.22 1564.73 Q2235.13 1561.81 2232.65 1561.81 L2230.43 1561.81 L2230.43 1558.15 L2233.14 1558.2 Q2238.37 1558.27 2239.83 1562.21 Z" fill="#000000" fill-rule="nonzero" fill-opacity="1" /><path clip-path="url(#clip250)" d="M2267.91 1558.2 Q2264.8 1563.52 2263.3 1568.73 Q2261.8 1573.94 2261.8 1579.29 Q2261.8 1584.64 2263.3 1589.89 Q2264.83 1595.12 2267.91 1600.42 L2264.2 1600.42 Q2260.73 1594.98 2258.99 1589.73 Q2257.28 1584.47 2257.28 1579.29 Q2257.28 1574.13 2258.99 1568.9 Q2260.71 1563.66 2264.2 1558.2 L2267.91 1558.2 Z" fill="#000000" fill-rule="nonzero" fill-opacity="1" /><path clip-path="url(#clip250)" d="M2280.38 1560.89 L2280.38 1568.25 L2289.16 1568.25 L2289.16 1571.56 L2280.38 1571.56 L2280.38 1585.63 Q2280.38 1588.8 2281.24 1589.71 Q2282.12 1590.61 2284.78 1590.61 L2289.16 1590.61 L2289.16 1594.17 L2284.78 1594.17 Q2279.85 1594.17 2277.98 1592.34 Q2276.1 1590.49 2276.1 1585.63 L2276.1 1571.56 L2272.98 1571.56 L2272.98 1568.25 L2276.1 1568.25 L2276.1 1560.89 L2280.38 1560.89 Z" fill="#000000" fill-rule="nonzero" fill-opacity="1" /><path clip-path="url(#clip250)" d="M2294.09 1558.2 L2297.79 1558.2 Q2301.26 1563.66 2302.98 1568.9 Q2304.71 1574.13 2304.71 1579.29 Q2304.71 1584.47 2302.98 1589.73 Q2301.26 1594.98 2297.79 1600.42 L2294.09 1600.42 Q2297.17 1595.12 2298.67 1589.89 Q2300.2 1584.64 2300.2 1579.29 Q2300.2 1573.94 2298.67 1568.73 Q2297.17 1563.52 2294.09 1558.2 Z" fill="#000000" fill-rule="nonzero" fill-opacity="1" /><polyline clip-path="url(#clip250)" style="stroke:#ff0000; stroke-linecap:round; stroke-linejoin:round; stroke-width:4; stroke-opacity:1; fill:none" stroke-dasharray="16, 10" points="2041.11,1628.73 2200.07,1628.73 "/>
<path clip-path="url(#clip250)" d="M2242.4 1616.06 L2236.05 1633.26 L2248.76 1633.26 L2242.4 1616.06 M2239.76 1611.45 L2245.06 1611.45 L2258.23 1646.01 L2253.37 1646.01 L2250.22 1637.15 L2234.64 1637.15 L2231.49 1646.01 L2226.56 1646.01 L2239.76 1611.45 Z" fill="#000000" fill-rule="nonzero" fill-opacity="1" /><path clip-path="url(#clip250)" d="M2279.62 1620.85 L2279.62 1624.88 Q2277.81 1623.95 2275.87 1623.49 Q2273.93 1623.03 2271.84 1623.03 Q2268.67 1623.03 2267.07 1624 Q2265.5 1624.97 2265.5 1626.92 Q2265.5 1628.4 2266.63 1629.25 Q2267.77 1630.09 2271.19 1630.85 L2272.65 1631.17 Q2277.19 1632.15 2279.09 1633.93 Q2281.01 1635.69 2281.01 1638.86 Q2281.01 1642.47 2278.14 1644.58 Q2275.29 1646.68 2270.29 1646.68 Q2268.21 1646.68 2265.94 1646.27 Q2263.69 1645.87 2261.19 1645.06 L2261.19 1640.67 Q2263.55 1641.89 2265.85 1642.52 Q2268.14 1643.12 2270.38 1643.12 Q2273.39 1643.12 2275.01 1642.1 Q2276.63 1641.06 2276.63 1639.18 Q2276.63 1637.45 2275.45 1636.52 Q2274.3 1635.6 2270.34 1634.74 L2268.86 1634.39 Q2264.9 1633.56 2263.14 1631.85 Q2261.38 1630.11 2261.38 1627.1 Q2261.38 1623.44 2263.97 1621.45 Q2266.56 1619.46 2271.33 1619.46 Q2273.69 1619.46 2275.78 1619.81 Q2277.86 1620.16 2279.62 1620.85 Z" fill="#000000" fill-rule="nonzero" fill-opacity="1" /><path clip-path="url(#clip250)" d="M2298.58 1648.42 Q2296.77 1653.05 2295.06 1654.46 Q2293.35 1655.87 2290.48 1655.87 L2287.07 1655.87 L2287.07 1652.31 L2289.57 1652.31 Q2291.33 1652.31 2292.3 1651.48 Q2293.28 1650.64 2294.46 1647.54 L2295.22 1645.6 L2284.74 1620.09 L2289.25 1620.09 L2297.35 1640.36 L2305.45 1620.09 L2309.97 1620.09 L2298.58 1648.42 Z" fill="#000000" fill-rule="nonzero" fill-opacity="1" /><path clip-path="url(#clip250)" d="M2336.03 1625.06 Q2337.63 1622.19 2339.85 1620.83 Q2342.07 1619.46 2345.08 1619.46 Q2349.13 1619.46 2351.33 1622.31 Q2353.53 1625.13 2353.53 1630.36 L2353.53 1646.01 L2349.25 1646.01 L2349.25 1630.5 Q2349.25 1626.78 2347.93 1624.97 Q2346.61 1623.17 2343.9 1623.17 Q2340.59 1623.17 2338.67 1625.36 Q2336.75 1627.56 2336.75 1631.36 L2336.75 1646.01 L2332.47 1646.01 L2332.47 1630.5 Q2332.47 1626.75 2331.15 1624.97 Q2329.83 1623.17 2327.07 1623.17 Q2323.81 1623.17 2321.89 1625.39 Q2319.97 1627.59 2319.97 1631.36 L2319.97 1646.01 L2315.68 1646.01 L2315.68 1620.09 L2319.97 1620.09 L2319.97 1624.11 Q2321.42 1621.73 2323.46 1620.6 Q2325.5 1619.46 2328.3 1619.46 Q2331.12 1619.46 2333.09 1620.9 Q2335.08 1622.33 2336.03 1625.06 Z" fill="#000000" fill-rule="nonzero" fill-opacity="1" /><path clip-path="url(#clip250)" d="M2366.15 1642.12 L2366.15 1655.87 L2361.86 1655.87 L2361.86 1620.09 L2366.15 1620.09 L2366.15 1624.02 Q2367.49 1621.71 2369.53 1620.6 Q2371.59 1619.46 2374.43 1619.46 Q2379.16 1619.46 2382.1 1623.21 Q2385.06 1626.96 2385.06 1633.07 Q2385.06 1639.18 2382.1 1642.93 Q2379.16 1646.68 2374.43 1646.68 Q2371.59 1646.68 2369.53 1645.57 Q2367.49 1644.44 2366.15 1642.12 M2380.64 1633.07 Q2380.64 1628.37 2378.69 1625.71 Q2376.77 1623.03 2373.39 1623.03 Q2370.01 1623.03 2368.07 1625.71 Q2366.15 1628.37 2366.15 1633.07 Q2366.15 1637.77 2368.07 1640.46 Q2370.01 1643.12 2373.39 1643.12 Q2376.77 1643.12 2378.69 1640.46 Q2380.64 1637.77 2380.64 1633.07 Z" fill="#000000" fill-rule="nonzero" fill-opacity="1" /><path clip-path="url(#clip250)" d="M2396.33 1612.73 L2396.33 1620.09 L2405.1 1620.09 L2405.1 1623.4 L2396.33 1623.4 L2396.33 1637.47 Q2396.33 1640.64 2397.19 1641.55 Q2398.07 1642.45 2400.73 1642.45 L2405.1 1642.45 L2405.1 1646.01 L2400.73 1646.01 Q2395.8 1646.01 2393.92 1644.18 Q2392.05 1642.33 2392.05 1637.47 L2392.05 1623.4 L2388.92 1623.4 L2388.92 1620.09 L2392.05 1620.09 L2392.05 1612.73 L2396.33 1612.73 Z" fill="#000000" fill-rule="nonzero" fill-opacity="1" /><path clip-path="url(#clip250)" d="M2420.75 1623.07 Q2417.33 1623.07 2415.34 1625.76 Q2413.35 1628.42 2413.35 1633.07 Q2413.35 1637.73 2415.31 1640.41 Q2417.3 1643.07 2420.75 1643.07 Q2424.16 1643.07 2426.15 1640.39 Q2428.14 1637.7 2428.14 1633.07 Q2428.14 1628.47 2426.15 1625.78 Q2424.16 1623.07 2420.75 1623.07 M2420.75 1619.46 Q2426.31 1619.46 2429.48 1623.07 Q2432.65 1626.68 2432.65 1633.07 Q2432.65 1639.44 2429.48 1643.07 Q2426.31 1646.68 2420.75 1646.68 Q2415.17 1646.68 2412 1643.07 Q2408.85 1639.44 2408.85 1633.07 Q2408.85 1626.68 2412 1623.07 Q2415.17 1619.46 2420.75 1619.46 Z" fill="#000000" fill-rule="nonzero" fill-opacity="1" /><path clip-path="url(#clip250)" d="M2443.92 1612.73 L2443.92 1620.09 L2452.7 1620.09 L2452.7 1623.4 L2443.92 1623.4 L2443.92 1637.47 Q2443.92 1640.64 2444.78 1641.55 Q2445.66 1642.45 2448.32 1642.45 L2452.7 1642.45 L2452.7 1646.01 L2448.32 1646.01 Q2443.39 1646.01 2441.52 1644.18 Q2439.64 1642.33 2439.64 1637.47 L2439.64 1623.4 L2436.52 1623.4 L2436.52 1620.09 L2439.64 1620.09 L2439.64 1612.73 L2443.92 1612.73 Z" fill="#000000" fill-rule="nonzero" fill-opacity="1" /><path clip-path="url(#clip250)" d="M2458.3 1620.09 L2462.56 1620.09 L2462.56 1646.01 L2458.3 1646.01 L2458.3 1620.09 M2458.3 1609.99 L2462.56 1609.99 L2462.56 1615.39 L2458.3 1615.39 L2458.3 1609.99 Z" fill="#000000" fill-rule="nonzero" fill-opacity="1" /><path clip-path="url(#clip250)" d="M2490.13 1621.08 L2490.13 1625.06 Q2488.32 1624.07 2486.49 1623.58 Q2484.69 1623.07 2482.84 1623.07 Q2478.69 1623.07 2476.4 1625.71 Q2474.11 1628.33 2474.11 1633.07 Q2474.11 1637.82 2476.4 1640.46 Q2478.69 1643.07 2482.84 1643.07 Q2484.69 1643.07 2486.49 1642.59 Q2488.32 1642.08 2490.13 1641.08 L2490.13 1645.02 Q2488.35 1645.85 2486.42 1646.27 Q2484.53 1646.68 2482.37 1646.68 Q2476.52 1646.68 2473.07 1643 Q2469.62 1639.32 2469.62 1633.07 Q2469.62 1626.73 2473.09 1623.1 Q2476.59 1619.46 2482.65 1619.46 Q2484.62 1619.46 2486.49 1619.88 Q2488.37 1620.27 2490.13 1621.08 Z" fill="#000000" fill-rule="nonzero" fill-opacity="1" /><path clip-path="url(#clip250)" d="M2522.81 1614.05 L2534.78 1646.01 L2530.27 1646.01 L2523 1626.85 L2514.06 1646.01 L2509.55 1646.01 L2520.91 1621.15 L2519.2 1616.57 Q2518.11 1613.65 2515.64 1613.65 L2513.41 1613.65 L2513.41 1609.99 L2516.12 1610.04 Q2521.35 1610.11 2522.81 1614.05 Z" fill="#000000" fill-rule="nonzero" fill-opacity="1" /></svg>
