<?xml version="1.0" encoding="utf-8"?>
<svg xmlns="http://www.w3.org/2000/svg" xmlns:xlink="http://www.w3.org/1999/xlink" width="672" height="480" viewBox="0 0 2688 1920">
<defs>
  <clipPath id="clip280">
    <rect x="0" y="0" width="2688" height="1920"/>
  </clipPath>
</defs>
<path clip-path="url(#clip280)" d="M0 1920 L2688 1920 L2688 -4.26326e-14 L0 -4.26326e-14  Z" fill="#ffffff" fill-rule="evenodd" fill-opacity="1"/>
<defs>
  <clipPath id="clip281">
    <rect x="226" y="127" width="2416" height="1607"/>
  </clipPath>
</defs>
<path clip-path="url(#clip280)" d="M226.141 1734.12 L2640.76 1734.12 L2640.76 127.792 L226.141 127.792  Z" fill="#ffffff" fill-rule="evenodd" fill-opacity="1"/>
<polyline clip-path="url(#clip281)" style="stroke:#000000; stroke-linecap:round; stroke-linejoin:round; stroke-width:2; stroke-opacity:0.1; fill:none" points="294.479,1734.12 294.479,127.792 "/>
<polyline clip-path="url(#clip281)" style="stroke:#000000; stroke-linecap:round; stroke-linejoin:round; stroke-width:2; stroke-opacity:0.1; fill:none" points="750.067,1734.12 750.067,127.792 "/>
<polyline clip-path="url(#clip281)" style="stroke:#000000; stroke-linecap:round; stroke-linejoin:round; stroke-width:2; stroke-opacity:0.1; fill:none" points="1205.65,1734.12 1205.65,127.792 "/>
<polyline clip-path="url(#clip281)" style="stroke:#000000; stroke-linecap:round; stroke-linejoin:round; stroke-width:2; stroke-opacity:0.1; fill:none" points="1661.24,1734.12 1661.24,127.792 "/>
<polyline clip-path="url(#clip281)" style="stroke:#000000; stroke-linecap:round; stroke-linejoin:round; stroke-width:2; stroke-opacity:0.1; fill:none" points="2116.83,1734.12 2116.83,127.792 "/>
<polyline clip-path="url(#clip281)" style="stroke:#000000; stroke-linecap:round; stroke-linejoin:round; stroke-width:2; stroke-opacity:0.1; fill:none" points="2572.42,1734.12 2572.42,127.792 "/>
<polyline clip-path="url(#clip281)" style="stroke:#000000; stroke-linecap:round; stroke-linejoin:round; stroke-width:2; stroke-opacity:0.1; fill:none" points="226.141,1734.12 2640.76,1734.12 "/>
<polyline clip-path="url(#clip281)" style="stroke:#000000; stroke-linecap:round; stroke-linejoin:round; stroke-width:2; stroke-opacity:0.1; fill:none" points="226.141,1412.85 2640.76,1412.85 "/>
<polyline clip-path="url(#clip281)" style="stroke:#000000; stroke-linecap:round; stroke-linejoin:round; stroke-width:2; stroke-opacity:0.1; fill:none" points="226.141,1091.59 2640.76,1091.59 "/>
<polyline clip-path="url(#clip281)" style="stroke:#000000; stroke-linecap:round; stroke-linejoin:round; stroke-width:2; stroke-opacity:0.1; fill:none" points="226.141,770.322 2640.76,770.322 "/>
<polyline clip-path="url(#clip281)" style="stroke:#000000; stroke-linecap:round; stroke-linejoin:round; stroke-width:2; stroke-opacity:0.1; fill:none" points="226.141,449.057 2640.76,449.057 "/>
<polyline clip-path="url(#clip281)" style="stroke:#000000; stroke-linecap:round; stroke-linejoin:round; stroke-width:2; stroke-opacity:0.1; fill:none" points="226.141,127.792 2640.76,127.792 "/>
<polyline clip-path="url(#clip280)" style="stroke:#000000; stroke-linecap:round; stroke-linejoin:round; stroke-width:4; stroke-opacity:1; fill:none" points="226.141,1734.12 2640.76,1734.12 "/>
<polyline clip-path="url(#clip280)" style="stroke:#000000; stroke-linecap:round; stroke-linejoin:round; stroke-width:4; stroke-opacity:1; fill:none" points="294.479,1734.12 294.479,1715.22 "/>
<polyline clip-path="url(#clip280)" style="stroke:#000000; stroke-linecap:round; stroke-linejoin:round; stroke-width:4; stroke-opacity:1; fill:none" points="750.067,1734.12 750.067,1715.22 "/>
<polyline clip-path="url(#clip280)" style="stroke:#000000; stroke-linecap:round; stroke-linejoin:round; stroke-width:4; stroke-opacity:1; fill:none" points="1205.65,1734.12 1205.65,1715.22 "/>
<polyline clip-path="url(#clip280)" style="stroke:#000000; stroke-linecap:round; stroke-linejoin:round; stroke-width:4; stroke-opacity:1; fill:none" points="1661.24,1734.12 1661.24,1715.22 "/>
<polyline clip-path="url(#clip280)" style="stroke:#000000; stroke-linecap:round; stroke-linejoin:round; stroke-width:4; stroke-opacity:1; fill:none" points="2116.83,1734.12 2116.83,1715.22 "/>
<polyline clip-path="url(#clip280)" style="stroke:#000000; stroke-linecap:round; stroke-linejoin:round; stroke-width:4; stroke-opacity:1; fill:none" points="2572.42,1734.12 2572.42,1715.22 "/>
<path clip-path="url(#clip280)" d="M294.479 1767.34 Q290.868 1767.34 289.039 1770.9 Q287.233 1774.45 287.233 1781.58 Q287.233 1788.68 289.039 1792.25 Q290.868 1795.79 294.479 1795.79 Q298.113 1795.79 299.919 1792.25 Q301.747 1788.68 301.747 1781.58 Q301.747 1774.45 299.919 1770.9 Q298.113 1767.34 294.479 1767.34 M294.479 1763.64 Q300.289 1763.64 303.344 1768.24 Q306.423 1772.83 306.423 1781.58 Q306.423 1790.3 303.344 1794.91 Q300.289 1799.49 294.479 1799.49 Q288.669 1799.49 285.59 1794.91 Q282.534 1790.3 282.534 1781.58 Q282.534 1772.83 285.59 1768.24 Q288.669 1763.64 294.479 1763.64 Z" fill="#000000" fill-rule="nonzero" fill-opacity="1" /><path clip-path="url(#clip280)" d="M724.754 1794.89 L732.393 1794.89 L732.393 1768.52 L724.083 1770.19 L724.083 1765.93 L732.347 1764.26 L737.023 1764.26 L737.023 1794.89 L744.661 1794.89 L744.661 1798.82 L724.754 1798.82 L724.754 1794.89 Z" fill="#000000" fill-rule="nonzero" fill-opacity="1" /><path clip-path="url(#clip280)" d="M764.106 1767.34 Q760.495 1767.34 758.666 1770.9 Q756.86 1774.45 756.86 1781.58 Q756.86 1788.68 758.666 1792.25 Q760.495 1795.79 764.106 1795.79 Q767.74 1795.79 769.546 1792.25 Q771.374 1788.68 771.374 1781.58 Q771.374 1774.45 769.546 1770.9 Q767.74 1767.34 764.106 1767.34 M764.106 1763.64 Q769.916 1763.64 772.971 1768.24 Q776.05 1772.83 776.05 1781.58 Q776.05 1790.3 772.971 1794.91 Q769.916 1799.49 764.106 1799.49 Q758.296 1799.49 755.217 1794.91 Q752.161 1790.3 752.161 1781.58 Q752.161 1772.83 755.217 1768.24 Q758.296 1763.64 764.106 1763.64 Z" fill="#000000" fill-rule="nonzero" fill-opacity="1" /><path clip-path="url(#clip280)" d="M1184.43 1794.89 L1200.75 1794.89 L1200.75 1798.82 L1178.8 1798.82 L1178.8 1794.89 Q1181.46 1792.13 1186.05 1787.5 Q1190.65 1782.85 1191.83 1781.51 Q1194.08 1778.98 1194.96 1777.25 Q1195.86 1775.49 1195.86 1773.8 Q1195.86 1771.04 1193.92 1769.31 Q1192 1767.57 1188.9 1767.57 Q1186.7 1767.57 1184.24 1768.34 Q1181.81 1769.1 1179.03 1770.65 L1179.03 1765.93 Q1181.86 1764.79 1184.31 1764.21 Q1186.77 1763.64 1188.8 1763.64 Q1194.17 1763.64 1197.37 1766.32 Q1200.56 1769.01 1200.56 1773.5 Q1200.56 1775.63 1199.75 1777.55 Q1198.96 1779.45 1196.86 1782.04 Q1196.28 1782.71 1193.18 1785.93 Q1190.08 1789.12 1184.43 1794.89 Z" fill="#000000" fill-rule="nonzero" fill-opacity="1" /><path clip-path="url(#clip280)" d="M1220.56 1767.34 Q1216.95 1767.34 1215.12 1770.9 Q1213.32 1774.45 1213.32 1781.58 Q1213.32 1788.68 1215.12 1792.25 Q1216.95 1795.79 1220.56 1795.79 Q1224.2 1795.79 1226 1792.25 Q1227.83 1788.68 1227.83 1781.58 Q1227.83 1774.45 1226 1770.9 Q1224.2 1767.34 1220.56 1767.34 M1220.56 1763.64 Q1226.37 1763.64 1229.43 1768.24 Q1232.51 1772.83 1232.51 1781.58 Q1232.51 1790.3 1229.43 1794.91 Q1226.37 1799.49 1220.56 1799.49 Q1214.75 1799.49 1211.67 1794.91 Q1208.62 1790.3 1208.62 1781.58 Q1208.62 1772.83 1211.67 1768.24 Q1214.75 1763.64 1220.56 1763.64 Z" fill="#000000" fill-rule="nonzero" fill-opacity="1" /><path clip-path="url(#clip280)" d="M1650.08 1780.19 Q1653.44 1780.9 1655.32 1783.17 Q1657.21 1785.44 1657.21 1788.77 Q1657.21 1793.89 1653.7 1796.69 Q1650.18 1799.49 1643.7 1799.49 Q1641.52 1799.49 1639.21 1799.05 Q1636.91 1798.64 1634.46 1797.78 L1634.46 1793.27 Q1636.4 1794.4 1638.72 1794.98 Q1641.03 1795.56 1643.56 1795.56 Q1647.96 1795.56 1650.25 1793.82 Q1652.56 1792.08 1652.56 1788.77 Q1652.56 1785.72 1650.41 1784.01 Q1648.28 1782.27 1644.46 1782.27 L1640.43 1782.27 L1640.43 1778.43 L1644.64 1778.43 Q1648.09 1778.43 1649.92 1777.06 Q1651.75 1775.67 1651.75 1773.08 Q1651.75 1770.42 1649.85 1769.01 Q1647.98 1767.57 1644.46 1767.57 Q1642.54 1767.57 1640.34 1767.99 Q1638.14 1768.4 1635.5 1769.28 L1635.5 1765.12 Q1638.16 1764.38 1640.48 1764.01 Q1642.82 1763.64 1644.88 1763.64 Q1650.2 1763.64 1653.3 1766.07 Q1656.4 1768.47 1656.4 1772.59 Q1656.4 1775.46 1654.76 1777.46 Q1653.12 1779.42 1650.08 1780.19 Z" fill="#000000" fill-rule="nonzero" fill-opacity="1" /><path clip-path="url(#clip280)" d="M1676.08 1767.34 Q1672.47 1767.34 1670.64 1770.9 Q1668.83 1774.45 1668.83 1781.58 Q1668.83 1788.68 1670.64 1792.25 Q1672.47 1795.79 1676.08 1795.79 Q1679.71 1795.79 1681.52 1792.25 Q1683.35 1788.68 1683.35 1781.58 Q1683.35 1774.45 1681.52 1770.9 Q1679.71 1767.34 1676.08 1767.34 M1676.08 1763.64 Q1681.89 1763.64 1684.95 1768.24 Q1688.02 1772.83 1688.02 1781.58 Q1688.02 1790.3 1684.95 1794.91 Q1681.89 1799.49 1676.08 1799.49 Q1670.27 1799.49 1667.19 1794.91 Q1664.14 1790.3 1664.14 1781.58 Q1664.14 1772.83 1667.19 1768.24 Q1670.27 1763.64 1676.08 1763.64 Z" fill="#000000" fill-rule="nonzero" fill-opacity="1" /><path clip-path="url(#clip280)" d="M2105 1768.34 L2093.2 1786.78 L2105 1786.78 L2105 1768.34 M2103.77 1764.26 L2109.65 1764.26 L2109.65 1786.78 L2114.58 1786.78 L2114.58 1790.67 L2109.65 1790.67 L2109.65 1798.82 L2105 1798.82 L2105 1790.67 L2089.4 1790.67 L2089.4 1786.16 L2103.77 1764.26 Z" fill="#000000" fill-rule="nonzero" fill-opacity="1" /><path clip-path="url(#clip280)" d="M2132.32 1767.34 Q2128.7 1767.34 2126.88 1770.9 Q2125.07 1774.45 2125.07 1781.58 Q2125.07 1788.68 2126.88 1792.25 Q2128.7 1795.79 2132.32 1795.79 Q2135.95 1795.79 2137.76 1792.25 Q2139.58 1788.68 2139.58 1781.58 Q2139.58 1774.45 2137.76 1770.9 Q2135.95 1767.34 2132.32 1767.34 M2132.32 1763.64 Q2138.13 1763.64 2141.18 1768.24 Q2144.26 1772.83 2144.26 1781.58 Q2144.26 1790.3 2141.18 1794.91 Q2138.13 1799.49 2132.32 1799.49 Q2126.51 1799.49 2123.43 1794.91 Q2120.37 1790.3 2120.37 1781.58 Q2120.37 1772.83 2123.43 1768.24 Q2126.51 1763.64 2132.32 1763.64 Z" fill="#000000" fill-rule="nonzero" fill-opacity="1" /><path clip-path="url(#clip280)" d="M2547.12 1764.26 L2565.47 1764.26 L2565.47 1768.2 L2551.4 1768.2 L2551.4 1776.67 Q2552.42 1776.32 2553.44 1776.16 Q2554.45 1775.97 2555.47 1775.97 Q2561.26 1775.97 2564.64 1779.15 Q2568.02 1782.32 2568.02 1787.73 Q2568.02 1793.31 2564.55 1796.41 Q2561.08 1799.49 2554.76 1799.49 Q2552.58 1799.49 2550.31 1799.12 Q2548.07 1798.75 2545.66 1798.01 L2545.66 1793.31 Q2547.74 1794.45 2549.96 1795 Q2552.19 1795.56 2554.66 1795.56 Q2558.67 1795.56 2561.01 1793.45 Q2563.34 1791.34 2563.34 1787.73 Q2563.34 1784.12 2561.01 1782.02 Q2558.67 1779.91 2554.66 1779.91 Q2552.79 1779.91 2550.91 1780.33 Q2549.06 1780.74 2547.12 1781.62 L2547.12 1764.26 Z" fill="#000000" fill-rule="nonzero" fill-opacity="1" /><path clip-path="url(#clip280)" d="M2587.23 1767.34 Q2583.62 1767.34 2581.79 1770.9 Q2579.99 1774.45 2579.99 1781.58 Q2579.99 1788.68 2581.79 1792.25 Q2583.62 1795.79 2587.23 1795.79 Q2590.87 1795.79 2592.67 1792.25 Q2594.5 1788.68 2594.5 1781.58 Q2594.5 1774.45 2592.67 1770.9 Q2590.87 1767.34 2587.23 1767.34 M2587.23 1763.64 Q2593.04 1763.64 2596.1 1768.24 Q2599.18 1772.83 2599.18 1781.58 Q2599.18 1790.3 2596.1 1794.91 Q2593.04 1799.49 2587.23 1799.49 Q2581.42 1799.49 2578.34 1794.91 Q2575.29 1790.3 2575.29 1781.58 Q2575.29 1772.83 2578.34 1768.24 Q2581.42 1763.64 2587.23 1763.64 Z" fill="#000000" fill-rule="nonzero" fill-opacity="1" /><path clip-path="url(#clip280)" d="M1150.05 1835.78 L1190.25 1835.78 L1190.25 1841.19 L1173.38 1841.19 L1173.38 1883.3 L1166.92 1883.3 L1166.92 1841.19 L1150.05 1841.19 L1150.05 1835.78 Z" fill="#000000" fill-rule="nonzero" fill-opacity="1" /><path clip-path="url(#clip280)" d="M1194.19 1847.65 L1200.05 1847.65 L1200.05 1883.3 L1194.19 1883.3 L1194.19 1847.65 M1194.19 1833.78 L1200.05 1833.78 L1200.05 1841.19 L1194.19 1841.19 L1194.19 1833.78 Z" fill="#000000" fill-rule="nonzero" fill-opacity="1" /><path clip-path="url(#clip280)" d="M1240.06 1854.5 Q1242.25 1850.55 1245.31 1848.67 Q1248.37 1846.79 1252.5 1846.79 Q1258.07 1846.79 1261.1 1850.71 Q1264.12 1854.59 1264.12 1861.78 L1264.12 1883.3 L1258.23 1883.3 L1258.23 1861.98 Q1258.23 1856.85 1256.42 1854.37 Q1254.6 1851.89 1250.88 1851.89 Q1246.33 1851.89 1243.69 1854.91 Q1241.04 1857.93 1241.04 1863.15 L1241.04 1883.3 L1235.16 1883.3 L1235.16 1861.98 Q1235.16 1856.82 1233.34 1854.37 Q1231.53 1851.89 1227.74 1851.89 Q1223.25 1851.89 1220.61 1854.94 Q1217.97 1857.97 1217.97 1863.15 L1217.97 1883.3 L1212.08 1883.3 L1212.08 1847.65 L1217.97 1847.65 L1217.97 1853.19 Q1219.97 1849.91 1222.78 1848.35 Q1225.58 1846.79 1229.43 1846.79 Q1233.31 1846.79 1236.02 1848.77 Q1238.75 1850.74 1240.06 1854.5 Z" fill="#000000" fill-rule="nonzero" fill-opacity="1" /><path clip-path="url(#clip280)" d="M1306.29 1864.01 L1306.29 1866.88 L1279.37 1866.88 Q1279.75 1872.92 1282.99 1876.11 Q1286.27 1879.26 1292.1 1879.26 Q1295.47 1879.26 1298.62 1878.43 Q1301.81 1877.6 1304.92 1875.95 L1304.92 1881.49 Q1301.77 1882.82 1298.46 1883.52 Q1295.15 1884.22 1291.75 1884.22 Q1283.22 1884.22 1278.22 1879.26 Q1273.26 1874.29 1273.26 1865.83 Q1273.26 1857.07 1277.97 1851.95 Q1282.71 1846.79 1290.73 1846.79 Q1297.92 1846.79 1302.09 1851.44 Q1306.29 1856.06 1306.29 1864.01 M1300.44 1862.29 Q1300.37 1857.49 1297.73 1854.62 Q1295.12 1851.76 1290.79 1851.76 Q1285.89 1851.76 1282.93 1854.53 Q1280 1857.3 1279.56 1862.33 L1300.44 1862.29 Z" fill="#000000" fill-rule="nonzero" fill-opacity="1" /><path clip-path="url(#clip280)" d="M1359.35 1848.7 L1359.35 1854.24 Q1356.87 1852.97 1354.2 1852.33 Q1351.52 1851.7 1348.66 1851.7 Q1344.3 1851.7 1342.1 1853.03 Q1339.94 1854.37 1339.94 1857.04 Q1339.94 1859.08 1341.5 1860.26 Q1343.06 1861.4 1347.77 1862.45 L1349.77 1862.9 Q1356.01 1864.24 1358.62 1866.69 Q1361.26 1869.11 1361.26 1873.47 Q1361.26 1878.43 1357.31 1881.33 Q1353.4 1884.22 1346.52 1884.22 Q1343.66 1884.22 1340.54 1883.65 Q1337.45 1883.11 1334.02 1882 L1334.02 1875.95 Q1337.26 1877.64 1340.41 1878.49 Q1343.56 1879.32 1346.65 1879.32 Q1350.79 1879.32 1353.02 1877.92 Q1355.25 1876.49 1355.25 1873.91 Q1355.25 1871.52 1353.62 1870.25 Q1352.03 1868.98 1346.59 1867.8 L1344.55 1867.32 Q1339.11 1866.18 1336.69 1863.82 Q1334.27 1861.43 1334.27 1857.3 Q1334.27 1852.27 1337.84 1849.53 Q1341.4 1846.79 1347.96 1846.79 Q1351.2 1846.79 1354.07 1847.27 Q1356.93 1847.75 1359.35 1848.7 Z" fill="#000000" fill-rule="nonzero" fill-opacity="1" /><path clip-path="url(#clip280)" d="M1376.38 1837.53 L1376.38 1847.65 L1388.44 1847.65 L1388.44 1852.2 L1376.38 1852.2 L1376.38 1871.56 Q1376.38 1875.92 1377.56 1877.16 Q1378.77 1878.4 1382.43 1878.4 L1388.44 1878.4 L1388.44 1883.3 L1382.43 1883.3 Q1375.65 1883.3 1373.07 1880.79 Q1370.49 1878.24 1370.49 1871.56 L1370.49 1852.2 L1366.19 1852.2 L1366.19 1847.65 L1370.49 1847.65 L1370.49 1837.53 L1376.38 1837.53 Z" fill="#000000" fill-rule="nonzero" fill-opacity="1" /><path clip-path="url(#clip280)" d="M1426.64 1864.01 L1426.64 1866.88 L1399.71 1866.88 Q1400.09 1872.92 1403.34 1876.11 Q1406.62 1879.26 1412.44 1879.26 Q1415.82 1879.26 1418.97 1878.43 Q1422.15 1877.6 1425.27 1875.95 L1425.27 1881.49 Q1422.12 1882.82 1418.81 1883.52 Q1415.5 1884.22 1412.09 1884.22 Q1403.56 1884.22 1398.56 1879.26 Q1393.6 1874.29 1393.6 1865.83 Q1393.6 1857.07 1398.31 1851.95 Q1403.05 1846.79 1411.07 1846.79 Q1418.27 1846.79 1422.44 1851.44 Q1426.64 1856.06 1426.64 1864.01 M1420.78 1862.29 Q1420.72 1857.49 1418.08 1854.62 Q1415.47 1851.76 1411.14 1851.76 Q1406.23 1851.76 1403.27 1854.53 Q1400.35 1857.3 1399.9 1862.33 L1420.78 1862.29 Z" fill="#000000" fill-rule="nonzero" fill-opacity="1" /><path clip-path="url(#clip280)" d="M1441.91 1877.95 L1441.91 1896.86 L1436.03 1896.86 L1436.03 1847.65 L1441.91 1847.65 L1441.91 1853.06 Q1443.76 1849.88 1446.56 1848.35 Q1449.39 1846.79 1453.31 1846.79 Q1459.8 1846.79 1463.84 1851.95 Q1467.92 1857.11 1467.92 1865.51 Q1467.92 1873.91 1463.84 1879.07 Q1459.8 1884.22 1453.31 1884.22 Q1449.39 1884.22 1446.56 1882.7 Q1443.76 1881.14 1441.91 1877.95 M1461.84 1865.51 Q1461.84 1859.05 1459.17 1855.39 Q1456.52 1851.7 1451.88 1851.7 Q1447.23 1851.7 1444.56 1855.39 Q1441.91 1859.05 1441.91 1865.51 Q1441.91 1871.97 1444.56 1875.66 Q1447.23 1879.32 1451.88 1879.32 Q1456.52 1879.32 1459.17 1875.66 Q1461.84 1871.97 1461.84 1865.51 Z" fill="#000000" fill-rule="nonzero" fill-opacity="1" /><path clip-path="url(#clip280)" d="M1512.41 1833.84 Q1508.15 1841.16 1506.08 1848.32 Q1504.01 1855.48 1504.01 1862.84 Q1504.01 1870.19 1506.08 1877.41 Q1508.18 1884.61 1512.41 1891.89 L1507.32 1891.89 Q1502.55 1884.41 1500.16 1877.19 Q1497.81 1869.96 1497.81 1862.84 Q1497.81 1855.74 1500.16 1848.54 Q1502.52 1841.35 1507.32 1833.84 L1512.41 1833.84 Z" fill="#000000" fill-rule="nonzero" fill-opacity="1" /><path clip-path="url(#clip280)" d="M1538.61 1886.61 Q1536.13 1892.98 1533.77 1894.92 Q1531.42 1896.86 1527.47 1896.86 L1522.79 1896.86 L1522.79 1891.96 L1526.23 1891.96 Q1528.65 1891.96 1529.98 1890.81 Q1531.32 1889.67 1532.94 1885.4 L1533.99 1882.73 L1519.58 1847.65 L1525.78 1847.65 L1536.92 1875.53 L1548.06 1847.65 L1554.27 1847.65 L1538.61 1886.61 Z" fill="#000000" fill-rule="nonzero" fill-opacity="1" /><path clip-path="url(#clip280)" d="M1592.85 1864.01 L1592.85 1866.88 L1565.92 1866.88 Q1566.3 1872.92 1569.55 1876.11 Q1572.83 1879.26 1578.65 1879.26 Q1582.02 1879.26 1585.17 1878.43 Q1588.36 1877.6 1591.48 1875.95 L1591.48 1881.49 Q1588.33 1882.82 1585.02 1883.52 Q1581.71 1884.22 1578.3 1884.22 Q1569.77 1884.22 1564.77 1879.26 Q1559.81 1874.29 1559.81 1865.83 Q1559.81 1857.07 1564.52 1851.95 Q1569.26 1846.79 1577.28 1846.79 Q1584.47 1846.79 1588.64 1851.44 Q1592.85 1856.06 1592.85 1864.01 M1586.99 1862.29 Q1586.93 1857.49 1584.28 1854.62 Q1581.67 1851.76 1577.35 1851.76 Q1572.44 1851.76 1569.48 1854.53 Q1566.56 1857.3 1566.11 1862.33 L1586.99 1862.29 Z" fill="#000000" fill-rule="nonzero" fill-opacity="1" /><path clip-path="url(#clip280)" d="M1618.66 1865.38 Q1611.56 1865.38 1608.82 1867 Q1606.09 1868.63 1606.09 1872.54 Q1606.09 1875.66 1608.12 1877.51 Q1610.19 1879.32 1613.73 1879.32 Q1618.59 1879.32 1621.52 1875.88 Q1624.48 1872.42 1624.48 1866.69 L1624.48 1865.38 L1618.66 1865.38 M1630.34 1862.96 L1630.34 1883.3 L1624.48 1883.3 L1624.48 1877.89 Q1622.48 1881.14 1619.49 1882.7 Q1616.49 1884.22 1612.17 1884.22 Q1606.69 1884.22 1603.44 1881.17 Q1600.23 1878.08 1600.23 1872.92 Q1600.23 1866.91 1604.24 1863.85 Q1608.28 1860.8 1616.27 1860.8 L1624.48 1860.8 L1624.48 1860.23 Q1624.48 1856.18 1621.81 1853.99 Q1619.17 1851.76 1614.36 1851.76 Q1611.31 1851.76 1608.41 1852.49 Q1605.51 1853.22 1602.84 1854.69 L1602.84 1849.28 Q1606.05 1848.03 1609.08 1847.43 Q1612.1 1846.79 1614.97 1846.79 Q1622.7 1846.79 1626.52 1850.8 Q1630.34 1854.81 1630.34 1862.96 Z" fill="#000000" fill-rule="nonzero" fill-opacity="1" /><path clip-path="url(#clip280)" d="M1663.06 1853.13 Q1662.07 1852.55 1660.89 1852.3 Q1659.75 1852.01 1658.35 1852.01 Q1653.38 1852.01 1650.71 1855.26 Q1648.07 1858.47 1648.07 1864.52 L1648.07 1883.3 L1642.18 1883.3 L1642.18 1847.65 L1648.07 1847.65 L1648.07 1853.19 Q1649.91 1849.94 1652.87 1848.39 Q1655.83 1846.79 1660.07 1846.79 Q1660.67 1846.79 1661.4 1846.89 Q1662.14 1846.95 1663.03 1847.11 L1663.06 1853.13 Z" fill="#000000" fill-rule="nonzero" fill-opacity="1" /><path clip-path="url(#clip280)" d="M1691.93 1848.7 L1691.93 1854.24 Q1689.45 1852.97 1686.77 1852.33 Q1684.1 1851.7 1681.23 1851.7 Q1676.87 1851.7 1674.68 1853.03 Q1672.51 1854.37 1672.51 1857.04 Q1672.51 1859.08 1674.07 1860.26 Q1675.63 1861.4 1680.34 1862.45 L1682.35 1862.9 Q1688.59 1864.24 1691.2 1866.69 Q1693.84 1869.11 1693.84 1873.47 Q1693.84 1878.43 1689.89 1881.33 Q1685.98 1884.22 1679.1 1884.22 Q1676.24 1884.22 1673.12 1883.65 Q1670.03 1883.11 1666.59 1882 L1666.59 1875.95 Q1669.84 1877.64 1672.99 1878.49 Q1676.14 1879.32 1679.23 1879.32 Q1683.37 1879.32 1685.59 1877.92 Q1687.82 1876.49 1687.82 1873.91 Q1687.82 1871.52 1686.2 1870.25 Q1684.61 1868.98 1679.16 1867.8 L1677.13 1867.32 Q1671.68 1866.18 1669.27 1863.82 Q1666.85 1861.43 1666.85 1857.3 Q1666.85 1852.27 1670.41 1849.53 Q1673.98 1846.79 1680.53 1846.79 Q1683.78 1846.79 1686.64 1847.27 Q1689.51 1847.75 1691.93 1848.7 Z" fill="#000000" fill-rule="nonzero" fill-opacity="1" /><path clip-path="url(#clip280)" d="M1702.24 1833.84 L1707.33 1833.84 Q1712.11 1841.35 1714.46 1848.54 Q1716.85 1855.74 1716.85 1862.84 Q1716.85 1869.96 1714.46 1877.19 Q1712.11 1884.41 1707.33 1891.89 L1702.24 1891.89 Q1706.47 1884.61 1708.54 1877.41 Q1710.64 1870.19 1710.64 1862.84 Q1710.64 1855.48 1708.54 1848.32 Q1706.47 1841.16 1702.24 1833.84 Z" fill="#000000" fill-rule="nonzero" fill-opacity="1" /><polyline clip-path="url(#clip280)" style="stroke:#000000; stroke-linecap:round; stroke-linejoin:round; stroke-width:4; stroke-opacity:1; fill:none" points="226.141,1734.12 226.141,127.792 "/>
<polyline clip-path="url(#clip280)" style="stroke:#000000; stroke-linecap:round; stroke-linejoin:round; stroke-width:4; stroke-opacity:1; fill:none" points="226.141,1734.12 245.038,1734.12 "/>
<polyline clip-path="url(#clip280)" style="stroke:#000000; stroke-linecap:round; stroke-linejoin:round; stroke-width:4; stroke-opacity:1; fill:none" points="226.141,1412.85 245.038,1412.85 "/>
<polyline clip-path="url(#clip280)" style="stroke:#000000; stroke-linecap:round; stroke-linejoin:round; stroke-width:4; stroke-opacity:1; fill:none" points="226.141,1091.59 245.038,1091.59 "/>
<polyline clip-path="url(#clip280)" style="stroke:#000000; stroke-linecap:round; stroke-linejoin:round; stroke-width:4; stroke-opacity:1; fill:none" points="226.141,770.322 245.038,770.322 "/>
<polyline clip-path="url(#clip280)" style="stroke:#000000; stroke-linecap:round; stroke-linejoin:round; stroke-width:4; stroke-opacity:1; fill:none" points="226.141,449.057 245.038,449.057 "/>
<polyline clip-path="url(#clip280)" style="stroke:#000000; stroke-linecap:round; stroke-linejoin:round; stroke-width:4; stroke-opacity:1; fill:none" points="226.141,127.792 245.038,127.792 "/>
<path clip-path="url(#clip280)" d="M128.645 1719.92 Q125.034 1719.92 123.205 1723.48 Q121.4 1727.02 121.4 1734.15 Q121.4 1741.26 123.205 1744.82 Q125.034 1748.36 128.645 1748.36 Q132.279 1748.36 134.085 1744.82 Q135.913 1741.26 135.913 1734.15 Q135.913 1727.02 134.085 1723.48 Q132.279 1719.92 128.645 1719.92 M128.645 1716.21 Q134.455 1716.21 137.511 1720.82 Q140.589 1725.4 140.589 1734.15 Q140.589 1742.88 137.511 1747.48 Q134.455 1752.07 128.645 1752.07 Q122.835 1752.07 119.756 1747.48 Q116.701 1742.88 116.701 1734.15 Q116.701 1725.4 119.756 1720.82 Q122.835 1716.21 128.645 1716.21 Z" fill="#000000" fill-rule="nonzero" fill-opacity="1" /><path clip-path="url(#clip280)" d="M148.807 1745.52 L153.691 1745.52 L153.691 1751.4 L148.807 1751.4 L148.807 1745.52 Z" fill="#000000" fill-rule="nonzero" fill-opacity="1" /><path clip-path="url(#clip280)" d="M173.876 1719.92 Q170.265 1719.92 168.436 1723.48 Q166.631 1727.02 166.631 1734.15 Q166.631 1741.26 168.436 1744.82 Q170.265 1748.36 173.876 1748.36 Q177.51 1748.36 179.316 1744.82 Q181.145 1741.26 181.145 1734.15 Q181.145 1727.02 179.316 1723.48 Q177.51 1719.92 173.876 1719.92 M173.876 1716.21 Q179.686 1716.21 182.742 1720.82 Q185.821 1725.4 185.821 1734.15 Q185.821 1742.88 182.742 1747.48 Q179.686 1752.07 173.876 1752.07 Q168.066 1752.07 164.987 1747.48 Q161.932 1742.88 161.932 1734.15 Q161.932 1725.4 164.987 1720.82 Q168.066 1716.21 173.876 1716.21 Z" fill="#000000" fill-rule="nonzero" fill-opacity="1" /><path clip-path="url(#clip280)" d="M130.242 1398.65 Q126.631 1398.65 124.802 1402.22 Q122.997 1405.76 122.997 1412.89 Q122.997 1419.99 124.802 1423.56 Q126.631 1427.1 130.242 1427.1 Q133.876 1427.1 135.682 1423.56 Q137.511 1419.99 137.511 1412.89 Q137.511 1405.76 135.682 1402.22 Q133.876 1398.65 130.242 1398.65 M130.242 1394.95 Q136.052 1394.95 139.108 1399.55 Q142.187 1404.14 142.187 1412.89 Q142.187 1421.61 139.108 1426.22 Q136.052 1430.8 130.242 1430.8 Q124.432 1430.8 121.353 1426.22 Q118.298 1421.61 118.298 1412.89 Q118.298 1404.14 121.353 1399.55 Q124.432 1394.95 130.242 1394.95 Z" fill="#000000" fill-rule="nonzero" fill-opacity="1" /><path clip-path="url(#clip280)" d="M150.404 1424.25 L155.288 1424.25 L155.288 1430.13 L150.404 1430.13 L150.404 1424.25 Z" fill="#000000" fill-rule="nonzero" fill-opacity="1" /><path clip-path="url(#clip280)" d="M169.501 1426.2 L185.821 1426.2 L185.821 1430.13 L163.876 1430.13 L163.876 1426.2 Q166.538 1423.44 171.122 1418.81 Q175.728 1414.16 176.909 1412.82 Q179.154 1410.29 180.034 1408.56 Q180.936 1406.8 180.936 1405.11 Q180.936 1402.35 178.992 1400.62 Q177.071 1398.88 173.969 1398.88 Q171.77 1398.88 169.316 1399.65 Q166.885 1400.41 164.108 1401.96 L164.108 1397.24 Q166.932 1396.1 169.385 1395.53 Q171.839 1394.95 173.876 1394.95 Q179.247 1394.95 182.441 1397.63 Q185.635 1400.32 185.635 1404.81 Q185.635 1406.94 184.825 1408.86 Q184.038 1410.76 181.932 1413.35 Q181.353 1414.02 178.251 1417.24 Q175.149 1420.43 169.501 1426.2 Z" fill="#000000" fill-rule="nonzero" fill-opacity="1" /><path clip-path="url(#clip280)" d="M128.159 1077.39 Q124.548 1077.39 122.719 1080.95 Q120.913 1084.49 120.913 1091.62 Q120.913 1098.73 122.719 1102.29 Q124.548 1105.83 128.159 1105.83 Q131.793 1105.83 133.599 1102.29 Q135.427 1098.73 135.427 1091.62 Q135.427 1084.49 133.599 1080.95 Q131.793 1077.39 128.159 1077.39 M128.159 1073.68 Q133.969 1073.68 137.025 1078.29 Q140.103 1082.87 140.103 1091.62 Q140.103 1100.35 137.025 1104.96 Q133.969 1109.54 128.159 1109.54 Q122.349 1109.54 119.27 1104.96 Q116.214 1100.35 116.214 1091.62 Q116.214 1082.87 119.27 1078.29 Q122.349 1073.68 128.159 1073.68 Z" fill="#000000" fill-rule="nonzero" fill-opacity="1" /><path clip-path="url(#clip280)" d="M148.321 1102.99 L153.205 1102.99 L153.205 1108.87 L148.321 1108.87 L148.321 1102.99 Z" fill="#000000" fill-rule="nonzero" fill-opacity="1" /><path clip-path="url(#clip280)" d="M176.237 1078.38 L164.432 1096.83 L176.237 1096.83 L176.237 1078.38 M175.01 1074.31 L180.89 1074.31 L180.89 1096.83 L185.821 1096.83 L185.821 1100.72 L180.89 1100.72 L180.89 1108.87 L176.237 1108.87 L176.237 1100.72 L160.636 1100.72 L160.636 1096.21 L175.01 1074.31 Z" fill="#000000" fill-rule="nonzero" fill-opacity="1" /><path clip-path="url(#clip280)" d="M128.483 756.121 Q124.872 756.121 123.043 759.686 Q121.238 763.227 121.238 770.357 Q121.238 777.463 123.043 781.028 Q124.872 784.57 128.483 784.57 Q132.117 784.57 133.923 781.028 Q135.751 777.463 135.751 770.357 Q135.751 763.227 133.923 759.686 Q132.117 756.121 128.483 756.121 M128.483 752.417 Q134.293 752.417 137.349 757.024 Q140.427 761.607 140.427 770.357 Q140.427 779.084 137.349 783.69 Q134.293 788.273 128.483 788.273 Q122.673 788.273 119.594 783.69 Q116.539 779.084 116.539 770.357 Q116.539 761.607 119.594 757.024 Q122.673 752.417 128.483 752.417 Z" fill="#000000" fill-rule="nonzero" fill-opacity="1" /><path clip-path="url(#clip280)" d="M148.645 781.722 L153.529 781.722 L153.529 787.602 L148.645 787.602 L148.645 781.722 Z" fill="#000000" fill-rule="nonzero" fill-opacity="1" /><path clip-path="url(#clip280)" d="M174.293 768.459 Q171.145 768.459 169.293 770.611 Q167.464 772.764 167.464 776.514 Q167.464 780.241 169.293 782.417 Q171.145 784.57 174.293 784.57 Q177.441 784.57 179.27 782.417 Q181.122 780.241 181.122 776.514 Q181.122 772.764 179.27 770.611 Q177.441 768.459 174.293 768.459 M183.575 753.806 L183.575 758.065 Q181.816 757.232 180.01 756.792 Q178.228 756.352 176.469 756.352 Q171.839 756.352 169.385 759.477 Q166.955 762.602 166.608 768.922 Q167.973 766.908 170.034 765.843 Q172.094 764.755 174.571 764.755 Q179.779 764.755 182.788 767.926 Q185.821 771.074 185.821 776.514 Q185.821 781.838 182.672 785.056 Q179.524 788.273 174.293 788.273 Q168.297 788.273 165.126 783.69 Q161.955 779.084 161.955 770.357 Q161.955 762.162 165.844 757.301 Q169.733 752.417 176.284 752.417 Q178.043 752.417 179.825 752.764 Q181.631 753.112 183.575 753.806 Z" fill="#000000" fill-rule="nonzero" fill-opacity="1" /><path clip-path="url(#clip280)" d="M128.738 434.856 Q125.126 434.856 123.298 438.421 Q121.492 441.962 121.492 449.092 Q121.492 456.198 123.298 459.763 Q125.126 463.305 128.738 463.305 Q132.372 463.305 134.177 459.763 Q136.006 456.198 136.006 449.092 Q136.006 441.962 134.177 438.421 Q132.372 434.856 128.738 434.856 M128.738 431.152 Q134.548 431.152 137.603 435.759 Q140.682 440.342 140.682 449.092 Q140.682 457.819 137.603 462.425 Q134.548 467.008 128.738 467.008 Q122.927 467.008 119.849 462.425 Q116.793 457.819 116.793 449.092 Q116.793 440.342 119.849 435.759 Q122.927 431.152 128.738 431.152 Z" fill="#000000" fill-rule="nonzero" fill-opacity="1" /><path clip-path="url(#clip280)" d="M148.899 460.457 L153.784 460.457 L153.784 466.337 L148.899 466.337 L148.899 460.457 Z" fill="#000000" fill-rule="nonzero" fill-opacity="1" /><path clip-path="url(#clip280)" d="M173.969 449.925 Q170.635 449.925 168.714 451.708 Q166.816 453.49 166.816 456.615 Q166.816 459.74 168.714 461.522 Q170.635 463.305 173.969 463.305 Q177.302 463.305 179.223 461.522 Q181.145 459.717 181.145 456.615 Q181.145 453.49 179.223 451.708 Q177.325 449.925 173.969 449.925 M169.293 447.934 Q166.284 447.194 164.594 445.134 Q162.927 443.073 162.927 440.11 Q162.927 435.967 165.867 433.559 Q168.83 431.152 173.969 431.152 Q179.131 431.152 182.071 433.559 Q185.01 435.967 185.01 440.11 Q185.01 443.073 183.321 445.134 Q181.654 447.194 178.668 447.934 Q182.047 448.721 183.922 451.013 Q185.821 453.305 185.821 456.615 Q185.821 461.638 182.742 464.323 Q179.686 467.008 173.969 467.008 Q168.251 467.008 165.173 464.323 Q162.117 461.638 162.117 456.615 Q162.117 453.305 164.015 451.013 Q165.913 448.721 169.293 447.934 M167.58 440.55 Q167.58 443.235 169.247 444.74 Q170.936 446.245 173.969 446.245 Q176.978 446.245 178.668 444.74 Q180.381 443.235 180.381 440.55 Q180.381 437.865 178.668 436.36 Q176.978 434.856 173.969 434.856 Q170.936 434.856 169.247 436.36 Q167.58 437.865 167.58 440.55 Z" fill="#000000" fill-rule="nonzero" fill-opacity="1" /><path clip-path="url(#clip280)" d="M119.455 141.137 L127.094 141.137 L127.094 114.771 L118.784 116.438 L118.784 112.179 L127.048 110.512 L131.724 110.512 L131.724 141.137 L139.362 141.137 L139.362 145.072 L119.455 145.072 L119.455 141.137 Z" fill="#000000" fill-rule="nonzero" fill-opacity="1" /><path clip-path="url(#clip280)" d="M148.807 139.193 L153.691 139.193 L153.691 145.072 L148.807 145.072 L148.807 139.193 Z" fill="#000000" fill-rule="nonzero" fill-opacity="1" /><path clip-path="url(#clip280)" d="M173.876 113.591 Q170.265 113.591 168.436 117.156 Q166.631 120.697 166.631 127.827 Q166.631 134.933 168.436 138.498 Q170.265 142.04 173.876 142.04 Q177.51 142.04 179.316 138.498 Q181.145 134.933 181.145 127.827 Q181.145 120.697 179.316 117.156 Q177.51 113.591 173.876 113.591 M173.876 109.887 Q179.686 109.887 182.742 114.494 Q185.821 119.077 185.821 127.827 Q185.821 136.554 182.742 141.16 Q179.686 145.743 173.876 145.743 Q168.066 145.743 164.987 141.16 Q161.932 136.554 161.932 127.827 Q161.932 119.077 164.987 114.494 Q168.066 109.887 173.876 109.887 Z" fill="#000000" fill-rule="nonzero" fill-opacity="1" /><path clip-path="url(#clip280)" d="M19.402 1086.72 L37.2578 1086.72 L37.2578 1078.64 Q37.2578 1074.15 34.9343 1071.7 Q32.6108 1069.25 28.314 1069.25 Q24.0489 1069.25 21.7255 1071.7 Q19.402 1074.15 19.402 1078.64 L19.402 1086.72 M14.1184 1093.15 L14.1184 1078.64 Q14.1184 1070.65 17.7469 1066.58 Q21.3435 1062.47 28.314 1062.47 Q35.3481 1062.47 38.9447 1066.58 Q42.5413 1070.65 42.5413 1078.64 L42.5413 1086.72 L61.6384 1086.72 L61.6384 1093.15 L14.1184 1093.15 Z" fill="#000000" fill-rule="nonzero" fill-opacity="1" /><path clip-path="url(#clip280)" d="M31.465 1034.59 Q30.8921 1035.57 30.6375 1036.75 Q30.351 1037.9 30.351 1039.3 Q30.351 1044.26 33.5975 1046.94 Q36.8122 1049.58 42.8596 1049.58 L61.6384 1049.58 L61.6384 1055.47 L25.9905 1055.47 L25.9905 1049.58 L31.5287 1049.58 Q28.2821 1047.73 26.7225 1044.77 Q25.1311 1041.81 25.1311 1037.58 Q25.1311 1036.98 25.2266 1036.24 Q25.2903 1035.51 25.4494 1034.62 L31.465 1034.59 Z" fill="#000000" fill-rule="nonzero" fill-opacity="1" /><path clip-path="url(#clip280)" d="M30.0964 1016.06 Q30.0964 1020.77 33.7885 1023.51 Q37.4488 1026.25 43.8463 1026.25 Q50.2438 1026.25 53.9359 1023.54 Q57.5962 1020.81 57.5962 1016.06 Q57.5962 1011.39 53.9041 1008.65 Q50.212 1005.91 43.8463 1005.91 Q37.5124 1005.91 33.8203 1008.65 Q30.0964 1011.39 30.0964 1016.06 M25.1311 1016.06 Q25.1311 1008.43 30.0964 1004.06 Q35.0616 999.704 43.8463 999.704 Q52.5991 999.704 57.5962 1004.06 Q62.5615 1008.43 62.5615 1016.06 Q62.5615 1023.73 57.5962 1028.1 Q52.5991 1032.42 43.8463 1032.42 Q35.0616 1032.42 30.0964 1028.1 Q25.1311 1023.73 25.1311 1016.06 Z" fill="#000000" fill-rule="nonzero" fill-opacity="1" /><path clip-path="url(#clip280)" d="M56.2912 984.331 L75.1974 984.331 L75.1974 990.219 L25.9905 990.219 L25.9905 984.331 L31.4013 984.331 Q28.2185 982.485 26.6907 979.684 Q25.1311 976.851 25.1311 972.936 Q25.1311 966.443 30.2873 962.401 Q35.4436 958.327 43.8463 958.327 Q52.249 958.327 57.4052 962.401 Q62.5615 966.443 62.5615 972.936 Q62.5615 976.851 61.0337 979.684 Q59.4741 982.485 56.2912 984.331 M43.8463 964.406 Q37.3851 964.406 33.7248 967.08 Q30.0327 969.722 30.0327 974.369 Q30.0327 979.016 33.7248 981.689 Q37.3851 984.331 43.8463 984.331 Q50.3075 984.331 53.9996 981.689 Q57.6599 979.016 57.6599 974.369 Q57.6599 969.722 53.9996 967.08 Q50.3075 964.406 43.8463 964.406 Z" fill="#000000" fill-rule="nonzero" fill-opacity="1" /><path clip-path="url(#clip280)" d="M30.0964 934.806 Q30.0964 939.516 33.7885 942.254 Q37.4488 944.991 43.8463 944.991 Q50.2438 944.991 53.9359 942.286 Q57.5962 939.548 57.5962 934.806 Q57.5962 930.127 53.9041 927.39 Q50.212 924.653 43.8463 924.653 Q37.5124 924.653 33.8203 927.39 Q30.0964 930.127 30.0964 934.806 M25.1311 934.806 Q25.1311 927.167 30.0964 922.806 Q35.0616 918.446 43.8463 918.446 Q52.5991 918.446 57.5962 922.806 Q62.5615 927.167 62.5615 934.806 Q62.5615 942.476 57.5962 946.837 Q52.5991 951.166 43.8463 951.166 Q35.0616 951.166 30.0964 946.837 Q25.1311 942.476 25.1311 934.806 Z" fill="#000000" fill-rule="nonzero" fill-opacity="1" /><path clip-path="url(#clip280)" d="M31.465 888.082 Q30.8921 889.068 30.6375 890.246 Q30.351 891.392 30.351 892.792 Q30.351 897.757 33.5975 900.431 Q36.8122 903.073 42.8596 903.073 L61.6384 903.073 L61.6384 908.961 L25.9905 908.961 L25.9905 903.073 L31.5287 903.073 Q28.2821 901.227 26.7225 898.267 Q25.1311 895.307 25.1311 891.073 Q25.1311 890.469 25.2266 889.737 Q25.2903 889.005 25.4494 888.113 L31.465 888.082 Z" fill="#000000" fill-rule="nonzero" fill-opacity="1" /><path clip-path="url(#clip280)" d="M15.869 876.146 L25.9905 876.146 L25.9905 864.083 L30.542 864.083 L30.542 876.146 L49.8937 876.146 Q54.2542 876.146 55.4955 874.968 Q56.7368 873.759 56.7368 870.098 L56.7368 864.083 L61.6384 864.083 L61.6384 870.098 Q61.6384 876.878 59.124 879.456 Q56.5777 882.034 49.8937 882.034 L30.542 882.034 L30.542 886.331 L25.9905 886.331 L25.9905 882.034 L15.869 882.034 L15.869 876.146 Z" fill="#000000" fill-rule="nonzero" fill-opacity="1" /><path clip-path="url(#clip280)" d="M25.9905 856.38 L25.9905 850.524 L61.6384 850.524 L61.6384 856.38 L25.9905 856.38 M12.1132 856.38 L12.1132 850.524 L19.5293 850.524 L19.5293 856.38 L12.1132 856.38 Z" fill="#000000" fill-rule="nonzero" fill-opacity="1" /><path clip-path="url(#clip280)" d="M30.0964 824.456 Q30.0964 829.167 33.7885 831.904 Q37.4488 834.641 43.8463 834.641 Q50.2438 834.641 53.9359 831.936 Q57.5962 829.199 57.5962 824.456 Q57.5962 819.777 53.9041 817.04 Q50.212 814.303 43.8463 814.303 Q37.5124 814.303 33.8203 817.04 Q30.0964 819.777 30.0964 824.456 M25.1311 824.456 Q25.1311 816.817 30.0964 812.457 Q35.0616 808.096 43.8463 808.096 Q52.5991 808.096 57.5962 812.457 Q62.5615 816.817 62.5615 824.456 Q62.5615 832.127 57.5962 836.487 Q52.5991 840.816 43.8463 840.816 Q35.0616 840.816 30.0964 836.487 Q25.1311 832.127 25.1311 824.456 Z" fill="#000000" fill-rule="nonzero" fill-opacity="1" /><path clip-path="url(#clip280)" d="M40.1224 768.756 L61.6384 768.756 L61.6384 774.613 L40.3133 774.613 Q35.2526 774.613 32.7381 776.586 Q30.2237 778.56 30.2237 782.506 Q30.2237 787.249 33.2474 789.986 Q36.2711 792.723 41.491 792.723 L61.6384 792.723 L61.6384 798.612 L25.9905 798.612 L25.9905 792.723 L31.5287 792.723 Q28.314 790.623 26.7225 787.79 Q25.1311 784.925 25.1311 781.201 Q25.1311 775.058 28.9505 771.907 Q32.7381 768.756 40.1224 768.756 Z" fill="#000000" fill-rule="nonzero" fill-opacity="1" /><path clip-path="url(#clip280)" d="M943.431 14.0809 L943.431 22.0612 Q938.772 19.8332 934.64 18.7395 Q930.508 17.6457 926.66 17.6457 Q919.976 17.6457 916.33 20.2383 Q912.725 22.8309 912.725 27.611 Q912.725 31.6214 915.115 33.6873 Q917.545 35.7128 924.27 36.9686 L929.212 37.9813 Q938.367 39.7232 942.701 44.1387 Q947.076 48.5136 947.076 55.8863 Q947.076 64.6767 941.162 69.2137 Q935.288 73.7508 923.905 73.7508 Q919.611 73.7508 914.75 72.7785 Q909.93 71.8063 904.744 69.9024 L904.744 61.4765 Q909.727 64.2716 914.507 65.6895 Q919.287 67.1073 923.905 67.1073 Q930.913 67.1073 934.721 64.3527 Q938.529 61.598 938.529 56.4939 Q938.529 52.0379 935.774 49.5264 Q933.06 47.0148 926.822 45.759 L921.839 44.7868 Q912.684 42.9639 908.593 39.075 Q904.501 35.1862 904.501 28.2591 Q904.501 20.2383 910.132 15.6203 Q915.803 11.0023 925.728 11.0023 Q929.982 11.0023 934.397 11.7719 Q938.813 12.5416 943.431 14.0809 Z" fill="#000000" fill-rule="nonzero" fill-opacity="1" /><path clip-path="url(#clip280)" d="M966.885 14.324 L966.885 27.2059 L982.238 27.2059 L982.238 32.9987 L966.885 32.9987 L966.885 57.6282 Q966.885 63.1779 968.384 64.7578 Q969.924 66.3376 974.582 66.3376 L982.238 66.3376 L982.238 72.576 L974.582 72.576 Q965.954 72.576 962.672 69.3758 Q959.391 66.1351 959.391 57.6282 L959.391 32.9987 L953.922 32.9987 L953.922 27.2059 L959.391 27.2059 L959.391 14.324 L966.885 14.324 Z" fill="#000000" fill-rule="nonzero" fill-opacity="1" /><path clip-path="url(#clip280)" d="M1012.66 49.7694 Q1003.63 49.7694 1000.14 51.8354 Q996.659 53.9013 996.659 58.8839 Q996.659 62.8538 999.252 65.2034 Q1001.89 67.5124 1006.38 67.5124 Q1012.58 67.5124 1016.31 63.1374 Q1020.07 58.7219 1020.07 51.4303 L1020.07 49.7694 L1012.66 49.7694 M1027.53 46.6907 L1027.53 72.576 L1020.07 72.576 L1020.07 65.6895 Q1017.52 69.8214 1013.71 71.8063 Q1009.91 73.7508 1004.4 73.7508 Q997.429 73.7508 993.297 69.8619 Q989.206 65.9325 989.206 59.3701 Q989.206 51.7138 994.31 47.825 Q999.455 43.9361 1009.62 43.9361 L1020.07 43.9361 L1020.07 43.2069 Q1020.07 38.0623 1016.67 35.2672 Q1013.31 32.4315 1007.19 32.4315 Q1003.3 32.4315 999.617 33.3632 Q995.93 34.295 992.528 36.1584 L992.528 29.2718 Q996.619 27.692 1000.47 26.9223 Q1004.32 26.1121 1007.96 26.1121 Q1017.81 26.1121 1022.67 31.2163 Q1027.53 36.3204 1027.53 46.6907 Z" fill="#000000" fill-rule="nonzero" fill-opacity="1" /><path clip-path="url(#clip280)" d="M1072.74 49.3643 Q1072.74 41.2625 1069.37 36.8065 Q1066.05 32.3505 1060.02 32.3505 Q1054.02 32.3505 1050.66 36.8065 Q1047.34 41.2625 1047.34 49.3643 Q1047.34 57.4256 1050.66 61.8816 Q1054.02 66.3376 1060.02 66.3376 Q1066.05 66.3376 1069.37 61.8816 Q1072.74 57.4256 1072.74 49.3643 M1080.19 66.9452 Q1080.19 78.5308 1075.04 84.1616 Q1069.9 89.8329 1059.29 89.8329 Q1055.36 89.8329 1051.87 89.2252 Q1048.39 88.6581 1045.11 87.4428 L1045.11 80.1917 Q1048.39 81.9741 1051.59 82.8248 Q1054.79 83.6755 1058.11 83.6755 Q1065.44 83.6755 1069.09 79.8271 Q1072.74 76.0193 1072.74 68.282 L1072.74 64.5957 Q1070.43 68.6061 1066.82 70.5911 Q1063.22 72.576 1058.19 72.576 Q1049.85 72.576 1044.74 66.2161 Q1039.64 59.8562 1039.64 49.3643 Q1039.64 38.832 1044.74 32.472 Q1049.85 26.1121 1058.19 26.1121 Q1063.22 26.1121 1066.82 28.0971 Q1070.43 30.082 1072.74 34.0924 L1072.74 27.2059 L1080.19 27.2059 L1080.19 66.9452 Z" fill="#000000" fill-rule="nonzero" fill-opacity="1" /><path clip-path="url(#clip280)" d="M1134.35 48.0275 L1134.35 51.6733 L1100.08 51.6733 Q1100.57 59.3701 1104.7 63.421 Q1108.87 67.4314 1116.28 67.4314 Q1120.58 67.4314 1124.59 66.3781 Q1128.64 65.3249 1132.61 63.2184 L1132.61 70.267 Q1128.6 71.9684 1124.38 72.8596 Q1120.17 73.7508 1115.84 73.7508 Q1104.98 73.7508 1098.62 67.4314 Q1092.3 61.1119 1092.3 50.3365 Q1092.3 39.1965 1098.3 32.6746 Q1104.33 26.1121 1114.54 26.1121 Q1123.7 26.1121 1129 32.0264 Q1134.35 37.9003 1134.35 48.0275 M1126.9 45.84 Q1126.82 39.7232 1123.45 36.0774 Q1120.13 32.4315 1114.62 32.4315 Q1108.38 32.4315 1104.62 35.9558 Q1100.89 39.4801 1100.32 45.8805 L1126.9 45.84 Z" fill="#000000" fill-rule="nonzero" fill-opacity="1" /><path clip-path="url(#clip280)" d="M1201.88 28.5427 L1201.88 35.5912 Q1198.72 33.9709 1195.32 33.1607 Q1191.91 32.3505 1188.27 32.3505 Q1182.72 32.3505 1179.92 34.0519 Q1177.17 35.7533 1177.17 39.156 Q1177.17 41.7486 1179.15 43.2475 Q1181.14 44.7058 1187.13 46.0426 L1189.69 46.6097 Q1197.62 48.3111 1200.95 51.4303 Q1204.31 54.509 1204.31 60.0587 Q1204.31 66.3781 1199.29 70.0644 Q1194.3 73.7508 1185.55 73.7508 Q1181.91 73.7508 1177.94 73.0216 Q1174.01 72.3329 1169.63 70.9151 L1169.63 63.2184 Q1173.77 65.3654 1177.78 66.4591 Q1181.79 67.5124 1185.72 67.5124 Q1190.98 67.5124 1193.82 65.73 Q1196.65 63.9071 1196.65 60.6258 Q1196.65 57.5877 1194.59 55.9673 Q1192.56 54.3469 1185.63 52.8481 L1183.04 52.2405 Q1176.11 50.7821 1173.04 47.7845 Q1169.96 44.7463 1169.96 39.4801 Q1169.96 33.0797 1174.49 29.5959 Q1179.03 26.1121 1187.38 26.1121 Q1191.51 26.1121 1195.15 26.7198 Q1198.8 27.3274 1201.88 28.5427 Z" fill="#000000" fill-rule="nonzero" fill-opacity="1" /><path clip-path="url(#clip280)" d="M1223.55 14.324 L1223.55 27.2059 L1238.9 27.2059 L1238.9 32.9987 L1223.55 32.9987 L1223.55 57.6282 Q1223.55 63.1779 1225.05 64.7578 Q1226.59 66.3376 1231.25 66.3376 L1238.9 66.3376 L1238.9 72.576 L1231.25 72.576 Q1222.62 72.576 1219.34 69.3758 Q1216.06 66.1351 1216.06 57.6282 L1216.06 32.9987 L1210.59 32.9987 L1210.59 27.2059 L1216.06 27.2059 L1216.06 14.324 L1223.55 14.324 Z" fill="#000000" fill-rule="nonzero" fill-opacity="1" /><path clip-path="url(#clip280)" d="M1275 34.1734 Q1273.74 33.4443 1272.24 33.1202 Q1270.78 32.7556 1269 32.7556 Q1262.68 32.7556 1259.28 36.8875 Q1255.92 40.9789 1255.92 48.6757 L1255.92 72.576 L1248.42 72.576 L1248.42 27.2059 L1255.92 27.2059 L1255.92 34.2544 Q1258.27 30.1225 1262.03 28.1376 Q1265.8 26.1121 1271.19 26.1121 Q1271.96 26.1121 1272.89 26.2337 Q1273.82 26.3147 1274.96 26.5172 L1275 34.1734 Z" fill="#000000" fill-rule="nonzero" fill-opacity="1" /><path clip-path="url(#clip280)" d="M1282.05 54.671 L1282.05 27.2059 L1289.5 27.2059 L1289.5 54.3874 Q1289.5 60.8284 1292.01 64.0691 Q1294.52 67.2693 1299.55 67.2693 Q1305.58 67.2693 1309.07 63.421 Q1312.59 59.5726 1312.59 52.9291 L1312.59 27.2059 L1320.04 27.2059 L1320.04 72.576 L1312.59 72.576 L1312.59 65.6084 Q1309.88 69.7404 1306.27 71.7658 Q1302.71 73.7508 1297.97 73.7508 Q1290.15 73.7508 1286.1 68.8897 Q1282.05 64.0286 1282.05 54.671 M1300.8 26.1121 L1300.8 26.1121 Z" fill="#000000" fill-rule="nonzero" fill-opacity="1" /><path clip-path="url(#clip280)" d="M1368.05 28.9478 L1368.05 35.9153 Q1364.89 34.1734 1361.69 33.3227 Q1358.53 32.4315 1355.29 32.4315 Q1348.03 32.4315 1344.02 37.0496 Q1340.01 41.6271 1340.01 49.9314 Q1340.01 58.2358 1344.02 62.8538 Q1348.03 67.4314 1355.29 67.4314 Q1358.53 67.4314 1361.69 66.5807 Q1364.89 65.6895 1368.05 63.9476 L1368.05 70.8341 Q1364.93 72.2924 1361.56 73.0216 Q1358.24 73.7508 1354.48 73.7508 Q1344.23 73.7508 1338.19 67.3098 Q1332.16 60.8689 1332.16 49.9314 Q1332.16 38.832 1338.23 32.472 Q1344.35 26.1121 1354.96 26.1121 Q1358.41 26.1121 1361.69 26.8413 Q1364.97 27.5299 1368.05 28.9478 Z" fill="#000000" fill-rule="nonzero" fill-opacity="1" /><path clip-path="url(#clip280)" d="M1388.38 14.324 L1388.38 27.2059 L1403.73 27.2059 L1403.73 32.9987 L1388.38 32.9987 L1388.38 57.6282 Q1388.38 63.1779 1389.88 64.7578 Q1391.42 66.3376 1396.08 66.3376 L1403.73 66.3376 L1403.73 72.576 L1396.08 72.576 Q1387.45 72.576 1384.17 69.3758 Q1380.89 66.1351 1380.89 57.6282 L1380.89 32.9987 L1375.42 32.9987 L1375.42 27.2059 L1380.89 27.2059 L1380.89 14.324 L1388.38 14.324 Z" fill="#000000" fill-rule="nonzero" fill-opacity="1" /><path clip-path="url(#clip280)" d="M1412.77 54.671 L1412.77 27.2059 L1420.22 27.2059 L1420.22 54.3874 Q1420.22 60.8284 1422.73 64.0691 Q1425.25 67.2693 1430.27 67.2693 Q1436.3 67.2693 1439.79 63.421 Q1443.31 59.5726 1443.31 52.9291 L1443.31 27.2059 L1450.77 27.2059 L1450.77 72.576 L1443.31 72.576 L1443.31 65.6084 Q1440.6 69.7404 1436.99 71.7658 Q1433.43 73.7508 1428.69 73.7508 Q1420.87 73.7508 1416.82 68.8897 Q1412.77 64.0286 1412.77 54.671 M1431.52 26.1121 L1431.52 26.1121 Z" fill="#000000" fill-rule="nonzero" fill-opacity="1" /><path clip-path="url(#clip280)" d="M1492.41 34.1734 Q1491.15 33.4443 1489.65 33.1202 Q1488.2 32.7556 1486.41 32.7556 Q1480.09 32.7556 1476.69 36.8875 Q1473.33 40.9789 1473.33 48.6757 L1473.33 72.576 L1465.84 72.576 L1465.84 27.2059 L1473.33 27.2059 L1473.33 34.2544 Q1475.68 30.1225 1479.45 28.1376 Q1483.21 26.1121 1488.6 26.1121 Q1489.37 26.1121 1490.3 26.2337 Q1491.23 26.3147 1492.37 26.5172 L1492.41 34.1734 Z" fill="#000000" fill-rule="nonzero" fill-opacity="1" /><path clip-path="url(#clip280)" d="M1537.21 48.0275 L1537.21 51.6733 L1502.94 51.6733 Q1503.43 59.3701 1507.56 63.421 Q1511.73 67.4314 1519.15 67.4314 Q1523.44 67.4314 1527.45 66.3781 Q1531.5 65.3249 1535.47 63.2184 L1535.47 70.267 Q1531.46 71.9684 1527.25 72.8596 Q1523.03 73.7508 1518.7 73.7508 Q1507.84 73.7508 1501.48 67.4314 Q1495.16 61.1119 1495.16 50.3365 Q1495.16 39.1965 1501.16 32.6746 Q1507.19 26.1121 1517.4 26.1121 Q1526.56 26.1121 1531.86 32.0264 Q1537.21 37.9003 1537.21 48.0275 M1529.76 45.84 Q1529.68 39.7232 1526.32 36.0774 Q1522.99 32.4315 1517.48 32.4315 Q1511.25 32.4315 1507.48 35.9558 Q1503.75 39.4801 1503.18 45.8805 L1529.76 45.84 Z" fill="#000000" fill-rule="nonzero" fill-opacity="1" /><path clip-path="url(#clip280)" d="M1593.4 32.4315 Q1587.4 32.4315 1583.92 37.1306 Q1580.44 41.7891 1580.44 49.9314 Q1580.44 58.0738 1583.88 62.7728 Q1587.36 67.4314 1593.4 67.4314 Q1599.35 67.4314 1602.84 62.7323 Q1606.32 58.0333 1606.32 49.9314 Q1606.32 41.8701 1602.84 37.1711 Q1599.35 32.4315 1593.4 32.4315 M1593.4 26.1121 Q1603.12 26.1121 1608.67 32.4315 Q1614.22 38.7509 1614.22 49.9314 Q1614.22 61.0714 1608.67 67.4314 Q1603.12 73.7508 1593.4 73.7508 Q1583.64 73.7508 1578.09 67.4314 Q1572.58 61.0714 1572.58 49.9314 Q1572.58 38.7509 1578.09 32.4315 Q1583.64 26.1121 1593.4 26.1121 Z" fill="#000000" fill-rule="nonzero" fill-opacity="1" /><path clip-path="url(#clip280)" d="M1621.23 27.2059 L1629.13 27.2059 L1643.31 65.2844 L1657.48 27.2059 L1665.38 27.2059 L1648.37 72.576 L1638.24 72.576 L1621.23 27.2059 Z" fill="#000000" fill-rule="nonzero" fill-opacity="1" /><path clip-path="url(#clip280)" d="M1714.48 48.0275 L1714.48 51.6733 L1680.21 51.6733 Q1680.7 59.3701 1684.83 63.421 Q1689 67.4314 1696.41 67.4314 Q1700.71 67.4314 1704.72 66.3781 Q1708.77 65.3249 1712.74 63.2184 L1712.74 70.267 Q1708.73 71.9684 1704.51 72.8596 Q1700.3 73.7508 1695.97 73.7508 Q1685.11 73.7508 1678.75 67.4314 Q1672.43 61.1119 1672.43 50.3365 Q1672.43 39.1965 1678.43 32.6746 Q1684.46 26.1121 1694.67 26.1121 Q1703.83 26.1121 1709.13 32.0264 Q1714.48 37.9003 1714.48 48.0275 M1707.03 45.84 Q1706.95 39.7232 1703.58 36.0774 Q1700.26 32.4315 1694.75 32.4315 Q1688.51 32.4315 1684.75 35.9558 Q1681.02 39.4801 1680.45 45.8805 L1707.03 45.84 Z" fill="#000000" fill-rule="nonzero" fill-opacity="1" /><path clip-path="url(#clip280)" d="M1753 34.1734 Q1751.75 33.4443 1750.25 33.1202 Q1748.79 32.7556 1747.01 32.7556 Q1740.69 32.7556 1737.29 36.8875 Q1733.92 40.9789 1733.92 48.6757 L1733.92 72.576 L1726.43 72.576 L1726.43 27.2059 L1733.92 27.2059 L1733.92 34.2544 Q1736.27 30.1225 1740.04 28.1376 Q1743.81 26.1121 1749.2 26.1121 Q1749.97 26.1121 1750.9 26.2337 Q1751.83 26.3147 1752.96 26.5172 L1753 34.1734 Z" fill="#000000" fill-rule="nonzero" fill-opacity="1" /><path clip-path="url(#clip280)" d="M1794.57 14.324 L1794.57 27.2059 L1809.92 27.2059 L1809.92 32.9987 L1794.57 32.9987 L1794.57 57.6282 Q1794.57 63.1779 1796.06 64.7578 Q1797.6 66.3376 1802.26 66.3376 L1809.92 66.3376 L1809.92 72.576 L1802.26 72.576 Q1793.63 72.576 1790.35 69.3758 Q1787.07 66.1351 1787.07 57.6282 L1787.07 32.9987 L1781.6 32.9987 L1781.6 27.2059 L1787.07 27.2059 L1787.07 14.324 L1794.57 14.324 Z" fill="#000000" fill-rule="nonzero" fill-opacity="1" /><path clip-path="url(#clip280)" d="M1819.72 27.2059 L1827.18 27.2059 L1827.18 72.576 L1819.72 72.576 L1819.72 27.2059 M1819.72 9.54393 L1827.18 9.54393 L1827.18 18.9825 L1819.72 18.9825 L1819.72 9.54393 Z" fill="#000000" fill-rule="nonzero" fill-opacity="1" /><path clip-path="url(#clip280)" d="M1878.1 35.9153 Q1880.89 30.8922 1884.78 28.5022 Q1888.67 26.1121 1893.93 26.1121 Q1901.02 26.1121 1904.87 31.0947 Q1908.72 36.0368 1908.72 45.1919 L1908.72 72.576 L1901.23 72.576 L1901.23 45.4349 Q1901.23 38.913 1898.92 35.7533 Q1896.61 32.5936 1891.87 32.5936 Q1886.08 32.5936 1882.71 36.4419 Q1879.35 40.2903 1879.35 46.9338 L1879.35 72.576 L1871.86 72.576 L1871.86 45.4349 Q1871.86 38.8725 1869.55 35.7533 Q1867.24 32.5936 1862.42 32.5936 Q1856.71 32.5936 1853.34 36.4824 Q1849.98 40.3308 1849.98 46.9338 L1849.98 72.576 L1842.49 72.576 L1842.49 27.2059 L1849.98 27.2059 L1849.98 34.2544 Q1852.53 30.082 1856.1 28.0971 Q1859.66 26.1121 1864.57 26.1121 Q1869.51 26.1121 1872.95 28.6237 Q1876.43 31.1352 1878.1 35.9153 Z" fill="#000000" fill-rule="nonzero" fill-opacity="1" /><path clip-path="url(#clip280)" d="M1962.4 48.0275 L1962.4 51.6733 L1928.12 51.6733 Q1928.61 59.3701 1932.74 63.421 Q1936.91 67.4314 1944.33 67.4314 Q1948.62 67.4314 1952.63 66.3781 Q1956.68 65.3249 1960.65 63.2184 L1960.65 70.267 Q1956.64 71.9684 1952.43 72.8596 Q1948.22 73.7508 1943.88 73.7508 Q1933.03 73.7508 1926.67 67.4314 Q1920.35 61.1119 1920.35 50.3365 Q1920.35 39.1965 1926.34 32.6746 Q1932.38 26.1121 1942.59 26.1121 Q1951.74 26.1121 1957.05 32.0264 Q1962.4 37.9003 1962.4 48.0275 M1954.94 45.84 Q1954.86 39.7232 1951.5 36.0774 Q1948.18 32.4315 1942.67 32.4315 Q1936.43 32.4315 1932.66 35.9558 Q1928.93 39.4801 1928.37 45.8805 L1954.94 45.84 Z" fill="#000000" fill-rule="nonzero" fill-opacity="1" /><path clip-path="url(#clip281)" d="M294.479 127.792 L340.038 127.792 L385.596 127.792 L431.155 127.792 L476.714 127.792 L522.273 127.792 L567.831 127.792 L613.39 127.792 L658.949 127.792 L704.508 127.792 L750.067 127.792 L795.625 127.792 L841.184 127.792 L886.743 127.792 L932.302 127.792 L977.86 127.792 L1023.42 127.792 L1068.98 127.792 L1114.54 127.792 L1160.1 127.792 L1205.65 127.792 L1251.21 127.792 L1296.77 127.792 L1342.33 127.792 L1387.89 127.792 L1433.45 127.792 L1479.01 127.792 L1524.57 127.792 L1570.12 127.792 L1615.68 127.792 L1661.24 127.792 L1706.8 127.792 L1752.36 127.792 L1797.92 127.792 L1843.48 127.792 L1889.04 127.792 L1934.59 127.792 L1980.15 127.792 L2025.71 127.792 L2071.27 127.792 L2116.83 127.792 L2162.39 127.792 L2207.95 127.792 L2253.51 127.792 L2299.07 127.792 L2344.62 127.792 L2390.18 127.792 L2435.74 127.792 L2481.3 127.792 L2526.86 127.792 L2572.42 127.792 L2572.42 367.263 L2526.86 367.263 L2481.3 367.263 L2435.74 367.263 L2390.18 367.263 L2344.62 367.263 L2299.07 367.263 L2253.51 367.264 L2207.95 367.264 L2162.39 367.265 L2116.83 367.265 L2071.27 367.265 L2025.71 367.264 L1980.15 367.262 L1934.59 367.259 L1889.04 367.255 L1843.48 367.25 L1797.92 367.247 L1752.36 367.245 L1706.8 367.247 L1661.24 367.255 L1615.68 367.271 L1570.12 367.296 L1524.57 367.329 L1479.01 367.367 L1433.45 367.403 L1387.89 367.424 L1342.33 367.415 L1296.77 367.356 L1251.21 367.229 L1205.65 367.021 L1160.1 366.736 L1114.54 366.399 L1068.98 366.069 L1023.42 365.844 L977.86 365.861 L932.302 366.286 L886.743 367.285 L841.184 368.987 L795.625 371.419 L750.067 374.43 L704.508 377.594 L658.949 380.105 L613.39 380.706 L567.831 377.704 L522.273 369.229 L476.714 353.789 L431.155 330.825 L385.596 299.959 L340.038 257.268 L294.479 208.108  Z" fill="#da70d6" fill-rule="evenodd" fill-opacity="0.7"/>
<polyline clip-path="url(#clip281)" style="stroke:#da70d6; stroke-linecap:round; stroke-linejoin:round; stroke-width:2; stroke-opacity:0.7; fill:none" points="294.479,127.792 340.038,127.792 385.596,127.792 431.155,127.792 476.714,127.792 522.273,127.792 567.831,127.792 613.39,127.792 658.949,127.792 704.508,127.792 750.067,127.792 795.625,127.792 841.184,127.792 886.743,127.792 932.302,127.792 977.86,127.792 1023.42,127.792 1068.98,127.792 1114.54,127.792 1160.1,127.792 1205.65,127.792 1251.21,127.792 1296.77,127.792 1342.33,127.792 1387.89,127.792 1433.45,127.792 1479.01,127.792 1524.57,127.792 1570.12,127.792 1615.68,127.792 1661.24,127.792 1706.8,127.792 1752.36,127.792 1797.92,127.792 1843.48,127.792 1889.04,127.792 1934.59,127.792 1980.15,127.792 2025.71,127.792 2071.27,127.792 2116.83,127.792 2162.39,127.792 2207.95,127.792 2253.51,127.792 2299.07,127.792 2344.62,127.792 2390.18,127.792 2435.74,127.792 2481.3,127.792 2526.86,127.792 2572.42,127.792 "/>
<path clip-path="url(#clip281)" d="M294.479 208.108 L340.038 257.268 L385.596 299.959 L431.155 330.825 L476.714 353.789 L522.273 369.229 L567.831 377.704 L613.39 380.706 L658.949 380.105 L704.508 377.594 L750.067 374.43 L795.625 371.419 L841.184 368.987 L886.743 367.285 L932.302 366.286 L977.86 365.861 L1023.42 365.844 L1068.98 366.069 L1114.54 366.399 L1160.1 366.736 L1205.65 367.021 L1251.21 367.229 L1296.77 367.356 L1342.33 367.415 L1387.89 367.424 L1433.45 367.403 L1479.01 367.367 L1524.57 367.329 L1570.12 367.296 L1615.68 367.271 L1661.24 367.255 L1706.8 367.247 L1752.36 367.245 L1797.92 367.247 L1843.48 367.25 L1889.04 367.255 L1934.59 367.259 L1980.15 367.262 L2025.71 367.264 L2071.27 367.265 L2116.83 367.265 L2162.39 367.265 L2207.95 367.264 L2253.51 367.264 L2299.07 367.263 L2344.62 367.263 L2390.18 367.263 L2435.74 367.263 L2481.3 367.263 L2526.86 367.263 L2572.42 367.263 L2572.42 486.478 L2526.86 486.478 L2481.3 486.478 L2435.74 486.478 L2390.18 486.477 L2344.62 486.478 L2299.07 486.478 L2253.51 486.479 L2207.95 486.48 L2162.39 486.481 L2116.83 486.483 L2071.27 486.484 L2025.71 486.484 L1980.15 486.483 L1934.59 486.48 L1889.04 486.474 L1843.48 486.465 L1797.92 486.454 L1752.36 486.441 L1706.8 486.429 L1661.24 486.424 L1615.68 486.429 L1570.12 486.453 L1524.57 486.5 L1479.01 486.574 L1433.45 486.674 L1387.89 486.79 L1342.33 486.898 L1296.77 486.965 L1251.21 486.94 L1205.65 486.767 L1160.1 486.389 L1114.54 485.77 L1068.98 484.916 L1023.42 483.903 L977.86 482.903 L932.302 482.209 L886.743 482.228 L841.184 483.459 L795.625 486.428 L750.067 491.563 L704.508 499.013 L658.949 508.375 L613.39 518.328 L567.831 526.266 L522.273 528.165 L476.714 519.225 L431.155 495.991 L385.596 460.349 L340.038 423.766 L294.479 368.741  Z" fill="#cd5c5c" fill-rule="evenodd" fill-opacity="0.7"/>
<polyline clip-path="url(#clip281)" style="stroke:#cd5c5c; stroke-linecap:round; stroke-linejoin:round; stroke-width:2; stroke-opacity:0.7; fill:none" points="294.479,208.108 340.038,257.268 385.596,299.959 431.155,330.825 476.714,353.789 522.273,369.229 567.831,377.704 613.39,380.706 658.949,380.105 704.508,377.594 750.067,374.43 795.625,371.419 841.184,368.987 886.743,367.285 932.302,366.286 977.86,365.861 1023.42,365.844 1068.98,366.069 1114.54,366.399 1160.1,366.736 1205.65,367.021 1251.21,367.229 1296.77,367.356 1342.33,367.415 1387.89,367.424 1433.45,367.403 1479.01,367.367 1524.57,367.329 1570.12,367.296 1615.68,367.271 1661.24,367.255 1706.8,367.247 1752.36,367.245 1797.92,367.247 1843.48,367.25 1889.04,367.255 1934.59,367.259 1980.15,367.262 2025.71,367.264 2071.27,367.265 2116.83,367.265 2162.39,367.265 2207.95,367.264 2253.51,367.264 2299.07,367.263 2344.62,367.263 2390.18,367.263 2435.74,367.263 2481.3,367.263 2526.86,367.263 2572.42,367.263 "/>
<path clip-path="url(#clip281)" d="M294.479 368.741 L340.038 423.766 L385.596 460.349 L431.155 495.991 L476.714 519.225 L522.273 528.165 L567.831 526.266 L613.39 518.328 L658.949 508.375 L704.508 499.013 L750.067 491.563 L795.625 486.428 L841.184 483.459 L886.743 482.228 L932.302 482.209 L977.86 482.903 L1023.42 483.903 L1068.98 484.916 L1114.54 485.77 L1160.1 486.389 L1205.65 486.767 L1251.21 486.94 L1296.77 486.965 L1342.33 486.898 L1387.89 486.79 L1433.45 486.674 L1479.01 486.574 L1524.57 486.5 L1570.12 486.453 L1615.68 486.429 L1661.24 486.424 L1706.8 486.429 L1752.36 486.441 L1797.92 486.454 L1843.48 486.465 L1889.04 486.474 L1934.59 486.48 L1980.15 486.483 L2025.71 486.484 L2071.27 486.484 L2116.83 486.483 L2162.39 486.481 L2207.95 486.48 L2253.51 486.479 L2299.07 486.478 L2344.62 486.478 L2390.18 486.477 L2435.74 486.478 L2481.3 486.478 L2526.86 486.478 L2572.42 486.478 L2572.42 750.504 L2526.86 750.503 L2481.3 750.503 L2435.74 750.503 L2390.18 750.502 L2344.62 750.502 L2299.07 750.502 L2253.51 750.502 L2207.95 750.503 L2162.39 750.505 L2116.83 750.507 L2071.27 750.51 L2025.71 750.513 L1980.15 750.516 L1934.59 750.518 L1889.04 750.516 L1843.48 750.511 L1797.92 750.499 L1752.36 750.479 L1706.8 750.454 L1661.24 750.424 L1615.68 750.395 L1570.12 750.378 L1524.57 750.383 L1479.01 750.426 L1433.45 750.522 L1387.89 750.681 L1342.33 750.901 L1296.77 751.166 L1251.21 751.429 L1205.65 751.616 L1160.1 751.621 L1114.54 751.311 L1068.98 750.555 L1023.42 749.252 L977.86 747.388 L932.302 745.089 L886.743 742.696 L841.184 740.808 L795.625 740.313 L750.067 742.363 L704.508 748.261 L658.949 759.208 L613.39 775.801 L567.831 797.197 L522.273 819.872 L476.714 836.109 L431.155 832.098 L385.596 783.929 L340.038 654.85 L294.479 609.69  Z" fill="#daa520" fill-rule="evenodd" fill-opacity="0.7"/>
<polyline clip-path="url(#clip281)" style="stroke:#daa520; stroke-linecap:round; stroke-linejoin:round; stroke-width:2; stroke-opacity:0.7; fill:none" points="294.479,368.741 340.038,423.766 385.596,460.349 431.155,495.991 476.714,519.225 522.273,528.165 567.831,526.266 613.39,518.328 658.949,508.375 704.508,499.013 750.067,491.563 795.625,486.428 841.184,483.459 886.743,482.228 932.302,482.209 977.86,482.903 1023.42,483.903 1068.98,484.916 1114.54,485.77 1160.1,486.389 1205.65,486.767 1251.21,486.94 1296.77,486.965 1342.33,486.898 1387.89,486.79 1433.45,486.674 1479.01,486.574 1524.57,486.5 1570.12,486.453 1615.68,486.429 1661.24,486.424 1706.8,486.429 1752.36,486.441 1797.92,486.454 1843.48,486.465 1889.04,486.474 1934.59,486.48 1980.15,486.483 2025.71,486.484 2071.27,486.484 2116.83,486.483 2162.39,486.481 2207.95,486.48 2253.51,486.479 2299.07,486.478 2344.62,486.478 2390.18,486.477 2435.74,486.478 2481.3,486.478 2526.86,486.478 2572.42,486.478 "/>
<path clip-path="url(#clip281)" d="M294.479 609.69 L340.038 654.85 L385.596 783.929 L431.155 832.098 L476.714 836.109 L522.273 819.872 L567.831 797.197 L613.39 775.801 L658.949 759.208 L704.508 748.261 L750.067 742.363 L795.625 740.313 L841.184 740.808 L886.743 742.696 L932.302 745.089 L977.86 747.388 L1023.42 749.252 L1068.98 750.555 L1114.54 751.311 L1160.1 751.621 L1205.65 751.616 L1251.21 751.429 L1296.77 751.166 L1342.33 750.901 L1387.89 750.681 L1433.45 750.522 L1479.01 750.426 L1524.57 750.383 L1570.12 750.378 L1615.68 750.395 L1661.24 750.424 L1706.8 750.454 L1752.36 750.479 L1797.92 750.499 L1843.48 750.511 L1889.04 750.516 L1934.59 750.518 L1980.15 750.516 L2025.71 750.513 L2071.27 750.51 L2116.83 750.507 L2162.39 750.505 L2207.95 750.503 L2253.51 750.502 L2299.07 750.502 L2344.62 750.502 L2390.18 750.502 L2435.74 750.503 L2481.3 750.503 L2526.86 750.503 L2572.42 750.504 L2572.42 1400.8 L2526.86 1400.8 L2481.3 1400.8 L2435.74 1400.8 L2390.18 1400.8 L2344.62 1400.8 L2299.07 1400.8 L2253.51 1400.8 L2207.95 1400.8 L2162.39 1400.8 L2116.83 1400.8 L2071.27 1400.8 L2025.71 1400.8 L1980.15 1400.81 L1934.59 1400.81 L1889.04 1400.82 L1843.48 1400.82 L1797.92 1400.82 L1752.36 1400.82 L1706.8 1400.81 L1661.24 1400.79 L1615.68 1400.77 L1570.12 1400.73 L1524.57 1400.69 L1479.01 1400.65 L1433.45 1400.63 L1387.89 1400.65 L1342.33 1400.71 L1296.77 1400.85 L1251.21 1401.08 L1205.65 1401.38 L1160.1 1401.74 L1114.54 1402.08 L1068.98 1402.31 L1023.42 1402.26 L977.86 1401.77 L932.302 1400.66 L886.743 1398.81 L841.184 1396.21 L795.625 1393.05 L750.067 1389.81 L704.508 1387.34 L658.949 1386.97 L613.39 1390.45 L567.831 1399.77 L522.273 1416.77 L476.714 1442.7 L431.155 1479.33 L385.596 1534.14 L340.038 1603.33 L294.479 930.955  Z" fill="#4682b4" fill-rule="evenodd" fill-opacity="0.7"/>
<polyline clip-path="url(#clip281)" style="stroke:#4682b4; stroke-linecap:round; stroke-linejoin:round; stroke-width:2; stroke-opacity:0.7; fill:none" points="294.479,609.69 340.038,654.85 385.596,783.929 431.155,832.098 476.714,836.109 522.273,819.872 567.831,797.197 613.39,775.801 658.949,759.208 704.508,748.261 750.067,742.363 795.625,740.313 841.184,740.808 886.743,742.696 932.302,745.089 977.86,747.388 1023.42,749.252 1068.98,750.555 1114.54,751.311 1160.1,751.621 1205.65,751.616 1251.21,751.429 1296.77,751.166 1342.33,750.901 1387.89,750.681 1433.45,750.522 1479.01,750.426 1524.57,750.383 1570.12,750.378 1615.68,750.395 1661.24,750.424 1706.8,750.454 1752.36,750.479 1797.92,750.499 1843.48,750.511 1889.04,750.516 1934.59,750.518 1980.15,750.516 2025.71,750.513 2071.27,750.51 2116.83,750.507 2162.39,750.505 2207.95,750.503 2253.51,750.502 2299.07,750.502 2344.62,750.502 2390.18,750.502 2435.74,750.503 2481.3,750.503 2526.86,750.503 2572.42,750.504 "/>
<path clip-path="url(#clip281)" d="M294.479 930.955 L340.038 1603.33 L385.596 1534.14 L431.155 1479.33 L476.714 1442.7 L522.273 1416.77 L567.831 1399.77 L613.39 1390.45 L658.949 1386.97 L704.508 1387.34 L750.067 1389.81 L795.625 1393.05 L841.184 1396.21 L886.743 1398.81 L932.302 1400.66 L977.86 1401.77 L1023.42 1402.26 L1068.98 1402.31 L1114.54 1402.08 L1160.1 1401.74 L1205.65 1401.38 L1251.21 1401.08 L1296.77 1400.85 L1342.33 1400.71 L1387.89 1400.65 L1433.45 1400.63 L1479.01 1400.65 L1524.57 1400.69 L1570.12 1400.73 L1615.68 1400.77 L1661.24 1400.79 L1706.8 1400.81 L1752.36 1400.82 L1797.92 1400.82 L1843.48 1400.82 L1889.04 1400.82 L1934.59 1400.81 L1980.15 1400.81 L2025.71 1400.8 L2071.27 1400.8 L2116.83 1400.8 L2162.39 1400.8 L2207.95 1400.8 L2253.51 1400.8 L2299.07 1400.8 L2344.62 1400.8 L2390.18 1400.8 L2435.74 1400.8 L2481.3 1400.8 L2526.86 1400.8 L2572.42 1400.8 L2572.42 1734.12 L2526.86 1734.12 L2481.3 1734.12 L2435.74 1734.12 L2390.18 1734.12 L2344.62 1734.12 L2299.07 1734.12 L2253.51 1734.12 L2207.95 1734.12 L2162.39 1734.12 L2116.83 1734.12 L2071.27 1734.12 L2025.71 1734.12 L1980.15 1734.12 L1934.59 1734.12 L1889.04 1734.12 L1843.48 1734.12 L1797.92 1734.12 L1752.36 1734.12 L1706.8 1734.12 L1661.24 1734.12 L1615.68 1734.12 L1570.12 1734.12 L1524.57 1734.12 L1479.01 1734.12 L1433.45 1734.12 L1387.89 1734.12 L1342.33 1734.12 L1296.77 1734.12 L1251.21 1734.12 L1205.65 1734.12 L1160.1 1734.12 L1114.54 1734.12 L1068.98 1734.12 L1023.42 1734.12 L977.86 1734.12 L932.302 1734.12 L886.743 1734.12 L841.184 1734.12 L795.625 1734.12 L750.067 1734.12 L704.508 1734.12 L658.949 1734.12 L613.39 1734.12 L567.831 1734.12 L522.273 1734.12 L476.714 1734.12 L431.155 1734.12 L385.596 1734.12 L340.038 1734.12 L294.479 1734.12  Z" fill="#008080" fill-rule="evenodd" fill-opacity="0.7"/>
<polyline clip-path="url(#clip281)" style="stroke:#008080; stroke-linecap:round; stroke-linejoin:round; stroke-width:2; stroke-opacity:0.7; fill:none" points="294.479,930.955 340.038,1603.33 385.596,1534.14 431.155,1479.33 476.714,1442.7 522.273,1416.77 567.831,1399.77 613.39,1390.45 658.949,1386.97 704.508,1387.34 750.067,1389.81 795.625,1393.05 841.184,1396.21 886.743,1398.81 932.302,1400.66 977.86,1401.77 1023.42,1402.26 1068.98,1402.31 1114.54,1402.08 1160.1,1401.74 1205.65,1401.38 1251.21,1401.08 1296.77,1400.85 1342.33,1400.71 1387.89,1400.65 1433.45,1400.63 1479.01,1400.65 1524.57,1400.69 1570.12,1400.73 1615.68,1400.77 1661.24,1400.79 1706.8,1400.81 1752.36,1400.82 1797.92,1400.82 1843.48,1400.82 1889.04,1400.82 1934.59,1400.81 1980.15,1400.81 2025.71,1400.8 2071.27,1400.8 2116.83,1400.8 2162.39,1400.8 2207.95,1400.8 2253.51,1400.8 2299.07,1400.8 2344.62,1400.8 2390.18,1400.8 2435.74,1400.8 2481.3,1400.8 2526.86,1400.8 2572.42,1400.8 "/>
<path clip-path="url(#clip280)" d="M2094.34 1680.57 L2560.27 1680.57 L2560.27 1369.53 L2094.34 1369.53  Z" fill="#ffffff" fill-rule="evenodd" fill-opacity="1"/>
<polyline clip-path="url(#clip280)" style="stroke:#000000; stroke-linecap:round; stroke-linejoin:round; stroke-width:4; stroke-opacity:1; fill:none" points="2094.34,1680.57 2560.27,1680.57 2560.27,1369.53 2094.34,1369.53 2094.34,1680.57 "/>
<path clip-path="url(#clip280)" d="M2121.17 1442.11 L2282.14 1442.11 L2282.14 1400.64 L2121.17 1400.64 L2121.17 1442.11  Z" fill="#da70d6" fill-rule="evenodd" fill-opacity="0.7"/>
<polyline clip-path="url(#clip280)" style="stroke:#da70d6; stroke-linecap:round; stroke-linejoin:round; stroke-width:2; stroke-opacity:0.7; fill:none" points="2121.17,1400.64 2282.14,1400.64 "/>
<path clip-path="url(#clip280)" d="M2324.81 1408.7 L2318.46 1425.9 L2331.17 1425.9 L2324.81 1408.7 M2322.17 1404.09 L2327.47 1404.09 L2340.64 1438.65 L2335.78 1438.65 L2332.63 1429.79 L2317.05 1429.79 L2313.9 1438.65 L2308.97 1438.65 L2322.17 1404.09 Z" fill="#000000" fill-rule="nonzero" fill-opacity="1" /><path clip-path="url(#clip280)" d="M2361.73 1416.66 L2361.73 1402.63 L2365.99 1402.63 L2365.99 1438.65 L2361.73 1438.65 L2361.73 1434.76 Q2360.39 1437.08 2358.32 1438.21 Q2356.29 1439.32 2353.42 1439.32 Q2348.72 1439.32 2345.76 1435.57 Q2342.82 1431.82 2342.82 1425.71 Q2342.82 1419.6 2345.76 1415.85 Q2348.72 1412.1 2353.42 1412.1 Q2356.29 1412.1 2358.32 1413.24 Q2360.39 1414.35 2361.73 1416.66 M2347.21 1425.71 Q2347.21 1430.41 2349.14 1433.1 Q2351.08 1435.76 2354.46 1435.76 Q2357.84 1435.76 2359.78 1433.1 Q2361.73 1430.41 2361.73 1425.71 Q2361.73 1421.01 2359.78 1418.35 Q2357.84 1415.67 2354.46 1415.67 Q2351.08 1415.67 2349.14 1418.35 Q2347.21 1421.01 2347.21 1425.71 Z" fill="#000000" fill-rule="nonzero" fill-opacity="1" /><path clip-path="url(#clip280)" d="M2374.32 1428.42 L2374.32 1412.73 L2378.58 1412.73 L2378.58 1428.26 Q2378.58 1431.94 2380.01 1433.79 Q2381.45 1435.62 2384.32 1435.62 Q2387.77 1435.62 2389.76 1433.42 Q2391.77 1431.22 2391.77 1427.43 L2391.77 1412.73 L2396.03 1412.73 L2396.03 1438.65 L2391.77 1438.65 L2391.77 1434.67 Q2390.22 1437.03 2388.16 1438.19 Q2386.13 1439.32 2383.42 1439.32 Q2378.95 1439.32 2376.63 1436.55 Q2374.32 1433.77 2374.32 1428.42 M2385.04 1412.1 L2385.04 1412.1 Z" fill="#000000" fill-rule="nonzero" fill-opacity="1" /><path clip-path="url(#clip280)" d="M2404.81 1402.63 L2409.07 1402.63 L2409.07 1438.65 L2404.81 1438.65 L2404.81 1402.63 Z" fill="#000000" fill-rule="nonzero" fill-opacity="1" /><path clip-path="url(#clip280)" d="M2422.19 1405.37 L2422.19 1412.73 L2430.96 1412.73 L2430.96 1416.04 L2422.19 1416.04 L2422.19 1430.11 Q2422.19 1433.28 2423.05 1434.19 Q2423.93 1435.09 2426.59 1435.09 L2430.96 1435.09 L2430.96 1438.65 L2426.59 1438.65 Q2421.66 1438.65 2419.78 1436.82 Q2417.91 1434.97 2417.91 1430.11 L2417.91 1416.04 L2414.78 1416.04 L2414.78 1412.73 L2417.91 1412.73 L2417.91 1405.37 L2422.19 1405.37 Z" fill="#000000" fill-rule="nonzero" fill-opacity="1" /><path clip-path="url(#clip280)" d="M2121.17 1493.95 L2282.14 1493.95 L2282.14 1452.48 L2121.17 1452.48 L2121.17 1493.95  Z" fill="#cd5c5c" fill-rule="evenodd" fill-opacity="0.7"/>
<polyline clip-path="url(#clip280)" style="stroke:#cd5c5c; stroke-linecap:round; stroke-linejoin:round; stroke-width:2; stroke-opacity:0.7; fill:none" points="2121.17,1452.48 2282.14,1452.48 "/>
<path clip-path="url(#clip280)" d="M2308.97 1455.93 L2313.65 1455.93 L2313.65 1490.49 L2308.97 1490.49 L2308.97 1455.93 Z" fill="#000000" fill-rule="nonzero" fill-opacity="1" /><path clip-path="url(#clip280)" d="M2342.95 1469.54 Q2344.55 1466.67 2346.77 1465.31 Q2349 1463.94 2352.01 1463.94 Q2356.06 1463.94 2358.26 1466.79 Q2360.45 1469.61 2360.45 1474.84 L2360.45 1490.49 L2356.17 1490.49 L2356.17 1474.98 Q2356.17 1471.26 2354.85 1469.45 Q2353.53 1467.65 2350.82 1467.65 Q2347.51 1467.65 2345.59 1469.84 Q2343.67 1472.04 2343.67 1475.84 L2343.67 1490.49 L2339.39 1490.49 L2339.39 1474.98 Q2339.39 1471.23 2338.07 1469.45 Q2336.75 1467.65 2334 1467.65 Q2330.73 1467.65 2328.81 1469.87 Q2326.89 1472.07 2326.89 1475.84 L2326.89 1490.49 L2322.61 1490.49 L2322.61 1464.57 L2326.89 1464.57 L2326.89 1468.59 Q2328.35 1466.21 2330.39 1465.08 Q2332.42 1463.94 2335.22 1463.94 Q2338.05 1463.94 2340.01 1465.38 Q2342.01 1466.81 2342.95 1469.54 Z" fill="#000000" fill-rule="nonzero" fill-opacity="1" /><path clip-path="url(#clip280)" d="M2389.13 1469.54 Q2390.73 1466.67 2392.95 1465.31 Q2395.18 1463.94 2398.19 1463.94 Q2402.24 1463.94 2404.44 1466.79 Q2406.63 1469.61 2406.63 1474.84 L2406.63 1490.49 L2402.35 1490.49 L2402.35 1474.98 Q2402.35 1471.26 2401.03 1469.45 Q2399.71 1467.65 2397.01 1467.65 Q2393.7 1467.65 2391.77 1469.84 Q2389.85 1472.04 2389.85 1475.84 L2389.85 1490.49 L2385.57 1490.49 L2385.57 1474.98 Q2385.57 1471.23 2384.25 1469.45 Q2382.93 1467.65 2380.18 1467.65 Q2376.91 1467.65 2374.99 1469.87 Q2373.07 1472.07 2373.07 1475.84 L2373.07 1490.49 L2368.79 1490.49 L2368.79 1464.57 L2373.07 1464.57 L2373.07 1468.59 Q2374.53 1466.21 2376.57 1465.08 Q2378.6 1463.94 2381.4 1463.94 Q2384.23 1463.94 2386.2 1465.38 Q2388.19 1466.81 2389.13 1469.54 Z" fill="#000000" fill-rule="nonzero" fill-opacity="1" /><path clip-path="url(#clip280)" d="M2426.91 1477.46 Q2421.75 1477.46 2419.76 1478.64 Q2417.77 1479.82 2417.77 1482.67 Q2417.77 1484.94 2419.25 1486.28 Q2420.76 1487.6 2423.32 1487.6 Q2426.87 1487.6 2429 1485.1 Q2431.15 1482.58 2431.15 1478.41 L2431.15 1477.46 L2426.91 1477.46 M2435.41 1475.7 L2435.41 1490.49 L2431.15 1490.49 L2431.15 1486.56 Q2429.69 1488.92 2427.51 1490.05 Q2425.34 1491.16 2422.19 1491.16 Q2418.21 1491.16 2415.85 1488.94 Q2413.51 1486.7 2413.51 1482.95 Q2413.51 1478.57 2416.43 1476.35 Q2419.37 1474.13 2425.18 1474.13 L2431.15 1474.13 L2431.15 1473.71 Q2431.15 1470.77 2429.2 1469.17 Q2427.28 1467.55 2423.79 1467.55 Q2421.57 1467.55 2419.46 1468.09 Q2417.35 1468.62 2415.41 1469.68 L2415.41 1465.75 Q2417.75 1464.84 2419.94 1464.41 Q2422.14 1463.94 2424.23 1463.94 Q2429.85 1463.94 2432.63 1466.86 Q2435.41 1469.78 2435.41 1475.7 Z" fill="#000000" fill-rule="nonzero" fill-opacity="1" /><path clip-path="url(#clip280)" d="M2448.39 1457.21 L2448.39 1464.57 L2457.17 1464.57 L2457.17 1467.88 L2448.39 1467.88 L2448.39 1481.95 Q2448.39 1485.12 2449.25 1486.03 Q2450.13 1486.93 2452.79 1486.93 L2457.17 1486.93 L2457.17 1490.49 L2452.79 1490.49 Q2447.86 1490.49 2445.99 1488.66 Q2444.11 1486.81 2444.11 1481.95 L2444.11 1467.88 L2440.99 1467.88 L2440.99 1464.57 L2444.11 1464.57 L2444.11 1457.21 L2448.39 1457.21 Z" fill="#000000" fill-rule="nonzero" fill-opacity="1" /><path clip-path="url(#clip280)" d="M2462.33 1480.26 L2462.33 1464.57 L2466.59 1464.57 L2466.59 1480.1 Q2466.59 1483.78 2468.02 1485.63 Q2469.46 1487.46 2472.33 1487.46 Q2475.78 1487.46 2477.77 1485.26 Q2479.78 1483.06 2479.78 1479.27 L2479.78 1464.57 L2484.04 1464.57 L2484.04 1490.49 L2479.78 1490.49 L2479.78 1486.51 Q2478.23 1488.87 2476.17 1490.03 Q2474.13 1491.16 2471.43 1491.16 Q2466.96 1491.16 2464.64 1488.39 Q2462.33 1485.61 2462.33 1480.26 M2473.05 1463.94 L2473.05 1463.94 Z" fill="#000000" fill-rule="nonzero" fill-opacity="1" /><path clip-path="url(#clip280)" d="M2507.84 1468.55 Q2507.12 1468.13 2506.26 1467.95 Q2505.43 1467.74 2504.41 1467.74 Q2500.8 1467.74 2498.86 1470.1 Q2496.94 1472.44 2496.94 1476.84 L2496.94 1490.49 L2492.65 1490.49 L2492.65 1464.57 L2496.94 1464.57 L2496.94 1468.59 Q2498.28 1466.23 2500.43 1465.1 Q2502.58 1463.94 2505.66 1463.94 Q2506.1 1463.94 2506.63 1464.01 Q2507.17 1464.06 2507.81 1464.17 L2507.84 1468.55 Z" fill="#000000" fill-rule="nonzero" fill-opacity="1" /><path clip-path="url(#clip280)" d="M2533.44 1476.47 L2533.44 1478.55 L2513.86 1478.55 Q2514.13 1482.95 2516.5 1485.26 Q2518.88 1487.55 2523.12 1487.55 Q2525.57 1487.55 2527.86 1486.95 Q2530.18 1486.35 2532.44 1485.15 L2532.44 1489.17 Q2530.15 1490.15 2527.75 1490.65 Q2525.34 1491.16 2522.86 1491.16 Q2516.66 1491.16 2513.02 1487.55 Q2509.41 1483.94 2509.41 1477.78 Q2509.41 1471.42 2512.84 1467.69 Q2516.29 1463.94 2522.12 1463.94 Q2527.35 1463.94 2530.38 1467.32 Q2533.44 1470.68 2533.44 1476.47 M2529.18 1475.22 Q2529.13 1471.72 2527.21 1469.64 Q2525.31 1467.55 2522.17 1467.55 Q2518.6 1467.55 2516.45 1469.57 Q2514.32 1471.58 2514 1475.24 L2529.18 1475.22 Z" fill="#000000" fill-rule="nonzero" fill-opacity="1" /><path clip-path="url(#clip280)" d="M2121.17 1545.79 L2282.14 1545.79 L2282.14 1504.32 L2121.17 1504.32 L2121.17 1545.79  Z" fill="#daa520" fill-rule="evenodd" fill-opacity="0.7"/>
<polyline clip-path="url(#clip280)" style="stroke:#daa520; stroke-linecap:round; stroke-linejoin:round; stroke-width:2; stroke-opacity:0.7; fill:none" points="2121.17,1504.32 2282.14,1504.32 "/>
<path clip-path="url(#clip280)" d="M2308.97 1507.77 L2313.65 1507.77 L2313.65 1538.4 L2330.48 1538.4 L2330.48 1542.33 L2308.97 1542.33 L2308.97 1507.77 Z" fill="#000000" fill-rule="nonzero" fill-opacity="1" /><path clip-path="url(#clip280)" d="M2346.98 1529.3 Q2341.82 1529.3 2339.83 1530.48 Q2337.84 1531.66 2337.84 1534.51 Q2337.84 1536.78 2339.32 1538.12 Q2340.82 1539.44 2343.39 1539.44 Q2346.94 1539.44 2349.07 1536.94 Q2351.22 1534.42 2351.22 1530.25 L2351.22 1529.3 L2346.98 1529.3 M2355.48 1527.54 L2355.48 1542.33 L2351.22 1542.33 L2351.22 1538.4 Q2349.76 1540.76 2347.58 1541.89 Q2345.41 1543 2342.26 1543 Q2338.28 1543 2335.92 1540.78 Q2333.58 1538.54 2333.58 1534.79 Q2333.58 1530.41 2336.5 1528.19 Q2339.44 1525.97 2345.25 1525.97 L2351.22 1525.97 L2351.22 1525.55 Q2351.22 1522.61 2349.27 1521.01 Q2347.35 1519.39 2343.86 1519.39 Q2341.64 1519.39 2339.53 1519.93 Q2337.42 1520.46 2335.48 1521.52 L2335.48 1517.59 Q2337.82 1516.68 2340.01 1516.25 Q2342.21 1515.78 2344.3 1515.78 Q2349.92 1515.78 2352.7 1518.7 Q2355.48 1521.62 2355.48 1527.54 Z" fill="#000000" fill-rule="nonzero" fill-opacity="1" /><path clip-path="url(#clip280)" d="M2379.27 1520.39 Q2378.56 1519.97 2377.7 1519.79 Q2376.87 1519.58 2375.85 1519.58 Q2372.24 1519.58 2370.29 1521.94 Q2368.37 1524.28 2368.37 1528.68 L2368.37 1542.33 L2364.09 1542.33 L2364.09 1516.41 L2368.37 1516.41 L2368.37 1520.43 Q2369.71 1518.07 2371.87 1516.94 Q2374.02 1515.78 2377.1 1515.78 Q2377.54 1515.78 2378.07 1515.85 Q2378.6 1515.9 2379.25 1516.01 L2379.27 1520.39 Z" fill="#000000" fill-rule="nonzero" fill-opacity="1" /><path clip-path="url(#clip280)" d="M2399.97 1529.07 Q2399.97 1524.44 2398.05 1521.89 Q2396.15 1519.35 2392.7 1519.35 Q2389.27 1519.35 2387.35 1521.89 Q2385.45 1524.44 2385.45 1529.07 Q2385.45 1533.68 2387.35 1536.22 Q2389.27 1538.77 2392.7 1538.77 Q2396.15 1538.77 2398.05 1536.22 Q2399.97 1533.68 2399.97 1529.07 M2404.23 1539.12 Q2404.23 1545.74 2401.29 1548.95 Q2398.35 1552.19 2392.28 1552.19 Q2390.04 1552.19 2388.05 1551.85 Q2386.06 1551.52 2384.18 1550.83 L2384.18 1546.68 Q2386.06 1547.7 2387.88 1548.19 Q2389.71 1548.68 2391.61 1548.68 Q2395.8 1548.68 2397.88 1546.48 Q2399.97 1544.3 2399.97 1539.88 L2399.97 1537.77 Q2398.65 1540.06 2396.59 1541.2 Q2394.53 1542.33 2391.66 1542.33 Q2386.89 1542.33 2383.97 1538.7 Q2381.06 1535.06 2381.06 1529.07 Q2381.06 1523.05 2383.97 1519.42 Q2386.89 1515.78 2391.66 1515.78 Q2394.53 1515.78 2396.59 1516.92 Q2398.65 1518.05 2399.97 1520.34 L2399.97 1516.41 L2404.23 1516.41 L2404.23 1539.12 Z" fill="#000000" fill-rule="nonzero" fill-opacity="1" /><path clip-path="url(#clip280)" d="M2435.18 1528.31 L2435.18 1530.39 L2415.59 1530.39 Q2415.87 1534.79 2418.23 1537.1 Q2420.62 1539.39 2424.85 1539.39 Q2427.31 1539.39 2429.6 1538.79 Q2431.91 1538.19 2434.18 1536.99 L2434.18 1541.01 Q2431.89 1541.99 2429.48 1542.49 Q2427.07 1543 2424.6 1543 Q2418.39 1543 2414.76 1539.39 Q2411.15 1535.78 2411.15 1529.62 Q2411.15 1523.26 2414.57 1519.53 Q2418.02 1515.78 2423.86 1515.78 Q2429.09 1515.78 2432.12 1519.16 Q2435.18 1522.52 2435.18 1528.31 M2430.92 1527.06 Q2430.87 1523.56 2428.95 1521.48 Q2427.05 1519.39 2423.9 1519.39 Q2420.34 1519.39 2418.19 1521.41 Q2416.06 1523.42 2415.73 1527.08 L2430.92 1527.06 Z" fill="#000000" fill-rule="nonzero" fill-opacity="1" /><path clip-path="url(#clip280)" d="M2457.24 1516.41 L2461.5 1516.41 L2461.5 1542.8 Q2461.5 1547.75 2459.6 1549.97 Q2457.72 1552.19 2453.53 1552.19 L2451.91 1552.19 L2451.91 1548.58 L2453.05 1548.58 Q2455.48 1548.58 2456.36 1547.45 Q2457.24 1546.34 2457.24 1542.8 L2457.24 1516.41 M2457.24 1506.31 L2461.5 1506.31 L2461.5 1511.71 L2457.24 1511.71 L2457.24 1506.31 Z" fill="#000000" fill-rule="nonzero" fill-opacity="1" /><path clip-path="url(#clip280)" d="M2469.97 1532.1 L2469.97 1516.41 L2474.23 1516.41 L2474.23 1531.94 Q2474.23 1535.62 2475.66 1537.47 Q2477.1 1539.3 2479.97 1539.3 Q2483.42 1539.3 2485.41 1537.1 Q2487.42 1534.9 2487.42 1531.11 L2487.42 1516.41 L2491.68 1516.41 L2491.68 1542.33 L2487.42 1542.33 L2487.42 1538.35 Q2485.87 1540.71 2483.81 1541.87 Q2481.77 1543 2479.06 1543 Q2474.6 1543 2472.28 1540.23 Q2469.97 1537.45 2469.97 1532.1 M2480.69 1515.78 L2480.69 1515.78 Z" fill="#000000" fill-rule="nonzero" fill-opacity="1" /><path clip-path="url(#clip280)" d="M2497.4 1516.41 L2501.91 1516.41 L2510.01 1538.17 L2518.12 1516.41 L2522.63 1516.41 L2512.91 1542.33 L2507.12 1542.33 L2497.4 1516.41 Z" fill="#000000" fill-rule="nonzero" fill-opacity="1" /><path clip-path="url(#clip280)" d="M2121.17 1597.63 L2282.14 1597.63 L2282.14 1556.16 L2121.17 1556.16 L2121.17 1597.63  Z" fill="#4682b4" fill-rule="evenodd" fill-opacity="0.7"/>
<polyline clip-path="url(#clip280)" style="stroke:#4682b4; stroke-linecap:round; stroke-linejoin:round; stroke-width:2; stroke-opacity:0.7; fill:none" points="2121.17,1556.16 2282.14,1556.16 "/>
<path clip-path="url(#clip280)" d="M2331.22 1560.75 L2331.22 1565.31 Q2328.56 1564.03 2326.2 1563.41 Q2323.83 1562.78 2321.64 1562.78 Q2317.82 1562.78 2315.73 1564.27 Q2313.67 1565.75 2313.67 1568.48 Q2313.67 1570.77 2315.04 1571.95 Q2316.43 1573.11 2320.27 1573.83 L2323.09 1574.4 Q2328.33 1575.4 2330.8 1577.92 Q2333.3 1580.42 2333.3 1584.64 Q2333.3 1589.66 2329.92 1592.25 Q2326.57 1594.84 2320.06 1594.84 Q2317.61 1594.84 2314.83 1594.29 Q2312.08 1593.73 2309.11 1592.65 L2309.11 1587.83 Q2311.96 1589.43 2314.69 1590.24 Q2317.42 1591.05 2320.06 1591.05 Q2324.07 1591.05 2326.24 1589.47 Q2328.42 1587.9 2328.42 1584.98 Q2328.42 1582.44 2326.84 1581 Q2325.29 1579.57 2321.73 1578.85 L2318.88 1578.29 Q2313.65 1577.25 2311.31 1575.03 Q2308.97 1572.81 2308.97 1568.85 Q2308.97 1564.27 2312.19 1561.63 Q2315.43 1558.99 2321.1 1558.99 Q2323.53 1558.99 2326.06 1559.43 Q2328.58 1559.87 2331.22 1560.75 Z" fill="#000000" fill-rule="nonzero" fill-opacity="1" /><path clip-path="url(#clip280)" d="M2360.59 1573.22 Q2362.19 1570.35 2364.41 1568.99 Q2366.64 1567.62 2369.64 1567.62 Q2373.7 1567.62 2375.89 1570.47 Q2378.09 1573.29 2378.09 1578.52 L2378.09 1594.17 L2373.81 1594.17 L2373.81 1578.66 Q2373.81 1574.94 2372.49 1573.13 Q2371.17 1571.33 2368.46 1571.33 Q2365.15 1571.33 2363.23 1573.52 Q2361.31 1575.72 2361.31 1579.52 L2361.31 1594.17 L2357.03 1594.17 L2357.03 1578.66 Q2357.03 1574.91 2355.71 1573.13 Q2354.39 1571.33 2351.64 1571.33 Q2348.37 1571.33 2346.45 1573.55 Q2344.53 1575.75 2344.53 1579.52 L2344.53 1594.17 L2340.25 1594.17 L2340.25 1568.25 L2344.53 1568.25 L2344.53 1572.27 Q2345.99 1569.89 2348.02 1568.76 Q2350.06 1567.62 2352.86 1567.62 Q2355.69 1567.62 2357.65 1569.06 Q2359.64 1570.49 2360.59 1573.22 Z" fill="#000000" fill-rule="nonzero" fill-opacity="1" /><path clip-path="url(#clip280)" d="M2398.37 1581.14 Q2393.21 1581.14 2391.22 1582.32 Q2389.23 1583.5 2389.23 1586.35 Q2389.23 1588.62 2390.71 1589.96 Q2392.21 1591.28 2394.78 1591.28 Q2398.32 1591.28 2400.45 1588.78 Q2402.61 1586.26 2402.61 1582.09 L2402.61 1581.14 L2398.37 1581.14 M2406.87 1579.38 L2406.87 1594.17 L2402.61 1594.17 L2402.61 1590.24 Q2401.15 1592.6 2398.97 1593.73 Q2396.8 1594.84 2393.65 1594.84 Q2389.67 1594.84 2387.31 1592.62 Q2384.97 1590.38 2384.97 1586.63 Q2384.97 1582.25 2387.88 1580.03 Q2390.82 1577.81 2396.63 1577.81 L2402.61 1577.81 L2402.61 1577.39 Q2402.61 1574.45 2400.66 1572.85 Q2398.74 1571.23 2395.25 1571.23 Q2393.02 1571.23 2390.92 1571.77 Q2388.81 1572.3 2386.87 1573.36 L2386.87 1569.43 Q2389.2 1568.52 2391.4 1568.09 Q2393.6 1567.62 2395.69 1567.62 Q2401.31 1567.62 2404.09 1570.54 Q2406.87 1573.46 2406.87 1579.38 Z" fill="#000000" fill-rule="nonzero" fill-opacity="1" /><path clip-path="url(#clip280)" d="M2415.64 1558.15 L2419.9 1558.15 L2419.9 1594.17 L2415.64 1594.17 L2415.64 1558.15 Z" fill="#000000" fill-rule="nonzero" fill-opacity="1" /><path clip-path="url(#clip280)" d="M2428.81 1558.15 L2433.07 1558.15 L2433.07 1594.17 L2428.81 1594.17 L2428.81 1558.15 Z" fill="#000000" fill-rule="nonzero" fill-opacity="1" /><path clip-path="url(#clip280)" d="M2457.05 1568.25 L2461.31 1568.25 L2461.31 1594.64 Q2461.31 1599.59 2459.41 1601.81 Q2457.54 1604.03 2453.35 1604.03 L2451.73 1604.03 L2451.73 1600.42 L2452.86 1600.42 Q2455.29 1600.42 2456.17 1599.29 Q2457.05 1598.18 2457.05 1594.64 L2457.05 1568.25 M2457.05 1558.15 L2461.31 1558.15 L2461.31 1563.55 L2457.05 1563.55 L2457.05 1558.15 Z" fill="#000000" fill-rule="nonzero" fill-opacity="1" /><path clip-path="url(#clip280)" d="M2469.78 1583.94 L2469.78 1568.25 L2474.04 1568.25 L2474.04 1583.78 Q2474.04 1587.46 2475.48 1589.31 Q2476.91 1591.14 2479.78 1591.14 Q2483.23 1591.14 2485.22 1588.94 Q2487.24 1586.74 2487.24 1582.95 L2487.24 1568.25 L2491.5 1568.25 L2491.5 1594.17 L2487.24 1594.17 L2487.24 1590.19 Q2485.69 1592.55 2483.63 1593.71 Q2481.59 1594.84 2478.88 1594.84 Q2474.41 1594.84 2472.1 1592.07 Q2469.78 1589.29 2469.78 1583.94 M2480.5 1567.62 L2480.5 1567.62 Z" fill="#000000" fill-rule="nonzero" fill-opacity="1" /><path clip-path="url(#clip280)" d="M2497.21 1568.25 L2501.73 1568.25 L2509.83 1590.01 L2517.93 1568.25 L2522.44 1568.25 L2512.72 1594.17 L2506.94 1594.17 L2497.21 1568.25 Z" fill="#000000" fill-rule="nonzero" fill-opacity="1" /><path clip-path="url(#clip280)" d="M2121.17 1649.47 L2282.14 1649.47 L2282.14 1608 L2121.17 1608 L2121.17 1649.47  Z" fill="#008080" fill-rule="evenodd" fill-opacity="0.7"/>
<polyline clip-path="url(#clip280)" style="stroke:#008080; stroke-linecap:round; stroke-linejoin:round; stroke-width:2; stroke-opacity:0.7; fill:none" points="2121.17,1608 2282.14,1608 "/>
<path clip-path="url(#clip280)" d="M2308.97 1611.45 L2314 1611.45 L2323.58 1625.67 L2333.09 1611.45 L2338.12 1611.45 L2325.89 1629.55 L2325.89 1646.01 L2321.2 1646.01 L2321.2 1629.55 L2308.97 1611.45 Z" fill="#000000" fill-rule="nonzero" fill-opacity="1" /><path clip-path="url(#clip280)" d="M2358.37 1631.99 L2358.37 1634.07 L2338.79 1634.07 Q2339.07 1638.47 2341.43 1640.78 Q2343.81 1643.07 2348.05 1643.07 Q2350.5 1643.07 2352.79 1642.47 Q2355.11 1641.87 2357.38 1640.67 L2357.38 1644.69 Q2355.08 1645.67 2352.68 1646.17 Q2350.27 1646.68 2347.79 1646.68 Q2341.59 1646.68 2337.95 1643.07 Q2334.34 1639.46 2334.34 1633.3 Q2334.34 1626.94 2337.77 1623.21 Q2341.22 1619.46 2347.05 1619.46 Q2352.28 1619.46 2355.32 1622.84 Q2358.37 1626.2 2358.37 1631.99 M2354.11 1630.74 Q2354.07 1627.24 2352.14 1625.16 Q2350.25 1623.07 2347.1 1623.07 Q2343.53 1623.07 2341.38 1625.09 Q2339.25 1627.1 2338.93 1630.76 L2354.11 1630.74 Z" fill="#000000" fill-rule="nonzero" fill-opacity="1" /><path clip-path="url(#clip280)" d="M2377.14 1632.98 Q2371.98 1632.98 2369.99 1634.16 Q2368 1635.34 2368 1638.19 Q2368 1640.46 2369.48 1641.8 Q2370.99 1643.12 2373.56 1643.12 Q2377.1 1643.12 2379.23 1640.62 Q2381.38 1638.1 2381.38 1633.93 L2381.38 1632.98 L2377.14 1632.98 M2385.64 1631.22 L2385.64 1646.01 L2381.38 1646.01 L2381.38 1642.08 Q2379.92 1644.44 2377.75 1645.57 Q2375.57 1646.68 2372.42 1646.68 Q2368.44 1646.68 2366.08 1644.46 Q2363.74 1642.22 2363.74 1638.47 Q2363.74 1634.09 2366.66 1631.87 Q2369.6 1629.65 2375.41 1629.65 L2381.38 1629.65 L2381.38 1629.23 Q2381.38 1626.29 2379.44 1624.69 Q2377.51 1623.07 2374.02 1623.07 Q2371.8 1623.07 2369.69 1623.61 Q2367.58 1624.14 2365.64 1625.2 L2365.64 1621.27 Q2367.98 1620.36 2370.18 1619.93 Q2372.38 1619.46 2374.46 1619.46 Q2380.08 1619.46 2382.86 1622.38 Q2385.64 1625.3 2385.64 1631.22 Z" fill="#000000" fill-rule="nonzero" fill-opacity="1" /><path clip-path="url(#clip280)" d="M2409.44 1624.07 Q2408.72 1623.65 2407.86 1623.47 Q2407.03 1623.26 2406.01 1623.26 Q2402.4 1623.26 2400.45 1625.62 Q2398.53 1627.96 2398.53 1632.36 L2398.53 1646.01 L2394.25 1646.01 L2394.25 1620.09 L2398.53 1620.09 L2398.53 1624.11 Q2399.88 1621.75 2402.03 1620.62 Q2404.18 1619.46 2407.26 1619.46 Q2407.7 1619.46 2408.23 1619.53 Q2408.76 1619.58 2409.41 1619.69 L2409.44 1624.07 Z" fill="#000000" fill-rule="nonzero" fill-opacity="1" /><path clip-path="url(#clip280)" d="M2413.9 1609.99 L2418.16 1609.99 L2418.16 1646.01 L2413.9 1646.01 L2413.9 1609.99 Z" fill="#000000" fill-rule="nonzero" fill-opacity="1" /><path clip-path="url(#clip280)" d="M2427.07 1620.09 L2431.33 1620.09 L2431.33 1646.01 L2427.07 1646.01 L2427.07 1620.09 M2427.07 1609.99 L2431.33 1609.99 L2431.33 1615.39 L2427.07 1615.39 L2427.07 1609.99 Z" fill="#000000" fill-rule="nonzero" fill-opacity="1" /><path clip-path="url(#clip280)" d="M2461.8 1630.36 L2461.8 1646.01 L2457.54 1646.01 L2457.54 1630.5 Q2457.54 1626.82 2456.1 1624.99 Q2454.67 1623.17 2451.8 1623.17 Q2448.35 1623.17 2446.36 1625.36 Q2444.37 1627.56 2444.37 1631.36 L2444.37 1646.01 L2440.08 1646.01 L2440.08 1620.09 L2444.37 1620.09 L2444.37 1624.11 Q2445.89 1621.78 2447.95 1620.62 Q2450.04 1619.46 2452.75 1619.46 Q2457.21 1619.46 2459.5 1622.24 Q2461.8 1624.99 2461.8 1630.36 Z" fill="#000000" fill-rule="nonzero" fill-opacity="1" /><path clip-path="url(#clip280)" d="M2487.35 1632.75 Q2487.35 1628.12 2485.43 1625.57 Q2483.53 1623.03 2480.08 1623.03 Q2476.66 1623.03 2474.74 1625.57 Q2472.84 1628.12 2472.84 1632.75 Q2472.84 1637.36 2474.74 1639.9 Q2476.66 1642.45 2480.08 1642.45 Q2483.53 1642.45 2485.43 1639.9 Q2487.35 1637.36 2487.35 1632.75 M2491.61 1642.8 Q2491.61 1649.42 2488.67 1652.63 Q2485.73 1655.87 2479.67 1655.87 Q2477.42 1655.87 2475.43 1655.53 Q2473.44 1655.2 2471.56 1654.51 L2471.56 1650.36 Q2473.44 1651.38 2475.27 1651.87 Q2477.1 1652.36 2479 1652.36 Q2483.19 1652.36 2485.27 1650.16 Q2487.35 1647.98 2487.35 1643.56 L2487.35 1641.45 Q2486.03 1643.74 2483.97 1644.88 Q2481.91 1646.01 2479.04 1646.01 Q2474.27 1646.01 2471.36 1642.38 Q2468.44 1638.74 2468.44 1632.75 Q2468.44 1626.73 2471.36 1623.1 Q2474.27 1619.46 2479.04 1619.46 Q2481.91 1619.46 2483.97 1620.6 Q2486.03 1621.73 2487.35 1624.02 L2487.35 1620.09 L2491.61 1620.09 L2491.61 1642.8 Z" fill="#000000" fill-rule="nonzero" fill-opacity="1" /></svg>
