<?xml version="1.0" encoding="utf-8"?>
<svg xmlns="http://www.w3.org/2000/svg" xmlns:xlink="http://www.w3.org/1999/xlink" width="672" height="480" viewBox="0 0 2688 1920">
<defs>
  <clipPath id="clip340">
    <rect x="0" y="0" width="2688" height="1920"/>
  </clipPath>
</defs>
<path clip-path="url(#clip340)" d="M0 1920 L2688 1920 L2688 -4.26326e-14 L0 -4.26326e-14  Z" fill="#ffffff" fill-rule="evenodd" fill-opacity="1"/>
<defs>
  <clipPath id="clip341">
    <rect x="255" y="127" width="2386" height="1674"/>
  </clipPath>
</defs>
<path clip-path="url(#clip340)" d="M255.816 1800.78 L2640.76 1800.78 L2640.76 127.792 L255.816 127.792  Z" fill="#ffffff" fill-rule="evenodd" fill-opacity="1"/>
<polyline clip-path="url(#clip341)" style="stroke:#000000; stroke-linecap:round; stroke-linejoin:round; stroke-width:2; stroke-opacity:0.1; fill:none" points="563.875,1800.78 563.875,127.792 "/>
<polyline clip-path="url(#clip341)" style="stroke:#000000; stroke-linecap:round; stroke-linejoin:round; stroke-width:2; stroke-opacity:0.1; fill:none" points="1006.08,1800.78 1006.08,127.792 "/>
<polyline clip-path="url(#clip341)" style="stroke:#000000; stroke-linecap:round; stroke-linejoin:round; stroke-width:2; stroke-opacity:0.1; fill:none" points="1448.29,1800.78 1448.29,127.792 "/>
<polyline clip-path="url(#clip341)" style="stroke:#000000; stroke-linecap:round; stroke-linejoin:round; stroke-width:2; stroke-opacity:0.1; fill:none" points="1890.49,1800.78 1890.49,127.792 "/>
<polyline clip-path="url(#clip341)" style="stroke:#000000; stroke-linecap:round; stroke-linejoin:round; stroke-width:2; stroke-opacity:0.1; fill:none" points="2332.7,1800.78 2332.7,127.792 "/>
<polyline clip-path="url(#clip341)" style="stroke:#000000; stroke-linecap:round; stroke-linejoin:round; stroke-width:2; stroke-opacity:0.1; fill:none" points="255.816,1800.78 2640.76,1800.78 "/>
<polyline clip-path="url(#clip341)" style="stroke:#000000; stroke-linecap:round; stroke-linejoin:round; stroke-width:2; stroke-opacity:0.1; fill:none" points="255.816,1335.17 2640.76,1335.17 "/>
<polyline clip-path="url(#clip341)" style="stroke:#000000; stroke-linecap:round; stroke-linejoin:round; stroke-width:2; stroke-opacity:0.1; fill:none" points="255.816,869.563 2640.76,869.563 "/>
<polyline clip-path="url(#clip341)" style="stroke:#000000; stroke-linecap:round; stroke-linejoin:round; stroke-width:2; stroke-opacity:0.1; fill:none" points="255.816,403.954 2640.76,403.954 "/>
<polyline clip-path="url(#clip340)" style="stroke:#000000; stroke-linecap:round; stroke-linejoin:round; stroke-width:4; stroke-opacity:1; fill:none" points="255.816,1800.78 2640.76,1800.78 "/>
<polyline clip-path="url(#clip340)" style="stroke:#000000; stroke-linecap:round; stroke-linejoin:round; stroke-width:4; stroke-opacity:1; fill:none" points="563.875,1800.78 563.875,1781.88 "/>
<polyline clip-path="url(#clip340)" style="stroke:#000000; stroke-linecap:round; stroke-linejoin:round; stroke-width:4; stroke-opacity:1; fill:none" points="1006.08,1800.78 1006.08,1781.88 "/>
<polyline clip-path="url(#clip340)" style="stroke:#000000; stroke-linecap:round; stroke-linejoin:round; stroke-width:4; stroke-opacity:1; fill:none" points="1448.29,1800.78 1448.29,1781.88 "/>
<polyline clip-path="url(#clip340)" style="stroke:#000000; stroke-linecap:round; stroke-linejoin:round; stroke-width:4; stroke-opacity:1; fill:none" points="1890.49,1800.78 1890.49,1781.88 "/>
<polyline clip-path="url(#clip340)" style="stroke:#000000; stroke-linecap:round; stroke-linejoin:round; stroke-width:4; stroke-opacity:1; fill:none" points="2332.7,1800.78 2332.7,1781.88 "/>
<path clip-path="url(#clip340)" d="M494.338 1832.06 L494.338 1836.62 Q491.676 1835.34 489.315 1834.72 Q486.954 1834.09 484.755 1834.09 Q480.935 1834.09 478.852 1835.58 Q476.792 1837.06 476.792 1839.79 Q476.792 1842.08 478.157 1843.26 Q479.546 1844.42 483.389 1845.14 L486.213 1845.71 Q491.444 1846.71 493.921 1849.23 Q496.421 1851.73 496.421 1855.95 Q496.421 1860.97 493.042 1863.56 Q489.685 1866.15 483.181 1866.15 Q480.727 1866.15 477.949 1865.6 Q475.194 1865.04 472.232 1863.96 L472.232 1859.14 Q475.079 1860.74 477.81 1861.55 Q480.542 1862.36 483.181 1862.36 Q487.185 1862.36 489.361 1860.78 Q491.537 1859.21 491.537 1856.29 Q491.537 1853.75 489.963 1852.31 Q488.412 1850.88 484.847 1850.16 L482 1849.6 Q476.769 1848.56 474.431 1846.34 Q472.093 1844.12 472.093 1840.16 Q472.093 1835.58 475.31 1832.94 Q478.551 1830.3 484.222 1830.3 Q486.653 1830.3 489.176 1830.74 Q491.699 1831.18 494.338 1832.06 Z" fill="#000000" fill-rule="nonzero" fill-opacity="1" /><path clip-path="url(#clip340)" d="M503.088 1855.25 L503.088 1839.56 L507.347 1839.56 L507.347 1855.09 Q507.347 1858.77 508.782 1860.62 Q510.217 1862.45 513.088 1862.45 Q516.537 1862.45 518.528 1860.25 Q520.541 1858.05 520.541 1854.26 L520.541 1839.56 L524.801 1839.56 L524.801 1865.48 L520.541 1865.48 L520.541 1861.5 Q518.991 1863.86 516.93 1865.02 Q514.893 1866.15 512.185 1866.15 Q507.717 1866.15 505.403 1863.38 Q503.088 1860.6 503.088 1855.25 M513.805 1838.93 L513.805 1838.93 Z" fill="#000000" fill-rule="nonzero" fill-opacity="1" /><path clip-path="url(#clip340)" d="M548.597 1843.54 Q547.879 1843.12 547.023 1842.94 Q546.189 1842.73 545.171 1842.73 Q541.56 1842.73 539.615 1845.09 Q537.694 1847.43 537.694 1851.83 L537.694 1865.48 L533.412 1865.48 L533.412 1839.56 L537.694 1839.56 L537.694 1843.59 Q539.037 1841.22 541.189 1840.09 Q543.342 1838.93 546.421 1838.93 Q546.861 1838.93 547.393 1839 Q547.926 1839.05 548.574 1839.16 L548.597 1843.54 Z" fill="#000000" fill-rule="nonzero" fill-opacity="1" /><path clip-path="url(#clip340)" d="M550.009 1839.56 L554.523 1839.56 L562.625 1861.32 L570.726 1839.56 L575.24 1839.56 L565.518 1865.48 L559.731 1865.48 L550.009 1839.56 Z" fill="#000000" fill-rule="nonzero" fill-opacity="1" /><path clip-path="url(#clip340)" d="M581.12 1839.56 L585.379 1839.56 L585.379 1865.48 L581.12 1865.48 L581.12 1839.56 M581.12 1829.46 L585.379 1829.46 L585.379 1834.86 L581.12 1834.86 L581.12 1829.46 Z" fill="#000000" fill-rule="nonzero" fill-opacity="1" /><path clip-path="url(#clip340)" d="M591.236 1839.56 L595.749 1839.56 L603.851 1861.32 L611.953 1839.56 L616.467 1839.56 L606.745 1865.48 L600.958 1865.48 L591.236 1839.56 Z" fill="#000000" fill-rule="nonzero" fill-opacity="1" /><path clip-path="url(#clip340)" d="M634.129 1852.45 Q628.967 1852.45 626.976 1853.63 Q624.985 1854.81 624.985 1857.66 Q624.985 1859.93 626.467 1861.27 Q627.971 1862.59 630.541 1862.59 Q634.083 1862.59 636.212 1860.09 Q638.365 1857.57 638.365 1853.4 L638.365 1852.45 L634.129 1852.45 M642.624 1850.69 L642.624 1865.48 L638.365 1865.48 L638.365 1861.55 Q636.907 1863.91 634.731 1865.04 Q632.555 1866.15 629.407 1866.15 Q625.425 1866.15 623.064 1863.93 Q620.726 1861.69 620.726 1857.94 Q620.726 1853.56 623.643 1851.34 Q626.583 1849.12 632.393 1849.12 L638.365 1849.12 L638.365 1848.7 Q638.365 1845.76 636.42 1844.16 Q634.499 1842.54 631.004 1842.54 Q628.782 1842.54 626.675 1843.08 Q624.569 1843.61 622.624 1844.67 L622.624 1840.74 Q624.962 1839.84 627.161 1839.4 Q629.36 1838.93 631.444 1838.93 Q637.069 1838.93 639.846 1841.85 Q642.624 1844.77 642.624 1850.69 Z" fill="#000000" fill-rule="nonzero" fill-opacity="1" /><path clip-path="url(#clip340)" d="M651.397 1829.46 L655.656 1829.46 L655.656 1865.48 L651.397 1865.48 L651.397 1829.46 Z" fill="#000000" fill-rule="nonzero" fill-opacity="1" /><path clip-path="url(#clip340)" d="M949.182 1860.55 L949.182 1851.27 L941.544 1851.27 L941.544 1847.43 L953.812 1847.43 L953.812 1862.27 Q951.104 1864.19 947.84 1865.18 Q944.576 1866.15 940.872 1866.15 Q932.771 1866.15 928.187 1861.43 Q923.627 1856.69 923.627 1848.24 Q923.627 1839.77 928.187 1835.04 Q932.771 1830.3 940.872 1830.3 Q944.252 1830.3 947.284 1831.13 Q950.34 1831.96 952.909 1833.59 L952.909 1838.56 Q950.317 1836.36 947.4 1835.25 Q944.483 1834.14 941.266 1834.14 Q934.923 1834.14 931.729 1837.68 Q928.558 1841.22 928.558 1848.24 Q928.558 1855.23 931.729 1858.77 Q934.923 1862.31 941.266 1862.31 Q943.743 1862.31 945.687 1861.9 Q947.632 1861.46 949.182 1860.55 Z" fill="#000000" fill-rule="nonzero" fill-opacity="1" /><path clip-path="url(#clip340)" d="M977.192 1843.54 Q976.474 1843.12 975.618 1842.94 Q974.784 1842.73 973.766 1842.73 Q970.155 1842.73 968.21 1845.09 Q966.289 1847.43 966.289 1851.83 L966.289 1865.48 L962.006 1865.48 L962.006 1839.56 L966.289 1839.56 L966.289 1843.59 Q967.631 1841.22 969.784 1840.09 Q971.937 1838.93 975.016 1838.93 Q975.455 1838.93 975.988 1839 Q976.52 1839.05 977.168 1839.16 L977.192 1843.54 Z" fill="#000000" fill-rule="nonzero" fill-opacity="1" /><path clip-path="url(#clip340)" d="M990.664 1842.54 Q987.238 1842.54 985.247 1845.23 Q983.256 1847.89 983.256 1852.54 Q983.256 1857.2 985.224 1859.88 Q987.215 1862.54 990.664 1862.54 Q994.067 1862.54 996.057 1859.86 Q998.048 1857.17 998.048 1852.54 Q998.048 1847.94 996.057 1845.25 Q994.067 1842.54 990.664 1842.54 M990.664 1838.93 Q996.219 1838.93 999.391 1842.54 Q1002.56 1846.15 1002.56 1852.54 Q1002.56 1858.91 999.391 1862.54 Q996.219 1866.15 990.664 1866.15 Q985.085 1866.15 981.914 1862.54 Q978.766 1858.91 978.766 1852.54 Q978.766 1846.15 981.914 1842.54 Q985.085 1838.93 990.664 1838.93 Z" fill="#000000" fill-rule="nonzero" fill-opacity="1" /><path clip-path="url(#clip340)" d="M1007.15 1839.56 L1011.4 1839.56 L1016.73 1859.79 L1022.03 1839.56 L1027.05 1839.56 L1032.38 1859.79 L1037.68 1839.56 L1041.94 1839.56 L1035.15 1865.48 L1030.13 1865.48 L1024.55 1844.23 L1018.95 1865.48 L1013.93 1865.48 L1007.15 1839.56 Z" fill="#000000" fill-rule="nonzero" fill-opacity="1" /><path clip-path="url(#clip340)" d="M1052.61 1832.2 L1052.61 1839.56 L1061.38 1839.56 L1061.38 1842.87 L1052.61 1842.87 L1052.61 1856.94 Q1052.61 1860.11 1053.46 1861.02 Q1054.34 1861.92 1057.01 1861.92 L1061.38 1861.92 L1061.38 1865.48 L1057.01 1865.48 Q1052.08 1865.48 1050.2 1863.65 Q1048.33 1861.8 1048.33 1856.94 L1048.33 1842.87 L1045.2 1842.87 L1045.2 1839.56 L1048.33 1839.56 L1048.33 1832.2 L1052.61 1832.2 Z" fill="#000000" fill-rule="nonzero" fill-opacity="1" /><path clip-path="url(#clip340)" d="M1088.53 1849.84 L1088.53 1865.48 L1084.27 1865.48 L1084.27 1849.97 Q1084.27 1846.29 1082.84 1844.46 Q1081.4 1842.64 1078.53 1842.64 Q1075.08 1842.64 1073.09 1844.84 Q1071.1 1847.03 1071.1 1850.83 L1071.1 1865.48 L1066.82 1865.48 L1066.82 1829.46 L1071.1 1829.46 L1071.1 1843.59 Q1072.63 1841.25 1074.69 1840.09 Q1076.77 1838.93 1079.48 1838.93 Q1083.95 1838.93 1086.24 1841.71 Q1088.53 1844.46 1088.53 1849.84 Z" fill="#000000" fill-rule="nonzero" fill-opacity="1" /><path clip-path="url(#clip340)" d="M1354.47 1832.06 L1354.47 1836.62 Q1351.81 1835.34 1349.44 1834.72 Q1347.08 1834.09 1344.88 1834.09 Q1341.06 1834.09 1338.98 1835.58 Q1336.92 1837.06 1336.92 1839.79 Q1336.92 1842.08 1338.29 1843.26 Q1339.68 1844.42 1343.52 1845.14 L1346.34 1845.71 Q1351.57 1846.71 1354.05 1849.23 Q1356.55 1851.73 1356.55 1855.95 Q1356.55 1860.97 1353.17 1863.56 Q1349.81 1866.15 1343.31 1866.15 Q1340.86 1866.15 1338.08 1865.6 Q1335.32 1865.04 1332.36 1863.96 L1332.36 1859.14 Q1335.21 1860.74 1337.94 1861.55 Q1340.67 1862.36 1343.31 1862.36 Q1347.31 1862.36 1349.49 1860.78 Q1351.67 1859.21 1351.67 1856.29 Q1351.67 1853.75 1350.09 1852.31 Q1348.54 1850.88 1344.98 1850.16 L1342.13 1849.6 Q1336.9 1848.56 1334.56 1846.34 Q1332.22 1844.12 1332.22 1840.16 Q1332.22 1835.58 1335.44 1832.94 Q1338.68 1830.3 1344.35 1830.3 Q1346.78 1830.3 1349.31 1830.74 Q1351.83 1831.18 1354.47 1832.06 Z" fill="#000000" fill-rule="nonzero" fill-opacity="1" /><path clip-path="url(#clip340)" d="M1385.21 1849.84 L1385.21 1865.48 L1380.95 1865.48 L1380.95 1849.97 Q1380.95 1846.29 1379.51 1844.46 Q1378.08 1842.64 1375.21 1842.64 Q1371.76 1842.64 1369.77 1844.84 Q1367.78 1847.03 1367.78 1850.83 L1367.78 1865.48 L1363.49 1865.48 L1363.49 1829.46 L1367.78 1829.46 L1367.78 1843.59 Q1369.31 1841.25 1371.37 1840.09 Q1373.45 1838.93 1376.16 1838.93 Q1380.62 1838.93 1382.92 1841.71 Q1385.21 1844.46 1385.21 1849.84 Z" fill="#000000" fill-rule="nonzero" fill-opacity="1" /><path clip-path="url(#clip340)" d="M1408.73 1843.54 Q1408.01 1843.12 1407.15 1842.94 Q1406.32 1842.73 1405.3 1842.73 Q1401.69 1842.73 1399.74 1845.09 Q1397.82 1847.43 1397.82 1851.83 L1397.82 1865.48 L1393.54 1865.48 L1393.54 1839.56 L1397.82 1839.56 L1397.82 1843.59 Q1399.17 1841.22 1401.32 1840.09 Q1403.47 1838.93 1406.55 1838.93 Q1406.99 1838.93 1407.52 1839 Q1408.05 1839.05 1408.7 1839.16 L1408.73 1843.54 Z" fill="#000000" fill-rule="nonzero" fill-opacity="1" /><path clip-path="url(#clip340)" d="M1413.19 1839.56 L1417.45 1839.56 L1417.45 1865.48 L1413.19 1865.48 L1413.19 1839.56 M1413.19 1829.46 L1417.45 1829.46 L1417.45 1834.86 L1413.19 1834.86 L1413.19 1829.46 Z" fill="#000000" fill-rule="nonzero" fill-opacity="1" /><path clip-path="url(#clip340)" d="M1447.92 1849.84 L1447.92 1865.48 L1443.66 1865.48 L1443.66 1849.97 Q1443.66 1846.29 1442.22 1844.46 Q1440.79 1842.64 1437.92 1842.64 Q1434.47 1842.64 1432.48 1844.84 Q1430.49 1847.03 1430.49 1850.83 L1430.49 1865.48 L1426.2 1865.48 L1426.2 1839.56 L1430.49 1839.56 L1430.49 1843.59 Q1432.01 1841.25 1434.07 1840.09 Q1436.16 1838.93 1438.86 1838.93 Q1443.33 1838.93 1445.62 1841.71 Q1447.92 1844.46 1447.92 1849.84 Z" fill="#000000" fill-rule="nonzero" fill-opacity="1" /><path clip-path="url(#clip340)" d="M1456.25 1829.46 L1460.53 1829.46 L1460.53 1850.74 L1473.24 1839.56 L1478.68 1839.56 L1464.93 1851.69 L1479.26 1865.48 L1473.7 1865.48 L1460.53 1852.82 L1460.53 1865.48 L1456.25 1865.48 L1456.25 1829.46 Z" fill="#000000" fill-rule="nonzero" fill-opacity="1" /><path clip-path="url(#clip340)" d="M1494.81 1852.45 Q1489.65 1852.45 1487.66 1853.63 Q1485.67 1854.81 1485.67 1857.66 Q1485.67 1859.93 1487.15 1861.27 Q1488.66 1862.59 1491.23 1862.59 Q1494.77 1862.59 1496.9 1860.09 Q1499.05 1857.57 1499.05 1853.4 L1499.05 1852.45 L1494.81 1852.45 M1503.31 1850.69 L1503.31 1865.48 L1499.05 1865.48 L1499.05 1861.55 Q1497.59 1863.91 1495.42 1865.04 Q1493.24 1866.15 1490.09 1866.15 Q1486.11 1866.15 1483.75 1863.93 Q1481.41 1861.69 1481.41 1857.94 Q1481.41 1853.56 1484.33 1851.34 Q1487.27 1849.12 1493.08 1849.12 L1499.05 1849.12 L1499.05 1848.7 Q1499.05 1845.76 1497.11 1844.16 Q1495.18 1842.54 1491.69 1842.54 Q1489.47 1842.54 1487.36 1843.08 Q1485.25 1843.61 1483.31 1844.67 L1483.31 1840.74 Q1485.65 1839.84 1487.85 1839.4 Q1490.05 1838.93 1492.13 1838.93 Q1497.75 1838.93 1500.53 1841.85 Q1503.31 1844.77 1503.31 1850.69 Z" fill="#000000" fill-rule="nonzero" fill-opacity="1" /><path clip-path="url(#clip340)" d="M1529.14 1852.22 Q1529.14 1847.59 1527.22 1845.04 Q1525.32 1842.5 1521.87 1842.5 Q1518.45 1842.5 1516.53 1845.04 Q1514.63 1847.59 1514.63 1852.22 Q1514.63 1856.83 1516.53 1859.37 Q1518.45 1861.92 1521.87 1861.92 Q1525.32 1861.92 1527.22 1859.37 Q1529.14 1856.83 1529.14 1852.22 M1533.4 1862.27 Q1533.4 1868.89 1530.46 1872.1 Q1527.52 1875.34 1521.46 1875.34 Q1519.21 1875.34 1517.22 1875 Q1515.23 1874.67 1513.36 1873.98 L1513.36 1869.84 Q1515.23 1870.85 1517.06 1871.34 Q1518.89 1871.83 1520.79 1871.83 Q1524.98 1871.83 1527.06 1869.63 Q1529.14 1867.45 1529.14 1863.03 L1529.14 1860.92 Q1527.82 1863.21 1525.76 1864.35 Q1523.7 1865.48 1520.83 1865.48 Q1516.06 1865.48 1513.15 1861.85 Q1510.23 1858.21 1510.23 1852.22 Q1510.23 1846.2 1513.15 1842.57 Q1516.06 1838.93 1520.83 1838.93 Q1523.7 1838.93 1525.76 1840.07 Q1527.82 1841.2 1529.14 1843.49 L1529.14 1839.56 L1533.4 1839.56 L1533.4 1862.27 Z" fill="#000000" fill-rule="nonzero" fill-opacity="1" /><path clip-path="url(#clip340)" d="M1564.35 1851.46 L1564.35 1853.54 L1544.77 1853.54 Q1545.04 1857.94 1547.41 1860.25 Q1549.79 1862.54 1554.03 1862.54 Q1556.48 1862.54 1558.77 1861.94 Q1561.09 1861.34 1563.35 1860.14 L1563.35 1864.16 Q1561.06 1865.14 1558.66 1865.65 Q1556.25 1866.15 1553.77 1866.15 Q1547.57 1866.15 1543.93 1862.54 Q1540.32 1858.93 1540.32 1852.78 Q1540.32 1846.41 1543.75 1842.68 Q1547.2 1838.93 1553.03 1838.93 Q1558.26 1838.93 1561.29 1842.31 Q1564.35 1845.67 1564.35 1851.46 M1560.09 1850.21 Q1560.04 1846.71 1558.12 1844.63 Q1556.23 1842.54 1553.08 1842.54 Q1549.51 1842.54 1547.36 1844.56 Q1545.23 1846.57 1544.91 1850.23 L1560.09 1850.21 Z" fill="#000000" fill-rule="nonzero" fill-opacity="1" /><path clip-path="url(#clip340)" d="M1845.31 1832.06 L1845.31 1836.62 Q1842.64 1835.34 1840.28 1834.72 Q1837.92 1834.09 1835.72 1834.09 Q1831.9 1834.09 1829.82 1835.58 Q1827.76 1837.06 1827.76 1839.79 Q1827.76 1842.08 1829.13 1843.26 Q1830.52 1844.42 1834.36 1845.14 L1837.18 1845.71 Q1842.41 1846.71 1844.89 1849.23 Q1847.39 1851.73 1847.39 1855.95 Q1847.39 1860.97 1844.01 1863.56 Q1840.65 1866.15 1834.15 1866.15 Q1831.7 1866.15 1828.92 1865.6 Q1826.16 1865.04 1823.2 1863.96 L1823.2 1859.14 Q1826.05 1860.74 1828.78 1861.55 Q1831.51 1862.36 1834.15 1862.36 Q1838.15 1862.36 1840.33 1860.78 Q1842.51 1859.21 1842.51 1856.29 Q1842.51 1853.75 1840.93 1852.31 Q1839.38 1850.88 1835.82 1850.16 L1832.97 1849.6 Q1827.74 1848.56 1825.4 1846.34 Q1823.06 1844.12 1823.06 1840.16 Q1823.06 1835.58 1826.28 1832.94 Q1829.52 1830.3 1835.19 1830.3 Q1837.62 1830.3 1840.14 1830.74 Q1842.67 1831.18 1845.31 1832.06 Z" fill="#000000" fill-rule="nonzero" fill-opacity="1" /><path clip-path="url(#clip340)" d="M1858.71 1832.2 L1858.71 1839.56 L1867.48 1839.56 L1867.48 1842.87 L1858.71 1842.87 L1858.71 1856.94 Q1858.71 1860.11 1859.57 1861.02 Q1860.45 1861.92 1863.11 1861.92 L1867.48 1861.92 L1867.48 1865.48 L1863.11 1865.48 Q1858.18 1865.48 1856.3 1863.65 Q1854.43 1861.8 1854.43 1856.94 L1854.43 1842.87 L1851.3 1842.87 L1851.3 1839.56 L1854.43 1839.56 L1854.43 1832.2 L1858.71 1832.2 Z" fill="#000000" fill-rule="nonzero" fill-opacity="1" /><path clip-path="url(#clip340)" d="M1884.87 1852.45 Q1879.7 1852.45 1877.71 1853.63 Q1875.72 1854.81 1875.72 1857.66 Q1875.72 1859.93 1877.2 1861.27 Q1878.71 1862.59 1881.28 1862.59 Q1884.82 1862.59 1886.95 1860.09 Q1889.1 1857.57 1889.1 1853.4 L1889.1 1852.45 L1884.87 1852.45 M1893.36 1850.69 L1893.36 1865.48 L1889.1 1865.48 L1889.1 1861.55 Q1887.64 1863.91 1885.47 1865.04 Q1883.29 1866.15 1880.14 1866.15 Q1876.16 1866.15 1873.8 1863.93 Q1871.46 1861.69 1871.46 1857.94 Q1871.46 1853.56 1874.38 1851.34 Q1877.32 1849.12 1883.13 1849.12 L1889.1 1849.12 L1889.1 1848.7 Q1889.1 1845.76 1887.16 1844.16 Q1885.24 1842.54 1881.74 1842.54 Q1879.52 1842.54 1877.41 1843.08 Q1875.31 1843.61 1873.36 1844.67 L1873.36 1840.74 Q1875.7 1839.84 1877.9 1839.4 Q1880.1 1838.93 1882.18 1838.93 Q1887.81 1838.93 1890.58 1841.85 Q1893.36 1844.77 1893.36 1850.69 Z" fill="#000000" fill-rule="nonzero" fill-opacity="1" /><path clip-path="url(#clip340)" d="M1918.66 1840.32 L1918.66 1844.35 Q1916.86 1843.42 1914.91 1842.96 Q1912.97 1842.5 1910.89 1842.5 Q1907.71 1842.5 1906.12 1843.47 Q1904.54 1844.44 1904.54 1846.39 Q1904.54 1847.87 1905.68 1848.72 Q1906.81 1849.56 1910.24 1850.32 L1911.7 1850.65 Q1916.23 1851.62 1918.13 1853.4 Q1920.05 1855.16 1920.05 1858.33 Q1920.05 1861.94 1917.18 1864.05 Q1914.33 1866.15 1909.33 1866.15 Q1907.25 1866.15 1904.98 1865.74 Q1902.74 1865.34 1900.24 1864.53 L1900.24 1860.14 Q1902.6 1861.36 1904.89 1861.99 Q1907.18 1862.59 1909.43 1862.59 Q1912.44 1862.59 1914.06 1861.57 Q1915.68 1860.53 1915.68 1858.65 Q1915.68 1856.92 1914.5 1855.99 Q1913.34 1855.07 1909.38 1854.21 L1907.9 1853.86 Q1903.94 1853.03 1902.18 1851.32 Q1900.42 1849.58 1900.42 1846.57 Q1900.42 1842.91 1903.01 1840.92 Q1905.61 1838.93 1910.38 1838.93 Q1912.74 1838.93 1914.82 1839.28 Q1916.9 1839.63 1918.66 1840.32 Z" fill="#000000" fill-rule="nonzero" fill-opacity="1" /><path clip-path="url(#clip340)" d="M1926.83 1839.56 L1931.09 1839.56 L1931.09 1865.48 L1926.83 1865.48 L1926.83 1839.56 M1926.83 1829.46 L1931.09 1829.46 L1931.09 1834.86 L1926.83 1834.86 L1926.83 1829.46 Z" fill="#000000" fill-rule="nonzero" fill-opacity="1" /><path clip-path="url(#clip340)" d="M1956.53 1840.32 L1956.53 1844.35 Q1954.73 1843.42 1952.78 1842.96 Q1950.84 1842.5 1948.76 1842.5 Q1945.58 1842.5 1943.99 1843.47 Q1942.41 1844.44 1942.41 1846.39 Q1942.41 1847.87 1943.55 1848.72 Q1944.68 1849.56 1948.11 1850.32 L1949.57 1850.65 Q1954.1 1851.62 1956 1853.4 Q1957.92 1855.16 1957.92 1858.33 Q1957.92 1861.94 1955.05 1864.05 Q1952.2 1866.15 1947.2 1866.15 Q1945.12 1866.15 1942.85 1865.74 Q1940.61 1865.34 1938.11 1864.53 L1938.11 1860.14 Q1940.47 1861.36 1942.76 1861.99 Q1945.05 1862.59 1947.3 1862.59 Q1950.31 1862.59 1951.93 1861.57 Q1953.55 1860.53 1953.55 1858.65 Q1953.55 1856.92 1952.37 1855.99 Q1951.21 1855.07 1947.25 1854.21 L1945.77 1853.86 Q1941.81 1853.03 1940.05 1851.32 Q1938.29 1849.58 1938.29 1846.57 Q1938.29 1842.91 1940.89 1840.92 Q1943.48 1838.93 1948.25 1838.93 Q1950.61 1838.93 1952.69 1839.28 Q1954.77 1839.63 1956.53 1840.32 Z" fill="#000000" fill-rule="nonzero" fill-opacity="1" /><path clip-path="url(#clip340)" d="M2220.78 1830.92 L2240.64 1830.92 L2240.64 1834.86 L2225.45 1834.86 L2225.45 1845.04 L2239.16 1845.04 L2239.16 1848.98 L2225.45 1848.98 L2225.45 1865.48 L2220.78 1865.48 L2220.78 1830.92 Z" fill="#000000" fill-rule="nonzero" fill-opacity="1" /><path clip-path="url(#clip340)" d="M2267.44 1851.46 L2267.44 1853.54 L2247.86 1853.54 Q2248.14 1857.94 2250.5 1860.25 Q2252.88 1862.54 2257.12 1862.54 Q2259.57 1862.54 2261.86 1861.94 Q2264.18 1861.34 2266.45 1860.14 L2266.45 1864.16 Q2264.16 1865.14 2261.75 1865.65 Q2259.34 1866.15 2256.86 1866.15 Q2250.66 1866.15 2247.03 1862.54 Q2243.42 1858.93 2243.42 1852.78 Q2243.42 1846.41 2246.84 1842.68 Q2250.29 1838.93 2256.12 1838.93 Q2261.36 1838.93 2264.39 1842.31 Q2267.44 1845.67 2267.44 1851.46 M2263.18 1850.21 Q2263.14 1846.71 2261.22 1844.63 Q2259.32 1842.54 2256.17 1842.54 Q2252.61 1842.54 2250.45 1844.56 Q2248.32 1846.57 2248 1850.23 L2263.18 1850.21 Z" fill="#000000" fill-rule="nonzero" fill-opacity="1" /><path clip-path="url(#clip340)" d="M2293.09 1840.55 L2293.09 1844.53 Q2291.29 1843.54 2289.46 1843.05 Q2287.65 1842.54 2285.8 1842.54 Q2281.66 1842.54 2279.36 1845.18 Q2277.07 1847.8 2277.07 1852.54 Q2277.07 1857.29 2279.36 1859.93 Q2281.66 1862.54 2285.8 1862.54 Q2287.65 1862.54 2289.46 1862.06 Q2291.29 1861.55 2293.09 1860.55 L2293.09 1864.49 Q2291.31 1865.32 2289.39 1865.74 Q2287.49 1866.15 2285.34 1866.15 Q2279.48 1866.15 2276.03 1862.47 Q2272.58 1858.79 2272.58 1852.54 Q2272.58 1846.2 2276.05 1842.57 Q2279.55 1838.93 2285.61 1838.93 Q2287.58 1838.93 2289.46 1839.35 Q2291.33 1839.74 2293.09 1840.55 Z" fill="#000000" fill-rule="nonzero" fill-opacity="1" /><path clip-path="url(#clip340)" d="M2300.06 1855.25 L2300.06 1839.56 L2304.32 1839.56 L2304.32 1855.09 Q2304.32 1858.77 2305.75 1860.62 Q2307.19 1862.45 2310.06 1862.45 Q2313.51 1862.45 2315.5 1860.25 Q2317.51 1858.05 2317.51 1854.26 L2317.51 1839.56 L2321.77 1839.56 L2321.77 1865.48 L2317.51 1865.48 L2317.51 1861.5 Q2315.96 1863.86 2313.9 1865.02 Q2311.86 1866.15 2309.16 1866.15 Q2304.69 1866.15 2302.37 1863.38 Q2300.06 1860.6 2300.06 1855.25 M2310.78 1838.93 L2310.78 1838.93 Z" fill="#000000" fill-rule="nonzero" fill-opacity="1" /><path clip-path="url(#clip340)" d="M2352.1 1849.84 L2352.1 1865.48 L2347.84 1865.48 L2347.84 1849.97 Q2347.84 1846.29 2346.4 1844.46 Q2344.97 1842.64 2342.1 1842.64 Q2338.65 1842.64 2336.66 1844.84 Q2334.67 1847.03 2334.67 1850.83 L2334.67 1865.48 L2330.38 1865.48 L2330.38 1839.56 L2334.67 1839.56 L2334.67 1843.59 Q2336.19 1841.25 2338.25 1840.09 Q2340.34 1838.93 2343.04 1838.93 Q2347.51 1838.93 2349.8 1841.71 Q2352.1 1844.46 2352.1 1849.84 Z" fill="#000000" fill-rule="nonzero" fill-opacity="1" /><path clip-path="url(#clip340)" d="M2377.65 1843.49 L2377.65 1829.46 L2381.91 1829.46 L2381.91 1865.48 L2377.65 1865.48 L2377.65 1861.59 Q2376.31 1863.91 2374.25 1865.04 Q2372.21 1866.15 2369.34 1866.15 Q2364.64 1866.15 2361.68 1862.4 Q2358.74 1858.65 2358.74 1852.54 Q2358.74 1846.43 2361.68 1842.68 Q2364.64 1838.93 2369.34 1838.93 Q2372.21 1838.93 2374.25 1840.07 Q2376.31 1841.18 2377.65 1843.49 M2363.14 1852.54 Q2363.14 1857.24 2365.06 1859.93 Q2367 1862.59 2370.38 1862.59 Q2373.76 1862.59 2375.71 1859.93 Q2377.65 1857.24 2377.65 1852.54 Q2377.65 1847.84 2375.71 1845.18 Q2373.76 1842.5 2370.38 1842.5 Q2367 1842.5 2365.06 1845.18 Q2363.14 1847.84 2363.14 1852.54 Z" fill="#000000" fill-rule="nonzero" fill-opacity="1" /><path clip-path="url(#clip340)" d="M2390.68 1839.56 L2394.94 1839.56 L2394.94 1865.48 L2390.68 1865.48 L2390.68 1839.56 M2390.68 1829.46 L2394.94 1829.46 L2394.94 1834.86 L2390.68 1834.86 L2390.68 1829.46 Z" fill="#000000" fill-rule="nonzero" fill-opacity="1" /><path clip-path="url(#clip340)" d="M2408.07 1832.2 L2408.07 1839.56 L2416.84 1839.56 L2416.84 1842.87 L2408.07 1842.87 L2408.07 1856.94 Q2408.07 1860.11 2408.92 1861.02 Q2409.8 1861.92 2412.47 1861.92 L2416.84 1861.92 L2416.84 1865.48 L2412.47 1865.48 Q2407.54 1865.48 2405.66 1863.65 Q2403.79 1861.8 2403.79 1856.94 L2403.79 1842.87 L2400.66 1842.87 L2400.66 1839.56 L2403.79 1839.56 L2403.79 1832.2 L2408.07 1832.2 Z" fill="#000000" fill-rule="nonzero" fill-opacity="1" /><path clip-path="url(#clip340)" d="M2433.23 1867.89 Q2431.42 1872.52 2429.71 1873.93 Q2428 1875.34 2425.13 1875.34 L2421.72 1875.34 L2421.72 1871.78 L2424.22 1871.78 Q2425.98 1871.78 2426.96 1870.95 Q2427.93 1870.11 2429.11 1867.01 L2429.87 1865.07 L2419.39 1839.56 L2423.9 1839.56 L2432 1859.84 L2440.1 1839.56 L2444.62 1839.56 L2433.23 1867.89 Z" fill="#000000" fill-rule="nonzero" fill-opacity="1" /><polyline clip-path="url(#clip340)" style="stroke:#000000; stroke-linecap:round; stroke-linejoin:round; stroke-width:4; stroke-opacity:1; fill:none" points="255.816,1800.78 255.816,127.792 "/>
<polyline clip-path="url(#clip340)" style="stroke:#000000; stroke-linecap:round; stroke-linejoin:round; stroke-width:4; stroke-opacity:1; fill:none" points="255.816,1800.78 274.714,1800.78 "/>
<polyline clip-path="url(#clip340)" style="stroke:#000000; stroke-linecap:round; stroke-linejoin:round; stroke-width:4; stroke-opacity:1; fill:none" points="255.816,1335.17 274.714,1335.17 "/>
<polyline clip-path="url(#clip340)" style="stroke:#000000; stroke-linecap:round; stroke-linejoin:round; stroke-width:4; stroke-opacity:1; fill:none" points="255.816,869.563 274.714,869.563 "/>
<polyline clip-path="url(#clip340)" style="stroke:#000000; stroke-linecap:round; stroke-linejoin:round; stroke-width:4; stroke-opacity:1; fill:none" points="255.816,403.954 274.714,403.954 "/>
<path clip-path="url(#clip340)" d="M128.159 1786.58 Q124.548 1786.58 122.719 1790.14 Q120.913 1793.68 120.913 1800.81 Q120.913 1807.92 122.719 1811.49 Q124.548 1815.03 128.159 1815.03 Q131.793 1815.03 133.599 1811.49 Q135.427 1807.92 135.427 1800.81 Q135.427 1793.68 133.599 1790.14 Q131.793 1786.58 128.159 1786.58 M128.159 1782.87 Q133.969 1782.87 137.025 1787.48 Q140.103 1792.06 140.103 1800.81 Q140.103 1809.54 137.025 1814.15 Q133.969 1818.73 128.159 1818.73 Q122.349 1818.73 119.27 1814.15 Q116.214 1809.54 116.214 1800.81 Q116.214 1792.06 119.27 1787.48 Q122.349 1782.87 128.159 1782.87 Z" fill="#000000" fill-rule="nonzero" fill-opacity="1" /><path clip-path="url(#clip340)" d="M148.321 1812.18 L153.205 1812.18 L153.205 1818.06 L148.321 1818.06 L148.321 1812.18 Z" fill="#000000" fill-rule="nonzero" fill-opacity="1" /><path clip-path="url(#clip340)" d="M173.39 1786.58 Q169.779 1786.58 167.95 1790.14 Q166.145 1793.68 166.145 1800.81 Q166.145 1807.92 167.95 1811.49 Q169.779 1815.03 173.39 1815.03 Q177.024 1815.03 178.83 1811.49 Q180.659 1807.92 180.659 1800.81 Q180.659 1793.68 178.83 1790.14 Q177.024 1786.58 173.39 1786.58 M173.39 1782.87 Q179.2 1782.87 182.256 1787.48 Q185.334 1792.06 185.334 1800.81 Q185.334 1809.54 182.256 1814.15 Q179.2 1818.73 173.39 1818.73 Q167.58 1818.73 164.501 1814.15 Q161.446 1809.54 161.446 1800.81 Q161.446 1792.06 164.501 1787.48 Q167.58 1782.87 173.39 1782.87 Z" fill="#000000" fill-rule="nonzero" fill-opacity="1" /><path clip-path="url(#clip340)" d="M203.552 1786.58 Q199.941 1786.58 198.112 1790.14 Q196.307 1793.68 196.307 1800.81 Q196.307 1807.92 198.112 1811.49 Q199.941 1815.03 203.552 1815.03 Q207.186 1815.03 208.992 1811.49 Q210.82 1807.92 210.82 1800.81 Q210.82 1793.68 208.992 1790.14 Q207.186 1786.58 203.552 1786.58 M203.552 1782.87 Q209.362 1782.87 212.418 1787.48 Q215.496 1792.06 215.496 1800.81 Q215.496 1809.54 212.418 1814.15 Q209.362 1818.73 203.552 1818.73 Q197.742 1818.73 194.663 1814.15 Q191.608 1809.54 191.608 1800.81 Q191.608 1792.06 194.663 1787.48 Q197.742 1782.87 203.552 1782.87 Z" fill="#000000" fill-rule="nonzero" fill-opacity="1" /><path clip-path="url(#clip340)" d="M129.154 1320.97 Q125.543 1320.97 123.714 1324.53 Q121.909 1328.08 121.909 1335.21 Q121.909 1342.31 123.714 1345.88 Q125.543 1349.42 129.154 1349.42 Q132.788 1349.42 134.594 1345.88 Q136.423 1342.31 136.423 1335.21 Q136.423 1328.08 134.594 1324.53 Q132.788 1320.97 129.154 1320.97 M129.154 1317.27 Q134.964 1317.27 138.02 1321.87 Q141.099 1326.46 141.099 1335.21 Q141.099 1343.93 138.02 1348.54 Q134.964 1353.12 129.154 1353.12 Q123.344 1353.12 120.265 1348.54 Q117.21 1343.93 117.21 1335.21 Q117.21 1326.46 120.265 1321.87 Q123.344 1317.27 129.154 1317.27 Z" fill="#000000" fill-rule="nonzero" fill-opacity="1" /><path clip-path="url(#clip340)" d="M149.316 1346.57 L154.2 1346.57 L154.2 1352.45 L149.316 1352.45 L149.316 1346.57 Z" fill="#000000" fill-rule="nonzero" fill-opacity="1" /><path clip-path="url(#clip340)" d="M174.385 1320.97 Q170.774 1320.97 168.946 1324.53 Q167.14 1328.08 167.14 1335.21 Q167.14 1342.31 168.946 1345.88 Q170.774 1349.42 174.385 1349.42 Q178.02 1349.42 179.825 1345.88 Q181.654 1342.31 181.654 1335.21 Q181.654 1328.08 179.825 1324.53 Q178.02 1320.97 174.385 1320.97 M174.385 1317.27 Q180.196 1317.27 183.251 1321.87 Q186.33 1326.46 186.33 1335.21 Q186.33 1343.93 183.251 1348.54 Q180.196 1353.12 174.385 1353.12 Q168.575 1353.12 165.497 1348.54 Q162.441 1343.93 162.441 1335.21 Q162.441 1326.46 165.497 1321.87 Q168.575 1317.27 174.385 1317.27 Z" fill="#000000" fill-rule="nonzero" fill-opacity="1" /><path clip-path="url(#clip340)" d="M194.594 1317.89 L212.95 1317.89 L212.95 1321.83 L198.876 1321.83 L198.876 1330.3 Q199.895 1329.95 200.913 1329.79 Q201.932 1329.6 202.95 1329.6 Q208.737 1329.6 212.117 1332.78 Q215.496 1335.95 215.496 1341.36 Q215.496 1346.94 212.024 1350.04 Q208.552 1353.12 202.233 1353.12 Q200.057 1353.12 197.788 1352.75 Q195.543 1352.38 193.135 1351.64 L193.135 1346.94 Q195.219 1348.08 197.441 1348.63 Q199.663 1349.19 202.14 1349.19 Q206.145 1349.19 208.482 1347.08 Q210.82 1344.97 210.82 1341.36 Q210.82 1337.75 208.482 1335.65 Q206.145 1333.54 202.14 1333.54 Q200.265 1333.54 198.39 1333.96 Q196.538 1334.37 194.594 1335.25 L194.594 1317.89 Z" fill="#000000" fill-rule="nonzero" fill-opacity="1" /><path clip-path="url(#clip340)" d="M128.159 855.361 Q124.548 855.361 122.719 858.926 Q120.913 862.468 120.913 869.597 Q120.913 876.704 122.719 880.269 Q124.548 883.81 128.159 883.81 Q131.793 883.81 133.599 880.269 Q135.427 876.704 135.427 869.597 Q135.427 862.468 133.599 858.926 Q131.793 855.361 128.159 855.361 M128.159 851.658 Q133.969 851.658 137.025 856.264 Q140.103 860.848 140.103 869.597 Q140.103 878.324 137.025 882.931 Q133.969 887.514 128.159 887.514 Q122.349 887.514 119.27 882.931 Q116.214 878.324 116.214 869.597 Q116.214 860.848 119.27 856.264 Q122.349 851.658 128.159 851.658 Z" fill="#000000" fill-rule="nonzero" fill-opacity="1" /><path clip-path="url(#clip340)" d="M148.321 880.963 L153.205 880.963 L153.205 886.843 L148.321 886.843 L148.321 880.963 Z" fill="#000000" fill-rule="nonzero" fill-opacity="1" /><path clip-path="url(#clip340)" d="M164.2 882.908 L171.839 882.908 L171.839 856.542 L163.529 858.209 L163.529 853.949 L171.793 852.283 L176.469 852.283 L176.469 882.908 L184.108 882.908 L184.108 886.843 L164.2 886.843 L164.2 882.908 Z" fill="#000000" fill-rule="nonzero" fill-opacity="1" /><path clip-path="url(#clip340)" d="M203.552 855.361 Q199.941 855.361 198.112 858.926 Q196.307 862.468 196.307 869.597 Q196.307 876.704 198.112 880.269 Q199.941 883.81 203.552 883.81 Q207.186 883.81 208.992 880.269 Q210.82 876.704 210.82 869.597 Q210.82 862.468 208.992 858.926 Q207.186 855.361 203.552 855.361 M203.552 851.658 Q209.362 851.658 212.418 856.264 Q215.496 860.848 215.496 869.597 Q215.496 878.324 212.418 882.931 Q209.362 887.514 203.552 887.514 Q197.742 887.514 194.663 882.931 Q191.608 878.324 191.608 869.597 Q191.608 860.848 194.663 856.264 Q197.742 851.658 203.552 851.658 Z" fill="#000000" fill-rule="nonzero" fill-opacity="1" /><path clip-path="url(#clip340)" d="M129.154 389.753 Q125.543 389.753 123.714 393.318 Q121.909 396.86 121.909 403.989 Q121.909 411.096 123.714 414.66 Q125.543 418.202 129.154 418.202 Q132.788 418.202 134.594 414.66 Q136.423 411.096 136.423 403.989 Q136.423 396.86 134.594 393.318 Q132.788 389.753 129.154 389.753 M129.154 386.049 Q134.964 386.049 138.02 390.656 Q141.099 395.239 141.099 403.989 Q141.099 412.716 138.02 417.322 Q134.964 421.906 129.154 421.906 Q123.344 421.906 120.265 417.322 Q117.21 412.716 117.21 403.989 Q117.21 395.239 120.265 390.656 Q123.344 386.049 129.154 386.049 Z" fill="#000000" fill-rule="nonzero" fill-opacity="1" /><path clip-path="url(#clip340)" d="M149.316 415.355 L154.2 415.355 L154.2 421.234 L149.316 421.234 L149.316 415.355 Z" fill="#000000" fill-rule="nonzero" fill-opacity="1" /><path clip-path="url(#clip340)" d="M165.196 417.299 L172.835 417.299 L172.835 390.934 L164.524 392.6 L164.524 388.341 L172.788 386.674 L177.464 386.674 L177.464 417.299 L185.103 417.299 L185.103 421.234 L165.196 421.234 L165.196 417.299 Z" fill="#000000" fill-rule="nonzero" fill-opacity="1" /><path clip-path="url(#clip340)" d="M194.594 386.674 L212.95 386.674 L212.95 390.61 L198.876 390.61 L198.876 399.082 Q199.895 398.735 200.913 398.573 Q201.932 398.387 202.95 398.387 Q208.737 398.387 212.117 401.559 Q215.496 404.73 215.496 410.147 Q215.496 415.725 212.024 418.827 Q208.552 421.906 202.233 421.906 Q200.057 421.906 197.788 421.535 Q195.543 421.165 193.135 420.424 L193.135 415.725 Q195.219 416.859 197.441 417.415 Q199.663 417.971 202.14 417.971 Q206.145 417.971 208.482 415.864 Q210.82 413.758 210.82 410.147 Q210.82 406.535 208.482 404.429 Q206.145 402.323 202.14 402.323 Q200.265 402.323 198.39 402.739 Q196.538 403.156 194.594 404.035 L194.594 386.674 Z" fill="#000000" fill-rule="nonzero" fill-opacity="1" /><path clip-path="url(#clip340)" d="M14.1184 1206.21 L14.1184 1196.63 L46.4562 1184.51 L14.1184 1172.32 L14.1184 1162.74 L61.6384 1162.74 L61.6384 1169.01 L19.9112 1169.01 L52.5037 1181.26 L52.5037 1187.72 L19.9112 1199.98 L61.6384 1199.98 L61.6384 1206.21 L14.1184 1206.21 Z" fill="#000000" fill-rule="nonzero" fill-opacity="1" /><path clip-path="url(#clip340)" d="M42.3504 1119.74 L45.2149 1119.74 L45.2149 1146.66 Q51.2623 1146.28 54.4452 1143.03 Q57.5962 1139.76 57.5962 1133.93 Q57.5962 1130.56 56.7687 1127.41 Q55.9411 1124.22 54.2861 1121.1 L59.8242 1121.1 Q61.161 1124.26 61.8612 1127.57 Q62.5615 1130.88 62.5615 1134.28 Q62.5615 1142.81 57.5962 1147.81 Q52.631 1152.77 44.1646 1152.77 Q35.4117 1152.77 30.2873 1148.06 Q25.1311 1143.32 25.1311 1135.3 Q25.1311 1128.11 29.7781 1123.94 Q34.3932 1119.74 42.3504 1119.74 M40.6316 1125.59 Q35.8255 1125.66 32.9609 1128.3 Q30.0964 1130.91 30.0964 1135.24 Q30.0964 1140.14 32.8654 1143.1 Q35.6345 1146.03 40.6634 1146.47 L40.6316 1125.59 Z" fill="#000000" fill-rule="nonzero" fill-opacity="1" /><path clip-path="url(#clip340)" d="M43.719 1093.92 Q43.719 1101.02 45.3422 1103.76 Q46.9655 1106.5 50.8804 1106.5 Q53.9996 1106.5 55.8457 1104.46 Q57.6599 1102.39 57.6599 1098.86 Q57.6599 1093.99 54.2224 1091.06 Q50.7531 1088.1 45.0239 1088.1 L43.719 1088.1 L43.719 1093.92 M41.3 1082.24 L61.6384 1082.24 L61.6384 1088.1 L56.2276 1088.1 Q59.4741 1090.1 61.0337 1093.1 Q62.5615 1096.09 62.5615 1100.42 Q62.5615 1105.89 59.5059 1109.14 Q56.4186 1112.35 51.2623 1112.35 Q45.2467 1112.35 42.1912 1108.34 Q39.1357 1104.3 39.1357 1096.31 L39.1357 1088.1 L38.5628 1088.1 Q34.5205 1088.1 32.3244 1090.77 Q30.0964 1093.41 30.0964 1098.22 Q30.0964 1101.28 30.8284 1104.17 Q31.5605 1107.07 33.0246 1109.74 L27.6137 1109.74 Q26.3724 1106.53 25.7677 1103.5 Q25.1311 1100.48 25.1311 1097.62 Q25.1311 1089.88 29.1415 1086.06 Q33.1519 1082.24 41.3 1082.24 Z" fill="#000000" fill-rule="nonzero" fill-opacity="1" /><path clip-path="url(#clip340)" d="M40.1224 1040.55 L61.6384 1040.55 L61.6384 1046.4 L40.3133 1046.4 Q35.2526 1046.4 32.7381 1048.38 Q30.2237 1050.35 30.2237 1054.3 Q30.2237 1059.04 33.2474 1061.78 Q36.2711 1064.51 41.491 1064.51 L61.6384 1064.51 L61.6384 1070.4 L25.9905 1070.4 L25.9905 1064.51 L31.5287 1064.51 Q28.314 1062.41 26.7225 1059.58 Q25.1311 1056.72 25.1311 1052.99 Q25.1311 1046.85 28.9505 1043.7 Q32.7381 1040.55 40.1224 1040.55 Z" fill="#000000" fill-rule="nonzero" fill-opacity="1" /><path clip-path="url(#clip340)" d="M42.3504 977.654 L45.2149 977.654 L45.2149 1004.58 Q51.2623 1004.2 54.4452 1000.95 Q57.5962 997.674 57.5962 991.849 Q57.5962 988.475 56.7687 985.324 Q55.9411 982.142 54.2861 979.022 L59.8242 979.022 Q61.161 982.173 61.8612 985.484 Q62.5615 988.794 62.5615 992.199 Q62.5615 1000.73 57.5962 1005.73 Q52.631 1010.69 44.1646 1010.69 Q35.4117 1010.69 30.2873 1005.98 Q25.1311 1001.24 25.1311 993.218 Q25.1311 986.025 29.7781 981.855 Q34.3932 977.654 42.3504 977.654 M40.6316 983.51 Q35.8255 983.574 32.9609 986.216 Q30.0964 988.826 30.0964 993.154 Q30.0964 998.056 32.8654 1001.02 Q35.6345 1003.94 40.6634 1004.39 L40.6316 983.51 Z" fill="#000000" fill-rule="nonzero" fill-opacity="1" /><path clip-path="url(#clip340)" d="M12.1132 968.041 L12.1132 962.185 L61.6384 962.185 L61.6384 968.041 L12.1132 968.041 Z" fill="#000000" fill-rule="nonzero" fill-opacity="1" /><path clip-path="url(#clip340)" d="M43.719 933.73 Q43.719 940.828 45.3422 943.565 Q46.9655 946.303 50.8804 946.303 Q53.9996 946.303 55.8457 944.266 Q57.6599 942.197 57.6599 938.664 Q57.6599 933.794 54.2224 930.866 Q50.7531 927.906 45.0239 927.906 L43.719 927.906 L43.719 933.73 M41.3 922.049 L61.6384 922.049 L61.6384 927.906 L56.2276 927.906 Q59.4741 929.911 61.0337 932.903 Q62.5615 935.895 62.5615 940.223 Q62.5615 945.698 59.5059 948.944 Q56.4186 952.159 51.2623 952.159 Q45.2467 952.159 42.1912 948.149 Q39.1357 944.106 39.1357 936.117 L39.1357 927.906 L38.5628 927.906 Q34.5205 927.906 32.3244 930.579 Q30.0964 933.221 30.0964 938.027 Q30.0964 941.083 30.8284 943.979 Q31.5605 946.876 33.0246 949.549 L27.6137 949.549 Q26.3724 946.334 25.7677 943.311 Q25.1311 940.287 25.1311 937.422 Q25.1311 929.688 29.1415 925.869 Q33.1519 922.049 41.3 922.049 Z" fill="#000000" fill-rule="nonzero" fill-opacity="1" /><path clip-path="url(#clip340)" d="M27.0408 887.261 L32.579 887.261 Q31.3059 889.743 30.6693 892.417 Q30.0327 895.09 30.0327 897.955 Q30.0327 902.316 31.3695 904.512 Q32.7063 906.676 35.3799 906.676 Q37.4169 906.676 38.5946 905.116 Q39.7404 903.557 40.7908 898.846 L41.2364 896.841 Q42.5732 890.603 45.0239 887.993 Q47.4429 885.351 51.8034 885.351 Q56.7687 885.351 59.6651 889.298 Q62.5615 893.213 62.5615 900.088 Q62.5615 902.952 61.9886 906.071 Q61.4475 909.159 60.3335 912.596 L54.2861 912.596 Q55.973 909.35 56.8323 906.199 Q57.6599 903.048 57.6599 899.96 Q57.6599 895.823 56.2594 893.595 Q54.8271 891.367 52.249 891.367 Q49.8619 891.367 48.5887 892.99 Q47.3156 894.581 46.1379 900.024 L45.6605 902.061 Q44.5147 907.504 42.1594 909.923 Q39.7722 912.342 35.6345 912.342 Q30.6056 912.342 27.8684 908.777 Q25.1311 905.212 25.1311 898.655 Q25.1311 895.409 25.6085 892.544 Q26.086 889.68 27.0408 887.261 Z" fill="#000000" fill-rule="nonzero" fill-opacity="1" /><path clip-path="url(#clip340)" d="M15.869 870.232 L25.9905 870.232 L25.9905 858.169 L30.542 858.169 L30.542 870.232 L49.8937 870.232 Q54.2542 870.232 55.4955 869.055 Q56.7368 867.845 56.7368 864.185 L56.7368 858.169 L61.6384 858.169 L61.6384 864.185 Q61.6384 870.964 59.124 873.543 Q56.5777 876.121 49.8937 876.121 L30.542 876.121 L30.542 880.418 L25.9905 880.418 L25.9905 876.121 L15.869 876.121 L15.869 870.232 Z" fill="#000000" fill-rule="nonzero" fill-opacity="1" /><path clip-path="url(#clip340)" d="M25.9905 850.467 L25.9905 844.61 L61.6384 844.61 L61.6384 850.467 L25.9905 850.467 M12.1132 850.467 L12.1132 844.61 L19.5293 844.61 L19.5293 850.467 L12.1132 850.467 Z" fill="#000000" fill-rule="nonzero" fill-opacity="1" /><path clip-path="url(#clip340)" d="M27.3591 806.703 L32.8336 806.703 Q31.465 809.185 30.7966 811.7 Q30.0964 814.182 30.0964 816.729 Q30.0964 822.426 33.7248 825.577 Q37.3214 828.728 43.8463 828.728 Q50.3711 828.728 53.9996 825.577 Q57.5962 822.426 57.5962 816.729 Q57.5962 814.182 56.9278 811.7 Q56.2276 809.185 54.859 806.703 L60.2698 806.703 Q61.4156 809.153 61.9886 811.795 Q62.5615 814.405 62.5615 817.365 Q62.5615 825.418 57.5007 830.16 Q52.44 834.903 43.8463 834.903 Q35.1253 834.903 30.1282 830.128 Q25.1311 825.322 25.1311 816.983 Q25.1311 814.278 25.704 811.7 Q26.2451 809.122 27.3591 806.703 Z" fill="#000000" fill-rule="nonzero" fill-opacity="1" /><path clip-path="url(#clip340)" d="M25.9905 796.518 L25.9905 790.661 L61.6384 790.661 L61.6384 796.518 L25.9905 796.518 M12.1132 796.518 L12.1132 790.661 L19.5293 790.661 L19.5293 796.518 L12.1132 796.518 Z" fill="#000000" fill-rule="nonzero" fill-opacity="1" /><path clip-path="url(#clip340)" d="M15.869 772.614 L25.9905 772.614 L25.9905 760.551 L30.542 760.551 L30.542 772.614 L49.8937 772.614 Q54.2542 772.614 55.4955 771.437 Q56.7368 770.227 56.7368 766.567 L56.7368 760.551 L61.6384 760.551 L61.6384 766.567 Q61.6384 773.346 59.124 775.924 Q56.5777 778.503 49.8937 778.503 L30.542 778.503 L30.542 782.799 L25.9905 782.799 L25.9905 778.503 L15.869 778.503 L15.869 772.614 Z" fill="#000000" fill-rule="nonzero" fill-opacity="1" /><path clip-path="url(#clip340)" d="M64.9486 738.017 Q71.3143 740.499 73.2559 742.855 Q75.1974 745.21 75.1974 749.157 L75.1974 753.835 L70.2958 753.835 L70.2958 750.398 Q70.2958 747.979 69.15 746.642 Q68.0041 745.305 63.7391 743.682 L61.0655 742.632 L25.9905 757.05 L25.9905 750.844 L53.8723 739.704 L25.9905 728.564 L25.9905 722.357 L64.9486 738.017 Z" fill="#000000" fill-rule="nonzero" fill-opacity="1" /><path clip-path="url(#clip340)" d="M992.195 72.576 L969.105 12.096 L977.652 12.096 L996.813 63.0159 L1016.01 12.096 L1024.52 12.096 L1001.47 72.576 L992.195 72.576 Z" fill="#000000" fill-rule="nonzero" fill-opacity="1" /><path clip-path="url(#clip340)" d="M1031.21 27.2059 L1038.66 27.2059 L1038.66 72.576 L1031.21 72.576 L1031.21 27.2059 M1031.21 9.54393 L1038.66 9.54393 L1038.66 18.9825 L1031.21 18.9825 L1031.21 9.54393 Z" fill="#000000" fill-rule="nonzero" fill-opacity="1" /><path clip-path="url(#clip340)" d="M1061.63 14.324 L1061.63 27.2059 L1076.98 27.2059 L1076.98 32.9987 L1061.63 32.9987 L1061.63 57.6282 Q1061.63 63.1779 1063.13 64.7578 Q1064.67 66.3376 1069.32 66.3376 L1076.98 66.3376 L1076.98 72.576 L1069.32 72.576 Q1060.7 72.576 1057.41 69.3758 Q1054.13 66.1351 1054.13 57.6282 L1054.13 32.9987 L1048.66 32.9987 L1048.66 27.2059 L1054.13 27.2059 L1054.13 14.324 L1061.63 14.324 Z" fill="#000000" fill-rule="nonzero" fill-opacity="1" /><path clip-path="url(#clip340)" d="M1107.4 49.7694 Q1098.37 49.7694 1094.89 51.8354 Q1091.4 53.9013 1091.4 58.8839 Q1091.4 62.8538 1093.99 65.2034 Q1096.63 67.5124 1101.12 67.5124 Q1107.32 67.5124 1111.05 63.1374 Q1114.82 58.7219 1114.82 51.4303 L1114.82 49.7694 L1107.4 49.7694 M1122.27 46.6907 L1122.27 72.576 L1114.82 72.576 L1114.82 65.6895 Q1112.26 69.8214 1108.46 71.8063 Q1104.65 73.7508 1099.14 73.7508 Q1092.17 73.7508 1088.04 69.8619 Q1083.95 65.9325 1083.95 59.3701 Q1083.95 51.7138 1089.05 47.825 Q1094.2 43.9361 1104.36 43.9361 L1114.82 43.9361 L1114.82 43.2069 Q1114.82 38.0623 1111.41 35.2672 Q1108.05 32.4315 1101.93 32.4315 Q1098.04 32.4315 1094.36 33.3632 Q1090.67 34.295 1087.27 36.1584 L1087.27 29.2718 Q1091.36 27.692 1095.21 26.9223 Q1099.06 26.1121 1102.7 26.1121 Q1112.55 26.1121 1117.41 31.2163 Q1122.27 36.3204 1122.27 46.6907 Z" fill="#000000" fill-rule="nonzero" fill-opacity="1" /><path clip-path="url(#clip340)" d="M1137.62 9.54393 L1145.08 9.54393 L1145.08 72.576 L1137.62 72.576 L1137.62 9.54393 Z" fill="#000000" fill-rule="nonzero" fill-opacity="1" /><path clip-path="url(#clip340)" d="M1213.33 34.1734 Q1212.08 33.4443 1210.58 33.1202 Q1209.12 32.7556 1207.34 32.7556 Q1201.02 32.7556 1197.62 36.8875 Q1194.25 40.9789 1194.25 48.6757 L1194.25 72.576 L1186.76 72.576 L1186.76 27.2059 L1194.25 27.2059 L1194.25 34.2544 Q1196.6 30.1225 1200.37 28.1376 Q1204.14 26.1121 1209.53 26.1121 Q1210.3 26.1121 1211.23 26.2337 Q1212.16 26.3147 1213.29 26.5172 L1213.33 34.1734 Z" fill="#000000" fill-rule="nonzero" fill-opacity="1" /><path clip-path="url(#clip340)" d="M1241.77 49.7694 Q1232.74 49.7694 1229.25 51.8354 Q1225.77 53.9013 1225.77 58.8839 Q1225.77 62.8538 1228.36 65.2034 Q1231 67.5124 1235.49 67.5124 Q1241.69 67.5124 1245.42 63.1374 Q1249.18 58.7219 1249.18 51.4303 L1249.18 49.7694 L1241.77 49.7694 M1256.64 46.6907 L1256.64 72.576 L1249.18 72.576 L1249.18 65.6895 Q1246.63 69.8214 1242.82 71.8063 Q1239.02 73.7508 1233.51 73.7508 Q1226.54 73.7508 1222.41 69.8619 Q1218.32 65.9325 1218.32 59.3701 Q1218.32 51.7138 1223.42 47.825 Q1228.57 43.9361 1238.73 43.9361 L1249.18 43.9361 L1249.18 43.2069 Q1249.18 38.0623 1245.78 35.2672 Q1242.42 32.4315 1236.3 32.4315 Q1232.41 32.4315 1228.73 33.3632 Q1225.04 34.295 1221.64 36.1584 L1221.64 29.2718 Q1225.73 27.692 1229.58 26.9223 Q1233.43 26.1121 1237.07 26.1121 Q1246.92 26.1121 1251.78 31.2163 Q1256.64 36.3204 1256.64 46.6907 Z" fill="#000000" fill-rule="nonzero" fill-opacity="1" /><path clip-path="url(#clip340)" d="M1279.36 14.324 L1279.36 27.2059 L1294.72 27.2059 L1294.72 32.9987 L1279.36 32.9987 L1279.36 57.6282 Q1279.36 63.1779 1280.86 64.7578 Q1282.4 66.3376 1287.06 66.3376 L1294.72 66.3376 L1294.72 72.576 L1287.06 72.576 Q1278.43 72.576 1275.15 69.3758 Q1271.87 66.1351 1271.87 57.6282 L1271.87 32.9987 L1266.4 32.9987 L1266.4 27.2059 L1271.87 27.2059 L1271.87 14.324 L1279.36 14.324 Z" fill="#000000" fill-rule="nonzero" fill-opacity="1" /><path clip-path="url(#clip340)" d="M1343.33 48.0275 L1343.33 51.6733 L1309.06 51.6733 Q1309.54 59.3701 1313.67 63.421 Q1317.85 67.4314 1325.26 67.4314 Q1329.55 67.4314 1333.56 66.3781 Q1337.62 65.3249 1341.59 63.2184 L1341.59 70.267 Q1337.57 71.9684 1333.36 72.8596 Q1329.15 73.7508 1324.81 73.7508 Q1313.96 73.7508 1307.6 67.4314 Q1301.28 61.1119 1301.28 50.3365 Q1301.28 39.1965 1307.27 32.6746 Q1313.31 26.1121 1323.52 26.1121 Q1332.67 26.1121 1337.98 32.0264 Q1343.33 37.9003 1343.33 48.0275 M1335.87 45.84 Q1335.79 39.7232 1332.43 36.0774 Q1329.11 32.4315 1323.6 32.4315 Q1317.36 32.4315 1313.59 35.9558 Q1309.87 39.4801 1309.3 45.8805 L1335.87 45.84 Z" fill="#000000" fill-rule="nonzero" fill-opacity="1" /><path clip-path="url(#clip340)" d="M1420.74 48.0275 L1420.74 51.6733 L1386.47 51.6733 Q1386.96 59.3701 1391.09 63.421 Q1395.26 67.4314 1402.67 67.4314 Q1406.97 67.4314 1410.98 66.3781 Q1415.03 65.3249 1419 63.2184 L1419 70.267 Q1414.99 71.9684 1410.77 72.8596 Q1406.56 73.7508 1402.23 73.7508 Q1391.37 73.7508 1385.01 67.4314 Q1378.69 61.1119 1378.69 50.3365 Q1378.69 39.1965 1384.69 32.6746 Q1390.72 26.1121 1400.93 26.1121 Q1410.09 26.1121 1415.39 32.0264 Q1420.74 37.9003 1420.74 48.0275 M1413.29 45.84 Q1413.21 39.7232 1409.84 36.0774 Q1406.52 32.4315 1401.01 32.4315 Q1394.77 32.4315 1391.01 35.9558 Q1387.28 39.4801 1386.71 45.8805 L1413.29 45.84 Z" fill="#000000" fill-rule="nonzero" fill-opacity="1" /><path clip-path="url(#clip340)" d="M1432.97 9.54393 L1440.43 9.54393 L1440.43 72.576 L1432.97 72.576 L1432.97 9.54393 Z" fill="#000000" fill-rule="nonzero" fill-opacity="1" /><path clip-path="url(#clip340)" d="M1476.64 49.7694 Q1467.61 49.7694 1464.13 51.8354 Q1460.64 53.9013 1460.64 58.8839 Q1460.64 62.8538 1463.23 65.2034 Q1465.87 67.5124 1470.36 67.5124 Q1476.56 67.5124 1480.29 63.1374 Q1484.06 58.7219 1484.06 51.4303 L1484.06 49.7694 L1476.64 49.7694 M1491.51 46.6907 L1491.51 72.576 L1484.06 72.576 L1484.06 65.6895 Q1481.5 69.8214 1477.7 71.8063 Q1473.89 73.7508 1468.38 73.7508 Q1461.41 73.7508 1457.28 69.8619 Q1453.19 65.9325 1453.19 59.3701 Q1453.19 51.7138 1458.29 47.825 Q1463.44 43.9361 1473.6 43.9361 L1484.06 43.9361 L1484.06 43.2069 Q1484.06 38.0623 1480.65 35.2672 Q1477.29 32.4315 1471.17 32.4315 Q1467.28 32.4315 1463.6 33.3632 Q1459.91 34.295 1456.51 36.1584 L1456.51 29.2718 Q1460.6 27.692 1464.45 26.9223 Q1468.3 26.1121 1471.94 26.1121 Q1481.79 26.1121 1486.65 31.2163 Q1491.51 36.3204 1491.51 46.6907 Z" fill="#000000" fill-rule="nonzero" fill-opacity="1" /><path clip-path="url(#clip340)" d="M1535.79 28.5427 L1535.79 35.5912 Q1532.63 33.9709 1529.22 33.1607 Q1525.82 32.3505 1522.17 32.3505 Q1516.62 32.3505 1513.83 34.0519 Q1511.08 35.7533 1511.08 39.156 Q1511.08 41.7486 1513.06 43.2475 Q1515.05 44.7058 1521.04 46.0426 L1523.59 46.6097 Q1531.53 48.3111 1534.85 51.4303 Q1538.22 54.509 1538.22 60.0587 Q1538.22 66.3781 1533.19 70.0644 Q1528.21 73.7508 1519.46 73.7508 Q1515.81 73.7508 1511.84 73.0216 Q1507.92 72.3329 1503.54 70.9151 L1503.54 63.2184 Q1507.67 65.3654 1511.68 66.4591 Q1515.69 67.5124 1519.62 67.5124 Q1524.89 67.5124 1527.72 65.73 Q1530.56 63.9071 1530.56 60.6258 Q1530.56 57.5877 1528.49 55.9673 Q1526.47 54.3469 1519.54 52.8481 L1516.95 52.2405 Q1510.02 50.7821 1506.94 47.7845 Q1503.86 44.7463 1503.86 39.4801 Q1503.86 33.0797 1508.4 29.5959 Q1512.94 26.1121 1521.28 26.1121 Q1525.42 26.1121 1529.06 26.7198 Q1532.71 27.3274 1535.79 28.5427 Z" fill="#000000" fill-rule="nonzero" fill-opacity="1" /><path clip-path="url(#clip340)" d="M1557.46 14.324 L1557.46 27.2059 L1572.81 27.2059 L1572.81 32.9987 L1557.46 32.9987 L1557.46 57.6282 Q1557.46 63.1779 1558.96 64.7578 Q1560.5 66.3376 1565.15 66.3376 L1572.81 66.3376 L1572.81 72.576 L1565.15 72.576 Q1556.53 72.576 1553.25 69.3758 Q1549.96 66.1351 1549.96 57.6282 L1549.96 32.9987 L1544.5 32.9987 L1544.5 27.2059 L1549.96 27.2059 L1549.96 14.324 L1557.46 14.324 Z" fill="#000000" fill-rule="nonzero" fill-opacity="1" /><path clip-path="url(#clip340)" d="M1582.61 27.2059 L1590.07 27.2059 L1590.07 72.576 L1582.61 72.576 L1582.61 27.2059 M1582.61 9.54393 L1590.07 9.54393 L1590.07 18.9825 L1582.61 18.9825 L1582.61 9.54393 Z" fill="#000000" fill-rule="nonzero" fill-opacity="1" /><path clip-path="url(#clip340)" d="M1638.31 28.9478 L1638.31 35.9153 Q1635.15 34.1734 1631.95 33.3227 Q1628.79 32.4315 1625.55 32.4315 Q1618.3 32.4315 1614.29 37.0496 Q1610.28 41.6271 1610.28 49.9314 Q1610.28 58.2358 1614.29 62.8538 Q1618.3 67.4314 1625.55 67.4314 Q1628.79 67.4314 1631.95 66.5807 Q1635.15 65.6895 1638.31 63.9476 L1638.31 70.8341 Q1635.19 72.2924 1631.83 73.0216 Q1628.51 73.7508 1624.74 73.7508 Q1614.49 73.7508 1608.46 67.3098 Q1602.42 60.8689 1602.42 49.9314 Q1602.42 38.832 1608.5 32.472 Q1614.62 26.1121 1625.23 26.1121 Q1628.67 26.1121 1631.95 26.8413 Q1635.24 27.5299 1638.31 28.9478 Z" fill="#000000" fill-rule="nonzero" fill-opacity="1" /><path clip-path="url(#clip340)" d="M1651.28 27.2059 L1658.73 27.2059 L1658.73 72.576 L1651.28 72.576 L1651.28 27.2059 M1651.28 9.54393 L1658.73 9.54393 L1658.73 18.9825 L1651.28 18.9825 L1651.28 9.54393 Z" fill="#000000" fill-rule="nonzero" fill-opacity="1" /><path clip-path="url(#clip340)" d="M1681.7 14.324 L1681.7 27.2059 L1697.05 27.2059 L1697.05 32.9987 L1681.7 32.9987 L1681.7 57.6282 Q1681.7 63.1779 1683.2 64.7578 Q1684.74 66.3376 1689.4 66.3376 L1697.05 66.3376 L1697.05 72.576 L1689.4 72.576 Q1680.77 72.576 1677.49 69.3758 Q1674.21 66.1351 1674.21 57.6282 L1674.21 32.9987 L1668.74 32.9987 L1668.74 27.2059 L1674.21 27.2059 L1674.21 14.324 L1681.7 14.324 Z" fill="#000000" fill-rule="nonzero" fill-opacity="1" /><path clip-path="url(#clip340)" d="M1725.73 76.7889 Q1722.57 84.8907 1719.58 87.3618 Q1716.58 89.8329 1711.55 89.8329 L1705.6 89.8329 L1705.6 83.5945 L1709.97 83.5945 Q1713.05 83.5945 1714.75 82.1361 Q1716.46 80.6778 1718.52 75.2496 L1719.86 71.8468 L1701.51 27.2059 L1709.41 27.2059 L1723.59 62.6918 L1737.76 27.2059 L1745.66 27.2059 L1725.73 76.7889 Z" fill="#000000" fill-rule="nonzero" fill-opacity="1" /><path clip-path="url(#clip340)" d="M1799.9 32.4315 Q1793.91 32.4315 1790.43 37.1306 Q1786.94 41.7891 1786.94 49.9314 Q1786.94 58.0738 1790.38 62.7728 Q1793.87 67.4314 1799.9 67.4314 Q1805.86 67.4314 1809.34 62.7323 Q1812.83 58.0333 1812.83 49.9314 Q1812.83 41.8701 1809.34 37.1711 Q1805.86 32.4315 1799.9 32.4315 M1799.9 26.1121 Q1809.63 26.1121 1815.18 32.4315 Q1820.73 38.7509 1820.73 49.9314 Q1820.73 61.0714 1815.18 67.4314 Q1809.63 73.7508 1799.9 73.7508 Q1790.14 73.7508 1784.59 67.4314 Q1779.08 61.0714 1779.08 49.9314 Q1779.08 38.7509 1784.59 32.4315 Q1790.14 26.1121 1799.9 26.1121 Z" fill="#000000" fill-rule="nonzero" fill-opacity="1" /><path clip-path="url(#clip340)" d="M1856.05 9.54393 L1856.05 15.7418 L1848.92 15.7418 Q1844.91 15.7418 1843.33 17.3622 Q1841.79 18.9825 1841.79 23.1955 L1841.79 27.2059 L1854.07 27.2059 L1854.07 32.9987 L1841.79 32.9987 L1841.79 72.576 L1834.3 72.576 L1834.3 32.9987 L1827.17 32.9987 L1827.17 27.2059 L1834.3 27.2059 L1834.3 24.0462 Q1834.3 16.471 1837.82 13.0277 Q1841.35 9.54393 1849 9.54393 L1856.05 9.54393 Z" fill="#000000" fill-rule="nonzero" fill-opacity="1" /><path clip-path="url(#clip340)" d="M1906.52 16.633 L1927.47 72.576 L1919.57 72.576 L1906.85 39.0345 L1891.21 72.576 L1883.31 72.576 L1903.2 29.0693 L1900.2 21.0485 Q1898.3 15.9444 1893.97 15.9444 L1890.08 15.9444 L1890.08 9.54393 L1894.82 9.62495 Q1903.97 9.74648 1906.52 16.633 Z" fill="#000000" fill-rule="nonzero" fill-opacity="1" /><path clip-path="url(#clip341)" d="M386.992 702.266 L386.992 1800.78 L740.757 1800.78 L740.757 702.266 L386.992 702.266 L386.992 702.266  Z" fill="#008080" fill-rule="evenodd" fill-opacity="0.7"/>
<polyline clip-path="url(#clip341)" style="stroke:#000000; stroke-linecap:round; stroke-linejoin:round; stroke-width:4; stroke-opacity:0.7; fill:none" points="386.992,702.266 386.992,1800.78 740.757,1800.78 740.757,702.266 386.992,702.266 "/>
<path clip-path="url(#clip341)" d="M829.198 1800.78 L829.198 1800.78 L1182.96 1800.78 L1182.96 1800.78 L829.198 1800.78 L829.198 1800.78  Z" fill="#228b22" fill-rule="evenodd" fill-opacity="0.7"/>
<polyline clip-path="url(#clip341)" style="stroke:#000000; stroke-linecap:round; stroke-linejoin:round; stroke-width:4; stroke-opacity:0.7; fill:none" points="829.198,1800.78 829.198,1800.78 1182.96,1800.78 829.198,1800.78 "/>
<path clip-path="url(#clip341)" d="M1271.4 1276.74 L1271.4 1800.78 L1625.17 1800.78 L1625.17 1276.74 L1271.4 1276.74 L1271.4 1276.74  Z" fill="#cd5c5c" fill-rule="evenodd" fill-opacity="0.7"/>
<polyline clip-path="url(#clip341)" style="stroke:#000000; stroke-linecap:round; stroke-linejoin:round; stroke-width:4; stroke-opacity:0.7; fill:none" points="1271.4,1276.74 1271.4,1800.78 1625.17,1800.78 1625.17,1276.74 1271.4,1276.74 "/>
<path clip-path="url(#clip341)" d="M1713.61 127.792 L1713.61 1800.78 L2067.37 1800.78 L2067.37 127.792 L1713.61 127.792 L1713.61 127.792  Z" fill="#daa520" fill-rule="evenodd" fill-opacity="0.7"/>
<polyline clip-path="url(#clip341)" style="stroke:#000000; stroke-linecap:round; stroke-linejoin:round; stroke-width:4; stroke-opacity:0.7; fill:none" points="1713.61,127.792 1713.61,1800.78 2067.37,1800.78 2067.37,127.792 1713.61,127.792 "/>
<path clip-path="url(#clip341)" d="M2155.82 1276.73 L2155.82 1800.78 L2509.58 1800.78 L2509.58 1276.73 L2155.82 1276.73 L2155.82 1276.73  Z" fill="#da70d6" fill-rule="evenodd" fill-opacity="0.7"/>
<polyline clip-path="url(#clip341)" style="stroke:#000000; stroke-linecap:round; stroke-linejoin:round; stroke-width:4; stroke-opacity:0.7; fill:none" points="2155.82,1276.73 2155.82,1800.78 2509.58,1800.78 2509.58,1276.73 2155.82,1276.73 "/>
<circle clip-path="url(#clip341)" style="fill:#008080; stroke:none; fill-opacity:0" cx="563.875" cy="702.266" r="2"/>
<circle clip-path="url(#clip341)" style="fill:#228b22; stroke:none; fill-opacity:0" cx="1006.08" cy="1800.78" r="2"/>
<circle clip-path="url(#clip341)" style="fill:#cd5c5c; stroke:none; fill-opacity:0" cx="1448.29" cy="1276.74" r="2"/>
<circle clip-path="url(#clip341)" style="fill:#daa520; stroke:none; fill-opacity:0" cx="1890.49" cy="127.792" r="2"/>
<circle clip-path="url(#clip341)" style="fill:#da70d6; stroke:none; fill-opacity:0" cx="2332.7" cy="1276.73" r="2"/>
</svg>
