<?xml version="1.0" encoding="utf-8"?>
<svg xmlns="http://www.w3.org/2000/svg" xmlns:xlink="http://www.w3.org/1999/xlink" width="672" height="480" viewBox="0 0 2688 1920">
<defs>
  <clipPath id="clip250">
    <rect x="0" y="0" width="2688" height="1920"/>
  </clipPath>
</defs>
<path clip-path="url(#clip250)" d="M0 1920 L2688 1920 L2688 -4.26326e-14 L0 -4.26326e-14  Z" fill="#ffffff" fill-rule="evenodd" fill-opacity="1"/>
<defs>
  <clipPath id="clip251">
    <rect x="225" y="127" width="2416" height="1674"/>
  </clipPath>
</defs>
<path clip-path="url(#clip250)" d="M225.654 1800.78 L2640.76 1800.78 L2640.76 127.792 L225.654 127.792  Z" fill="#ffffff" fill-rule="evenodd" fill-opacity="1"/>
<polyline clip-path="url(#clip251)" style="stroke:#000000; stroke-linecap:round; stroke-linejoin:round; stroke-width:2; stroke-opacity:0.1; fill:none" points="537.609,1800.78 537.609,127.792 "/>
<polyline clip-path="url(#clip251)" style="stroke:#000000; stroke-linecap:round; stroke-linejoin:round; stroke-width:2; stroke-opacity:0.1; fill:none" points="985.407,1800.78 985.407,127.792 "/>
<polyline clip-path="url(#clip251)" style="stroke:#000000; stroke-linecap:round; stroke-linejoin:round; stroke-width:2; stroke-opacity:0.1; fill:none" points="1433.21,1800.78 1433.21,127.792 "/>
<polyline clip-path="url(#clip251)" style="stroke:#000000; stroke-linecap:round; stroke-linejoin:round; stroke-width:2; stroke-opacity:0.1; fill:none" points="1881,1800.78 1881,127.792 "/>
<polyline clip-path="url(#clip251)" style="stroke:#000000; stroke-linecap:round; stroke-linejoin:round; stroke-width:2; stroke-opacity:0.1; fill:none" points="2328.8,1800.78 2328.8,127.792 "/>
<polyline clip-path="url(#clip251)" style="stroke:#000000; stroke-linecap:round; stroke-linejoin:round; stroke-width:2; stroke-opacity:0.1; fill:none" points="225.654,1800.78 2640.76,1800.78 "/>
<polyline clip-path="url(#clip251)" style="stroke:#000000; stroke-linecap:round; stroke-linejoin:round; stroke-width:2; stroke-opacity:0.1; fill:none" points="225.654,1306.21 2640.76,1306.21 "/>
<polyline clip-path="url(#clip251)" style="stroke:#000000; stroke-linecap:round; stroke-linejoin:round; stroke-width:2; stroke-opacity:0.1; fill:none" points="225.654,811.647 2640.76,811.647 "/>
<polyline clip-path="url(#clip251)" style="stroke:#000000; stroke-linecap:round; stroke-linejoin:round; stroke-width:2; stroke-opacity:0.1; fill:none" points="225.654,317.081 2640.76,317.081 "/>
<polyline clip-path="url(#clip250)" style="stroke:#000000; stroke-linecap:round; stroke-linejoin:round; stroke-width:4; stroke-opacity:1; fill:none" points="225.654,1800.78 2640.76,1800.78 "/>
<polyline clip-path="url(#clip250)" style="stroke:#000000; stroke-linecap:round; stroke-linejoin:round; stroke-width:4; stroke-opacity:1; fill:none" points="537.609,1800.78 537.609,1781.88 "/>
<polyline clip-path="url(#clip250)" style="stroke:#000000; stroke-linecap:round; stroke-linejoin:round; stroke-width:4; stroke-opacity:1; fill:none" points="985.407,1800.78 985.407,1781.88 "/>
<polyline clip-path="url(#clip250)" style="stroke:#000000; stroke-linecap:round; stroke-linejoin:round; stroke-width:4; stroke-opacity:1; fill:none" points="1433.21,1800.78 1433.21,1781.88 "/>
<polyline clip-path="url(#clip250)" style="stroke:#000000; stroke-linecap:round; stroke-linejoin:round; stroke-width:4; stroke-opacity:1; fill:none" points="1881,1800.78 1881,1781.88 "/>
<polyline clip-path="url(#clip250)" style="stroke:#000000; stroke-linecap:round; stroke-linejoin:round; stroke-width:4; stroke-opacity:1; fill:none" points="2328.8,1800.78 2328.8,1781.88 "/>
<path clip-path="url(#clip250)" d="M421.996 1830.92 L443.848 1830.92 L443.848 1834.86 L426.672 1834.86 L426.672 1845.09 L443.13 1845.09 L443.13 1849.03 L426.672 1849.03 L426.672 1861.55 L444.264 1861.55 L444.264 1865.48 L421.996 1865.48 L421.996 1830.92 Z" fill="#000000" fill-rule="nonzero" fill-opacity="1" /><path clip-path="url(#clip250)" d="M468.824 1852.22 Q468.824 1847.59 466.903 1845.04 Q465.005 1842.5 461.556 1842.5 Q458.13 1842.5 456.209 1845.04 Q454.31 1847.59 454.31 1852.22 Q454.31 1856.83 456.209 1859.37 Q458.13 1861.92 461.556 1861.92 Q465.005 1861.92 466.903 1859.37 Q468.824 1856.83 468.824 1852.22 M473.084 1862.27 Q473.084 1868.89 470.144 1872.1 Q467.204 1875.34 461.139 1875.34 Q458.894 1875.34 456.903 1875 Q454.912 1874.67 453.037 1873.98 L453.037 1869.84 Q454.912 1870.85 456.741 1871.34 Q458.57 1871.83 460.468 1871.83 Q464.658 1871.83 466.741 1869.63 Q468.824 1867.45 468.824 1863.03 L468.824 1860.92 Q467.505 1863.21 465.445 1864.35 Q463.384 1865.48 460.514 1865.48 Q455.746 1865.48 452.829 1861.85 Q449.912 1858.21 449.912 1852.22 Q449.912 1846.2 452.829 1842.57 Q455.746 1838.93 460.514 1838.93 Q463.384 1838.93 465.445 1840.07 Q467.505 1841.2 468.824 1843.49 L468.824 1839.56 L473.084 1839.56 L473.084 1862.27 Z" fill="#000000" fill-rule="nonzero" fill-opacity="1" /><path clip-path="url(#clip250)" d="M498.917 1852.22 Q498.917 1847.59 496.995 1845.04 Q495.097 1842.5 491.648 1842.5 Q488.222 1842.5 486.301 1845.04 Q484.403 1847.59 484.403 1852.22 Q484.403 1856.83 486.301 1859.37 Q488.222 1861.92 491.648 1861.92 Q495.097 1861.92 496.995 1859.37 Q498.917 1856.83 498.917 1852.22 M503.176 1862.27 Q503.176 1868.89 500.236 1872.1 Q497.296 1875.34 491.232 1875.34 Q488.986 1875.34 486.995 1875 Q485.005 1874.67 483.13 1873.98 L483.13 1869.84 Q485.005 1870.85 486.833 1871.34 Q488.662 1871.83 490.56 1871.83 Q494.75 1871.83 496.833 1869.63 Q498.917 1867.45 498.917 1863.03 L498.917 1860.92 Q497.597 1863.21 495.537 1864.35 Q493.477 1865.48 490.607 1865.48 Q485.838 1865.48 482.921 1861.85 Q480.005 1858.21 480.005 1852.22 Q480.005 1846.2 482.921 1842.57 Q485.838 1838.93 490.607 1838.93 Q493.477 1838.93 495.537 1840.07 Q497.597 1841.2 498.917 1843.49 L498.917 1839.56 L503.176 1839.56 L503.176 1862.27 Z" fill="#000000" fill-rule="nonzero" fill-opacity="1" /><path clip-path="url(#clip250)" d="M519.518 1830.92 L523.454 1830.92 L511.417 1869.88 L507.481 1869.88 L519.518 1830.92 Z" fill="#000000" fill-rule="nonzero" fill-opacity="1" /><path clip-path="url(#clip250)" d="M549.472 1849.84 L549.472 1865.48 L545.213 1865.48 L545.213 1849.97 Q545.213 1846.29 543.778 1844.46 Q542.342 1842.64 539.472 1842.64 Q536.023 1842.64 534.032 1844.84 Q532.042 1847.03 532.042 1850.83 L532.042 1865.48 L527.759 1865.48 L527.759 1829.46 L532.042 1829.46 L532.042 1843.59 Q533.569 1841.25 535.629 1840.09 Q537.713 1838.93 540.421 1838.93 Q544.889 1838.93 547.18 1841.71 Q549.472 1844.46 549.472 1849.84 Z" fill="#000000" fill-rule="nonzero" fill-opacity="1" /><path clip-path="url(#clip250)" d="M569.75 1852.45 Q564.588 1852.45 562.597 1853.63 Q560.606 1854.81 560.606 1857.66 Q560.606 1859.93 562.088 1861.27 Q563.592 1862.59 566.162 1862.59 Q569.703 1862.59 571.833 1860.09 Q573.986 1857.57 573.986 1853.4 L573.986 1852.45 L569.75 1852.45 M578.245 1850.69 L578.245 1865.48 L573.986 1865.48 L573.986 1861.55 Q572.527 1863.91 570.352 1865.04 Q568.176 1866.15 565.027 1866.15 Q561.046 1866.15 558.685 1863.93 Q556.347 1861.69 556.347 1857.94 Q556.347 1853.56 559.264 1851.34 Q562.203 1849.12 568.014 1849.12 L573.986 1849.12 L573.986 1848.7 Q573.986 1845.76 572.041 1844.16 Q570.12 1842.54 566.625 1842.54 Q564.402 1842.54 562.296 1843.08 Q560.19 1843.61 558.245 1844.67 L558.245 1840.74 Q560.583 1839.84 562.782 1839.4 Q564.981 1838.93 567.064 1838.93 Q572.689 1838.93 575.467 1841.85 Q578.245 1844.77 578.245 1850.69 Z" fill="#000000" fill-rule="nonzero" fill-opacity="1" /><path clip-path="url(#clip250)" d="M591.231 1832.2 L591.231 1839.56 L600.004 1839.56 L600.004 1842.87 L591.231 1842.87 L591.231 1856.94 Q591.231 1860.11 592.088 1861.02 Q592.967 1861.92 595.629 1861.92 L600.004 1861.92 L600.004 1865.48 L595.629 1865.48 Q590.699 1865.48 588.824 1863.65 Q586.949 1861.8 586.949 1856.94 L586.949 1842.87 L583.824 1842.87 L583.824 1839.56 L586.949 1839.56 L586.949 1832.2 L591.231 1832.2 Z" fill="#000000" fill-rule="nonzero" fill-opacity="1" /><path clip-path="url(#clip250)" d="M624.263 1840.55 L624.263 1844.53 Q622.458 1843.54 620.629 1843.05 Q618.823 1842.54 616.972 1842.54 Q612.828 1842.54 610.536 1845.18 Q608.245 1847.8 608.245 1852.54 Q608.245 1857.29 610.536 1859.93 Q612.828 1862.54 616.972 1862.54 Q618.823 1862.54 620.629 1862.06 Q622.458 1861.55 624.263 1860.55 L624.263 1864.49 Q622.481 1865.32 620.56 1865.74 Q618.661 1866.15 616.509 1866.15 Q610.652 1866.15 607.203 1862.47 Q603.754 1858.79 603.754 1852.54 Q603.754 1846.2 607.226 1842.57 Q610.722 1838.93 616.786 1838.93 Q618.754 1838.93 620.629 1839.35 Q622.504 1839.74 624.263 1840.55 Z" fill="#000000" fill-rule="nonzero" fill-opacity="1" /><path clip-path="url(#clip250)" d="M653.221 1849.84 L653.221 1865.48 L648.962 1865.48 L648.962 1849.97 Q648.962 1846.29 647.527 1844.46 Q646.092 1842.64 643.221 1842.64 Q639.772 1842.64 637.782 1844.84 Q635.791 1847.03 635.791 1850.83 L635.791 1865.48 L631.509 1865.48 L631.509 1829.46 L635.791 1829.46 L635.791 1843.59 Q637.319 1841.25 639.379 1840.09 Q641.462 1838.93 644.171 1838.93 Q648.638 1838.93 650.93 1841.71 Q653.221 1844.46 653.221 1849.84 Z" fill="#000000" fill-rule="nonzero" fill-opacity="1" /><path clip-path="url(#clip250)" d="M928.613 1832.06 L928.613 1836.62 Q925.951 1835.34 923.59 1834.72 Q921.229 1834.09 919.03 1834.09 Q915.211 1834.09 913.127 1835.58 Q911.067 1837.06 911.067 1839.79 Q911.067 1842.08 912.433 1843.26 Q913.822 1844.42 917.664 1845.14 L920.488 1845.71 Q925.72 1846.71 928.197 1849.23 Q930.697 1851.73 930.697 1855.95 Q930.697 1860.97 927.317 1863.56 Q923.96 1866.15 917.456 1866.15 Q915.002 1866.15 912.224 1865.6 Q909.47 1865.04 906.507 1863.96 L906.507 1859.14 Q909.354 1860.74 912.086 1861.55 Q914.817 1862.36 917.456 1862.36 Q921.46 1862.36 923.636 1860.78 Q925.812 1859.21 925.812 1856.29 Q925.812 1853.75 924.238 1852.31 Q922.687 1850.88 919.123 1850.16 L916.275 1849.6 Q911.044 1848.56 908.706 1846.34 Q906.368 1844.12 906.368 1840.16 Q906.368 1835.58 909.586 1832.94 Q912.826 1830.3 918.498 1830.3 Q920.928 1830.3 923.451 1830.74 Q925.974 1831.18 928.613 1832.06 Z" fill="#000000" fill-rule="nonzero" fill-opacity="1" /><path clip-path="url(#clip250)" d="M957.988 1844.53 Q959.585 1841.66 961.807 1840.3 Q964.03 1838.93 967.039 1838.93 Q971.09 1838.93 973.289 1841.78 Q975.488 1844.6 975.488 1849.84 L975.488 1865.48 L971.206 1865.48 L971.206 1849.97 Q971.206 1846.25 969.886 1844.44 Q968.567 1842.64 965.858 1842.64 Q962.548 1842.64 960.627 1844.84 Q958.706 1847.03 958.706 1850.83 L958.706 1865.48 L954.423 1865.48 L954.423 1849.97 Q954.423 1846.22 953.104 1844.44 Q951.784 1842.64 949.03 1842.64 Q945.766 1842.64 943.845 1844.86 Q941.923 1847.06 941.923 1850.83 L941.923 1865.48 L937.641 1865.48 L937.641 1839.56 L941.923 1839.56 L941.923 1843.59 Q943.382 1841.2 945.419 1840.07 Q947.456 1838.93 950.257 1838.93 Q953.081 1838.93 955.048 1840.37 Q957.039 1841.8 957.988 1844.53 Z" fill="#000000" fill-rule="nonzero" fill-opacity="1" /><path clip-path="url(#clip250)" d="M999.053 1839.56 L1003.31 1839.56 L1003.31 1865.95 Q1003.31 1870.9 1001.41 1873.12 Q999.539 1875.34 995.349 1875.34 L993.729 1875.34 L993.729 1871.73 L994.863 1871.73 Q997.293 1871.73 998.173 1870.6 Q999.053 1869.49 999.053 1865.95 L999.053 1839.56 M999.053 1829.46 L1003.31 1829.46 L1003.31 1834.86 L999.053 1834.86 L999.053 1829.46 Z" fill="#000000" fill-rule="nonzero" fill-opacity="1" /><path clip-path="url(#clip250)" d="M1011.78 1855.25 L1011.78 1839.56 L1016.04 1839.56 L1016.04 1855.09 Q1016.04 1858.77 1017.48 1860.62 Q1018.91 1862.45 1021.78 1862.45 Q1025.23 1862.45 1027.22 1860.25 Q1029.24 1858.05 1029.24 1854.26 L1029.24 1839.56 L1033.5 1839.56 L1033.5 1865.48 L1029.24 1865.48 L1029.24 1861.5 Q1027.69 1863.86 1025.63 1865.02 Q1023.59 1866.15 1020.88 1866.15 Q1016.41 1866.15 1014.1 1863.38 Q1011.78 1860.6 1011.78 1855.25 M1022.5 1838.93 L1022.5 1838.93 Z" fill="#000000" fill-rule="nonzero" fill-opacity="1" /><path clip-path="url(#clip250)" d="M1039.21 1839.56 L1043.73 1839.56 L1051.83 1861.32 L1059.93 1839.56 L1064.45 1839.56 L1054.72 1865.48 L1048.94 1865.48 L1039.21 1839.56 Z" fill="#000000" fill-rule="nonzero" fill-opacity="1" /><path clip-path="url(#clip250)" d="M1364.81 1830.92 L1369.49 1830.92 L1369.49 1861.55 L1386.32 1861.55 L1386.32 1865.48 L1364.81 1865.48 L1364.81 1830.92 Z" fill="#000000" fill-rule="nonzero" fill-opacity="1" /><path clip-path="url(#clip250)" d="M1408.1 1852.22 Q1408.1 1847.59 1406.18 1845.04 Q1404.28 1842.5 1400.83 1842.5 Q1397.41 1842.5 1395.49 1845.04 Q1393.59 1847.59 1393.59 1852.22 Q1393.59 1856.83 1395.49 1859.37 Q1397.41 1861.92 1400.83 1861.92 Q1404.28 1861.92 1406.18 1859.37 Q1408.1 1856.83 1408.1 1852.22 M1412.36 1862.27 Q1412.36 1868.89 1409.42 1872.1 Q1406.48 1875.34 1400.42 1875.34 Q1398.17 1875.34 1396.18 1875 Q1394.19 1874.67 1392.31 1873.98 L1392.31 1869.84 Q1394.19 1870.85 1396.02 1871.34 Q1397.85 1871.83 1399.74 1871.83 Q1403.93 1871.83 1406.02 1869.63 Q1408.1 1867.45 1408.1 1863.03 L1408.1 1860.92 Q1406.78 1863.21 1404.72 1864.35 Q1402.66 1865.48 1399.79 1865.48 Q1395.02 1865.48 1392.11 1861.85 Q1389.19 1858.21 1389.19 1852.22 Q1389.19 1846.2 1392.11 1842.57 Q1395.02 1838.93 1399.79 1838.93 Q1402.66 1838.93 1404.72 1840.07 Q1406.78 1841.2 1408.1 1843.49 L1408.1 1839.56 L1412.36 1839.56 L1412.36 1862.27 Z" fill="#000000" fill-rule="nonzero" fill-opacity="1" /><path clip-path="url(#clip250)" d="M1436.2 1839.56 L1440.46 1839.56 L1440.46 1865.95 Q1440.46 1870.9 1438.56 1873.12 Q1436.69 1875.34 1432.5 1875.34 L1430.88 1875.34 L1430.88 1871.73 L1432.01 1871.73 Q1434.44 1871.73 1435.32 1870.6 Q1436.2 1869.49 1436.2 1865.95 L1436.2 1839.56 M1436.2 1829.46 L1440.46 1829.46 L1440.46 1834.86 L1436.2 1834.86 L1436.2 1829.46 Z" fill="#000000" fill-rule="nonzero" fill-opacity="1" /><path clip-path="url(#clip250)" d="M1448.93 1855.25 L1448.93 1839.56 L1453.19 1839.56 L1453.19 1855.09 Q1453.19 1858.77 1454.63 1860.62 Q1456.06 1862.45 1458.93 1862.45 Q1462.38 1862.45 1464.37 1860.25 Q1466.39 1858.05 1466.39 1854.26 L1466.39 1839.56 L1470.65 1839.56 L1470.65 1865.48 L1466.39 1865.48 L1466.39 1861.5 Q1464.84 1863.86 1462.78 1865.02 Q1460.74 1866.15 1458.03 1866.15 Q1453.56 1866.15 1451.25 1863.38 Q1448.93 1860.6 1448.93 1855.25 M1459.65 1838.93 L1459.65 1838.93 Z" fill="#000000" fill-rule="nonzero" fill-opacity="1" /><path clip-path="url(#clip250)" d="M1476.36 1839.56 L1480.88 1839.56 L1488.98 1861.32 L1497.08 1839.56 L1501.6 1839.56 L1491.87 1865.48 L1486.09 1865.48 L1476.36 1839.56 Z" fill="#000000" fill-rule="nonzero" fill-opacity="1" /><path clip-path="url(#clip250)" d="M1799.79 1832.06 L1799.79 1836.62 Q1797.13 1835.34 1794.77 1834.72 Q1792.4 1834.09 1790.21 1834.09 Q1786.39 1834.09 1784.3 1835.58 Q1782.24 1837.06 1782.24 1839.79 Q1782.24 1842.08 1783.61 1843.26 Q1785 1844.42 1788.84 1845.14 L1791.66 1845.71 Q1796.9 1846.71 1799.37 1849.23 Q1801.87 1851.73 1801.87 1855.95 Q1801.87 1860.97 1798.49 1863.56 Q1795.14 1866.15 1788.63 1866.15 Q1786.18 1866.15 1783.4 1865.6 Q1780.65 1865.04 1777.68 1863.96 L1777.68 1859.14 Q1780.53 1860.74 1783.26 1861.55 Q1785.99 1862.36 1788.63 1862.36 Q1792.64 1862.36 1794.81 1860.78 Q1796.99 1859.21 1796.99 1856.29 Q1796.99 1853.75 1795.41 1852.31 Q1793.86 1850.88 1790.3 1850.16 L1787.45 1849.6 Q1782.22 1848.56 1779.88 1846.34 Q1777.54 1844.12 1777.54 1840.16 Q1777.54 1835.58 1780.76 1832.94 Q1784 1830.3 1789.67 1830.3 Q1792.1 1830.3 1794.63 1830.74 Q1797.15 1831.18 1799.79 1832.06 Z" fill="#000000" fill-rule="nonzero" fill-opacity="1" /><path clip-path="url(#clip250)" d="M1808.54 1855.25 L1808.54 1839.56 L1812.8 1839.56 L1812.8 1855.09 Q1812.8 1858.77 1814.23 1860.62 Q1815.67 1862.45 1818.54 1862.45 Q1821.99 1862.45 1823.98 1860.25 Q1825.99 1858.05 1825.99 1854.26 L1825.99 1839.56 L1830.25 1839.56 L1830.25 1865.48 L1825.99 1865.48 L1825.99 1861.5 Q1824.44 1863.86 1822.38 1865.02 Q1820.34 1866.15 1817.64 1866.15 Q1813.17 1866.15 1810.85 1863.38 Q1808.54 1860.6 1808.54 1855.25 M1819.26 1838.93 L1819.26 1838.93 Z" fill="#000000" fill-rule="nonzero" fill-opacity="1" /><path clip-path="url(#clip250)" d="M1857.64 1852.54 Q1857.64 1847.84 1855.69 1845.18 Q1853.77 1842.5 1850.39 1842.5 Q1847.01 1842.5 1845.07 1845.18 Q1843.14 1847.84 1843.14 1852.54 Q1843.14 1857.24 1845.07 1859.93 Q1847.01 1862.59 1850.39 1862.59 Q1853.77 1862.59 1855.69 1859.93 Q1857.64 1857.24 1857.64 1852.54 M1843.14 1843.49 Q1844.49 1841.18 1846.52 1840.07 Q1848.58 1838.93 1851.43 1838.93 Q1856.15 1838.93 1859.09 1842.68 Q1862.06 1846.43 1862.06 1852.54 Q1862.06 1858.65 1859.09 1862.4 Q1856.15 1866.15 1851.43 1866.15 Q1848.58 1866.15 1846.52 1865.04 Q1844.49 1863.91 1843.14 1861.59 L1843.14 1865.48 L1838.86 1865.48 L1838.86 1829.46 L1843.14 1829.46 L1843.14 1843.49 Z" fill="#000000" fill-rule="nonzero" fill-opacity="1" /><path clip-path="url(#clip250)" d="M1880.9 1852.45 Q1875.74 1852.45 1873.75 1853.63 Q1871.76 1854.81 1871.76 1857.66 Q1871.76 1859.93 1873.24 1861.27 Q1874.74 1862.59 1877.31 1862.59 Q1880.85 1862.59 1882.98 1860.09 Q1885.14 1857.57 1885.14 1853.4 L1885.14 1852.45 L1880.9 1852.45 M1889.39 1850.69 L1889.39 1865.48 L1885.14 1865.48 L1885.14 1861.55 Q1883.68 1863.91 1881.5 1865.04 Q1879.33 1866.15 1876.18 1866.15 Q1872.2 1866.15 1869.83 1863.93 Q1867.5 1861.69 1867.5 1857.94 Q1867.5 1853.56 1870.41 1851.34 Q1873.35 1849.12 1879.16 1849.12 L1885.14 1849.12 L1885.14 1848.7 Q1885.14 1845.76 1883.19 1844.16 Q1881.27 1842.54 1877.77 1842.54 Q1875.55 1842.54 1873.45 1843.08 Q1871.34 1843.61 1869.39 1844.67 L1869.39 1840.74 Q1871.73 1839.84 1873.93 1839.4 Q1876.13 1838.93 1878.21 1838.93 Q1883.84 1838.93 1886.62 1841.85 Q1889.39 1844.77 1889.39 1850.69 Z" fill="#000000" fill-rule="nonzero" fill-opacity="1" /><path clip-path="url(#clip250)" d="M1915.23 1843.49 L1915.23 1829.46 L1919.49 1829.46 L1919.49 1865.48 L1915.23 1865.48 L1915.23 1861.59 Q1913.89 1863.91 1911.83 1865.04 Q1909.79 1866.15 1906.92 1866.15 Q1902.22 1866.15 1899.26 1862.4 Q1896.32 1858.65 1896.32 1852.54 Q1896.32 1846.43 1899.26 1842.68 Q1902.22 1838.93 1906.92 1838.93 Q1909.79 1838.93 1911.83 1840.07 Q1913.89 1841.18 1915.23 1843.49 M1900.71 1852.54 Q1900.71 1857.24 1902.64 1859.93 Q1904.58 1862.59 1907.96 1862.59 Q1911.34 1862.59 1913.28 1859.93 Q1915.23 1857.24 1915.23 1852.54 Q1915.23 1847.84 1913.28 1845.18 Q1911.34 1842.5 1907.96 1842.5 Q1904.58 1842.5 1902.64 1845.18 Q1900.71 1847.84 1900.71 1852.54 Z" fill="#000000" fill-rule="nonzero" fill-opacity="1" /><path clip-path="url(#clip250)" d="M1927.82 1855.25 L1927.82 1839.56 L1932.08 1839.56 L1932.08 1855.09 Q1932.08 1858.77 1933.51 1860.62 Q1934.95 1862.45 1937.82 1862.45 Q1941.27 1862.45 1943.26 1860.25 Q1945.27 1858.05 1945.27 1854.26 L1945.27 1839.56 L1949.53 1839.56 L1949.53 1865.48 L1945.27 1865.48 L1945.27 1861.5 Q1943.72 1863.86 1941.66 1865.02 Q1939.63 1866.15 1936.92 1866.15 Q1932.45 1866.15 1930.14 1863.38 Q1927.82 1860.6 1927.82 1855.25 M1938.54 1838.93 L1938.54 1838.93 Z" fill="#000000" fill-rule="nonzero" fill-opacity="1" /><path clip-path="url(#clip250)" d="M1958.31 1829.46 L1962.57 1829.46 L1962.57 1865.48 L1958.31 1865.48 L1958.31 1829.46 Z" fill="#000000" fill-rule="nonzero" fill-opacity="1" /><path clip-path="url(#clip250)" d="M1975.69 1832.2 L1975.69 1839.56 L1984.46 1839.56 L1984.46 1842.87 L1975.69 1842.87 L1975.69 1856.94 Q1975.69 1860.11 1976.55 1861.02 Q1977.43 1861.92 1980.09 1861.92 L1984.46 1861.92 L1984.46 1865.48 L1980.09 1865.48 Q1975.16 1865.48 1973.28 1863.65 Q1971.41 1861.8 1971.41 1856.94 L1971.41 1842.87 L1968.28 1842.87 L1968.28 1839.56 L1971.41 1839.56 L1971.41 1832.2 L1975.69 1832.2 Z" fill="#000000" fill-rule="nonzero" fill-opacity="1" /><path clip-path="url(#clip250)" d="M2283.64 1835.53 L2277.3 1852.73 L2290.01 1852.73 L2283.64 1835.53 M2281 1830.92 L2286.3 1830.92 L2299.47 1865.48 L2294.61 1865.48 L2291.46 1856.62 L2275.89 1856.62 L2272.74 1865.48 L2267.81 1865.48 L2281 1830.92 Z" fill="#000000" fill-rule="nonzero" fill-opacity="1" /><path clip-path="url(#clip250)" d="M2320.56 1843.49 L2320.56 1829.46 L2324.82 1829.46 L2324.82 1865.48 L2320.56 1865.48 L2320.56 1861.59 Q2319.22 1863.91 2317.16 1865.04 Q2315.12 1866.15 2312.25 1866.15 Q2307.55 1866.15 2304.59 1862.4 Q2301.65 1858.65 2301.65 1852.54 Q2301.65 1846.43 2304.59 1842.68 Q2307.55 1838.93 2312.25 1838.93 Q2315.12 1838.93 2317.16 1840.07 Q2319.22 1841.18 2320.56 1843.49 M2306.05 1852.54 Q2306.05 1857.24 2307.97 1859.93 Q2309.91 1862.59 2313.29 1862.59 Q2316.67 1862.59 2318.62 1859.93 Q2320.56 1857.24 2320.56 1852.54 Q2320.56 1847.84 2318.62 1845.18 Q2316.67 1842.5 2313.29 1842.5 Q2309.91 1842.5 2307.97 1845.18 Q2306.05 1847.84 2306.05 1852.54 Z" fill="#000000" fill-rule="nonzero" fill-opacity="1" /><path clip-path="url(#clip250)" d="M2333.15 1855.25 L2333.15 1839.56 L2337.41 1839.56 L2337.41 1855.09 Q2337.41 1858.77 2338.85 1860.62 Q2340.28 1862.45 2343.15 1862.45 Q2346.6 1862.45 2348.59 1860.25 Q2350.61 1858.05 2350.61 1854.26 L2350.61 1839.56 L2354.87 1839.56 L2354.87 1865.48 L2350.61 1865.48 L2350.61 1861.5 Q2349.06 1863.86 2347 1865.02 Q2344.96 1866.15 2342.25 1866.15 Q2337.78 1866.15 2335.47 1863.38 Q2333.15 1860.6 2333.15 1855.25 M2343.87 1838.93 L2343.87 1838.93 Z" fill="#000000" fill-rule="nonzero" fill-opacity="1" /><path clip-path="url(#clip250)" d="M2363.64 1829.46 L2367.9 1829.46 L2367.9 1865.48 L2363.64 1865.48 L2363.64 1829.46 Z" fill="#000000" fill-rule="nonzero" fill-opacity="1" /><path clip-path="url(#clip250)" d="M2381.02 1832.2 L2381.02 1839.56 L2389.8 1839.56 L2389.8 1842.87 L2381.02 1842.87 L2381.02 1856.94 Q2381.02 1860.11 2381.88 1861.02 Q2382.76 1861.92 2385.42 1861.92 L2389.8 1861.92 L2389.8 1865.48 L2385.42 1865.48 Q2380.49 1865.48 2378.62 1863.65 Q2376.74 1861.8 2376.74 1856.94 L2376.74 1842.87 L2373.62 1842.87 L2373.62 1839.56 L2376.74 1839.56 L2376.74 1832.2 L2381.02 1832.2 Z" fill="#000000" fill-rule="nonzero" fill-opacity="1" /><polyline clip-path="url(#clip250)" style="stroke:#000000; stroke-linecap:round; stroke-linejoin:round; stroke-width:4; stroke-opacity:1; fill:none" points="225.654,1800.78 225.654,127.792 "/>
<polyline clip-path="url(#clip250)" style="stroke:#000000; stroke-linecap:round; stroke-linejoin:round; stroke-width:4; stroke-opacity:1; fill:none" points="225.654,1800.78 244.552,1800.78 "/>
<polyline clip-path="url(#clip250)" style="stroke:#000000; stroke-linecap:round; stroke-linejoin:round; stroke-width:4; stroke-opacity:1; fill:none" points="225.654,1306.21 244.552,1306.21 "/>
<polyline clip-path="url(#clip250)" style="stroke:#000000; stroke-linecap:round; stroke-linejoin:round; stroke-width:4; stroke-opacity:1; fill:none" points="225.654,811.647 244.552,811.647 "/>
<polyline clip-path="url(#clip250)" style="stroke:#000000; stroke-linecap:round; stroke-linejoin:round; stroke-width:4; stroke-opacity:1; fill:none" points="225.654,317.081 244.552,317.081 "/>
<path clip-path="url(#clip250)" d="M128.159 1786.58 Q124.548 1786.58 122.719 1790.14 Q120.913 1793.68 120.913 1800.81 Q120.913 1807.92 122.719 1811.49 Q124.548 1815.03 128.159 1815.03 Q131.793 1815.03 133.599 1811.49 Q135.427 1807.92 135.427 1800.81 Q135.427 1793.68 133.599 1790.14 Q131.793 1786.58 128.159 1786.58 M128.159 1782.87 Q133.969 1782.87 137.025 1787.48 Q140.103 1792.06 140.103 1800.81 Q140.103 1809.54 137.025 1814.15 Q133.969 1818.73 128.159 1818.73 Q122.349 1818.73 119.27 1814.15 Q116.214 1809.54 116.214 1800.81 Q116.214 1792.06 119.27 1787.48 Q122.349 1782.87 128.159 1782.87 Z" fill="#000000" fill-rule="nonzero" fill-opacity="1" /><path clip-path="url(#clip250)" d="M148.321 1812.18 L153.205 1812.18 L153.205 1818.06 L148.321 1818.06 L148.321 1812.18 Z" fill="#000000" fill-rule="nonzero" fill-opacity="1" /><path clip-path="url(#clip250)" d="M173.39 1786.58 Q169.779 1786.58 167.95 1790.14 Q166.145 1793.68 166.145 1800.81 Q166.145 1807.92 167.95 1811.49 Q169.779 1815.03 173.39 1815.03 Q177.024 1815.03 178.83 1811.49 Q180.659 1807.92 180.659 1800.81 Q180.659 1793.68 178.83 1790.14 Q177.024 1786.58 173.39 1786.58 M173.39 1782.87 Q179.2 1782.87 182.256 1787.48 Q185.334 1792.06 185.334 1800.81 Q185.334 1809.54 182.256 1814.15 Q179.2 1818.73 173.39 1818.73 Q167.58 1818.73 164.501 1814.15 Q161.446 1809.54 161.446 1800.81 Q161.446 1792.06 164.501 1787.48 Q167.58 1782.87 173.39 1782.87 Z" fill="#000000" fill-rule="nonzero" fill-opacity="1" /><path clip-path="url(#clip250)" d="M129.386 1292.01 Q125.775 1292.01 123.946 1295.58 Q122.14 1299.12 122.14 1306.25 Q122.14 1313.35 123.946 1316.92 Q125.775 1320.46 129.386 1320.46 Q133.02 1320.46 134.825 1316.92 Q136.654 1313.35 136.654 1306.25 Q136.654 1299.12 134.825 1295.58 Q133.02 1292.01 129.386 1292.01 M129.386 1288.31 Q135.196 1288.31 138.251 1292.91 Q141.33 1297.5 141.33 1306.25 Q141.33 1314.97 138.251 1319.58 Q135.196 1324.16 129.386 1324.16 Q123.576 1324.16 120.497 1319.58 Q117.441 1314.97 117.441 1306.25 Q117.441 1297.5 120.497 1292.91 Q123.576 1288.31 129.386 1288.31 Z" fill="#000000" fill-rule="nonzero" fill-opacity="1" /><path clip-path="url(#clip250)" d="M149.548 1317.61 L154.432 1317.61 L154.432 1323.49 L149.548 1323.49 L149.548 1317.61 Z" fill="#000000" fill-rule="nonzero" fill-opacity="1" /><path clip-path="url(#clip250)" d="M165.427 1319.56 L173.066 1319.56 L173.066 1293.19 L164.756 1294.86 L164.756 1290.6 L173.02 1288.93 L177.696 1288.93 L177.696 1319.56 L185.334 1319.56 L185.334 1323.49 L165.427 1323.49 L165.427 1319.56 Z" fill="#000000" fill-rule="nonzero" fill-opacity="1" /><path clip-path="url(#clip250)" d="M129.756 797.446 Q126.145 797.446 124.316 801.011 Q122.511 804.552 122.511 811.682 Q122.511 818.789 124.316 822.353 Q126.145 825.895 129.756 825.895 Q133.39 825.895 135.196 822.353 Q137.025 818.789 137.025 811.682 Q137.025 804.552 135.196 801.011 Q133.39 797.446 129.756 797.446 M129.756 793.742 Q135.566 793.742 138.622 798.349 Q141.7 802.932 141.7 811.682 Q141.7 820.409 138.622 825.015 Q135.566 829.599 129.756 829.599 Q123.946 829.599 120.867 825.015 Q117.812 820.409 117.812 811.682 Q117.812 802.932 120.867 798.349 Q123.946 793.742 129.756 793.742 Z" fill="#000000" fill-rule="nonzero" fill-opacity="1" /><path clip-path="url(#clip250)" d="M149.918 823.048 L154.802 823.048 L154.802 828.927 L149.918 828.927 L149.918 823.048 Z" fill="#000000" fill-rule="nonzero" fill-opacity="1" /><path clip-path="url(#clip250)" d="M169.015 824.992 L185.334 824.992 L185.334 828.927 L163.39 828.927 L163.39 824.992 Q166.052 822.238 170.635 817.608 Q175.242 812.955 176.422 811.613 Q178.668 809.089 179.547 807.353 Q180.45 805.594 180.45 803.904 Q180.45 801.15 178.506 799.414 Q176.584 797.678 173.483 797.678 Q171.284 797.678 168.83 798.441 Q166.399 799.205 163.622 800.756 L163.622 796.034 Q166.446 794.9 168.899 794.321 Q171.353 793.742 173.39 793.742 Q178.76 793.742 181.955 796.428 Q185.149 799.113 185.149 803.603 Q185.149 805.733 184.339 807.654 Q183.552 809.552 181.446 812.145 Q180.867 812.816 177.765 816.034 Q174.663 819.228 169.015 824.992 Z" fill="#000000" fill-rule="nonzero" fill-opacity="1" /><path clip-path="url(#clip250)" d="M128.807 302.88 Q125.196 302.88 123.367 306.445 Q121.562 309.986 121.562 317.116 Q121.562 324.223 123.367 327.787 Q125.196 331.329 128.807 331.329 Q132.441 331.329 134.247 327.787 Q136.075 324.223 136.075 317.116 Q136.075 309.986 134.247 306.445 Q132.441 302.88 128.807 302.88 M128.807 299.176 Q134.617 299.176 137.673 303.783 Q140.751 308.366 140.751 317.116 Q140.751 325.843 137.673 330.449 Q134.617 335.033 128.807 335.033 Q122.997 335.033 119.918 330.449 Q116.863 325.843 116.863 317.116 Q116.863 308.366 119.918 303.783 Q122.997 299.176 128.807 299.176 Z" fill="#000000" fill-rule="nonzero" fill-opacity="1" /><path clip-path="url(#clip250)" d="M148.969 328.482 L153.853 328.482 L153.853 334.361 L148.969 334.361 L148.969 328.482 Z" fill="#000000" fill-rule="nonzero" fill-opacity="1" /><path clip-path="url(#clip250)" d="M178.205 315.727 Q181.561 316.445 183.436 318.713 Q185.334 320.982 185.334 324.315 Q185.334 329.431 181.816 332.232 Q178.297 335.033 171.816 335.033 Q169.64 335.033 167.325 334.593 Q165.034 334.176 162.58 333.32 L162.58 328.806 Q164.524 329.94 166.839 330.519 Q169.154 331.097 171.677 331.097 Q176.075 331.097 178.367 329.361 Q180.682 327.625 180.682 324.315 Q180.682 321.26 178.529 319.547 Q176.399 317.811 172.58 317.811 L168.552 317.811 L168.552 313.968 L172.765 313.968 Q176.214 313.968 178.043 312.602 Q179.872 311.213 179.872 308.621 Q179.872 305.959 177.973 304.547 Q176.098 303.112 172.58 303.112 Q170.659 303.112 168.46 303.528 Q166.26 303.945 163.622 304.824 L163.622 300.658 Q166.284 299.917 168.598 299.547 Q170.936 299.176 172.997 299.176 Q178.321 299.176 181.422 301.607 Q184.524 304.014 184.524 308.135 Q184.524 311.005 182.881 312.996 Q181.237 314.963 178.205 315.727 Z" fill="#000000" fill-rule="nonzero" fill-opacity="1" /><path clip-path="url(#clip250)" d="M14.1184 1196.82 L14.1184 1156.63 L19.5293 1156.63 L19.5293 1173.49 L61.6384 1173.49 L61.6384 1179.96 L19.5293 1179.96 L19.5293 1196.82 L14.1184 1196.82 Z" fill="#000000" fill-rule="nonzero" fill-opacity="1" /><path clip-path="url(#clip250)" d="M30.0964 1147.94 Q30.0964 1152.65 33.7885 1155.38 Q37.4488 1158.12 43.8463 1158.12 Q50.2438 1158.12 53.9359 1155.42 Q57.5962 1152.68 57.5962 1147.94 Q57.5962 1143.26 53.9041 1140.52 Q50.212 1137.78 43.8463 1137.78 Q37.5124 1137.78 33.8203 1140.52 Q30.0964 1143.26 30.0964 1147.94 M25.1311 1147.94 Q25.1311 1140.3 30.0964 1135.94 Q35.0616 1131.58 43.8463 1131.58 Q52.5991 1131.58 57.5962 1135.94 Q62.5615 1140.3 62.5615 1147.94 Q62.5615 1155.61 57.5962 1159.97 Q52.5991 1164.3 43.8463 1164.3 Q35.0616 1164.3 30.0964 1159.97 Q25.1311 1155.61 25.1311 1147.94 Z" fill="#000000" fill-rule="nonzero" fill-opacity="1" /><path clip-path="url(#clip250)" d="M15.869 1116.08 L25.9905 1116.08 L25.9905 1104.01 L30.542 1104.01 L30.542 1116.08 L49.8937 1116.08 Q54.2542 1116.08 55.4955 1114.9 Q56.7368 1113.69 56.7368 1110.03 L56.7368 1104.01 L61.6384 1104.01 L61.6384 1110.03 Q61.6384 1116.81 59.124 1119.39 Q56.5777 1121.96 49.8937 1121.96 L30.542 1121.96 L30.542 1126.26 L25.9905 1126.26 L25.9905 1121.96 L15.869 1121.96 L15.869 1116.08 Z" fill="#000000" fill-rule="nonzero" fill-opacity="1" /><path clip-path="url(#clip250)" d="M43.719 1080.11 Q43.719 1087.21 45.3422 1089.94 Q46.9655 1092.68 50.8804 1092.68 Q53.9996 1092.68 55.8457 1090.64 Q57.6599 1088.58 57.6599 1085.04 Q57.6599 1080.17 54.2224 1077.25 Q50.7531 1074.29 45.0239 1074.29 L43.719 1074.29 L43.719 1080.11 M41.3 1068.43 L61.6384 1068.43 L61.6384 1074.29 L56.2276 1074.29 Q59.4741 1076.29 61.0337 1079.28 Q62.5615 1082.27 62.5615 1086.6 Q62.5615 1092.08 59.5059 1095.32 Q56.4186 1098.54 51.2623 1098.54 Q45.2467 1098.54 42.1912 1094.53 Q39.1357 1090.49 39.1357 1082.5 L39.1357 1074.29 L38.5628 1074.29 Q34.5205 1074.29 32.3244 1076.96 Q30.0964 1079.6 30.0964 1084.41 Q30.0964 1087.46 30.8284 1090.36 Q31.5605 1093.25 33.0246 1095.93 L27.6137 1095.93 Q26.3724 1092.71 25.7677 1089.69 Q25.1311 1086.67 25.1311 1083.8 Q25.1311 1076.07 29.1415 1072.25 Q33.1519 1068.43 41.3 1068.43 Z" fill="#000000" fill-rule="nonzero" fill-opacity="1" /><path clip-path="url(#clip250)" d="M12.1132 1056.37 L12.1132 1050.51 L61.6384 1050.51 L61.6384 1056.37 L12.1132 1056.37 Z" fill="#000000" fill-rule="nonzero" fill-opacity="1" /><path clip-path="url(#clip250)" d="M42.3504 987.043 L45.2149 987.043 L45.2149 1013.97 Q51.2623 1013.59 54.4452 1010.34 Q57.5962 1007.06 57.5962 1001.24 Q57.5962 997.865 56.7687 994.714 Q55.9411 991.531 54.2861 988.412 L59.8242 988.412 Q61.161 991.563 61.8612 994.873 Q62.5615 998.183 62.5615 1001.59 Q62.5615 1010.12 57.5962 1015.12 Q52.631 1020.08 44.1646 1020.08 Q35.4117 1020.08 30.2873 1015.37 Q25.1311 1010.63 25.1311 1002.61 Q25.1311 995.414 29.7781 991.244 Q34.3932 987.043 42.3504 987.043 M40.6316 992.9 Q35.8255 992.963 32.9609 995.605 Q30.0964 998.215 30.0964 1002.54 Q30.0964 1007.45 32.8654 1010.41 Q35.6345 1013.33 40.6634 1013.78 L40.6316 992.9 Z" fill="#000000" fill-rule="nonzero" fill-opacity="1" /><path clip-path="url(#clip250)" d="M12.1132 977.431 L12.1132 971.574 L61.6384 971.574 L61.6384 977.431 L12.1132 977.431 Z" fill="#000000" fill-rule="nonzero" fill-opacity="1" /><path clip-path="url(#clip250)" d="M43.719 943.12 Q43.719 950.218 45.3422 952.955 Q46.9655 955.692 50.8804 955.692 Q53.9996 955.692 55.8457 953.655 Q57.6599 951.586 57.6599 948.053 Q57.6599 943.183 54.2224 940.255 Q50.7531 937.295 45.0239 937.295 L43.719 937.295 L43.719 943.12 M41.3 931.439 L61.6384 931.439 L61.6384 937.295 L56.2276 937.295 Q59.4741 939.3 61.0337 942.292 Q62.5615 945.284 62.5615 949.613 Q62.5615 955.087 59.5059 958.334 Q56.4186 961.548 51.2623 961.548 Q45.2467 961.548 42.1912 957.538 Q39.1357 953.496 39.1357 945.507 L39.1357 937.295 L38.5628 937.295 Q34.5205 937.295 32.3244 939.969 Q30.0964 942.61 30.0964 947.417 Q30.0964 950.472 30.8284 953.369 Q31.5605 956.265 33.0246 958.939 L27.6137 958.939 Q26.3724 955.724 25.7677 952.7 Q25.1311 949.676 25.1311 946.812 Q25.1311 939.078 29.1415 935.258 Q33.1519 931.439 41.3 931.439 Z" fill="#000000" fill-rule="nonzero" fill-opacity="1" /><path clip-path="url(#clip250)" d="M27.0408 896.65 L32.579 896.65 Q31.3059 899.133 30.6693 901.806 Q30.0327 904.48 30.0327 907.344 Q30.0327 911.705 31.3695 913.901 Q32.7063 916.065 35.3799 916.065 Q37.4169 916.065 38.5946 914.506 Q39.7404 912.946 40.7908 908.236 L41.2364 906.23 Q42.5732 899.992 45.0239 897.382 Q47.4429 894.74 51.8034 894.74 Q56.7687 894.74 59.6651 898.687 Q62.5615 902.602 62.5615 909.477 Q62.5615 912.342 61.9886 915.461 Q61.4475 918.548 60.3335 921.986 L54.2861 921.986 Q55.973 918.739 56.8323 915.588 Q57.6599 912.437 57.6599 909.35 Q57.6599 905.212 56.2594 902.984 Q54.8271 900.756 52.249 900.756 Q49.8619 900.756 48.5887 902.379 Q47.3156 903.971 46.1379 909.413 L45.6605 911.45 Q44.5147 916.893 42.1594 919.312 Q39.7722 921.731 35.6345 921.731 Q30.6056 921.731 27.8684 918.166 Q25.1311 914.601 25.1311 908.045 Q25.1311 904.798 25.6085 901.934 Q26.086 899.069 27.0408 896.65 Z" fill="#000000" fill-rule="nonzero" fill-opacity="1" /><path clip-path="url(#clip250)" d="M15.869 879.622 L25.9905 879.622 L25.9905 867.559 L30.542 867.559 L30.542 879.622 L49.8937 879.622 Q54.2542 879.622 55.4955 878.444 Q56.7368 877.235 56.7368 873.574 L56.7368 867.559 L61.6384 867.559 L61.6384 873.574 Q61.6384 880.354 59.124 882.932 Q56.5777 885.51 49.8937 885.51 L30.542 885.51 L30.542 889.807 L25.9905 889.807 L25.9905 885.51 L15.869 885.51 L15.869 879.622 Z" fill="#000000" fill-rule="nonzero" fill-opacity="1" /><path clip-path="url(#clip250)" d="M25.9905 859.856 L25.9905 854 L61.6384 854 L61.6384 859.856 L25.9905 859.856 M12.1132 859.856 L12.1132 854 L19.5293 854 L19.5293 859.856 L12.1132 859.856 Z" fill="#000000" fill-rule="nonzero" fill-opacity="1" /><path clip-path="url(#clip250)" d="M27.3591 816.092 L32.8336 816.092 Q31.465 818.575 30.7966 821.089 Q30.0964 823.572 30.0964 826.118 Q30.0964 831.815 33.7248 834.966 Q37.3214 838.117 43.8463 838.117 Q50.3711 838.117 53.9996 834.966 Q57.5962 831.815 57.5962 826.118 Q57.5962 823.572 56.9278 821.089 Q56.2276 818.575 54.859 816.092 L60.2698 816.092 Q61.4156 818.543 61.9886 821.185 Q62.5615 823.795 62.5615 826.755 Q62.5615 834.807 57.5007 839.55 Q52.44 844.292 43.8463 844.292 Q35.1253 844.292 30.1282 839.518 Q25.1311 834.712 25.1311 826.373 Q25.1311 823.667 25.704 821.089 Q26.2451 818.511 27.3591 816.092 Z" fill="#000000" fill-rule="nonzero" fill-opacity="1" /><path clip-path="url(#clip250)" d="M25.9905 805.907 L25.9905 800.05 L61.6384 800.05 L61.6384 805.907 L25.9905 805.907 M12.1132 805.907 L12.1132 800.05 L19.5293 800.05 L19.5293 805.907 L12.1132 805.907 Z" fill="#000000" fill-rule="nonzero" fill-opacity="1" /><path clip-path="url(#clip250)" d="M15.869 782.004 L25.9905 782.004 L25.9905 769.941 L30.542 769.941 L30.542 782.004 L49.8937 782.004 Q54.2542 782.004 55.4955 780.826 Q56.7368 779.617 56.7368 775.956 L56.7368 769.941 L61.6384 769.941 L61.6384 775.956 Q61.6384 782.736 59.124 785.314 Q56.5777 787.892 49.8937 787.892 L30.542 787.892 L30.542 792.189 L25.9905 792.189 L25.9905 787.892 L15.869 787.892 L15.869 782.004 Z" fill="#000000" fill-rule="nonzero" fill-opacity="1" /><path clip-path="url(#clip250)" d="M64.9486 747.406 Q71.3143 749.889 73.2559 752.244 Q75.1974 754.599 75.1974 758.546 L75.1974 763.225 L70.2958 763.225 L70.2958 759.787 Q70.2958 757.368 69.15 756.032 Q68.0041 754.695 63.7391 753.072 L61.0655 752.021 L25.9905 766.44 L25.9905 760.233 L53.8723 749.093 L25.9905 737.953 L25.9905 731.746 L64.9486 747.406 Z" fill="#000000" fill-rule="nonzero" fill-opacity="1" /><path clip-path="url(#clip250)" d="M908.451 12.096 L946.692 12.096 L946.692 18.9825 L916.634 18.9825 L916.634 36.8875 L945.436 36.8875 L945.436 43.7741 L916.634 43.7741 L916.634 65.6895 L947.421 65.6895 L947.421 72.576 L908.451 72.576 L908.451 12.096 Z" fill="#000000" fill-rule="nonzero" fill-opacity="1" /><path clip-path="url(#clip250)" d="M960.546 9.54393 L967.999 9.54393 L967.999 72.576 L960.546 72.576 L960.546 9.54393 Z" fill="#000000" fill-rule="nonzero" fill-opacity="1" /><path clip-path="url(#clip250)" d="M1004.21 49.7694 Q995.181 49.7694 991.697 51.8354 Q988.213 53.9013 988.213 58.8839 Q988.213 62.8538 990.806 65.2034 Q993.439 67.5124 997.936 67.5124 Q1004.13 67.5124 1007.86 63.1374 Q1011.63 58.7219 1011.63 51.4303 L1011.63 49.7694 L1004.21 49.7694 M1019.08 46.6907 L1019.08 72.576 L1011.63 72.576 L1011.63 65.6895 Q1009.08 69.8214 1005.27 71.8063 Q1001.46 73.7508 995.951 73.7508 Q988.983 73.7508 984.851 69.8619 Q980.76 65.9325 980.76 59.3701 Q980.76 51.7138 985.864 47.825 Q991.008 43.9361 1001.18 43.9361 L1011.63 43.9361 L1011.63 43.2069 Q1011.63 38.0623 1008.22 35.2672 Q1004.86 32.4315 998.746 32.4315 Q994.857 32.4315 991.171 33.3632 Q987.484 34.295 984.081 36.1584 L984.081 29.2718 Q988.173 27.692 992.021 26.9223 Q995.87 26.1121 999.515 26.1121 Q1009.36 26.1121 1014.22 31.2163 Q1019.08 36.3204 1019.08 46.6907 Z" fill="#000000" fill-rule="nonzero" fill-opacity="1" /><path clip-path="url(#clip250)" d="M1063.36 28.5427 L1063.36 35.5912 Q1060.2 33.9709 1056.8 33.1607 Q1053.39 32.3505 1049.75 32.3505 Q1044.2 32.3505 1041.4 34.0519 Q1038.65 35.7533 1038.65 39.156 Q1038.65 41.7486 1040.63 43.2475 Q1042.62 44.7058 1048.61 46.0426 L1051.16 46.6097 Q1059.1 48.3111 1062.43 51.4303 Q1065.79 54.509 1065.79 60.0587 Q1065.79 66.3781 1060.77 70.0644 Q1055.78 73.7508 1047.03 73.7508 Q1043.39 73.7508 1039.42 73.0216 Q1035.49 72.3329 1031.11 70.9151 L1031.11 63.2184 Q1035.24 65.3654 1039.25 66.4591 Q1043.27 67.5124 1047.19 67.5124 Q1052.46 67.5124 1055.3 65.73 Q1058.13 63.9071 1058.13 60.6258 Q1058.13 57.5877 1056.07 55.9673 Q1054.04 54.3469 1047.11 52.8481 L1044.52 52.2405 Q1037.59 50.7821 1034.52 47.7845 Q1031.44 44.7463 1031.44 39.4801 Q1031.44 33.0797 1035.97 29.5959 Q1040.51 26.1121 1048.86 26.1121 Q1052.99 26.1121 1056.63 26.7198 Q1060.28 27.3274 1063.36 28.5427 Z" fill="#000000" fill-rule="nonzero" fill-opacity="1" /><path clip-path="url(#clip250)" d="M1085.03 14.324 L1085.03 27.2059 L1100.38 27.2059 L1100.38 32.9987 L1085.03 32.9987 L1085.03 57.6282 Q1085.03 63.1779 1086.53 64.7578 Q1088.07 66.3376 1092.73 66.3376 L1100.38 66.3376 L1100.38 72.576 L1092.73 72.576 Q1084.1 72.576 1080.82 69.3758 Q1077.54 66.1351 1077.54 57.6282 L1077.54 32.9987 L1072.07 32.9987 L1072.07 27.2059 L1077.54 27.2059 L1077.54 14.324 L1085.03 14.324 Z" fill="#000000" fill-rule="nonzero" fill-opacity="1" /><path clip-path="url(#clip250)" d="M1110.19 27.2059 L1117.64 27.2059 L1117.64 72.576 L1110.19 72.576 L1110.19 27.2059 M1110.19 9.54393 L1117.64 9.54393 L1117.64 18.9825 L1110.19 18.9825 L1110.19 9.54393 Z" fill="#000000" fill-rule="nonzero" fill-opacity="1" /><path clip-path="url(#clip250)" d="M1165.89 28.9478 L1165.89 35.9153 Q1162.73 34.1734 1159.53 33.3227 Q1156.37 32.4315 1153.13 32.4315 Q1145.87 32.4315 1141.86 37.0496 Q1137.85 41.6271 1137.85 49.9314 Q1137.85 58.2358 1141.86 62.8538 Q1145.87 67.4314 1153.13 67.4314 Q1156.37 67.4314 1159.53 66.5807 Q1162.73 65.6895 1165.89 63.9476 L1165.89 70.8341 Q1162.77 72.2924 1159.4 73.0216 Q1156.08 73.7508 1152.32 73.7508 Q1142.07 73.7508 1136.03 67.3098 Q1129.99 60.8689 1129.99 49.9314 Q1129.99 38.832 1136.07 32.472 Q1142.19 26.1121 1152.8 26.1121 Q1156.24 26.1121 1159.53 26.8413 Q1162.81 27.5299 1165.89 28.9478 Z" fill="#000000" fill-rule="nonzero" fill-opacity="1" /><path clip-path="url(#clip250)" d="M1178.85 27.2059 L1186.3 27.2059 L1186.3 72.576 L1178.85 72.576 L1178.85 27.2059 M1178.85 9.54393 L1186.3 9.54393 L1186.3 18.9825 L1178.85 18.9825 L1178.85 9.54393 Z" fill="#000000" fill-rule="nonzero" fill-opacity="1" /><path clip-path="url(#clip250)" d="M1209.27 14.324 L1209.27 27.2059 L1224.62 27.2059 L1224.62 32.9987 L1209.27 32.9987 L1209.27 57.6282 Q1209.27 63.1779 1210.77 64.7578 Q1212.31 66.3376 1216.97 66.3376 L1224.62 66.3376 L1224.62 72.576 L1216.97 72.576 Q1208.34 72.576 1205.06 69.3758 Q1201.78 66.1351 1201.78 57.6282 L1201.78 32.9987 L1196.31 32.9987 L1196.31 27.2059 L1201.78 27.2059 L1201.78 14.324 L1209.27 14.324 Z" fill="#000000" fill-rule="nonzero" fill-opacity="1" /><path clip-path="url(#clip250)" d="M1253.3 76.7889 Q1250.14 84.8907 1247.15 87.3618 Q1244.15 89.8329 1239.13 89.8329 L1233.17 89.8329 L1233.17 83.5945 L1237.55 83.5945 Q1240.63 83.5945 1242.33 82.1361 Q1244.03 80.6778 1246.09 75.2496 L1247.43 71.8468 L1229.08 27.2059 L1236.98 27.2059 L1251.16 62.6918 L1265.34 27.2059 L1273.23 27.2059 L1253.3 76.7889 Z" fill="#000000" fill-rule="nonzero" fill-opacity="1" /><path clip-path="url(#clip250)" d="M1342.46 49.9314 Q1342.46 41.7081 1339.06 37.0496 Q1335.7 32.3505 1329.79 32.3505 Q1323.87 32.3505 1320.47 37.0496 Q1317.11 41.7081 1317.11 49.9314 Q1317.11 58.1548 1320.47 62.8538 Q1323.87 67.5124 1329.79 67.5124 Q1335.7 67.5124 1339.06 62.8538 Q1342.46 58.1548 1342.46 49.9314 M1317.11 34.0924 Q1319.46 30.0415 1323.02 28.0971 Q1326.63 26.1121 1331.61 26.1121 Q1339.87 26.1121 1345.02 32.6746 Q1350.2 39.2371 1350.2 49.9314 Q1350.2 60.6258 1345.02 67.1883 Q1339.87 73.7508 1331.61 73.7508 Q1326.63 73.7508 1323.02 71.8063 Q1319.46 69.8214 1317.11 65.7705 L1317.11 72.576 L1309.61 72.576 L1309.61 9.54393 L1317.11 9.54393 L1317.11 34.0924 Z" fill="#000000" fill-rule="nonzero" fill-opacity="1" /><path clip-path="url(#clip250)" d="M1381.43 76.7889 Q1378.27 84.8907 1375.28 87.3618 Q1372.28 89.8329 1367.26 89.8329 L1361.3 89.8329 L1361.3 83.5945 L1365.68 83.5945 Q1368.76 83.5945 1370.46 82.1361 Q1372.16 80.6778 1374.22 75.2496 L1375.56 71.8468 L1357.21 27.2059 L1365.11 27.2059 L1379.29 62.6918 L1393.47 27.2059 L1401.37 27.2059 L1381.43 76.7889 Z" fill="#000000" fill-rule="nonzero" fill-opacity="1" /><path clip-path="url(#clip250)" d="M1466.95 28.5427 L1466.95 35.5912 Q1463.79 33.9709 1460.39 33.1607 Q1456.98 32.3505 1453.34 32.3505 Q1447.79 32.3505 1444.99 34.0519 Q1442.24 35.7533 1442.24 39.156 Q1442.24 41.7486 1444.22 43.2475 Q1446.21 44.7058 1452.2 46.0426 L1454.76 46.6097 Q1462.7 48.3111 1466.02 51.4303 Q1469.38 54.509 1469.38 60.0587 Q1469.38 66.3781 1464.36 70.0644 Q1459.37 73.7508 1450.62 73.7508 Q1446.98 73.7508 1443.01 73.0216 Q1439.08 72.3329 1434.7 70.9151 L1434.7 63.2184 Q1438.84 65.3654 1442.85 66.4591 Q1446.86 67.5124 1450.79 67.5124 Q1456.05 67.5124 1458.89 65.73 Q1461.72 63.9071 1461.72 60.6258 Q1461.72 57.5877 1459.66 55.9673 Q1457.63 54.3469 1450.71 52.8481 L1448.11 52.2405 Q1441.19 50.7821 1438.11 47.7845 Q1435.03 44.7463 1435.03 39.4801 Q1435.03 33.0797 1439.57 29.5959 Q1444.1 26.1121 1452.45 26.1121 Q1456.58 26.1121 1460.22 26.7198 Q1463.87 27.3274 1466.95 28.5427 Z" fill="#000000" fill-rule="nonzero" fill-opacity="1" /><path clip-path="url(#clip250)" d="M1498.83 32.4315 Q1492.83 32.4315 1489.35 37.1306 Q1485.87 41.7891 1485.87 49.9314 Q1485.87 58.0738 1489.31 62.7728 Q1492.79 67.4314 1498.83 67.4314 Q1504.78 67.4314 1508.27 62.7323 Q1511.75 58.0333 1511.75 49.9314 Q1511.75 41.8701 1508.27 37.1711 Q1504.78 32.4315 1498.83 32.4315 M1498.83 26.1121 Q1508.55 26.1121 1514.1 32.4315 Q1519.65 38.7509 1519.65 49.9314 Q1519.65 61.0714 1514.1 67.4314 Q1508.55 73.7508 1498.83 73.7508 Q1489.07 73.7508 1483.52 67.4314 Q1478.01 61.0714 1478.01 49.9314 Q1478.01 38.7509 1483.52 32.4315 Q1489.07 26.1121 1498.83 26.1121 Z" fill="#000000" fill-rule="nonzero" fill-opacity="1" /><path clip-path="url(#clip250)" d="M1531.24 54.671 L1531.24 27.2059 L1538.69 27.2059 L1538.69 54.3874 Q1538.69 60.8284 1541.2 64.0691 Q1543.71 67.2693 1548.74 67.2693 Q1554.77 67.2693 1558.26 63.421 Q1561.78 59.5726 1561.78 52.9291 L1561.78 27.2059 L1569.23 27.2059 L1569.23 72.576 L1561.78 72.576 L1561.78 65.6084 Q1559.07 69.7404 1555.46 71.7658 Q1551.9 73.7508 1547.16 73.7508 Q1539.34 73.7508 1535.29 68.8897 Q1531.24 64.0286 1531.24 54.671 M1549.99 26.1121 L1549.99 26.1121 Z" fill="#000000" fill-rule="nonzero" fill-opacity="1" /><path clip-path="url(#clip250)" d="M1610.88 34.1734 Q1609.62 33.4443 1608.12 33.1202 Q1606.66 32.7556 1604.88 32.7556 Q1598.56 32.7556 1595.16 36.8875 Q1591.8 40.9789 1591.8 48.6757 L1591.8 72.576 L1584.3 72.576 L1584.3 27.2059 L1591.8 27.2059 L1591.8 34.2544 Q1594.15 30.1225 1597.91 28.1376 Q1601.68 26.1121 1607.07 26.1121 Q1607.84 26.1121 1608.77 26.2337 Q1609.7 26.3147 1610.84 26.5172 L1610.88 34.1734 Z" fill="#000000" fill-rule="nonzero" fill-opacity="1" /><path clip-path="url(#clip250)" d="M1649.52 28.9478 L1649.52 35.9153 Q1646.36 34.1734 1643.16 33.3227 Q1640 32.4315 1636.76 32.4315 Q1629.51 32.4315 1625.5 37.0496 Q1621.49 41.6271 1621.49 49.9314 Q1621.49 58.2358 1625.5 62.8538 Q1629.51 67.4314 1636.76 67.4314 Q1640 67.4314 1643.16 66.5807 Q1646.36 65.6895 1649.52 63.9476 L1649.52 70.8341 Q1646.4 72.2924 1643.04 73.0216 Q1639.72 73.7508 1635.95 73.7508 Q1625.7 73.7508 1619.67 67.3098 Q1613.63 60.8689 1613.63 49.9314 Q1613.63 38.832 1619.71 32.472 Q1625.83 26.1121 1636.44 26.1121 Q1639.88 26.1121 1643.16 26.8413 Q1646.44 27.5299 1649.52 28.9478 Z" fill="#000000" fill-rule="nonzero" fill-opacity="1" /><path clip-path="url(#clip250)" d="M1701.29 48.0275 L1701.29 51.6733 L1667.02 51.6733 Q1667.51 59.3701 1671.64 63.421 Q1675.81 67.4314 1683.23 67.4314 Q1687.52 67.4314 1691.53 66.3781 Q1695.58 65.3249 1699.55 63.2184 L1699.55 70.267 Q1695.54 71.9684 1691.33 72.8596 Q1687.12 73.7508 1682.78 73.7508 Q1671.92 73.7508 1665.57 67.4314 Q1659.25 61.1119 1659.25 50.3365 Q1659.25 39.1965 1665.24 32.6746 Q1671.28 26.1121 1681.49 26.1121 Q1690.64 26.1121 1695.95 32.0264 Q1701.29 37.9003 1701.29 48.0275 M1693.84 45.84 Q1693.76 39.7232 1690.4 36.0774 Q1687.08 32.4315 1681.57 32.4315 Q1675.33 32.4315 1671.56 35.9558 Q1667.83 39.4801 1667.27 45.8805 L1693.84 45.84 Z" fill="#000000" fill-rule="nonzero" fill-opacity="1" /><path clip-path="url(#clip250)" d="M1768.82 28.5427 L1768.82 35.5912 Q1765.66 33.9709 1762.26 33.1607 Q1758.86 32.3505 1755.21 32.3505 Q1749.66 32.3505 1746.87 34.0519 Q1744.11 35.7533 1744.11 39.156 Q1744.11 41.7486 1746.1 43.2475 Q1748.08 44.7058 1754.08 46.0426 L1756.63 46.6097 Q1764.57 48.3111 1767.89 51.4303 Q1771.25 54.509 1771.25 60.0587 Q1771.25 66.3781 1766.23 70.0644 Q1761.25 73.7508 1752.5 73.7508 Q1748.85 73.7508 1744.88 73.0216 Q1740.95 72.3329 1736.58 70.9151 L1736.58 63.2184 Q1740.71 65.3654 1744.72 66.4591 Q1748.73 67.5124 1752.66 67.5124 Q1757.93 67.5124 1760.76 65.73 Q1763.6 63.9071 1763.6 60.6258 Q1763.6 57.5877 1761.53 55.9673 Q1759.51 54.3469 1752.58 52.8481 L1749.99 52.2405 Q1743.06 50.7821 1739.98 47.7845 Q1736.9 44.7463 1736.9 39.4801 Q1736.9 33.0797 1741.44 29.5959 Q1745.98 26.1121 1754.32 26.1121 Q1758.45 26.1121 1762.1 26.7198 Q1765.74 27.3274 1768.82 28.5427 Z" fill="#000000" fill-rule="nonzero" fill-opacity="1" /><path clip-path="url(#clip250)" d="M1790.49 14.324 L1790.49 27.2059 L1805.85 27.2059 L1805.85 32.9987 L1790.49 32.9987 L1790.49 57.6282 Q1790.49 63.1779 1791.99 64.7578 Q1793.53 66.3376 1798.19 66.3376 L1805.85 66.3376 L1805.85 72.576 L1798.19 72.576 Q1789.56 72.576 1786.28 69.3758 Q1783 66.1351 1783 57.6282 L1783 32.9987 L1777.53 32.9987 L1777.53 27.2059 L1783 27.2059 L1783 14.324 L1790.49 14.324 Z" fill="#000000" fill-rule="nonzero" fill-opacity="1" /><path clip-path="url(#clip250)" d="M1836.27 49.7694 Q1827.24 49.7694 1823.75 51.8354 Q1820.27 53.9013 1820.27 58.8839 Q1820.27 62.8538 1822.86 65.2034 Q1825.49 67.5124 1829.99 67.5124 Q1836.19 67.5124 1839.92 63.1374 Q1843.68 58.7219 1843.68 51.4303 L1843.68 49.7694 L1836.27 49.7694 M1851.14 46.6907 L1851.14 72.576 L1843.68 72.576 L1843.68 65.6895 Q1841.13 69.8214 1837.32 71.8063 Q1833.52 73.7508 1828.01 73.7508 Q1821.04 73.7508 1816.91 69.8619 Q1812.82 65.9325 1812.82 59.3701 Q1812.82 51.7138 1817.92 47.825 Q1823.06 43.9361 1833.23 43.9361 L1843.68 43.9361 L1843.68 43.2069 Q1843.68 38.0623 1840.28 35.2672 Q1836.92 32.4315 1830.8 32.4315 Q1826.91 32.4315 1823.23 33.3632 Q1819.54 34.295 1816.14 36.1584 L1816.14 29.2718 Q1820.23 27.692 1824.08 26.9223 Q1827.93 26.1121 1831.57 26.1121 Q1841.41 26.1121 1846.28 31.2163 Q1851.14 36.3204 1851.14 46.6907 Z" fill="#000000" fill-rule="nonzero" fill-opacity="1" /><path clip-path="url(#clip250)" d="M1896.35 49.3643 Q1896.35 41.2625 1892.98 36.8065 Q1889.66 32.3505 1883.63 32.3505 Q1877.63 32.3505 1874.27 36.8065 Q1870.95 41.2625 1870.95 49.3643 Q1870.95 57.4256 1874.27 61.8816 Q1877.63 66.3376 1883.63 66.3376 Q1889.66 66.3376 1892.98 61.8816 Q1896.35 57.4256 1896.35 49.3643 M1903.8 66.9452 Q1903.8 78.5308 1898.65 84.1616 Q1893.51 89.8329 1882.9 89.8329 Q1878.97 89.8329 1875.48 89.2252 Q1872 88.6581 1868.72 87.4428 L1868.72 80.1917 Q1872 81.9741 1875.2 82.8248 Q1878.4 83.6755 1881.72 83.6755 Q1889.05 83.6755 1892.7 79.8271 Q1896.35 76.0193 1896.35 68.282 L1896.35 64.5957 Q1894.04 68.6061 1890.43 70.5911 Q1886.83 72.576 1881.8 72.576 Q1873.46 72.576 1868.35 66.2161 Q1863.25 59.8562 1863.25 49.3643 Q1863.25 38.832 1868.35 32.472 Q1873.46 26.1121 1881.8 26.1121 Q1886.83 26.1121 1890.43 28.0971 Q1894.04 30.082 1896.35 34.0924 L1896.35 27.2059 L1903.8 27.2059 L1903.8 66.9452 Z" fill="#000000" fill-rule="nonzero" fill-opacity="1" /><path clip-path="url(#clip250)" d="M1957.96 48.0275 L1957.96 51.6733 L1923.69 51.6733 Q1924.17 59.3701 1928.31 63.421 Q1932.48 67.4314 1939.89 67.4314 Q1944.19 67.4314 1948.2 66.3781 Q1952.25 65.3249 1956.22 63.2184 L1956.22 70.267 Q1952.21 71.9684 1947.99 72.8596 Q1943.78 73.7508 1939.45 73.7508 Q1928.59 73.7508 1922.23 67.4314 Q1915.91 61.1119 1915.91 50.3365 Q1915.91 39.1965 1921.91 32.6746 Q1927.94 26.1121 1938.15 26.1121 Q1947.31 26.1121 1952.61 32.0264 Q1957.96 37.9003 1957.96 48.0275 M1950.51 45.84 Q1950.42 39.7232 1947.06 36.0774 Q1943.74 32.4315 1938.23 32.4315 Q1931.99 32.4315 1928.23 35.9558 Q1924.5 39.4801 1923.93 45.8805 L1950.51 45.84 Z" fill="#000000" fill-rule="nonzero" fill-opacity="1" /><path clip-path="url(#clip251)" d="M358.489 1522.46 L358.489 1800.78 L716.728 1800.78 L716.728 1522.46 L358.489 1522.46 L358.489 1522.46  Z" fill="#008080" fill-rule="evenodd" fill-opacity="0.7"/>
<polyline clip-path="url(#clip251)" style="stroke:#000000; stroke-linecap:round; stroke-linejoin:round; stroke-width:4; stroke-opacity:0.7; fill:none" points="358.489,1522.46 358.489,1800.78 716.728,1800.78 716.728,1522.46 358.489,1522.46 "/>
<path clip-path="url(#clip251)" d="M806.288 644.236 L806.288 1800.78 L1164.53 1800.78 L1164.53 644.236 L806.288 644.236 L806.288 644.236  Z" fill="#008080" fill-rule="evenodd" fill-opacity="0.7"/>
<polyline clip-path="url(#clip251)" style="stroke:#000000; stroke-linecap:round; stroke-linejoin:round; stroke-width:4; stroke-opacity:0.7; fill:none" points="806.288,644.236 806.288,1800.78 1164.53,1800.78 1164.53,644.236 806.288,644.236 "/>
<path clip-path="url(#clip251)" d="M1254.09 928.176 L1254.09 1800.78 L1612.32 1800.78 L1612.32 928.176 L1254.09 928.176 L1254.09 928.176  Z" fill="#008080" fill-rule="evenodd" fill-opacity="0.7"/>
<polyline clip-path="url(#clip251)" style="stroke:#000000; stroke-linecap:round; stroke-linejoin:round; stroke-width:4; stroke-opacity:0.7; fill:none" points="1254.09,928.176 1254.09,1800.78 1612.32,1800.78 1612.32,928.176 1254.09,928.176 "/>
<path clip-path="url(#clip251)" d="M1701.88 835.572 L1701.88 1800.78 L2060.12 1800.78 L2060.12 835.572 L1701.88 835.572 L1701.88 835.572  Z" fill="#008080" fill-rule="evenodd" fill-opacity="0.7"/>
<polyline clip-path="url(#clip251)" style="stroke:#000000; stroke-linecap:round; stroke-linejoin:round; stroke-width:4; stroke-opacity:0.7; fill:none" points="1701.88,835.572 1701.88,1800.78 2060.12,1800.78 2060.12,835.572 1701.88,835.572 "/>
<path clip-path="url(#clip251)" d="M2149.68 127.792 L2149.68 1800.78 L2507.92 1800.78 L2507.92 127.792 L2149.68 127.792 L2149.68 127.792  Z" fill="#008080" fill-rule="evenodd" fill-opacity="0.7"/>
<polyline clip-path="url(#clip251)" style="stroke:#000000; stroke-linecap:round; stroke-linejoin:round; stroke-width:4; stroke-opacity:0.7; fill:none" points="2149.68,127.792 2149.68,1800.78 2507.92,1800.78 2507.92,127.792 2149.68,127.792 "/>
<circle clip-path="url(#clip251)" style="fill:#008080; stroke:none; fill-opacity:0" cx="537.609" cy="1522.46" r="2"/>
<circle clip-path="url(#clip251)" style="fill:#008080; stroke:none; fill-opacity:0" cx="985.407" cy="644.236" r="2"/>
<circle clip-path="url(#clip251)" style="fill:#008080; stroke:none; fill-opacity:0" cx="1433.21" cy="928.176" r="2"/>
<circle clip-path="url(#clip251)" style="fill:#008080; stroke:none; fill-opacity:0" cx="1881" cy="835.572" r="2"/>
<circle clip-path="url(#clip251)" style="fill:#008080; stroke:none; fill-opacity:0" cx="2328.8" cy="127.792" r="2"/>
</svg>
