<?xml version="1.0" encoding="utf-8"?>
<svg xmlns="http://www.w3.org/2000/svg" xmlns:xlink="http://www.w3.org/1999/xlink" width="672" height="480" viewBox="0 0 2688 1920">
<defs>
  <clipPath id="clip310">
    <rect x="0" y="0" width="2688" height="1920"/>
  </clipPath>
</defs>
<path clip-path="url(#clip310)" d="M0 1920 L2688 1920 L2688 -4.26326e-14 L0 -4.26326e-14  Z" fill="#ffffff" fill-rule="evenodd" fill-opacity="1"/>
<defs>
  <clipPath id="clip311">
    <rect x="255" y="127" width="2386" height="1674"/>
  </clipPath>
</defs>
<path clip-path="url(#clip310)" d="M255.816 1800.78 L2640.76 1800.78 L2640.76 127.792 L255.816 127.792  Z" fill="#ffffff" fill-rule="evenodd" fill-opacity="1"/>
<polyline clip-path="url(#clip311)" style="stroke:#000000; stroke-linecap:round; stroke-linejoin:round; stroke-width:2; stroke-opacity:0.1; fill:none" points="563.875,1800.78 563.875,127.792 "/>
<polyline clip-path="url(#clip311)" style="stroke:#000000; stroke-linecap:round; stroke-linejoin:round; stroke-width:2; stroke-opacity:0.1; fill:none" points="1006.08,1800.78 1006.08,127.792 "/>
<polyline clip-path="url(#clip311)" style="stroke:#000000; stroke-linecap:round; stroke-linejoin:round; stroke-width:2; stroke-opacity:0.1; fill:none" points="1448.29,1800.78 1448.29,127.792 "/>
<polyline clip-path="url(#clip311)" style="stroke:#000000; stroke-linecap:round; stroke-linejoin:round; stroke-width:2; stroke-opacity:0.1; fill:none" points="1890.49,1800.78 1890.49,127.792 "/>
<polyline clip-path="url(#clip311)" style="stroke:#000000; stroke-linecap:round; stroke-linejoin:round; stroke-width:2; stroke-opacity:0.1; fill:none" points="2332.7,1800.78 2332.7,127.792 "/>
<polyline clip-path="url(#clip311)" style="stroke:#000000; stroke-linecap:round; stroke-linejoin:round; stroke-width:2; stroke-opacity:0.1; fill:none" points="255.816,1800.78 2640.76,1800.78 "/>
<polyline clip-path="url(#clip311)" style="stroke:#000000; stroke-linecap:round; stroke-linejoin:round; stroke-width:2; stroke-opacity:0.1; fill:none" points="255.816,1520.77 2640.76,1520.77 "/>
<polyline clip-path="url(#clip311)" style="stroke:#000000; stroke-linecap:round; stroke-linejoin:round; stroke-width:2; stroke-opacity:0.1; fill:none" points="255.816,1240.75 2640.76,1240.75 "/>
<polyline clip-path="url(#clip311)" style="stroke:#000000; stroke-linecap:round; stroke-linejoin:round; stroke-width:2; stroke-opacity:0.1; fill:none" points="255.816,960.739 2640.76,960.739 "/>
<polyline clip-path="url(#clip311)" style="stroke:#000000; stroke-linecap:round; stroke-linejoin:round; stroke-width:2; stroke-opacity:0.1; fill:none" points="255.816,680.725 2640.76,680.725 "/>
<polyline clip-path="url(#clip311)" style="stroke:#000000; stroke-linecap:round; stroke-linejoin:round; stroke-width:2; stroke-opacity:0.1; fill:none" points="255.816,400.712 2640.76,400.712 "/>
<polyline clip-path="url(#clip310)" style="stroke:#000000; stroke-linecap:round; stroke-linejoin:round; stroke-width:4; stroke-opacity:1; fill:none" points="255.816,1800.78 2640.76,1800.78 "/>
<polyline clip-path="url(#clip310)" style="stroke:#000000; stroke-linecap:round; stroke-linejoin:round; stroke-width:4; stroke-opacity:1; fill:none" points="563.875,1800.78 563.875,1781.88 "/>
<polyline clip-path="url(#clip310)" style="stroke:#000000; stroke-linecap:round; stroke-linejoin:round; stroke-width:4; stroke-opacity:1; fill:none" points="1006.08,1800.78 1006.08,1781.88 "/>
<polyline clip-path="url(#clip310)" style="stroke:#000000; stroke-linecap:round; stroke-linejoin:round; stroke-width:4; stroke-opacity:1; fill:none" points="1448.29,1800.78 1448.29,1781.88 "/>
<polyline clip-path="url(#clip310)" style="stroke:#000000; stroke-linecap:round; stroke-linejoin:round; stroke-width:4; stroke-opacity:1; fill:none" points="1890.49,1800.78 1890.49,1781.88 "/>
<polyline clip-path="url(#clip310)" style="stroke:#000000; stroke-linecap:round; stroke-linejoin:round; stroke-width:4; stroke-opacity:1; fill:none" points="2332.7,1800.78 2332.7,1781.88 "/>
<path clip-path="url(#clip310)" d="M494.338 1832.06 L494.338 1836.62 Q491.676 1835.34 489.315 1834.72 Q486.954 1834.09 484.755 1834.09 Q480.935 1834.09 478.852 1835.58 Q476.792 1837.06 476.792 1839.79 Q476.792 1842.08 478.157 1843.26 Q479.546 1844.42 483.389 1845.14 L486.213 1845.71 Q491.444 1846.71 493.921 1849.23 Q496.421 1851.73 496.421 1855.95 Q496.421 1860.97 493.042 1863.56 Q489.685 1866.15 483.181 1866.15 Q480.727 1866.15 477.949 1865.6 Q475.194 1865.04 472.232 1863.96 L472.232 1859.14 Q475.079 1860.74 477.81 1861.55 Q480.542 1862.36 483.181 1862.36 Q487.185 1862.36 489.361 1860.78 Q491.537 1859.21 491.537 1856.29 Q491.537 1853.75 489.963 1852.31 Q488.412 1850.88 484.847 1850.16 L482 1849.6 Q476.769 1848.56 474.431 1846.34 Q472.093 1844.12 472.093 1840.16 Q472.093 1835.58 475.31 1832.94 Q478.551 1830.3 484.222 1830.3 Q486.653 1830.3 489.176 1830.74 Q491.699 1831.18 494.338 1832.06 Z" fill="#000000" fill-rule="nonzero" fill-opacity="1" /><path clip-path="url(#clip310)" d="M503.088 1855.25 L503.088 1839.56 L507.347 1839.56 L507.347 1855.09 Q507.347 1858.77 508.782 1860.62 Q510.217 1862.45 513.088 1862.45 Q516.537 1862.45 518.528 1860.25 Q520.541 1858.05 520.541 1854.26 L520.541 1839.56 L524.801 1839.56 L524.801 1865.48 L520.541 1865.48 L520.541 1861.5 Q518.991 1863.86 516.93 1865.02 Q514.893 1866.15 512.185 1866.15 Q507.717 1866.15 505.403 1863.38 Q503.088 1860.6 503.088 1855.25 M513.805 1838.93 L513.805 1838.93 Z" fill="#000000" fill-rule="nonzero" fill-opacity="1" /><path clip-path="url(#clip310)" d="M548.597 1843.54 Q547.879 1843.12 547.023 1842.94 Q546.189 1842.73 545.171 1842.73 Q541.56 1842.73 539.615 1845.09 Q537.694 1847.43 537.694 1851.83 L537.694 1865.48 L533.412 1865.48 L533.412 1839.56 L537.694 1839.56 L537.694 1843.59 Q539.037 1841.22 541.189 1840.09 Q543.342 1838.93 546.421 1838.93 Q546.861 1838.93 547.393 1839 Q547.926 1839.05 548.574 1839.16 L548.597 1843.54 Z" fill="#000000" fill-rule="nonzero" fill-opacity="1" /><path clip-path="url(#clip310)" d="M550.009 1839.56 L554.523 1839.56 L562.625 1861.32 L570.726 1839.56 L575.24 1839.56 L565.518 1865.48 L559.731 1865.48 L550.009 1839.56 Z" fill="#000000" fill-rule="nonzero" fill-opacity="1" /><path clip-path="url(#clip310)" d="M581.12 1839.56 L585.379 1839.56 L585.379 1865.48 L581.12 1865.48 L581.12 1839.56 M581.12 1829.46 L585.379 1829.46 L585.379 1834.86 L581.12 1834.86 L581.12 1829.46 Z" fill="#000000" fill-rule="nonzero" fill-opacity="1" /><path clip-path="url(#clip310)" d="M591.236 1839.56 L595.749 1839.56 L603.851 1861.32 L611.953 1839.56 L616.467 1839.56 L606.745 1865.48 L600.958 1865.48 L591.236 1839.56 Z" fill="#000000" fill-rule="nonzero" fill-opacity="1" /><path clip-path="url(#clip310)" d="M634.129 1852.45 Q628.967 1852.45 626.976 1853.63 Q624.985 1854.81 624.985 1857.66 Q624.985 1859.93 626.467 1861.27 Q627.971 1862.59 630.541 1862.59 Q634.083 1862.59 636.212 1860.09 Q638.365 1857.57 638.365 1853.4 L638.365 1852.45 L634.129 1852.45 M642.624 1850.69 L642.624 1865.48 L638.365 1865.48 L638.365 1861.55 Q636.907 1863.91 634.731 1865.04 Q632.555 1866.15 629.407 1866.15 Q625.425 1866.15 623.064 1863.93 Q620.726 1861.69 620.726 1857.94 Q620.726 1853.56 623.643 1851.34 Q626.583 1849.12 632.393 1849.12 L638.365 1849.12 L638.365 1848.7 Q638.365 1845.76 636.42 1844.16 Q634.499 1842.54 631.004 1842.54 Q628.782 1842.54 626.675 1843.08 Q624.569 1843.61 622.624 1844.67 L622.624 1840.74 Q624.962 1839.84 627.161 1839.4 Q629.36 1838.93 631.444 1838.93 Q637.069 1838.93 639.846 1841.85 Q642.624 1844.77 642.624 1850.69 Z" fill="#000000" fill-rule="nonzero" fill-opacity="1" /><path clip-path="url(#clip310)" d="M651.397 1829.46 L655.656 1829.46 L655.656 1865.48 L651.397 1865.48 L651.397 1829.46 Z" fill="#000000" fill-rule="nonzero" fill-opacity="1" /><path clip-path="url(#clip310)" d="M949.182 1860.55 L949.182 1851.27 L941.544 1851.27 L941.544 1847.43 L953.812 1847.43 L953.812 1862.27 Q951.104 1864.19 947.84 1865.18 Q944.576 1866.15 940.872 1866.15 Q932.771 1866.15 928.187 1861.43 Q923.627 1856.69 923.627 1848.24 Q923.627 1839.77 928.187 1835.04 Q932.771 1830.3 940.872 1830.3 Q944.252 1830.3 947.284 1831.13 Q950.34 1831.96 952.909 1833.59 L952.909 1838.56 Q950.317 1836.36 947.4 1835.25 Q944.483 1834.14 941.266 1834.14 Q934.923 1834.14 931.729 1837.68 Q928.558 1841.22 928.558 1848.24 Q928.558 1855.23 931.729 1858.77 Q934.923 1862.31 941.266 1862.31 Q943.743 1862.31 945.687 1861.9 Q947.632 1861.46 949.182 1860.55 Z" fill="#000000" fill-rule="nonzero" fill-opacity="1" /><path clip-path="url(#clip310)" d="M977.192 1843.54 Q976.474 1843.12 975.618 1842.94 Q974.784 1842.73 973.766 1842.73 Q970.155 1842.73 968.21 1845.09 Q966.289 1847.43 966.289 1851.83 L966.289 1865.48 L962.006 1865.48 L962.006 1839.56 L966.289 1839.56 L966.289 1843.59 Q967.631 1841.22 969.784 1840.09 Q971.937 1838.93 975.016 1838.93 Q975.455 1838.93 975.988 1839 Q976.52 1839.05 977.168 1839.16 L977.192 1843.54 Z" fill="#000000" fill-rule="nonzero" fill-opacity="1" /><path clip-path="url(#clip310)" d="M990.664 1842.54 Q987.238 1842.54 985.247 1845.23 Q983.256 1847.89 983.256 1852.54 Q983.256 1857.2 985.224 1859.88 Q987.215 1862.54 990.664 1862.54 Q994.067 1862.54 996.057 1859.86 Q998.048 1857.17 998.048 1852.54 Q998.048 1847.94 996.057 1845.25 Q994.067 1842.54 990.664 1842.54 M990.664 1838.93 Q996.219 1838.93 999.391 1842.54 Q1002.56 1846.15 1002.56 1852.54 Q1002.56 1858.91 999.391 1862.54 Q996.219 1866.15 990.664 1866.15 Q985.085 1866.15 981.914 1862.54 Q978.766 1858.91 978.766 1852.54 Q978.766 1846.15 981.914 1842.54 Q985.085 1838.93 990.664 1838.93 Z" fill="#000000" fill-rule="nonzero" fill-opacity="1" /><path clip-path="url(#clip310)" d="M1007.15 1839.56 L1011.4 1839.56 L1016.73 1859.79 L1022.03 1839.56 L1027.05 1839.56 L1032.38 1859.79 L1037.68 1839.56 L1041.94 1839.56 L1035.15 1865.48 L1030.13 1865.48 L1024.55 1844.23 L1018.95 1865.48 L1013.93 1865.48 L1007.15 1839.56 Z" fill="#000000" fill-rule="nonzero" fill-opacity="1" /><path clip-path="url(#clip310)" d="M1052.61 1832.2 L1052.61 1839.56 L1061.38 1839.56 L1061.38 1842.87 L1052.61 1842.87 L1052.61 1856.94 Q1052.61 1860.11 1053.46 1861.02 Q1054.34 1861.92 1057.01 1861.92 L1061.38 1861.92 L1061.38 1865.48 L1057.01 1865.48 Q1052.08 1865.48 1050.2 1863.65 Q1048.33 1861.8 1048.33 1856.94 L1048.33 1842.87 L1045.2 1842.87 L1045.2 1839.56 L1048.33 1839.56 L1048.33 1832.2 L1052.61 1832.2 Z" fill="#000000" fill-rule="nonzero" fill-opacity="1" /><path clip-path="url(#clip310)" d="M1088.53 1849.84 L1088.53 1865.48 L1084.27 1865.48 L1084.27 1849.97 Q1084.27 1846.29 1082.84 1844.46 Q1081.4 1842.64 1078.53 1842.64 Q1075.08 1842.64 1073.09 1844.84 Q1071.1 1847.03 1071.1 1850.83 L1071.1 1865.48 L1066.82 1865.48 L1066.82 1829.46 L1071.1 1829.46 L1071.1 1843.59 Q1072.63 1841.25 1074.69 1840.09 Q1076.77 1838.93 1079.48 1838.93 Q1083.95 1838.93 1086.24 1841.71 Q1088.53 1844.46 1088.53 1849.84 Z" fill="#000000" fill-rule="nonzero" fill-opacity="1" /><path clip-path="url(#clip310)" d="M1354.47 1832.06 L1354.47 1836.62 Q1351.81 1835.34 1349.44 1834.72 Q1347.08 1834.09 1344.88 1834.09 Q1341.06 1834.09 1338.98 1835.58 Q1336.92 1837.06 1336.92 1839.79 Q1336.92 1842.08 1338.29 1843.26 Q1339.68 1844.42 1343.52 1845.14 L1346.34 1845.71 Q1351.57 1846.71 1354.05 1849.23 Q1356.55 1851.73 1356.55 1855.95 Q1356.55 1860.97 1353.17 1863.56 Q1349.81 1866.15 1343.31 1866.15 Q1340.86 1866.15 1338.08 1865.6 Q1335.32 1865.04 1332.36 1863.96 L1332.36 1859.14 Q1335.21 1860.74 1337.94 1861.55 Q1340.67 1862.36 1343.31 1862.36 Q1347.31 1862.36 1349.49 1860.78 Q1351.67 1859.21 1351.67 1856.29 Q1351.67 1853.75 1350.09 1852.31 Q1348.54 1850.88 1344.98 1850.16 L1342.13 1849.6 Q1336.9 1848.56 1334.56 1846.34 Q1332.22 1844.12 1332.22 1840.16 Q1332.22 1835.58 1335.44 1832.94 Q1338.68 1830.3 1344.35 1830.3 Q1346.78 1830.3 1349.31 1830.74 Q1351.83 1831.18 1354.47 1832.06 Z" fill="#000000" fill-rule="nonzero" fill-opacity="1" /><path clip-path="url(#clip310)" d="M1385.21 1849.84 L1385.21 1865.48 L1380.95 1865.48 L1380.95 1849.97 Q1380.95 1846.29 1379.51 1844.46 Q1378.08 1842.64 1375.21 1842.64 Q1371.76 1842.64 1369.77 1844.84 Q1367.78 1847.03 1367.78 1850.83 L1367.78 1865.48 L1363.49 1865.48 L1363.49 1829.46 L1367.78 1829.46 L1367.78 1843.59 Q1369.31 1841.25 1371.37 1840.09 Q1373.45 1838.93 1376.16 1838.93 Q1380.62 1838.93 1382.92 1841.71 Q1385.21 1844.46 1385.21 1849.84 Z" fill="#000000" fill-rule="nonzero" fill-opacity="1" /><path clip-path="url(#clip310)" d="M1408.73 1843.54 Q1408.01 1843.12 1407.15 1842.94 Q1406.32 1842.73 1405.3 1842.73 Q1401.69 1842.73 1399.74 1845.09 Q1397.82 1847.43 1397.82 1851.83 L1397.82 1865.48 L1393.54 1865.48 L1393.54 1839.56 L1397.82 1839.56 L1397.82 1843.59 Q1399.17 1841.22 1401.32 1840.09 Q1403.47 1838.93 1406.55 1838.93 Q1406.99 1838.93 1407.52 1839 Q1408.05 1839.05 1408.7 1839.16 L1408.73 1843.54 Z" fill="#000000" fill-rule="nonzero" fill-opacity="1" /><path clip-path="url(#clip310)" d="M1413.19 1839.56 L1417.45 1839.56 L1417.45 1865.48 L1413.19 1865.48 L1413.19 1839.56 M1413.19 1829.46 L1417.45 1829.46 L1417.45 1834.86 L1413.19 1834.86 L1413.19 1829.46 Z" fill="#000000" fill-rule="nonzero" fill-opacity="1" /><path clip-path="url(#clip310)" d="M1447.92 1849.84 L1447.92 1865.48 L1443.66 1865.48 L1443.66 1849.97 Q1443.66 1846.29 1442.22 1844.46 Q1440.79 1842.64 1437.92 1842.64 Q1434.47 1842.64 1432.48 1844.84 Q1430.49 1847.03 1430.49 1850.83 L1430.49 1865.48 L1426.2 1865.48 L1426.2 1839.56 L1430.49 1839.56 L1430.49 1843.59 Q1432.01 1841.25 1434.07 1840.09 Q1436.16 1838.93 1438.86 1838.93 Q1443.33 1838.93 1445.62 1841.71 Q1447.92 1844.46 1447.92 1849.84 Z" fill="#000000" fill-rule="nonzero" fill-opacity="1" /><path clip-path="url(#clip310)" d="M1456.25 1829.46 L1460.53 1829.46 L1460.53 1850.74 L1473.24 1839.56 L1478.68 1839.56 L1464.93 1851.69 L1479.26 1865.48 L1473.7 1865.48 L1460.53 1852.82 L1460.53 1865.48 L1456.25 1865.48 L1456.25 1829.46 Z" fill="#000000" fill-rule="nonzero" fill-opacity="1" /><path clip-path="url(#clip310)" d="M1494.81 1852.45 Q1489.65 1852.45 1487.66 1853.63 Q1485.67 1854.81 1485.67 1857.66 Q1485.67 1859.93 1487.15 1861.27 Q1488.66 1862.59 1491.23 1862.59 Q1494.77 1862.59 1496.9 1860.09 Q1499.05 1857.57 1499.05 1853.4 L1499.05 1852.45 L1494.81 1852.45 M1503.31 1850.69 L1503.31 1865.48 L1499.05 1865.48 L1499.05 1861.55 Q1497.59 1863.91 1495.42 1865.04 Q1493.24 1866.15 1490.09 1866.15 Q1486.11 1866.15 1483.75 1863.93 Q1481.41 1861.69 1481.41 1857.94 Q1481.41 1853.56 1484.33 1851.34 Q1487.27 1849.12 1493.08 1849.12 L1499.05 1849.12 L1499.05 1848.7 Q1499.05 1845.76 1497.11 1844.16 Q1495.18 1842.54 1491.69 1842.54 Q1489.47 1842.54 1487.36 1843.08 Q1485.25 1843.61 1483.31 1844.67 L1483.31 1840.74 Q1485.65 1839.84 1487.85 1839.4 Q1490.05 1838.93 1492.13 1838.93 Q1497.75 1838.93 1500.53 1841.85 Q1503.31 1844.77 1503.31 1850.69 Z" fill="#000000" fill-rule="nonzero" fill-opacity="1" /><path clip-path="url(#clip310)" d="M1529.14 1852.22 Q1529.14 1847.59 1527.22 1845.04 Q1525.32 1842.5 1521.87 1842.5 Q1518.45 1842.5 1516.53 1845.04 Q1514.63 1847.59 1514.63 1852.22 Q1514.63 1856.83 1516.53 1859.37 Q1518.45 1861.92 1521.87 1861.92 Q1525.32 1861.92 1527.22 1859.37 Q1529.14 1856.83 1529.14 1852.22 M1533.4 1862.27 Q1533.4 1868.89 1530.46 1872.1 Q1527.52 1875.34 1521.46 1875.34 Q1519.21 1875.34 1517.22 1875 Q1515.23 1874.67 1513.36 1873.98 L1513.36 1869.84 Q1515.23 1870.85 1517.06 1871.34 Q1518.89 1871.83 1520.79 1871.83 Q1524.98 1871.83 1527.06 1869.63 Q1529.14 1867.45 1529.14 1863.03 L1529.14 1860.92 Q1527.82 1863.21 1525.76 1864.35 Q1523.7 1865.48 1520.83 1865.48 Q1516.06 1865.48 1513.15 1861.85 Q1510.23 1858.21 1510.23 1852.22 Q1510.23 1846.2 1513.15 1842.57 Q1516.06 1838.93 1520.83 1838.93 Q1523.7 1838.93 1525.76 1840.07 Q1527.82 1841.2 1529.14 1843.49 L1529.14 1839.56 L1533.4 1839.56 L1533.4 1862.27 Z" fill="#000000" fill-rule="nonzero" fill-opacity="1" /><path clip-path="url(#clip310)" d="M1564.35 1851.46 L1564.35 1853.54 L1544.77 1853.54 Q1545.04 1857.94 1547.41 1860.25 Q1549.79 1862.54 1554.03 1862.54 Q1556.48 1862.54 1558.77 1861.94 Q1561.09 1861.34 1563.35 1860.14 L1563.35 1864.16 Q1561.06 1865.14 1558.66 1865.65 Q1556.25 1866.15 1553.77 1866.15 Q1547.57 1866.15 1543.93 1862.54 Q1540.32 1858.93 1540.32 1852.78 Q1540.32 1846.41 1543.75 1842.68 Q1547.2 1838.93 1553.03 1838.93 Q1558.26 1838.93 1561.29 1842.31 Q1564.35 1845.67 1564.35 1851.46 M1560.09 1850.21 Q1560.04 1846.71 1558.12 1844.63 Q1556.23 1842.54 1553.08 1842.54 Q1549.51 1842.54 1547.36 1844.56 Q1545.23 1846.57 1544.91 1850.23 L1560.09 1850.21 Z" fill="#000000" fill-rule="nonzero" fill-opacity="1" /><path clip-path="url(#clip310)" d="M1845.31 1832.06 L1845.31 1836.62 Q1842.64 1835.34 1840.28 1834.72 Q1837.92 1834.09 1835.72 1834.09 Q1831.9 1834.09 1829.82 1835.58 Q1827.76 1837.06 1827.76 1839.79 Q1827.76 1842.08 1829.13 1843.26 Q1830.52 1844.42 1834.36 1845.14 L1837.18 1845.71 Q1842.41 1846.71 1844.89 1849.23 Q1847.39 1851.73 1847.39 1855.95 Q1847.39 1860.97 1844.01 1863.56 Q1840.65 1866.15 1834.15 1866.15 Q1831.7 1866.15 1828.92 1865.6 Q1826.16 1865.04 1823.2 1863.96 L1823.2 1859.14 Q1826.05 1860.74 1828.78 1861.55 Q1831.51 1862.36 1834.15 1862.36 Q1838.15 1862.36 1840.33 1860.78 Q1842.51 1859.21 1842.51 1856.29 Q1842.51 1853.75 1840.93 1852.31 Q1839.38 1850.88 1835.82 1850.16 L1832.97 1849.6 Q1827.74 1848.56 1825.4 1846.34 Q1823.06 1844.12 1823.06 1840.16 Q1823.06 1835.58 1826.28 1832.94 Q1829.52 1830.3 1835.19 1830.3 Q1837.62 1830.3 1840.14 1830.74 Q1842.67 1831.18 1845.31 1832.06 Z" fill="#000000" fill-rule="nonzero" fill-opacity="1" /><path clip-path="url(#clip310)" d="M1858.71 1832.2 L1858.71 1839.56 L1867.48 1839.56 L1867.48 1842.87 L1858.71 1842.87 L1858.71 1856.94 Q1858.71 1860.11 1859.57 1861.02 Q1860.45 1861.92 1863.11 1861.92 L1867.48 1861.92 L1867.48 1865.48 L1863.11 1865.48 Q1858.18 1865.48 1856.3 1863.65 Q1854.43 1861.8 1854.43 1856.94 L1854.43 1842.87 L1851.3 1842.87 L1851.3 1839.56 L1854.43 1839.56 L1854.43 1832.2 L1858.71 1832.2 Z" fill="#000000" fill-rule="nonzero" fill-opacity="1" /><path clip-path="url(#clip310)" d="M1884.87 1852.45 Q1879.7 1852.45 1877.71 1853.63 Q1875.72 1854.81 1875.72 1857.66 Q1875.72 1859.93 1877.2 1861.27 Q1878.71 1862.59 1881.28 1862.59 Q1884.82 1862.59 1886.95 1860.09 Q1889.1 1857.57 1889.1 1853.4 L1889.1 1852.45 L1884.87 1852.45 M1893.36 1850.69 L1893.36 1865.48 L1889.1 1865.48 L1889.1 1861.55 Q1887.64 1863.91 1885.47 1865.04 Q1883.29 1866.15 1880.14 1866.15 Q1876.16 1866.15 1873.8 1863.93 Q1871.46 1861.69 1871.46 1857.94 Q1871.46 1853.56 1874.38 1851.34 Q1877.32 1849.12 1883.13 1849.12 L1889.1 1849.12 L1889.1 1848.7 Q1889.1 1845.76 1887.16 1844.16 Q1885.24 1842.54 1881.74 1842.54 Q1879.52 1842.54 1877.41 1843.08 Q1875.31 1843.61 1873.36 1844.67 L1873.36 1840.74 Q1875.7 1839.84 1877.9 1839.4 Q1880.1 1838.93 1882.18 1838.93 Q1887.81 1838.93 1890.58 1841.85 Q1893.36 1844.77 1893.36 1850.69 Z" fill="#000000" fill-rule="nonzero" fill-opacity="1" /><path clip-path="url(#clip310)" d="M1918.66 1840.32 L1918.66 1844.35 Q1916.86 1843.42 1914.91 1842.96 Q1912.97 1842.5 1910.89 1842.5 Q1907.71 1842.5 1906.12 1843.47 Q1904.54 1844.44 1904.54 1846.39 Q1904.54 1847.87 1905.68 1848.72 Q1906.81 1849.56 1910.24 1850.32 L1911.7 1850.65 Q1916.23 1851.62 1918.13 1853.4 Q1920.05 1855.16 1920.05 1858.33 Q1920.05 1861.94 1917.18 1864.05 Q1914.33 1866.15 1909.33 1866.15 Q1907.25 1866.15 1904.98 1865.74 Q1902.74 1865.34 1900.24 1864.53 L1900.24 1860.14 Q1902.6 1861.36 1904.89 1861.99 Q1907.18 1862.59 1909.43 1862.59 Q1912.44 1862.59 1914.06 1861.57 Q1915.68 1860.53 1915.68 1858.65 Q1915.68 1856.92 1914.5 1855.99 Q1913.34 1855.07 1909.38 1854.21 L1907.9 1853.86 Q1903.94 1853.03 1902.18 1851.32 Q1900.42 1849.58 1900.42 1846.57 Q1900.42 1842.91 1903.01 1840.92 Q1905.61 1838.93 1910.38 1838.93 Q1912.74 1838.93 1914.82 1839.28 Q1916.9 1839.63 1918.66 1840.32 Z" fill="#000000" fill-rule="nonzero" fill-opacity="1" /><path clip-path="url(#clip310)" d="M1926.83 1839.56 L1931.09 1839.56 L1931.09 1865.48 L1926.83 1865.48 L1926.83 1839.56 M1926.83 1829.46 L1931.09 1829.46 L1931.09 1834.86 L1926.83 1834.86 L1926.83 1829.46 Z" fill="#000000" fill-rule="nonzero" fill-opacity="1" /><path clip-path="url(#clip310)" d="M1956.53 1840.32 L1956.53 1844.35 Q1954.73 1843.42 1952.78 1842.96 Q1950.84 1842.5 1948.76 1842.5 Q1945.58 1842.5 1943.99 1843.47 Q1942.41 1844.44 1942.41 1846.39 Q1942.41 1847.87 1943.55 1848.72 Q1944.68 1849.56 1948.11 1850.32 L1949.57 1850.65 Q1954.1 1851.62 1956 1853.4 Q1957.92 1855.16 1957.92 1858.33 Q1957.92 1861.94 1955.05 1864.05 Q1952.2 1866.15 1947.2 1866.15 Q1945.12 1866.15 1942.85 1865.74 Q1940.61 1865.34 1938.11 1864.53 L1938.11 1860.14 Q1940.47 1861.36 1942.76 1861.99 Q1945.05 1862.59 1947.3 1862.59 Q1950.31 1862.59 1951.93 1861.57 Q1953.55 1860.53 1953.55 1858.65 Q1953.55 1856.92 1952.37 1855.99 Q1951.21 1855.07 1947.25 1854.21 L1945.77 1853.86 Q1941.81 1853.03 1940.05 1851.32 Q1938.29 1849.58 1938.29 1846.57 Q1938.29 1842.91 1940.89 1840.92 Q1943.48 1838.93 1948.25 1838.93 Q1950.61 1838.93 1952.69 1839.28 Q1954.77 1839.63 1956.53 1840.32 Z" fill="#000000" fill-rule="nonzero" fill-opacity="1" /><path clip-path="url(#clip310)" d="M2220.78 1830.92 L2240.64 1830.92 L2240.64 1834.86 L2225.45 1834.86 L2225.45 1845.04 L2239.16 1845.04 L2239.16 1848.98 L2225.45 1848.98 L2225.45 1865.48 L2220.78 1865.48 L2220.78 1830.92 Z" fill="#000000" fill-rule="nonzero" fill-opacity="1" /><path clip-path="url(#clip310)" d="M2267.44 1851.46 L2267.44 1853.54 L2247.86 1853.54 Q2248.14 1857.94 2250.5 1860.25 Q2252.88 1862.54 2257.12 1862.54 Q2259.57 1862.54 2261.86 1861.94 Q2264.18 1861.34 2266.45 1860.14 L2266.45 1864.16 Q2264.16 1865.14 2261.75 1865.65 Q2259.34 1866.15 2256.86 1866.15 Q2250.66 1866.15 2247.03 1862.54 Q2243.42 1858.93 2243.42 1852.78 Q2243.42 1846.41 2246.84 1842.68 Q2250.29 1838.93 2256.12 1838.93 Q2261.36 1838.93 2264.39 1842.31 Q2267.44 1845.67 2267.44 1851.46 M2263.18 1850.21 Q2263.14 1846.71 2261.22 1844.63 Q2259.32 1842.54 2256.17 1842.54 Q2252.61 1842.54 2250.45 1844.56 Q2248.32 1846.57 2248 1850.23 L2263.18 1850.21 Z" fill="#000000" fill-rule="nonzero" fill-opacity="1" /><path clip-path="url(#clip310)" d="M2293.09 1840.55 L2293.09 1844.53 Q2291.29 1843.54 2289.46 1843.05 Q2287.65 1842.54 2285.8 1842.54 Q2281.66 1842.54 2279.36 1845.18 Q2277.07 1847.8 2277.07 1852.54 Q2277.07 1857.29 2279.36 1859.93 Q2281.66 1862.54 2285.8 1862.54 Q2287.65 1862.54 2289.46 1862.06 Q2291.29 1861.55 2293.09 1860.55 L2293.09 1864.49 Q2291.31 1865.32 2289.39 1865.74 Q2287.49 1866.15 2285.34 1866.15 Q2279.48 1866.15 2276.03 1862.47 Q2272.58 1858.79 2272.58 1852.54 Q2272.58 1846.2 2276.05 1842.57 Q2279.55 1838.93 2285.61 1838.93 Q2287.58 1838.93 2289.46 1839.35 Q2291.33 1839.74 2293.09 1840.55 Z" fill="#000000" fill-rule="nonzero" fill-opacity="1" /><path clip-path="url(#clip310)" d="M2300.06 1855.25 L2300.06 1839.56 L2304.32 1839.56 L2304.32 1855.09 Q2304.32 1858.77 2305.75 1860.62 Q2307.19 1862.45 2310.06 1862.45 Q2313.51 1862.45 2315.5 1860.25 Q2317.51 1858.05 2317.51 1854.26 L2317.51 1839.56 L2321.77 1839.56 L2321.77 1865.48 L2317.51 1865.48 L2317.51 1861.5 Q2315.96 1863.86 2313.9 1865.02 Q2311.86 1866.15 2309.16 1866.15 Q2304.69 1866.15 2302.37 1863.38 Q2300.06 1860.6 2300.06 1855.25 M2310.78 1838.93 L2310.78 1838.93 Z" fill="#000000" fill-rule="nonzero" fill-opacity="1" /><path clip-path="url(#clip310)" d="M2352.1 1849.84 L2352.1 1865.48 L2347.84 1865.48 L2347.84 1849.97 Q2347.84 1846.29 2346.4 1844.46 Q2344.97 1842.64 2342.1 1842.64 Q2338.65 1842.64 2336.66 1844.84 Q2334.67 1847.03 2334.67 1850.83 L2334.67 1865.48 L2330.38 1865.48 L2330.38 1839.56 L2334.67 1839.56 L2334.67 1843.59 Q2336.19 1841.25 2338.25 1840.09 Q2340.34 1838.93 2343.04 1838.93 Q2347.51 1838.93 2349.8 1841.71 Q2352.1 1844.46 2352.1 1849.84 Z" fill="#000000" fill-rule="nonzero" fill-opacity="1" /><path clip-path="url(#clip310)" d="M2377.65 1843.49 L2377.65 1829.46 L2381.91 1829.46 L2381.91 1865.48 L2377.65 1865.48 L2377.65 1861.59 Q2376.31 1863.91 2374.25 1865.04 Q2372.21 1866.15 2369.34 1866.15 Q2364.64 1866.15 2361.68 1862.4 Q2358.74 1858.65 2358.74 1852.54 Q2358.74 1846.43 2361.68 1842.68 Q2364.64 1838.93 2369.34 1838.93 Q2372.21 1838.93 2374.25 1840.07 Q2376.31 1841.18 2377.65 1843.49 M2363.14 1852.54 Q2363.14 1857.24 2365.06 1859.93 Q2367 1862.59 2370.38 1862.59 Q2373.76 1862.59 2375.71 1859.93 Q2377.65 1857.24 2377.65 1852.54 Q2377.65 1847.84 2375.71 1845.18 Q2373.76 1842.5 2370.38 1842.5 Q2367 1842.5 2365.06 1845.18 Q2363.14 1847.84 2363.14 1852.54 Z" fill="#000000" fill-rule="nonzero" fill-opacity="1" /><path clip-path="url(#clip310)" d="M2390.68 1839.56 L2394.94 1839.56 L2394.94 1865.48 L2390.68 1865.48 L2390.68 1839.56 M2390.68 1829.46 L2394.94 1829.46 L2394.94 1834.86 L2390.68 1834.86 L2390.68 1829.46 Z" fill="#000000" fill-rule="nonzero" fill-opacity="1" /><path clip-path="url(#clip310)" d="M2408.07 1832.2 L2408.07 1839.56 L2416.84 1839.56 L2416.84 1842.87 L2408.07 1842.87 L2408.07 1856.94 Q2408.07 1860.11 2408.92 1861.02 Q2409.8 1861.92 2412.47 1861.92 L2416.84 1861.92 L2416.84 1865.48 L2412.47 1865.48 Q2407.54 1865.48 2405.66 1863.65 Q2403.79 1861.8 2403.79 1856.94 L2403.79 1842.87 L2400.66 1842.87 L2400.66 1839.56 L2403.79 1839.56 L2403.79 1832.2 L2408.07 1832.2 Z" fill="#000000" fill-rule="nonzero" fill-opacity="1" /><path clip-path="url(#clip310)" d="M2433.23 1867.89 Q2431.42 1872.52 2429.71 1873.93 Q2428 1875.34 2425.13 1875.34 L2421.72 1875.34 L2421.72 1871.78 L2424.22 1871.78 Q2425.98 1871.78 2426.96 1870.95 Q2427.93 1870.11 2429.11 1867.01 L2429.87 1865.07 L2419.39 1839.56 L2423.9 1839.56 L2432 1859.84 L2440.1 1839.56 L2444.62 1839.56 L2433.23 1867.89 Z" fill="#000000" fill-rule="nonzero" fill-opacity="1" /><polyline clip-path="url(#clip310)" style="stroke:#000000; stroke-linecap:round; stroke-linejoin:round; stroke-width:4; stroke-opacity:1; fill:none" points="255.816,1800.78 255.816,127.792 "/>
<polyline clip-path="url(#clip310)" style="stroke:#000000; stroke-linecap:round; stroke-linejoin:round; stroke-width:4; stroke-opacity:1; fill:none" points="255.816,1800.78 274.714,1800.78 "/>
<polyline clip-path="url(#clip310)" style="stroke:#000000; stroke-linecap:round; stroke-linejoin:round; stroke-width:4; stroke-opacity:1; fill:none" points="255.816,1520.77 274.714,1520.77 "/>
<polyline clip-path="url(#clip310)" style="stroke:#000000; stroke-linecap:round; stroke-linejoin:round; stroke-width:4; stroke-opacity:1; fill:none" points="255.816,1240.75 274.714,1240.75 "/>
<polyline clip-path="url(#clip310)" style="stroke:#000000; stroke-linecap:round; stroke-linejoin:round; stroke-width:4; stroke-opacity:1; fill:none" points="255.816,960.739 274.714,960.739 "/>
<polyline clip-path="url(#clip310)" style="stroke:#000000; stroke-linecap:round; stroke-linejoin:round; stroke-width:4; stroke-opacity:1; fill:none" points="255.816,680.725 274.714,680.725 "/>
<polyline clip-path="url(#clip310)" style="stroke:#000000; stroke-linecap:round; stroke-linejoin:round; stroke-width:4; stroke-opacity:1; fill:none" points="255.816,400.712 274.714,400.712 "/>
<path clip-path="url(#clip310)" d="M128.159 1786.58 Q124.548 1786.58 122.719 1790.14 Q120.913 1793.68 120.913 1800.81 Q120.913 1807.92 122.719 1811.49 Q124.548 1815.03 128.159 1815.03 Q131.793 1815.03 133.599 1811.49 Q135.427 1807.92 135.427 1800.81 Q135.427 1793.68 133.599 1790.14 Q131.793 1786.58 128.159 1786.58 M128.159 1782.87 Q133.969 1782.87 137.025 1787.48 Q140.103 1792.06 140.103 1800.81 Q140.103 1809.54 137.025 1814.15 Q133.969 1818.73 128.159 1818.73 Q122.349 1818.73 119.27 1814.15 Q116.214 1809.54 116.214 1800.81 Q116.214 1792.06 119.27 1787.48 Q122.349 1782.87 128.159 1782.87 Z" fill="#000000" fill-rule="nonzero" fill-opacity="1" /><path clip-path="url(#clip310)" d="M148.321 1812.18 L153.205 1812.18 L153.205 1818.06 L148.321 1818.06 L148.321 1812.18 Z" fill="#000000" fill-rule="nonzero" fill-opacity="1" /><path clip-path="url(#clip310)" d="M173.39 1786.58 Q169.779 1786.58 167.95 1790.14 Q166.145 1793.68 166.145 1800.81 Q166.145 1807.92 167.95 1811.49 Q169.779 1815.03 173.39 1815.03 Q177.024 1815.03 178.83 1811.49 Q180.659 1807.92 180.659 1800.81 Q180.659 1793.68 178.83 1790.14 Q177.024 1786.58 173.39 1786.58 M173.39 1782.87 Q179.2 1782.87 182.256 1787.48 Q185.334 1792.06 185.334 1800.81 Q185.334 1809.54 182.256 1814.15 Q179.2 1818.73 173.39 1818.73 Q167.58 1818.73 164.501 1814.15 Q161.446 1809.54 161.446 1800.81 Q161.446 1792.06 164.501 1787.48 Q167.58 1782.87 173.39 1782.87 Z" fill="#000000" fill-rule="nonzero" fill-opacity="1" /><path clip-path="url(#clip310)" d="M203.552 1786.58 Q199.941 1786.58 198.112 1790.14 Q196.307 1793.68 196.307 1800.81 Q196.307 1807.92 198.112 1811.49 Q199.941 1815.03 203.552 1815.03 Q207.186 1815.03 208.992 1811.49 Q210.82 1807.92 210.82 1800.81 Q210.82 1793.68 208.992 1790.14 Q207.186 1786.58 203.552 1786.58 M203.552 1782.87 Q209.362 1782.87 212.418 1787.48 Q215.496 1792.06 215.496 1800.81 Q215.496 1809.54 212.418 1814.15 Q209.362 1818.73 203.552 1818.73 Q197.742 1818.73 194.663 1814.15 Q191.608 1809.54 191.608 1800.81 Q191.608 1792.06 194.663 1787.48 Q197.742 1782.87 203.552 1782.87 Z" fill="#000000" fill-rule="nonzero" fill-opacity="1" /><path clip-path="url(#clip310)" d="M129.154 1506.56 Q125.543 1506.56 123.714 1510.13 Q121.909 1513.67 121.909 1520.8 Q121.909 1527.91 123.714 1531.47 Q125.543 1535.01 129.154 1535.01 Q132.788 1535.01 134.594 1531.47 Q136.423 1527.91 136.423 1520.8 Q136.423 1513.67 134.594 1510.13 Q132.788 1506.56 129.154 1506.56 M129.154 1502.86 Q134.964 1502.86 138.02 1507.47 Q141.099 1512.05 141.099 1520.8 Q141.099 1529.53 138.02 1534.13 Q134.964 1538.72 129.154 1538.72 Q123.344 1538.72 120.265 1534.13 Q117.21 1529.53 117.21 1520.8 Q117.21 1512.05 120.265 1507.47 Q123.344 1502.86 129.154 1502.86 Z" fill="#000000" fill-rule="nonzero" fill-opacity="1" /><path clip-path="url(#clip310)" d="M149.316 1532.17 L154.2 1532.17 L154.2 1538.05 L149.316 1538.05 L149.316 1532.17 Z" fill="#000000" fill-rule="nonzero" fill-opacity="1" /><path clip-path="url(#clip310)" d="M168.413 1534.11 L184.733 1534.11 L184.733 1538.05 L162.788 1538.05 L162.788 1534.11 Q165.45 1531.36 170.034 1526.73 Q174.64 1522.07 175.821 1520.73 Q178.066 1518.21 178.946 1516.47 Q179.848 1514.71 179.848 1513.02 Q179.848 1510.27 177.904 1508.53 Q175.983 1506.8 172.881 1506.8 Q170.682 1506.8 168.228 1507.56 Q165.798 1508.32 163.02 1509.87 L163.02 1505.15 Q165.844 1504.02 168.297 1503.44 Q170.751 1502.86 172.788 1502.86 Q178.159 1502.86 181.353 1505.55 Q184.547 1508.23 184.547 1512.72 Q184.547 1514.85 183.737 1516.77 Q182.95 1518.67 180.844 1521.26 Q180.265 1521.93 177.163 1525.15 Q174.061 1528.35 168.413 1534.11 Z" fill="#000000" fill-rule="nonzero" fill-opacity="1" /><path clip-path="url(#clip310)" d="M194.594 1503.49 L212.95 1503.49 L212.95 1507.42 L198.876 1507.42 L198.876 1515.89 Q199.895 1515.55 200.913 1515.38 Q201.932 1515.2 202.95 1515.2 Q208.737 1515.2 212.117 1518.37 Q215.496 1521.54 215.496 1526.96 Q215.496 1532.54 212.024 1535.64 Q208.552 1538.72 202.233 1538.72 Q200.057 1538.72 197.788 1538.35 Q195.543 1537.98 193.135 1537.24 L193.135 1532.54 Q195.219 1533.67 197.441 1534.23 Q199.663 1534.78 202.14 1534.78 Q206.145 1534.78 208.482 1532.68 Q210.82 1530.57 210.82 1526.96 Q210.82 1523.35 208.482 1521.24 Q206.145 1519.13 202.14 1519.13 Q200.265 1519.13 198.39 1519.55 Q196.538 1519.97 194.594 1520.85 L194.594 1503.49 Z" fill="#000000" fill-rule="nonzero" fill-opacity="1" /><path clip-path="url(#clip310)" d="M128.159 1226.55 Q124.548 1226.55 122.719 1230.12 Q120.913 1233.66 120.913 1240.79 Q120.913 1247.89 122.719 1251.46 Q124.548 1255 128.159 1255 Q131.793 1255 133.599 1251.46 Q135.427 1247.89 135.427 1240.79 Q135.427 1233.66 133.599 1230.12 Q131.793 1226.55 128.159 1226.55 M128.159 1222.85 Q133.969 1222.85 137.025 1227.45 Q140.103 1232.04 140.103 1240.79 Q140.103 1249.51 137.025 1254.12 Q133.969 1258.7 128.159 1258.7 Q122.349 1258.7 119.27 1254.12 Q116.214 1249.51 116.214 1240.79 Q116.214 1232.04 119.27 1227.45 Q122.349 1222.85 128.159 1222.85 Z" fill="#000000" fill-rule="nonzero" fill-opacity="1" /><path clip-path="url(#clip310)" d="M148.321 1252.15 L153.205 1252.15 L153.205 1258.03 L148.321 1258.03 L148.321 1252.15 Z" fill="#000000" fill-rule="nonzero" fill-opacity="1" /><path clip-path="url(#clip310)" d="M163.436 1223.47 L181.793 1223.47 L181.793 1227.41 L167.719 1227.41 L167.719 1235.88 Q168.737 1235.53 169.756 1235.37 Q170.774 1235.19 171.793 1235.19 Q177.58 1235.19 180.959 1238.36 Q184.339 1241.53 184.339 1246.94 Q184.339 1252.52 180.867 1255.62 Q177.395 1258.7 171.075 1258.7 Q168.899 1258.7 166.631 1258.33 Q164.385 1257.96 161.978 1257.22 L161.978 1252.52 Q164.061 1253.66 166.284 1254.21 Q168.506 1254.77 170.983 1254.77 Q174.987 1254.77 177.325 1252.66 Q179.663 1250.56 179.663 1246.94 Q179.663 1243.33 177.325 1241.23 Q174.987 1239.12 170.983 1239.12 Q169.108 1239.12 167.233 1239.54 Q165.381 1239.95 163.436 1240.83 L163.436 1223.47 Z" fill="#000000" fill-rule="nonzero" fill-opacity="1" /><path clip-path="url(#clip310)" d="M203.552 1226.55 Q199.941 1226.55 198.112 1230.12 Q196.307 1233.66 196.307 1240.79 Q196.307 1247.89 198.112 1251.46 Q199.941 1255 203.552 1255 Q207.186 1255 208.992 1251.46 Q210.82 1247.89 210.82 1240.79 Q210.82 1233.66 208.992 1230.12 Q207.186 1226.55 203.552 1226.55 M203.552 1222.85 Q209.362 1222.85 212.418 1227.45 Q215.496 1232.04 215.496 1240.79 Q215.496 1249.51 212.418 1254.12 Q209.362 1258.7 203.552 1258.7 Q197.742 1258.7 194.663 1254.12 Q191.608 1249.51 191.608 1240.79 Q191.608 1232.04 194.663 1227.45 Q197.742 1222.85 203.552 1222.85 Z" fill="#000000" fill-rule="nonzero" fill-opacity="1" /><path clip-path="url(#clip310)" d="M129.154 946.538 Q125.543 946.538 123.714 950.102 Q121.909 953.644 121.909 960.774 Q121.909 967.88 123.714 971.445 Q125.543 974.986 129.154 974.986 Q132.788 974.986 134.594 971.445 Q136.423 967.88 136.423 960.774 Q136.423 953.644 134.594 950.102 Q132.788 946.538 129.154 946.538 M129.154 942.834 Q134.964 942.834 138.02 947.44 Q141.099 952.024 141.099 960.774 Q141.099 969.5 138.02 974.107 Q134.964 978.69 129.154 978.69 Q123.344 978.69 120.265 974.107 Q117.21 969.5 117.21 960.774 Q117.21 952.024 120.265 947.44 Q123.344 942.834 129.154 942.834 Z" fill="#000000" fill-rule="nonzero" fill-opacity="1" /><path clip-path="url(#clip310)" d="M149.316 972.139 L154.2 972.139 L154.2 978.019 L149.316 978.019 L149.316 972.139 Z" fill="#000000" fill-rule="nonzero" fill-opacity="1" /><path clip-path="url(#clip310)" d="M163.205 943.459 L185.427 943.459 L185.427 945.45 L172.881 978.019 L167.997 978.019 L179.802 947.394 L163.205 947.394 L163.205 943.459 Z" fill="#000000" fill-rule="nonzero" fill-opacity="1" /><path clip-path="url(#clip310)" d="M194.594 943.459 L212.95 943.459 L212.95 947.394 L198.876 947.394 L198.876 955.866 Q199.895 955.519 200.913 955.357 Q201.932 955.172 202.95 955.172 Q208.737 955.172 212.117 958.343 Q215.496 961.514 215.496 966.931 Q215.496 972.51 212.024 975.611 Q208.552 978.69 202.233 978.69 Q200.057 978.69 197.788 978.32 Q195.543 977.949 193.135 977.209 L193.135 972.51 Q195.219 973.644 197.441 974.199 Q199.663 974.755 202.14 974.755 Q206.145 974.755 208.482 972.649 Q210.82 970.542 210.82 966.931 Q210.82 963.32 208.482 961.213 Q206.145 959.107 202.14 959.107 Q200.265 959.107 198.39 959.524 Q196.538 959.94 194.594 960.82 L194.594 943.459 Z" fill="#000000" fill-rule="nonzero" fill-opacity="1" /><path clip-path="url(#clip310)" d="M118.969 694.07 L126.608 694.07 L126.608 667.705 L118.298 669.371 L118.298 665.112 L126.562 663.445 L131.238 663.445 L131.238 694.07 L138.876 694.07 L138.876 698.005 L118.969 698.005 L118.969 694.07 Z" fill="#000000" fill-rule="nonzero" fill-opacity="1" /><path clip-path="url(#clip310)" d="M148.321 692.126 L153.205 692.126 L153.205 698.005 L148.321 698.005 L148.321 692.126 Z" fill="#000000" fill-rule="nonzero" fill-opacity="1" /><path clip-path="url(#clip310)" d="M173.39 666.524 Q169.779 666.524 167.95 670.089 Q166.145 673.631 166.145 680.76 Q166.145 687.867 167.95 691.431 Q169.779 694.973 173.39 694.973 Q177.024 694.973 178.83 691.431 Q180.659 687.867 180.659 680.76 Q180.659 673.631 178.83 670.089 Q177.024 666.524 173.39 666.524 M173.39 662.82 Q179.2 662.82 182.256 667.427 Q185.334 672.01 185.334 680.76 Q185.334 689.487 182.256 694.093 Q179.2 698.677 173.39 698.677 Q167.58 698.677 164.501 694.093 Q161.446 689.487 161.446 680.76 Q161.446 672.01 164.501 667.427 Q167.58 662.82 173.39 662.82 Z" fill="#000000" fill-rule="nonzero" fill-opacity="1" /><path clip-path="url(#clip310)" d="M203.552 666.524 Q199.941 666.524 198.112 670.089 Q196.307 673.631 196.307 680.76 Q196.307 687.867 198.112 691.431 Q199.941 694.973 203.552 694.973 Q207.186 694.973 208.992 691.431 Q210.82 687.867 210.82 680.76 Q210.82 673.631 208.992 670.089 Q207.186 666.524 203.552 666.524 M203.552 662.82 Q209.362 662.82 212.418 667.427 Q215.496 672.01 215.496 680.76 Q215.496 689.487 212.418 694.093 Q209.362 698.677 203.552 698.677 Q197.742 698.677 194.663 694.093 Q191.608 689.487 191.608 680.76 Q191.608 672.01 194.663 667.427 Q197.742 662.82 203.552 662.82 Z" fill="#000000" fill-rule="nonzero" fill-opacity="1" /><path clip-path="url(#clip310)" d="M119.964 414.057 L127.603 414.057 L127.603 387.691 L119.293 389.358 L119.293 385.099 L127.557 383.432 L132.233 383.432 L132.233 414.057 L139.872 414.057 L139.872 417.992 L119.964 417.992 L119.964 414.057 Z" fill="#000000" fill-rule="nonzero" fill-opacity="1" /><path clip-path="url(#clip310)" d="M149.316 412.112 L154.2 412.112 L154.2 417.992 L149.316 417.992 L149.316 412.112 Z" fill="#000000" fill-rule="nonzero" fill-opacity="1" /><path clip-path="url(#clip310)" d="M168.413 414.057 L184.733 414.057 L184.733 417.992 L162.788 417.992 L162.788 414.057 Q165.45 411.302 170.034 406.673 Q174.64 402.02 175.821 400.677 Q178.066 398.154 178.946 396.418 Q179.848 394.659 179.848 392.969 Q179.848 390.214 177.904 388.478 Q175.983 386.742 172.881 386.742 Q170.682 386.742 168.228 387.506 Q165.798 388.27 163.02 389.821 L163.02 385.099 Q165.844 383.964 168.297 383.386 Q170.751 382.807 172.788 382.807 Q178.159 382.807 181.353 385.492 Q184.547 388.177 184.547 392.668 Q184.547 394.798 183.737 396.719 Q182.95 398.617 180.844 401.21 Q180.265 401.881 177.163 405.098 Q174.061 408.293 168.413 414.057 Z" fill="#000000" fill-rule="nonzero" fill-opacity="1" /><path clip-path="url(#clip310)" d="M194.594 383.432 L212.95 383.432 L212.95 387.367 L198.876 387.367 L198.876 395.839 Q199.895 395.492 200.913 395.33 Q201.932 395.145 202.95 395.145 Q208.737 395.145 212.117 398.316 Q215.496 401.487 215.496 406.904 Q215.496 412.483 212.024 415.585 Q208.552 418.663 202.233 418.663 Q200.057 418.663 197.788 418.293 Q195.543 417.922 193.135 417.182 L193.135 412.483 Q195.219 413.617 197.441 414.172 Q199.663 414.728 202.14 414.728 Q206.145 414.728 208.482 412.622 Q210.82 410.515 210.82 406.904 Q210.82 403.293 208.482 401.186 Q206.145 399.08 202.14 399.08 Q200.265 399.08 198.39 399.497 Q196.538 399.913 194.594 400.793 L194.594 383.432 Z" fill="#000000" fill-rule="nonzero" fill-opacity="1" /><path clip-path="url(#clip310)" d="M14.1184 1225.25 L14.1184 1215.67 L46.4562 1203.54 L14.1184 1191.35 L14.1184 1181.77 L61.6384 1181.77 L61.6384 1188.04 L19.9112 1188.04 L52.5037 1200.29 L52.5037 1206.76 L19.9112 1219.01 L61.6384 1219.01 L61.6384 1225.25 L14.1184 1225.25 Z" fill="#000000" fill-rule="nonzero" fill-opacity="1" /><path clip-path="url(#clip310)" d="M42.3504 1138.77 L45.2149 1138.77 L45.2149 1165.7 Q51.2623 1165.31 54.4452 1162.07 Q57.5962 1158.79 57.5962 1152.97 Q57.5962 1149.59 56.7687 1146.44 Q55.9411 1143.26 54.2861 1140.14 L59.8242 1140.14 Q61.161 1143.29 61.8612 1146.6 Q62.5615 1149.91 62.5615 1153.32 Q62.5615 1161.85 57.5962 1166.84 Q52.631 1171.81 44.1646 1171.81 Q35.4117 1171.81 30.2873 1167.1 Q25.1311 1162.35 25.1311 1154.33 Q25.1311 1147.14 29.7781 1142.97 Q34.3932 1138.77 42.3504 1138.77 M40.6316 1144.63 Q35.8255 1144.69 32.9609 1147.33 Q30.0964 1149.94 30.0964 1154.27 Q30.0964 1159.17 32.8654 1162.13 Q35.6345 1165.06 40.6634 1165.51 L40.6316 1144.63 Z" fill="#000000" fill-rule="nonzero" fill-opacity="1" /><path clip-path="url(#clip310)" d="M43.719 1112.96 Q43.719 1120.05 45.3422 1122.79 Q46.9655 1125.53 50.8804 1125.53 Q53.9996 1125.53 55.8457 1123.49 Q57.6599 1121.42 57.6599 1117.89 Q57.6599 1113.02 54.2224 1110.09 Q50.7531 1107.13 45.0239 1107.13 L43.719 1107.13 L43.719 1112.96 M41.3 1101.28 L61.6384 1101.28 L61.6384 1107.13 L56.2276 1107.13 Q59.4741 1109.14 61.0337 1112.13 Q62.5615 1115.12 62.5615 1119.45 Q62.5615 1124.92 59.5059 1128.17 Q56.4186 1131.39 51.2623 1131.39 Q45.2467 1131.39 42.1912 1127.38 Q39.1357 1123.33 39.1357 1115.34 L39.1357 1107.13 L38.5628 1107.13 Q34.5205 1107.13 32.3244 1109.81 Q30.0964 1112.45 30.0964 1117.25 Q30.0964 1120.31 30.8284 1123.21 Q31.5605 1126.1 33.0246 1128.78 L27.6137 1128.78 Q26.3724 1125.56 25.7677 1122.54 Q25.1311 1119.51 25.1311 1116.65 Q25.1311 1108.91 29.1415 1105.1 Q33.1519 1101.28 41.3 1101.28 Z" fill="#000000" fill-rule="nonzero" fill-opacity="1" /><path clip-path="url(#clip310)" d="M40.1224 1059.58 L61.6384 1059.58 L61.6384 1065.44 L40.3133 1065.44 Q35.2526 1065.44 32.7381 1067.41 Q30.2237 1069.38 30.2237 1073.33 Q30.2237 1078.07 33.2474 1080.81 Q36.2711 1083.55 41.491 1083.55 L61.6384 1083.55 L61.6384 1089.44 L25.9905 1089.44 L25.9905 1083.55 L31.5287 1083.55 Q28.314 1081.45 26.7225 1078.61 Q25.1311 1075.75 25.1311 1072.03 Q25.1311 1065.88 28.9505 1062.73 Q32.7381 1059.58 40.1224 1059.58 Z" fill="#000000" fill-rule="nonzero" fill-opacity="1" /><path clip-path="url(#clip310)" d="M27.0408 1004.45 L32.579 1004.45 Q31.3059 1006.94 30.6693 1009.61 Q30.0327 1012.28 30.0327 1015.15 Q30.0327 1019.51 31.3695 1021.7 Q32.7063 1023.87 35.3799 1023.87 Q37.4169 1023.87 38.5946 1022.31 Q39.7404 1020.75 40.7908 1016.04 L41.2364 1014.03 Q42.5732 1007.8 45.0239 1005.19 Q47.4429 1002.54 51.8034 1002.54 Q56.7687 1002.54 59.6651 1006.49 Q62.5615 1010.41 62.5615 1017.28 Q62.5615 1020.14 61.9886 1023.26 Q61.4475 1026.35 60.3335 1029.79 L54.2861 1029.79 Q55.973 1026.54 56.8323 1023.39 Q57.6599 1020.24 57.6599 1017.15 Q57.6599 1013.02 56.2594 1010.79 Q54.8271 1008.56 52.249 1008.56 Q49.8619 1008.56 48.5887 1010.18 Q47.3156 1011.77 46.1379 1017.22 L45.6605 1019.25 Q44.5147 1024.7 42.1594 1027.12 Q39.7722 1029.53 35.6345 1029.53 Q30.6056 1029.53 27.8684 1025.97 Q25.1311 1022.4 25.1311 1015.85 Q25.1311 1012.6 25.6085 1009.74 Q26.086 1006.87 27.0408 1004.45 Z" fill="#000000" fill-rule="nonzero" fill-opacity="1" /><path clip-path="url(#clip310)" d="M42.3504 962.726 L45.2149 962.726 L45.2149 989.653 Q51.2623 989.271 54.4452 986.025 Q57.5962 982.746 57.5962 976.922 Q57.5962 973.548 56.7687 970.397 Q55.9411 967.214 54.2861 964.095 L59.8242 964.095 Q61.161 967.246 61.8612 970.556 Q62.5615 973.866 62.5615 977.272 Q62.5615 985.802 57.5962 990.799 Q52.631 995.764 44.1646 995.764 Q35.4117 995.764 30.2873 991.054 Q25.1311 986.311 25.1311 978.29 Q25.1311 971.097 29.7781 966.927 Q34.3932 962.726 42.3504 962.726 M40.6316 968.583 Q35.8255 968.646 32.9609 971.288 Q30.0964 973.898 30.0964 978.227 Q30.0964 983.128 32.8654 986.088 Q35.6345 989.016 40.6634 989.462 L40.6316 968.583 Z" fill="#000000" fill-rule="nonzero" fill-opacity="1" /><path clip-path="url(#clip310)" d="M40.1224 923.482 L61.6384 923.482 L61.6384 929.338 L40.3133 929.338 Q35.2526 929.338 32.7381 931.311 Q30.2237 933.285 30.2237 937.231 Q30.2237 941.974 33.2474 944.711 Q36.2711 947.448 41.491 947.448 L61.6384 947.448 L61.6384 953.337 L25.9905 953.337 L25.9905 947.448 L31.5287 947.448 Q28.314 945.348 26.7225 942.515 Q25.1311 939.65 25.1311 935.926 Q25.1311 929.784 28.9505 926.633 Q32.7381 923.482 40.1224 923.482 Z" fill="#000000" fill-rule="nonzero" fill-opacity="1" /><path clip-path="url(#clip310)" d="M27.0408 889.075 L32.579 889.075 Q31.3059 891.558 30.6693 894.231 Q30.0327 896.905 30.0327 899.769 Q30.0327 904.13 31.3695 906.326 Q32.7063 908.49 35.3799 908.49 Q37.4169 908.49 38.5946 906.931 Q39.7404 905.371 40.7908 900.66 L41.2364 898.655 Q42.5732 892.417 45.0239 889.807 Q47.4429 887.165 51.8034 887.165 Q56.7687 887.165 59.6651 891.112 Q62.5615 895.027 62.5615 901.902 Q62.5615 904.766 61.9886 907.886 Q61.4475 910.973 60.3335 914.41 L54.2861 914.41 Q55.973 911.164 56.8323 908.013 Q57.6599 904.862 57.6599 901.774 Q57.6599 897.637 56.2594 895.409 Q54.8271 893.181 52.249 893.181 Q49.8619 893.181 48.5887 894.804 Q47.3156 896.395 46.1379 901.838 L45.6605 903.875 Q44.5147 909.318 42.1594 911.737 Q39.7722 914.156 35.6345 914.156 Q30.6056 914.156 27.8684 910.591 Q25.1311 907.026 25.1311 900.47 Q25.1311 897.223 25.6085 894.358 Q26.086 891.494 27.0408 889.075 Z" fill="#000000" fill-rule="nonzero" fill-opacity="1" /><path clip-path="url(#clip310)" d="M25.9905 877.839 L25.9905 871.983 L61.6384 871.983 L61.6384 877.839 L25.9905 877.839 M12.1132 877.839 L12.1132 871.983 L19.5293 871.983 L19.5293 877.839 L12.1132 877.839 Z" fill="#000000" fill-rule="nonzero" fill-opacity="1" /><path clip-path="url(#clip310)" d="M15.869 853.936 L25.9905 853.936 L25.9905 841.873 L30.542 841.873 L30.542 853.936 L49.8937 853.936 Q54.2542 853.936 55.4955 852.759 Q56.7368 851.549 56.7368 847.889 L56.7368 841.873 L61.6384 841.873 L61.6384 847.889 Q61.6384 854.668 59.124 857.246 Q56.5777 859.824 49.8937 859.824 L30.542 859.824 L30.542 864.121 L25.9905 864.121 L25.9905 859.824 L15.869 859.824 L15.869 853.936 Z" fill="#000000" fill-rule="nonzero" fill-opacity="1" /><path clip-path="url(#clip310)" d="M25.9905 834.171 L25.9905 828.314 L61.6384 828.314 L61.6384 834.171 L25.9905 834.171 M12.1132 834.171 L12.1132 828.314 L19.5293 828.314 L19.5293 834.171 L12.1132 834.171 Z" fill="#000000" fill-rule="nonzero" fill-opacity="1" /><path clip-path="url(#clip310)" d="M25.9905 820.262 L25.9905 814.055 L55.9093 802.915 L25.9905 791.775 L25.9905 785.569 L61.6384 798.936 L61.6384 806.894 L25.9905 820.262 Z" fill="#000000" fill-rule="nonzero" fill-opacity="1" /><path clip-path="url(#clip310)" d="M25.9905 777.484 L25.9905 771.628 L61.6384 771.628 L61.6384 777.484 L25.9905 777.484 M12.1132 777.484 L12.1132 771.628 L19.5293 771.628 L19.5293 777.484 L12.1132 777.484 Z" fill="#000000" fill-rule="nonzero" fill-opacity="1" /><path clip-path="url(#clip310)" d="M15.869 753.581 L25.9905 753.581 L25.9905 741.518 L30.542 741.518 L30.542 753.581 L49.8937 753.581 Q54.2542 753.581 55.4955 752.403 Q56.7368 751.194 56.7368 747.533 L56.7368 741.518 L61.6384 741.518 L61.6384 747.533 Q61.6384 754.313 59.124 756.891 Q56.5777 759.469 49.8937 759.469 L30.542 759.469 L30.542 763.766 L25.9905 763.766 L25.9905 759.469 L15.869 759.469 L15.869 753.581 Z" fill="#000000" fill-rule="nonzero" fill-opacity="1" /><path clip-path="url(#clip310)" d="M64.9486 718.983 Q71.3143 721.466 73.2559 723.821 Q75.1974 726.176 75.1974 730.123 L75.1974 734.802 L70.2958 734.802 L70.2958 731.365 Q70.2958 728.946 69.15 727.609 Q68.0041 726.272 63.7391 724.649 L61.0655 723.598 L25.9905 738.017 L25.9905 731.81 L53.8723 720.67 L25.9905 709.53 L25.9905 703.324 L64.9486 718.983 Z" fill="#000000" fill-rule="nonzero" fill-opacity="1" /><path clip-path="url(#clip310)" d="M967.97 72.576 L944.88 12.096 L953.428 12.096 L972.588 63.0159 L991.79 12.096 L1000.3 12.096 L977.247 72.576 L967.97 72.576 Z" fill="#000000" fill-rule="nonzero" fill-opacity="1" /><path clip-path="url(#clip310)" d="M1006.98 27.2059 L1014.43 27.2059 L1014.43 72.576 L1006.98 72.576 L1006.98 27.2059 M1006.98 9.54393 L1014.43 9.54393 L1014.43 18.9825 L1006.98 18.9825 L1006.98 9.54393 Z" fill="#000000" fill-rule="nonzero" fill-opacity="1" /><path clip-path="url(#clip310)" d="M1037.4 14.324 L1037.4 27.2059 L1052.76 27.2059 L1052.76 32.9987 L1037.4 32.9987 L1037.4 57.6282 Q1037.4 63.1779 1038.9 64.7578 Q1040.44 66.3376 1045.1 66.3376 L1052.76 66.3376 L1052.76 72.576 L1045.1 72.576 Q1036.47 72.576 1033.19 69.3758 Q1029.91 66.1351 1029.91 57.6282 L1029.91 32.9987 L1024.44 32.9987 L1024.44 27.2059 L1029.91 27.2059 L1029.91 14.324 L1037.4 14.324 Z" fill="#000000" fill-rule="nonzero" fill-opacity="1" /><path clip-path="url(#clip310)" d="M1083.18 49.7694 Q1074.14 49.7694 1070.66 51.8354 Q1067.18 53.9013 1067.18 58.8839 Q1067.18 62.8538 1069.77 65.2034 Q1072.4 67.5124 1076.9 67.5124 Q1083.1 67.5124 1086.82 63.1374 Q1090.59 58.7219 1090.59 51.4303 L1090.59 49.7694 L1083.18 49.7694 M1098.04 46.6907 L1098.04 72.576 L1090.59 72.576 L1090.59 65.6895 Q1088.04 69.8214 1084.23 71.8063 Q1080.42 73.7508 1074.91 73.7508 Q1067.95 73.7508 1063.81 69.8619 Q1059.72 65.9325 1059.72 59.3701 Q1059.72 51.7138 1064.83 47.825 Q1069.97 43.9361 1080.14 43.9361 L1090.59 43.9361 L1090.59 43.2069 Q1090.59 38.0623 1087.19 35.2672 Q1083.83 32.4315 1077.71 32.4315 Q1073.82 32.4315 1070.13 33.3632 Q1066.45 34.295 1063.05 36.1584 L1063.05 29.2718 Q1067.14 27.692 1070.98 26.9223 Q1074.83 26.1121 1078.48 26.1121 Q1088.32 26.1121 1093.18 31.2163 Q1098.04 36.3204 1098.04 46.6907 Z" fill="#000000" fill-rule="nonzero" fill-opacity="1" /><path clip-path="url(#clip310)" d="M1113.4 9.54393 L1120.85 9.54393 L1120.85 72.576 L1113.4 72.576 L1113.4 9.54393 Z" fill="#000000" fill-rule="nonzero" fill-opacity="1" /><path clip-path="url(#clip310)" d="M1189.11 34.1734 Q1187.85 33.4443 1186.35 33.1202 Q1184.9 32.7556 1183.11 32.7556 Q1176.79 32.7556 1173.39 36.8875 Q1170.03 40.9789 1170.03 48.6757 L1170.03 72.576 L1162.54 72.576 L1162.54 27.2059 L1170.03 27.2059 L1170.03 34.2544 Q1172.38 30.1225 1176.15 28.1376 Q1179.91 26.1121 1185.3 26.1121 Q1186.07 26.1121 1187 26.2337 Q1187.93 26.3147 1189.07 26.5172 L1189.11 34.1734 Z" fill="#000000" fill-rule="nonzero" fill-opacity="1" /><path clip-path="url(#clip310)" d="M1217.55 49.7694 Q1208.51 49.7694 1205.03 51.8354 Q1201.55 53.9013 1201.55 58.8839 Q1201.55 62.8538 1204.14 65.2034 Q1206.77 67.5124 1211.27 67.5124 Q1217.47 67.5124 1221.19 63.1374 Q1224.96 58.7219 1224.96 51.4303 L1224.96 49.7694 L1217.55 49.7694 M1232.41 46.6907 L1232.41 72.576 L1224.96 72.576 L1224.96 65.6895 Q1222.41 69.8214 1218.6 71.8063 Q1214.79 73.7508 1209.28 73.7508 Q1202.32 73.7508 1198.18 69.8619 Q1194.09 65.9325 1194.09 59.3701 Q1194.09 51.7138 1199.2 47.825 Q1204.34 43.9361 1214.51 43.9361 L1224.96 43.9361 L1224.96 43.2069 Q1224.96 38.0623 1221.56 35.2672 Q1218.19 32.4315 1212.08 32.4315 Q1208.19 32.4315 1204.5 33.3632 Q1200.82 34.295 1197.41 36.1584 L1197.41 29.2718 Q1201.51 27.692 1205.35 26.9223 Q1209.2 26.1121 1212.85 26.1121 Q1222.69 26.1121 1227.55 31.2163 Q1232.41 36.3204 1232.41 46.6907 Z" fill="#000000" fill-rule="nonzero" fill-opacity="1" /><path clip-path="url(#clip310)" d="M1255.14 14.324 L1255.14 27.2059 L1270.49 27.2059 L1270.49 32.9987 L1255.14 32.9987 L1255.14 57.6282 Q1255.14 63.1779 1256.64 64.7578 Q1258.18 66.3376 1262.84 66.3376 L1270.49 66.3376 L1270.49 72.576 L1262.84 72.576 Q1254.21 72.576 1250.93 69.3758 Q1247.64 66.1351 1247.64 57.6282 L1247.64 32.9987 L1242.18 32.9987 L1242.18 27.2059 L1247.64 27.2059 L1247.64 14.324 L1255.14 14.324 Z" fill="#000000" fill-rule="nonzero" fill-opacity="1" /><path clip-path="url(#clip310)" d="M1319.1 48.0275 L1319.1 51.6733 L1284.83 51.6733 Q1285.32 59.3701 1289.45 63.421 Q1293.62 67.4314 1301.04 67.4314 Q1305.33 67.4314 1309.34 66.3781 Q1313.39 65.3249 1317.36 63.2184 L1317.36 70.267 Q1313.35 71.9684 1309.14 72.8596 Q1304.92 73.7508 1300.59 73.7508 Q1289.73 73.7508 1283.37 67.4314 Q1277.05 61.1119 1277.05 50.3365 Q1277.05 39.1965 1283.05 32.6746 Q1289.09 26.1121 1299.29 26.1121 Q1308.45 26.1121 1313.76 32.0264 Q1319.1 37.9003 1319.1 48.0275 M1311.65 45.84 Q1311.57 39.7232 1308.21 36.0774 Q1304.88 32.4315 1299.37 32.4315 Q1293.14 32.4315 1289.37 35.9558 Q1285.64 39.4801 1285.08 45.8805 L1311.65 45.84 Z" fill="#000000" fill-rule="nonzero" fill-opacity="1" /><path clip-path="url(#clip310)" d="M1386.63 28.5427 L1386.63 35.5912 Q1383.47 33.9709 1380.07 33.1607 Q1376.67 32.3505 1373.02 32.3505 Q1367.47 32.3505 1364.68 34.0519 Q1361.92 35.7533 1361.92 39.156 Q1361.92 41.7486 1363.91 43.2475 Q1365.89 44.7058 1371.89 46.0426 L1374.44 46.6097 Q1382.38 48.3111 1385.7 51.4303 Q1389.06 54.509 1389.06 60.0587 Q1389.06 66.3781 1384.04 70.0644 Q1379.06 73.7508 1370.31 73.7508 Q1366.66 73.7508 1362.69 73.0216 Q1358.76 72.3329 1354.39 70.9151 L1354.39 63.2184 Q1358.52 65.3654 1362.53 66.4591 Q1366.54 67.5124 1370.47 67.5124 Q1375.73 67.5124 1378.57 65.73 Q1381.41 63.9071 1381.41 60.6258 Q1381.41 57.5877 1379.34 55.9673 Q1377.31 54.3469 1370.39 52.8481 L1367.79 52.2405 Q1360.87 50.7821 1357.79 47.7845 Q1354.71 44.7463 1354.71 39.4801 Q1354.71 33.0797 1359.25 29.5959 Q1363.78 26.1121 1372.13 26.1121 Q1376.26 26.1121 1379.91 26.7198 Q1383.55 27.3274 1386.63 28.5427 Z" fill="#000000" fill-rule="nonzero" fill-opacity="1" /><path clip-path="url(#clip310)" d="M1439.74 48.0275 L1439.74 51.6733 L1405.47 51.6733 Q1405.95 59.3701 1410.09 63.421 Q1414.26 67.4314 1421.67 67.4314 Q1425.97 67.4314 1429.98 66.3781 Q1434.03 65.3249 1438 63.2184 L1438 70.267 Q1433.99 71.9684 1429.77 72.8596 Q1425.56 73.7508 1421.23 73.7508 Q1410.37 73.7508 1404.01 67.4314 Q1397.69 61.1119 1397.69 50.3365 Q1397.69 39.1965 1403.69 32.6746 Q1409.72 26.1121 1419.93 26.1121 Q1429.08 26.1121 1434.39 32.0264 Q1439.74 37.9003 1439.74 48.0275 M1432.29 45.84 Q1432.2 39.7232 1428.84 36.0774 Q1425.52 32.4315 1420.01 32.4315 Q1413.77 32.4315 1410.01 35.9558 Q1406.28 39.4801 1405.71 45.8805 L1432.29 45.84 Z" fill="#000000" fill-rule="nonzero" fill-opacity="1" /><path clip-path="url(#clip310)" d="M1489.69 45.1919 L1489.69 72.576 L1482.23 72.576 L1482.23 45.4349 Q1482.23 38.994 1479.72 35.7938 Q1477.21 32.5936 1472.19 32.5936 Q1466.15 32.5936 1462.67 36.4419 Q1459.18 40.2903 1459.18 46.9338 L1459.18 72.576 L1451.69 72.576 L1451.69 27.2059 L1459.18 27.2059 L1459.18 34.2544 Q1461.86 30.163 1465.46 28.1376 Q1469.11 26.1121 1473.85 26.1121 Q1481.67 26.1121 1485.68 30.9732 Q1489.69 35.7938 1489.69 45.1919 Z" fill="#000000" fill-rule="nonzero" fill-opacity="1" /><path clip-path="url(#clip310)" d="M1533.48 28.5427 L1533.48 35.5912 Q1530.32 33.9709 1526.91 33.1607 Q1523.51 32.3505 1519.87 32.3505 Q1514.32 32.3505 1511.52 34.0519 Q1508.77 35.7533 1508.77 39.156 Q1508.77 41.7486 1510.75 43.2475 Q1512.74 44.7058 1518.73 46.0426 L1521.28 46.6097 Q1529.22 48.3111 1532.54 51.4303 Q1535.91 54.509 1535.91 60.0587 Q1535.91 66.3781 1530.88 70.0644 Q1525.9 73.7508 1517.15 73.7508 Q1513.51 73.7508 1509.54 73.0216 Q1505.61 72.3329 1501.23 70.9151 L1501.23 63.2184 Q1505.36 65.3654 1509.37 66.4591 Q1513.38 67.5124 1517.31 67.5124 Q1522.58 67.5124 1525.42 65.73 Q1528.25 63.9071 1528.25 60.6258 Q1528.25 57.5877 1526.19 55.9673 Q1524.16 54.3469 1517.23 52.8481 L1514.64 52.2405 Q1507.71 50.7821 1504.63 47.7845 Q1501.56 44.7463 1501.56 39.4801 Q1501.56 33.0797 1506.09 29.5959 Q1510.63 26.1121 1518.97 26.1121 Q1523.11 26.1121 1526.75 26.7198 Q1530.4 27.3274 1533.48 28.5427 Z" fill="#000000" fill-rule="nonzero" fill-opacity="1" /><path clip-path="url(#clip310)" d="M1547.78 27.2059 L1555.23 27.2059 L1555.23 72.576 L1547.78 72.576 L1547.78 27.2059 M1547.78 9.54393 L1555.23 9.54393 L1555.23 18.9825 L1547.78 18.9825 L1547.78 9.54393 Z" fill="#000000" fill-rule="nonzero" fill-opacity="1" /><path clip-path="url(#clip310)" d="M1578.2 14.324 L1578.2 27.2059 L1593.55 27.2059 L1593.55 32.9987 L1578.2 32.9987 L1578.2 57.6282 Q1578.2 63.1779 1579.7 64.7578 Q1581.24 66.3376 1585.9 66.3376 L1593.55 66.3376 L1593.55 72.576 L1585.9 72.576 Q1577.27 72.576 1573.99 69.3758 Q1570.7 66.1351 1570.7 57.6282 L1570.7 32.9987 L1565.24 32.9987 L1565.24 27.2059 L1570.7 27.2059 L1570.7 14.324 L1578.2 14.324 Z" fill="#000000" fill-rule="nonzero" fill-opacity="1" /><path clip-path="url(#clip310)" d="M1603.35 27.2059 L1610.81 27.2059 L1610.81 72.576 L1603.35 72.576 L1603.35 27.2059 M1603.35 9.54393 L1610.81 9.54393 L1610.81 18.9825 L1603.35 18.9825 L1603.35 9.54393 Z" fill="#000000" fill-rule="nonzero" fill-opacity="1" /><path clip-path="url(#clip310)" d="M1621.06 27.2059 L1628.96 27.2059 L1643.13 65.2844 L1657.31 27.2059 L1665.21 27.2059 L1648.2 72.576 L1638.07 72.576 L1621.06 27.2059 Z" fill="#000000" fill-rule="nonzero" fill-opacity="1" /><path clip-path="url(#clip310)" d="M1675.5 27.2059 L1682.95 27.2059 L1682.95 72.576 L1675.5 72.576 L1675.5 27.2059 M1675.5 9.54393 L1682.95 9.54393 L1682.95 18.9825 L1675.5 18.9825 L1675.5 9.54393 Z" fill="#000000" fill-rule="nonzero" fill-opacity="1" /><path clip-path="url(#clip310)" d="M1705.92 14.324 L1705.92 27.2059 L1721.28 27.2059 L1721.28 32.9987 L1705.92 32.9987 L1705.92 57.6282 Q1705.92 63.1779 1707.42 64.7578 Q1708.96 66.3376 1713.62 66.3376 L1721.28 66.3376 L1721.28 72.576 L1713.62 72.576 Q1704.99 72.576 1701.71 69.3758 Q1698.43 66.1351 1698.43 57.6282 L1698.43 32.9987 L1692.96 32.9987 L1692.96 27.2059 L1698.43 27.2059 L1698.43 14.324 L1705.92 14.324 Z" fill="#000000" fill-rule="nonzero" fill-opacity="1" /><path clip-path="url(#clip310)" d="M1749.96 76.7889 Q1746.8 84.8907 1743.8 87.3618 Q1740.8 89.8329 1735.78 89.8329 L1729.82 89.8329 L1729.82 83.5945 L1734.2 83.5945 Q1737.28 83.5945 1738.98 82.1361 Q1740.68 80.6778 1742.75 75.2496 L1744.08 71.8468 L1725.73 27.2059 L1733.63 27.2059 L1747.81 62.6918 L1761.99 27.2059 L1769.89 27.2059 L1749.96 76.7889 Z" fill="#000000" fill-rule="nonzero" fill-opacity="1" /><path clip-path="url(#clip310)" d="M1824.13 32.4315 Q1818.13 32.4315 1814.65 37.1306 Q1811.17 41.7891 1811.17 49.9314 Q1811.17 58.0738 1814.61 62.7728 Q1818.09 67.4314 1824.13 67.4314 Q1830.08 67.4314 1833.57 62.7323 Q1837.05 58.0333 1837.05 49.9314 Q1837.05 41.8701 1833.57 37.1711 Q1830.08 32.4315 1824.13 32.4315 M1824.13 26.1121 Q1833.85 26.1121 1839.4 32.4315 Q1844.95 38.7509 1844.95 49.9314 Q1844.95 61.0714 1839.4 67.4314 Q1833.85 73.7508 1824.13 73.7508 Q1814.37 73.7508 1808.82 67.4314 Q1803.31 61.0714 1803.31 49.9314 Q1803.31 38.7509 1808.82 32.4315 Q1814.37 26.1121 1824.13 26.1121 Z" fill="#000000" fill-rule="nonzero" fill-opacity="1" /><path clip-path="url(#clip310)" d="M1880.27 9.54393 L1880.27 15.7418 L1873.14 15.7418 Q1869.13 15.7418 1867.55 17.3622 Q1866.02 18.9825 1866.02 23.1955 L1866.02 27.2059 L1878.29 27.2059 L1878.29 32.9987 L1866.02 32.9987 L1866.02 72.576 L1858.52 72.576 L1858.52 32.9987 L1851.39 32.9987 L1851.39 27.2059 L1858.52 27.2059 L1858.52 24.0462 Q1858.52 16.471 1862.05 13.0277 Q1865.57 9.54393 1873.23 9.54393 L1880.27 9.54393 Z" fill="#000000" fill-rule="nonzero" fill-opacity="1" /><path clip-path="url(#clip310)" d="M1930.75 16.633 L1951.69 72.576 L1943.79 72.576 L1931.07 39.0345 L1915.44 72.576 L1907.54 72.576 L1927.43 29.0693 L1924.43 21.0485 Q1922.53 15.9444 1918.19 15.9444 L1914.3 15.9444 L1914.3 9.54393 L1919.04 9.62495 Q1928.2 9.74648 1930.75 16.633 Z" fill="#000000" fill-rule="nonzero" fill-opacity="1" /><path clip-path="url(#clip311)" d="M386.992 832.158 L386.992 1800.78 L740.757 1800.78 L740.757 832.158 L386.992 832.158 L386.992 832.158  Z" fill="#008080" fill-rule="evenodd" fill-opacity="0.7"/>
<polyline clip-path="url(#clip311)" style="stroke:#000000; stroke-linecap:round; stroke-linejoin:round; stroke-width:4; stroke-opacity:0.7; fill:none" points="386.992,832.158 386.992,1800.78 740.757,1800.78 740.757,832.158 386.992,832.158 "/>
<path clip-path="url(#clip311)" d="M829.198 1800.78 L829.198 1800.78 L1182.96 1800.78 L1182.96 1800.78 L829.198 1800.78 L829.198 1800.78  Z" fill="#228b22" fill-rule="evenodd" fill-opacity="0.7"/>
<polyline clip-path="url(#clip311)" style="stroke:#000000; stroke-linecap:round; stroke-linejoin:round; stroke-width:4; stroke-opacity:0.7; fill:none" points="829.198,1800.78 829.198,1800.78 1182.96,1800.78 829.198,1800.78 "/>
<path clip-path="url(#clip311)" d="M1271.4 127.792 L1271.4 1800.78 L1625.17 1800.78 L1625.17 127.792 L1271.4 127.792 L1271.4 127.792  Z" fill="#cd5c5c" fill-rule="evenodd" fill-opacity="0.7"/>
<polyline clip-path="url(#clip311)" style="stroke:#000000; stroke-linecap:round; stroke-linejoin:round; stroke-width:4; stroke-opacity:0.7; fill:none" points="1271.4,127.792 1271.4,1800.78 1625.17,1800.78 1625.17,127.792 1271.4,127.792 "/>
<path clip-path="url(#clip311)" d="M1713.61 1536.52 L1713.61 1800.78 L2067.37 1800.78 L2067.37 1536.52 L1713.61 1536.52 L1713.61 1536.52  Z" fill="#daa520" fill-rule="evenodd" fill-opacity="0.7"/>
<polyline clip-path="url(#clip311)" style="stroke:#000000; stroke-linecap:round; stroke-linejoin:round; stroke-width:4; stroke-opacity:0.7; fill:none" points="1713.61,1536.52 1713.61,1800.78 2067.37,1800.78 2067.37,1536.52 1713.61,1536.52 "/>
<path clip-path="url(#clip311)" d="M2155.82 1800.3 L2155.82 1800.78 L2509.58 1800.78 L2509.58 1800.3 L2155.82 1800.3 L2155.82 1800.3  Z" fill="#da70d6" fill-rule="evenodd" fill-opacity="0.7"/>
<polyline clip-path="url(#clip311)" style="stroke:#000000; stroke-linecap:round; stroke-linejoin:round; stroke-width:4; stroke-opacity:0.7; fill:none" points="2155.82,1800.3 2155.82,1800.78 2509.58,1800.78 2509.58,1800.3 2155.82,1800.3 "/>
<circle clip-path="url(#clip311)" style="fill:#008080; stroke:none; fill-opacity:0" cx="563.875" cy="832.158" r="2"/>
<circle clip-path="url(#clip311)" style="fill:#228b22; stroke:none; fill-opacity:0" cx="1006.08" cy="1800.78" r="2"/>
<circle clip-path="url(#clip311)" style="fill:#cd5c5c; stroke:none; fill-opacity:0" cx="1448.29" cy="127.792" r="2"/>
<circle clip-path="url(#clip311)" style="fill:#daa520; stroke:none; fill-opacity:0" cx="1890.49" cy="1536.52" r="2"/>
<circle clip-path="url(#clip311)" style="fill:#da70d6; stroke:none; fill-opacity:0" cx="2332.7" cy="1800.3" r="2"/>
</svg>
