<?xml version="1.0" encoding="utf-8"?>
<svg xmlns="http://www.w3.org/2000/svg" xmlns:xlink="http://www.w3.org/1999/xlink" width="672" height="480" viewBox="0 0 2688 1920">
<defs>
  <clipPath id="clip220">
    <rect x="0" y="0" width="2688" height="1920"/>
  </clipPath>
</defs>
<path clip-path="url(#clip220)" d="M0 1920 L2688 1920 L2688 -4.26326e-14 L0 -4.26326e-14  Z" fill="#ffffff" fill-rule="evenodd" fill-opacity="1"/>
<defs>
  <clipPath id="clip221">
    <rect x="226" y="127" width="2416" height="1674"/>
  </clipPath>
</defs>
<path clip-path="url(#clip220)" d="M226.141 1800.78 L2640.76 1800.78 L2640.76 127.792 L226.141 127.792  Z" fill="#ffffff" fill-rule="evenodd" fill-opacity="1"/>
<polyline clip-path="url(#clip221)" style="stroke:#000000; stroke-linecap:round; stroke-linejoin:round; stroke-width:2; stroke-opacity:0.1; fill:none" points="836.504,1800.78 836.504,127.792 "/>
<polyline clip-path="url(#clip221)" style="stroke:#000000; stroke-linecap:round; stroke-linejoin:round; stroke-width:2; stroke-opacity:0.1; fill:none" points="2030.39,1800.78 2030.39,127.792 "/>
<polyline clip-path="url(#clip221)" style="stroke:#000000; stroke-linecap:round; stroke-linejoin:round; stroke-width:2; stroke-opacity:0.1; fill:none" points="226.141,1800.78 2640.76,1800.78 "/>
<polyline clip-path="url(#clip221)" style="stroke:#000000; stroke-linecap:round; stroke-linejoin:round; stroke-width:2; stroke-opacity:0.1; fill:none" points="226.141,1446.23 2640.76,1446.23 "/>
<polyline clip-path="url(#clip221)" style="stroke:#000000; stroke-linecap:round; stroke-linejoin:round; stroke-width:2; stroke-opacity:0.1; fill:none" points="226.141,1091.68 2640.76,1091.68 "/>
<polyline clip-path="url(#clip221)" style="stroke:#000000; stroke-linecap:round; stroke-linejoin:round; stroke-width:2; stroke-opacity:0.1; fill:none" points="226.141,737.13 2640.76,737.13 "/>
<polyline clip-path="url(#clip221)" style="stroke:#000000; stroke-linecap:round; stroke-linejoin:round; stroke-width:2; stroke-opacity:0.1; fill:none" points="226.141,382.58 2640.76,382.58 "/>
<polyline clip-path="url(#clip220)" style="stroke:#000000; stroke-linecap:round; stroke-linejoin:round; stroke-width:4; stroke-opacity:1; fill:none" points="226.141,1800.78 2640.76,1800.78 "/>
<polyline clip-path="url(#clip220)" style="stroke:#000000; stroke-linecap:round; stroke-linejoin:round; stroke-width:4; stroke-opacity:1; fill:none" points="836.504,1800.78 836.504,1781.88 "/>
<polyline clip-path="url(#clip220)" style="stroke:#000000; stroke-linecap:round; stroke-linejoin:round; stroke-width:4; stroke-opacity:1; fill:none" points="2030.39,1800.78 2030.39,1781.88 "/>
<path clip-path="url(#clip220)" d="M723.403 1832.06 L723.403 1836.62 Q720.741 1835.34 718.38 1834.72 Q716.019 1834.09 713.82 1834.09 Q710 1834.09 707.917 1835.58 Q705.857 1837.06 705.857 1839.79 Q705.857 1842.08 707.222 1843.26 Q708.611 1844.42 712.454 1845.14 L715.278 1845.71 Q720.509 1846.71 722.986 1849.23 Q725.486 1851.73 725.486 1855.95 Q725.486 1860.97 722.107 1863.56 Q718.75 1866.15 712.245 1866.15 Q709.792 1866.15 707.014 1865.6 Q704.259 1865.04 701.296 1863.96 L701.296 1859.14 Q704.144 1860.74 706.875 1861.55 Q709.607 1862.36 712.245 1862.36 Q716.25 1862.36 718.426 1860.78 Q720.602 1859.21 720.602 1856.29 Q720.602 1853.75 719.028 1852.31 Q717.477 1850.88 713.912 1850.16 L711.065 1849.6 Q705.833 1848.56 703.495 1846.34 Q701.158 1844.12 701.158 1840.16 Q701.158 1835.58 704.375 1832.94 Q707.616 1830.3 713.287 1830.3 Q715.718 1830.3 718.241 1830.74 Q720.764 1831.18 723.403 1832.06 Z" fill="#000000" fill-rule="nonzero" fill-opacity="1" /><path clip-path="url(#clip220)" d="M732.153 1855.25 L732.153 1839.56 L736.412 1839.56 L736.412 1855.09 Q736.412 1858.77 737.847 1860.62 Q739.282 1862.45 742.153 1862.45 Q745.602 1862.45 747.592 1860.25 Q749.606 1858.05 749.606 1854.26 L749.606 1839.56 L753.866 1839.56 L753.866 1865.48 L749.606 1865.48 L749.606 1861.5 Q748.055 1863.86 745.995 1865.02 Q743.958 1866.15 741.25 1866.15 Q736.782 1866.15 734.468 1863.38 Q732.153 1860.6 732.153 1855.25 M742.87 1838.93 L742.87 1838.93 Z" fill="#000000" fill-rule="nonzero" fill-opacity="1" /><path clip-path="url(#clip220)" d="M777.662 1843.54 Q776.944 1843.12 776.088 1842.94 Q775.254 1842.73 774.236 1842.73 Q770.625 1842.73 768.68 1845.09 Q766.759 1847.43 766.759 1851.83 L766.759 1865.48 L762.477 1865.48 L762.477 1839.56 L766.759 1839.56 L766.759 1843.59 Q768.102 1841.22 770.254 1840.09 Q772.407 1838.93 775.486 1838.93 Q775.926 1838.93 776.458 1839 Q776.99 1839.05 777.639 1839.16 L777.662 1843.54 Z" fill="#000000" fill-rule="nonzero" fill-opacity="1" /><path clip-path="url(#clip220)" d="M779.074 1839.56 L783.588 1839.56 L791.689 1861.32 L799.791 1839.56 L804.305 1839.56 L794.583 1865.48 L788.796 1865.48 L779.074 1839.56 Z" fill="#000000" fill-rule="nonzero" fill-opacity="1" /><path clip-path="url(#clip220)" d="M810.185 1839.56 L814.444 1839.56 L814.444 1865.48 L810.185 1865.48 L810.185 1839.56 M810.185 1829.46 L814.444 1829.46 L814.444 1834.86 L810.185 1834.86 L810.185 1829.46 Z" fill="#000000" fill-rule="nonzero" fill-opacity="1" /><path clip-path="url(#clip220)" d="M820.3 1839.56 L824.814 1839.56 L832.916 1861.32 L841.018 1839.56 L845.532 1839.56 L835.81 1865.48 L830.023 1865.48 L820.3 1839.56 Z" fill="#000000" fill-rule="nonzero" fill-opacity="1" /><path clip-path="url(#clip220)" d="M863.194 1852.45 Q858.032 1852.45 856.041 1853.63 Q854.05 1854.81 854.05 1857.66 Q854.05 1859.93 855.532 1861.27 Q857.036 1862.59 859.606 1862.59 Q863.147 1862.59 865.277 1860.09 Q867.43 1857.57 867.43 1853.4 L867.43 1852.45 L863.194 1852.45 M871.689 1850.69 L871.689 1865.48 L867.43 1865.48 L867.43 1861.55 Q865.971 1863.91 863.796 1865.04 Q861.62 1866.15 858.472 1866.15 Q854.49 1866.15 852.129 1863.93 Q849.791 1861.69 849.791 1857.94 Q849.791 1853.56 852.708 1851.34 Q855.647 1849.12 861.458 1849.12 L867.43 1849.12 L867.43 1848.7 Q867.43 1845.76 865.485 1844.16 Q863.564 1842.54 860.069 1842.54 Q857.847 1842.54 855.74 1843.08 Q853.634 1843.61 851.689 1844.67 L851.689 1840.74 Q854.027 1839.84 856.226 1839.4 Q858.425 1838.93 860.509 1838.93 Q866.134 1838.93 868.911 1841.85 Q871.689 1844.77 871.689 1850.69 Z" fill="#000000" fill-rule="nonzero" fill-opacity="1" /><path clip-path="url(#clip220)" d="M880.462 1829.46 L884.721 1829.46 L884.721 1865.48 L880.462 1865.48 L880.462 1829.46 Z" fill="#000000" fill-rule="nonzero" fill-opacity="1" /><path clip-path="url(#clip220)" d="M918.934 1829.51 Q915.832 1834.84 914.328 1840.04 Q912.823 1845.25 912.823 1850.6 Q912.823 1855.95 914.328 1861.2 Q915.855 1866.43 918.934 1871.73 L915.23 1871.73 Q911.758 1866.29 910.022 1861.04 Q908.309 1855.78 908.309 1850.6 Q908.309 1845.44 910.022 1840.21 Q911.735 1834.97 915.23 1829.51 L918.934 1829.51 Z" fill="#000000" fill-rule="nonzero" fill-opacity="1" /><path clip-path="url(#clip220)" d="M926.851 1830.92 L931.55 1830.92 L931.55 1851.92 Q931.55 1857.47 933.564 1859.93 Q935.578 1862.36 940.091 1862.36 Q944.582 1862.36 946.596 1859.93 Q948.61 1857.47 948.61 1851.92 L948.61 1830.92 L953.309 1830.92 L953.309 1852.5 Q953.309 1859.26 949.953 1862.71 Q946.619 1866.15 940.091 1866.15 Q933.541 1866.15 930.184 1862.71 Q926.851 1859.26 926.851 1852.5 L926.851 1830.92 Z" fill="#000000" fill-rule="nonzero" fill-opacity="1" /><path clip-path="url(#clip220)" d="M961.226 1829.51 L964.929 1829.51 Q968.401 1834.97 970.114 1840.21 Q971.851 1845.44 971.851 1850.6 Q971.851 1855.78 970.114 1861.04 Q968.401 1866.29 964.929 1871.73 L961.226 1871.73 Q964.304 1866.43 965.809 1861.2 Q967.337 1855.95 967.337 1850.6 Q967.337 1845.25 965.809 1840.04 Q964.304 1834.84 961.226 1829.51 Z" fill="#000000" fill-rule="nonzero" fill-opacity="1" /><path clip-path="url(#clip220)" d="M1880.14 1830.92 L1900 1830.92 L1900 1834.86 L1884.81 1834.86 L1884.81 1845.04 L1898.52 1845.04 L1898.52 1848.98 L1884.81 1848.98 L1884.81 1865.48 L1880.14 1865.48 L1880.14 1830.92 Z" fill="#000000" fill-rule="nonzero" fill-opacity="1" /><path clip-path="url(#clip220)" d="M1926.81 1851.46 L1926.81 1853.54 L1907.22 1853.54 Q1907.5 1857.94 1909.86 1860.25 Q1912.24 1862.54 1916.48 1862.54 Q1918.93 1862.54 1921.23 1861.94 Q1923.54 1861.34 1925.81 1860.14 L1925.81 1864.16 Q1923.52 1865.14 1921.11 1865.65 Q1918.7 1866.15 1916.23 1866.15 Q1910.02 1866.15 1906.39 1862.54 Q1902.78 1858.93 1902.78 1852.78 Q1902.78 1846.41 1906.2 1842.68 Q1909.65 1838.93 1915.49 1838.93 Q1920.72 1838.93 1923.75 1842.31 Q1926.81 1845.67 1926.81 1851.46 M1922.55 1850.21 Q1922.5 1846.71 1920.58 1844.63 Q1918.68 1842.54 1915.53 1842.54 Q1911.97 1842.54 1909.81 1844.56 Q1907.68 1846.57 1907.36 1850.23 L1922.55 1850.21 Z" fill="#000000" fill-rule="nonzero" fill-opacity="1" /><path clip-path="url(#clip220)" d="M1952.45 1840.55 L1952.45 1844.53 Q1950.65 1843.54 1948.82 1843.05 Q1947.01 1842.54 1945.16 1842.54 Q1941.02 1842.54 1938.73 1845.18 Q1936.43 1847.8 1936.43 1852.54 Q1936.43 1857.29 1938.73 1859.93 Q1941.02 1862.54 1945.16 1862.54 Q1947.01 1862.54 1948.82 1862.06 Q1950.65 1861.55 1952.45 1860.55 L1952.45 1864.49 Q1950.67 1865.32 1948.75 1865.74 Q1946.85 1866.15 1944.7 1866.15 Q1938.84 1866.15 1935.39 1862.47 Q1931.94 1858.79 1931.94 1852.54 Q1931.94 1846.2 1935.42 1842.57 Q1938.91 1838.93 1944.98 1838.93 Q1946.94 1838.93 1948.82 1839.35 Q1950.69 1839.74 1952.45 1840.55 Z" fill="#000000" fill-rule="nonzero" fill-opacity="1" /><path clip-path="url(#clip220)" d="M1959.42 1855.25 L1959.42 1839.56 L1963.68 1839.56 L1963.68 1855.09 Q1963.68 1858.77 1965.11 1860.62 Q1966.55 1862.45 1969.42 1862.45 Q1972.87 1862.45 1974.86 1860.25 Q1976.87 1858.05 1976.87 1854.26 L1976.87 1839.56 L1981.13 1839.56 L1981.13 1865.48 L1976.87 1865.48 L1976.87 1861.5 Q1975.32 1863.86 1973.26 1865.02 Q1971.23 1866.15 1968.52 1866.15 Q1964.05 1866.15 1961.74 1863.38 Q1959.42 1860.6 1959.42 1855.25 M1970.14 1838.93 L1970.14 1838.93 Z" fill="#000000" fill-rule="nonzero" fill-opacity="1" /><path clip-path="url(#clip220)" d="M2011.46 1849.84 L2011.46 1865.48 L2007.2 1865.48 L2007.2 1849.97 Q2007.2 1846.29 2005.76 1844.46 Q2004.33 1842.64 2001.46 1842.64 Q1998.01 1842.64 1996.02 1844.84 Q1994.03 1847.03 1994.03 1850.83 L1994.03 1865.48 L1989.74 1865.48 L1989.74 1839.56 L1994.03 1839.56 L1994.03 1843.59 Q1995.55 1841.25 1997.61 1840.09 Q1999.7 1838.93 2002.41 1838.93 Q2006.87 1838.93 2009.17 1841.71 Q2011.46 1844.46 2011.46 1849.84 Z" fill="#000000" fill-rule="nonzero" fill-opacity="1" /><path clip-path="url(#clip220)" d="M2037.01 1843.49 L2037.01 1829.46 L2041.27 1829.46 L2041.27 1865.48 L2037.01 1865.48 L2037.01 1861.59 Q2035.67 1863.91 2033.61 1865.04 Q2031.57 1866.15 2028.7 1866.15 Q2024 1866.15 2021.04 1862.4 Q2018.1 1858.65 2018.1 1852.54 Q2018.1 1846.43 2021.04 1842.68 Q2024 1838.93 2028.7 1838.93 Q2031.57 1838.93 2033.61 1840.07 Q2035.67 1841.18 2037.01 1843.49 M2022.5 1852.54 Q2022.5 1857.24 2024.42 1859.93 Q2026.36 1862.59 2029.74 1862.59 Q2033.12 1862.59 2035.07 1859.93 Q2037.01 1857.24 2037.01 1852.54 Q2037.01 1847.84 2035.07 1845.18 Q2033.12 1842.5 2029.74 1842.5 Q2026.36 1842.5 2024.42 1845.18 Q2022.5 1847.84 2022.5 1852.54 Z" fill="#000000" fill-rule="nonzero" fill-opacity="1" /><path clip-path="url(#clip220)" d="M2050.05 1839.56 L2054.3 1839.56 L2054.3 1865.48 L2050.05 1865.48 L2050.05 1839.56 M2050.05 1829.46 L2054.3 1829.46 L2054.3 1834.86 L2050.05 1834.86 L2050.05 1829.46 Z" fill="#000000" fill-rule="nonzero" fill-opacity="1" /><path clip-path="url(#clip220)" d="M2067.43 1832.2 L2067.43 1839.56 L2076.2 1839.56 L2076.2 1842.87 L2067.43 1842.87 L2067.43 1856.94 Q2067.43 1860.11 2068.29 1861.02 Q2069.17 1861.92 2071.83 1861.92 L2076.2 1861.92 L2076.2 1865.48 L2071.83 1865.48 Q2066.9 1865.48 2065.02 1863.65 Q2063.15 1861.8 2063.15 1856.94 L2063.15 1842.87 L2060.02 1842.87 L2060.02 1839.56 L2063.15 1839.56 L2063.15 1832.2 L2067.43 1832.2 Z" fill="#000000" fill-rule="nonzero" fill-opacity="1" /><path clip-path="url(#clip220)" d="M2092.59 1867.89 Q2090.79 1872.52 2089.07 1873.93 Q2087.36 1875.34 2084.49 1875.34 L2081.09 1875.34 L2081.09 1871.78 L2083.59 1871.78 Q2085.35 1871.78 2086.32 1870.95 Q2087.29 1870.11 2088.47 1867.01 L2089.23 1865.07 L2078.75 1839.56 L2083.26 1839.56 L2091.36 1859.84 L2099.47 1839.56 L2103.98 1839.56 L2092.59 1867.89 Z" fill="#000000" fill-rule="nonzero" fill-opacity="1" /><path clip-path="url(#clip220)" d="M2135.16 1829.51 Q2132.06 1834.84 2130.55 1840.04 Q2129.05 1845.25 2129.05 1850.6 Q2129.05 1855.95 2130.55 1861.2 Q2132.08 1866.43 2135.16 1871.73 L2131.46 1871.73 Q2127.98 1866.29 2126.25 1861.04 Q2124.54 1855.78 2124.54 1850.6 Q2124.54 1845.44 2126.25 1840.21 Q2127.96 1834.97 2131.46 1829.51 L2135.16 1829.51 Z" fill="#000000" fill-rule="nonzero" fill-opacity="1" /><path clip-path="url(#clip220)" d="M2143.61 1830.92 L2163.47 1830.92 L2163.47 1834.86 L2148.29 1834.86 L2148.29 1845.04 L2161.99 1845.04 L2161.99 1848.98 L2148.29 1848.98 L2148.29 1865.48 L2143.61 1865.48 L2143.61 1830.92 Z" fill="#000000" fill-rule="nonzero" fill-opacity="1" /><path clip-path="url(#clip220)" d="M2170.02 1829.51 L2173.72 1829.51 Q2177.2 1834.97 2178.91 1840.21 Q2180.65 1845.44 2180.65 1850.6 Q2180.65 1855.78 2178.91 1861.04 Q2177.2 1866.29 2173.72 1871.73 L2170.02 1871.73 Q2173.1 1866.43 2174.6 1861.2 Q2176.13 1855.95 2176.13 1850.6 Q2176.13 1845.25 2174.6 1840.04 Q2173.1 1834.84 2170.02 1829.51 Z" fill="#000000" fill-rule="nonzero" fill-opacity="1" /><polyline clip-path="url(#clip220)" style="stroke:#000000; stroke-linecap:round; stroke-linejoin:round; stroke-width:4; stroke-opacity:1; fill:none" points="226.141,1800.78 226.141,127.792 "/>
<polyline clip-path="url(#clip220)" style="stroke:#000000; stroke-linecap:round; stroke-linejoin:round; stroke-width:4; stroke-opacity:1; fill:none" points="226.141,1800.78 245.038,1800.78 "/>
<polyline clip-path="url(#clip220)" style="stroke:#000000; stroke-linecap:round; stroke-linejoin:round; stroke-width:4; stroke-opacity:1; fill:none" points="226.141,1446.23 245.038,1446.23 "/>
<polyline clip-path="url(#clip220)" style="stroke:#000000; stroke-linecap:round; stroke-linejoin:round; stroke-width:4; stroke-opacity:1; fill:none" points="226.141,1091.68 245.038,1091.68 "/>
<polyline clip-path="url(#clip220)" style="stroke:#000000; stroke-linecap:round; stroke-linejoin:round; stroke-width:4; stroke-opacity:1; fill:none" points="226.141,737.13 245.038,737.13 "/>
<polyline clip-path="url(#clip220)" style="stroke:#000000; stroke-linecap:round; stroke-linejoin:round; stroke-width:4; stroke-opacity:1; fill:none" points="226.141,382.58 245.038,382.58 "/>
<path clip-path="url(#clip220)" d="M128.645 1786.58 Q125.034 1786.58 123.205 1790.14 Q121.4 1793.68 121.4 1800.81 Q121.4 1807.92 123.205 1811.49 Q125.034 1815.03 128.645 1815.03 Q132.279 1815.03 134.085 1811.49 Q135.913 1807.92 135.913 1800.81 Q135.913 1793.68 134.085 1790.14 Q132.279 1786.58 128.645 1786.58 M128.645 1782.87 Q134.455 1782.87 137.511 1787.48 Q140.589 1792.06 140.589 1800.81 Q140.589 1809.54 137.511 1814.15 Q134.455 1818.73 128.645 1818.73 Q122.835 1818.73 119.756 1814.15 Q116.701 1809.54 116.701 1800.81 Q116.701 1792.06 119.756 1787.48 Q122.835 1782.87 128.645 1782.87 Z" fill="#000000" fill-rule="nonzero" fill-opacity="1" /><path clip-path="url(#clip220)" d="M148.807 1812.18 L153.691 1812.18 L153.691 1818.06 L148.807 1818.06 L148.807 1812.18 Z" fill="#000000" fill-rule="nonzero" fill-opacity="1" /><path clip-path="url(#clip220)" d="M173.876 1786.58 Q170.265 1786.58 168.436 1790.14 Q166.631 1793.68 166.631 1800.81 Q166.631 1807.92 168.436 1811.49 Q170.265 1815.03 173.876 1815.03 Q177.51 1815.03 179.316 1811.49 Q181.145 1807.92 181.145 1800.81 Q181.145 1793.68 179.316 1790.14 Q177.51 1786.58 173.876 1786.58 M173.876 1782.87 Q179.686 1782.87 182.742 1787.48 Q185.821 1792.06 185.821 1800.81 Q185.821 1809.54 182.742 1814.15 Q179.686 1818.73 173.876 1818.73 Q168.066 1818.73 164.987 1814.15 Q161.932 1809.54 161.932 1800.81 Q161.932 1792.06 164.987 1787.48 Q168.066 1782.87 173.876 1782.87 Z" fill="#000000" fill-rule="nonzero" fill-opacity="1" /><path clip-path="url(#clip220)" d="M130.242 1432.03 Q126.631 1432.03 124.802 1435.59 Q122.997 1439.13 122.997 1446.26 Q122.997 1453.37 124.802 1456.94 Q126.631 1460.48 130.242 1460.48 Q133.876 1460.48 135.682 1456.94 Q137.511 1453.37 137.511 1446.26 Q137.511 1439.13 135.682 1435.59 Q133.876 1432.03 130.242 1432.03 M130.242 1428.32 Q136.052 1428.32 139.108 1432.93 Q142.187 1437.51 142.187 1446.26 Q142.187 1454.99 139.108 1459.6 Q136.052 1464.18 130.242 1464.18 Q124.432 1464.18 121.353 1459.6 Q118.298 1454.99 118.298 1446.26 Q118.298 1437.51 121.353 1432.93 Q124.432 1428.32 130.242 1428.32 Z" fill="#000000" fill-rule="nonzero" fill-opacity="1" /><path clip-path="url(#clip220)" d="M150.404 1457.63 L155.288 1457.63 L155.288 1463.51 L150.404 1463.51 L150.404 1457.63 Z" fill="#000000" fill-rule="nonzero" fill-opacity="1" /><path clip-path="url(#clip220)" d="M169.501 1459.57 L185.821 1459.57 L185.821 1463.51 L163.876 1463.51 L163.876 1459.57 Q166.538 1456.82 171.122 1452.19 Q175.728 1447.54 176.909 1446.19 Q179.154 1443.67 180.034 1441.94 Q180.936 1440.18 180.936 1438.49 Q180.936 1435.73 178.992 1434 Q177.071 1432.26 173.969 1432.26 Q171.77 1432.26 169.316 1433.02 Q166.885 1433.79 164.108 1435.34 L164.108 1430.62 Q166.932 1429.48 169.385 1428.9 Q171.839 1428.32 173.876 1428.32 Q179.247 1428.32 182.441 1431.01 Q185.635 1433.69 185.635 1438.19 Q185.635 1440.32 184.825 1442.24 Q184.038 1444.13 181.932 1446.73 Q181.353 1447.4 178.251 1450.62 Q175.149 1453.81 169.501 1459.57 Z" fill="#000000" fill-rule="nonzero" fill-opacity="1" /><path clip-path="url(#clip220)" d="M128.159 1077.48 Q124.548 1077.48 122.719 1081.04 Q120.913 1084.58 120.913 1091.71 Q120.913 1098.82 122.719 1102.39 Q124.548 1105.93 128.159 1105.93 Q131.793 1105.93 133.599 1102.39 Q135.427 1098.82 135.427 1091.71 Q135.427 1084.58 133.599 1081.04 Q131.793 1077.48 128.159 1077.48 M128.159 1073.77 Q133.969 1073.77 137.025 1078.38 Q140.103 1082.96 140.103 1091.71 Q140.103 1100.44 137.025 1105.05 Q133.969 1109.63 128.159 1109.63 Q122.349 1109.63 119.27 1105.05 Q116.214 1100.44 116.214 1091.71 Q116.214 1082.96 119.27 1078.38 Q122.349 1073.77 128.159 1073.77 Z" fill="#000000" fill-rule="nonzero" fill-opacity="1" /><path clip-path="url(#clip220)" d="M148.321 1103.08 L153.205 1103.08 L153.205 1108.96 L148.321 1108.96 L148.321 1103.08 Z" fill="#000000" fill-rule="nonzero" fill-opacity="1" /><path clip-path="url(#clip220)" d="M176.237 1078.47 L164.432 1096.92 L176.237 1096.92 L176.237 1078.47 M175.01 1074.4 L180.89 1074.4 L180.89 1096.92 L185.821 1096.92 L185.821 1100.81 L180.89 1100.81 L180.89 1108.96 L176.237 1108.96 L176.237 1100.81 L160.636 1100.81 L160.636 1096.3 L175.01 1074.4 Z" fill="#000000" fill-rule="nonzero" fill-opacity="1" /><path clip-path="url(#clip220)" d="M128.483 722.928 Q124.872 722.928 123.043 726.493 Q121.238 730.035 121.238 737.164 Q121.238 744.271 123.043 747.836 Q124.872 751.377 128.483 751.377 Q132.117 751.377 133.923 747.836 Q135.751 744.271 135.751 737.164 Q135.751 730.035 133.923 726.493 Q132.117 722.928 128.483 722.928 M128.483 719.225 Q134.293 719.225 137.349 723.831 Q140.427 728.414 140.427 737.164 Q140.427 745.891 137.349 750.498 Q134.293 755.081 128.483 755.081 Q122.673 755.081 119.594 750.498 Q116.539 745.891 116.539 737.164 Q116.539 728.414 119.594 723.831 Q122.673 719.225 128.483 719.225 Z" fill="#000000" fill-rule="nonzero" fill-opacity="1" /><path clip-path="url(#clip220)" d="M148.645 748.53 L153.529 748.53 L153.529 754.41 L148.645 754.41 L148.645 748.53 Z" fill="#000000" fill-rule="nonzero" fill-opacity="1" /><path clip-path="url(#clip220)" d="M174.293 735.266 Q171.145 735.266 169.293 737.419 Q167.464 739.572 167.464 743.322 Q167.464 747.049 169.293 749.225 Q171.145 751.377 174.293 751.377 Q177.441 751.377 179.27 749.225 Q181.122 747.049 181.122 743.322 Q181.122 739.572 179.27 737.419 Q177.441 735.266 174.293 735.266 M183.575 720.614 L183.575 724.873 Q181.816 724.04 180.01 723.6 Q178.228 723.16 176.469 723.16 Q171.839 723.16 169.385 726.285 Q166.955 729.41 166.608 735.729 Q167.973 733.715 170.034 732.651 Q172.094 731.563 174.571 731.563 Q179.779 731.563 182.788 734.734 Q185.821 737.882 185.821 743.322 Q185.821 748.646 182.672 751.863 Q179.524 755.081 174.293 755.081 Q168.297 755.081 165.126 750.498 Q161.955 745.891 161.955 737.164 Q161.955 728.97 165.844 724.109 Q169.733 719.225 176.284 719.225 Q178.043 719.225 179.825 719.572 Q181.631 719.919 183.575 720.614 Z" fill="#000000" fill-rule="nonzero" fill-opacity="1" /><path clip-path="url(#clip220)" d="M128.738 368.379 Q125.126 368.379 123.298 371.943 Q121.492 375.485 121.492 382.615 Q121.492 389.721 123.298 393.286 Q125.126 396.827 128.738 396.827 Q132.372 396.827 134.177 393.286 Q136.006 389.721 136.006 382.615 Q136.006 375.485 134.177 371.943 Q132.372 368.379 128.738 368.379 M128.738 364.675 Q134.548 364.675 137.603 369.281 Q140.682 373.865 140.682 382.615 Q140.682 391.341 137.603 395.948 Q134.548 400.531 128.738 400.531 Q122.927 400.531 119.849 395.948 Q116.793 391.341 116.793 382.615 Q116.793 373.865 119.849 369.281 Q122.927 364.675 128.738 364.675 Z" fill="#000000" fill-rule="nonzero" fill-opacity="1" /><path clip-path="url(#clip220)" d="M148.899 393.98 L153.784 393.98 L153.784 399.86 L148.899 399.86 L148.899 393.98 Z" fill="#000000" fill-rule="nonzero" fill-opacity="1" /><path clip-path="url(#clip220)" d="M173.969 383.448 Q170.635 383.448 168.714 385.23 Q166.816 387.013 166.816 390.138 Q166.816 393.263 168.714 395.045 Q170.635 396.827 173.969 396.827 Q177.302 396.827 179.223 395.045 Q181.145 393.24 181.145 390.138 Q181.145 387.013 179.223 385.23 Q177.325 383.448 173.969 383.448 M169.293 381.457 Q166.284 380.716 164.594 378.656 Q162.927 376.596 162.927 373.633 Q162.927 369.49 165.867 367.082 Q168.83 364.675 173.969 364.675 Q179.131 364.675 182.071 367.082 Q185.01 369.49 185.01 373.633 Q185.01 376.596 183.321 378.656 Q181.654 380.716 178.668 381.457 Q182.047 382.244 183.922 384.536 Q185.821 386.828 185.821 390.138 Q185.821 395.161 182.742 397.846 Q179.686 400.531 173.969 400.531 Q168.251 400.531 165.173 397.846 Q162.117 395.161 162.117 390.138 Q162.117 386.828 164.015 384.536 Q165.913 382.244 169.293 381.457 M167.58 374.073 Q167.58 376.758 169.247 378.263 Q170.936 379.767 173.969 379.767 Q176.978 379.767 178.668 378.263 Q180.381 376.758 180.381 374.073 Q180.381 371.388 178.668 369.883 Q176.978 368.379 173.969 368.379 Q170.936 368.379 169.247 369.883 Q167.58 371.388 167.58 374.073 Z" fill="#000000" fill-rule="nonzero" fill-opacity="1" /><path clip-path="url(#clip220)" d="M14.1184 1196.82 L14.1184 1156.63 L19.5293 1156.63 L19.5293 1173.49 L61.6384 1173.49 L61.6384 1179.96 L19.5293 1179.96 L19.5293 1196.82 L14.1184 1196.82 Z" fill="#000000" fill-rule="nonzero" fill-opacity="1" /><path clip-path="url(#clip220)" d="M30.0964 1147.94 Q30.0964 1152.65 33.7885 1155.38 Q37.4488 1158.12 43.8463 1158.12 Q50.2438 1158.12 53.9359 1155.42 Q57.5962 1152.68 57.5962 1147.94 Q57.5962 1143.26 53.9041 1140.52 Q50.212 1137.78 43.8463 1137.78 Q37.5124 1137.78 33.8203 1140.52 Q30.0964 1143.26 30.0964 1147.94 M25.1311 1147.94 Q25.1311 1140.3 30.0964 1135.94 Q35.0616 1131.58 43.8463 1131.58 Q52.5991 1131.58 57.5962 1135.94 Q62.5615 1140.3 62.5615 1147.94 Q62.5615 1155.61 57.5962 1159.97 Q52.5991 1164.3 43.8463 1164.3 Q35.0616 1164.3 30.0964 1159.97 Q25.1311 1155.61 25.1311 1147.94 Z" fill="#000000" fill-rule="nonzero" fill-opacity="1" /><path clip-path="url(#clip220)" d="M15.869 1116.08 L25.9905 1116.08 L25.9905 1104.01 L30.542 1104.01 L30.542 1116.08 L49.8937 1116.08 Q54.2542 1116.08 55.4955 1114.9 Q56.7368 1113.69 56.7368 1110.03 L56.7368 1104.01 L61.6384 1104.01 L61.6384 1110.03 Q61.6384 1116.81 59.124 1119.39 Q56.5777 1121.96 49.8937 1121.96 L30.542 1121.96 L30.542 1126.26 L25.9905 1126.26 L25.9905 1121.96 L15.869 1121.96 L15.869 1116.08 Z" fill="#000000" fill-rule="nonzero" fill-opacity="1" /><path clip-path="url(#clip220)" d="M43.719 1080.11 Q43.719 1087.21 45.3422 1089.94 Q46.9655 1092.68 50.8804 1092.68 Q53.9996 1092.68 55.8457 1090.64 Q57.6599 1088.58 57.6599 1085.04 Q57.6599 1080.17 54.2224 1077.25 Q50.7531 1074.29 45.0239 1074.29 L43.719 1074.29 L43.719 1080.11 M41.3 1068.43 L61.6384 1068.43 L61.6384 1074.29 L56.2276 1074.29 Q59.4741 1076.29 61.0337 1079.28 Q62.5615 1082.27 62.5615 1086.6 Q62.5615 1092.08 59.5059 1095.32 Q56.4186 1098.54 51.2623 1098.54 Q45.2467 1098.54 42.1912 1094.53 Q39.1357 1090.49 39.1357 1082.5 L39.1357 1074.29 L38.5628 1074.29 Q34.5205 1074.29 32.3244 1076.96 Q30.0964 1079.6 30.0964 1084.41 Q30.0964 1087.46 30.8284 1090.36 Q31.5605 1093.25 33.0246 1095.93 L27.6137 1095.93 Q26.3724 1092.71 25.7677 1089.69 Q25.1311 1086.67 25.1311 1083.8 Q25.1311 1076.07 29.1415 1072.25 Q33.1519 1068.43 41.3 1068.43 Z" fill="#000000" fill-rule="nonzero" fill-opacity="1" /><path clip-path="url(#clip220)" d="M12.1132 1056.37 L12.1132 1050.51 L61.6384 1050.51 L61.6384 1056.37 L12.1132 1056.37 Z" fill="#000000" fill-rule="nonzero" fill-opacity="1" /><path clip-path="url(#clip220)" d="M42.3504 987.043 L45.2149 987.043 L45.2149 1013.97 Q51.2623 1013.59 54.4452 1010.34 Q57.5962 1007.06 57.5962 1001.24 Q57.5962 997.865 56.7687 994.714 Q55.9411 991.531 54.2861 988.412 L59.8242 988.412 Q61.161 991.563 61.8612 994.873 Q62.5615 998.183 62.5615 1001.59 Q62.5615 1010.12 57.5962 1015.12 Q52.631 1020.08 44.1646 1020.08 Q35.4117 1020.08 30.2873 1015.37 Q25.1311 1010.63 25.1311 1002.61 Q25.1311 995.414 29.7781 991.244 Q34.3932 987.043 42.3504 987.043 M40.6316 992.9 Q35.8255 992.963 32.9609 995.605 Q30.0964 998.215 30.0964 1002.54 Q30.0964 1007.45 32.8654 1010.41 Q35.6345 1013.33 40.6634 1013.78 L40.6316 992.9 Z" fill="#000000" fill-rule="nonzero" fill-opacity="1" /><path clip-path="url(#clip220)" d="M12.1132 977.431 L12.1132 971.574 L61.6384 971.574 L61.6384 977.431 L12.1132 977.431 Z" fill="#000000" fill-rule="nonzero" fill-opacity="1" /><path clip-path="url(#clip220)" d="M43.719 943.12 Q43.719 950.218 45.3422 952.955 Q46.9655 955.692 50.8804 955.692 Q53.9996 955.692 55.8457 953.655 Q57.6599 951.586 57.6599 948.053 Q57.6599 943.183 54.2224 940.255 Q50.7531 937.295 45.0239 937.295 L43.719 937.295 L43.719 943.12 M41.3 931.439 L61.6384 931.439 L61.6384 937.295 L56.2276 937.295 Q59.4741 939.3 61.0337 942.292 Q62.5615 945.284 62.5615 949.613 Q62.5615 955.087 59.5059 958.334 Q56.4186 961.548 51.2623 961.548 Q45.2467 961.548 42.1912 957.538 Q39.1357 953.496 39.1357 945.507 L39.1357 937.295 L38.5628 937.295 Q34.5205 937.295 32.3244 939.969 Q30.0964 942.61 30.0964 947.417 Q30.0964 950.472 30.8284 953.369 Q31.5605 956.265 33.0246 958.939 L27.6137 958.939 Q26.3724 955.724 25.7677 952.7 Q25.1311 949.676 25.1311 946.812 Q25.1311 939.078 29.1415 935.258 Q33.1519 931.439 41.3 931.439 Z" fill="#000000" fill-rule="nonzero" fill-opacity="1" /><path clip-path="url(#clip220)" d="M27.0408 896.65 L32.579 896.65 Q31.3059 899.133 30.6693 901.806 Q30.0327 904.48 30.0327 907.344 Q30.0327 911.705 31.3695 913.901 Q32.7063 916.065 35.3799 916.065 Q37.4169 916.065 38.5946 914.506 Q39.7404 912.946 40.7908 908.236 L41.2364 906.23 Q42.5732 899.992 45.0239 897.382 Q47.4429 894.74 51.8034 894.74 Q56.7687 894.74 59.6651 898.687 Q62.5615 902.602 62.5615 909.477 Q62.5615 912.342 61.9886 915.461 Q61.4475 918.548 60.3335 921.986 L54.2861 921.986 Q55.973 918.739 56.8323 915.588 Q57.6599 912.437 57.6599 909.35 Q57.6599 905.212 56.2594 902.984 Q54.8271 900.756 52.249 900.756 Q49.8619 900.756 48.5887 902.379 Q47.3156 903.971 46.1379 909.413 L45.6605 911.45 Q44.5147 916.893 42.1594 919.312 Q39.7722 921.731 35.6345 921.731 Q30.6056 921.731 27.8684 918.166 Q25.1311 914.601 25.1311 908.045 Q25.1311 904.798 25.6085 901.934 Q26.086 899.069 27.0408 896.65 Z" fill="#000000" fill-rule="nonzero" fill-opacity="1" /><path clip-path="url(#clip220)" d="M15.869 879.622 L25.9905 879.622 L25.9905 867.559 L30.542 867.559 L30.542 879.622 L49.8937 879.622 Q54.2542 879.622 55.4955 878.444 Q56.7368 877.235 56.7368 873.574 L56.7368 867.559 L61.6384 867.559 L61.6384 873.574 Q61.6384 880.354 59.124 882.932 Q56.5777 885.51 49.8937 885.51 L30.542 885.51 L30.542 889.807 L25.9905 889.807 L25.9905 885.51 L15.869 885.51 L15.869 879.622 Z" fill="#000000" fill-rule="nonzero" fill-opacity="1" /><path clip-path="url(#clip220)" d="M25.9905 859.856 L25.9905 854 L61.6384 854 L61.6384 859.856 L25.9905 859.856 M12.1132 859.856 L12.1132 854 L19.5293 854 L19.5293 859.856 L12.1132 859.856 Z" fill="#000000" fill-rule="nonzero" fill-opacity="1" /><path clip-path="url(#clip220)" d="M27.3591 816.092 L32.8336 816.092 Q31.465 818.575 30.7966 821.089 Q30.0964 823.572 30.0964 826.118 Q30.0964 831.815 33.7248 834.966 Q37.3214 838.117 43.8463 838.117 Q50.3711 838.117 53.9996 834.966 Q57.5962 831.815 57.5962 826.118 Q57.5962 823.572 56.9278 821.089 Q56.2276 818.575 54.859 816.092 L60.2698 816.092 Q61.4156 818.543 61.9886 821.185 Q62.5615 823.795 62.5615 826.755 Q62.5615 834.807 57.5007 839.55 Q52.44 844.292 43.8463 844.292 Q35.1253 844.292 30.1282 839.518 Q25.1311 834.712 25.1311 826.373 Q25.1311 823.667 25.704 821.089 Q26.2451 818.511 27.3591 816.092 Z" fill="#000000" fill-rule="nonzero" fill-opacity="1" /><path clip-path="url(#clip220)" d="M25.9905 805.907 L25.9905 800.05 L61.6384 800.05 L61.6384 805.907 L25.9905 805.907 M12.1132 805.907 L12.1132 800.05 L19.5293 800.05 L19.5293 805.907 L12.1132 805.907 Z" fill="#000000" fill-rule="nonzero" fill-opacity="1" /><path clip-path="url(#clip220)" d="M15.869 782.004 L25.9905 782.004 L25.9905 769.941 L30.542 769.941 L30.542 782.004 L49.8937 782.004 Q54.2542 782.004 55.4955 780.826 Q56.7368 779.617 56.7368 775.956 L56.7368 769.941 L61.6384 769.941 L61.6384 775.956 Q61.6384 782.736 59.124 785.314 Q56.5777 787.892 49.8937 787.892 L30.542 787.892 L30.542 792.189 L25.9905 792.189 L25.9905 787.892 L15.869 787.892 L15.869 782.004 Z" fill="#000000" fill-rule="nonzero" fill-opacity="1" /><path clip-path="url(#clip220)" d="M64.9486 747.406 Q71.3143 749.889 73.2559 752.244 Q75.1974 754.599 75.1974 758.546 L75.1974 763.225 L70.2958 763.225 L70.2958 759.787 Q70.2958 757.368 69.15 756.032 Q68.0041 754.695 63.7391 753.072 L61.0655 752.021 L25.9905 766.44 L25.9905 760.233 L53.8723 749.093 L25.9905 737.953 L25.9905 731.746 L64.9486 747.406 Z" fill="#000000" fill-rule="nonzero" fill-opacity="1" /><path clip-path="url(#clip220)" d="M571.942 14.0809 L571.942 22.0612 Q567.284 19.8332 563.152 18.7395 Q559.02 17.6457 555.172 17.6457 Q548.488 17.6457 544.842 20.2383 Q541.237 22.8309 541.237 27.611 Q541.237 31.6214 543.627 33.6873 Q546.057 35.7128 552.782 36.9686 L557.724 37.9813 Q566.879 39.7232 571.213 44.1387 Q575.588 48.5136 575.588 55.8863 Q575.588 64.6767 569.674 69.2137 Q563.8 73.7508 552.417 73.7508 Q548.123 73.7508 543.262 72.7785 Q538.441 71.8063 533.256 69.9024 L533.256 61.4765 Q538.239 64.2716 543.019 65.6895 Q547.799 67.1073 552.417 67.1073 Q559.425 67.1073 563.233 64.3527 Q567.041 61.598 567.041 56.4939 Q567.041 52.0379 564.286 49.5264 Q561.572 47.0148 555.334 45.759 L550.351 44.7868 Q541.196 42.9639 537.105 39.075 Q533.013 35.1862 533.013 28.2591 Q533.013 20.2383 538.644 15.6203 Q544.315 11.0023 554.24 11.0023 Q558.493 11.0023 562.909 11.7719 Q567.324 12.5416 571.942 14.0809 Z" fill="#000000" fill-rule="nonzero" fill-opacity="1" /><path clip-path="url(#clip220)" d="M587.255 54.671 L587.255 27.2059 L594.709 27.2059 L594.709 54.3874 Q594.709 60.8284 597.22 64.0691 Q599.732 67.2693 604.755 67.2693 Q610.791 67.2693 614.274 63.421 Q617.799 59.5726 617.799 52.9291 L617.799 27.2059 L625.252 27.2059 L625.252 72.576 L617.799 72.576 L617.799 65.6084 Q615.085 69.7404 611.479 71.7658 Q607.914 73.7508 603.175 73.7508 Q595.357 73.7508 591.306 68.8897 Q587.255 64.0286 587.255 54.671 M606.011 26.1121 L606.011 26.1121 Z" fill="#000000" fill-rule="nonzero" fill-opacity="1" /><path clip-path="url(#clip220)" d="M666.896 34.1734 Q665.64 33.4443 664.141 33.1202 Q662.683 32.7556 660.9 32.7556 Q654.581 32.7556 651.178 36.8875 Q647.816 40.9789 647.816 48.6757 L647.816 72.576 L640.322 72.576 L640.322 27.2059 L647.816 27.2059 L647.816 34.2544 Q650.165 30.1225 653.933 28.1376 Q657.7 26.1121 663.088 26.1121 Q663.857 26.1121 664.789 26.2337 Q665.721 26.3147 666.855 26.5172 L666.896 34.1734 Z" fill="#000000" fill-rule="nonzero" fill-opacity="1" /><path clip-path="url(#clip220)" d="M669.367 27.2059 L677.266 27.2059 L691.444 65.2844 L705.622 27.2059 L713.522 27.2059 L696.508 72.576 L686.38 72.576 L669.367 27.2059 Z" fill="#000000" fill-rule="nonzero" fill-opacity="1" /><path clip-path="url(#clip220)" d="M723.811 27.2059 L731.264 27.2059 L731.264 72.576 L723.811 72.576 L723.811 27.2059 M723.811 9.54393 L731.264 9.54393 L731.264 18.9825 L723.811 18.9825 L723.811 9.54393 Z" fill="#000000" fill-rule="nonzero" fill-opacity="1" /><path clip-path="url(#clip220)" d="M741.513 27.2059 L749.413 27.2059 L763.591 65.2844 L777.769 27.2059 L785.668 27.2059 L768.654 72.576 L758.527 72.576 L741.513 27.2059 Z" fill="#000000" fill-rule="nonzero" fill-opacity="1" /><path clip-path="url(#clip220)" d="M816.577 49.7694 Q807.543 49.7694 804.059 51.8354 Q800.575 53.9013 800.575 58.8839 Q800.575 62.8538 803.168 65.2034 Q805.801 67.5124 810.298 67.5124 Q816.496 67.5124 820.222 63.1374 Q823.99 58.7219 823.99 51.4303 L823.99 49.7694 L816.577 49.7694 M831.443 46.6907 L831.443 72.576 L823.99 72.576 L823.99 65.6895 Q821.438 69.8214 817.63 71.8063 Q813.822 73.7508 808.313 73.7508 Q801.345 73.7508 797.213 69.8619 Q793.122 65.9325 793.122 59.3701 Q793.122 51.7138 798.226 47.825 Q803.371 43.9361 813.538 43.9361 L823.99 43.9361 L823.99 43.2069 Q823.99 38.0623 820.587 35.2672 Q817.225 32.4315 811.108 32.4315 Q807.219 32.4315 803.533 33.3632 Q799.846 34.295 796.444 36.1584 L796.444 29.2718 Q800.535 27.692 804.383 26.9223 Q808.232 26.1121 811.877 26.1121 Q821.721 26.1121 826.582 31.2163 Q831.443 36.3204 831.443 46.6907 Z" fill="#000000" fill-rule="nonzero" fill-opacity="1" /><path clip-path="url(#clip220)" d="M846.796 9.54393 L854.25 9.54393 L854.25 72.576 L846.796 72.576 L846.796 9.54393 Z" fill="#000000" fill-rule="nonzero" fill-opacity="1" /><path clip-path="url(#clip220)" d="M890.87 27.2059 L898.769 27.2059 L912.948 65.2844 L927.126 27.2059 L935.025 27.2059 L918.011 72.576 L907.884 72.576 L890.87 27.2059 Z" fill="#000000" fill-rule="nonzero" fill-opacity="1" /><path clip-path="url(#clip220)" d="M974.238 28.5427 L974.238 35.5912 Q971.078 33.9709 967.675 33.1607 Q964.273 32.3505 960.627 32.3505 Q955.077 32.3505 952.282 34.0519 Q949.527 35.7533 949.527 39.156 Q949.527 41.7486 951.512 43.2475 Q953.497 44.7058 959.492 46.0426 L962.045 46.6097 Q969.984 48.3111 973.306 51.4303 Q976.668 54.509 976.668 60.0587 Q976.668 66.3781 971.645 70.0644 Q966.663 73.7508 957.913 73.7508 Q954.267 73.7508 950.297 73.0216 Q946.368 72.3329 941.993 70.9151 L941.993 63.2184 Q946.124 65.3654 950.135 66.4591 Q954.145 67.5124 958.075 67.5124 Q963.341 67.5124 966.176 65.73 Q969.012 63.9071 969.012 60.6258 Q969.012 57.5877 966.946 55.9673 Q964.921 54.3469 957.994 52.8481 L955.401 52.2405 Q948.474 50.7821 945.395 47.7845 Q942.317 44.7463 942.317 39.4801 Q942.317 33.0797 946.854 29.5959 Q951.391 26.1121 959.735 26.1121 Q963.867 26.1121 967.513 26.7198 Q971.159 27.3274 974.238 28.5427 Z" fill="#000000" fill-rule="nonzero" fill-opacity="1" /><path clip-path="url(#clip220)" d="M1037.88 9.54393 L1037.88 15.7418 L1030.75 15.7418 Q1026.74 15.7418 1025.16 17.3622 Q1023.62 18.9825 1023.62 23.1955 L1023.62 27.2059 L1035.89 27.2059 L1035.89 32.9987 L1023.62 32.9987 L1023.62 72.576 L1016.12 72.576 L1016.12 32.9987 L1008.99 32.9987 L1008.99 27.2059 L1016.12 27.2059 L1016.12 24.0462 Q1016.12 16.471 1019.65 13.0277 Q1023.17 9.54393 1030.83 9.54393 L1037.88 9.54393 Z" fill="#000000" fill-rule="nonzero" fill-opacity="1" /><path clip-path="url(#clip220)" d="M1082.92 48.0275 L1082.92 51.6733 L1048.65 51.6733 Q1049.14 59.3701 1053.27 63.421 Q1057.44 67.4314 1064.86 67.4314 Q1069.15 67.4314 1073.16 66.3781 Q1077.21 65.3249 1081.18 63.2184 L1081.18 70.267 Q1077.17 71.9684 1072.96 72.8596 Q1068.75 73.7508 1064.41 73.7508 Q1053.55 73.7508 1047.19 67.4314 Q1040.88 61.1119 1040.88 50.3365 Q1040.88 39.1965 1046.87 32.6746 Q1052.91 26.1121 1063.11 26.1121 Q1072.27 26.1121 1077.58 32.0264 Q1082.92 37.9003 1082.92 48.0275 M1075.47 45.84 Q1075.39 39.7232 1072.03 36.0774 Q1068.7 32.4315 1063.2 32.4315 Q1056.96 32.4315 1053.19 35.9558 Q1049.46 39.4801 1048.9 45.8805 L1075.47 45.84 Z" fill="#000000" fill-rule="nonzero" fill-opacity="1" /><path clip-path="url(#clip220)" d="M1127.81 28.9478 L1127.81 35.9153 Q1124.65 34.1734 1121.45 33.3227 Q1118.29 32.4315 1115.05 32.4315 Q1107.8 32.4315 1103.79 37.0496 Q1099.78 41.6271 1099.78 49.9314 Q1099.78 58.2358 1103.79 62.8538 Q1107.8 67.4314 1115.05 67.4314 Q1118.29 67.4314 1121.45 66.5807 Q1124.65 65.6895 1127.81 63.9476 L1127.81 70.8341 Q1124.69 72.2924 1121.33 73.0216 Q1118 73.7508 1114.24 73.7508 Q1103.99 73.7508 1097.95 67.3098 Q1091.92 60.8689 1091.92 49.9314 Q1091.92 38.832 1097.99 32.472 Q1104.11 26.1121 1114.72 26.1121 Q1118.17 26.1121 1121.45 26.8413 Q1124.73 27.5299 1127.81 28.9478 Z" fill="#000000" fill-rule="nonzero" fill-opacity="1" /><path clip-path="url(#clip220)" d="M1140 54.671 L1140 27.2059 L1147.45 27.2059 L1147.45 54.3874 Q1147.45 60.8284 1149.97 64.0691 Q1152.48 67.2693 1157.5 67.2693 Q1163.54 67.2693 1167.02 63.421 Q1170.54 59.5726 1170.54 52.9291 L1170.54 27.2059 L1178 27.2059 L1178 72.576 L1170.54 72.576 L1170.54 65.6084 Q1167.83 69.7404 1164.23 71.7658 Q1160.66 73.7508 1155.92 73.7508 Q1148.1 73.7508 1144.05 68.8897 Q1140 64.0286 1140 54.671 M1158.76 26.1121 L1158.76 26.1121 Z" fill="#000000" fill-rule="nonzero" fill-opacity="1" /><path clip-path="url(#clip220)" d="M1231.07 45.1919 L1231.07 72.576 L1223.61 72.576 L1223.61 45.4349 Q1223.61 38.994 1221.1 35.7938 Q1218.59 32.5936 1213.57 32.5936 Q1207.53 32.5936 1204.05 36.4419 Q1200.56 40.2903 1200.56 46.9338 L1200.56 72.576 L1193.07 72.576 L1193.07 27.2059 L1200.56 27.2059 L1200.56 34.2544 Q1203.24 30.163 1206.84 28.1376 Q1210.49 26.1121 1215.23 26.1121 Q1223.04 26.1121 1227.05 30.9732 Q1231.07 35.7938 1231.07 45.1919 Z" fill="#000000" fill-rule="nonzero" fill-opacity="1" /><path clip-path="url(#clip220)" d="M1275.79 34.0924 L1275.79 9.54393 L1283.24 9.54393 L1283.24 72.576 L1275.79 72.576 L1275.79 65.7705 Q1273.44 69.8214 1269.83 71.8063 Q1266.27 73.7508 1261.24 73.7508 Q1253.02 73.7508 1247.84 67.1883 Q1242.69 60.6258 1242.69 49.9314 Q1242.69 39.2371 1247.84 32.6746 Q1253.02 26.1121 1261.24 26.1121 Q1266.27 26.1121 1269.83 28.0971 Q1273.44 30.0415 1275.79 34.0924 M1250.39 49.9314 Q1250.39 58.1548 1253.75 62.8538 Q1257.15 67.5124 1263.07 67.5124 Q1268.98 67.5124 1272.38 62.8538 Q1275.79 58.1548 1275.79 49.9314 Q1275.79 41.7081 1272.38 37.0496 Q1268.98 32.3505 1263.07 32.3505 Q1257.15 32.3505 1253.75 37.0496 Q1250.39 41.7081 1250.39 49.9314 Z" fill="#000000" fill-rule="nonzero" fill-opacity="1" /><path clip-path="url(#clip220)" d="M1298.59 27.2059 L1306.05 27.2059 L1306.05 72.576 L1298.59 72.576 L1298.59 27.2059 M1298.59 9.54393 L1306.05 9.54393 L1306.05 18.9825 L1298.59 18.9825 L1298.59 9.54393 Z" fill="#000000" fill-rule="nonzero" fill-opacity="1" /><path clip-path="url(#clip220)" d="M1329.02 14.324 L1329.02 27.2059 L1344.37 27.2059 L1344.37 32.9987 L1329.02 32.9987 L1329.02 57.6282 Q1329.02 63.1779 1330.51 64.7578 Q1332.05 66.3376 1336.71 66.3376 L1344.37 66.3376 L1344.37 72.576 L1336.71 72.576 Q1328.08 72.576 1324.8 69.3758 Q1321.52 66.1351 1321.52 57.6282 L1321.52 32.9987 L1316.05 32.9987 L1316.05 27.2059 L1321.52 27.2059 L1321.52 14.324 L1329.02 14.324 Z" fill="#000000" fill-rule="nonzero" fill-opacity="1" /><path clip-path="url(#clip220)" d="M1373.05 76.7889 Q1369.89 84.8907 1366.89 87.3618 Q1363.89 89.8329 1358.87 89.8329 L1352.92 89.8329 L1352.92 83.5945 L1357.29 83.5945 Q1360.37 83.5945 1362.07 82.1361 Q1363.77 80.6778 1365.84 75.2496 L1367.18 71.8468 L1348.82 27.2059 L1356.72 27.2059 L1370.9 62.6918 L1385.08 27.2059 L1392.98 27.2059 L1373.05 76.7889 Z" fill="#000000" fill-rule="nonzero" fill-opacity="1" /><path clip-path="url(#clip220)" d="M1468.45 48.0275 L1468.45 51.6733 L1434.18 51.6733 Q1434.66 59.3701 1438.8 63.421 Q1442.97 67.4314 1450.38 67.4314 Q1454.67 67.4314 1458.69 66.3781 Q1462.74 65.3249 1466.71 63.2184 L1466.71 70.267 Q1462.7 71.9684 1458.48 72.8596 Q1454.27 73.7508 1449.94 73.7508 Q1439.08 73.7508 1432.72 67.4314 Q1426.4 61.1119 1426.4 50.3365 Q1426.4 39.1965 1432.39 32.6746 Q1438.43 26.1121 1448.64 26.1121 Q1457.79 26.1121 1463.1 32.0264 Q1468.45 37.9003 1468.45 48.0275 M1460.99 45.84 Q1460.91 39.7232 1457.55 36.0774 Q1454.23 32.4315 1448.72 32.4315 Q1442.48 32.4315 1438.71 35.9558 Q1434.99 39.4801 1434.42 45.8805 L1460.99 45.84 Z" fill="#000000" fill-rule="nonzero" fill-opacity="1" /><path clip-path="url(#clip220)" d="M1480.68 9.54393 L1488.14 9.54393 L1488.14 72.576 L1480.68 72.576 L1480.68 9.54393 Z" fill="#000000" fill-rule="nonzero" fill-opacity="1" /><path clip-path="url(#clip220)" d="M1524.35 49.7694 Q1515.32 49.7694 1511.83 51.8354 Q1508.35 53.9013 1508.35 58.8839 Q1508.35 62.8538 1510.94 65.2034 Q1513.58 67.5124 1518.07 67.5124 Q1524.27 67.5124 1528 63.1374 Q1531.76 58.7219 1531.76 51.4303 L1531.76 49.7694 L1524.35 49.7694 M1539.22 46.6907 L1539.22 72.576 L1531.76 72.576 L1531.76 65.6895 Q1529.21 69.8214 1525.4 71.8063 Q1521.6 73.7508 1516.09 73.7508 Q1509.12 73.7508 1504.99 69.8619 Q1500.9 65.9325 1500.9 59.3701 Q1500.9 51.7138 1506 47.825 Q1511.14 43.9361 1521.31 43.9361 L1531.76 43.9361 L1531.76 43.2069 Q1531.76 38.0623 1528.36 35.2672 Q1525 32.4315 1518.88 32.4315 Q1514.99 32.4315 1511.31 33.3632 Q1507.62 34.295 1504.22 36.1584 L1504.22 29.2718 Q1508.31 27.692 1512.16 26.9223 Q1516.01 26.1121 1519.65 26.1121 Q1529.5 26.1121 1534.36 31.2163 Q1539.22 36.3204 1539.22 46.6907 Z" fill="#000000" fill-rule="nonzero" fill-opacity="1" /><path clip-path="url(#clip220)" d="M1583.49 28.5427 L1583.49 35.5912 Q1580.33 33.9709 1576.93 33.1607 Q1573.53 32.3505 1569.88 32.3505 Q1564.33 32.3505 1561.54 34.0519 Q1558.78 35.7533 1558.78 39.156 Q1558.78 41.7486 1560.77 43.2475 Q1562.75 44.7058 1568.75 46.0426 L1571.3 46.6097 Q1579.24 48.3111 1582.56 51.4303 Q1585.92 54.509 1585.92 60.0587 Q1585.92 66.3781 1580.9 70.0644 Q1575.92 73.7508 1567.17 73.7508 Q1563.52 73.7508 1559.55 73.0216 Q1555.62 72.3329 1551.25 70.9151 L1551.25 63.2184 Q1555.38 65.3654 1559.39 66.4591 Q1563.4 67.5124 1567.33 67.5124 Q1572.6 67.5124 1575.43 65.73 Q1578.27 63.9071 1578.27 60.6258 Q1578.27 57.5877 1576.2 55.9673 Q1574.18 54.3469 1567.25 52.8481 L1564.66 52.2405 Q1557.73 50.7821 1554.65 47.7845 Q1551.57 44.7463 1551.57 39.4801 Q1551.57 33.0797 1556.11 29.5959 Q1560.65 26.1121 1568.99 26.1121 Q1573.12 26.1121 1576.77 26.7198 Q1580.42 27.3274 1583.49 28.5427 Z" fill="#000000" fill-rule="nonzero" fill-opacity="1" /><path clip-path="url(#clip220)" d="M1605.17 14.324 L1605.17 27.2059 L1620.52 27.2059 L1620.52 32.9987 L1605.17 32.9987 L1605.17 57.6282 Q1605.17 63.1779 1606.66 64.7578 Q1608.2 66.3376 1612.86 66.3376 L1620.52 66.3376 L1620.52 72.576 L1612.86 72.576 Q1604.23 72.576 1600.95 69.3758 Q1597.67 66.1351 1597.67 57.6282 L1597.67 32.9987 L1592.2 32.9987 L1592.2 27.2059 L1597.67 27.2059 L1597.67 14.324 L1605.17 14.324 Z" fill="#000000" fill-rule="nonzero" fill-opacity="1" /><path clip-path="url(#clip220)" d="M1630.32 27.2059 L1637.78 27.2059 L1637.78 72.576 L1630.32 72.576 L1630.32 27.2059 M1630.32 9.54393 L1637.78 9.54393 L1637.78 18.9825 L1630.32 18.9825 L1630.32 9.54393 Z" fill="#000000" fill-rule="nonzero" fill-opacity="1" /><path clip-path="url(#clip220)" d="M1686.02 28.9478 L1686.02 35.9153 Q1682.86 34.1734 1679.66 33.3227 Q1676.5 32.4315 1673.26 32.4315 Q1666.01 32.4315 1662 37.0496 Q1657.99 41.6271 1657.99 49.9314 Q1657.99 58.2358 1662 62.8538 Q1666.01 67.4314 1673.26 67.4314 Q1676.5 67.4314 1679.66 66.5807 Q1682.86 65.6895 1686.02 63.9476 L1686.02 70.8341 Q1682.9 72.2924 1679.54 73.0216 Q1676.22 73.7508 1672.45 73.7508 Q1662.2 73.7508 1656.17 67.3098 Q1650.13 60.8689 1650.13 49.9314 Q1650.13 38.832 1656.21 32.472 Q1662.32 26.1121 1672.94 26.1121 Q1676.38 26.1121 1679.66 26.8413 Q1682.94 27.5299 1686.02 28.9478 Z" fill="#000000" fill-rule="nonzero" fill-opacity="1" /><path clip-path="url(#clip220)" d="M1698.99 27.2059 L1706.44 27.2059 L1706.44 72.576 L1698.99 72.576 L1698.99 27.2059 M1698.99 9.54393 L1706.44 9.54393 L1706.44 18.9825 L1698.99 18.9825 L1698.99 9.54393 Z" fill="#000000" fill-rule="nonzero" fill-opacity="1" /><path clip-path="url(#clip220)" d="M1729.41 14.324 L1729.41 27.2059 L1744.76 27.2059 L1744.76 32.9987 L1729.41 32.9987 L1729.41 57.6282 Q1729.41 63.1779 1730.91 64.7578 Q1732.45 66.3376 1737.1 66.3376 L1744.76 66.3376 L1744.76 72.576 L1737.1 72.576 Q1728.48 72.576 1725.19 69.3758 Q1721.91 66.1351 1721.91 57.6282 L1721.91 32.9987 L1716.44 32.9987 L1716.44 27.2059 L1721.91 27.2059 L1721.91 14.324 L1729.41 14.324 Z" fill="#000000" fill-rule="nonzero" fill-opacity="1" /><path clip-path="url(#clip220)" d="M1773.44 76.7889 Q1770.28 84.8907 1767.28 87.3618 Q1764.29 89.8329 1759.26 89.8329 L1753.31 89.8329 L1753.31 83.5945 L1757.68 83.5945 Q1760.76 83.5945 1762.46 82.1361 Q1764.16 80.6778 1766.23 75.2496 L1767.57 71.8468 L1749.22 27.2059 L1757.12 27.2059 L1771.29 62.6918 L1785.47 27.2059 L1793.37 27.2059 L1773.44 76.7889 Z" fill="#000000" fill-rule="nonzero" fill-opacity="1" /><path clip-path="url(#clip220)" d="M1826.26 46.9338 L1901.13 46.9338 L1901.13 52.7671 L1826.26 52.7671 L1826.26 46.9338 Z" fill="#000000" fill-rule="nonzero" fill-opacity="1" /><path clip-path="url(#clip220)" d="M1975.95 14.0809 L1975.95 22.0612 Q1971.29 19.8332 1967.15 18.7395 Q1963.02 17.6457 1959.17 17.6457 Q1952.49 17.6457 1948.84 20.2383 Q1945.24 22.8309 1945.24 27.611 Q1945.24 31.6214 1947.63 33.6873 Q1950.06 35.7128 1956.78 36.9686 L1961.73 37.9813 Q1970.88 39.7232 1975.22 44.1387 Q1979.59 48.5136 1979.59 55.8863 Q1979.59 64.6767 1973.68 69.2137 Q1967.8 73.7508 1956.42 73.7508 Q1952.13 73.7508 1947.26 72.7785 Q1942.44 71.8063 1937.26 69.9024 L1937.26 61.4765 Q1942.24 64.2716 1947.02 65.6895 Q1951.8 67.1073 1956.42 67.1073 Q1963.43 67.1073 1967.24 64.3527 Q1971.04 61.598 1971.04 56.4939 Q1971.04 52.0379 1968.29 49.5264 Q1965.58 47.0148 1959.34 45.759 L1954.35 44.7868 Q1945.2 42.9639 1941.11 39.075 Q1937.02 35.1862 1937.02 28.2591 Q1937.02 20.2383 1942.65 15.6203 Q1948.32 11.0023 1958.24 11.0023 Q1962.5 11.0023 1966.91 11.7719 Q1971.33 12.5416 1975.95 14.0809 Z" fill="#000000" fill-rule="nonzero" fill-opacity="1" /><path clip-path="url(#clip220)" d="M2030.84 48.0275 L2030.84 51.6733 L1996.56 51.6733 Q1997.05 59.3701 2001.18 63.421 Q2005.35 67.4314 2012.77 67.4314 Q2017.06 67.4314 2021.07 66.3781 Q2025.12 65.3249 2029.09 63.2184 L2029.09 70.267 Q2025.08 71.9684 2020.87 72.8596 Q2016.66 73.7508 2012.32 73.7508 Q2001.47 73.7508 1995.11 67.4314 Q1988.79 61.1119 1988.79 50.3365 Q1988.79 39.1965 1994.78 32.6746 Q2000.82 26.1121 2011.03 26.1121 Q2020.18 26.1121 2025.49 32.0264 Q2030.84 37.9003 2030.84 48.0275 M2023.38 45.84 Q2023.3 39.7232 2019.94 36.0774 Q2016.62 32.4315 2011.11 32.4315 Q2004.87 32.4315 2001.1 35.9558 Q1997.37 39.4801 1996.81 45.8805 L2023.38 45.84 Z" fill="#000000" fill-rule="nonzero" fill-opacity="1" /><path clip-path="url(#clip220)" d="M2063.69 49.7694 Q2054.65 49.7694 2051.17 51.8354 Q2047.69 53.9013 2047.69 58.8839 Q2047.69 62.8538 2050.28 65.2034 Q2052.91 67.5124 2057.41 67.5124 Q2063.61 67.5124 2067.33 63.1374 Q2071.1 58.7219 2071.1 51.4303 L2071.1 49.7694 L2063.69 49.7694 M2078.55 46.6907 L2078.55 72.576 L2071.1 72.576 L2071.1 65.6895 Q2068.55 69.8214 2064.74 71.8063 Q2060.93 73.7508 2055.42 73.7508 Q2048.46 73.7508 2044.32 69.8619 Q2040.23 65.9325 2040.23 59.3701 Q2040.23 51.7138 2045.34 47.825 Q2050.48 43.9361 2060.65 43.9361 L2071.1 43.9361 L2071.1 43.2069 Q2071.1 38.0623 2067.7 35.2672 Q2064.34 32.4315 2058.22 32.4315 Q2054.33 32.4315 2050.64 33.3632 Q2046.96 34.295 2043.55 36.1584 L2043.55 29.2718 Q2047.65 27.692 2051.49 26.9223 Q2055.34 26.1121 2058.99 26.1121 Q2068.83 26.1121 2073.69 31.2163 Q2078.55 36.3204 2078.55 46.6907 Z" fill="#000000" fill-rule="nonzero" fill-opacity="1" /><path clip-path="url(#clip220)" d="M2127.65 14.324 L2127.65 27.2059 L2143 27.2059 L2143 32.9987 L2127.65 32.9987 L2127.65 57.6282 Q2127.65 63.1779 2129.15 64.7578 Q2130.69 66.3376 2135.35 66.3376 L2143 66.3376 L2143 72.576 L2135.35 72.576 Q2126.72 72.576 2123.44 69.3758 Q2120.16 66.1351 2120.16 57.6282 L2120.16 32.9987 L2114.69 32.9987 L2114.69 27.2059 L2120.16 27.2059 L2120.16 14.324 L2127.65 14.324 Z" fill="#000000" fill-rule="nonzero" fill-opacity="1" /><path clip-path="url(#clip220)" d="M2152.04 54.671 L2152.04 27.2059 L2159.49 27.2059 L2159.49 54.3874 Q2159.49 60.8284 2162 64.0691 Q2164.51 67.2693 2169.54 67.2693 Q2175.57 67.2693 2179.06 63.421 Q2182.58 59.5726 2182.58 52.9291 L2182.58 27.2059 L2190.04 27.2059 L2190.04 72.576 L2182.58 72.576 L2182.58 65.6084 Q2179.87 69.7404 2176.26 71.7658 Q2172.7 73.7508 2167.96 73.7508 Q2160.14 73.7508 2156.09 68.8897 Q2152.04 64.0286 2152.04 54.671 M2170.79 26.1121 L2170.79 26.1121 Z" fill="#000000" fill-rule="nonzero" fill-opacity="1" /><path clip-path="url(#clip220)" d="M2231.68 34.1734 Q2230.42 33.4443 2228.92 33.1202 Q2227.47 32.7556 2225.68 32.7556 Q2219.36 32.7556 2215.96 36.8875 Q2212.6 40.9789 2212.6 48.6757 L2212.6 72.576 L2205.1 72.576 L2205.1 27.2059 L2212.6 27.2059 L2212.6 34.2544 Q2214.95 30.1225 2218.72 28.1376 Q2222.48 26.1121 2227.87 26.1121 Q2228.64 26.1121 2229.57 26.2337 Q2230.5 26.3147 2231.64 26.5172 L2231.68 34.1734 Z" fill="#000000" fill-rule="nonzero" fill-opacity="1" /><path clip-path="url(#clip220)" d="M2246.87 14.324 L2246.87 27.2059 L2262.22 27.2059 L2262.22 32.9987 L2246.87 32.9987 L2246.87 57.6282 Q2246.87 63.1779 2248.37 64.7578 Q2249.91 66.3376 2254.57 66.3376 L2262.22 66.3376 L2262.22 72.576 L2254.57 72.576 Q2245.94 72.576 2242.66 69.3758 Q2239.38 66.1351 2239.38 57.6282 L2239.38 32.9987 L2233.91 32.9987 L2233.91 27.2059 L2239.38 27.2059 L2239.38 14.324 L2246.87 14.324 Z" fill="#000000" fill-rule="nonzero" fill-opacity="1" /><path clip-path="url(#clip220)" d="M2272.03 9.54393 L2279.48 9.54393 L2279.48 72.576 L2272.03 72.576 L2272.03 9.54393 Z" fill="#000000" fill-rule="nonzero" fill-opacity="1" /><path clip-path="url(#clip220)" d="M2333.88 48.0275 L2333.88 51.6733 L2299.61 51.6733 Q2300.1 59.3701 2304.23 63.421 Q2308.4 67.4314 2315.82 67.4314 Q2320.11 67.4314 2324.12 66.3781 Q2328.17 65.3249 2332.14 63.2184 L2332.14 70.267 Q2328.13 71.9684 2323.92 72.8596 Q2319.71 73.7508 2315.37 73.7508 Q2304.51 73.7508 2298.15 67.4314 Q2291.83 61.1119 2291.83 50.3365 Q2291.83 39.1965 2297.83 32.6746 Q2303.87 26.1121 2314.07 26.1121 Q2323.23 26.1121 2328.54 32.0264 Q2333.88 37.9003 2333.88 48.0275 M2326.43 45.84 Q2326.35 39.7232 2322.99 36.0774 Q2319.66 32.4315 2314.16 32.4315 Q2307.92 32.4315 2304.15 35.9558 Q2300.42 39.4801 2299.86 45.8805 L2326.43 45.84 Z" fill="#000000" fill-rule="nonzero" fill-opacity="1" /><path clip-path="url(#clip221)" d="M358.949 127.792 L358.949 1800.78 L1314.06 1800.78 L1314.06 127.792 L358.949 127.792 L358.949 127.792  Z" fill="#008080" fill-rule="evenodd" fill-opacity="0.7"/>
<polyline clip-path="url(#clip221)" style="stroke:#000000; stroke-linecap:round; stroke-linejoin:round; stroke-width:4; stroke-opacity:0.7; fill:none" points="358.949,127.792 358.949,1800.78 1314.06,1800.78 1314.06,127.792 358.949,127.792 "/>
<path clip-path="url(#clip221)" d="M1552.84 1701.02 L1552.84 1800.78 L2507.95 1800.78 L2507.95 1701.02 L1552.84 1701.02 L1552.84 1701.02  Z" fill="#ffa500" fill-rule="evenodd" fill-opacity="0.7"/>
<polyline clip-path="url(#clip221)" style="stroke:#000000; stroke-linecap:round; stroke-linejoin:round; stroke-width:4; stroke-opacity:0.7; fill:none" points="1552.84,1701.02 1552.84,1800.78 2507.95,1800.78 2507.95,1701.02 1552.84,1701.02 "/>
<circle clip-path="url(#clip221)" style="fill:#008080; stroke:none; fill-opacity:0" cx="836.504" cy="127.792" r="2"/>
<circle clip-path="url(#clip221)" style="fill:#ffa500; stroke:none; fill-opacity:0" cx="2030.39" cy="1701.02" r="2"/>
</svg>
