<?xml version="1.0" encoding="utf-8"?>
<svg xmlns="http://www.w3.org/2000/svg" xmlns:xlink="http://www.w3.org/1999/xlink" width="672" height="480" viewBox="0 0 2688 1920">
<defs>
  <clipPath id="clip400">
    <rect x="0" y="0" width="2688" height="1920"/>
  </clipPath>
</defs>
<path clip-path="url(#clip400)" d="M0 1920 L2688 1920 L2688 -4.26326e-14 L0 -4.26326e-14  Z" fill="#ffffff" fill-rule="evenodd" fill-opacity="1"/>
<defs>
  <clipPath id="clip401">
    <rect x="255" y="127" width="2386" height="1607"/>
  </clipPath>
</defs>
<path clip-path="url(#clip400)" d="M255.816 1734.12 L2640.76 1734.12 L2640.76 127.792 L255.816 127.792  Z" fill="#ffffff" fill-rule="evenodd" fill-opacity="1"/>
<polyline clip-path="url(#clip401)" style="stroke:#000000; stroke-linecap:round; stroke-linejoin:round; stroke-width:2; stroke-opacity:0.1; fill:none" points="680.911,1734.12 680.911,127.792 "/>
<polyline clip-path="url(#clip401)" style="stroke:#000000; stroke-linecap:round; stroke-linejoin:round; stroke-width:2; stroke-opacity:0.1; fill:none" points="1448.29,1734.12 1448.29,127.792 "/>
<polyline clip-path="url(#clip401)" style="stroke:#000000; stroke-linecap:round; stroke-linejoin:round; stroke-width:2; stroke-opacity:0.1; fill:none" points="2215.66,1734.12 2215.66,127.792 "/>
<polyline clip-path="url(#clip401)" style="stroke:#000000; stroke-linecap:round; stroke-linejoin:round; stroke-width:2; stroke-opacity:0.1; fill:none" points="255.816,1734.12 2640.76,1734.12 "/>
<polyline clip-path="url(#clip401)" style="stroke:#000000; stroke-linecap:round; stroke-linejoin:round; stroke-width:2; stroke-opacity:0.1; fill:none" points="255.816,1317.93 2640.76,1317.93 "/>
<polyline clip-path="url(#clip401)" style="stroke:#000000; stroke-linecap:round; stroke-linejoin:round; stroke-width:2; stroke-opacity:0.1; fill:none" points="255.816,901.746 2640.76,901.746 "/>
<polyline clip-path="url(#clip401)" style="stroke:#000000; stroke-linecap:round; stroke-linejoin:round; stroke-width:2; stroke-opacity:0.1; fill:none" points="255.816,485.56 2640.76,485.56 "/>
<polyline clip-path="url(#clip400)" style="stroke:#000000; stroke-linecap:round; stroke-linejoin:round; stroke-width:4; stroke-opacity:1; fill:none" points="255.816,1734.12 2640.76,1734.12 "/>
<polyline clip-path="url(#clip400)" style="stroke:#000000; stroke-linecap:round; stroke-linejoin:round; stroke-width:4; stroke-opacity:1; fill:none" points="680.911,1734.12 680.911,1715.22 "/>
<polyline clip-path="url(#clip400)" style="stroke:#000000; stroke-linecap:round; stroke-linejoin:round; stroke-width:4; stroke-opacity:1; fill:none" points="1448.29,1734.12 1448.29,1715.22 "/>
<polyline clip-path="url(#clip400)" style="stroke:#000000; stroke-linecap:round; stroke-linejoin:round; stroke-width:4; stroke-opacity:1; fill:none" points="2215.66,1734.12 2215.66,1715.22 "/>
<path clip-path="url(#clip400)" d="M603.203 1764.26 L632.439 1764.26 L632.439 1768.2 L620.171 1768.2 L620.171 1798.82 L615.472 1798.82 L615.472 1768.2 L603.203 1768.2 L603.203 1764.26 Z" fill="#000000" fill-rule="nonzero" fill-opacity="1" /><path clip-path="url(#clip400)" d="M658.319 1783.17 L658.319 1798.82 L654.06 1798.82 L654.06 1783.31 Q654.06 1779.63 652.624 1777.8 Q651.189 1775.97 648.319 1775.97 Q644.87 1775.97 642.879 1778.17 Q640.888 1780.37 640.888 1784.17 L640.888 1798.82 L636.606 1798.82 L636.606 1762.8 L640.888 1762.8 L640.888 1776.92 Q642.416 1774.59 644.476 1773.43 Q646.56 1772.27 649.268 1772.27 Q653.736 1772.27 656.027 1775.05 Q658.319 1777.8 658.319 1783.17 Z" fill="#000000" fill-rule="nonzero" fill-opacity="1" /><path clip-path="url(#clip400)" d="M666.814 1772.9 L671.073 1772.9 L671.073 1798.82 L666.814 1798.82 L666.814 1772.9 M666.814 1762.8 L671.073 1762.8 L671.073 1768.2 L666.814 1768.2 L666.814 1762.8 Z" fill="#000000" fill-rule="nonzero" fill-opacity="1" /><path clip-path="url(#clip400)" d="M696.513 1773.66 L696.513 1777.69 Q694.708 1776.76 692.763 1776.3 Q690.819 1775.83 688.735 1775.83 Q685.564 1775.83 683.967 1776.81 Q682.393 1777.78 682.393 1779.72 Q682.393 1781.21 683.527 1782.06 Q684.661 1782.9 688.087 1783.66 L689.545 1783.98 Q694.083 1784.96 695.981 1786.74 Q697.902 1788.5 697.902 1791.67 Q697.902 1795.28 695.032 1797.39 Q692.184 1799.49 687.184 1799.49 Q685.101 1799.49 682.833 1799.08 Q680.587 1798.68 678.087 1797.87 L678.087 1793.47 Q680.448 1794.7 682.74 1795.33 Q685.032 1795.93 687.277 1795.93 Q690.286 1795.93 691.907 1794.91 Q693.527 1793.87 693.527 1791.99 Q693.527 1790.26 692.346 1789.33 Q691.189 1788.4 687.231 1787.55 L685.749 1787.2 Q681.791 1786.37 680.032 1784.65 Q678.272 1782.92 678.272 1779.91 Q678.272 1776.25 680.865 1774.26 Q683.458 1772.27 688.226 1772.27 Q690.587 1772.27 692.67 1772.62 Q694.754 1772.96 696.513 1773.66 Z" fill="#000000" fill-rule="nonzero" fill-opacity="1" /><path clip-path="url(#clip400)" d="M708.897 1765.53 L708.897 1772.9 L717.67 1772.9 L717.67 1776.21 L708.897 1776.21 L708.897 1790.28 Q708.897 1793.45 709.754 1794.35 Q710.633 1795.26 713.295 1795.26 L717.67 1795.26 L717.67 1798.82 L713.295 1798.82 Q708.365 1798.82 706.49 1796.99 Q704.615 1795.14 704.615 1790.28 L704.615 1776.21 L701.49 1776.21 L701.49 1772.9 L704.615 1772.9 L704.615 1765.53 L708.897 1765.53 Z" fill="#000000" fill-rule="nonzero" fill-opacity="1" /><path clip-path="url(#clip400)" d="M723.272 1762.8 L727.531 1762.8 L727.531 1798.82 L723.272 1798.82 L723.272 1762.8 Z" fill="#000000" fill-rule="nonzero" fill-opacity="1" /><path clip-path="url(#clip400)" d="M758.619 1784.79 L758.619 1786.88 L739.036 1786.88 Q739.314 1791.27 741.675 1793.59 Q744.059 1795.88 748.295 1795.88 Q750.749 1795.88 753.041 1795.28 Q755.355 1794.68 757.624 1793.47 L757.624 1797.5 Q755.332 1798.47 752.925 1798.98 Q750.517 1799.49 748.041 1799.49 Q741.837 1799.49 738.203 1795.88 Q734.592 1792.27 734.592 1786.11 Q734.592 1779.75 738.017 1776.02 Q741.467 1772.27 747.3 1772.27 Q752.531 1772.27 755.564 1775.65 Q758.619 1779.01 758.619 1784.79 M754.36 1783.54 Q754.314 1780.05 752.392 1777.96 Q750.494 1775.88 747.346 1775.88 Q743.781 1775.88 741.629 1777.9 Q739.499 1779.91 739.175 1783.57 L754.36 1783.54 Z" fill="#000000" fill-rule="nonzero" fill-opacity="1" /><path clip-path="url(#clip400)" d="M1357.14 1765.4 L1357.14 1769.96 Q1354.48 1768.68 1352.12 1768.06 Q1349.76 1767.43 1347.56 1767.43 Q1343.74 1767.43 1341.65 1768.91 Q1339.59 1770.4 1339.59 1773.13 Q1339.59 1775.42 1340.96 1776.6 Q1342.35 1777.76 1346.19 1778.47 L1349.02 1779.05 Q1354.25 1780.05 1356.72 1782.57 Q1359.22 1785.07 1359.22 1789.28 Q1359.22 1794.31 1355.84 1796.9 Q1352.49 1799.49 1345.98 1799.49 Q1343.53 1799.49 1340.75 1798.94 Q1338 1798.38 1335.03 1797.29 L1335.03 1792.48 Q1337.88 1794.08 1340.61 1794.89 Q1343.34 1795.7 1345.98 1795.7 Q1349.99 1795.7 1352.16 1794.12 Q1354.34 1792.55 1354.34 1789.63 Q1354.34 1787.08 1352.77 1785.65 Q1351.21 1784.21 1347.65 1783.5 L1344.8 1782.94 Q1339.57 1781.9 1337.23 1779.68 Q1334.9 1777.46 1334.9 1773.5 Q1334.9 1768.91 1338.11 1766.27 Q1341.35 1763.64 1347.03 1763.64 Q1349.46 1763.64 1351.98 1764.08 Q1354.5 1764.52 1357.14 1765.4 Z" fill="#000000" fill-rule="nonzero" fill-opacity="1" /><path clip-path="url(#clip400)" d="M1388.51 1784.79 L1388.51 1786.88 L1368.92 1786.88 Q1369.2 1791.27 1371.56 1793.59 Q1373.95 1795.88 1378.18 1795.88 Q1380.64 1795.88 1382.93 1795.28 Q1385.24 1794.68 1387.51 1793.47 L1387.51 1797.5 Q1385.22 1798.47 1382.81 1798.98 Q1380.4 1799.49 1377.93 1799.49 Q1371.72 1799.49 1368.09 1795.88 Q1364.48 1792.27 1364.48 1786.11 Q1364.48 1779.75 1367.9 1776.02 Q1371.35 1772.27 1377.19 1772.27 Q1382.42 1772.27 1385.45 1775.65 Q1388.51 1779.01 1388.51 1784.79 M1384.25 1783.54 Q1384.2 1780.05 1382.28 1777.96 Q1380.38 1775.88 1377.23 1775.88 Q1373.67 1775.88 1371.52 1777.9 Q1369.39 1779.91 1369.06 1783.57 L1384.25 1783.54 Z" fill="#000000" fill-rule="nonzero" fill-opacity="1" /><path clip-path="url(#clip400)" d="M1407.28 1785.79 Q1402.12 1785.79 1400.13 1786.97 Q1398.14 1788.15 1398.14 1791 Q1398.14 1793.27 1399.62 1794.61 Q1401.12 1795.93 1403.69 1795.93 Q1407.23 1795.93 1409.36 1793.43 Q1411.52 1790.9 1411.52 1786.74 L1411.52 1785.79 L1407.28 1785.79 M1415.77 1784.03 L1415.77 1798.82 L1411.52 1798.82 L1411.52 1794.89 Q1410.06 1797.25 1407.88 1798.38 Q1405.71 1799.49 1402.56 1799.49 Q1398.58 1799.49 1396.21 1797.27 Q1393.88 1795.02 1393.88 1791.27 Q1393.88 1786.9 1396.79 1784.68 Q1399.73 1782.46 1405.54 1782.46 L1411.52 1782.46 L1411.52 1782.04 Q1411.52 1779.1 1409.57 1777.5 Q1407.65 1775.88 1404.15 1775.88 Q1401.93 1775.88 1399.83 1776.41 Q1397.72 1776.95 1395.77 1778.01 L1395.77 1774.08 Q1398.11 1773.17 1400.31 1772.73 Q1402.51 1772.27 1404.59 1772.27 Q1410.22 1772.27 1413 1775.19 Q1415.77 1778.1 1415.77 1784.03 Z" fill="#000000" fill-rule="nonzero" fill-opacity="1" /><path clip-path="url(#clip400)" d="M1443.83 1765.53 L1443.83 1772.9 L1452.6 1772.9 L1452.6 1776.21 L1443.83 1776.21 L1443.83 1790.28 Q1443.83 1793.45 1444.69 1794.35 Q1445.57 1795.26 1448.23 1795.26 L1452.6 1795.26 L1452.6 1798.82 L1448.23 1798.82 Q1443.3 1798.82 1441.42 1796.99 Q1439.55 1795.14 1439.55 1790.28 L1439.55 1776.21 L1436.42 1776.21 L1436.42 1772.9 L1439.55 1772.9 L1439.55 1765.53 L1443.83 1765.53 Z" fill="#000000" fill-rule="nonzero" fill-opacity="1" /><path clip-path="url(#clip400)" d="M1457.77 1788.59 L1457.77 1772.9 L1462.02 1772.9 L1462.02 1788.43 Q1462.02 1792.11 1463.46 1793.96 Q1464.89 1795.79 1467.77 1795.79 Q1471.21 1795.79 1473.2 1793.59 Q1475.22 1791.39 1475.22 1787.59 L1475.22 1772.9 L1479.48 1772.9 L1479.48 1798.82 L1475.22 1798.82 L1475.22 1794.84 Q1473.67 1797.2 1471.61 1798.36 Q1469.57 1799.49 1466.86 1799.49 Q1462.39 1799.49 1460.08 1796.71 Q1457.77 1793.94 1457.77 1788.59 M1468.48 1772.27 L1468.48 1772.27 Z" fill="#000000" fill-rule="nonzero" fill-opacity="1" /><path clip-path="url(#clip400)" d="M1503.27 1776.88 Q1502.56 1776.46 1501.7 1776.27 Q1500.87 1776.07 1499.85 1776.07 Q1496.24 1776.07 1494.29 1778.43 Q1492.37 1780.77 1492.37 1785.16 L1492.37 1798.82 L1488.09 1798.82 L1488.09 1772.9 L1492.37 1772.9 L1492.37 1776.92 Q1493.71 1774.56 1495.87 1773.43 Q1498.02 1772.27 1501.1 1772.27 Q1501.54 1772.27 1502.07 1772.34 Q1502.6 1772.39 1503.25 1772.5 L1503.27 1776.88 Z" fill="#000000" fill-rule="nonzero" fill-opacity="1" /><path clip-path="url(#clip400)" d="M1511.95 1765.53 L1511.95 1772.9 L1520.73 1772.9 L1520.73 1776.21 L1511.95 1776.21 L1511.95 1790.28 Q1511.95 1793.45 1512.81 1794.35 Q1513.69 1795.26 1516.35 1795.26 L1520.73 1795.26 L1520.73 1798.82 L1516.35 1798.82 Q1511.42 1798.82 1509.55 1796.99 Q1507.67 1795.14 1507.67 1790.28 L1507.67 1776.21 L1504.55 1776.21 L1504.55 1772.9 L1507.67 1772.9 L1507.67 1765.53 L1511.95 1765.53 Z" fill="#000000" fill-rule="nonzero" fill-opacity="1" /><path clip-path="url(#clip400)" d="M1526.33 1762.8 L1530.59 1762.8 L1530.59 1798.82 L1526.33 1798.82 L1526.33 1762.8 Z" fill="#000000" fill-rule="nonzero" fill-opacity="1" /><path clip-path="url(#clip400)" d="M1561.68 1784.79 L1561.68 1786.88 L1542.09 1786.88 Q1542.37 1791.27 1544.73 1793.59 Q1547.12 1795.88 1551.35 1795.88 Q1553.81 1795.88 1556.1 1795.28 Q1558.41 1794.68 1560.68 1793.47 L1560.68 1797.5 Q1558.39 1798.47 1555.98 1798.98 Q1553.57 1799.49 1551.1 1799.49 Q1544.89 1799.49 1541.26 1795.88 Q1537.65 1792.27 1537.65 1786.11 Q1537.65 1779.75 1541.07 1776.02 Q1544.52 1772.27 1550.36 1772.27 Q1555.59 1772.27 1558.62 1775.65 Q1561.68 1779.01 1561.68 1784.79 M1557.42 1783.54 Q1557.37 1780.05 1555.45 1777.96 Q1553.55 1775.88 1550.4 1775.88 Q1546.84 1775.88 1544.69 1777.9 Q1542.56 1779.91 1542.23 1783.57 L1557.42 1783.54 Z" fill="#000000" fill-rule="nonzero" fill-opacity="1" /><path clip-path="url(#clip400)" d="M2167.47 1764.26 L2196.7 1764.26 L2196.7 1768.2 L2184.43 1768.2 L2184.43 1798.82 L2179.74 1798.82 L2179.74 1768.2 L2167.47 1768.2 L2167.47 1764.26 Z" fill="#000000" fill-rule="nonzero" fill-opacity="1" /><path clip-path="url(#clip400)" d="M2209.09 1776.88 Q2208.37 1776.46 2207.51 1776.27 Q2206.68 1776.07 2205.66 1776.07 Q2202.05 1776.07 2200.11 1778.43 Q2198.18 1780.77 2198.18 1785.16 L2198.18 1798.82 L2193.9 1798.82 L2193.9 1772.9 L2198.18 1772.9 L2198.18 1776.92 Q2199.53 1774.56 2201.68 1773.43 Q2203.83 1772.27 2206.91 1772.27 Q2207.35 1772.27 2207.88 1772.34 Q2208.42 1772.39 2209.06 1772.5 L2209.09 1776.88 Z" fill="#000000" fill-rule="nonzero" fill-opacity="1" /><path clip-path="url(#clip400)" d="M2234.69 1784.79 L2234.69 1786.88 L2215.11 1786.88 Q2215.38 1791.27 2217.74 1793.59 Q2220.13 1795.88 2224.36 1795.88 Q2226.82 1795.88 2229.11 1795.28 Q2231.42 1794.68 2233.69 1793.47 L2233.69 1797.5 Q2231.4 1798.47 2228.99 1798.98 Q2226.59 1799.49 2224.11 1799.49 Q2217.91 1799.49 2214.27 1795.88 Q2210.66 1792.27 2210.66 1786.11 Q2210.66 1779.75 2214.09 1776.02 Q2217.54 1772.27 2223.37 1772.27 Q2228.6 1772.27 2231.63 1775.65 Q2234.69 1779.01 2234.69 1784.79 M2230.43 1783.54 Q2230.38 1780.05 2228.46 1777.96 Q2226.56 1775.88 2223.42 1775.88 Q2219.85 1775.88 2217.7 1777.9 Q2215.57 1779.91 2215.24 1783.57 L2230.43 1783.54 Z" fill="#000000" fill-rule="nonzero" fill-opacity="1" /><path clip-path="url(#clip400)" d="M2263.86 1784.79 L2263.86 1786.88 L2244.27 1786.88 Q2244.55 1791.27 2246.91 1793.59 Q2249.3 1795.88 2253.53 1795.88 Q2255.98 1795.88 2258.28 1795.28 Q2260.59 1794.68 2262.86 1793.47 L2262.86 1797.5 Q2260.57 1798.47 2258.16 1798.98 Q2255.75 1799.49 2253.28 1799.49 Q2247.07 1799.49 2243.44 1795.88 Q2239.83 1792.27 2239.83 1786.11 Q2239.83 1779.75 2243.25 1776.02 Q2246.7 1772.27 2252.54 1772.27 Q2257.77 1772.27 2260.8 1775.65 Q2263.86 1779.01 2263.86 1784.79 M2259.6 1783.54 Q2259.55 1780.05 2257.63 1777.96 Q2255.73 1775.88 2252.58 1775.88 Q2249.02 1775.88 2246.86 1777.9 Q2244.73 1779.91 2244.41 1783.57 L2259.6 1783.54 Z" fill="#000000" fill-rule="nonzero" fill-opacity="1" /><path clip-path="url(#clip400)" d="M1357.18 1837.34 L1357.18 1843.61 Q1353.52 1841.86 1350.27 1841 Q1347.02 1840.14 1344 1840.14 Q1338.75 1840.14 1335.88 1842.18 Q1333.05 1844.22 1333.05 1847.97 Q1333.05 1851.12 1334.93 1852.75 Q1336.84 1854.34 1342.12 1855.32 L1346.01 1856.12 Q1353.2 1857.49 1356.6 1860.96 Q1360.04 1864.39 1360.04 1870.19 Q1360.04 1877.09 1355.39 1880.66 Q1350.78 1884.22 1341.84 1884.22 Q1338.46 1884.22 1334.64 1883.46 Q1330.85 1882.7 1326.78 1881.2 L1326.78 1874.58 Q1330.7 1876.78 1334.45 1877.89 Q1338.21 1879 1341.84 1879 Q1347.34 1879 1350.33 1876.84 Q1353.33 1874.68 1353.33 1870.67 Q1353.33 1867.16 1351.16 1865.19 Q1349.03 1863.22 1344.13 1862.23 L1340.21 1861.47 Q1333.02 1860.03 1329.8 1856.98 Q1326.59 1853.92 1326.59 1848.48 Q1326.59 1842.18 1331.01 1838.55 Q1335.47 1834.92 1343.27 1834.92 Q1346.61 1834.92 1350.08 1835.53 Q1353.55 1836.13 1357.18 1837.34 Z" fill="#000000" fill-rule="nonzero" fill-opacity="1" /><path clip-path="url(#clip400)" d="M1375.48 1877.95 L1375.48 1896.86 L1369.59 1896.86 L1369.59 1847.65 L1375.48 1847.65 L1375.48 1853.06 Q1377.32 1849.88 1380.13 1848.35 Q1382.96 1846.79 1386.87 1846.79 Q1393.37 1846.79 1397.41 1851.95 Q1401.48 1857.11 1401.48 1865.51 Q1401.48 1873.91 1397.41 1879.07 Q1393.37 1884.22 1386.87 1884.22 Q1382.96 1884.22 1380.13 1882.7 Q1377.32 1881.14 1375.48 1877.95 M1395.4 1865.51 Q1395.4 1859.05 1392.73 1855.39 Q1390.09 1851.7 1385.44 1851.7 Q1380.79 1851.7 1378.12 1855.39 Q1375.48 1859.05 1375.48 1865.51 Q1375.48 1871.97 1378.12 1875.66 Q1380.79 1879.32 1385.44 1879.32 Q1390.09 1879.32 1392.73 1875.66 Q1395.4 1871.97 1395.4 1865.51 Z" fill="#000000" fill-rule="nonzero" fill-opacity="1" /><path clip-path="url(#clip400)" d="M1441.68 1864.01 L1441.68 1866.88 L1414.75 1866.88 Q1415.14 1872.92 1418.38 1876.11 Q1421.66 1879.26 1427.49 1879.26 Q1430.86 1879.26 1434.01 1878.43 Q1437.19 1877.6 1440.31 1875.95 L1440.31 1881.49 Q1437.16 1882.82 1433.85 1883.52 Q1430.54 1884.22 1427.14 1884.22 Q1418.61 1884.22 1413.61 1879.26 Q1408.64 1874.29 1408.64 1865.83 Q1408.64 1857.07 1413.35 1851.95 Q1418.1 1846.79 1426.12 1846.79 Q1433.31 1846.79 1437.48 1851.44 Q1441.68 1856.06 1441.68 1864.01 M1435.83 1862.29 Q1435.76 1857.49 1433.12 1854.62 Q1430.51 1851.76 1426.18 1851.76 Q1421.28 1851.76 1418.32 1854.53 Q1415.39 1857.3 1414.95 1862.33 L1435.83 1862.29 Z" fill="#000000" fill-rule="nonzero" fill-opacity="1" /><path clip-path="url(#clip400)" d="M1476.95 1849.02 L1476.95 1854.5 Q1474.47 1853.13 1471.95 1852.46 Q1469.47 1851.76 1466.92 1851.76 Q1461.22 1851.76 1458.07 1855.39 Q1454.92 1858.98 1454.92 1865.51 Q1454.92 1872.03 1458.07 1875.66 Q1461.22 1879.26 1466.92 1879.26 Q1469.47 1879.26 1471.95 1878.59 Q1474.47 1877.89 1476.95 1876.52 L1476.95 1881.93 Q1474.5 1883.08 1471.86 1883.65 Q1469.25 1884.22 1466.29 1884.22 Q1458.23 1884.22 1453.49 1879.16 Q1448.75 1874.1 1448.75 1865.51 Q1448.75 1856.79 1453.52 1851.79 Q1458.33 1846.79 1466.67 1846.79 Q1469.37 1846.79 1471.95 1847.37 Q1474.53 1847.91 1476.95 1849.02 Z" fill="#000000" fill-rule="nonzero" fill-opacity="1" /><path clip-path="url(#clip400)" d="M1487.13 1847.65 L1492.99 1847.65 L1492.99 1883.3 L1487.13 1883.3 L1487.13 1847.65 M1487.13 1833.78 L1492.99 1833.78 L1492.99 1841.19 L1487.13 1841.19 L1487.13 1833.78 Z" fill="#000000" fill-rule="nonzero" fill-opacity="1" /><path clip-path="url(#clip400)" d="M1535.74 1864.01 L1535.74 1866.88 L1508.81 1866.88 Q1509.19 1872.92 1512.44 1876.11 Q1515.71 1879.26 1521.54 1879.26 Q1524.91 1879.26 1528.06 1878.43 Q1531.25 1877.6 1534.37 1875.95 L1534.37 1881.49 Q1531.22 1882.82 1527.91 1883.52 Q1524.6 1884.22 1521.19 1884.22 Q1512.66 1884.22 1507.66 1879.26 Q1502.7 1874.29 1502.7 1865.83 Q1502.7 1857.07 1507.41 1851.95 Q1512.15 1846.79 1520.17 1846.79 Q1527.36 1846.79 1531.53 1851.44 Q1535.74 1856.06 1535.74 1864.01 M1529.88 1862.29 Q1529.81 1857.49 1527.17 1854.62 Q1524.56 1851.76 1520.23 1851.76 Q1515.33 1851.76 1512.37 1854.53 Q1509.44 1857.3 1509 1862.33 L1529.88 1862.29 Z" fill="#000000" fill-rule="nonzero" fill-opacity="1" /><path clip-path="url(#clip400)" d="M1568.07 1848.7 L1568.07 1854.24 Q1565.59 1852.97 1562.92 1852.33 Q1560.24 1851.7 1557.38 1851.7 Q1553.02 1851.7 1550.82 1853.03 Q1548.66 1854.37 1548.66 1857.04 Q1548.66 1859.08 1550.22 1860.26 Q1551.78 1861.4 1556.49 1862.45 L1558.49 1862.9 Q1564.73 1864.24 1567.34 1866.69 Q1569.98 1869.11 1569.98 1873.47 Q1569.98 1878.43 1566.04 1881.33 Q1562.12 1884.22 1555.25 1884.22 Q1552.38 1884.22 1549.26 1883.65 Q1546.17 1883.11 1542.74 1882 L1542.74 1875.95 Q1545.98 1877.64 1549.13 1878.49 Q1552.29 1879.32 1555.37 1879.32 Q1559.51 1879.32 1561.74 1877.92 Q1563.97 1876.49 1563.97 1873.91 Q1563.97 1871.52 1562.34 1870.25 Q1560.75 1868.98 1555.31 1867.8 L1553.27 1867.32 Q1547.83 1866.18 1545.41 1863.82 Q1542.99 1861.43 1542.99 1857.3 Q1542.99 1852.27 1546.56 1849.53 Q1550.12 1846.79 1556.68 1846.79 Q1559.92 1846.79 1562.79 1847.27 Q1565.65 1847.75 1568.07 1848.7 Z" fill="#000000" fill-rule="nonzero" fill-opacity="1" /><polyline clip-path="url(#clip400)" style="stroke:#000000; stroke-linecap:round; stroke-linejoin:round; stroke-width:4; stroke-opacity:1; fill:none" points="255.816,1734.12 255.816,127.792 "/>
<polyline clip-path="url(#clip400)" style="stroke:#000000; stroke-linecap:round; stroke-linejoin:round; stroke-width:4; stroke-opacity:1; fill:none" points="255.816,1734.12 274.714,1734.12 "/>
<polyline clip-path="url(#clip400)" style="stroke:#000000; stroke-linecap:round; stroke-linejoin:round; stroke-width:4; stroke-opacity:1; fill:none" points="255.816,1317.93 274.714,1317.93 "/>
<polyline clip-path="url(#clip400)" style="stroke:#000000; stroke-linecap:round; stroke-linejoin:round; stroke-width:4; stroke-opacity:1; fill:none" points="255.816,901.746 274.714,901.746 "/>
<polyline clip-path="url(#clip400)" style="stroke:#000000; stroke-linecap:round; stroke-linejoin:round; stroke-width:4; stroke-opacity:1; fill:none" points="255.816,485.56 274.714,485.56 "/>
<path clip-path="url(#clip400)" d="M128.159 1719.92 Q124.548 1719.92 122.719 1723.48 Q120.913 1727.02 120.913 1734.15 Q120.913 1741.26 122.719 1744.82 Q124.548 1748.36 128.159 1748.36 Q131.793 1748.36 133.599 1744.82 Q135.427 1741.26 135.427 1734.15 Q135.427 1727.02 133.599 1723.48 Q131.793 1719.92 128.159 1719.92 M128.159 1716.21 Q133.969 1716.21 137.025 1720.82 Q140.103 1725.4 140.103 1734.15 Q140.103 1742.88 137.025 1747.48 Q133.969 1752.07 128.159 1752.07 Q122.349 1752.07 119.27 1747.48 Q116.214 1742.88 116.214 1734.15 Q116.214 1725.4 119.27 1720.82 Q122.349 1716.21 128.159 1716.21 Z" fill="#000000" fill-rule="nonzero" fill-opacity="1" /><path clip-path="url(#clip400)" d="M148.321 1745.52 L153.205 1745.52 L153.205 1751.4 L148.321 1751.4 L148.321 1745.52 Z" fill="#000000" fill-rule="nonzero" fill-opacity="1" /><path clip-path="url(#clip400)" d="M173.39 1719.92 Q169.779 1719.92 167.95 1723.48 Q166.145 1727.02 166.145 1734.15 Q166.145 1741.26 167.95 1744.82 Q169.779 1748.36 173.39 1748.36 Q177.024 1748.36 178.83 1744.82 Q180.659 1741.26 180.659 1734.15 Q180.659 1727.02 178.83 1723.48 Q177.024 1719.92 173.39 1719.92 M173.39 1716.21 Q179.2 1716.21 182.256 1720.82 Q185.334 1725.4 185.334 1734.15 Q185.334 1742.88 182.256 1747.48 Q179.2 1752.07 173.39 1752.07 Q167.58 1752.07 164.501 1747.48 Q161.446 1742.88 161.446 1734.15 Q161.446 1725.4 164.501 1720.82 Q167.58 1716.21 173.39 1716.21 Z" fill="#000000" fill-rule="nonzero" fill-opacity="1" /><path clip-path="url(#clip400)" d="M203.552 1719.92 Q199.941 1719.92 198.112 1723.48 Q196.307 1727.02 196.307 1734.15 Q196.307 1741.26 198.112 1744.82 Q199.941 1748.36 203.552 1748.36 Q207.186 1748.36 208.992 1744.82 Q210.82 1741.26 210.82 1734.15 Q210.82 1727.02 208.992 1723.48 Q207.186 1719.92 203.552 1719.92 M203.552 1716.21 Q209.362 1716.21 212.418 1720.82 Q215.496 1725.4 215.496 1734.15 Q215.496 1742.88 212.418 1747.48 Q209.362 1752.07 203.552 1752.07 Q197.742 1752.07 194.663 1747.48 Q191.608 1742.88 191.608 1734.15 Q191.608 1725.4 194.663 1720.82 Q197.742 1716.21 203.552 1716.21 Z" fill="#000000" fill-rule="nonzero" fill-opacity="1" /><path clip-path="url(#clip400)" d="M129.154 1303.73 Q125.543 1303.73 123.714 1307.29 Q121.909 1310.84 121.909 1317.97 Q121.909 1325.07 123.714 1328.64 Q125.543 1332.18 129.154 1332.18 Q132.788 1332.18 134.594 1328.64 Q136.423 1325.07 136.423 1317.97 Q136.423 1310.84 134.594 1307.29 Q132.788 1303.73 129.154 1303.73 M129.154 1300.03 Q134.964 1300.03 138.02 1304.63 Q141.099 1309.22 141.099 1317.97 Q141.099 1326.69 138.02 1331.3 Q134.964 1335.88 129.154 1335.88 Q123.344 1335.88 120.265 1331.3 Q117.21 1326.69 117.21 1317.97 Q117.21 1309.22 120.265 1304.63 Q123.344 1300.03 129.154 1300.03 Z" fill="#000000" fill-rule="nonzero" fill-opacity="1" /><path clip-path="url(#clip400)" d="M149.316 1329.33 L154.2 1329.33 L154.2 1335.21 L149.316 1335.21 L149.316 1329.33 Z" fill="#000000" fill-rule="nonzero" fill-opacity="1" /><path clip-path="url(#clip400)" d="M174.385 1303.73 Q170.774 1303.73 168.946 1307.29 Q167.14 1310.84 167.14 1317.97 Q167.14 1325.07 168.946 1328.64 Q170.774 1332.18 174.385 1332.18 Q178.02 1332.18 179.825 1328.64 Q181.654 1325.07 181.654 1317.97 Q181.654 1310.84 179.825 1307.29 Q178.02 1303.73 174.385 1303.73 M174.385 1300.03 Q180.196 1300.03 183.251 1304.63 Q186.33 1309.22 186.33 1317.97 Q186.33 1326.69 183.251 1331.3 Q180.196 1335.88 174.385 1335.88 Q168.575 1335.88 165.497 1331.3 Q162.441 1326.69 162.441 1317.97 Q162.441 1309.22 165.497 1304.63 Q168.575 1300.03 174.385 1300.03 Z" fill="#000000" fill-rule="nonzero" fill-opacity="1" /><path clip-path="url(#clip400)" d="M194.594 1300.65 L212.95 1300.65 L212.95 1304.59 L198.876 1304.59 L198.876 1313.06 Q199.895 1312.71 200.913 1312.55 Q201.932 1312.36 202.95 1312.36 Q208.737 1312.36 212.117 1315.54 Q215.496 1318.71 215.496 1324.12 Q215.496 1329.7 212.024 1332.8 Q208.552 1335.88 202.233 1335.88 Q200.057 1335.88 197.788 1335.51 Q195.543 1335.14 193.135 1334.4 L193.135 1329.7 Q195.219 1330.84 197.441 1331.39 Q199.663 1331.95 202.14 1331.95 Q206.145 1331.95 208.482 1329.84 Q210.82 1327.73 210.82 1324.12 Q210.82 1320.51 208.482 1318.41 Q206.145 1316.3 202.14 1316.3 Q200.265 1316.3 198.39 1316.72 Q196.538 1317.13 194.594 1318.01 L194.594 1300.65 Z" fill="#000000" fill-rule="nonzero" fill-opacity="1" /><path clip-path="url(#clip400)" d="M128.159 887.544 Q124.548 887.544 122.719 891.109 Q120.913 894.651 120.913 901.78 Q120.913 908.887 122.719 912.452 Q124.548 915.993 128.159 915.993 Q131.793 915.993 133.599 912.452 Q135.427 908.887 135.427 901.78 Q135.427 894.651 133.599 891.109 Q131.793 887.544 128.159 887.544 M128.159 883.841 Q133.969 883.841 137.025 888.447 Q140.103 893.03 140.103 901.78 Q140.103 910.507 137.025 915.114 Q133.969 919.697 128.159 919.697 Q122.349 919.697 119.27 915.114 Q116.214 910.507 116.214 901.78 Q116.214 893.03 119.27 888.447 Q122.349 883.841 128.159 883.841 Z" fill="#000000" fill-rule="nonzero" fill-opacity="1" /><path clip-path="url(#clip400)" d="M148.321 913.146 L153.205 913.146 L153.205 919.026 L148.321 919.026 L148.321 913.146 Z" fill="#000000" fill-rule="nonzero" fill-opacity="1" /><path clip-path="url(#clip400)" d="M164.2 915.09 L171.839 915.09 L171.839 888.725 L163.529 890.392 L163.529 886.132 L171.793 884.466 L176.469 884.466 L176.469 915.09 L184.108 915.09 L184.108 919.026 L164.2 919.026 L164.2 915.09 Z" fill="#000000" fill-rule="nonzero" fill-opacity="1" /><path clip-path="url(#clip400)" d="M203.552 887.544 Q199.941 887.544 198.112 891.109 Q196.307 894.651 196.307 901.78 Q196.307 908.887 198.112 912.452 Q199.941 915.993 203.552 915.993 Q207.186 915.993 208.992 912.452 Q210.82 908.887 210.82 901.78 Q210.82 894.651 208.992 891.109 Q207.186 887.544 203.552 887.544 M203.552 883.841 Q209.362 883.841 212.418 888.447 Q215.496 893.03 215.496 901.78 Q215.496 910.507 212.418 915.114 Q209.362 919.697 203.552 919.697 Q197.742 919.697 194.663 915.114 Q191.608 910.507 191.608 901.78 Q191.608 893.03 194.663 888.447 Q197.742 883.841 203.552 883.841 Z" fill="#000000" fill-rule="nonzero" fill-opacity="1" /><path clip-path="url(#clip400)" d="M129.154 471.359 Q125.543 471.359 123.714 474.923 Q121.909 478.465 121.909 485.595 Q121.909 492.701 123.714 496.266 Q125.543 499.808 129.154 499.808 Q132.788 499.808 134.594 496.266 Q136.423 492.701 136.423 485.595 Q136.423 478.465 134.594 474.923 Q132.788 471.359 129.154 471.359 M129.154 467.655 Q134.964 467.655 138.02 472.261 Q141.099 476.845 141.099 485.595 Q141.099 494.321 138.02 498.928 Q134.964 503.511 129.154 503.511 Q123.344 503.511 120.265 498.928 Q117.21 494.321 117.21 485.595 Q117.21 476.845 120.265 472.261 Q123.344 467.655 129.154 467.655 Z" fill="#000000" fill-rule="nonzero" fill-opacity="1" /><path clip-path="url(#clip400)" d="M149.316 496.96 L154.2 496.96 L154.2 502.84 L149.316 502.84 L149.316 496.96 Z" fill="#000000" fill-rule="nonzero" fill-opacity="1" /><path clip-path="url(#clip400)" d="M165.196 498.905 L172.835 498.905 L172.835 472.539 L164.524 474.206 L164.524 469.947 L172.788 468.28 L177.464 468.28 L177.464 498.905 L185.103 498.905 L185.103 502.84 L165.196 502.84 L165.196 498.905 Z" fill="#000000" fill-rule="nonzero" fill-opacity="1" /><path clip-path="url(#clip400)" d="M194.594 468.28 L212.95 468.28 L212.95 472.215 L198.876 472.215 L198.876 480.687 Q199.895 480.34 200.913 480.178 Q201.932 479.993 202.95 479.993 Q208.737 479.993 212.117 483.164 Q215.496 486.335 215.496 491.752 Q215.496 497.331 212.024 500.433 Q208.552 503.511 202.233 503.511 Q200.057 503.511 197.788 503.141 Q195.543 502.771 193.135 502.03 L193.135 497.331 Q195.219 498.465 197.441 499.021 Q199.663 499.576 202.14 499.576 Q206.145 499.576 208.482 497.47 Q210.82 495.363 210.82 491.752 Q210.82 488.141 208.482 486.034 Q206.145 483.928 202.14 483.928 Q200.265 483.928 198.39 484.345 Q196.538 484.761 194.594 485.641 L194.594 468.28 Z" fill="#000000" fill-rule="nonzero" fill-opacity="1" /><path clip-path="url(#clip400)" d="M14.1184 1172.88 L14.1184 1163.3 L46.4562 1151.18 L14.1184 1138.99 L14.1184 1129.41 L61.6384 1129.41 L61.6384 1135.68 L19.9112 1135.68 L52.5037 1147.93 L52.5037 1154.39 L19.9112 1166.64 L61.6384 1166.64 L61.6384 1172.88 L14.1184 1172.88 Z" fill="#000000" fill-rule="nonzero" fill-opacity="1" /><path clip-path="url(#clip400)" d="M42.3504 1086.41 L45.2149 1086.41 L45.2149 1113.33 Q51.2623 1112.95 54.4452 1109.7 Q57.5962 1106.43 57.5962 1100.6 Q57.5962 1097.23 56.7687 1094.08 Q55.9411 1090.89 54.2861 1087.77 L59.8242 1087.77 Q61.161 1090.92 61.8612 1094.23 Q62.5615 1097.55 62.5615 1100.95 Q62.5615 1109.48 57.5962 1114.48 Q52.631 1119.44 44.1646 1119.44 Q35.4117 1119.44 30.2873 1114.73 Q25.1311 1109.99 25.1311 1101.97 Q25.1311 1094.78 29.7781 1090.61 Q34.3932 1086.41 42.3504 1086.41 M40.6316 1092.26 Q35.8255 1092.33 32.9609 1094.97 Q30.0964 1097.58 30.0964 1101.91 Q30.0964 1106.81 32.8654 1109.77 Q35.6345 1112.7 40.6634 1113.14 L40.6316 1092.26 Z" fill="#000000" fill-rule="nonzero" fill-opacity="1" /><path clip-path="url(#clip400)" d="M43.719 1060.59 Q43.719 1067.69 45.3422 1070.43 Q46.9655 1073.16 50.8804 1073.16 Q53.9996 1073.16 55.8457 1071.13 Q57.6599 1069.06 57.6599 1065.53 Q57.6599 1060.66 54.2224 1057.73 Q50.7531 1054.77 45.0239 1054.77 L43.719 1054.77 L43.719 1060.59 M41.3 1048.91 L61.6384 1048.91 L61.6384 1054.77 L56.2276 1054.77 Q59.4741 1056.77 61.0337 1059.76 Q62.5615 1062.76 62.5615 1067.09 Q62.5615 1072.56 59.5059 1075.81 Q56.4186 1079.02 51.2623 1079.02 Q45.2467 1079.02 42.1912 1075.01 Q39.1357 1070.97 39.1357 1062.98 L39.1357 1054.77 L38.5628 1054.77 Q34.5205 1054.77 32.3244 1057.44 Q30.0964 1060.08 30.0964 1064.89 Q30.0964 1067.94 30.8284 1070.84 Q31.5605 1073.74 33.0246 1076.41 L27.6137 1076.41 Q26.3724 1073.2 25.7677 1070.17 Q25.1311 1067.15 25.1311 1064.28 Q25.1311 1056.55 29.1415 1052.73 Q33.1519 1048.91 41.3 1048.91 Z" fill="#000000" fill-rule="nonzero" fill-opacity="1" /><path clip-path="url(#clip400)" d="M40.1224 1007.22 L61.6384 1007.22 L61.6384 1013.07 L40.3133 1013.07 Q35.2526 1013.07 32.7381 1015.05 Q30.2237 1017.02 30.2237 1020.97 Q30.2237 1025.71 33.2474 1028.45 Q36.2711 1031.18 41.491 1031.18 L61.6384 1031.18 L61.6384 1037.07 L25.9905 1037.07 L25.9905 1031.18 L31.5287 1031.18 Q28.314 1029.08 26.7225 1026.25 Q25.1311 1023.38 25.1311 1019.66 Q25.1311 1013.52 28.9505 1010.37 Q32.7381 1007.22 40.1224 1007.22 Z" fill="#000000" fill-rule="nonzero" fill-opacity="1" /><path clip-path="url(#clip400)" d="M42.3504 944.323 L45.2149 944.323 L45.2149 971.249 Q51.2623 970.868 54.4452 967.621 Q57.5962 964.343 57.5962 958.518 Q57.5962 955.144 56.7687 951.993 Q55.9411 948.81 54.2861 945.691 L59.8242 945.691 Q61.161 948.842 61.8612 952.152 Q62.5615 955.463 62.5615 958.868 Q62.5615 967.398 57.5962 972.395 Q52.631 977.361 44.1646 977.361 Q35.4117 977.361 30.2873 972.65 Q25.1311 967.907 25.1311 959.887 Q25.1311 952.693 29.7781 948.524 Q34.3932 944.323 42.3504 944.323 M40.6316 950.179 Q35.8255 950.243 32.9609 952.884 Q30.0964 955.494 30.0964 959.823 Q30.0964 964.725 32.8654 967.685 Q35.6345 970.613 40.6634 971.059 L40.6316 950.179 Z" fill="#000000" fill-rule="nonzero" fill-opacity="1" /><path clip-path="url(#clip400)" d="M12.1132 934.71 L12.1132 928.854 L61.6384 928.854 L61.6384 934.71 L12.1132 934.71 Z" fill="#000000" fill-rule="nonzero" fill-opacity="1" /><path clip-path="url(#clip400)" d="M43.719 900.399 Q43.719 907.497 45.3422 910.234 Q46.9655 912.971 50.8804 912.971 Q53.9996 912.971 55.8457 910.934 Q57.6599 908.866 57.6599 905.333 Q57.6599 900.463 54.2224 897.535 Q50.7531 894.575 45.0239 894.575 L43.719 894.575 L43.719 900.399 M41.3 888.718 L61.6384 888.718 L61.6384 894.575 L56.2276 894.575 Q59.4741 896.58 61.0337 899.572 Q62.5615 902.564 62.5615 906.892 Q62.5615 912.367 59.5059 915.613 Q56.4186 918.828 51.2623 918.828 Q45.2467 918.828 42.1912 914.817 Q39.1357 910.775 39.1357 902.786 L39.1357 894.575 L38.5628 894.575 Q34.5205 894.575 32.3244 897.248 Q30.0964 899.89 30.0964 904.696 Q30.0964 907.752 30.8284 910.648 Q31.5605 913.544 33.0246 916.218 L27.6137 916.218 Q26.3724 913.003 25.7677 909.98 Q25.1311 906.956 25.1311 904.091 Q25.1311 896.357 29.1415 892.538 Q33.1519 888.718 41.3 888.718 Z" fill="#000000" fill-rule="nonzero" fill-opacity="1" /><path clip-path="url(#clip400)" d="M27.0408 853.93 L32.579 853.93 Q31.3059 856.412 30.6693 859.086 Q30.0327 861.759 30.0327 864.624 Q30.0327 868.984 31.3695 871.181 Q32.7063 873.345 35.3799 873.345 Q37.4169 873.345 38.5946 871.785 Q39.7404 870.226 40.7908 865.515 L41.2364 863.51 Q42.5732 857.272 45.0239 854.662 Q47.4429 852.02 51.8034 852.02 Q56.7687 852.02 59.6651 855.967 Q62.5615 859.881 62.5615 866.756 Q62.5615 869.621 61.9886 872.74 Q61.4475 875.828 60.3335 879.265 L54.2861 879.265 Q55.973 876.019 56.8323 872.867 Q57.6599 869.716 57.6599 866.629 Q57.6599 862.491 56.2594 860.263 Q54.8271 858.035 52.249 858.035 Q49.8619 858.035 48.5887 859.659 Q47.3156 861.25 46.1379 866.693 L45.6605 868.73 Q44.5147 874.172 42.1594 876.591 Q39.7722 879.01 35.6345 879.01 Q30.6056 879.01 27.8684 875.446 Q25.1311 871.881 25.1311 865.324 Q25.1311 862.078 25.6085 859.213 Q26.086 856.348 27.0408 853.93 Z" fill="#000000" fill-rule="nonzero" fill-opacity="1" /><path clip-path="url(#clip400)" d="M15.869 836.901 L25.9905 836.901 L25.9905 824.838 L30.542 824.838 L30.542 836.901 L49.8937 836.901 Q54.2542 836.901 55.4955 835.724 Q56.7368 834.514 56.7368 830.854 L56.7368 824.838 L61.6384 824.838 L61.6384 830.854 Q61.6384 837.633 59.124 840.211 Q56.5777 842.79 49.8937 842.79 L30.542 842.79 L30.542 847.086 L25.9905 847.086 L25.9905 842.79 L15.869 842.79 L15.869 836.901 Z" fill="#000000" fill-rule="nonzero" fill-opacity="1" /><path clip-path="url(#clip400)" d="M25.9905 817.136 L25.9905 811.279 L61.6384 811.279 L61.6384 817.136 L25.9905 817.136 M12.1132 817.136 L12.1132 811.279 L19.5293 811.279 L19.5293 817.136 L12.1132 817.136 Z" fill="#000000" fill-rule="nonzero" fill-opacity="1" /><path clip-path="url(#clip400)" d="M27.3591 773.371 L32.8336 773.371 Q31.465 775.854 30.7966 778.369 Q30.0964 780.851 30.0964 783.397 Q30.0964 789.095 33.7248 792.246 Q37.3214 795.397 43.8463 795.397 Q50.3711 795.397 53.9996 792.246 Q57.5962 789.095 57.5962 783.397 Q57.5962 780.851 56.9278 778.369 Q56.2276 775.854 54.859 773.371 L60.2698 773.371 Q61.4156 775.822 61.9886 778.464 Q62.5615 781.074 62.5615 784.034 Q62.5615 792.087 57.5007 796.829 Q52.44 801.572 43.8463 801.572 Q35.1253 801.572 30.1282 796.797 Q25.1311 791.991 25.1311 783.652 Q25.1311 780.947 25.704 778.369 Q26.2451 775.79 27.3591 773.371 Z" fill="#000000" fill-rule="nonzero" fill-opacity="1" /><path clip-path="url(#clip400)" d="M25.9905 763.186 L25.9905 757.33 L61.6384 757.33 L61.6384 763.186 L25.9905 763.186 M12.1132 763.186 L12.1132 757.33 L19.5293 757.33 L19.5293 763.186 L12.1132 763.186 Z" fill="#000000" fill-rule="nonzero" fill-opacity="1" /><path clip-path="url(#clip400)" d="M15.869 739.283 L25.9905 739.283 L25.9905 727.22 L30.542 727.22 L30.542 739.283 L49.8937 739.283 Q54.2542 739.283 55.4955 738.105 Q56.7368 736.896 56.7368 733.236 L56.7368 727.22 L61.6384 727.22 L61.6384 733.236 Q61.6384 740.015 59.124 742.593 Q56.5777 745.171 49.8937 745.171 L30.542 745.171 L30.542 749.468 L25.9905 749.468 L25.9905 745.171 L15.869 745.171 L15.869 739.283 Z" fill="#000000" fill-rule="nonzero" fill-opacity="1" /><path clip-path="url(#clip400)" d="M64.9486 704.686 Q71.3143 707.168 73.2559 709.523 Q75.1974 711.879 75.1974 715.826 L75.1974 720.504 L70.2958 720.504 L70.2958 717.067 Q70.2958 714.648 69.15 713.311 Q68.0041 711.974 63.7391 710.351 L61.0655 709.301 L25.9905 723.719 L25.9905 717.512 L53.8723 706.372 L25.9905 695.232 L25.9905 689.026 L64.9486 704.686 Z" fill="#000000" fill-rule="nonzero" fill-opacity="1" /><path clip-path="url(#clip400)" d="M617.709 16.7545 L617.709 25.383 Q613.577 21.5346 608.878 19.6307 Q604.219 17.7268 598.953 17.7268 Q588.583 17.7268 583.074 24.0867 Q577.565 30.4061 577.565 42.3968 Q577.565 54.3469 583.074 60.7069 Q588.583 67.0263 598.953 67.0263 Q604.219 67.0263 608.878 65.1223 Q613.577 63.2184 617.709 59.3701 L617.709 67.9175 Q613.415 70.8341 608.594 72.2924 Q603.814 73.7508 598.467 73.7508 Q584.735 73.7508 576.835 65.3654 Q568.936 56.9395 568.936 42.3968 Q568.936 27.8135 576.835 19.4281 Q584.735 11.0023 598.467 11.0023 Q603.895 11.0023 608.675 12.4606 Q613.496 13.8784 617.709 16.7545 Z" fill="#000000" fill-rule="nonzero" fill-opacity="1" /><path clip-path="url(#clip400)" d="M647.605 32.4315 Q641.609 32.4315 638.126 37.1306 Q634.642 41.7891 634.642 49.9314 Q634.642 58.0738 638.085 62.7728 Q641.569 67.4314 647.605 67.4314 Q653.559 67.4314 657.043 62.7323 Q660.527 58.0333 660.527 49.9314 Q660.527 41.8701 657.043 37.1711 Q653.559 32.4315 647.605 32.4315 M647.605 26.1121 Q657.327 26.1121 662.877 32.4315 Q668.426 38.7509 668.426 49.9314 Q668.426 61.0714 662.877 67.4314 Q657.327 73.7508 647.605 73.7508 Q637.842 73.7508 632.292 67.4314 Q626.783 61.0714 626.783 49.9314 Q626.783 38.7509 632.292 32.4315 Q637.842 26.1121 647.605 26.1121 Z" fill="#000000" fill-rule="nonzero" fill-opacity="1" /><path clip-path="url(#clip400)" d="M718.495 45.1919 L718.495 72.576 L711.042 72.576 L711.042 45.4349 Q711.042 38.994 708.53 35.7938 Q706.019 32.5936 700.996 32.5936 Q694.96 32.5936 691.476 36.4419 Q687.992 40.2903 687.992 46.9338 L687.992 72.576 L680.498 72.576 L680.498 27.2059 L687.992 27.2059 L687.992 34.2544 Q690.666 30.163 694.271 28.1376 Q697.917 26.1121 702.656 26.1121 Q710.475 26.1121 714.485 30.9732 Q718.495 35.7938 718.495 45.1919 Z" fill="#000000" fill-rule="nonzero" fill-opacity="1" /><path clip-path="url(#clip400)" d="M762.286 28.5427 L762.286 35.5912 Q759.126 33.9709 755.723 33.1607 Q752.321 32.3505 748.675 32.3505 Q743.125 32.3505 740.33 34.0519 Q737.575 35.7533 737.575 39.156 Q737.575 41.7486 739.56 43.2475 Q741.545 44.7058 747.54 46.0426 L750.093 46.6097 Q758.032 48.3111 761.354 51.4303 Q764.716 54.509 764.716 60.0587 Q764.716 66.3781 759.693 70.0644 Q754.711 73.7508 745.961 73.7508 Q742.315 73.7508 738.345 73.0216 Q734.416 72.3329 730.041 70.9151 L730.041 63.2184 Q734.172 65.3654 738.183 66.4591 Q742.193 67.5124 746.123 67.5124 Q751.389 67.5124 754.224 65.73 Q757.06 63.9071 757.06 60.6258 Q757.06 57.5877 754.994 55.9673 Q752.969 54.3469 746.042 52.8481 L743.449 52.2405 Q736.522 50.7821 733.443 47.7845 Q730.365 44.7463 730.365 39.4801 Q730.365 33.0797 734.902 29.5959 Q739.439 26.1121 747.783 26.1121 Q751.915 26.1121 755.561 26.7198 Q759.207 27.3274 762.286 28.5427 Z" fill="#000000" fill-rule="nonzero" fill-opacity="1" /><path clip-path="url(#clip400)" d="M815.393 48.0275 L815.393 51.6733 L781.122 51.6733 Q781.609 59.3701 785.74 63.421 Q789.913 67.4314 797.326 67.4314 Q801.62 67.4314 805.63 66.3781 Q809.681 65.3249 813.651 63.2184 L813.651 70.267 Q809.641 71.9684 805.428 72.8596 Q801.215 73.7508 796.88 73.7508 Q786.024 73.7508 779.664 67.4314 Q773.345 61.1119 773.345 50.3365 Q773.345 39.1965 779.34 32.6746 Q785.376 26.1121 795.584 26.1121 Q804.739 26.1121 810.046 32.0264 Q815.393 37.9003 815.393 48.0275 M807.939 45.84 Q807.858 39.7232 804.496 36.0774 Q801.174 32.4315 795.665 32.4315 Q789.427 32.4315 785.659 35.9558 Q781.933 39.4801 781.365 45.8805 L807.939 45.84 Z" fill="#000000" fill-rule="nonzero" fill-opacity="1" /><path clip-path="url(#clip400)" d="M853.917 34.1734 Q852.661 33.4443 851.163 33.1202 Q849.704 32.7556 847.922 32.7556 Q841.602 32.7556 838.2 36.8875 Q834.837 40.9789 834.837 48.6757 L834.837 72.576 L827.343 72.576 L827.343 27.2059 L834.837 27.2059 L834.837 34.2544 Q837.187 30.1225 840.954 28.1376 Q844.722 26.1121 850.109 26.1121 Q850.879 26.1121 851.811 26.2337 Q852.742 26.3147 853.877 26.5172 L853.917 34.1734 Z" fill="#000000" fill-rule="nonzero" fill-opacity="1" /><path clip-path="url(#clip400)" d="M856.388 27.2059 L864.288 27.2059 L878.466 65.2844 L892.644 27.2059 L900.543 27.2059 L883.529 72.576 L873.402 72.576 L856.388 27.2059 Z" fill="#000000" fill-rule="nonzero" fill-opacity="1" /><path clip-path="url(#clip400)" d="M931.451 49.7694 Q922.418 49.7694 918.934 51.8354 Q915.45 53.9013 915.45 58.8839 Q915.45 62.8538 918.043 65.2034 Q920.676 67.5124 925.173 67.5124 Q931.37 67.5124 935.097 63.1374 Q938.865 58.7219 938.865 51.4303 L938.865 49.7694 L931.451 49.7694 M946.318 46.6907 L946.318 72.576 L938.865 72.576 L938.865 65.6895 Q936.313 69.8214 932.505 71.8063 Q928.697 73.7508 923.188 73.7508 Q916.22 73.7508 912.088 69.8619 Q907.997 65.9325 907.997 59.3701 Q907.997 51.7138 913.101 47.825 Q918.246 43.9361 928.413 43.9361 L938.865 43.9361 L938.865 43.2069 Q938.865 38.0623 935.462 35.2672 Q932.1 32.4315 925.983 32.4315 Q922.094 32.4315 918.408 33.3632 Q914.721 34.295 911.319 36.1584 L911.319 29.2718 Q915.41 27.692 919.258 26.9223 Q923.107 26.1121 926.752 26.1121 Q936.596 26.1121 941.457 31.2163 Q946.318 36.3204 946.318 46.6907 Z" fill="#000000" fill-rule="nonzero" fill-opacity="1" /><path clip-path="url(#clip400)" d="M969.044 14.324 L969.044 27.2059 L984.397 27.2059 L984.397 32.9987 L969.044 32.9987 L969.044 57.6282 Q969.044 63.1779 970.543 64.7578 Q972.082 66.3376 976.741 66.3376 L984.397 66.3376 L984.397 72.576 L976.741 72.576 Q968.112 72.576 964.831 69.3758 Q961.55 66.1351 961.55 57.6282 L961.55 32.9987 L956.081 32.9987 L956.081 27.2059 L961.55 27.2059 L961.55 14.324 L969.044 14.324 Z" fill="#000000" fill-rule="nonzero" fill-opacity="1" /><path clip-path="url(#clip400)" d="M994.2 27.2059 L1001.65 27.2059 L1001.65 72.576 L994.2 72.576 L994.2 27.2059 M994.2 9.54393 L1001.65 9.54393 L1001.65 18.9825 L994.2 18.9825 L994.2 9.54393 Z" fill="#000000" fill-rule="nonzero" fill-opacity="1" /><path clip-path="url(#clip400)" d="M1034.83 32.4315 Q1028.84 32.4315 1025.35 37.1306 Q1021.87 41.7891 1021.87 49.9314 Q1021.87 58.0738 1025.31 62.7728 Q1028.79 67.4314 1034.83 67.4314 Q1040.79 67.4314 1044.27 62.7323 Q1047.75 58.0333 1047.75 49.9314 Q1047.75 41.8701 1044.27 37.1711 Q1040.79 32.4315 1034.83 32.4315 M1034.83 26.1121 Q1044.55 26.1121 1050.1 32.4315 Q1055.65 38.7509 1055.65 49.9314 Q1055.65 61.0714 1050.1 67.4314 Q1044.55 73.7508 1034.83 73.7508 Q1025.07 73.7508 1019.52 67.4314 Q1014.01 61.0714 1014.01 49.9314 Q1014.01 38.7509 1019.52 32.4315 Q1025.07 26.1121 1034.83 26.1121 Z" fill="#000000" fill-rule="nonzero" fill-opacity="1" /><path clip-path="url(#clip400)" d="M1105.72 45.1919 L1105.72 72.576 L1098.27 72.576 L1098.27 45.4349 Q1098.27 38.994 1095.76 35.7938 Q1093.24 32.5936 1088.22 32.5936 Q1082.19 32.5936 1078.7 36.4419 Q1075.22 40.2903 1075.22 46.9338 L1075.22 72.576 L1067.72 72.576 L1067.72 27.2059 L1075.22 27.2059 L1075.22 34.2544 Q1077.89 30.163 1081.5 28.1376 Q1085.14 26.1121 1089.88 26.1121 Q1097.7 26.1121 1101.71 30.9732 Q1105.72 35.7938 1105.72 45.1919 Z" fill="#000000" fill-rule="nonzero" fill-opacity="1" /><path clip-path="url(#clip400)" d="M1154.17 65.7705 L1154.17 89.8329 L1146.68 89.8329 L1146.68 27.2059 L1154.17 27.2059 L1154.17 34.0924 Q1156.52 30.0415 1160.08 28.0971 Q1163.69 26.1121 1168.67 26.1121 Q1176.94 26.1121 1182.08 32.6746 Q1187.27 39.2371 1187.27 49.9314 Q1187.27 60.6258 1182.08 67.1883 Q1176.94 73.7508 1168.67 73.7508 Q1163.69 73.7508 1160.08 71.8063 Q1156.52 69.8214 1154.17 65.7705 M1179.53 49.9314 Q1179.53 41.7081 1176.13 37.0496 Q1172.76 32.3505 1166.85 32.3505 Q1160.94 32.3505 1157.53 37.0496 Q1154.17 41.7081 1154.17 49.9314 Q1154.17 58.1548 1157.53 62.8538 Q1160.94 67.5124 1166.85 67.5124 Q1172.76 67.5124 1176.13 62.8538 Q1179.53 58.1548 1179.53 49.9314 Z" fill="#000000" fill-rule="nonzero" fill-opacity="1" /><path clip-path="url(#clip400)" d="M1225.91 34.1734 Q1224.66 33.4443 1223.16 33.1202 Q1221.7 32.7556 1219.92 32.7556 Q1213.6 32.7556 1210.19 36.8875 Q1206.83 40.9789 1206.83 48.6757 L1206.83 72.576 L1199.34 72.576 L1199.34 27.2059 L1206.83 27.2059 L1206.83 34.2544 Q1209.18 30.1225 1212.95 28.1376 Q1216.72 26.1121 1222.1 26.1121 Q1222.87 26.1121 1223.81 26.2337 Q1224.74 26.3147 1225.87 26.5172 L1225.91 34.1734 Z" fill="#000000" fill-rule="nonzero" fill-opacity="1" /><path clip-path="url(#clip400)" d="M1233.73 27.2059 L1241.18 27.2059 L1241.18 72.576 L1233.73 72.576 L1233.73 27.2059 M1233.73 9.54393 L1241.18 9.54393 L1241.18 18.9825 L1233.73 18.9825 L1233.73 9.54393 Z" fill="#000000" fill-rule="nonzero" fill-opacity="1" /><path clip-path="url(#clip400)" d="M1274.36 32.4315 Q1268.37 32.4315 1264.88 37.1306 Q1261.4 41.7891 1261.4 49.9314 Q1261.4 58.0738 1264.84 62.7728 Q1268.32 67.4314 1274.36 67.4314 Q1280.32 67.4314 1283.8 62.7323 Q1287.28 58.0333 1287.28 49.9314 Q1287.28 41.8701 1283.8 37.1711 Q1280.32 32.4315 1274.36 32.4315 M1274.36 26.1121 Q1284.08 26.1121 1289.63 32.4315 Q1295.18 38.7509 1295.18 49.9314 Q1295.18 61.0714 1289.63 67.4314 Q1284.08 73.7508 1274.36 73.7508 Q1264.6 73.7508 1259.05 67.4314 Q1253.54 61.0714 1253.54 49.9314 Q1253.54 38.7509 1259.05 32.4315 Q1264.6 26.1121 1274.36 26.1121 Z" fill="#000000" fill-rule="nonzero" fill-opacity="1" /><path clip-path="url(#clip400)" d="M1333.83 34.1734 Q1332.57 33.4443 1331.07 33.1202 Q1329.61 32.7556 1327.83 32.7556 Q1321.51 32.7556 1318.11 36.8875 Q1314.75 40.9789 1314.75 48.6757 L1314.75 72.576 L1307.25 72.576 L1307.25 27.2059 L1314.75 27.2059 L1314.75 34.2544 Q1317.1 30.1225 1320.86 28.1376 Q1324.63 26.1121 1330.02 26.1121 Q1330.79 26.1121 1331.72 26.2337 Q1332.65 26.3147 1333.79 26.5172 L1333.83 34.1734 Z" fill="#000000" fill-rule="nonzero" fill-opacity="1" /><path clip-path="url(#clip400)" d="M1341.65 27.2059 L1349.1 27.2059 L1349.1 72.576 L1341.65 72.576 L1341.65 27.2059 M1341.65 9.54393 L1349.1 9.54393 L1349.1 18.9825 L1341.65 18.9825 L1341.65 9.54393 Z" fill="#000000" fill-rule="nonzero" fill-opacity="1" /><path clip-path="url(#clip400)" d="M1372.07 14.324 L1372.07 27.2059 L1387.42 27.2059 L1387.42 32.9987 L1372.07 32.9987 L1372.07 57.6282 Q1372.07 63.1779 1373.57 64.7578 Q1375.11 66.3376 1379.77 66.3376 L1387.42 66.3376 L1387.42 72.576 L1379.77 72.576 Q1371.14 72.576 1367.86 69.3758 Q1364.57 66.1351 1364.57 57.6282 L1364.57 32.9987 L1359.11 32.9987 L1359.11 27.2059 L1364.57 27.2059 L1364.57 14.324 L1372.07 14.324 Z" fill="#000000" fill-rule="nonzero" fill-opacity="1" /><path clip-path="url(#clip400)" d="M1397.22 27.2059 L1404.68 27.2059 L1404.68 72.576 L1397.22 72.576 L1397.22 27.2059 M1397.22 9.54393 L1404.68 9.54393 L1404.68 18.9825 L1397.22 18.9825 L1397.22 9.54393 Z" fill="#000000" fill-rule="nonzero" fill-opacity="1" /><path clip-path="url(#clip400)" d="M1459.08 48.0275 L1459.08 51.6733 L1424.81 51.6733 Q1425.3 59.3701 1429.43 63.421 Q1433.6 67.4314 1441.01 67.4314 Q1445.31 67.4314 1449.32 66.3781 Q1453.37 65.3249 1457.34 63.2184 L1457.34 70.267 Q1453.33 71.9684 1449.12 72.8596 Q1444.9 73.7508 1440.57 73.7508 Q1429.71 73.7508 1423.35 67.4314 Q1417.03 61.1119 1417.03 50.3365 Q1417.03 39.1965 1423.03 32.6746 Q1429.06 26.1121 1439.27 26.1121 Q1448.43 26.1121 1453.73 32.0264 Q1459.08 37.9003 1459.08 48.0275 M1451.63 45.84 Q1451.55 39.7232 1448.18 36.0774 Q1444.86 32.4315 1439.35 32.4315 Q1433.12 32.4315 1429.35 35.9558 Q1425.62 39.4801 1425.05 45.8805 L1451.63 45.84 Z" fill="#000000" fill-rule="nonzero" fill-opacity="1" /><path clip-path="url(#clip400)" d="M1500.24 28.5427 L1500.24 35.5912 Q1497.08 33.9709 1493.68 33.1607 Q1490.27 32.3505 1486.63 32.3505 Q1481.08 32.3505 1478.28 34.0519 Q1475.53 35.7533 1475.53 39.156 Q1475.53 41.7486 1477.51 43.2475 Q1479.5 44.7058 1485.49 46.0426 L1488.05 46.6097 Q1495.99 48.3111 1499.31 51.4303 Q1502.67 54.509 1502.67 60.0587 Q1502.67 66.3781 1497.65 70.0644 Q1492.66 73.7508 1483.91 73.7508 Q1480.27 73.7508 1476.3 73.0216 Q1472.37 72.3329 1467.99 70.9151 L1467.99 63.2184 Q1472.13 65.3654 1476.14 66.4591 Q1480.15 67.5124 1484.08 67.5124 Q1489.34 67.5124 1492.18 65.73 Q1495.01 63.9071 1495.01 60.6258 Q1495.01 57.5877 1492.95 55.9673 Q1490.92 54.3469 1483.99 52.8481 L1481.4 52.2405 Q1474.48 50.7821 1471.4 47.7845 Q1468.32 44.7463 1468.32 39.4801 Q1468.32 33.0797 1472.85 29.5959 Q1477.39 26.1121 1485.74 26.1121 Q1489.87 26.1121 1493.51 26.7198 Q1497.16 27.3274 1500.24 28.5427 Z" fill="#000000" fill-rule="nonzero" fill-opacity="1" /><path clip-path="url(#clip400)" d="M1561.53 49.7694 Q1552.5 49.7694 1549.01 51.8354 Q1545.53 53.9013 1545.53 58.8839 Q1545.53 62.8538 1548.12 65.2034 Q1550.75 67.5124 1555.25 67.5124 Q1561.45 67.5124 1565.17 63.1374 Q1568.94 58.7219 1568.94 51.4303 L1568.94 49.7694 L1561.53 49.7694 M1576.4 46.6907 L1576.4 72.576 L1568.94 72.576 L1568.94 65.6895 Q1566.39 69.8214 1562.58 71.8063 Q1558.77 73.7508 1553.27 73.7508 Q1546.3 73.7508 1542.17 69.8619 Q1538.07 65.9325 1538.07 59.3701 Q1538.07 51.7138 1543.18 47.825 Q1548.32 43.9361 1558.49 43.9361 L1568.94 43.9361 L1568.94 43.2069 Q1568.94 38.0623 1565.54 35.2672 Q1562.18 32.4315 1556.06 32.4315 Q1552.17 32.4315 1548.49 33.3632 Q1544.8 34.295 1541.4 36.1584 L1541.4 29.2718 Q1545.49 27.692 1549.34 26.9223 Q1553.18 26.1121 1556.83 26.1121 Q1566.67 26.1121 1571.53 31.2163 Q1576.4 36.3204 1576.4 46.6907 Z" fill="#000000" fill-rule="nonzero" fill-opacity="1" /><path clip-path="url(#clip400)" d="M1624.4 28.9478 L1624.4 35.9153 Q1621.24 34.1734 1618.04 33.3227 Q1614.88 32.4315 1611.64 32.4315 Q1604.39 32.4315 1600.38 37.0496 Q1596.37 41.6271 1596.37 49.9314 Q1596.37 58.2358 1600.38 62.8538 Q1604.39 67.4314 1611.64 67.4314 Q1614.88 67.4314 1618.04 66.5807 Q1621.24 65.6895 1624.4 63.9476 L1624.4 70.8341 Q1621.28 72.2924 1617.92 73.0216 Q1614.6 73.7508 1610.83 73.7508 Q1600.58 73.7508 1594.54 67.3098 Q1588.51 60.8689 1588.51 49.9314 Q1588.51 38.832 1594.58 32.472 Q1600.7 26.1121 1611.31 26.1121 Q1614.76 26.1121 1618.04 26.8413 Q1621.32 27.5299 1624.4 28.9478 Z" fill="#000000" fill-rule="nonzero" fill-opacity="1" /><path clip-path="url(#clip400)" d="M1663.65 34.1734 Q1662.4 33.4443 1660.9 33.1202 Q1659.44 32.7556 1657.66 32.7556 Q1651.34 32.7556 1647.93 36.8875 Q1644.57 40.9789 1644.57 48.6757 L1644.57 72.576 L1637.08 72.576 L1637.08 27.2059 L1644.57 27.2059 L1644.57 34.2544 Q1646.92 30.1225 1650.69 28.1376 Q1654.46 26.1121 1659.84 26.1121 Q1660.61 26.1121 1661.55 26.2337 Q1662.48 26.3147 1663.61 26.5172 L1663.65 34.1734 Z" fill="#000000" fill-rule="nonzero" fill-opacity="1" /><path clip-path="url(#clip400)" d="M1687.23 32.4315 Q1681.23 32.4315 1677.75 37.1306 Q1674.27 41.7891 1674.27 49.9314 Q1674.27 58.0738 1677.71 62.7728 Q1681.19 67.4314 1687.23 67.4314 Q1693.18 67.4314 1696.67 62.7323 Q1700.15 58.0333 1700.15 49.9314 Q1700.15 41.8701 1696.67 37.1711 Q1693.18 32.4315 1687.23 32.4315 M1687.23 26.1121 Q1696.95 26.1121 1702.5 32.4315 Q1708.05 38.7509 1708.05 49.9314 Q1708.05 61.0714 1702.5 67.4314 Q1696.95 73.7508 1687.23 73.7508 Q1677.47 73.7508 1671.92 67.4314 Q1666.41 61.0714 1666.41 49.9314 Q1666.41 38.7509 1671.92 32.4315 Q1677.47 26.1121 1687.23 26.1121 Z" fill="#000000" fill-rule="nonzero" fill-opacity="1" /><path clip-path="url(#clip400)" d="M1749.33 28.5427 L1749.33 35.5912 Q1746.17 33.9709 1742.77 33.1607 Q1739.36 32.3505 1735.72 32.3505 Q1730.17 32.3505 1727.37 34.0519 Q1724.62 35.7533 1724.62 39.156 Q1724.62 41.7486 1726.6 43.2475 Q1728.59 44.7058 1734.58 46.0426 L1737.14 46.6097 Q1745.08 48.3111 1748.4 51.4303 Q1751.76 54.509 1751.76 60.0587 Q1751.76 66.3781 1746.74 70.0644 Q1741.75 73.7508 1733 73.7508 Q1729.36 73.7508 1725.39 73.0216 Q1721.46 72.3329 1717.08 70.9151 L1717.08 63.2184 Q1721.22 65.3654 1725.23 66.4591 Q1729.24 67.5124 1733.17 67.5124 Q1738.43 67.5124 1741.27 65.73 Q1744.1 63.9071 1744.1 60.6258 Q1744.1 57.5877 1742.04 55.9673 Q1740.01 54.3469 1733.08 52.8481 L1730.49 52.2405 Q1723.57 50.7821 1720.49 47.7845 Q1717.41 44.7463 1717.41 39.4801 Q1717.41 33.0797 1721.94 29.5959 Q1726.48 26.1121 1734.83 26.1121 Q1738.96 26.1121 1742.6 26.7198 Q1746.25 27.3274 1749.33 28.5427 Z" fill="#000000" fill-rule="nonzero" fill-opacity="1" /><path clip-path="url(#clip400)" d="M1792.55 28.5427 L1792.55 35.5912 Q1789.39 33.9709 1785.99 33.1607 Q1782.59 32.3505 1778.94 32.3505 Q1773.39 32.3505 1770.6 34.0519 Q1767.84 35.7533 1767.84 39.156 Q1767.84 41.7486 1769.83 43.2475 Q1771.81 44.7058 1777.81 46.0426 L1780.36 46.6097 Q1788.3 48.3111 1791.62 51.4303 Q1794.98 54.509 1794.98 60.0587 Q1794.98 66.3781 1789.96 70.0644 Q1784.98 73.7508 1776.23 73.7508 Q1772.58 73.7508 1768.61 73.0216 Q1764.68 72.3329 1760.31 70.9151 L1760.31 63.2184 Q1764.44 65.3654 1768.45 66.4591 Q1772.46 67.5124 1776.39 67.5124 Q1781.66 67.5124 1784.49 65.73 Q1787.33 63.9071 1787.33 60.6258 Q1787.33 57.5877 1785.26 55.9673 Q1783.24 54.3469 1776.31 52.8481 L1773.72 52.2405 Q1766.79 50.7821 1763.71 47.7845 Q1760.63 44.7463 1760.63 39.4801 Q1760.63 33.0797 1765.17 29.5959 Q1769.71 26.1121 1778.05 26.1121 Q1782.18 26.1121 1785.83 26.7198 Q1789.47 27.3274 1792.55 28.5427 Z" fill="#000000" fill-rule="nonzero" fill-opacity="1" /><path clip-path="url(#clip400)" d="M1833.22 9.54393 L1840.68 9.54393 L1840.68 72.576 L1833.22 72.576 L1833.22 9.54393 Z" fill="#000000" fill-rule="nonzero" fill-opacity="1" /><path clip-path="url(#clip400)" d="M1856.27 27.2059 L1863.73 27.2059 L1863.73 72.576 L1856.27 72.576 L1856.27 27.2059 M1856.27 9.54393 L1863.73 9.54393 L1863.73 18.9825 L1856.27 18.9825 L1856.27 9.54393 Z" fill="#000000" fill-rule="nonzero" fill-opacity="1" /><path clip-path="url(#clip400)" d="M1902.29 9.54393 L1902.29 15.7418 L1895.16 15.7418 Q1891.15 15.7418 1889.57 17.3622 Q1888.03 18.9825 1888.03 23.1955 L1888.03 27.2059 L1900.31 27.2059 L1900.31 32.9987 L1888.03 32.9987 L1888.03 72.576 L1880.54 72.576 L1880.54 32.9987 L1873.41 32.9987 L1873.41 27.2059 L1880.54 27.2059 L1880.54 24.0462 Q1880.54 16.471 1884.06 13.0277 Q1887.59 9.54393 1895.24 9.54393 L1902.29 9.54393 Z" fill="#000000" fill-rule="nonzero" fill-opacity="1" /><path clip-path="url(#clip400)" d="M1947.34 48.0275 L1947.34 51.6733 L1913.07 51.6733 Q1913.55 59.3701 1917.68 63.421 Q1921.86 67.4314 1929.27 67.4314 Q1933.56 67.4314 1937.57 66.3781 Q1941.63 65.3249 1945.6 63.2184 L1945.6 70.267 Q1941.58 71.9684 1937.37 72.8596 Q1933.16 73.7508 1928.82 73.7508 Q1917.97 73.7508 1911.61 67.4314 Q1905.29 61.1119 1905.29 50.3365 Q1905.29 39.1965 1911.28 32.6746 Q1917.32 26.1121 1927.53 26.1121 Q1936.68 26.1121 1941.99 32.0264 Q1947.34 37.9003 1947.34 48.0275 M1939.88 45.84 Q1939.8 39.7232 1936.44 36.0774 Q1933.12 32.4315 1927.61 32.4315 Q1921.37 32.4315 1917.6 35.9558 Q1913.88 39.4801 1913.31 45.8805 L1939.88 45.84 Z" fill="#000000" fill-rule="nonzero" fill-opacity="1" /><path clip-path="url(#clip400)" d="M2023.66 45.1919 L2023.66 72.576 L2016.2 72.576 L2016.2 45.4349 Q2016.2 38.994 2013.69 35.7938 Q2011.18 32.5936 2006.16 32.5936 Q2000.12 32.5936 1996.64 36.4419 Q1993.15 40.2903 1993.15 46.9338 L1993.15 72.576 L1985.66 72.576 L1985.66 9.54393 L1993.15 9.54393 L1993.15 34.2544 Q1995.83 30.163 1999.43 28.1376 Q2003.08 26.1121 2007.82 26.1121 Q2015.64 26.1121 2019.65 30.9732 Q2023.66 35.7938 2023.66 45.1919 Z" fill="#000000" fill-rule="nonzero" fill-opacity="1" /><path clip-path="url(#clip400)" d="M2038.52 27.2059 L2045.98 27.2059 L2045.98 72.576 L2038.52 72.576 L2038.52 27.2059 M2038.52 9.54393 L2045.98 9.54393 L2045.98 18.9825 L2038.52 18.9825 L2038.52 9.54393 Z" fill="#000000" fill-rule="nonzero" fill-opacity="1" /><path clip-path="url(#clip400)" d="M2090.5 28.5427 L2090.5 35.5912 Q2087.34 33.9709 2083.93 33.1607 Q2080.53 32.3505 2076.89 32.3505 Q2071.34 32.3505 2068.54 34.0519 Q2065.79 35.7533 2065.79 39.156 Q2065.79 41.7486 2067.77 43.2475 Q2069.76 44.7058 2075.75 46.0426 L2078.3 46.6097 Q2086.24 48.3111 2089.56 51.4303 Q2092.93 54.509 2092.93 60.0587 Q2092.93 66.3781 2087.9 70.0644 Q2082.92 73.7508 2074.17 73.7508 Q2070.53 73.7508 2066.56 73.0216 Q2062.63 72.3329 2058.25 70.9151 L2058.25 63.2184 Q2062.38 65.3654 2066.39 66.4591 Q2070.4 67.5124 2074.33 67.5124 Q2079.6 67.5124 2082.43 65.73 Q2085.27 63.9071 2085.27 60.6258 Q2085.27 57.5877 2083.2 55.9673 Q2081.18 54.3469 2074.25 52.8481 L2071.66 52.2405 Q2064.73 50.7821 2061.65 47.7845 Q2058.58 44.7463 2058.58 39.4801 Q2058.58 33.0797 2063.11 29.5959 Q2067.65 26.1121 2075.99 26.1121 Q2080.13 26.1121 2083.77 26.7198 Q2087.42 27.3274 2090.5 28.5427 Z" fill="#000000" fill-rule="nonzero" fill-opacity="1" /><path clip-path="url(#clip400)" d="M2112.17 14.324 L2112.17 27.2059 L2127.52 27.2059 L2127.52 32.9987 L2112.17 32.9987 L2112.17 57.6282 Q2112.17 63.1779 2113.67 64.7578 Q2115.21 66.3376 2119.87 66.3376 L2127.52 66.3376 L2127.52 72.576 L2119.87 72.576 Q2111.24 72.576 2107.96 69.3758 Q2104.67 66.1351 2104.67 57.6282 L2104.67 32.9987 L2099.21 32.9987 L2099.21 27.2059 L2104.67 27.2059 L2104.67 14.324 L2112.17 14.324 Z" fill="#000000" fill-rule="nonzero" fill-opacity="1" /><path clip-path="url(#clip400)" d="M2154.91 32.4315 Q2148.91 32.4315 2145.43 37.1306 Q2141.94 41.7891 2141.94 49.9314 Q2141.94 58.0738 2145.39 62.7728 Q2148.87 67.4314 2154.91 67.4314 Q2160.86 67.4314 2164.34 62.7323 Q2167.83 58.0333 2167.83 49.9314 Q2167.83 41.8701 2164.34 37.1711 Q2160.86 32.4315 2154.91 32.4315 M2154.91 26.1121 Q2164.63 26.1121 2170.18 32.4315 Q2175.73 38.7509 2175.73 49.9314 Q2175.73 61.0714 2170.18 67.4314 Q2164.63 73.7508 2154.91 73.7508 Q2145.14 73.7508 2139.59 67.4314 Q2134.08 61.0714 2134.08 49.9314 Q2134.08 38.7509 2139.59 32.4315 Q2145.14 26.1121 2154.91 26.1121 Z" fill="#000000" fill-rule="nonzero" fill-opacity="1" /><path clip-path="url(#clip400)" d="M2214.37 34.1734 Q2213.12 33.4443 2211.62 33.1202 Q2210.16 32.7556 2208.38 32.7556 Q2202.06 32.7556 2198.66 36.8875 Q2195.29 40.9789 2195.29 48.6757 L2195.29 72.576 L2187.8 72.576 L2187.8 27.2059 L2195.29 27.2059 L2195.29 34.2544 Q2197.64 30.1225 2201.41 28.1376 Q2205.18 26.1121 2210.57 26.1121 Q2211.33 26.1121 2212.27 26.2337 Q2213.2 26.3147 2214.33 26.5172 L2214.37 34.1734 Z" fill="#000000" fill-rule="nonzero" fill-opacity="1" /><path clip-path="url(#clip400)" d="M2222.19 27.2059 L2229.64 27.2059 L2229.64 72.576 L2222.19 72.576 L2222.19 27.2059 M2222.19 9.54393 L2229.64 9.54393 L2229.64 18.9825 L2222.19 18.9825 L2222.19 9.54393 Z" fill="#000000" fill-rule="nonzero" fill-opacity="1" /><path clip-path="url(#clip400)" d="M2284.05 48.0275 L2284.05 51.6733 L2249.78 51.6733 Q2250.26 59.3701 2254.4 63.421 Q2258.57 67.4314 2265.98 67.4314 Q2270.28 67.4314 2274.29 66.3781 Q2278.34 65.3249 2282.31 63.2184 L2282.31 70.267 Q2278.3 71.9684 2274.08 72.8596 Q2269.87 73.7508 2265.54 73.7508 Q2254.68 73.7508 2248.32 67.4314 Q2242 61.1119 2242 50.3365 Q2242 39.1965 2248 32.6746 Q2254.03 26.1121 2264.24 26.1121 Q2273.39 26.1121 2278.7 32.0264 Q2284.05 37.9003 2284.05 48.0275 M2276.59 45.84 Q2276.51 39.7232 2273.15 36.0774 Q2269.83 32.4315 2264.32 32.4315 Q2258.08 32.4315 2254.31 35.9558 Q2250.59 39.4801 2250.02 45.8805 L2276.59 45.84 Z" fill="#000000" fill-rule="nonzero" fill-opacity="1" /><path clip-path="url(#clip400)" d="M2325.21 28.5427 L2325.21 35.5912 Q2322.05 33.9709 2318.64 33.1607 Q2315.24 32.3505 2311.59 32.3505 Q2306.04 32.3505 2303.25 34.0519 Q2300.5 35.7533 2300.5 39.156 Q2300.5 41.7486 2302.48 43.2475 Q2304.46 44.7058 2310.46 46.0426 L2313.01 46.6097 Q2320.95 48.3111 2324.27 51.4303 Q2327.64 54.509 2327.64 60.0587 Q2327.64 66.3781 2322.61 70.0644 Q2317.63 73.7508 2308.88 73.7508 Q2305.23 73.7508 2301.26 73.0216 Q2297.34 72.3329 2292.96 70.9151 L2292.96 63.2184 Q2297.09 65.3654 2301.1 66.4591 Q2305.11 67.5124 2309.04 67.5124 Q2314.31 67.5124 2317.14 65.73 Q2319.98 63.9071 2319.98 60.6258 Q2319.98 57.5877 2317.91 55.9673 Q2315.89 54.3469 2308.96 52.8481 L2306.37 52.2405 Q2299.44 50.7821 2296.36 47.7845 Q2293.28 44.7463 2293.28 39.4801 Q2293.28 33.0797 2297.82 29.5959 Q2302.36 26.1121 2310.7 26.1121 Q2314.84 26.1121 2318.48 26.7198 Q2322.13 27.3274 2325.21 28.5427 Z" fill="#000000" fill-rule="nonzero" fill-opacity="1" /><path clip-path="url(#clip401)" d="M373.961 976.414 L373.961 1734.12 L527.436 1734.12 L527.436 976.414 L373.961 976.414 L373.961 976.414  Z" fill="#008080" fill-rule="evenodd" fill-opacity="0.7"/>
<polyline clip-path="url(#clip401)" style="stroke:#000000; stroke-linecap:round; stroke-linejoin:round; stroke-width:4; stroke-opacity:0.7; fill:none" points="373.961,976.414 373.961,1734.12 527.436,1734.12 527.436,976.414 373.961,976.414 "/>
<path clip-path="url(#clip401)" d="M1141.34 752.207 L1141.34 1734.12 L1294.81 1734.12 L1294.81 752.207 L1141.34 752.207 L1141.34 752.207  Z" fill="#008080" fill-rule="evenodd" fill-opacity="0.7"/>
<polyline clip-path="url(#clip401)" style="stroke:#000000; stroke-linecap:round; stroke-linejoin:round; stroke-width:4; stroke-opacity:0.7; fill:none" points="1141.34,752.207 1141.34,1734.12 1294.81,1734.12 1294.81,752.207 1141.34,752.207 "/>
<path clip-path="url(#clip401)" d="M1908.71 616.171 L1908.71 1734.12 L2062.19 1734.12 L2062.19 616.171 L1908.71 616.171 L1908.71 616.171  Z" fill="#008080" fill-rule="evenodd" fill-opacity="0.7"/>
<polyline clip-path="url(#clip401)" style="stroke:#000000; stroke-linecap:round; stroke-linejoin:round; stroke-width:4; stroke-opacity:0.7; fill:none" points="1908.71,616.171 1908.71,1734.12 2062.19,1734.12 2062.19,616.171 1908.71,616.171 "/>
<circle clip-path="url(#clip401)" style="fill:#008080; stroke:none; fill-opacity:0" cx="450.699" cy="976.414" r="2"/>
<circle clip-path="url(#clip401)" style="fill:#008080; stroke:none; fill-opacity:0" cx="1218.07" cy="752.207" r="2"/>
<circle clip-path="url(#clip401)" style="fill:#008080; stroke:none; fill-opacity:0" cx="1985.45" cy="616.171" r="2"/>
<path clip-path="url(#clip401)" d="M527.436 1595.69 L527.436 1734.12 L680.911 1734.12 L680.911 1595.69 L527.436 1595.69 L527.436 1595.69  Z" fill="#228b22" fill-rule="evenodd" fill-opacity="0.7"/>
<polyline clip-path="url(#clip401)" style="stroke:#000000; stroke-linecap:round; stroke-linejoin:round; stroke-width:4; stroke-opacity:0.7; fill:none" points="527.436,1595.69 527.436,1734.12 680.911,1734.12 680.911,1595.69 527.436,1595.69 "/>
<path clip-path="url(#clip401)" d="M1294.81 1734.12 L1294.81 1734.12 L1448.29 1734.12 L1448.29 1734.12 L1294.81 1734.12 L1294.81 1734.12  Z" fill="#228b22" fill-rule="evenodd" fill-opacity="0.7"/>
<polyline clip-path="url(#clip401)" style="stroke:#000000; stroke-linecap:round; stroke-linejoin:round; stroke-width:4; stroke-opacity:0.7; fill:none" points="1294.81,1734.12 1294.81,1734.12 1448.29,1734.12 1294.81,1734.12 "/>
<path clip-path="url(#clip401)" d="M2062.19 1734.12 L2062.19 1734.12 L2215.66 1734.12 L2215.66 1734.12 L2062.19 1734.12 L2062.19 1734.12  Z" fill="#228b22" fill-rule="evenodd" fill-opacity="0.7"/>
<polyline clip-path="url(#clip401)" style="stroke:#000000; stroke-linecap:round; stroke-linejoin:round; stroke-width:4; stroke-opacity:0.7; fill:none" points="2062.19,1734.12 2062.19,1734.12 2215.66,1734.12 2062.19,1734.12 "/>
<circle clip-path="url(#clip401)" style="fill:#228b22; stroke:none; fill-opacity:0" cx="604.174" cy="1595.69" r="2"/>
<circle clip-path="url(#clip401)" style="fill:#228b22; stroke:none; fill-opacity:0" cx="1371.55" cy="1734.12" r="2"/>
<circle clip-path="url(#clip401)" style="fill:#228b22; stroke:none; fill-opacity:0" cx="2138.92" cy="1734.12" r="2"/>
<path clip-path="url(#clip401)" d="M680.911 637.474 L680.911 1734.12 L834.386 1734.12 L834.386 637.474 L680.911 637.474 L680.911 637.474  Z" fill="#daa520" fill-rule="evenodd" fill-opacity="0.7"/>
<polyline clip-path="url(#clip401)" style="stroke:#000000; stroke-linecap:round; stroke-linejoin:round; stroke-width:4; stroke-opacity:0.7; fill:none" points="680.911,637.474 680.911,1734.12 834.386,1734.12 834.386,637.474 680.911,637.474 "/>
<path clip-path="url(#clip401)" d="M1448.29 238.711 L1448.29 1734.12 L1601.76 1734.12 L1601.76 238.711 L1448.29 238.711 L1448.29 238.711  Z" fill="#daa520" fill-rule="evenodd" fill-opacity="0.7"/>
<polyline clip-path="url(#clip401)" style="stroke:#000000; stroke-linecap:round; stroke-linejoin:round; stroke-width:4; stroke-opacity:0.7; fill:none" points="1448.29,238.711 1448.29,1734.12 1601.76,1734.12 1601.76,238.711 1448.29,238.711 "/>
<path clip-path="url(#clip401)" d="M2215.66 127.792 L2215.66 1734.12 L2369.14 1734.12 L2369.14 127.792 L2215.66 127.792 L2215.66 127.792  Z" fill="#daa520" fill-rule="evenodd" fill-opacity="0.7"/>
<polyline clip-path="url(#clip401)" style="stroke:#000000; stroke-linecap:round; stroke-linejoin:round; stroke-width:4; stroke-opacity:0.7; fill:none" points="2215.66,127.792 2215.66,1734.12 2369.14,1734.12 2369.14,127.792 2215.66,127.792 "/>
<circle clip-path="url(#clip401)" style="fill:#daa520; stroke:none; fill-opacity:0" cx="757.649" cy="637.474" r="2"/>
<circle clip-path="url(#clip401)" style="fill:#daa520; stroke:none; fill-opacity:0" cx="1525.02" cy="238.711" r="2"/>
<circle clip-path="url(#clip401)" style="fill:#daa520; stroke:none; fill-opacity:0" cx="2292.4" cy="127.792" r="2"/>
<path clip-path="url(#clip401)" d="M834.386 987.434 L834.386 1734.12 L987.861 1734.12 L987.861 987.434 L834.386 987.434 L834.386 987.434  Z" fill="#da70d6" fill-rule="evenodd" fill-opacity="0.7"/>
<polyline clip-path="url(#clip401)" style="stroke:#000000; stroke-linecap:round; stroke-linejoin:round; stroke-width:4; stroke-opacity:0.7; fill:none" points="834.386,987.434 834.386,1734.12 987.861,1734.12 987.861,987.434 834.386,987.434 "/>
<path clip-path="url(#clip401)" d="M1601.76 1265.7 L1601.76 1734.12 L1755.24 1734.12 L1755.24 1265.7 L1601.76 1265.7 L1601.76 1265.7  Z" fill="#da70d6" fill-rule="evenodd" fill-opacity="0.7"/>
<polyline clip-path="url(#clip401)" style="stroke:#000000; stroke-linecap:round; stroke-linejoin:round; stroke-width:4; stroke-opacity:0.7; fill:none" points="1601.76,1265.7 1601.76,1734.12 1755.24,1734.12 1755.24,1265.7 1601.76,1265.7 "/>
<path clip-path="url(#clip401)" d="M2369.14 1485.07 L2369.14 1734.12 L2522.61 1734.12 L2522.61 1485.07 L2369.14 1485.07 L2369.14 1485.07  Z" fill="#da70d6" fill-rule="evenodd" fill-opacity="0.7"/>
<polyline clip-path="url(#clip401)" style="stroke:#000000; stroke-linecap:round; stroke-linejoin:round; stroke-width:4; stroke-opacity:0.7; fill:none" points="2369.14,1485.07 2369.14,1734.12 2522.61,1734.12 2522.61,1485.07 2369.14,1485.07 "/>
<circle clip-path="url(#clip401)" style="fill:#da70d6; stroke:none; fill-opacity:0" cx="911.124" cy="987.434" r="2"/>
<circle clip-path="url(#clip401)" style="fill:#da70d6; stroke:none; fill-opacity:0" cx="1678.5" cy="1265.7" r="2"/>
<circle clip-path="url(#clip401)" style="fill:#da70d6; stroke:none; fill-opacity:0" cx="2445.87" cy="1485.07" r="2"/>
<path clip-path="url(#clip400)" d="M2098.92 440.536 L2561.26 440.536 L2561.26 181.336 L2098.92 181.336  Z" fill="#ffffff" fill-rule="evenodd" fill-opacity="1"/>
<polyline clip-path="url(#clip400)" style="stroke:#000000; stroke-linecap:round; stroke-linejoin:round; stroke-width:4; stroke-opacity:1; fill:none" points="2098.92,440.536 2561.26,440.536 2561.26,181.336 2098.92,181.336 2098.92,440.536 "/>
<path clip-path="url(#clip400)" d="M2125.42 253.912 L2284.42 253.912 L2284.42 212.44 L2125.42 212.44 L2125.42 253.912  Z" fill="#008080" fill-rule="evenodd" fill-opacity="0.7"/>
<polyline clip-path="url(#clip400)" style="stroke:#000000; stroke-linecap:round; stroke-linejoin:round; stroke-width:4; stroke-opacity:1; fill:none" points="2125.42,253.912 2284.42,253.912 2284.42,212.44 2125.42,212.44 2125.42,253.912 "/>
<path clip-path="url(#clip400)" d="M2333.16 217.031 L2333.16 221.591 Q2330.5 220.318 2328.14 219.693 Q2325.78 219.068 2323.58 219.068 Q2319.76 219.068 2317.68 220.549 Q2315.62 222.031 2315.62 224.762 Q2315.62 227.054 2316.98 228.234 Q2318.37 229.392 2322.21 230.109 L2325.04 230.688 Q2330.27 231.683 2332.75 234.206 Q2335.25 236.706 2335.25 240.919 Q2335.25 245.942 2331.87 248.535 Q2328.51 251.128 2322.01 251.128 Q2319.55 251.128 2316.77 250.572 Q2314.02 250.016 2311.06 248.929 L2311.06 244.114 Q2313.9 245.711 2316.63 246.521 Q2319.37 247.331 2322.01 247.331 Q2326.01 247.331 2328.19 245.757 Q2330.36 244.183 2330.36 241.267 Q2330.36 238.72 2328.79 237.285 Q2327.24 235.85 2323.67 235.132 L2320.82 234.577 Q2315.59 233.535 2313.26 231.313 Q2310.92 229.091 2310.92 225.132 Q2310.92 220.549 2314.13 217.91 Q2317.38 215.271 2323.05 215.271 Q2325.48 215.271 2328 215.711 Q2330.52 216.151 2333.16 217.031 Z" fill="#000000" fill-rule="nonzero" fill-opacity="1" /><path clip-path="url(#clip400)" d="M2341.91 240.225 L2341.91 224.531 L2346.17 224.531 L2346.17 240.063 Q2346.17 243.743 2347.61 245.595 Q2349.04 247.424 2351.91 247.424 Q2355.36 247.424 2357.35 245.225 Q2359.37 243.026 2359.37 239.229 L2359.37 224.531 L2363.63 224.531 L2363.63 250.456 L2359.37 250.456 L2359.37 246.475 Q2357.82 248.836 2355.75 249.993 Q2353.72 251.128 2351.01 251.128 Q2346.54 251.128 2344.23 248.35 Q2341.91 245.572 2341.91 240.225 M2352.63 223.906 L2352.63 223.906 Z" fill="#000000" fill-rule="nonzero" fill-opacity="1" /><path clip-path="url(#clip400)" d="M2387.42 228.512 Q2386.7 228.095 2385.85 227.91 Q2385.01 227.702 2384 227.702 Q2380.38 227.702 2378.44 230.063 Q2376.52 232.401 2376.52 236.799 L2376.52 250.456 L2372.24 250.456 L2372.24 224.531 L2376.52 224.531 L2376.52 228.558 Q2377.86 226.197 2380.01 225.063 Q2382.17 223.906 2385.25 223.906 Q2385.69 223.906 2386.22 223.975 Q2386.75 224.021 2387.4 224.137 L2387.42 228.512 Z" fill="#000000" fill-rule="nonzero" fill-opacity="1" /><path clip-path="url(#clip400)" d="M2388.83 224.531 L2393.35 224.531 L2401.45 246.29 L2409.55 224.531 L2414.06 224.531 L2404.34 250.456 L2398.56 250.456 L2388.83 224.531 Z" fill="#000000" fill-rule="nonzero" fill-opacity="1" /><path clip-path="url(#clip400)" d="M2419.94 224.531 L2424.2 224.531 L2424.2 250.456 L2419.94 250.456 L2419.94 224.531 M2419.94 214.438 L2424.2 214.438 L2424.2 219.831 L2419.94 219.831 L2419.94 214.438 Z" fill="#000000" fill-rule="nonzero" fill-opacity="1" /><path clip-path="url(#clip400)" d="M2430.06 224.531 L2434.57 224.531 L2442.68 246.29 L2450.78 224.531 L2455.29 224.531 L2445.57 250.456 L2439.78 250.456 L2430.06 224.531 Z" fill="#000000" fill-rule="nonzero" fill-opacity="1" /><path clip-path="url(#clip400)" d="M2472.95 237.424 Q2467.79 237.424 2465.8 238.604 Q2463.81 239.785 2463.81 242.632 Q2463.81 244.901 2465.29 246.243 Q2466.8 247.563 2469.37 247.563 Q2472.91 247.563 2475.04 245.063 Q2477.19 242.54 2477.19 238.373 L2477.19 237.424 L2472.95 237.424 M2481.45 235.665 L2481.45 250.456 L2477.19 250.456 L2477.19 246.521 Q2475.73 248.882 2473.56 250.016 Q2471.38 251.128 2468.23 251.128 Q2464.25 251.128 2461.89 248.905 Q2459.55 246.66 2459.55 242.91 Q2459.55 238.535 2462.47 236.313 Q2465.41 234.091 2471.22 234.091 L2477.19 234.091 L2477.19 233.674 Q2477.19 230.734 2475.25 229.137 Q2473.32 227.517 2469.83 227.517 Q2467.61 227.517 2465.5 228.049 Q2463.39 228.581 2461.45 229.646 L2461.45 225.711 Q2463.79 224.808 2465.99 224.368 Q2468.18 223.906 2470.27 223.906 Q2475.89 223.906 2478.67 226.822 Q2481.45 229.739 2481.45 235.665 Z" fill="#000000" fill-rule="nonzero" fill-opacity="1" /><path clip-path="url(#clip400)" d="M2490.22 214.438 L2494.48 214.438 L2494.48 250.456 L2490.22 250.456 L2490.22 214.438 Z" fill="#000000" fill-rule="nonzero" fill-opacity="1" /><path clip-path="url(#clip400)" d="M2125.42 305.752 L2284.42 305.752 L2284.42 264.28 L2125.42 264.28 L2125.42 305.752  Z" fill="#228b22" fill-rule="evenodd" fill-opacity="0.7"/>
<polyline clip-path="url(#clip400)" style="stroke:#000000; stroke-linecap:round; stroke-linejoin:round; stroke-width:4; stroke-opacity:1; fill:none" points="2125.42,305.752 2284.42,305.752 2284.42,264.28 2125.42,264.28 2125.42,305.752 "/>
<path clip-path="url(#clip400)" d="M2336.47 297.366 L2336.47 288.083 L2328.83 288.083 L2328.83 284.241 L2341.1 284.241 L2341.1 299.079 Q2338.39 301 2335.13 301.995 Q2331.87 302.968 2328.16 302.968 Q2320.06 302.968 2315.48 298.245 Q2310.92 293.5 2310.92 285.051 Q2310.92 276.579 2315.48 271.857 Q2320.06 267.111 2328.16 267.111 Q2331.54 267.111 2334.57 267.945 Q2337.63 268.778 2340.2 270.398 L2340.2 275.375 Q2337.61 273.176 2334.69 272.065 Q2331.77 270.954 2328.56 270.954 Q2322.21 270.954 2319.02 274.496 Q2315.85 278.037 2315.85 285.051 Q2315.85 292.042 2319.02 295.583 Q2322.21 299.125 2328.56 299.125 Q2331.03 299.125 2332.98 298.708 Q2334.92 298.269 2336.47 297.366 Z" fill="#000000" fill-rule="nonzero" fill-opacity="1" /><path clip-path="url(#clip400)" d="M2364.48 280.352 Q2363.76 279.935 2362.91 279.75 Q2362.07 279.542 2361.06 279.542 Q2357.44 279.542 2355.5 281.903 Q2353.58 284.241 2353.58 288.639 L2353.58 302.296 L2349.3 302.296 L2349.3 276.371 L2353.58 276.371 L2353.58 280.398 Q2354.92 278.037 2357.07 276.903 Q2359.23 275.746 2362.31 275.746 Q2362.75 275.746 2363.28 275.815 Q2363.81 275.861 2364.46 275.977 L2364.48 280.352 Z" fill="#000000" fill-rule="nonzero" fill-opacity="1" /><path clip-path="url(#clip400)" d="M2377.95 279.357 Q2374.53 279.357 2372.54 282.042 Q2370.55 284.704 2370.55 289.357 Q2370.55 294.009 2372.51 296.694 Q2374.5 299.356 2377.95 299.356 Q2381.36 299.356 2383.35 296.671 Q2385.34 293.986 2385.34 289.357 Q2385.34 284.75 2383.35 282.065 Q2381.36 279.357 2377.95 279.357 M2377.95 275.746 Q2383.51 275.746 2386.68 279.357 Q2389.85 282.968 2389.85 289.357 Q2389.85 295.722 2386.68 299.356 Q2383.51 302.968 2377.95 302.968 Q2372.38 302.968 2369.2 299.356 Q2366.06 295.722 2366.06 289.357 Q2366.06 282.968 2369.2 279.357 Q2372.38 275.746 2377.95 275.746 Z" fill="#000000" fill-rule="nonzero" fill-opacity="1" /><path clip-path="url(#clip400)" d="M2394.44 276.371 L2398.69 276.371 L2404.02 296.602 L2409.32 276.371 L2414.34 276.371 L2419.67 296.602 L2424.97 276.371 L2429.23 276.371 L2422.44 302.296 L2417.42 302.296 L2411.84 281.046 L2406.24 302.296 L2401.22 302.296 L2394.44 276.371 Z" fill="#000000" fill-rule="nonzero" fill-opacity="1" /><path clip-path="url(#clip400)" d="M2439.9 269.009 L2439.9 276.371 L2448.67 276.371 L2448.67 279.681 L2439.9 279.681 L2439.9 293.755 Q2439.9 296.926 2440.75 297.829 Q2441.63 298.731 2444.3 298.731 L2448.67 298.731 L2448.67 302.296 L2444.3 302.296 Q2439.37 302.296 2437.49 300.468 Q2435.62 298.616 2435.62 293.755 L2435.62 279.681 L2432.49 279.681 L2432.49 276.371 L2435.62 276.371 L2435.62 269.009 L2439.9 269.009 Z" fill="#000000" fill-rule="nonzero" fill-opacity="1" /><path clip-path="url(#clip400)" d="M2475.82 286.648 L2475.82 302.296 L2471.56 302.296 L2471.56 286.787 Q2471.56 283.107 2470.13 281.278 Q2468.69 279.449 2465.82 279.449 Q2462.37 279.449 2460.38 281.648 Q2458.39 283.847 2458.39 287.644 L2458.39 302.296 L2454.11 302.296 L2454.11 266.278 L2458.39 266.278 L2458.39 280.398 Q2459.92 278.06 2461.98 276.903 Q2464.06 275.746 2466.77 275.746 Q2471.24 275.746 2473.53 278.523 Q2475.82 281.278 2475.82 286.648 Z" fill="#000000" fill-rule="nonzero" fill-opacity="1" /><path clip-path="url(#clip400)" d="M2125.42 357.592 L2284.42 357.592 L2284.42 316.12 L2125.42 316.12 L2125.42 357.592  Z" fill="#daa520" fill-rule="evenodd" fill-opacity="0.7"/>
<polyline clip-path="url(#clip400)" style="stroke:#000000; stroke-linecap:round; stroke-linejoin:round; stroke-width:4; stroke-opacity:1; fill:none" points="2125.42,357.592 2284.42,357.592 2284.42,316.12 2125.42,316.12 2125.42,357.592 "/>
<path clip-path="url(#clip400)" d="M2333.16 320.711 L2333.16 325.271 Q2330.5 323.998 2328.14 323.373 Q2325.78 322.748 2323.58 322.748 Q2319.76 322.748 2317.68 324.229 Q2315.62 325.711 2315.62 328.442 Q2315.62 330.734 2316.98 331.914 Q2318.37 333.072 2322.21 333.789 L2325.04 334.368 Q2330.27 335.363 2332.75 337.886 Q2335.25 340.386 2335.25 344.599 Q2335.25 349.622 2331.87 352.215 Q2328.51 354.808 2322.01 354.808 Q2319.55 354.808 2316.77 354.252 Q2314.02 353.696 2311.06 352.609 L2311.06 347.794 Q2313.9 349.391 2316.63 350.201 Q2319.37 351.011 2322.01 351.011 Q2326.01 351.011 2328.19 349.437 Q2330.36 347.863 2330.36 344.947 Q2330.36 342.4 2328.79 340.965 Q2327.24 339.53 2323.67 338.812 L2320.82 338.257 Q2315.59 337.215 2313.26 334.993 Q2310.92 332.771 2310.92 328.812 Q2310.92 324.229 2314.13 321.59 Q2317.38 318.951 2323.05 318.951 Q2325.48 318.951 2328 319.391 Q2330.52 319.831 2333.16 320.711 Z" fill="#000000" fill-rule="nonzero" fill-opacity="1" /><path clip-path="url(#clip400)" d="M2346.57 320.849 L2346.57 328.211 L2355.34 328.211 L2355.34 331.521 L2346.57 331.521 L2346.57 345.595 Q2346.57 348.766 2347.42 349.669 Q2348.3 350.571 2350.96 350.571 L2355.34 350.571 L2355.34 354.136 L2350.96 354.136 Q2346.03 354.136 2344.16 352.308 Q2342.28 350.456 2342.28 345.595 L2342.28 331.521 L2339.16 331.521 L2339.16 328.211 L2342.28 328.211 L2342.28 320.849 L2346.57 320.849 Z" fill="#000000" fill-rule="nonzero" fill-opacity="1" /><path clip-path="url(#clip400)" d="M2372.72 341.104 Q2367.56 341.104 2365.57 342.284 Q2363.58 343.465 2363.58 346.312 Q2363.58 348.581 2365.06 349.923 Q2366.57 351.243 2369.13 351.243 Q2372.68 351.243 2374.81 348.743 Q2376.96 346.22 2376.96 342.053 L2376.96 341.104 L2372.72 341.104 M2381.22 339.345 L2381.22 354.136 L2376.96 354.136 L2376.96 350.201 Q2375.5 352.562 2373.32 353.696 Q2371.15 354.808 2368 354.808 Q2364.02 354.808 2361.66 352.585 Q2359.32 350.34 2359.32 346.59 Q2359.32 342.215 2362.24 339.993 Q2365.18 337.771 2370.99 337.771 L2376.96 337.771 L2376.96 337.354 Q2376.96 334.414 2375.01 332.817 Q2373.09 331.197 2369.6 331.197 Q2367.38 331.197 2365.27 331.729 Q2363.16 332.261 2361.22 333.326 L2361.22 329.391 Q2363.56 328.488 2365.75 328.048 Q2367.95 327.586 2370.04 327.586 Q2375.66 327.586 2378.44 330.502 Q2381.22 333.419 2381.22 339.345 Z" fill="#000000" fill-rule="nonzero" fill-opacity="1" /><path clip-path="url(#clip400)" d="M2406.52 328.974 L2406.52 333.002 Q2404.71 332.076 2402.77 331.613 Q2400.82 331.15 2398.74 331.15 Q2395.57 331.15 2393.97 332.123 Q2392.4 333.095 2392.4 335.039 Q2392.4 336.521 2393.53 337.377 Q2394.67 338.21 2398.09 338.974 L2399.55 339.298 Q2404.09 340.271 2405.99 342.053 Q2407.91 343.812 2407.91 346.984 Q2407.91 350.595 2405.04 352.701 Q2402.19 354.808 2397.19 354.808 Q2395.11 354.808 2392.84 354.391 Q2390.59 353.997 2388.09 353.187 L2388.09 348.789 Q2390.45 350.016 2392.75 350.641 Q2395.04 351.243 2397.28 351.243 Q2400.29 351.243 2401.91 350.224 Q2403.53 349.183 2403.53 347.308 Q2403.53 345.572 2402.35 344.646 Q2401.19 343.72 2397.24 342.863 L2395.75 342.516 Q2391.8 341.683 2390.04 339.97 Q2388.28 338.234 2388.28 335.224 Q2388.28 331.567 2390.87 329.576 Q2393.46 327.586 2398.23 327.586 Q2400.59 327.586 2402.68 327.933 Q2404.76 328.28 2406.52 328.974 Z" fill="#000000" fill-rule="nonzero" fill-opacity="1" /><path clip-path="url(#clip400)" d="M2414.69 328.211 L2418.95 328.211 L2418.95 354.136 L2414.69 354.136 L2414.69 328.211 M2414.69 318.118 L2418.95 318.118 L2418.95 323.511 L2414.69 323.511 L2414.69 318.118 Z" fill="#000000" fill-rule="nonzero" fill-opacity="1" /><path clip-path="url(#clip400)" d="M2444.39 328.974 L2444.39 333.002 Q2442.58 332.076 2440.64 331.613 Q2438.69 331.15 2436.61 331.15 Q2433.44 331.15 2431.84 332.123 Q2430.27 333.095 2430.27 335.039 Q2430.27 336.521 2431.4 337.377 Q2432.54 338.21 2435.96 338.974 L2437.42 339.298 Q2441.96 340.271 2443.86 342.053 Q2445.78 343.812 2445.78 346.984 Q2445.78 350.595 2442.91 352.701 Q2440.06 354.808 2435.06 354.808 Q2432.98 354.808 2430.71 354.391 Q2428.46 353.997 2425.96 353.187 L2425.96 348.789 Q2428.32 350.016 2430.62 350.641 Q2432.91 351.243 2435.15 351.243 Q2438.16 351.243 2439.78 350.224 Q2441.4 349.183 2441.4 347.308 Q2441.4 345.572 2440.22 344.646 Q2439.06 343.72 2435.11 342.863 L2433.62 342.516 Q2429.67 341.683 2427.91 339.97 Q2426.15 338.234 2426.15 335.224 Q2426.15 331.567 2428.74 329.576 Q2431.33 327.586 2436.1 327.586 Q2438.46 327.586 2440.55 327.933 Q2442.63 328.28 2444.39 328.974 Z" fill="#000000" fill-rule="nonzero" fill-opacity="1" /><path clip-path="url(#clip400)" d="M2125.42 409.432 L2284.42 409.432 L2284.42 367.96 L2125.42 367.96 L2125.42 409.432  Z" fill="#da70d6" fill-rule="evenodd" fill-opacity="0.7"/>
<polyline clip-path="url(#clip400)" style="stroke:#000000; stroke-linecap:round; stroke-linejoin:round; stroke-width:4; stroke-opacity:1; fill:none" points="2125.42,409.432 2284.42,409.432 2284.42,367.96 2125.42,367.96 2125.42,409.432 "/>
<path clip-path="url(#clip400)" d="M2310.92 371.416 L2330.78 371.416 L2330.78 375.351 L2315.59 375.351 L2315.59 385.537 L2329.3 385.537 L2329.3 389.472 L2315.59 389.472 L2315.59 405.976 L2310.92 405.976 L2310.92 371.416 Z" fill="#000000" fill-rule="nonzero" fill-opacity="1" /><path clip-path="url(#clip400)" d="M2357.58 391.949 L2357.58 394.032 L2338 394.032 Q2338.28 398.43 2340.64 400.745 Q2343.02 403.036 2347.26 403.036 Q2349.71 403.036 2352 402.435 Q2354.32 401.833 2356.59 400.629 L2356.59 404.657 Q2354.3 405.629 2351.89 406.138 Q2349.48 406.648 2347 406.648 Q2340.8 406.648 2337.17 403.036 Q2333.56 399.425 2333.56 393.268 Q2333.56 386.902 2336.98 383.175 Q2340.43 379.426 2346.26 379.426 Q2351.5 379.426 2354.53 382.805 Q2357.58 386.162 2357.58 391.949 M2353.32 390.699 Q2353.28 387.203 2351.36 385.12 Q2349.46 383.037 2346.31 383.037 Q2342.75 383.037 2340.59 385.05 Q2338.46 387.064 2338.14 390.722 L2353.32 390.699 Z" fill="#000000" fill-rule="nonzero" fill-opacity="1" /><path clip-path="url(#clip400)" d="M2383.23 381.046 L2383.23 385.027 Q2381.43 384.032 2379.6 383.546 Q2377.79 383.037 2375.94 383.037 Q2371.8 383.037 2369.5 385.675 Q2367.21 388.291 2367.21 393.037 Q2367.21 397.782 2369.5 400.421 Q2371.8 403.036 2375.94 403.036 Q2377.79 403.036 2379.6 402.55 Q2381.43 402.041 2383.23 401.046 L2383.23 404.981 Q2381.45 405.814 2379.53 406.231 Q2377.63 406.648 2375.48 406.648 Q2369.62 406.648 2366.17 402.967 Q2362.72 399.287 2362.72 393.037 Q2362.72 386.694 2366.19 383.06 Q2369.69 379.426 2375.75 379.426 Q2377.72 379.426 2379.6 379.842 Q2381.47 380.236 2383.23 381.046 Z" fill="#000000" fill-rule="nonzero" fill-opacity="1" /><path clip-path="url(#clip400)" d="M2390.2 395.745 L2390.2 380.051 L2394.46 380.051 L2394.46 395.583 Q2394.46 399.263 2395.89 401.115 Q2397.33 402.944 2400.2 402.944 Q2403.65 402.944 2405.64 400.745 Q2407.65 398.546 2407.65 394.749 L2407.65 380.051 L2411.91 380.051 L2411.91 405.976 L2407.65 405.976 L2407.65 401.995 Q2406.1 404.356 2404.04 405.513 Q2402 406.648 2399.3 406.648 Q2394.83 406.648 2392.51 403.87 Q2390.2 401.092 2390.2 395.745 M2400.92 379.426 L2400.92 379.426 Z" fill="#000000" fill-rule="nonzero" fill-opacity="1" /><path clip-path="url(#clip400)" d="M2442.24 390.328 L2442.24 405.976 L2437.98 405.976 L2437.98 390.467 Q2437.98 386.787 2436.54 384.958 Q2435.11 383.129 2432.24 383.129 Q2428.79 383.129 2426.8 385.328 Q2424.81 387.527 2424.81 391.324 L2424.81 405.976 L2420.52 405.976 L2420.52 380.051 L2424.81 380.051 L2424.81 384.078 Q2426.33 381.74 2428.39 380.583 Q2430.48 379.426 2433.19 379.426 Q2437.65 379.426 2439.94 382.203 Q2442.24 384.958 2442.24 390.328 Z" fill="#000000" fill-rule="nonzero" fill-opacity="1" /><path clip-path="url(#clip400)" d="M2467.79 383.986 L2467.79 369.958 L2472.05 369.958 L2472.05 405.976 L2467.79 405.976 L2467.79 402.087 Q2466.45 404.402 2464.39 405.536 Q2462.35 406.648 2459.48 406.648 Q2454.78 406.648 2451.82 402.898 Q2448.88 399.148 2448.88 393.037 Q2448.88 386.925 2451.82 383.175 Q2454.78 379.426 2459.48 379.426 Q2462.35 379.426 2464.39 380.56 Q2466.45 381.671 2467.79 383.986 M2453.28 393.037 Q2453.28 397.736 2455.2 400.421 Q2457.14 403.083 2460.52 403.083 Q2463.9 403.083 2465.85 400.421 Q2467.79 397.736 2467.79 393.037 Q2467.79 388.337 2465.85 385.675 Q2463.9 382.99 2460.52 382.99 Q2457.14 382.99 2455.2 385.675 Q2453.28 388.337 2453.28 393.037 Z" fill="#000000" fill-rule="nonzero" fill-opacity="1" /><path clip-path="url(#clip400)" d="M2480.82 380.051 L2485.08 380.051 L2485.08 405.976 L2480.82 405.976 L2480.82 380.051 M2480.82 369.958 L2485.08 369.958 L2485.08 375.351 L2480.82 375.351 L2480.82 369.958 Z" fill="#000000" fill-rule="nonzero" fill-opacity="1" /><path clip-path="url(#clip400)" d="M2498.21 372.689 L2498.21 380.051 L2506.98 380.051 L2506.98 383.361 L2498.21 383.361 L2498.21 397.435 Q2498.21 400.606 2499.06 401.509 Q2499.94 402.411 2502.61 402.411 L2506.98 402.411 L2506.98 405.976 L2502.61 405.976 Q2497.68 405.976 2495.8 404.148 Q2493.93 402.296 2493.93 397.435 L2493.93 383.361 L2490.8 383.361 L2490.8 380.051 L2493.93 380.051 L2493.93 372.689 L2498.21 372.689 Z" fill="#000000" fill-rule="nonzero" fill-opacity="1" /><path clip-path="url(#clip400)" d="M2523.37 408.384 Q2521.56 413.013 2519.85 414.425 Q2518.14 415.837 2515.27 415.837 L2511.87 415.837 L2511.87 412.273 L2514.37 412.273 Q2516.12 412.273 2517.1 411.439 Q2518.07 410.606 2519.25 407.504 L2520.01 405.56 L2509.53 380.051 L2514.04 380.051 L2522.14 400.328 L2530.24 380.051 L2534.76 380.051 L2523.37 408.384 Z" fill="#000000" fill-rule="nonzero" fill-opacity="1" /></svg>
