<?xml version="1.0" encoding="utf-8"?>
<svg xmlns="http://www.w3.org/2000/svg" xmlns:xlink="http://www.w3.org/1999/xlink" width="672" height="480" viewBox="0 0 2688 1920">
<defs>
  <clipPath id="clip140">
    <rect x="0" y="0" width="2688" height="1920"/>
  </clipPath>
</defs>
<path clip-path="url(#clip140)" d="M0 1920 L2688 1920 L2688 -4.26326e-14 L0 -4.26326e-14  Z" fill="#ffffff" fill-rule="evenodd" fill-opacity="1"/>
<defs>
  <clipPath id="clip141">
    <rect x="255" y="127" width="2386" height="1607"/>
  </clipPath>
</defs>
<path clip-path="url(#clip140)" d="M255.816 1734.12 L2640.76 1734.12 L2640.76 127.792 L255.816 127.792  Z" fill="#ffffff" fill-rule="evenodd" fill-opacity="1"/>
<polyline clip-path="url(#clip141)" style="stroke:#000000; stroke-linecap:round; stroke-linejoin:round; stroke-width:2; stroke-opacity:0.1; fill:none" points="323.315,1734.12 323.315,127.792 "/>
<polyline clip-path="url(#clip141)" style="stroke:#000000; stroke-linecap:round; stroke-linejoin:round; stroke-width:2; stroke-opacity:0.1; fill:none" points="985.063,1734.12 985.063,127.792 "/>
<polyline clip-path="url(#clip141)" style="stroke:#000000; stroke-linecap:round; stroke-linejoin:round; stroke-width:2; stroke-opacity:0.1; fill:none" points="1646.81,1734.12 1646.81,127.792 "/>
<polyline clip-path="url(#clip141)" style="stroke:#000000; stroke-linecap:round; stroke-linejoin:round; stroke-width:2; stroke-opacity:0.1; fill:none" points="2308.56,1734.12 2308.56,127.792 "/>
<polyline clip-path="url(#clip141)" style="stroke:#000000; stroke-linecap:round; stroke-linejoin:round; stroke-width:2; stroke-opacity:0.1; fill:none" points="255.816,1701.53 2640.76,1701.53 "/>
<polyline clip-path="url(#clip141)" style="stroke:#000000; stroke-linecap:round; stroke-linejoin:round; stroke-width:2; stroke-opacity:0.1; fill:none" points="255.816,1319.46 2640.76,1319.46 "/>
<polyline clip-path="url(#clip141)" style="stroke:#000000; stroke-linecap:round; stroke-linejoin:round; stroke-width:2; stroke-opacity:0.1; fill:none" points="255.816,937.39 2640.76,937.39 "/>
<polyline clip-path="url(#clip141)" style="stroke:#000000; stroke-linecap:round; stroke-linejoin:round; stroke-width:2; stroke-opacity:0.1; fill:none" points="255.816,555.322 2640.76,555.322 "/>
<polyline clip-path="url(#clip141)" style="stroke:#000000; stroke-linecap:round; stroke-linejoin:round; stroke-width:2; stroke-opacity:0.1; fill:none" points="255.816,173.254 2640.76,173.254 "/>
<polyline clip-path="url(#clip140)" style="stroke:#000000; stroke-linecap:round; stroke-linejoin:round; stroke-width:4; stroke-opacity:1; fill:none" points="255.816,1734.12 2640.76,1734.12 "/>
<polyline clip-path="url(#clip140)" style="stroke:#000000; stroke-linecap:round; stroke-linejoin:round; stroke-width:4; stroke-opacity:1; fill:none" points="323.315,1734.12 323.315,1715.22 "/>
<polyline clip-path="url(#clip140)" style="stroke:#000000; stroke-linecap:round; stroke-linejoin:round; stroke-width:4; stroke-opacity:1; fill:none" points="985.063,1734.12 985.063,1715.22 "/>
<polyline clip-path="url(#clip140)" style="stroke:#000000; stroke-linecap:round; stroke-linejoin:round; stroke-width:4; stroke-opacity:1; fill:none" points="1646.81,1734.12 1646.81,1715.22 "/>
<polyline clip-path="url(#clip140)" style="stroke:#000000; stroke-linecap:round; stroke-linejoin:round; stroke-width:4; stroke-opacity:1; fill:none" points="2308.56,1734.12 2308.56,1715.22 "/>
<path clip-path="url(#clip140)" d="M323.315 1767.34 Q319.704 1767.34 317.875 1770.9 Q316.069 1774.45 316.069 1781.58 Q316.069 1788.68 317.875 1792.25 Q319.704 1795.79 323.315 1795.79 Q326.949 1795.79 328.754 1792.25 Q330.583 1788.68 330.583 1781.58 Q330.583 1774.45 328.754 1770.9 Q326.949 1767.34 323.315 1767.34 M323.315 1763.64 Q329.125 1763.64 332.18 1768.24 Q335.259 1772.83 335.259 1781.58 Q335.259 1790.3 332.18 1794.91 Q329.125 1799.49 323.315 1799.49 Q317.504 1799.49 314.426 1794.91 Q311.37 1790.3 311.37 1781.58 Q311.37 1772.83 314.426 1768.24 Q317.504 1763.64 323.315 1763.64 Z" fill="#000000" fill-rule="nonzero" fill-opacity="1" /><path clip-path="url(#clip140)" d="M975.34 1764.26 L993.697 1764.26 L993.697 1768.2 L979.623 1768.2 L979.623 1776.67 Q980.641 1776.32 981.66 1776.16 Q982.678 1775.97 983.697 1775.97 Q989.484 1775.97 992.863 1779.15 Q996.243 1782.32 996.243 1787.73 Q996.243 1793.31 992.771 1796.41 Q989.299 1799.49 982.979 1799.49 Q980.803 1799.49 978.535 1799.12 Q976.289 1798.75 973.882 1798.01 L973.882 1793.31 Q975.965 1794.45 978.188 1795 Q980.41 1795.56 982.887 1795.56 Q986.891 1795.56 989.229 1793.45 Q991.567 1791.34 991.567 1787.73 Q991.567 1784.12 989.229 1782.02 Q986.891 1779.91 982.887 1779.91 Q981.012 1779.91 979.137 1780.33 Q977.285 1780.74 975.34 1781.62 L975.34 1764.26 Z" fill="#000000" fill-rule="nonzero" fill-opacity="1" /><path clip-path="url(#clip140)" d="M1621.5 1794.89 L1629.14 1794.89 L1629.14 1768.52 L1620.83 1770.19 L1620.83 1765.93 L1629.09 1764.26 L1633.77 1764.26 L1633.77 1794.89 L1641.41 1794.89 L1641.41 1798.82 L1621.5 1798.82 L1621.5 1794.89 Z" fill="#000000" fill-rule="nonzero" fill-opacity="1" /><path clip-path="url(#clip140)" d="M1660.85 1767.34 Q1657.24 1767.34 1655.41 1770.9 Q1653.6 1774.45 1653.6 1781.58 Q1653.6 1788.68 1655.41 1792.25 Q1657.24 1795.79 1660.85 1795.79 Q1664.48 1795.79 1666.29 1792.25 Q1668.12 1788.68 1668.12 1781.58 Q1668.12 1774.45 1666.29 1770.9 Q1664.48 1767.34 1660.85 1767.34 M1660.85 1763.64 Q1666.66 1763.64 1669.72 1768.24 Q1672.79 1772.83 1672.79 1781.58 Q1672.79 1790.3 1669.72 1794.91 Q1666.66 1799.49 1660.85 1799.49 Q1655.04 1799.49 1651.96 1794.91 Q1648.91 1790.3 1648.91 1781.58 Q1648.91 1772.83 1651.96 1768.24 Q1655.04 1763.64 1660.85 1763.64 Z" fill="#000000" fill-rule="nonzero" fill-opacity="1" /><path clip-path="url(#clip140)" d="M2283.74 1794.89 L2291.38 1794.89 L2291.38 1768.52 L2283.07 1770.19 L2283.07 1765.93 L2291.34 1764.26 L2296.01 1764.26 L2296.01 1794.89 L2303.65 1794.89 L2303.65 1798.82 L2283.74 1798.82 L2283.74 1794.89 Z" fill="#000000" fill-rule="nonzero" fill-opacity="1" /><path clip-path="url(#clip140)" d="M2313.14 1764.26 L2331.5 1764.26 L2331.5 1768.2 L2317.42 1768.2 L2317.42 1776.67 Q2318.44 1776.32 2319.46 1776.16 Q2320.48 1775.97 2321.5 1775.97 Q2327.29 1775.97 2330.66 1779.15 Q2334.04 1782.32 2334.04 1787.73 Q2334.04 1793.31 2330.57 1796.41 Q2327.1 1799.49 2320.78 1799.49 Q2318.6 1799.49 2316.34 1799.12 Q2314.09 1798.75 2311.68 1798.01 L2311.68 1793.31 Q2313.77 1794.45 2315.99 1795 Q2318.21 1795.56 2320.69 1795.56 Q2324.69 1795.56 2327.03 1793.45 Q2329.37 1791.34 2329.37 1787.73 Q2329.37 1784.12 2327.03 1782.02 Q2324.69 1779.91 2320.69 1779.91 Q2318.81 1779.91 2316.94 1780.33 Q2315.09 1780.74 2313.14 1781.62 L2313.14 1764.26 Z" fill="#000000" fill-rule="nonzero" fill-opacity="1" /><path clip-path="url(#clip140)" d="M1284.59 1842.11 L1275.87 1865.76 L1293.34 1865.76 L1284.59 1842.11 M1280.96 1835.78 L1288.25 1835.78 L1306.36 1883.3 L1299.68 1883.3 L1295.35 1871.11 L1273.93 1871.11 L1269.6 1883.3 L1262.82 1883.3 L1280.96 1835.78 Z" fill="#000000" fill-rule="nonzero" fill-opacity="1" /><path clip-path="url(#clip140)" d="M1336.5 1865.06 Q1336.5 1858.7 1333.86 1855.2 Q1331.25 1851.7 1326.51 1851.7 Q1321.8 1851.7 1319.16 1855.2 Q1316.55 1858.7 1316.55 1865.06 Q1316.55 1871.4 1319.16 1874.9 Q1321.8 1878.4 1326.51 1878.4 Q1331.25 1878.4 1333.86 1874.9 Q1336.5 1871.4 1336.5 1865.06 M1342.36 1878.88 Q1342.36 1887.98 1338.32 1892.4 Q1334.28 1896.86 1325.94 1896.86 Q1322.85 1896.86 1320.11 1896.38 Q1317.38 1895.94 1314.8 1894.98 L1314.8 1889.28 Q1317.38 1890.69 1319.89 1891.35 Q1322.4 1892.02 1325.01 1892.02 Q1330.78 1892.02 1333.64 1889 Q1336.5 1886.01 1336.5 1879.93 L1336.5 1877.03 Q1334.69 1880.18 1331.86 1881.74 Q1329.02 1883.3 1325.08 1883.3 Q1318.52 1883.3 1314.51 1878.3 Q1310.5 1873.31 1310.5 1865.06 Q1310.5 1856.79 1314.51 1851.79 Q1318.52 1846.79 1325.08 1846.79 Q1329.02 1846.79 1331.86 1848.35 Q1334.69 1849.91 1336.5 1853.06 L1336.5 1847.65 L1342.36 1847.65 L1342.36 1878.88 Z" fill="#000000" fill-rule="nonzero" fill-opacity="1" /><path clip-path="url(#clip140)" d="M1384.92 1864.01 L1384.92 1866.88 L1357.99 1866.88 Q1358.37 1872.92 1361.62 1876.11 Q1364.9 1879.26 1370.72 1879.26 Q1374.09 1879.26 1377.24 1878.43 Q1380.43 1877.6 1383.55 1875.95 L1383.55 1881.49 Q1380.4 1882.82 1377.09 1883.52 Q1373.78 1884.22 1370.37 1884.22 Q1361.84 1884.22 1356.84 1879.26 Q1351.88 1874.29 1351.88 1865.83 Q1351.88 1857.07 1356.59 1851.95 Q1361.33 1846.79 1369.35 1846.79 Q1376.54 1846.79 1380.71 1851.44 Q1384.92 1856.06 1384.92 1864.01 M1379.06 1862.29 Q1379 1857.49 1376.35 1854.62 Q1373.74 1851.76 1369.42 1851.76 Q1364.51 1851.76 1361.55 1854.53 Q1358.63 1857.3 1358.18 1862.33 L1379.06 1862.29 Z" fill="#000000" fill-rule="nonzero" fill-opacity="1" /><path clip-path="url(#clip140)" d="M1429.32 1833.84 Q1425.05 1841.16 1422.98 1848.32 Q1420.91 1855.48 1420.91 1862.84 Q1420.91 1870.19 1422.98 1877.41 Q1425.08 1884.61 1429.32 1891.89 L1424.22 1891.89 Q1419.45 1884.41 1417.06 1877.19 Q1414.71 1869.96 1414.71 1862.84 Q1414.71 1855.74 1417.06 1848.54 Q1419.42 1841.35 1424.22 1833.84 L1429.32 1833.84 Z" fill="#000000" fill-rule="nonzero" fill-opacity="1" /><path clip-path="url(#clip140)" d="M1455.51 1886.61 Q1453.03 1892.98 1450.67 1894.92 Q1448.32 1896.86 1444.37 1896.86 L1439.69 1896.86 L1439.69 1891.96 L1443.13 1891.96 Q1445.55 1891.96 1446.89 1890.81 Q1448.22 1889.67 1449.85 1885.4 L1450.9 1882.73 L1436.48 1847.65 L1442.68 1847.65 L1453.82 1875.53 L1464.96 1847.65 L1471.17 1847.65 L1455.51 1886.61 Z" fill="#000000" fill-rule="nonzero" fill-opacity="1" /><path clip-path="url(#clip140)" d="M1509.75 1864.01 L1509.75 1866.88 L1482.82 1866.88 Q1483.2 1872.92 1486.45 1876.11 Q1489.73 1879.26 1495.55 1879.26 Q1498.93 1879.26 1502.08 1878.43 Q1505.26 1877.6 1508.38 1875.95 L1508.38 1881.49 Q1505.23 1882.82 1501.92 1883.52 Q1498.61 1884.22 1495.2 1884.22 Q1486.67 1884.22 1481.67 1879.26 Q1476.71 1874.29 1476.71 1865.83 Q1476.71 1857.07 1481.42 1851.95 Q1486.16 1846.79 1494.18 1846.79 Q1501.38 1846.79 1505.55 1851.44 Q1509.75 1856.06 1509.75 1864.01 M1503.89 1862.29 Q1503.83 1857.49 1501.19 1854.62 Q1498.58 1851.76 1494.25 1851.76 Q1489.34 1851.76 1486.38 1854.53 Q1483.46 1857.3 1483.01 1862.33 L1503.89 1862.29 Z" fill="#000000" fill-rule="nonzero" fill-opacity="1" /><path clip-path="url(#clip140)" d="M1535.56 1865.38 Q1528.46 1865.38 1525.72 1867 Q1522.99 1868.63 1522.99 1872.54 Q1522.99 1875.66 1525.02 1877.51 Q1527.09 1879.32 1530.63 1879.32 Q1535.5 1879.32 1538.42 1875.88 Q1541.38 1872.42 1541.38 1866.69 L1541.38 1865.38 L1535.56 1865.38 M1547.24 1862.96 L1547.24 1883.3 L1541.38 1883.3 L1541.38 1877.89 Q1539.38 1881.14 1536.39 1882.7 Q1533.4 1884.22 1529.07 1884.22 Q1523.59 1884.22 1520.35 1881.17 Q1517.13 1878.08 1517.13 1872.92 Q1517.13 1866.91 1521.14 1863.85 Q1525.18 1860.8 1533.17 1860.8 L1541.38 1860.8 L1541.38 1860.23 Q1541.38 1856.18 1538.71 1853.99 Q1536.07 1851.76 1531.26 1851.76 Q1528.21 1851.76 1525.31 1852.49 Q1522.41 1853.22 1519.74 1854.69 L1519.74 1849.28 Q1522.96 1848.03 1525.98 1847.43 Q1529 1846.79 1531.87 1846.79 Q1539.6 1846.79 1543.42 1850.8 Q1547.24 1854.81 1547.24 1862.96 Z" fill="#000000" fill-rule="nonzero" fill-opacity="1" /><path clip-path="url(#clip140)" d="M1579.96 1853.13 Q1578.97 1852.55 1577.8 1852.3 Q1576.65 1852.01 1575.25 1852.01 Q1570.28 1852.01 1567.61 1855.26 Q1564.97 1858.47 1564.97 1864.52 L1564.97 1883.3 L1559.08 1883.3 L1559.08 1847.65 L1564.97 1847.65 L1564.97 1853.19 Q1566.82 1849.94 1569.78 1848.39 Q1572.74 1846.79 1576.97 1846.79 Q1577.57 1846.79 1578.31 1846.89 Q1579.04 1846.95 1579.93 1847.11 L1579.96 1853.13 Z" fill="#000000" fill-rule="nonzero" fill-opacity="1" /><path clip-path="url(#clip140)" d="M1608.83 1848.7 L1608.83 1854.24 Q1606.35 1852.97 1603.67 1852.33 Q1601 1851.7 1598.13 1851.7 Q1593.77 1851.7 1591.58 1853.03 Q1589.41 1854.37 1589.41 1857.04 Q1589.41 1859.08 1590.97 1860.26 Q1592.53 1861.4 1597.24 1862.45 L1599.25 1862.9 Q1605.49 1864.24 1608.1 1866.69 Q1610.74 1869.11 1610.74 1873.47 Q1610.74 1878.43 1606.79 1881.33 Q1602.88 1884.22 1596 1884.22 Q1593.14 1884.22 1590.02 1883.65 Q1586.93 1883.11 1583.49 1882 L1583.49 1875.95 Q1586.74 1877.64 1589.89 1878.49 Q1593.04 1879.32 1596.13 1879.32 Q1600.27 1879.32 1602.5 1877.92 Q1604.72 1876.49 1604.72 1873.91 Q1604.72 1871.52 1603.1 1870.25 Q1601.51 1868.98 1596.07 1867.8 L1594.03 1867.32 Q1588.59 1866.18 1586.17 1863.82 Q1583.75 1861.43 1583.75 1857.3 Q1583.75 1852.27 1587.31 1849.53 Q1590.88 1846.79 1597.43 1846.79 Q1600.68 1846.79 1603.55 1847.27 Q1606.41 1847.75 1608.83 1848.7 Z" fill="#000000" fill-rule="nonzero" fill-opacity="1" /><path clip-path="url(#clip140)" d="M1619.14 1833.84 L1624.23 1833.84 Q1629.01 1841.35 1631.36 1848.54 Q1633.75 1855.74 1633.75 1862.84 Q1633.75 1869.96 1631.36 1877.19 Q1629.01 1884.41 1624.23 1891.89 L1619.14 1891.89 Q1623.37 1884.61 1625.44 1877.41 Q1627.54 1870.19 1627.54 1862.84 Q1627.54 1855.48 1625.44 1848.32 Q1623.37 1841.16 1619.14 1833.84 Z" fill="#000000" fill-rule="nonzero" fill-opacity="1" /><polyline clip-path="url(#clip140)" style="stroke:#000000; stroke-linecap:round; stroke-linejoin:round; stroke-width:4; stroke-opacity:1; fill:none" points="255.816,1734.12 255.816,127.792 "/>
<polyline clip-path="url(#clip140)" style="stroke:#000000; stroke-linecap:round; stroke-linejoin:round; stroke-width:4; stroke-opacity:1; fill:none" points="255.816,1701.53 274.714,1701.53 "/>
<polyline clip-path="url(#clip140)" style="stroke:#000000; stroke-linecap:round; stroke-linejoin:round; stroke-width:4; stroke-opacity:1; fill:none" points="255.816,1319.46 274.714,1319.46 "/>
<polyline clip-path="url(#clip140)" style="stroke:#000000; stroke-linecap:round; stroke-linejoin:round; stroke-width:4; stroke-opacity:1; fill:none" points="255.816,937.39 274.714,937.39 "/>
<polyline clip-path="url(#clip140)" style="stroke:#000000; stroke-linecap:round; stroke-linejoin:round; stroke-width:4; stroke-opacity:1; fill:none" points="255.816,555.322 274.714,555.322 "/>
<polyline clip-path="url(#clip140)" style="stroke:#000000; stroke-linecap:round; stroke-linejoin:round; stroke-width:4; stroke-opacity:1; fill:none" points="255.816,173.254 274.714,173.254 "/>
<path clip-path="url(#clip140)" d="M128.159 1687.32 Q124.548 1687.32 122.719 1690.89 Q120.913 1694.43 120.913 1701.56 Q120.913 1708.67 122.719 1712.23 Q124.548 1715.77 128.159 1715.77 Q131.793 1715.77 133.599 1712.23 Q135.427 1708.67 135.427 1701.56 Q135.427 1694.43 133.599 1690.89 Q131.793 1687.32 128.159 1687.32 M128.159 1683.62 Q133.969 1683.62 137.025 1688.23 Q140.103 1692.81 140.103 1701.56 Q140.103 1710.29 137.025 1714.89 Q133.969 1719.48 128.159 1719.48 Q122.349 1719.48 119.27 1714.89 Q116.214 1710.29 116.214 1701.56 Q116.214 1692.81 119.27 1688.23 Q122.349 1683.62 128.159 1683.62 Z" fill="#000000" fill-rule="nonzero" fill-opacity="1" /><path clip-path="url(#clip140)" d="M148.321 1712.93 L153.205 1712.93 L153.205 1718.81 L148.321 1718.81 L148.321 1712.93 Z" fill="#000000" fill-rule="nonzero" fill-opacity="1" /><path clip-path="url(#clip140)" d="M173.39 1687.32 Q169.779 1687.32 167.95 1690.89 Q166.145 1694.43 166.145 1701.56 Q166.145 1708.67 167.95 1712.23 Q169.779 1715.77 173.39 1715.77 Q177.024 1715.77 178.83 1712.23 Q180.659 1708.67 180.659 1701.56 Q180.659 1694.43 178.83 1690.89 Q177.024 1687.32 173.39 1687.32 M173.39 1683.62 Q179.2 1683.62 182.256 1688.23 Q185.334 1692.81 185.334 1701.56 Q185.334 1710.29 182.256 1714.89 Q179.2 1719.48 173.39 1719.48 Q167.58 1719.48 164.501 1714.89 Q161.446 1710.29 161.446 1701.56 Q161.446 1692.81 164.501 1688.23 Q167.58 1683.62 173.39 1683.62 Z" fill="#000000" fill-rule="nonzero" fill-opacity="1" /><path clip-path="url(#clip140)" d="M203.552 1687.32 Q199.941 1687.32 198.112 1690.89 Q196.307 1694.43 196.307 1701.56 Q196.307 1708.67 198.112 1712.23 Q199.941 1715.77 203.552 1715.77 Q207.186 1715.77 208.992 1712.23 Q210.82 1708.67 210.82 1701.56 Q210.82 1694.43 208.992 1690.89 Q207.186 1687.32 203.552 1687.32 M203.552 1683.62 Q209.362 1683.62 212.418 1688.23 Q215.496 1692.81 215.496 1701.56 Q215.496 1710.29 212.418 1714.89 Q209.362 1719.48 203.552 1719.48 Q197.742 1719.48 194.663 1714.89 Q191.608 1710.29 191.608 1701.56 Q191.608 1692.81 194.663 1688.23 Q197.742 1683.62 203.552 1683.62 Z" fill="#000000" fill-rule="nonzero" fill-opacity="1" /><path clip-path="url(#clip140)" d="M129.154 1305.26 Q125.543 1305.26 123.714 1308.82 Q121.909 1312.36 121.909 1319.49 Q121.909 1326.6 123.714 1330.16 Q125.543 1333.71 129.154 1333.71 Q132.788 1333.71 134.594 1330.16 Q136.423 1326.6 136.423 1319.49 Q136.423 1312.36 134.594 1308.82 Q132.788 1305.26 129.154 1305.26 M129.154 1301.55 Q134.964 1301.55 138.02 1306.16 Q141.099 1310.74 141.099 1319.49 Q141.099 1328.22 138.02 1332.83 Q134.964 1337.41 129.154 1337.41 Q123.344 1337.41 120.265 1332.83 Q117.21 1328.22 117.21 1319.49 Q117.21 1310.74 120.265 1306.16 Q123.344 1301.55 129.154 1301.55 Z" fill="#000000" fill-rule="nonzero" fill-opacity="1" /><path clip-path="url(#clip140)" d="M149.316 1330.86 L154.2 1330.86 L154.2 1336.74 L149.316 1336.74 L149.316 1330.86 Z" fill="#000000" fill-rule="nonzero" fill-opacity="1" /><path clip-path="url(#clip140)" d="M168.413 1332.8 L184.733 1332.8 L184.733 1336.74 L162.788 1336.74 L162.788 1332.8 Q165.45 1330.05 170.034 1325.42 Q174.64 1320.77 175.821 1319.42 Q178.066 1316.9 178.946 1315.16 Q179.848 1313.4 179.848 1311.71 Q179.848 1308.96 177.904 1307.22 Q175.983 1305.49 172.881 1305.49 Q170.682 1305.49 168.228 1306.25 Q165.798 1307.02 163.02 1308.57 L163.02 1303.84 Q165.844 1302.71 168.297 1302.13 Q170.751 1301.55 172.788 1301.55 Q178.159 1301.55 181.353 1304.24 Q184.547 1306.92 184.547 1311.41 Q184.547 1313.54 183.737 1315.46 Q182.95 1317.36 180.844 1319.96 Q180.265 1320.63 177.163 1323.84 Q174.061 1327.04 168.413 1332.8 Z" fill="#000000" fill-rule="nonzero" fill-opacity="1" /><path clip-path="url(#clip140)" d="M194.594 1302.18 L212.95 1302.18 L212.95 1306.11 L198.876 1306.11 L198.876 1314.59 Q199.895 1314.24 200.913 1314.08 Q201.932 1313.89 202.95 1313.89 Q208.737 1313.89 212.117 1317.06 Q215.496 1320.23 215.496 1325.65 Q215.496 1331.23 212.024 1334.33 Q208.552 1337.41 202.233 1337.41 Q200.057 1337.41 197.788 1337.04 Q195.543 1336.67 193.135 1335.93 L193.135 1331.23 Q195.219 1332.36 197.441 1332.92 Q199.663 1333.47 202.14 1333.47 Q206.145 1333.47 208.482 1331.37 Q210.82 1329.26 210.82 1325.65 Q210.82 1322.04 208.482 1319.93 Q206.145 1317.83 202.14 1317.83 Q200.265 1317.83 198.39 1318.24 Q196.538 1318.66 194.594 1319.54 L194.594 1302.18 Z" fill="#000000" fill-rule="nonzero" fill-opacity="1" /><path clip-path="url(#clip140)" d="M128.159 923.189 Q124.548 923.189 122.719 926.753 Q120.913 930.295 120.913 937.425 Q120.913 944.531 122.719 948.096 Q124.548 951.638 128.159 951.638 Q131.793 951.638 133.599 948.096 Q135.427 944.531 135.427 937.425 Q135.427 930.295 133.599 926.753 Q131.793 923.189 128.159 923.189 M128.159 919.485 Q133.969 919.485 137.025 924.091 Q140.103 928.675 140.103 937.425 Q140.103 946.151 137.025 950.758 Q133.969 955.341 128.159 955.341 Q122.349 955.341 119.27 950.758 Q116.214 946.151 116.214 937.425 Q116.214 928.675 119.27 924.091 Q122.349 919.485 128.159 919.485 Z" fill="#000000" fill-rule="nonzero" fill-opacity="1" /><path clip-path="url(#clip140)" d="M148.321 948.79 L153.205 948.79 L153.205 954.67 L148.321 954.67 L148.321 948.79 Z" fill="#000000" fill-rule="nonzero" fill-opacity="1" /><path clip-path="url(#clip140)" d="M163.436 920.11 L181.793 920.11 L181.793 924.045 L167.719 924.045 L167.719 932.517 Q168.737 932.17 169.756 932.008 Q170.774 931.823 171.793 931.823 Q177.58 931.823 180.959 934.994 Q184.339 938.165 184.339 943.582 Q184.339 949.161 180.867 952.263 Q177.395 955.341 171.075 955.341 Q168.899 955.341 166.631 954.971 Q164.385 954.6 161.978 953.86 L161.978 949.161 Q164.061 950.295 166.284 950.85 Q168.506 951.406 170.983 951.406 Q174.987 951.406 177.325 949.3 Q179.663 947.193 179.663 943.582 Q179.663 939.971 177.325 937.864 Q174.987 935.758 170.983 935.758 Q169.108 935.758 167.233 936.175 Q165.381 936.591 163.436 937.471 L163.436 920.11 Z" fill="#000000" fill-rule="nonzero" fill-opacity="1" /><path clip-path="url(#clip140)" d="M203.552 923.189 Q199.941 923.189 198.112 926.753 Q196.307 930.295 196.307 937.425 Q196.307 944.531 198.112 948.096 Q199.941 951.638 203.552 951.638 Q207.186 951.638 208.992 948.096 Q210.82 944.531 210.82 937.425 Q210.82 930.295 208.992 926.753 Q207.186 923.189 203.552 923.189 M203.552 919.485 Q209.362 919.485 212.418 924.091 Q215.496 928.675 215.496 937.425 Q215.496 946.151 212.418 950.758 Q209.362 955.341 203.552 955.341 Q197.742 955.341 194.663 950.758 Q191.608 946.151 191.608 937.425 Q191.608 928.675 194.663 924.091 Q197.742 919.485 203.552 919.485 Z" fill="#000000" fill-rule="nonzero" fill-opacity="1" /><path clip-path="url(#clip140)" d="M129.154 541.121 Q125.543 541.121 123.714 544.686 Q121.909 548.227 121.909 555.357 Q121.909 562.463 123.714 566.028 Q125.543 569.57 129.154 569.57 Q132.788 569.57 134.594 566.028 Q136.423 562.463 136.423 555.357 Q136.423 548.227 134.594 544.686 Q132.788 541.121 129.154 541.121 M129.154 537.417 Q134.964 537.417 138.02 542.023 Q141.099 546.607 141.099 555.357 Q141.099 564.084 138.02 568.69 Q134.964 573.273 129.154 573.273 Q123.344 573.273 120.265 568.69 Q117.21 564.084 117.21 555.357 Q117.21 546.607 120.265 542.023 Q123.344 537.417 129.154 537.417 Z" fill="#000000" fill-rule="nonzero" fill-opacity="1" /><path clip-path="url(#clip140)" d="M149.316 566.722 L154.2 566.722 L154.2 572.602 L149.316 572.602 L149.316 566.722 Z" fill="#000000" fill-rule="nonzero" fill-opacity="1" /><path clip-path="url(#clip140)" d="M163.205 538.042 L185.427 538.042 L185.427 540.033 L172.881 572.602 L167.997 572.602 L179.802 541.977 L163.205 541.977 L163.205 538.042 Z" fill="#000000" fill-rule="nonzero" fill-opacity="1" /><path clip-path="url(#clip140)" d="M194.594 538.042 L212.95 538.042 L212.95 541.977 L198.876 541.977 L198.876 550.449 Q199.895 550.102 200.913 549.94 Q201.932 549.755 202.95 549.755 Q208.737 549.755 212.117 552.926 Q215.496 556.097 215.496 561.514 Q215.496 567.093 212.024 570.195 Q208.552 573.273 202.233 573.273 Q200.057 573.273 197.788 572.903 Q195.543 572.533 193.135 571.792 L193.135 567.093 Q195.219 568.227 197.441 568.783 Q199.663 569.338 202.14 569.338 Q206.145 569.338 208.482 567.232 Q210.82 565.125 210.82 561.514 Q210.82 557.903 208.482 555.797 Q206.145 553.69 202.14 553.69 Q200.265 553.69 198.39 554.107 Q196.538 554.523 194.594 555.403 L194.594 538.042 Z" fill="#000000" fill-rule="nonzero" fill-opacity="1" /><path clip-path="url(#clip140)" d="M118.969 186.599 L126.608 186.599 L126.608 160.233 L118.298 161.9 L118.298 157.641 L126.562 155.974 L131.238 155.974 L131.238 186.599 L138.876 186.599 L138.876 190.534 L118.969 190.534 L118.969 186.599 Z" fill="#000000" fill-rule="nonzero" fill-opacity="1" /><path clip-path="url(#clip140)" d="M148.321 184.655 L153.205 184.655 L153.205 190.534 L148.321 190.534 L148.321 184.655 Z" fill="#000000" fill-rule="nonzero" fill-opacity="1" /><path clip-path="url(#clip140)" d="M173.39 159.053 Q169.779 159.053 167.95 162.618 Q166.145 166.159 166.145 173.289 Q166.145 180.395 167.95 183.96 Q169.779 187.502 173.39 187.502 Q177.024 187.502 178.83 183.96 Q180.659 180.395 180.659 173.289 Q180.659 166.159 178.83 162.618 Q177.024 159.053 173.39 159.053 M173.39 155.349 Q179.2 155.349 182.256 159.956 Q185.334 164.539 185.334 173.289 Q185.334 182.016 182.256 186.622 Q179.2 191.205 173.39 191.205 Q167.58 191.205 164.501 186.622 Q161.446 182.016 161.446 173.289 Q161.446 164.539 164.501 159.956 Q167.58 155.349 173.39 155.349 Z" fill="#000000" fill-rule="nonzero" fill-opacity="1" /><path clip-path="url(#clip140)" d="M203.552 159.053 Q199.941 159.053 198.112 162.618 Q196.307 166.159 196.307 173.289 Q196.307 180.395 198.112 183.96 Q199.941 187.502 203.552 187.502 Q207.186 187.502 208.992 183.96 Q210.82 180.395 210.82 173.289 Q210.82 166.159 208.992 162.618 Q207.186 159.053 203.552 159.053 M203.552 155.349 Q209.362 155.349 212.418 159.956 Q215.496 164.539 215.496 173.289 Q215.496 182.016 212.418 186.622 Q209.362 191.205 203.552 191.205 Q197.742 191.205 194.663 186.622 Q191.608 182.016 191.608 173.289 Q191.608 164.539 194.663 159.956 Q197.742 155.349 203.552 155.349 Z" fill="#000000" fill-rule="nonzero" fill-opacity="1" /><path clip-path="url(#clip140)" d="M15.678 1162.65 L21.9483 1162.65 Q20.1977 1166.31 19.3383 1169.56 Q18.479 1172.8 18.479 1175.83 Q18.479 1181.08 20.516 1183.94 Q22.553 1186.78 26.3088 1186.78 Q29.4598 1186.78 31.0831 1184.9 Q32.6745 1182.99 33.6612 1177.71 L34.4569 1173.82 Q35.8255 1166.63 39.2948 1163.22 Q42.7323 1159.79 48.5251 1159.79 Q55.4319 1159.79 58.9967 1164.43 Q62.5615 1169.05 62.5615 1177.99 Q62.5615 1181.37 61.7976 1185.18 Q61.0337 1188.97 59.5378 1193.05 L52.9174 1193.05 Q55.1136 1189.13 56.2276 1185.38 Q57.3416 1181.62 57.3416 1177.99 Q57.3416 1172.49 55.1773 1169.49 Q53.0129 1166.5 49.0025 1166.5 Q45.5014 1166.5 43.528 1168.67 Q41.5546 1170.8 40.568 1175.7 L39.8041 1179.61 Q38.3718 1186.81 35.3162 1190.02 Q32.2607 1193.24 26.818 1193.24 Q20.516 1193.24 16.8875 1188.81 Q13.2591 1184.36 13.2591 1176.56 Q13.2591 1173.22 13.8638 1169.75 Q14.4686 1166.28 15.678 1162.65 Z" fill="#000000" fill-rule="nonzero" fill-opacity="1" /><path clip-path="url(#clip140)" d="M47.5702 1150.62 L25.9905 1150.62 L25.9905 1144.76 L47.3474 1144.76 Q52.4082 1144.76 54.9545 1142.79 Q57.4689 1140.82 57.4689 1136.87 Q57.4689 1132.13 54.4452 1129.39 Q51.4215 1126.62 46.2016 1126.62 L25.9905 1126.62 L25.9905 1120.76 L61.6384 1120.76 L61.6384 1126.62 L56.1639 1126.62 Q59.4104 1128.75 61.0019 1131.59 Q62.5615 1134.39 62.5615 1138.11 Q62.5615 1144.25 58.742 1147.44 Q54.9226 1150.62 47.5702 1150.62 M25.1311 1135.88 L25.1311 1135.88 Z" fill="#000000" fill-rule="nonzero" fill-opacity="1" /><path clip-path="url(#clip140)" d="M31.465 1088.04 Q30.8921 1089.03 30.6375 1090.21 Q30.351 1091.35 30.351 1092.75 Q30.351 1097.72 33.5975 1100.39 Q36.8122 1103.04 42.8596 1103.04 L61.6384 1103.04 L61.6384 1108.92 L25.9905 1108.92 L25.9905 1103.04 L31.5287 1103.04 Q28.2821 1101.19 26.7225 1098.23 Q25.1311 1095.27 25.1311 1091.04 Q25.1311 1090.43 25.2266 1089.7 Q25.2903 1088.97 25.4494 1088.08 L31.465 1088.04 Z" fill="#000000" fill-rule="nonzero" fill-opacity="1" /><path clip-path="url(#clip140)" d="M25.9905 1086.1 L25.9905 1079.9 L55.9093 1068.76 L25.9905 1057.62 L25.9905 1051.41 L61.6384 1064.78 L61.6384 1072.73 L25.9905 1086.1 Z" fill="#000000" fill-rule="nonzero" fill-opacity="1" /><path clip-path="url(#clip140)" d="M25.9905 1043.33 L25.9905 1037.47 L61.6384 1037.47 L61.6384 1043.33 L25.9905 1043.33 M12.1132 1043.33 L12.1132 1037.47 L19.5293 1037.47 L19.5293 1043.33 L12.1132 1043.33 Z" fill="#000000" fill-rule="nonzero" fill-opacity="1" /><path clip-path="url(#clip140)" d="M25.9905 1029.42 L25.9905 1023.21 L55.9093 1012.07 L25.9905 1000.93 L25.9905 994.723 L61.6384 1008.09 L61.6384 1016.05 L25.9905 1029.42 Z" fill="#000000" fill-rule="nonzero" fill-opacity="1" /><path clip-path="url(#clip140)" d="M30.0964 972.825 Q30.0964 977.536 33.7885 980.273 Q37.4488 983.01 43.8463 983.01 Q50.2438 983.01 53.9359 980.305 Q57.5962 977.567 57.5962 972.825 Q57.5962 968.146 53.9041 965.409 Q50.212 962.672 43.8463 962.672 Q37.5124 962.672 33.8203 965.409 Q30.0964 968.146 30.0964 972.825 M25.1311 972.825 Q25.1311 965.186 30.0964 960.826 Q35.0616 956.465 43.8463 956.465 Q52.5991 956.465 57.5962 960.826 Q62.5615 965.186 62.5615 972.825 Q62.5615 980.496 57.5962 984.856 Q52.5991 989.185 43.8463 989.185 Q35.0616 989.185 30.0964 984.856 Q25.1311 980.496 25.1311 972.825 Z" fill="#000000" fill-rule="nonzero" fill-opacity="1" /><path clip-path="url(#clip140)" d="M31.465 926.101 Q30.8921 927.087 30.6375 928.265 Q30.351 929.411 30.351 930.811 Q30.351 935.777 33.5975 938.45 Q36.8122 941.092 42.8596 941.092 L61.6384 941.092 L61.6384 946.98 L25.9905 946.98 L25.9905 941.092 L31.5287 941.092 Q28.2821 939.246 26.7225 936.286 Q25.1311 933.326 25.1311 929.093 Q25.1311 928.488 25.2266 927.756 Q25.2903 927.024 25.4494 926.133 L31.465 926.101 Z" fill="#000000" fill-rule="nonzero" fill-opacity="1" /><path clip-path="url(#clip140)" d="M27.0408 897.232 L32.579 897.232 Q31.3059 899.715 30.6693 902.388 Q30.0327 905.062 30.0327 907.927 Q30.0327 912.287 31.3695 914.483 Q32.7063 916.648 35.3799 916.648 Q37.4169 916.648 38.5946 915.088 Q39.7404 913.528 40.7908 908.818 L41.2364 906.813 Q42.5732 900.574 45.0239 897.964 Q47.4429 895.323 51.8034 895.323 Q56.7687 895.323 59.6651 899.269 Q62.5615 903.184 62.5615 910.059 Q62.5615 912.924 61.9886 916.043 Q61.4475 919.13 60.3335 922.568 L54.2861 922.568 Q55.973 919.321 56.8323 916.17 Q57.6599 913.019 57.6599 909.932 Q57.6599 905.794 56.2594 903.566 Q54.8271 901.338 52.249 901.338 Q49.8619 901.338 48.5887 902.961 Q47.3156 904.553 46.1379 909.995 L45.6605 912.032 Q44.5147 917.475 42.1594 919.894 Q39.7722 922.313 35.6345 922.313 Q30.6056 922.313 27.8684 918.748 Q25.1311 915.184 25.1311 908.627 Q25.1311 905.38 25.6085 902.516 Q26.086 899.651 27.0408 897.232 Z" fill="#000000" fill-rule="nonzero" fill-opacity="1" /><path clip-path="url(#clip140)" d="M40.1224 856.364 L61.6384 856.364 L61.6384 862.221 L40.3133 862.221 Q35.2526 862.221 32.7381 864.194 Q30.2237 866.168 30.2237 870.114 Q30.2237 874.857 33.2474 877.594 Q36.2711 880.331 41.491 880.331 L61.6384 880.331 L61.6384 886.22 L12.1132 886.22 L12.1132 880.331 L31.5287 880.331 Q28.314 878.231 26.7225 875.398 Q25.1311 872.533 25.1311 868.809 Q25.1311 862.666 28.9505 859.515 Q32.7381 856.364 40.1224 856.364 Z" fill="#000000" fill-rule="nonzero" fill-opacity="1" /><path clip-path="url(#clip140)" d="M25.9905 844.683 L25.9905 838.827 L61.6384 838.827 L61.6384 844.683 L25.9905 844.683 M12.1132 844.683 L12.1132 838.827 L19.5293 838.827 L19.5293 844.683 L12.1132 844.683 Z" fill="#000000" fill-rule="nonzero" fill-opacity="1" /><path clip-path="url(#clip140)" d="M56.2912 820.907 L75.1974 820.907 L75.1974 826.796 L25.9905 826.796 L25.9905 820.907 L31.4013 820.907 Q28.2185 819.061 26.6907 816.26 Q25.1311 813.428 25.1311 809.513 Q25.1311 803.02 30.2873 798.978 Q35.4436 794.903 43.8463 794.903 Q52.249 794.903 57.4052 798.978 Q62.5615 803.02 62.5615 809.513 Q62.5615 813.428 61.0337 816.26 Q59.4741 819.061 56.2912 820.907 M43.8463 800.983 Q37.3851 800.983 33.7248 803.656 Q30.0327 806.298 30.0327 810.945 Q30.0327 815.592 33.7248 818.266 Q37.3851 820.907 43.8463 820.907 Q50.3075 820.907 53.9996 818.266 Q57.6599 815.592 57.6599 810.945 Q57.6599 806.298 53.9996 803.656 Q50.3075 800.983 43.8463 800.983 Z" fill="#000000" fill-rule="nonzero" fill-opacity="1" /><path clip-path="url(#clip140)" d="M12.1132 764.475 L12.1132 758.619 L61.6384 758.619 L61.6384 764.475 L12.1132 764.475 Z" fill="#000000" fill-rule="nonzero" fill-opacity="1" /><path clip-path="url(#clip140)" d="M12.1769 732.297 Q19.4975 736.562 26.6589 738.631 Q33.8203 740.699 41.1727 740.699 Q48.5251 740.699 55.7502 738.631 Q62.9434 736.53 70.2321 732.297 L70.2321 737.389 Q62.7524 742.164 55.5274 744.551 Q48.3023 746.906 41.1727 746.906 Q34.0749 746.906 26.8817 744.551 Q19.6884 742.195 12.1769 737.389 L12.1769 732.297 Z" fill="#000000" fill-rule="nonzero" fill-opacity="1" /><path clip-path="url(#clip140)" d="M25.9905 691.302 L43.337 704.192 L61.6384 690.633 L61.6384 697.54 L47.6339 707.916 L61.6384 718.292 L61.6384 725.199 L42.9869 711.354 L25.9905 724.021 L25.9905 717.115 L38.6901 707.661 L25.9905 698.208 L25.9905 691.302 Z" fill="#000000" fill-rule="nonzero" fill-opacity="1" /><path clip-path="url(#clip140)" d="M12.1769 683.281 L12.1769 678.188 Q19.6884 673.414 26.8817 671.059 Q34.0749 668.672 41.1727 668.672 Q48.3023 668.672 55.5274 671.059 Q62.7524 673.414 70.2321 678.188 L70.2321 683.281 Q62.9434 679.048 55.7502 676.979 Q48.5251 674.878 41.1727 674.878 Q33.8203 674.878 26.6589 676.979 Q19.4975 679.048 12.1769 683.281 Z" fill="#000000" fill-rule="nonzero" fill-opacity="1" /><path clip-path="url(#clip140)" d="M708.145 14.0809 L708.145 22.0612 Q703.487 19.8332 699.355 18.7395 Q695.223 17.6457 691.375 17.6457 Q684.691 17.6457 681.045 20.2383 Q677.44 22.8309 677.44 27.611 Q677.44 31.6214 679.83 33.6873 Q682.26 35.7128 688.985 36.9686 L693.927 37.9813 Q703.082 39.7232 707.416 44.1387 Q711.791 48.5136 711.791 55.8863 Q711.791 64.6767 705.877 69.2137 Q700.003 73.7508 688.62 73.7508 Q684.326 73.7508 679.465 72.7785 Q674.644 71.8063 669.459 69.9024 L669.459 61.4765 Q674.442 64.2716 679.222 65.6895 Q684.002 67.1073 688.62 67.1073 Q695.628 67.1073 699.436 64.3527 Q703.244 61.598 703.244 56.4939 Q703.244 52.0379 700.489 49.5264 Q697.775 47.0148 691.537 45.759 L686.554 44.7868 Q677.399 42.9639 673.308 39.075 Q669.216 35.1862 669.216 28.2591 Q669.216 20.2383 674.847 15.6203 Q680.518 11.0023 690.443 11.0023 Q694.696 11.0023 699.112 11.7719 Q703.527 12.5416 708.145 14.0809 Z" fill="#000000" fill-rule="nonzero" fill-opacity="1" /><path clip-path="url(#clip140)" d="M723.458 54.671 L723.458 27.2059 L730.911 27.2059 L730.911 54.3874 Q730.911 60.8284 733.423 64.0691 Q735.935 67.2693 740.958 67.2693 Q746.994 67.2693 750.477 63.421 Q754.002 59.5726 754.002 52.9291 L754.002 27.2059 L761.455 27.2059 L761.455 72.576 L754.002 72.576 L754.002 65.6084 Q751.288 69.7404 747.682 71.7658 Q744.117 73.7508 739.378 73.7508 Q731.56 73.7508 727.509 68.8897 Q723.458 64.0286 723.458 54.671 M742.214 26.1121 L742.214 26.1121 Z" fill="#000000" fill-rule="nonzero" fill-opacity="1" /><path clip-path="url(#clip140)" d="M803.099 34.1734 Q801.843 33.4443 800.344 33.1202 Q798.886 32.7556 797.103 32.7556 Q790.784 32.7556 787.381 36.8875 Q784.019 40.9789 784.019 48.6757 L784.019 72.576 L776.525 72.576 L776.525 27.2059 L784.019 27.2059 L784.019 34.2544 Q786.368 30.1225 790.136 28.1376 Q793.903 26.1121 799.291 26.1121 Q800.06 26.1121 800.992 26.2337 Q801.924 26.3147 803.058 26.5172 L803.099 34.1734 Z" fill="#000000" fill-rule="nonzero" fill-opacity="1" /><path clip-path="url(#clip140)" d="M805.57 27.2059 L813.469 27.2059 L827.647 65.2844 L841.825 27.2059 L849.725 27.2059 L832.711 72.576 L822.583 72.576 L805.57 27.2059 Z" fill="#000000" fill-rule="nonzero" fill-opacity="1" /><path clip-path="url(#clip140)" d="M860.014 27.2059 L867.467 27.2059 L867.467 72.576 L860.014 72.576 L860.014 27.2059 M860.014 9.54393 L867.467 9.54393 L867.467 18.9825 L860.014 18.9825 L860.014 9.54393 Z" fill="#000000" fill-rule="nonzero" fill-opacity="1" /><path clip-path="url(#clip140)" d="M877.716 27.2059 L885.616 27.2059 L899.794 65.2844 L913.972 27.2059 L921.871 27.2059 L904.857 72.576 L894.73 72.576 L877.716 27.2059 Z" fill="#000000" fill-rule="nonzero" fill-opacity="1" /><path clip-path="url(#clip140)" d="M949.741 32.4315 Q943.746 32.4315 940.262 37.1306 Q936.778 41.7891 936.778 49.9314 Q936.778 58.0738 940.222 62.7728 Q943.705 67.4314 949.741 67.4314 Q955.696 67.4314 959.18 62.7323 Q962.664 58.0333 962.664 49.9314 Q962.664 41.8701 959.18 37.1711 Q955.696 32.4315 949.741 32.4315 M949.741 26.1121 Q959.463 26.1121 965.013 32.4315 Q970.563 38.7509 970.563 49.9314 Q970.563 61.0714 965.013 67.4314 Q959.463 73.7508 949.741 73.7508 Q939.979 73.7508 934.429 67.4314 Q928.92 61.0714 928.92 49.9314 Q928.92 38.7509 934.429 32.4315 Q939.979 26.1121 949.741 26.1121 Z" fill="#000000" fill-rule="nonzero" fill-opacity="1" /><path clip-path="url(#clip140)" d="M1009.21 34.1734 Q1007.95 33.4443 1006.45 33.1202 Q1005 32.7556 1003.21 32.7556 Q996.894 32.7556 993.491 36.8875 Q990.129 40.9789 990.129 48.6757 L990.129 72.576 L982.635 72.576 L982.635 27.2059 L990.129 27.2059 L990.129 34.2544 Q992.478 30.1225 996.246 28.1376 Q1000.01 26.1121 1005.4 26.1121 Q1006.17 26.1121 1007.1 26.2337 Q1008.03 26.3147 1009.17 26.5172 L1009.21 34.1734 Z" fill="#000000" fill-rule="nonzero" fill-opacity="1" /><path clip-path="url(#clip140)" d="M1045.95 28.5427 L1045.95 35.5912 Q1042.79 33.9709 1039.39 33.1607 Q1035.99 32.3505 1032.34 32.3505 Q1026.79 32.3505 1023.99 34.0519 Q1021.24 35.7533 1021.24 39.156 Q1021.24 41.7486 1023.22 43.2475 Q1025.21 44.7058 1031.21 46.0426 L1033.76 46.6097 Q1041.7 48.3111 1045.02 51.4303 Q1048.38 54.509 1048.38 60.0587 Q1048.38 66.3781 1043.36 70.0644 Q1038.38 73.7508 1029.63 73.7508 Q1025.98 73.7508 1022.01 73.0216 Q1018.08 72.3329 1013.71 70.9151 L1013.71 63.2184 Q1017.84 65.3654 1021.85 66.4591 Q1025.86 67.5124 1029.79 67.5124 Q1035.05 67.5124 1037.89 65.73 Q1040.72 63.9071 1040.72 60.6258 Q1040.72 57.5877 1038.66 55.9673 Q1036.63 54.3469 1029.71 52.8481 L1027.11 52.2405 Q1020.19 50.7821 1017.11 47.7845 Q1014.03 44.7463 1014.03 39.4801 Q1014.03 33.0797 1018.57 29.5959 Q1023.1 26.1121 1031.45 26.1121 Q1035.58 26.1121 1039.23 26.7198 Q1042.87 27.3274 1045.95 28.5427 Z" fill="#000000" fill-rule="nonzero" fill-opacity="1" /><path clip-path="url(#clip140)" d="M1097.96 45.1919 L1097.96 72.576 L1090.51 72.576 L1090.51 45.4349 Q1090.51 38.994 1088 35.7938 Q1085.49 32.5936 1080.46 32.5936 Q1074.43 32.5936 1070.94 36.4419 Q1067.46 40.2903 1067.46 46.9338 L1067.46 72.576 L1059.97 72.576 L1059.97 9.54393 L1067.46 9.54393 L1067.46 34.2544 Q1070.13 30.163 1073.74 28.1376 Q1077.39 26.1121 1082.12 26.1121 Q1089.94 26.1121 1093.95 30.9732 Q1097.96 35.7938 1097.96 45.1919 Z" fill="#000000" fill-rule="nonzero" fill-opacity="1" /><path clip-path="url(#clip140)" d="M1112.83 27.2059 L1120.28 27.2059 L1120.28 72.576 L1112.83 72.576 L1112.83 27.2059 M1112.83 9.54393 L1120.28 9.54393 L1120.28 18.9825 L1112.83 18.9825 L1112.83 9.54393 Z" fill="#000000" fill-rule="nonzero" fill-opacity="1" /><path clip-path="url(#clip140)" d="M1143.09 65.7705 L1143.09 89.8329 L1135.6 89.8329 L1135.6 27.2059 L1143.09 27.2059 L1143.09 34.0924 Q1145.44 30.0415 1149.01 28.0971 Q1152.61 26.1121 1157.59 26.1121 Q1165.86 26.1121 1171 32.6746 Q1176.19 39.2371 1176.19 49.9314 Q1176.19 60.6258 1171 67.1883 Q1165.86 73.7508 1157.59 73.7508 Q1152.61 73.7508 1149.01 71.8063 Q1145.44 69.8214 1143.09 65.7705 M1168.45 49.9314 Q1168.45 41.7081 1165.05 37.0496 Q1161.68 32.3505 1155.77 32.3505 Q1149.86 32.3505 1146.45 37.0496 Q1143.09 41.7081 1143.09 49.9314 Q1143.09 58.1548 1146.45 62.8538 Q1149.86 67.5124 1155.77 67.5124 Q1161.68 67.5124 1165.05 62.8538 Q1168.45 58.1548 1168.45 49.9314 Z" fill="#000000" fill-rule="nonzero" fill-opacity="1" /><path clip-path="url(#clip140)" d="M1211.15 46.9338 L1286.01 46.9338 L1286.01 52.7671 L1211.15 52.7671 L1211.15 46.9338 Z" fill="#000000" fill-rule="nonzero" fill-opacity="1" /><path clip-path="url(#clip140)" d="M1324.57 12.096 L1332.75 12.096 L1332.75 65.6895 L1362.2 65.6895 L1362.2 72.576 L1324.57 72.576 L1324.57 12.096 Z" fill="#000000" fill-rule="nonzero" fill-opacity="1" /><path clip-path="url(#clip140)" d="M1386.59 32.4315 Q1380.6 32.4315 1377.11 37.1306 Q1373.63 41.7891 1373.63 49.9314 Q1373.63 58.0738 1377.07 62.7728 Q1380.55 67.4314 1386.59 67.4314 Q1392.55 67.4314 1396.03 62.7323 Q1399.51 58.0333 1399.51 49.9314 Q1399.51 41.8701 1396.03 37.1711 Q1392.55 32.4315 1386.59 32.4315 M1386.59 26.1121 Q1396.31 26.1121 1401.86 32.4315 Q1407.41 38.7509 1407.41 49.9314 Q1407.41 61.0714 1401.86 67.4314 Q1396.31 73.7508 1386.59 73.7508 Q1376.83 73.7508 1371.28 67.4314 Q1365.77 61.0714 1365.77 49.9314 Q1365.77 38.7509 1371.28 32.4315 Q1376.83 26.1121 1386.59 26.1121 Z" fill="#000000" fill-rule="nonzero" fill-opacity="1" /><path clip-path="url(#clip140)" d="M1449.62 49.3643 Q1449.62 41.2625 1446.26 36.8065 Q1442.94 32.3505 1436.9 32.3505 Q1430.91 32.3505 1427.55 36.8065 Q1424.22 41.2625 1424.22 49.3643 Q1424.22 57.4256 1427.55 61.8816 Q1430.91 66.3376 1436.9 66.3376 Q1442.94 66.3376 1446.26 61.8816 Q1449.62 57.4256 1449.62 49.3643 M1457.08 66.9452 Q1457.08 78.5308 1451.93 84.1616 Q1446.79 89.8329 1436.17 89.8329 Q1432.24 89.8329 1428.76 89.2252 Q1425.28 88.6581 1422 87.4428 L1422 80.1917 Q1425.28 81.9741 1428.48 82.8248 Q1431.68 83.6755 1435 83.6755 Q1442.33 83.6755 1445.98 79.8271 Q1449.62 76.0193 1449.62 68.282 L1449.62 64.5957 Q1447.31 68.6061 1443.71 70.5911 Q1440.1 72.576 1435.08 72.576 Q1426.74 72.576 1421.63 66.2161 Q1416.53 59.8562 1416.53 49.3643 Q1416.53 38.832 1421.63 32.472 Q1426.74 26.1121 1435.08 26.1121 Q1440.1 26.1121 1443.71 28.0971 Q1447.31 30.082 1449.62 34.0924 L1449.62 27.2059 L1457.08 27.2059 L1457.08 66.9452 Z" fill="#000000" fill-rule="nonzero" fill-opacity="1" /><path clip-path="url(#clip140)" d="M1502.28 49.3643 Q1502.28 41.2625 1498.92 36.8065 Q1495.6 32.3505 1489.56 32.3505 Q1483.57 32.3505 1480.21 36.8065 Q1476.89 41.2625 1476.89 49.3643 Q1476.89 57.4256 1480.21 61.8816 Q1483.57 66.3376 1489.56 66.3376 Q1495.6 66.3376 1498.92 61.8816 Q1502.28 57.4256 1502.28 49.3643 M1509.74 66.9452 Q1509.74 78.5308 1504.59 84.1616 Q1499.45 89.8329 1488.84 89.8329 Q1484.91 89.8329 1481.42 89.2252 Q1477.94 88.6581 1474.66 87.4428 L1474.66 80.1917 Q1477.94 81.9741 1481.14 82.8248 Q1484.34 83.6755 1487.66 83.6755 Q1494.99 83.6755 1498.64 79.8271 Q1502.28 76.0193 1502.28 68.282 L1502.28 64.5957 Q1499.98 68.6061 1496.37 70.5911 Q1492.77 72.576 1487.74 72.576 Q1479.4 72.576 1474.29 66.2161 Q1469.19 59.8562 1469.19 49.3643 Q1469.19 38.832 1474.29 32.472 Q1479.4 26.1121 1487.74 26.1121 Q1492.77 26.1121 1496.37 28.0971 Q1499.98 30.082 1502.28 34.0924 L1502.28 27.2059 L1509.74 27.2059 L1509.74 66.9452 Z" fill="#000000" fill-rule="nonzero" fill-opacity="1" /><path clip-path="url(#clip140)" d="M1563.9 48.0275 L1563.9 51.6733 L1529.63 51.6733 Q1530.11 59.3701 1534.25 63.421 Q1538.42 67.4314 1545.83 67.4314 Q1550.13 67.4314 1554.14 66.3781 Q1558.19 65.3249 1562.16 63.2184 L1562.16 70.267 Q1558.15 71.9684 1553.93 72.8596 Q1549.72 73.7508 1545.39 73.7508 Q1534.53 73.7508 1528.17 67.4314 Q1521.85 61.1119 1521.85 50.3365 Q1521.85 39.1965 1527.85 32.6746 Q1533.88 26.1121 1544.09 26.1121 Q1553.25 26.1121 1558.55 32.0264 Q1563.9 37.9003 1563.9 48.0275 M1556.45 45.84 Q1556.36 39.7232 1553 36.0774 Q1549.68 32.4315 1544.17 32.4315 Q1537.93 32.4315 1534.17 35.9558 Q1530.44 39.4801 1529.87 45.8805 L1556.45 45.84 Z" fill="#000000" fill-rule="nonzero" fill-opacity="1" /><path clip-path="url(#clip140)" d="M1602.42 34.1734 Q1601.17 33.4443 1599.67 33.1202 Q1598.21 32.7556 1596.43 32.7556 Q1590.11 32.7556 1586.71 36.8875 Q1583.34 40.9789 1583.34 48.6757 L1583.34 72.576 L1575.85 72.576 L1575.85 27.2059 L1583.34 27.2059 L1583.34 34.2544 Q1585.69 30.1225 1589.46 28.1376 Q1593.23 26.1121 1598.62 26.1121 Q1599.38 26.1121 1600.32 26.2337 Q1601.25 26.3147 1602.38 26.5172 L1602.42 34.1734 Z" fill="#000000" fill-rule="nonzero" fill-opacity="1" /><path clip-path="url(#clip140)" d="M1646.5 45.1919 L1646.5 72.576 L1639.04 72.576 L1639.04 45.4349 Q1639.04 38.994 1636.53 35.7938 Q1634.02 32.5936 1629 32.5936 Q1622.96 32.5936 1619.48 36.4419 Q1615.99 40.2903 1615.99 46.9338 L1615.99 72.576 L1608.5 72.576 L1608.5 9.54393 L1615.99 9.54393 L1615.99 34.2544 Q1618.67 30.163 1622.27 28.1376 Q1625.92 26.1121 1630.66 26.1121 Q1638.48 26.1121 1642.49 30.9732 Q1646.5 35.7938 1646.5 45.1919 Z" fill="#000000" fill-rule="nonzero" fill-opacity="1" /><path clip-path="url(#clip140)" d="M1700.17 48.0275 L1700.17 51.6733 L1665.9 51.6733 Q1666.39 59.3701 1670.52 63.421 Q1674.69 67.4314 1682.1 67.4314 Q1686.4 67.4314 1690.41 66.3781 Q1694.46 65.3249 1698.43 63.2184 L1698.43 70.267 Q1694.42 71.9684 1690.21 72.8596 Q1685.99 73.7508 1681.66 73.7508 Q1670.8 73.7508 1664.44 67.4314 Q1658.12 61.1119 1658.12 50.3365 Q1658.12 39.1965 1664.12 32.6746 Q1670.15 26.1121 1680.36 26.1121 Q1689.52 26.1121 1694.82 32.0264 Q1700.17 37.9003 1700.17 48.0275 M1692.72 45.84 Q1692.64 39.7232 1689.27 36.0774 Q1685.95 32.4315 1680.44 32.4315 Q1674.21 32.4315 1670.44 35.9558 Q1666.71 39.4801 1666.14 45.8805 L1692.72 45.84 Z" fill="#000000" fill-rule="nonzero" fill-opacity="1" /><path clip-path="url(#clip140)" d="M1733.02 49.7694 Q1723.99 49.7694 1720.51 51.8354 Q1717.02 53.9013 1717.02 58.8839 Q1717.02 62.8538 1719.62 65.2034 Q1722.25 67.5124 1726.75 67.5124 Q1732.94 67.5124 1736.67 63.1374 Q1740.44 58.7219 1740.44 51.4303 L1740.44 49.7694 L1733.02 49.7694 M1747.89 46.6907 L1747.89 72.576 L1740.44 72.576 L1740.44 65.6895 Q1737.89 69.8214 1734.08 71.8063 Q1730.27 73.7508 1724.76 73.7508 Q1717.79 73.7508 1713.66 69.8619 Q1709.57 65.9325 1709.57 59.3701 Q1709.57 51.7138 1714.67 47.825 Q1719.82 43.9361 1729.99 43.9361 L1740.44 43.9361 L1740.44 43.2069 Q1740.44 38.0623 1737.03 35.2672 Q1733.67 32.4315 1727.56 32.4315 Q1723.67 32.4315 1719.98 33.3632 Q1716.29 34.295 1712.89 36.1584 L1712.89 29.2718 Q1716.98 27.692 1720.83 26.9223 Q1724.68 26.1121 1728.33 26.1121 Q1738.17 26.1121 1743.03 31.2163 Q1747.89 36.3204 1747.89 46.6907 Z" fill="#000000" fill-rule="nonzero" fill-opacity="1" /><path clip-path="url(#clip140)" d="M1793.1 34.0924 L1793.1 9.54393 L1800.55 9.54393 L1800.55 72.576 L1793.1 72.576 L1793.1 65.7705 Q1790.75 69.8214 1787.14 71.8063 Q1783.58 73.7508 1778.56 73.7508 Q1770.33 73.7508 1765.15 67.1883 Q1760 60.6258 1760 49.9314 Q1760 39.2371 1765.15 32.6746 Q1770.33 26.1121 1778.56 26.1121 Q1783.58 26.1121 1787.14 28.0971 Q1790.75 30.0415 1793.1 34.0924 M1767.7 49.9314 Q1767.7 58.1548 1771.06 62.8538 Q1774.46 67.5124 1780.38 67.5124 Q1786.29 67.5124 1789.7 62.8538 Q1793.1 58.1548 1793.1 49.9314 Q1793.1 41.7081 1789.7 37.0496 Q1786.29 32.3505 1780.38 32.3505 Q1774.46 32.3505 1771.06 37.0496 Q1767.7 41.7081 1767.7 49.9314 Z" fill="#000000" fill-rule="nonzero" fill-opacity="1" /><path clip-path="url(#clip140)" d="M1871.2 28.5427 L1871.2 35.5912 Q1868.04 33.9709 1864.64 33.1607 Q1861.24 32.3505 1857.59 32.3505 Q1852.04 32.3505 1849.24 34.0519 Q1846.49 35.7533 1846.49 39.156 Q1846.49 41.7486 1848.47 43.2475 Q1850.46 44.7058 1856.46 46.0426 L1859.01 46.6097 Q1866.95 48.3111 1870.27 51.4303 Q1873.63 54.509 1873.63 60.0587 Q1873.63 66.3781 1868.61 70.0644 Q1863.63 73.7508 1854.88 73.7508 Q1851.23 73.7508 1847.26 73.0216 Q1843.33 72.3329 1838.96 70.9151 L1838.96 63.2184 Q1843.09 65.3654 1847.1 66.4591 Q1851.11 67.5124 1855.04 67.5124 Q1860.3 67.5124 1863.14 65.73 Q1865.97 63.9071 1865.97 60.6258 Q1865.97 57.5877 1863.91 55.9673 Q1861.88 54.3469 1854.96 52.8481 L1852.36 52.2405 Q1845.44 50.7821 1842.36 47.7845 Q1839.28 44.7463 1839.28 39.4801 Q1839.28 33.0797 1843.82 29.5959 Q1848.35 26.1121 1856.7 26.1121 Q1860.83 26.1121 1864.48 26.7198 Q1868.12 27.3274 1871.2 28.5427 Z" fill="#000000" fill-rule="nonzero" fill-opacity="1" /><path clip-path="url(#clip140)" d="M1924.31 48.0275 L1924.31 51.6733 L1890.04 51.6733 Q1890.52 59.3701 1894.66 63.421 Q1898.83 67.4314 1906.24 67.4314 Q1910.53 67.4314 1914.55 66.3781 Q1918.6 65.3249 1922.57 63.2184 L1922.57 70.267 Q1918.56 71.9684 1914.34 72.8596 Q1910.13 73.7508 1905.8 73.7508 Q1894.94 73.7508 1888.58 67.4314 Q1882.26 61.1119 1882.26 50.3365 Q1882.26 39.1965 1888.25 32.6746 Q1894.29 26.1121 1904.5 26.1121 Q1913.65 26.1121 1918.96 32.0264 Q1924.31 37.9003 1924.31 48.0275 M1916.85 45.84 Q1916.77 39.7232 1913.41 36.0774 Q1910.09 32.4315 1904.58 32.4315 Q1898.34 32.4315 1894.57 35.9558 Q1890.85 39.4801 1890.28 45.8805 L1916.85 45.84 Z" fill="#000000" fill-rule="nonzero" fill-opacity="1" /><path clip-path="url(#clip140)" d="M1957.16 49.7694 Q1948.13 49.7694 1944.64 51.8354 Q1941.16 53.9013 1941.16 58.8839 Q1941.16 62.8538 1943.75 65.2034 Q1946.39 67.5124 1950.88 67.5124 Q1957.08 67.5124 1960.81 63.1374 Q1964.57 58.7219 1964.57 51.4303 L1964.57 49.7694 L1957.16 49.7694 M1972.03 46.6907 L1972.03 72.576 L1964.57 72.576 L1964.57 65.6895 Q1962.02 69.8214 1958.21 71.8063 Q1954.41 73.7508 1948.9 73.7508 Q1941.93 73.7508 1937.8 69.8619 Q1933.71 65.9325 1933.71 59.3701 Q1933.71 51.7138 1938.81 47.825 Q1943.95 43.9361 1954.12 43.9361 L1964.57 43.9361 L1964.57 43.2069 Q1964.57 38.0623 1961.17 35.2672 Q1957.81 32.4315 1951.69 32.4315 Q1947.8 32.4315 1944.12 33.3632 Q1940.43 34.295 1937.03 36.1584 L1937.03 29.2718 Q1941.12 27.692 1944.97 26.9223 Q1948.82 26.1121 1952.46 26.1121 Q1962.31 26.1121 1967.17 31.2163 Q1972.03 36.3204 1972.03 46.6907 Z" fill="#000000" fill-rule="nonzero" fill-opacity="1" /><path clip-path="url(#clip140)" d="M2021.12 14.324 L2021.12 27.2059 L2036.48 27.2059 L2036.48 32.9987 L2021.12 32.9987 L2021.12 57.6282 Q2021.12 63.1779 2022.62 64.7578 Q2024.16 66.3376 2028.82 66.3376 L2036.48 66.3376 L2036.48 72.576 L2028.82 72.576 Q2020.19 72.576 2016.91 69.3758 Q2013.63 66.1351 2013.63 57.6282 L2013.63 32.9987 L2008.16 32.9987 L2008.16 27.2059 L2013.63 27.2059 L2013.63 14.324 L2021.12 14.324 Z" fill="#000000" fill-rule="nonzero" fill-opacity="1" /><path clip-path="url(#clip140)" d="M2045.51 54.671 L2045.51 27.2059 L2052.96 27.2059 L2052.96 54.3874 Q2052.96 60.8284 2055.48 64.0691 Q2057.99 67.2693 2063.01 67.2693 Q2069.05 67.2693 2072.53 63.421 Q2076.05 59.5726 2076.05 52.9291 L2076.05 27.2059 L2083.51 27.2059 L2083.51 72.576 L2076.05 72.576 L2076.05 65.6084 Q2073.34 69.7404 2069.74 71.7658 Q2066.17 73.7508 2061.43 73.7508 Q2053.61 73.7508 2049.56 68.8897 Q2045.51 64.0286 2045.51 54.671 M2064.27 26.1121 L2064.27 26.1121 Z" fill="#000000" fill-rule="nonzero" fill-opacity="1" /><path clip-path="url(#clip140)" d="M2125.15 34.1734 Q2123.9 33.4443 2122.4 33.1202 Q2120.94 32.7556 2119.16 32.7556 Q2112.84 32.7556 2109.43 36.8875 Q2106.07 40.9789 2106.07 48.6757 L2106.07 72.576 L2098.58 72.576 L2098.58 27.2059 L2106.07 27.2059 L2106.07 34.2544 Q2108.42 30.1225 2112.19 28.1376 Q2115.96 26.1121 2121.34 26.1121 Q2122.11 26.1121 2123.05 26.2337 Q2123.98 26.3147 2125.11 26.5172 L2125.15 34.1734 Z" fill="#000000" fill-rule="nonzero" fill-opacity="1" /><path clip-path="url(#clip140)" d="M2140.34 14.324 L2140.34 27.2059 L2155.7 27.2059 L2155.7 32.9987 L2140.34 32.9987 L2140.34 57.6282 Q2140.34 63.1779 2141.84 64.7578 Q2143.38 66.3376 2148.04 66.3376 L2155.7 66.3376 L2155.7 72.576 L2148.04 72.576 Q2139.41 72.576 2136.13 69.3758 Q2132.85 66.1351 2132.85 57.6282 L2132.85 32.9987 L2127.38 32.9987 L2127.38 27.2059 L2132.85 27.2059 L2132.85 14.324 L2140.34 14.324 Z" fill="#000000" fill-rule="nonzero" fill-opacity="1" /><path clip-path="url(#clip140)" d="M2165.5 9.54393 L2172.95 9.54393 L2172.95 72.576 L2165.5 72.576 L2165.5 9.54393 Z" fill="#000000" fill-rule="nonzero" fill-opacity="1" /><path clip-path="url(#clip140)" d="M2227.36 48.0275 L2227.36 51.6733 L2193.09 51.6733 Q2193.57 59.3701 2197.7 63.421 Q2201.88 67.4314 2209.29 67.4314 Q2213.58 67.4314 2217.59 66.3781 Q2221.64 65.3249 2225.61 63.2184 L2225.61 70.267 Q2221.6 71.9684 2217.39 72.8596 Q2213.18 73.7508 2208.84 73.7508 Q2197.99 73.7508 2191.63 67.4314 Q2185.31 61.1119 2185.31 50.3365 Q2185.31 39.1965 2191.3 32.6746 Q2197.34 26.1121 2207.55 26.1121 Q2216.7 26.1121 2222.01 32.0264 Q2227.36 37.9003 2227.36 48.0275 M2219.9 45.84 Q2219.82 39.7232 2216.46 36.0774 Q2213.14 32.4315 2207.63 32.4315 Q2201.39 32.4315 2197.62 35.9558 Q2193.9 39.4801 2193.33 45.8805 L2219.9 45.84 Z" fill="#000000" fill-rule="nonzero" fill-opacity="1" /><polyline clip-path="url(#clip141)" style="stroke:#008080; stroke-linecap:round; stroke-linejoin:round; stroke-width:8; stroke-opacity:1; fill:none" points="323.315,173.254 455.664,670.401 588.014,891.474 720.363,1070.66 852.713,1213.65 985.063,1326.39 1117.41,1414.46 1249.76,1482.72 1382.11,1535.31 1514.46,1575.61 1646.81,1606.36 1779.16,1629.75 1911.51,1647.48 2043.86,1660.89 2176.21,1671 2308.56,1678.62 2440.91,1684.35 2573.26,1688.65 "/>
</svg>
