<?xml version="1.0" encoding="utf-8"?>
<svg xmlns="http://www.w3.org/2000/svg" xmlns:xlink="http://www.w3.org/1999/xlink" width="672" height="480" viewBox="0 0 2688 1920">
<defs>
  <clipPath id="clip230">
    <rect x="0" y="0" width="2688" height="1920"/>
  </clipPath>
</defs>
<path clip-path="url(#clip230)" d="M0 1920 L2688 1920 L2688 -4.26326e-14 L0 -4.26326e-14  Z" fill="#ffffff" fill-rule="evenodd" fill-opacity="1"/>
<defs>
  <clipPath id="clip231">
    <rect x="180" y="127" width="2461" height="1607"/>
  </clipPath>
</defs>
<path clip-path="url(#clip230)" d="M180.423 1734.12 L2640.76 1734.12 L2640.76 127.792 L180.423 127.792  Z" fill="#ffffff" fill-rule="evenodd" fill-opacity="1"/>
<polyline clip-path="url(#clip231)" style="stroke:#000000; stroke-linecap:round; stroke-linejoin:round; stroke-width:2; stroke-opacity:0.1; fill:none" points="250.055,1734.12 250.055,127.792 "/>
<polyline clip-path="url(#clip231)" style="stroke:#000000; stroke-linecap:round; stroke-linejoin:round; stroke-width:2; stroke-opacity:0.1; fill:none" points="932.722,1734.12 932.722,127.792 "/>
<polyline clip-path="url(#clip231)" style="stroke:#000000; stroke-linecap:round; stroke-linejoin:round; stroke-width:2; stroke-opacity:0.1; fill:none" points="1615.39,1734.12 1615.39,127.792 "/>
<polyline clip-path="url(#clip231)" style="stroke:#000000; stroke-linecap:round; stroke-linejoin:round; stroke-width:2; stroke-opacity:0.1; fill:none" points="2298.06,1734.12 2298.06,127.792 "/>
<polyline clip-path="url(#clip231)" style="stroke:#000000; stroke-linecap:round; stroke-linejoin:round; stroke-width:2; stroke-opacity:0.1; fill:none" points="180.423,1688.65 2640.76,1688.65 "/>
<polyline clip-path="url(#clip231)" style="stroke:#000000; stroke-linecap:round; stroke-linejoin:round; stroke-width:2; stroke-opacity:0.1; fill:none" points="180.423,1256.96 2640.76,1256.96 "/>
<polyline clip-path="url(#clip231)" style="stroke:#000000; stroke-linecap:round; stroke-linejoin:round; stroke-width:2; stroke-opacity:0.1; fill:none" points="180.423,825.259 2640.76,825.259 "/>
<polyline clip-path="url(#clip231)" style="stroke:#000000; stroke-linecap:round; stroke-linejoin:round; stroke-width:2; stroke-opacity:0.1; fill:none" points="180.423,393.561 2640.76,393.561 "/>
<polyline clip-path="url(#clip230)" style="stroke:#000000; stroke-linecap:round; stroke-linejoin:round; stroke-width:4; stroke-opacity:1; fill:none" points="180.423,1734.12 2640.76,1734.12 "/>
<polyline clip-path="url(#clip230)" style="stroke:#000000; stroke-linecap:round; stroke-linejoin:round; stroke-width:4; stroke-opacity:1; fill:none" points="250.055,1734.12 250.055,1715.22 "/>
<polyline clip-path="url(#clip230)" style="stroke:#000000; stroke-linecap:round; stroke-linejoin:round; stroke-width:4; stroke-opacity:1; fill:none" points="932.722,1734.12 932.722,1715.22 "/>
<polyline clip-path="url(#clip230)" style="stroke:#000000; stroke-linecap:round; stroke-linejoin:round; stroke-width:4; stroke-opacity:1; fill:none" points="1615.39,1734.12 1615.39,1715.22 "/>
<polyline clip-path="url(#clip230)" style="stroke:#000000; stroke-linecap:round; stroke-linejoin:round; stroke-width:4; stroke-opacity:1; fill:none" points="2298.06,1734.12 2298.06,1715.22 "/>
<path clip-path="url(#clip230)" d="M250.055 1767.34 Q246.444 1767.34 244.615 1770.9 Q242.81 1774.45 242.81 1781.58 Q242.81 1788.68 244.615 1792.25 Q246.444 1795.79 250.055 1795.79 Q253.69 1795.79 255.495 1792.25 Q257.324 1788.68 257.324 1781.58 Q257.324 1774.45 255.495 1770.9 Q253.69 1767.34 250.055 1767.34 M250.055 1763.64 Q255.865 1763.64 258.921 1768.24 Q262 1772.83 262 1781.58 Q262 1790.3 258.921 1794.91 Q255.865 1799.49 250.055 1799.49 Q244.245 1799.49 241.166 1794.91 Q238.111 1790.3 238.111 1781.58 Q238.111 1772.83 241.166 1768.24 Q244.245 1763.64 250.055 1763.64 Z" fill="#000000" fill-rule="nonzero" fill-opacity="1" /><path clip-path="url(#clip230)" d="M923 1764.26 L941.357 1764.26 L941.357 1768.2 L927.283 1768.2 L927.283 1776.67 Q928.301 1776.32 929.32 1776.16 Q930.338 1775.97 931.357 1775.97 Q937.144 1775.97 940.523 1779.15 Q943.903 1782.32 943.903 1787.73 Q943.903 1793.31 940.431 1796.41 Q936.959 1799.49 930.639 1799.49 Q928.463 1799.49 926.195 1799.12 Q923.949 1798.75 921.542 1798.01 L921.542 1793.31 Q923.625 1794.45 925.848 1795 Q928.07 1795.56 930.547 1795.56 Q934.551 1795.56 936.889 1793.45 Q939.227 1791.34 939.227 1787.73 Q939.227 1784.12 936.889 1782.02 Q934.551 1779.91 930.547 1779.91 Q928.672 1779.91 926.797 1780.33 Q924.945 1780.74 923 1781.62 L923 1764.26 Z" fill="#000000" fill-rule="nonzero" fill-opacity="1" /><path clip-path="url(#clip230)" d="M1590.08 1794.89 L1597.72 1794.89 L1597.72 1768.52 L1589.41 1770.19 L1589.41 1765.93 L1597.67 1764.26 L1602.35 1764.26 L1602.35 1794.89 L1609.98 1794.89 L1609.98 1798.82 L1590.08 1798.82 L1590.08 1794.89 Z" fill="#000000" fill-rule="nonzero" fill-opacity="1" /><path clip-path="url(#clip230)" d="M1629.43 1767.34 Q1625.82 1767.34 1623.99 1770.9 Q1622.18 1774.45 1622.18 1781.58 Q1622.18 1788.68 1623.99 1792.25 Q1625.82 1795.79 1629.43 1795.79 Q1633.06 1795.79 1634.87 1792.25 Q1636.7 1788.68 1636.7 1781.58 Q1636.7 1774.45 1634.87 1770.9 Q1633.06 1767.34 1629.43 1767.34 M1629.43 1763.64 Q1635.24 1763.64 1638.29 1768.24 Q1641.37 1772.83 1641.37 1781.58 Q1641.37 1790.3 1638.29 1794.91 Q1635.24 1799.49 1629.43 1799.49 Q1623.62 1799.49 1620.54 1794.91 Q1617.48 1790.3 1617.48 1781.58 Q1617.48 1772.83 1620.54 1768.24 Q1623.62 1763.64 1629.43 1763.64 Z" fill="#000000" fill-rule="nonzero" fill-opacity="1" /><path clip-path="url(#clip230)" d="M2273.24 1794.89 L2280.88 1794.89 L2280.88 1768.52 L2272.57 1770.19 L2272.57 1765.93 L2280.83 1764.26 L2285.51 1764.26 L2285.51 1794.89 L2293.15 1794.89 L2293.15 1798.82 L2273.24 1798.82 L2273.24 1794.89 Z" fill="#000000" fill-rule="nonzero" fill-opacity="1" /><path clip-path="url(#clip230)" d="M2302.64 1764.26 L2321 1764.26 L2321 1768.2 L2306.92 1768.2 L2306.92 1776.67 Q2307.94 1776.32 2308.96 1776.16 Q2309.98 1775.97 2311 1775.97 Q2316.78 1775.97 2320.16 1779.15 Q2323.54 1782.32 2323.54 1787.73 Q2323.54 1793.31 2320.07 1796.41 Q2316.6 1799.49 2310.28 1799.49 Q2308.1 1799.49 2305.83 1799.12 Q2303.59 1798.75 2301.18 1798.01 L2301.18 1793.31 Q2303.27 1794.45 2305.49 1795 Q2307.71 1795.56 2310.19 1795.56 Q2314.19 1795.56 2316.53 1793.45 Q2318.87 1791.34 2318.87 1787.73 Q2318.87 1784.12 2316.53 1782.02 Q2314.19 1779.91 2310.19 1779.91 Q2308.31 1779.91 2306.44 1780.33 Q2304.58 1780.74 2302.64 1781.62 L2302.64 1764.26 Z" fill="#000000" fill-rule="nonzero" fill-opacity="1" /><path clip-path="url(#clip230)" d="M1246.9 1842.11 L1238.17 1865.76 L1255.65 1865.76 L1246.9 1842.11 M1243.27 1835.78 L1250.56 1835.78 L1268.67 1883.3 L1261.98 1883.3 L1257.65 1871.11 L1236.23 1871.11 L1231.9 1883.3 L1225.12 1883.3 L1243.27 1835.78 Z" fill="#000000" fill-rule="nonzero" fill-opacity="1" /><path clip-path="url(#clip230)" d="M1298.81 1865.06 Q1298.81 1858.7 1296.17 1855.2 Q1293.56 1851.7 1288.81 1851.7 Q1284.1 1851.7 1281.46 1855.2 Q1278.85 1858.7 1278.85 1865.06 Q1278.85 1871.4 1281.46 1874.9 Q1284.1 1878.4 1288.81 1878.4 Q1293.56 1878.4 1296.17 1874.9 Q1298.81 1871.4 1298.81 1865.06 M1304.66 1878.88 Q1304.66 1887.98 1300.62 1892.4 Q1296.58 1896.86 1288.24 1896.86 Q1285.15 1896.86 1282.42 1896.38 Q1279.68 1895.94 1277.1 1894.98 L1277.1 1889.28 Q1279.68 1890.69 1282.19 1891.35 Q1284.71 1892.02 1287.32 1892.02 Q1293.08 1892.02 1295.94 1889 Q1298.81 1886.01 1298.81 1879.93 L1298.81 1877.03 Q1296.99 1880.18 1294.16 1881.74 Q1291.33 1883.3 1287.38 1883.3 Q1280.82 1883.3 1276.81 1878.3 Q1272.8 1873.31 1272.8 1865.06 Q1272.8 1856.79 1276.81 1851.79 Q1280.82 1846.79 1287.38 1846.79 Q1291.33 1846.79 1294.16 1848.35 Q1296.99 1849.91 1298.81 1853.06 L1298.81 1847.65 L1304.66 1847.65 L1304.66 1878.88 Z" fill="#000000" fill-rule="nonzero" fill-opacity="1" /><path clip-path="url(#clip230)" d="M1347.22 1864.01 L1347.22 1866.88 L1320.29 1866.88 Q1320.67 1872.92 1323.92 1876.11 Q1327.2 1879.26 1333.02 1879.26 Q1336.4 1879.26 1339.55 1878.43 Q1342.73 1877.6 1345.85 1875.95 L1345.85 1881.49 Q1342.7 1882.82 1339.39 1883.52 Q1336.08 1884.22 1332.67 1884.22 Q1324.14 1884.22 1319.15 1879.26 Q1314.18 1874.29 1314.18 1865.83 Q1314.18 1857.07 1318.89 1851.95 Q1323.63 1846.79 1331.65 1846.79 Q1338.85 1846.79 1343.02 1851.44 Q1347.22 1856.06 1347.22 1864.01 M1341.36 1862.29 Q1341.3 1857.49 1338.66 1854.62 Q1336.05 1851.76 1331.72 1851.76 Q1326.82 1851.76 1323.86 1854.53 Q1320.93 1857.3 1320.48 1862.33 L1341.36 1862.29 Z" fill="#000000" fill-rule="nonzero" fill-opacity="1" /><path clip-path="url(#clip230)" d="M1391.62 1833.84 Q1387.35 1841.16 1385.29 1848.32 Q1383.22 1855.48 1383.22 1862.84 Q1383.22 1870.19 1385.29 1877.41 Q1387.39 1884.61 1391.62 1891.89 L1386.53 1891.89 Q1381.75 1884.41 1379.37 1877.19 Q1377.01 1869.96 1377.01 1862.84 Q1377.01 1855.74 1379.37 1848.54 Q1381.72 1841.35 1386.53 1833.84 L1391.62 1833.84 Z" fill="#000000" fill-rule="nonzero" fill-opacity="1" /><path clip-path="url(#clip230)" d="M1417.81 1886.61 Q1415.33 1892.98 1412.98 1894.92 Q1410.62 1896.86 1406.67 1896.86 L1402 1896.86 L1402 1891.96 L1405.43 1891.96 Q1407.85 1891.96 1409.19 1890.81 Q1410.53 1889.67 1412.15 1885.4 L1413.2 1882.73 L1398.78 1847.65 L1404.99 1847.65 L1416.13 1875.53 L1427.27 1847.65 L1433.47 1847.65 L1417.81 1886.61 Z" fill="#000000" fill-rule="nonzero" fill-opacity="1" /><path clip-path="url(#clip230)" d="M1472.05 1864.01 L1472.05 1866.88 L1445.12 1866.88 Q1445.51 1872.92 1448.75 1876.11 Q1452.03 1879.26 1457.85 1879.26 Q1461.23 1879.26 1464.38 1878.43 Q1467.56 1877.6 1470.68 1875.95 L1470.68 1881.49 Q1467.53 1882.82 1464.22 1883.52 Q1460.91 1884.22 1457.5 1884.22 Q1448.97 1884.22 1443.98 1879.26 Q1439.01 1874.29 1439.01 1865.83 Q1439.01 1857.07 1443.72 1851.95 Q1448.47 1846.79 1456.49 1846.79 Q1463.68 1846.79 1467.85 1851.44 Q1472.05 1856.06 1472.05 1864.01 M1466.19 1862.29 Q1466.13 1857.49 1463.49 1854.62 Q1460.88 1851.76 1456.55 1851.76 Q1451.65 1851.76 1448.69 1854.53 Q1445.76 1857.3 1445.31 1862.33 L1466.19 1862.29 Z" fill="#000000" fill-rule="nonzero" fill-opacity="1" /><path clip-path="url(#clip230)" d="M1497.86 1865.38 Q1490.77 1865.38 1488.03 1867 Q1485.29 1868.63 1485.29 1872.54 Q1485.29 1875.66 1487.33 1877.51 Q1489.4 1879.32 1492.93 1879.32 Q1497.8 1879.32 1500.73 1875.88 Q1503.69 1872.42 1503.69 1866.69 L1503.69 1865.38 L1497.86 1865.38 M1509.54 1862.96 L1509.54 1883.3 L1503.69 1883.3 L1503.69 1877.89 Q1501.68 1881.14 1498.69 1882.7 Q1495.7 1884.22 1491.37 1884.22 Q1485.9 1884.22 1482.65 1881.17 Q1479.43 1878.08 1479.43 1872.92 Q1479.43 1866.91 1483.45 1863.85 Q1487.49 1860.8 1495.48 1860.8 L1503.69 1860.8 L1503.69 1860.23 Q1503.69 1856.18 1501.01 1853.99 Q1498.37 1851.76 1493.57 1851.76 Q1490.51 1851.76 1487.61 1852.49 Q1484.72 1853.22 1482.04 1854.69 L1482.04 1849.28 Q1485.26 1848.03 1488.28 1847.43 Q1491.31 1846.79 1494.17 1846.79 Q1501.91 1846.79 1505.73 1850.8 Q1509.54 1854.81 1509.54 1862.96 Z" fill="#000000" fill-rule="nonzero" fill-opacity="1" /><path clip-path="url(#clip230)" d="M1542.26 1853.13 Q1541.28 1852.55 1540.1 1852.3 Q1538.95 1852.01 1537.55 1852.01 Q1532.59 1852.01 1529.91 1855.26 Q1527.27 1858.47 1527.27 1864.52 L1527.27 1883.3 L1521.38 1883.3 L1521.38 1847.65 L1527.27 1847.65 L1527.27 1853.19 Q1529.12 1849.94 1532.08 1848.39 Q1535.04 1846.79 1539.27 1846.79 Q1539.88 1846.79 1540.61 1846.89 Q1541.34 1846.95 1542.23 1847.11 L1542.26 1853.13 Z" fill="#000000" fill-rule="nonzero" fill-opacity="1" /><path clip-path="url(#clip230)" d="M1571.13 1848.7 L1571.13 1854.24 Q1568.65 1852.97 1565.98 1852.33 Q1563.3 1851.7 1560.44 1851.7 Q1556.08 1851.7 1553.88 1853.03 Q1551.72 1854.37 1551.72 1857.04 Q1551.72 1859.08 1553.28 1860.26 Q1554.84 1861.4 1559.55 1862.45 L1561.55 1862.9 Q1567.79 1864.24 1570.4 1866.69 Q1573.04 1869.11 1573.04 1873.47 Q1573.04 1878.43 1569.1 1881.33 Q1565.18 1884.22 1558.31 1884.22 Q1555.44 1884.22 1552.32 1883.65 Q1549.23 1883.11 1545.8 1882 L1545.8 1875.95 Q1549.04 1877.64 1552.19 1878.49 Q1555.35 1879.32 1558.43 1879.32 Q1562.57 1879.32 1564.8 1877.92 Q1567.03 1876.49 1567.03 1873.91 Q1567.03 1871.52 1565.4 1870.25 Q1563.81 1868.98 1558.37 1867.8 L1556.33 1867.32 Q1550.89 1866.18 1548.47 1863.82 Q1546.05 1861.43 1546.05 1857.3 Q1546.05 1852.27 1549.62 1849.53 Q1553.18 1846.79 1559.74 1846.79 Q1562.98 1846.79 1565.85 1847.27 Q1568.71 1847.75 1571.13 1848.7 Z" fill="#000000" fill-rule="nonzero" fill-opacity="1" /><path clip-path="url(#clip230)" d="M1581.45 1833.84 L1586.54 1833.84 Q1591.31 1841.35 1593.67 1848.54 Q1596.05 1855.74 1596.05 1862.84 Q1596.05 1869.96 1593.67 1877.19 Q1591.31 1884.41 1586.54 1891.89 L1581.45 1891.89 Q1585.68 1884.61 1587.75 1877.41 Q1589.85 1870.19 1589.85 1862.84 Q1589.85 1855.48 1587.75 1848.32 Q1585.68 1841.16 1581.45 1833.84 Z" fill="#000000" fill-rule="nonzero" fill-opacity="1" /><polyline clip-path="url(#clip230)" style="stroke:#000000; stroke-linecap:round; stroke-linejoin:round; stroke-width:4; stroke-opacity:1; fill:none" points="180.423,1734.12 180.423,127.792 "/>
<polyline clip-path="url(#clip230)" style="stroke:#000000; stroke-linecap:round; stroke-linejoin:round; stroke-width:4; stroke-opacity:1; fill:none" points="180.423,1688.65 199.321,1688.65 "/>
<polyline clip-path="url(#clip230)" style="stroke:#000000; stroke-linecap:round; stroke-linejoin:round; stroke-width:4; stroke-opacity:1; fill:none" points="180.423,1256.96 199.321,1256.96 "/>
<polyline clip-path="url(#clip230)" style="stroke:#000000; stroke-linecap:round; stroke-linejoin:round; stroke-width:4; stroke-opacity:1; fill:none" points="180.423,825.259 199.321,825.259 "/>
<polyline clip-path="url(#clip230)" style="stroke:#000000; stroke-linecap:round; stroke-linejoin:round; stroke-width:4; stroke-opacity:1; fill:none" points="180.423,393.561 199.321,393.561 "/>
<path clip-path="url(#clip230)" d="M128.159 1674.45 Q124.548 1674.45 122.719 1678.02 Q120.913 1681.56 120.913 1688.69 Q120.913 1695.8 122.719 1699.36 Q124.548 1702.9 128.159 1702.9 Q131.793 1702.9 133.599 1699.36 Q135.427 1695.8 135.427 1688.69 Q135.427 1681.56 133.599 1678.02 Q131.793 1674.45 128.159 1674.45 M128.159 1670.75 Q133.969 1670.75 137.025 1675.36 Q140.103 1679.94 140.103 1688.69 Q140.103 1697.42 137.025 1702.02 Q133.969 1706.61 128.159 1706.61 Q122.349 1706.61 119.27 1702.02 Q116.214 1697.42 116.214 1688.69 Q116.214 1679.94 119.27 1675.36 Q122.349 1670.75 128.159 1670.75 Z" fill="#000000" fill-rule="nonzero" fill-opacity="1" /><path clip-path="url(#clip230)" d="M120.196 1270.3 L127.835 1270.3 L127.835 1243.94 L119.525 1245.6 L119.525 1241.34 L127.788 1239.68 L132.464 1239.68 L132.464 1270.3 L140.103 1270.3 L140.103 1274.24 L120.196 1274.24 L120.196 1270.3 Z" fill="#000000" fill-rule="nonzero" fill-opacity="1" /><path clip-path="url(#clip230)" d="M123.784 838.604 L140.103 838.604 L140.103 842.539 L118.159 842.539 L118.159 838.604 Q120.821 835.85 125.404 831.22 Q130.011 826.567 131.191 825.225 Q133.437 822.701 134.316 820.965 Q135.219 819.206 135.219 817.516 Q135.219 814.762 133.275 813.026 Q131.353 811.289 128.251 811.289 Q126.052 811.289 123.599 812.053 Q121.168 812.817 118.39 814.368 L118.39 809.646 Q121.214 808.512 123.668 807.933 Q126.122 807.354 128.159 807.354 Q133.529 807.354 136.724 810.039 Q139.918 812.725 139.918 817.215 Q139.918 819.345 139.108 821.266 Q138.321 823.164 136.214 825.757 Q135.636 826.428 132.534 829.646 Q129.432 832.84 123.784 838.604 Z" fill="#000000" fill-rule="nonzero" fill-opacity="1" /><path clip-path="url(#clip230)" d="M132.974 392.207 Q136.33 392.925 138.205 395.193 Q140.103 397.462 140.103 400.795 Q140.103 405.911 136.585 408.712 Q133.066 411.513 126.585 411.513 Q124.409 411.513 122.094 411.073 Q119.802 410.656 117.349 409.8 L117.349 405.286 Q119.293 406.42 121.608 406.999 Q123.923 407.578 126.446 407.578 Q130.844 407.578 133.136 405.841 Q135.45 404.105 135.45 400.795 Q135.45 397.74 133.298 396.027 Q131.168 394.291 127.349 394.291 L123.321 394.291 L123.321 390.448 L127.534 390.448 Q130.983 390.448 132.812 389.082 Q134.64 387.693 134.64 385.101 Q134.64 382.439 132.742 381.027 Q130.867 379.592 127.349 379.592 Q125.427 379.592 123.228 380.008 Q121.029 380.425 118.39 381.305 L118.39 377.138 Q121.052 376.397 123.367 376.027 Q125.705 375.656 127.765 375.656 Q133.089 375.656 136.191 378.087 Q139.293 380.494 139.293 384.615 Q139.293 387.485 137.65 389.476 Q136.006 391.443 132.974 392.207 Z" fill="#000000" fill-rule="nonzero" fill-opacity="1" /><path clip-path="url(#clip230)" d="M14.1184 1169.84 L14.1184 1142.53 L19.5293 1142.53 L19.5293 1163.41 L33.5338 1163.41 L33.5338 1144.57 L38.9447 1144.57 L38.9447 1163.41 L61.6384 1163.41 L61.6384 1169.84 L14.1184 1169.84 Z" fill="#000000" fill-rule="nonzero" fill-opacity="1" /><path clip-path="url(#clip230)" d="M42.3504 1105.68 L45.2149 1105.68 L45.2149 1132.6 Q51.2623 1132.22 54.4452 1128.98 Q57.5962 1125.7 57.5962 1119.87 Q57.5962 1116.5 56.7687 1113.35 Q55.9411 1110.17 54.2861 1107.05 L59.8242 1107.05 Q61.161 1110.2 61.8612 1113.51 Q62.5615 1116.82 62.5615 1120.22 Q62.5615 1128.75 57.5962 1133.75 Q52.631 1138.72 44.1646 1138.72 Q35.4117 1138.72 30.2873 1134 Q25.1311 1129.26 25.1311 1121.24 Q25.1311 1114.05 29.7781 1109.88 Q34.3932 1105.68 42.3504 1105.68 M40.6316 1111.53 Q35.8255 1111.6 32.9609 1114.24 Q30.0964 1116.85 30.0964 1121.18 Q30.0964 1126.08 32.8654 1129.04 Q35.6345 1131.97 40.6634 1132.41 L40.6316 1111.53 Z" fill="#000000" fill-rule="nonzero" fill-opacity="1" /><path clip-path="url(#clip230)" d="M27.3591 1070.41 L32.8336 1070.41 Q31.465 1072.89 30.7966 1075.41 Q30.0964 1077.89 30.0964 1080.44 Q30.0964 1086.13 33.7248 1089.29 Q37.3214 1092.44 43.8463 1092.44 Q50.3711 1092.44 53.9996 1089.29 Q57.5962 1086.13 57.5962 1080.44 Q57.5962 1077.89 56.9278 1075.41 Q56.2276 1072.89 54.859 1070.41 L60.2698 1070.41 Q61.4156 1072.86 61.9886 1075.5 Q62.5615 1078.11 62.5615 1081.07 Q62.5615 1089.13 57.5007 1093.87 Q52.44 1098.61 43.8463 1098.61 Q35.1253 1098.61 30.1282 1093.84 Q25.1311 1089.03 25.1311 1080.69 Q25.1311 1077.99 25.704 1075.41 Q26.2451 1072.83 27.3591 1070.41 Z" fill="#000000" fill-rule="nonzero" fill-opacity="1" /><path clip-path="url(#clip230)" d="M47.5702 1060.83 L25.9905 1060.83 L25.9905 1054.97 L47.3474 1054.97 Q52.4082 1054.97 54.9545 1053 Q57.4689 1051.03 57.4689 1047.08 Q57.4689 1042.34 54.4452 1039.6 Q51.4215 1036.83 46.2016 1036.83 L25.9905 1036.83 L25.9905 1030.98 L61.6384 1030.98 L61.6384 1036.83 L56.1639 1036.83 Q59.4104 1038.96 61.0019 1041.8 Q62.5615 1044.6 62.5615 1048.32 Q62.5615 1054.47 58.742 1057.65 Q54.9226 1060.83 47.5702 1060.83 M25.1311 1046.09 L25.1311 1046.09 Z" fill="#000000" fill-rule="nonzero" fill-opacity="1" /><path clip-path="url(#clip230)" d="M40.1224 989.28 L61.6384 989.28 L61.6384 995.137 L40.3133 995.137 Q35.2526 995.137 32.7381 997.11 Q30.2237 999.084 30.2237 1003.03 Q30.2237 1007.77 33.2474 1010.51 Q36.2711 1013.25 41.491 1013.25 L61.6384 1013.25 L61.6384 1019.14 L25.9905 1019.14 L25.9905 1013.25 L31.5287 1013.25 Q28.314 1011.15 26.7225 1008.31 Q25.1311 1005.45 25.1311 1001.73 Q25.1311 995.582 28.9505 992.431 Q32.7381 989.28 40.1224 989.28 Z" fill="#000000" fill-rule="nonzero" fill-opacity="1" /><path clip-path="url(#clip230)" d="M31.4013 954.142 L12.1132 954.142 L12.1132 948.285 L61.6384 948.285 L61.6384 954.142 L56.2912 954.142 Q59.4741 955.988 61.0337 958.82 Q62.5615 961.621 62.5615 965.568 Q62.5615 972.029 57.4052 976.103 Q52.249 980.146 43.8463 980.146 Q35.4436 980.146 30.2873 976.103 Q25.1311 972.029 25.1311 965.568 Q25.1311 961.621 26.6907 958.82 Q28.2185 955.988 31.4013 954.142 M43.8463 974.098 Q50.3075 974.098 53.9996 971.456 Q57.6599 968.783 57.6599 964.136 Q57.6599 959.489 53.9996 956.815 Q50.3075 954.142 43.8463 954.142 Q37.3851 954.142 33.7248 956.815 Q30.0327 959.489 30.0327 964.136 Q30.0327 968.783 33.7248 971.456 Q37.3851 974.098 43.8463 974.098 Z" fill="#000000" fill-rule="nonzero" fill-opacity="1" /><path clip-path="url(#clip230)" d="M25.9905 936.222 L25.9905 930.366 L61.6384 930.366 L61.6384 936.222 L25.9905 936.222 M12.1132 936.222 L12.1132 930.366 L19.5293 930.366 L19.5293 936.222 L12.1132 936.222 Z" fill="#000000" fill-rule="nonzero" fill-opacity="1" /><path clip-path="url(#clip230)" d="M15.869 912.319 L25.9905 912.319 L25.9905 900.256 L30.542 900.256 L30.542 912.319 L49.8937 912.319 Q54.2542 912.319 55.4955 911.141 Q56.7368 909.932 56.7368 906.272 L56.7368 900.256 L61.6384 900.256 L61.6384 906.272 Q61.6384 913.051 59.124 915.629 Q56.5777 918.207 49.8937 918.207 L30.542 918.207 L30.542 922.504 L25.9905 922.504 L25.9905 918.207 L15.869 918.207 L15.869 912.319 Z" fill="#000000" fill-rule="nonzero" fill-opacity="1" /><path clip-path="url(#clip230)" d="M64.9486 877.721 Q71.3143 880.204 73.2559 882.559 Q75.1974 884.915 75.1974 888.861 L75.1974 893.54 L70.2958 893.54 L70.2958 890.103 Q70.2958 887.684 69.15 886.347 Q68.0041 885.01 63.7391 883.387 L61.0655 882.336 L25.9905 896.755 L25.9905 890.548 L53.8723 879.408 L25.9905 868.268 L25.9905 862.062 L64.9486 877.721 Z" fill="#000000" fill-rule="nonzero" fill-opacity="1" /><path clip-path="url(#clip230)" d="M32.8336 805.502 Q28.8869 803.306 27.009 800.251 Q25.1311 797.195 25.1311 793.057 Q25.1311 787.487 29.046 784.464 Q32.9291 781.44 40.1224 781.44 L61.6384 781.44 L61.6384 787.328 L40.3133 787.328 Q35.1889 787.328 32.7063 789.143 Q30.2237 790.957 30.2237 794.681 Q30.2237 799.232 33.2474 801.874 Q36.2711 804.516 41.491 804.516 L61.6384 804.516 L61.6384 810.404 L40.3133 810.404 Q35.1571 810.404 32.7063 812.218 Q30.2237 814.032 30.2237 817.82 Q30.2237 822.308 33.2792 824.95 Q36.3029 827.591 41.491 827.591 L61.6384 827.591 L61.6384 833.48 L25.9905 833.48 L25.9905 827.591 L31.5287 827.591 Q28.2503 825.586 26.6907 822.785 Q25.1311 819.984 25.1311 816.133 Q25.1311 812.25 27.1045 809.545 Q29.0779 806.807 32.8336 805.502 Z" fill="#000000" fill-rule="nonzero" fill-opacity="1" /><path clip-path="url(#clip230)" d="M12.1769 755.691 Q19.4975 759.956 26.6589 762.025 Q33.8203 764.093 41.1727 764.093 Q48.5251 764.093 55.7502 762.025 Q62.9434 759.924 70.2321 755.691 L70.2321 760.783 Q62.7524 765.558 55.5274 767.945 Q48.3023 770.3 41.1727 770.3 Q34.0749 770.3 26.8817 767.945 Q19.6884 765.589 12.1769 760.783 L12.1769 755.691 Z" fill="#000000" fill-rule="nonzero" fill-opacity="1" /><path clip-path="url(#clip230)" d="M25.9905 714.696 L43.337 727.586 L61.6384 714.027 L61.6384 720.934 L47.6339 731.31 L61.6384 741.686 L61.6384 748.593 L42.9869 734.748 L25.9905 747.415 L25.9905 740.509 L38.6901 731.055 L25.9905 721.602 L25.9905 714.696 Z" fill="#000000" fill-rule="nonzero" fill-opacity="1" /><path clip-path="url(#clip230)" d="M12.1769 706.675 L12.1769 701.582 Q19.6884 696.808 26.8817 694.453 Q34.0749 692.066 41.1727 692.066 Q48.3023 692.066 55.5274 694.453 Q62.7524 696.808 70.2321 701.582 L70.2321 706.675 Q62.9434 702.442 55.7502 700.373 Q48.5251 698.272 41.1727 698.272 Q33.8203 698.272 26.6589 700.373 Q19.4975 702.442 12.1769 706.675 Z" fill="#000000" fill-rule="nonzero" fill-opacity="1" /><path clip-path="url(#clip230)" d="M640.087 20.1573 L628.988 50.2555 L651.227 50.2555 L640.087 20.1573 M635.469 12.096 L644.746 12.096 L667.796 72.576 L659.289 72.576 L653.779 57.061 L626.517 57.061 L621.008 72.576 L612.379 72.576 L635.469 12.096 Z" fill="#000000" fill-rule="nonzero" fill-opacity="1" /><path clip-path="url(#clip230)" d="M706.158 49.3643 Q706.158 41.2625 702.795 36.8065 Q699.474 32.3505 693.438 32.3505 Q687.442 32.3505 684.08 36.8065 Q680.758 41.2625 680.758 49.3643 Q680.758 57.4256 684.08 61.8816 Q687.442 66.3376 693.438 66.3376 Q699.474 66.3376 702.795 61.8816 Q706.158 57.4256 706.158 49.3643 M713.611 66.9452 Q713.611 78.5308 708.467 84.1616 Q703.322 89.8329 692.709 89.8329 Q688.779 89.8329 685.295 89.2252 Q681.812 88.6581 678.53 87.4428 L678.53 80.1917 Q681.812 81.9741 685.012 82.8248 Q688.212 83.6755 691.534 83.6755 Q698.866 83.6755 702.512 79.8271 Q706.158 76.0193 706.158 68.282 L706.158 64.5957 Q703.849 68.6061 700.243 70.5911 Q696.638 72.576 691.615 72.576 Q683.27 72.576 678.166 66.2161 Q673.062 59.8562 673.062 49.3643 Q673.062 38.832 678.166 32.472 Q683.27 26.1121 691.615 26.1121 Q696.638 26.1121 700.243 28.0971 Q703.849 30.082 706.158 34.0924 L706.158 27.2059 L713.611 27.2059 L713.611 66.9452 Z" fill="#000000" fill-rule="nonzero" fill-opacity="1" /><path clip-path="url(#clip230)" d="M767.772 48.0275 L767.772 51.6733 L733.501 51.6733 Q733.987 59.3701 738.119 63.421 Q742.292 67.4314 749.705 67.4314 Q753.999 67.4314 758.009 66.3781 Q762.06 65.3249 766.03 63.2184 L766.03 70.267 Q762.02 71.9684 757.807 72.8596 Q753.594 73.7508 749.259 73.7508 Q738.403 73.7508 732.043 67.4314 Q725.723 61.1119 725.723 50.3365 Q725.723 39.1965 731.719 32.6746 Q737.755 26.1121 747.963 26.1121 Q757.118 26.1121 762.425 32.0264 Q767.772 37.9003 767.772 48.0275 M760.318 45.84 Q760.237 39.7232 756.875 36.0774 Q753.553 32.4315 748.044 32.4315 Q741.806 32.4315 738.038 35.9558 Q734.311 39.4801 733.744 45.8805 L760.318 45.84 Z" fill="#000000" fill-rule="nonzero" fill-opacity="1" /><path clip-path="url(#clip230)" d="M776.238 46.5287 L798.073 46.5287 L798.073 53.1722 L776.238 53.1722 L776.238 46.5287 Z" fill="#000000" fill-rule="nonzero" fill-opacity="1" /><path clip-path="url(#clip230)" d="M838.865 28.5427 L838.865 35.5912 Q835.705 33.9709 832.303 33.1607 Q828.9 32.3505 825.254 32.3505 Q819.704 32.3505 816.909 34.0519 Q814.155 35.7533 814.155 39.156 Q814.155 41.7486 816.14 43.2475 Q818.125 44.7058 824.12 46.0426 L826.672 46.6097 Q834.612 48.3111 837.933 51.4303 Q841.296 54.509 841.296 60.0587 Q841.296 66.3781 836.273 70.0644 Q831.29 73.7508 822.54 73.7508 Q818.894 73.7508 814.924 73.0216 Q810.995 72.3329 806.62 70.9151 L806.62 63.2184 Q810.752 65.3654 814.762 66.4591 Q818.773 67.5124 822.702 67.5124 Q827.968 67.5124 830.804 65.73 Q833.64 63.9071 833.64 60.6258 Q833.64 57.5877 831.574 55.9673 Q829.548 54.3469 822.621 52.8481 L820.028 52.2405 Q813.101 50.7821 810.023 47.7845 Q806.944 44.7463 806.944 39.4801 Q806.944 33.0797 811.481 29.5959 Q816.018 26.1121 824.363 26.1121 Q828.495 26.1121 832.141 26.7198 Q835.787 27.3274 838.865 28.5427 Z" fill="#000000" fill-rule="nonzero" fill-opacity="1" /><path clip-path="url(#clip230)" d="M860.375 65.7705 L860.375 89.8329 L852.881 89.8329 L852.881 27.2059 L860.375 27.2059 L860.375 34.0924 Q862.725 30.0415 866.29 28.0971 Q869.895 26.1121 874.878 26.1121 Q883.142 26.1121 888.286 32.6746 Q893.471 39.2371 893.471 49.9314 Q893.471 60.6258 888.286 67.1883 Q883.142 73.7508 874.878 73.7508 Q869.895 73.7508 866.29 71.8063 Q862.725 69.8214 860.375 65.7705 M885.734 49.9314 Q885.734 41.7081 882.331 37.0496 Q878.969 32.3505 873.055 32.3505 Q867.14 32.3505 863.738 37.0496 Q860.375 41.7081 860.375 49.9314 Q860.375 58.1548 863.738 62.8538 Q867.14 67.5124 873.055 67.5124 Q878.969 67.5124 882.331 62.8538 Q885.734 58.1548 885.734 49.9314 Z" fill="#000000" fill-rule="nonzero" fill-opacity="1" /><path clip-path="url(#clip230)" d="M944.634 48.0275 L944.634 51.6733 L910.364 51.6733 Q910.85 59.3701 914.982 63.421 Q919.154 67.4314 926.567 67.4314 Q930.861 67.4314 934.872 66.3781 Q938.923 65.3249 942.892 63.2184 L942.892 70.267 Q938.882 71.9684 934.669 72.8596 Q930.456 73.7508 926.122 73.7508 Q915.265 73.7508 908.905 67.4314 Q902.586 61.1119 902.586 50.3365 Q902.586 39.1965 908.581 32.6746 Q914.617 26.1121 924.825 26.1121 Q933.98 26.1121 939.287 32.0264 Q944.634 37.9003 944.634 48.0275 M937.181 45.84 Q937.1 39.7232 933.737 36.0774 Q930.416 32.4315 924.906 32.4315 Q918.668 32.4315 914.901 35.9558 Q911.174 39.4801 910.607 45.8805 L937.181 45.84 Z" fill="#000000" fill-rule="nonzero" fill-opacity="1" /><path clip-path="url(#clip230)" d="M989.518 28.9478 L989.518 35.9153 Q986.359 34.1734 983.158 33.3227 Q979.999 32.4315 976.758 32.4315 Q969.507 32.4315 965.496 37.0496 Q961.486 41.6271 961.486 49.9314 Q961.486 58.2358 965.496 62.8538 Q969.507 67.4314 976.758 67.4314 Q979.999 67.4314 983.158 66.5807 Q986.359 65.6895 989.518 63.9476 L989.518 70.8341 Q986.399 72.2924 983.037 73.0216 Q979.715 73.7508 975.948 73.7508 Q965.699 73.7508 959.663 67.3098 Q953.627 60.8689 953.627 49.9314 Q953.627 38.832 959.704 32.472 Q965.821 26.1121 976.434 26.1121 Q979.877 26.1121 983.158 26.8413 Q986.44 27.5299 989.518 28.9478 Z" fill="#000000" fill-rule="nonzero" fill-opacity="1" /><path clip-path="url(#clip230)" d="M1002.48 27.2059 L1009.93 27.2059 L1009.93 72.576 L1002.48 72.576 L1002.48 27.2059 M1002.48 9.54393 L1009.93 9.54393 L1009.93 18.9825 L1002.48 18.9825 L1002.48 9.54393 Z" fill="#000000" fill-rule="nonzero" fill-opacity="1" /><path clip-path="url(#clip230)" d="M1048.5 9.54393 L1048.5 15.7418 L1041.37 15.7418 Q1037.36 15.7418 1035.78 17.3622 Q1034.24 18.9825 1034.24 23.1955 L1034.24 27.2059 L1046.51 27.2059 L1046.51 32.9987 L1034.24 32.9987 L1034.24 72.576 L1026.75 72.576 L1026.75 32.9987 L1019.62 32.9987 L1019.62 27.2059 L1026.75 27.2059 L1026.75 24.0462 Q1026.75 16.471 1030.27 13.0277 Q1033.79 9.54393 1041.45 9.54393 L1048.5 9.54393 Z" fill="#000000" fill-rule="nonzero" fill-opacity="1" /><path clip-path="url(#clip230)" d="M1054.74 27.2059 L1062.19 27.2059 L1062.19 72.576 L1054.74 72.576 L1054.74 27.2059 M1054.74 9.54393 L1062.19 9.54393 L1062.19 18.9825 L1054.74 18.9825 L1054.74 9.54393 Z" fill="#000000" fill-rule="nonzero" fill-opacity="1" /><path clip-path="url(#clip230)" d="M1110.44 28.9478 L1110.44 35.9153 Q1107.28 34.1734 1104.08 33.3227 Q1100.92 32.4315 1097.68 32.4315 Q1090.43 32.4315 1086.42 37.0496 Q1082.41 41.6271 1082.41 49.9314 Q1082.41 58.2358 1086.42 62.8538 Q1090.43 67.4314 1097.68 67.4314 Q1100.92 67.4314 1104.08 66.5807 Q1107.28 65.6895 1110.44 63.9476 L1110.44 70.8341 Q1107.32 72.2924 1103.96 73.0216 Q1100.63 73.7508 1096.87 73.7508 Q1086.62 73.7508 1080.58 67.3098 Q1074.55 60.8689 1074.55 49.9314 Q1074.55 38.832 1080.62 32.472 Q1086.74 26.1121 1097.35 26.1121 Q1100.8 26.1121 1104.08 26.8413 Q1107.36 27.5299 1110.44 28.9478 Z" fill="#000000" fill-rule="nonzero" fill-opacity="1" /><path clip-path="url(#clip230)" d="M1176.06 34.1734 Q1174.81 33.4443 1173.31 33.1202 Q1171.85 32.7556 1170.07 32.7556 Q1163.75 32.7556 1160.34 36.8875 Q1156.98 40.9789 1156.98 48.6757 L1156.98 72.576 L1149.49 72.576 L1149.49 27.2059 L1156.98 27.2059 L1156.98 34.2544 Q1159.33 30.1225 1163.1 28.1376 Q1166.87 26.1121 1172.25 26.1121 Q1173.02 26.1121 1173.96 26.2337 Q1174.89 26.3147 1176.02 26.5172 L1176.06 34.1734 Z" fill="#000000" fill-rule="nonzero" fill-opacity="1" /><path clip-path="url(#clip230)" d="M1220.87 48.0275 L1220.87 51.6733 L1186.59 51.6733 Q1187.08 59.3701 1191.21 63.421 Q1195.39 67.4314 1202.8 67.4314 Q1207.09 67.4314 1211.1 66.3781 Q1215.15 65.3249 1219.12 63.2184 L1219.12 70.267 Q1215.11 71.9684 1210.9 72.8596 Q1206.69 73.7508 1202.35 73.7508 Q1191.5 73.7508 1185.14 67.4314 Q1178.82 61.1119 1178.82 50.3365 Q1178.82 39.1965 1184.81 32.6746 Q1190.85 26.1121 1201.06 26.1121 Q1210.21 26.1121 1215.52 32.0264 Q1220.87 37.9003 1220.87 48.0275 M1213.41 45.84 Q1213.33 39.7232 1209.97 36.0774 Q1206.65 32.4315 1201.14 32.4315 Q1194.9 32.4315 1191.13 35.9558 Q1187.4 39.4801 1186.84 45.8805 L1213.41 45.84 Z" fill="#000000" fill-rule="nonzero" fill-opacity="1" /><path clip-path="url(#clip230)" d="M1240.31 65.7705 L1240.31 89.8329 L1232.82 89.8329 L1232.82 27.2059 L1240.31 27.2059 L1240.31 34.0924 Q1242.66 30.0415 1246.22 28.0971 Q1249.83 26.1121 1254.81 26.1121 Q1263.08 26.1121 1268.22 32.6746 Q1273.41 39.2371 1273.41 49.9314 Q1273.41 60.6258 1268.22 67.1883 Q1263.08 73.7508 1254.81 73.7508 Q1249.83 73.7508 1246.22 71.8063 Q1242.66 69.8214 1240.31 65.7705 M1265.67 49.9314 Q1265.67 41.7081 1262.27 37.0496 Q1258.9 32.3505 1252.99 32.3505 Q1247.07 32.3505 1243.67 37.0496 Q1240.31 41.7081 1240.31 49.9314 Q1240.31 58.1548 1243.67 62.8538 Q1247.07 67.5124 1252.99 67.5124 Q1258.9 67.5124 1262.27 62.8538 Q1265.67 58.1548 1265.67 49.9314 Z" fill="#000000" fill-rule="nonzero" fill-opacity="1" /><path clip-path="url(#clip230)" d="M1312.05 34.1734 Q1310.8 33.4443 1309.3 33.1202 Q1307.84 32.7556 1306.06 32.7556 Q1299.74 32.7556 1296.33 36.8875 Q1292.97 40.9789 1292.97 48.6757 L1292.97 72.576 L1285.48 72.576 L1285.48 27.2059 L1292.97 27.2059 L1292.97 34.2544 Q1295.32 30.1225 1299.09 28.1376 Q1302.86 26.1121 1308.24 26.1121 Q1309.01 26.1121 1309.94 26.2337 Q1310.88 26.3147 1312.01 26.5172 L1312.05 34.1734 Z" fill="#000000" fill-rule="nonzero" fill-opacity="1" /><path clip-path="url(#clip230)" d="M1335.63 32.4315 Q1329.63 32.4315 1326.15 37.1306 Q1322.66 41.7891 1322.66 49.9314 Q1322.66 58.0738 1326.11 62.7728 Q1329.59 67.4314 1335.63 67.4314 Q1341.58 67.4314 1345.07 62.7323 Q1348.55 58.0333 1348.55 49.9314 Q1348.55 41.8701 1345.07 37.1711 Q1341.58 32.4315 1335.63 32.4315 M1335.63 26.1121 Q1345.35 26.1121 1350.9 32.4315 Q1356.45 38.7509 1356.45 49.9314 Q1356.45 61.0714 1350.9 67.4314 Q1345.35 73.7508 1335.63 73.7508 Q1325.86 73.7508 1320.32 67.4314 Q1314.81 61.0714 1314.81 49.9314 Q1314.81 38.7509 1320.32 32.4315 Q1325.86 26.1121 1335.63 26.1121 Z" fill="#000000" fill-rule="nonzero" fill-opacity="1" /><path clip-path="url(#clip230)" d="M1398.66 34.0924 L1398.66 9.54393 L1406.11 9.54393 L1406.11 72.576 L1398.66 72.576 L1398.66 65.7705 Q1396.31 69.8214 1392.7 71.8063 Q1389.14 73.7508 1384.12 73.7508 Q1375.89 73.7508 1370.71 67.1883 Q1365.56 60.6258 1365.56 49.9314 Q1365.56 39.2371 1370.71 32.6746 Q1375.89 26.1121 1384.12 26.1121 Q1389.14 26.1121 1392.7 28.0971 Q1396.31 30.0415 1398.66 34.0924 M1373.26 49.9314 Q1373.26 58.1548 1376.62 62.8538 Q1380.03 67.5124 1385.94 67.5124 Q1391.85 67.5124 1395.26 62.8538 Q1398.66 58.1548 1398.66 49.9314 Q1398.66 41.7081 1395.26 37.0496 Q1391.85 32.3505 1385.94 32.3505 Q1380.03 32.3505 1376.62 37.0496 Q1373.26 41.7081 1373.26 49.9314 Z" fill="#000000" fill-rule="nonzero" fill-opacity="1" /><path clip-path="url(#clip230)" d="M1420.7 54.671 L1420.7 27.2059 L1428.15 27.2059 L1428.15 54.3874 Q1428.15 60.8284 1430.66 64.0691 Q1433.17 67.2693 1438.2 67.2693 Q1444.23 67.2693 1447.72 63.421 Q1451.24 59.5726 1451.24 52.9291 L1451.24 27.2059 L1458.69 27.2059 L1458.69 72.576 L1451.24 72.576 L1451.24 65.6084 Q1448.53 69.7404 1444.92 71.7658 Q1441.36 73.7508 1436.62 73.7508 Q1428.8 73.7508 1424.75 68.8897 Q1420.7 64.0286 1420.7 54.671 M1439.45 26.1121 L1439.45 26.1121 Z" fill="#000000" fill-rule="nonzero" fill-opacity="1" /><path clip-path="url(#clip230)" d="M1506.7 28.9478 L1506.7 35.9153 Q1503.54 34.1734 1500.34 33.3227 Q1497.18 32.4315 1493.94 32.4315 Q1486.69 32.4315 1482.68 37.0496 Q1478.67 41.6271 1478.67 49.9314 Q1478.67 58.2358 1482.68 62.8538 Q1486.69 67.4314 1493.94 67.4314 Q1497.18 67.4314 1500.34 66.5807 Q1503.54 65.6895 1506.7 63.9476 L1506.7 70.8341 Q1503.58 72.2924 1500.22 73.0216 Q1496.89 73.7508 1493.13 73.7508 Q1482.88 73.7508 1476.84 67.3098 Q1470.81 60.8689 1470.81 49.9314 Q1470.81 38.832 1476.88 32.472 Q1483 26.1121 1493.61 26.1121 Q1497.06 26.1121 1500.34 26.8413 Q1503.62 27.5299 1506.7 28.9478 Z" fill="#000000" fill-rule="nonzero" fill-opacity="1" /><path clip-path="url(#clip230)" d="M1527.03 14.324 L1527.03 27.2059 L1542.39 27.2059 L1542.39 32.9987 L1527.03 32.9987 L1527.03 57.6282 Q1527.03 63.1779 1528.53 64.7578 Q1530.07 66.3376 1534.73 66.3376 L1542.39 66.3376 L1542.39 72.576 L1534.73 72.576 Q1526.1 72.576 1522.82 69.3758 Q1519.54 66.1351 1519.54 57.6282 L1519.54 32.9987 L1514.07 32.9987 L1514.07 27.2059 L1519.54 27.2059 L1519.54 14.324 L1527.03 14.324 Z" fill="#000000" fill-rule="nonzero" fill-opacity="1" /><path clip-path="url(#clip230)" d="M1552.19 27.2059 L1559.64 27.2059 L1559.64 72.576 L1552.19 72.576 L1552.19 27.2059 M1552.19 9.54393 L1559.64 9.54393 L1559.64 18.9825 L1552.19 18.9825 L1552.19 9.54393 Z" fill="#000000" fill-rule="nonzero" fill-opacity="1" /><path clip-path="url(#clip230)" d="M1592.82 32.4315 Q1586.82 32.4315 1583.34 37.1306 Q1579.86 41.7891 1579.86 49.9314 Q1579.86 58.0738 1583.3 62.7728 Q1586.78 67.4314 1592.82 67.4314 Q1598.77 67.4314 1602.26 62.7323 Q1605.74 58.0333 1605.74 49.9314 Q1605.74 41.8701 1602.26 37.1711 Q1598.77 32.4315 1592.82 32.4315 M1592.82 26.1121 Q1602.54 26.1121 1608.09 32.4315 Q1613.64 38.7509 1613.64 49.9314 Q1613.64 61.0714 1608.09 67.4314 Q1602.54 73.7508 1592.82 73.7508 Q1583.06 73.7508 1577.51 67.4314 Q1572 61.0714 1572 49.9314 Q1572 38.7509 1577.51 32.4315 Q1583.06 26.1121 1592.82 26.1121 Z" fill="#000000" fill-rule="nonzero" fill-opacity="1" /><path clip-path="url(#clip230)" d="M1663.71 45.1919 L1663.71 72.576 L1656.26 72.576 L1656.26 45.4349 Q1656.26 38.994 1653.75 35.7938 Q1651.23 32.5936 1646.21 32.5936 Q1640.17 32.5936 1636.69 36.4419 Q1633.21 40.2903 1633.21 46.9338 L1633.21 72.576 L1625.71 72.576 L1625.71 27.2059 L1633.21 27.2059 L1633.21 34.2544 Q1635.88 30.163 1639.49 28.1376 Q1643.13 26.1121 1647.87 26.1121 Q1655.69 26.1121 1659.7 30.9732 Q1663.71 35.7938 1663.71 45.1919 Z" fill="#000000" fill-rule="nonzero" fill-opacity="1" /><path clip-path="url(#clip230)" d="M1701.18 46.9338 L1776.04 46.9338 L1776.04 52.7671 L1701.18 52.7671 L1701.18 46.9338 Z" fill="#000000" fill-rule="nonzero" fill-opacity="1" /><path clip-path="url(#clip230)" d="M1850.86 14.0809 L1850.86 22.0612 Q1846.2 19.8332 1842.07 18.7395 Q1837.94 17.6457 1834.09 17.6457 Q1827.41 17.6457 1823.76 20.2383 Q1820.16 22.8309 1820.16 27.611 Q1820.16 31.6214 1822.55 33.6873 Q1824.98 35.7128 1831.7 36.9686 L1836.64 37.9813 Q1845.8 39.7232 1850.13 44.1387 Q1854.51 48.5136 1854.51 55.8863 Q1854.51 64.6767 1848.59 69.2137 Q1842.72 73.7508 1831.34 73.7508 Q1827.04 73.7508 1822.18 72.7785 Q1817.36 71.8063 1812.18 69.9024 L1812.18 61.4765 Q1817.16 64.2716 1821.94 65.6895 Q1826.72 67.1073 1831.34 67.1073 Q1838.34 67.1073 1842.15 64.3527 Q1845.96 61.598 1845.96 56.4939 Q1845.96 52.0379 1843.21 49.5264 Q1840.49 47.0148 1834.25 45.759 L1829.27 44.7868 Q1820.12 42.9639 1816.02 39.075 Q1811.93 35.1862 1811.93 28.2591 Q1811.93 20.2383 1817.56 15.6203 Q1823.23 11.0023 1833.16 11.0023 Q1837.41 11.0023 1841.83 11.7719 Q1846.24 12.5416 1850.86 14.0809 Z" fill="#000000" fill-rule="nonzero" fill-opacity="1" /><path clip-path="url(#clip230)" d="M1905.75 48.0275 L1905.75 51.6733 L1871.48 51.6733 Q1871.97 59.3701 1876.1 63.421 Q1880.27 67.4314 1887.68 67.4314 Q1891.98 67.4314 1895.99 66.3781 Q1900.04 65.3249 1904.01 63.2184 L1904.01 70.267 Q1900 71.9684 1895.79 72.8596 Q1891.57 73.7508 1887.24 73.7508 Q1876.38 73.7508 1870.02 67.4314 Q1863.7 61.1119 1863.7 50.3365 Q1863.7 39.1965 1869.7 32.6746 Q1875.73 26.1121 1885.94 26.1121 Q1895.1 26.1121 1900.4 32.0264 Q1905.75 37.9003 1905.75 48.0275 M1898.3 45.84 Q1898.22 39.7232 1894.85 36.0774 Q1891.53 32.4315 1886.02 32.4315 Q1879.79 32.4315 1876.02 35.9558 Q1872.29 39.4801 1871.72 45.8805 L1898.3 45.84 Z" fill="#000000" fill-rule="nonzero" fill-opacity="1" /><path clip-path="url(#clip230)" d="M1938.6 49.7694 Q1929.57 49.7694 1926.09 51.8354 Q1922.6 53.9013 1922.6 58.8839 Q1922.6 62.8538 1925.2 65.2034 Q1927.83 67.5124 1932.33 67.5124 Q1938.52 67.5124 1942.25 63.1374 Q1946.02 58.7219 1946.02 51.4303 L1946.02 49.7694 L1938.6 49.7694 M1953.47 46.6907 L1953.47 72.576 L1946.02 72.576 L1946.02 65.6895 Q1943.47 69.8214 1939.66 71.8063 Q1935.85 73.7508 1930.34 73.7508 Q1923.37 73.7508 1919.24 69.8619 Q1915.15 65.9325 1915.15 59.3701 Q1915.15 51.7138 1920.25 47.825 Q1925.4 43.9361 1935.57 43.9361 L1946.02 43.9361 L1946.02 43.2069 Q1946.02 38.0623 1942.62 35.2672 Q1939.25 32.4315 1933.14 32.4315 Q1929.25 32.4315 1925.56 33.3632 Q1921.87 34.295 1918.47 36.1584 L1918.47 29.2718 Q1922.56 27.692 1926.41 26.9223 Q1930.26 26.1121 1933.91 26.1121 Q1943.75 26.1121 1948.61 31.2163 Q1953.47 36.3204 1953.47 46.6907 Z" fill="#000000" fill-rule="nonzero" fill-opacity="1" /><path clip-path="url(#clip230)" d="M2002.57 14.324 L2002.57 27.2059 L2017.92 27.2059 L2017.92 32.9987 L2002.57 32.9987 L2002.57 57.6282 Q2002.57 63.1779 2004.07 64.7578 Q2005.61 66.3376 2010.27 66.3376 L2017.92 66.3376 L2017.92 72.576 L2010.27 72.576 Q2001.64 72.576 1998.36 69.3758 Q1995.07 66.1351 1995.07 57.6282 L1995.07 32.9987 L1989.61 32.9987 L1989.61 27.2059 L1995.07 27.2059 L1995.07 14.324 L2002.57 14.324 Z" fill="#000000" fill-rule="nonzero" fill-opacity="1" /><path clip-path="url(#clip230)" d="M2026.95 54.671 L2026.95 27.2059 L2034.41 27.2059 L2034.41 54.3874 Q2034.41 60.8284 2036.92 64.0691 Q2039.43 67.2693 2044.45 67.2693 Q2050.49 67.2693 2053.97 63.421 Q2057.5 59.5726 2057.5 52.9291 L2057.5 27.2059 L2064.95 27.2059 L2064.95 72.576 L2057.5 72.576 L2057.5 65.6084 Q2054.78 69.7404 2051.18 71.7658 Q2047.61 73.7508 2042.87 73.7508 Q2035.06 73.7508 2031.01 68.8897 Q2026.95 64.0286 2026.95 54.671 M2045.71 26.1121 L2045.71 26.1121 Z" fill="#000000" fill-rule="nonzero" fill-opacity="1" /><path clip-path="url(#clip230)" d="M2106.6 34.1734 Q2105.34 33.4443 2103.84 33.1202 Q2102.38 32.7556 2100.6 32.7556 Q2094.28 32.7556 2090.88 36.8875 Q2087.52 40.9789 2087.52 48.6757 L2087.52 72.576 L2080.02 72.576 L2080.02 27.2059 L2087.52 27.2059 L2087.52 34.2544 Q2089.87 30.1225 2093.63 28.1376 Q2097.4 26.1121 2102.79 26.1121 Q2103.56 26.1121 2104.49 26.2337 Q2105.42 26.3147 2106.56 26.5172 L2106.6 34.1734 Z" fill="#000000" fill-rule="nonzero" fill-opacity="1" /><path clip-path="url(#clip230)" d="M2121.79 14.324 L2121.79 27.2059 L2137.14 27.2059 L2137.14 32.9987 L2121.79 32.9987 L2121.79 57.6282 Q2121.79 63.1779 2123.29 64.7578 Q2124.82 66.3376 2129.48 66.3376 L2137.14 66.3376 L2137.14 72.576 L2129.48 72.576 Q2120.85 72.576 2117.57 69.3758 Q2114.29 66.1351 2114.29 57.6282 L2114.29 32.9987 L2108.82 32.9987 L2108.82 27.2059 L2114.29 27.2059 L2114.29 14.324 L2121.79 14.324 Z" fill="#000000" fill-rule="nonzero" fill-opacity="1" /><path clip-path="url(#clip230)" d="M2146.94 9.54393 L2154.4 9.54393 L2154.4 72.576 L2146.94 72.576 L2146.94 9.54393 Z" fill="#000000" fill-rule="nonzero" fill-opacity="1" /><path clip-path="url(#clip230)" d="M2208.8 48.0275 L2208.8 51.6733 L2174.53 51.6733 Q2175.02 59.3701 2179.15 63.421 Q2183.32 67.4314 2190.73 67.4314 Q2195.03 67.4314 2199.04 66.3781 Q2203.09 65.3249 2207.06 63.2184 L2207.06 70.267 Q2203.05 71.9684 2198.83 72.8596 Q2194.62 73.7508 2190.29 73.7508 Q2179.43 73.7508 2173.07 67.4314 Q2166.75 61.1119 2166.75 50.3365 Q2166.75 39.1965 2172.75 32.6746 Q2178.78 26.1121 2188.99 26.1121 Q2198.15 26.1121 2203.45 32.0264 Q2208.8 37.9003 2208.8 48.0275 M2201.35 45.84 Q2201.27 39.7232 2197.9 36.0774 Q2194.58 32.4315 2189.07 32.4315 Q2182.83 32.4315 2179.07 35.9558 Q2175.34 39.4801 2174.77 45.8805 L2201.35 45.84 Z" fill="#000000" fill-rule="nonzero" fill-opacity="1" /><polyline clip-path="url(#clip231)" style="stroke:#ffa500; stroke-linecap:round; stroke-linejoin:round; stroke-width:8; stroke-opacity:1; fill:none" points="250.055,1688.65 386.589,1688.65 523.122,1688.65 659.656,1688.65 796.189,1684.37 932.722,1672.49 1069.26,1650.36 1205.79,1615.69 1342.32,1566.44 1478.86,1500.76 1615.39,1416.84 1751.92,1312.97 1888.46,1187.43 2024.99,1038.48 2161.52,864.388 2298.06,663.37 2434.59,433.61 2571.12,173.254 "/>
</svg>
