<?xml version="1.0" encoding="utf-8"?>
<svg xmlns="http://www.w3.org/2000/svg" xmlns:xlink="http://www.w3.org/1999/xlink" width="672" height="480" viewBox="0 0 2688 1920">
<defs>
  <clipPath id="clip290">
    <rect x="0" y="0" width="2688" height="1920"/>
  </clipPath>
</defs>
<path clip-path="url(#clip290)" d="M0 1920 L2688 1920 L2688 -4.26326e-14 L0 -4.26326e-14  Z" fill="#ffffff" fill-rule="evenodd" fill-opacity="1"/>
<defs>
  <clipPath id="clip291">
    <rect x="259" y="127" width="2383" height="1607"/>
  </clipPath>
</defs>
<path clip-path="url(#clip290)" d="M259.038 1734.12 L2640.76 1734.12 L2640.76 127.792 L259.038 127.792  Z" fill="#ffffff" fill-rule="evenodd" fill-opacity="1"/>
<polyline clip-path="url(#clip291)" style="stroke:#000000; stroke-linecap:round; stroke-linejoin:round; stroke-width:2; stroke-opacity:0.1; fill:none" points="326.445,1734.12 326.445,127.792 "/>
<polyline clip-path="url(#clip291)" style="stroke:#000000; stroke-linecap:round; stroke-linejoin:round; stroke-width:2; stroke-opacity:0.1; fill:none" points="888.171,1734.12 888.171,127.792 "/>
<polyline clip-path="url(#clip291)" style="stroke:#000000; stroke-linecap:round; stroke-linejoin:round; stroke-width:2; stroke-opacity:0.1; fill:none" points="1449.9,1734.12 1449.9,127.792 "/>
<polyline clip-path="url(#clip291)" style="stroke:#000000; stroke-linecap:round; stroke-linejoin:round; stroke-width:2; stroke-opacity:0.1; fill:none" points="2011.62,1734.12 2011.62,127.792 "/>
<polyline clip-path="url(#clip291)" style="stroke:#000000; stroke-linecap:round; stroke-linejoin:round; stroke-width:2; stroke-opacity:0.1; fill:none" points="2573.35,1734.12 2573.35,127.792 "/>
<polyline clip-path="url(#clip291)" style="stroke:#000000; stroke-linecap:round; stroke-linejoin:round; stroke-width:2; stroke-opacity:0.1; fill:none" points="259.038,1734.12 2640.76,1734.12 "/>
<polyline clip-path="url(#clip291)" style="stroke:#000000; stroke-linecap:round; stroke-linejoin:round; stroke-width:2; stroke-opacity:0.1; fill:none" points="259.038,1349.47 2640.76,1349.47 "/>
<polyline clip-path="url(#clip291)" style="stroke:#000000; stroke-linecap:round; stroke-linejoin:round; stroke-width:2; stroke-opacity:0.1; fill:none" points="259.038,964.821 2640.76,964.821 "/>
<polyline clip-path="url(#clip291)" style="stroke:#000000; stroke-linecap:round; stroke-linejoin:round; stroke-width:2; stroke-opacity:0.1; fill:none" points="259.038,580.173 2640.76,580.173 "/>
<polyline clip-path="url(#clip291)" style="stroke:#000000; stroke-linecap:round; stroke-linejoin:round; stroke-width:2; stroke-opacity:0.1; fill:none" points="259.038,195.525 2640.76,195.525 "/>
<polyline clip-path="url(#clip290)" style="stroke:#000000; stroke-linecap:round; stroke-linejoin:round; stroke-width:4; stroke-opacity:1; fill:none" points="259.038,1734.12 2640.76,1734.12 "/>
<polyline clip-path="url(#clip290)" style="stroke:#000000; stroke-linecap:round; stroke-linejoin:round; stroke-width:4; stroke-opacity:1; fill:none" points="326.445,1734.12 326.445,1715.22 "/>
<polyline clip-path="url(#clip290)" style="stroke:#000000; stroke-linecap:round; stroke-linejoin:round; stroke-width:4; stroke-opacity:1; fill:none" points="888.171,1734.12 888.171,1715.22 "/>
<polyline clip-path="url(#clip290)" style="stroke:#000000; stroke-linecap:round; stroke-linejoin:round; stroke-width:4; stroke-opacity:1; fill:none" points="1449.9,1734.12 1449.9,1715.22 "/>
<polyline clip-path="url(#clip290)" style="stroke:#000000; stroke-linecap:round; stroke-linejoin:round; stroke-width:4; stroke-opacity:1; fill:none" points="2011.62,1734.12 2011.62,1715.22 "/>
<polyline clip-path="url(#clip290)" style="stroke:#000000; stroke-linecap:round; stroke-linejoin:round; stroke-width:4; stroke-opacity:1; fill:none" points="2573.35,1734.12 2573.35,1715.22 "/>
<path clip-path="url(#clip290)" d="M288.749 1767.34 Q285.138 1767.34 283.309 1770.9 Q281.503 1774.45 281.503 1781.58 Q281.503 1788.68 283.309 1792.25 Q285.138 1795.79 288.749 1795.79 Q292.383 1795.79 294.189 1792.25 Q296.017 1788.68 296.017 1781.58 Q296.017 1774.45 294.189 1770.9 Q292.383 1767.34 288.749 1767.34 M288.749 1763.64 Q294.559 1763.64 297.614 1768.24 Q300.693 1772.83 300.693 1781.58 Q300.693 1790.3 297.614 1794.91 Q294.559 1799.49 288.749 1799.49 Q282.939 1799.49 279.86 1794.91 Q276.804 1790.3 276.804 1781.58 Q276.804 1772.83 279.86 1768.24 Q282.939 1763.64 288.749 1763.64 Z" fill="#000000" fill-rule="nonzero" fill-opacity="1" /><path clip-path="url(#clip290)" d="M308.911 1792.94 L313.795 1792.94 L313.795 1798.82 L308.911 1798.82 L308.911 1792.94 Z" fill="#000000" fill-rule="nonzero" fill-opacity="1" /><path clip-path="url(#clip290)" d="M333.98 1767.34 Q330.369 1767.34 328.54 1770.9 Q326.735 1774.45 326.735 1781.58 Q326.735 1788.68 328.54 1792.25 Q330.369 1795.79 333.98 1795.79 Q337.614 1795.79 339.42 1792.25 Q341.248 1788.68 341.248 1781.58 Q341.248 1774.45 339.42 1770.9 Q337.614 1767.34 333.98 1767.34 M333.98 1763.64 Q339.79 1763.64 342.846 1768.24 Q345.924 1772.83 345.924 1781.58 Q345.924 1790.3 342.846 1794.91 Q339.79 1799.49 333.98 1799.49 Q328.17 1799.49 325.091 1794.91 Q322.036 1790.3 322.036 1781.58 Q322.036 1772.83 325.091 1768.24 Q328.17 1763.64 333.98 1763.64 Z" fill="#000000" fill-rule="nonzero" fill-opacity="1" /><path clip-path="url(#clip290)" d="M364.142 1767.34 Q360.531 1767.34 358.702 1770.9 Q356.897 1774.45 356.897 1781.58 Q356.897 1788.68 358.702 1792.25 Q360.531 1795.79 364.142 1795.79 Q367.776 1795.79 369.582 1792.25 Q371.41 1788.68 371.41 1781.58 Q371.41 1774.45 369.582 1770.9 Q367.776 1767.34 364.142 1767.34 M364.142 1763.64 Q369.952 1763.64 373.008 1768.24 Q376.086 1772.83 376.086 1781.58 Q376.086 1790.3 373.008 1794.91 Q369.952 1799.49 364.142 1799.49 Q358.332 1799.49 355.253 1794.91 Q352.198 1790.3 352.198 1781.58 Q352.198 1772.83 355.253 1768.24 Q358.332 1763.64 364.142 1763.64 Z" fill="#000000" fill-rule="nonzero" fill-opacity="1" /><path clip-path="url(#clip290)" d="M850.972 1767.34 Q847.361 1767.34 845.533 1770.9 Q843.727 1774.45 843.727 1781.58 Q843.727 1788.68 845.533 1792.25 Q847.361 1795.79 850.972 1795.79 Q854.607 1795.79 856.412 1792.25 Q858.241 1788.68 858.241 1781.58 Q858.241 1774.45 856.412 1770.9 Q854.607 1767.34 850.972 1767.34 M850.972 1763.64 Q856.782 1763.64 859.838 1768.24 Q862.917 1772.83 862.917 1781.58 Q862.917 1790.3 859.838 1794.91 Q856.782 1799.49 850.972 1799.49 Q845.162 1799.49 842.083 1794.91 Q839.028 1790.3 839.028 1781.58 Q839.028 1772.83 842.083 1768.24 Q845.162 1763.64 850.972 1763.64 Z" fill="#000000" fill-rule="nonzero" fill-opacity="1" /><path clip-path="url(#clip290)" d="M871.134 1792.94 L876.018 1792.94 L876.018 1798.82 L871.134 1798.82 L871.134 1792.94 Z" fill="#000000" fill-rule="nonzero" fill-opacity="1" /><path clip-path="url(#clip290)" d="M890.231 1794.89 L906.551 1794.89 L906.551 1798.82 L884.606 1798.82 L884.606 1794.89 Q887.268 1792.13 891.852 1787.5 Q896.458 1782.85 897.639 1781.51 Q899.884 1778.98 900.764 1777.25 Q901.667 1775.49 901.667 1773.8 Q901.667 1771.04 899.722 1769.31 Q897.801 1767.57 894.699 1767.57 Q892.5 1767.57 890.046 1768.34 Q887.616 1769.1 884.838 1770.65 L884.838 1765.93 Q887.662 1764.79 890.116 1764.21 Q892.569 1763.64 894.606 1763.64 Q899.977 1763.64 903.171 1766.32 Q906.366 1769.01 906.366 1773.5 Q906.366 1775.63 905.555 1777.55 Q904.768 1779.45 902.662 1782.04 Q902.083 1782.71 898.981 1785.93 Q895.879 1789.12 890.231 1794.89 Z" fill="#000000" fill-rule="nonzero" fill-opacity="1" /><path clip-path="url(#clip290)" d="M916.412 1764.26 L934.768 1764.26 L934.768 1768.2 L920.694 1768.2 L920.694 1776.67 Q921.713 1776.32 922.731 1776.16 Q923.75 1775.97 924.768 1775.97 Q930.555 1775.97 933.935 1779.15 Q937.314 1782.32 937.314 1787.73 Q937.314 1793.31 933.842 1796.41 Q930.37 1799.49 924.051 1799.49 Q921.875 1799.49 919.606 1799.12 Q917.361 1798.75 914.953 1798.01 L914.953 1793.31 Q917.037 1794.45 919.259 1795 Q921.481 1795.56 923.958 1795.56 Q927.963 1795.56 930.301 1793.45 Q932.639 1791.34 932.639 1787.73 Q932.639 1784.12 930.301 1782.02 Q927.963 1779.91 923.958 1779.91 Q922.083 1779.91 920.208 1780.33 Q918.356 1780.74 916.412 1781.62 L916.412 1764.26 Z" fill="#000000" fill-rule="nonzero" fill-opacity="1" /><path clip-path="url(#clip290)" d="M1412.2 1767.34 Q1408.59 1767.34 1406.76 1770.9 Q1404.96 1774.45 1404.96 1781.58 Q1404.96 1788.68 1406.76 1792.25 Q1408.59 1795.79 1412.2 1795.79 Q1415.83 1795.79 1417.64 1792.25 Q1419.47 1788.68 1419.47 1781.58 Q1419.47 1774.45 1417.64 1770.9 Q1415.83 1767.34 1412.2 1767.34 M1412.2 1763.64 Q1418.01 1763.64 1421.07 1768.24 Q1424.14 1772.83 1424.14 1781.58 Q1424.14 1790.3 1421.07 1794.91 Q1418.01 1799.49 1412.2 1799.49 Q1406.39 1799.49 1403.31 1794.91 Q1400.26 1790.3 1400.26 1781.58 Q1400.26 1772.83 1403.31 1768.24 Q1406.39 1763.64 1412.2 1763.64 Z" fill="#000000" fill-rule="nonzero" fill-opacity="1" /><path clip-path="url(#clip290)" d="M1432.36 1792.94 L1437.25 1792.94 L1437.25 1798.82 L1432.36 1798.82 L1432.36 1792.94 Z" fill="#000000" fill-rule="nonzero" fill-opacity="1" /><path clip-path="url(#clip290)" d="M1447.48 1764.26 L1465.83 1764.26 L1465.83 1768.2 L1451.76 1768.2 L1451.76 1776.67 Q1452.78 1776.32 1453.8 1776.16 Q1454.82 1775.97 1455.83 1775.97 Q1461.62 1775.97 1465 1779.15 Q1468.38 1782.32 1468.38 1787.73 Q1468.38 1793.31 1464.91 1796.41 Q1461.44 1799.49 1455.12 1799.49 Q1452.94 1799.49 1450.67 1799.12 Q1448.43 1798.75 1446.02 1798.01 L1446.02 1793.31 Q1448.1 1794.45 1450.33 1795 Q1452.55 1795.56 1455.02 1795.56 Q1459.03 1795.56 1461.37 1793.45 Q1463.7 1791.34 1463.7 1787.73 Q1463.7 1784.12 1461.37 1782.02 Q1459.03 1779.91 1455.02 1779.91 Q1453.15 1779.91 1451.27 1780.33 Q1449.42 1780.74 1447.48 1781.62 L1447.48 1764.26 Z" fill="#000000" fill-rule="nonzero" fill-opacity="1" /><path clip-path="url(#clip290)" d="M1487.59 1767.34 Q1483.98 1767.34 1482.15 1770.9 Q1480.35 1774.45 1480.35 1781.58 Q1480.35 1788.68 1482.15 1792.25 Q1483.98 1795.79 1487.59 1795.79 Q1491.23 1795.79 1493.03 1792.25 Q1494.86 1788.68 1494.86 1781.58 Q1494.86 1774.45 1493.03 1770.9 Q1491.23 1767.34 1487.59 1767.34 M1487.59 1763.64 Q1493.4 1763.64 1496.46 1768.24 Q1499.54 1772.83 1499.54 1781.58 Q1499.54 1790.3 1496.46 1794.91 Q1493.4 1799.49 1487.59 1799.49 Q1481.78 1799.49 1478.7 1794.91 Q1475.65 1790.3 1475.65 1781.58 Q1475.65 1772.83 1478.7 1768.24 Q1481.78 1763.64 1487.59 1763.64 Z" fill="#000000" fill-rule="nonzero" fill-opacity="1" /><path clip-path="url(#clip290)" d="M1974.42 1767.34 Q1970.81 1767.34 1968.98 1770.9 Q1967.18 1774.45 1967.18 1781.58 Q1967.18 1788.68 1968.98 1792.25 Q1970.81 1795.79 1974.42 1795.79 Q1978.06 1795.79 1979.86 1792.25 Q1981.69 1788.68 1981.69 1781.58 Q1981.69 1774.45 1979.86 1770.9 Q1978.06 1767.34 1974.42 1767.34 M1974.42 1763.64 Q1980.23 1763.64 1983.29 1768.24 Q1986.37 1772.83 1986.37 1781.58 Q1986.37 1790.3 1983.29 1794.91 Q1980.23 1799.49 1974.42 1799.49 Q1968.61 1799.49 1965.54 1794.91 Q1962.48 1790.3 1962.48 1781.58 Q1962.48 1772.83 1965.54 1768.24 Q1968.61 1763.64 1974.42 1763.64 Z" fill="#000000" fill-rule="nonzero" fill-opacity="1" /><path clip-path="url(#clip290)" d="M1994.59 1792.94 L1999.47 1792.94 L1999.47 1798.82 L1994.59 1798.82 L1994.59 1792.94 Z" fill="#000000" fill-rule="nonzero" fill-opacity="1" /><path clip-path="url(#clip290)" d="M2008.47 1764.26 L2030.7 1764.26 L2030.7 1766.25 L2018.15 1798.82 L2013.27 1798.82 L2025.07 1768.2 L2008.47 1768.2 L2008.47 1764.26 Z" fill="#000000" fill-rule="nonzero" fill-opacity="1" /><path clip-path="url(#clip290)" d="M2039.86 1764.26 L2058.22 1764.26 L2058.22 1768.2 L2044.15 1768.2 L2044.15 1776.67 Q2045.16 1776.32 2046.18 1776.16 Q2047.2 1775.97 2048.22 1775.97 Q2054.01 1775.97 2057.39 1779.15 Q2060.77 1782.32 2060.77 1787.73 Q2060.77 1793.31 2057.29 1796.41 Q2053.82 1799.49 2047.5 1799.49 Q2045.33 1799.49 2043.06 1799.12 Q2040.81 1798.75 2038.41 1798.01 L2038.41 1793.31 Q2040.49 1794.45 2042.71 1795 Q2044.93 1795.56 2047.41 1795.56 Q2051.41 1795.56 2053.75 1793.45 Q2056.09 1791.34 2056.09 1787.73 Q2056.09 1784.12 2053.75 1782.02 Q2051.41 1779.91 2047.41 1779.91 Q2045.53 1779.91 2043.66 1780.33 Q2041.81 1780.74 2039.86 1781.62 L2039.86 1764.26 Z" fill="#000000" fill-rule="nonzero" fill-opacity="1" /><path clip-path="url(#clip290)" d="M2525.42 1794.89 L2533.06 1794.89 L2533.06 1768.52 L2524.75 1770.19 L2524.75 1765.93 L2533.01 1764.26 L2537.69 1764.26 L2537.69 1794.89 L2545.33 1794.89 L2545.33 1798.82 L2525.42 1798.82 L2525.42 1794.89 Z" fill="#000000" fill-rule="nonzero" fill-opacity="1" /><path clip-path="url(#clip290)" d="M2554.77 1792.94 L2559.66 1792.94 L2559.66 1798.82 L2554.77 1798.82 L2554.77 1792.94 Z" fill="#000000" fill-rule="nonzero" fill-opacity="1" /><path clip-path="url(#clip290)" d="M2579.84 1767.34 Q2576.23 1767.34 2574.4 1770.9 Q2572.6 1774.45 2572.6 1781.58 Q2572.6 1788.68 2574.4 1792.25 Q2576.23 1795.79 2579.84 1795.79 Q2583.48 1795.79 2585.28 1792.25 Q2587.11 1788.68 2587.11 1781.58 Q2587.11 1774.45 2585.28 1770.9 Q2583.48 1767.34 2579.84 1767.34 M2579.84 1763.64 Q2585.65 1763.64 2588.71 1768.24 Q2591.79 1772.83 2591.79 1781.58 Q2591.79 1790.3 2588.71 1794.91 Q2585.65 1799.49 2579.84 1799.49 Q2574.03 1799.49 2570.95 1794.91 Q2567.9 1790.3 2567.9 1781.58 Q2567.9 1772.83 2570.95 1768.24 Q2574.03 1763.64 2579.84 1763.64 Z" fill="#000000" fill-rule="nonzero" fill-opacity="1" /><path clip-path="url(#clip290)" d="M2610 1767.34 Q2606.39 1767.34 2604.56 1770.9 Q2602.76 1774.45 2602.76 1781.58 Q2602.76 1788.68 2604.56 1792.25 Q2606.39 1795.79 2610 1795.79 Q2613.64 1795.79 2615.44 1792.25 Q2617.27 1788.68 2617.27 1781.58 Q2617.27 1774.45 2615.44 1770.9 Q2613.64 1767.34 2610 1767.34 M2610 1763.64 Q2615.81 1763.64 2618.87 1768.24 Q2621.95 1772.83 2621.95 1781.58 Q2621.95 1790.3 2618.87 1794.91 Q2615.81 1799.49 2610 1799.49 Q2604.19 1799.49 2601.11 1794.91 Q2598.06 1790.3 2598.06 1781.58 Q2598.06 1772.83 2601.11 1768.24 Q2604.19 1763.64 2610 1763.64 Z" fill="#000000" fill-rule="nonzero" fill-opacity="1" /><path clip-path="url(#clip290)" d="M1274.86 1861.02 Q1276.92 1861.72 1278.87 1864.01 Q1280.84 1866.3 1282.81 1870.31 L1289.34 1883.3 L1282.43 1883.3 L1276.35 1871.11 Q1274 1866.34 1271.77 1864.78 Q1269.57 1863.22 1265.75 1863.22 L1258.75 1863.22 L1258.75 1883.3 L1252.32 1883.3 L1252.32 1835.78 L1266.84 1835.78 Q1274.98 1835.78 1278.99 1839.19 Q1283 1842.59 1283 1849.47 Q1283 1853.96 1280.9 1856.92 Q1278.83 1859.88 1274.86 1861.02 M1258.75 1841.06 L1258.75 1857.93 L1266.84 1857.93 Q1271.48 1857.93 1273.84 1855.8 Q1276.22 1853.64 1276.22 1849.47 Q1276.22 1845.3 1273.84 1843.2 Q1271.48 1841.06 1266.84 1841.06 L1258.75 1841.06 Z" fill="#000000" fill-rule="nonzero" fill-opacity="1" /><path clip-path="url(#clip290)" d="M1324.92 1864.01 L1324.92 1866.88 L1298 1866.88 Q1298.38 1872.92 1301.62 1876.11 Q1304.9 1879.26 1310.73 1879.26 Q1314.1 1879.26 1317.25 1878.43 Q1320.43 1877.6 1323.55 1875.95 L1323.55 1881.49 Q1320.4 1882.82 1317.09 1883.52 Q1313.78 1884.22 1310.38 1884.22 Q1301.85 1884.22 1296.85 1879.26 Q1291.88 1874.29 1291.88 1865.83 Q1291.88 1857.07 1296.59 1851.95 Q1301.34 1846.79 1309.36 1846.79 Q1316.55 1846.79 1320.72 1851.44 Q1324.92 1856.06 1324.92 1864.01 M1319.07 1862.29 Q1319 1857.49 1316.36 1854.62 Q1313.75 1851.76 1309.42 1851.76 Q1304.52 1851.76 1301.56 1854.53 Q1298.63 1857.3 1298.19 1862.33 L1319.07 1862.29 Z" fill="#000000" fill-rule="nonzero" fill-opacity="1" /><path clip-path="url(#clip290)" d="M1334.53 1833.78 L1340.39 1833.78 L1340.39 1883.3 L1334.53 1883.3 L1334.53 1833.78 Z" fill="#000000" fill-rule="nonzero" fill-opacity="1" /><path clip-path="url(#clip290)" d="M1368.85 1865.38 Q1361.75 1865.38 1359.01 1867 Q1356.27 1868.63 1356.27 1872.54 Q1356.27 1875.66 1358.31 1877.51 Q1360.38 1879.32 1363.91 1879.32 Q1368.78 1879.32 1371.71 1875.88 Q1374.67 1872.42 1374.67 1866.69 L1374.67 1865.38 L1368.85 1865.38 M1380.53 1862.96 L1380.53 1883.3 L1374.67 1883.3 L1374.67 1877.89 Q1372.67 1881.14 1369.67 1882.7 Q1366.68 1884.22 1362.35 1884.22 Q1356.88 1884.22 1353.63 1881.17 Q1350.42 1878.08 1350.42 1872.92 Q1350.42 1866.91 1354.43 1863.85 Q1358.47 1860.8 1366.46 1860.8 L1374.67 1860.8 L1374.67 1860.23 Q1374.67 1856.18 1372 1853.99 Q1369.35 1851.76 1364.55 1851.76 Q1361.49 1851.76 1358.6 1852.49 Q1355.7 1853.22 1353.03 1854.69 L1353.03 1849.28 Q1356.24 1848.03 1359.27 1847.43 Q1362.29 1846.79 1365.15 1846.79 Q1372.89 1846.79 1376.71 1850.8 Q1380.53 1854.81 1380.53 1862.96 Z" fill="#000000" fill-rule="nonzero" fill-opacity="1" /><path clip-path="url(#clip290)" d="M1398.38 1837.53 L1398.38 1847.65 L1410.45 1847.65 L1410.45 1852.2 L1398.38 1852.2 L1398.38 1871.56 Q1398.38 1875.92 1399.56 1877.16 Q1400.77 1878.4 1404.43 1878.4 L1410.45 1878.4 L1410.45 1883.3 L1404.43 1883.3 Q1397.65 1883.3 1395.07 1880.79 Q1392.49 1878.24 1392.49 1871.56 L1392.49 1852.2 L1388.2 1852.2 L1388.2 1847.65 L1392.49 1847.65 L1392.49 1837.53 L1398.38 1837.53 Z" fill="#000000" fill-rule="nonzero" fill-opacity="1" /><path clip-path="url(#clip290)" d="M1418.15 1847.65 L1424 1847.65 L1424 1883.3 L1418.15 1883.3 L1418.15 1847.65 M1418.15 1833.78 L1424 1833.78 L1424 1841.19 L1418.15 1841.19 L1418.15 1833.78 Z" fill="#000000" fill-rule="nonzero" fill-opacity="1" /><path clip-path="url(#clip290)" d="M1432.06 1847.65 L1438.26 1847.65 L1449.4 1877.57 L1460.54 1847.65 L1466.75 1847.65 L1453.38 1883.3 L1445.43 1883.3 L1432.06 1847.65 Z" fill="#000000" fill-rule="nonzero" fill-opacity="1" /><path clip-path="url(#clip290)" d="M1505.33 1864.01 L1505.33 1866.88 L1478.4 1866.88 Q1478.78 1872.92 1482.03 1876.11 Q1485.31 1879.26 1491.13 1879.26 Q1494.5 1879.26 1497.66 1878.43 Q1500.84 1877.6 1503.96 1875.95 L1503.96 1881.49 Q1500.81 1882.82 1497.5 1883.52 Q1494.19 1884.22 1490.78 1884.22 Q1482.25 1884.22 1477.25 1879.26 Q1472.29 1874.29 1472.29 1865.83 Q1472.29 1857.07 1477 1851.95 Q1481.74 1846.79 1489.76 1846.79 Q1496.96 1846.79 1501.13 1851.44 Q1505.33 1856.06 1505.33 1864.01 M1499.47 1862.29 Q1499.41 1857.49 1496.76 1854.62 Q1494.15 1851.76 1489.83 1851.76 Q1484.92 1851.76 1481.96 1854.53 Q1479.04 1857.3 1478.59 1862.33 L1499.47 1862.29 Z" fill="#000000" fill-rule="nonzero" fill-opacity="1" /><path clip-path="url(#clip290)" d="M1551.86 1865.38 Q1544.76 1865.38 1542.02 1867 Q1539.29 1868.63 1539.29 1872.54 Q1539.29 1875.66 1541.32 1877.51 Q1543.39 1879.32 1546.93 1879.32 Q1551.8 1879.32 1554.72 1875.88 Q1557.68 1872.42 1557.68 1866.69 L1557.68 1865.38 L1551.86 1865.38 M1563.54 1862.96 L1563.54 1883.3 L1557.68 1883.3 L1557.68 1877.89 Q1555.68 1881.14 1552.69 1882.7 Q1549.7 1884.22 1545.37 1884.22 Q1539.89 1884.22 1536.65 1881.17 Q1533.43 1878.08 1533.43 1872.92 Q1533.43 1866.91 1537.44 1863.85 Q1541.48 1860.8 1549.47 1860.8 L1557.68 1860.8 L1557.68 1860.23 Q1557.68 1856.18 1555.01 1853.99 Q1552.37 1851.76 1547.56 1851.76 Q1544.51 1851.76 1541.61 1852.49 Q1538.71 1853.22 1536.04 1854.69 L1536.04 1849.28 Q1539.26 1848.03 1542.28 1847.43 Q1545.3 1846.79 1548.17 1846.79 Q1555.9 1846.79 1559.72 1850.8 Q1563.54 1854.81 1563.54 1862.96 Z" fill="#000000" fill-rule="nonzero" fill-opacity="1" /><path clip-path="url(#clip290)" d="M1599.06 1865.06 Q1599.06 1858.7 1596.42 1855.2 Q1593.81 1851.7 1589.07 1851.7 Q1584.36 1851.7 1581.71 1855.2 Q1579.11 1858.7 1579.11 1865.06 Q1579.11 1871.4 1581.71 1874.9 Q1584.36 1878.4 1589.07 1878.4 Q1593.81 1878.4 1596.42 1874.9 Q1599.06 1871.4 1599.06 1865.06 M1604.92 1878.88 Q1604.92 1887.98 1600.88 1892.4 Q1596.83 1896.86 1588.49 1896.86 Q1585.41 1896.86 1582.67 1896.38 Q1579.93 1895.94 1577.35 1894.98 L1577.35 1889.28 Q1579.93 1890.69 1582.45 1891.35 Q1584.96 1892.02 1587.57 1892.02 Q1593.33 1892.02 1596.2 1889 Q1599.06 1886.01 1599.06 1879.93 L1599.06 1877.03 Q1597.25 1880.18 1594.41 1881.74 Q1591.58 1883.3 1587.64 1883.3 Q1581.08 1883.3 1577.07 1878.3 Q1573.06 1873.31 1573.06 1865.06 Q1573.06 1856.79 1577.07 1851.79 Q1581.08 1846.79 1587.64 1846.79 Q1591.58 1846.79 1594.41 1848.35 Q1597.25 1849.91 1599.06 1853.06 L1599.06 1847.65 L1604.92 1847.65 L1604.92 1878.88 Z" fill="#000000" fill-rule="nonzero" fill-opacity="1" /><path clip-path="url(#clip290)" d="M1647.47 1864.01 L1647.47 1866.88 L1620.55 1866.88 Q1620.93 1872.92 1624.17 1876.11 Q1627.45 1879.26 1633.28 1879.26 Q1636.65 1879.26 1639.8 1878.43 Q1642.98 1877.6 1646.1 1875.95 L1646.1 1881.49 Q1642.95 1882.82 1639.64 1883.52 Q1636.33 1884.22 1632.93 1884.22 Q1624.4 1884.22 1619.4 1879.26 Q1614.43 1874.29 1614.43 1865.83 Q1614.43 1857.07 1619.15 1851.95 Q1623.89 1846.79 1631.91 1846.79 Q1639.1 1846.79 1643.27 1851.44 Q1647.47 1856.06 1647.47 1864.01 M1641.62 1862.29 Q1641.55 1857.49 1638.91 1854.62 Q1636.3 1851.76 1631.97 1851.76 Q1627.07 1851.76 1624.11 1854.53 Q1621.18 1857.3 1620.74 1862.33 L1641.62 1862.29 Z" fill="#000000" fill-rule="nonzero" fill-opacity="1" /><polyline clip-path="url(#clip290)" style="stroke:#000000; stroke-linecap:round; stroke-linejoin:round; stroke-width:4; stroke-opacity:1; fill:none" points="259.038,1734.12 259.038,127.792 "/>
<polyline clip-path="url(#clip290)" style="stroke:#000000; stroke-linecap:round; stroke-linejoin:round; stroke-width:4; stroke-opacity:1; fill:none" points="259.038,1734.12 277.936,1734.12 "/>
<polyline clip-path="url(#clip290)" style="stroke:#000000; stroke-linecap:round; stroke-linejoin:round; stroke-width:4; stroke-opacity:1; fill:none" points="259.038,1349.47 277.936,1349.47 "/>
<polyline clip-path="url(#clip290)" style="stroke:#000000; stroke-linecap:round; stroke-linejoin:round; stroke-width:4; stroke-opacity:1; fill:none" points="259.038,964.821 277.936,964.821 "/>
<polyline clip-path="url(#clip290)" style="stroke:#000000; stroke-linecap:round; stroke-linejoin:round; stroke-width:4; stroke-opacity:1; fill:none" points="259.038,580.173 277.936,580.173 "/>
<polyline clip-path="url(#clip290)" style="stroke:#000000; stroke-linecap:round; stroke-linejoin:round; stroke-width:4; stroke-opacity:1; fill:none" points="259.038,195.525 277.936,195.525 "/>
<path clip-path="url(#clip290)" d="M116.886 1753.91 L124.525 1753.91 L124.525 1727.54 L116.214 1729.21 L116.214 1724.95 L124.478 1723.28 L129.154 1723.28 L129.154 1753.91 L136.793 1753.91 L136.793 1757.84 L116.886 1757.84 L116.886 1753.91 Z" fill="#000000" fill-rule="nonzero" fill-opacity="1" /><path clip-path="url(#clip290)" d="M156.237 1726.36 Q152.626 1726.36 150.798 1729.93 Q148.992 1733.47 148.992 1740.6 Q148.992 1747.71 150.798 1751.27 Q152.626 1754.81 156.237 1754.81 Q159.872 1754.81 161.677 1751.27 Q163.506 1747.71 163.506 1740.6 Q163.506 1733.47 161.677 1729.93 Q159.872 1726.36 156.237 1726.36 M156.237 1722.66 Q162.048 1722.66 165.103 1727.27 Q168.182 1731.85 168.182 1740.6 Q168.182 1749.33 165.103 1753.93 Q162.048 1758.52 156.237 1758.52 Q150.427 1758.52 147.349 1753.93 Q144.293 1749.33 144.293 1740.6 Q144.293 1731.85 147.349 1727.27 Q150.427 1722.66 156.237 1722.66 Z" fill="#000000" fill-rule="nonzero" fill-opacity="1" /><path clip-path="url(#clip290)" d="M168.182 1716.76 L192.293 1716.76 L192.293 1719.96 L168.182 1719.96 L168.182 1716.76 Z" fill="#000000" fill-rule="nonzero" fill-opacity="1" /><path clip-path="url(#clip290)" d="M210.932 1705.66 L201.34 1720.65 L210.932 1720.65 L210.932 1705.66 M209.935 1702.35 L214.712 1702.35 L214.712 1720.65 L218.718 1720.65 L218.718 1723.81 L214.712 1723.81 L214.712 1730.43 L210.932 1730.43 L210.932 1723.81 L198.255 1723.81 L198.255 1720.15 L209.935 1702.35 Z" fill="#000000" fill-rule="nonzero" fill-opacity="1" /><path clip-path="url(#clip290)" d="M117.807 1369.26 L125.446 1369.26 L125.446 1342.9 L117.136 1344.56 L117.136 1340.3 L125.4 1338.64 L130.076 1338.64 L130.076 1369.26 L137.715 1369.26 L137.715 1373.2 L117.807 1373.2 L117.807 1369.26 Z" fill="#000000" fill-rule="nonzero" fill-opacity="1" /><path clip-path="url(#clip290)" d="M157.159 1341.72 Q153.548 1341.72 151.719 1345.28 Q149.914 1348.82 149.914 1355.95 Q149.914 1363.06 151.719 1366.62 Q153.548 1370.16 157.159 1370.16 Q160.793 1370.16 162.599 1366.62 Q164.427 1363.06 164.427 1355.95 Q164.427 1348.82 162.599 1345.28 Q160.793 1341.72 157.159 1341.72 M157.159 1338.01 Q162.969 1338.01 166.025 1342.62 Q169.103 1347.2 169.103 1355.95 Q169.103 1364.68 166.025 1369.28 Q162.969 1373.87 157.159 1373.87 Q151.349 1373.87 148.27 1369.28 Q145.215 1364.68 145.215 1355.95 Q145.215 1347.2 148.27 1342.62 Q151.349 1338.01 157.159 1338.01 Z" fill="#000000" fill-rule="nonzero" fill-opacity="1" /><path clip-path="url(#clip290)" d="M169.103 1332.11 L193.215 1332.11 L193.215 1335.31 L169.103 1335.31 L169.103 1332.11 Z" fill="#000000" fill-rule="nonzero" fill-opacity="1" /><path clip-path="url(#clip290)" d="M212.925 1330.65 Q215.653 1331.23 217.176 1333.07 Q218.718 1334.92 218.718 1337.62 Q218.718 1341.78 215.859 1344.06 Q213.001 1346.33 207.734 1346.33 Q205.967 1346.33 204.086 1345.97 Q202.224 1345.64 200.23 1344.94 L200.23 1341.27 Q201.81 1342.19 203.691 1342.66 Q205.572 1343.13 207.622 1343.13 Q211.195 1343.13 213.057 1341.72 Q214.938 1340.31 214.938 1337.62 Q214.938 1335.14 213.189 1333.75 Q211.458 1332.34 208.355 1332.34 L205.083 1332.34 L205.083 1329.22 L208.506 1329.22 Q211.308 1329.22 212.794 1328.11 Q214.28 1326.98 214.28 1324.87 Q214.28 1322.71 212.737 1321.56 Q211.214 1320.4 208.355 1320.4 Q206.794 1320.4 205.007 1320.73 Q203.221 1321.07 201.077 1321.79 L201.077 1318.4 Q203.239 1317.8 205.12 1317.5 Q207.02 1317.2 208.694 1317.2 Q213.019 1317.2 215.54 1319.17 Q218.06 1321.13 218.06 1324.48 Q218.06 1326.81 216.725 1328.43 Q215.389 1330.03 212.925 1330.65 Z" fill="#000000" fill-rule="nonzero" fill-opacity="1" /><path clip-path="url(#clip290)" d="M118.578 984.614 L126.217 984.614 L126.217 958.248 L117.907 959.915 L117.907 955.655 L126.171 953.989 L130.847 953.989 L130.847 984.614 L138.486 984.614 L138.486 988.549 L118.578 988.549 L118.578 984.614 Z" fill="#000000" fill-rule="nonzero" fill-opacity="1" /><path clip-path="url(#clip290)" d="M157.93 957.067 Q154.319 957.067 152.49 960.632 Q150.685 964.174 150.685 971.303 Q150.685 978.41 152.49 981.975 Q154.319 985.516 157.93 985.516 Q161.564 985.516 163.37 981.975 Q165.199 978.41 165.199 971.303 Q165.199 964.174 163.37 960.632 Q161.564 957.067 157.93 957.067 M157.93 953.364 Q163.74 953.364 166.796 957.97 Q169.874 962.553 169.874 971.303 Q169.874 980.03 166.796 984.637 Q163.74 989.22 157.93 989.22 Q152.12 989.22 149.041 984.637 Q145.986 980.03 145.986 971.303 Q145.986 962.553 149.041 957.97 Q152.12 953.364 157.93 953.364 Z" fill="#000000" fill-rule="nonzero" fill-opacity="1" /><path clip-path="url(#clip290)" d="M169.874 947.465 L193.986 947.465 L193.986 950.662 L169.874 950.662 L169.874 947.465 Z" fill="#000000" fill-rule="nonzero" fill-opacity="1" /><path clip-path="url(#clip290)" d="M205.459 957.941 L218.718 957.941 L218.718 961.138 L200.888 961.138 L200.888 957.941 Q203.051 955.703 206.775 951.941 Q210.518 948.161 211.477 947.07 Q213.302 945.02 214.016 943.609 Q214.75 942.18 214.75 940.807 Q214.75 938.569 213.17 937.158 Q211.609 935.748 209.089 935.748 Q207.302 935.748 205.308 936.368 Q203.333 936.989 201.077 938.249 L201.077 934.412 Q203.371 933.491 205.365 933.021 Q207.358 932.551 209.013 932.551 Q213.377 932.551 215.972 934.732 Q218.568 936.914 218.568 940.563 Q218.568 942.293 217.91 943.854 Q217.27 945.396 215.559 947.503 Q215.088 948.048 212.568 950.662 Q210.048 953.258 205.459 957.941 Z" fill="#000000" fill-rule="nonzero" fill-opacity="1" /><path clip-path="url(#clip290)" d="M118.278 599.966 L125.916 599.966 L125.916 573.6 L117.606 575.267 L117.606 571.007 L125.87 569.341 L130.546 569.341 L130.546 599.966 L138.185 599.966 L138.185 603.901 L118.278 603.901 L118.278 599.966 Z" fill="#000000" fill-rule="nonzero" fill-opacity="1" /><path clip-path="url(#clip290)" d="M157.629 572.419 Q154.018 572.419 152.189 575.984 Q150.384 579.526 150.384 586.656 Q150.384 593.762 152.189 597.327 Q154.018 600.868 157.629 600.868 Q161.263 600.868 163.069 597.327 Q164.898 593.762 164.898 586.656 Q164.898 579.526 163.069 575.984 Q161.263 572.419 157.629 572.419 M157.629 568.716 Q163.439 568.716 166.495 573.322 Q169.574 577.906 169.574 586.656 Q169.574 595.382 166.495 599.989 Q163.439 604.572 157.629 604.572 Q151.819 604.572 148.74 599.989 Q145.685 595.382 145.685 586.656 Q145.685 577.906 148.74 573.322 Q151.819 568.716 157.629 568.716 Z" fill="#000000" fill-rule="nonzero" fill-opacity="1" /><path clip-path="url(#clip290)" d="M169.574 562.817 L193.685 562.817 L193.685 566.014 L169.574 566.014 L169.574 562.817 Z" fill="#000000" fill-rule="nonzero" fill-opacity="1" /><path clip-path="url(#clip290)" d="M202.544 573.293 L208.75 573.293 L208.75 551.871 L201.998 553.225 L201.998 549.765 L208.713 548.41 L212.512 548.41 L212.512 573.293 L218.718 573.293 L218.718 576.49 L202.544 576.49 L202.544 573.293 Z" fill="#000000" fill-rule="nonzero" fill-opacity="1" /><path clip-path="url(#clip290)" d="M148.013 215.318 L155.651 215.318 L155.651 188.952 L147.341 190.619 L147.341 186.36 L155.605 184.693 L160.281 184.693 L160.281 215.318 L167.92 215.318 L167.92 219.253 L148.013 219.253 L148.013 215.318 Z" fill="#000000" fill-rule="nonzero" fill-opacity="1" /><path clip-path="url(#clip290)" d="M187.364 187.772 Q183.753 187.772 181.924 191.336 Q180.119 194.878 180.119 202.008 Q180.119 209.114 181.924 212.679 Q183.753 216.22 187.364 216.22 Q190.998 216.22 192.804 212.679 Q194.633 209.114 194.633 202.008 Q194.633 194.878 192.804 191.336 Q190.998 187.772 187.364 187.772 M187.364 184.068 Q193.174 184.068 196.23 188.674 Q199.309 193.258 199.309 202.008 Q199.309 210.734 196.23 215.341 Q193.174 219.924 187.364 219.924 Q181.554 219.924 178.475 215.341 Q175.42 210.734 175.42 202.008 Q175.42 193.258 178.475 188.674 Q181.554 184.068 187.364 184.068 Z" fill="#000000" fill-rule="nonzero" fill-opacity="1" /><path clip-path="url(#clip290)" d="M209.013 166.264 Q206.079 166.264 204.594 169.16 Q203.127 172.038 203.127 177.831 Q203.127 183.605 204.594 186.501 Q206.079 189.379 209.013 189.379 Q211.966 189.379 213.433 186.501 Q214.919 183.605 214.919 177.831 Q214.919 172.038 213.433 169.16 Q211.966 166.264 209.013 166.264 M209.013 163.255 Q213.734 163.255 216.217 166.997 Q218.718 170.721 218.718 177.831 Q218.718 184.921 216.217 188.664 Q213.734 192.388 209.013 192.388 Q204.293 192.388 201.791 188.664 Q199.309 184.921 199.309 177.831 Q199.309 170.721 201.791 166.997 Q204.293 163.255 209.013 163.255 Z" fill="#000000" fill-rule="nonzero" fill-opacity="1" /><path clip-path="url(#clip290)" d="M15.678 1162.65 L21.9483 1162.65 Q20.1977 1166.31 19.3383 1169.56 Q18.479 1172.8 18.479 1175.83 Q18.479 1181.08 20.516 1183.94 Q22.553 1186.78 26.3088 1186.78 Q29.4598 1186.78 31.0831 1184.9 Q32.6745 1182.99 33.6612 1177.71 L34.4569 1173.82 Q35.8255 1166.63 39.2948 1163.22 Q42.7323 1159.79 48.5251 1159.79 Q55.4319 1159.79 58.9967 1164.43 Q62.5615 1169.05 62.5615 1177.99 Q62.5615 1181.37 61.7976 1185.18 Q61.0337 1188.97 59.5378 1193.05 L52.9174 1193.05 Q55.1136 1189.13 56.2276 1185.38 Q57.3416 1181.62 57.3416 1177.99 Q57.3416 1172.49 55.1773 1169.49 Q53.0129 1166.5 49.0025 1166.5 Q45.5014 1166.5 43.528 1168.67 Q41.5546 1170.8 40.568 1175.7 L39.8041 1179.61 Q38.3718 1186.81 35.3162 1190.02 Q32.2607 1193.24 26.818 1193.24 Q20.516 1193.24 16.8875 1188.81 Q13.2591 1184.36 13.2591 1176.56 Q13.2591 1173.22 13.8638 1169.75 Q14.4686 1166.28 15.678 1162.65 Z" fill="#000000" fill-rule="nonzero" fill-opacity="1" /><path clip-path="url(#clip290)" d="M47.5702 1150.62 L25.9905 1150.62 L25.9905 1144.76 L47.3474 1144.76 Q52.4082 1144.76 54.9545 1142.79 Q57.4689 1140.82 57.4689 1136.87 Q57.4689 1132.13 54.4452 1129.39 Q51.4215 1126.62 46.2016 1126.62 L25.9905 1126.62 L25.9905 1120.76 L61.6384 1120.76 L61.6384 1126.62 L56.1639 1126.62 Q59.4104 1128.75 61.0019 1131.59 Q62.5615 1134.39 62.5615 1138.11 Q62.5615 1144.25 58.742 1147.44 Q54.9226 1150.62 47.5702 1150.62 M25.1311 1135.88 L25.1311 1135.88 Z" fill="#000000" fill-rule="nonzero" fill-opacity="1" /><path clip-path="url(#clip290)" d="M31.465 1088.04 Q30.8921 1089.03 30.6375 1090.21 Q30.351 1091.35 30.351 1092.75 Q30.351 1097.72 33.5975 1100.39 Q36.8122 1103.04 42.8596 1103.04 L61.6384 1103.04 L61.6384 1108.92 L25.9905 1108.92 L25.9905 1103.04 L31.5287 1103.04 Q28.2821 1101.19 26.7225 1098.23 Q25.1311 1095.27 25.1311 1091.04 Q25.1311 1090.43 25.2266 1089.7 Q25.2903 1088.97 25.4494 1088.08 L31.465 1088.04 Z" fill="#000000" fill-rule="nonzero" fill-opacity="1" /><path clip-path="url(#clip290)" d="M25.9905 1086.1 L25.9905 1079.9 L55.9093 1068.76 L25.9905 1057.62 L25.9905 1051.41 L61.6384 1064.78 L61.6384 1072.73 L25.9905 1086.1 Z" fill="#000000" fill-rule="nonzero" fill-opacity="1" /><path clip-path="url(#clip290)" d="M25.9905 1043.33 L25.9905 1037.47 L61.6384 1037.47 L61.6384 1043.33 L25.9905 1043.33 M12.1132 1043.33 L12.1132 1037.47 L19.5293 1037.47 L19.5293 1043.33 L12.1132 1043.33 Z" fill="#000000" fill-rule="nonzero" fill-opacity="1" /><path clip-path="url(#clip290)" d="M25.9905 1029.42 L25.9905 1023.21 L55.9093 1012.07 L25.9905 1000.93 L25.9905 994.723 L61.6384 1008.09 L61.6384 1016.05 L25.9905 1029.42 Z" fill="#000000" fill-rule="nonzero" fill-opacity="1" /><path clip-path="url(#clip290)" d="M30.0964 972.825 Q30.0964 977.536 33.7885 980.273 Q37.4488 983.01 43.8463 983.01 Q50.2438 983.01 53.9359 980.305 Q57.5962 977.567 57.5962 972.825 Q57.5962 968.146 53.9041 965.409 Q50.212 962.672 43.8463 962.672 Q37.5124 962.672 33.8203 965.409 Q30.0964 968.146 30.0964 972.825 M25.1311 972.825 Q25.1311 965.186 30.0964 960.826 Q35.0616 956.465 43.8463 956.465 Q52.5991 956.465 57.5962 960.826 Q62.5615 965.186 62.5615 972.825 Q62.5615 980.496 57.5962 984.856 Q52.5991 989.185 43.8463 989.185 Q35.0616 989.185 30.0964 984.856 Q25.1311 980.496 25.1311 972.825 Z" fill="#000000" fill-rule="nonzero" fill-opacity="1" /><path clip-path="url(#clip290)" d="M31.465 926.101 Q30.8921 927.087 30.6375 928.265 Q30.351 929.411 30.351 930.811 Q30.351 935.777 33.5975 938.45 Q36.8122 941.092 42.8596 941.092 L61.6384 941.092 L61.6384 946.98 L25.9905 946.98 L25.9905 941.092 L31.5287 941.092 Q28.2821 939.246 26.7225 936.286 Q25.1311 933.326 25.1311 929.093 Q25.1311 928.488 25.2266 927.756 Q25.2903 927.024 25.4494 926.133 L31.465 926.101 Z" fill="#000000" fill-rule="nonzero" fill-opacity="1" /><path clip-path="url(#clip290)" d="M27.0408 897.232 L32.579 897.232 Q31.3059 899.715 30.6693 902.388 Q30.0327 905.062 30.0327 907.927 Q30.0327 912.287 31.3695 914.483 Q32.7063 916.648 35.3799 916.648 Q37.4169 916.648 38.5946 915.088 Q39.7404 913.528 40.7908 908.818 L41.2364 906.813 Q42.5732 900.574 45.0239 897.964 Q47.4429 895.323 51.8034 895.323 Q56.7687 895.323 59.6651 899.269 Q62.5615 903.184 62.5615 910.059 Q62.5615 912.924 61.9886 916.043 Q61.4475 919.13 60.3335 922.568 L54.2861 922.568 Q55.973 919.321 56.8323 916.17 Q57.6599 913.019 57.6599 909.932 Q57.6599 905.794 56.2594 903.566 Q54.8271 901.338 52.249 901.338 Q49.8619 901.338 48.5887 902.961 Q47.3156 904.553 46.1379 909.995 L45.6605 912.032 Q44.5147 917.475 42.1594 919.894 Q39.7722 922.313 35.6345 922.313 Q30.6056 922.313 27.8684 918.748 Q25.1311 915.184 25.1311 908.627 Q25.1311 905.38 25.6085 902.516 Q26.086 899.651 27.0408 897.232 Z" fill="#000000" fill-rule="nonzero" fill-opacity="1" /><path clip-path="url(#clip290)" d="M40.1224 856.364 L61.6384 856.364 L61.6384 862.221 L40.3133 862.221 Q35.2526 862.221 32.7381 864.194 Q30.2237 866.168 30.2237 870.114 Q30.2237 874.857 33.2474 877.594 Q36.2711 880.331 41.491 880.331 L61.6384 880.331 L61.6384 886.22 L12.1132 886.22 L12.1132 880.331 L31.5287 880.331 Q28.314 878.231 26.7225 875.398 Q25.1311 872.533 25.1311 868.809 Q25.1311 862.666 28.9505 859.515 Q32.7381 856.364 40.1224 856.364 Z" fill="#000000" fill-rule="nonzero" fill-opacity="1" /><path clip-path="url(#clip290)" d="M25.9905 844.683 L25.9905 838.827 L61.6384 838.827 L61.6384 844.683 L25.9905 844.683 M12.1132 844.683 L12.1132 838.827 L19.5293 838.827 L19.5293 844.683 L12.1132 844.683 Z" fill="#000000" fill-rule="nonzero" fill-opacity="1" /><path clip-path="url(#clip290)" d="M56.2912 820.907 L75.1974 820.907 L75.1974 826.796 L25.9905 826.796 L25.9905 820.907 L31.4013 820.907 Q28.2185 819.061 26.6907 816.26 Q25.1311 813.428 25.1311 809.513 Q25.1311 803.02 30.2873 798.978 Q35.4436 794.903 43.8463 794.903 Q52.249 794.903 57.4052 798.978 Q62.5615 803.02 62.5615 809.513 Q62.5615 813.428 61.0337 816.26 Q59.4741 819.061 56.2912 820.907 M43.8463 800.983 Q37.3851 800.983 33.7248 803.656 Q30.0327 806.298 30.0327 810.945 Q30.0327 815.592 33.7248 818.266 Q37.3851 820.907 43.8463 820.907 Q50.3075 820.907 53.9996 818.266 Q57.6599 815.592 57.6599 810.945 Q57.6599 806.298 53.9996 803.656 Q50.3075 800.983 43.8463 800.983 Z" fill="#000000" fill-rule="nonzero" fill-opacity="1" /><path clip-path="url(#clip290)" d="M12.1132 764.475 L12.1132 758.619 L61.6384 758.619 L61.6384 764.475 L12.1132 764.475 Z" fill="#000000" fill-rule="nonzero" fill-opacity="1" /><path clip-path="url(#clip290)" d="M12.1769 732.297 Q19.4975 736.562 26.6589 738.631 Q33.8203 740.699 41.1727 740.699 Q48.5251 740.699 55.7502 738.631 Q62.9434 736.53 70.2321 732.297 L70.2321 737.389 Q62.7524 742.164 55.5274 744.551 Q48.3023 746.906 41.1727 746.906 Q34.0749 746.906 26.8817 744.551 Q19.6884 742.195 12.1769 737.389 L12.1769 732.297 Z" fill="#000000" fill-rule="nonzero" fill-opacity="1" /><path clip-path="url(#clip290)" d="M25.9905 691.302 L43.337 704.192 L61.6384 690.633 L61.6384 697.54 L47.6339 707.916 L61.6384 718.292 L61.6384 725.199 L42.9869 711.354 L25.9905 724.021 L25.9905 717.115 L38.6901 707.661 L25.9905 698.208 L25.9905 691.302 Z" fill="#000000" fill-rule="nonzero" fill-opacity="1" /><path clip-path="url(#clip290)" d="M12.1769 683.281 L12.1769 678.188 Q19.6884 673.414 26.8817 671.059 Q34.0749 668.672 41.1727 668.672 Q48.3023 668.672 55.5274 671.059 Q62.7524 673.414 70.2321 678.188 L70.2321 683.281 Q62.9434 679.048 55.7502 676.979 Q48.5251 674.878 41.1727 674.878 Q33.8203 674.878 26.6589 676.979 Q19.4975 679.048 12.1769 683.281 Z" fill="#000000" fill-rule="nonzero" fill-opacity="1" /><path clip-path="url(#clip290)" d="M888.604 18.8205 L888.604 65.8515 L898.488 65.8515 Q911.005 65.8515 916.798 60.1802 Q922.631 54.509 922.631 42.2752 Q922.631 30.1225 916.798 24.4918 Q911.005 18.8205 898.488 18.8205 L888.604 18.8205 M880.421 12.096 L897.232 12.096 Q914.813 12.096 923.036 19.4281 Q931.26 26.7198 931.26 42.2752 Q931.26 57.9117 922.996 65.2439 Q914.732 72.576 897.232 72.576 L880.421 72.576 L880.421 12.096 Z" fill="#000000" fill-rule="nonzero" fill-opacity="1" /><path clip-path="url(#clip290)" d="M982.787 48.0275 L982.787 51.6733 L948.517 51.6733 Q949.003 59.3701 953.135 63.421 Q957.307 67.4314 964.72 67.4314 Q969.014 67.4314 973.025 66.3781 Q977.076 65.3249 981.045 63.2184 L981.045 70.267 Q977.035 71.9684 972.822 72.8596 Q968.609 73.7508 964.275 73.7508 Q953.418 73.7508 947.058 67.4314 Q940.739 61.1119 940.739 50.3365 Q940.739 39.1965 946.734 32.6746 Q952.77 26.1121 962.978 26.1121 Q972.133 26.1121 977.44 32.0264 Q982.787 37.9003 982.787 48.0275 M975.334 45.84 Q975.253 39.7232 971.89 36.0774 Q968.569 32.4315 963.059 32.4315 Q956.821 32.4315 953.054 35.9558 Q949.327 39.4801 948.76 45.8805 L975.334 45.84 Z" fill="#000000" fill-rule="nonzero" fill-opacity="1" /><path clip-path="url(#clip290)" d="M1033.83 48.0275 L1033.83 51.6733 L999.558 51.6733 Q1000.04 59.3701 1004.18 63.421 Q1008.35 67.4314 1015.76 67.4314 Q1020.06 67.4314 1024.07 66.3781 Q1028.12 65.3249 1032.09 63.2184 L1032.09 70.267 Q1028.08 71.9684 1023.86 72.8596 Q1019.65 73.7508 1015.32 73.7508 Q1004.46 73.7508 998.1 67.4314 Q991.78 61.1119 991.78 50.3365 Q991.78 39.1965 997.776 32.6746 Q1003.81 26.1121 1014.02 26.1121 Q1023.17 26.1121 1028.48 32.0264 Q1033.83 37.9003 1033.83 48.0275 M1026.38 45.84 Q1026.29 39.7232 1022.93 36.0774 Q1019.61 32.4315 1014.1 32.4315 Q1007.86 32.4315 1004.1 35.9558 Q1000.37 39.4801 999.801 45.8805 L1026.38 45.84 Z" fill="#000000" fill-rule="nonzero" fill-opacity="1" /><path clip-path="url(#clip290)" d="M1040.72 27.2059 L1048.61 27.2059 L1062.79 65.2844 L1076.97 27.2059 L1084.87 27.2059 L1067.86 72.576 L1057.73 72.576 L1040.72 27.2059 Z" fill="#000000" fill-rule="nonzero" fill-opacity="1" /><path clip-path="url(#clip290)" d="M1133.97 48.0275 L1133.97 51.6733 L1099.7 51.6733 Q1100.18 59.3701 1104.31 63.421 Q1108.49 67.4314 1115.9 67.4314 Q1120.19 67.4314 1124.2 66.3781 Q1128.26 65.3249 1132.23 63.2184 L1132.23 70.267 Q1128.21 71.9684 1124 72.8596 Q1119.79 73.7508 1115.45 73.7508 Q1104.6 73.7508 1098.24 67.4314 Q1091.92 61.1119 1091.92 50.3365 Q1091.92 39.1965 1097.91 32.6746 Q1103.95 26.1121 1114.16 26.1121 Q1123.31 26.1121 1128.62 32.0264 Q1133.97 37.9003 1133.97 48.0275 M1126.51 45.84 Q1126.43 39.7232 1123.07 36.0774 Q1119.75 32.4315 1114.24 32.4315 Q1108 32.4315 1104.23 35.9558 Q1100.51 39.4801 1099.94 45.8805 L1126.51 45.84 Z" fill="#000000" fill-rule="nonzero" fill-opacity="1" /><path clip-path="url(#clip290)" d="M1165.08 76.7889 Q1161.92 84.8907 1158.92 87.3618 Q1155.92 89.8329 1150.9 89.8329 L1144.95 89.8329 L1144.95 83.5945 L1149.32 83.5945 Q1152.4 83.5945 1154.1 82.1361 Q1155.8 80.6778 1157.87 75.2496 L1159.2 71.8468 L1140.85 27.2059 L1148.75 27.2059 L1162.93 62.6918 L1177.11 27.2059 L1185.01 27.2059 L1165.08 76.7889 Z" fill="#000000" fill-rule="nonzero" fill-opacity="1" /><path clip-path="url(#clip290)" d="M1250.59 28.5427 L1250.59 35.5912 Q1247.43 33.9709 1244.03 33.1607 Q1240.63 32.3505 1236.98 32.3505 Q1231.43 32.3505 1228.64 34.0519 Q1225.88 35.7533 1225.88 39.156 Q1225.88 41.7486 1227.87 43.2475 Q1229.85 44.7058 1235.85 46.0426 L1238.4 46.6097 Q1246.34 48.3111 1249.66 51.4303 Q1253.02 54.509 1253.02 60.0587 Q1253.02 66.3781 1248 70.0644 Q1243.02 73.7508 1234.27 73.7508 Q1230.62 73.7508 1226.65 73.0216 Q1222.72 72.3329 1218.35 70.9151 L1218.35 63.2184 Q1222.48 65.3654 1226.49 66.4591 Q1230.5 67.5124 1234.43 67.5124 Q1239.7 67.5124 1242.53 65.73 Q1245.37 63.9071 1245.37 60.6258 Q1245.37 57.5877 1243.3 55.9673 Q1241.28 54.3469 1234.35 52.8481 L1231.76 52.2405 Q1224.83 50.7821 1221.75 47.7845 Q1218.67 44.7463 1218.67 39.4801 Q1218.67 33.0797 1223.21 29.5959 Q1227.75 26.1121 1236.09 26.1121 Q1240.22 26.1121 1243.87 26.7198 Q1247.51 27.3274 1250.59 28.5427 Z" fill="#000000" fill-rule="nonzero" fill-opacity="1" /><path clip-path="url(#clip290)" d="M1264.12 54.671 L1264.12 27.2059 L1271.58 27.2059 L1271.58 54.3874 Q1271.58 60.8284 1274.09 64.0691 Q1276.6 67.2693 1281.62 67.2693 Q1287.66 67.2693 1291.14 63.421 Q1294.67 59.5726 1294.67 52.9291 L1294.67 27.2059 L1302.12 27.2059 L1302.12 72.576 L1294.67 72.576 L1294.67 65.6084 Q1291.95 69.7404 1288.35 71.7658 Q1284.78 73.7508 1280.04 73.7508 Q1272.22 73.7508 1268.17 68.8897 Q1264.12 64.0286 1264.12 54.671 M1282.88 26.1121 L1282.88 26.1121 Z" fill="#000000" fill-rule="nonzero" fill-opacity="1" /><path clip-path="url(#clip290)" d="M1343.76 34.1734 Q1342.51 33.4443 1341.01 33.1202 Q1339.55 32.7556 1337.77 32.7556 Q1331.45 32.7556 1328.05 36.8875 Q1324.68 40.9789 1324.68 48.6757 L1324.68 72.576 L1317.19 72.576 L1317.19 27.2059 L1324.68 27.2059 L1324.68 34.2544 Q1327.03 30.1225 1330.8 28.1376 Q1334.57 26.1121 1339.96 26.1121 Q1340.73 26.1121 1341.66 26.2337 Q1342.59 26.3147 1343.72 26.5172 L1343.76 34.1734 Z" fill="#000000" fill-rule="nonzero" fill-opacity="1" /><path clip-path="url(#clip290)" d="M1346.23 27.2059 L1354.13 27.2059 L1368.31 65.2844 L1382.49 27.2059 L1390.39 27.2059 L1373.38 72.576 L1363.25 72.576 L1346.23 27.2059 Z" fill="#000000" fill-rule="nonzero" fill-opacity="1" /><path clip-path="url(#clip290)" d="M1400.68 27.2059 L1408.13 27.2059 L1408.13 72.576 L1400.68 72.576 L1400.68 27.2059 M1400.68 9.54393 L1408.13 9.54393 L1408.13 18.9825 L1400.68 18.9825 L1400.68 9.54393 Z" fill="#000000" fill-rule="nonzero" fill-opacity="1" /><path clip-path="url(#clip290)" d="M1418.38 27.2059 L1426.28 27.2059 L1440.46 65.2844 L1454.64 27.2059 L1462.54 27.2059 L1445.52 72.576 L1435.39 72.576 L1418.38 27.2059 Z" fill="#000000" fill-rule="nonzero" fill-opacity="1" /><path clip-path="url(#clip290)" d="M1490.41 32.4315 Q1484.41 32.4315 1480.93 37.1306 Q1477.44 41.7891 1477.44 49.9314 Q1477.44 58.0738 1480.89 62.7728 Q1484.37 67.4314 1490.41 67.4314 Q1496.36 67.4314 1499.84 62.7323 Q1503.33 58.0333 1503.33 49.9314 Q1503.33 41.8701 1499.84 37.1711 Q1496.36 32.4315 1490.41 32.4315 M1490.41 26.1121 Q1500.13 26.1121 1505.68 32.4315 Q1511.23 38.7509 1511.23 49.9314 Q1511.23 61.0714 1505.68 67.4314 Q1500.13 73.7508 1490.41 73.7508 Q1480.64 73.7508 1475.09 67.4314 Q1469.58 61.0714 1469.58 49.9314 Q1469.58 38.7509 1475.09 32.4315 Q1480.64 26.1121 1490.41 26.1121 Z" fill="#000000" fill-rule="nonzero" fill-opacity="1" /><path clip-path="url(#clip290)" d="M1549.87 34.1734 Q1548.62 33.4443 1547.12 33.1202 Q1545.66 32.7556 1543.88 32.7556 Q1537.56 32.7556 1534.16 36.8875 Q1530.79 40.9789 1530.79 48.6757 L1530.79 72.576 L1523.3 72.576 L1523.3 27.2059 L1530.79 27.2059 L1530.79 34.2544 Q1533.14 30.1225 1536.91 28.1376 Q1540.68 26.1121 1546.07 26.1121 Q1546.84 26.1121 1547.77 26.2337 Q1548.7 26.3147 1549.83 26.5172 L1549.87 34.1734 Z" fill="#000000" fill-rule="nonzero" fill-opacity="1" /><path clip-path="url(#clip290)" d="M1586.62 28.5427 L1586.62 35.5912 Q1583.46 33.9709 1580.05 33.1607 Q1576.65 32.3505 1573 32.3505 Q1567.45 32.3505 1564.66 34.0519 Q1561.9 35.7533 1561.9 39.156 Q1561.9 41.7486 1563.89 43.2475 Q1565.87 44.7058 1571.87 46.0426 L1574.42 46.6097 Q1582.36 48.3111 1585.68 51.4303 Q1589.05 54.509 1589.05 60.0587 Q1589.05 66.3781 1584.02 70.0644 Q1579.04 73.7508 1570.29 73.7508 Q1566.64 73.7508 1562.67 73.0216 Q1558.74 72.3329 1554.37 70.9151 L1554.37 63.2184 Q1558.5 65.3654 1562.51 66.4591 Q1566.52 67.5124 1570.45 67.5124 Q1575.72 67.5124 1578.55 65.73 Q1581.39 63.9071 1581.39 60.6258 Q1581.39 57.5877 1579.32 55.9673 Q1577.3 54.3469 1570.37 52.8481 L1567.78 52.2405 Q1560.85 50.7821 1557.77 47.7845 Q1554.69 44.7463 1554.69 39.4801 Q1554.69 33.0797 1559.23 29.5959 Q1563.77 26.1121 1572.11 26.1121 Q1576.24 26.1121 1579.89 26.7198 Q1583.54 27.3274 1586.62 28.5427 Z" fill="#000000" fill-rule="nonzero" fill-opacity="1" /><path clip-path="url(#clip290)" d="M1638.63 45.1919 L1638.63 72.576 L1631.18 72.576 L1631.18 45.4349 Q1631.18 38.994 1628.66 35.7938 Q1626.15 32.5936 1621.13 32.5936 Q1615.09 32.5936 1611.61 36.4419 Q1608.13 40.2903 1608.13 46.9338 L1608.13 72.576 L1600.63 72.576 L1600.63 9.54393 L1608.13 9.54393 L1608.13 34.2544 Q1610.8 30.163 1614.4 28.1376 Q1618.05 26.1121 1622.79 26.1121 Q1630.61 26.1121 1634.62 30.9732 Q1638.63 35.7938 1638.63 45.1919 Z" fill="#000000" fill-rule="nonzero" fill-opacity="1" /><path clip-path="url(#clip290)" d="M1653.5 27.2059 L1660.95 27.2059 L1660.95 72.576 L1653.5 72.576 L1653.5 27.2059 M1653.5 9.54393 L1660.95 9.54393 L1660.95 18.9825 L1653.5 18.9825 L1653.5 9.54393 Z" fill="#000000" fill-rule="nonzero" fill-opacity="1" /><path clip-path="url(#clip290)" d="M1683.76 65.7705 L1683.76 89.8329 L1676.26 89.8329 L1676.26 27.2059 L1683.76 27.2059 L1683.76 34.0924 Q1686.11 30.0415 1689.67 28.0971 Q1693.28 26.1121 1698.26 26.1121 Q1706.52 26.1121 1711.67 32.6746 Q1716.85 39.2371 1716.85 49.9314 Q1716.85 60.6258 1711.67 67.1883 Q1706.52 73.7508 1698.26 73.7508 Q1693.28 73.7508 1689.67 71.8063 Q1686.11 69.8214 1683.76 65.7705 M1709.11 49.9314 Q1709.11 41.7081 1705.71 37.0496 Q1702.35 32.3505 1696.44 32.3505 Q1690.52 32.3505 1687.12 37.0496 Q1683.76 41.7081 1683.76 49.9314 Q1683.76 58.1548 1687.12 62.8538 Q1690.52 67.5124 1696.44 67.5124 Q1702.35 67.5124 1705.71 62.8538 Q1709.11 58.1548 1709.11 49.9314 Z" fill="#000000" fill-rule="nonzero" fill-opacity="1" /><path clip-path="url(#clip290)" d="M1788.23 28.9478 L1788.23 35.9153 Q1785.07 34.1734 1781.87 33.3227 Q1778.71 32.4315 1775.47 32.4315 Q1768.22 32.4315 1764.21 37.0496 Q1760.2 41.6271 1760.2 49.9314 Q1760.2 58.2358 1764.21 62.8538 Q1768.22 67.4314 1775.47 67.4314 Q1778.71 67.4314 1781.87 66.5807 Q1785.07 65.6895 1788.23 63.9476 L1788.23 70.8341 Q1785.11 72.2924 1781.75 73.0216 Q1778.43 73.7508 1774.66 73.7508 Q1764.41 73.7508 1758.37 67.3098 Q1752.34 60.8689 1752.34 49.9314 Q1752.34 38.832 1758.41 32.472 Q1764.53 26.1121 1775.14 26.1121 Q1778.59 26.1121 1781.87 26.8413 Q1785.15 27.5299 1788.23 28.9478 Z" fill="#000000" fill-rule="nonzero" fill-opacity="1" /><path clip-path="url(#clip290)" d="M1800.42 54.671 L1800.42 27.2059 L1807.88 27.2059 L1807.88 54.3874 Q1807.88 60.8284 1810.39 64.0691 Q1812.9 67.2693 1817.92 67.2693 Q1823.96 67.2693 1827.44 63.421 Q1830.97 59.5726 1830.97 52.9291 L1830.97 27.2059 L1838.42 27.2059 L1838.42 72.576 L1830.97 72.576 L1830.97 65.6084 Q1828.25 69.7404 1824.65 71.7658 Q1821.08 73.7508 1816.34 73.7508 Q1808.52 73.7508 1804.47 68.8897 Q1800.42 64.0286 1800.42 54.671 M1819.18 26.1121 L1819.18 26.1121 Z" fill="#000000" fill-rule="nonzero" fill-opacity="1" /><path clip-path="url(#clip290)" d="M1880.06 34.1734 Q1878.81 33.4443 1877.31 33.1202 Q1875.85 32.7556 1874.07 32.7556 Q1867.75 32.7556 1864.35 36.8875 Q1860.98 40.9789 1860.98 48.6757 L1860.98 72.576 L1853.49 72.576 L1853.49 27.2059 L1860.98 27.2059 L1860.98 34.2544 Q1863.33 30.1225 1867.1 28.1376 Q1870.87 26.1121 1876.25 26.1121 Q1877.02 26.1121 1877.96 26.2337 Q1878.89 26.3147 1880.02 26.5172 L1880.06 34.1734 Z" fill="#000000" fill-rule="nonzero" fill-opacity="1" /><path clip-path="url(#clip290)" d="M1882.53 27.2059 L1890.43 27.2059 L1904.61 65.2844 L1918.79 27.2059 L1926.69 27.2059 L1909.67 72.576 L1899.55 72.576 L1882.53 27.2059 Z" fill="#000000" fill-rule="nonzero" fill-opacity="1" /><path clip-path="url(#clip290)" d="M1975.79 48.0275 L1975.79 51.6733 L1941.51 51.6733 Q1942 59.3701 1946.13 63.421 Q1950.31 67.4314 1957.72 67.4314 Q1962.01 67.4314 1966.02 66.3781 Q1970.07 65.3249 1974.04 63.2184 L1974.04 70.267 Q1970.03 71.9684 1965.82 72.8596 Q1961.61 73.7508 1957.27 73.7508 Q1946.42 73.7508 1940.06 67.4314 Q1933.74 61.1119 1933.74 50.3365 Q1933.74 39.1965 1939.73 32.6746 Q1945.77 26.1121 1955.98 26.1121 Q1965.13 26.1121 1970.44 32.0264 Q1975.79 37.9003 1975.79 48.0275 M1968.33 45.84 Q1968.25 39.7232 1964.89 36.0774 Q1961.57 32.4315 1956.06 32.4315 Q1949.82 32.4315 1946.05 35.9558 Q1942.32 39.4801 1941.76 45.8805 L1968.33 45.84 Z" fill="#000000" fill-rule="nonzero" fill-opacity="1" /><path clip-path="url(#clip290)" d="M2016.94 28.5427 L2016.94 35.5912 Q2013.78 33.9709 2010.38 33.1607 Q2006.98 32.3505 2003.33 32.3505 Q1997.78 32.3505 1994.99 34.0519 Q1992.23 35.7533 1992.23 39.156 Q1992.23 41.7486 1994.22 43.2475 Q1996.2 44.7058 2002.2 46.0426 L2004.75 46.6097 Q2012.69 48.3111 2016.01 51.4303 Q2019.37 54.509 2019.37 60.0587 Q2019.37 66.3781 2014.35 70.0644 Q2009.37 73.7508 2000.62 73.7508 Q1996.97 73.7508 1993 73.0216 Q1989.07 72.3329 1984.7 70.9151 L1984.7 63.2184 Q1988.83 65.3654 1992.84 66.4591 Q1996.85 67.5124 2000.78 67.5124 Q2006.05 67.5124 2008.88 65.73 Q2011.72 63.9071 2011.72 60.6258 Q2011.72 57.5877 2009.65 55.9673 Q2007.63 54.3469 2000.7 52.8481 L1998.11 52.2405 Q1991.18 50.7821 1988.1 47.7845 Q1985.02 44.7463 1985.02 39.4801 Q1985.02 33.0797 1989.56 29.5959 Q1994.1 26.1121 2002.44 26.1121 Q2006.57 26.1121 2010.22 26.7198 Q2013.86 27.3274 2016.94 28.5427 Z" fill="#000000" fill-rule="nonzero" fill-opacity="1" /><polyline clip-path="url(#clip291)" style="stroke:#009af9; stroke-linecap:round; stroke-linejoin:round; stroke-width:8; stroke-opacity:1; fill:none" points="326.445,195.525 401.342,311.316 476.239,338.465 551.136,341.84 626.032,347.738 700.929,355.583 775.826,364.966 850.723,375.587 925.62,387.219 1000.52,399.687 1075.41,412.855 1150.31,426.611 1225.21,440.867 1300.1,455.55 1375,470.599 1449.9,485.964 1524.79,501.602 1599.69,517.478 1674.59,533.56 1749.48,549.822 1824.38,566.241 1899.28,582.799 1974.17,599.478 2049.07,616.264 2123.97,633.144 2198.86,650.106 2273.76,667.142 2348.66,684.241 2423.56,701.398 2498.45,718.605 2573.35,735.856 "/>
<polyline clip-path="url(#clip291)" style="stroke:#e26f46; stroke-linecap:round; stroke-linejoin:round; stroke-width:8; stroke-opacity:1; fill:none" points="326.445,195.525 499.284,280.859 672.123,340.442 844.962,400.024 1017.8,459.607 1190.64,519.19 1363.48,578.773 1536.32,638.355 1709.16,697.938 1881.99,757.521 2054.83,817.103 2227.67,876.686 2400.51,936.269 2573.35,995.852 "/>
<polyline clip-path="url(#clip291)" style="stroke:#3da44d; stroke-linecap:round; stroke-linejoin:round; stroke-width:8; stroke-opacity:1; fill:none" points="326.445,195.525 458.616,261.257 590.787,301.568 722.958,343.331 855.129,386.267 987.299,430.167 1119.47,474.863 1251.64,520.223 1383.81,566.141 1515.98,612.527 1648.15,659.309 1780.32,706.423 1912.49,753.817 2044.67,801.442 2176.84,849.26 2309.01,897.232 2441.18,945.327 2573.35,993.515 "/>
<path clip-path="url(#clip290)" d="M1927.32 388.696 L2561.37 388.696 L2561.37 181.336 L1927.32 181.336  Z" fill="#ffffff" fill-rule="evenodd" fill-opacity="1"/>
<polyline clip-path="url(#clip290)" style="stroke:#000000; stroke-linecap:round; stroke-linejoin:round; stroke-width:4; stroke-opacity:1; fill:none" points="1927.32,388.696 2561.37,388.696 2561.37,181.336 1927.32,181.336 1927.32,388.696 "/>
<polyline clip-path="url(#clip290)" style="stroke:#009af9; stroke-linecap:round; stroke-linejoin:round; stroke-width:8; stroke-opacity:1; fill:none" points="1953.78,233.176 2112.56,233.176 "/>
<path clip-path="url(#clip290)" d="M2139.02 215.896 L2168.26 215.896 L2168.26 219.831 L2155.99 219.831 L2155.99 250.456 L2151.29 250.456 L2151.29 219.831 L2139.02 219.831 L2139.02 215.896 Z" fill="#000000" fill-rule="nonzero" fill-opacity="1" /><path clip-path="url(#clip290)" d="M2175.99 252.864 Q2174.19 257.493 2172.47 258.905 Q2170.76 260.317 2167.89 260.317 L2164.49 260.317 L2164.49 256.753 L2166.99 256.753 Q2168.75 256.753 2169.72 255.919 Q2170.69 255.086 2171.87 251.984 L2172.64 250.04 L2162.15 224.531 L2166.66 224.531 L2174.76 244.808 L2182.87 224.531 L2187.38 224.531 L2175.99 252.864 Z" fill="#000000" fill-rule="nonzero" fill-opacity="1" /><path clip-path="url(#clip290)" d="M2197.38 246.567 L2197.38 260.317 L2193.1 260.317 L2193.1 224.531 L2197.38 224.531 L2197.38 228.466 Q2198.72 226.151 2200.76 225.04 Q2202.82 223.906 2205.67 223.906 Q2210.39 223.906 2213.33 227.655 Q2216.29 231.405 2216.29 237.517 Q2216.29 243.628 2213.33 247.378 Q2210.39 251.128 2205.67 251.128 Q2202.82 251.128 2200.76 250.016 Q2198.72 248.882 2197.38 246.567 M2211.87 237.517 Q2211.87 232.817 2209.93 230.155 Q2208.01 227.47 2204.63 227.47 Q2201.25 227.47 2199.3 230.155 Q2197.38 232.817 2197.38 237.517 Q2197.38 242.216 2199.3 244.901 Q2201.25 247.563 2204.63 247.563 Q2208.01 247.563 2209.93 244.901 Q2211.87 242.216 2211.87 237.517 Z" fill="#000000" fill-rule="nonzero" fill-opacity="1" /><path clip-path="url(#clip290)" d="M2245.53 236.429 L2245.53 238.512 L2225.95 238.512 Q2226.22 242.91 2228.58 245.225 Q2230.97 247.516 2235.2 247.516 Q2237.66 247.516 2239.95 246.915 Q2242.26 246.313 2244.53 245.109 L2244.53 249.137 Q2242.24 250.109 2239.83 250.618 Q2237.43 251.128 2234.95 251.128 Q2228.75 251.128 2225.11 247.516 Q2221.5 243.905 2221.5 237.748 Q2221.5 231.382 2224.93 227.655 Q2228.38 223.906 2234.21 223.906 Q2239.44 223.906 2242.47 227.285 Q2245.53 230.642 2245.53 236.429 M2241.27 235.179 Q2241.22 231.683 2239.3 229.6 Q2237.4 227.517 2234.26 227.517 Q2230.69 227.517 2228.54 229.53 Q2226.41 231.544 2226.08 235.202 L2241.27 235.179 Z" fill="#000000" fill-rule="nonzero" fill-opacity="1" /><path clip-path="url(#clip290)" d="M2267.77 215.896 L2272.45 215.896 L2272.45 250.456 L2267.77 250.456 L2267.77 215.896 Z" fill="#000000" fill-rule="nonzero" fill-opacity="1" /><path clip-path="url(#clip290)" d="M2306.87 214.484 Q2303.77 219.808 2302.26 225.017 Q2300.76 230.225 2300.76 235.572 Q2300.76 240.919 2302.26 246.174 Q2303.79 251.405 2306.87 256.706 L2303.17 256.706 Q2299.69 251.266 2297.96 246.012 Q2296.25 240.757 2296.25 235.572 Q2296.25 230.41 2297.96 225.179 Q2299.67 219.947 2303.17 214.484 L2306.87 214.484 Z" fill="#000000" fill-rule="nonzero" fill-opacity="1" /><path clip-path="url(#clip290)" d="M2335.32 229.507 Q2336.92 226.637 2339.14 225.271 Q2341.36 223.906 2344.37 223.906 Q2348.42 223.906 2350.62 226.753 Q2352.82 229.577 2352.82 234.808 L2352.82 250.456 L2348.54 250.456 L2348.54 234.947 Q2348.54 231.22 2347.22 229.415 Q2345.9 227.609 2343.19 227.609 Q2339.88 227.609 2337.96 229.808 Q2336.04 232.007 2336.04 235.804 L2336.04 250.456 L2331.75 250.456 L2331.75 234.947 Q2331.75 231.197 2330.44 229.415 Q2329.12 227.609 2326.36 227.609 Q2323.1 227.609 2321.18 229.831 Q2319.25 232.03 2319.25 235.804 L2319.25 250.456 L2314.97 250.456 L2314.97 224.531 L2319.25 224.531 L2319.25 228.558 Q2320.71 226.174 2322.75 225.04 Q2324.79 223.906 2327.59 223.906 Q2330.41 223.906 2332.38 225.341 Q2334.37 226.776 2335.32 229.507 Z" fill="#000000" fill-rule="nonzero" fill-opacity="1" /><path clip-path="url(#clip290)" d="M2373.1 237.424 Q2367.94 237.424 2365.94 238.604 Q2363.95 239.785 2363.95 242.632 Q2363.95 244.901 2365.44 246.243 Q2366.94 247.563 2369.51 247.563 Q2373.05 247.563 2375.18 245.063 Q2377.33 242.54 2377.33 238.373 L2377.33 237.424 L2373.1 237.424 M2381.59 235.665 L2381.59 250.456 L2377.33 250.456 L2377.33 246.521 Q2375.87 248.882 2373.7 250.016 Q2371.52 251.128 2368.37 251.128 Q2364.39 251.128 2362.03 248.905 Q2359.69 246.66 2359.69 242.91 Q2359.69 238.535 2362.61 236.313 Q2365.55 234.091 2371.36 234.091 L2377.33 234.091 L2377.33 233.674 Q2377.33 230.734 2375.39 229.137 Q2373.47 227.517 2369.97 227.517 Q2367.75 227.517 2365.64 228.049 Q2363.54 228.581 2361.59 229.646 L2361.59 225.711 Q2363.93 224.808 2366.13 224.368 Q2368.33 223.906 2370.41 223.906 Q2376.04 223.906 2378.81 226.822 Q2381.59 229.739 2381.59 235.665 Z" fill="#000000" fill-rule="nonzero" fill-opacity="1" /><path clip-path="url(#clip290)" d="M2410.55 229.507 Q2412.15 226.637 2414.37 225.271 Q2416.59 223.906 2419.6 223.906 Q2423.65 223.906 2425.85 226.753 Q2428.05 229.577 2428.05 234.808 L2428.05 250.456 L2423.77 250.456 L2423.77 234.947 Q2423.77 231.22 2422.45 229.415 Q2421.13 227.609 2418.42 227.609 Q2415.11 227.609 2413.19 229.808 Q2411.27 232.007 2411.27 235.804 L2411.27 250.456 L2406.99 250.456 L2406.99 234.947 Q2406.99 231.197 2405.67 229.415 Q2404.35 227.609 2401.59 227.609 Q2398.33 227.609 2396.41 229.831 Q2394.49 232.03 2394.49 235.804 L2394.49 250.456 L2390.2 250.456 L2390.2 224.531 L2394.49 224.531 L2394.49 228.558 Q2395.94 226.174 2397.98 225.04 Q2400.02 223.906 2402.82 223.906 Q2405.64 223.906 2407.61 225.341 Q2409.6 226.776 2410.55 229.507 Z" fill="#000000" fill-rule="nonzero" fill-opacity="1" /><path clip-path="url(#clip290)" d="M2456.73 229.507 Q2458.33 226.637 2460.55 225.271 Q2462.77 223.906 2465.78 223.906 Q2469.83 223.906 2472.03 226.753 Q2474.23 229.577 2474.23 234.808 L2474.23 250.456 L2469.95 250.456 L2469.95 234.947 Q2469.95 231.22 2468.63 229.415 Q2467.31 227.609 2464.6 227.609 Q2461.29 227.609 2459.37 229.808 Q2457.45 232.007 2457.45 235.804 L2457.45 250.456 L2453.17 250.456 L2453.17 234.947 Q2453.17 231.197 2451.85 229.415 Q2450.53 227.609 2447.77 227.609 Q2444.51 227.609 2442.59 229.831 Q2440.67 232.03 2440.67 235.804 L2440.67 250.456 L2436.38 250.456 L2436.38 224.531 L2440.67 224.531 L2440.67 228.558 Q2442.12 226.174 2444.16 225.04 Q2446.2 223.906 2449 223.906 Q2451.82 223.906 2453.79 225.341 Q2455.78 226.776 2456.73 229.507 Z" fill="#000000" fill-rule="nonzero" fill-opacity="1" /><path clip-path="url(#clip290)" d="M2494.51 237.424 Q2489.35 237.424 2487.36 238.604 Q2485.37 239.785 2485.37 242.632 Q2485.37 244.901 2486.85 246.243 Q2488.35 247.563 2490.92 247.563 Q2494.46 247.563 2496.59 245.063 Q2498.74 242.54 2498.74 238.373 L2498.74 237.424 L2494.51 237.424 M2503 235.665 L2503 250.456 L2498.74 250.456 L2498.74 246.521 Q2497.29 248.882 2495.11 250.016 Q2492.93 251.128 2489.79 251.128 Q2485.8 251.128 2483.44 248.905 Q2481.11 246.66 2481.11 242.91 Q2481.11 238.535 2484.02 236.313 Q2486.96 234.091 2492.77 234.091 L2498.74 234.091 L2498.74 233.674 Q2498.74 230.734 2496.8 229.137 Q2494.88 227.517 2491.38 227.517 Q2489.16 227.517 2487.05 228.049 Q2484.95 228.581 2483 229.646 L2483 225.711 Q2485.34 224.808 2487.54 224.368 Q2489.74 223.906 2491.82 223.906 Q2497.45 223.906 2500.23 226.822 Q2503 229.739 2503 235.665 Z" fill="#000000" fill-rule="nonzero" fill-opacity="1" /><path clip-path="url(#clip290)" d="M2511.78 214.438 L2516.04 214.438 L2516.04 250.456 L2511.78 250.456 L2511.78 214.438 Z" fill="#000000" fill-rule="nonzero" fill-opacity="1" /><path clip-path="url(#clip290)" d="M2524.28 214.484 L2527.98 214.484 Q2531.45 219.947 2533.17 225.179 Q2534.9 230.41 2534.9 235.572 Q2534.9 240.757 2533.17 246.012 Q2531.45 251.266 2527.98 256.706 L2524.28 256.706 Q2527.36 251.405 2528.86 246.174 Q2530.39 240.919 2530.39 235.572 Q2530.39 230.225 2528.86 225.017 Q2527.36 219.808 2524.28 214.484 Z" fill="#000000" fill-rule="nonzero" fill-opacity="1" /><polyline clip-path="url(#clip290)" style="stroke:#e26f46; stroke-linecap:round; stroke-linejoin:round; stroke-width:8; stroke-opacity:1; fill:none" points="1953.78,285.016 2112.56,285.016 "/>
<path clip-path="url(#clip290)" d="M2139.02 267.736 L2168.26 267.736 L2168.26 271.671 L2155.99 271.671 L2155.99 302.296 L2151.29 302.296 L2151.29 271.671 L2139.02 271.671 L2139.02 267.736 Z" fill="#000000" fill-rule="nonzero" fill-opacity="1" /><path clip-path="url(#clip290)" d="M2175.99 304.704 Q2174.19 309.333 2172.47 310.745 Q2170.76 312.157 2167.89 312.157 L2164.49 312.157 L2164.49 308.593 L2166.99 308.593 Q2168.75 308.593 2169.72 307.759 Q2170.69 306.926 2171.87 303.824 L2172.64 301.88 L2162.15 276.371 L2166.66 276.371 L2174.76 296.648 L2182.87 276.371 L2187.38 276.371 L2175.99 304.704 Z" fill="#000000" fill-rule="nonzero" fill-opacity="1" /><path clip-path="url(#clip290)" d="M2197.38 298.407 L2197.38 312.157 L2193.1 312.157 L2193.1 276.371 L2197.38 276.371 L2197.38 280.306 Q2198.72 277.991 2200.76 276.88 Q2202.82 275.746 2205.67 275.746 Q2210.39 275.746 2213.33 279.495 Q2216.29 283.245 2216.29 289.357 Q2216.29 295.468 2213.33 299.218 Q2210.39 302.968 2205.67 302.968 Q2202.82 302.968 2200.76 301.856 Q2198.72 300.722 2197.38 298.407 M2211.87 289.357 Q2211.87 284.657 2209.93 281.995 Q2208.01 279.31 2204.63 279.31 Q2201.25 279.31 2199.3 281.995 Q2197.38 284.657 2197.38 289.357 Q2197.38 294.056 2199.3 296.741 Q2201.25 299.403 2204.63 299.403 Q2208.01 299.403 2209.93 296.741 Q2211.87 294.056 2211.87 289.357 Z" fill="#000000" fill-rule="nonzero" fill-opacity="1" /><path clip-path="url(#clip290)" d="M2245.53 288.269 L2245.53 290.352 L2225.95 290.352 Q2226.22 294.75 2228.58 297.065 Q2230.97 299.356 2235.2 299.356 Q2237.66 299.356 2239.95 298.755 Q2242.26 298.153 2244.53 296.949 L2244.53 300.977 Q2242.24 301.949 2239.83 302.458 Q2237.43 302.968 2234.95 302.968 Q2228.75 302.968 2225.11 299.356 Q2221.5 295.745 2221.5 289.588 Q2221.5 283.222 2224.93 279.495 Q2228.38 275.746 2234.21 275.746 Q2239.44 275.746 2242.47 279.125 Q2245.53 282.482 2245.53 288.269 M2241.27 287.019 Q2241.22 283.523 2239.3 281.44 Q2237.4 279.357 2234.26 279.357 Q2230.69 279.357 2228.54 281.37 Q2226.41 283.384 2226.08 287.042 L2241.27 287.019 Z" fill="#000000" fill-rule="nonzero" fill-opacity="1" /><path clip-path="url(#clip290)" d="M2267.77 267.736 L2272.45 267.736 L2272.45 302.296 L2267.77 302.296 L2267.77 267.736 Z" fill="#000000" fill-rule="nonzero" fill-opacity="1" /><path clip-path="url(#clip290)" d="M2281.75 267.736 L2286.43 267.736 L2286.43 302.296 L2281.75 302.296 L2281.75 267.736 Z" fill="#000000" fill-rule="nonzero" fill-opacity="1" /><path clip-path="url(#clip290)" d="M2320.85 266.324 Q2317.75 271.648 2316.25 276.857 Q2314.74 282.065 2314.74 287.412 Q2314.74 292.759 2316.25 298.014 Q2317.77 303.245 2320.85 308.546 L2317.15 308.546 Q2313.68 303.106 2311.94 297.852 Q2310.23 292.597 2310.23 287.412 Q2310.23 282.25 2311.94 277.019 Q2313.65 271.787 2317.15 266.324 L2320.85 266.324 Z" fill="#000000" fill-rule="nonzero" fill-opacity="1" /><path clip-path="url(#clip290)" d="M2347.73 289.357 Q2347.73 284.657 2345.78 281.995 Q2343.86 279.31 2340.48 279.31 Q2337.1 279.31 2335.16 281.995 Q2333.24 284.657 2333.24 289.357 Q2333.24 294.056 2335.16 296.741 Q2337.1 299.403 2340.48 299.403 Q2343.86 299.403 2345.78 296.741 Q2347.73 294.056 2347.73 289.357 M2333.24 280.306 Q2334.58 277.991 2336.62 276.88 Q2338.68 275.746 2341.52 275.746 Q2346.25 275.746 2349.19 279.495 Q2352.15 283.245 2352.15 289.357 Q2352.15 295.468 2349.19 299.218 Q2346.25 302.968 2341.52 302.968 Q2338.68 302.968 2336.62 301.856 Q2334.58 300.722 2333.24 298.407 L2333.24 302.296 L2328.95 302.296 L2328.95 266.278 L2333.24 266.278 L2333.24 280.306 Z" fill="#000000" fill-rule="nonzero" fill-opacity="1" /><path clip-path="url(#clip290)" d="M2359.21 276.371 L2363.47 276.371 L2363.47 302.296 L2359.21 302.296 L2359.21 276.371 M2359.21 266.278 L2363.47 266.278 L2363.47 271.671 L2359.21 271.671 L2359.21 266.278 Z" fill="#000000" fill-rule="nonzero" fill-opacity="1" /><path clip-path="url(#clip290)" d="M2387.4 280.352 Q2386.68 279.935 2385.83 279.75 Q2385 279.542 2383.98 279.542 Q2380.37 279.542 2378.42 281.903 Q2376.5 284.241 2376.5 288.639 L2376.5 302.296 L2372.22 302.296 L2372.22 276.371 L2376.5 276.371 L2376.5 280.398 Q2377.84 278.037 2380 276.903 Q2382.15 275.746 2385.23 275.746 Q2385.67 275.746 2386.2 275.815 Q2386.73 275.861 2387.38 275.977 L2387.4 280.352 Z" fill="#000000" fill-rule="nonzero" fill-opacity="1" /><path clip-path="url(#clip290)" d="M2408.1 280.306 L2408.1 266.278 L2412.36 266.278 L2412.36 302.296 L2408.1 302.296 L2408.1 298.407 Q2406.75 300.722 2404.69 301.856 Q2402.66 302.968 2399.79 302.968 Q2395.09 302.968 2392.12 299.218 Q2389.18 295.468 2389.18 289.357 Q2389.18 283.245 2392.12 279.495 Q2395.09 275.746 2399.79 275.746 Q2402.66 275.746 2404.69 276.88 Q2406.75 277.991 2408.1 280.306 M2393.58 289.357 Q2393.58 294.056 2395.5 296.741 Q2397.45 299.403 2400.83 299.403 Q2404.21 299.403 2406.15 296.741 Q2408.1 294.056 2408.1 289.357 Q2408.1 284.657 2406.15 281.995 Q2404.21 279.31 2400.83 279.31 Q2397.45 279.31 2395.5 281.995 Q2393.58 284.657 2393.58 289.357 Z" fill="#000000" fill-rule="nonzero" fill-opacity="1" /><path clip-path="url(#clip290)" d="M2420.46 266.324 L2424.16 266.324 Q2427.63 271.787 2429.35 277.019 Q2431.08 282.25 2431.08 287.412 Q2431.08 292.597 2429.35 297.852 Q2427.63 303.106 2424.16 308.546 L2420.46 308.546 Q2423.54 303.245 2425.04 298.014 Q2426.57 292.759 2426.57 287.412 Q2426.57 282.065 2425.04 276.857 Q2423.54 271.648 2420.46 266.324 Z" fill="#000000" fill-rule="nonzero" fill-opacity="1" /><polyline clip-path="url(#clip290)" style="stroke:#3da44d; stroke-linecap:round; stroke-linejoin:round; stroke-width:8; stroke-opacity:1; fill:none" points="1953.78,336.856 2112.56,336.856 "/>
<path clip-path="url(#clip290)" d="M2139.02 319.576 L2168.26 319.576 L2168.26 323.511 L2155.99 323.511 L2155.99 354.136 L2151.29 354.136 L2151.29 323.511 L2139.02 323.511 L2139.02 319.576 Z" fill="#000000" fill-rule="nonzero" fill-opacity="1" /><path clip-path="url(#clip290)" d="M2175.99 356.544 Q2174.19 361.173 2172.47 362.585 Q2170.76 363.997 2167.89 363.997 L2164.49 363.997 L2164.49 360.433 L2166.99 360.433 Q2168.75 360.433 2169.72 359.599 Q2170.69 358.766 2171.87 355.664 L2172.64 353.72 L2162.15 328.211 L2166.66 328.211 L2174.76 348.488 L2182.87 328.211 L2187.38 328.211 L2175.99 356.544 Z" fill="#000000" fill-rule="nonzero" fill-opacity="1" /><path clip-path="url(#clip290)" d="M2197.38 350.247 L2197.38 363.997 L2193.1 363.997 L2193.1 328.211 L2197.38 328.211 L2197.38 332.146 Q2198.72 329.831 2200.76 328.72 Q2202.82 327.586 2205.67 327.586 Q2210.39 327.586 2213.33 331.335 Q2216.29 335.085 2216.29 341.197 Q2216.29 347.308 2213.33 351.058 Q2210.39 354.808 2205.67 354.808 Q2202.82 354.808 2200.76 353.696 Q2198.72 352.562 2197.38 350.247 M2211.87 341.197 Q2211.87 336.497 2209.93 333.835 Q2208.01 331.15 2204.63 331.15 Q2201.25 331.15 2199.3 333.835 Q2197.38 336.497 2197.38 341.197 Q2197.38 345.896 2199.3 348.581 Q2201.25 351.243 2204.63 351.243 Q2208.01 351.243 2209.93 348.581 Q2211.87 345.896 2211.87 341.197 Z" fill="#000000" fill-rule="nonzero" fill-opacity="1" /><path clip-path="url(#clip290)" d="M2245.53 340.109 L2245.53 342.192 L2225.95 342.192 Q2226.22 346.59 2228.58 348.905 Q2230.97 351.196 2235.2 351.196 Q2237.66 351.196 2239.95 350.595 Q2242.26 349.993 2244.53 348.789 L2244.53 352.817 Q2242.24 353.789 2239.83 354.298 Q2237.43 354.808 2234.95 354.808 Q2228.75 354.808 2225.11 351.196 Q2221.5 347.585 2221.5 341.428 Q2221.5 335.062 2224.93 331.335 Q2228.38 327.586 2234.21 327.586 Q2239.44 327.586 2242.47 330.965 Q2245.53 334.322 2245.53 340.109 M2241.27 338.859 Q2241.22 335.363 2239.3 333.28 Q2237.4 331.197 2234.26 331.197 Q2230.69 331.197 2228.54 333.21 Q2226.41 335.224 2226.08 338.882 L2241.27 338.859 Z" fill="#000000" fill-rule="nonzero" fill-opacity="1" /><path clip-path="url(#clip290)" d="M2267.77 319.576 L2272.45 319.576 L2272.45 354.136 L2267.77 354.136 L2267.77 319.576 Z" fill="#000000" fill-rule="nonzero" fill-opacity="1" /><path clip-path="url(#clip290)" d="M2281.75 319.576 L2286.43 319.576 L2286.43 354.136 L2281.75 354.136 L2281.75 319.576 Z" fill="#000000" fill-rule="nonzero" fill-opacity="1" /><path clip-path="url(#clip290)" d="M2295.74 319.576 L2300.41 319.576 L2300.41 354.136 L2295.74 354.136 L2295.74 319.576 Z" fill="#000000" fill-rule="nonzero" fill-opacity="1" /><path clip-path="url(#clip290)" d="M2334.83 318.164 Q2331.73 323.488 2330.23 328.697 Q2328.72 333.905 2328.72 339.252 Q2328.72 344.599 2330.23 349.854 Q2331.75 355.085 2334.83 360.386 L2331.13 360.386 Q2327.66 354.946 2325.92 349.692 Q2324.21 344.437 2324.21 339.252 Q2324.21 334.09 2325.92 328.859 Q2327.63 323.627 2331.13 318.164 L2334.83 318.164 Z" fill="#000000" fill-rule="nonzero" fill-opacity="1" /><path clip-path="url(#clip290)" d="M2347.31 320.849 L2347.31 328.211 L2356.08 328.211 L2356.08 331.521 L2347.31 331.521 L2347.31 345.595 Q2347.31 348.766 2348.17 349.669 Q2349.05 350.571 2351.71 350.571 L2356.08 350.571 L2356.08 354.136 L2351.71 354.136 Q2346.78 354.136 2344.9 352.308 Q2343.03 350.456 2343.03 345.595 L2343.03 331.521 L2339.9 331.521 L2339.9 328.211 L2343.03 328.211 L2343.03 320.849 L2347.31 320.849 Z" fill="#000000" fill-rule="nonzero" fill-opacity="1" /><path clip-path="url(#clip290)" d="M2361.25 343.905 L2361.25 328.211 L2365.5 328.211 L2365.5 343.743 Q2365.5 347.423 2366.94 349.275 Q2368.37 351.104 2371.25 351.104 Q2374.69 351.104 2376.69 348.905 Q2378.7 346.706 2378.7 342.909 L2378.7 328.211 L2382.96 328.211 L2382.96 354.136 L2378.7 354.136 L2378.7 350.155 Q2377.15 352.516 2375.09 353.673 Q2373.05 354.808 2370.34 354.808 Q2365.87 354.808 2363.56 352.03 Q2361.25 349.252 2361.25 343.905 M2371.96 327.586 L2371.96 327.586 Z" fill="#000000" fill-rule="nonzero" fill-opacity="1" /><path clip-path="url(#clip290)" d="M2406.75 332.192 Q2406.04 331.775 2405.18 331.59 Q2404.35 331.382 2403.33 331.382 Q2399.72 331.382 2397.77 333.743 Q2395.85 336.081 2395.85 340.479 L2395.85 354.136 L2391.57 354.136 L2391.57 328.211 L2395.85 328.211 L2395.85 332.238 Q2397.19 329.877 2399.35 328.743 Q2401.5 327.586 2404.58 327.586 Q2405.02 327.586 2405.55 327.655 Q2406.08 327.701 2406.73 327.817 L2406.75 332.192 Z" fill="#000000" fill-rule="nonzero" fill-opacity="1" /><path clip-path="url(#clip290)" d="M2415.43 320.849 L2415.43 328.211 L2424.21 328.211 L2424.21 331.521 L2415.43 331.521 L2415.43 345.595 Q2415.43 348.766 2416.29 349.669 Q2417.17 350.571 2419.83 350.571 L2424.21 350.571 L2424.21 354.136 L2419.83 354.136 Q2414.9 354.136 2413.03 352.308 Q2411.15 350.456 2411.15 345.595 L2411.15 331.521 L2408.03 331.521 L2408.03 328.211 L2411.15 328.211 L2411.15 320.849 L2415.43 320.849 Z" fill="#000000" fill-rule="nonzero" fill-opacity="1" /><path clip-path="url(#clip290)" d="M2429.81 318.118 L2434.07 318.118 L2434.07 354.136 L2429.81 354.136 L2429.81 318.118 Z" fill="#000000" fill-rule="nonzero" fill-opacity="1" /><path clip-path="url(#clip290)" d="M2465.16 340.109 L2465.16 342.192 L2445.57 342.192 Q2445.85 346.59 2448.21 348.905 Q2450.6 351.196 2454.83 351.196 Q2457.29 351.196 2459.58 350.595 Q2461.89 349.993 2464.16 348.789 L2464.16 352.817 Q2461.87 353.789 2459.46 354.298 Q2457.05 354.808 2454.58 354.808 Q2448.37 354.808 2444.74 351.196 Q2441.13 347.585 2441.13 341.428 Q2441.13 335.062 2444.56 331.335 Q2448 327.586 2453.84 327.586 Q2459.07 327.586 2462.1 330.965 Q2465.16 334.322 2465.16 340.109 M2460.9 338.859 Q2460.85 335.363 2458.93 333.28 Q2457.03 331.197 2453.88 331.197 Q2450.32 331.197 2448.17 333.21 Q2446.04 335.224 2445.71 338.882 L2460.9 338.859 Z" fill="#000000" fill-rule="nonzero" fill-opacity="1" /><path clip-path="url(#clip290)" d="M2471.48 318.164 L2475.18 318.164 Q2478.65 323.627 2480.37 328.859 Q2482.1 334.09 2482.1 339.252 Q2482.1 344.437 2480.37 349.692 Q2478.65 354.946 2475.18 360.386 L2471.48 360.386 Q2474.55 355.085 2476.06 349.854 Q2477.59 344.599 2477.59 339.252 Q2477.59 333.905 2476.06 328.697 Q2474.55 323.488 2471.48 318.164 Z" fill="#000000" fill-rule="nonzero" fill-opacity="1" /></svg>
