<?xml version="1.0" encoding="utf-8"?>
<svg xmlns="http://www.w3.org/2000/svg" xmlns:xlink="http://www.w3.org/1999/xlink" width="672" height="480" viewBox="0 0 2688 1920">
<defs>
  <clipPath id="clip200">
    <rect x="0" y="0" width="2688" height="1920"/>
  </clipPath>
</defs>
<path clip-path="url(#clip200)" d="M0 1920 L2688 1920 L2688 -4.26326e-14 L0 -4.26326e-14  Z" fill="#ffffff" fill-rule="evenodd" fill-opacity="1"/>
<defs>
  <clipPath id="clip201">
    <rect x="285" y="127" width="2356" height="1607"/>
  </clipPath>
</defs>
<path clip-path="url(#clip200)" d="M285.978 1734.12 L2640.76 1734.12 L2640.76 127.792 L285.978 127.792  Z" fill="#ffffff" fill-rule="evenodd" fill-opacity="1"/>
<polyline clip-path="url(#clip201)" style="stroke:#000000; stroke-linecap:round; stroke-linejoin:round; stroke-width:2; stroke-opacity:0.1; fill:none" points="352.623,1734.12 352.623,127.792 "/>
<polyline clip-path="url(#clip201)" style="stroke:#000000; stroke-linecap:round; stroke-linejoin:round; stroke-width:2; stroke-opacity:0.1; fill:none" points="1006,1734.12 1006,127.792 "/>
<polyline clip-path="url(#clip201)" style="stroke:#000000; stroke-linecap:round; stroke-linejoin:round; stroke-width:2; stroke-opacity:0.1; fill:none" points="1659.38,1734.12 1659.38,127.792 "/>
<polyline clip-path="url(#clip201)" style="stroke:#000000; stroke-linecap:round; stroke-linejoin:round; stroke-width:2; stroke-opacity:0.1; fill:none" points="2312.76,1734.12 2312.76,127.792 "/>
<polyline clip-path="url(#clip201)" style="stroke:#000000; stroke-linecap:round; stroke-linejoin:round; stroke-width:2; stroke-opacity:0.1; fill:none" points="285.978,1602.1 2640.76,1602.1 "/>
<polyline clip-path="url(#clip201)" style="stroke:#000000; stroke-linecap:round; stroke-linejoin:round; stroke-width:2; stroke-opacity:0.1; fill:none" points="285.978,1353.15 2640.76,1353.15 "/>
<polyline clip-path="url(#clip201)" style="stroke:#000000; stroke-linecap:round; stroke-linejoin:round; stroke-width:2; stroke-opacity:0.1; fill:none" points="285.978,1104.2 2640.76,1104.2 "/>
<polyline clip-path="url(#clip201)" style="stroke:#000000; stroke-linecap:round; stroke-linejoin:round; stroke-width:2; stroke-opacity:0.1; fill:none" points="285.978,855.247 2640.76,855.247 "/>
<polyline clip-path="url(#clip201)" style="stroke:#000000; stroke-linecap:round; stroke-linejoin:round; stroke-width:2; stroke-opacity:0.1; fill:none" points="285.978,606.298 2640.76,606.298 "/>
<polyline clip-path="url(#clip201)" style="stroke:#000000; stroke-linecap:round; stroke-linejoin:round; stroke-width:2; stroke-opacity:0.1; fill:none" points="285.978,357.349 2640.76,357.349 "/>
<polyline clip-path="url(#clip200)" style="stroke:#000000; stroke-linecap:round; stroke-linejoin:round; stroke-width:4; stroke-opacity:1; fill:none" points="285.978,1734.12 2640.76,1734.12 "/>
<polyline clip-path="url(#clip200)" style="stroke:#000000; stroke-linecap:round; stroke-linejoin:round; stroke-width:4; stroke-opacity:1; fill:none" points="352.623,1734.12 352.623,1715.22 "/>
<polyline clip-path="url(#clip200)" style="stroke:#000000; stroke-linecap:round; stroke-linejoin:round; stroke-width:4; stroke-opacity:1; fill:none" points="1006,1734.12 1006,1715.22 "/>
<polyline clip-path="url(#clip200)" style="stroke:#000000; stroke-linecap:round; stroke-linejoin:round; stroke-width:4; stroke-opacity:1; fill:none" points="1659.38,1734.12 1659.38,1715.22 "/>
<polyline clip-path="url(#clip200)" style="stroke:#000000; stroke-linecap:round; stroke-linejoin:round; stroke-width:4; stroke-opacity:1; fill:none" points="2312.76,1734.12 2312.76,1715.22 "/>
<path clip-path="url(#clip200)" d="M352.623 1767.34 Q349.012 1767.34 347.183 1770.9 Q345.378 1774.45 345.378 1781.58 Q345.378 1788.68 347.183 1792.25 Q349.012 1795.79 352.623 1795.79 Q356.257 1795.79 358.063 1792.25 Q359.891 1788.68 359.891 1781.58 Q359.891 1774.45 358.063 1770.9 Q356.257 1767.34 352.623 1767.34 M352.623 1763.64 Q358.433 1763.64 361.489 1768.24 Q364.567 1772.83 364.567 1781.58 Q364.567 1790.3 361.489 1794.91 Q358.433 1799.49 352.623 1799.49 Q346.813 1799.49 343.734 1794.91 Q340.678 1790.3 340.678 1781.58 Q340.678 1772.83 343.734 1768.24 Q346.813 1763.64 352.623 1763.64 Z" fill="#000000" fill-rule="nonzero" fill-opacity="1" /><path clip-path="url(#clip200)" d="M996.28 1764.26 L1014.64 1764.26 L1014.64 1768.2 L1000.56 1768.2 L1000.56 1776.67 Q1001.58 1776.32 1002.6 1776.16 Q1003.62 1775.97 1004.64 1775.97 Q1010.42 1775.97 1013.8 1779.15 Q1017.18 1782.32 1017.18 1787.73 Q1017.18 1793.31 1013.71 1796.41 Q1010.24 1799.49 1003.92 1799.49 Q1001.74 1799.49 999.474 1799.12 Q997.229 1798.75 994.821 1798.01 L994.821 1793.31 Q996.905 1794.45 999.127 1795 Q1001.35 1795.56 1003.83 1795.56 Q1007.83 1795.56 1010.17 1793.45 Q1012.51 1791.34 1012.51 1787.73 Q1012.51 1784.12 1010.17 1782.02 Q1007.83 1779.91 1003.83 1779.91 Q1001.95 1779.91 1000.08 1780.33 Q998.224 1780.74 996.28 1781.62 L996.28 1764.26 Z" fill="#000000" fill-rule="nonzero" fill-opacity="1" /><path clip-path="url(#clip200)" d="M1634.07 1794.89 L1641.71 1794.89 L1641.71 1768.52 L1633.4 1770.19 L1633.4 1765.93 L1641.66 1764.26 L1646.34 1764.26 L1646.34 1794.89 L1653.98 1794.89 L1653.98 1798.82 L1634.07 1798.82 L1634.07 1794.89 Z" fill="#000000" fill-rule="nonzero" fill-opacity="1" /><path clip-path="url(#clip200)" d="M1673.42 1767.34 Q1669.81 1767.34 1667.98 1770.9 Q1666.17 1774.45 1666.17 1781.58 Q1666.17 1788.68 1667.98 1792.25 Q1669.81 1795.79 1673.42 1795.79 Q1677.05 1795.79 1678.86 1792.25 Q1680.69 1788.68 1680.69 1781.58 Q1680.69 1774.45 1678.86 1770.9 Q1677.05 1767.34 1673.42 1767.34 M1673.42 1763.64 Q1679.23 1763.64 1682.29 1768.24 Q1685.36 1772.83 1685.36 1781.58 Q1685.36 1790.3 1682.29 1794.91 Q1679.23 1799.49 1673.42 1799.49 Q1667.61 1799.49 1664.53 1794.91 Q1661.48 1790.3 1661.48 1781.58 Q1661.48 1772.83 1664.53 1768.24 Q1667.61 1763.64 1673.42 1763.64 Z" fill="#000000" fill-rule="nonzero" fill-opacity="1" /><path clip-path="url(#clip200)" d="M2287.94 1794.89 L2295.58 1794.89 L2295.58 1768.52 L2287.27 1770.19 L2287.27 1765.93 L2295.54 1764.26 L2300.21 1764.26 L2300.21 1794.89 L2307.85 1794.89 L2307.85 1798.82 L2287.94 1798.82 L2287.94 1794.89 Z" fill="#000000" fill-rule="nonzero" fill-opacity="1" /><path clip-path="url(#clip200)" d="M2317.34 1764.26 L2335.7 1764.26 L2335.7 1768.2 L2321.63 1768.2 L2321.63 1776.67 Q2322.64 1776.32 2323.66 1776.16 Q2324.68 1775.97 2325.7 1775.97 Q2331.49 1775.97 2334.87 1779.15 Q2338.25 1782.32 2338.25 1787.73 Q2338.25 1793.31 2334.77 1796.41 Q2331.3 1799.49 2324.98 1799.49 Q2322.81 1799.49 2320.54 1799.12 Q2318.29 1798.75 2315.88 1798.01 L2315.88 1793.31 Q2317.97 1794.45 2320.19 1795 Q2322.41 1795.56 2324.89 1795.56 Q2328.89 1795.56 2331.23 1793.45 Q2333.57 1791.34 2333.57 1787.73 Q2333.57 1784.12 2331.23 1782.02 Q2328.89 1779.91 2324.89 1779.91 Q2323.01 1779.91 2321.14 1780.33 Q2319.29 1780.74 2317.34 1781.62 L2317.34 1764.26 Z" fill="#000000" fill-rule="nonzero" fill-opacity="1" /><path clip-path="url(#clip200)" d="M1299.67 1842.11 L1290.95 1865.76 L1308.43 1865.76 L1299.67 1842.11 M1296.04 1835.78 L1303.33 1835.78 L1321.44 1883.3 L1314.76 1883.3 L1310.43 1871.11 L1289.01 1871.11 L1284.68 1883.3 L1277.9 1883.3 L1296.04 1835.78 Z" fill="#000000" fill-rule="nonzero" fill-opacity="1" /><path clip-path="url(#clip200)" d="M1351.59 1865.06 Q1351.59 1858.7 1348.94 1855.2 Q1346.33 1851.7 1341.59 1851.7 Q1336.88 1851.7 1334.24 1855.2 Q1331.63 1858.7 1331.63 1865.06 Q1331.63 1871.4 1334.24 1874.9 Q1336.88 1878.4 1341.59 1878.4 Q1346.33 1878.4 1348.94 1874.9 Q1351.59 1871.4 1351.59 1865.06 M1357.44 1878.88 Q1357.44 1887.98 1353.4 1892.4 Q1349.36 1896.86 1341.02 1896.86 Q1337.93 1896.86 1335.19 1896.38 Q1332.46 1895.94 1329.88 1894.98 L1329.88 1889.28 Q1332.46 1890.69 1334.97 1891.35 Q1337.49 1892.02 1340.1 1892.02 Q1345.86 1892.02 1348.72 1889 Q1351.59 1886.01 1351.59 1879.93 L1351.59 1877.03 Q1349.77 1880.18 1346.94 1881.74 Q1344.11 1883.3 1340.16 1883.3 Q1333.6 1883.3 1329.59 1878.3 Q1325.58 1873.31 1325.58 1865.06 Q1325.58 1856.79 1329.59 1851.79 Q1333.6 1846.79 1340.16 1846.79 Q1344.11 1846.79 1346.94 1848.35 Q1349.77 1849.91 1351.59 1853.06 L1351.59 1847.65 L1357.44 1847.65 L1357.44 1878.88 Z" fill="#000000" fill-rule="nonzero" fill-opacity="1" /><path clip-path="url(#clip200)" d="M1400 1864.01 L1400 1866.88 L1373.07 1866.88 Q1373.45 1872.92 1376.7 1876.11 Q1379.98 1879.26 1385.8 1879.26 Q1389.17 1879.26 1392.33 1878.43 Q1395.51 1877.6 1398.63 1875.95 L1398.63 1881.49 Q1395.48 1882.82 1392.17 1883.52 Q1388.86 1884.22 1385.45 1884.22 Q1376.92 1884.22 1371.92 1879.26 Q1366.96 1874.29 1366.96 1865.83 Q1366.96 1857.07 1371.67 1851.95 Q1376.41 1846.79 1384.43 1846.79 Q1391.63 1846.79 1395.8 1851.44 Q1400 1856.06 1400 1864.01 M1394.14 1862.29 Q1394.08 1857.49 1391.43 1854.62 Q1388.82 1851.76 1384.5 1851.76 Q1379.59 1851.76 1376.63 1854.53 Q1373.71 1857.3 1373.26 1862.33 L1394.14 1862.29 Z" fill="#000000" fill-rule="nonzero" fill-opacity="1" /><path clip-path="url(#clip200)" d="M1444.4 1833.84 Q1440.13 1841.16 1438.06 1848.32 Q1435.99 1855.48 1435.99 1862.84 Q1435.99 1870.19 1438.06 1877.41 Q1440.16 1884.61 1444.4 1891.89 L1439.3 1891.89 Q1434.53 1884.41 1432.14 1877.19 Q1429.79 1869.96 1429.79 1862.84 Q1429.79 1855.74 1432.14 1848.54 Q1434.5 1841.35 1439.3 1833.84 L1444.4 1833.84 Z" fill="#000000" fill-rule="nonzero" fill-opacity="1" /><path clip-path="url(#clip200)" d="M1470.59 1886.61 Q1468.11 1892.98 1465.75 1894.92 Q1463.4 1896.86 1459.45 1896.86 L1454.77 1896.86 L1454.77 1891.96 L1458.21 1891.96 Q1460.63 1891.96 1461.97 1890.81 Q1463.3 1889.67 1464.93 1885.4 L1465.98 1882.73 L1451.56 1847.65 L1457.77 1847.65 L1468.91 1875.53 L1480.05 1847.65 L1486.25 1847.65 L1470.59 1886.61 Z" fill="#000000" fill-rule="nonzero" fill-opacity="1" /><path clip-path="url(#clip200)" d="M1524.83 1864.01 L1524.83 1866.88 L1497.9 1866.88 Q1498.28 1872.92 1501.53 1876.11 Q1504.81 1879.26 1510.63 1879.26 Q1514.01 1879.26 1517.16 1878.43 Q1520.34 1877.6 1523.46 1875.95 L1523.46 1881.49 Q1520.31 1882.82 1517 1883.52 Q1513.69 1884.22 1510.28 1884.22 Q1501.75 1884.22 1496.76 1879.26 Q1491.79 1874.29 1491.79 1865.83 Q1491.79 1857.07 1496.5 1851.95 Q1501.24 1846.79 1509.26 1846.79 Q1516.46 1846.79 1520.63 1851.44 Q1524.83 1856.06 1524.83 1864.01 M1518.97 1862.29 Q1518.91 1857.49 1516.27 1854.62 Q1513.66 1851.76 1509.33 1851.76 Q1504.43 1851.76 1501.47 1854.53 Q1498.54 1857.3 1498.09 1862.33 L1518.97 1862.29 Z" fill="#000000" fill-rule="nonzero" fill-opacity="1" /><path clip-path="url(#clip200)" d="M1550.64 1865.38 Q1543.54 1865.38 1540.81 1867 Q1538.07 1868.63 1538.07 1872.54 Q1538.07 1875.66 1540.11 1877.51 Q1542.17 1879.32 1545.71 1879.32 Q1550.58 1879.32 1553.51 1875.88 Q1556.47 1872.42 1556.47 1866.69 L1556.47 1865.38 L1550.64 1865.38 M1562.32 1862.96 L1562.32 1883.3 L1556.47 1883.3 L1556.47 1877.89 Q1554.46 1881.14 1551.47 1882.7 Q1548.48 1884.22 1544.15 1884.22 Q1538.67 1884.22 1535.43 1881.17 Q1532.21 1878.08 1532.21 1872.92 Q1532.21 1866.91 1536.22 1863.85 Q1540.26 1860.8 1548.25 1860.8 L1556.47 1860.8 L1556.47 1860.23 Q1556.47 1856.18 1553.79 1853.99 Q1551.15 1851.76 1546.34 1851.76 Q1543.29 1851.76 1540.39 1852.49 Q1537.5 1853.22 1534.82 1854.69 L1534.82 1849.28 Q1538.04 1848.03 1541.06 1847.43 Q1544.08 1846.79 1546.95 1846.79 Q1554.68 1846.79 1558.5 1850.8 Q1562.32 1854.81 1562.32 1862.96 Z" fill="#000000" fill-rule="nonzero" fill-opacity="1" /><path clip-path="url(#clip200)" d="M1595.04 1853.13 Q1594.06 1852.55 1592.88 1852.3 Q1591.73 1852.01 1590.33 1852.01 Q1585.37 1852.01 1582.69 1855.26 Q1580.05 1858.47 1580.05 1864.52 L1580.05 1883.3 L1574.16 1883.3 L1574.16 1847.65 L1580.05 1847.65 L1580.05 1853.19 Q1581.9 1849.94 1584.86 1848.39 Q1587.82 1846.79 1592.05 1846.79 Q1592.65 1846.79 1593.39 1846.89 Q1594.12 1846.95 1595.01 1847.11 L1595.04 1853.13 Z" fill="#000000" fill-rule="nonzero" fill-opacity="1" /><path clip-path="url(#clip200)" d="M1623.91 1848.7 L1623.91 1854.24 Q1621.43 1852.97 1618.75 1852.33 Q1616.08 1851.7 1613.22 1851.7 Q1608.86 1851.7 1606.66 1853.03 Q1604.49 1854.37 1604.49 1857.04 Q1604.49 1859.08 1606.05 1860.26 Q1607.61 1861.4 1612.32 1862.45 L1614.33 1862.9 Q1620.57 1864.24 1623.18 1866.69 Q1625.82 1869.11 1625.82 1873.47 Q1625.82 1878.43 1621.87 1881.33 Q1617.96 1884.22 1611.08 1884.22 Q1608.22 1884.22 1605.1 1883.65 Q1602.01 1883.11 1598.57 1882 L1598.57 1875.95 Q1601.82 1877.64 1604.97 1878.49 Q1608.12 1879.32 1611.21 1879.32 Q1615.35 1879.32 1617.58 1877.92 Q1619.8 1876.49 1619.8 1873.91 Q1619.8 1871.52 1618.18 1870.25 Q1616.59 1868.98 1611.15 1867.8 L1609.11 1867.32 Q1603.67 1866.18 1601.25 1863.82 Q1598.83 1861.43 1598.83 1857.3 Q1598.83 1852.27 1602.39 1849.53 Q1605.96 1846.79 1612.52 1846.79 Q1615.76 1846.79 1618.63 1847.27 Q1621.49 1847.75 1623.91 1848.7 Z" fill="#000000" fill-rule="nonzero" fill-opacity="1" /><path clip-path="url(#clip200)" d="M1634.22 1833.84 L1639.32 1833.84 Q1644.09 1841.35 1646.44 1848.54 Q1648.83 1855.74 1648.83 1862.84 Q1648.83 1869.96 1646.44 1877.19 Q1644.09 1884.41 1639.32 1891.89 L1634.22 1891.89 Q1638.46 1884.61 1640.52 1877.41 Q1642.63 1870.19 1642.63 1862.84 Q1642.63 1855.48 1640.52 1848.32 Q1638.46 1841.16 1634.22 1833.84 Z" fill="#000000" fill-rule="nonzero" fill-opacity="1" /><polyline clip-path="url(#clip200)" style="stroke:#000000; stroke-linecap:round; stroke-linejoin:round; stroke-width:4; stroke-opacity:1; fill:none" points="285.978,1734.12 285.978,127.792 "/>
<polyline clip-path="url(#clip200)" style="stroke:#000000; stroke-linecap:round; stroke-linejoin:round; stroke-width:4; stroke-opacity:1; fill:none" points="285.978,1602.1 304.876,1602.1 "/>
<polyline clip-path="url(#clip200)" style="stroke:#000000; stroke-linecap:round; stroke-linejoin:round; stroke-width:4; stroke-opacity:1; fill:none" points="285.978,1353.15 304.876,1353.15 "/>
<polyline clip-path="url(#clip200)" style="stroke:#000000; stroke-linecap:round; stroke-linejoin:round; stroke-width:4; stroke-opacity:1; fill:none" points="285.978,1104.2 304.876,1104.2 "/>
<polyline clip-path="url(#clip200)" style="stroke:#000000; stroke-linecap:round; stroke-linejoin:round; stroke-width:4; stroke-opacity:1; fill:none" points="285.978,855.247 304.876,855.247 "/>
<polyline clip-path="url(#clip200)" style="stroke:#000000; stroke-linecap:round; stroke-linejoin:round; stroke-width:4; stroke-opacity:1; fill:none" points="285.978,606.298 304.876,606.298 "/>
<polyline clip-path="url(#clip200)" style="stroke:#000000; stroke-linecap:round; stroke-linejoin:round; stroke-width:4; stroke-opacity:1; fill:none" points="285.978,357.349 304.876,357.349 "/>
<path clip-path="url(#clip200)" d="M128.159 1587.89 Q124.548 1587.89 122.719 1591.46 Q120.913 1595 120.913 1602.13 Q120.913 1609.24 122.719 1612.8 Q124.548 1616.34 128.159 1616.34 Q131.793 1616.34 133.599 1612.8 Q135.427 1609.24 135.427 1602.13 Q135.427 1595 133.599 1591.46 Q131.793 1587.89 128.159 1587.89 M128.159 1584.19 Q133.969 1584.19 137.025 1588.8 Q140.103 1593.38 140.103 1602.13 Q140.103 1610.86 137.025 1615.46 Q133.969 1620.05 128.159 1620.05 Q122.349 1620.05 119.27 1615.46 Q116.214 1610.86 116.214 1602.13 Q116.214 1593.38 119.27 1588.8 Q122.349 1584.19 128.159 1584.19 Z" fill="#000000" fill-rule="nonzero" fill-opacity="1" /><path clip-path="url(#clip200)" d="M148.321 1613.5 L153.205 1613.5 L153.205 1619.38 L148.321 1619.38 L148.321 1613.5 Z" fill="#000000" fill-rule="nonzero" fill-opacity="1" /><path clip-path="url(#clip200)" d="M167.418 1615.44 L183.737 1615.44 L183.737 1619.38 L161.793 1619.38 L161.793 1615.44 Q164.455 1612.69 169.038 1608.06 Q173.645 1603.4 174.825 1602.06 Q177.071 1599.54 177.95 1597.8 Q178.853 1596.04 178.853 1594.35 Q178.853 1591.6 176.909 1589.86 Q174.987 1588.13 171.885 1588.13 Q169.686 1588.13 167.233 1588.89 Q164.802 1589.65 162.024 1591.2 L162.024 1586.48 Q164.848 1585.35 167.302 1584.77 Q169.756 1584.19 171.793 1584.19 Q177.163 1584.19 180.358 1586.88 Q183.552 1589.56 183.552 1594.05 Q183.552 1596.18 182.742 1598.1 Q181.955 1600 179.848 1602.59 Q179.27 1603.26 176.168 1606.48 Q173.066 1609.68 167.418 1615.44 Z" fill="#000000" fill-rule="nonzero" fill-opacity="1" /><path clip-path="url(#clip200)" d="M193.598 1584.82 L211.955 1584.82 L211.955 1588.75 L197.881 1588.75 L197.881 1597.22 Q198.899 1596.88 199.918 1596.71 Q200.936 1596.53 201.955 1596.53 Q207.742 1596.53 211.121 1599.7 Q214.501 1602.87 214.501 1608.29 Q214.501 1613.87 211.029 1616.97 Q207.557 1620.05 201.237 1620.05 Q199.061 1620.05 196.793 1619.68 Q194.547 1619.31 192.14 1618.57 L192.14 1613.87 Q194.223 1615 196.445 1615.56 Q198.668 1616.11 201.145 1616.11 Q205.149 1616.11 207.487 1614.01 Q209.825 1611.9 209.825 1608.29 Q209.825 1604.68 207.487 1602.57 Q205.149 1600.46 201.145 1600.46 Q199.27 1600.46 197.395 1600.88 Q195.543 1601.3 193.598 1602.18 L193.598 1584.82 Z" fill="#000000" fill-rule="nonzero" fill-opacity="1" /><path clip-path="url(#clip200)" d="M233.714 1587.89 Q230.103 1587.89 228.274 1591.46 Q226.468 1595 226.468 1602.13 Q226.468 1609.24 228.274 1612.8 Q230.103 1616.34 233.714 1616.34 Q237.348 1616.34 239.154 1612.8 Q240.982 1609.24 240.982 1602.13 Q240.982 1595 239.154 1591.46 Q237.348 1587.89 233.714 1587.89 M233.714 1584.19 Q239.524 1584.19 242.58 1588.8 Q245.658 1593.38 245.658 1602.13 Q245.658 1610.86 242.58 1615.46 Q239.524 1620.05 233.714 1620.05 Q227.904 1620.05 224.825 1615.46 Q221.769 1610.86 221.769 1602.13 Q221.769 1593.38 224.825 1588.8 Q227.904 1584.19 233.714 1584.19 Z" fill="#000000" fill-rule="nonzero" fill-opacity="1" /><path clip-path="url(#clip200)" d="M129.154 1338.94 Q125.543 1338.94 123.714 1342.51 Q121.909 1346.05 121.909 1353.18 Q121.909 1360.29 123.714 1363.85 Q125.543 1367.39 129.154 1367.39 Q132.788 1367.39 134.594 1363.85 Q136.423 1360.29 136.423 1353.18 Q136.423 1346.05 134.594 1342.51 Q132.788 1338.94 129.154 1338.94 M129.154 1335.24 Q134.964 1335.24 138.02 1339.85 Q141.099 1344.43 141.099 1353.18 Q141.099 1361.91 138.02 1366.51 Q134.964 1371.1 129.154 1371.1 Q123.344 1371.1 120.265 1366.51 Q117.21 1361.91 117.21 1353.18 Q117.21 1344.43 120.265 1339.85 Q123.344 1335.24 129.154 1335.24 Z" fill="#000000" fill-rule="nonzero" fill-opacity="1" /><path clip-path="url(#clip200)" d="M149.316 1364.55 L154.2 1364.55 L154.2 1370.43 L149.316 1370.43 L149.316 1364.55 Z" fill="#000000" fill-rule="nonzero" fill-opacity="1" /><path clip-path="url(#clip200)" d="M168.413 1366.49 L184.733 1366.49 L184.733 1370.43 L162.788 1370.43 L162.788 1366.49 Q165.45 1363.74 170.034 1359.11 Q174.64 1354.45 175.821 1353.11 Q178.066 1350.59 178.946 1348.85 Q179.848 1347.09 179.848 1345.4 Q179.848 1342.65 177.904 1340.91 Q175.983 1339.18 172.881 1339.18 Q170.682 1339.18 168.228 1339.94 Q165.798 1340.7 163.02 1342.25 L163.02 1337.53 Q165.844 1336.4 168.297 1335.82 Q170.751 1335.24 172.788 1335.24 Q178.159 1335.24 181.353 1337.93 Q184.547 1340.61 184.547 1345.1 Q184.547 1347.23 183.737 1349.15 Q182.95 1351.05 180.844 1353.64 Q180.265 1354.32 177.163 1357.53 Q174.061 1360.73 168.413 1366.49 Z" fill="#000000" fill-rule="nonzero" fill-opacity="1" /><path clip-path="url(#clip200)" d="M193.367 1335.87 L215.589 1335.87 L215.589 1337.86 L203.043 1370.43 L198.158 1370.43 L209.964 1339.8 L193.367 1339.8 L193.367 1335.87 Z" fill="#000000" fill-rule="nonzero" fill-opacity="1" /><path clip-path="url(#clip200)" d="M224.756 1335.87 L243.112 1335.87 L243.112 1339.8 L229.038 1339.8 L229.038 1348.27 Q230.056 1347.93 231.075 1347.76 Q232.093 1347.58 233.112 1347.58 Q238.899 1347.58 242.279 1350.75 Q245.658 1353.92 245.658 1359.34 Q245.658 1364.92 242.186 1368.02 Q238.714 1371.1 232.394 1371.1 Q230.218 1371.1 227.95 1370.73 Q225.705 1370.36 223.297 1369.62 L223.297 1364.92 Q225.381 1366.05 227.603 1366.61 Q229.825 1367.16 232.302 1367.16 Q236.306 1367.16 238.644 1365.06 Q240.982 1362.95 240.982 1359.34 Q240.982 1355.73 238.644 1353.62 Q236.306 1351.51 232.302 1351.51 Q230.427 1351.51 228.552 1351.93 Q226.7 1352.35 224.756 1353.23 L224.756 1335.87 Z" fill="#000000" fill-rule="nonzero" fill-opacity="1" /><path clip-path="url(#clip200)" d="M128.159 1090 Q124.548 1090 122.719 1093.56 Q120.913 1097.1 120.913 1104.23 Q120.913 1111.34 122.719 1114.9 Q124.548 1118.44 128.159 1118.44 Q131.793 1118.44 133.599 1114.9 Q135.427 1111.34 135.427 1104.23 Q135.427 1097.1 133.599 1093.56 Q131.793 1090 128.159 1090 M128.159 1086.29 Q133.969 1086.29 137.025 1090.9 Q140.103 1095.48 140.103 1104.23 Q140.103 1112.96 137.025 1117.56 Q133.969 1122.15 128.159 1122.15 Q122.349 1122.15 119.27 1117.56 Q116.214 1112.96 116.214 1104.23 Q116.214 1095.48 119.27 1090.9 Q122.349 1086.29 128.159 1086.29 Z" fill="#000000" fill-rule="nonzero" fill-opacity="1" /><path clip-path="url(#clip200)" d="M148.321 1115.6 L153.205 1115.6 L153.205 1121.48 L148.321 1121.48 L148.321 1115.6 Z" fill="#000000" fill-rule="nonzero" fill-opacity="1" /><path clip-path="url(#clip200)" d="M177.557 1102.84 Q180.913 1103.56 182.788 1105.83 Q184.686 1108.1 184.686 1111.43 Q184.686 1116.55 181.168 1119.35 Q177.649 1122.15 171.168 1122.15 Q168.992 1122.15 166.677 1121.71 Q164.385 1121.29 161.932 1120.44 L161.932 1115.92 Q163.876 1117.06 166.191 1117.63 Q168.506 1118.21 171.029 1118.21 Q175.427 1118.21 177.719 1116.48 Q180.034 1114.74 180.034 1111.43 Q180.034 1108.37 177.881 1106.66 Q175.751 1104.93 171.932 1104.93 L167.904 1104.93 L167.904 1101.08 L172.117 1101.08 Q175.566 1101.08 177.395 1099.72 Q179.223 1098.33 179.223 1095.74 Q179.223 1093.07 177.325 1091.66 Q175.45 1090.23 171.932 1090.23 Q170.01 1090.23 167.811 1090.64 Q165.612 1091.06 162.973 1091.94 L162.973 1087.77 Q165.635 1087.03 167.95 1086.66 Q170.288 1086.29 172.348 1086.29 Q177.672 1086.29 180.774 1088.72 Q183.876 1091.13 183.876 1095.25 Q183.876 1098.12 182.233 1100.11 Q180.589 1102.08 177.557 1102.84 Z" fill="#000000" fill-rule="nonzero" fill-opacity="1" /><path clip-path="url(#clip200)" d="M203.552 1090 Q199.941 1090 198.112 1093.56 Q196.307 1097.1 196.307 1104.23 Q196.307 1111.34 198.112 1114.9 Q199.941 1118.44 203.552 1118.44 Q207.186 1118.44 208.992 1114.9 Q210.82 1111.34 210.82 1104.23 Q210.82 1097.1 208.992 1093.56 Q207.186 1090 203.552 1090 M203.552 1086.29 Q209.362 1086.29 212.418 1090.9 Q215.496 1095.48 215.496 1104.23 Q215.496 1112.96 212.418 1117.56 Q209.362 1122.15 203.552 1122.15 Q197.742 1122.15 194.663 1117.56 Q191.608 1112.96 191.608 1104.23 Q191.608 1095.48 194.663 1090.9 Q197.742 1086.29 203.552 1086.29 Z" fill="#000000" fill-rule="nonzero" fill-opacity="1" /><path clip-path="url(#clip200)" d="M233.714 1090 Q230.103 1090 228.274 1093.56 Q226.468 1097.1 226.468 1104.23 Q226.468 1111.34 228.274 1114.9 Q230.103 1118.44 233.714 1118.44 Q237.348 1118.44 239.154 1114.9 Q240.982 1111.34 240.982 1104.23 Q240.982 1097.1 239.154 1093.56 Q237.348 1090 233.714 1090 M233.714 1086.29 Q239.524 1086.29 242.58 1090.9 Q245.658 1095.48 245.658 1104.23 Q245.658 1112.96 242.58 1117.56 Q239.524 1122.15 233.714 1122.15 Q227.904 1122.15 224.825 1117.56 Q221.769 1112.96 221.769 1104.23 Q221.769 1095.48 224.825 1090.9 Q227.904 1086.29 233.714 1086.29 Z" fill="#000000" fill-rule="nonzero" fill-opacity="1" /><path clip-path="url(#clip200)" d="M129.154 841.046 Q125.543 841.046 123.714 844.611 Q121.909 848.152 121.909 855.282 Q121.909 862.388 123.714 865.953 Q125.543 869.495 129.154 869.495 Q132.788 869.495 134.594 865.953 Q136.423 862.388 136.423 855.282 Q136.423 848.152 134.594 844.611 Q132.788 841.046 129.154 841.046 M129.154 837.342 Q134.964 837.342 138.02 841.949 Q141.099 846.532 141.099 855.282 Q141.099 864.009 138.02 868.615 Q134.964 873.199 129.154 873.199 Q123.344 873.199 120.265 868.615 Q117.21 864.009 117.21 855.282 Q117.21 846.532 120.265 841.949 Q123.344 837.342 129.154 837.342 Z" fill="#000000" fill-rule="nonzero" fill-opacity="1" /><path clip-path="url(#clip200)" d="M149.316 866.648 L154.2 866.648 L154.2 872.527 L149.316 872.527 L149.316 866.648 Z" fill="#000000" fill-rule="nonzero" fill-opacity="1" /><path clip-path="url(#clip200)" d="M178.552 853.893 Q181.909 854.611 183.784 856.879 Q185.682 859.148 185.682 862.481 Q185.682 867.597 182.163 870.398 Q178.645 873.199 172.163 873.199 Q169.987 873.199 167.673 872.759 Q165.381 872.342 162.927 871.486 L162.927 866.972 Q164.872 868.106 167.186 868.685 Q169.501 869.263 172.024 869.263 Q176.422 869.263 178.714 867.527 Q181.029 865.791 181.029 862.481 Q181.029 859.426 178.876 857.713 Q176.747 855.976 172.927 855.976 L168.899 855.976 L168.899 852.134 L173.112 852.134 Q176.561 852.134 178.39 850.768 Q180.219 849.379 180.219 846.787 Q180.219 844.125 178.321 842.713 Q176.446 841.277 172.927 841.277 Q171.006 841.277 168.807 841.694 Q166.608 842.111 163.969 842.99 L163.969 838.824 Q166.631 838.083 168.946 837.713 Q171.284 837.342 173.344 837.342 Q178.668 837.342 181.77 839.773 Q184.871 842.18 184.871 846.301 Q184.871 849.171 183.228 851.162 Q181.584 853.129 178.552 853.893 Z" fill="#000000" fill-rule="nonzero" fill-opacity="1" /><path clip-path="url(#clip200)" d="M198.575 868.592 L214.894 868.592 L214.894 872.527 L192.95 872.527 L192.95 868.592 Q195.612 865.838 200.195 861.208 Q204.802 856.555 205.982 855.213 Q208.228 852.689 209.107 850.953 Q210.01 849.194 210.01 847.504 Q210.01 844.75 208.066 843.014 Q206.145 841.277 203.043 841.277 Q200.844 841.277 198.39 842.041 Q195.959 842.805 193.182 844.356 L193.182 839.634 Q196.006 838.5 198.459 837.921 Q200.913 837.342 202.95 837.342 Q208.32 837.342 211.515 840.027 Q214.709 842.713 214.709 847.203 Q214.709 849.333 213.899 851.254 Q213.112 853.152 211.006 855.745 Q210.427 856.416 207.325 859.634 Q204.223 862.828 198.575 868.592 Z" fill="#000000" fill-rule="nonzero" fill-opacity="1" /><path clip-path="url(#clip200)" d="M224.756 837.967 L243.112 837.967 L243.112 841.902 L229.038 841.902 L229.038 850.375 Q230.056 850.027 231.075 849.865 Q232.093 849.68 233.112 849.68 Q238.899 849.68 242.279 852.852 Q245.658 856.023 245.658 861.439 Q245.658 867.018 242.186 870.12 Q238.714 873.199 232.394 873.199 Q230.218 873.199 227.95 872.828 Q225.705 872.458 223.297 871.717 L223.297 867.018 Q225.381 868.152 227.603 868.708 Q229.825 869.263 232.302 869.263 Q236.306 869.263 238.644 867.157 Q240.982 865.051 240.982 861.439 Q240.982 857.828 238.644 855.722 Q236.306 853.615 232.302 853.615 Q230.427 853.615 228.552 854.032 Q226.7 854.449 224.756 855.328 L224.756 837.967 Z" fill="#000000" fill-rule="nonzero" fill-opacity="1" /><path clip-path="url(#clip200)" d="M128.159 592.097 Q124.548 592.097 122.719 595.661 Q120.913 599.203 120.913 606.333 Q120.913 613.439 122.719 617.004 Q124.548 620.546 128.159 620.546 Q131.793 620.546 133.599 617.004 Q135.427 613.439 135.427 606.333 Q135.427 599.203 133.599 595.661 Q131.793 592.097 128.159 592.097 M128.159 588.393 Q133.969 588.393 137.025 592.999 Q140.103 597.583 140.103 606.333 Q140.103 615.059 137.025 619.666 Q133.969 624.249 128.159 624.249 Q122.349 624.249 119.27 619.666 Q116.214 615.059 116.214 606.333 Q116.214 597.583 119.27 592.999 Q122.349 588.393 128.159 588.393 Z" fill="#000000" fill-rule="nonzero" fill-opacity="1" /><path clip-path="url(#clip200)" d="M148.321 617.698 L153.205 617.698 L153.205 623.578 L148.321 623.578 L148.321 617.698 Z" fill="#000000" fill-rule="nonzero" fill-opacity="1" /><path clip-path="url(#clip200)" d="M177.557 604.944 Q180.913 605.661 182.788 607.93 Q184.686 610.198 184.686 613.532 Q184.686 618.647 181.168 621.448 Q177.649 624.249 171.168 624.249 Q168.992 624.249 166.677 623.809 Q164.385 623.393 161.932 622.536 L161.932 618.022 Q163.876 619.157 166.191 619.735 Q168.506 620.314 171.029 620.314 Q175.427 620.314 177.719 618.578 Q180.034 616.842 180.034 613.532 Q180.034 610.476 177.881 608.763 Q175.751 607.027 171.932 607.027 L167.904 607.027 L167.904 603.185 L172.117 603.185 Q175.566 603.185 177.395 601.819 Q179.223 600.43 179.223 597.837 Q179.223 595.175 177.325 593.763 Q175.45 592.328 171.932 592.328 Q170.01 592.328 167.811 592.745 Q165.612 593.161 162.973 594.041 L162.973 589.874 Q165.635 589.134 167.95 588.763 Q170.288 588.393 172.348 588.393 Q177.672 588.393 180.774 590.823 Q183.876 593.231 183.876 597.351 Q183.876 600.222 182.233 602.212 Q180.589 604.18 177.557 604.944 Z" fill="#000000" fill-rule="nonzero" fill-opacity="1" /><path clip-path="url(#clip200)" d="M193.598 589.018 L211.955 589.018 L211.955 592.953 L197.881 592.953 L197.881 601.425 Q198.899 601.078 199.918 600.916 Q200.936 600.731 201.955 600.731 Q207.742 600.731 211.121 603.902 Q214.501 607.073 214.501 612.49 Q214.501 618.069 211.029 621.171 Q207.557 624.249 201.237 624.249 Q199.061 624.249 196.793 623.879 Q194.547 623.508 192.14 622.768 L192.14 618.069 Q194.223 619.203 196.445 619.759 Q198.668 620.314 201.145 620.314 Q205.149 620.314 207.487 618.208 Q209.825 616.101 209.825 612.49 Q209.825 608.879 207.487 606.772 Q205.149 604.666 201.145 604.666 Q199.27 604.666 197.395 605.083 Q195.543 605.499 193.598 606.379 L193.598 589.018 Z" fill="#000000" fill-rule="nonzero" fill-opacity="1" /><path clip-path="url(#clip200)" d="M233.714 592.097 Q230.103 592.097 228.274 595.661 Q226.468 599.203 226.468 606.333 Q226.468 613.439 228.274 617.004 Q230.103 620.546 233.714 620.546 Q237.348 620.546 239.154 617.004 Q240.982 613.439 240.982 606.333 Q240.982 599.203 239.154 595.661 Q237.348 592.097 233.714 592.097 M233.714 588.393 Q239.524 588.393 242.58 592.999 Q245.658 597.583 245.658 606.333 Q245.658 615.059 242.58 619.666 Q239.524 624.249 233.714 624.249 Q227.904 624.249 224.825 619.666 Q221.769 615.059 221.769 606.333 Q221.769 597.583 224.825 592.999 Q227.904 588.393 233.714 588.393 Z" fill="#000000" fill-rule="nonzero" fill-opacity="1" /><path clip-path="url(#clip200)" d="M129.154 343.147 Q125.543 343.147 123.714 346.712 Q121.909 350.254 121.909 357.383 Q121.909 364.49 123.714 368.055 Q125.543 371.596 129.154 371.596 Q132.788 371.596 134.594 368.055 Q136.423 364.49 136.423 357.383 Q136.423 350.254 134.594 346.712 Q132.788 343.147 129.154 343.147 M129.154 339.444 Q134.964 339.444 138.02 344.05 Q141.099 348.633 141.099 357.383 Q141.099 366.11 138.02 370.717 Q134.964 375.3 129.154 375.3 Q123.344 375.3 120.265 370.717 Q117.21 366.11 117.21 357.383 Q117.21 348.633 120.265 344.05 Q123.344 339.444 129.154 339.444 Z" fill="#000000" fill-rule="nonzero" fill-opacity="1" /><path clip-path="url(#clip200)" d="M149.316 368.749 L154.2 368.749 L154.2 374.629 L149.316 374.629 L149.316 368.749 Z" fill="#000000" fill-rule="nonzero" fill-opacity="1" /><path clip-path="url(#clip200)" d="M178.552 355.994 Q181.909 356.712 183.784 358.98 Q185.682 361.249 185.682 364.582 Q185.682 369.698 182.163 372.499 Q178.645 375.3 172.163 375.3 Q169.987 375.3 167.673 374.86 Q165.381 374.443 162.927 373.587 L162.927 369.073 Q164.872 370.207 167.186 370.786 Q169.501 371.365 172.024 371.365 Q176.422 371.365 178.714 369.629 Q181.029 367.892 181.029 364.582 Q181.029 361.527 178.876 359.814 Q176.747 358.078 172.927 358.078 L168.899 358.078 L168.899 354.235 L173.112 354.235 Q176.561 354.235 178.39 352.869 Q180.219 351.481 180.219 348.888 Q180.219 346.226 178.321 344.814 Q176.446 343.379 172.927 343.379 Q171.006 343.379 168.807 343.795 Q166.608 344.212 163.969 345.092 L163.969 340.925 Q166.631 340.184 168.946 339.814 Q171.284 339.444 173.344 339.444 Q178.668 339.444 181.77 341.874 Q184.871 344.281 184.871 348.402 Q184.871 351.272 183.228 353.263 Q181.584 355.231 178.552 355.994 Z" fill="#000000" fill-rule="nonzero" fill-opacity="1" /><path clip-path="url(#clip200)" d="M193.367 340.069 L215.589 340.069 L215.589 342.059 L203.043 374.629 L198.158 374.629 L209.964 344.004 L193.367 344.004 L193.367 340.069 Z" fill="#000000" fill-rule="nonzero" fill-opacity="1" /><path clip-path="url(#clip200)" d="M224.756 340.069 L243.112 340.069 L243.112 344.004 L229.038 344.004 L229.038 352.476 Q230.056 352.129 231.075 351.967 Q232.093 351.781 233.112 351.781 Q238.899 351.781 242.279 354.953 Q245.658 358.124 245.658 363.541 Q245.658 369.119 242.186 372.221 Q238.714 375.3 232.394 375.3 Q230.218 375.3 227.95 374.929 Q225.705 374.559 223.297 373.818 L223.297 369.119 Q225.381 370.254 227.603 370.809 Q229.825 371.365 232.302 371.365 Q236.306 371.365 238.644 369.258 Q240.982 367.152 240.982 363.541 Q240.982 359.93 238.644 357.823 Q236.306 355.717 232.302 355.717 Q230.427 355.717 228.552 356.133 Q226.7 356.55 224.756 357.43 L224.756 340.069 Z" fill="#000000" fill-rule="nonzero" fill-opacity="1" /><path clip-path="url(#clip200)" d="M14.1184 1192.33 L14.1184 1185.9 L33.5975 1185.9 L33.5975 1162.54 L14.1184 1162.54 L14.1184 1156.11 L61.6384 1156.11 L61.6384 1162.54 L39.0084 1162.54 L39.0084 1185.9 L61.6384 1185.9 L61.6384 1192.33 L14.1184 1192.33 Z" fill="#000000" fill-rule="nonzero" fill-opacity="1" /><path clip-path="url(#clip200)" d="M43.719 1127.37 Q43.719 1134.47 45.3422 1137.2 Q46.9655 1139.94 50.8804 1139.94 Q53.9996 1139.94 55.8457 1137.9 Q57.6599 1135.83 57.6599 1132.3 Q57.6599 1127.43 54.2224 1124.5 Q50.7531 1121.54 45.0239 1121.54 L43.719 1121.54 L43.719 1127.37 M41.3 1115.69 L61.6384 1115.69 L61.6384 1121.54 L56.2276 1121.54 Q59.4741 1123.55 61.0337 1126.54 Q62.5615 1129.53 62.5615 1133.86 Q62.5615 1139.34 59.5059 1142.58 Q56.4186 1145.8 51.2623 1145.8 Q45.2467 1145.8 42.1912 1141.79 Q39.1357 1137.74 39.1357 1129.76 L39.1357 1121.54 L38.5628 1121.54 Q34.5205 1121.54 32.3244 1124.22 Q30.0964 1126.86 30.0964 1131.67 Q30.0964 1134.72 30.8284 1137.62 Q31.5605 1140.51 33.0246 1143.19 L27.6137 1143.19 Q26.3724 1139.97 25.7677 1136.95 Q25.1311 1133.93 25.1311 1131.06 Q25.1311 1123.33 29.1415 1119.51 Q33.1519 1115.69 41.3 1115.69 Z" fill="#000000" fill-rule="nonzero" fill-opacity="1" /><path clip-path="url(#clip200)" d="M25.9905 1106.17 L25.9905 1078.35 L31.3377 1078.35 L56.9596 1100.38 L56.9596 1078.35 L61.6384 1078.35 L61.6384 1106.97 L56.2912 1106.97 L30.6693 1084.94 L30.6693 1106.17 L25.9905 1106.17 Z" fill="#000000" fill-rule="nonzero" fill-opacity="1" /><path clip-path="url(#clip200)" d="M43.719 1053.21 Q43.719 1060.31 45.3422 1063.04 Q46.9655 1065.78 50.8804 1065.78 Q53.9996 1065.78 55.8457 1063.74 Q57.6599 1061.67 57.6599 1058.14 Q57.6599 1053.27 54.2224 1050.34 Q50.7531 1047.38 45.0239 1047.38 L43.719 1047.38 L43.719 1053.21 M41.3 1041.53 L61.6384 1041.53 L61.6384 1047.38 L56.2276 1047.38 Q59.4741 1049.39 61.0337 1052.38 Q62.5615 1055.37 62.5615 1059.7 Q62.5615 1065.18 59.5059 1068.42 Q56.4186 1071.64 51.2623 1071.64 Q45.2467 1071.64 42.1912 1067.63 Q39.1357 1063.58 39.1357 1055.6 L39.1357 1047.38 L38.5628 1047.38 Q34.5205 1047.38 32.3244 1050.06 Q30.0964 1052.7 30.0964 1057.5 Q30.0964 1060.56 30.8284 1063.46 Q31.5605 1066.35 33.0246 1069.03 L27.6137 1069.03 Q26.3724 1065.81 25.7677 1062.79 Q25.1311 1059.76 25.1311 1056.9 Q25.1311 1049.17 29.1415 1045.35 Q33.1519 1041.53 41.3 1041.53 Z" fill="#000000" fill-rule="nonzero" fill-opacity="1" /><path clip-path="url(#clip200)" d="M31.465 1008.81 Q30.8921 1009.79 30.6375 1010.97 Q30.351 1012.12 30.351 1013.52 Q30.351 1018.48 33.5975 1021.16 Q36.8122 1023.8 42.8596 1023.8 L61.6384 1023.8 L61.6384 1029.69 L25.9905 1029.69 L25.9905 1023.8 L31.5287 1023.8 Q28.2821 1021.95 26.7225 1018.99 Q25.1311 1016.03 25.1311 1011.8 Q25.1311 1011.19 25.2266 1010.46 Q25.2903 1009.73 25.4494 1008.84 L31.465 1008.81 Z" fill="#000000" fill-rule="nonzero" fill-opacity="1" /><path clip-path="url(#clip200)" d="M31.4013 980.352 L12.1132 980.352 L12.1132 974.496 L61.6384 974.496 L61.6384 980.352 L56.2912 980.352 Q59.4741 982.198 61.0337 985.031 Q62.5615 987.832 62.5615 991.779 Q62.5615 998.24 57.4052 1002.31 Q52.249 1006.36 43.8463 1006.36 Q35.4436 1006.36 30.2873 1002.31 Q25.1311 998.24 25.1311 991.779 Q25.1311 987.832 26.6907 985.031 Q28.2185 982.198 31.4013 980.352 M43.8463 1000.31 Q50.3075 1000.31 53.9996 997.667 Q57.6599 994.994 57.6599 990.347 Q57.6599 985.7 53.9996 983.026 Q50.3075 980.352 43.8463 980.352 Q37.3851 980.352 33.7248 983.026 Q30.0327 985.7 30.0327 990.347 Q30.0327 994.994 33.7248 997.667 Q37.3851 1000.31 43.8463 1000.31 Z" fill="#000000" fill-rule="nonzero" fill-opacity="1" /><path clip-path="url(#clip200)" d="M31.465 921.056 Q30.8921 922.043 30.6375 923.22 Q30.351 924.366 30.351 925.767 Q30.351 930.732 33.5975 933.405 Q36.8122 936.047 42.8596 936.047 L61.6384 936.047 L61.6384 941.935 L25.9905 941.935 L25.9905 936.047 L31.5287 936.047 Q28.2821 934.201 26.7225 931.241 Q25.1311 928.281 25.1311 924.048 Q25.1311 923.443 25.2266 922.711 Q25.2903 921.979 25.4494 921.088 L31.465 921.056 Z" fill="#000000" fill-rule="nonzero" fill-opacity="1" /><path clip-path="url(#clip200)" d="M43.719 898.712 Q43.719 905.81 45.3422 908.547 Q46.9655 911.285 50.8804 911.285 Q53.9996 911.285 55.8457 909.247 Q57.6599 907.179 57.6599 903.646 Q57.6599 898.776 54.2224 895.848 Q50.7531 892.888 45.0239 892.888 L43.719 892.888 L43.719 898.712 M41.3 887.031 L61.6384 887.031 L61.6384 892.888 L56.2276 892.888 Q59.4741 894.893 61.0337 897.885 Q62.5615 900.877 62.5615 905.205 Q62.5615 910.68 59.5059 913.926 Q56.4186 917.141 51.2623 917.141 Q45.2467 917.141 42.1912 913.131 Q39.1357 909.088 39.1357 901.099 L39.1357 892.888 L38.5628 892.888 Q34.5205 892.888 32.3244 895.561 Q30.0964 898.203 30.0964 903.009 Q30.0964 906.065 30.8284 908.961 Q31.5605 911.857 33.0246 914.531 L27.6137 914.531 Q26.3724 911.316 25.7677 908.293 Q25.1311 905.269 25.1311 902.404 Q25.1311 894.67 29.1415 890.851 Q33.1519 887.031 41.3 887.031 Z" fill="#000000" fill-rule="nonzero" fill-opacity="1" /><path clip-path="url(#clip200)" d="M15.869 869.175 L25.9905 869.175 L25.9905 857.112 L30.542 857.112 L30.542 869.175 L49.8937 869.175 Q54.2542 869.175 55.4955 867.998 Q56.7368 866.788 56.7368 863.128 L56.7368 857.112 L61.6384 857.112 L61.6384 863.128 Q61.6384 869.907 59.124 872.486 Q56.5777 875.064 49.8937 875.064 L30.542 875.064 L30.542 879.361 L25.9905 879.361 L25.9905 875.064 L15.869 875.064 L15.869 869.175 Z" fill="#000000" fill-rule="nonzero" fill-opacity="1" /><path clip-path="url(#clip200)" d="M42.3504 818.918 L45.2149 818.918 L45.2149 845.845 Q51.2623 845.463 54.4452 842.217 Q57.5962 838.938 57.5962 833.114 Q57.5962 829.74 56.7687 826.589 Q55.9411 823.406 54.2861 820.287 L59.8242 820.287 Q61.161 823.438 61.8612 826.748 Q62.5615 830.058 62.5615 833.464 Q62.5615 841.994 57.5962 846.991 Q52.631 851.956 44.1646 851.956 Q35.4117 851.956 30.2873 847.246 Q25.1311 842.503 25.1311 834.482 Q25.1311 827.289 29.7781 823.119 Q34.3932 818.918 42.3504 818.918 M40.6316 824.775 Q35.8255 824.838 32.9609 827.48 Q30.0964 830.09 30.0964 834.419 Q30.0964 839.32 32.8654 842.28 Q35.6345 845.208 40.6634 845.654 L40.6316 824.775 Z" fill="#000000" fill-rule="nonzero" fill-opacity="1" /><path clip-path="url(#clip200)" d="M40.1224 758.953 L61.6384 758.953 L61.6384 764.81 L40.3133 764.81 Q35.2526 764.81 32.7381 766.783 Q30.2237 768.756 30.2237 772.703 Q30.2237 777.446 33.2474 780.183 Q36.2711 782.92 41.491 782.92 L61.6384 782.92 L61.6384 788.808 L12.1132 788.808 L12.1132 782.92 L31.5287 782.92 Q28.314 780.819 26.7225 777.987 Q25.1311 775.122 25.1311 771.398 Q25.1311 765.255 28.9505 762.104 Q32.7381 758.953 40.1224 758.953 Z" fill="#000000" fill-rule="nonzero" fill-opacity="1" /><path clip-path="url(#clip200)" d="M12.1769 733.204 Q19.4975 737.469 26.6589 739.538 Q33.8203 741.607 41.1727 741.607 Q48.5251 741.607 55.7502 739.538 Q62.9434 737.437 70.2321 733.204 L70.2321 738.296 Q62.7524 743.071 55.5274 745.458 Q48.3023 747.813 41.1727 747.813 Q34.0749 747.813 26.8817 745.458 Q19.6884 743.103 12.1769 738.296 L12.1769 733.204 Z" fill="#000000" fill-rule="nonzero" fill-opacity="1" /><path clip-path="url(#clip200)" d="M25.9905 692.209 L43.337 705.099 L61.6384 691.54 L61.6384 698.447 L47.6339 708.823 L61.6384 719.199 L61.6384 726.106 L42.9869 712.261 L25.9905 724.928 L25.9905 718.022 L38.6901 708.569 L25.9905 699.116 L25.9905 692.209 Z" fill="#000000" fill-rule="nonzero" fill-opacity="1" /><path clip-path="url(#clip200)" d="M12.1769 684.188 L12.1769 679.095 Q19.6884 674.321 26.8817 671.966 Q34.0749 669.579 41.1727 669.579 Q48.3023 669.579 55.5274 671.966 Q62.7524 674.321 70.2321 679.095 L70.2321 684.188 Q62.9434 679.955 55.7502 677.886 Q48.5251 675.785 41.1727 675.785 Q33.8203 675.785 26.6589 677.886 Q19.4975 679.955 12.1769 684.188 Z" fill="#000000" fill-rule="nonzero" fill-opacity="1" /><path clip-path="url(#clip200)" d="M859.904 12.096 L872.097 12.096 L887.531 53.2532 L903.046 12.096 L915.239 12.096 L915.239 72.576 L907.259 72.576 L907.259 19.4686 L891.663 60.9499 L883.44 60.9499 L867.844 19.4686 L867.844 72.576 L859.904 72.576 L859.904 12.096 Z" fill="#000000" fill-rule="nonzero" fill-opacity="1" /><path clip-path="url(#clip200)" d="M948.74 32.4315 Q942.745 32.4315 939.261 37.1306 Q935.777 41.7891 935.777 49.9314 Q935.777 58.0738 939.221 62.7728 Q942.704 67.4314 948.74 67.4314 Q954.695 67.4314 958.179 62.7323 Q961.663 58.0333 961.663 49.9314 Q961.663 41.8701 958.179 37.1711 Q954.695 32.4315 948.74 32.4315 M948.74 26.1121 Q958.462 26.1121 964.012 32.4315 Q969.562 38.7509 969.562 49.9314 Q969.562 61.0714 964.012 67.4314 Q958.462 73.7508 948.74 73.7508 Q938.977 73.7508 933.428 67.4314 Q927.919 61.0714 927.919 49.9314 Q927.919 38.7509 933.428 32.4315 Q938.977 26.1121 948.74 26.1121 Z" fill="#000000" fill-rule="nonzero" fill-opacity="1" /><path clip-path="url(#clip200)" d="M1008.21 34.1734 Q1006.95 33.4443 1005.45 33.1202 Q1003.99 32.7556 1002.21 32.7556 Q995.893 32.7556 992.49 36.8875 Q989.128 40.9789 989.128 48.6757 L989.128 72.576 L981.634 72.576 L981.634 27.2059 L989.128 27.2059 L989.128 34.2544 Q991.477 30.1225 995.245 28.1376 Q999.012 26.1121 1004.4 26.1121 Q1005.17 26.1121 1006.1 26.2337 Q1007.03 26.3147 1008.17 26.5172 L1008.21 34.1734 Z" fill="#000000" fill-rule="nonzero" fill-opacity="1" /><path clip-path="url(#clip200)" d="M1023.4 14.324 L1023.4 27.2059 L1038.75 27.2059 L1038.75 32.9987 L1023.4 32.9987 L1023.4 57.6282 Q1023.4 63.1779 1024.9 64.7578 Q1026.44 66.3376 1031.1 66.3376 L1038.75 66.3376 L1038.75 72.576 L1031.1 72.576 Q1022.47 72.576 1019.19 69.3758 Q1015.9 66.1351 1015.9 57.6282 L1015.9 32.9987 L1010.44 32.9987 L1010.44 27.2059 L1015.9 27.2059 L1015.9 14.324 L1023.4 14.324 Z" fill="#000000" fill-rule="nonzero" fill-opacity="1" /><path clip-path="url(#clip200)" d="M1069.17 49.7694 Q1060.14 49.7694 1056.66 51.8354 Q1053.17 53.9013 1053.17 58.8839 Q1053.17 62.8538 1055.77 65.2034 Q1058.4 67.5124 1062.89 67.5124 Q1069.09 67.5124 1072.82 63.1374 Q1076.59 58.7219 1076.59 51.4303 L1076.59 49.7694 L1069.17 49.7694 M1084.04 46.6907 L1084.04 72.576 L1076.59 72.576 L1076.59 65.6895 Q1074.03 69.8214 1070.23 71.8063 Q1066.42 73.7508 1060.91 73.7508 Q1053.94 73.7508 1049.81 69.8619 Q1045.72 65.9325 1045.72 59.3701 Q1045.72 51.7138 1050.82 47.825 Q1055.97 43.9361 1066.14 43.9361 L1076.59 43.9361 L1076.59 43.2069 Q1076.59 38.0623 1073.18 35.2672 Q1069.82 32.4315 1063.7 32.4315 Q1059.82 32.4315 1056.13 33.3632 Q1052.44 34.295 1049.04 36.1584 L1049.04 29.2718 Q1053.13 27.692 1056.98 26.9223 Q1060.83 26.1121 1064.47 26.1121 Q1074.32 26.1121 1079.18 31.2163 Q1084.04 36.3204 1084.04 46.6907 Z" fill="#000000" fill-rule="nonzero" fill-opacity="1" /><path clip-path="url(#clip200)" d="M1099.39 9.54393 L1106.85 9.54393 L1106.85 72.576 L1099.39 72.576 L1099.39 9.54393 Z" fill="#000000" fill-rule="nonzero" fill-opacity="1" /><path clip-path="url(#clip200)" d="M1122.44 27.2059 L1129.9 27.2059 L1129.9 72.576 L1122.44 72.576 L1122.44 27.2059 M1122.44 9.54393 L1129.9 9.54393 L1129.9 18.9825 L1122.44 18.9825 L1122.44 9.54393 Z" fill="#000000" fill-rule="nonzero" fill-opacity="1" /><path clip-path="url(#clip200)" d="M1152.87 14.324 L1152.87 27.2059 L1168.22 27.2059 L1168.22 32.9987 L1152.87 32.9987 L1152.87 57.6282 Q1152.87 63.1779 1154.36 64.7578 Q1155.9 66.3376 1160.56 66.3376 L1168.22 66.3376 L1168.22 72.576 L1160.56 72.576 Q1151.93 72.576 1148.65 69.3758 Q1145.37 66.1351 1145.37 57.6282 L1145.37 32.9987 L1139.9 32.9987 L1139.9 27.2059 L1145.37 27.2059 L1145.37 14.324 L1152.87 14.324 Z" fill="#000000" fill-rule="nonzero" fill-opacity="1" /><path clip-path="url(#clip200)" d="M1196.9 76.7889 Q1193.74 84.8907 1190.74 87.3618 Q1187.74 89.8329 1182.72 89.8329 L1176.77 89.8329 L1176.77 83.5945 L1181.14 83.5945 Q1184.22 83.5945 1185.92 82.1361 Q1187.62 80.6778 1189.69 75.2496 L1191.02 71.8468 L1172.67 27.2059 L1180.57 27.2059 L1194.75 62.6918 L1208.93 27.2059 L1216.83 27.2059 L1196.9 76.7889 Z" fill="#000000" fill-rule="nonzero" fill-opacity="1" /><path clip-path="url(#clip200)" d="M1291.2 45.1919 L1291.2 72.576 L1283.75 72.576 L1283.75 45.4349 Q1283.75 38.994 1281.24 35.7938 Q1278.73 32.5936 1273.7 32.5936 Q1267.67 32.5936 1264.18 36.4419 Q1260.7 40.2903 1260.7 46.9338 L1260.7 72.576 L1253.21 72.576 L1253.21 9.54393 L1260.7 9.54393 L1260.7 34.2544 Q1263.37 30.163 1266.98 28.1376 Q1270.63 26.1121 1275.36 26.1121 Q1283.18 26.1121 1287.19 30.9732 Q1291.2 35.7938 1291.2 45.1919 Z" fill="#000000" fill-rule="nonzero" fill-opacity="1" /><path clip-path="url(#clip200)" d="M1326.69 49.7694 Q1317.66 49.7694 1314.17 51.8354 Q1310.69 53.9013 1310.69 58.8839 Q1310.69 62.8538 1313.28 65.2034 Q1315.91 67.5124 1320.41 67.5124 Q1326.61 67.5124 1330.34 63.1374 Q1334.1 58.7219 1334.1 51.4303 L1334.1 49.7694 L1326.69 49.7694 M1341.56 46.6907 L1341.56 72.576 L1334.1 72.576 L1334.1 65.6895 Q1331.55 69.8214 1327.74 71.8063 Q1323.93 73.7508 1318.43 73.7508 Q1311.46 73.7508 1307.33 69.8619 Q1303.23 65.9325 1303.23 59.3701 Q1303.23 51.7138 1308.34 47.825 Q1313.48 43.9361 1323.65 43.9361 L1334.1 43.9361 L1334.1 43.2069 Q1334.1 38.0623 1330.7 35.2672 Q1327.34 32.4315 1321.22 32.4315 Q1317.33 32.4315 1313.65 33.3632 Q1309.96 34.295 1306.56 36.1584 L1306.56 29.2718 Q1310.65 27.692 1314.5 26.9223 Q1318.34 26.1121 1321.99 26.1121 Q1331.83 26.1121 1336.7 31.2163 Q1341.56 36.3204 1341.56 46.6907 Z" fill="#000000" fill-rule="nonzero" fill-opacity="1" /><path clip-path="url(#clip200)" d="M1353.67 27.2059 L1389.07 27.2059 L1389.07 34.0114 L1361.04 66.6212 L1389.07 66.6212 L1389.07 72.576 L1352.66 72.576 L1352.66 65.7705 L1380.69 33.1607 L1353.67 33.1607 L1353.67 27.2059 Z" fill="#000000" fill-rule="nonzero" fill-opacity="1" /><path clip-path="url(#clip200)" d="M1421.08 49.7694 Q1412.04 49.7694 1408.56 51.8354 Q1405.07 53.9013 1405.07 58.8839 Q1405.07 62.8538 1407.67 65.2034 Q1410.3 67.5124 1414.8 67.5124 Q1420.99 67.5124 1424.72 63.1374 Q1428.49 58.7219 1428.49 51.4303 L1428.49 49.7694 L1421.08 49.7694 M1435.94 46.6907 L1435.94 72.576 L1428.49 72.576 L1428.49 65.6895 Q1425.94 69.8214 1422.13 71.8063 Q1418.32 73.7508 1412.81 73.7508 Q1405.84 73.7508 1401.71 69.8619 Q1397.62 65.9325 1397.62 59.3701 Q1397.62 51.7138 1402.73 47.825 Q1407.87 43.9361 1418.04 43.9361 L1428.49 43.9361 L1428.49 43.2069 Q1428.49 38.0623 1425.09 35.2672 Q1421.72 32.4315 1415.61 32.4315 Q1411.72 32.4315 1408.03 33.3632 Q1404.35 34.295 1400.94 36.1584 L1400.94 29.2718 Q1405.03 27.692 1408.88 26.9223 Q1412.73 26.1121 1416.38 26.1121 Q1426.22 26.1121 1431.08 31.2163 Q1435.94 36.3204 1435.94 46.6907 Z" fill="#000000" fill-rule="nonzero" fill-opacity="1" /><path clip-path="url(#clip200)" d="M1477.59 34.1734 Q1476.33 33.4443 1474.83 33.1202 Q1473.37 32.7556 1471.59 32.7556 Q1465.27 32.7556 1461.87 36.8875 Q1458.51 40.9789 1458.51 48.6757 L1458.51 72.576 L1451.01 72.576 L1451.01 27.2059 L1458.51 27.2059 L1458.51 34.2544 Q1460.86 30.1225 1464.62 28.1376 Q1468.39 26.1121 1473.78 26.1121 Q1474.55 26.1121 1475.48 26.2337 Q1476.41 26.3147 1477.55 26.5172 L1477.59 34.1734 Z" fill="#000000" fill-rule="nonzero" fill-opacity="1" /><path clip-path="url(#clip200)" d="M1513.8 34.0924 L1513.8 9.54393 L1521.25 9.54393 L1521.25 72.576 L1513.8 72.576 L1513.8 65.7705 Q1511.45 69.8214 1507.85 71.8063 Q1504.28 73.7508 1499.26 73.7508 Q1491.03 73.7508 1485.85 67.1883 Q1480.7 60.6258 1480.7 49.9314 Q1480.7 39.2371 1485.85 32.6746 Q1491.03 26.1121 1499.26 26.1121 Q1504.28 26.1121 1507.85 28.0971 Q1511.45 30.0415 1513.8 34.0924 M1488.4 49.9314 Q1488.4 58.1548 1491.76 62.8538 Q1495.17 67.5124 1501.08 67.5124 Q1507 67.5124 1510.4 62.8538 Q1513.8 58.1548 1513.8 49.9314 Q1513.8 41.7081 1510.4 37.0496 Q1507 32.3505 1501.08 32.3505 Q1495.17 32.3505 1491.76 37.0496 Q1488.4 41.7081 1488.4 49.9314 Z" fill="#000000" fill-rule="nonzero" fill-opacity="1" /><path clip-path="url(#clip200)" d="M1559.21 46.9338 L1634.07 46.9338 L1634.07 52.7671 L1559.21 52.7671 L1559.21 46.9338 Z" fill="#000000" fill-rule="nonzero" fill-opacity="1" /><path clip-path="url(#clip200)" d="M1708.89 14.0809 L1708.89 22.0612 Q1704.23 19.8332 1700.1 18.7395 Q1695.97 17.6457 1692.12 17.6457 Q1685.44 17.6457 1681.79 20.2383 Q1678.19 22.8309 1678.19 27.611 Q1678.19 31.6214 1680.58 33.6873 Q1683.01 35.7128 1689.73 36.9686 L1694.67 37.9813 Q1703.83 39.7232 1708.16 44.1387 Q1712.54 48.5136 1712.54 55.8863 Q1712.54 64.6767 1706.62 69.2137 Q1700.75 73.7508 1689.37 73.7508 Q1685.07 73.7508 1680.21 72.7785 Q1675.39 71.8063 1670.21 69.9024 L1670.21 61.4765 Q1675.19 64.2716 1679.97 65.6895 Q1684.75 67.1073 1689.37 67.1073 Q1696.38 67.1073 1700.18 64.3527 Q1703.99 61.598 1703.99 56.4939 Q1703.99 52.0379 1701.24 49.5264 Q1698.52 47.0148 1692.28 45.759 L1687.3 44.7868 Q1678.15 42.9639 1674.05 39.075 Q1669.96 35.1862 1669.96 28.2591 Q1669.96 20.2383 1675.59 15.6203 Q1681.27 11.0023 1691.19 11.0023 Q1695.44 11.0023 1699.86 11.7719 Q1704.27 12.5416 1708.89 14.0809 Z" fill="#000000" fill-rule="nonzero" fill-opacity="1" /><path clip-path="url(#clip200)" d="M1763.78 48.0275 L1763.78 51.6733 L1729.51 51.6733 Q1730 59.3701 1734.13 63.421 Q1738.3 67.4314 1745.72 67.4314 Q1750.01 67.4314 1754.02 66.3781 Q1758.07 65.3249 1762.04 63.2184 L1762.04 70.267 Q1758.03 71.9684 1753.82 72.8596 Q1749.6 73.7508 1745.27 73.7508 Q1734.41 73.7508 1728.05 67.4314 Q1721.73 61.1119 1721.73 50.3365 Q1721.73 39.1965 1727.73 32.6746 Q1733.76 26.1121 1743.97 26.1121 Q1753.13 26.1121 1758.43 32.0264 Q1763.78 37.9003 1763.78 48.0275 M1756.33 45.84 Q1756.25 39.7232 1752.89 36.0774 Q1749.56 32.4315 1744.05 32.4315 Q1737.82 32.4315 1734.05 35.9558 Q1730.32 39.4801 1729.75 45.8805 L1756.33 45.84 Z" fill="#000000" fill-rule="nonzero" fill-opacity="1" /><path clip-path="url(#clip200)" d="M1796.63 49.7694 Q1787.6 49.7694 1784.12 51.8354 Q1780.63 53.9013 1780.63 58.8839 Q1780.63 62.8538 1783.23 65.2034 Q1785.86 67.5124 1790.36 67.5124 Q1796.55 67.5124 1800.28 63.1374 Q1804.05 58.7219 1804.05 51.4303 L1804.05 49.7694 L1796.63 49.7694 M1811.5 46.6907 L1811.5 72.576 L1804.05 72.576 L1804.05 65.6895 Q1801.5 69.8214 1797.69 71.8063 Q1793.88 73.7508 1788.37 73.7508 Q1781.4 73.7508 1777.27 69.8619 Q1773.18 65.9325 1773.18 59.3701 Q1773.18 51.7138 1778.28 47.825 Q1783.43 43.9361 1793.6 43.9361 L1804.05 43.9361 L1804.05 43.2069 Q1804.05 38.0623 1800.65 35.2672 Q1797.28 32.4315 1791.17 32.4315 Q1787.28 32.4315 1783.59 33.3632 Q1779.9 34.295 1776.5 36.1584 L1776.5 29.2718 Q1780.59 27.692 1784.44 26.9223 Q1788.29 26.1121 1791.94 26.1121 Q1801.78 26.1121 1806.64 31.2163 Q1811.5 36.3204 1811.5 46.6907 Z" fill="#000000" fill-rule="nonzero" fill-opacity="1" /><path clip-path="url(#clip200)" d="M1860.6 14.324 L1860.6 27.2059 L1875.95 27.2059 L1875.95 32.9987 L1860.6 32.9987 L1860.6 57.6282 Q1860.6 63.1779 1862.1 64.7578 Q1863.64 66.3376 1868.3 66.3376 L1875.95 66.3376 L1875.95 72.576 L1868.3 72.576 Q1859.67 72.576 1856.39 69.3758 Q1853.1 66.1351 1853.1 57.6282 L1853.1 32.9987 L1847.64 32.9987 L1847.64 27.2059 L1853.1 27.2059 L1853.1 14.324 L1860.6 14.324 Z" fill="#000000" fill-rule="nonzero" fill-opacity="1" /><path clip-path="url(#clip200)" d="M1884.99 54.671 L1884.99 27.2059 L1892.44 27.2059 L1892.44 54.3874 Q1892.44 60.8284 1894.95 64.0691 Q1897.46 67.2693 1902.49 67.2693 Q1908.52 67.2693 1912 63.421 Q1915.53 59.5726 1915.53 52.9291 L1915.53 27.2059 L1922.98 27.2059 L1922.98 72.576 L1915.53 72.576 L1915.53 65.6084 Q1912.81 69.7404 1909.21 71.7658 Q1905.64 73.7508 1900.91 73.7508 Q1893.09 73.7508 1889.04 68.8897 Q1884.99 64.0286 1884.99 54.671 M1903.74 26.1121 L1903.74 26.1121 Z" fill="#000000" fill-rule="nonzero" fill-opacity="1" /><path clip-path="url(#clip200)" d="M1964.63 34.1734 Q1963.37 33.4443 1961.87 33.1202 Q1960.41 32.7556 1958.63 32.7556 Q1952.31 32.7556 1948.91 36.8875 Q1945.55 40.9789 1945.55 48.6757 L1945.55 72.576 L1938.05 72.576 L1938.05 27.2059 L1945.55 27.2059 L1945.55 34.2544 Q1947.9 30.1225 1951.66 28.1376 Q1955.43 26.1121 1960.82 26.1121 Q1961.59 26.1121 1962.52 26.2337 Q1963.45 26.3147 1964.59 26.5172 L1964.63 34.1734 Z" fill="#000000" fill-rule="nonzero" fill-opacity="1" /><path clip-path="url(#clip200)" d="M1979.82 14.324 L1979.82 27.2059 L1995.17 27.2059 L1995.17 32.9987 L1979.82 32.9987 L1979.82 57.6282 Q1979.82 63.1779 1981.32 64.7578 Q1982.86 66.3376 1987.51 66.3376 L1995.17 66.3376 L1995.17 72.576 L1987.51 72.576 Q1978.89 72.576 1975.6 69.3758 Q1972.32 66.1351 1972.32 57.6282 L1972.32 32.9987 L1966.85 32.9987 L1966.85 27.2059 L1972.32 27.2059 L1972.32 14.324 L1979.82 14.324 Z" fill="#000000" fill-rule="nonzero" fill-opacity="1" /><path clip-path="url(#clip200)" d="M2004.97 9.54393 L2012.43 9.54393 L2012.43 72.576 L2004.97 72.576 L2004.97 9.54393 Z" fill="#000000" fill-rule="nonzero" fill-opacity="1" /><path clip-path="url(#clip200)" d="M2066.83 48.0275 L2066.83 51.6733 L2032.56 51.6733 Q2033.05 59.3701 2037.18 63.421 Q2041.35 67.4314 2048.76 67.4314 Q2053.06 67.4314 2057.07 66.3781 Q2061.12 65.3249 2065.09 63.2184 L2065.09 70.267 Q2061.08 71.9684 2056.87 72.8596 Q2052.65 73.7508 2048.32 73.7508 Q2037.46 73.7508 2031.1 67.4314 Q2024.78 61.1119 2024.78 50.3365 Q2024.78 39.1965 2030.78 32.6746 Q2036.81 26.1121 2047.02 26.1121 Q2056.18 26.1121 2061.48 32.0264 Q2066.83 37.9003 2066.83 48.0275 M2059.38 45.84 Q2059.3 39.7232 2055.93 36.0774 Q2052.61 32.4315 2047.1 32.4315 Q2040.86 32.4315 2037.1 35.9558 Q2033.37 39.4801 2032.8 45.8805 L2059.38 45.84 Z" fill="#000000" fill-rule="nonzero" fill-opacity="1" /><polyline clip-path="url(#clip201)" style="stroke:#ff0000; stroke-linecap:round; stroke-linejoin:round; stroke-width:8; stroke-opacity:1; fill:none" points="352.623,173.254 483.299,1688.65 613.974,1602.1 744.65,1532.1 875.326,1474.73 1006,1427.24 1136.68,1387.63 1267.35,1354.41 1398.03,1326.45 1528.7,1302.9 1659.38,1283.08 1790.06,1266.45 1920.73,1252.6 2051.41,1241.18 2182.08,1231.93 2312.76,1224.62 2443.44,1219.07 "/>
</svg>
