<?xml version="1.0" encoding="utf-8"?>
<svg xmlns="http://www.w3.org/2000/svg" xmlns:xlink="http://www.w3.org/1999/xlink" width="672" height="480" viewBox="0 0 2688 1920">
<defs>
  <clipPath id="clip320">
    <rect x="0" y="0" width="2688" height="1920"/>
  </clipPath>
</defs>
<path clip-path="url(#clip320)" d="M0 1920 L2688 1920 L2688 -4.26326e-14 L0 -4.26326e-14  Z" fill="#ffffff" fill-rule="evenodd" fill-opacity="1"/>
<defs>
  <clipPath id="clip321">
    <rect x="255" y="127" width="2386" height="1607"/>
  </clipPath>
</defs>
<path clip-path="url(#clip320)" d="M255.816 1734.12 L2640.76 1734.12 L2640.76 127.792 L255.816 127.792  Z" fill="#ffffff" fill-rule="evenodd" fill-opacity="1"/>
<polyline clip-path="url(#clip321)" style="stroke:#000000; stroke-linecap:round; stroke-linejoin:round; stroke-width:2; stroke-opacity:0.1; fill:none" points="323.315,1734.12 323.315,127.792 "/>
<polyline clip-path="url(#clip321)" style="stroke:#000000; stroke-linecap:round; stroke-linejoin:round; stroke-width:2; stroke-opacity:0.1; fill:none" points="834.665,1734.12 834.665,127.792 "/>
<polyline clip-path="url(#clip321)" style="stroke:#000000; stroke-linecap:round; stroke-linejoin:round; stroke-width:2; stroke-opacity:0.1; fill:none" points="1346.02,1734.12 1346.02,127.792 "/>
<polyline clip-path="url(#clip321)" style="stroke:#000000; stroke-linecap:round; stroke-linejoin:round; stroke-width:2; stroke-opacity:0.1; fill:none" points="1857.37,1734.12 1857.37,127.792 "/>
<polyline clip-path="url(#clip321)" style="stroke:#000000; stroke-linecap:round; stroke-linejoin:round; stroke-width:2; stroke-opacity:0.1; fill:none" points="2368.72,1734.12 2368.72,127.792 "/>
<polyline clip-path="url(#clip321)" style="stroke:#000000; stroke-linecap:round; stroke-linejoin:round; stroke-width:2; stroke-opacity:0.1; fill:none" points="255.816,1701.11 2640.76,1701.11 "/>
<polyline clip-path="url(#clip321)" style="stroke:#000000; stroke-linecap:round; stroke-linejoin:round; stroke-width:2; stroke-opacity:0.1; fill:none" points="255.816,1319.14 2640.76,1319.14 "/>
<polyline clip-path="url(#clip321)" style="stroke:#000000; stroke-linecap:round; stroke-linejoin:round; stroke-width:2; stroke-opacity:0.1; fill:none" points="255.816,937.181 2640.76,937.181 "/>
<polyline clip-path="url(#clip321)" style="stroke:#000000; stroke-linecap:round; stroke-linejoin:round; stroke-width:2; stroke-opacity:0.1; fill:none" points="255.816,555.218 2640.76,555.218 "/>
<polyline clip-path="url(#clip321)" style="stroke:#000000; stroke-linecap:round; stroke-linejoin:round; stroke-width:2; stroke-opacity:0.1; fill:none" points="255.816,173.254 2640.76,173.254 "/>
<polyline clip-path="url(#clip320)" style="stroke:#000000; stroke-linecap:round; stroke-linejoin:round; stroke-width:4; stroke-opacity:1; fill:none" points="255.816,1734.12 2640.76,1734.12 "/>
<polyline clip-path="url(#clip320)" style="stroke:#000000; stroke-linecap:round; stroke-linejoin:round; stroke-width:4; stroke-opacity:1; fill:none" points="323.315,1734.12 323.315,1715.22 "/>
<polyline clip-path="url(#clip320)" style="stroke:#000000; stroke-linecap:round; stroke-linejoin:round; stroke-width:4; stroke-opacity:1; fill:none" points="834.665,1734.12 834.665,1715.22 "/>
<polyline clip-path="url(#clip320)" style="stroke:#000000; stroke-linecap:round; stroke-linejoin:round; stroke-width:4; stroke-opacity:1; fill:none" points="1346.02,1734.12 1346.02,1715.22 "/>
<polyline clip-path="url(#clip320)" style="stroke:#000000; stroke-linecap:round; stroke-linejoin:round; stroke-width:4; stroke-opacity:1; fill:none" points="1857.37,1734.12 1857.37,1715.22 "/>
<polyline clip-path="url(#clip320)" style="stroke:#000000; stroke-linecap:round; stroke-linejoin:round; stroke-width:4; stroke-opacity:1; fill:none" points="2368.72,1734.12 2368.72,1715.22 "/>
<path clip-path="url(#clip320)" d="M323.315 1767.34 Q319.704 1767.34 317.875 1770.9 Q316.069 1774.45 316.069 1781.58 Q316.069 1788.68 317.875 1792.25 Q319.704 1795.79 323.315 1795.79 Q326.949 1795.79 328.754 1792.25 Q330.583 1788.68 330.583 1781.58 Q330.583 1774.45 328.754 1770.9 Q326.949 1767.34 323.315 1767.34 M323.315 1763.64 Q329.125 1763.64 332.18 1768.24 Q335.259 1772.83 335.259 1781.58 Q335.259 1790.3 332.18 1794.91 Q329.125 1799.49 323.315 1799.49 Q317.504 1799.49 314.426 1794.91 Q311.37 1790.3 311.37 1781.58 Q311.37 1772.83 314.426 1768.24 Q317.504 1763.64 323.315 1763.64 Z" fill="#000000" fill-rule="nonzero" fill-opacity="1" /><path clip-path="url(#clip320)" d="M824.943 1764.26 L843.3 1764.26 L843.3 1768.2 L829.226 1768.2 L829.226 1776.67 Q830.244 1776.32 831.263 1776.16 Q832.281 1775.97 833.3 1775.97 Q839.087 1775.97 842.466 1779.15 Q845.846 1782.32 845.846 1787.73 Q845.846 1793.31 842.374 1796.41 Q838.901 1799.49 832.582 1799.49 Q830.406 1799.49 828.138 1799.12 Q825.892 1798.75 823.485 1798.01 L823.485 1793.31 Q825.568 1794.45 827.79 1795 Q830.013 1795.56 832.489 1795.56 Q836.494 1795.56 838.832 1793.45 Q841.17 1791.34 841.17 1787.73 Q841.17 1784.12 838.832 1782.02 Q836.494 1779.91 832.489 1779.91 Q830.614 1779.91 828.739 1780.33 Q826.888 1780.74 824.943 1781.62 L824.943 1764.26 Z" fill="#000000" fill-rule="nonzero" fill-opacity="1" /><path clip-path="url(#clip320)" d="M1320.7 1794.89 L1328.34 1794.89 L1328.34 1768.52 L1320.03 1770.19 L1320.03 1765.93 L1328.3 1764.26 L1332.97 1764.26 L1332.97 1794.89 L1340.61 1794.89 L1340.61 1798.82 L1320.7 1798.82 L1320.7 1794.89 Z" fill="#000000" fill-rule="nonzero" fill-opacity="1" /><path clip-path="url(#clip320)" d="M1360.06 1767.34 Q1356.44 1767.34 1354.62 1770.9 Q1352.81 1774.45 1352.81 1781.58 Q1352.81 1788.68 1354.62 1792.25 Q1356.44 1795.79 1360.06 1795.79 Q1363.69 1795.79 1365.5 1792.25 Q1367.32 1788.68 1367.32 1781.58 Q1367.32 1774.45 1365.5 1770.9 Q1363.69 1767.34 1360.06 1767.34 M1360.06 1763.64 Q1365.87 1763.64 1368.92 1768.24 Q1372 1772.83 1372 1781.58 Q1372 1790.3 1368.92 1794.91 Q1365.87 1799.49 1360.06 1799.49 Q1354.25 1799.49 1351.17 1794.91 Q1348.11 1790.3 1348.11 1781.58 Q1348.11 1772.83 1351.17 1768.24 Q1354.25 1763.64 1360.06 1763.64 Z" fill="#000000" fill-rule="nonzero" fill-opacity="1" /><path clip-path="url(#clip320)" d="M1832.55 1794.89 L1840.19 1794.89 L1840.19 1768.52 L1831.88 1770.19 L1831.88 1765.93 L1840.14 1764.26 L1844.82 1764.26 L1844.82 1794.89 L1852.46 1794.89 L1852.46 1798.82 L1832.55 1798.82 L1832.55 1794.89 Z" fill="#000000" fill-rule="nonzero" fill-opacity="1" /><path clip-path="url(#clip320)" d="M1861.95 1764.26 L1880.31 1764.26 L1880.31 1768.2 L1866.23 1768.2 L1866.23 1776.67 Q1867.25 1776.32 1868.27 1776.16 Q1869.29 1775.97 1870.31 1775.97 Q1876.09 1775.97 1879.47 1779.15 Q1882.85 1782.32 1882.85 1787.73 Q1882.85 1793.31 1879.38 1796.41 Q1875.91 1799.49 1869.59 1799.49 Q1867.41 1799.49 1865.14 1799.12 Q1862.9 1798.75 1860.49 1798.01 L1860.49 1793.31 Q1862.57 1794.45 1864.8 1795 Q1867.02 1795.56 1869.5 1795.56 Q1873.5 1795.56 1875.84 1793.45 Q1878.18 1791.34 1878.18 1787.73 Q1878.18 1784.12 1875.84 1782.02 Q1873.5 1779.91 1869.5 1779.91 Q1867.62 1779.91 1865.75 1780.33 Q1863.89 1780.74 1861.95 1781.62 L1861.95 1764.26 Z" fill="#000000" fill-rule="nonzero" fill-opacity="1" /><path clip-path="url(#clip320)" d="M2347.49 1794.89 L2363.81 1794.89 L2363.81 1798.82 L2341.87 1798.82 L2341.87 1794.89 Q2344.53 1792.13 2349.11 1787.5 Q2353.72 1782.85 2354.9 1781.51 Q2357.14 1778.98 2358.02 1777.25 Q2358.93 1775.49 2358.93 1773.8 Q2358.93 1771.04 2356.98 1769.31 Q2355.06 1767.57 2351.96 1767.57 Q2349.76 1767.57 2347.31 1768.34 Q2344.87 1769.1 2342.1 1770.65 L2342.1 1765.93 Q2344.92 1764.79 2347.37 1764.21 Q2349.83 1763.64 2351.87 1763.64 Q2357.24 1763.64 2360.43 1766.32 Q2363.62 1769.01 2363.62 1773.5 Q2363.62 1775.63 2362.81 1777.55 Q2362.03 1779.45 2359.92 1782.04 Q2359.34 1782.71 2356.24 1785.93 Q2353.14 1789.12 2347.49 1794.89 Z" fill="#000000" fill-rule="nonzero" fill-opacity="1" /><path clip-path="url(#clip320)" d="M2383.62 1767.34 Q2380.01 1767.34 2378.18 1770.9 Q2376.38 1774.45 2376.38 1781.58 Q2376.38 1788.68 2378.18 1792.25 Q2380.01 1795.79 2383.62 1795.79 Q2387.26 1795.79 2389.06 1792.25 Q2390.89 1788.68 2390.89 1781.58 Q2390.89 1774.45 2389.06 1770.9 Q2387.26 1767.34 2383.62 1767.34 M2383.62 1763.64 Q2389.43 1763.64 2392.49 1768.24 Q2395.57 1772.83 2395.57 1781.58 Q2395.57 1790.3 2392.49 1794.91 Q2389.43 1799.49 2383.62 1799.49 Q2377.81 1799.49 2374.74 1794.91 Q2371.68 1790.3 2371.68 1781.58 Q2371.68 1772.83 2374.74 1768.24 Q2377.81 1763.64 2383.62 1763.64 Z" fill="#000000" fill-rule="nonzero" fill-opacity="1" /><path clip-path="url(#clip320)" d="M1409.01 1842.11 L1400.29 1865.76 L1417.76 1865.76 L1409.01 1842.11 M1405.38 1835.78 L1412.67 1835.78 L1430.78 1883.3 L1424.1 1883.3 L1419.77 1871.11 L1398.35 1871.11 L1394.02 1883.3 L1387.24 1883.3 L1405.38 1835.78 Z" fill="#000000" fill-rule="nonzero" fill-opacity="1" /><path clip-path="url(#clip320)" d="M1460.92 1865.06 Q1460.92 1858.7 1458.28 1855.2 Q1455.67 1851.7 1450.93 1851.7 Q1446.22 1851.7 1443.58 1855.2 Q1440.97 1858.7 1440.97 1865.06 Q1440.97 1871.4 1443.58 1874.9 Q1446.22 1878.4 1450.93 1878.4 Q1455.67 1878.4 1458.28 1874.9 Q1460.92 1871.4 1460.92 1865.06 M1466.78 1878.88 Q1466.78 1887.98 1462.74 1892.4 Q1458.69 1896.86 1450.35 1896.86 Q1447.27 1896.86 1444.53 1896.38 Q1441.79 1895.94 1439.21 1894.98 L1439.21 1889.28 Q1441.79 1890.69 1444.31 1891.35 Q1446.82 1892.02 1449.43 1892.02 Q1455.19 1892.02 1458.06 1889 Q1460.92 1886.01 1460.92 1879.93 L1460.92 1877.03 Q1459.11 1880.18 1456.28 1881.74 Q1453.44 1883.3 1449.5 1883.3 Q1442.94 1883.3 1438.93 1878.3 Q1434.92 1873.31 1434.92 1865.06 Q1434.92 1856.79 1438.93 1851.79 Q1442.94 1846.79 1449.5 1846.79 Q1453.44 1846.79 1456.28 1848.35 Q1459.11 1849.91 1460.92 1853.06 L1460.92 1847.65 L1466.78 1847.65 L1466.78 1878.88 Z" fill="#000000" fill-rule="nonzero" fill-opacity="1" /><path clip-path="url(#clip320)" d="M1509.33 1864.01 L1509.33 1866.88 L1482.41 1866.88 Q1482.79 1872.92 1486.03 1876.11 Q1489.31 1879.26 1495.14 1879.26 Q1498.51 1879.26 1501.66 1878.43 Q1504.85 1877.6 1507.96 1875.95 L1507.96 1881.49 Q1504.81 1882.82 1501.5 1883.52 Q1498.19 1884.22 1494.79 1884.22 Q1486.26 1884.22 1481.26 1879.26 Q1476.3 1874.29 1476.3 1865.83 Q1476.3 1857.07 1481.01 1851.95 Q1485.75 1846.79 1493.77 1846.79 Q1500.96 1846.79 1505.13 1851.44 Q1509.33 1856.06 1509.33 1864.01 M1503.48 1862.29 Q1503.41 1857.49 1500.77 1854.62 Q1498.16 1851.76 1493.83 1851.76 Q1488.93 1851.76 1485.97 1854.53 Q1483.04 1857.3 1482.6 1862.33 L1503.48 1862.29 Z" fill="#000000" fill-rule="nonzero" fill-opacity="1" /><polyline clip-path="url(#clip320)" style="stroke:#000000; stroke-linecap:round; stroke-linejoin:round; stroke-width:4; stroke-opacity:1; fill:none" points="255.816,1734.12 255.816,127.792 "/>
<polyline clip-path="url(#clip320)" style="stroke:#000000; stroke-linecap:round; stroke-linejoin:round; stroke-width:4; stroke-opacity:1; fill:none" points="255.816,1701.11 274.714,1701.11 "/>
<polyline clip-path="url(#clip320)" style="stroke:#000000; stroke-linecap:round; stroke-linejoin:round; stroke-width:4; stroke-opacity:1; fill:none" points="255.816,1319.14 274.714,1319.14 "/>
<polyline clip-path="url(#clip320)" style="stroke:#000000; stroke-linecap:round; stroke-linejoin:round; stroke-width:4; stroke-opacity:1; fill:none" points="255.816,937.181 274.714,937.181 "/>
<polyline clip-path="url(#clip320)" style="stroke:#000000; stroke-linecap:round; stroke-linejoin:round; stroke-width:4; stroke-opacity:1; fill:none" points="255.816,555.218 274.714,555.218 "/>
<polyline clip-path="url(#clip320)" style="stroke:#000000; stroke-linecap:round; stroke-linejoin:round; stroke-width:4; stroke-opacity:1; fill:none" points="255.816,173.254 274.714,173.254 "/>
<path clip-path="url(#clip320)" d="M128.159 1686.91 Q124.548 1686.91 122.719 1690.47 Q120.913 1694.01 120.913 1701.14 Q120.913 1708.25 122.719 1711.81 Q124.548 1715.36 128.159 1715.36 Q131.793 1715.36 133.599 1711.81 Q135.427 1708.25 135.427 1701.14 Q135.427 1694.01 133.599 1690.47 Q131.793 1686.91 128.159 1686.91 M128.159 1683.2 Q133.969 1683.2 137.025 1687.81 Q140.103 1692.39 140.103 1701.14 Q140.103 1709.87 137.025 1714.48 Q133.969 1719.06 128.159 1719.06 Q122.349 1719.06 119.27 1714.48 Q116.214 1709.87 116.214 1701.14 Q116.214 1692.39 119.27 1687.81 Q122.349 1683.2 128.159 1683.2 Z" fill="#000000" fill-rule="nonzero" fill-opacity="1" /><path clip-path="url(#clip320)" d="M148.321 1712.51 L153.205 1712.51 L153.205 1718.39 L148.321 1718.39 L148.321 1712.51 Z" fill="#000000" fill-rule="nonzero" fill-opacity="1" /><path clip-path="url(#clip320)" d="M173.39 1686.91 Q169.779 1686.91 167.95 1690.47 Q166.145 1694.01 166.145 1701.14 Q166.145 1708.25 167.95 1711.81 Q169.779 1715.36 173.39 1715.36 Q177.024 1715.36 178.83 1711.81 Q180.659 1708.25 180.659 1701.14 Q180.659 1694.01 178.83 1690.47 Q177.024 1686.91 173.39 1686.91 M173.39 1683.2 Q179.2 1683.2 182.256 1687.81 Q185.334 1692.39 185.334 1701.14 Q185.334 1709.87 182.256 1714.48 Q179.2 1719.06 173.39 1719.06 Q167.58 1719.06 164.501 1714.48 Q161.446 1709.87 161.446 1701.14 Q161.446 1692.39 164.501 1687.81 Q167.58 1683.2 173.39 1683.2 Z" fill="#000000" fill-rule="nonzero" fill-opacity="1" /><path clip-path="url(#clip320)" d="M203.552 1686.91 Q199.941 1686.91 198.112 1690.47 Q196.307 1694.01 196.307 1701.14 Q196.307 1708.25 198.112 1711.81 Q199.941 1715.36 203.552 1715.36 Q207.186 1715.36 208.992 1711.81 Q210.82 1708.25 210.82 1701.14 Q210.82 1694.01 208.992 1690.47 Q207.186 1686.91 203.552 1686.91 M203.552 1683.2 Q209.362 1683.2 212.418 1687.81 Q215.496 1692.39 215.496 1701.14 Q215.496 1709.87 212.418 1714.48 Q209.362 1719.06 203.552 1719.06 Q197.742 1719.06 194.663 1714.48 Q191.608 1709.87 191.608 1701.14 Q191.608 1692.39 194.663 1687.81 Q197.742 1683.2 203.552 1683.2 Z" fill="#000000" fill-rule="nonzero" fill-opacity="1" /><path clip-path="url(#clip320)" d="M129.154 1304.94 Q125.543 1304.94 123.714 1308.51 Q121.909 1312.05 121.909 1319.18 Q121.909 1326.29 123.714 1329.85 Q125.543 1333.39 129.154 1333.39 Q132.788 1333.39 134.594 1329.85 Q136.423 1326.29 136.423 1319.18 Q136.423 1312.05 134.594 1308.51 Q132.788 1304.94 129.154 1304.94 M129.154 1301.24 Q134.964 1301.24 138.02 1305.85 Q141.099 1310.43 141.099 1319.18 Q141.099 1327.91 138.02 1332.51 Q134.964 1337.1 129.154 1337.1 Q123.344 1337.1 120.265 1332.51 Q117.21 1327.91 117.21 1319.18 Q117.21 1310.43 120.265 1305.85 Q123.344 1301.24 129.154 1301.24 Z" fill="#000000" fill-rule="nonzero" fill-opacity="1" /><path clip-path="url(#clip320)" d="M149.316 1330.55 L154.2 1330.55 L154.2 1336.42 L149.316 1336.42 L149.316 1330.55 Z" fill="#000000" fill-rule="nonzero" fill-opacity="1" /><path clip-path="url(#clip320)" d="M168.413 1332.49 L184.733 1332.49 L184.733 1336.42 L162.788 1336.42 L162.788 1332.49 Q165.45 1329.74 170.034 1325.11 Q174.64 1320.45 175.821 1319.11 Q178.066 1316.59 178.946 1314.85 Q179.848 1313.09 179.848 1311.4 Q179.848 1308.65 177.904 1306.91 Q175.983 1305.18 172.881 1305.18 Q170.682 1305.18 168.228 1305.94 Q165.798 1306.7 163.02 1308.25 L163.02 1303.53 Q165.844 1302.4 168.297 1301.82 Q170.751 1301.24 172.788 1301.24 Q178.159 1301.24 181.353 1303.93 Q184.547 1306.61 184.547 1311.1 Q184.547 1313.23 183.737 1315.15 Q182.95 1317.05 180.844 1319.64 Q180.265 1320.31 177.163 1323.53 Q174.061 1326.73 168.413 1332.49 Z" fill="#000000" fill-rule="nonzero" fill-opacity="1" /><path clip-path="url(#clip320)" d="M194.594 1301.86 L212.95 1301.86 L212.95 1305.8 L198.876 1305.8 L198.876 1314.27 Q199.895 1313.93 200.913 1313.76 Q201.932 1313.58 202.95 1313.58 Q208.737 1313.58 212.117 1316.75 Q215.496 1319.92 215.496 1325.34 Q215.496 1330.92 212.024 1334.02 Q208.552 1337.1 202.233 1337.1 Q200.057 1337.1 197.788 1336.73 Q195.543 1336.36 193.135 1335.61 L193.135 1330.92 Q195.219 1332.05 197.441 1332.61 Q199.663 1333.16 202.14 1333.16 Q206.145 1333.16 208.482 1331.05 Q210.82 1328.95 210.82 1325.34 Q210.82 1321.73 208.482 1319.62 Q206.145 1317.51 202.14 1317.51 Q200.265 1317.51 198.39 1317.93 Q196.538 1318.35 194.594 1319.23 L194.594 1301.86 Z" fill="#000000" fill-rule="nonzero" fill-opacity="1" /><path clip-path="url(#clip320)" d="M128.159 922.98 Q124.548 922.98 122.719 926.545 Q120.913 930.086 120.913 937.216 Q120.913 944.322 122.719 947.887 Q124.548 951.429 128.159 951.429 Q131.793 951.429 133.599 947.887 Q135.427 944.322 135.427 937.216 Q135.427 930.086 133.599 926.545 Q131.793 922.98 128.159 922.98 M128.159 919.276 Q133.969 919.276 137.025 923.883 Q140.103 928.466 140.103 937.216 Q140.103 945.943 137.025 950.549 Q133.969 955.133 128.159 955.133 Q122.349 955.133 119.27 950.549 Q116.214 945.943 116.214 937.216 Q116.214 928.466 119.27 923.883 Q122.349 919.276 128.159 919.276 Z" fill="#000000" fill-rule="nonzero" fill-opacity="1" /><path clip-path="url(#clip320)" d="M148.321 948.582 L153.205 948.582 L153.205 954.461 L148.321 954.461 L148.321 948.582 Z" fill="#000000" fill-rule="nonzero" fill-opacity="1" /><path clip-path="url(#clip320)" d="M163.436 919.901 L181.793 919.901 L181.793 923.836 L167.719 923.836 L167.719 932.309 Q168.737 931.961 169.756 931.799 Q170.774 931.614 171.793 931.614 Q177.58 931.614 180.959 934.786 Q184.339 937.957 184.339 943.373 Q184.339 948.952 180.867 952.054 Q177.395 955.133 171.075 955.133 Q168.899 955.133 166.631 954.762 Q164.385 954.392 161.978 953.651 L161.978 948.952 Q164.061 950.086 166.284 950.642 Q168.506 951.197 170.983 951.197 Q174.987 951.197 177.325 949.091 Q179.663 946.985 179.663 943.373 Q179.663 939.762 177.325 937.656 Q174.987 935.549 170.983 935.549 Q169.108 935.549 167.233 935.966 Q165.381 936.383 163.436 937.262 L163.436 919.901 Z" fill="#000000" fill-rule="nonzero" fill-opacity="1" /><path clip-path="url(#clip320)" d="M203.552 922.98 Q199.941 922.98 198.112 926.545 Q196.307 930.086 196.307 937.216 Q196.307 944.322 198.112 947.887 Q199.941 951.429 203.552 951.429 Q207.186 951.429 208.992 947.887 Q210.82 944.322 210.82 937.216 Q210.82 930.086 208.992 926.545 Q207.186 922.98 203.552 922.98 M203.552 919.276 Q209.362 919.276 212.418 923.883 Q215.496 928.466 215.496 937.216 Q215.496 945.943 212.418 950.549 Q209.362 955.133 203.552 955.133 Q197.742 955.133 194.663 950.549 Q191.608 945.943 191.608 937.216 Q191.608 928.466 194.663 923.883 Q197.742 919.276 203.552 919.276 Z" fill="#000000" fill-rule="nonzero" fill-opacity="1" /><path clip-path="url(#clip320)" d="M129.154 541.016 Q125.543 541.016 123.714 544.581 Q121.909 548.123 121.909 555.252 Q121.909 562.359 123.714 565.924 Q125.543 569.465 129.154 569.465 Q132.788 569.465 134.594 565.924 Q136.423 562.359 136.423 555.252 Q136.423 548.123 134.594 544.581 Q132.788 541.016 129.154 541.016 M129.154 537.313 Q134.964 537.313 138.02 541.919 Q141.099 546.503 141.099 555.252 Q141.099 563.979 138.02 568.586 Q134.964 573.169 129.154 573.169 Q123.344 573.169 120.265 568.586 Q117.21 563.979 117.21 555.252 Q117.21 546.503 120.265 541.919 Q123.344 537.313 129.154 537.313 Z" fill="#000000" fill-rule="nonzero" fill-opacity="1" /><path clip-path="url(#clip320)" d="M149.316 566.618 L154.2 566.618 L154.2 572.498 L149.316 572.498 L149.316 566.618 Z" fill="#000000" fill-rule="nonzero" fill-opacity="1" /><path clip-path="url(#clip320)" d="M163.205 537.938 L185.427 537.938 L185.427 539.928 L172.881 572.498 L167.997 572.498 L179.802 541.873 L163.205 541.873 L163.205 537.938 Z" fill="#000000" fill-rule="nonzero" fill-opacity="1" /><path clip-path="url(#clip320)" d="M194.594 537.938 L212.95 537.938 L212.95 541.873 L198.876 541.873 L198.876 550.345 Q199.895 549.998 200.913 549.836 Q201.932 549.651 202.95 549.651 Q208.737 549.651 212.117 552.822 Q215.496 555.993 215.496 561.41 Q215.496 566.989 212.024 570.09 Q208.552 573.169 202.233 573.169 Q200.057 573.169 197.788 572.799 Q195.543 572.428 193.135 571.688 L193.135 566.989 Q195.219 568.123 197.441 568.678 Q199.663 569.234 202.14 569.234 Q206.145 569.234 208.482 567.127 Q210.82 565.021 210.82 561.41 Q210.82 557.799 208.482 555.692 Q206.145 553.586 202.14 553.586 Q200.265 553.586 198.39 554.002 Q196.538 554.419 194.594 555.299 L194.594 537.938 Z" fill="#000000" fill-rule="nonzero" fill-opacity="1" /><path clip-path="url(#clip320)" d="M118.969 186.599 L126.608 186.599 L126.608 160.233 L118.298 161.9 L118.298 157.641 L126.562 155.974 L131.238 155.974 L131.238 186.599 L138.876 186.599 L138.876 190.534 L118.969 190.534 L118.969 186.599 Z" fill="#000000" fill-rule="nonzero" fill-opacity="1" /><path clip-path="url(#clip320)" d="M148.321 184.655 L153.205 184.655 L153.205 190.534 L148.321 190.534 L148.321 184.655 Z" fill="#000000" fill-rule="nonzero" fill-opacity="1" /><path clip-path="url(#clip320)" d="M173.39 159.053 Q169.779 159.053 167.95 162.618 Q166.145 166.159 166.145 173.289 Q166.145 180.395 167.95 183.96 Q169.779 187.502 173.39 187.502 Q177.024 187.502 178.83 183.96 Q180.659 180.395 180.659 173.289 Q180.659 166.159 178.83 162.618 Q177.024 159.053 173.39 159.053 M173.39 155.349 Q179.2 155.349 182.256 159.956 Q185.334 164.539 185.334 173.289 Q185.334 182.016 182.256 186.622 Q179.2 191.205 173.39 191.205 Q167.58 191.205 164.501 186.622 Q161.446 182.016 161.446 173.289 Q161.446 164.539 164.501 159.956 Q167.58 155.349 173.39 155.349 Z" fill="#000000" fill-rule="nonzero" fill-opacity="1" /><path clip-path="url(#clip320)" d="M203.552 159.053 Q199.941 159.053 198.112 162.618 Q196.307 166.159 196.307 173.289 Q196.307 180.395 198.112 183.96 Q199.941 187.502 203.552 187.502 Q207.186 187.502 208.992 183.96 Q210.82 180.395 210.82 173.289 Q210.82 166.159 208.992 162.618 Q207.186 159.053 203.552 159.053 M203.552 155.349 Q209.362 155.349 212.418 159.956 Q215.496 164.539 215.496 173.289 Q215.496 182.016 212.418 186.622 Q209.362 191.205 203.552 191.205 Q197.742 191.205 194.663 186.622 Q191.608 182.016 191.608 173.289 Q191.608 164.539 194.663 159.956 Q197.742 155.349 203.552 155.349 Z" fill="#000000" fill-rule="nonzero" fill-opacity="1" /><path clip-path="url(#clip320)" d="M12.1132 978.856 L12.1132 973 L61.6384 973 L61.6384 978.856 L12.1132 978.856 Z" fill="#000000" fill-rule="nonzero" fill-opacity="1" /><path clip-path="url(#clip320)" d="M12.1769 946.678 Q19.4975 950.943 26.6589 953.012 Q33.8203 955.081 41.1727 955.081 Q48.5251 955.081 55.7502 953.012 Q62.9434 950.911 70.2321 946.678 L70.2321 951.77 Q62.7524 956.545 55.5274 958.932 Q48.3023 961.287 41.1727 961.287 Q34.0749 961.287 26.8817 958.932 Q19.6884 956.577 12.1769 951.77 L12.1769 946.678 Z" fill="#000000" fill-rule="nonzero" fill-opacity="1" /><path clip-path="url(#clip320)" d="M25.9905 905.683 L43.337 918.573 L61.6384 905.014 L61.6384 911.921 L47.6339 922.297 L61.6384 932.673 L61.6384 939.58 L42.9869 925.735 L25.9905 938.402 L25.9905 931.496 L38.6901 922.043 L25.9905 912.589 L25.9905 905.683 Z" fill="#000000" fill-rule="nonzero" fill-opacity="1" /><path clip-path="url(#clip320)" d="M12.1769 897.662 L12.1769 892.569 Q19.6884 887.795 26.8817 885.44 Q34.0749 883.053 41.1727 883.053 Q48.3023 883.053 55.5274 885.44 Q62.7524 887.795 70.2321 892.569 L70.2321 897.662 Q62.9434 893.429 55.7502 891.36 Q48.5251 889.259 41.1727 889.259 Q33.8203 889.259 26.6589 891.36 Q19.4975 893.429 12.1769 897.662 Z" fill="#000000" fill-rule="nonzero" fill-opacity="1" /><path clip-path="url(#clip320)" d="M867.326 14.0809 L867.326 22.0612 Q862.667 19.8332 858.535 18.7395 Q854.403 17.6457 850.555 17.6457 Q843.871 17.6457 840.225 20.2383 Q836.62 22.8309 836.62 27.611 Q836.62 31.6214 839.01 33.6873 Q841.44 35.7128 848.165 36.9686 L853.107 37.9813 Q862.262 39.7232 866.597 44.1387 Q870.971 48.5136 870.971 55.8863 Q870.971 64.6767 865.057 69.2137 Q859.183 73.7508 847.8 73.7508 Q843.506 73.7508 838.645 72.7785 Q833.825 71.8063 828.64 69.9024 L828.64 61.4765 Q833.622 64.2716 838.402 65.6895 Q843.182 67.1073 847.8 67.1073 Q854.808 67.1073 858.616 64.3527 Q862.424 61.598 862.424 56.4939 Q862.424 52.0379 859.669 49.5264 Q856.955 47.0148 850.717 45.759 L845.734 44.7868 Q836.579 42.9639 832.488 39.075 Q828.396 35.1862 828.396 28.2591 Q828.396 20.2383 834.027 15.6203 Q839.699 11.0023 849.623 11.0023 Q853.877 11.0023 858.292 11.7719 Q862.708 12.5416 867.326 14.0809 Z" fill="#000000" fill-rule="nonzero" fill-opacity="1" /><path clip-path="url(#clip320)" d="M882.638 54.671 L882.638 27.2059 L890.092 27.2059 L890.092 54.3874 Q890.092 60.8284 892.603 64.0691 Q895.115 67.2693 900.138 67.2693 Q906.174 67.2693 909.658 63.421 Q913.182 59.5726 913.182 52.9291 L913.182 27.2059 L920.636 27.2059 L920.636 72.576 L913.182 72.576 L913.182 65.6084 Q910.468 69.7404 906.863 71.7658 Q903.298 73.7508 898.558 73.7508 Q890.74 73.7508 886.689 68.8897 Q882.638 64.0286 882.638 54.671 M901.394 26.1121 L901.394 26.1121 Z" fill="#000000" fill-rule="nonzero" fill-opacity="1" /><path clip-path="url(#clip320)" d="M962.279 34.1734 Q961.023 33.4443 959.524 33.1202 Q958.066 32.7556 956.284 32.7556 Q949.964 32.7556 946.561 36.8875 Q943.199 40.9789 943.199 48.6757 L943.199 72.576 L935.705 72.576 L935.705 27.2059 L943.199 27.2059 L943.199 34.2544 Q945.549 30.1225 949.316 28.1376 Q953.083 26.1121 958.471 26.1121 Q959.241 26.1121 960.172 26.2337 Q961.104 26.3147 962.238 26.5172 L962.279 34.1734 Z" fill="#000000" fill-rule="nonzero" fill-opacity="1" /><path clip-path="url(#clip320)" d="M964.75 27.2059 L972.649 27.2059 L986.827 65.2844 L1001.01 27.2059 L1008.9 27.2059 L991.891 72.576 L981.764 72.576 L964.75 27.2059 Z" fill="#000000" fill-rule="nonzero" fill-opacity="1" /><path clip-path="url(#clip320)" d="M1019.19 27.2059 L1026.65 27.2059 L1026.65 72.576 L1019.19 72.576 L1019.19 27.2059 M1019.19 9.54393 L1026.65 9.54393 L1026.65 18.9825 L1019.19 18.9825 L1019.19 9.54393 Z" fill="#000000" fill-rule="nonzero" fill-opacity="1" /><path clip-path="url(#clip320)" d="M1036.9 27.2059 L1044.8 27.2059 L1058.97 65.2844 L1073.15 27.2059 L1081.05 27.2059 L1064.04 72.576 L1053.91 72.576 L1036.9 27.2059 Z" fill="#000000" fill-rule="nonzero" fill-opacity="1" /><path clip-path="url(#clip320)" d="M1108.92 32.4315 Q1102.93 32.4315 1099.44 37.1306 Q1095.96 41.7891 1095.96 49.9314 Q1095.96 58.0738 1099.4 62.7728 Q1102.89 67.4314 1108.92 67.4314 Q1114.88 67.4314 1118.36 62.7323 Q1121.84 58.0333 1121.84 49.9314 Q1121.84 41.8701 1118.36 37.1711 Q1114.88 32.4315 1108.92 32.4315 M1108.92 26.1121 Q1118.64 26.1121 1124.19 32.4315 Q1129.74 38.7509 1129.74 49.9314 Q1129.74 61.0714 1124.19 67.4314 Q1118.64 73.7508 1108.92 73.7508 Q1099.16 73.7508 1093.61 67.4314 Q1088.1 61.0714 1088.1 49.9314 Q1088.1 38.7509 1093.61 32.4315 Q1099.16 26.1121 1108.92 26.1121 Z" fill="#000000" fill-rule="nonzero" fill-opacity="1" /><path clip-path="url(#clip320)" d="M1168.39 34.1734 Q1167.13 33.4443 1165.63 33.1202 Q1164.18 32.7556 1162.39 32.7556 Q1156.07 32.7556 1152.67 36.8875 Q1149.31 40.9789 1149.31 48.6757 L1149.31 72.576 L1141.81 72.576 L1141.81 27.2059 L1149.31 27.2059 L1149.31 34.2544 Q1151.66 30.1225 1155.43 28.1376 Q1159.19 26.1121 1164.58 26.1121 Q1165.35 26.1121 1166.28 26.2337 Q1167.21 26.3147 1168.35 26.5172 L1168.39 34.1734 Z" fill="#000000" fill-rule="nonzero" fill-opacity="1" /><path clip-path="url(#clip320)" d="M1205.13 28.5427 L1205.13 35.5912 Q1201.97 33.9709 1198.57 33.1607 Q1195.17 32.3505 1191.52 32.3505 Q1185.97 32.3505 1183.17 34.0519 Q1180.42 35.7533 1180.42 39.156 Q1180.42 41.7486 1182.41 43.2475 Q1184.39 44.7058 1190.39 46.0426 L1192.94 46.6097 Q1200.88 48.3111 1204.2 51.4303 Q1207.56 54.509 1207.56 60.0587 Q1207.56 66.3781 1202.54 70.0644 Q1197.56 73.7508 1188.81 73.7508 Q1185.16 73.7508 1181.19 73.0216 Q1177.26 72.3329 1172.89 70.9151 L1172.89 63.2184 Q1177.02 65.3654 1181.03 66.4591 Q1185.04 67.5124 1188.97 67.5124 Q1194.23 67.5124 1197.07 65.73 Q1199.9 63.9071 1199.9 60.6258 Q1199.9 57.5877 1197.84 55.9673 Q1195.81 54.3469 1188.89 52.8481 L1186.29 52.2405 Q1179.37 50.7821 1176.29 47.7845 Q1173.21 44.7463 1173.21 39.4801 Q1173.21 33.0797 1177.75 29.5959 Q1182.28 26.1121 1190.63 26.1121 Q1194.76 26.1121 1198.41 26.7198 Q1202.05 27.3274 1205.13 28.5427 Z" fill="#000000" fill-rule="nonzero" fill-opacity="1" /><path clip-path="url(#clip320)" d="M1257.14 45.1919 L1257.14 72.576 L1249.69 72.576 L1249.69 45.4349 Q1249.69 38.994 1247.18 35.7938 Q1244.67 32.5936 1239.64 32.5936 Q1233.61 32.5936 1230.12 36.4419 Q1226.64 40.2903 1226.64 46.9338 L1226.64 72.576 L1219.15 72.576 L1219.15 9.54393 L1226.64 9.54393 L1226.64 34.2544 Q1229.31 30.163 1232.92 28.1376 Q1236.57 26.1121 1241.31 26.1121 Q1249.12 26.1121 1253.13 30.9732 Q1257.14 35.7938 1257.14 45.1919 Z" fill="#000000" fill-rule="nonzero" fill-opacity="1" /><path clip-path="url(#clip320)" d="M1272.01 27.2059 L1279.46 27.2059 L1279.46 72.576 L1272.01 72.576 L1272.01 27.2059 M1272.01 9.54393 L1279.46 9.54393 L1279.46 18.9825 L1272.01 18.9825 L1272.01 9.54393 Z" fill="#000000" fill-rule="nonzero" fill-opacity="1" /><path clip-path="url(#clip320)" d="M1302.27 65.7705 L1302.27 89.8329 L1294.78 89.8329 L1294.78 27.2059 L1302.27 27.2059 L1302.27 34.0924 Q1304.62 30.0415 1308.19 28.0971 Q1311.79 26.1121 1316.77 26.1121 Q1325.04 26.1121 1330.18 32.6746 Q1335.37 39.2371 1335.37 49.9314 Q1335.37 60.6258 1330.18 67.1883 Q1325.04 73.7508 1316.77 73.7508 Q1311.79 73.7508 1308.19 71.8063 Q1304.62 69.8214 1302.27 65.7705 M1327.63 49.9314 Q1327.63 41.7081 1324.23 37.0496 Q1320.86 32.3505 1314.95 32.3505 Q1309.04 32.3505 1305.63 37.0496 Q1302.27 41.7081 1302.27 49.9314 Q1302.27 58.1548 1305.63 62.8538 Q1309.04 67.5124 1314.95 67.5124 Q1320.86 67.5124 1324.23 62.8538 Q1327.63 58.1548 1327.63 49.9314 Z" fill="#000000" fill-rule="nonzero" fill-opacity="1" /><path clip-path="url(#clip320)" d="M1406.66 49.9314 Q1406.66 41.7081 1403.26 37.0496 Q1399.9 32.3505 1393.98 32.3505 Q1388.07 32.3505 1384.67 37.0496 Q1381.3 41.7081 1381.3 49.9314 Q1381.3 58.1548 1384.67 62.8538 Q1388.07 67.5124 1393.98 67.5124 Q1399.9 67.5124 1403.26 62.8538 Q1406.66 58.1548 1406.66 49.9314 M1381.3 34.0924 Q1383.65 30.0415 1387.22 28.0971 Q1390.82 26.1121 1395.81 26.1121 Q1404.07 26.1121 1409.22 32.6746 Q1414.4 39.2371 1414.4 49.9314 Q1414.4 60.6258 1409.22 67.1883 Q1404.07 73.7508 1395.81 73.7508 Q1390.82 73.7508 1387.22 71.8063 Q1383.65 69.8214 1381.3 65.7705 L1381.3 72.576 L1373.81 72.576 L1373.81 9.54393 L1381.3 9.54393 L1381.3 34.0924 Z" fill="#000000" fill-rule="nonzero" fill-opacity="1" /><path clip-path="url(#clip320)" d="M1445.63 76.7889 Q1442.47 84.8907 1439.48 87.3618 Q1436.48 89.8329 1431.45 89.8329 L1425.5 89.8329 L1425.5 83.5945 L1429.87 83.5945 Q1432.95 83.5945 1434.65 82.1361 Q1436.36 80.6778 1438.42 75.2496 L1439.76 71.8468 L1421.41 27.2059 L1429.31 27.2059 L1443.49 62.6918 L1457.66 27.2059 L1465.56 27.2059 L1445.63 76.7889 Z" fill="#000000" fill-rule="nonzero" fill-opacity="1" /><path clip-path="url(#clip320)" d="M1531.15 28.5427 L1531.15 35.5912 Q1527.99 33.9709 1524.58 33.1607 Q1521.18 32.3505 1517.54 32.3505 Q1511.99 32.3505 1509.19 34.0519 Q1506.44 35.7533 1506.44 39.156 Q1506.44 41.7486 1508.42 43.2475 Q1510.41 44.7058 1516.4 46.0426 L1518.95 46.6097 Q1526.89 48.3111 1530.22 51.4303 Q1533.58 54.509 1533.58 60.0587 Q1533.58 66.3781 1528.55 70.0644 Q1523.57 73.7508 1514.82 73.7508 Q1511.18 73.7508 1507.21 73.0216 Q1503.28 72.3329 1498.9 70.9151 L1498.9 63.2184 Q1503.03 65.3654 1507.04 66.4591 Q1511.05 67.5124 1514.98 67.5124 Q1520.25 67.5124 1523.09 65.73 Q1525.92 63.9071 1525.92 60.6258 Q1525.92 57.5877 1523.86 55.9673 Q1521.83 54.3469 1514.9 52.8481 L1512.31 52.2405 Q1505.38 50.7821 1502.3 47.7845 Q1499.23 44.7463 1499.23 39.4801 Q1499.23 33.0797 1503.76 29.5959 Q1508.3 26.1121 1516.65 26.1121 Q1520.78 26.1121 1524.42 26.7198 Q1528.07 27.3274 1531.15 28.5427 Z" fill="#000000" fill-rule="nonzero" fill-opacity="1" /><path clip-path="url(#clip320)" d="M1552.82 14.324 L1552.82 27.2059 L1568.17 27.2059 L1568.17 32.9987 L1552.82 32.9987 L1552.82 57.6282 Q1552.82 63.1779 1554.32 64.7578 Q1555.86 66.3376 1560.52 66.3376 L1568.17 66.3376 L1568.17 72.576 L1560.52 72.576 Q1551.89 72.576 1548.61 69.3758 Q1545.33 66.1351 1545.33 57.6282 L1545.33 32.9987 L1539.86 32.9987 L1539.86 27.2059 L1545.33 27.2059 L1545.33 14.324 L1552.82 14.324 Z" fill="#000000" fill-rule="nonzero" fill-opacity="1" /><path clip-path="url(#clip320)" d="M1598.59 49.7694 Q1589.56 49.7694 1586.08 51.8354 Q1582.59 53.9013 1582.59 58.8839 Q1582.59 62.8538 1585.19 65.2034 Q1587.82 67.5124 1592.32 67.5124 Q1598.51 67.5124 1602.24 63.1374 Q1606.01 58.7219 1606.01 51.4303 L1606.01 49.7694 L1598.59 49.7694 M1613.46 46.6907 L1613.46 72.576 L1606.01 72.576 L1606.01 65.6895 Q1603.46 69.8214 1599.65 71.8063 Q1595.84 73.7508 1590.33 73.7508 Q1583.36 73.7508 1579.23 69.8619 Q1575.14 65.9325 1575.14 59.3701 Q1575.14 51.7138 1580.24 47.825 Q1585.39 43.9361 1595.56 43.9361 L1606.01 43.9361 L1606.01 43.2069 Q1606.01 38.0623 1602.61 35.2672 Q1599.24 32.4315 1593.13 32.4315 Q1589.24 32.4315 1585.55 33.3632 Q1581.86 34.295 1578.46 36.1584 L1578.46 29.2718 Q1582.55 27.692 1586.4 26.9223 Q1590.25 26.1121 1593.9 26.1121 Q1603.74 26.1121 1608.6 31.2163 Q1613.46 36.3204 1613.46 46.6907 Z" fill="#000000" fill-rule="nonzero" fill-opacity="1" /><path clip-path="url(#clip320)" d="M1655.11 34.1734 Q1653.85 33.4443 1652.35 33.1202 Q1650.89 32.7556 1649.11 32.7556 Q1642.79 32.7556 1639.39 36.8875 Q1636.03 40.9789 1636.03 48.6757 L1636.03 72.576 L1628.53 72.576 L1628.53 27.2059 L1636.03 27.2059 L1636.03 34.2544 Q1638.37 30.1225 1642.14 28.1376 Q1645.91 26.1121 1651.3 26.1121 Q1652.07 26.1121 1653 26.2337 Q1653.93 26.3147 1655.06 26.5172 L1655.11 34.1734 Z" fill="#000000" fill-rule="nonzero" fill-opacity="1" /><path clip-path="url(#clip320)" d="M1670.3 14.324 L1670.3 27.2059 L1685.65 27.2059 L1685.65 32.9987 L1670.3 32.9987 L1670.3 57.6282 Q1670.3 63.1779 1671.79 64.7578 Q1673.33 66.3376 1677.99 66.3376 L1685.65 66.3376 L1685.65 72.576 L1677.99 72.576 Q1669.36 72.576 1666.08 69.3758 Q1662.8 66.1351 1662.8 57.6282 L1662.8 32.9987 L1657.33 32.9987 L1657.33 27.2059 L1662.8 27.2059 L1662.8 14.324 L1670.3 14.324 Z" fill="#000000" fill-rule="nonzero" fill-opacity="1" /><path clip-path="url(#clip320)" d="M1695.45 27.2059 L1702.91 27.2059 L1702.91 72.576 L1695.45 72.576 L1695.45 27.2059 M1695.45 9.54393 L1702.91 9.54393 L1702.91 18.9825 L1695.45 18.9825 L1695.45 9.54393 Z" fill="#000000" fill-rule="nonzero" fill-opacity="1" /><path clip-path="url(#clip320)" d="M1756.22 45.1919 L1756.22 72.576 L1748.76 72.576 L1748.76 45.4349 Q1748.76 38.994 1746.25 35.7938 Q1743.74 32.5936 1738.72 32.5936 Q1732.68 32.5936 1729.2 36.4419 Q1725.71 40.2903 1725.71 46.9338 L1725.71 72.576 L1718.22 72.576 L1718.22 27.2059 L1725.71 27.2059 L1725.71 34.2544 Q1728.39 30.163 1731.99 28.1376 Q1735.64 26.1121 1740.38 26.1121 Q1748.19 26.1121 1752.21 30.9732 Q1756.22 35.7938 1756.22 45.1919 Z" fill="#000000" fill-rule="nonzero" fill-opacity="1" /><path clip-path="url(#clip320)" d="M1800.94 49.3643 Q1800.94 41.2625 1797.58 36.8065 Q1794.25 32.3505 1788.22 32.3505 Q1782.22 32.3505 1778.86 36.8065 Q1775.54 41.2625 1775.54 49.3643 Q1775.54 57.4256 1778.86 61.8816 Q1782.22 66.3376 1788.22 66.3376 Q1794.25 66.3376 1797.58 61.8816 Q1800.94 57.4256 1800.94 49.3643 M1808.39 66.9452 Q1808.39 78.5308 1803.25 84.1616 Q1798.1 89.8329 1787.49 89.8329 Q1783.56 89.8329 1780.08 89.2252 Q1776.59 88.6581 1773.31 87.4428 L1773.31 80.1917 Q1776.59 81.9741 1779.79 82.8248 Q1782.99 83.6755 1786.31 83.6755 Q1793.65 83.6755 1797.29 79.8271 Q1800.94 76.0193 1800.94 68.282 L1800.94 64.5957 Q1798.63 68.6061 1795.02 70.5911 Q1791.42 72.576 1786.39 72.576 Q1778.05 72.576 1772.95 66.2161 Q1767.84 59.8562 1767.84 49.3643 Q1767.84 38.832 1772.95 32.472 Q1778.05 26.1121 1786.39 26.1121 Q1791.42 26.1121 1795.02 28.0971 Q1798.63 30.082 1800.94 34.0924 L1800.94 27.2059 L1808.39 27.2059 L1808.39 66.9452 Z" fill="#000000" fill-rule="nonzero" fill-opacity="1" /><path clip-path="url(#clip320)" d="M1879.04 28.5427 L1879.04 35.5912 Q1875.88 33.9709 1872.48 33.1607 Q1869.07 32.3505 1865.43 32.3505 Q1859.88 32.3505 1857.08 34.0519 Q1854.33 35.7533 1854.33 39.156 Q1854.33 41.7486 1856.31 43.2475 Q1858.3 44.7058 1864.29 46.0426 L1866.85 46.6097 Q1874.79 48.3111 1878.11 51.4303 Q1881.47 54.509 1881.47 60.0587 Q1881.47 66.3781 1876.45 70.0644 Q1871.46 73.7508 1862.71 73.7508 Q1859.07 73.7508 1855.1 73.0216 Q1851.17 72.3329 1846.79 70.9151 L1846.79 63.2184 Q1850.93 65.3654 1854.94 66.4591 Q1858.95 67.5124 1862.88 67.5124 Q1868.14 67.5124 1870.98 65.73 Q1873.81 63.9071 1873.81 60.6258 Q1873.81 57.5877 1871.75 55.9673 Q1869.72 54.3469 1862.79 52.8481 L1860.2 52.2405 Q1853.28 50.7821 1850.2 47.7845 Q1847.12 44.7463 1847.12 39.4801 Q1847.12 33.0797 1851.65 29.5959 Q1856.19 26.1121 1864.54 26.1121 Q1868.67 26.1121 1872.31 26.7198 Q1875.96 27.3274 1879.04 28.5427 Z" fill="#000000" fill-rule="nonzero" fill-opacity="1" /><path clip-path="url(#clip320)" d="M1900.71 14.324 L1900.71 27.2059 L1916.06 27.2059 L1916.06 32.9987 L1900.71 32.9987 L1900.71 57.6282 Q1900.71 63.1779 1902.21 64.7578 Q1903.75 66.3376 1908.41 66.3376 L1916.06 66.3376 L1916.06 72.576 L1908.41 72.576 Q1899.78 72.576 1896.5 69.3758 Q1893.22 66.1351 1893.22 57.6282 L1893.22 32.9987 L1887.75 32.9987 L1887.75 27.2059 L1893.22 27.2059 L1893.22 14.324 L1900.71 14.324 Z" fill="#000000" fill-rule="nonzero" fill-opacity="1" /><path clip-path="url(#clip320)" d="M1946.49 49.7694 Q1937.45 49.7694 1933.97 51.8354 Q1930.49 53.9013 1930.49 58.8839 Q1930.49 62.8538 1933.08 65.2034 Q1935.71 67.5124 1940.21 67.5124 Q1946.41 67.5124 1950.13 63.1374 Q1953.9 58.7219 1953.9 51.4303 L1953.9 49.7694 L1946.49 49.7694 M1961.35 46.6907 L1961.35 72.576 L1953.9 72.576 L1953.9 65.6895 Q1951.35 69.8214 1947.54 71.8063 Q1943.73 73.7508 1938.22 73.7508 Q1931.26 73.7508 1927.12 69.8619 Q1923.03 65.9325 1923.03 59.3701 Q1923.03 51.7138 1928.14 47.825 Q1933.28 43.9361 1943.45 43.9361 L1953.9 43.9361 L1953.9 43.2069 Q1953.9 38.0623 1950.5 35.2672 Q1947.13 32.4315 1941.02 32.4315 Q1937.13 32.4315 1933.44 33.3632 Q1929.76 34.295 1926.35 36.1584 L1926.35 29.2718 Q1930.44 27.692 1934.29 26.9223 Q1938.14 26.1121 1941.79 26.1121 Q1951.63 26.1121 1956.49 31.2163 Q1961.35 36.3204 1961.35 46.6907 Z" fill="#000000" fill-rule="nonzero" fill-opacity="1" /><path clip-path="url(#clip320)" d="M2006.56 49.3643 Q2006.56 41.2625 2003.2 36.8065 Q1999.88 32.3505 1993.84 32.3505 Q1987.85 32.3505 1984.48 36.8065 Q1981.16 41.2625 1981.16 49.3643 Q1981.16 57.4256 1984.48 61.8816 Q1987.85 66.3376 1993.84 66.3376 Q1999.88 66.3376 2003.2 61.8816 Q2006.56 57.4256 2006.56 49.3643 M2014.02 66.9452 Q2014.02 78.5308 2008.87 84.1616 Q2003.73 89.8329 1993.11 89.8329 Q1989.18 89.8329 1985.7 89.2252 Q1982.22 88.6581 1978.93 87.4428 L1978.93 80.1917 Q1982.22 81.9741 1985.42 82.8248 Q1988.62 83.6755 1991.94 83.6755 Q1999.27 83.6755 2002.92 79.8271 Q2006.56 76.0193 2006.56 68.282 L2006.56 64.5957 Q2004.25 68.6061 2000.65 70.5911 Q1997.04 72.576 1992.02 72.576 Q1983.67 72.576 1978.57 66.2161 Q1973.47 59.8562 1973.47 49.3643 Q1973.47 38.832 1978.57 32.472 Q1983.67 26.1121 1992.02 26.1121 Q1997.04 26.1121 2000.65 28.0971 Q2004.25 30.082 2006.56 34.0924 L2006.56 27.2059 L2014.02 27.2059 L2014.02 66.9452 Z" fill="#000000" fill-rule="nonzero" fill-opacity="1" /><path clip-path="url(#clip320)" d="M2068.18 48.0275 L2068.18 51.6733 L2033.91 51.6733 Q2034.39 59.3701 2038.52 63.421 Q2042.7 67.4314 2050.11 67.4314 Q2054.4 67.4314 2058.41 66.3781 Q2062.46 65.3249 2066.43 63.2184 L2066.43 70.267 Q2062.42 71.9684 2058.21 72.8596 Q2054 73.7508 2049.66 73.7508 Q2038.81 73.7508 2032.45 67.4314 Q2026.13 61.1119 2026.13 50.3365 Q2026.13 39.1965 2032.12 32.6746 Q2038.16 26.1121 2048.37 26.1121 Q2057.52 26.1121 2062.83 32.0264 Q2068.18 37.9003 2068.18 48.0275 M2060.72 45.84 Q2060.64 39.7232 2057.28 36.0774 Q2053.96 32.4315 2048.45 32.4315 Q2042.21 32.4315 2038.44 35.9558 Q2034.72 39.4801 2034.15 45.8805 L2060.72 45.84 Z" fill="#000000" fill-rule="nonzero" fill-opacity="1" /><polyline clip-path="url(#clip321)" style="stroke:#009af9; stroke-linecap:round; stroke-linejoin:round; stroke-width:8; stroke-opacity:1; fill:none" points="323.315,173.254 425.585,670.265 527.855,891.278 630.125,1070.41 732.395,1213.36 834.665,1326.08 936.935,1414.12 1039.21,1482.36 1141.48,1534.93 1243.75,1575.23 1346.02,1605.97 1448.29,1629.35 1550.56,1647.08 1652.83,1660.48 1755.1,1670.59 1857.37,1678.21 1959.64,1683.94 2061.91,1688.24 "/>
<polyline clip-path="url(#clip321)" style="stroke:#e26f46; stroke-linecap:round; stroke-linejoin:round; stroke-width:8; stroke-opacity:1; fill:none" points="323.315,173.254 425.585,500.826 527.855,766.327 630.125,978.2 732.395,1145.26 834.665,1275.75 936.935,1376.9 1039.21,1454.82 1141.48,1514.53 1243.75,1560.1 1346.02,1594.76 1448.29,1621.03 1550.56,1640.89 1652.83,1655.88 1755.1,1667.17 1857.37,1675.66 1959.64,1682.04 2061.91,1686.82 "/>
<polyline clip-path="url(#clip321)" style="stroke:#3da44d; stroke-linecap:round; stroke-linejoin:round; stroke-width:8; stroke-opacity:1; fill:none" points="323.315,173.254 425.585,668.737 527.855,1002.04 630.125,1226.56 732.395,1378.07 834.665,1480.49 936.935,1549.89 1039.21,1597.02 1141.48,1629.13 1243.75,1651.07 1346.02,1666.12 1448.29,1676.49 1550.56,1683.66 1652.83,1688.65 "/>
<polyline clip-path="url(#clip321)" style="stroke:#c271d2; stroke-linecap:round; stroke-linejoin:round; stroke-width:8; stroke-opacity:1; fill:none" points="323.315,173.254 425.585,566.677 527.855,853.522 630.125,1063.87 732.395,1219.05 834.665,1334.23 936.935,1420.26 1039.21,1484.93 1141.48,1533.83 1243.75,1571.03 1346.02,1599.5 1448.29,1621.41 1550.56,1638.36 1652.83,1651.54 1755.1,1661.83 1857.37,1669.9 1959.64,1676.26 2061.91,1681.27 2164.18,1685.25 2266.45,1688.41 "/>
<polyline clip-path="url(#clip321)" style="stroke:#ac8d18; stroke-linecap:round; stroke-linejoin:round; stroke-width:8; stroke-opacity:1; fill:none" points="323.315,173.254 425.585,464.922 527.855,700.91 630.125,891.848 732.395,1046.34 834.665,1171.33 936.935,1272.47 1039.21,1354.29 1141.48,1420.5 1243.75,1474.07 1346.02,1517.41 1448.29,1552.48 1550.56,1580.85 1652.83,1603.81 1755.1,1622.38 1857.37,1637.41 1959.64,1649.57 2061.91,1659.41 2164.18,1667.37 2266.45,1673.81 2368.72,1679.02 2470.99,1683.24 2573.26,1686.65 "/>
<path clip-path="url(#clip320)" d="M2005.34 492.376 L2561.26 492.376 L2561.26 181.336 L2005.34 181.336  Z" fill="#ffffff" fill-rule="evenodd" fill-opacity="1"/>
<polyline clip-path="url(#clip320)" style="stroke:#000000; stroke-linecap:round; stroke-linejoin:round; stroke-width:4; stroke-opacity:1; fill:none" points="2005.34,492.376 2561.26,492.376 2561.26,181.336 2005.34,181.336 2005.34,492.376 "/>
<polyline clip-path="url(#clip320)" style="stroke:#009af9; stroke-linecap:round; stroke-linejoin:round; stroke-width:8; stroke-opacity:1; fill:none" points="2031.83,233.176 2190.83,233.176 "/>
<path clip-path="url(#clip320)" d="M2217.33 215.896 L2239.18 215.896 L2239.18 219.831 L2222.01 219.831 L2222.01 230.063 L2238.46 230.063 L2238.46 233.998 L2222.01 233.998 L2222.01 246.521 L2239.6 246.521 L2239.6 250.456 L2217.33 250.456 L2217.33 215.896 Z" fill="#000000" fill-rule="nonzero" fill-opacity="1" /><path clip-path="url(#clip320)" d="M2264.16 237.192 Q2264.16 232.563 2262.24 230.017 Q2260.34 227.47 2256.89 227.47 Q2253.46 227.47 2251.54 230.017 Q2249.64 232.563 2249.64 237.192 Q2249.64 241.799 2251.54 244.345 Q2253.46 246.891 2256.89 246.891 Q2260.34 246.891 2262.24 244.345 Q2264.16 241.799 2264.16 237.192 M2268.42 247.239 Q2268.42 253.859 2265.48 257.077 Q2262.54 260.317 2256.47 260.317 Q2254.23 260.317 2252.24 259.97 Q2250.25 259.646 2248.37 258.952 L2248.37 254.808 Q2250.25 255.827 2252.07 256.313 Q2253.9 256.799 2255.8 256.799 Q2259.99 256.799 2262.07 254.6 Q2264.16 252.424 2264.16 248.003 L2264.16 245.896 Q2262.84 248.188 2260.78 249.322 Q2258.72 250.456 2255.85 250.456 Q2251.08 250.456 2248.16 246.822 Q2245.25 243.188 2245.25 237.192 Q2245.25 231.174 2248.16 227.54 Q2251.08 223.906 2255.85 223.906 Q2258.72 223.906 2260.78 225.04 Q2262.84 226.174 2264.16 228.466 L2264.16 224.531 L2268.42 224.531 L2268.42 247.239 Z" fill="#000000" fill-rule="nonzero" fill-opacity="1" /><path clip-path="url(#clip320)" d="M2294.25 237.192 Q2294.25 232.563 2292.33 230.017 Q2290.43 227.47 2286.98 227.47 Q2283.56 227.47 2281.63 230.017 Q2279.74 232.563 2279.74 237.192 Q2279.74 241.799 2281.63 244.345 Q2283.56 246.891 2286.98 246.891 Q2290.43 246.891 2292.33 244.345 Q2294.25 241.799 2294.25 237.192 M2298.51 247.239 Q2298.51 253.859 2295.57 257.077 Q2292.63 260.317 2286.57 260.317 Q2284.32 260.317 2282.33 259.97 Q2280.34 259.646 2278.46 258.952 L2278.46 254.808 Q2280.34 255.827 2282.17 256.313 Q2284 256.799 2285.89 256.799 Q2290.08 256.799 2292.17 254.6 Q2294.25 252.424 2294.25 248.003 L2294.25 245.896 Q2292.93 248.188 2290.87 249.322 Q2288.81 250.456 2285.94 250.456 Q2281.17 250.456 2278.26 246.822 Q2275.34 243.188 2275.34 237.192 Q2275.34 231.174 2278.26 227.54 Q2281.17 223.906 2285.94 223.906 Q2288.81 223.906 2290.87 225.04 Q2292.93 226.174 2294.25 228.466 L2294.25 224.531 L2298.51 224.531 L2298.51 247.239 Z" fill="#000000" fill-rule="nonzero" fill-opacity="1" /><path clip-path="url(#clip320)" d="M2314.85 215.896 L2318.79 215.896 L2306.75 254.854 L2302.82 254.854 L2314.85 215.896 Z" fill="#000000" fill-rule="nonzero" fill-opacity="1" /><path clip-path="url(#clip320)" d="M2344.81 234.808 L2344.81 250.456 L2340.55 250.456 L2340.55 234.947 Q2340.55 231.267 2339.11 229.438 Q2337.68 227.609 2334.81 227.609 Q2331.36 227.609 2329.37 229.808 Q2327.38 232.007 2327.38 235.804 L2327.38 250.456 L2323.09 250.456 L2323.09 214.438 L2327.38 214.438 L2327.38 228.558 Q2328.9 226.22 2330.96 225.063 Q2333.05 223.906 2335.76 223.906 Q2340.22 223.906 2342.51 226.683 Q2344.81 229.438 2344.81 234.808 Z" fill="#000000" fill-rule="nonzero" fill-opacity="1" /><path clip-path="url(#clip320)" d="M2365.08 237.424 Q2359.92 237.424 2357.93 238.604 Q2355.94 239.785 2355.94 242.632 Q2355.94 244.901 2357.42 246.243 Q2358.93 247.563 2361.5 247.563 Q2365.04 247.563 2367.17 245.063 Q2369.32 242.54 2369.32 238.373 L2369.32 237.424 L2365.08 237.424 M2373.58 235.665 L2373.58 250.456 L2369.32 250.456 L2369.32 246.521 Q2367.86 248.882 2365.69 250.016 Q2363.51 251.128 2360.36 251.128 Q2356.38 251.128 2354.02 248.905 Q2351.68 246.66 2351.68 242.91 Q2351.68 238.535 2354.6 236.313 Q2357.54 234.091 2363.35 234.091 L2369.32 234.091 L2369.32 233.674 Q2369.32 230.734 2367.38 229.137 Q2365.45 227.517 2361.96 227.517 Q2359.74 227.517 2357.63 228.049 Q2355.52 228.581 2353.58 229.646 L2353.58 225.711 Q2355.92 224.808 2358.12 224.368 Q2360.32 223.906 2362.4 223.906 Q2368.02 223.906 2370.8 226.822 Q2373.58 229.739 2373.58 235.665 Z" fill="#000000" fill-rule="nonzero" fill-opacity="1" /><path clip-path="url(#clip320)" d="M2386.56 217.169 L2386.56 224.531 L2395.34 224.531 L2395.34 227.841 L2386.56 227.841 L2386.56 241.915 Q2386.56 245.086 2387.42 245.989 Q2388.3 246.891 2390.96 246.891 L2395.34 246.891 L2395.34 250.456 L2390.96 250.456 Q2386.03 250.456 2384.16 248.628 Q2382.28 246.776 2382.28 241.915 L2382.28 227.841 L2379.16 227.841 L2379.16 224.531 L2382.28 224.531 L2382.28 217.169 L2386.56 217.169 Z" fill="#000000" fill-rule="nonzero" fill-opacity="1" /><path clip-path="url(#clip320)" d="M2419.6 225.526 L2419.6 229.507 Q2417.79 228.512 2415.96 228.026 Q2414.16 227.517 2412.31 227.517 Q2408.16 227.517 2405.87 230.155 Q2403.58 232.771 2403.58 237.517 Q2403.58 242.262 2405.87 244.901 Q2408.16 247.516 2412.31 247.516 Q2414.16 247.516 2415.96 247.03 Q2417.79 246.521 2419.6 245.526 L2419.6 249.461 Q2417.81 250.294 2415.89 250.711 Q2414 251.128 2411.84 251.128 Q2405.99 251.128 2402.54 247.447 Q2399.09 243.767 2399.09 237.517 Q2399.09 231.174 2402.56 227.54 Q2406.06 223.906 2412.12 223.906 Q2414.09 223.906 2415.96 224.322 Q2417.84 224.716 2419.6 225.526 Z" fill="#000000" fill-rule="nonzero" fill-opacity="1" /><path clip-path="url(#clip320)" d="M2448.56 234.808 L2448.56 250.456 L2444.3 250.456 L2444.3 234.947 Q2444.3 231.267 2442.86 229.438 Q2441.43 227.609 2438.56 227.609 Q2435.11 227.609 2433.12 229.808 Q2431.12 232.007 2431.12 235.804 L2431.12 250.456 L2426.84 250.456 L2426.84 214.438 L2431.12 214.438 L2431.12 228.558 Q2432.65 226.22 2434.71 225.063 Q2436.8 223.906 2439.5 223.906 Q2443.97 223.906 2446.26 226.683 Q2448.56 229.438 2448.56 234.808 Z" fill="#000000" fill-rule="nonzero" fill-opacity="1" /><path clip-path="url(#clip320)" d="M2457.05 214.438 L2461.31 214.438 L2461.31 250.456 L2457.05 250.456 L2457.05 214.438 Z" fill="#000000" fill-rule="nonzero" fill-opacity="1" /><path clip-path="url(#clip320)" d="M2470.22 224.531 L2474.48 224.531 L2474.48 250.456 L2470.22 250.456 L2470.22 224.531 M2470.22 214.438 L2474.48 214.438 L2474.48 219.831 L2470.22 219.831 L2470.22 214.438 Z" fill="#000000" fill-rule="nonzero" fill-opacity="1" /><path clip-path="url(#clip320)" d="M2504.94 234.808 L2504.94 250.456 L2500.68 250.456 L2500.68 234.947 Q2500.68 231.267 2499.25 229.438 Q2497.81 227.609 2494.94 227.609 Q2491.49 227.609 2489.5 229.808 Q2487.51 232.007 2487.51 235.804 L2487.51 250.456 L2483.23 250.456 L2483.23 224.531 L2487.51 224.531 L2487.51 228.558 Q2489.04 226.22 2491.1 225.063 Q2493.18 223.906 2495.89 223.906 Q2500.36 223.906 2502.65 226.683 Q2504.94 229.438 2504.94 234.808 Z" fill="#000000" fill-rule="nonzero" fill-opacity="1" /><path clip-path="url(#clip320)" d="M2530.5 237.192 Q2530.5 232.563 2528.58 230.017 Q2526.68 227.47 2523.23 227.47 Q2519.8 227.47 2517.88 230.017 Q2515.99 232.563 2515.99 237.192 Q2515.99 241.799 2517.88 244.345 Q2519.8 246.891 2523.23 246.891 Q2526.68 246.891 2528.58 244.345 Q2530.5 241.799 2530.5 237.192 M2534.76 247.239 Q2534.76 253.859 2531.82 257.077 Q2528.88 260.317 2522.81 260.317 Q2520.57 260.317 2518.58 259.97 Q2516.59 259.646 2514.71 258.952 L2514.71 254.808 Q2516.59 255.827 2518.42 256.313 Q2520.24 256.799 2522.14 256.799 Q2526.33 256.799 2528.42 254.6 Q2530.5 252.424 2530.5 248.003 L2530.5 245.896 Q2529.18 248.188 2527.12 249.322 Q2525.06 250.456 2522.19 250.456 Q2517.42 250.456 2514.5 246.822 Q2511.59 243.188 2511.59 237.192 Q2511.59 231.174 2514.5 227.54 Q2517.42 223.906 2522.19 223.906 Q2525.06 223.906 2527.12 225.04 Q2529.18 226.174 2530.5 228.466 L2530.5 224.531 L2534.76 224.531 L2534.76 247.239 Z" fill="#000000" fill-rule="nonzero" fill-opacity="1" /><polyline clip-path="url(#clip320)" style="stroke:#e26f46; stroke-linecap:round; stroke-linejoin:round; stroke-width:8; stroke-opacity:1; fill:none" points="2031.83,285.016 2190.83,285.016 "/>
<path clip-path="url(#clip320)" d="M2239.57 268.871 L2239.57 273.431 Q2236.91 272.158 2234.55 271.533 Q2232.19 270.908 2229.99 270.908 Q2226.17 270.908 2224.09 272.389 Q2222.03 273.871 2222.03 276.602 Q2222.03 278.894 2223.39 280.074 Q2224.78 281.232 2228.63 281.949 L2231.45 282.528 Q2236.68 283.523 2239.16 286.046 Q2241.66 288.546 2241.66 292.759 Q2241.66 297.782 2238.28 300.375 Q2234.92 302.968 2228.42 302.968 Q2225.96 302.968 2223.19 302.412 Q2220.43 301.856 2217.47 300.769 L2217.47 295.954 Q2220.32 297.551 2223.05 298.361 Q2225.78 299.171 2228.42 299.171 Q2232.42 299.171 2234.6 297.597 Q2236.77 296.023 2236.77 293.107 Q2236.77 290.56 2235.2 289.125 Q2233.65 287.69 2230.08 286.972 L2227.24 286.417 Q2222.01 285.375 2219.67 283.153 Q2217.33 280.931 2217.33 276.972 Q2217.33 272.389 2220.55 269.75 Q2223.79 267.111 2229.46 267.111 Q2231.89 267.111 2234.41 267.551 Q2236.94 267.991 2239.57 268.871 Z" fill="#000000" fill-rule="nonzero" fill-opacity="1" /><path clip-path="url(#clip320)" d="M2268.95 281.347 Q2270.55 278.477 2272.77 277.111 Q2274.99 275.746 2278 275.746 Q2282.05 275.746 2284.25 278.593 Q2286.45 281.417 2286.45 286.648 L2286.45 302.296 L2282.17 302.296 L2282.17 286.787 Q2282.17 283.06 2280.85 281.255 Q2279.53 279.449 2276.82 279.449 Q2273.51 279.449 2271.59 281.648 Q2269.67 283.847 2269.67 287.644 L2269.67 302.296 L2265.39 302.296 L2265.39 286.787 Q2265.39 283.037 2264.07 281.255 Q2262.75 279.449 2259.99 279.449 Q2256.73 279.449 2254.81 281.671 Q2252.89 283.87 2252.89 287.644 L2252.89 302.296 L2248.6 302.296 L2248.6 276.371 L2252.89 276.371 L2252.89 280.398 Q2254.34 278.014 2256.38 276.88 Q2258.42 275.746 2261.22 275.746 Q2264.04 275.746 2266.01 277.181 Q2268 278.616 2268.95 281.347 Z" fill="#000000" fill-rule="nonzero" fill-opacity="1" /><path clip-path="url(#clip320)" d="M2306.73 289.264 Q2301.57 289.264 2299.57 290.444 Q2297.58 291.625 2297.58 294.472 Q2297.58 296.741 2299.07 298.083 Q2300.57 299.403 2303.14 299.403 Q2306.68 299.403 2308.81 296.903 Q2310.96 294.38 2310.96 290.213 L2310.96 289.264 L2306.73 289.264 M2315.22 287.505 L2315.22 302.296 L2310.96 302.296 L2310.96 298.361 Q2309.51 300.722 2307.33 301.856 Q2305.15 302.968 2302.01 302.968 Q2298.02 302.968 2295.66 300.745 Q2293.32 298.5 2293.32 294.75 Q2293.32 290.375 2296.24 288.153 Q2299.18 285.931 2304.99 285.931 L2310.96 285.931 L2310.96 285.514 Q2310.96 282.574 2309.02 280.977 Q2307.1 279.357 2303.6 279.357 Q2301.38 279.357 2299.27 279.889 Q2297.17 280.421 2295.22 281.486 L2295.22 277.551 Q2297.56 276.648 2299.76 276.208 Q2301.96 275.746 2304.04 275.746 Q2309.67 275.746 2312.44 278.662 Q2315.22 281.579 2315.22 287.505 Z" fill="#000000" fill-rule="nonzero" fill-opacity="1" /><path clip-path="url(#clip320)" d="M2324 266.278 L2328.26 266.278 L2328.26 302.296 L2324 302.296 L2324 266.278 Z" fill="#000000" fill-rule="nonzero" fill-opacity="1" /><path clip-path="url(#clip320)" d="M2337.17 266.278 L2341.43 266.278 L2341.43 302.296 L2337.17 302.296 L2337.17 266.278 Z" fill="#000000" fill-rule="nonzero" fill-opacity="1" /><path clip-path="url(#clip320)" d="M2365.41 276.371 L2369.67 276.371 L2369.67 302.759 Q2369.67 307.713 2367.77 309.935 Q2365.89 312.157 2361.7 312.157 L2360.08 312.157 L2360.08 308.546 L2361.22 308.546 Q2363.65 308.546 2364.53 307.412 Q2365.41 306.301 2365.41 302.759 L2365.41 276.371 M2365.41 266.278 L2369.67 266.278 L2369.67 271.671 L2365.41 271.671 L2365.41 266.278 Z" fill="#000000" fill-rule="nonzero" fill-opacity="1" /><path clip-path="url(#clip320)" d="M2378.14 292.065 L2378.14 276.371 L2382.4 276.371 L2382.4 291.903 Q2382.4 295.583 2383.83 297.435 Q2385.27 299.264 2388.14 299.264 Q2391.59 299.264 2393.58 297.065 Q2395.59 294.866 2395.59 291.069 L2395.59 276.371 L2399.85 276.371 L2399.85 302.296 L2395.59 302.296 L2395.59 298.315 Q2394.04 300.676 2391.98 301.833 Q2389.94 302.968 2387.24 302.968 Q2382.77 302.968 2380.45 300.19 Q2378.14 297.412 2378.14 292.065 M2388.86 275.746 L2388.86 275.746 Z" fill="#000000" fill-rule="nonzero" fill-opacity="1" /><path clip-path="url(#clip320)" d="M2405.57 276.371 L2410.08 276.371 L2418.19 298.13 L2426.29 276.371 L2430.8 276.371 L2421.08 302.296 L2415.29 302.296 L2405.57 276.371 Z" fill="#000000" fill-rule="nonzero" fill-opacity="1" /><polyline clip-path="url(#clip320)" style="stroke:#3da44d; stroke-linecap:round; stroke-linejoin:round; stroke-width:8; stroke-opacity:1; fill:none" points="2031.83,336.856 2190.83,336.856 "/>
<path clip-path="url(#clip320)" d="M2217.33 319.576 L2222.01 319.576 L2222.01 350.201 L2238.83 350.201 L2238.83 354.136 L2217.33 354.136 L2217.33 319.576 Z" fill="#000000" fill-rule="nonzero" fill-opacity="1" /><path clip-path="url(#clip320)" d="M2255.34 341.104 Q2250.18 341.104 2248.19 342.284 Q2246.2 343.465 2246.2 346.312 Q2246.2 348.581 2247.68 349.923 Q2249.18 351.243 2251.75 351.243 Q2255.29 351.243 2257.42 348.743 Q2259.57 346.22 2259.57 342.053 L2259.57 341.104 L2255.34 341.104 M2263.83 339.345 L2263.83 354.136 L2259.57 354.136 L2259.57 350.201 Q2258.12 352.562 2255.94 353.696 Q2253.76 354.808 2250.62 354.808 Q2246.64 354.808 2244.27 352.585 Q2241.94 350.34 2241.94 346.59 Q2241.94 342.215 2244.85 339.993 Q2247.79 337.771 2253.6 337.771 L2259.57 337.771 L2259.57 337.354 Q2259.57 334.414 2257.63 332.817 Q2255.71 331.197 2252.21 331.197 Q2249.99 331.197 2247.89 331.729 Q2245.78 332.261 2243.83 333.326 L2243.83 329.391 Q2246.17 328.488 2248.37 328.048 Q2250.57 327.586 2252.65 327.586 Q2258.28 327.586 2261.06 330.502 Q2263.83 333.419 2263.83 339.345 Z" fill="#000000" fill-rule="nonzero" fill-opacity="1" /><path clip-path="url(#clip320)" d="M2287.63 332.192 Q2286.91 331.775 2286.06 331.59 Q2285.22 331.382 2284.2 331.382 Q2280.59 331.382 2278.65 333.743 Q2276.73 336.081 2276.73 340.479 L2276.73 354.136 L2272.45 354.136 L2272.45 328.211 L2276.73 328.211 L2276.73 332.238 Q2278.07 329.877 2280.22 328.743 Q2282.38 327.586 2285.45 327.586 Q2285.89 327.586 2286.43 327.655 Q2286.96 327.701 2287.61 327.817 L2287.63 332.192 Z" fill="#000000" fill-rule="nonzero" fill-opacity="1" /><path clip-path="url(#clip320)" d="M2308.32 340.872 Q2308.32 336.243 2306.4 333.697 Q2304.51 331.15 2301.06 331.15 Q2297.63 331.15 2295.71 333.697 Q2293.81 336.243 2293.81 340.872 Q2293.81 345.479 2295.71 348.025 Q2297.63 350.571 2301.06 350.571 Q2304.51 350.571 2306.4 348.025 Q2308.32 345.479 2308.32 340.872 M2312.58 350.919 Q2312.58 357.539 2309.64 360.757 Q2306.7 363.997 2300.64 363.997 Q2298.39 363.997 2296.4 363.65 Q2294.41 363.326 2292.54 362.632 L2292.54 358.488 Q2294.41 359.507 2296.24 359.993 Q2298.07 360.479 2299.97 360.479 Q2304.16 360.479 2306.24 358.28 Q2308.32 356.104 2308.32 351.683 L2308.32 349.576 Q2307.01 351.868 2304.95 353.002 Q2302.88 354.136 2300.01 354.136 Q2295.25 354.136 2292.33 350.502 Q2289.41 346.868 2289.41 340.872 Q2289.41 334.854 2292.33 331.22 Q2295.25 327.586 2300.01 327.586 Q2302.88 327.586 2304.95 328.72 Q2307.01 329.854 2308.32 332.146 L2308.32 328.211 L2312.58 328.211 L2312.58 350.919 Z" fill="#000000" fill-rule="nonzero" fill-opacity="1" /><path clip-path="url(#clip320)" d="M2343.53 340.109 L2343.53 342.192 L2323.95 342.192 Q2324.23 346.59 2326.59 348.905 Q2328.97 351.196 2333.21 351.196 Q2335.66 351.196 2337.95 350.595 Q2340.27 349.993 2342.54 348.789 L2342.54 352.817 Q2340.25 353.789 2337.84 354.298 Q2335.43 354.808 2332.95 354.808 Q2326.75 354.808 2323.12 351.196 Q2319.51 347.585 2319.51 341.428 Q2319.51 335.062 2322.93 331.335 Q2326.38 327.586 2332.21 327.586 Q2337.44 327.586 2340.48 330.965 Q2343.53 334.322 2343.53 340.109 M2339.27 338.859 Q2339.23 335.363 2337.31 333.28 Q2335.41 331.197 2332.26 331.197 Q2328.69 331.197 2326.54 333.21 Q2324.41 335.224 2324.09 338.882 L2339.27 338.859 Z" fill="#000000" fill-rule="nonzero" fill-opacity="1" /><path clip-path="url(#clip320)" d="M2365.59 328.211 L2369.85 328.211 L2369.85 354.599 Q2369.85 359.553 2367.95 361.775 Q2366.08 363.997 2361.89 363.997 L2360.27 363.997 L2360.27 360.386 L2361.4 360.386 Q2363.83 360.386 2364.71 359.252 Q2365.59 358.141 2365.59 354.599 L2365.59 328.211 M2365.59 318.118 L2369.85 318.118 L2369.85 323.511 L2365.59 323.511 L2365.59 318.118 Z" fill="#000000" fill-rule="nonzero" fill-opacity="1" /><path clip-path="url(#clip320)" d="M2378.32 343.905 L2378.32 328.211 L2382.58 328.211 L2382.58 343.743 Q2382.58 347.423 2384.02 349.275 Q2385.45 351.104 2388.32 351.104 Q2391.77 351.104 2393.76 348.905 Q2395.78 346.706 2395.78 342.909 L2395.78 328.211 L2400.04 328.211 L2400.04 354.136 L2395.78 354.136 L2395.78 350.155 Q2394.23 352.516 2392.17 353.673 Q2390.13 354.808 2387.42 354.808 Q2382.95 354.808 2380.64 352.03 Q2378.32 349.252 2378.32 343.905 M2389.04 327.586 L2389.04 327.586 Z" fill="#000000" fill-rule="nonzero" fill-opacity="1" /><path clip-path="url(#clip320)" d="M2405.75 328.211 L2410.27 328.211 L2418.37 349.97 L2426.47 328.211 L2430.99 328.211 L2421.26 354.136 L2415.48 354.136 L2405.75 328.211 Z" fill="#000000" fill-rule="nonzero" fill-opacity="1" /><polyline clip-path="url(#clip320)" style="stroke:#c271d2; stroke-linecap:round; stroke-linejoin:round; stroke-width:8; stroke-opacity:1; fill:none" points="2031.83,388.696 2190.83,388.696 "/>
<path clip-path="url(#clip320)" d="M2239.57 372.551 L2239.57 377.111 Q2236.91 375.838 2234.55 375.213 Q2232.19 374.588 2229.99 374.588 Q2226.17 374.588 2224.09 376.069 Q2222.03 377.551 2222.03 380.282 Q2222.03 382.574 2223.39 383.754 Q2224.78 384.912 2228.63 385.629 L2231.45 386.208 Q2236.68 387.203 2239.16 389.726 Q2241.66 392.226 2241.66 396.439 Q2241.66 401.462 2238.28 404.055 Q2234.92 406.648 2228.42 406.648 Q2225.96 406.648 2223.19 406.092 Q2220.43 405.536 2217.47 404.449 L2217.47 399.634 Q2220.32 401.231 2223.05 402.041 Q2225.78 402.851 2228.42 402.851 Q2232.42 402.851 2234.6 401.277 Q2236.77 399.703 2236.77 396.787 Q2236.77 394.24 2235.2 392.805 Q2233.65 391.37 2230.08 390.652 L2227.24 390.097 Q2222.01 389.055 2219.67 386.833 Q2217.33 384.611 2217.33 380.652 Q2217.33 376.069 2220.55 373.43 Q2223.79 370.791 2229.46 370.791 Q2231.89 370.791 2234.41 371.231 Q2236.94 371.671 2239.57 372.551 Z" fill="#000000" fill-rule="nonzero" fill-opacity="1" /><path clip-path="url(#clip320)" d="M2248.32 395.745 L2248.32 380.051 L2252.58 380.051 L2252.58 395.583 Q2252.58 399.263 2254.02 401.115 Q2255.45 402.944 2258.32 402.944 Q2261.77 402.944 2263.76 400.745 Q2265.78 398.546 2265.78 394.749 L2265.78 380.051 L2270.04 380.051 L2270.04 405.976 L2265.78 405.976 L2265.78 401.995 Q2264.23 404.356 2262.17 405.513 Q2260.13 406.648 2257.42 406.648 Q2252.95 406.648 2250.64 403.87 Q2248.32 401.092 2248.32 395.745 M2259.04 379.426 L2259.04 379.426 Z" fill="#000000" fill-rule="nonzero" fill-opacity="1" /><path clip-path="url(#clip320)" d="M2297.42 393.037 Q2297.42 388.337 2295.48 385.675 Q2293.56 382.99 2290.18 382.99 Q2286.8 382.99 2284.85 385.675 Q2282.93 388.337 2282.93 393.037 Q2282.93 397.736 2284.85 400.421 Q2286.8 403.083 2290.18 403.083 Q2293.56 403.083 2295.48 400.421 Q2297.42 397.736 2297.42 393.037 M2282.93 383.986 Q2284.27 381.671 2286.31 380.56 Q2288.37 379.426 2291.22 379.426 Q2295.94 379.426 2298.88 383.175 Q2301.84 386.925 2301.84 393.037 Q2301.84 399.148 2298.88 402.898 Q2295.94 406.648 2291.22 406.648 Q2288.37 406.648 2286.31 405.536 Q2284.27 404.402 2282.93 402.087 L2282.93 405.976 L2278.65 405.976 L2278.65 369.958 L2282.93 369.958 L2282.93 383.986 Z" fill="#000000" fill-rule="nonzero" fill-opacity="1" /><path clip-path="url(#clip320)" d="M2320.69 392.944 Q2315.52 392.944 2313.53 394.124 Q2311.54 395.305 2311.54 398.152 Q2311.54 400.421 2313.02 401.763 Q2314.53 403.083 2317.1 403.083 Q2320.64 403.083 2322.77 400.583 Q2324.92 398.06 2324.92 393.893 L2324.92 392.944 L2320.69 392.944 M2329.18 391.185 L2329.18 405.976 L2324.92 405.976 L2324.92 402.041 Q2323.46 404.402 2321.29 405.536 Q2319.11 406.648 2315.96 406.648 Q2311.98 406.648 2309.62 404.425 Q2307.28 402.18 2307.28 398.43 Q2307.28 394.055 2310.2 391.833 Q2313.14 389.611 2318.95 389.611 L2324.92 389.611 L2324.92 389.194 Q2324.92 386.254 2322.98 384.657 Q2321.06 383.037 2317.56 383.037 Q2315.34 383.037 2313.23 383.569 Q2311.13 384.101 2309.18 385.166 L2309.18 381.231 Q2311.52 380.328 2313.72 379.888 Q2315.92 379.426 2318 379.426 Q2323.63 379.426 2326.4 382.342 Q2329.18 385.259 2329.18 391.185 Z" fill="#000000" fill-rule="nonzero" fill-opacity="1" /><path clip-path="url(#clip320)" d="M2355.01 383.986 L2355.01 369.958 L2359.27 369.958 L2359.27 405.976 L2355.01 405.976 L2355.01 402.087 Q2353.67 404.402 2351.61 405.536 Q2349.57 406.648 2346.7 406.648 Q2342 406.648 2339.04 402.898 Q2336.1 399.148 2336.1 393.037 Q2336.1 386.925 2339.04 383.175 Q2342 379.426 2346.7 379.426 Q2349.57 379.426 2351.61 380.56 Q2353.67 381.671 2355.01 383.986 M2340.5 393.037 Q2340.5 397.736 2342.42 400.421 Q2344.37 403.083 2347.75 403.083 Q2351.13 403.083 2353.07 400.421 Q2355.01 397.736 2355.01 393.037 Q2355.01 388.337 2353.07 385.675 Q2351.13 382.99 2347.75 382.99 Q2344.37 382.99 2342.42 385.675 Q2340.5 388.337 2340.5 393.037 Z" fill="#000000" fill-rule="nonzero" fill-opacity="1" /><path clip-path="url(#clip320)" d="M2367.61 395.745 L2367.61 380.051 L2371.87 380.051 L2371.87 395.583 Q2371.87 399.263 2373.3 401.115 Q2374.74 402.944 2377.61 402.944 Q2381.06 402.944 2383.05 400.745 Q2385.06 398.546 2385.06 394.749 L2385.06 380.051 L2389.32 380.051 L2389.32 405.976 L2385.06 405.976 L2385.06 401.995 Q2383.51 404.356 2381.45 405.513 Q2379.41 406.648 2376.7 406.648 Q2372.24 406.648 2369.92 403.87 Q2367.61 401.092 2367.61 395.745 M2378.32 379.426 L2378.32 379.426 Z" fill="#000000" fill-rule="nonzero" fill-opacity="1" /><path clip-path="url(#clip320)" d="M2398.09 369.958 L2402.35 369.958 L2402.35 405.976 L2398.09 405.976 L2398.09 369.958 Z" fill="#000000" fill-rule="nonzero" fill-opacity="1" /><path clip-path="url(#clip320)" d="M2415.48 372.689 L2415.48 380.051 L2424.25 380.051 L2424.25 383.361 L2415.48 383.361 L2415.48 397.435 Q2415.48 400.606 2416.33 401.509 Q2417.21 402.411 2419.87 402.411 L2424.25 402.411 L2424.25 405.976 L2419.87 405.976 Q2414.94 405.976 2413.07 404.148 Q2411.19 402.296 2411.19 397.435 L2411.19 383.361 L2408.07 383.361 L2408.07 380.051 L2411.19 380.051 L2411.19 372.689 L2415.48 372.689 Z" fill="#000000" fill-rule="nonzero" fill-opacity="1" /><polyline clip-path="url(#clip320)" style="stroke:#ac8d18; stroke-linecap:round; stroke-linejoin:round; stroke-width:8; stroke-opacity:1; fill:none" points="2031.83,440.536 2190.83,440.536 "/>
<path clip-path="url(#clip320)" d="M2233.16 427.863 L2226.82 445.062 L2239.53 445.062 L2233.16 427.863 M2230.52 423.256 L2235.83 423.256 L2249 457.816 L2244.14 457.816 L2240.99 448.951 L2225.41 448.951 L2222.26 457.816 L2217.33 457.816 L2230.52 423.256 Z" fill="#000000" fill-rule="nonzero" fill-opacity="1" /><path clip-path="url(#clip320)" d="M2270.08 435.826 L2270.08 421.798 L2274.34 421.798 L2274.34 457.816 L2270.08 457.816 L2270.08 453.927 Q2268.74 456.242 2266.68 457.376 Q2264.64 458.488 2261.77 458.488 Q2257.07 458.488 2254.11 454.738 Q2251.17 450.988 2251.17 444.877 Q2251.17 438.765 2254.11 435.015 Q2257.07 431.266 2261.77 431.266 Q2264.64 431.266 2266.68 432.4 Q2268.74 433.511 2270.08 435.826 M2255.57 444.877 Q2255.57 449.576 2257.49 452.261 Q2259.44 454.923 2262.82 454.923 Q2266.2 454.923 2268.14 452.261 Q2270.08 449.576 2270.08 444.877 Q2270.08 440.177 2268.14 437.515 Q2266.2 434.83 2262.82 434.83 Q2259.44 434.83 2257.49 437.515 Q2255.57 440.177 2255.57 444.877 Z" fill="#000000" fill-rule="nonzero" fill-opacity="1" /><path clip-path="url(#clip320)" d="M2282.68 447.585 L2282.68 431.891 L2286.94 431.891 L2286.94 447.423 Q2286.94 451.103 2288.37 452.955 Q2289.81 454.784 2292.68 454.784 Q2296.13 454.784 2298.12 452.585 Q2300.13 450.386 2300.13 446.589 L2300.13 431.891 L2304.39 431.891 L2304.39 457.816 L2300.13 457.816 L2300.13 453.835 Q2298.58 456.196 2296.52 457.353 Q2294.48 458.488 2291.77 458.488 Q2287.31 458.488 2284.99 455.71 Q2282.68 452.932 2282.68 447.585 M2293.39 431.266 L2293.39 431.266 Z" fill="#000000" fill-rule="nonzero" fill-opacity="1" /><path clip-path="url(#clip320)" d="M2313.16 421.798 L2317.42 421.798 L2317.42 457.816 L2313.16 457.816 L2313.16 421.798 Z" fill="#000000" fill-rule="nonzero" fill-opacity="1" /><path clip-path="url(#clip320)" d="M2330.55 424.529 L2330.55 431.891 L2339.32 431.891 L2339.32 435.201 L2330.55 435.201 L2330.55 449.275 Q2330.55 452.446 2331.4 453.349 Q2332.28 454.251 2334.94 454.251 L2339.32 454.251 L2339.32 457.816 L2334.94 457.816 Q2330.01 457.816 2328.14 455.988 Q2326.26 454.136 2326.26 449.275 L2326.26 435.201 L2323.14 435.201 L2323.14 431.891 L2326.26 431.891 L2326.26 424.529 L2330.55 424.529 Z" fill="#000000" fill-rule="nonzero" fill-opacity="1" /></svg>
