<?xml version="1.0" encoding="utf-8"?>
<svg xmlns="http://www.w3.org/2000/svg" xmlns:xlink="http://www.w3.org/1999/xlink" width="672" height="480" viewBox="0 0 2688 1920">
<defs>
  <clipPath id="clip170">
    <rect x="0" y="0" width="2688" height="1920"/>
  </clipPath>
</defs>
<path clip-path="url(#clip170)" d="M0 1920 L2688 1920 L2688 -4.26326e-14 L0 -4.26326e-14  Z" fill="#ffffff" fill-rule="evenodd" fill-opacity="1"/>
<defs>
  <clipPath id="clip171">
    <rect x="226" y="127" width="2416" height="1607"/>
  </clipPath>
</defs>
<path clip-path="url(#clip170)" d="M226.141 1734.12 L2640.76 1734.12 L2640.76 127.792 L226.141 127.792  Z" fill="#ffffff" fill-rule="evenodd" fill-opacity="1"/>
<polyline clip-path="url(#clip171)" style="stroke:#000000; stroke-linecap:round; stroke-linejoin:round; stroke-width:2; stroke-opacity:0.1; fill:none" points="294.479,1734.12 294.479,127.792 "/>
<polyline clip-path="url(#clip171)" style="stroke:#000000; stroke-linecap:round; stroke-linejoin:round; stroke-width:2; stroke-opacity:0.1; fill:none" points="964.461,1734.12 964.461,127.792 "/>
<polyline clip-path="url(#clip171)" style="stroke:#000000; stroke-linecap:round; stroke-linejoin:round; stroke-width:2; stroke-opacity:0.1; fill:none" points="1634.44,1734.12 1634.44,127.792 "/>
<polyline clip-path="url(#clip171)" style="stroke:#000000; stroke-linecap:round; stroke-linejoin:round; stroke-width:2; stroke-opacity:0.1; fill:none" points="2304.42,1734.12 2304.42,127.792 "/>
<polyline clip-path="url(#clip171)" style="stroke:#000000; stroke-linecap:round; stroke-linejoin:round; stroke-width:2; stroke-opacity:0.1; fill:none" points="226.141,1688.65 2640.76,1688.65 "/>
<polyline clip-path="url(#clip171)" style="stroke:#000000; stroke-linecap:round; stroke-linejoin:round; stroke-width:2; stroke-opacity:0.1; fill:none" points="226.141,1302.86 2640.76,1302.86 "/>
<polyline clip-path="url(#clip171)" style="stroke:#000000; stroke-linecap:round; stroke-linejoin:round; stroke-width:2; stroke-opacity:0.1; fill:none" points="226.141,917.066 2640.76,917.066 "/>
<polyline clip-path="url(#clip171)" style="stroke:#000000; stroke-linecap:round; stroke-linejoin:round; stroke-width:2; stroke-opacity:0.1; fill:none" points="226.141,531.271 2640.76,531.271 "/>
<polyline clip-path="url(#clip171)" style="stroke:#000000; stroke-linecap:round; stroke-linejoin:round; stroke-width:2; stroke-opacity:0.1; fill:none" points="226.141,145.477 2640.76,145.477 "/>
<polyline clip-path="url(#clip170)" style="stroke:#000000; stroke-linecap:round; stroke-linejoin:round; stroke-width:4; stroke-opacity:1; fill:none" points="226.141,1734.12 2640.76,1734.12 "/>
<polyline clip-path="url(#clip170)" style="stroke:#000000; stroke-linecap:round; stroke-linejoin:round; stroke-width:4; stroke-opacity:1; fill:none" points="294.479,1734.12 294.479,1715.22 "/>
<polyline clip-path="url(#clip170)" style="stroke:#000000; stroke-linecap:round; stroke-linejoin:round; stroke-width:4; stroke-opacity:1; fill:none" points="964.461,1734.12 964.461,1715.22 "/>
<polyline clip-path="url(#clip170)" style="stroke:#000000; stroke-linecap:round; stroke-linejoin:round; stroke-width:4; stroke-opacity:1; fill:none" points="1634.44,1734.12 1634.44,1715.22 "/>
<polyline clip-path="url(#clip170)" style="stroke:#000000; stroke-linecap:round; stroke-linejoin:round; stroke-width:4; stroke-opacity:1; fill:none" points="2304.42,1734.12 2304.42,1715.22 "/>
<path clip-path="url(#clip170)" d="M294.479 1767.34 Q290.868 1767.34 289.039 1770.9 Q287.233 1774.45 287.233 1781.58 Q287.233 1788.68 289.039 1792.25 Q290.868 1795.79 294.479 1795.79 Q298.113 1795.79 299.919 1792.25 Q301.747 1788.68 301.747 1781.58 Q301.747 1774.45 299.919 1770.9 Q298.113 1767.34 294.479 1767.34 M294.479 1763.64 Q300.289 1763.64 303.344 1768.24 Q306.423 1772.83 306.423 1781.58 Q306.423 1790.3 303.344 1794.91 Q300.289 1799.49 294.479 1799.49 Q288.669 1799.49 285.59 1794.91 Q282.534 1790.3 282.534 1781.58 Q282.534 1772.83 285.59 1768.24 Q288.669 1763.64 294.479 1763.64 Z" fill="#000000" fill-rule="nonzero" fill-opacity="1" /><path clip-path="url(#clip170)" d="M954.739 1764.26 L973.095 1764.26 L973.095 1768.2 L959.021 1768.2 L959.021 1776.67 Q960.04 1776.32 961.058 1776.16 Q962.077 1775.97 963.095 1775.97 Q968.882 1775.97 972.262 1779.15 Q975.641 1782.32 975.641 1787.73 Q975.641 1793.31 972.169 1796.41 Q968.697 1799.49 962.377 1799.49 Q960.202 1799.49 957.933 1799.12 Q955.688 1798.75 953.28 1798.01 L953.28 1793.31 Q955.364 1794.45 957.586 1795 Q959.808 1795.56 962.285 1795.56 Q966.289 1795.56 968.627 1793.45 Q970.965 1791.34 970.965 1787.73 Q970.965 1784.12 968.627 1782.02 Q966.289 1779.91 962.285 1779.91 Q960.41 1779.91 958.535 1780.33 Q956.683 1780.74 954.739 1781.62 L954.739 1764.26 Z" fill="#000000" fill-rule="nonzero" fill-opacity="1" /><path clip-path="url(#clip170)" d="M1609.13 1794.89 L1616.77 1794.89 L1616.77 1768.52 L1608.46 1770.19 L1608.46 1765.93 L1616.72 1764.26 L1621.4 1764.26 L1621.4 1794.89 L1629.04 1794.89 L1629.04 1798.82 L1609.13 1798.82 L1609.13 1794.89 Z" fill="#000000" fill-rule="nonzero" fill-opacity="1" /><path clip-path="url(#clip170)" d="M1648.48 1767.34 Q1644.87 1767.34 1643.04 1770.9 Q1641.24 1774.45 1641.24 1781.58 Q1641.24 1788.68 1643.04 1792.25 Q1644.87 1795.79 1648.48 1795.79 Q1652.12 1795.79 1653.92 1792.25 Q1655.75 1788.68 1655.75 1781.58 Q1655.75 1774.45 1653.92 1770.9 Q1652.12 1767.34 1648.48 1767.34 M1648.48 1763.64 Q1654.29 1763.64 1657.35 1768.24 Q1660.43 1772.83 1660.43 1781.58 Q1660.43 1790.3 1657.35 1794.91 Q1654.29 1799.49 1648.48 1799.49 Q1642.67 1799.49 1639.59 1794.91 Q1636.54 1790.3 1636.54 1781.58 Q1636.54 1772.83 1639.59 1768.24 Q1642.67 1763.64 1648.48 1763.64 Z" fill="#000000" fill-rule="nonzero" fill-opacity="1" /><path clip-path="url(#clip170)" d="M2279.61 1794.89 L2287.25 1794.89 L2287.25 1768.52 L2278.94 1770.19 L2278.94 1765.93 L2287.2 1764.26 L2291.88 1764.26 L2291.88 1794.89 L2299.52 1794.89 L2299.52 1798.82 L2279.61 1798.82 L2279.61 1794.89 Z" fill="#000000" fill-rule="nonzero" fill-opacity="1" /><path clip-path="url(#clip170)" d="M2309.01 1764.26 L2327.36 1764.26 L2327.36 1768.2 L2313.29 1768.2 L2313.29 1776.67 Q2314.31 1776.32 2315.33 1776.16 Q2316.35 1775.97 2317.36 1775.97 Q2323.15 1775.97 2326.53 1779.15 Q2329.91 1782.32 2329.91 1787.73 Q2329.91 1793.31 2326.44 1796.41 Q2322.97 1799.49 2316.65 1799.49 Q2314.47 1799.49 2312.2 1799.12 Q2309.96 1798.75 2307.55 1798.01 L2307.55 1793.31 Q2309.63 1794.45 2311.86 1795 Q2314.08 1795.56 2316.55 1795.56 Q2320.56 1795.56 2322.9 1793.45 Q2325.23 1791.34 2325.23 1787.73 Q2325.23 1784.12 2322.9 1782.02 Q2320.56 1779.91 2316.55 1779.91 Q2314.68 1779.91 2312.8 1780.33 Q2310.95 1780.74 2309.01 1781.62 L2309.01 1764.26 Z" fill="#000000" fill-rule="nonzero" fill-opacity="1" /><path clip-path="url(#clip170)" d="M1269.75 1842.11 L1261.03 1865.76 L1278.51 1865.76 L1269.75 1842.11 M1266.13 1835.78 L1273.41 1835.78 L1291.52 1883.3 L1284.84 1883.3 L1280.51 1871.11 L1259.09 1871.11 L1254.76 1883.3 L1247.98 1883.3 L1266.13 1835.78 Z" fill="#000000" fill-rule="nonzero" fill-opacity="1" /><path clip-path="url(#clip170)" d="M1321.67 1865.06 Q1321.67 1858.7 1319.02 1855.2 Q1316.41 1851.7 1311.67 1851.7 Q1306.96 1851.7 1304.32 1855.2 Q1301.71 1858.7 1301.71 1865.06 Q1301.71 1871.4 1304.32 1874.9 Q1306.96 1878.4 1311.67 1878.4 Q1316.41 1878.4 1319.02 1874.9 Q1321.67 1871.4 1321.67 1865.06 M1327.52 1878.88 Q1327.52 1887.98 1323.48 1892.4 Q1319.44 1896.86 1311.1 1896.86 Q1308.01 1896.86 1305.27 1896.38 Q1302.54 1895.94 1299.96 1894.98 L1299.96 1889.28 Q1302.54 1890.69 1305.05 1891.35 Q1307.57 1892.02 1310.18 1892.02 Q1315.94 1892.02 1318.8 1889 Q1321.67 1886.01 1321.67 1879.93 L1321.67 1877.03 Q1319.85 1880.18 1317.02 1881.74 Q1314.19 1883.3 1310.24 1883.3 Q1303.68 1883.3 1299.67 1878.3 Q1295.66 1873.31 1295.66 1865.06 Q1295.66 1856.79 1299.67 1851.79 Q1303.68 1846.79 1310.24 1846.79 Q1314.19 1846.79 1317.02 1848.35 Q1319.85 1849.91 1321.67 1853.06 L1321.67 1847.65 L1327.52 1847.65 L1327.52 1878.88 Z" fill="#000000" fill-rule="nonzero" fill-opacity="1" /><path clip-path="url(#clip170)" d="M1370.08 1864.01 L1370.08 1866.88 L1343.15 1866.88 Q1343.53 1872.92 1346.78 1876.11 Q1350.06 1879.26 1355.88 1879.26 Q1359.26 1879.26 1362.41 1878.43 Q1365.59 1877.6 1368.71 1875.95 L1368.71 1881.49 Q1365.56 1882.82 1362.25 1883.52 Q1358.94 1884.22 1355.53 1884.22 Q1347 1884.22 1342 1879.26 Q1337.04 1874.29 1337.04 1865.83 Q1337.04 1857.07 1341.75 1851.95 Q1346.49 1846.79 1354.51 1846.79 Q1361.71 1846.79 1365.88 1851.44 Q1370.08 1856.06 1370.08 1864.01 M1364.22 1862.29 Q1364.16 1857.49 1361.52 1854.62 Q1358.91 1851.76 1354.58 1851.76 Q1349.68 1851.76 1346.72 1854.53 Q1343.79 1857.3 1343.34 1862.33 L1364.22 1862.29 Z" fill="#000000" fill-rule="nonzero" fill-opacity="1" /><path clip-path="url(#clip170)" d="M1414.48 1833.84 Q1410.21 1841.16 1408.14 1848.32 Q1406.08 1855.48 1406.08 1862.84 Q1406.08 1870.19 1408.14 1877.41 Q1410.25 1884.61 1414.48 1891.89 L1409.39 1891.89 Q1404.61 1884.41 1402.22 1877.19 Q1399.87 1869.96 1399.87 1862.84 Q1399.87 1855.74 1402.22 1848.54 Q1404.58 1841.35 1409.39 1833.84 L1414.48 1833.84 Z" fill="#000000" fill-rule="nonzero" fill-opacity="1" /><path clip-path="url(#clip170)" d="M1440.67 1886.61 Q1438.19 1892.98 1435.84 1894.92 Q1433.48 1896.86 1429.53 1896.86 L1424.85 1896.86 L1424.85 1891.96 L1428.29 1891.96 Q1430.71 1891.96 1432.05 1890.81 Q1433.38 1889.67 1435.01 1885.4 L1436.06 1882.73 L1421.64 1847.65 L1427.85 1847.65 L1438.99 1875.53 L1450.13 1847.65 L1456.33 1847.65 L1440.67 1886.61 Z" fill="#000000" fill-rule="nonzero" fill-opacity="1" /><path clip-path="url(#clip170)" d="M1494.91 1864.01 L1494.91 1866.88 L1467.98 1866.88 Q1468.36 1872.92 1471.61 1876.11 Q1474.89 1879.26 1480.71 1879.26 Q1484.09 1879.26 1487.24 1878.43 Q1490.42 1877.6 1493.54 1875.95 L1493.54 1881.49 Q1490.39 1882.82 1487.08 1883.52 Q1483.77 1884.22 1480.36 1884.22 Q1471.83 1884.22 1466.84 1879.26 Q1461.87 1874.29 1461.87 1865.83 Q1461.87 1857.07 1466.58 1851.95 Q1471.32 1846.79 1479.34 1846.79 Q1486.54 1846.79 1490.71 1851.44 Q1494.91 1856.06 1494.91 1864.01 M1489.05 1862.29 Q1488.99 1857.49 1486.35 1854.62 Q1483.74 1851.76 1479.41 1851.76 Q1474.51 1851.76 1471.55 1854.53 Q1468.62 1857.3 1468.17 1862.33 L1489.05 1862.29 Z" fill="#000000" fill-rule="nonzero" fill-opacity="1" /><path clip-path="url(#clip170)" d="M1520.72 1865.38 Q1513.62 1865.38 1510.89 1867 Q1508.15 1868.63 1508.15 1872.54 Q1508.15 1875.66 1510.19 1877.51 Q1512.26 1879.32 1515.79 1879.32 Q1520.66 1879.32 1523.59 1875.88 Q1526.55 1872.42 1526.55 1866.69 L1526.55 1865.38 L1520.72 1865.38 M1532.4 1862.96 L1532.4 1883.3 L1526.55 1883.3 L1526.55 1877.89 Q1524.54 1881.14 1521.55 1882.7 Q1518.56 1884.22 1514.23 1884.22 Q1508.75 1884.22 1505.51 1881.17 Q1502.29 1878.08 1502.29 1872.92 Q1502.29 1866.91 1506.3 1863.85 Q1510.35 1860.8 1518.33 1860.8 L1526.55 1860.8 L1526.55 1860.23 Q1526.55 1856.18 1523.87 1853.99 Q1521.23 1851.76 1516.43 1851.76 Q1513.37 1851.76 1510.47 1852.49 Q1507.58 1853.22 1504.9 1854.69 L1504.9 1849.28 Q1508.12 1848.03 1511.14 1847.43 Q1514.17 1846.79 1517.03 1846.79 Q1524.76 1846.79 1528.58 1850.8 Q1532.4 1854.81 1532.4 1862.96 Z" fill="#000000" fill-rule="nonzero" fill-opacity="1" /><path clip-path="url(#clip170)" d="M1565.12 1853.13 Q1564.14 1852.55 1562.96 1852.3 Q1561.81 1852.01 1560.41 1852.01 Q1555.45 1852.01 1552.77 1855.26 Q1550.13 1858.47 1550.13 1864.52 L1550.13 1883.3 L1544.24 1883.3 L1544.24 1847.65 L1550.13 1847.65 L1550.13 1853.19 Q1551.98 1849.94 1554.94 1848.39 Q1557.9 1846.79 1562.13 1846.79 Q1562.74 1846.79 1563.47 1846.89 Q1564.2 1846.95 1565.09 1847.11 L1565.12 1853.13 Z" fill="#000000" fill-rule="nonzero" fill-opacity="1" /><path clip-path="url(#clip170)" d="M1593.99 1848.7 L1593.99 1854.24 Q1591.51 1852.97 1588.84 1852.33 Q1586.16 1851.7 1583.3 1851.7 Q1578.94 1851.7 1576.74 1853.03 Q1574.58 1854.37 1574.58 1857.04 Q1574.58 1859.08 1576.14 1860.26 Q1577.7 1861.4 1582.41 1862.45 L1584.41 1862.9 Q1590.65 1864.24 1593.26 1866.69 Q1595.9 1869.11 1595.9 1873.47 Q1595.9 1878.43 1591.95 1881.33 Q1588.04 1884.22 1581.16 1884.22 Q1578.3 1884.22 1575.18 1883.65 Q1572.09 1883.11 1568.66 1882 L1568.66 1875.95 Q1571.9 1877.64 1575.05 1878.49 Q1578.2 1879.32 1581.29 1879.32 Q1585.43 1879.32 1587.66 1877.92 Q1589.89 1876.49 1589.89 1873.91 Q1589.89 1871.52 1588.26 1870.25 Q1586.67 1868.98 1581.23 1867.8 L1579.19 1867.32 Q1573.75 1866.18 1571.33 1863.82 Q1568.91 1861.43 1568.91 1857.3 Q1568.91 1852.27 1572.48 1849.53 Q1576.04 1846.79 1582.6 1846.79 Q1585.84 1846.79 1588.71 1847.27 Q1591.57 1847.75 1593.99 1848.7 Z" fill="#000000" fill-rule="nonzero" fill-opacity="1" /><path clip-path="url(#clip170)" d="M1604.3 1833.84 L1609.4 1833.84 Q1614.17 1841.35 1616.53 1848.54 Q1618.91 1855.74 1618.91 1862.84 Q1618.91 1869.96 1616.53 1877.19 Q1614.17 1884.41 1609.4 1891.89 L1604.3 1891.89 Q1608.54 1884.61 1610.61 1877.41 Q1612.71 1870.19 1612.71 1862.84 Q1612.71 1855.48 1610.61 1848.32 Q1608.54 1841.16 1604.3 1833.84 Z" fill="#000000" fill-rule="nonzero" fill-opacity="1" /><polyline clip-path="url(#clip170)" style="stroke:#000000; stroke-linecap:round; stroke-linejoin:round; stroke-width:4; stroke-opacity:1; fill:none" points="226.141,1734.12 226.141,127.792 "/>
<polyline clip-path="url(#clip170)" style="stroke:#000000; stroke-linecap:round; stroke-linejoin:round; stroke-width:4; stroke-opacity:1; fill:none" points="226.141,1688.65 245.038,1688.65 "/>
<polyline clip-path="url(#clip170)" style="stroke:#000000; stroke-linecap:round; stroke-linejoin:round; stroke-width:4; stroke-opacity:1; fill:none" points="226.141,1302.86 245.038,1302.86 "/>
<polyline clip-path="url(#clip170)" style="stroke:#000000; stroke-linecap:round; stroke-linejoin:round; stroke-width:4; stroke-opacity:1; fill:none" points="226.141,917.066 245.038,917.066 "/>
<polyline clip-path="url(#clip170)" style="stroke:#000000; stroke-linecap:round; stroke-linejoin:round; stroke-width:4; stroke-opacity:1; fill:none" points="226.141,531.271 245.038,531.271 "/>
<polyline clip-path="url(#clip170)" style="stroke:#000000; stroke-linecap:round; stroke-linejoin:round; stroke-width:4; stroke-opacity:1; fill:none" points="226.141,145.477 245.038,145.477 "/>
<path clip-path="url(#clip170)" d="M128.645 1674.45 Q125.034 1674.45 123.205 1678.02 Q121.4 1681.56 121.4 1688.69 Q121.4 1695.8 123.205 1699.36 Q125.034 1702.9 128.645 1702.9 Q132.279 1702.9 134.085 1699.36 Q135.913 1695.8 135.913 1688.69 Q135.913 1681.56 134.085 1678.02 Q132.279 1674.45 128.645 1674.45 M128.645 1670.75 Q134.455 1670.75 137.511 1675.36 Q140.589 1679.94 140.589 1688.69 Q140.589 1697.42 137.511 1702.02 Q134.455 1706.61 128.645 1706.61 Q122.835 1706.61 119.756 1702.02 Q116.701 1697.42 116.701 1688.69 Q116.701 1679.94 119.756 1675.36 Q122.835 1670.75 128.645 1670.75 Z" fill="#000000" fill-rule="nonzero" fill-opacity="1" /><path clip-path="url(#clip170)" d="M148.807 1700.06 L153.691 1700.06 L153.691 1705.93 L148.807 1705.93 L148.807 1700.06 Z" fill="#000000" fill-rule="nonzero" fill-opacity="1" /><path clip-path="url(#clip170)" d="M173.876 1674.45 Q170.265 1674.45 168.436 1678.02 Q166.631 1681.56 166.631 1688.69 Q166.631 1695.8 168.436 1699.36 Q170.265 1702.9 173.876 1702.9 Q177.51 1702.9 179.316 1699.36 Q181.145 1695.8 181.145 1688.69 Q181.145 1681.56 179.316 1678.02 Q177.51 1674.45 173.876 1674.45 M173.876 1670.75 Q179.686 1670.75 182.742 1675.36 Q185.821 1679.94 185.821 1688.69 Q185.821 1697.42 182.742 1702.02 Q179.686 1706.61 173.876 1706.61 Q168.066 1706.61 164.987 1702.02 Q161.932 1697.42 161.932 1688.69 Q161.932 1679.94 164.987 1675.36 Q168.066 1670.75 173.876 1670.75 Z" fill="#000000" fill-rule="nonzero" fill-opacity="1" /><path clip-path="url(#clip170)" d="M130.242 1288.66 Q126.631 1288.66 124.802 1292.22 Q122.997 1295.77 122.997 1302.9 Q122.997 1310 124.802 1313.57 Q126.631 1317.11 130.242 1317.11 Q133.876 1317.11 135.682 1313.57 Q137.511 1310 137.511 1302.9 Q137.511 1295.77 135.682 1292.22 Q133.876 1288.66 130.242 1288.66 M130.242 1284.96 Q136.052 1284.96 139.108 1289.56 Q142.187 1294.15 142.187 1302.9 Q142.187 1311.62 139.108 1316.23 Q136.052 1320.81 130.242 1320.81 Q124.432 1320.81 121.353 1316.23 Q118.298 1311.62 118.298 1302.9 Q118.298 1294.15 121.353 1289.56 Q124.432 1284.96 130.242 1284.96 Z" fill="#000000" fill-rule="nonzero" fill-opacity="1" /><path clip-path="url(#clip170)" d="M150.404 1314.26 L155.288 1314.26 L155.288 1320.14 L150.404 1320.14 L150.404 1314.26 Z" fill="#000000" fill-rule="nonzero" fill-opacity="1" /><path clip-path="url(#clip170)" d="M169.501 1316.21 L185.821 1316.21 L185.821 1320.14 L163.876 1320.14 L163.876 1316.21 Q166.538 1313.45 171.122 1308.82 Q175.728 1304.17 176.909 1302.83 Q179.154 1300.3 180.034 1298.57 Q180.936 1296.81 180.936 1295.12 Q180.936 1292.36 178.992 1290.63 Q177.071 1288.89 173.969 1288.89 Q171.77 1288.89 169.316 1289.65 Q166.885 1290.42 164.108 1291.97 L164.108 1287.25 Q166.932 1286.11 169.385 1285.53 Q171.839 1284.96 173.876 1284.96 Q179.247 1284.96 182.441 1287.64 Q185.635 1290.33 185.635 1294.82 Q185.635 1296.95 184.825 1298.87 Q184.038 1300.77 181.932 1303.36 Q181.353 1304.03 178.251 1307.25 Q175.149 1310.44 169.501 1316.21 Z" fill="#000000" fill-rule="nonzero" fill-opacity="1" /><path clip-path="url(#clip170)" d="M128.159 902.865 Q124.548 902.865 122.719 906.429 Q120.913 909.971 120.913 917.101 Q120.913 924.207 122.719 927.772 Q124.548 931.314 128.159 931.314 Q131.793 931.314 133.599 927.772 Q135.427 924.207 135.427 917.101 Q135.427 909.971 133.599 906.429 Q131.793 902.865 128.159 902.865 M128.159 899.161 Q133.969 899.161 137.025 903.767 Q140.103 908.351 140.103 917.101 Q140.103 925.827 137.025 930.434 Q133.969 935.017 128.159 935.017 Q122.349 935.017 119.27 930.434 Q116.214 925.827 116.214 917.101 Q116.214 908.351 119.27 903.767 Q122.349 899.161 128.159 899.161 Z" fill="#000000" fill-rule="nonzero" fill-opacity="1" /><path clip-path="url(#clip170)" d="M148.321 928.466 L153.205 928.466 L153.205 934.346 L148.321 934.346 L148.321 928.466 Z" fill="#000000" fill-rule="nonzero" fill-opacity="1" /><path clip-path="url(#clip170)" d="M176.237 903.86 L164.432 922.309 L176.237 922.309 L176.237 903.86 M175.01 899.786 L180.89 899.786 L180.89 922.309 L185.821 922.309 L185.821 926.198 L180.89 926.198 L180.89 934.346 L176.237 934.346 L176.237 926.198 L160.636 926.198 L160.636 921.684 L175.01 899.786 Z" fill="#000000" fill-rule="nonzero" fill-opacity="1" /><path clip-path="url(#clip170)" d="M128.483 517.07 Q124.872 517.07 123.043 520.635 Q121.238 524.177 121.238 531.306 Q121.238 538.413 123.043 541.977 Q124.872 545.519 128.483 545.519 Q132.117 545.519 133.923 541.977 Q135.751 538.413 135.751 531.306 Q135.751 524.177 133.923 520.635 Q132.117 517.07 128.483 517.07 M128.483 513.366 Q134.293 513.366 137.349 517.973 Q140.427 522.556 140.427 531.306 Q140.427 540.033 137.349 544.639 Q134.293 549.223 128.483 549.223 Q122.673 549.223 119.594 544.639 Q116.539 540.033 116.539 531.306 Q116.539 522.556 119.594 517.973 Q122.673 513.366 128.483 513.366 Z" fill="#000000" fill-rule="nonzero" fill-opacity="1" /><path clip-path="url(#clip170)" d="M148.645 542.672 L153.529 542.672 L153.529 548.551 L148.645 548.551 L148.645 542.672 Z" fill="#000000" fill-rule="nonzero" fill-opacity="1" /><path clip-path="url(#clip170)" d="M174.293 529.408 Q171.145 529.408 169.293 531.561 Q167.464 533.714 167.464 537.464 Q167.464 541.19 169.293 543.366 Q171.145 545.519 174.293 545.519 Q177.441 545.519 179.27 543.366 Q181.122 541.19 181.122 537.464 Q181.122 533.714 179.27 531.561 Q177.441 529.408 174.293 529.408 M183.575 514.755 L183.575 519.015 Q181.816 518.181 180.01 517.741 Q178.228 517.302 176.469 517.302 Q171.839 517.302 169.385 520.427 Q166.955 523.552 166.608 529.871 Q167.973 527.857 170.034 526.792 Q172.094 525.704 174.571 525.704 Q179.779 525.704 182.788 528.876 Q185.821 532.024 185.821 537.464 Q185.821 542.788 182.672 546.005 Q179.524 549.223 174.293 549.223 Q168.297 549.223 165.126 544.639 Q161.955 540.033 161.955 531.306 Q161.955 523.112 165.844 518.251 Q169.733 513.366 176.284 513.366 Q178.043 513.366 179.825 513.714 Q181.631 514.061 183.575 514.755 Z" fill="#000000" fill-rule="nonzero" fill-opacity="1" /><path clip-path="url(#clip170)" d="M128.738 131.276 Q125.126 131.276 123.298 134.84 Q121.492 138.382 121.492 145.512 Q121.492 152.618 123.298 156.183 Q125.126 159.725 128.738 159.725 Q132.372 159.725 134.177 156.183 Q136.006 152.618 136.006 145.512 Q136.006 138.382 134.177 134.84 Q132.372 131.276 128.738 131.276 M128.738 127.572 Q134.548 127.572 137.603 132.178 Q140.682 136.762 140.682 145.512 Q140.682 154.238 137.603 158.845 Q134.548 163.428 128.738 163.428 Q122.927 163.428 119.849 158.845 Q116.793 154.238 116.793 145.512 Q116.793 136.762 119.849 132.178 Q122.927 127.572 128.738 127.572 Z" fill="#000000" fill-rule="nonzero" fill-opacity="1" /><path clip-path="url(#clip170)" d="M148.899 156.877 L153.784 156.877 L153.784 162.757 L148.899 162.757 L148.899 156.877 Z" fill="#000000" fill-rule="nonzero" fill-opacity="1" /><path clip-path="url(#clip170)" d="M173.969 146.345 Q170.635 146.345 168.714 148.127 Q166.816 149.91 166.816 153.035 Q166.816 156.16 168.714 157.942 Q170.635 159.725 173.969 159.725 Q177.302 159.725 179.223 157.942 Q181.145 156.137 181.145 153.035 Q181.145 149.91 179.223 148.127 Q177.325 146.345 173.969 146.345 M169.293 144.354 Q166.284 143.614 164.594 141.553 Q162.927 139.493 162.927 136.53 Q162.927 132.387 165.867 129.979 Q168.83 127.572 173.969 127.572 Q179.131 127.572 182.071 129.979 Q185.01 132.387 185.01 136.53 Q185.01 139.493 183.321 141.553 Q181.654 143.614 178.668 144.354 Q182.047 145.141 183.922 147.433 Q185.821 149.725 185.821 153.035 Q185.821 158.058 182.742 160.743 Q179.686 163.428 173.969 163.428 Q168.251 163.428 165.173 160.743 Q162.117 158.058 162.117 153.035 Q162.117 149.725 164.015 147.433 Q165.913 145.141 169.293 144.354 M167.58 136.97 Q167.58 139.655 169.247 141.16 Q170.936 142.664 173.969 142.664 Q176.978 142.664 178.668 141.16 Q180.381 139.655 180.381 136.97 Q180.381 134.285 178.668 132.78 Q176.978 131.276 173.969 131.276 Q170.936 131.276 169.247 132.78 Q167.58 134.285 167.58 136.97 Z" fill="#000000" fill-rule="nonzero" fill-opacity="1" /><path clip-path="url(#clip170)" d="M15.678 1286.85 L21.9483 1286.85 Q20.1977 1290.51 19.3383 1293.75 Q18.479 1297 18.479 1300.02 Q18.479 1305.27 20.516 1308.14 Q22.553 1310.97 26.3088 1310.97 Q29.4598 1310.97 31.0831 1309.09 Q32.6745 1307.18 33.6612 1301.9 L34.4569 1298.02 Q35.8255 1290.82 39.2948 1287.42 Q42.7323 1283.98 48.5251 1283.98 Q55.4319 1283.98 58.9967 1288.63 Q62.5615 1293.24 62.5615 1302.19 Q62.5615 1305.56 61.7976 1309.38 Q61.0337 1313.17 59.5378 1317.24 L52.9174 1317.24 Q55.1136 1313.33 56.2276 1309.57 Q57.3416 1305.82 57.3416 1302.19 Q57.3416 1296.68 55.1773 1293.69 Q53.0129 1290.7 49.0025 1290.7 Q45.5014 1290.7 43.528 1292.86 Q41.5546 1294.99 40.568 1299.89 L39.8041 1303.81 Q38.3718 1311 35.3162 1314.22 Q32.2607 1317.43 26.818 1317.43 Q20.516 1317.43 16.8875 1313.01 Q13.2591 1308.55 13.2591 1300.75 Q13.2591 1297.41 13.8638 1293.94 Q14.4686 1290.47 15.678 1286.85 Z" fill="#000000" fill-rule="nonzero" fill-opacity="1" /><path clip-path="url(#clip170)" d="M47.5702 1274.81 L25.9905 1274.81 L25.9905 1268.96 L47.3474 1268.96 Q52.4082 1268.96 54.9545 1266.98 Q57.4689 1265.01 57.4689 1261.06 Q57.4689 1256.32 54.4452 1253.58 Q51.4215 1250.82 46.2016 1250.82 L25.9905 1250.82 L25.9905 1244.96 L61.6384 1244.96 L61.6384 1250.82 L56.1639 1250.82 Q59.4104 1252.95 61.0019 1255.78 Q62.5615 1258.58 62.5615 1262.31 Q62.5615 1268.45 58.742 1271.63 Q54.9226 1274.81 47.5702 1274.81 M25.1311 1260.08 L25.1311 1260.08 Z" fill="#000000" fill-rule="nonzero" fill-opacity="1" /><path clip-path="url(#clip170)" d="M31.465 1212.24 Q30.8921 1213.23 30.6375 1214.4 Q30.351 1215.55 30.351 1216.95 Q30.351 1221.92 33.5975 1224.59 Q36.8122 1227.23 42.8596 1227.23 L61.6384 1227.23 L61.6384 1233.12 L25.9905 1233.12 L25.9905 1227.23 L31.5287 1227.23 Q28.2821 1225.38 26.7225 1222.42 Q25.1311 1219.46 25.1311 1215.23 Q25.1311 1214.63 25.2266 1213.89 Q25.2903 1213.16 25.4494 1212.27 L31.465 1212.24 Z" fill="#000000" fill-rule="nonzero" fill-opacity="1" /><path clip-path="url(#clip170)" d="M25.9905 1210.3 L25.9905 1204.09 L55.9093 1192.95 L25.9905 1181.81 L25.9905 1175.6 L61.6384 1188.97 L61.6384 1196.93 L25.9905 1210.3 Z" fill="#000000" fill-rule="nonzero" fill-opacity="1" /><path clip-path="url(#clip170)" d="M25.9905 1167.52 L25.9905 1161.66 L61.6384 1161.66 L61.6384 1167.52 L25.9905 1167.52 M12.1132 1167.52 L12.1132 1161.66 L19.5293 1161.66 L19.5293 1167.52 L12.1132 1167.52 Z" fill="#000000" fill-rule="nonzero" fill-opacity="1" /><path clip-path="url(#clip170)" d="M25.9905 1153.61 L25.9905 1147.4 L55.9093 1136.26 L25.9905 1125.12 L25.9905 1118.92 L61.6384 1132.29 L61.6384 1140.24 L25.9905 1153.61 Z" fill="#000000" fill-rule="nonzero" fill-opacity="1" /><path clip-path="url(#clip170)" d="M43.719 1094.63 Q43.719 1101.73 45.3422 1104.47 Q46.9655 1107.21 50.8804 1107.21 Q53.9996 1107.21 55.8457 1105.17 Q57.6599 1103.1 57.6599 1099.57 Q57.6599 1094.7 54.2224 1091.77 Q50.7531 1088.81 45.0239 1088.81 L43.719 1088.81 L43.719 1094.63 M41.3 1082.95 L61.6384 1082.95 L61.6384 1088.81 L56.2276 1088.81 Q59.4741 1090.81 61.0337 1093.81 Q62.5615 1096.8 62.5615 1101.13 Q62.5615 1106.6 59.5059 1109.85 Q56.4186 1113.06 51.2623 1113.06 Q45.2467 1113.06 42.1912 1109.05 Q39.1357 1105.01 39.1357 1097.02 L39.1357 1088.81 L38.5628 1088.81 Q34.5205 1088.81 32.3244 1091.48 Q30.0964 1094.12 30.0964 1098.93 Q30.0964 1101.99 30.8284 1104.88 Q31.5605 1107.78 33.0246 1110.45 L27.6137 1110.45 Q26.3724 1107.24 25.7677 1104.21 Q25.1311 1101.19 25.1311 1098.32 Q25.1311 1090.59 29.1415 1086.77 Q33.1519 1082.95 41.3 1082.95 Z" fill="#000000" fill-rule="nonzero" fill-opacity="1" /><path clip-path="url(#clip170)" d="M12.1132 1070.89 L12.1132 1065.03 L61.6384 1065.03 L61.6384 1070.89 L12.1132 1070.89 Z" fill="#000000" fill-rule="nonzero" fill-opacity="1" /><path clip-path="url(#clip170)" d="M56.2912 1026.39 L75.1974 1026.39 L75.1974 1032.28 L25.9905 1032.28 L25.9905 1026.39 L31.4013 1026.39 Q28.2185 1024.55 26.6907 1021.75 Q25.1311 1018.91 25.1311 1015 Q25.1311 1008.5 30.2873 1004.46 Q35.4436 1000.39 43.8463 1000.39 Q52.249 1000.39 57.4052 1004.46 Q62.5615 1008.5 62.5615 1015 Q62.5615 1018.91 61.0337 1021.75 Q59.4741 1024.55 56.2912 1026.39 M43.8463 1006.47 Q37.3851 1006.47 33.7248 1009.14 Q30.0327 1011.78 30.0327 1016.43 Q30.0327 1021.08 33.7248 1023.75 Q37.3851 1026.39 43.8463 1026.39 Q50.3075 1026.39 53.9996 1023.75 Q57.6599 1021.08 57.6599 1016.43 Q57.6599 1011.78 53.9996 1009.14 Q50.3075 1006.47 43.8463 1006.47 Z" fill="#000000" fill-rule="nonzero" fill-opacity="1" /><path clip-path="url(#clip170)" d="M31.465 970.024 Q30.8921 971.011 30.6375 972.188 Q30.351 973.334 30.351 974.735 Q30.351 979.7 33.5975 982.374 Q36.8122 985.015 42.8596 985.015 L61.6384 985.015 L61.6384 990.904 L25.9905 990.904 L25.9905 985.015 L31.5287 985.015 Q28.2821 983.169 26.7225 980.209 Q25.1311 977.249 25.1311 973.016 Q25.1311 972.411 25.2266 971.679 Q25.2903 970.947 25.4494 970.056 L31.465 970.024 Z" fill="#000000" fill-rule="nonzero" fill-opacity="1" /><path clip-path="url(#clip170)" d="M30.0964 951.5 Q30.0964 956.21 33.7885 958.948 Q37.4488 961.685 43.8463 961.685 Q50.2438 961.685 53.9359 958.98 Q57.5962 956.242 57.5962 951.5 Q57.5962 946.821 53.9041 944.084 Q50.212 941.347 43.8463 941.347 Q37.5124 941.347 33.8203 944.084 Q30.0964 946.821 30.0964 951.5 M25.1311 951.5 Q25.1311 943.861 30.0964 939.501 Q35.0616 935.14 43.8463 935.14 Q52.5991 935.14 57.5962 939.501 Q62.5615 943.861 62.5615 951.5 Q62.5615 959.171 57.5962 963.531 Q52.5991 967.86 43.8463 967.86 Q35.0616 967.86 30.0964 963.531 Q25.1311 959.171 25.1311 951.5 Z" fill="#000000" fill-rule="nonzero" fill-opacity="1" /><path clip-path="url(#clip170)" d="M43.8463 899.842 Q37.3851 899.842 33.7248 902.516 Q30.0327 905.158 30.0327 909.804 Q30.0327 914.451 33.7248 917.125 Q37.3851 919.767 43.8463 919.767 Q50.3075 919.767 53.9996 917.125 Q57.6599 914.451 57.6599 909.804 Q57.6599 905.158 53.9996 902.516 Q50.3075 899.842 43.8463 899.842 M31.4013 919.767 Q28.2185 917.921 26.6907 915.12 Q25.1311 912.287 25.1311 908.372 Q25.1311 901.879 30.2873 897.837 Q35.4436 893.763 43.8463 893.763 Q52.249 893.763 57.4052 897.837 Q62.5615 901.879 62.5615 908.372 Q62.5615 912.287 61.0337 915.12 Q59.4741 917.921 56.2912 919.767 L61.6384 919.767 L61.6384 925.655 L12.1132 925.655 L12.1132 919.767 L31.4013 919.767 Z" fill="#000000" fill-rule="nonzero" fill-opacity="1" /><path clip-path="url(#clip170)" d="M43.719 867.854 Q43.719 874.952 45.3422 877.69 Q46.9655 880.427 50.8804 880.427 Q53.9996 880.427 55.8457 878.39 Q57.6599 876.321 57.6599 872.788 Q57.6599 867.918 54.2224 864.99 Q50.7531 862.03 45.0239 862.03 L43.719 862.03 L43.719 867.854 M41.3 856.173 L61.6384 856.173 L61.6384 862.03 L56.2276 862.03 Q59.4741 864.035 61.0337 867.027 Q62.5615 870.019 62.5615 874.348 Q62.5615 879.822 59.5059 883.069 Q56.4186 886.283 51.2623 886.283 Q45.2467 886.283 42.1912 882.273 Q39.1357 878.231 39.1357 870.242 L39.1357 862.03 L38.5628 862.03 Q34.5205 862.03 32.3244 864.703 Q30.0964 867.345 30.0964 872.151 Q30.0964 875.207 30.8284 878.103 Q31.5605 881 33.0246 883.673 L27.6137 883.673 Q26.3724 880.459 25.7677 877.435 Q25.1311 874.411 25.1311 871.547 Q25.1311 863.812 29.1415 859.993 Q33.1519 856.173 41.3 856.173 Z" fill="#000000" fill-rule="nonzero" fill-opacity="1" /><path clip-path="url(#clip170)" d="M43.8463 818.52 Q37.3851 818.52 33.7248 821.194 Q30.0327 823.836 30.0327 828.483 Q30.0327 833.13 33.7248 835.803 Q37.3851 838.445 43.8463 838.445 Q50.3075 838.445 53.9996 835.803 Q57.6599 833.13 57.6599 828.483 Q57.6599 823.836 53.9996 821.194 Q50.3075 818.52 43.8463 818.52 M31.4013 838.445 Q28.2185 836.599 26.6907 833.798 Q25.1311 830.965 25.1311 827.05 Q25.1311 820.557 30.2873 816.515 Q35.4436 812.441 43.8463 812.441 Q52.249 812.441 57.4052 816.515 Q62.5615 820.557 62.5615 827.05 Q62.5615 830.965 61.0337 833.798 Q59.4741 836.599 56.2912 838.445 L61.6384 838.445 L61.6384 844.333 L12.1132 844.333 L12.1132 838.445 L31.4013 838.445 Z" fill="#000000" fill-rule="nonzero" fill-opacity="1" /><path clip-path="url(#clip170)" d="M25.9905 802.733 L25.9905 796.877 L61.6384 796.877 L61.6384 802.733 L25.9905 802.733 M12.1132 802.733 L12.1132 796.877 L19.5293 796.877 L19.5293 802.733 L12.1132 802.733 Z" fill="#000000" fill-rule="nonzero" fill-opacity="1" /><path clip-path="url(#clip170)" d="M12.1132 784.623 L12.1132 778.766 L61.6384 778.766 L61.6384 784.623 L12.1132 784.623 Z" fill="#000000" fill-rule="nonzero" fill-opacity="1" /><path clip-path="url(#clip170)" d="M25.9905 766.512 L25.9905 760.656 L61.6384 760.656 L61.6384 766.512 L25.9905 766.512 M12.1132 766.512 L12.1132 760.656 L19.5293 760.656 L19.5293 766.512 L12.1132 766.512 Z" fill="#000000" fill-rule="nonzero" fill-opacity="1" /><path clip-path="url(#clip170)" d="M15.869 742.609 L25.9905 742.609 L25.9905 730.546 L30.542 730.546 L30.542 742.609 L49.8937 742.609 Q54.2542 742.609 55.4955 741.432 Q56.7368 740.222 56.7368 736.562 L56.7368 730.546 L61.6384 730.546 L61.6384 736.562 Q61.6384 743.341 59.124 745.919 Q56.5777 748.497 49.8937 748.497 L30.542 748.497 L30.542 752.794 L25.9905 752.794 L25.9905 748.497 L15.869 748.497 L15.869 742.609 Z" fill="#000000" fill-rule="nonzero" fill-opacity="1" /><path clip-path="url(#clip170)" d="M64.9486 708.012 Q71.3143 710.494 73.2559 712.85 Q75.1974 715.205 75.1974 719.152 L75.1974 723.83 L70.2958 723.83 L70.2958 720.393 Q70.2958 717.974 69.15 716.637 Q68.0041 715.3 63.7391 713.677 L61.0655 712.627 L25.9905 727.045 L25.9905 720.838 L53.8723 709.699 L25.9905 698.559 L25.9905 692.352 L64.9486 708.012 Z" fill="#000000" fill-rule="nonzero" fill-opacity="1" /><path clip-path="url(#clip170)" d="M56.2912 657.882 L75.1974 657.882 L75.1974 663.77 L25.9905 663.77 L25.9905 657.882 L31.4013 657.882 Q28.2185 656.036 26.6907 653.235 Q25.1311 650.402 25.1311 646.487 Q25.1311 639.994 30.2873 635.952 Q35.4436 631.878 43.8463 631.878 Q52.249 631.878 57.4052 635.952 Q62.5615 639.994 62.5615 646.487 Q62.5615 650.402 61.0337 653.235 Q59.4741 656.036 56.2912 657.882 M43.8463 637.957 Q37.3851 637.957 33.7248 640.631 Q30.0327 643.272 30.0327 647.919 Q30.0327 652.566 33.7248 655.24 Q37.3851 657.882 43.8463 657.882 Q50.3075 657.882 53.9996 655.24 Q57.6599 652.566 57.6599 647.919 Q57.6599 643.272 53.9996 640.631 Q50.3075 637.957 43.8463 637.957 Z" fill="#000000" fill-rule="nonzero" fill-opacity="1" /><path clip-path="url(#clip170)" d="M12.1769 608.102 Q19.4975 612.367 26.6589 614.436 Q33.8203 616.505 41.1727 616.505 Q48.5251 616.505 55.7502 614.436 Q62.9434 612.335 70.2321 608.102 L70.2321 613.194 Q62.7524 617.969 55.5274 620.356 Q48.3023 622.711 41.1727 622.711 Q34.0749 622.711 26.8817 620.356 Q19.6884 618.001 12.1769 613.194 L12.1769 608.102 Z" fill="#000000" fill-rule="nonzero" fill-opacity="1" /><path clip-path="url(#clip170)" d="M25.9905 567.107 L43.337 579.997 L61.6384 566.438 L61.6384 573.345 L47.6339 583.721 L61.6384 594.097 L61.6384 601.004 L42.9869 587.159 L25.9905 599.826 L25.9905 592.92 L38.6901 583.467 L25.9905 574.013 L25.9905 567.107 Z" fill="#000000" fill-rule="nonzero" fill-opacity="1" /><path clip-path="url(#clip170)" d="M12.1769 559.086 L12.1769 553.993 Q19.6884 549.219 26.8817 546.864 Q34.0749 544.477 41.1727 544.477 Q48.3023 544.477 55.5274 546.864 Q62.7524 549.219 70.2321 553.993 L70.2321 559.086 Q62.9434 554.853 55.7502 552.784 Q48.5251 550.683 41.1727 550.683 Q33.8203 550.683 26.6589 552.784 Q19.4975 554.853 12.1769 559.086 Z" fill="#000000" fill-rule="nonzero" fill-opacity="1" /><path clip-path="url(#clip170)" d="M764.826 20.1573 L753.727 50.2555 L775.966 50.2555 L764.826 20.1573 M760.208 12.096 L769.485 12.096 L792.534 72.576 L784.028 72.576 L778.518 57.061 L751.256 57.061 L745.746 72.576 L737.118 72.576 L760.208 12.096 Z" fill="#000000" fill-rule="nonzero" fill-opacity="1" /><path clip-path="url(#clip170)" d="M830.896 49.3643 Q830.896 41.2625 827.534 36.8065 Q824.212 32.3505 818.177 32.3505 Q812.181 32.3505 808.819 36.8065 Q805.497 41.2625 805.497 49.3643 Q805.497 57.4256 808.819 61.8816 Q812.181 66.3376 818.177 66.3376 Q824.212 66.3376 827.534 61.8816 Q830.896 57.4256 830.896 49.3643 M838.35 66.9452 Q838.35 78.5308 833.205 84.1616 Q828.061 89.8329 817.447 89.8329 Q813.518 89.8329 810.034 89.2252 Q806.551 88.6581 803.269 87.4428 L803.269 80.1917 Q806.551 81.9741 809.751 82.8248 Q812.951 83.6755 816.273 83.6755 Q823.605 83.6755 827.251 79.8271 Q830.896 76.0193 830.896 68.282 L830.896 64.5957 Q828.587 68.6061 824.982 70.5911 Q821.377 72.576 816.354 72.576 Q808.009 72.576 802.905 66.2161 Q797.801 59.8562 797.801 49.3643 Q797.801 38.832 802.905 32.472 Q808.009 26.1121 816.354 26.1121 Q821.377 26.1121 824.982 28.0971 Q828.587 30.082 830.896 34.0924 L830.896 27.2059 L838.35 27.2059 L838.35 66.9452 Z" fill="#000000" fill-rule="nonzero" fill-opacity="1" /><path clip-path="url(#clip170)" d="M892.511 48.0275 L892.511 51.6733 L858.24 51.6733 Q858.726 59.3701 862.858 63.421 Q867.031 67.4314 874.444 67.4314 Q878.738 67.4314 882.748 66.3781 Q886.799 65.3249 890.769 63.2184 L890.769 70.267 Q886.758 71.9684 882.546 72.8596 Q878.333 73.7508 873.998 73.7508 Q863.142 73.7508 856.782 67.4314 Q850.462 61.1119 850.462 50.3365 Q850.462 39.1965 856.458 32.6746 Q862.494 26.1121 872.702 26.1121 Q881.857 26.1121 887.164 32.0264 Q892.511 37.9003 892.511 48.0275 M885.057 45.84 Q884.976 39.7232 881.614 36.0774 Q878.292 32.4315 872.783 32.4315 Q866.544 32.4315 862.777 35.9558 Q859.05 39.4801 858.483 45.8805 L885.057 45.84 Z" fill="#000000" fill-rule="nonzero" fill-opacity="1" /><path clip-path="url(#clip170)" d="M900.977 46.5287 L922.811 46.5287 L922.811 53.1722 L900.977 53.1722 L900.977 46.5287 Z" fill="#000000" fill-rule="nonzero" fill-opacity="1" /><path clip-path="url(#clip170)" d="M963.604 28.5427 L963.604 35.5912 Q960.444 33.9709 957.042 33.1607 Q953.639 32.3505 949.993 32.3505 Q944.443 32.3505 941.648 34.0519 Q938.894 35.7533 938.894 39.156 Q938.894 41.7486 940.879 43.2475 Q942.863 44.7058 948.859 46.0426 L951.411 46.6097 Q959.351 48.3111 962.672 51.4303 Q966.035 54.509 966.035 60.0587 Q966.035 66.3781 961.012 70.0644 Q956.029 73.7508 947.279 73.7508 Q943.633 73.7508 939.663 73.0216 Q935.734 72.3329 931.359 70.9151 L931.359 63.2184 Q935.491 65.3654 939.501 66.4591 Q943.512 67.5124 947.441 67.5124 Q952.707 67.5124 955.543 65.73 Q958.378 63.9071 958.378 60.6258 Q958.378 57.5877 956.312 55.9673 Q954.287 54.3469 947.36 52.8481 L944.767 52.2405 Q937.84 50.7821 934.762 47.7845 Q931.683 44.7463 931.683 39.4801 Q931.683 33.0797 936.22 29.5959 Q940.757 26.1121 949.102 26.1121 Q953.234 26.1121 956.88 26.7198 Q960.525 27.3274 963.604 28.5427 Z" fill="#000000" fill-rule="nonzero" fill-opacity="1" /><path clip-path="url(#clip170)" d="M985.114 65.7705 L985.114 89.8329 L977.62 89.8329 L977.62 27.2059 L985.114 27.2059 L985.114 34.0924 Q987.464 30.0415 991.029 28.0971 Q994.634 26.1121 999.617 26.1121 Q1007.88 26.1121 1013.03 32.6746 Q1018.21 39.2371 1018.21 49.9314 Q1018.21 60.6258 1013.03 67.1883 Q1007.88 73.7508 999.617 73.7508 Q994.634 73.7508 991.029 71.8063 Q987.464 69.8214 985.114 65.7705 M1010.47 49.9314 Q1010.47 41.7081 1007.07 37.0496 Q1003.71 32.3505 997.794 32.3505 Q991.879 32.3505 988.477 37.0496 Q985.114 41.7081 985.114 49.9314 Q985.114 58.1548 988.477 62.8538 Q991.879 67.5124 997.794 67.5124 Q1003.71 67.5124 1007.07 62.8538 Q1010.47 58.1548 1010.47 49.9314 Z" fill="#000000" fill-rule="nonzero" fill-opacity="1" /><path clip-path="url(#clip170)" d="M1069.37 48.0275 L1069.37 51.6733 L1035.1 51.6733 Q1035.59 59.3701 1039.72 63.421 Q1043.89 67.4314 1051.31 67.4314 Q1055.6 67.4314 1059.61 66.3781 Q1063.66 65.3249 1067.63 63.2184 L1067.63 70.267 Q1063.62 71.9684 1059.41 72.8596 Q1055.2 73.7508 1050.86 73.7508 Q1040 73.7508 1033.64 67.4314 Q1027.32 61.1119 1027.32 50.3365 Q1027.32 39.1965 1033.32 32.6746 Q1039.36 26.1121 1049.56 26.1121 Q1058.72 26.1121 1064.03 32.0264 Q1069.37 37.9003 1069.37 48.0275 M1061.92 45.84 Q1061.84 39.7232 1058.48 36.0774 Q1055.15 32.4315 1049.65 32.4315 Q1043.41 32.4315 1039.64 35.9558 Q1035.91 39.4801 1035.35 45.8805 L1061.92 45.84 Z" fill="#000000" fill-rule="nonzero" fill-opacity="1" /><path clip-path="url(#clip170)" d="M1114.26 28.9478 L1114.26 35.9153 Q1111.1 34.1734 1107.9 33.3227 Q1104.74 32.4315 1101.5 32.4315 Q1094.25 32.4315 1090.24 37.0496 Q1086.22 41.6271 1086.22 49.9314 Q1086.22 58.2358 1090.24 62.8538 Q1094.25 67.4314 1101.5 67.4314 Q1104.74 67.4314 1107.9 66.5807 Q1111.1 65.6895 1114.26 63.9476 L1114.26 70.8341 Q1111.14 72.2924 1107.78 73.0216 Q1104.45 73.7508 1100.69 73.7508 Q1090.44 73.7508 1084.4 67.3098 Q1078.37 60.8689 1078.37 49.9314 Q1078.37 38.832 1084.44 32.472 Q1090.56 26.1121 1101.17 26.1121 Q1104.62 26.1121 1107.9 26.8413 Q1111.18 27.5299 1114.26 28.9478 Z" fill="#000000" fill-rule="nonzero" fill-opacity="1" /><path clip-path="url(#clip170)" d="M1127.22 27.2059 L1134.67 27.2059 L1134.67 72.576 L1127.22 72.576 L1127.22 27.2059 M1127.22 9.54393 L1134.67 9.54393 L1134.67 18.9825 L1127.22 18.9825 L1127.22 9.54393 Z" fill="#000000" fill-rule="nonzero" fill-opacity="1" /><path clip-path="url(#clip170)" d="M1173.24 9.54393 L1173.24 15.7418 L1166.11 15.7418 Q1162.1 15.7418 1160.52 17.3622 Q1158.98 18.9825 1158.98 23.1955 L1158.98 27.2059 L1171.25 27.2059 L1171.25 32.9987 L1158.98 32.9987 L1158.98 72.576 L1151.49 72.576 L1151.49 32.9987 L1144.36 32.9987 L1144.36 27.2059 L1151.49 27.2059 L1151.49 24.0462 Q1151.49 16.471 1155.01 13.0277 Q1158.53 9.54393 1166.19 9.54393 L1173.24 9.54393 Z" fill="#000000" fill-rule="nonzero" fill-opacity="1" /><path clip-path="url(#clip170)" d="M1179.48 27.2059 L1186.93 27.2059 L1186.93 72.576 L1179.48 72.576 L1179.48 27.2059 M1179.48 9.54393 L1186.93 9.54393 L1186.93 18.9825 L1179.48 18.9825 L1179.48 9.54393 Z" fill="#000000" fill-rule="nonzero" fill-opacity="1" /><path clip-path="url(#clip170)" d="M1235.18 28.9478 L1235.18 35.9153 Q1232.02 34.1734 1228.82 33.3227 Q1225.66 32.4315 1222.42 32.4315 Q1215.17 32.4315 1211.15 37.0496 Q1207.14 41.6271 1207.14 49.9314 Q1207.14 58.2358 1211.15 62.8538 Q1215.17 67.4314 1222.42 67.4314 Q1225.66 67.4314 1228.82 66.5807 Q1232.02 65.6895 1235.18 63.9476 L1235.18 70.8341 Q1232.06 72.2924 1228.7 73.0216 Q1225.37 73.7508 1221.61 73.7508 Q1211.36 73.7508 1205.32 67.3098 Q1199.29 60.8689 1199.29 49.9314 Q1199.29 38.832 1205.36 32.472 Q1211.48 26.1121 1222.09 26.1121 Q1225.54 26.1121 1228.82 26.8413 Q1232.1 27.5299 1235.18 28.9478 Z" fill="#000000" fill-rule="nonzero" fill-opacity="1" /><path clip-path="url(#clip170)" d="M1303.43 28.5427 L1303.43 35.5912 Q1300.27 33.9709 1296.87 33.1607 Q1293.47 32.3505 1289.82 32.3505 Q1284.27 32.3505 1281.48 34.0519 Q1278.72 35.7533 1278.72 39.156 Q1278.72 41.7486 1280.71 43.2475 Q1282.69 44.7058 1288.69 46.0426 L1291.24 46.6097 Q1299.18 48.3111 1302.5 51.4303 Q1305.87 54.509 1305.87 60.0587 Q1305.87 66.3781 1300.84 70.0644 Q1295.86 73.7508 1287.11 73.7508 Q1283.46 73.7508 1279.49 73.0216 Q1275.56 72.3329 1271.19 70.9151 L1271.19 63.2184 Q1275.32 65.3654 1279.33 66.4591 Q1283.34 67.5124 1287.27 67.5124 Q1292.54 67.5124 1295.37 65.73 Q1298.21 63.9071 1298.21 60.6258 Q1298.21 57.5877 1296.14 55.9673 Q1294.12 54.3469 1287.19 52.8481 L1284.6 52.2405 Q1277.67 50.7821 1274.59 47.7845 Q1271.51 44.7463 1271.51 39.4801 Q1271.51 33.0797 1276.05 29.5959 Q1280.59 26.1121 1288.93 26.1121 Q1293.06 26.1121 1296.71 26.7198 Q1300.36 27.3274 1303.43 28.5427 Z" fill="#000000" fill-rule="nonzero" fill-opacity="1" /><path clip-path="url(#clip170)" d="M1316.96 54.671 L1316.96 27.2059 L1324.42 27.2059 L1324.42 54.3874 Q1324.42 60.8284 1326.93 64.0691 Q1329.44 67.2693 1334.46 67.2693 Q1340.5 67.2693 1343.98 63.421 Q1347.51 59.5726 1347.51 52.9291 L1347.51 27.2059 L1354.96 27.2059 L1354.96 72.576 L1347.51 72.576 L1347.51 65.6084 Q1344.79 69.7404 1341.19 71.7658 Q1337.62 73.7508 1332.88 73.7508 Q1325.07 73.7508 1321.02 68.8897 Q1316.96 64.0286 1316.96 54.671 M1335.72 26.1121 L1335.72 26.1121 Z" fill="#000000" fill-rule="nonzero" fill-opacity="1" /><path clip-path="url(#clip170)" d="M1396.61 34.1734 Q1395.35 33.4443 1393.85 33.1202 Q1392.39 32.7556 1390.61 32.7556 Q1384.29 32.7556 1380.89 36.8875 Q1377.53 40.9789 1377.53 48.6757 L1377.53 72.576 L1370.03 72.576 L1370.03 27.2059 L1377.53 27.2059 L1377.53 34.2544 Q1379.88 30.1225 1383.64 28.1376 Q1387.41 26.1121 1392.8 26.1121 Q1393.57 26.1121 1394.5 26.2337 Q1395.43 26.3147 1396.56 26.5172 L1396.61 34.1734 Z" fill="#000000" fill-rule="nonzero" fill-opacity="1" /><path clip-path="url(#clip170)" d="M1399.08 27.2059 L1406.98 27.2059 L1421.15 65.2844 L1435.33 27.2059 L1443.23 27.2059 L1426.22 72.576 L1416.09 72.576 L1399.08 27.2059 Z" fill="#000000" fill-rule="nonzero" fill-opacity="1" /><path clip-path="url(#clip170)" d="M1453.52 27.2059 L1460.97 27.2059 L1460.97 72.576 L1453.52 72.576 L1453.52 27.2059 M1453.52 9.54393 L1460.97 9.54393 L1460.97 18.9825 L1453.52 18.9825 L1453.52 9.54393 Z" fill="#000000" fill-rule="nonzero" fill-opacity="1" /><path clip-path="url(#clip170)" d="M1471.22 27.2059 L1479.12 27.2059 L1493.3 65.2844 L1507.48 27.2059 L1515.38 27.2059 L1498.36 72.576 L1488.24 72.576 L1471.22 27.2059 Z" fill="#000000" fill-rule="nonzero" fill-opacity="1" /><path clip-path="url(#clip170)" d="M1546.29 49.7694 Q1537.25 49.7694 1533.77 51.8354 Q1530.29 53.9013 1530.29 58.8839 Q1530.29 62.8538 1532.88 65.2034 Q1535.51 67.5124 1540.01 67.5124 Q1546.21 67.5124 1549.93 63.1374 Q1553.7 58.7219 1553.7 51.4303 L1553.7 49.7694 L1546.29 49.7694 M1561.15 46.6907 L1561.15 72.576 L1553.7 72.576 L1553.7 65.6895 Q1551.15 69.8214 1547.34 71.8063 Q1543.53 73.7508 1538.02 73.7508 Q1531.05 73.7508 1526.92 69.8619 Q1522.83 65.9325 1522.83 59.3701 Q1522.83 51.7138 1527.94 47.825 Q1533.08 43.9361 1543.25 43.9361 L1553.7 43.9361 L1553.7 43.2069 Q1553.7 38.0623 1550.3 35.2672 Q1546.93 32.4315 1540.82 32.4315 Q1536.93 32.4315 1533.24 33.3632 Q1529.56 34.295 1526.15 36.1584 L1526.15 29.2718 Q1530.24 27.692 1534.09 26.9223 Q1537.94 26.1121 1541.59 26.1121 Q1551.43 26.1121 1556.29 31.2163 Q1561.15 36.3204 1561.15 46.6907 Z" fill="#000000" fill-rule="nonzero" fill-opacity="1" /><path clip-path="url(#clip170)" d="M1576.51 9.54393 L1583.96 9.54393 L1583.96 72.576 L1576.51 72.576 L1576.51 9.54393 Z" fill="#000000" fill-rule="nonzero" fill-opacity="1" /><path clip-path="url(#clip170)" d="M1622.16 46.9338 L1697.02 46.9338 L1697.02 52.7671 L1622.16 52.7671 L1622.16 46.9338 Z" fill="#000000" fill-rule="nonzero" fill-opacity="1" /><path clip-path="url(#clip170)" d="M1771.84 14.0809 L1771.84 22.0612 Q1767.18 19.8332 1763.05 18.7395 Q1758.92 17.6457 1755.07 17.6457 Q1748.39 17.6457 1744.74 20.2383 Q1741.13 22.8309 1741.13 27.611 Q1741.13 31.6214 1743.52 33.6873 Q1745.96 35.7128 1752.68 36.9686 L1757.62 37.9813 Q1766.78 39.7232 1771.11 44.1387 Q1775.49 48.5136 1775.49 55.8863 Q1775.49 64.6767 1769.57 69.2137 Q1763.7 73.7508 1752.32 73.7508 Q1748.02 73.7508 1743.16 72.7785 Q1738.34 71.8063 1733.15 69.9024 L1733.15 61.4765 Q1738.14 64.2716 1742.92 65.6895 Q1747.7 67.1073 1752.32 67.1073 Q1759.32 67.1073 1763.13 64.3527 Q1766.94 61.598 1766.94 56.4939 Q1766.94 52.0379 1764.18 49.5264 Q1761.47 47.0148 1755.23 45.759 L1750.25 44.7868 Q1741.09 42.9639 1737 39.075 Q1732.91 35.1862 1732.91 28.2591 Q1732.91 20.2383 1738.54 15.6203 Q1744.21 11.0023 1754.14 11.0023 Q1758.39 11.0023 1762.81 11.7719 Q1767.22 12.5416 1771.84 14.0809 Z" fill="#000000" fill-rule="nonzero" fill-opacity="1" /><path clip-path="url(#clip170)" d="M1826.73 48.0275 L1826.73 51.6733 L1792.46 51.6733 Q1792.95 59.3701 1797.08 63.421 Q1801.25 67.4314 1808.66 67.4314 Q1812.96 67.4314 1816.97 66.3781 Q1821.02 65.3249 1824.99 63.2184 L1824.99 70.267 Q1820.98 71.9684 1816.77 72.8596 Q1812.55 73.7508 1808.22 73.7508 Q1797.36 73.7508 1791 67.4314 Q1784.68 61.1119 1784.68 50.3365 Q1784.68 39.1965 1790.68 32.6746 Q1796.71 26.1121 1806.92 26.1121 Q1816.08 26.1121 1821.38 32.0264 Q1826.73 37.9003 1826.73 48.0275 M1819.28 45.84 Q1819.2 39.7232 1815.83 36.0774 Q1812.51 32.4315 1807 32.4315 Q1800.76 32.4315 1797 35.9558 Q1793.27 39.4801 1792.7 45.8805 L1819.28 45.84 Z" fill="#000000" fill-rule="nonzero" fill-opacity="1" /><path clip-path="url(#clip170)" d="M1859.58 49.7694 Q1850.55 49.7694 1847.07 51.8354 Q1843.58 53.9013 1843.58 58.8839 Q1843.58 62.8538 1846.17 65.2034 Q1848.81 67.5124 1853.3 67.5124 Q1859.5 67.5124 1863.23 63.1374 Q1867 58.7219 1867 51.4303 L1867 49.7694 L1859.58 49.7694 M1874.45 46.6907 L1874.45 72.576 L1867 72.576 L1867 65.6895 Q1864.44 69.8214 1860.64 71.8063 Q1856.83 73.7508 1851.32 73.7508 Q1844.35 73.7508 1840.22 69.8619 Q1836.13 65.9325 1836.13 59.3701 Q1836.13 51.7138 1841.23 47.825 Q1846.38 43.9361 1856.54 43.9361 L1867 43.9361 L1867 43.2069 Q1867 38.0623 1863.59 35.2672 Q1860.23 32.4315 1854.11 32.4315 Q1850.23 32.4315 1846.54 33.3632 Q1842.85 34.295 1839.45 36.1584 L1839.45 29.2718 Q1843.54 27.692 1847.39 26.9223 Q1851.24 26.1121 1854.88 26.1121 Q1864.73 26.1121 1869.59 31.2163 Q1874.45 36.3204 1874.45 46.6907 Z" fill="#000000" fill-rule="nonzero" fill-opacity="1" /><path clip-path="url(#clip170)" d="M1923.55 14.324 L1923.55 27.2059 L1938.9 27.2059 L1938.9 32.9987 L1923.55 32.9987 L1923.55 57.6282 Q1923.55 63.1779 1925.05 64.7578 Q1926.59 66.3376 1931.24 66.3376 L1938.9 66.3376 L1938.9 72.576 L1931.24 72.576 Q1922.62 72.576 1919.33 69.3758 Q1916.05 66.1351 1916.05 57.6282 L1916.05 32.9987 L1910.58 32.9987 L1910.58 27.2059 L1916.05 27.2059 L1916.05 14.324 L1923.55 14.324 Z" fill="#000000" fill-rule="nonzero" fill-opacity="1" /><path clip-path="url(#clip170)" d="M1947.93 54.671 L1947.93 27.2059 L1955.39 27.2059 L1955.39 54.3874 Q1955.39 60.8284 1957.9 64.0691 Q1960.41 67.2693 1965.43 67.2693 Q1971.47 67.2693 1974.95 63.421 Q1978.48 59.5726 1978.48 52.9291 L1978.48 27.2059 L1985.93 27.2059 L1985.93 72.576 L1978.48 72.576 L1978.48 65.6084 Q1975.76 69.7404 1972.16 71.7658 Q1968.59 73.7508 1963.85 73.7508 Q1956.04 73.7508 1951.98 68.8897 Q1947.93 64.0286 1947.93 54.671 M1966.69 26.1121 L1966.69 26.1121 Z" fill="#000000" fill-rule="nonzero" fill-opacity="1" /><path clip-path="url(#clip170)" d="M2027.57 34.1734 Q2026.32 33.4443 2024.82 33.1202 Q2023.36 32.7556 2021.58 32.7556 Q2015.26 32.7556 2011.86 36.8875 Q2008.49 40.9789 2008.49 48.6757 L2008.49 72.576 L2001 72.576 L2001 27.2059 L2008.49 27.2059 L2008.49 34.2544 Q2010.84 30.1225 2014.61 28.1376 Q2018.38 26.1121 2023.77 26.1121 Q2024.54 26.1121 2025.47 26.2337 Q2026.4 26.3147 2027.53 26.5172 L2027.57 34.1734 Z" fill="#000000" fill-rule="nonzero" fill-opacity="1" /><path clip-path="url(#clip170)" d="M2042.76 14.324 L2042.76 27.2059 L2058.12 27.2059 L2058.12 32.9987 L2042.76 32.9987 L2042.76 57.6282 Q2042.76 63.1779 2044.26 64.7578 Q2045.8 66.3376 2050.46 66.3376 L2058.12 66.3376 L2058.12 72.576 L2050.46 72.576 Q2041.83 72.576 2038.55 69.3758 Q2035.27 66.1351 2035.27 57.6282 L2035.27 32.9987 L2029.8 32.9987 L2029.8 27.2059 L2035.27 27.2059 L2035.27 14.324 L2042.76 14.324 Z" fill="#000000" fill-rule="nonzero" fill-opacity="1" /><path clip-path="url(#clip170)" d="M2067.92 9.54393 L2075.37 9.54393 L2075.37 72.576 L2067.92 72.576 L2067.92 9.54393 Z" fill="#000000" fill-rule="nonzero" fill-opacity="1" /><path clip-path="url(#clip170)" d="M2129.78 48.0275 L2129.78 51.6733 L2095.51 51.6733 Q2095.99 59.3701 2100.13 63.421 Q2104.3 67.4314 2111.71 67.4314 Q2116.01 67.4314 2120.02 66.3781 Q2124.07 65.3249 2128.04 63.2184 L2128.04 70.267 Q2124.03 71.9684 2119.81 72.8596 Q2115.6 73.7508 2111.27 73.7508 Q2100.41 73.7508 2094.05 67.4314 Q2087.73 61.1119 2087.73 50.3365 Q2087.73 39.1965 2093.73 32.6746 Q2099.76 26.1121 2109.97 26.1121 Q2119.12 26.1121 2124.43 32.0264 Q2129.78 37.9003 2129.78 48.0275 M2122.32 45.84 Q2122.24 39.7232 2118.88 36.0774 Q2115.56 32.4315 2110.05 32.4315 Q2103.81 32.4315 2100.04 35.9558 Q2096.32 39.4801 2095.75 45.8805 L2122.32 45.84 Z" fill="#000000" fill-rule="nonzero" fill-opacity="1" /><polyline clip-path="url(#clip171)" style="stroke:#0000ff; stroke-linecap:round; stroke-linejoin:round; stroke-width:8; stroke-opacity:1; fill:none" points="294.479,387.177 428.475,173.254 562.472,186.369 696.468,196.893 830.464,205.462 964.461,212.518 1098.46,218.379 1232.45,223.275 1366.45,227.383 1500.45,230.836 1634.44,233.735 1768.44,236.162 1902.44,238.181 2036.43,239.843 2170.43,241.189 2304.42,242.251 2438.42,243.056 2572.42,1688.65 "/>
</svg>
