<?xml version="1.0" encoding="utf-8"?>
<svg xmlns="http://www.w3.org/2000/svg" xmlns:xlink="http://www.w3.org/1999/xlink" width="672" height="480" viewBox="0 0 2688 1920">
<defs>
  <clipPath id="clip530">
    <rect x="0" y="0" width="2688" height="1920"/>
  </clipPath>
</defs>
<path clip-path="url(#clip530)" d="M0 1920 L2688 1920 L2688 -4.26326e-14 L0 -4.26326e-14  Z" fill="#ffffff" fill-rule="evenodd" fill-opacity="1"/>
<defs>
  <clipPath id="clip531">
    <rect x="241" y="127" width="2400" height="1607"/>
  </clipPath>
</defs>
<path clip-path="url(#clip530)" d="M241.557 1734.12 L2640.76 1734.12 L2640.76 127.792 L241.557 127.792  Z" fill="#ffffff" fill-rule="evenodd" fill-opacity="1"/>
<polyline clip-path="url(#clip531)" style="stroke:#000000; stroke-linecap:round; stroke-linejoin:round; stroke-width:2; stroke-opacity:0.1; fill:none" points="309.459,1734.12 309.459,127.792 "/>
<polyline clip-path="url(#clip531)" style="stroke:#000000; stroke-linecap:round; stroke-linejoin:round; stroke-width:2; stroke-opacity:0.1; fill:none" points="1063.92,1734.12 1063.92,127.792 "/>
<polyline clip-path="url(#clip531)" style="stroke:#000000; stroke-linecap:round; stroke-linejoin:round; stroke-width:2; stroke-opacity:0.1; fill:none" points="1818.39,1734.12 1818.39,127.792 "/>
<polyline clip-path="url(#clip531)" style="stroke:#000000; stroke-linecap:round; stroke-linejoin:round; stroke-width:2; stroke-opacity:0.1; fill:none" points="2572.85,1734.12 2572.85,127.792 "/>
<polyline clip-path="url(#clip531)" style="stroke:#000000; stroke-linecap:round; stroke-linejoin:round; stroke-width:2; stroke-opacity:0.1; fill:none" points="241.557,1688.65 2640.76,1688.65 "/>
<polyline clip-path="url(#clip531)" style="stroke:#000000; stroke-linecap:round; stroke-linejoin:round; stroke-width:2; stroke-opacity:0.1; fill:none" points="241.557,1309.8 2640.76,1309.8 "/>
<polyline clip-path="url(#clip531)" style="stroke:#000000; stroke-linecap:round; stroke-linejoin:round; stroke-width:2; stroke-opacity:0.1; fill:none" points="241.557,930.955 2640.76,930.955 "/>
<polyline clip-path="url(#clip531)" style="stroke:#000000; stroke-linecap:round; stroke-linejoin:round; stroke-width:2; stroke-opacity:0.1; fill:none" points="241.557,552.104 2640.76,552.104 "/>
<polyline clip-path="url(#clip531)" style="stroke:#000000; stroke-linecap:round; stroke-linejoin:round; stroke-width:2; stroke-opacity:0.1; fill:none" points="241.557,173.254 2640.76,173.254 "/>
<polyline clip-path="url(#clip530)" style="stroke:#000000; stroke-linecap:round; stroke-linejoin:round; stroke-width:4; stroke-opacity:1; fill:none" points="241.557,1734.12 2640.76,1734.12 "/>
<polyline clip-path="url(#clip530)" style="stroke:#000000; stroke-linecap:round; stroke-linejoin:round; stroke-width:4; stroke-opacity:1; fill:none" points="309.459,1734.12 309.459,1715.22 "/>
<polyline clip-path="url(#clip530)" style="stroke:#000000; stroke-linecap:round; stroke-linejoin:round; stroke-width:4; stroke-opacity:1; fill:none" points="1063.92,1734.12 1063.92,1715.22 "/>
<polyline clip-path="url(#clip530)" style="stroke:#000000; stroke-linecap:round; stroke-linejoin:round; stroke-width:4; stroke-opacity:1; fill:none" points="1818.39,1734.12 1818.39,1715.22 "/>
<polyline clip-path="url(#clip530)" style="stroke:#000000; stroke-linecap:round; stroke-linejoin:round; stroke-width:4; stroke-opacity:1; fill:none" points="2572.85,1734.12 2572.85,1715.22 "/>
<path clip-path="url(#clip530)" d="M309.459 1767.34 Q305.848 1767.34 304.019 1770.9 Q302.214 1774.45 302.214 1781.58 Q302.214 1788.68 304.019 1792.25 Q305.848 1795.79 309.459 1795.79 Q313.093 1795.79 314.899 1792.25 Q316.727 1788.68 316.727 1781.58 Q316.727 1774.45 314.899 1770.9 Q313.093 1767.34 309.459 1767.34 M309.459 1763.64 Q315.269 1763.64 318.325 1768.24 Q321.403 1772.83 321.403 1781.58 Q321.403 1790.3 318.325 1794.91 Q315.269 1799.49 309.459 1799.49 Q303.649 1799.49 300.57 1794.91 Q297.515 1790.3 297.515 1781.58 Q297.515 1772.83 300.57 1768.24 Q303.649 1763.64 309.459 1763.64 Z" fill="#000000" fill-rule="nonzero" fill-opacity="1" /><path clip-path="url(#clip530)" d="M1023.53 1794.89 L1031.17 1794.89 L1031.17 1768.52 L1022.86 1770.19 L1022.86 1765.93 L1031.12 1764.26 L1035.8 1764.26 L1035.8 1794.89 L1043.44 1794.89 L1043.44 1798.82 L1023.53 1798.82 L1023.53 1794.89 Z" fill="#000000" fill-rule="nonzero" fill-opacity="1" /><path clip-path="url(#clip530)" d="M1062.88 1767.34 Q1059.27 1767.34 1057.44 1770.9 Q1055.64 1774.45 1055.64 1781.58 Q1055.64 1788.68 1057.44 1792.25 Q1059.27 1795.79 1062.88 1795.79 Q1066.52 1795.79 1068.32 1792.25 Q1070.15 1788.68 1070.15 1781.58 Q1070.15 1774.45 1068.32 1770.9 Q1066.52 1767.34 1062.88 1767.34 M1062.88 1763.64 Q1068.69 1763.64 1071.75 1768.24 Q1074.83 1772.83 1074.83 1781.58 Q1074.83 1790.3 1071.75 1794.91 Q1068.69 1799.49 1062.88 1799.49 Q1057.07 1799.49 1053.99 1794.91 Q1050.94 1790.3 1050.94 1781.58 Q1050.94 1772.83 1053.99 1768.24 Q1057.07 1763.64 1062.88 1763.64 Z" fill="#000000" fill-rule="nonzero" fill-opacity="1" /><path clip-path="url(#clip530)" d="M1093.04 1767.34 Q1089.43 1767.34 1087.6 1770.9 Q1085.8 1774.45 1085.8 1781.58 Q1085.8 1788.68 1087.6 1792.25 Q1089.43 1795.79 1093.04 1795.79 Q1096.68 1795.79 1098.48 1792.25 Q1100.31 1788.68 1100.31 1781.58 Q1100.31 1774.45 1098.48 1770.9 Q1096.68 1767.34 1093.04 1767.34 M1093.04 1763.64 Q1098.85 1763.64 1101.91 1768.24 Q1104.99 1772.83 1104.99 1781.58 Q1104.99 1790.3 1101.91 1794.91 Q1098.85 1799.49 1093.04 1799.49 Q1087.23 1799.49 1084.16 1794.91 Q1081.1 1790.3 1081.1 1781.58 Q1081.1 1772.83 1084.16 1768.24 Q1087.23 1763.64 1093.04 1763.64 Z" fill="#000000" fill-rule="nonzero" fill-opacity="1" /><path clip-path="url(#clip530)" d="M1782.08 1794.89 L1798.4 1794.89 L1798.4 1798.82 L1776.46 1798.82 L1776.46 1794.89 Q1779.12 1792.13 1783.7 1787.5 Q1788.31 1782.85 1789.49 1781.51 Q1791.73 1778.98 1792.61 1777.25 Q1793.52 1775.49 1793.52 1773.8 Q1793.52 1771.04 1791.57 1769.31 Q1789.65 1767.57 1786.55 1767.57 Q1784.35 1767.57 1781.9 1768.34 Q1779.47 1769.1 1776.69 1770.65 L1776.69 1765.93 Q1779.51 1764.79 1781.97 1764.21 Q1784.42 1763.64 1786.46 1763.64 Q1791.83 1763.64 1795.02 1766.32 Q1798.22 1769.01 1798.22 1773.5 Q1798.22 1775.63 1797.41 1777.55 Q1796.62 1779.45 1794.51 1782.04 Q1793.93 1782.71 1790.83 1785.93 Q1787.73 1789.12 1782.08 1794.89 Z" fill="#000000" fill-rule="nonzero" fill-opacity="1" /><path clip-path="url(#clip530)" d="M1818.22 1767.34 Q1814.6 1767.34 1812.78 1770.9 Q1810.97 1774.45 1810.97 1781.58 Q1810.97 1788.68 1812.78 1792.25 Q1814.6 1795.79 1818.22 1795.79 Q1821.85 1795.79 1823.66 1792.25 Q1825.48 1788.68 1825.48 1781.58 Q1825.48 1774.45 1823.66 1770.9 Q1821.85 1767.34 1818.22 1767.34 M1818.22 1763.64 Q1824.03 1763.64 1827.08 1768.24 Q1830.16 1772.83 1830.16 1781.58 Q1830.16 1790.3 1827.08 1794.91 Q1824.03 1799.49 1818.22 1799.49 Q1812.41 1799.49 1809.33 1794.91 Q1806.27 1790.3 1806.27 1781.58 Q1806.27 1772.83 1809.33 1768.24 Q1812.41 1763.64 1818.22 1763.64 Z" fill="#000000" fill-rule="nonzero" fill-opacity="1" /><path clip-path="url(#clip530)" d="M1848.38 1767.34 Q1844.77 1767.34 1842.94 1770.9 Q1841.13 1774.45 1841.13 1781.58 Q1841.13 1788.68 1842.94 1792.25 Q1844.77 1795.79 1848.38 1795.79 Q1852.01 1795.79 1853.82 1792.25 Q1855.65 1788.68 1855.65 1781.58 Q1855.65 1774.45 1853.82 1770.9 Q1852.01 1767.34 1848.38 1767.34 M1848.38 1763.64 Q1854.19 1763.64 1857.24 1768.24 Q1860.32 1772.83 1860.32 1781.58 Q1860.32 1790.3 1857.24 1794.91 Q1854.19 1799.49 1848.38 1799.49 Q1842.57 1799.49 1839.49 1794.91 Q1836.43 1790.3 1836.43 1781.58 Q1836.43 1772.83 1839.49 1768.24 Q1842.57 1763.64 1848.38 1763.64 Z" fill="#000000" fill-rule="nonzero" fill-opacity="1" /><path clip-path="url(#clip530)" d="M2546.62 1780.19 Q2549.97 1780.9 2551.85 1783.17 Q2553.75 1785.44 2553.75 1788.77 Q2553.75 1793.89 2550.23 1796.69 Q2546.71 1799.49 2540.23 1799.49 Q2538.05 1799.49 2535.74 1799.05 Q2533.44 1798.64 2530.99 1797.78 L2530.99 1793.27 Q2532.94 1794.4 2535.25 1794.98 Q2537.56 1795.56 2540.09 1795.56 Q2544.49 1795.56 2546.78 1793.82 Q2549.09 1792.08 2549.09 1788.77 Q2549.09 1785.72 2546.94 1784.01 Q2544.81 1782.27 2540.99 1782.27 L2536.96 1782.27 L2536.96 1778.43 L2541.18 1778.43 Q2544.63 1778.43 2546.45 1777.06 Q2548.28 1775.67 2548.28 1773.08 Q2548.28 1770.42 2546.38 1769.01 Q2544.51 1767.57 2540.99 1767.57 Q2539.07 1767.57 2536.87 1767.99 Q2534.67 1768.4 2532.03 1769.28 L2532.03 1765.12 Q2534.69 1764.38 2537.01 1764.01 Q2539.35 1763.64 2541.41 1763.64 Q2546.73 1763.64 2549.83 1766.07 Q2552.94 1768.47 2552.94 1772.59 Q2552.94 1775.46 2551.29 1777.46 Q2549.65 1779.42 2546.62 1780.19 Z" fill="#000000" fill-rule="nonzero" fill-opacity="1" /><path clip-path="url(#clip530)" d="M2572.61 1767.34 Q2569 1767.34 2567.17 1770.9 Q2565.37 1774.45 2565.37 1781.58 Q2565.37 1788.68 2567.17 1792.25 Q2569 1795.79 2572.61 1795.79 Q2576.25 1795.79 2578.05 1792.25 Q2579.88 1788.68 2579.88 1781.58 Q2579.88 1774.45 2578.05 1770.9 Q2576.25 1767.34 2572.61 1767.34 M2572.61 1763.64 Q2578.42 1763.64 2581.48 1768.24 Q2584.56 1772.83 2584.56 1781.58 Q2584.56 1790.3 2581.48 1794.91 Q2578.42 1799.49 2572.61 1799.49 Q2566.8 1799.49 2563.72 1794.91 Q2560.67 1790.3 2560.67 1781.58 Q2560.67 1772.83 2563.72 1768.24 Q2566.8 1763.64 2572.61 1763.64 Z" fill="#000000" fill-rule="nonzero" fill-opacity="1" /><path clip-path="url(#clip530)" d="M2602.77 1767.34 Q2599.16 1767.34 2597.33 1770.9 Q2595.53 1774.45 2595.53 1781.58 Q2595.53 1788.68 2597.33 1792.25 Q2599.16 1795.79 2602.77 1795.79 Q2606.41 1795.79 2608.21 1792.25 Q2610.04 1788.68 2610.04 1781.58 Q2610.04 1774.45 2608.21 1770.9 Q2606.41 1767.34 2602.77 1767.34 M2602.77 1763.64 Q2608.58 1763.64 2611.64 1768.24 Q2614.72 1772.83 2614.72 1781.58 Q2614.72 1790.3 2611.64 1794.91 Q2608.58 1799.49 2602.77 1799.49 Q2596.96 1799.49 2593.88 1794.91 Q2590.83 1790.3 2590.83 1781.58 Q2590.83 1772.83 2593.88 1768.24 Q2596.96 1763.64 2602.77 1763.64 Z" fill="#000000" fill-rule="nonzero" fill-opacity="1" /><path clip-path="url(#clip530)" d="M1372.09 1835.78 L1379 1835.78 L1392.17 1855.32 L1405.25 1835.78 L1412.16 1835.78 L1395.36 1860.67 L1395.36 1883.3 L1388.89 1883.3 L1388.89 1860.67 L1372.09 1835.78 Z" fill="#000000" fill-rule="nonzero" fill-opacity="1" /><path clip-path="url(#clip530)" d="M1440.01 1864.01 L1440.01 1866.88 L1413.08 1866.88 Q1413.47 1872.92 1416.71 1876.11 Q1419.99 1879.26 1425.82 1879.26 Q1429.19 1879.26 1432.34 1878.43 Q1435.52 1877.6 1438.64 1875.95 L1438.64 1881.49 Q1435.49 1882.82 1432.18 1883.52 Q1428.87 1884.22 1425.47 1884.22 Q1416.94 1884.22 1411.94 1879.26 Q1406.97 1874.29 1406.97 1865.83 Q1406.97 1857.07 1411.68 1851.95 Q1416.43 1846.79 1424.45 1846.79 Q1431.64 1846.79 1435.81 1851.44 Q1440.01 1856.06 1440.01 1864.01 M1434.15 1862.29 Q1434.09 1857.49 1431.45 1854.62 Q1428.84 1851.76 1424.51 1851.76 Q1419.61 1851.76 1416.65 1854.53 Q1413.72 1857.3 1413.27 1862.33 L1434.15 1862.29 Z" fill="#000000" fill-rule="nonzero" fill-opacity="1" /><path clip-path="url(#clip530)" d="M1465.82 1865.38 Q1458.73 1865.38 1455.99 1867 Q1453.25 1868.63 1453.25 1872.54 Q1453.25 1875.66 1455.29 1877.51 Q1457.36 1879.32 1460.89 1879.32 Q1465.76 1879.32 1468.69 1875.88 Q1471.65 1872.42 1471.65 1866.69 L1471.65 1865.38 L1465.82 1865.38 M1477.5 1862.96 L1477.5 1883.3 L1471.65 1883.3 L1471.65 1877.89 Q1469.64 1881.14 1466.65 1882.7 Q1463.66 1884.22 1459.33 1884.22 Q1453.86 1884.22 1450.61 1881.17 Q1447.39 1878.08 1447.39 1872.92 Q1447.39 1866.91 1451.41 1863.85 Q1455.45 1860.8 1463.44 1860.8 L1471.65 1860.8 L1471.65 1860.23 Q1471.65 1856.18 1468.97 1853.99 Q1466.33 1851.76 1461.53 1851.76 Q1458.47 1851.76 1455.57 1852.49 Q1452.68 1853.22 1450 1854.69 L1450 1849.28 Q1453.22 1848.03 1456.24 1847.43 Q1459.27 1846.79 1462.13 1846.79 Q1469.87 1846.79 1473.69 1850.8 Q1477.5 1854.81 1477.5 1862.96 Z" fill="#000000" fill-rule="nonzero" fill-opacity="1" /><path clip-path="url(#clip530)" d="M1510.22 1853.13 Q1509.24 1852.55 1508.06 1852.3 Q1506.91 1852.01 1505.51 1852.01 Q1500.55 1852.01 1497.87 1855.26 Q1495.23 1858.47 1495.23 1864.52 L1495.23 1883.3 L1489.34 1883.3 L1489.34 1847.65 L1495.23 1847.65 L1495.23 1853.19 Q1497.08 1849.94 1500.04 1848.39 Q1503 1846.79 1507.23 1846.79 Q1507.84 1846.79 1508.57 1846.89 Q1509.3 1846.95 1510.19 1847.11 L1510.22 1853.13 Z" fill="#000000" fill-rule="nonzero" fill-opacity="1" /><polyline clip-path="url(#clip530)" style="stroke:#000000; stroke-linecap:round; stroke-linejoin:round; stroke-width:4; stroke-opacity:1; fill:none" points="241.557,1734.12 241.557,127.792 "/>
<polyline clip-path="url(#clip530)" style="stroke:#000000; stroke-linecap:round; stroke-linejoin:round; stroke-width:4; stroke-opacity:1; fill:none" points="241.557,1688.65 260.455,1688.65 "/>
<polyline clip-path="url(#clip530)" style="stroke:#000000; stroke-linecap:round; stroke-linejoin:round; stroke-width:4; stroke-opacity:1; fill:none" points="241.557,1309.8 260.455,1309.8 "/>
<polyline clip-path="url(#clip530)" style="stroke:#000000; stroke-linecap:round; stroke-linejoin:round; stroke-width:4; stroke-opacity:1; fill:none" points="241.557,930.955 260.455,930.955 "/>
<polyline clip-path="url(#clip530)" style="stroke:#000000; stroke-linecap:round; stroke-linejoin:round; stroke-width:4; stroke-opacity:1; fill:none" points="241.557,552.104 260.455,552.104 "/>
<polyline clip-path="url(#clip530)" style="stroke:#000000; stroke-linecap:round; stroke-linejoin:round; stroke-width:4; stroke-opacity:1; fill:none" points="241.557,173.254 260.455,173.254 "/>
<path clip-path="url(#clip530)" d="M189.293 1674.45 Q185.682 1674.45 183.853 1678.02 Q182.047 1681.56 182.047 1688.69 Q182.047 1695.8 183.853 1699.36 Q185.682 1702.9 189.293 1702.9 Q192.927 1702.9 194.733 1699.36 Q196.561 1695.8 196.561 1688.69 Q196.561 1681.56 194.733 1678.02 Q192.927 1674.45 189.293 1674.45 M189.293 1670.75 Q195.103 1670.75 198.158 1675.36 Q201.237 1679.94 201.237 1688.69 Q201.237 1697.42 198.158 1702.02 Q195.103 1706.61 189.293 1706.61 Q183.483 1706.61 180.404 1702.02 Q177.348 1697.42 177.348 1688.69 Q177.348 1679.94 180.404 1675.36 Q183.483 1670.75 189.293 1670.75 Z" fill="#000000" fill-rule="nonzero" fill-opacity="1" /><path clip-path="url(#clip530)" d="M119.779 1323.15 L127.418 1323.15 L127.418 1296.78 L119.108 1298.45 L119.108 1294.19 L127.372 1292.52 L132.048 1292.52 L132.048 1323.15 L139.687 1323.15 L139.687 1327.08 L119.779 1327.08 L119.779 1323.15 Z" fill="#000000" fill-rule="nonzero" fill-opacity="1" /><path clip-path="url(#clip530)" d="M159.131 1295.6 Q155.52 1295.6 153.691 1299.17 Q151.886 1302.71 151.886 1309.84 Q151.886 1316.95 153.691 1320.51 Q155.52 1324.05 159.131 1324.05 Q162.765 1324.05 164.571 1320.51 Q166.399 1316.95 166.399 1309.84 Q166.399 1302.71 164.571 1299.17 Q162.765 1295.6 159.131 1295.6 M159.131 1291.9 Q164.941 1291.9 167.997 1296.51 Q171.075 1301.09 171.075 1309.84 Q171.075 1318.57 167.997 1323.17 Q164.941 1327.76 159.131 1327.76 Q153.321 1327.76 150.242 1323.17 Q147.186 1318.57 147.186 1309.84 Q147.186 1301.09 150.242 1296.51 Q153.321 1291.9 159.131 1291.9 Z" fill="#000000" fill-rule="nonzero" fill-opacity="1" /><path clip-path="url(#clip530)" d="M189.293 1295.6 Q185.682 1295.6 183.853 1299.17 Q182.047 1302.71 182.047 1309.84 Q182.047 1316.95 183.853 1320.51 Q185.682 1324.05 189.293 1324.05 Q192.927 1324.05 194.733 1320.51 Q196.561 1316.95 196.561 1309.84 Q196.561 1302.71 194.733 1299.17 Q192.927 1295.6 189.293 1295.6 M189.293 1291.9 Q195.103 1291.9 198.158 1296.51 Q201.237 1301.09 201.237 1309.84 Q201.237 1318.57 198.158 1323.17 Q195.103 1327.76 189.293 1327.76 Q183.483 1327.76 180.404 1323.17 Q177.348 1318.57 177.348 1309.84 Q177.348 1301.09 180.404 1296.51 Q183.483 1291.9 189.293 1291.9 Z" fill="#000000" fill-rule="nonzero" fill-opacity="1" /><path clip-path="url(#clip530)" d="M122.997 944.299 L139.316 944.299 L139.316 948.235 L117.372 948.235 L117.372 944.299 Q120.034 941.545 124.617 936.915 Q129.224 932.262 130.404 930.92 Q132.65 928.397 133.529 926.661 Q134.432 924.901 134.432 923.212 Q134.432 920.457 132.488 918.721 Q130.566 916.985 127.464 916.985 Q125.265 916.985 122.812 917.749 Q120.381 918.512 117.603 920.063 L117.603 915.341 Q120.427 914.207 122.881 913.628 Q125.335 913.05 127.372 913.05 Q132.742 913.05 135.937 915.735 Q139.131 918.42 139.131 922.911 Q139.131 925.04 138.321 926.962 Q137.534 928.86 135.427 931.452 Q134.849 932.124 131.747 935.341 Q128.645 938.536 122.997 944.299 Z" fill="#000000" fill-rule="nonzero" fill-opacity="1" /><path clip-path="url(#clip530)" d="M159.131 916.753 Q155.52 916.753 153.691 920.318 Q151.886 923.86 151.886 930.989 Q151.886 938.096 153.691 941.661 Q155.52 945.202 159.131 945.202 Q162.765 945.202 164.571 941.661 Q166.399 938.096 166.399 930.989 Q166.399 923.86 164.571 920.318 Q162.765 916.753 159.131 916.753 M159.131 913.05 Q164.941 913.05 167.997 917.656 Q171.075 922.239 171.075 930.989 Q171.075 939.716 167.997 944.323 Q164.941 948.906 159.131 948.906 Q153.321 948.906 150.242 944.323 Q147.186 939.716 147.186 930.989 Q147.186 922.239 150.242 917.656 Q153.321 913.05 159.131 913.05 Z" fill="#000000" fill-rule="nonzero" fill-opacity="1" /><path clip-path="url(#clip530)" d="M189.293 916.753 Q185.682 916.753 183.853 920.318 Q182.047 923.86 182.047 930.989 Q182.047 938.096 183.853 941.661 Q185.682 945.202 189.293 945.202 Q192.927 945.202 194.733 941.661 Q196.561 938.096 196.561 930.989 Q196.561 923.86 194.733 920.318 Q192.927 916.753 189.293 916.753 M189.293 913.05 Q195.103 913.05 198.158 917.656 Q201.237 922.239 201.237 930.989 Q201.237 939.716 198.158 944.323 Q195.103 948.906 189.293 948.906 Q183.483 948.906 180.404 944.323 Q177.348 939.716 177.348 930.989 Q177.348 922.239 180.404 917.656 Q183.483 913.05 189.293 913.05 Z" fill="#000000" fill-rule="nonzero" fill-opacity="1" /><path clip-path="url(#clip530)" d="M133.136 550.75 Q136.492 551.468 138.367 553.736 Q140.265 556.005 140.265 559.338 Q140.265 564.454 136.747 567.255 Q133.228 570.056 126.747 570.056 Q124.571 570.056 122.256 569.616 Q119.964 569.199 117.511 568.343 L117.511 563.829 Q119.455 564.963 121.77 565.542 Q124.085 566.12 126.608 566.12 Q131.006 566.12 133.298 564.384 Q135.612 562.648 135.612 559.338 Q135.612 556.283 133.46 554.57 Q131.33 552.834 127.511 552.834 L123.483 552.834 L123.483 548.991 L127.696 548.991 Q131.145 548.991 132.974 547.625 Q134.802 546.236 134.802 543.644 Q134.802 540.982 132.904 539.57 Q131.029 538.135 127.511 538.135 Q125.589 538.135 123.39 538.551 Q121.191 538.968 118.552 539.847 L118.552 535.681 Q121.214 534.94 123.529 534.57 Q125.867 534.199 127.927 534.199 Q133.251 534.199 136.353 536.63 Q139.455 539.037 139.455 543.158 Q139.455 546.028 137.812 548.019 Q136.168 549.986 133.136 550.75 Z" fill="#000000" fill-rule="nonzero" fill-opacity="1" /><path clip-path="url(#clip530)" d="M159.131 537.903 Q155.52 537.903 153.691 541.468 Q151.886 545.009 151.886 552.139 Q151.886 559.246 153.691 562.81 Q155.52 566.352 159.131 566.352 Q162.765 566.352 164.571 562.81 Q166.399 559.246 166.399 552.139 Q166.399 545.009 164.571 541.468 Q162.765 537.903 159.131 537.903 M159.131 534.199 Q164.941 534.199 167.997 538.806 Q171.075 543.389 171.075 552.139 Q171.075 560.866 167.997 565.472 Q164.941 570.056 159.131 570.056 Q153.321 570.056 150.242 565.472 Q147.186 560.866 147.186 552.139 Q147.186 543.389 150.242 538.806 Q153.321 534.199 159.131 534.199 Z" fill="#000000" fill-rule="nonzero" fill-opacity="1" /><path clip-path="url(#clip530)" d="M189.293 537.903 Q185.682 537.903 183.853 541.468 Q182.047 545.009 182.047 552.139 Q182.047 559.246 183.853 562.81 Q185.682 566.352 189.293 566.352 Q192.927 566.352 194.733 562.81 Q196.561 559.246 196.561 552.139 Q196.561 545.009 194.733 541.468 Q192.927 537.903 189.293 537.903 M189.293 534.199 Q195.103 534.199 198.158 538.806 Q201.237 543.389 201.237 552.139 Q201.237 560.866 198.158 565.472 Q195.103 570.056 189.293 570.056 Q183.483 570.056 180.404 565.472 Q177.348 560.866 177.348 552.139 Q177.348 543.389 180.404 538.806 Q183.483 534.199 189.293 534.199 Z" fill="#000000" fill-rule="nonzero" fill-opacity="1" /><path clip-path="url(#clip530)" d="M131.816 160.048 L120.011 178.497 L131.816 178.497 L131.816 160.048 M130.589 155.974 L136.469 155.974 L136.469 178.497 L141.399 178.497 L141.399 182.386 L136.469 182.386 L136.469 190.534 L131.816 190.534 L131.816 182.386 L116.214 182.386 L116.214 177.872 L130.589 155.974 Z" fill="#000000" fill-rule="nonzero" fill-opacity="1" /><path clip-path="url(#clip530)" d="M159.131 159.053 Q155.52 159.053 153.691 162.618 Q151.886 166.159 151.886 173.289 Q151.886 180.395 153.691 183.96 Q155.52 187.502 159.131 187.502 Q162.765 187.502 164.571 183.96 Q166.399 180.395 166.399 173.289 Q166.399 166.159 164.571 162.618 Q162.765 159.053 159.131 159.053 M159.131 155.349 Q164.941 155.349 167.997 159.956 Q171.075 164.539 171.075 173.289 Q171.075 182.016 167.997 186.622 Q164.941 191.205 159.131 191.205 Q153.321 191.205 150.242 186.622 Q147.186 182.016 147.186 173.289 Q147.186 164.539 150.242 159.956 Q153.321 155.349 159.131 155.349 Z" fill="#000000" fill-rule="nonzero" fill-opacity="1" /><path clip-path="url(#clip530)" d="M189.293 159.053 Q185.682 159.053 183.853 162.618 Q182.047 166.159 182.047 173.289 Q182.047 180.395 183.853 183.96 Q185.682 187.502 189.293 187.502 Q192.927 187.502 194.733 183.96 Q196.561 180.395 196.561 173.289 Q196.561 166.159 194.733 162.618 Q192.927 159.053 189.293 159.053 M189.293 155.349 Q195.103 155.349 198.158 159.956 Q201.237 164.539 201.237 173.289 Q201.237 182.016 198.158 186.622 Q195.103 191.205 189.293 191.205 Q183.483 191.205 180.404 186.622 Q177.348 182.016 177.348 173.289 Q177.348 164.539 180.404 159.956 Q183.483 155.349 189.293 155.349 Z" fill="#000000" fill-rule="nonzero" fill-opacity="1" /><path clip-path="url(#clip530)" d="M14.1184 1188.19 L14.1184 1147.99 L19.5293 1147.99 L19.5293 1164.86 L61.6384 1164.86 L61.6384 1171.32 L19.5293 1171.32 L19.5293 1188.19 L14.1184 1188.19 Z" fill="#000000" fill-rule="nonzero" fill-opacity="1" /><path clip-path="url(#clip530)" d="M30.0964 1139.3 Q30.0964 1144.01 33.7885 1146.75 Q37.4488 1149.49 43.8463 1149.49 Q50.2438 1149.49 53.9359 1146.78 Q57.5962 1144.05 57.5962 1139.3 Q57.5962 1134.63 53.9041 1131.89 Q50.212 1129.15 43.8463 1129.15 Q37.5124 1129.15 33.8203 1131.89 Q30.0964 1134.63 30.0964 1139.3 M25.1311 1139.3 Q25.1311 1131.67 30.0964 1127.3 Q35.0616 1122.94 43.8463 1122.94 Q52.5991 1122.94 57.5962 1127.3 Q62.5615 1131.67 62.5615 1139.3 Q62.5615 1146.97 57.5962 1151.34 Q52.5991 1155.66 43.8463 1155.66 Q35.0616 1155.66 30.0964 1151.34 Q25.1311 1146.97 25.1311 1139.3 Z" fill="#000000" fill-rule="nonzero" fill-opacity="1" /><path clip-path="url(#clip530)" d="M15.869 1107.44 L25.9905 1107.44 L25.9905 1095.38 L30.542 1095.38 L30.542 1107.44 L49.8937 1107.44 Q54.2542 1107.44 55.4955 1106.27 Q56.7368 1105.06 56.7368 1101.4 L56.7368 1095.38 L61.6384 1095.38 L61.6384 1101.4 Q61.6384 1108.18 59.124 1110.75 Q56.5777 1113.33 49.8937 1113.33 L30.542 1113.33 L30.542 1117.63 L25.9905 1117.63 L25.9905 1113.33 L15.869 1113.33 L15.869 1107.44 Z" fill="#000000" fill-rule="nonzero" fill-opacity="1" /><path clip-path="url(#clip530)" d="M43.719 1071.48 Q43.719 1078.58 45.3422 1081.31 Q46.9655 1084.05 50.8804 1084.05 Q53.9996 1084.05 55.8457 1082.01 Q57.6599 1079.94 57.6599 1076.41 Q57.6599 1071.54 54.2224 1068.61 Q50.7531 1065.65 45.0239 1065.65 L43.719 1065.65 L43.719 1071.48 M41.3 1059.8 L61.6384 1059.8 L61.6384 1065.65 L56.2276 1065.65 Q59.4741 1067.66 61.0337 1070.65 Q62.5615 1073.64 62.5615 1077.97 Q62.5615 1083.45 59.5059 1086.69 Q56.4186 1089.91 51.2623 1089.91 Q45.2467 1089.91 42.1912 1085.9 Q39.1357 1081.85 39.1357 1073.86 L39.1357 1065.65 L38.5628 1065.65 Q34.5205 1065.65 32.3244 1068.33 Q30.0964 1070.97 30.0964 1075.77 Q30.0964 1078.83 30.8284 1081.73 Q31.5605 1084.62 33.0246 1087.3 L27.6137 1087.3 Q26.3724 1084.08 25.7677 1081.06 Q25.1311 1078.03 25.1311 1075.17 Q25.1311 1067.44 29.1415 1063.62 Q33.1519 1059.8 41.3 1059.8 Z" fill="#000000" fill-rule="nonzero" fill-opacity="1" /><path clip-path="url(#clip530)" d="M12.1132 1047.73 L12.1132 1041.88 L61.6384 1041.88 L61.6384 1047.73 L12.1132 1047.73 Z" fill="#000000" fill-rule="nonzero" fill-opacity="1" /><path clip-path="url(#clip530)" d="M56.2912 1003.24 L75.1974 1003.24 L75.1974 1009.13 L25.9905 1009.13 L25.9905 1003.24 L31.4013 1003.24 Q28.2185 1001.39 26.6907 998.59 Q25.1311 995.757 25.1311 991.843 Q25.1311 985.35 30.2873 981.307 Q35.4436 977.233 43.8463 977.233 Q52.249 977.233 57.4052 981.307 Q62.5615 985.35 62.5615 991.843 Q62.5615 995.757 61.0337 998.59 Q59.4741 1001.39 56.2912 1003.24 M43.8463 983.312 Q37.3851 983.312 33.7248 985.986 Q30.0327 988.628 30.0327 993.275 Q30.0327 997.922 33.7248 1000.6 Q37.3851 1003.24 43.8463 1003.24 Q50.3075 1003.24 53.9996 1000.6 Q57.6599 997.922 57.6599 993.275 Q57.6599 988.628 53.9996 985.986 Q50.3075 983.312 43.8463 983.312 Z" fill="#000000" fill-rule="nonzero" fill-opacity="1" /><path clip-path="url(#clip530)" d="M30.0964 953.712 Q30.0964 958.423 33.7885 961.16 Q37.4488 963.897 43.8463 963.897 Q50.2438 963.897 53.9359 961.192 Q57.5962 958.454 57.5962 953.712 Q57.5962 949.033 53.9041 946.296 Q50.212 943.559 43.8463 943.559 Q37.5124 943.559 33.8203 946.296 Q30.0964 949.033 30.0964 953.712 M25.1311 953.712 Q25.1311 946.073 30.0964 941.713 Q35.0616 937.352 43.8463 937.352 Q52.5991 937.352 57.5962 941.713 Q62.5615 946.073 62.5615 953.712 Q62.5615 961.383 57.5962 965.743 Q52.5991 970.072 43.8463 970.072 Q35.0616 970.072 30.0964 965.743 Q25.1311 961.383 25.1311 953.712 Z" fill="#000000" fill-rule="nonzero" fill-opacity="1" /><path clip-path="url(#clip530)" d="M56.2912 921.979 L75.1974 921.979 L75.1974 927.867 L25.9905 927.867 L25.9905 921.979 L31.4013 921.979 Q28.2185 920.133 26.6907 917.332 Q25.1311 914.499 25.1311 910.584 Q25.1311 904.091 30.2873 900.049 Q35.4436 895.975 43.8463 895.975 Q52.249 895.975 57.4052 900.049 Q62.5615 904.091 62.5615 910.584 Q62.5615 914.499 61.0337 917.332 Q59.4741 920.133 56.2912 921.979 M43.8463 902.054 Q37.3851 902.054 33.7248 904.728 Q30.0327 907.37 30.0327 912.017 Q30.0327 916.664 33.7248 919.337 Q37.3851 921.979 43.8463 921.979 Q50.3075 921.979 53.9996 919.337 Q57.6599 916.664 57.6599 912.017 Q57.6599 907.37 53.9996 904.728 Q50.3075 902.054 43.8463 902.054 Z" fill="#000000" fill-rule="nonzero" fill-opacity="1" /><path clip-path="url(#clip530)" d="M47.5702 886.872 L25.9905 886.872 L25.9905 881.016 L47.3474 881.016 Q52.4082 881.016 54.9545 879.042 Q57.4689 877.069 57.4689 873.122 Q57.4689 868.38 54.4452 865.642 Q51.4215 862.873 46.2016 862.873 L25.9905 862.873 L25.9905 857.017 L61.6384 857.017 L61.6384 862.873 L56.1639 862.873 Q59.4104 865.006 61.0019 867.839 Q62.5615 870.639 62.5615 874.363 Q62.5615 880.506 58.742 883.689 Q54.9226 886.872 47.5702 886.872 M25.1311 872.135 L25.1311 872.135 Z" fill="#000000" fill-rule="nonzero" fill-opacity="1" /><path clip-path="url(#clip530)" d="M12.1132 844.954 L12.1132 839.097 L61.6384 839.097 L61.6384 844.954 L12.1132 844.954 Z" fill="#000000" fill-rule="nonzero" fill-opacity="1" /><path clip-path="url(#clip530)" d="M43.719 810.643 Q43.719 817.74 45.3422 820.478 Q46.9655 823.215 50.8804 823.215 Q53.9996 823.215 55.8457 821.178 Q57.6599 819.109 57.6599 815.576 Q57.6599 810.706 54.2224 807.778 Q50.7531 804.818 45.0239 804.818 L43.719 804.818 L43.719 810.643 M41.3 798.962 L61.6384 798.962 L61.6384 804.818 L56.2276 804.818 Q59.4741 806.823 61.0337 809.815 Q62.5615 812.807 62.5615 817.136 Q62.5615 822.61 59.5059 825.857 Q56.4186 829.071 51.2623 829.071 Q45.2467 829.071 42.1912 825.061 Q39.1357 821.019 39.1357 813.03 L39.1357 804.818 L38.5628 804.818 Q34.5205 804.818 32.3244 807.492 Q30.0964 810.133 30.0964 814.94 Q30.0964 817.995 30.8284 820.891 Q31.5605 823.788 33.0246 826.461 L27.6137 826.461 Q26.3724 823.247 25.7677 820.223 Q25.1311 817.199 25.1311 814.335 Q25.1311 806.6 29.1415 802.781 Q33.1519 798.962 41.3 798.962 Z" fill="#000000" fill-rule="nonzero" fill-opacity="1" /><path clip-path="url(#clip530)" d="M15.869 781.106 L25.9905 781.106 L25.9905 769.043 L30.542 769.043 L30.542 781.106 L49.8937 781.106 Q54.2542 781.106 55.4955 779.928 Q56.7368 778.719 56.7368 775.058 L56.7368 769.043 L61.6384 769.043 L61.6384 775.058 Q61.6384 781.838 59.124 784.416 Q56.5777 786.994 49.8937 786.994 L30.542 786.994 L30.542 791.291 L25.9905 791.291 L25.9905 786.994 L15.869 786.994 L15.869 781.106 Z" fill="#000000" fill-rule="nonzero" fill-opacity="1" /><path clip-path="url(#clip530)" d="M25.9905 761.34 L25.9905 755.484 L61.6384 755.484 L61.6384 761.34 L25.9905 761.34 M12.1132 761.34 L12.1132 755.484 L19.5293 755.484 L19.5293 761.34 L12.1132 761.34 Z" fill="#000000" fill-rule="nonzero" fill-opacity="1" /><path clip-path="url(#clip530)" d="M30.0964 729.416 Q30.0964 734.127 33.7885 736.864 Q37.4488 739.601 43.8463 739.601 Q50.2438 739.601 53.9359 736.896 Q57.5962 734.159 57.5962 729.416 Q57.5962 724.737 53.9041 722 Q50.212 719.263 43.8463 719.263 Q37.5124 719.263 33.8203 722 Q30.0964 724.737 30.0964 729.416 M25.1311 729.416 Q25.1311 721.777 30.0964 717.417 Q35.0616 713.056 43.8463 713.056 Q52.5991 713.056 57.5962 717.417 Q62.5615 721.777 62.5615 729.416 Q62.5615 737.087 57.5962 741.447 Q52.5991 745.776 43.8463 745.776 Q35.0616 745.776 30.0964 741.447 Q25.1311 737.087 25.1311 729.416 Z" fill="#000000" fill-rule="nonzero" fill-opacity="1" /><path clip-path="url(#clip530)" d="M40.1224 673.716 L61.6384 673.716 L61.6384 679.573 L40.3133 679.573 Q35.2526 679.573 32.7381 681.546 Q30.2237 683.52 30.2237 687.466 Q30.2237 692.209 33.2474 694.946 Q36.2711 697.683 41.491 697.683 L61.6384 697.683 L61.6384 703.572 L25.9905 703.572 L25.9905 697.683 L31.5287 697.683 Q28.314 695.583 26.7225 692.75 Q25.1311 689.885 25.1311 686.161 Q25.1311 680.018 28.9505 676.867 Q32.7381 673.716 40.1224 673.716 Z" fill="#000000" fill-rule="nonzero" fill-opacity="1" /><path clip-path="url(#clip530)" d="M732.329 43.6931 L732.329 65.8515 L745.454 65.8515 Q752.057 65.8515 755.217 63.1374 Q758.417 60.3828 758.417 54.752 Q758.417 49.0808 755.217 46.4072 Q752.057 43.6931 745.454 43.6931 L732.329 43.6931 M732.329 18.8205 L732.329 37.0496 L744.442 37.0496 Q750.437 37.0496 753.353 34.8216 Q756.311 32.5531 756.311 27.935 Q756.311 23.3575 753.353 21.089 Q750.437 18.8205 744.442 18.8205 L732.329 18.8205 M724.146 12.096 L745.049 12.096 Q754.407 12.096 759.47 15.9849 Q764.534 19.8737 764.534 27.0438 Q764.534 32.5936 761.941 35.8748 Q759.349 39.156 754.326 39.9662 Q760.362 41.2625 763.683 45.3944 Q767.046 49.4858 767.046 55.6432 Q767.046 63.745 761.536 68.1605 Q756.027 72.576 745.859 72.576 L724.146 72.576 L724.146 12.096 Z" fill="#000000" fill-rule="nonzero" fill-opacity="1" /><path clip-path="url(#clip530)" d="M819.545 48.0275 L819.545 51.6733 L785.275 51.6733 Q785.761 59.3701 789.893 63.421 Q794.065 67.4314 801.478 67.4314 Q805.772 67.4314 809.783 66.3781 Q813.833 65.3249 817.803 63.2184 L817.803 70.267 Q813.793 71.9684 809.58 72.8596 Q805.367 73.7508 801.033 73.7508 Q790.176 73.7508 783.816 67.4314 Q777.497 61.1119 777.497 50.3365 Q777.497 39.1965 783.492 32.6746 Q789.528 26.1121 799.736 26.1121 Q808.891 26.1121 814.198 32.0264 Q819.545 37.9003 819.545 48.0275 M812.092 45.84 Q812.011 39.7232 808.648 36.0774 Q805.327 32.4315 799.817 32.4315 Q793.579 32.4315 789.812 35.9558 Q786.085 39.4801 785.518 45.8805 L812.092 45.84 Z" fill="#000000" fill-rule="nonzero" fill-opacity="1" /><path clip-path="url(#clip530)" d="M826.432 27.2059 L834.331 27.2059 L848.509 65.2844 L862.687 27.2059 L870.587 27.2059 L853.573 72.576 L843.446 72.576 L826.432 27.2059 Z" fill="#000000" fill-rule="nonzero" fill-opacity="1" /><path clip-path="url(#clip530)" d="M919.684 48.0275 L919.684 51.6733 L885.413 51.6733 Q885.899 59.3701 890.031 63.421 Q894.203 67.4314 901.617 67.4314 Q905.911 67.4314 909.921 66.3781 Q913.972 65.3249 917.942 63.2184 L917.942 70.267 Q913.931 71.9684 909.718 72.8596 Q905.505 73.7508 901.171 73.7508 Q890.315 73.7508 883.955 67.4314 Q877.635 61.1119 877.635 50.3365 Q877.635 39.1965 883.631 32.6746 Q889.666 26.1121 899.875 26.1121 Q909.03 26.1121 914.336 32.0264 Q919.684 37.9003 919.684 48.0275 M912.23 45.84 Q912.149 39.7232 908.787 36.0774 Q905.465 32.4315 899.956 32.4315 Q893.717 32.4315 889.95 35.9558 Q886.223 39.4801 885.656 45.8805 L912.23 45.84 Z" fill="#000000" fill-rule="nonzero" fill-opacity="1" /><path clip-path="url(#clip530)" d="M958.208 34.1734 Q956.952 33.4443 955.453 33.1202 Q953.995 32.7556 952.212 32.7556 Q945.893 32.7556 942.49 36.8875 Q939.128 40.9789 939.128 48.6757 L939.128 72.576 L931.634 72.576 L931.634 27.2059 L939.128 27.2059 L939.128 34.2544 Q941.477 30.1225 945.245 28.1376 Q949.012 26.1121 954.4 26.1121 Q955.17 26.1121 956.101 26.2337 Q957.033 26.3147 958.167 26.5172 L958.208 34.1734 Z" fill="#000000" fill-rule="nonzero" fill-opacity="1" /><path clip-path="url(#clip530)" d="M973.399 14.324 L973.399 27.2059 L988.752 27.2059 L988.752 32.9987 L973.399 32.9987 L973.399 57.6282 Q973.399 63.1779 974.897 64.7578 Q976.437 66.3376 981.095 66.3376 L988.752 66.3376 L988.752 72.576 L981.095 72.576 Q972.467 72.576 969.186 69.3758 Q965.904 66.1351 965.904 57.6282 L965.904 32.9987 L960.436 32.9987 L960.436 27.2059 L965.904 27.2059 L965.904 14.324 L973.399 14.324 Z" fill="#000000" fill-rule="nonzero" fill-opacity="1" /><path clip-path="url(#clip530)" d="M1016.14 32.4315 Q1010.14 32.4315 1006.66 37.1306 Q1003.17 41.7891 1003.17 49.9314 Q1003.17 58.0738 1006.62 62.7728 Q1010.1 67.4314 1016.14 67.4314 Q1022.09 67.4314 1025.57 62.7323 Q1029.06 58.0333 1029.06 49.9314 Q1029.06 41.8701 1025.57 37.1711 Q1022.09 32.4315 1016.14 32.4315 M1016.14 26.1121 Q1025.86 26.1121 1031.41 32.4315 Q1036.96 38.7509 1036.96 49.9314 Q1036.96 61.0714 1031.41 67.4314 Q1025.86 73.7508 1016.14 73.7508 Q1006.37 73.7508 1000.82 67.4314 Q995.314 61.0714 995.314 49.9314 Q995.314 38.7509 1000.82 32.4315 Q1006.37 26.1121 1016.14 26.1121 Z" fill="#000000" fill-rule="nonzero" fill-opacity="1" /><path clip-path="url(#clip530)" d="M1087.03 45.1919 L1087.03 72.576 L1079.57 72.576 L1079.57 45.4349 Q1079.57 38.994 1077.06 35.7938 Q1074.55 32.5936 1069.53 32.5936 Q1063.49 32.5936 1060.01 36.4419 Q1056.52 40.2903 1056.52 46.9338 L1056.52 72.576 L1049.03 72.576 L1049.03 27.2059 L1056.52 27.2059 L1056.52 34.2544 Q1059.2 30.163 1062.8 28.1376 Q1066.45 26.1121 1071.19 26.1121 Q1079.01 26.1121 1083.02 30.9732 Q1087.03 35.7938 1087.03 45.1919 Z" fill="#000000" fill-rule="nonzero" fill-opacity="1" /><path clip-path="url(#clip530)" d="M1098.13 46.5287 L1119.96 46.5287 L1119.96 53.1722 L1098.13 53.1722 L1098.13 46.5287 Z" fill="#000000" fill-rule="nonzero" fill-opacity="1" /><path clip-path="url(#clip530)" d="M1132.15 12.096 L1140.34 12.096 L1140.34 36.8875 L1170.07 36.8875 L1170.07 12.096 L1178.25 12.096 L1178.25 72.576 L1170.07 72.576 L1170.07 43.7741 L1140.34 43.7741 L1140.34 72.576 L1132.15 72.576 L1132.15 12.096 Z" fill="#000000" fill-rule="nonzero" fill-opacity="1" /><path clip-path="url(#clip530)" d="M1211.79 32.4315 Q1205.8 32.4315 1202.32 37.1306 Q1198.83 41.7891 1198.83 49.9314 Q1198.83 58.0738 1202.27 62.7728 Q1205.76 67.4314 1211.79 67.4314 Q1217.75 67.4314 1221.23 62.7323 Q1224.72 58.0333 1224.72 49.9314 Q1224.72 41.8701 1221.23 37.1711 Q1217.75 32.4315 1211.79 32.4315 M1211.79 26.1121 Q1221.52 26.1121 1227.07 32.4315 Q1232.62 38.7509 1232.62 49.9314 Q1232.62 61.0714 1227.07 67.4314 Q1221.52 73.7508 1211.79 73.7508 Q1202.03 73.7508 1196.48 67.4314 Q1190.97 61.0714 1190.97 49.9314 Q1190.97 38.7509 1196.48 32.4315 Q1202.03 26.1121 1211.79 26.1121 Z" fill="#000000" fill-rule="nonzero" fill-opacity="1" /><path clip-path="url(#clip530)" d="M1244.97 9.54393 L1252.42 9.54393 L1252.42 72.576 L1244.97 72.576 L1244.97 9.54393 Z" fill="#000000" fill-rule="nonzero" fill-opacity="1" /><path clip-path="url(#clip530)" d="M1275.39 14.324 L1275.39 27.2059 L1290.75 27.2059 L1290.75 32.9987 L1275.39 32.9987 L1275.39 57.6282 Q1275.39 63.1779 1276.89 64.7578 Q1278.43 66.3376 1283.09 66.3376 L1290.75 66.3376 L1290.75 72.576 L1283.09 72.576 Q1274.46 72.576 1271.18 69.3758 Q1267.9 66.1351 1267.9 57.6282 L1267.9 32.9987 L1262.43 32.9987 L1262.43 27.2059 L1267.9 27.2059 L1267.9 14.324 L1275.39 14.324 Z" fill="#000000" fill-rule="nonzero" fill-opacity="1" /><path clip-path="url(#clip530)" d="M1356.78 34.0924 L1356.78 9.54393 L1364.23 9.54393 L1364.23 72.576 L1356.78 72.576 L1356.78 65.7705 Q1354.43 69.8214 1350.82 71.8063 Q1347.26 73.7508 1342.23 73.7508 Q1334.01 73.7508 1328.82 67.1883 Q1323.68 60.6258 1323.68 49.9314 Q1323.68 39.2371 1328.82 32.6746 Q1334.01 26.1121 1342.23 26.1121 Q1347.26 26.1121 1350.82 28.0971 Q1354.43 30.0415 1356.78 34.0924 M1331.38 49.9314 Q1331.38 58.1548 1334.74 62.8538 Q1338.14 67.5124 1344.06 67.5124 Q1349.97 67.5124 1353.37 62.8538 Q1356.78 58.1548 1356.78 49.9314 Q1356.78 41.7081 1353.37 37.0496 Q1349.97 32.3505 1344.06 32.3505 Q1338.14 32.3505 1334.74 37.0496 Q1331.38 41.7081 1331.38 49.9314 Z" fill="#000000" fill-rule="nonzero" fill-opacity="1" /><path clip-path="url(#clip530)" d="M1418.39 48.0275 L1418.39 51.6733 L1384.12 51.6733 Q1384.61 59.3701 1388.74 63.421 Q1392.91 67.4314 1400.32 67.4314 Q1404.62 67.4314 1408.63 66.3781 Q1412.68 65.3249 1416.65 63.2184 L1416.65 70.267 Q1412.64 71.9684 1408.43 72.8596 Q1404.21 73.7508 1399.88 73.7508 Q1389.02 73.7508 1382.66 67.4314 Q1376.34 61.1119 1376.34 50.3365 Q1376.34 39.1965 1382.34 32.6746 Q1388.37 26.1121 1398.58 26.1121 Q1407.74 26.1121 1413.04 32.0264 Q1418.39 37.9003 1418.39 48.0275 M1410.94 45.84 Q1410.86 39.7232 1407.49 36.0774 Q1404.17 32.4315 1398.66 32.4315 Q1392.42 32.4315 1388.66 35.9558 Q1384.93 39.4801 1384.36 45.8805 L1410.94 45.84 Z" fill="#000000" fill-rule="nonzero" fill-opacity="1" /><path clip-path="url(#clip530)" d="M1468.34 45.1919 L1468.34 72.576 L1460.88 72.576 L1460.88 45.4349 Q1460.88 38.994 1458.37 35.7938 Q1455.86 32.5936 1450.84 32.5936 Q1444.8 32.5936 1441.32 36.4419 Q1437.83 40.2903 1437.83 46.9338 L1437.83 72.576 L1430.34 72.576 L1430.34 27.2059 L1437.83 27.2059 L1437.83 34.2544 Q1440.51 30.163 1444.11 28.1376 Q1447.76 26.1121 1452.5 26.1121 Q1460.32 26.1121 1464.33 30.9732 Q1468.34 35.7938 1468.34 45.1919 Z" fill="#000000" fill-rule="nonzero" fill-opacity="1" /><path clip-path="url(#clip530)" d="M1512.13 28.5427 L1512.13 35.5912 Q1508.97 33.9709 1505.57 33.1607 Q1502.16 32.3505 1498.52 32.3505 Q1492.97 32.3505 1490.17 34.0519 Q1487.42 35.7533 1487.42 39.156 Q1487.42 41.7486 1489.4 43.2475 Q1491.39 44.7058 1497.38 46.0426 L1499.94 46.6097 Q1507.87 48.3111 1511.2 51.4303 Q1514.56 54.509 1514.56 60.0587 Q1514.56 66.3781 1509.54 70.0644 Q1504.55 73.7508 1495.8 73.7508 Q1492.16 73.7508 1488.19 73.0216 Q1484.26 72.3329 1479.88 70.9151 L1479.88 63.2184 Q1484.02 65.3654 1488.03 66.4591 Q1492.04 67.5124 1495.97 67.5124 Q1501.23 67.5124 1504.07 65.73 Q1506.9 63.9071 1506.9 60.6258 Q1506.9 57.5877 1504.84 55.9673 Q1502.81 54.3469 1495.88 52.8481 L1493.29 52.2405 Q1486.36 50.7821 1483.29 47.7845 Q1480.21 44.7463 1480.21 39.4801 Q1480.21 33.0797 1484.74 29.5959 Q1489.28 26.1121 1497.63 26.1121 Q1501.76 26.1121 1505.4 26.7198 Q1509.05 27.3274 1512.13 28.5427 Z" fill="#000000" fill-rule="nonzero" fill-opacity="1" /><path clip-path="url(#clip530)" d="M1526.43 27.2059 L1533.88 27.2059 L1533.88 72.576 L1526.43 72.576 L1526.43 27.2059 M1526.43 9.54393 L1533.88 9.54393 L1533.88 18.9825 L1526.43 18.9825 L1526.43 9.54393 Z" fill="#000000" fill-rule="nonzero" fill-opacity="1" /><path clip-path="url(#clip530)" d="M1556.85 14.324 L1556.85 27.2059 L1572.2 27.2059 L1572.2 32.9987 L1556.85 32.9987 L1556.85 57.6282 Q1556.85 63.1779 1558.35 64.7578 Q1559.89 66.3376 1564.55 66.3376 L1572.2 66.3376 L1572.2 72.576 L1564.55 72.576 Q1555.92 72.576 1552.64 69.3758 Q1549.36 66.1351 1549.36 57.6282 L1549.36 32.9987 L1543.89 32.9987 L1543.89 27.2059 L1549.36 27.2059 L1549.36 14.324 L1556.85 14.324 Z" fill="#000000" fill-rule="nonzero" fill-opacity="1" /><path clip-path="url(#clip530)" d="M1600.88 76.7889 Q1597.72 84.8907 1594.73 87.3618 Q1591.73 89.8329 1586.71 89.8329 L1580.75 89.8329 L1580.75 83.5945 L1585.13 83.5945 Q1588.2 83.5945 1589.91 82.1361 Q1591.61 80.6778 1593.67 75.2496 L1595.01 71.8468 L1576.66 27.2059 L1584.56 27.2059 L1598.74 62.6918 L1612.91 27.2059 L1620.81 27.2059 L1600.88 76.7889 Z" fill="#000000" fill-rule="nonzero" fill-opacity="1" /><path clip-path="url(#clip530)" d="M1687.33 34.0924 L1687.33 9.54393 L1694.78 9.54393 L1694.78 72.576 L1687.33 72.576 L1687.33 65.7705 Q1684.98 69.8214 1681.38 71.8063 Q1677.81 73.7508 1672.79 73.7508 Q1664.56 73.7508 1659.38 67.1883 Q1654.23 60.6258 1654.23 49.9314 Q1654.23 39.2371 1659.38 32.6746 Q1664.56 26.1121 1672.79 26.1121 Q1677.81 26.1121 1681.38 28.0971 Q1684.98 30.0415 1687.33 34.0924 M1661.93 49.9314 Q1661.93 58.1548 1665.29 62.8538 Q1668.7 67.5124 1674.61 67.5124 Q1680.52 67.5124 1683.93 62.8538 Q1687.33 58.1548 1687.33 49.9314 Q1687.33 41.7081 1683.93 37.0496 Q1680.52 32.3505 1674.61 32.3505 Q1668.7 32.3505 1665.29 37.0496 Q1661.93 41.7081 1661.93 49.9314 Z" fill="#000000" fill-rule="nonzero" fill-opacity="1" /><path clip-path="url(#clip530)" d="M1748.94 48.0275 L1748.94 51.6733 L1714.67 51.6733 Q1715.16 59.3701 1719.29 63.421 Q1723.46 67.4314 1730.88 67.4314 Q1735.17 67.4314 1739.18 66.3781 Q1743.23 65.3249 1747.2 63.2184 L1747.2 70.267 Q1743.19 71.9684 1738.98 72.8596 Q1734.77 73.7508 1730.43 73.7508 Q1719.58 73.7508 1713.22 67.4314 Q1706.9 61.1119 1706.9 50.3365 Q1706.9 39.1965 1712.89 32.6746 Q1718.93 26.1121 1729.14 26.1121 Q1738.29 26.1121 1743.6 32.0264 Q1748.94 37.9003 1748.94 48.0275 M1741.49 45.84 Q1741.41 39.7232 1738.05 36.0774 Q1734.73 32.4315 1729.22 32.4315 Q1722.98 32.4315 1719.21 35.9558 Q1715.48 39.4801 1714.92 45.8805 L1741.49 45.84 Z" fill="#000000" fill-rule="nonzero" fill-opacity="1" /><path clip-path="url(#clip530)" d="M1768.39 65.7705 L1768.39 89.8329 L1760.89 89.8329 L1760.89 27.2059 L1768.39 27.2059 L1768.39 34.0924 Q1770.74 30.0415 1774.3 28.0971 Q1777.91 26.1121 1782.89 26.1121 Q1791.15 26.1121 1796.3 32.6746 Q1801.48 39.2371 1801.48 49.9314 Q1801.48 60.6258 1796.3 67.1883 Q1791.15 73.7508 1782.89 73.7508 Q1777.91 73.7508 1774.3 71.8063 Q1770.74 69.8214 1768.39 65.7705 M1793.75 49.9314 Q1793.75 41.7081 1790.34 37.0496 Q1786.98 32.3505 1781.07 32.3505 Q1775.15 32.3505 1771.75 37.0496 Q1768.39 41.7081 1768.39 49.9314 Q1768.39 58.1548 1771.75 62.8538 Q1775.15 67.5124 1781.07 67.5124 Q1786.98 67.5124 1790.34 62.8538 Q1793.75 58.1548 1793.75 49.9314 Z" fill="#000000" fill-rule="nonzero" fill-opacity="1" /><path clip-path="url(#clip530)" d="M1852.65 48.0275 L1852.65 51.6733 L1818.38 51.6733 Q1818.86 59.3701 1822.99 63.421 Q1827.17 67.4314 1834.58 67.4314 Q1838.87 67.4314 1842.88 66.3781 Q1846.94 65.3249 1850.91 63.2184 L1850.91 70.267 Q1846.9 71.9684 1842.68 72.8596 Q1838.47 73.7508 1834.13 73.7508 Q1823.28 73.7508 1816.92 67.4314 Q1810.6 61.1119 1810.6 50.3365 Q1810.6 39.1965 1816.59 32.6746 Q1822.63 26.1121 1832.84 26.1121 Q1841.99 26.1121 1847.3 32.0264 Q1852.65 37.9003 1852.65 48.0275 M1845.19 45.84 Q1845.11 39.7232 1841.75 36.0774 Q1838.43 32.4315 1832.92 32.4315 Q1826.68 32.4315 1822.91 35.9558 Q1819.19 39.4801 1818.62 45.8805 L1845.19 45.84 Z" fill="#000000" fill-rule="nonzero" fill-opacity="1" /><path clip-path="url(#clip530)" d="M1902.6 45.1919 L1902.6 72.576 L1895.14 72.576 L1895.14 45.4349 Q1895.14 38.994 1892.63 35.7938 Q1890.12 32.5936 1885.1 32.5936 Q1879.06 32.5936 1875.58 36.4419 Q1872.09 40.2903 1872.09 46.9338 L1872.09 72.576 L1864.6 72.576 L1864.6 27.2059 L1872.09 27.2059 L1872.09 34.2544 Q1874.77 30.163 1878.37 28.1376 Q1882.02 26.1121 1886.76 26.1121 Q1894.57 26.1121 1898.58 30.9732 Q1902.6 35.7938 1902.6 45.1919 Z" fill="#000000" fill-rule="nonzero" fill-opacity="1" /><path clip-path="url(#clip530)" d="M1947.32 34.0924 L1947.32 9.54393 L1954.77 9.54393 L1954.77 72.576 L1947.32 72.576 L1947.32 65.7705 Q1944.97 69.8214 1941.36 71.8063 Q1937.8 73.7508 1932.77 73.7508 Q1924.55 73.7508 1919.37 67.1883 Q1914.22 60.6258 1914.22 49.9314 Q1914.22 39.2371 1919.37 32.6746 Q1924.55 26.1121 1932.77 26.1121 Q1937.8 26.1121 1941.36 28.0971 Q1944.97 30.0415 1947.32 34.0924 M1921.92 49.9314 Q1921.92 58.1548 1925.28 62.8538 Q1928.68 67.5124 1934.6 67.5124 Q1940.51 67.5124 1943.91 62.8538 Q1947.32 58.1548 1947.32 49.9314 Q1947.32 41.7081 1943.91 37.0496 Q1940.51 32.3505 1934.6 32.3505 Q1928.68 32.3505 1925.28 37.0496 Q1921.92 41.7081 1921.92 49.9314 Z" fill="#000000" fill-rule="nonzero" fill-opacity="1" /><path clip-path="url(#clip530)" d="M2008.93 48.0275 L2008.93 51.6733 L1974.66 51.6733 Q1975.15 59.3701 1979.28 63.421 Q1983.45 67.4314 1990.86 67.4314 Q1995.16 67.4314 1999.17 66.3781 Q2003.22 65.3249 2007.19 63.2184 L2007.19 70.267 Q2003.18 71.9684 1998.97 72.8596 Q1994.75 73.7508 1990.42 73.7508 Q1979.56 73.7508 1973.2 67.4314 Q1966.88 61.1119 1966.88 50.3365 Q1966.88 39.1965 1972.88 32.6746 Q1978.91 26.1121 1989.12 26.1121 Q1998.28 26.1121 2003.58 32.0264 Q2008.93 37.9003 2008.93 48.0275 M2001.48 45.84 Q2001.4 39.7232 1998.03 36.0774 Q1994.71 32.4315 1989.2 32.4315 Q1982.96 32.4315 1979.2 35.9558 Q1975.47 39.4801 1974.9 45.8805 L2001.48 45.84 Z" fill="#000000" fill-rule="nonzero" fill-opacity="1" /><path clip-path="url(#clip530)" d="M2058.88 45.1919 L2058.88 72.576 L2051.43 72.576 L2051.43 45.4349 Q2051.43 38.994 2048.91 35.7938 Q2046.4 32.5936 2041.38 32.5936 Q2035.34 32.5936 2031.86 36.4419 Q2028.38 40.2903 2028.38 46.9338 L2028.38 72.576 L2020.88 72.576 L2020.88 27.2059 L2028.38 27.2059 L2028.38 34.2544 Q2031.05 30.163 2034.65 28.1376 Q2038.3 26.1121 2043.04 26.1121 Q2050.86 26.1121 2054.87 30.9732 Q2058.88 35.7938 2058.88 45.1919 Z" fill="#000000" fill-rule="nonzero" fill-opacity="1" /><path clip-path="url(#clip530)" d="M2106.4 28.9478 L2106.4 35.9153 Q2103.24 34.1734 2100.04 33.3227 Q2096.88 32.4315 2093.64 32.4315 Q2086.38 32.4315 2082.37 37.0496 Q2078.36 41.6271 2078.36 49.9314 Q2078.36 58.2358 2082.37 62.8538 Q2086.38 67.4314 2093.64 67.4314 Q2096.88 67.4314 2100.04 66.5807 Q2103.24 65.6895 2106.4 63.9476 L2106.4 70.8341 Q2103.28 72.2924 2099.91 73.0216 Q2096.59 73.7508 2092.83 73.7508 Q2082.58 73.7508 2076.54 67.3098 Q2070.51 60.8689 2070.51 49.9314 Q2070.51 38.832 2076.58 32.472 Q2082.7 26.1121 2093.31 26.1121 Q2096.75 26.1121 2100.04 26.8413 Q2103.32 27.5299 2106.4 28.9478 Z" fill="#000000" fill-rule="nonzero" fill-opacity="1" /><path clip-path="url(#clip530)" d="M2158.17 48.0275 L2158.17 51.6733 L2123.9 51.6733 Q2124.38 59.3701 2128.51 63.421 Q2132.69 67.4314 2140.1 67.4314 Q2144.39 67.4314 2148.4 66.3781 Q2152.45 65.3249 2156.42 63.2184 L2156.42 70.267 Q2152.41 71.9684 2148.2 72.8596 Q2143.99 73.7508 2139.65 73.7508 Q2128.8 73.7508 2122.44 67.4314 Q2116.12 61.1119 2116.12 50.3365 Q2116.12 39.1965 2122.11 32.6746 Q2128.15 26.1121 2138.36 26.1121 Q2147.51 26.1121 2152.82 32.0264 Q2158.17 37.9003 2158.17 48.0275 M2150.71 45.84 Q2150.63 39.7232 2147.27 36.0774 Q2143.95 32.4315 2138.44 32.4315 Q2132.2 32.4315 2128.43 35.9558 Q2124.71 39.4801 2124.14 45.8805 L2150.71 45.84 Z" fill="#000000" fill-rule="nonzero" fill-opacity="1" /><polyline clip-path="url(#clip531)" style="stroke:#800080; stroke-linecap:round; stroke-linejoin:round; stroke-width:8; stroke-opacity:1; fill:none" points="309.459,173.254 317.004,549.162 324.548,805.905 332.093,979.655 339.638,1095.96 347.182,1173.18 354.727,1225.22 362.272,1262.28 369.816,1291.28 377.361,1316.43 384.905,1339.94 392.45,1362.73 399.995,1385.01 407.539,1406.64 415.084,1427.36 422.629,1446.94 430.173,1465.24 437.718,1482.18 445.263,1497.77 452.807,1512.07 460.352,1525.17 467.897,1537.16 475.441,1548.17 482.986,1558.29 490.531,1567.61 498.075,1576.21 505.62,1584.15 513.165,1591.5 520.709,1598.31 528.254,1604.62 535.798,1610.47 543.343,1615.89 550.888,1620.93 558.432,1625.6 565.977,1629.94 573.522,1633.97 581.066,1637.71 588.611,1641.19 596.156,1644.43 603.7,1647.43 611.245,1650.23 618.79,1652.83 626.334,1655.26 633.879,1657.51 641.424,1659.61 648.968,1661.57 656.513,1663.39 664.058,1665.09 671.602,1666.67 679.147,1668.14 686.691,1669.51 694.236,1670.79 701.781,1671.99 709.325,1673.1 716.87,1674.14 724.415,1675.11 731.959,1676.01 739.504,1676.85 747.049,1677.64 754.593,1678.37 762.138,1679.05 769.683,1679.69 777.227,1680.29 784.772,1680.84 792.317,1681.36 799.861,1681.85 807.406,1682.3 814.951,1682.72 822.495,1683.11 830.04,1683.48 837.585,1683.82 845.129,1684.14 852.674,1684.44 860.218,1684.72 867.763,1684.98 875.308,1685.22 882.852,1685.45 890.397,1685.66 897.942,1685.86 905.486,1686.05 913.031,1686.22 920.576,1686.38 928.12,1686.53 935.665,1686.67 943.21,1686.8 950.754,1686.92 958.299,1687.04 965.844,1687.15 973.388,1687.25 980.933,1687.34 988.478,1687.43 996.022,1687.51 1003.57,1687.58 1011.11,1687.65 1018.66,1687.72 1026.2,1687.78 1033.75,1687.84 1041.29,1687.89 1048.83,1687.94 1056.38,1687.99 1063.92,1688.03 1071.47,1688.08 1079.01,1688.11 1086.56,1688.15 1094.1,1688.18 1101.65,1688.21 1109.19,1688.24 1116.74,1688.27 1124.28,1688.3 1131.83,1688.32 1139.37,1688.34 1146.92,1688.36 1154.46,1688.38 1162,1688.4 1169.55,1688.42 1177.09,1688.43 1184.64,1688.45 1192.18,1688.46 1199.73,1688.47 1207.27,1688.49 1214.82,1688.5 1222.36,1688.51 1229.91,1688.52 1237.45,1688.53 1245,1688.53 1252.54,1688.54 1260.08,1688.55 1267.63,1688.56 1275.17,1688.56 1282.72,1688.57 1290.26,1688.57 1297.81,1688.58 1305.35,1688.59 1312.9,1688.59 1320.44,1688.59 1327.99,1688.6 1335.53,1688.6 1343.08,1688.61 1350.62,1688.61 1358.17,1688.61 1365.71,1688.61 1373.25,1688.62 1380.8,1688.62 1388.34,1688.62 1395.89,1688.62 1403.43,1688.63 1410.98,1688.63 1418.52,1688.63 1426.07,1688.63 1433.61,1688.63 1441.16,1688.63 1448.7,1688.64 1456.25,1688.64 1463.79,1688.64 1471.34,1688.64 1478.88,1688.64 1486.42,1688.64 1493.97,1688.64 1501.51,1688.64 1509.06,1688.64 1516.6,1688.64 1524.15,1688.65 1531.69,1688.65 1539.24,1688.65 1546.78,1688.65 1554.33,1688.65 1561.87,1688.65 1569.42,1688.65 1576.96,1688.65 1584.5,1688.65 1592.05,1688.65 1599.59,1688.65 1607.14,1688.65 1614.68,1688.65 1622.23,1688.65 1629.77,1688.65 1637.32,1688.65 1644.86,1688.65 1652.41,1688.65 1659.95,1688.65 1667.5,1688.65 1675.04,1688.65 1682.59,1688.65 1690.13,1688.65 1697.67,1688.65 1705.22,1688.65 1712.76,1688.65 1720.31,1688.65 1727.85,1688.65 1735.4,1688.65 1742.94,1688.65 1750.49,1688.65 1758.03,1688.65 1765.58,1688.65 1773.12,1688.65 1780.67,1688.65 1788.21,1688.65 1795.76,1688.65 1803.3,1688.65 1810.84,1688.65 1818.39,1688.65 1825.93,1688.65 1833.48,1688.65 1841.02,1688.65 1848.57,1688.65 1856.11,1688.65 1863.66,1688.65 1871.2,1688.65 1878.75,1688.65 1886.29,1688.65 1893.84,1688.65 1901.38,1688.65 1908.92,1688.65 1916.47,1688.65 1924.01,1688.65 1931.56,1688.65 1939.1,1688.65 1946.65,1688.65 1954.19,1688.65 1961.74,1688.65 1969.28,1688.65 1976.83,1688.65 1984.37,1688.65 1991.92,1688.65 1999.46,1688.65 2007.01,1688.65 2014.55,1688.65 2022.09,1688.65 2029.64,1688.65 2037.18,1688.65 2044.73,1688.65 2052.27,1688.65 2059.82,1688.65 2067.36,1688.65 2074.91,1688.65 2082.45,1688.65 2090,1688.65 2097.54,1688.65 2105.09,1688.65 2112.63,1688.65 2120.18,1688.65 2127.72,1688.65 2135.26,1688.65 2142.81,1688.65 2150.35,1688.65 2157.9,1688.65 2165.44,1688.65 2172.99,1688.65 2180.53,1688.65 2188.08,1688.65 2195.62,1688.65 2203.17,1688.65 2210.71,1688.65 2218.26,1688.65 2225.8,1688.65 2233.34,1688.65 2240.89,1688.65 2248.43,1688.65 2255.98,1688.65 2263.52,1688.65 2271.07,1688.65 2278.61,1688.65 2286.16,1688.65 2293.7,1688.65 2301.25,1688.65 2308.79,1688.65 2316.34,1688.65 2323.88,1688.65 2331.43,1688.65 2338.97,1688.65 2346.51,1688.65 2354.06,1688.65 2361.6,1688.65 2369.15,1688.65 2376.69,1688.65 2384.24,1688.65 2391.78,1688.65 2399.33,1688.65 2406.87,1688.65 2414.42,1688.65 2421.96,1688.65 2429.51,1688.65 2437.05,1688.65 2444.59,1688.65 2452.14,1688.65 2459.68,1688.65 2467.23,1688.65 2474.77,1688.65 2482.32,1688.65 2489.86,1688.65 2497.41,1688.65 2504.95,1688.65 2512.5,1688.65 2520.04,1688.65 2527.59,1688.65 2535.13,1688.65 2542.68,1688.65 2550.22,1688.65 2557.76,1688.65 2565.31,1688.65 2572.85,1688.65 "/>
<path clip-path="url(#clip530)" d="M2238.55 285.016 L2560.78 285.016 L2560.78 181.336 L2238.55 181.336  Z" fill="#ffffff" fill-rule="evenodd" fill-opacity="1"/>
<polyline clip-path="url(#clip530)" style="stroke:#000000; stroke-linecap:round; stroke-linejoin:round; stroke-width:4; stroke-opacity:1; fill:none" points="2238.55,285.016 2560.78,285.016 2560.78,181.336 2238.55,181.336 2238.55,285.016 "/>
<polyline clip-path="url(#clip530)" style="stroke:#800080; stroke-linecap:round; stroke-linejoin:round; stroke-width:8; stroke-opacity:1; fill:none" points="2265.21,233.176 2425.15,233.176 "/>
<path clip-path="url(#clip530)" d="M2451.81 215.896 L2458.11 215.896 L2473.43 244.808 L2473.43 215.896 L2477.97 215.896 L2477.97 250.456 L2471.67 250.456 L2456.35 221.544 L2456.35 250.456 L2451.81 250.456 L2451.81 215.896 Z" fill="#000000" fill-rule="nonzero" fill-opacity="1" /><path clip-path="url(#clip530)" d="M2497.32 214.484 Q2494.22 219.808 2492.71 225.017 Q2491.21 230.225 2491.21 235.572 Q2491.21 240.919 2492.71 246.174 Q2494.24 251.405 2497.32 256.706 L2493.62 256.706 Q2490.14 251.266 2488.41 246.012 Q2486.69 240.757 2486.69 235.572 Q2486.69 230.41 2488.41 225.179 Q2490.12 219.947 2493.62 214.484 L2497.32 214.484 Z" fill="#000000" fill-rule="nonzero" fill-opacity="1" /><path clip-path="url(#clip530)" d="M2509.8 217.169 L2509.8 224.531 L2518.57 224.531 L2518.57 227.841 L2509.8 227.841 L2509.8 241.915 Q2509.8 245.086 2510.65 245.989 Q2511.53 246.891 2514.19 246.891 L2518.57 246.891 L2518.57 250.456 L2514.19 250.456 Q2509.26 250.456 2507.39 248.628 Q2505.51 246.776 2505.51 241.915 L2505.51 227.841 L2502.39 227.841 L2502.39 224.531 L2505.51 224.531 L2505.51 217.169 L2509.8 217.169 Z" fill="#000000" fill-rule="nonzero" fill-opacity="1" /><path clip-path="url(#clip530)" d="M2523.5 214.484 L2527.2 214.484 Q2530.68 219.947 2532.39 225.179 Q2534.12 230.41 2534.12 235.572 Q2534.12 240.757 2532.39 246.012 Q2530.68 251.266 2527.2 256.706 L2523.5 256.706 Q2526.58 251.405 2528.08 246.174 Q2529.61 240.919 2529.61 235.572 Q2529.61 230.225 2528.08 225.017 Q2526.58 219.808 2523.5 214.484 Z" fill="#000000" fill-rule="nonzero" fill-opacity="1" /></svg>
