<?xml version="1.0" encoding="utf-8"?>
<svg xmlns="http://www.w3.org/2000/svg" xmlns:xlink="http://www.w3.org/1999/xlink" width="672" height="480" viewBox="0 0 2688 1920">
<defs>
  <clipPath id="clip500">
    <rect x="0" y="0" width="2688" height="1920"/>
  </clipPath>
</defs>
<path clip-path="url(#clip500)" d="M0 1920 L2688 1920 L2688 -4.26326e-14 L0 -4.26326e-14  Z" fill="#ffffff" fill-rule="evenodd" fill-opacity="1"/>
<defs>
  <clipPath id="clip501">
    <rect x="241" y="127" width="2400" height="1607"/>
  </clipPath>
</defs>
<path clip-path="url(#clip500)" d="M241.557 1734.12 L2640.76 1734.12 L2640.76 127.792 L241.557 127.792  Z" fill="#ffffff" fill-rule="evenodd" fill-opacity="1"/>
<polyline clip-path="url(#clip501)" style="stroke:#000000; stroke-linecap:round; stroke-linejoin:round; stroke-width:2; stroke-opacity:0.1; fill:none" points="309.459,1734.12 309.459,127.792 "/>
<polyline clip-path="url(#clip501)" style="stroke:#000000; stroke-linecap:round; stroke-linejoin:round; stroke-width:2; stroke-opacity:0.1; fill:none" points="875.308,1734.12 875.308,127.792 "/>
<polyline clip-path="url(#clip501)" style="stroke:#000000; stroke-linecap:round; stroke-linejoin:round; stroke-width:2; stroke-opacity:0.1; fill:none" points="1441.16,1734.12 1441.16,127.792 "/>
<polyline clip-path="url(#clip501)" style="stroke:#000000; stroke-linecap:round; stroke-linejoin:round; stroke-width:2; stroke-opacity:0.1; fill:none" points="2007.01,1734.12 2007.01,127.792 "/>
<polyline clip-path="url(#clip501)" style="stroke:#000000; stroke-linecap:round; stroke-linejoin:round; stroke-width:2; stroke-opacity:0.1; fill:none" points="2572.85,1734.12 2572.85,127.792 "/>
<polyline clip-path="url(#clip501)" style="stroke:#000000; stroke-linecap:round; stroke-linejoin:round; stroke-width:2; stroke-opacity:0.1; fill:none" points="241.557,1688.66 2640.76,1688.66 "/>
<polyline clip-path="url(#clip501)" style="stroke:#000000; stroke-linecap:round; stroke-linejoin:round; stroke-width:2; stroke-opacity:0.1; fill:none" points="241.557,1385.58 2640.76,1385.58 "/>
<polyline clip-path="url(#clip501)" style="stroke:#000000; stroke-linecap:round; stroke-linejoin:round; stroke-width:2; stroke-opacity:0.1; fill:none" points="241.557,1082.5 2640.76,1082.5 "/>
<polyline clip-path="url(#clip501)" style="stroke:#000000; stroke-linecap:round; stroke-linejoin:round; stroke-width:2; stroke-opacity:0.1; fill:none" points="241.557,779.415 2640.76,779.415 "/>
<polyline clip-path="url(#clip501)" style="stroke:#000000; stroke-linecap:round; stroke-linejoin:round; stroke-width:2; stroke-opacity:0.1; fill:none" points="241.557,476.335 2640.76,476.335 "/>
<polyline clip-path="url(#clip501)" style="stroke:#000000; stroke-linecap:round; stroke-linejoin:round; stroke-width:2; stroke-opacity:0.1; fill:none" points="241.557,173.254 2640.76,173.254 "/>
<polyline clip-path="url(#clip500)" style="stroke:#000000; stroke-linecap:round; stroke-linejoin:round; stroke-width:4; stroke-opacity:1; fill:none" points="241.557,1734.12 2640.76,1734.12 "/>
<polyline clip-path="url(#clip500)" style="stroke:#000000; stroke-linecap:round; stroke-linejoin:round; stroke-width:4; stroke-opacity:1; fill:none" points="309.459,1734.12 309.459,1715.22 "/>
<polyline clip-path="url(#clip500)" style="stroke:#000000; stroke-linecap:round; stroke-linejoin:round; stroke-width:4; stroke-opacity:1; fill:none" points="875.308,1734.12 875.308,1715.22 "/>
<polyline clip-path="url(#clip500)" style="stroke:#000000; stroke-linecap:round; stroke-linejoin:round; stroke-width:4; stroke-opacity:1; fill:none" points="1441.16,1734.12 1441.16,1715.22 "/>
<polyline clip-path="url(#clip500)" style="stroke:#000000; stroke-linecap:round; stroke-linejoin:round; stroke-width:4; stroke-opacity:1; fill:none" points="2007.01,1734.12 2007.01,1715.22 "/>
<polyline clip-path="url(#clip500)" style="stroke:#000000; stroke-linecap:round; stroke-linejoin:round; stroke-width:4; stroke-opacity:1; fill:none" points="2572.85,1734.12 2572.85,1715.22 "/>
<path clip-path="url(#clip500)" d="M309.459 1767.34 Q305.848 1767.34 304.019 1770.9 Q302.214 1774.45 302.214 1781.58 Q302.214 1788.68 304.019 1792.25 Q305.848 1795.79 309.459 1795.79 Q313.093 1795.79 314.899 1792.25 Q316.727 1788.68 316.727 1781.58 Q316.727 1774.45 314.899 1770.9 Q313.093 1767.34 309.459 1767.34 M309.459 1763.64 Q315.269 1763.64 318.325 1768.24 Q321.403 1772.83 321.403 1781.58 Q321.403 1790.3 318.325 1794.91 Q315.269 1799.49 309.459 1799.49 Q303.649 1799.49 300.57 1794.91 Q297.515 1790.3 297.515 1781.58 Q297.515 1772.83 300.57 1768.24 Q303.649 1763.64 309.459 1763.64 Z" fill="#000000" fill-rule="nonzero" fill-opacity="1" /><path clip-path="url(#clip500)" d="M850.007 1764.26 L868.363 1764.26 L868.363 1768.2 L854.289 1768.2 L854.289 1776.67 Q855.308 1776.32 856.326 1776.16 Q857.345 1775.97 858.363 1775.97 Q864.15 1775.97 867.53 1779.15 Q870.91 1782.32 870.91 1787.73 Q870.91 1793.31 867.437 1796.41 Q863.965 1799.49 857.646 1799.49 Q855.47 1799.49 853.201 1799.12 Q850.956 1798.75 848.549 1798.01 L848.549 1793.31 Q850.632 1794.45 852.854 1795 Q855.076 1795.56 857.553 1795.56 Q861.558 1795.56 863.896 1793.45 Q866.234 1791.34 866.234 1787.73 Q866.234 1784.12 863.896 1782.02 Q861.558 1779.91 857.553 1779.91 Q855.678 1779.91 853.803 1780.33 Q851.951 1780.74 850.007 1781.62 L850.007 1764.26 Z" fill="#000000" fill-rule="nonzero" fill-opacity="1" /><path clip-path="url(#clip500)" d="M890.122 1767.34 Q886.511 1767.34 884.683 1770.9 Q882.877 1774.45 882.877 1781.58 Q882.877 1788.68 884.683 1792.25 Q886.511 1795.79 890.122 1795.79 Q893.757 1795.79 895.562 1792.25 Q897.391 1788.68 897.391 1781.58 Q897.391 1774.45 895.562 1770.9 Q893.757 1767.34 890.122 1767.34 M890.122 1763.64 Q895.933 1763.64 898.988 1768.24 Q902.067 1772.83 902.067 1781.58 Q902.067 1790.3 898.988 1794.91 Q895.933 1799.49 890.122 1799.49 Q884.312 1799.49 881.234 1794.91 Q878.178 1790.3 878.178 1781.58 Q878.178 1772.83 881.234 1768.24 Q884.312 1763.64 890.122 1763.64 Z" fill="#000000" fill-rule="nonzero" fill-opacity="1" /><path clip-path="url(#clip500)" d="M1400.76 1794.89 L1408.4 1794.89 L1408.4 1768.52 L1400.09 1770.19 L1400.09 1765.93 L1408.36 1764.26 L1413.03 1764.26 L1413.03 1794.89 L1420.67 1794.89 L1420.67 1798.82 L1400.76 1798.82 L1400.76 1794.89 Z" fill="#000000" fill-rule="nonzero" fill-opacity="1" /><path clip-path="url(#clip500)" d="M1440.11 1767.34 Q1436.5 1767.34 1434.68 1770.9 Q1432.87 1774.45 1432.87 1781.58 Q1432.87 1788.68 1434.68 1792.25 Q1436.5 1795.79 1440.11 1795.79 Q1443.75 1795.79 1445.55 1792.25 Q1447.38 1788.68 1447.38 1781.58 Q1447.38 1774.45 1445.55 1770.9 Q1443.75 1767.34 1440.11 1767.34 M1440.11 1763.64 Q1445.93 1763.64 1448.98 1768.24 Q1452.06 1772.83 1452.06 1781.58 Q1452.06 1790.3 1448.98 1794.91 Q1445.93 1799.49 1440.11 1799.49 Q1434.3 1799.49 1431.23 1794.91 Q1428.17 1790.3 1428.17 1781.58 Q1428.17 1772.83 1431.23 1768.24 Q1434.3 1763.64 1440.11 1763.64 Z" fill="#000000" fill-rule="nonzero" fill-opacity="1" /><path clip-path="url(#clip500)" d="M1470.28 1767.34 Q1466.67 1767.34 1464.84 1770.9 Q1463.03 1774.45 1463.03 1781.58 Q1463.03 1788.68 1464.84 1792.25 Q1466.67 1795.79 1470.28 1795.79 Q1473.91 1795.79 1475.72 1792.25 Q1477.55 1788.68 1477.55 1781.58 Q1477.55 1774.45 1475.72 1770.9 Q1473.91 1767.34 1470.28 1767.34 M1470.28 1763.64 Q1476.09 1763.64 1479.14 1768.24 Q1482.22 1772.83 1482.22 1781.58 Q1482.22 1790.3 1479.14 1794.91 Q1476.09 1799.49 1470.28 1799.49 Q1464.47 1799.49 1461.39 1794.91 Q1458.33 1790.3 1458.33 1781.58 Q1458.33 1772.83 1461.39 1768.24 Q1464.47 1763.64 1470.28 1763.64 Z" fill="#000000" fill-rule="nonzero" fill-opacity="1" /><path clip-path="url(#clip500)" d="M1966.61 1794.89 L1974.25 1794.89 L1974.25 1768.52 L1965.94 1770.19 L1965.94 1765.93 L1974.2 1764.26 L1978.88 1764.26 L1978.88 1794.89 L1986.52 1794.89 L1986.52 1798.82 L1966.61 1798.82 L1966.61 1794.89 Z" fill="#000000" fill-rule="nonzero" fill-opacity="1" /><path clip-path="url(#clip500)" d="M1996.01 1764.26 L2014.37 1764.26 L2014.37 1768.2 L2000.29 1768.2 L2000.29 1776.67 Q2001.31 1776.32 2002.33 1776.16 Q2003.35 1775.97 2004.37 1775.97 Q2010.15 1775.97 2013.53 1779.15 Q2016.91 1782.32 2016.91 1787.73 Q2016.91 1793.31 2013.44 1796.41 Q2009.97 1799.49 2003.65 1799.49 Q2001.47 1799.49 1999.2 1799.12 Q1996.96 1798.75 1994.55 1798.01 L1994.55 1793.31 Q1996.63 1794.45 1998.86 1795 Q2001.08 1795.56 2003.56 1795.56 Q2007.56 1795.56 2009.9 1793.45 Q2012.24 1791.34 2012.24 1787.73 Q2012.24 1784.12 2009.9 1782.02 Q2007.56 1779.91 2003.56 1779.91 Q2001.68 1779.91 1999.81 1780.33 Q1997.95 1780.74 1996.01 1781.62 L1996.01 1764.26 Z" fill="#000000" fill-rule="nonzero" fill-opacity="1" /><path clip-path="url(#clip500)" d="M2036.13 1767.34 Q2032.51 1767.34 2030.69 1770.9 Q2028.88 1774.45 2028.88 1781.58 Q2028.88 1788.68 2030.69 1792.25 Q2032.51 1795.79 2036.13 1795.79 Q2039.76 1795.79 2041.57 1792.25 Q2043.39 1788.68 2043.39 1781.58 Q2043.39 1774.45 2041.57 1770.9 Q2039.76 1767.34 2036.13 1767.34 M2036.13 1763.64 Q2041.94 1763.64 2044.99 1768.24 Q2048.07 1772.83 2048.07 1781.58 Q2048.07 1790.3 2044.99 1794.91 Q2041.94 1799.49 2036.13 1799.49 Q2030.32 1799.49 2027.24 1794.91 Q2024.18 1790.3 2024.18 1781.58 Q2024.18 1772.83 2027.24 1768.24 Q2030.32 1763.64 2036.13 1763.64 Z" fill="#000000" fill-rule="nonzero" fill-opacity="1" /><path clip-path="url(#clip500)" d="M2536.55 1794.89 L2552.87 1794.89 L2552.87 1798.82 L2530.92 1798.82 L2530.92 1794.89 Q2533.58 1792.13 2538.17 1787.5 Q2542.77 1782.85 2543.95 1781.51 Q2546.2 1778.98 2547.08 1777.25 Q2547.98 1775.49 2547.98 1773.8 Q2547.98 1771.04 2546.04 1769.31 Q2544.12 1767.57 2541.01 1767.57 Q2538.81 1767.57 2536.36 1768.34 Q2533.93 1769.1 2531.15 1770.65 L2531.15 1765.93 Q2533.98 1764.79 2536.43 1764.21 Q2538.88 1763.64 2540.92 1763.64 Q2546.29 1763.64 2549.49 1766.32 Q2552.68 1769.01 2552.68 1773.5 Q2552.68 1775.63 2551.87 1777.55 Q2551.08 1779.45 2548.98 1782.04 Q2548.4 1782.71 2545.3 1785.93 Q2542.19 1789.12 2536.55 1794.89 Z" fill="#000000" fill-rule="nonzero" fill-opacity="1" /><path clip-path="url(#clip500)" d="M2572.68 1767.34 Q2569.07 1767.34 2567.24 1770.9 Q2565.44 1774.45 2565.44 1781.58 Q2565.44 1788.68 2567.24 1792.25 Q2569.07 1795.79 2572.68 1795.79 Q2576.31 1795.79 2578.12 1792.25 Q2579.95 1788.68 2579.95 1781.58 Q2579.95 1774.45 2578.12 1770.9 Q2576.31 1767.34 2572.68 1767.34 M2572.68 1763.64 Q2578.49 1763.64 2581.55 1768.24 Q2584.62 1772.83 2584.62 1781.58 Q2584.62 1790.3 2581.55 1794.91 Q2578.49 1799.49 2572.68 1799.49 Q2566.87 1799.49 2563.79 1794.91 Q2560.74 1790.3 2560.74 1781.58 Q2560.74 1772.83 2563.79 1768.24 Q2566.87 1763.64 2572.68 1763.64 Z" fill="#000000" fill-rule="nonzero" fill-opacity="1" /><path clip-path="url(#clip500)" d="M2602.84 1767.34 Q2599.23 1767.34 2597.4 1770.9 Q2595.6 1774.45 2595.6 1781.58 Q2595.6 1788.68 2597.4 1792.25 Q2599.23 1795.79 2602.84 1795.79 Q2606.48 1795.79 2608.28 1792.25 Q2610.11 1788.68 2610.11 1781.58 Q2610.11 1774.45 2608.28 1770.9 Q2606.48 1767.34 2602.84 1767.34 M2602.84 1763.64 Q2608.65 1763.64 2611.71 1768.24 Q2614.79 1772.83 2614.79 1781.58 Q2614.79 1790.3 2611.71 1794.91 Q2608.65 1799.49 2602.84 1799.49 Q2597.03 1799.49 2593.95 1794.91 Q2590.9 1790.3 2590.9 1781.58 Q2590.9 1772.83 2593.95 1768.24 Q2597.03 1763.64 2602.84 1763.64 Z" fill="#000000" fill-rule="nonzero" fill-opacity="1" /><path clip-path="url(#clip500)" d="M1372.09 1835.78 L1379 1835.78 L1392.17 1855.32 L1405.25 1835.78 L1412.16 1835.78 L1395.36 1860.67 L1395.36 1883.3 L1388.89 1883.3 L1388.89 1860.67 L1372.09 1835.78 Z" fill="#000000" fill-rule="nonzero" fill-opacity="1" /><path clip-path="url(#clip500)" d="M1440.01 1864.01 L1440.01 1866.88 L1413.08 1866.88 Q1413.47 1872.92 1416.71 1876.11 Q1419.99 1879.26 1425.82 1879.26 Q1429.19 1879.26 1432.34 1878.43 Q1435.52 1877.6 1438.64 1875.95 L1438.64 1881.49 Q1435.49 1882.82 1432.18 1883.52 Q1428.87 1884.22 1425.47 1884.22 Q1416.94 1884.22 1411.94 1879.26 Q1406.97 1874.29 1406.97 1865.83 Q1406.97 1857.07 1411.68 1851.95 Q1416.43 1846.79 1424.45 1846.79 Q1431.64 1846.79 1435.81 1851.44 Q1440.01 1856.06 1440.01 1864.01 M1434.15 1862.29 Q1434.09 1857.49 1431.45 1854.62 Q1428.84 1851.76 1424.51 1851.76 Q1419.61 1851.76 1416.65 1854.53 Q1413.72 1857.3 1413.27 1862.33 L1434.15 1862.29 Z" fill="#000000" fill-rule="nonzero" fill-opacity="1" /><path clip-path="url(#clip500)" d="M1465.82 1865.38 Q1458.73 1865.38 1455.99 1867 Q1453.25 1868.63 1453.25 1872.54 Q1453.25 1875.66 1455.29 1877.51 Q1457.36 1879.32 1460.89 1879.32 Q1465.76 1879.32 1468.69 1875.88 Q1471.65 1872.42 1471.65 1866.69 L1471.65 1865.38 L1465.82 1865.38 M1477.5 1862.96 L1477.5 1883.3 L1471.65 1883.3 L1471.65 1877.89 Q1469.64 1881.14 1466.65 1882.7 Q1463.66 1884.22 1459.33 1884.22 Q1453.86 1884.22 1450.61 1881.17 Q1447.39 1878.08 1447.39 1872.92 Q1447.39 1866.91 1451.41 1863.85 Q1455.45 1860.8 1463.44 1860.8 L1471.65 1860.8 L1471.65 1860.23 Q1471.65 1856.18 1468.97 1853.99 Q1466.33 1851.76 1461.53 1851.76 Q1458.47 1851.76 1455.57 1852.49 Q1452.68 1853.22 1450 1854.69 L1450 1849.28 Q1453.22 1848.03 1456.24 1847.43 Q1459.27 1846.79 1462.13 1846.79 Q1469.87 1846.79 1473.69 1850.8 Q1477.5 1854.81 1477.5 1862.96 Z" fill="#000000" fill-rule="nonzero" fill-opacity="1" /><path clip-path="url(#clip500)" d="M1510.22 1853.13 Q1509.24 1852.55 1508.06 1852.3 Q1506.91 1852.01 1505.51 1852.01 Q1500.55 1852.01 1497.87 1855.26 Q1495.23 1858.47 1495.23 1864.52 L1495.23 1883.3 L1489.34 1883.3 L1489.34 1847.65 L1495.23 1847.65 L1495.23 1853.19 Q1497.08 1849.94 1500.04 1848.39 Q1503 1846.79 1507.23 1846.79 Q1507.84 1846.79 1508.57 1846.89 Q1509.3 1846.95 1510.19 1847.11 L1510.22 1853.13 Z" fill="#000000" fill-rule="nonzero" fill-opacity="1" /><polyline clip-path="url(#clip500)" style="stroke:#000000; stroke-linecap:round; stroke-linejoin:round; stroke-width:4; stroke-opacity:1; fill:none" points="241.557,1734.12 241.557,127.792 "/>
<polyline clip-path="url(#clip500)" style="stroke:#000000; stroke-linecap:round; stroke-linejoin:round; stroke-width:4; stroke-opacity:1; fill:none" points="241.557,1688.66 260.455,1688.66 "/>
<polyline clip-path="url(#clip500)" style="stroke:#000000; stroke-linecap:round; stroke-linejoin:round; stroke-width:4; stroke-opacity:1; fill:none" points="241.557,1385.58 260.455,1385.58 "/>
<polyline clip-path="url(#clip500)" style="stroke:#000000; stroke-linecap:round; stroke-linejoin:round; stroke-width:4; stroke-opacity:1; fill:none" points="241.557,1082.5 260.455,1082.5 "/>
<polyline clip-path="url(#clip500)" style="stroke:#000000; stroke-linecap:round; stroke-linejoin:round; stroke-width:4; stroke-opacity:1; fill:none" points="241.557,779.415 260.455,779.415 "/>
<polyline clip-path="url(#clip500)" style="stroke:#000000; stroke-linecap:round; stroke-linejoin:round; stroke-width:4; stroke-opacity:1; fill:none" points="241.557,476.335 260.455,476.335 "/>
<polyline clip-path="url(#clip500)" style="stroke:#000000; stroke-linecap:round; stroke-linejoin:round; stroke-width:4; stroke-opacity:1; fill:none" points="241.557,173.254 260.455,173.254 "/>
<path clip-path="url(#clip500)" d="M189.293 1674.45 Q185.682 1674.45 183.853 1678.02 Q182.047 1681.56 182.047 1688.69 Q182.047 1695.8 183.853 1699.36 Q185.682 1702.9 189.293 1702.9 Q192.927 1702.9 194.733 1699.36 Q196.561 1695.8 196.561 1688.69 Q196.561 1681.56 194.733 1678.02 Q192.927 1674.45 189.293 1674.45 M189.293 1670.75 Q195.103 1670.75 198.158 1675.36 Q201.237 1679.94 201.237 1688.69 Q201.237 1697.42 198.158 1702.02 Q195.103 1706.61 189.293 1706.61 Q183.483 1706.61 180.404 1702.02 Q177.348 1697.42 177.348 1688.69 Q177.348 1679.94 180.404 1675.36 Q183.483 1670.75 189.293 1670.75 Z" fill="#000000" fill-rule="nonzero" fill-opacity="1" /><path clip-path="url(#clip500)" d="M119.779 1398.92 L127.418 1398.92 L127.418 1372.55 L119.108 1374.22 L119.108 1369.96 L127.372 1368.3 L132.048 1368.3 L132.048 1398.92 L139.687 1398.92 L139.687 1402.86 L119.779 1402.86 L119.779 1398.92 Z" fill="#000000" fill-rule="nonzero" fill-opacity="1" /><path clip-path="url(#clip500)" d="M159.131 1371.37 Q155.52 1371.37 153.691 1374.94 Q151.886 1378.48 151.886 1385.61 Q151.886 1392.72 153.691 1396.28 Q155.52 1399.82 159.131 1399.82 Q162.765 1399.82 164.571 1396.28 Q166.399 1392.72 166.399 1385.61 Q166.399 1378.48 164.571 1374.94 Q162.765 1371.37 159.131 1371.37 M159.131 1367.67 Q164.941 1367.67 167.997 1372.28 Q171.075 1376.86 171.075 1385.61 Q171.075 1394.34 167.997 1398.94 Q164.941 1403.53 159.131 1403.53 Q153.321 1403.53 150.242 1398.94 Q147.186 1394.34 147.186 1385.61 Q147.186 1376.86 150.242 1372.28 Q153.321 1367.67 159.131 1367.67 Z" fill="#000000" fill-rule="nonzero" fill-opacity="1" /><path clip-path="url(#clip500)" d="M189.293 1371.37 Q185.682 1371.37 183.853 1374.94 Q182.047 1378.48 182.047 1385.61 Q182.047 1392.72 183.853 1396.28 Q185.682 1399.82 189.293 1399.82 Q192.927 1399.82 194.733 1396.28 Q196.561 1392.72 196.561 1385.61 Q196.561 1378.48 194.733 1374.94 Q192.927 1371.37 189.293 1371.37 M189.293 1367.67 Q195.103 1367.67 198.158 1372.28 Q201.237 1376.86 201.237 1385.61 Q201.237 1394.34 198.158 1398.94 Q195.103 1403.53 189.293 1403.53 Q183.483 1403.53 180.404 1398.94 Q177.348 1394.34 177.348 1385.61 Q177.348 1376.86 180.404 1372.28 Q183.483 1367.67 189.293 1367.67 Z" fill="#000000" fill-rule="nonzero" fill-opacity="1" /><path clip-path="url(#clip500)" d="M122.997 1095.84 L139.316 1095.84 L139.316 1099.78 L117.372 1099.78 L117.372 1095.84 Q120.034 1093.09 124.617 1088.46 Q129.224 1083.8 130.404 1082.46 Q132.65 1079.94 133.529 1078.2 Q134.432 1076.44 134.432 1074.75 Q134.432 1072 132.488 1070.26 Q130.566 1068.53 127.464 1068.53 Q125.265 1068.53 122.812 1069.29 Q120.381 1070.05 117.603 1071.6 L117.603 1066.88 Q120.427 1065.75 122.881 1065.17 Q125.335 1064.59 127.372 1064.59 Q132.742 1064.59 135.937 1067.28 Q139.131 1069.96 139.131 1074.45 Q139.131 1076.58 138.321 1078.5 Q137.534 1080.4 135.427 1082.99 Q134.849 1083.66 131.747 1086.88 Q128.645 1090.08 122.997 1095.84 Z" fill="#000000" fill-rule="nonzero" fill-opacity="1" /><path clip-path="url(#clip500)" d="M159.131 1068.29 Q155.52 1068.29 153.691 1071.86 Q151.886 1075.4 151.886 1082.53 Q151.886 1089.64 153.691 1093.2 Q155.52 1096.74 159.131 1096.74 Q162.765 1096.74 164.571 1093.2 Q166.399 1089.64 166.399 1082.53 Q166.399 1075.4 164.571 1071.86 Q162.765 1068.29 159.131 1068.29 M159.131 1064.59 Q164.941 1064.59 167.997 1069.2 Q171.075 1073.78 171.075 1082.53 Q171.075 1091.26 167.997 1095.86 Q164.941 1100.45 159.131 1100.45 Q153.321 1100.45 150.242 1095.86 Q147.186 1091.26 147.186 1082.53 Q147.186 1073.78 150.242 1069.2 Q153.321 1064.59 159.131 1064.59 Z" fill="#000000" fill-rule="nonzero" fill-opacity="1" /><path clip-path="url(#clip500)" d="M189.293 1068.29 Q185.682 1068.29 183.853 1071.86 Q182.047 1075.4 182.047 1082.53 Q182.047 1089.64 183.853 1093.2 Q185.682 1096.74 189.293 1096.74 Q192.927 1096.74 194.733 1093.2 Q196.561 1089.64 196.561 1082.53 Q196.561 1075.4 194.733 1071.86 Q192.927 1068.29 189.293 1068.29 M189.293 1064.59 Q195.103 1064.59 198.158 1069.2 Q201.237 1073.78 201.237 1082.53 Q201.237 1091.26 198.158 1095.86 Q195.103 1100.45 189.293 1100.45 Q183.483 1100.45 180.404 1095.86 Q177.348 1091.26 177.348 1082.53 Q177.348 1073.78 180.404 1069.2 Q183.483 1064.59 189.293 1064.59 Z" fill="#000000" fill-rule="nonzero" fill-opacity="1" /><path clip-path="url(#clip500)" d="M133.136 778.061 Q136.492 778.778 138.367 781.047 Q140.265 783.315 140.265 786.649 Q140.265 791.764 136.747 794.565 Q133.228 797.366 126.747 797.366 Q124.571 797.366 122.256 796.926 Q119.964 796.51 117.511 795.653 L117.511 791.139 Q119.455 792.274 121.77 792.852 Q124.085 793.431 126.608 793.431 Q131.006 793.431 133.298 791.695 Q135.612 789.959 135.612 786.649 Q135.612 783.593 133.46 781.88 Q131.33 780.144 127.511 780.144 L123.483 780.144 L123.483 776.301 L127.696 776.301 Q131.145 776.301 132.974 774.936 Q134.802 773.547 134.802 770.954 Q134.802 768.292 132.904 766.88 Q131.029 765.445 127.511 765.445 Q125.589 765.445 123.39 765.862 Q121.191 766.278 118.552 767.158 L118.552 762.991 Q121.214 762.251 123.529 761.88 Q125.867 761.51 127.927 761.51 Q133.251 761.51 136.353 763.94 Q139.455 766.348 139.455 770.468 Q139.455 773.339 137.812 775.329 Q136.168 777.297 133.136 778.061 Z" fill="#000000" fill-rule="nonzero" fill-opacity="1" /><path clip-path="url(#clip500)" d="M159.131 765.214 Q155.52 765.214 153.691 768.778 Q151.886 772.32 151.886 779.45 Q151.886 786.556 153.691 790.121 Q155.52 793.662 159.131 793.662 Q162.765 793.662 164.571 790.121 Q166.399 786.556 166.399 779.45 Q166.399 772.32 164.571 768.778 Q162.765 765.214 159.131 765.214 M159.131 761.51 Q164.941 761.51 167.997 766.116 Q171.075 770.7 171.075 779.45 Q171.075 788.176 167.997 792.783 Q164.941 797.366 159.131 797.366 Q153.321 797.366 150.242 792.783 Q147.186 788.176 147.186 779.45 Q147.186 770.7 150.242 766.116 Q153.321 761.51 159.131 761.51 Z" fill="#000000" fill-rule="nonzero" fill-opacity="1" /><path clip-path="url(#clip500)" d="M189.293 765.214 Q185.682 765.214 183.853 768.778 Q182.047 772.32 182.047 779.45 Q182.047 786.556 183.853 790.121 Q185.682 793.662 189.293 793.662 Q192.927 793.662 194.733 790.121 Q196.561 786.556 196.561 779.45 Q196.561 772.32 194.733 768.778 Q192.927 765.214 189.293 765.214 M189.293 761.51 Q195.103 761.51 198.158 766.116 Q201.237 770.7 201.237 779.45 Q201.237 788.176 198.158 792.783 Q195.103 797.366 189.293 797.366 Q183.483 797.366 180.404 792.783 Q177.348 788.176 177.348 779.45 Q177.348 770.7 180.404 766.116 Q183.483 761.51 189.293 761.51 Z" fill="#000000" fill-rule="nonzero" fill-opacity="1" /><path clip-path="url(#clip500)" d="M131.816 463.129 L120.011 481.578 L131.816 481.578 L131.816 463.129 M130.589 459.055 L136.469 459.055 L136.469 481.578 L141.399 481.578 L141.399 485.466 L136.469 485.466 L136.469 493.615 L131.816 493.615 L131.816 485.466 L116.214 485.466 L116.214 480.953 L130.589 459.055 Z" fill="#000000" fill-rule="nonzero" fill-opacity="1" /><path clip-path="url(#clip500)" d="M159.131 462.133 Q155.52 462.133 153.691 465.698 Q151.886 469.24 151.886 476.369 Q151.886 483.476 153.691 487.04 Q155.52 490.582 159.131 490.582 Q162.765 490.582 164.571 487.04 Q166.399 483.476 166.399 476.369 Q166.399 469.24 164.571 465.698 Q162.765 462.133 159.131 462.133 M159.131 458.43 Q164.941 458.43 167.997 463.036 Q171.075 467.619 171.075 476.369 Q171.075 485.096 167.997 489.702 Q164.941 494.286 159.131 494.286 Q153.321 494.286 150.242 489.702 Q147.186 485.096 147.186 476.369 Q147.186 467.619 150.242 463.036 Q153.321 458.43 159.131 458.43 Z" fill="#000000" fill-rule="nonzero" fill-opacity="1" /><path clip-path="url(#clip500)" d="M189.293 462.133 Q185.682 462.133 183.853 465.698 Q182.047 469.24 182.047 476.369 Q182.047 483.476 183.853 487.04 Q185.682 490.582 189.293 490.582 Q192.927 490.582 194.733 487.04 Q196.561 483.476 196.561 476.369 Q196.561 469.24 194.733 465.698 Q192.927 462.133 189.293 462.133 M189.293 458.43 Q195.103 458.43 198.158 463.036 Q201.237 467.619 201.237 476.369 Q201.237 485.096 198.158 489.702 Q195.103 494.286 189.293 494.286 Q183.483 494.286 180.404 489.702 Q177.348 485.096 177.348 476.369 Q177.348 467.619 180.404 463.036 Q183.483 458.43 189.293 458.43 Z" fill="#000000" fill-rule="nonzero" fill-opacity="1" /><path clip-path="url(#clip500)" d="M119.015 155.974 L137.372 155.974 L137.372 159.909 L123.298 159.909 L123.298 168.381 Q124.316 168.034 125.335 167.872 Q126.353 167.687 127.372 167.687 Q133.159 167.687 136.538 170.858 Q139.918 174.03 139.918 179.446 Q139.918 185.025 136.446 188.127 Q132.974 191.205 126.654 191.205 Q124.478 191.205 122.21 190.835 Q119.964 190.465 117.557 189.724 L117.557 185.025 Q119.64 186.159 121.863 186.715 Q124.085 187.27 126.562 187.27 Q130.566 187.27 132.904 185.164 Q135.242 183.057 135.242 179.446 Q135.242 175.835 132.904 173.729 Q130.566 171.622 126.562 171.622 Q124.687 171.622 122.812 172.039 Q120.96 172.456 119.015 173.335 L119.015 155.974 Z" fill="#000000" fill-rule="nonzero" fill-opacity="1" /><path clip-path="url(#clip500)" d="M159.131 159.053 Q155.52 159.053 153.691 162.618 Q151.886 166.159 151.886 173.289 Q151.886 180.395 153.691 183.96 Q155.52 187.502 159.131 187.502 Q162.765 187.502 164.571 183.96 Q166.399 180.395 166.399 173.289 Q166.399 166.159 164.571 162.618 Q162.765 159.053 159.131 159.053 M159.131 155.349 Q164.941 155.349 167.997 159.956 Q171.075 164.539 171.075 173.289 Q171.075 182.016 167.997 186.622 Q164.941 191.205 159.131 191.205 Q153.321 191.205 150.242 186.622 Q147.186 182.016 147.186 173.289 Q147.186 164.539 150.242 159.956 Q153.321 155.349 159.131 155.349 Z" fill="#000000" fill-rule="nonzero" fill-opacity="1" /><path clip-path="url(#clip500)" d="M189.293 159.053 Q185.682 159.053 183.853 162.618 Q182.047 166.159 182.047 173.289 Q182.047 180.395 183.853 183.96 Q185.682 187.502 189.293 187.502 Q192.927 187.502 194.733 183.96 Q196.561 180.395 196.561 173.289 Q196.561 166.159 194.733 162.618 Q192.927 159.053 189.293 159.053 M189.293 155.349 Q195.103 155.349 198.158 159.956 Q201.237 164.539 201.237 173.289 Q201.237 182.016 198.158 186.622 Q195.103 191.205 189.293 191.205 Q183.483 191.205 180.404 186.622 Q177.348 182.016 177.348 173.289 Q177.348 164.539 180.404 159.956 Q183.483 155.349 189.293 155.349 Z" fill="#000000" fill-rule="nonzero" fill-opacity="1" /><path clip-path="url(#clip500)" d="M14.1184 1188.19 L14.1184 1147.99 L19.5293 1147.99 L19.5293 1164.86 L61.6384 1164.86 L61.6384 1171.32 L19.5293 1171.32 L19.5293 1188.19 L14.1184 1188.19 Z" fill="#000000" fill-rule="nonzero" fill-opacity="1" /><path clip-path="url(#clip500)" d="M30.0964 1139.3 Q30.0964 1144.01 33.7885 1146.75 Q37.4488 1149.49 43.8463 1149.49 Q50.2438 1149.49 53.9359 1146.78 Q57.5962 1144.05 57.5962 1139.3 Q57.5962 1134.63 53.9041 1131.89 Q50.212 1129.15 43.8463 1129.15 Q37.5124 1129.15 33.8203 1131.89 Q30.0964 1134.63 30.0964 1139.3 M25.1311 1139.3 Q25.1311 1131.67 30.0964 1127.3 Q35.0616 1122.94 43.8463 1122.94 Q52.5991 1122.94 57.5962 1127.3 Q62.5615 1131.67 62.5615 1139.3 Q62.5615 1146.97 57.5962 1151.34 Q52.5991 1155.66 43.8463 1155.66 Q35.0616 1155.66 30.0964 1151.34 Q25.1311 1146.97 25.1311 1139.3 Z" fill="#000000" fill-rule="nonzero" fill-opacity="1" /><path clip-path="url(#clip500)" d="M15.869 1107.44 L25.9905 1107.44 L25.9905 1095.38 L30.542 1095.38 L30.542 1107.44 L49.8937 1107.44 Q54.2542 1107.44 55.4955 1106.27 Q56.7368 1105.06 56.7368 1101.4 L56.7368 1095.38 L61.6384 1095.38 L61.6384 1101.4 Q61.6384 1108.18 59.124 1110.75 Q56.5777 1113.33 49.8937 1113.33 L30.542 1113.33 L30.542 1117.63 L25.9905 1117.63 L25.9905 1113.33 L15.869 1113.33 L15.869 1107.44 Z" fill="#000000" fill-rule="nonzero" fill-opacity="1" /><path clip-path="url(#clip500)" d="M43.719 1071.48 Q43.719 1078.58 45.3422 1081.31 Q46.9655 1084.05 50.8804 1084.05 Q53.9996 1084.05 55.8457 1082.01 Q57.6599 1079.94 57.6599 1076.41 Q57.6599 1071.54 54.2224 1068.61 Q50.7531 1065.65 45.0239 1065.65 L43.719 1065.65 L43.719 1071.48 M41.3 1059.8 L61.6384 1059.8 L61.6384 1065.65 L56.2276 1065.65 Q59.4741 1067.66 61.0337 1070.65 Q62.5615 1073.64 62.5615 1077.97 Q62.5615 1083.45 59.5059 1086.69 Q56.4186 1089.91 51.2623 1089.91 Q45.2467 1089.91 42.1912 1085.9 Q39.1357 1081.85 39.1357 1073.86 L39.1357 1065.65 L38.5628 1065.65 Q34.5205 1065.65 32.3244 1068.33 Q30.0964 1070.97 30.0964 1075.77 Q30.0964 1078.83 30.8284 1081.73 Q31.5605 1084.62 33.0246 1087.3 L27.6137 1087.3 Q26.3724 1084.08 25.7677 1081.06 Q25.1311 1078.03 25.1311 1075.17 Q25.1311 1067.44 29.1415 1063.62 Q33.1519 1059.8 41.3 1059.8 Z" fill="#000000" fill-rule="nonzero" fill-opacity="1" /><path clip-path="url(#clip500)" d="M12.1132 1047.73 L12.1132 1041.88 L61.6384 1041.88 L61.6384 1047.73 L12.1132 1047.73 Z" fill="#000000" fill-rule="nonzero" fill-opacity="1" /><path clip-path="url(#clip500)" d="M56.2912 1003.24 L75.1974 1003.24 L75.1974 1009.13 L25.9905 1009.13 L25.9905 1003.24 L31.4013 1003.24 Q28.2185 1001.39 26.6907 998.59 Q25.1311 995.757 25.1311 991.843 Q25.1311 985.35 30.2873 981.307 Q35.4436 977.233 43.8463 977.233 Q52.249 977.233 57.4052 981.307 Q62.5615 985.35 62.5615 991.843 Q62.5615 995.757 61.0337 998.59 Q59.4741 1001.39 56.2912 1003.24 M43.8463 983.312 Q37.3851 983.312 33.7248 985.986 Q30.0327 988.628 30.0327 993.275 Q30.0327 997.922 33.7248 1000.6 Q37.3851 1003.24 43.8463 1003.24 Q50.3075 1003.24 53.9996 1000.6 Q57.6599 997.922 57.6599 993.275 Q57.6599 988.628 53.9996 985.986 Q50.3075 983.312 43.8463 983.312 Z" fill="#000000" fill-rule="nonzero" fill-opacity="1" /><path clip-path="url(#clip500)" d="M30.0964 953.712 Q30.0964 958.423 33.7885 961.16 Q37.4488 963.897 43.8463 963.897 Q50.2438 963.897 53.9359 961.192 Q57.5962 958.454 57.5962 953.712 Q57.5962 949.033 53.9041 946.296 Q50.212 943.559 43.8463 943.559 Q37.5124 943.559 33.8203 946.296 Q30.0964 949.033 30.0964 953.712 M25.1311 953.712 Q25.1311 946.073 30.0964 941.713 Q35.0616 937.352 43.8463 937.352 Q52.5991 937.352 57.5962 941.713 Q62.5615 946.073 62.5615 953.712 Q62.5615 961.383 57.5962 965.743 Q52.5991 970.072 43.8463 970.072 Q35.0616 970.072 30.0964 965.743 Q25.1311 961.383 25.1311 953.712 Z" fill="#000000" fill-rule="nonzero" fill-opacity="1" /><path clip-path="url(#clip500)" d="M56.2912 921.979 L75.1974 921.979 L75.1974 927.867 L25.9905 927.867 L25.9905 921.979 L31.4013 921.979 Q28.2185 920.133 26.6907 917.332 Q25.1311 914.499 25.1311 910.584 Q25.1311 904.091 30.2873 900.049 Q35.4436 895.975 43.8463 895.975 Q52.249 895.975 57.4052 900.049 Q62.5615 904.091 62.5615 910.584 Q62.5615 914.499 61.0337 917.332 Q59.4741 920.133 56.2912 921.979 M43.8463 902.054 Q37.3851 902.054 33.7248 904.728 Q30.0327 907.37 30.0327 912.017 Q30.0327 916.664 33.7248 919.337 Q37.3851 921.979 43.8463 921.979 Q50.3075 921.979 53.9996 919.337 Q57.6599 916.664 57.6599 912.017 Q57.6599 907.37 53.9996 904.728 Q50.3075 902.054 43.8463 902.054 Z" fill="#000000" fill-rule="nonzero" fill-opacity="1" /><path clip-path="url(#clip500)" d="M47.5702 886.872 L25.9905 886.872 L25.9905 881.016 L47.3474 881.016 Q52.4082 881.016 54.9545 879.042 Q57.4689 877.069 57.4689 873.122 Q57.4689 868.38 54.4452 865.642 Q51.4215 862.873 46.2016 862.873 L25.9905 862.873 L25.9905 857.017 L61.6384 857.017 L61.6384 862.873 L56.1639 862.873 Q59.4104 865.006 61.0019 867.839 Q62.5615 870.639 62.5615 874.363 Q62.5615 880.506 58.742 883.689 Q54.9226 886.872 47.5702 886.872 M25.1311 872.135 L25.1311 872.135 Z" fill="#000000" fill-rule="nonzero" fill-opacity="1" /><path clip-path="url(#clip500)" d="M12.1132 844.954 L12.1132 839.097 L61.6384 839.097 L61.6384 844.954 L12.1132 844.954 Z" fill="#000000" fill-rule="nonzero" fill-opacity="1" /><path clip-path="url(#clip500)" d="M43.719 810.643 Q43.719 817.74 45.3422 820.478 Q46.9655 823.215 50.8804 823.215 Q53.9996 823.215 55.8457 821.178 Q57.6599 819.109 57.6599 815.576 Q57.6599 810.706 54.2224 807.778 Q50.7531 804.818 45.0239 804.818 L43.719 804.818 L43.719 810.643 M41.3 798.962 L61.6384 798.962 L61.6384 804.818 L56.2276 804.818 Q59.4741 806.823 61.0337 809.815 Q62.5615 812.807 62.5615 817.136 Q62.5615 822.61 59.5059 825.857 Q56.4186 829.071 51.2623 829.071 Q45.2467 829.071 42.1912 825.061 Q39.1357 821.019 39.1357 813.03 L39.1357 804.818 L38.5628 804.818 Q34.5205 804.818 32.3244 807.492 Q30.0964 810.133 30.0964 814.94 Q30.0964 817.995 30.8284 820.891 Q31.5605 823.788 33.0246 826.461 L27.6137 826.461 Q26.3724 823.247 25.7677 820.223 Q25.1311 817.199 25.1311 814.335 Q25.1311 806.6 29.1415 802.781 Q33.1519 798.962 41.3 798.962 Z" fill="#000000" fill-rule="nonzero" fill-opacity="1" /><path clip-path="url(#clip500)" d="M15.869 781.106 L25.9905 781.106 L25.9905 769.043 L30.542 769.043 L30.542 781.106 L49.8937 781.106 Q54.2542 781.106 55.4955 779.928 Q56.7368 778.719 56.7368 775.058 L56.7368 769.043 L61.6384 769.043 L61.6384 775.058 Q61.6384 781.838 59.124 784.416 Q56.5777 786.994 49.8937 786.994 L30.542 786.994 L30.542 791.291 L25.9905 791.291 L25.9905 786.994 L15.869 786.994 L15.869 781.106 Z" fill="#000000" fill-rule="nonzero" fill-opacity="1" /><path clip-path="url(#clip500)" d="M25.9905 761.34 L25.9905 755.484 L61.6384 755.484 L61.6384 761.34 L25.9905 761.34 M12.1132 761.34 L12.1132 755.484 L19.5293 755.484 L19.5293 761.34 L12.1132 761.34 Z" fill="#000000" fill-rule="nonzero" fill-opacity="1" /><path clip-path="url(#clip500)" d="M30.0964 729.416 Q30.0964 734.127 33.7885 736.864 Q37.4488 739.601 43.8463 739.601 Q50.2438 739.601 53.9359 736.896 Q57.5962 734.159 57.5962 729.416 Q57.5962 724.737 53.9041 722 Q50.212 719.263 43.8463 719.263 Q37.5124 719.263 33.8203 722 Q30.0964 724.737 30.0964 729.416 M25.1311 729.416 Q25.1311 721.777 30.0964 717.417 Q35.0616 713.056 43.8463 713.056 Q52.5991 713.056 57.5962 717.417 Q62.5615 721.777 62.5615 729.416 Q62.5615 737.087 57.5962 741.447 Q52.5991 745.776 43.8463 745.776 Q35.0616 745.776 30.0964 741.447 Q25.1311 737.087 25.1311 729.416 Z" fill="#000000" fill-rule="nonzero" fill-opacity="1" /><path clip-path="url(#clip500)" d="M40.1224 673.716 L61.6384 673.716 L61.6384 679.573 L40.3133 679.573 Q35.2526 679.573 32.7381 681.546 Q30.2237 683.52 30.2237 687.466 Q30.2237 692.209 33.2474 694.946 Q36.2711 697.683 41.491 697.683 L61.6384 697.683 L61.6384 703.572 L25.9905 703.572 L25.9905 697.683 L31.5287 697.683 Q28.314 695.583 26.7225 692.75 Q25.1311 689.885 25.1311 686.161 Q25.1311 680.018 28.9505 676.867 Q32.7381 673.716 40.1224 673.716 Z" fill="#000000" fill-rule="nonzero" fill-opacity="1" /><path clip-path="url(#clip500)" d="M318.003 18.8205 L318.003 65.8515 L327.887 65.8515 Q340.404 65.8515 346.197 60.1802 Q352.03 54.509 352.03 42.2752 Q352.03 30.1225 346.197 24.4918 Q340.404 18.8205 327.887 18.8205 L318.003 18.8205 M309.82 12.096 L326.631 12.096 Q344.212 12.096 352.436 19.4281 Q360.659 26.7198 360.659 42.2752 Q360.659 57.9117 352.395 65.2439 Q344.131 72.576 326.631 72.576 L309.82 72.576 L309.82 12.096 Z" fill="#000000" fill-rule="nonzero" fill-opacity="1" /><path clip-path="url(#clip500)" d="M412.186 48.0275 L412.186 51.6733 L377.916 51.6733 Q378.402 59.3701 382.534 63.421 Q386.706 67.4314 394.119 67.4314 Q398.413 67.4314 402.424 66.3781 Q406.475 65.3249 410.444 63.2184 L410.444 70.267 Q406.434 71.9684 402.221 72.8596 Q398.008 73.7508 393.674 73.7508 Q382.817 73.7508 376.457 67.4314 Q370.138 61.1119 370.138 50.3365 Q370.138 39.1965 376.133 32.6746 Q382.169 26.1121 392.377 26.1121 Q401.532 26.1121 406.839 32.0264 Q412.186 37.9003 412.186 48.0275 M404.733 45.84 Q404.652 39.7232 401.289 36.0774 Q397.968 32.4315 392.458 32.4315 Q386.22 32.4315 382.453 35.9558 Q378.726 39.4801 378.159 45.8805 L404.733 45.84 Z" fill="#000000" fill-rule="nonzero" fill-opacity="1" /><path clip-path="url(#clip500)" d="M462.134 45.1919 L462.134 72.576 L454.68 72.576 L454.68 45.4349 Q454.68 38.994 452.169 35.7938 Q449.657 32.5936 444.634 32.5936 Q438.598 32.5936 435.114 36.4419 Q431.631 40.2903 431.631 46.9338 L431.631 72.576 L424.137 72.576 L424.137 27.2059 L431.631 27.2059 L431.631 34.2544 Q434.304 30.163 437.91 28.1376 Q441.555 26.1121 446.295 26.1121 Q454.113 26.1121 458.124 30.9732 Q462.134 35.7938 462.134 45.1919 Z" fill="#000000" fill-rule="nonzero" fill-opacity="1" /><path clip-path="url(#clip500)" d="M505.924 28.5427 L505.924 35.5912 Q502.765 33.9709 499.362 33.1607 Q495.959 32.3505 492.313 32.3505 Q486.763 32.3505 483.968 34.0519 Q481.214 35.7533 481.214 39.156 Q481.214 41.7486 483.199 43.2475 Q485.184 44.7058 491.179 46.0426 L493.731 46.6097 Q501.671 48.3111 504.993 51.4303 Q508.355 54.509 508.355 60.0587 Q508.355 66.3781 503.332 70.0644 Q498.349 73.7508 489.599 73.7508 Q485.953 73.7508 481.983 73.0216 Q478.054 72.3329 473.679 70.9151 L473.679 63.2184 Q477.811 65.3654 481.821 66.4591 Q485.832 67.5124 489.761 67.5124 Q495.027 67.5124 497.863 65.73 Q500.699 63.9071 500.699 60.6258 Q500.699 57.5877 498.633 55.9673 Q496.607 54.3469 489.68 52.8481 L487.088 52.2405 Q480.161 50.7821 477.082 47.7845 Q474.003 44.7463 474.003 39.4801 Q474.003 33.0797 478.54 29.5959 Q483.077 26.1121 491.422 26.1121 Q495.554 26.1121 499.2 26.7198 Q502.846 27.3274 505.924 28.5427 Z" fill="#000000" fill-rule="nonzero" fill-opacity="1" /><path clip-path="url(#clip500)" d="M520.224 27.2059 L527.678 27.2059 L527.678 72.576 L520.224 72.576 L520.224 27.2059 M520.224 9.54393 L527.678 9.54393 L527.678 18.9825 L520.224 18.9825 L520.224 9.54393 Z" fill="#000000" fill-rule="nonzero" fill-opacity="1" /><path clip-path="url(#clip500)" d="M550.646 14.324 L550.646 27.2059 L565.999 27.2059 L565.999 32.9987 L550.646 32.9987 L550.646 57.6282 Q550.646 63.1779 552.145 64.7578 Q553.684 66.3376 558.343 66.3376 L565.999 66.3376 L565.999 72.576 L558.343 72.576 Q549.715 72.576 546.433 69.3758 Q543.152 66.1351 543.152 57.6282 L543.152 32.9987 L537.683 32.9987 L537.683 27.2059 L543.152 27.2059 L543.152 14.324 L550.646 14.324 Z" fill="#000000" fill-rule="nonzero" fill-opacity="1" /><path clip-path="url(#clip500)" d="M594.68 76.7889 Q591.52 84.8907 588.522 87.3618 Q585.525 89.8329 580.501 89.8329 L574.547 89.8329 L574.547 83.5945 L578.922 83.5945 Q582 83.5945 583.702 82.1361 Q585.403 80.6778 587.469 75.2496 L588.806 71.8468 L570.455 27.2059 L578.354 27.2059 L592.533 62.6918 L606.711 27.2059 L614.61 27.2059 L594.68 76.7889 Z" fill="#000000" fill-rule="nonzero" fill-opacity="1" /><path clip-path="url(#clip500)" d="M619.674 46.5287 L641.508 46.5287 L641.508 53.1722 L619.674 53.1722 L619.674 46.5287 Z" fill="#000000" fill-rule="nonzero" fill-opacity="1" /><path clip-path="url(#clip500)" d="M683.232 34.0924 L683.232 9.54393 L690.686 9.54393 L690.686 72.576 L683.232 72.576 L683.232 65.7705 Q680.883 69.8214 677.278 71.8063 Q673.713 73.7508 668.69 73.7508 Q660.466 73.7508 655.281 67.1883 Q650.136 60.6258 650.136 49.9314 Q650.136 39.2371 655.281 32.6746 Q660.466 26.1121 668.69 26.1121 Q673.713 26.1121 677.278 28.0971 Q680.883 30.0415 683.232 34.0924 M657.833 49.9314 Q657.833 58.1548 661.195 62.8538 Q664.598 67.5124 670.513 67.5124 Q676.427 67.5124 679.83 62.8538 Q683.232 58.1548 683.232 49.9314 Q683.232 41.7081 679.83 37.0496 Q676.427 32.3505 670.513 32.3505 Q664.598 32.3505 661.195 37.0496 Q657.833 41.7081 657.833 49.9314 Z" fill="#000000" fill-rule="nonzero" fill-opacity="1" /><path clip-path="url(#clip500)" d="M744.847 48.0275 L744.847 51.6733 L710.576 51.6733 Q711.062 59.3701 715.194 63.421 Q719.366 67.4314 726.78 67.4314 Q731.074 67.4314 735.084 66.3781 Q739.135 65.3249 743.105 63.2184 L743.105 70.267 Q739.094 71.9684 734.881 72.8596 Q730.668 73.7508 726.334 73.7508 Q715.478 73.7508 709.118 67.4314 Q702.798 61.1119 702.798 50.3365 Q702.798 39.1965 708.794 32.6746 Q714.829 26.1121 725.038 26.1121 Q734.193 26.1121 739.499 32.0264 Q744.847 37.9003 744.847 48.0275 M737.393 45.84 Q737.312 39.7232 733.95 36.0774 Q730.628 32.4315 725.119 32.4315 Q718.88 32.4315 715.113 35.9558 Q711.386 39.4801 710.819 45.8805 L737.393 45.84 Z" fill="#000000" fill-rule="nonzero" fill-opacity="1" /><path clip-path="url(#clip500)" d="M764.291 65.7705 L764.291 89.8329 L756.797 89.8329 L756.797 27.2059 L764.291 27.2059 L764.291 34.0924 Q766.64 30.0415 770.205 28.0971 Q773.811 26.1121 778.793 26.1121 Q787.057 26.1121 792.202 32.6746 Q797.387 39.2371 797.387 49.9314 Q797.387 60.6258 792.202 67.1883 Q787.057 73.7508 778.793 73.7508 Q773.811 73.7508 770.205 71.8063 Q766.64 69.8214 764.291 65.7705 M789.65 49.9314 Q789.65 41.7081 786.247 37.0496 Q782.885 32.3505 776.97 32.3505 Q771.056 32.3505 767.653 37.0496 Q764.291 41.7081 764.291 49.9314 Q764.291 58.1548 767.653 62.8538 Q771.056 67.5124 776.97 67.5124 Q782.885 67.5124 786.247 62.8538 Q789.65 58.1548 789.65 49.9314 Z" fill="#000000" fill-rule="nonzero" fill-opacity="1" /><path clip-path="url(#clip500)" d="M848.55 48.0275 L848.55 51.6733 L814.279 51.6733 Q814.765 59.3701 818.897 63.421 Q823.07 67.4314 830.483 67.4314 Q834.777 67.4314 838.787 66.3781 Q842.838 65.3249 846.808 63.2184 L846.808 70.267 Q842.797 71.9684 838.585 72.8596 Q834.372 73.7508 830.037 73.7508 Q819.181 73.7508 812.821 67.4314 Q806.501 61.1119 806.501 50.3365 Q806.501 39.1965 812.497 32.6746 Q818.533 26.1121 828.741 26.1121 Q837.896 26.1121 843.203 32.0264 Q848.55 37.9003 848.55 48.0275 M841.096 45.84 Q841.015 39.7232 837.653 36.0774 Q834.331 32.4315 828.822 32.4315 Q822.583 32.4315 818.816 35.9558 Q815.089 39.4801 814.522 45.8805 L841.096 45.84 Z" fill="#000000" fill-rule="nonzero" fill-opacity="1" /><path clip-path="url(#clip500)" d="M898.497 45.1919 L898.497 72.576 L891.044 72.576 L891.044 45.4349 Q891.044 38.994 888.532 35.7938 Q886.021 32.5936 880.997 32.5936 Q874.962 32.5936 871.478 36.4419 Q867.994 40.2903 867.994 46.9338 L867.994 72.576 L860.5 72.576 L860.5 27.2059 L867.994 27.2059 L867.994 34.2544 Q870.668 30.163 874.273 28.1376 Q877.919 26.1121 882.658 26.1121 Q890.477 26.1121 894.487 30.9732 Q898.497 35.7938 898.497 45.1919 Z" fill="#000000" fill-rule="nonzero" fill-opacity="1" /><path clip-path="url(#clip500)" d="M943.219 34.0924 L943.219 9.54393 L950.673 9.54393 L950.673 72.576 L943.219 72.576 L943.219 65.7705 Q940.87 69.8214 937.265 71.8063 Q933.7 73.7508 928.677 73.7508 Q920.453 73.7508 915.268 67.1883 Q910.123 60.6258 910.123 49.9314 Q910.123 39.2371 915.268 32.6746 Q920.453 26.1121 928.677 26.1121 Q933.7 26.1121 937.265 28.0971 Q940.87 30.0415 943.219 34.0924 M917.82 49.9314 Q917.82 58.1548 921.182 62.8538 Q924.585 67.5124 930.5 67.5124 Q936.414 67.5124 939.817 62.8538 Q943.219 58.1548 943.219 49.9314 Q943.219 41.7081 939.817 37.0496 Q936.414 32.3505 930.5 32.3505 Q924.585 32.3505 921.182 37.0496 Q917.82 41.7081 917.82 49.9314 Z" fill="#000000" fill-rule="nonzero" fill-opacity="1" /><path clip-path="url(#clip500)" d="M1004.83 48.0275 L1004.83 51.6733 L970.563 51.6733 Q971.049 59.3701 975.181 63.421 Q979.353 67.4314 986.767 67.4314 Q991.061 67.4314 995.071 66.3781 Q999.122 65.3249 1003.09 63.2184 L1003.09 70.267 Q999.081 71.9684 994.868 72.8596 Q990.655 73.7508 986.321 73.7508 Q975.465 73.7508 969.105 67.4314 Q962.785 61.1119 962.785 50.3365 Q962.785 39.1965 968.781 32.6746 Q974.816 26.1121 985.025 26.1121 Q994.18 26.1121 999.486 32.0264 Q1004.83 37.9003 1004.83 48.0275 M997.38 45.84 Q997.299 39.7232 993.937 36.0774 Q990.615 32.4315 985.106 32.4315 Q978.867 32.4315 975.1 35.9558 Q971.373 39.4801 970.806 45.8805 L997.38 45.84 Z" fill="#000000" fill-rule="nonzero" fill-opacity="1" /><path clip-path="url(#clip500)" d="M1054.78 45.1919 L1054.78 72.576 L1047.33 72.576 L1047.33 45.4349 Q1047.33 38.994 1044.82 35.7938 Q1042.3 32.5936 1037.28 32.5936 Q1031.25 32.5936 1027.76 36.4419 Q1024.28 40.2903 1024.28 46.9338 L1024.28 72.576 L1016.78 72.576 L1016.78 27.2059 L1024.28 27.2059 L1024.28 34.2544 Q1026.95 30.163 1030.56 28.1376 Q1034.2 26.1121 1038.94 26.1121 Q1046.76 26.1121 1050.77 30.9732 Q1054.78 35.7938 1054.78 45.1919 Z" fill="#000000" fill-rule="nonzero" fill-opacity="1" /><path clip-path="url(#clip500)" d="M1077.02 14.324 L1077.02 27.2059 L1092.37 27.2059 L1092.37 32.9987 L1077.02 32.9987 L1077.02 57.6282 Q1077.02 63.1779 1078.52 64.7578 Q1080.06 66.3376 1084.72 66.3376 L1092.37 66.3376 L1092.37 72.576 L1084.72 72.576 Q1076.09 72.576 1072.81 69.3758 Q1069.53 66.1351 1069.53 57.6282 L1069.53 32.9987 L1064.06 32.9987 L1064.06 27.2059 L1069.53 27.2059 L1069.53 14.324 L1077.02 14.324 Z" fill="#000000" fill-rule="nonzero" fill-opacity="1" /><path clip-path="url(#clip500)" d="M1158.4 34.0924 L1158.4 9.54393 L1165.86 9.54393 L1165.86 72.576 L1158.4 72.576 L1158.4 65.7705 Q1156.05 69.8214 1152.45 71.8063 Q1148.88 73.7508 1143.86 73.7508 Q1135.64 73.7508 1130.45 67.1883 Q1125.31 60.6258 1125.31 49.9314 Q1125.31 39.2371 1130.45 32.6746 Q1135.64 26.1121 1143.86 26.1121 Q1148.88 26.1121 1152.45 28.0971 Q1156.05 30.0415 1158.4 34.0924 M1133 49.9314 Q1133 58.1548 1136.37 62.8538 Q1139.77 67.5124 1145.68 67.5124 Q1151.6 67.5124 1155 62.8538 Q1158.4 58.1548 1158.4 49.9314 Q1158.4 41.7081 1155 37.0496 Q1151.6 32.3505 1145.68 32.3505 Q1139.77 32.3505 1136.37 37.0496 Q1133 41.7081 1133 49.9314 Z" fill="#000000" fill-rule="nonzero" fill-opacity="1" /><path clip-path="url(#clip500)" d="M1200.09 76.7889 Q1196.93 84.8907 1193.93 87.3618 Q1190.93 89.8329 1185.91 89.8329 L1179.95 89.8329 L1179.95 83.5945 L1184.33 83.5945 Q1187.41 83.5945 1189.11 82.1361 Q1190.81 80.6778 1192.88 75.2496 L1194.21 71.8468 L1175.86 27.2059 L1183.76 27.2059 L1197.94 62.6918 L1212.12 27.2059 L1220.02 27.2059 L1200.09 76.7889 Z" fill="#000000" fill-rule="nonzero" fill-opacity="1" /><path clip-path="url(#clip500)" d="M1268.02 45.1919 L1268.02 72.576 L1260.57 72.576 L1260.57 45.4349 Q1260.57 38.994 1258.06 35.7938 Q1255.54 32.5936 1250.52 32.5936 Q1244.49 32.5936 1241 36.4419 Q1237.52 40.2903 1237.52 46.9338 L1237.52 72.576 L1230.02 72.576 L1230.02 27.2059 L1237.52 27.2059 L1237.52 34.2544 Q1240.19 30.163 1243.8 28.1376 Q1247.44 26.1121 1252.18 26.1121 Q1260 26.1121 1264.01 30.9732 Q1268.02 35.7938 1268.02 45.1919 Z" fill="#000000" fill-rule="nonzero" fill-opacity="1" /><path clip-path="url(#clip500)" d="M1303.51 49.7694 Q1294.47 49.7694 1290.99 51.8354 Q1287.51 53.9013 1287.51 58.8839 Q1287.51 62.8538 1290.1 65.2034 Q1292.73 67.5124 1297.23 67.5124 Q1303.43 67.5124 1307.15 63.1374 Q1310.92 58.7219 1310.92 51.4303 L1310.92 49.7694 L1303.51 49.7694 M1318.37 46.6907 L1318.37 72.576 L1310.92 72.576 L1310.92 65.6895 Q1308.37 69.8214 1304.56 71.8063 Q1300.75 73.7508 1295.24 73.7508 Q1288.28 73.7508 1284.14 69.8619 Q1280.05 65.9325 1280.05 59.3701 Q1280.05 51.7138 1285.16 47.825 Q1290.3 43.9361 1300.47 43.9361 L1310.92 43.9361 L1310.92 43.2069 Q1310.92 38.0623 1307.52 35.2672 Q1304.15 32.4315 1298.04 32.4315 Q1294.15 32.4315 1290.46 33.3632 Q1286.78 34.295 1283.37 36.1584 L1283.37 29.2718 Q1287.47 27.692 1291.31 26.9223 Q1295.16 26.1121 1298.81 26.1121 Q1308.65 26.1121 1313.51 31.2163 Q1318.37 36.3204 1318.37 46.6907 Z" fill="#000000" fill-rule="nonzero" fill-opacity="1" /><path clip-path="url(#clip500)" d="M1369.05 35.9153 Q1371.85 30.8922 1375.73 28.5022 Q1379.62 26.1121 1384.89 26.1121 Q1391.98 26.1121 1395.83 31.0947 Q1399.68 36.0368 1399.68 45.1919 L1399.68 72.576 L1392.18 72.576 L1392.18 45.4349 Q1392.18 38.913 1389.87 35.7533 Q1387.56 32.5936 1382.82 32.5936 Q1377.03 32.5936 1373.67 36.4419 Q1370.31 40.2903 1370.31 46.9338 L1370.31 72.576 L1362.81 72.576 L1362.81 45.4349 Q1362.81 38.8725 1360.5 35.7533 Q1358.19 32.5936 1353.37 32.5936 Q1347.66 32.5936 1344.3 36.4824 Q1340.94 40.3308 1340.94 46.9338 L1340.94 72.576 L1333.44 72.576 L1333.44 27.2059 L1340.94 27.2059 L1340.94 34.2544 Q1343.49 30.082 1347.05 28.0971 Q1350.62 26.1121 1355.52 26.1121 Q1360.46 26.1121 1363.91 28.6237 Q1367.39 31.1352 1369.05 35.9153 Z" fill="#000000" fill-rule="nonzero" fill-opacity="1" /><path clip-path="url(#clip500)" d="M1414.54 27.2059 L1422 27.2059 L1422 72.576 L1414.54 72.576 L1414.54 27.2059 M1414.54 9.54393 L1422 9.54393 L1422 18.9825 L1414.54 18.9825 L1414.54 9.54393 Z" fill="#000000" fill-rule="nonzero" fill-opacity="1" /><path clip-path="url(#clip500)" d="M1470.24 28.9478 L1470.24 35.9153 Q1467.08 34.1734 1463.88 33.3227 Q1460.72 32.4315 1457.48 32.4315 Q1450.23 32.4315 1446.22 37.0496 Q1442.21 41.6271 1442.21 49.9314 Q1442.21 58.2358 1446.22 62.8538 Q1450.23 67.4314 1457.48 67.4314 Q1460.72 67.4314 1463.88 66.5807 Q1467.08 65.6895 1470.24 63.9476 L1470.24 70.8341 Q1467.12 72.2924 1463.76 73.0216 Q1460.44 73.7508 1456.67 73.7508 Q1446.42 73.7508 1440.39 67.3098 Q1434.35 60.8689 1434.35 49.9314 Q1434.35 38.832 1440.43 32.472 Q1446.54 26.1121 1457.16 26.1121 Q1460.6 26.1121 1463.88 26.8413 Q1467.16 27.5299 1470.24 28.9478 Z" fill="#000000" fill-rule="nonzero" fill-opacity="1" /><path clip-path="url(#clip500)" d="M1512.13 28.5427 L1512.13 35.5912 Q1508.97 33.9709 1505.57 33.1607 Q1502.16 32.3505 1498.52 32.3505 Q1492.97 32.3505 1490.17 34.0519 Q1487.42 35.7533 1487.42 39.156 Q1487.42 41.7486 1489.4 43.2475 Q1491.39 44.7058 1497.38 46.0426 L1499.94 46.6097 Q1507.87 48.3111 1511.2 51.4303 Q1514.56 54.509 1514.56 60.0587 Q1514.56 66.3781 1509.54 70.0644 Q1504.55 73.7508 1495.8 73.7508 Q1492.16 73.7508 1488.19 73.0216 Q1484.26 72.3329 1479.88 70.9151 L1479.88 63.2184 Q1484.02 65.3654 1488.03 66.4591 Q1492.04 67.5124 1495.97 67.5124 Q1501.23 67.5124 1504.07 65.73 Q1506.9 63.9071 1506.9 60.6258 Q1506.9 57.5877 1504.84 55.9673 Q1502.81 54.3469 1495.88 52.8481 L1493.29 52.2405 Q1486.36 50.7821 1483.29 47.7845 Q1480.21 44.7463 1480.21 39.4801 Q1480.21 33.0797 1484.74 29.5959 Q1489.28 26.1121 1497.63 26.1121 Q1501.76 26.1121 1505.4 26.7198 Q1509.05 27.3274 1512.13 28.5427 Z" fill="#000000" fill-rule="nonzero" fill-opacity="1" /><path clip-path="url(#clip500)" d="M1570.7 9.62495 Q1565.28 18.942 1562.64 28.0566 Q1560.01 37.1711 1560.01 46.5287 Q1560.01 55.8863 1562.64 65.0818 Q1565.32 74.2369 1570.7 83.5134 L1564.22 83.5134 Q1558.15 73.9938 1555.11 64.7983 Q1552.11 55.6027 1552.11 46.5287 Q1552.11 37.4952 1555.11 28.3401 Q1558.11 19.1851 1564.22 9.62495 L1570.7 9.62495 Z" fill="#000000" fill-rule="nonzero" fill-opacity="1" /><path clip-path="url(#clip500)" d="M1617.82 28.9478 L1617.82 35.9153 Q1614.66 34.1734 1611.46 33.3227 Q1608.3 32.4315 1605.06 32.4315 Q1597.8 32.4315 1593.79 37.0496 Q1589.78 41.6271 1589.78 49.9314 Q1589.78 58.2358 1593.79 62.8538 Q1597.8 67.4314 1605.06 67.4314 Q1608.3 67.4314 1611.46 66.5807 Q1614.66 65.6895 1617.82 63.9476 L1617.82 70.8341 Q1614.7 72.2924 1611.34 73.0216 Q1608.01 73.7508 1604.25 73.7508 Q1594 73.7508 1587.96 67.3098 Q1581.93 60.8689 1581.93 49.9314 Q1581.93 38.832 1588 32.472 Q1594.12 26.1121 1604.73 26.1121 Q1608.18 26.1121 1611.46 26.8413 Q1614.74 27.5299 1617.82 28.9478 Z" fill="#000000" fill-rule="nonzero" fill-opacity="1" /><path clip-path="url(#clip500)" d="M1669.59 48.0275 L1669.59 51.6733 L1635.32 51.6733 Q1635.8 59.3701 1639.93 63.421 Q1644.11 67.4314 1651.52 67.4314 Q1655.81 67.4314 1659.82 66.3781 Q1663.88 65.3249 1667.85 63.2184 L1667.85 70.267 Q1663.83 71.9684 1659.62 72.8596 Q1655.41 73.7508 1651.07 73.7508 Q1640.22 73.7508 1633.86 67.4314 Q1627.54 61.1119 1627.54 50.3365 Q1627.54 39.1965 1633.53 32.6746 Q1639.57 26.1121 1649.78 26.1121 Q1658.93 26.1121 1664.24 32.0264 Q1669.59 37.9003 1669.59 48.0275 M1662.13 45.84 Q1662.05 39.7232 1658.69 36.0774 Q1655.37 32.4315 1649.86 32.4315 Q1643.62 32.4315 1639.85 35.9558 Q1636.13 39.4801 1635.56 45.8805 L1662.13 45.84 Z" fill="#000000" fill-rule="nonzero" fill-opacity="1" /><path clip-path="url(#clip500)" d="M1681.82 27.2059 L1689.27 27.2059 L1689.27 72.576 L1681.82 72.576 L1681.82 27.2059 M1681.82 9.54393 L1689.27 9.54393 L1689.27 18.9825 L1681.82 18.9825 L1681.82 9.54393 Z" fill="#000000" fill-rule="nonzero" fill-opacity="1" /><path clip-path="url(#clip500)" d="M1704.87 9.54393 L1712.32 9.54393 L1712.32 72.576 L1704.87 72.576 L1704.87 9.54393 Z" fill="#000000" fill-rule="nonzero" fill-opacity="1" /><path clip-path="url(#clip500)" d="M1727.92 27.2059 L1735.37 27.2059 L1735.37 72.576 L1727.92 72.576 L1727.92 27.2059 M1727.92 9.54393 L1735.37 9.54393 L1735.37 18.9825 L1727.92 18.9825 L1727.92 9.54393 Z" fill="#000000" fill-rule="nonzero" fill-opacity="1" /><path clip-path="url(#clip500)" d="M1788.68 45.1919 L1788.68 72.576 L1781.23 72.576 L1781.23 45.4349 Q1781.23 38.994 1778.72 35.7938 Q1776.21 32.5936 1771.18 32.5936 Q1765.15 32.5936 1761.66 36.4419 Q1758.18 40.2903 1758.18 46.9338 L1758.18 72.576 L1750.69 72.576 L1750.69 27.2059 L1758.18 27.2059 L1758.18 34.2544 Q1760.85 30.163 1764.46 28.1376 Q1768.11 26.1121 1772.84 26.1121 Q1780.66 26.1121 1784.67 30.9732 Q1788.68 35.7938 1788.68 45.1919 Z" fill="#000000" fill-rule="nonzero" fill-opacity="1" /><path clip-path="url(#clip500)" d="M1833.41 49.3643 Q1833.41 41.2625 1830.04 36.8065 Q1826.72 32.3505 1820.69 32.3505 Q1814.69 32.3505 1811.33 36.8065 Q1808.01 41.2625 1808.01 49.3643 Q1808.01 57.4256 1811.33 61.8816 Q1814.69 66.3376 1820.69 66.3376 Q1826.72 66.3376 1830.04 61.8816 Q1833.41 57.4256 1833.41 49.3643 M1840.86 66.9452 Q1840.86 78.5308 1835.71 84.1616 Q1830.57 89.8329 1819.96 89.8329 Q1816.03 89.8329 1812.54 89.2252 Q1809.06 88.6581 1805.78 87.4428 L1805.78 80.1917 Q1809.06 81.9741 1812.26 82.8248 Q1815.46 83.6755 1818.78 83.6755 Q1826.11 83.6755 1829.76 79.8271 Q1833.41 76.0193 1833.41 68.282 L1833.41 64.5957 Q1831.1 68.6061 1827.49 70.5911 Q1823.89 72.576 1818.86 72.576 Q1810.52 72.576 1805.41 66.2161 Q1800.31 59.8562 1800.31 49.3643 Q1800.31 38.832 1805.41 32.472 Q1810.52 26.1121 1818.86 26.1121 Q1823.89 26.1121 1827.49 28.0971 Q1831.1 30.082 1833.41 34.0924 L1833.41 27.2059 L1840.86 27.2059 L1840.86 66.9452 Z" fill="#000000" fill-rule="nonzero" fill-opacity="1" /><path clip-path="url(#clip500)" d="M1917.91 35.9153 Q1920.7 30.8922 1924.59 28.5022 Q1928.48 26.1121 1933.75 26.1121 Q1940.84 26.1121 1944.68 31.0947 Q1948.53 36.0368 1948.53 45.1919 L1948.53 72.576 L1941.04 72.576 L1941.04 45.4349 Q1941.04 38.913 1938.73 35.7533 Q1936.42 32.5936 1931.68 32.5936 Q1925.89 32.5936 1922.53 36.4419 Q1919.16 40.2903 1919.16 46.9338 L1919.16 72.576 L1911.67 72.576 L1911.67 45.4349 Q1911.67 38.8725 1909.36 35.7533 Q1907.05 32.5936 1902.23 32.5936 Q1896.52 32.5936 1893.16 36.4824 Q1889.79 40.3308 1889.79 46.9338 L1889.79 72.576 L1882.3 72.576 L1882.3 27.2059 L1889.79 27.2059 L1889.79 34.2544 Q1892.35 30.082 1895.91 28.0971 Q1899.48 26.1121 1904.38 26.1121 Q1909.32 26.1121 1912.76 28.6237 Q1916.25 31.1352 1917.91 35.9153 Z" fill="#000000" fill-rule="nonzero" fill-opacity="1" /><path clip-path="url(#clip500)" d="M1980.98 32.4315 Q1974.98 32.4315 1971.5 37.1306 Q1968.02 41.7891 1968.02 49.9314 Q1968.02 58.0738 1971.46 62.7728 Q1974.94 67.4314 1980.98 67.4314 Q1986.93 67.4314 1990.42 62.7323 Q1993.9 58.0333 1993.9 49.9314 Q1993.9 41.8701 1990.42 37.1711 Q1986.93 32.4315 1980.98 32.4315 M1980.98 26.1121 Q1990.7 26.1121 1996.25 32.4315 Q2001.8 38.7509 2001.8 49.9314 Q2001.8 61.0714 1996.25 67.4314 Q1990.7 73.7508 1980.98 73.7508 Q1971.22 73.7508 1965.67 67.4314 Q1960.16 61.0714 1960.16 49.9314 Q1960.16 38.7509 1965.67 32.4315 Q1971.22 26.1121 1980.98 26.1121 Z" fill="#000000" fill-rule="nonzero" fill-opacity="1" /><path clip-path="url(#clip500)" d="M2044.01 34.0924 L2044.01 9.54393 L2051.47 9.54393 L2051.47 72.576 L2044.01 72.576 L2044.01 65.7705 Q2041.66 69.8214 2038.06 71.8063 Q2034.49 73.7508 2029.47 73.7508 Q2021.25 73.7508 2016.06 67.1883 Q2010.92 60.6258 2010.92 49.9314 Q2010.92 39.2371 2016.06 32.6746 Q2021.25 26.1121 2029.47 26.1121 Q2034.49 26.1121 2038.06 28.0971 Q2041.66 30.0415 2044.01 34.0924 M2018.61 49.9314 Q2018.61 58.1548 2021.98 62.8538 Q2025.38 67.5124 2031.29 67.5124 Q2037.21 67.5124 2040.61 62.8538 Q2044.01 58.1548 2044.01 49.9314 Q2044.01 41.7081 2040.61 37.0496 Q2037.21 32.3505 2031.29 32.3505 Q2025.38 32.3505 2021.98 37.0496 Q2018.61 41.7081 2018.61 49.9314 Z" fill="#000000" fill-rule="nonzero" fill-opacity="1" /><path clip-path="url(#clip500)" d="M2105.63 48.0275 L2105.63 51.6733 L2071.36 51.6733 Q2071.84 59.3701 2075.97 63.421 Q2080.15 67.4314 2087.56 67.4314 Q2091.85 67.4314 2095.86 66.3781 Q2099.91 65.3249 2103.88 63.2184 L2103.88 70.267 Q2099.87 71.9684 2095.66 72.8596 Q2091.45 73.7508 2087.11 73.7508 Q2076.26 73.7508 2069.9 67.4314 Q2063.58 61.1119 2063.58 50.3365 Q2063.58 39.1965 2069.57 32.6746 Q2075.61 26.1121 2085.82 26.1121 Q2094.97 26.1121 2100.28 32.0264 Q2105.63 37.9003 2105.63 48.0275 M2098.17 45.84 Q2098.09 39.7232 2094.73 36.0774 Q2091.41 32.4315 2085.9 32.4315 Q2079.66 32.4315 2075.89 35.9558 Q2072.17 39.4801 2071.6 45.8805 L2098.17 45.84 Z" fill="#000000" fill-rule="nonzero" fill-opacity="1" /><path clip-path="url(#clip500)" d="M2117.86 9.54393 L2125.31 9.54393 L2125.31 72.576 L2117.86 72.576 L2117.86 9.54393 Z" fill="#000000" fill-rule="nonzero" fill-opacity="1" /><path clip-path="url(#clip500)" d="M2142.81 62.2867 L2151.36 62.2867 L2151.36 69.2543 L2144.72 82.2172 L2139.49 82.2172 L2142.81 69.2543 L2142.81 62.2867 Z" fill="#000000" fill-rule="nonzero" fill-opacity="1" /><path clip-path="url(#clip500)" d="M2193.98 12.096 L2202.16 12.096 L2202.16 37.6572 L2229.3 12.096 L2239.83 12.096 L2209.82 40.2903 L2241.98 72.576 L2231.2 72.576 L2202.16 43.45 L2202.16 72.576 L2193.98 72.576 L2193.98 12.096 Z" fill="#000000" fill-rule="nonzero" fill-opacity="1" /><path clip-path="url(#clip500)" d="M2249.03 34.9026 L2300.96 34.9026 L2300.96 41.7081 L2249.03 41.7081 L2249.03 34.9026 M2249.03 51.4303 L2300.96 51.4303 L2300.96 58.3168 L2249.03 58.3168 L2249.03 51.4303 Z" fill="#000000" fill-rule="nonzero" fill-opacity="1" /><path clip-path="url(#clip500)" d="M2318.7 12.096 L2350.83 12.096 L2350.83 18.9825 L2326.2 18.9825 L2326.2 33.8088 Q2327.98 33.2012 2329.76 32.9176 Q2331.55 32.5936 2333.33 32.5936 Q2343.45 32.5936 2349.37 38.1433 Q2355.28 43.6931 2355.28 53.1722 Q2355.28 62.9348 2349.21 68.3631 Q2343.13 73.7508 2332.07 73.7508 Q2328.26 73.7508 2324.29 73.1026 Q2320.36 72.4545 2316.15 71.1582 L2316.15 62.9348 Q2319.8 64.9198 2323.69 65.892 Q2327.58 66.8642 2331.91 66.8642 Q2338.92 66.8642 2343.01 63.1779 Q2347.1 59.4916 2347.1 53.1722 Q2347.1 46.8528 2343.01 43.1664 Q2338.92 39.4801 2331.91 39.4801 Q2328.63 39.4801 2325.35 40.2093 Q2322.11 40.9384 2318.7 42.4778 L2318.7 12.096 Z" fill="#000000" fill-rule="nonzero" fill-opacity="1" /><path clip-path="url(#clip500)" d="M2388.91 17.4837 Q2382.59 17.4837 2379.39 23.7221 Q2376.23 29.92 2376.23 42.3968 Q2376.23 54.833 2379.39 61.0714 Q2382.59 67.2693 2388.91 67.2693 Q2395.27 67.2693 2398.43 61.0714 Q2401.63 54.833 2401.63 42.3968 Q2401.63 29.92 2398.43 23.7221 Q2395.27 17.4837 2388.91 17.4837 M2388.91 11.0023 Q2399.07 11.0023 2404.42 19.0636 Q2409.81 27.0843 2409.81 42.3968 Q2409.81 57.6687 2404.42 65.73 Q2399.07 73.7508 2388.91 73.7508 Q2378.74 73.7508 2373.35 65.73 Q2368 57.6687 2368 42.3968 Q2368 27.0843 2373.35 19.0636 Q2378.74 11.0023 2388.91 11.0023 Z" fill="#000000" fill-rule="nonzero" fill-opacity="1" /><path clip-path="url(#clip500)" d="M2441.69 17.4837 Q2435.37 17.4837 2432.17 23.7221 Q2429.01 29.92 2429.01 42.3968 Q2429.01 54.833 2432.17 61.0714 Q2435.37 67.2693 2441.69 67.2693 Q2448.05 67.2693 2451.21 61.0714 Q2454.41 54.833 2454.41 42.3968 Q2454.41 29.92 2451.21 23.7221 Q2448.05 17.4837 2441.69 17.4837 M2441.69 11.0023 Q2451.86 11.0023 2457.2 19.0636 Q2462.59 27.0843 2462.59 42.3968 Q2462.59 57.6687 2457.2 65.73 Q2451.86 73.7508 2441.69 73.7508 Q2431.52 73.7508 2426.13 65.73 Q2420.79 57.6687 2420.79 42.3968 Q2420.79 27.0843 2426.13 19.0636 Q2431.52 11.0023 2441.69 11.0023 Z" fill="#000000" fill-rule="nonzero" fill-opacity="1" /><path clip-path="url(#clip500)" d="M2476.97 62.2867 L2485.52 62.2867 L2485.52 72.576 L2476.97 72.576 L2476.97 62.2867 Z" fill="#000000" fill-rule="nonzero" fill-opacity="1" /><path clip-path="url(#clip500)" d="M2520.84 17.4837 Q2514.52 17.4837 2511.32 23.7221 Q2508.16 29.92 2508.16 42.3968 Q2508.16 54.833 2511.32 61.0714 Q2514.52 67.2693 2520.84 67.2693 Q2527.2 67.2693 2530.36 61.0714 Q2533.56 54.833 2533.56 42.3968 Q2533.56 29.92 2530.36 23.7221 Q2527.2 17.4837 2520.84 17.4837 M2520.84 11.0023 Q2531.01 11.0023 2536.36 19.0636 Q2541.75 27.0843 2541.75 42.3968 Q2541.75 57.6687 2536.36 65.73 Q2531.01 73.7508 2520.84 73.7508 Q2510.68 73.7508 2505.29 65.73 Q2499.94 57.6687 2499.94 42.3968 Q2499.94 27.0843 2505.29 19.0636 Q2510.68 11.0023 2520.84 11.0023 Z" fill="#000000" fill-rule="nonzero" fill-opacity="1" /><path clip-path="url(#clip500)" d="M2553.9 9.62495 L2560.38 9.62495 Q2566.46 19.1851 2569.45 28.3401 Q2572.49 37.4952 2572.49 46.5287 Q2572.49 55.6027 2569.45 64.7983 Q2566.46 73.9938 2560.38 83.5134 L2553.9 83.5134 Q2559.29 74.2369 2561.92 65.0818 Q2564.59 55.8863 2564.59 46.5287 Q2564.59 37.1711 2561.92 28.0566 Q2559.29 18.942 2553.9 9.62495 Z" fill="#000000" fill-rule="nonzero" fill-opacity="1" /><polyline clip-path="url(#clip501)" style="stroke:#0000ff; stroke-linecap:round; stroke-linejoin:round; stroke-width:8; stroke-opacity:1; fill:none" points="309.459,476.335 320.776,724.527 332.093,889.49 343.41,1001.64 354.727,1079.82 366.044,1134.83 377.361,1174.67 388.678,1205.49 399.995,1231.62 411.312,1255.74 422.629,1279.23 433.946,1302.62 445.263,1325.87 456.58,1348.72 467.897,1370.84 479.214,1391.96 490.531,1411.89 501.848,1430.55 513.165,1447.93 524.482,1464.07 535.798,1479.05 547.115,1492.97 558.432,1505.92 569.749,1517.98 581.066,1529.22 592.383,1539.72 603.7,1549.53 615.017,1558.7 626.334,1567.26 637.651,1575.27 648.968,1582.75 660.285,1589.74 671.602,1596.27 682.919,1602.37 694.236,1608.07 705.553,1613.39 716.87,1618.36 728.187,1623 739.504,1627.34 750.821,1631.38 762.138,1635.16 773.455,1638.7 784.772,1641.99 796.089,1645.07 807.406,1647.95 818.723,1650.64 830.04,1653.15 841.357,1655.49 852.674,1657.68 863.991,1659.72 875.308,1661.63 886.625,1663.42 897.942,1665.08 909.259,1666.64 920.576,1668.09 931.893,1669.45 943.21,1670.72 954.527,1671.9 965.844,1673.01 977.161,1674.04 988.478,1675.01 999.794,1675.91 1011.11,1676.75 1022.43,1677.53 1033.75,1678.27 1045.06,1678.95 1056.38,1679.59 1067.7,1680.19 1079.01,1680.75 1090.33,1681.27 1101.65,1681.76 1112.96,1682.22 1124.28,1682.64 1135.6,1683.04 1146.92,1683.41 1158.23,1683.76 1169.55,1684.08 1180.87,1684.38 1192.18,1684.66 1203.5,1684.93 1214.82,1685.17 1226.13,1685.4 1237.45,1685.62 1248.77,1685.82 1260.08,1686.01 1271.4,1686.18 1282.72,1686.34 1294.04,1686.5 1305.35,1686.64 1316.67,1686.77 1327.99,1686.9 1339.3,1687.01 1350.62,1687.12 1361.94,1687.22 1373.25,1687.32 1384.57,1687.41 1395.89,1687.49 1407.21,1687.57 1418.52,1687.64 1429.84,1687.7 1441.16,1687.77 1452.47,1687.83 1463.79,1687.88 1475.11,1687.93 1486.42,1687.98 1497.74,1688.02 1509.06,1688.07 1520.38,1688.1 1531.69,1688.14 1543.01,1688.18 1554.33,1688.21 1565.64,1688.24 1576.96,1688.26 1588.28,1688.29 1599.59,1688.31 1610.91,1688.34 1622.23,1688.36 1633.55,1688.38 1644.86,1688.4 1656.18,1688.41 1667.5,1688.43 1678.81,1688.44 1690.13,1688.46 1701.45,1688.47 1712.76,1688.48 1724.08,1688.49 1735.4,1688.51 1746.71,1688.52 1758.03,1688.52 1769.35,1688.53 1780.67,1688.54 1791.98,1688.55 1803.3,1688.56 1814.62,1688.56 1825.93,1688.57 1837.25,1688.57 1848.57,1688.58 1859.88,1688.58 1871.2,1688.59 1882.52,1688.59 1893.84,1688.6 1905.15,1688.6 1916.47,1688.61 1927.79,1688.61 1939.1,1688.61 1950.42,1688.61 1961.74,1688.62 1973.05,1688.62 1984.37,1688.62 1995.69,1688.62 2007.01,1688.63 2018.32,1688.63 2029.64,1688.63 2040.96,1688.63 2052.27,1688.63 2063.59,1688.64 2074.91,1688.64 2086.22,1688.64 2097.54,1688.64 2108.86,1688.64 2120.18,1688.64 2131.49,1688.64 2142.81,1688.64 2154.13,1688.64 2165.44,1688.64 2176.76,1688.65 2188.08,1688.65 2199.39,1688.65 2210.71,1688.65 2222.03,1688.65 2233.34,1688.65 2244.66,1688.65 2255.98,1688.65 2267.3,1688.65 2278.61,1688.65 2289.93,1688.65 2301.25,1688.65 2312.56,1688.65 2323.88,1688.65 2335.2,1688.65 2346.51,1688.65 2357.83,1688.65 2369.15,1688.65 2380.47,1688.65 2391.78,1688.65 2403.1,1688.65 2414.42,1688.65 2425.73,1688.65 2437.05,1688.65 2448.37,1688.65 2459.68,1688.65 2471,1688.65 2482.32,1688.65 2493.64,1688.65 2504.95,1688.65 2516.27,1688.65 2527.59,1688.65 2538.9,1688.65 2550.22,1688.65 2561.54,1688.65 2572.85,1688.65 "/>
<polyline clip-path="url(#clip501)" style="stroke:#ff0000; stroke-linecap:round; stroke-linejoin:round; stroke-width:4; stroke-opacity:1; fill:none" stroke-dasharray="16, 10" points="-2157.64,173.254 5039.95,173.254 "/>
<path clip-path="url(#clip500)" d="M1859.5 336.856 L2560.78 336.856 L2560.78 181.336 L1859.5 181.336  Z" fill="#ffffff" fill-rule="evenodd" fill-opacity="1"/>
<polyline clip-path="url(#clip500)" style="stroke:#000000; stroke-linecap:round; stroke-linejoin:round; stroke-width:4; stroke-opacity:1; fill:none" points="1859.5,336.856 2560.78,336.856 2560.78,181.336 1859.5,181.336 1859.5,336.856 "/>
<polyline clip-path="url(#clip500)" style="stroke:#0000ff; stroke-linecap:round; stroke-linejoin:round; stroke-width:8; stroke-opacity:1; fill:none" points="1886.16,233.176 2046.1,233.176 "/>
<path clip-path="url(#clip500)" d="M2072.76 215.896 L2079.06 215.896 L2094.38 244.808 L2094.38 215.896 L2098.92 215.896 L2098.92 250.456 L2092.62 250.456 L2077.3 221.544 L2077.3 250.456 L2072.76 250.456 L2072.76 215.896 Z" fill="#000000" fill-rule="nonzero" fill-opacity="1" /><path clip-path="url(#clip500)" d="M2118.27 214.484 Q2115.17 219.808 2113.66 225.017 Q2112.16 230.225 2112.16 235.572 Q2112.16 240.919 2113.66 246.174 Q2115.19 251.405 2118.27 256.706 L2114.57 256.706 Q2111.09 251.266 2109.36 246.012 Q2107.65 240.757 2107.65 235.572 Q2107.65 230.41 2109.36 225.179 Q2111.07 219.947 2114.57 214.484 L2118.27 214.484 Z" fill="#000000" fill-rule="nonzero" fill-opacity="1" /><path clip-path="url(#clip500)" d="M2130.75 217.169 L2130.75 224.531 L2139.52 224.531 L2139.52 227.841 L2130.75 227.841 L2130.75 241.915 Q2130.75 245.086 2131.6 245.989 Q2132.48 246.891 2135.15 246.891 L2139.52 246.891 L2139.52 250.456 L2135.15 250.456 Q2130.21 250.456 2128.34 248.628 Q2126.46 246.776 2126.46 241.915 L2126.46 227.841 L2123.34 227.841 L2123.34 224.531 L2126.46 224.531 L2126.46 217.169 L2130.75 217.169 Z" fill="#000000" fill-rule="nonzero" fill-opacity="1" /><path clip-path="url(#clip500)" d="M2144.45 214.484 L2148.15 214.484 Q2151.63 219.947 2153.34 225.179 Q2155.08 230.41 2155.08 235.572 Q2155.08 240.757 2153.34 246.012 Q2151.63 251.266 2148.15 256.706 L2144.45 256.706 Q2147.53 251.405 2149.03 246.174 Q2150.56 240.919 2150.56 235.572 Q2150.56 230.225 2149.03 225.017 Q2147.53 219.808 2144.45 214.484 Z" fill="#000000" fill-rule="nonzero" fill-opacity="1" /><polyline clip-path="url(#clip500)" style="stroke:#ff0000; stroke-linecap:round; stroke-linejoin:round; stroke-width:4; stroke-opacity:1; fill:none" stroke-dasharray="16, 10" points="1886.16,285.016 2046.1,285.016 "/>
<path clip-path="url(#clip500)" d="M2100.63 270.398 L2100.63 275.329 Q2098.27 273.13 2095.59 272.042 Q2092.92 270.954 2089.91 270.954 Q2083.99 270.954 2080.84 274.588 Q2077.69 278.199 2077.69 285.051 Q2077.69 291.88 2080.84 295.514 Q2083.99 299.125 2089.91 299.125 Q2092.92 299.125 2095.59 298.037 Q2098.27 296.949 2100.63 294.75 L2100.63 299.634 Q2098.18 301.301 2095.42 302.134 Q2092.69 302.968 2089.64 302.968 Q2081.79 302.968 2077.28 298.176 Q2072.76 293.361 2072.76 285.051 Q2072.76 276.718 2077.28 271.926 Q2081.79 267.111 2089.64 267.111 Q2092.74 267.111 2095.47 267.945 Q2098.22 268.755 2100.63 270.398 Z" fill="#000000" fill-rule="nonzero" fill-opacity="1" /><path clip-path="url(#clip500)" d="M2119.45 289.264 Q2114.29 289.264 2112.3 290.444 Q2110.31 291.625 2110.31 294.472 Q2110.31 296.741 2111.79 298.083 Q2113.29 299.403 2115.86 299.403 Q2119.4 299.403 2121.53 296.903 Q2123.69 294.38 2123.69 290.213 L2123.69 289.264 L2119.45 289.264 M2127.95 287.505 L2127.95 302.296 L2123.69 302.296 L2123.69 298.361 Q2122.23 300.722 2120.05 301.856 Q2117.88 302.968 2114.73 302.968 Q2110.75 302.968 2108.39 300.745 Q2106.05 298.5 2106.05 294.75 Q2106.05 290.375 2108.97 288.153 Q2111.9 285.931 2117.72 285.931 L2123.69 285.931 L2123.69 285.514 Q2123.69 282.574 2121.74 280.977 Q2119.82 279.357 2116.33 279.357 Q2114.1 279.357 2112 279.889 Q2109.89 280.421 2107.95 281.486 L2107.95 277.551 Q2110.28 276.648 2112.48 276.208 Q2114.68 275.746 2116.77 275.746 Q2122.39 275.746 2125.17 278.662 Q2127.95 281.579 2127.95 287.505 Z" fill="#000000" fill-rule="nonzero" fill-opacity="1" /><path clip-path="url(#clip500)" d="M2151.74 280.352 Q2151.03 279.935 2150.17 279.75 Q2149.34 279.542 2148.32 279.542 Q2144.71 279.542 2142.76 281.903 Q2140.84 284.241 2140.84 288.639 L2140.84 302.296 L2136.56 302.296 L2136.56 276.371 L2140.84 276.371 L2140.84 280.398 Q2142.18 278.037 2144.34 276.903 Q2146.49 275.746 2149.57 275.746 Q2150.01 275.746 2150.54 275.815 Q2151.07 275.861 2151.72 275.977 L2151.74 280.352 Z" fill="#000000" fill-rule="nonzero" fill-opacity="1" /><path clip-path="url(#clip500)" d="M2170.4 280.352 Q2169.68 279.935 2168.83 279.75 Q2167.99 279.542 2166.97 279.542 Q2163.36 279.542 2161.42 281.903 Q2159.5 284.241 2159.5 288.639 L2159.5 302.296 L2155.21 302.296 L2155.21 276.371 L2159.5 276.371 L2159.5 280.398 Q2160.84 278.037 2162.99 276.903 Q2165.15 275.746 2168.22 275.746 Q2168.66 275.746 2169.2 275.815 Q2169.73 275.861 2170.38 275.977 L2170.4 280.352 Z" fill="#000000" fill-rule="nonzero" fill-opacity="1" /><path clip-path="url(#clip500)" d="M2185.65 304.704 Q2183.85 309.333 2182.14 310.745 Q2180.42 312.157 2177.55 312.157 L2174.15 312.157 L2174.15 308.593 L2176.65 308.593 Q2178.41 308.593 2179.38 307.759 Q2180.35 306.926 2181.53 303.824 L2182.3 301.88 L2171.81 276.371 L2176.33 276.371 L2184.43 296.648 L2192.53 276.371 L2197.04 276.371 L2185.65 304.704 Z" fill="#000000" fill-rule="nonzero" fill-opacity="1" /><path clip-path="url(#clip500)" d="M2202.92 276.371 L2207.18 276.371 L2207.18 302.296 L2202.92 302.296 L2202.92 276.371 M2202.92 266.278 L2207.18 266.278 L2207.18 271.671 L2202.92 271.671 L2202.92 266.278 Z" fill="#000000" fill-rule="nonzero" fill-opacity="1" /><path clip-path="url(#clip500)" d="M2237.64 286.648 L2237.64 302.296 L2233.39 302.296 L2233.39 286.787 Q2233.39 283.107 2231.95 281.278 Q2230.52 279.449 2227.65 279.449 Q2224.2 279.449 2222.21 281.648 Q2220.21 283.847 2220.21 287.644 L2220.21 302.296 L2215.93 302.296 L2215.93 276.371 L2220.21 276.371 L2220.21 280.398 Q2221.74 278.06 2223.8 276.903 Q2225.89 275.746 2228.59 275.746 Q2233.06 275.746 2235.35 278.523 Q2237.64 281.278 2237.64 286.648 Z" fill="#000000" fill-rule="nonzero" fill-opacity="1" /><path clip-path="url(#clip500)" d="M2263.2 289.032 Q2263.2 284.403 2261.28 281.857 Q2259.38 279.31 2255.93 279.31 Q2252.51 279.31 2250.58 281.857 Q2248.69 284.403 2248.69 289.032 Q2248.69 293.639 2250.58 296.185 Q2252.51 298.731 2255.93 298.731 Q2259.38 298.731 2261.28 296.185 Q2263.2 293.639 2263.2 289.032 M2267.46 299.079 Q2267.46 305.699 2264.52 308.917 Q2261.58 312.157 2255.52 312.157 Q2253.27 312.157 2251.28 311.81 Q2249.29 311.486 2247.41 310.792 L2247.41 306.648 Q2249.29 307.667 2251.12 308.153 Q2252.95 308.639 2254.84 308.639 Q2259.03 308.639 2261.12 306.44 Q2263.2 304.264 2263.2 299.843 L2263.2 297.736 Q2261.88 300.028 2259.82 301.162 Q2257.76 302.296 2254.89 302.296 Q2250.12 302.296 2247.21 298.662 Q2244.29 295.028 2244.29 289.032 Q2244.29 283.014 2247.21 279.38 Q2250.12 275.746 2254.89 275.746 Q2257.76 275.746 2259.82 276.88 Q2261.88 278.014 2263.2 280.306 L2263.2 276.371 L2267.46 276.371 L2267.46 299.079 Z" fill="#000000" fill-rule="nonzero" fill-opacity="1" /><path clip-path="url(#clip500)" d="M2309.96 277.366 L2309.96 281.347 Q2308.15 280.352 2306.33 279.866 Q2304.52 279.357 2302.67 279.357 Q2298.52 279.357 2296.23 281.995 Q2293.94 284.611 2293.94 289.357 Q2293.94 294.102 2296.23 296.741 Q2298.52 299.356 2302.67 299.356 Q2304.52 299.356 2306.33 298.87 Q2308.15 298.361 2309.96 297.366 L2309.96 301.301 Q2308.18 302.134 2306.26 302.551 Q2304.36 302.968 2302.2 302.968 Q2296.35 302.968 2292.9 299.287 Q2289.45 295.607 2289.45 289.357 Q2289.45 283.014 2292.92 279.38 Q2296.42 275.746 2302.48 275.746 Q2304.45 275.746 2306.33 276.162 Q2308.2 276.556 2309.96 277.366 Z" fill="#000000" fill-rule="nonzero" fill-opacity="1" /><path clip-path="url(#clip500)" d="M2329.15 289.264 Q2323.99 289.264 2322 290.444 Q2320.01 291.625 2320.01 294.472 Q2320.01 296.741 2321.49 298.083 Q2322.99 299.403 2325.56 299.403 Q2329.1 299.403 2331.23 296.903 Q2333.39 294.38 2333.39 290.213 L2333.39 289.264 L2329.15 289.264 M2337.64 287.505 L2337.64 302.296 L2333.39 302.296 L2333.39 298.361 Q2331.93 300.722 2329.75 301.856 Q2327.58 302.968 2324.43 302.968 Q2320.45 302.968 2318.08 300.745 Q2315.75 298.5 2315.75 294.75 Q2315.75 290.375 2318.66 288.153 Q2321.6 285.931 2327.41 285.931 L2333.39 285.931 L2333.39 285.514 Q2333.39 282.574 2331.44 280.977 Q2329.52 279.357 2326.02 279.357 Q2323.8 279.357 2321.7 279.889 Q2319.59 280.421 2317.64 281.486 L2317.64 277.551 Q2319.98 276.648 2322.18 276.208 Q2324.38 275.746 2326.46 275.746 Q2332.09 275.746 2334.87 278.662 Q2337.64 281.579 2337.64 287.505 Z" fill="#000000" fill-rule="nonzero" fill-opacity="1" /><path clip-path="url(#clip500)" d="M2350.54 298.407 L2350.54 312.157 L2346.26 312.157 L2346.26 276.371 L2350.54 276.371 L2350.54 280.306 Q2351.88 277.991 2353.92 276.88 Q2355.98 275.746 2358.82 275.746 Q2363.55 275.746 2366.49 279.495 Q2369.45 283.245 2369.45 289.357 Q2369.45 295.468 2366.49 299.218 Q2363.55 302.968 2358.82 302.968 Q2355.98 302.968 2353.92 301.856 Q2351.88 300.722 2350.54 298.407 M2365.03 289.357 Q2365.03 284.657 2363.08 281.995 Q2361.16 279.31 2357.78 279.31 Q2354.4 279.31 2352.46 281.995 Q2350.54 284.657 2350.54 289.357 Q2350.54 294.056 2352.46 296.741 Q2354.4 299.403 2357.78 299.403 Q2361.16 299.403 2363.08 296.741 Q2365.03 294.056 2365.03 289.357 Z" fill="#000000" fill-rule="nonzero" fill-opacity="1" /><path clip-path="url(#clip500)" d="M2388.29 289.264 Q2383.13 289.264 2381.14 290.444 Q2379.15 291.625 2379.15 294.472 Q2379.15 296.741 2380.63 298.083 Q2382.13 299.403 2384.7 299.403 Q2388.25 299.403 2390.38 296.903 Q2392.53 294.38 2392.53 290.213 L2392.53 289.264 L2388.29 289.264 M2396.79 287.505 L2396.79 302.296 L2392.53 302.296 L2392.53 298.361 Q2391.07 300.722 2388.89 301.856 Q2386.72 302.968 2383.57 302.968 Q2379.59 302.968 2377.23 300.745 Q2374.89 298.5 2374.89 294.75 Q2374.89 290.375 2377.81 288.153 Q2380.75 285.931 2386.56 285.931 L2392.53 285.931 L2392.53 285.514 Q2392.53 282.574 2390.58 280.977 Q2388.66 279.357 2385.17 279.357 Q2382.95 279.357 2380.84 279.889 Q2378.73 280.421 2376.79 281.486 L2376.79 277.551 Q2379.13 276.648 2381.32 276.208 Q2383.52 275.746 2385.61 275.746 Q2391.23 275.746 2394.01 278.662 Q2396.79 281.579 2396.79 287.505 Z" fill="#000000" fill-rule="nonzero" fill-opacity="1" /><path clip-path="url(#clip500)" d="M2424.22 277.366 L2424.22 281.347 Q2422.41 280.352 2420.58 279.866 Q2418.78 279.357 2416.93 279.357 Q2412.78 279.357 2410.49 281.995 Q2408.2 284.611 2408.2 289.357 Q2408.2 294.102 2410.49 296.741 Q2412.78 299.356 2416.93 299.356 Q2418.78 299.356 2420.58 298.87 Q2422.41 298.361 2424.22 297.366 L2424.22 301.301 Q2422.44 302.134 2420.51 302.551 Q2418.62 302.968 2416.46 302.968 Q2410.61 302.968 2407.16 299.287 Q2403.71 295.607 2403.71 289.357 Q2403.71 283.014 2407.18 279.38 Q2410.68 275.746 2416.74 275.746 Q2418.71 275.746 2420.58 276.162 Q2422.46 276.556 2424.22 277.366 Z" fill="#000000" fill-rule="nonzero" fill-opacity="1" /><path clip-path="url(#clip500)" d="M2431.63 276.371 L2435.88 276.371 L2435.88 302.296 L2431.63 302.296 L2431.63 276.371 M2431.63 266.278 L2435.88 266.278 L2435.88 271.671 L2431.63 271.671 L2431.63 266.278 Z" fill="#000000" fill-rule="nonzero" fill-opacity="1" /><path clip-path="url(#clip500)" d="M2449.01 269.009 L2449.01 276.371 L2457.78 276.371 L2457.78 279.681 L2449.01 279.681 L2449.01 293.755 Q2449.01 296.926 2449.87 297.829 Q2450.75 298.731 2453.41 298.731 L2457.78 298.731 L2457.78 302.296 L2453.41 302.296 Q2448.48 302.296 2446.6 300.468 Q2444.73 298.616 2444.73 293.755 L2444.73 279.681 L2441.6 279.681 L2441.6 276.371 L2444.73 276.371 L2444.73 269.009 L2449.01 269.009 Z" fill="#000000" fill-rule="nonzero" fill-opacity="1" /><path clip-path="url(#clip500)" d="M2474.17 304.704 Q2472.37 309.333 2470.65 310.745 Q2468.94 312.157 2466.07 312.157 L2462.67 312.157 L2462.67 308.593 L2465.17 308.593 Q2466.93 308.593 2467.9 307.759 Q2468.87 306.926 2470.05 303.824 L2470.82 301.88 L2460.33 276.371 L2464.84 276.371 L2472.94 296.648 L2481.05 276.371 L2485.56 276.371 L2474.17 304.704 Z" fill="#000000" fill-rule="nonzero" fill-opacity="1" /><path clip-path="url(#clip500)" d="M2506.69 267.736 L2511.37 267.736 L2511.37 282.343 L2526.88 267.736 L2532.9 267.736 L2515.75 283.847 L2534.12 302.296 L2527.97 302.296 L2511.37 285.653 L2511.37 302.296 L2506.69 302.296 L2506.69 267.736 Z" fill="#000000" fill-rule="nonzero" fill-opacity="1" /></svg>
