<?xml version="1.0" encoding="utf-8"?>
<svg xmlns="http://www.w3.org/2000/svg" xmlns:xlink="http://www.w3.org/1999/xlink" width="672" height="480" viewBox="0 0 2688 1920">
<defs>
  <clipPath id="clip440">
    <rect x="0" y="0" width="2688" height="1920"/>
  </clipPath>
</defs>
<path clip-path="url(#clip440)" d="M0 1920 L2688 1920 L2688 -4.26326e-14 L0 -4.26326e-14  Z" fill="#ffffff" fill-rule="evenodd" fill-opacity="1"/>
<defs>
  <clipPath id="clip441">
    <rect x="227" y="127" width="2414" height="1607"/>
  </clipPath>
</defs>
<path clip-path="url(#clip440)" d="M227.911 1734.12 L2640.76 1734.12 L2640.76 127.792 L227.911 127.792  Z" fill="#ffffff" fill-rule="evenodd" fill-opacity="1"/>
<polyline clip-path="url(#clip441)" style="stroke:#000000; stroke-linecap:round; stroke-linejoin:round; stroke-width:2; stroke-opacity:0.1; fill:none" points="296.199,1734.12 296.199,127.792 "/>
<polyline clip-path="url(#clip441)" style="stroke:#000000; stroke-linecap:round; stroke-linejoin:round; stroke-width:2; stroke-opacity:0.1; fill:none" points="865.267,1734.12 865.267,127.792 "/>
<polyline clip-path="url(#clip441)" style="stroke:#000000; stroke-linecap:round; stroke-linejoin:round; stroke-width:2; stroke-opacity:0.1; fill:none" points="1434.33,1734.12 1434.33,127.792 "/>
<polyline clip-path="url(#clip441)" style="stroke:#000000; stroke-linecap:round; stroke-linejoin:round; stroke-width:2; stroke-opacity:0.1; fill:none" points="2003.4,1734.12 2003.4,127.792 "/>
<polyline clip-path="url(#clip441)" style="stroke:#000000; stroke-linecap:round; stroke-linejoin:round; stroke-width:2; stroke-opacity:0.1; fill:none" points="2572.47,1734.12 2572.47,127.792 "/>
<polyline clip-path="url(#clip441)" style="stroke:#000000; stroke-linecap:round; stroke-linejoin:round; stroke-width:2; stroke-opacity:0.1; fill:none" points="227.911,1431.12 2640.76,1431.12 "/>
<polyline clip-path="url(#clip441)" style="stroke:#000000; stroke-linecap:round; stroke-linejoin:round; stroke-width:2; stroke-opacity:0.1; fill:none" points="227.911,947.708 2640.76,947.708 "/>
<polyline clip-path="url(#clip441)" style="stroke:#000000; stroke-linecap:round; stroke-linejoin:round; stroke-width:2; stroke-opacity:0.1; fill:none" points="227.911,464.297 2640.76,464.297 "/>
<polyline clip-path="url(#clip440)" style="stroke:#000000; stroke-linecap:round; stroke-linejoin:round; stroke-width:4; stroke-opacity:1; fill:none" points="227.911,1734.12 2640.76,1734.12 "/>
<polyline clip-path="url(#clip440)" style="stroke:#000000; stroke-linecap:round; stroke-linejoin:round; stroke-width:4; stroke-opacity:1; fill:none" points="296.199,1734.12 296.199,1715.22 "/>
<polyline clip-path="url(#clip440)" style="stroke:#000000; stroke-linecap:round; stroke-linejoin:round; stroke-width:4; stroke-opacity:1; fill:none" points="865.267,1734.12 865.267,1715.22 "/>
<polyline clip-path="url(#clip440)" style="stroke:#000000; stroke-linecap:round; stroke-linejoin:round; stroke-width:4; stroke-opacity:1; fill:none" points="1434.33,1734.12 1434.33,1715.22 "/>
<polyline clip-path="url(#clip440)" style="stroke:#000000; stroke-linecap:round; stroke-linejoin:round; stroke-width:4; stroke-opacity:1; fill:none" points="2003.4,1734.12 2003.4,1715.22 "/>
<polyline clip-path="url(#clip440)" style="stroke:#000000; stroke-linecap:round; stroke-linejoin:round; stroke-width:4; stroke-opacity:1; fill:none" points="2572.47,1734.12 2572.47,1715.22 "/>
<path clip-path="url(#clip440)" d="M296.199 1767.34 Q292.588 1767.34 290.76 1770.9 Q288.954 1774.45 288.954 1781.58 Q288.954 1788.68 290.76 1792.25 Q292.588 1795.79 296.199 1795.79 Q299.834 1795.79 301.639 1792.25 Q303.468 1788.68 303.468 1781.58 Q303.468 1774.45 301.639 1770.9 Q299.834 1767.34 296.199 1767.34 M296.199 1763.64 Q302.01 1763.64 305.065 1768.24 Q308.144 1772.83 308.144 1781.58 Q308.144 1790.3 305.065 1794.91 Q302.01 1799.49 296.199 1799.49 Q290.389 1799.49 287.311 1794.91 Q284.255 1790.3 284.255 1781.58 Q284.255 1772.83 287.311 1768.24 Q290.389 1763.64 296.199 1763.64 Z" fill="#000000" fill-rule="nonzero" fill-opacity="1" /><path clip-path="url(#clip440)" d="M844.537 1794.89 L860.857 1794.89 L860.857 1798.82 L838.913 1798.82 L838.913 1794.89 Q841.575 1792.13 846.158 1787.5 Q850.764 1782.85 851.945 1781.51 Q854.19 1778.98 855.07 1777.25 Q855.973 1775.49 855.973 1773.8 Q855.973 1771.04 854.028 1769.31 Q852.107 1767.57 849.005 1767.57 Q846.806 1767.57 844.352 1768.34 Q841.922 1769.1 839.144 1770.65 L839.144 1765.93 Q841.968 1764.79 844.422 1764.21 Q846.875 1763.64 848.912 1763.64 Q854.283 1763.64 857.477 1766.32 Q860.672 1769.01 860.672 1773.5 Q860.672 1775.63 859.861 1777.55 Q859.074 1779.45 856.968 1782.04 Q856.389 1782.71 853.287 1785.93 Q850.186 1789.12 844.537 1794.89 Z" fill="#000000" fill-rule="nonzero" fill-opacity="1" /><path clip-path="url(#clip440)" d="M870.718 1764.26 L889.074 1764.26 L889.074 1768.2 L875 1768.2 L875 1776.67 Q876.019 1776.32 877.037 1776.16 Q878.056 1775.97 879.074 1775.97 Q884.861 1775.97 888.241 1779.15 Q891.621 1782.32 891.621 1787.73 Q891.621 1793.31 888.148 1796.41 Q884.676 1799.49 878.357 1799.49 Q876.181 1799.49 873.912 1799.12 Q871.667 1798.75 869.26 1798.01 L869.26 1793.31 Q871.343 1794.45 873.565 1795 Q875.787 1795.56 878.264 1795.56 Q882.269 1795.56 884.607 1793.45 Q886.945 1791.34 886.945 1787.73 Q886.945 1784.12 884.607 1782.02 Q882.269 1779.91 878.264 1779.91 Q876.389 1779.91 874.514 1780.33 Q872.662 1780.74 870.718 1781.62 L870.718 1764.26 Z" fill="#000000" fill-rule="nonzero" fill-opacity="1" /><path clip-path="url(#clip440)" d="M1409.03 1764.26 L1427.39 1764.26 L1427.39 1768.2 L1413.32 1768.2 L1413.32 1776.67 Q1414.33 1776.32 1415.35 1776.16 Q1416.37 1775.97 1417.39 1775.97 Q1423.18 1775.97 1426.56 1779.15 Q1429.94 1782.32 1429.94 1787.73 Q1429.94 1793.31 1426.46 1796.41 Q1422.99 1799.49 1416.67 1799.49 Q1414.5 1799.49 1412.23 1799.12 Q1409.98 1798.75 1407.57 1798.01 L1407.57 1793.31 Q1409.66 1794.45 1411.88 1795 Q1414.1 1795.56 1416.58 1795.56 Q1420.58 1795.56 1422.92 1793.45 Q1425.26 1791.34 1425.26 1787.73 Q1425.26 1784.12 1422.92 1782.02 Q1420.58 1779.91 1416.58 1779.91 Q1414.7 1779.91 1412.83 1780.33 Q1410.98 1780.74 1409.03 1781.62 L1409.03 1764.26 Z" fill="#000000" fill-rule="nonzero" fill-opacity="1" /><path clip-path="url(#clip440)" d="M1449.15 1767.34 Q1445.54 1767.34 1443.71 1770.9 Q1441.9 1774.45 1441.9 1781.58 Q1441.9 1788.68 1443.71 1792.25 Q1445.54 1795.79 1449.15 1795.79 Q1452.78 1795.79 1454.59 1792.25 Q1456.42 1788.68 1456.42 1781.58 Q1456.42 1774.45 1454.59 1770.9 Q1452.78 1767.34 1449.15 1767.34 M1449.15 1763.64 Q1454.96 1763.64 1458.01 1768.24 Q1461.09 1772.83 1461.09 1781.58 Q1461.09 1790.3 1458.01 1794.91 Q1454.96 1799.49 1449.15 1799.49 Q1443.34 1799.49 1440.26 1794.91 Q1437.2 1790.3 1437.2 1781.58 Q1437.2 1772.83 1440.26 1768.24 Q1443.34 1763.64 1449.15 1763.64 Z" fill="#000000" fill-rule="nonzero" fill-opacity="1" /><path clip-path="url(#clip440)" d="M1977.26 1764.26 L1999.48 1764.26 L1999.48 1766.25 L1986.93 1798.82 L1982.05 1798.82 L1993.85 1768.2 L1977.26 1768.2 L1977.26 1764.26 Z" fill="#000000" fill-rule="nonzero" fill-opacity="1" /><path clip-path="url(#clip440)" d="M2008.64 1764.26 L2027 1764.26 L2027 1768.2 L2012.93 1768.2 L2012.93 1776.67 Q2013.94 1776.32 2014.96 1776.16 Q2015.98 1775.97 2017 1775.97 Q2022.79 1775.97 2026.17 1779.15 Q2029.55 1782.32 2029.55 1787.73 Q2029.55 1793.31 2026.07 1796.41 Q2022.6 1799.49 2016.28 1799.49 Q2014.11 1799.49 2011.84 1799.12 Q2009.59 1798.75 2007.19 1798.01 L2007.19 1793.31 Q2009.27 1794.45 2011.49 1795 Q2013.71 1795.56 2016.19 1795.56 Q2020.19 1795.56 2022.53 1793.45 Q2024.87 1791.34 2024.87 1787.73 Q2024.87 1784.12 2022.53 1782.02 Q2020.19 1779.91 2016.19 1779.91 Q2014.32 1779.91 2012.44 1780.33 Q2010.59 1780.74 2008.64 1781.62 L2008.64 1764.26 Z" fill="#000000" fill-rule="nonzero" fill-opacity="1" /><path clip-path="url(#clip440)" d="M2532.07 1794.89 L2539.71 1794.89 L2539.71 1768.52 L2531.4 1770.19 L2531.4 1765.93 L2539.67 1764.26 L2544.34 1764.26 L2544.34 1794.89 L2551.98 1794.89 L2551.98 1798.82 L2532.07 1798.82 L2532.07 1794.89 Z" fill="#000000" fill-rule="nonzero" fill-opacity="1" /><path clip-path="url(#clip440)" d="M2571.43 1767.34 Q2567.82 1767.34 2565.99 1770.9 Q2564.18 1774.45 2564.18 1781.58 Q2564.18 1788.68 2565.99 1792.25 Q2567.82 1795.79 2571.43 1795.79 Q2575.06 1795.79 2576.87 1792.25 Q2578.69 1788.68 2578.69 1781.58 Q2578.69 1774.45 2576.87 1770.9 Q2575.06 1767.34 2571.43 1767.34 M2571.43 1763.64 Q2577.24 1763.64 2580.29 1768.24 Q2583.37 1772.83 2583.37 1781.58 Q2583.37 1790.3 2580.29 1794.91 Q2577.24 1799.49 2571.43 1799.49 Q2565.62 1799.49 2562.54 1794.91 Q2559.48 1790.3 2559.48 1781.58 Q2559.48 1772.83 2562.54 1768.24 Q2565.62 1763.64 2571.43 1763.64 Z" fill="#000000" fill-rule="nonzero" fill-opacity="1" /><path clip-path="url(#clip440)" d="M2601.59 1767.34 Q2597.98 1767.34 2596.15 1770.9 Q2594.34 1774.45 2594.34 1781.58 Q2594.34 1788.68 2596.15 1792.25 Q2597.98 1795.79 2601.59 1795.79 Q2605.22 1795.79 2607.03 1792.25 Q2608.86 1788.68 2608.86 1781.58 Q2608.86 1774.45 2607.03 1770.9 Q2605.22 1767.34 2601.59 1767.34 M2601.59 1763.64 Q2607.4 1763.64 2610.45 1768.24 Q2613.53 1772.83 2613.53 1781.58 Q2613.53 1790.3 2610.45 1794.91 Q2607.4 1799.49 2601.59 1799.49 Q2595.78 1799.49 2592.7 1794.91 Q2589.64 1790.3 2589.64 1781.58 Q2589.64 1772.83 2592.7 1768.24 Q2595.78 1763.64 2601.59 1763.64 Z" fill="#000000" fill-rule="nonzero" fill-opacity="1" /><path clip-path="url(#clip440)" d="M1365.27 1835.78 L1372.17 1835.78 L1385.35 1855.32 L1398.43 1835.78 L1405.34 1835.78 L1388.53 1860.67 L1388.53 1883.3 L1382.07 1883.3 L1382.07 1860.67 L1365.27 1835.78 Z" fill="#000000" fill-rule="nonzero" fill-opacity="1" /><path clip-path="url(#clip440)" d="M1433.19 1864.01 L1433.19 1866.88 L1406.26 1866.88 Q1406.64 1872.92 1409.89 1876.11 Q1413.17 1879.26 1418.99 1879.26 Q1422.37 1879.26 1425.52 1878.43 Q1428.7 1877.6 1431.82 1875.95 L1431.82 1881.49 Q1428.67 1882.82 1425.36 1883.52 Q1422.05 1884.22 1418.64 1884.22 Q1410.11 1884.22 1405.12 1879.26 Q1400.15 1874.29 1400.15 1865.83 Q1400.15 1857.07 1404.86 1851.95 Q1409.6 1846.79 1417.62 1846.79 Q1424.82 1846.79 1428.99 1851.44 Q1433.19 1856.06 1433.19 1864.01 M1427.33 1862.29 Q1427.27 1857.49 1424.63 1854.62 Q1422.02 1851.76 1417.69 1851.76 Q1412.79 1851.76 1409.83 1854.53 Q1406.9 1857.3 1406.45 1862.33 L1427.33 1862.29 Z" fill="#000000" fill-rule="nonzero" fill-opacity="1" /><path clip-path="url(#clip440)" d="M1459 1865.38 Q1451.9 1865.38 1449.17 1867 Q1446.43 1868.63 1446.43 1872.54 Q1446.43 1875.66 1448.47 1877.51 Q1450.53 1879.32 1454.07 1879.32 Q1458.94 1879.32 1461.87 1875.88 Q1464.83 1872.42 1464.83 1866.69 L1464.83 1865.38 L1459 1865.38 M1470.68 1862.96 L1470.68 1883.3 L1464.83 1883.3 L1464.83 1877.89 Q1462.82 1881.14 1459.83 1882.7 Q1456.84 1884.22 1452.51 1884.22 Q1447.03 1884.22 1443.79 1881.17 Q1440.57 1878.08 1440.57 1872.92 Q1440.57 1866.91 1444.58 1863.85 Q1448.62 1860.8 1456.61 1860.8 L1464.83 1860.8 L1464.83 1860.23 Q1464.83 1856.18 1462.15 1853.99 Q1459.51 1851.76 1454.7 1851.76 Q1451.65 1851.76 1448.75 1852.49 Q1445.86 1853.22 1443.18 1854.69 L1443.18 1849.28 Q1446.4 1848.03 1449.42 1847.43 Q1452.44 1846.79 1455.31 1846.79 Q1463.04 1846.79 1466.86 1850.8 Q1470.68 1854.81 1470.68 1862.96 Z" fill="#000000" fill-rule="nonzero" fill-opacity="1" /><path clip-path="url(#clip440)" d="M1503.4 1853.13 Q1502.41 1852.55 1501.24 1852.3 Q1500.09 1852.01 1498.69 1852.01 Q1493.73 1852.01 1491.05 1855.26 Q1488.41 1858.47 1488.41 1864.52 L1488.41 1883.3 L1482.52 1883.3 L1482.52 1847.65 L1488.41 1847.65 L1488.41 1853.19 Q1490.26 1849.94 1493.22 1848.39 Q1496.18 1846.79 1500.41 1846.79 Q1501.01 1846.79 1501.75 1846.89 Q1502.48 1846.95 1503.37 1847.11 L1503.4 1853.13 Z" fill="#000000" fill-rule="nonzero" fill-opacity="1" /><polyline clip-path="url(#clip440)" style="stroke:#000000; stroke-linecap:round; stroke-linejoin:round; stroke-width:4; stroke-opacity:1; fill:none" points="227.911,1734.12 227.911,127.792 "/>
<polyline clip-path="url(#clip440)" style="stroke:#000000; stroke-linecap:round; stroke-linejoin:round; stroke-width:4; stroke-opacity:1; fill:none" points="227.911,1431.12 246.809,1431.12 "/>
<polyline clip-path="url(#clip440)" style="stroke:#000000; stroke-linecap:round; stroke-linejoin:round; stroke-width:4; stroke-opacity:1; fill:none" points="227.911,947.708 246.809,947.708 "/>
<polyline clip-path="url(#clip440)" style="stroke:#000000; stroke-linecap:round; stroke-linejoin:round; stroke-width:4; stroke-opacity:1; fill:none" points="227.911,464.297 246.809,464.297 "/>
<path clip-path="url(#clip440)" d="M116.886 1450.91 L124.525 1450.91 L124.525 1424.55 L116.214 1426.21 L116.214 1421.95 L124.478 1420.29 L129.154 1420.29 L129.154 1450.91 L136.793 1450.91 L136.793 1454.85 L116.886 1454.85 L116.886 1450.91 Z" fill="#000000" fill-rule="nonzero" fill-opacity="1" /><path clip-path="url(#clip440)" d="M156.237 1423.37 Q152.626 1423.37 150.798 1426.93 Q148.992 1430.47 148.992 1437.6 Q148.992 1444.71 150.798 1448.27 Q152.626 1451.81 156.237 1451.81 Q159.872 1451.81 161.677 1448.27 Q163.506 1444.71 163.506 1437.6 Q163.506 1430.47 161.677 1426.93 Q159.872 1423.37 156.237 1423.37 M156.237 1419.66 Q162.048 1419.66 165.103 1424.27 Q168.182 1428.85 168.182 1437.6 Q168.182 1446.33 165.103 1450.94 Q162.048 1455.52 156.237 1455.52 Q150.427 1455.52 147.349 1450.94 Q144.293 1446.33 144.293 1437.6 Q144.293 1428.85 147.349 1424.27 Q150.427 1419.66 156.237 1419.66 Z" fill="#000000" fill-rule="nonzero" fill-opacity="1" /><path clip-path="url(#clip440)" d="M177.887 1401.86 Q174.953 1401.86 173.467 1404.75 Q172 1407.63 172 1413.43 Q172 1419.2 173.467 1422.1 Q174.953 1424.97 177.887 1424.97 Q180.839 1424.97 182.306 1422.1 Q183.792 1419.2 183.792 1413.43 Q183.792 1407.63 182.306 1404.75 Q180.839 1401.86 177.887 1401.86 M177.887 1398.85 Q182.607 1398.85 185.09 1402.59 Q187.591 1406.32 187.591 1413.43 Q187.591 1420.52 185.09 1424.26 Q182.607 1427.98 177.887 1427.98 Q173.166 1427.98 170.664 1424.26 Q168.182 1420.52 168.182 1413.43 Q168.182 1406.32 170.664 1402.59 Q173.166 1398.85 177.887 1398.85 Z" fill="#000000" fill-rule="nonzero" fill-opacity="1" /><path clip-path="url(#clip440)" d="M119.575 967.501 L127.214 967.501 L127.214 941.135 L118.904 942.802 L118.904 938.542 L127.168 936.876 L131.844 936.876 L131.844 967.501 L139.483 967.501 L139.483 971.436 L119.575 971.436 L119.575 967.501 Z" fill="#000000" fill-rule="nonzero" fill-opacity="1" /><path clip-path="url(#clip440)" d="M158.927 939.955 Q155.316 939.955 153.487 943.519 Q151.682 947.061 151.682 954.191 Q151.682 961.297 153.487 964.862 Q155.316 968.403 158.927 968.403 Q162.561 968.403 164.367 964.862 Q166.195 961.297 166.195 954.191 Q166.195 947.061 164.367 943.519 Q162.561 939.955 158.927 939.955 M158.927 936.251 Q164.737 936.251 167.793 940.857 Q170.871 945.441 170.871 954.191 Q170.871 962.917 167.793 967.524 Q164.737 972.107 158.927 972.107 Q153.117 972.107 150.038 967.524 Q146.983 962.917 146.983 954.191 Q146.983 945.441 150.038 940.857 Q153.117 936.251 158.927 936.251 Z" fill="#000000" fill-rule="nonzero" fill-opacity="1" /><path clip-path="url(#clip440)" d="M171.417 940.828 L177.623 940.828 L177.623 919.406 L170.871 920.76 L170.871 917.3 L177.586 915.945 L181.385 915.945 L181.385 940.828 L187.591 940.828 L187.591 944.025 L171.417 944.025 L171.417 940.828 Z" fill="#000000" fill-rule="nonzero" fill-opacity="1" /><path clip-path="url(#clip440)" d="M118.466 484.089 L126.104 484.089 L126.104 457.724 L117.794 459.39 L117.794 455.131 L126.058 453.464 L130.734 453.464 L130.734 484.089 L138.373 484.089 L138.373 488.024 L118.466 488.024 L118.466 484.089 Z" fill="#000000" fill-rule="nonzero" fill-opacity="1" /><path clip-path="url(#clip440)" d="M157.817 456.543 Q154.206 456.543 152.377 460.108 Q150.572 463.65 150.572 470.779 Q150.572 477.886 152.377 481.45 Q154.206 484.992 157.817 484.992 Q161.451 484.992 163.257 481.45 Q165.086 477.886 165.086 470.779 Q165.086 463.65 163.257 460.108 Q161.451 456.543 157.817 456.543 M157.817 452.839 Q163.627 452.839 166.683 457.446 Q169.762 462.029 169.762 470.779 Q169.762 479.506 166.683 484.112 Q163.627 488.696 157.817 488.696 Q152.007 488.696 148.928 484.112 Q145.873 479.506 145.873 470.779 Q145.873 462.029 148.928 457.446 Q152.007 452.839 157.817 452.839 Z" fill="#000000" fill-rule="nonzero" fill-opacity="1" /><path clip-path="url(#clip440)" d="M174.332 457.417 L187.591 457.417 L187.591 460.614 L169.762 460.614 L169.762 457.417 Q171.925 455.179 175.648 451.417 Q179.391 447.637 180.35 446.546 Q182.175 444.496 182.889 443.085 Q183.623 441.656 183.623 440.283 Q183.623 438.045 182.043 436.634 Q180.482 435.224 177.962 435.224 Q176.175 435.224 174.181 435.844 Q172.207 436.465 169.95 437.725 L169.95 433.888 Q172.244 432.967 174.238 432.496 Q176.231 432.026 177.887 432.026 Q182.25 432.026 184.845 434.208 Q187.441 436.39 187.441 440.038 Q187.441 441.769 186.783 443.33 Q186.143 444.872 184.432 446.978 Q183.961 447.524 181.441 450.138 Q178.921 452.734 174.332 457.417 Z" fill="#000000" fill-rule="nonzero" fill-opacity="1" /><path clip-path="url(#clip440)" d="M14.1184 1188.19 L14.1184 1147.99 L19.5293 1147.99 L19.5293 1164.86 L61.6384 1164.86 L61.6384 1171.32 L19.5293 1171.32 L19.5293 1188.19 L14.1184 1188.19 Z" fill="#000000" fill-rule="nonzero" fill-opacity="1" /><path clip-path="url(#clip440)" d="M30.0964 1139.3 Q30.0964 1144.01 33.7885 1146.75 Q37.4488 1149.49 43.8463 1149.49 Q50.2438 1149.49 53.9359 1146.78 Q57.5962 1144.05 57.5962 1139.3 Q57.5962 1134.63 53.9041 1131.89 Q50.212 1129.15 43.8463 1129.15 Q37.5124 1129.15 33.8203 1131.89 Q30.0964 1134.63 30.0964 1139.3 M25.1311 1139.3 Q25.1311 1131.67 30.0964 1127.3 Q35.0616 1122.94 43.8463 1122.94 Q52.5991 1122.94 57.5962 1127.3 Q62.5615 1131.67 62.5615 1139.3 Q62.5615 1146.97 57.5962 1151.34 Q52.5991 1155.66 43.8463 1155.66 Q35.0616 1155.66 30.0964 1151.34 Q25.1311 1146.97 25.1311 1139.3 Z" fill="#000000" fill-rule="nonzero" fill-opacity="1" /><path clip-path="url(#clip440)" d="M15.869 1107.44 L25.9905 1107.44 L25.9905 1095.38 L30.542 1095.38 L30.542 1107.44 L49.8937 1107.44 Q54.2542 1107.44 55.4955 1106.27 Q56.7368 1105.06 56.7368 1101.4 L56.7368 1095.38 L61.6384 1095.38 L61.6384 1101.4 Q61.6384 1108.18 59.124 1110.75 Q56.5777 1113.33 49.8937 1113.33 L30.542 1113.33 L30.542 1117.63 L25.9905 1117.63 L25.9905 1113.33 L15.869 1113.33 L15.869 1107.44 Z" fill="#000000" fill-rule="nonzero" fill-opacity="1" /><path clip-path="url(#clip440)" d="M43.719 1071.48 Q43.719 1078.58 45.3422 1081.31 Q46.9655 1084.05 50.8804 1084.05 Q53.9996 1084.05 55.8457 1082.01 Q57.6599 1079.94 57.6599 1076.41 Q57.6599 1071.54 54.2224 1068.61 Q50.7531 1065.65 45.0239 1065.65 L43.719 1065.65 L43.719 1071.48 M41.3 1059.8 L61.6384 1059.8 L61.6384 1065.65 L56.2276 1065.65 Q59.4741 1067.66 61.0337 1070.65 Q62.5615 1073.64 62.5615 1077.97 Q62.5615 1083.45 59.5059 1086.69 Q56.4186 1089.91 51.2623 1089.91 Q45.2467 1089.91 42.1912 1085.9 Q39.1357 1081.85 39.1357 1073.86 L39.1357 1065.65 L38.5628 1065.65 Q34.5205 1065.65 32.3244 1068.33 Q30.0964 1070.97 30.0964 1075.77 Q30.0964 1078.83 30.8284 1081.73 Q31.5605 1084.62 33.0246 1087.3 L27.6137 1087.3 Q26.3724 1084.08 25.7677 1081.06 Q25.1311 1078.03 25.1311 1075.17 Q25.1311 1067.44 29.1415 1063.62 Q33.1519 1059.8 41.3 1059.8 Z" fill="#000000" fill-rule="nonzero" fill-opacity="1" /><path clip-path="url(#clip440)" d="M12.1132 1047.73 L12.1132 1041.88 L61.6384 1041.88 L61.6384 1047.73 L12.1132 1047.73 Z" fill="#000000" fill-rule="nonzero" fill-opacity="1" /><path clip-path="url(#clip440)" d="M56.2912 1003.24 L75.1974 1003.24 L75.1974 1009.13 L25.9905 1009.13 L25.9905 1003.24 L31.4013 1003.24 Q28.2185 1001.39 26.6907 998.59 Q25.1311 995.757 25.1311 991.843 Q25.1311 985.35 30.2873 981.307 Q35.4436 977.233 43.8463 977.233 Q52.249 977.233 57.4052 981.307 Q62.5615 985.35 62.5615 991.843 Q62.5615 995.757 61.0337 998.59 Q59.4741 1001.39 56.2912 1003.24 M43.8463 983.312 Q37.3851 983.312 33.7248 985.986 Q30.0327 988.628 30.0327 993.275 Q30.0327 997.922 33.7248 1000.6 Q37.3851 1003.24 43.8463 1003.24 Q50.3075 1003.24 53.9996 1000.6 Q57.6599 997.922 57.6599 993.275 Q57.6599 988.628 53.9996 985.986 Q50.3075 983.312 43.8463 983.312 Z" fill="#000000" fill-rule="nonzero" fill-opacity="1" /><path clip-path="url(#clip440)" d="M30.0964 953.712 Q30.0964 958.423 33.7885 961.16 Q37.4488 963.897 43.8463 963.897 Q50.2438 963.897 53.9359 961.192 Q57.5962 958.454 57.5962 953.712 Q57.5962 949.033 53.9041 946.296 Q50.212 943.559 43.8463 943.559 Q37.5124 943.559 33.8203 946.296 Q30.0964 949.033 30.0964 953.712 M25.1311 953.712 Q25.1311 946.073 30.0964 941.713 Q35.0616 937.352 43.8463 937.352 Q52.5991 937.352 57.5962 941.713 Q62.5615 946.073 62.5615 953.712 Q62.5615 961.383 57.5962 965.743 Q52.5991 970.072 43.8463 970.072 Q35.0616 970.072 30.0964 965.743 Q25.1311 961.383 25.1311 953.712 Z" fill="#000000" fill-rule="nonzero" fill-opacity="1" /><path clip-path="url(#clip440)" d="M56.2912 921.979 L75.1974 921.979 L75.1974 927.867 L25.9905 927.867 L25.9905 921.979 L31.4013 921.979 Q28.2185 920.133 26.6907 917.332 Q25.1311 914.499 25.1311 910.584 Q25.1311 904.091 30.2873 900.049 Q35.4436 895.975 43.8463 895.975 Q52.249 895.975 57.4052 900.049 Q62.5615 904.091 62.5615 910.584 Q62.5615 914.499 61.0337 917.332 Q59.4741 920.133 56.2912 921.979 M43.8463 902.054 Q37.3851 902.054 33.7248 904.728 Q30.0327 907.37 30.0327 912.017 Q30.0327 916.664 33.7248 919.337 Q37.3851 921.979 43.8463 921.979 Q50.3075 921.979 53.9996 919.337 Q57.6599 916.664 57.6599 912.017 Q57.6599 907.37 53.9996 904.728 Q50.3075 902.054 43.8463 902.054 Z" fill="#000000" fill-rule="nonzero" fill-opacity="1" /><path clip-path="url(#clip440)" d="M47.5702 886.872 L25.9905 886.872 L25.9905 881.016 L47.3474 881.016 Q52.4082 881.016 54.9545 879.042 Q57.4689 877.069 57.4689 873.122 Q57.4689 868.38 54.4452 865.642 Q51.4215 862.873 46.2016 862.873 L25.9905 862.873 L25.9905 857.017 L61.6384 857.017 L61.6384 862.873 L56.1639 862.873 Q59.4104 865.006 61.0019 867.839 Q62.5615 870.639 62.5615 874.363 Q62.5615 880.506 58.742 883.689 Q54.9226 886.872 47.5702 886.872 M25.1311 872.135 L25.1311 872.135 Z" fill="#000000" fill-rule="nonzero" fill-opacity="1" /><path clip-path="url(#clip440)" d="M12.1132 844.954 L12.1132 839.097 L61.6384 839.097 L61.6384 844.954 L12.1132 844.954 Z" fill="#000000" fill-rule="nonzero" fill-opacity="1" /><path clip-path="url(#clip440)" d="M43.719 810.643 Q43.719 817.74 45.3422 820.478 Q46.9655 823.215 50.8804 823.215 Q53.9996 823.215 55.8457 821.178 Q57.6599 819.109 57.6599 815.576 Q57.6599 810.706 54.2224 807.778 Q50.7531 804.818 45.0239 804.818 L43.719 804.818 L43.719 810.643 M41.3 798.962 L61.6384 798.962 L61.6384 804.818 L56.2276 804.818 Q59.4741 806.823 61.0337 809.815 Q62.5615 812.807 62.5615 817.136 Q62.5615 822.61 59.5059 825.857 Q56.4186 829.071 51.2623 829.071 Q45.2467 829.071 42.1912 825.061 Q39.1357 821.019 39.1357 813.03 L39.1357 804.818 L38.5628 804.818 Q34.5205 804.818 32.3244 807.492 Q30.0964 810.133 30.0964 814.94 Q30.0964 817.995 30.8284 820.891 Q31.5605 823.788 33.0246 826.461 L27.6137 826.461 Q26.3724 823.247 25.7677 820.223 Q25.1311 817.199 25.1311 814.335 Q25.1311 806.6 29.1415 802.781 Q33.1519 798.962 41.3 798.962 Z" fill="#000000" fill-rule="nonzero" fill-opacity="1" /><path clip-path="url(#clip440)" d="M15.869 781.106 L25.9905 781.106 L25.9905 769.043 L30.542 769.043 L30.542 781.106 L49.8937 781.106 Q54.2542 781.106 55.4955 779.928 Q56.7368 778.719 56.7368 775.058 L56.7368 769.043 L61.6384 769.043 L61.6384 775.058 Q61.6384 781.838 59.124 784.416 Q56.5777 786.994 49.8937 786.994 L30.542 786.994 L30.542 791.291 L25.9905 791.291 L25.9905 786.994 L15.869 786.994 L15.869 781.106 Z" fill="#000000" fill-rule="nonzero" fill-opacity="1" /><path clip-path="url(#clip440)" d="M25.9905 761.34 L25.9905 755.484 L61.6384 755.484 L61.6384 761.34 L25.9905 761.34 M12.1132 761.34 L12.1132 755.484 L19.5293 755.484 L19.5293 761.34 L12.1132 761.34 Z" fill="#000000" fill-rule="nonzero" fill-opacity="1" /><path clip-path="url(#clip440)" d="M30.0964 729.416 Q30.0964 734.127 33.7885 736.864 Q37.4488 739.601 43.8463 739.601 Q50.2438 739.601 53.9359 736.896 Q57.5962 734.159 57.5962 729.416 Q57.5962 724.737 53.9041 722 Q50.212 719.263 43.8463 719.263 Q37.5124 719.263 33.8203 722 Q30.0964 724.737 30.0964 729.416 M25.1311 729.416 Q25.1311 721.777 30.0964 717.417 Q35.0616 713.056 43.8463 713.056 Q52.5991 713.056 57.5962 717.417 Q62.5615 721.777 62.5615 729.416 Q62.5615 737.087 57.5962 741.447 Q52.5991 745.776 43.8463 745.776 Q35.0616 745.776 30.0964 741.447 Q25.1311 737.087 25.1311 729.416 Z" fill="#000000" fill-rule="nonzero" fill-opacity="1" /><path clip-path="url(#clip440)" d="M40.1224 673.716 L61.6384 673.716 L61.6384 679.573 L40.3133 679.573 Q35.2526 679.573 32.7381 681.546 Q30.2237 683.52 30.2237 687.466 Q30.2237 692.209 33.2474 694.946 Q36.2711 697.683 41.491 697.683 L61.6384 697.683 L61.6384 703.572 L25.9905 703.572 L25.9905 697.683 L31.5287 697.683 Q28.314 695.583 26.7225 692.75 Q25.1311 689.885 25.1311 686.161 Q25.1311 680.018 28.9505 676.867 Q32.7381 673.716 40.1224 673.716 Z" fill="#000000" fill-rule="nonzero" fill-opacity="1" /><path clip-path="url(#clip440)" d="M665.857 18.8205 L665.857 65.8515 L675.741 65.8515 Q688.258 65.8515 694.051 60.1802 Q699.884 54.509 699.884 42.2752 Q699.884 30.1225 694.051 24.4918 Q688.258 18.8205 675.741 18.8205 L665.857 18.8205 M657.674 12.096 L674.485 12.096 Q692.066 12.096 700.29 19.4281 Q708.513 26.7198 708.513 42.2752 Q708.513 57.9117 700.249 65.2439 Q691.985 72.576 674.485 72.576 L657.674 72.576 L657.674 12.096 Z" fill="#000000" fill-rule="nonzero" fill-opacity="1" /><path clip-path="url(#clip440)" d="M760.04 48.0275 L760.04 51.6733 L725.77 51.6733 Q726.256 59.3701 730.388 63.421 Q734.56 67.4314 741.973 67.4314 Q746.267 67.4314 750.278 66.3781 Q754.329 65.3249 758.298 63.2184 L758.298 70.267 Q754.288 71.9684 750.075 72.8596 Q745.862 73.7508 741.528 73.7508 Q730.671 73.7508 724.311 67.4314 Q717.992 61.1119 717.992 50.3365 Q717.992 39.1965 723.987 32.6746 Q730.023 26.1121 740.231 26.1121 Q749.387 26.1121 754.693 32.0264 Q760.04 37.9003 760.04 48.0275 M752.587 45.84 Q752.506 39.7232 749.143 36.0774 Q745.822 32.4315 740.312 32.4315 Q734.074 32.4315 730.307 35.9558 Q726.58 39.4801 726.013 45.8805 L752.587 45.84 Z" fill="#000000" fill-rule="nonzero" fill-opacity="1" /><path clip-path="url(#clip440)" d="M801.198 28.5427 L801.198 35.5912 Q798.038 33.9709 794.635 33.1607 Q791.232 32.3505 787.587 32.3505 Q782.037 32.3505 779.242 34.0519 Q776.487 35.7533 776.487 39.156 Q776.487 41.7486 778.472 43.2475 Q780.457 44.7058 786.452 46.0426 L789.004 46.6097 Q796.944 48.3111 800.266 51.4303 Q803.628 54.509 803.628 60.0587 Q803.628 66.3781 798.605 70.0644 Q793.622 73.7508 784.872 73.7508 Q781.227 73.7508 777.257 73.0216 Q773.327 72.3329 768.952 70.9151 L768.952 63.2184 Q773.084 65.3654 777.095 66.4591 Q781.105 67.5124 785.034 67.5124 Q790.301 67.5124 793.136 65.73 Q795.972 63.9071 795.972 60.6258 Q795.972 57.5877 793.906 55.9673 Q791.88 54.3469 784.953 52.8481 L782.361 52.2405 Q775.434 50.7821 772.355 47.7845 Q769.276 44.7463 769.276 39.4801 Q769.276 33.0797 773.813 29.5959 Q778.35 26.1121 786.695 26.1121 Q790.827 26.1121 794.473 26.7198 Q798.119 27.3274 801.198 28.5427 Z" fill="#000000" fill-rule="nonzero" fill-opacity="1" /><path clip-path="url(#clip440)" d="M854.305 48.0275 L854.305 51.6733 L820.034 51.6733 Q820.52 59.3701 824.652 63.421 Q828.825 67.4314 836.238 67.4314 Q840.532 67.4314 844.542 66.3781 Q848.593 65.3249 852.563 63.2184 L852.563 70.267 Q848.553 71.9684 844.34 72.8596 Q840.127 73.7508 835.792 73.7508 Q824.936 73.7508 818.576 67.4314 Q812.257 61.1119 812.257 50.3365 Q812.257 39.1965 818.252 32.6746 Q824.288 26.1121 834.496 26.1121 Q843.651 26.1121 848.958 32.0264 Q854.305 37.9003 854.305 48.0275 M846.851 45.84 Q846.77 39.7232 843.408 36.0774 Q840.086 32.4315 834.577 32.4315 Q828.339 32.4315 824.571 35.9558 Q820.844 39.4801 820.277 45.8805 L846.851 45.84 Z" fill="#000000" fill-rule="nonzero" fill-opacity="1" /><path clip-path="url(#clip440)" d="M892.829 34.1734 Q891.573 33.4443 890.074 33.1202 Q888.616 32.7556 886.834 32.7556 Q880.514 32.7556 877.112 36.8875 Q873.749 40.9789 873.749 48.6757 L873.749 72.576 L866.255 72.576 L866.255 27.2059 L873.749 27.2059 L873.749 34.2544 Q876.099 30.1225 879.866 28.1376 Q883.633 26.1121 889.021 26.1121 Q889.791 26.1121 890.723 26.2337 Q891.654 26.3147 892.789 26.5172 L892.829 34.1734 Z" fill="#000000" fill-rule="nonzero" fill-opacity="1" /><path clip-path="url(#clip440)" d="M908.02 14.324 L908.02 27.2059 L923.373 27.2059 L923.373 32.9987 L908.02 32.9987 L908.02 57.6282 Q908.02 63.1779 909.519 64.7578 Q911.058 66.3376 915.717 66.3376 L923.373 66.3376 L923.373 72.576 L915.717 72.576 Q907.088 72.576 903.807 69.3758 Q900.526 66.1351 900.526 57.6282 L900.526 32.9987 L895.057 32.9987 L895.057 27.2059 L900.526 27.2059 L900.526 14.324 L908.02 14.324 Z" fill="#000000" fill-rule="nonzero" fill-opacity="1" /><path clip-path="url(#clip440)" d="M966.92 14.324 L966.92 27.2059 L982.273 27.2059 L982.273 32.9987 L966.92 32.9987 L966.92 57.6282 Q966.92 63.1779 968.419 64.7578 Q969.958 66.3376 974.617 66.3376 L982.273 66.3376 L982.273 72.576 L974.617 72.576 Q965.988 72.576 962.707 69.3758 Q959.426 66.1351 959.426 57.6282 L959.426 32.9987 L953.957 32.9987 L953.957 27.2059 L959.426 27.2059 L959.426 14.324 L966.92 14.324 Z" fill="#000000" fill-rule="nonzero" fill-opacity="1" /><path clip-path="url(#clip440)" d="M1009.66 32.4315 Q1003.66 32.4315 1000.18 37.1306 Q996.694 41.7891 996.694 49.9314 Q996.694 58.0738 1000.14 62.7728 Q1003.62 67.4314 1009.66 67.4314 Q1015.61 67.4314 1019.1 62.7323 Q1022.58 58.0333 1022.58 49.9314 Q1022.58 41.8701 1019.1 37.1711 Q1015.61 32.4315 1009.66 32.4315 M1009.66 26.1121 Q1019.38 26.1121 1024.93 32.4315 Q1030.48 38.7509 1030.48 49.9314 Q1030.48 61.0714 1024.93 67.4314 Q1019.38 73.7508 1009.66 73.7508 Q999.894 73.7508 994.345 67.4314 Q988.835 61.0714 988.835 49.9314 Q988.835 38.7509 994.345 32.4315 Q999.894 26.1121 1009.66 26.1121 Z" fill="#000000" fill-rule="nonzero" fill-opacity="1" /><path clip-path="url(#clip440)" d="M1069.12 34.1734 Q1067.87 33.4443 1066.37 33.1202 Q1064.91 32.7556 1063.13 32.7556 Q1056.81 32.7556 1053.41 36.8875 Q1050.04 40.9789 1050.04 48.6757 L1050.04 72.576 L1042.55 72.576 L1042.55 27.2059 L1050.04 27.2059 L1050.04 34.2544 Q1052.39 30.1225 1056.16 28.1376 Q1059.93 26.1121 1065.32 26.1121 Q1066.09 26.1121 1067.02 26.2337 Q1067.95 26.3147 1069.08 26.5172 L1069.12 34.1734 Z" fill="#000000" fill-rule="nonzero" fill-opacity="1" /><path clip-path="url(#clip440)" d="M1084.32 14.324 L1084.32 27.2059 L1099.67 27.2059 L1099.67 32.9987 L1084.32 32.9987 L1084.32 57.6282 Q1084.32 63.1779 1085.81 64.7578 Q1087.35 66.3376 1092.01 66.3376 L1099.67 66.3376 L1099.67 72.576 L1092.01 72.576 Q1083.38 72.576 1080.1 69.3758 Q1076.82 66.1351 1076.82 57.6282 L1076.82 32.9987 L1071.35 32.9987 L1071.35 27.2059 L1076.82 27.2059 L1076.82 14.324 L1084.32 14.324 Z" fill="#000000" fill-rule="nonzero" fill-opacity="1" /><path clip-path="url(#clip440)" d="M1127.05 32.4315 Q1121.06 32.4315 1117.57 37.1306 Q1114.09 41.7891 1114.09 49.9314 Q1114.09 58.0738 1117.53 62.7728 Q1121.02 67.4314 1127.05 67.4314 Q1133.01 67.4314 1136.49 62.7323 Q1139.97 58.0333 1139.97 49.9314 Q1139.97 41.8701 1136.49 37.1711 Q1133.01 32.4315 1127.05 32.4315 M1127.05 26.1121 Q1136.77 26.1121 1142.32 32.4315 Q1147.87 38.7509 1147.87 49.9314 Q1147.87 61.0714 1142.32 67.4314 Q1136.77 73.7508 1127.05 73.7508 Q1117.29 73.7508 1111.74 67.4314 Q1106.23 61.0714 1106.23 49.9314 Q1106.23 38.7509 1111.74 32.4315 Q1117.29 26.1121 1127.05 26.1121 Z" fill="#000000" fill-rule="nonzero" fill-opacity="1" /><path clip-path="url(#clip440)" d="M1160.23 27.2059 L1167.68 27.2059 L1167.68 72.576 L1160.23 72.576 L1160.23 27.2059 M1160.23 9.54393 L1167.68 9.54393 L1167.68 18.9825 L1160.23 18.9825 L1160.23 9.54393 Z" fill="#000000" fill-rule="nonzero" fill-opacity="1" /><path clip-path="url(#clip440)" d="M1212.2 28.5427 L1212.2 35.5912 Q1209.04 33.9709 1205.64 33.1607 Q1202.24 32.3505 1198.59 32.3505 Q1193.04 32.3505 1190.25 34.0519 Q1187.49 35.7533 1187.49 39.156 Q1187.49 41.7486 1189.48 43.2475 Q1191.46 44.7058 1197.46 46.0426 L1200.01 46.6097 Q1207.95 48.3111 1211.27 51.4303 Q1214.63 54.509 1214.63 60.0587 Q1214.63 66.3781 1209.61 70.0644 Q1204.63 73.7508 1195.88 73.7508 Q1192.23 73.7508 1188.26 73.0216 Q1184.33 72.3329 1179.96 70.9151 L1179.96 63.2184 Q1184.09 65.3654 1188.1 66.4591 Q1192.11 67.5124 1196.04 67.5124 Q1201.31 67.5124 1204.14 65.73 Q1206.98 63.9071 1206.98 60.6258 Q1206.98 57.5877 1204.91 55.9673 Q1202.89 54.3469 1195.96 52.8481 L1193.37 52.2405 Q1186.44 50.7821 1183.36 47.7845 Q1180.28 44.7463 1180.28 39.4801 Q1180.28 33.0797 1184.82 29.5959 Q1189.36 26.1121 1197.7 26.1121 Q1201.83 26.1121 1205.48 26.7198 Q1209.12 27.3274 1212.2 28.5427 Z" fill="#000000" fill-rule="nonzero" fill-opacity="1" /><path clip-path="url(#clip440)" d="M1265.31 48.0275 L1265.31 51.6733 L1231.04 51.6733 Q1231.53 59.3701 1235.66 63.421 Q1239.83 67.4314 1247.24 67.4314 Q1251.54 67.4314 1255.55 66.3781 Q1259.6 65.3249 1263.57 63.2184 L1263.57 70.267 Q1259.56 71.9684 1255.34 72.8596 Q1251.13 73.7508 1246.8 73.7508 Q1235.94 73.7508 1229.58 67.4314 Q1223.26 61.1119 1223.26 50.3365 Q1223.26 39.1965 1229.26 32.6746 Q1235.29 26.1121 1245.5 26.1121 Q1254.66 26.1121 1259.96 32.0264 Q1265.31 37.9003 1265.31 48.0275 M1257.86 45.84 Q1257.77 39.7232 1254.41 36.0774 Q1251.09 32.4315 1245.58 32.4315 Q1239.34 32.4315 1235.58 35.9558 Q1231.85 39.4801 1231.28 45.8805 L1257.86 45.84 Z" fill="#000000" fill-rule="nonzero" fill-opacity="1" /><path clip-path="url(#clip440)" d="M1300.15 46.9338 L1375.01 46.9338 L1375.01 52.7671 L1300.15 52.7671 L1300.15 46.9338 Z" fill="#000000" fill-rule="nonzero" fill-opacity="1" /><path clip-path="url(#clip440)" d="M1415.72 65.6895 L1429.09 65.6895 L1429.09 19.5497 L1414.54 22.4663 L1414.54 15.0127 L1429.01 12.096 L1437.19 12.096 L1437.19 65.6895 L1450.56 65.6895 L1450.56 72.576 L1415.72 72.576 L1415.72 65.6895 Z" fill="#000000" fill-rule="nonzero" fill-opacity="1" /><path clip-path="url(#clip440)" d="M1484.59 17.4837 Q1478.27 17.4837 1475.07 23.7221 Q1471.91 29.92 1471.91 42.3968 Q1471.91 54.833 1475.07 61.0714 Q1478.27 67.2693 1484.59 67.2693 Q1490.95 67.2693 1494.1 61.0714 Q1497.3 54.833 1497.3 42.3968 Q1497.3 29.92 1494.1 23.7221 Q1490.95 17.4837 1484.59 17.4837 M1484.59 11.0023 Q1494.75 11.0023 1500.1 19.0636 Q1505.49 27.0843 1505.49 42.3968 Q1505.49 57.6687 1500.1 65.73 Q1494.75 73.7508 1484.59 73.7508 Q1474.42 73.7508 1469.03 65.73 Q1463.68 57.6687 1463.68 42.3968 Q1463.68 27.0843 1469.03 19.0636 Q1474.42 11.0023 1484.59 11.0023 Z" fill="#000000" fill-rule="nonzero" fill-opacity="1" /><path clip-path="url(#clip440)" d="M1537.37 17.4837 Q1531.05 17.4837 1527.85 23.7221 Q1524.69 29.92 1524.69 42.3968 Q1524.69 54.833 1527.85 61.0714 Q1531.05 67.2693 1537.37 67.2693 Q1543.73 67.2693 1546.89 61.0714 Q1550.09 54.833 1550.09 42.3968 Q1550.09 29.92 1546.89 23.7221 Q1543.73 17.4837 1537.37 17.4837 M1537.37 11.0023 Q1547.54 11.0023 1552.88 19.0636 Q1558.27 27.0843 1558.27 42.3968 Q1558.27 57.6687 1552.88 65.73 Q1547.54 73.7508 1537.37 73.7508 Q1527.2 73.7508 1521.81 65.73 Q1516.47 57.6687 1516.47 42.3968 Q1516.47 27.0843 1521.81 19.0636 Q1527.2 11.0023 1537.37 11.0023 Z" fill="#000000" fill-rule="nonzero" fill-opacity="1" /><path clip-path="url(#clip440)" d="M1567.83 46.5287 L1589.67 46.5287 L1589.67 53.1722 L1567.83 53.1722 L1567.83 46.5287 Z" fill="#000000" fill-rule="nonzero" fill-opacity="1" /><path clip-path="url(#clip440)" d="M1618.95 76.7889 Q1615.79 84.8907 1612.8 87.3618 Q1609.8 89.8329 1604.78 89.8329 L1598.82 89.8329 L1598.82 83.5945 L1603.2 83.5945 Q1606.27 83.5945 1607.98 82.1361 Q1609.68 80.6778 1611.74 75.2496 L1613.08 71.8468 L1594.73 27.2059 L1602.63 27.2059 L1616.81 62.6918 L1630.98 27.2059 L1638.88 27.2059 L1618.95 76.7889 Z" fill="#000000" fill-rule="nonzero" fill-opacity="1" /><path clip-path="url(#clip440)" d="M1687.98 48.0275 L1687.98 51.6733 L1653.71 51.6733 Q1654.2 59.3701 1658.33 63.421 Q1662.5 67.4314 1669.91 67.4314 Q1674.21 67.4314 1678.22 66.3781 Q1682.27 65.3249 1686.24 63.2184 L1686.24 70.267 Q1682.23 71.9684 1678.02 72.8596 Q1673.8 73.7508 1669.47 73.7508 Q1658.61 73.7508 1652.25 67.4314 Q1645.93 61.1119 1645.93 50.3365 Q1645.93 39.1965 1651.93 32.6746 Q1657.96 26.1121 1668.17 26.1121 Q1677.33 26.1121 1682.63 32.0264 Q1687.98 37.9003 1687.98 48.0275 M1680.53 45.84 Q1680.45 39.7232 1677.08 36.0774 Q1673.76 32.4315 1668.25 32.4315 Q1662.01 32.4315 1658.25 35.9558 Q1654.52 39.4801 1653.95 45.8805 L1680.53 45.84 Z" fill="#000000" fill-rule="nonzero" fill-opacity="1" /><path clip-path="url(#clip440)" d="M1720.83 49.7694 Q1711.8 49.7694 1708.32 51.8354 Q1704.83 53.9013 1704.83 58.8839 Q1704.83 62.8538 1707.43 65.2034 Q1710.06 67.5124 1714.55 67.5124 Q1720.75 67.5124 1724.48 63.1374 Q1728.25 58.7219 1728.25 51.4303 L1728.25 49.7694 L1720.83 49.7694 M1735.7 46.6907 L1735.7 72.576 L1728.25 72.576 L1728.25 65.6895 Q1725.69 69.8214 1721.89 71.8063 Q1718.08 73.7508 1712.57 73.7508 Q1705.6 73.7508 1701.47 69.8619 Q1697.38 65.9325 1697.38 59.3701 Q1697.38 51.7138 1702.48 47.825 Q1707.63 43.9361 1717.8 43.9361 L1728.25 43.9361 L1728.25 43.2069 Q1728.25 38.0623 1724.84 35.2672 Q1721.48 32.4315 1715.37 32.4315 Q1711.48 32.4315 1707.79 33.3632 Q1704.1 34.295 1700.7 36.1584 L1700.7 29.2718 Q1704.79 27.692 1708.64 26.9223 Q1712.49 26.1121 1716.13 26.1121 Q1725.98 26.1121 1730.84 31.2163 Q1735.7 36.3204 1735.7 46.6907 Z" fill="#000000" fill-rule="nonzero" fill-opacity="1" /><path clip-path="url(#clip440)" d="M1777.34 34.1734 Q1776.09 33.4443 1774.59 33.1202 Q1773.13 32.7556 1771.35 32.7556 Q1765.03 32.7556 1761.63 36.8875 Q1758.26 40.9789 1758.26 48.6757 L1758.26 72.576 L1750.77 72.576 L1750.77 27.2059 L1758.26 27.2059 L1758.26 34.2544 Q1760.61 30.1225 1764.38 28.1376 Q1768.15 26.1121 1773.54 26.1121 Q1774.31 26.1121 1775.24 26.2337 Q1776.17 26.3147 1777.3 26.5172 L1777.34 34.1734 Z" fill="#000000" fill-rule="nonzero" fill-opacity="1" /><path clip-path="url(#clip440)" d="M1818.74 65.7705 L1818.74 89.8329 L1811.25 89.8329 L1811.25 27.2059 L1818.74 27.2059 L1818.74 34.0924 Q1821.09 30.0415 1824.66 28.0971 Q1828.26 26.1121 1833.25 26.1121 Q1841.51 26.1121 1846.65 32.6746 Q1851.84 39.2371 1851.84 49.9314 Q1851.84 60.6258 1846.65 67.1883 Q1841.51 73.7508 1833.25 73.7508 Q1828.26 73.7508 1824.66 71.8063 Q1821.09 69.8214 1818.74 65.7705 M1844.1 49.9314 Q1844.1 41.7081 1840.7 37.0496 Q1837.34 32.3505 1831.42 32.3505 Q1825.51 32.3505 1822.11 37.0496 Q1818.74 41.7081 1818.74 49.9314 Q1818.74 58.1548 1822.11 62.8538 Q1825.51 67.5124 1831.42 67.5124 Q1837.34 67.5124 1840.7 62.8538 Q1844.1 58.1548 1844.1 49.9314 Z" fill="#000000" fill-rule="nonzero" fill-opacity="1" /><path clip-path="url(#clip440)" d="M1890.49 34.1734 Q1889.23 33.4443 1887.73 33.1202 Q1886.27 32.7556 1884.49 32.7556 Q1878.17 32.7556 1874.77 36.8875 Q1871.41 40.9789 1871.41 48.6757 L1871.41 72.576 L1863.91 72.576 L1863.91 27.2059 L1871.41 27.2059 L1871.41 34.2544 Q1873.76 30.1225 1877.52 28.1376 Q1881.29 26.1121 1886.68 26.1121 Q1887.45 26.1121 1888.38 26.2337 Q1889.31 26.3147 1890.45 26.5172 L1890.49 34.1734 Z" fill="#000000" fill-rule="nonzero" fill-opacity="1" /><path clip-path="url(#clip440)" d="M1914.06 32.4315 Q1908.07 32.4315 1904.58 37.1306 Q1901.1 41.7891 1901.1 49.9314 Q1901.1 58.0738 1904.54 62.7728 Q1908.03 67.4314 1914.06 67.4314 Q1920.02 67.4314 1923.5 62.7323 Q1926.98 58.0333 1926.98 49.9314 Q1926.98 41.8701 1923.5 37.1711 Q1920.02 32.4315 1914.06 32.4315 M1914.06 26.1121 Q1923.78 26.1121 1929.33 32.4315 Q1934.88 38.7509 1934.88 49.9314 Q1934.88 61.0714 1929.33 67.4314 Q1923.78 73.7508 1914.06 73.7508 Q1904.3 73.7508 1898.75 67.4314 Q1893.24 61.0714 1893.24 49.9314 Q1893.24 38.7509 1898.75 32.4315 Q1904.3 26.1121 1914.06 26.1121 Z" fill="#000000" fill-rule="nonzero" fill-opacity="1" /><path clip-path="url(#clip440)" d="M1947.24 27.2059 L1954.69 27.2059 L1954.69 73.3862 Q1954.69 82.0551 1951.37 85.944 Q1948.09 89.8329 1940.76 89.8329 L1937.92 89.8329 L1937.92 83.5134 L1939.91 83.5134 Q1944.16 83.5134 1945.7 81.5285 Q1947.24 79.5841 1947.24 73.3862 L1947.24 27.2059 M1947.24 9.54393 L1954.69 9.54393 L1954.69 18.9825 L1947.24 18.9825 L1947.24 9.54393 Z" fill="#000000" fill-rule="nonzero" fill-opacity="1" /><path clip-path="url(#clip440)" d="M2009.1 48.0275 L2009.1 51.6733 L1974.83 51.6733 Q1975.31 59.3701 1979.44 63.421 Q1983.62 67.4314 1991.03 67.4314 Q1995.32 67.4314 1999.33 66.3781 Q2003.38 65.3249 2007.35 63.2184 L2007.35 70.267 Q2003.34 71.9684 1999.13 72.8596 Q1994.92 73.7508 1990.58 73.7508 Q1979.73 73.7508 1973.37 67.4314 Q1967.05 61.1119 1967.05 50.3365 Q1967.05 39.1965 1973.04 32.6746 Q1979.08 26.1121 1989.29 26.1121 Q1998.44 26.1121 2003.75 32.0264 Q2009.1 37.9003 2009.1 48.0275 M2001.64 45.84 Q2001.56 39.7232 1998.2 36.0774 Q1994.88 32.4315 1989.37 32.4315 Q1983.13 32.4315 1979.36 35.9558 Q1975.64 39.4801 1975.07 45.8805 L2001.64 45.84 Z" fill="#000000" fill-rule="nonzero" fill-opacity="1" /><path clip-path="url(#clip440)" d="M2053.98 28.9478 L2053.98 35.9153 Q2050.82 34.1734 2047.62 33.3227 Q2044.46 32.4315 2041.22 32.4315 Q2033.97 32.4315 2029.96 37.0496 Q2025.95 41.6271 2025.95 49.9314 Q2025.95 58.2358 2029.96 62.8538 Q2033.97 67.4314 2041.22 67.4314 Q2044.46 67.4314 2047.62 66.5807 Q2050.82 65.6895 2053.98 63.9476 L2053.98 70.8341 Q2050.86 72.2924 2047.5 73.0216 Q2044.18 73.7508 2040.41 73.7508 Q2030.16 73.7508 2024.13 67.3098 Q2018.09 60.8689 2018.09 49.9314 Q2018.09 38.832 2024.17 32.472 Q2030.28 26.1121 2040.9 26.1121 Q2044.34 26.1121 2047.62 26.8413 Q2050.9 27.5299 2053.98 28.9478 Z" fill="#000000" fill-rule="nonzero" fill-opacity="1" /><path clip-path="url(#clip440)" d="M2074.32 14.324 L2074.32 27.2059 L2089.67 27.2059 L2089.67 32.9987 L2074.32 32.9987 L2074.32 57.6282 Q2074.32 63.1779 2075.81 64.7578 Q2077.35 66.3376 2082.01 66.3376 L2089.67 66.3376 L2089.67 72.576 L2082.01 72.576 Q2073.38 72.576 2070.1 69.3758 Q2066.82 66.1351 2066.82 57.6282 L2066.82 32.9987 L2061.35 32.9987 L2061.35 27.2059 L2066.82 27.2059 L2066.82 14.324 L2074.32 14.324 Z" fill="#000000" fill-rule="nonzero" fill-opacity="1" /><path clip-path="url(#clip440)" d="M2099.47 27.2059 L2106.93 27.2059 L2106.93 72.576 L2099.47 72.576 L2099.47 27.2059 M2099.47 9.54393 L2106.93 9.54393 L2106.93 18.9825 L2099.47 18.9825 L2099.47 9.54393 Z" fill="#000000" fill-rule="nonzero" fill-opacity="1" /><path clip-path="url(#clip440)" d="M2140.1 32.4315 Q2134.11 32.4315 2130.62 37.1306 Q2127.14 41.7891 2127.14 49.9314 Q2127.14 58.0738 2130.58 62.7728 Q2134.07 67.4314 2140.1 67.4314 Q2146.06 67.4314 2149.54 62.7323 Q2153.02 58.0333 2153.02 49.9314 Q2153.02 41.8701 2149.54 37.1711 Q2146.06 32.4315 2140.1 32.4315 M2140.1 26.1121 Q2149.82 26.1121 2155.37 32.4315 Q2160.92 38.7509 2160.92 49.9314 Q2160.92 61.0714 2155.37 67.4314 Q2149.82 73.7508 2140.1 73.7508 Q2130.34 73.7508 2124.79 67.4314 Q2119.28 61.0714 2119.28 49.9314 Q2119.28 38.7509 2124.79 32.4315 Q2130.34 26.1121 2140.1 26.1121 Z" fill="#000000" fill-rule="nonzero" fill-opacity="1" /><path clip-path="url(#clip440)" d="M2210.99 45.1919 L2210.99 72.576 L2203.54 72.576 L2203.54 45.4349 Q2203.54 38.994 2201.03 35.7938 Q2198.52 32.5936 2193.49 32.5936 Q2187.46 32.5936 2183.97 36.4419 Q2180.49 40.2903 2180.49 46.9338 L2180.49 72.576 L2173 72.576 L2173 27.2059 L2180.49 27.2059 L2180.49 34.2544 Q2183.16 30.163 2186.77 28.1376 Q2190.41 26.1121 2195.15 26.1121 Q2202.97 26.1121 2206.98 30.9732 Q2210.99 35.7938 2210.99 45.1919 Z" fill="#000000" fill-rule="nonzero" fill-opacity="1" /><polyline clip-path="url(#clip441)" style="stroke:#009af9; stroke-linecap:round; stroke-linejoin:round; stroke-width:8; stroke-opacity:1; fill:none" points="296.199,173.254 318.962,221.345 341.725,260.742 364.487,292.487 387.25,317.852 410.013,337.731 432.776,353.405 455.538,366.389 478.301,378.06 501.064,389.44 523.826,401.157 546.589,413.505 569.352,426.547 592.114,440.204 614.877,454.331 637.64,468.767 660.402,483.368 683.165,498.022 705.928,512.655 728.69,527.226 751.453,541.722 774.216,556.148 796.978,570.517 819.741,584.849 842.504,599.159 865.267,613.461 888.029,627.764 910.792,642.073 933.555,656.391 956.317,670.716 979.08,685.048 1001.84,699.385 1024.61,713.725 1047.37,728.066 1070.13,742.407 1092.89,756.747 1115.66,771.086 1138.42,785.425 1161.18,799.762 1183.94,814.1 1206.71,828.436 1229.47,842.773 1252.23,857.109 1274.99,871.446 1297.76,885.783 1320.52,900.12 1343.28,914.457 1366.05,928.794 1388.81,943.131 1411.57,957.468 1434.33,971.805 1457.1,986.142 1479.86,1000.48 1502.62,1014.82 1525.38,1029.15 1548.15,1043.49 1570.91,1057.83 1593.67,1072.16 1616.44,1086.5 1639.2,1100.84 1661.96,1115.17 1684.72,1129.51 1707.49,1143.85 1730.25,1158.19 1753.01,1172.52 1775.77,1186.86 1798.54,1201.2 1821.3,1215.53 1844.06,1229.87 1866.82,1244.21 1889.59,1258.54 1912.35,1272.88 1935.11,1287.22 1957.88,1301.56 1980.64,1315.89 2003.4,1330.23 2026.16,1344.57 2048.93,1358.9 2071.69,1373.24 2094.45,1387.58 2117.21,1401.91 2139.98,1416.25 2162.74,1430.59 2185.5,1444.93 2208.26,1459.26 2231.03,1473.6 2253.79,1487.94 2276.55,1502.27 2299.32,1516.61 2322.08,1530.95 2344.84,1545.28 2367.6,1559.62 2390.37,1573.96 2413.13,1588.3 2435.89,1602.63 2458.65,1616.97 2481.42,1631.31 2504.18,1645.64 2526.94,1659.98 2549.71,1674.32 2572.47,1688.65 "/>
<path clip-path="url(#clip440)" d="M2236.73 285.016 L2560.33 285.016 L2560.33 181.336 L2236.73 181.336  Z" fill="#ffffff" fill-rule="evenodd" fill-opacity="1"/>
<polyline clip-path="url(#clip440)" style="stroke:#000000; stroke-linecap:round; stroke-linejoin:round; stroke-width:4; stroke-opacity:1; fill:none" points="2236.73,285.016 2560.33,285.016 2560.33,181.336 2236.73,181.336 2236.73,285.016 "/>
<polyline clip-path="url(#clip440)" style="stroke:#009af9; stroke-linecap:round; stroke-linejoin:round; stroke-width:8; stroke-opacity:1; fill:none" points="2263.54,233.176 2424.39,233.176 "/>
<path clip-path="url(#clip440)" d="M2451.2 215.896 L2457.5 215.896 L2472.82 244.808 L2472.82 215.896 L2477.36 215.896 L2477.36 250.456 L2471.07 250.456 L2455.74 221.544 L2455.74 250.456 L2451.2 250.456 L2451.2 215.896 Z" fill="#000000" fill-rule="nonzero" fill-opacity="1" /><path clip-path="url(#clip440)" d="M2496.71 214.484 Q2493.61 219.808 2492.11 225.017 Q2490.6 230.225 2490.6 235.572 Q2490.6 240.919 2492.11 246.174 Q2493.63 251.405 2496.71 256.706 L2493.01 256.706 Q2489.54 251.266 2487.8 246.012 Q2486.09 240.757 2486.09 235.572 Q2486.09 230.41 2487.8 225.179 Q2489.51 219.947 2493.01 214.484 L2496.71 214.484 Z" fill="#000000" fill-rule="nonzero" fill-opacity="1" /><path clip-path="url(#clip440)" d="M2509.19 217.169 L2509.19 224.531 L2517.96 224.531 L2517.96 227.841 L2509.19 227.841 L2509.19 241.915 Q2509.19 245.086 2510.05 245.989 Q2510.93 246.891 2513.59 246.891 L2517.96 246.891 L2517.96 250.456 L2513.59 250.456 Q2508.66 250.456 2506.78 248.628 Q2504.91 246.776 2504.91 241.915 L2504.91 227.841 L2501.78 227.841 L2501.78 224.531 L2504.91 224.531 L2504.91 217.169 L2509.19 217.169 Z" fill="#000000" fill-rule="nonzero" fill-opacity="1" /><path clip-path="url(#clip440)" d="M2522.89 214.484 L2526.6 214.484 Q2530.07 219.947 2531.78 225.179 Q2533.52 230.41 2533.52 235.572 Q2533.52 240.757 2531.78 246.012 Q2530.07 251.266 2526.6 256.706 L2522.89 256.706 Q2525.97 251.405 2527.48 246.174 Q2529 240.919 2529 235.572 Q2529 230.225 2527.48 225.017 Q2525.97 219.808 2522.89 214.484 Z" fill="#000000" fill-rule="nonzero" fill-opacity="1" /></svg>
