<?xml version="1.0" encoding="utf-8"?>
<svg xmlns="http://www.w3.org/2000/svg" xmlns:xlink="http://www.w3.org/1999/xlink" width="672" height="480" viewBox="0 0 2688 1920">
<defs>
  <clipPath id="clip470">
    <rect x="0" y="0" width="2688" height="1920"/>
  </clipPath>
</defs>
<path clip-path="url(#clip470)" d="M0 1920 L2688 1920 L2688 -4.26326e-14 L0 -4.26326e-14  Z" fill="#ffffff" fill-rule="evenodd" fill-opacity="1"/>
<defs>
  <clipPath id="clip471">
    <rect x="225" y="127" width="2416" height="1607"/>
  </clipPath>
</defs>
<path clip-path="url(#clip470)" d="M225.562 1734.12 L2640.76 1734.12 L2640.76 127.792 L225.562 127.792  Z" fill="#ffffff" fill-rule="evenodd" fill-opacity="1"/>
<polyline clip-path="url(#clip471)" style="stroke:#000000; stroke-linecap:round; stroke-linejoin:round; stroke-width:2; stroke-opacity:0.1; fill:none" points="608.19,1734.12 608.19,127.792 "/>
<polyline clip-path="url(#clip471)" style="stroke:#000000; stroke-linecap:round; stroke-linejoin:round; stroke-width:2; stroke-opacity:0.1; fill:none" points="1001.03,1734.12 1001.03,127.792 "/>
<polyline clip-path="url(#clip471)" style="stroke:#000000; stroke-linecap:round; stroke-linejoin:round; stroke-width:2; stroke-opacity:0.1; fill:none" points="1393.87,1734.12 1393.87,127.792 "/>
<polyline clip-path="url(#clip471)" style="stroke:#000000; stroke-linecap:round; stroke-linejoin:round; stroke-width:2; stroke-opacity:0.1; fill:none" points="1786.72,1734.12 1786.72,127.792 "/>
<polyline clip-path="url(#clip471)" style="stroke:#000000; stroke-linecap:round; stroke-linejoin:round; stroke-width:2; stroke-opacity:0.1; fill:none" points="2179.56,1734.12 2179.56,127.792 "/>
<polyline clip-path="url(#clip471)" style="stroke:#000000; stroke-linecap:round; stroke-linejoin:round; stroke-width:2; stroke-opacity:0.1; fill:none" points="2572.4,1734.12 2572.4,127.792 "/>
<polyline clip-path="url(#clip471)" style="stroke:#000000; stroke-linecap:round; stroke-linejoin:round; stroke-width:2; stroke-opacity:0.1; fill:none" points="225.562,1597.8 2640.76,1597.8 "/>
<polyline clip-path="url(#clip471)" style="stroke:#000000; stroke-linecap:round; stroke-linejoin:round; stroke-width:2; stroke-opacity:0.1; fill:none" points="225.562,1381.46 2640.76,1381.46 "/>
<polyline clip-path="url(#clip471)" style="stroke:#000000; stroke-linecap:round; stroke-linejoin:round; stroke-width:2; stroke-opacity:0.1; fill:none" points="225.562,1165.13 2640.76,1165.13 "/>
<polyline clip-path="url(#clip471)" style="stroke:#000000; stroke-linecap:round; stroke-linejoin:round; stroke-width:2; stroke-opacity:0.1; fill:none" points="225.562,948.802 2640.76,948.802 "/>
<polyline clip-path="url(#clip471)" style="stroke:#000000; stroke-linecap:round; stroke-linejoin:round; stroke-width:2; stroke-opacity:0.1; fill:none" points="225.562,732.471 2640.76,732.471 "/>
<polyline clip-path="url(#clip471)" style="stroke:#000000; stroke-linecap:round; stroke-linejoin:round; stroke-width:2; stroke-opacity:0.1; fill:none" points="225.562,516.139 2640.76,516.139 "/>
<polyline clip-path="url(#clip471)" style="stroke:#000000; stroke-linecap:round; stroke-linejoin:round; stroke-width:2; stroke-opacity:0.1; fill:none" points="225.562,299.808 2640.76,299.808 "/>
<polyline clip-path="url(#clip470)" style="stroke:#000000; stroke-linecap:round; stroke-linejoin:round; stroke-width:4; stroke-opacity:1; fill:none" points="225.562,1734.12 2640.76,1734.12 "/>
<polyline clip-path="url(#clip470)" style="stroke:#000000; stroke-linecap:round; stroke-linejoin:round; stroke-width:4; stroke-opacity:1; fill:none" points="608.19,1734.12 608.19,1715.22 "/>
<polyline clip-path="url(#clip470)" style="stroke:#000000; stroke-linecap:round; stroke-linejoin:round; stroke-width:4; stroke-opacity:1; fill:none" points="1001.03,1734.12 1001.03,1715.22 "/>
<polyline clip-path="url(#clip470)" style="stroke:#000000; stroke-linecap:round; stroke-linejoin:round; stroke-width:4; stroke-opacity:1; fill:none" points="1393.87,1734.12 1393.87,1715.22 "/>
<polyline clip-path="url(#clip470)" style="stroke:#000000; stroke-linecap:round; stroke-linejoin:round; stroke-width:4; stroke-opacity:1; fill:none" points="1786.72,1734.12 1786.72,1715.22 "/>
<polyline clip-path="url(#clip470)" style="stroke:#000000; stroke-linecap:round; stroke-linejoin:round; stroke-width:4; stroke-opacity:1; fill:none" points="2179.56,1734.12 2179.56,1715.22 "/>
<polyline clip-path="url(#clip470)" style="stroke:#000000; stroke-linecap:round; stroke-linejoin:round; stroke-width:4; stroke-opacity:1; fill:none" points="2572.4,1734.12 2572.4,1715.22 "/>
<path clip-path="url(#clip470)" d="M598.468 1764.26 L616.824 1764.26 L616.824 1768.2 L602.75 1768.2 L602.75 1776.67 Q603.769 1776.32 604.787 1776.16 Q605.806 1775.97 606.824 1775.97 Q612.611 1775.97 615.991 1779.15 Q619.371 1782.32 619.371 1787.73 Q619.371 1793.31 615.898 1796.41 Q612.426 1799.49 606.107 1799.49 Q603.931 1799.49 601.662 1799.12 Q599.417 1798.75 597.01 1798.01 L597.01 1793.31 Q599.093 1794.45 601.315 1795 Q603.537 1795.56 606.014 1795.56 Q610.019 1795.56 612.357 1793.45 Q614.695 1791.34 614.695 1787.73 Q614.695 1784.12 612.357 1782.02 Q610.019 1779.91 606.014 1779.91 Q604.139 1779.91 602.264 1780.33 Q600.412 1780.74 598.468 1781.62 L598.468 1764.26 Z" fill="#000000" fill-rule="nonzero" fill-opacity="1" /><path clip-path="url(#clip470)" d="M975.72 1794.89 L983.359 1794.89 L983.359 1768.52 L975.049 1770.19 L975.049 1765.93 L983.313 1764.26 L987.989 1764.26 L987.989 1794.89 L995.627 1794.89 L995.627 1798.82 L975.72 1798.82 L975.72 1794.89 Z" fill="#000000" fill-rule="nonzero" fill-opacity="1" /><path clip-path="url(#clip470)" d="M1015.07 1767.34 Q1011.46 1767.34 1009.63 1770.9 Q1007.83 1774.45 1007.83 1781.58 Q1007.83 1788.68 1009.63 1792.25 Q1011.46 1795.79 1015.07 1795.79 Q1018.71 1795.79 1020.51 1792.25 Q1022.34 1788.68 1022.34 1781.58 Q1022.34 1774.45 1020.51 1770.9 Q1018.71 1767.34 1015.07 1767.34 M1015.07 1763.64 Q1020.88 1763.64 1023.94 1768.24 Q1027.02 1772.83 1027.02 1781.58 Q1027.02 1790.3 1023.94 1794.91 Q1020.88 1799.49 1015.07 1799.49 Q1009.26 1799.49 1006.18 1794.91 Q1003.13 1790.3 1003.13 1781.58 Q1003.13 1772.83 1006.18 1768.24 Q1009.26 1763.64 1015.07 1763.64 Z" fill="#000000" fill-rule="nonzero" fill-opacity="1" /><path clip-path="url(#clip470)" d="M1369.06 1794.89 L1376.7 1794.89 L1376.7 1768.52 L1368.39 1770.19 L1368.39 1765.93 L1376.65 1764.26 L1381.33 1764.26 L1381.33 1794.89 L1388.97 1794.89 L1388.97 1798.82 L1369.06 1798.82 L1369.06 1794.89 Z" fill="#000000" fill-rule="nonzero" fill-opacity="1" /><path clip-path="url(#clip470)" d="M1398.46 1764.26 L1416.81 1764.26 L1416.81 1768.2 L1402.74 1768.2 L1402.74 1776.67 Q1403.76 1776.32 1404.78 1776.16 Q1405.8 1775.97 1406.81 1775.97 Q1412.6 1775.97 1415.98 1779.15 Q1419.36 1782.32 1419.36 1787.73 Q1419.36 1793.31 1415.89 1796.41 Q1412.42 1799.49 1406.1 1799.49 Q1403.92 1799.49 1401.65 1799.12 Q1399.41 1798.75 1397 1798.01 L1397 1793.31 Q1399.08 1794.45 1401.31 1795 Q1403.53 1795.56 1406 1795.56 Q1410.01 1795.56 1412.35 1793.45 Q1414.68 1791.34 1414.68 1787.73 Q1414.68 1784.12 1412.35 1782.02 Q1410.01 1779.91 1406 1779.91 Q1404.13 1779.91 1402.25 1780.33 Q1400.4 1780.74 1398.46 1781.62 L1398.46 1764.26 Z" fill="#000000" fill-rule="nonzero" fill-opacity="1" /><path clip-path="url(#clip470)" d="M1765.49 1794.89 L1781.81 1794.89 L1781.81 1798.82 L1759.87 1798.82 L1759.87 1794.89 Q1762.53 1792.13 1767.11 1787.5 Q1771.72 1782.85 1772.9 1781.51 Q1775.14 1778.98 1776.02 1777.25 Q1776.93 1775.49 1776.93 1773.8 Q1776.93 1771.04 1774.98 1769.31 Q1773.06 1767.57 1769.96 1767.57 Q1767.76 1767.57 1765.3 1768.34 Q1762.87 1769.1 1760.1 1770.65 L1760.1 1765.93 Q1762.92 1764.79 1765.37 1764.21 Q1767.83 1763.64 1769.87 1763.64 Q1775.24 1763.64 1778.43 1766.32 Q1781.62 1769.01 1781.62 1773.5 Q1781.62 1775.63 1780.81 1777.55 Q1780.03 1779.45 1777.92 1782.04 Q1777.34 1782.71 1774.24 1785.93 Q1771.14 1789.12 1765.49 1794.89 Z" fill="#000000" fill-rule="nonzero" fill-opacity="1" /><path clip-path="url(#clip470)" d="M1801.62 1767.34 Q1798.01 1767.34 1796.18 1770.9 Q1794.38 1774.45 1794.38 1781.58 Q1794.38 1788.68 1796.18 1792.25 Q1798.01 1795.79 1801.62 1795.79 Q1805.26 1795.79 1807.06 1792.25 Q1808.89 1788.68 1808.89 1781.58 Q1808.89 1774.45 1807.06 1770.9 Q1805.26 1767.34 1801.62 1767.34 M1801.62 1763.64 Q1807.43 1763.64 1810.49 1768.24 Q1813.57 1772.83 1813.57 1781.58 Q1813.57 1790.3 1810.49 1794.91 Q1807.43 1799.49 1801.62 1799.49 Q1795.81 1799.49 1792.74 1794.91 Q1789.68 1790.3 1789.68 1781.58 Q1789.68 1772.83 1792.74 1768.24 Q1795.81 1763.64 1801.62 1763.64 Z" fill="#000000" fill-rule="nonzero" fill-opacity="1" /><path clip-path="url(#clip470)" d="M2158.83 1794.89 L2175.15 1794.89 L2175.15 1798.82 L2153.21 1798.82 L2153.21 1794.89 Q2155.87 1792.13 2160.45 1787.5 Q2165.06 1782.85 2166.24 1781.51 Q2168.48 1778.98 2169.36 1777.25 Q2170.27 1775.49 2170.27 1773.8 Q2170.27 1771.04 2168.32 1769.31 Q2166.4 1767.57 2163.3 1767.57 Q2161.1 1767.57 2158.64 1768.34 Q2156.21 1769.1 2153.44 1770.65 L2153.44 1765.93 Q2156.26 1764.79 2158.71 1764.21 Q2161.17 1763.64 2163.21 1763.64 Q2168.58 1763.64 2171.77 1766.32 Q2174.96 1769.01 2174.96 1773.5 Q2174.96 1775.63 2174.15 1777.55 Q2173.37 1779.45 2171.26 1782.04 Q2170.68 1782.71 2167.58 1785.93 Q2164.48 1789.12 2158.83 1794.89 Z" fill="#000000" fill-rule="nonzero" fill-opacity="1" /><path clip-path="url(#clip470)" d="M2185.01 1764.26 L2203.37 1764.26 L2203.37 1768.2 L2189.29 1768.2 L2189.29 1776.67 Q2190.31 1776.32 2191.33 1776.16 Q2192.35 1775.97 2193.37 1775.97 Q2199.15 1775.97 2202.53 1779.15 Q2205.91 1782.32 2205.91 1787.73 Q2205.91 1793.31 2202.44 1796.41 Q2198.97 1799.49 2192.65 1799.49 Q2190.47 1799.49 2188.2 1799.12 Q2185.96 1798.75 2183.55 1798.01 L2183.55 1793.31 Q2185.64 1794.45 2187.86 1795 Q2190.08 1795.56 2192.56 1795.56 Q2196.56 1795.56 2198.9 1793.45 Q2201.24 1791.34 2201.24 1787.73 Q2201.24 1784.12 2198.9 1782.02 Q2196.56 1779.91 2192.56 1779.91 Q2190.68 1779.91 2188.81 1780.33 Q2186.95 1780.74 2185.01 1781.62 L2185.01 1764.26 Z" fill="#000000" fill-rule="nonzero" fill-opacity="1" /><path clip-path="url(#clip470)" d="M2561.24 1780.19 Q2564.6 1780.9 2566.48 1783.17 Q2568.37 1785.44 2568.37 1788.77 Q2568.37 1793.89 2564.86 1796.69 Q2561.34 1799.49 2554.86 1799.49 Q2552.68 1799.49 2550.36 1799.05 Q2548.07 1798.64 2545.62 1797.78 L2545.62 1793.27 Q2547.56 1794.4 2549.88 1794.98 Q2552.19 1795.56 2554.72 1795.56 Q2559.11 1795.56 2561.41 1793.82 Q2563.72 1792.08 2563.72 1788.77 Q2563.72 1785.72 2561.57 1784.01 Q2559.44 1782.27 2555.62 1782.27 L2551.59 1782.27 L2551.59 1778.43 L2555.8 1778.43 Q2559.25 1778.43 2561.08 1777.06 Q2562.91 1775.67 2562.91 1773.08 Q2562.91 1770.42 2561.01 1769.01 Q2559.14 1767.57 2555.62 1767.57 Q2553.7 1767.57 2551.5 1767.99 Q2549.3 1768.4 2546.66 1769.28 L2546.66 1765.12 Q2549.32 1764.38 2551.64 1764.01 Q2553.98 1763.64 2556.04 1763.64 Q2561.36 1763.64 2564.46 1766.07 Q2567.56 1768.47 2567.56 1772.59 Q2567.56 1775.46 2565.92 1777.46 Q2564.28 1779.42 2561.24 1780.19 Z" fill="#000000" fill-rule="nonzero" fill-opacity="1" /><path clip-path="url(#clip470)" d="M2587.24 1767.34 Q2583.63 1767.34 2581.8 1770.9 Q2579.99 1774.45 2579.99 1781.58 Q2579.99 1788.68 2581.8 1792.25 Q2583.63 1795.79 2587.24 1795.79 Q2590.87 1795.79 2592.68 1792.25 Q2594.51 1788.68 2594.51 1781.58 Q2594.51 1774.45 2592.68 1770.9 Q2590.87 1767.34 2587.24 1767.34 M2587.24 1763.64 Q2593.05 1763.64 2596.1 1768.24 Q2599.18 1772.83 2599.18 1781.58 Q2599.18 1790.3 2596.1 1794.91 Q2593.05 1799.49 2587.24 1799.49 Q2581.43 1799.49 2578.35 1794.91 Q2575.29 1790.3 2575.29 1781.58 Q2575.29 1772.83 2578.35 1768.24 Q2581.43 1763.64 2587.24 1763.64 Z" fill="#000000" fill-rule="nonzero" fill-opacity="1" /><path clip-path="url(#clip470)" d="M1364.09 1835.78 L1371 1835.78 L1384.17 1855.32 L1397.26 1835.78 L1404.16 1835.78 L1387.36 1860.67 L1387.36 1883.3 L1380.9 1883.3 L1380.9 1860.67 L1364.09 1835.78 Z" fill="#000000" fill-rule="nonzero" fill-opacity="1" /><path clip-path="url(#clip470)" d="M1432.01 1864.01 L1432.01 1866.88 L1405.09 1866.88 Q1405.47 1872.92 1408.71 1876.11 Q1411.99 1879.26 1417.82 1879.26 Q1421.19 1879.26 1424.34 1878.43 Q1427.53 1877.6 1430.64 1875.95 L1430.64 1881.49 Q1427.49 1882.82 1424.18 1883.52 Q1420.87 1884.22 1417.47 1884.22 Q1408.94 1884.22 1403.94 1879.26 Q1398.98 1874.29 1398.98 1865.83 Q1398.98 1857.07 1403.69 1851.95 Q1408.43 1846.79 1416.45 1846.79 Q1423.64 1846.79 1427.81 1851.44 Q1432.01 1856.06 1432.01 1864.01 M1426.16 1862.29 Q1426.09 1857.49 1423.45 1854.62 Q1420.84 1851.76 1416.51 1851.76 Q1411.61 1851.76 1408.65 1854.53 Q1405.72 1857.3 1405.28 1862.33 L1426.16 1862.29 Z" fill="#000000" fill-rule="nonzero" fill-opacity="1" /><path clip-path="url(#clip470)" d="M1457.83 1865.38 Q1450.73 1865.38 1447.99 1867 Q1445.25 1868.63 1445.25 1872.54 Q1445.25 1875.66 1447.29 1877.51 Q1449.36 1879.32 1452.89 1879.32 Q1457.76 1879.32 1460.69 1875.88 Q1463.65 1872.42 1463.65 1866.69 L1463.65 1865.38 L1457.83 1865.38 M1469.51 1862.96 L1469.51 1883.3 L1463.65 1883.3 L1463.65 1877.89 Q1461.65 1881.14 1458.65 1882.7 Q1455.66 1884.22 1451.33 1884.22 Q1445.86 1884.22 1442.61 1881.17 Q1439.4 1878.08 1439.4 1872.92 Q1439.4 1866.91 1443.41 1863.85 Q1447.45 1860.8 1455.44 1860.8 L1463.65 1860.8 L1463.65 1860.23 Q1463.65 1856.18 1460.98 1853.99 Q1458.34 1851.76 1453.53 1851.76 Q1450.47 1851.76 1447.58 1852.49 Q1444.68 1853.22 1442.01 1854.69 L1442.01 1849.28 Q1445.22 1848.03 1448.25 1847.43 Q1451.27 1846.79 1454.13 1846.79 Q1461.87 1846.79 1465.69 1850.8 Q1469.51 1854.81 1469.51 1862.96 Z" fill="#000000" fill-rule="nonzero" fill-opacity="1" /><path clip-path="url(#clip470)" d="M1502.23 1853.13 Q1501.24 1852.55 1500.06 1852.3 Q1498.92 1852.01 1497.52 1852.01 Q1492.55 1852.01 1489.88 1855.26 Q1487.24 1858.47 1487.24 1864.52 L1487.24 1883.3 L1481.35 1883.3 L1481.35 1847.65 L1487.24 1847.65 L1487.24 1853.19 Q1489.08 1849.94 1492.04 1848.39 Q1495 1846.79 1499.23 1846.79 Q1499.84 1846.79 1500.57 1846.89 Q1501.3 1846.95 1502.19 1847.11 L1502.23 1853.13 Z" fill="#000000" fill-rule="nonzero" fill-opacity="1" /><polyline clip-path="url(#clip470)" style="stroke:#000000; stroke-linecap:round; stroke-linejoin:round; stroke-width:4; stroke-opacity:1; fill:none" points="225.562,1734.12 225.562,127.792 "/>
<polyline clip-path="url(#clip470)" style="stroke:#000000; stroke-linecap:round; stroke-linejoin:round; stroke-width:4; stroke-opacity:1; fill:none" points="225.562,1597.8 244.459,1597.8 "/>
<polyline clip-path="url(#clip470)" style="stroke:#000000; stroke-linecap:round; stroke-linejoin:round; stroke-width:4; stroke-opacity:1; fill:none" points="225.562,1381.46 244.459,1381.46 "/>
<polyline clip-path="url(#clip470)" style="stroke:#000000; stroke-linecap:round; stroke-linejoin:round; stroke-width:4; stroke-opacity:1; fill:none" points="225.562,1165.13 244.459,1165.13 "/>
<polyline clip-path="url(#clip470)" style="stroke:#000000; stroke-linecap:round; stroke-linejoin:round; stroke-width:4; stroke-opacity:1; fill:none" points="225.562,948.802 244.459,948.802 "/>
<polyline clip-path="url(#clip470)" style="stroke:#000000; stroke-linecap:round; stroke-linejoin:round; stroke-width:4; stroke-opacity:1; fill:none" points="225.562,732.471 244.459,732.471 "/>
<polyline clip-path="url(#clip470)" style="stroke:#000000; stroke-linecap:round; stroke-linejoin:round; stroke-width:4; stroke-opacity:1; fill:none" points="225.562,516.139 244.459,516.139 "/>
<polyline clip-path="url(#clip470)" style="stroke:#000000; stroke-linecap:round; stroke-linejoin:round; stroke-width:4; stroke-opacity:1; fill:none" points="225.562,299.808 244.459,299.808 "/>
<path clip-path="url(#clip470)" d="M128.159 1583.59 Q124.548 1583.59 122.719 1587.16 Q120.913 1590.7 120.913 1597.83 Q120.913 1604.94 122.719 1608.5 Q124.548 1612.04 128.159 1612.04 Q131.793 1612.04 133.599 1608.5 Q135.427 1604.94 135.427 1597.83 Q135.427 1590.7 133.599 1587.16 Q131.793 1583.59 128.159 1583.59 M128.159 1579.89 Q133.969 1579.89 137.025 1584.5 Q140.103 1589.08 140.103 1597.83 Q140.103 1606.56 137.025 1611.16 Q133.969 1615.75 128.159 1615.75 Q122.349 1615.75 119.27 1611.16 Q116.214 1606.56 116.214 1597.83 Q116.214 1589.08 119.27 1584.5 Q122.349 1579.89 128.159 1579.89 Z" fill="#000000" fill-rule="nonzero" fill-opacity="1" /><path clip-path="url(#clip470)" d="M148.321 1609.2 L153.205 1609.2 L153.205 1615.08 L148.321 1615.08 L148.321 1609.2 Z" fill="#000000" fill-rule="nonzero" fill-opacity="1" /><path clip-path="url(#clip470)" d="M173.39 1598.66 Q170.057 1598.66 168.135 1600.45 Q166.237 1602.23 166.237 1605.35 Q166.237 1608.48 168.135 1610.26 Q170.057 1612.04 173.39 1612.04 Q176.723 1612.04 178.645 1610.26 Q180.566 1608.46 180.566 1605.35 Q180.566 1602.23 178.645 1600.45 Q176.747 1598.66 173.39 1598.66 M168.714 1596.67 Q165.705 1595.93 164.015 1593.87 Q162.348 1591.81 162.348 1588.85 Q162.348 1584.71 165.288 1582.3 Q168.251 1579.89 173.39 1579.89 Q178.552 1579.89 181.492 1582.3 Q184.432 1584.71 184.432 1588.85 Q184.432 1591.81 182.742 1593.87 Q181.075 1595.93 178.089 1596.67 Q181.469 1597.46 183.344 1599.75 Q185.242 1602.04 185.242 1605.35 Q185.242 1610.38 182.163 1613.06 Q179.108 1615.75 173.39 1615.75 Q167.673 1615.75 164.594 1613.06 Q161.538 1610.38 161.538 1605.35 Q161.538 1602.04 163.436 1599.75 Q165.335 1597.46 168.714 1596.67 M167.001 1589.29 Q167.001 1591.97 168.668 1593.48 Q170.358 1594.98 173.39 1594.98 Q176.399 1594.98 178.089 1593.48 Q179.802 1591.97 179.802 1589.29 Q179.802 1586.6 178.089 1585.1 Q176.399 1583.59 173.39 1583.59 Q170.358 1583.59 168.668 1585.1 Q167.001 1586.6 167.001 1589.29 Z" fill="#000000" fill-rule="nonzero" fill-opacity="1" /><path clip-path="url(#clip470)" d="M118.876 1394.81 L126.515 1394.81 L126.515 1368.44 L118.205 1370.11 L118.205 1365.85 L126.469 1364.18 L131.145 1364.18 L131.145 1394.81 L138.784 1394.81 L138.784 1398.74 L118.876 1398.74 L118.876 1394.81 Z" fill="#000000" fill-rule="nonzero" fill-opacity="1" /><path clip-path="url(#clip470)" d="M148.228 1392.86 L153.112 1392.86 L153.112 1398.74 L148.228 1398.74 L148.228 1392.86 Z" fill="#000000" fill-rule="nonzero" fill-opacity="1" /><path clip-path="url(#clip470)" d="M173.297 1367.26 Q169.686 1367.26 167.858 1370.83 Q166.052 1374.37 166.052 1381.5 Q166.052 1388.61 167.858 1392.17 Q169.686 1395.71 173.297 1395.71 Q176.932 1395.71 178.737 1392.17 Q180.566 1388.61 180.566 1381.5 Q180.566 1374.37 178.737 1370.83 Q176.932 1367.26 173.297 1367.26 M173.297 1363.56 Q179.108 1363.56 182.163 1368.17 Q185.242 1372.75 185.242 1381.5 Q185.242 1390.23 182.163 1394.83 Q179.108 1399.42 173.297 1399.42 Q167.487 1399.42 164.409 1394.83 Q161.353 1390.23 161.353 1381.5 Q161.353 1372.75 164.409 1368.17 Q167.487 1363.56 173.297 1363.56 Z" fill="#000000" fill-rule="nonzero" fill-opacity="1" /><path clip-path="url(#clip470)" d="M120.474 1178.48 L128.113 1178.48 L128.113 1152.11 L119.802 1153.78 L119.802 1149.52 L128.066 1147.85 L132.742 1147.85 L132.742 1178.48 L140.381 1178.48 L140.381 1182.41 L120.474 1182.41 L120.474 1178.48 Z" fill="#000000" fill-rule="nonzero" fill-opacity="1" /><path clip-path="url(#clip470)" d="M149.825 1176.53 L154.71 1176.53 L154.71 1182.41 L149.825 1182.41 L149.825 1176.53 Z" fill="#000000" fill-rule="nonzero" fill-opacity="1" /><path clip-path="url(#clip470)" d="M168.922 1178.48 L185.242 1178.48 L185.242 1182.41 L163.298 1182.41 L163.298 1178.48 Q165.96 1175.72 170.543 1171.09 Q175.149 1166.44 176.33 1165.1 Q178.575 1162.58 179.455 1160.84 Q180.358 1159.08 180.358 1157.39 Q180.358 1154.64 178.413 1152.9 Q176.492 1151.16 173.39 1151.16 Q171.191 1151.16 168.737 1151.93 Q166.307 1152.69 163.529 1154.24 L163.529 1149.52 Q166.353 1148.39 168.807 1147.81 Q171.26 1147.23 173.297 1147.23 Q178.668 1147.23 181.862 1149.91 Q185.057 1152.6 185.057 1157.09 Q185.057 1159.22 184.246 1161.14 Q183.459 1163.04 181.353 1165.63 Q180.774 1166.3 177.672 1169.52 Q174.571 1172.71 168.922 1178.48 Z" fill="#000000" fill-rule="nonzero" fill-opacity="1" /><path clip-path="url(#clip470)" d="M118.39 962.147 L126.029 962.147 L126.029 935.781 L117.719 937.448 L117.719 933.189 L125.983 931.522 L130.659 931.522 L130.659 962.147 L138.298 962.147 L138.298 966.082 L118.39 966.082 L118.39 962.147 Z" fill="#000000" fill-rule="nonzero" fill-opacity="1" /><path clip-path="url(#clip470)" d="M147.742 960.202 L152.626 960.202 L152.626 966.082 L147.742 966.082 L147.742 960.202 Z" fill="#000000" fill-rule="nonzero" fill-opacity="1" /><path clip-path="url(#clip470)" d="M175.659 935.596 L163.853 954.045 L175.659 954.045 L175.659 935.596 M174.432 931.522 L180.311 931.522 L180.311 954.045 L185.242 954.045 L185.242 957.934 L180.311 957.934 L180.311 966.082 L175.659 966.082 L175.659 957.934 L160.057 957.934 L160.057 953.42 L174.432 931.522 Z" fill="#000000" fill-rule="nonzero" fill-opacity="1" /><path clip-path="url(#clip470)" d="M118.714 745.815 L126.353 745.815 L126.353 719.45 L118.043 721.116 L118.043 716.857 L126.307 715.191 L130.983 715.191 L130.983 745.815 L138.622 745.815 L138.622 749.751 L118.714 749.751 L118.714 745.815 Z" fill="#000000" fill-rule="nonzero" fill-opacity="1" /><path clip-path="url(#clip470)" d="M148.066 743.871 L152.95 743.871 L152.95 749.751 L148.066 749.751 L148.066 743.871 Z" fill="#000000" fill-rule="nonzero" fill-opacity="1" /><path clip-path="url(#clip470)" d="M173.714 730.607 Q170.566 730.607 168.714 732.76 Q166.885 734.913 166.885 738.663 Q166.885 742.39 168.714 744.565 Q170.566 746.718 173.714 746.718 Q176.862 746.718 178.691 744.565 Q180.543 742.39 180.543 738.663 Q180.543 734.913 178.691 732.76 Q176.862 730.607 173.714 730.607 M182.996 715.954 L182.996 720.214 Q181.237 719.38 179.432 718.941 Q177.649 718.501 175.89 718.501 Q171.26 718.501 168.807 721.626 Q166.376 724.751 166.029 731.07 Q167.395 729.056 169.455 727.991 Q171.515 726.903 173.992 726.903 Q179.2 726.903 182.209 730.075 Q185.242 733.223 185.242 738.663 Q185.242 743.987 182.094 747.204 Q178.946 750.422 173.714 750.422 Q167.719 750.422 164.548 745.839 Q161.376 741.232 161.376 732.505 Q161.376 724.311 165.265 719.45 Q169.154 714.566 175.705 714.566 Q177.464 714.566 179.247 714.913 Q181.052 715.26 182.996 715.954 Z" fill="#000000" fill-rule="nonzero" fill-opacity="1" /><path clip-path="url(#clip470)" d="M118.969 529.484 L126.608 529.484 L126.608 503.119 L118.298 504.785 L118.298 500.526 L126.562 498.859 L131.238 498.859 L131.238 529.484 L138.876 529.484 L138.876 533.419 L118.969 533.419 L118.969 529.484 Z" fill="#000000" fill-rule="nonzero" fill-opacity="1" /><path clip-path="url(#clip470)" d="M148.321 527.54 L153.205 527.54 L153.205 533.419 L148.321 533.419 L148.321 527.54 Z" fill="#000000" fill-rule="nonzero" fill-opacity="1" /><path clip-path="url(#clip470)" d="M173.39 517.007 Q170.057 517.007 168.135 518.79 Q166.237 520.572 166.237 523.697 Q166.237 526.822 168.135 528.604 Q170.057 530.387 173.39 530.387 Q176.723 530.387 178.645 528.604 Q180.566 526.799 180.566 523.697 Q180.566 520.572 178.645 518.79 Q176.747 517.007 173.39 517.007 M168.714 515.017 Q165.705 514.276 164.015 512.216 Q162.348 510.156 162.348 507.193 Q162.348 503.049 165.288 500.642 Q168.251 498.234 173.39 498.234 Q178.552 498.234 181.492 500.642 Q184.432 503.049 184.432 507.193 Q184.432 510.156 182.742 512.216 Q181.075 514.276 178.089 515.017 Q181.469 515.804 183.344 518.095 Q185.242 520.387 185.242 523.697 Q185.242 528.72 182.163 531.405 Q179.108 534.091 173.39 534.091 Q167.673 534.091 164.594 531.405 Q161.538 528.72 161.538 523.697 Q161.538 520.387 163.436 518.095 Q165.335 515.804 168.714 515.017 M167.001 507.632 Q167.001 510.318 168.668 511.822 Q170.358 513.327 173.39 513.327 Q176.399 513.327 178.089 511.822 Q179.802 510.318 179.802 507.632 Q179.802 504.947 178.089 503.443 Q176.399 501.938 173.39 501.938 Q170.358 501.938 168.668 503.443 Q167.001 504.947 167.001 507.632 Z" fill="#000000" fill-rule="nonzero" fill-opacity="1" /><path clip-path="url(#clip470)" d="M122.094 313.153 L138.413 313.153 L138.413 317.088 L116.469 317.088 L116.469 313.153 Q119.131 310.398 123.714 305.769 Q128.321 301.116 129.501 299.773 Q131.747 297.25 132.626 295.514 Q133.529 293.755 133.529 292.065 Q133.529 289.31 131.585 287.574 Q129.663 285.838 126.562 285.838 Q124.363 285.838 121.909 286.602 Q119.478 287.366 116.701 288.917 L116.701 284.195 Q119.525 283.06 121.978 282.482 Q124.432 281.903 126.469 281.903 Q131.839 281.903 135.034 284.588 Q138.228 287.273 138.228 291.764 Q138.228 293.894 137.418 295.815 Q136.631 297.713 134.525 300.306 Q133.946 300.977 130.844 304.195 Q127.742 307.389 122.094 313.153 Z" fill="#000000" fill-rule="nonzero" fill-opacity="1" /><path clip-path="url(#clip470)" d="M148.228 311.208 L153.112 311.208 L153.112 317.088 L148.228 317.088 L148.228 311.208 Z" fill="#000000" fill-rule="nonzero" fill-opacity="1" /><path clip-path="url(#clip470)" d="M173.297 285.607 Q169.686 285.607 167.858 289.171 Q166.052 292.713 166.052 299.843 Q166.052 306.949 167.858 310.514 Q169.686 314.056 173.297 314.056 Q176.932 314.056 178.737 310.514 Q180.566 306.949 180.566 299.843 Q180.566 292.713 178.737 289.171 Q176.932 285.607 173.297 285.607 M173.297 281.903 Q179.108 281.903 182.163 286.509 Q185.242 291.093 185.242 299.843 Q185.242 308.569 182.163 313.176 Q179.108 317.759 173.297 317.759 Q167.487 317.759 164.409 313.176 Q161.353 308.569 161.353 299.843 Q161.353 291.093 164.409 286.509 Q167.487 281.903 173.297 281.903 Z" fill="#000000" fill-rule="nonzero" fill-opacity="1" /><path clip-path="url(#clip470)" d="M17.6832 966.443 L61.6384 949.988 L61.6384 956.195 L35.2844 966.189 L61.6384 978.475 L61.6384 984.681 L27.4546 969.053 L21.1525 971.409 Q17.1422 972.905 17.1422 976.31 L17.1422 979.366 L12.1132 979.366 L12.1769 975.642 Q12.2724 968.449 17.6832 966.443 Z" fill="#000000" fill-rule="nonzero" fill-opacity="1" /><path clip-path="url(#clip470)" d="M12.1769 927.835 Q19.4975 932.1 26.6589 934.169 Q33.8203 936.238 41.1727 936.238 Q48.5251 936.238 55.7502 934.169 Q62.9434 932.069 70.2321 927.835 L70.2321 932.928 Q62.7524 937.702 55.5274 940.089 Q48.3023 942.445 41.1727 942.445 Q34.0749 942.445 26.8817 940.089 Q19.6884 937.734 12.1769 932.928 L12.1769 927.835 Z" fill="#000000" fill-rule="nonzero" fill-opacity="1" /><path clip-path="url(#clip470)" d="M15.869 910.68 L25.9905 910.68 L25.9905 898.617 L30.542 898.617 L30.542 910.68 L49.8937 910.68 Q54.2542 910.68 55.4955 909.502 Q56.7368 908.293 56.7368 904.632 L56.7368 898.617 L61.6384 898.617 L61.6384 904.632 Q61.6384 911.412 59.124 913.99 Q56.5777 916.568 49.8937 916.568 L30.542 916.568 L30.542 920.865 L25.9905 920.865 L25.9905 916.568 L15.869 916.568 L15.869 910.68 Z" fill="#000000" fill-rule="nonzero" fill-opacity="1" /><path clip-path="url(#clip470)" d="M12.1769 891.837 L12.1769 886.745 Q19.6884 881.97 26.8817 879.615 Q34.0749 877.228 41.1727 877.228 Q48.3023 877.228 55.5274 879.615 Q62.7524 881.97 70.2321 886.745 L70.2321 891.837 Q62.9434 887.604 55.7502 885.535 Q48.5251 883.435 41.1727 883.435 Q33.8203 883.435 26.6589 885.535 Q19.4975 887.604 12.1769 891.837 Z" fill="#000000" fill-rule="nonzero" fill-opacity="1" /><path clip-path="url(#clip470)" d="M464.871 12.096 L516.034 12.096 L516.034 18.9825 L494.564 18.9825 L494.564 72.576 L486.341 72.576 L486.341 18.9825 L464.871 18.9825 L464.871 12.096 Z" fill="#000000" fill-rule="nonzero" fill-opacity="1" /><path clip-path="url(#clip470)" d="M537.707 34.1734 Q536.451 33.4443 534.952 33.1202 Q533.494 32.7556 531.711 32.7556 Q525.392 32.7556 521.989 36.8875 Q518.627 40.9789 518.627 48.6757 L518.627 72.576 L511.133 72.576 L511.133 27.2059 L518.627 27.2059 L518.627 34.2544 Q520.976 30.1225 524.744 28.1376 Q528.511 26.1121 533.899 26.1121 Q534.668 26.1121 535.6 26.2337 Q536.532 26.3147 537.666 26.5172 L537.707 34.1734 Z" fill="#000000" fill-rule="nonzero" fill-opacity="1" /><path clip-path="url(#clip470)" d="M566.144 49.7694 Q557.11 49.7694 553.627 51.8354 Q550.143 53.9013 550.143 58.8839 Q550.143 62.8538 552.735 65.2034 Q555.368 67.5124 559.865 67.5124 Q566.063 67.5124 569.79 63.1374 Q573.557 58.7219 573.557 51.4303 L573.557 49.7694 L566.144 49.7694 M581.011 46.6907 L581.011 72.576 L573.557 72.576 L573.557 65.6895 Q571.005 69.8214 567.197 71.8063 Q563.389 73.7508 557.88 73.7508 Q550.912 73.7508 546.781 69.8619 Q542.689 65.9325 542.689 59.3701 Q542.689 51.7138 547.793 47.825 Q552.938 43.9361 563.106 43.9361 L573.557 43.9361 L573.557 43.2069 Q573.557 38.0623 570.154 35.2672 Q566.792 32.4315 560.675 32.4315 Q556.786 32.4315 553.1 33.3632 Q549.414 34.295 546.011 36.1584 L546.011 29.2718 Q550.102 27.692 553.951 26.9223 Q557.799 26.1121 561.445 26.1121 Q571.288 26.1121 576.15 31.2163 Q581.011 36.3204 581.011 46.6907 Z" fill="#000000" fill-rule="nonzero" fill-opacity="1" /><path clip-path="url(#clip470)" d="M634.078 45.1919 L634.078 72.576 L626.624 72.576 L626.624 45.4349 Q626.624 38.994 624.112 35.7938 Q621.601 32.5936 616.578 32.5936 Q610.542 32.5936 607.058 36.4419 Q603.574 40.2903 603.574 46.9338 L603.574 72.576 L596.08 72.576 L596.08 27.2059 L603.574 27.2059 L603.574 34.2544 Q606.248 30.163 609.853 28.1376 Q613.499 26.1121 618.238 26.1121 Q626.057 26.1121 630.067 30.9732 Q634.078 35.7938 634.078 45.1919 Z" fill="#000000" fill-rule="nonzero" fill-opacity="1" /><path clip-path="url(#clip470)" d="M677.868 28.5427 L677.868 35.5912 Q674.708 33.9709 671.305 33.1607 Q667.903 32.3505 664.257 32.3505 Q658.707 32.3505 655.912 34.0519 Q653.157 35.7533 653.157 39.156 Q653.157 41.7486 655.142 43.2475 Q657.127 44.7058 663.122 46.0426 L665.675 46.6097 Q673.614 48.3111 676.936 51.4303 Q680.298 54.509 680.298 60.0587 Q680.298 66.3781 675.275 70.0644 Q670.293 73.7508 661.543 73.7508 Q657.897 73.7508 653.927 73.0216 Q649.998 72.3329 645.623 70.9151 L645.623 63.2184 Q649.755 65.3654 653.765 66.4591 Q657.775 67.5124 661.705 67.5124 Q666.971 67.5124 669.806 65.73 Q672.642 63.9071 672.642 60.6258 Q672.642 57.5877 670.576 55.9673 Q668.551 54.3469 661.624 52.8481 L659.031 52.2405 Q652.104 50.7821 649.025 47.7845 Q645.947 44.7463 645.947 39.4801 Q645.947 33.0797 650.484 29.5959 Q655.021 26.1121 663.366 26.1121 Q667.497 26.1121 671.143 26.7198 Q674.789 27.3274 677.868 28.5427 Z" fill="#000000" fill-rule="nonzero" fill-opacity="1" /><path clip-path="url(#clip470)" d="M692.167 27.2059 L699.621 27.2059 L699.621 72.576 L692.167 72.576 L692.167 27.2059 M692.167 9.54393 L699.621 9.54393 L699.621 18.9825 L692.167 18.9825 L692.167 9.54393 Z" fill="#000000" fill-rule="nonzero" fill-opacity="1" /><path clip-path="url(#clip470)" d="M754.025 48.0275 L754.025 51.6733 L719.754 51.6733 Q720.24 59.3701 724.372 63.421 Q728.545 67.4314 735.958 67.4314 Q740.252 67.4314 744.262 66.3781 Q748.313 65.3249 752.283 63.2184 L752.283 70.267 Q748.273 71.9684 744.06 72.8596 Q739.847 73.7508 735.512 73.7508 Q724.656 73.7508 718.296 67.4314 Q711.976 61.1119 711.976 50.3365 Q711.976 39.1965 717.972 32.6746 Q724.008 26.1121 734.216 26.1121 Q743.371 26.1121 748.678 32.0264 Q754.025 37.9003 754.025 48.0275 M746.571 45.84 Q746.49 39.7232 743.128 36.0774 Q739.806 32.4315 734.297 32.4315 Q728.058 32.4315 724.291 35.9558 Q720.564 39.4801 719.997 45.8805 L746.571 45.84 Z" fill="#000000" fill-rule="nonzero" fill-opacity="1" /><path clip-path="url(#clip470)" d="M803.972 45.1919 L803.972 72.576 L796.519 72.576 L796.519 45.4349 Q796.519 38.994 794.007 35.7938 Q791.496 32.5936 786.473 32.5936 Q780.437 32.5936 776.953 36.4419 Q773.469 40.2903 773.469 46.9338 L773.469 72.576 L765.975 72.576 L765.975 27.2059 L773.469 27.2059 L773.469 34.2544 Q776.143 30.163 779.748 28.1376 Q783.394 26.1121 788.133 26.1121 Q795.952 26.1121 799.962 30.9732 Q803.972 35.7938 803.972 45.1919 Z" fill="#000000" fill-rule="nonzero" fill-opacity="1" /><path clip-path="url(#clip470)" d="M826.212 14.324 L826.212 27.2059 L841.565 27.2059 L841.565 32.9987 L826.212 32.9987 L826.212 57.6282 Q826.212 63.1779 827.711 64.7578 Q829.25 66.3376 833.909 66.3376 L841.565 66.3376 L841.565 72.576 L833.909 72.576 Q825.28 72.576 821.999 69.3758 Q818.718 66.1351 818.718 57.6282 L818.718 32.9987 L813.249 32.9987 L813.249 27.2059 L818.718 27.2059 L818.718 14.324 L826.212 14.324 Z" fill="#000000" fill-rule="nonzero" fill-opacity="1" /><path clip-path="url(#clip470)" d="M907.595 34.0924 L907.595 9.54393 L915.048 9.54393 L915.048 72.576 L907.595 72.576 L907.595 65.7705 Q905.245 69.8214 901.64 71.8063 Q898.075 73.7508 893.052 73.7508 Q884.828 73.7508 879.643 67.1883 Q874.499 60.6258 874.499 49.9314 Q874.499 39.2371 879.643 32.6746 Q884.828 26.1121 893.052 26.1121 Q898.075 26.1121 901.64 28.0971 Q905.245 30.0415 907.595 34.0924 M882.195 49.9314 Q882.195 58.1548 885.558 62.8538 Q888.96 67.5124 894.875 67.5124 Q900.789 67.5124 904.192 62.8538 Q907.595 58.1548 907.595 49.9314 Q907.595 41.7081 904.192 37.0496 Q900.789 32.3505 894.875 32.3505 Q888.96 32.3505 885.558 37.0496 Q882.195 41.7081 882.195 49.9314 Z" fill="#000000" fill-rule="nonzero" fill-opacity="1" /><path clip-path="url(#clip470)" d="M949.278 76.7889 Q946.119 84.8907 943.121 87.3618 Q940.123 89.8329 935.1 89.8329 L929.145 89.8329 L929.145 83.5945 L933.52 83.5945 Q936.599 83.5945 938.3 82.1361 Q940.002 80.6778 942.068 75.2496 L943.405 71.8468 L925.054 27.2059 L932.953 27.2059 L947.131 62.6918 L961.31 27.2059 L969.209 27.2059 L949.278 76.7889 Z" fill="#000000" fill-rule="nonzero" fill-opacity="1" /><path clip-path="url(#clip470)" d="M1017.21 45.1919 L1017.21 72.576 L1009.76 72.576 L1009.76 45.4349 Q1009.76 38.994 1007.25 35.7938 Q1004.74 32.5936 999.712 32.5936 Q993.676 32.5936 990.193 36.4419 Q986.709 40.2903 986.709 46.9338 L986.709 72.576 L979.215 72.576 L979.215 27.2059 L986.709 27.2059 L986.709 34.2544 Q989.382 30.163 992.988 28.1376 Q996.633 26.1121 1001.37 26.1121 Q1009.19 26.1121 1013.2 30.9732 Q1017.21 35.7938 1017.21 45.1919 Z" fill="#000000" fill-rule="nonzero" fill-opacity="1" /><path clip-path="url(#clip470)" d="M1052.7 49.7694 Q1043.66 49.7694 1040.18 51.8354 Q1036.7 53.9013 1036.7 58.8839 Q1036.7 62.8538 1039.29 65.2034 Q1041.92 67.5124 1046.42 67.5124 Q1052.62 67.5124 1056.34 63.1374 Q1060.11 58.7219 1060.11 51.4303 L1060.11 49.7694 L1052.7 49.7694 M1067.56 46.6907 L1067.56 72.576 L1060.11 72.576 L1060.11 65.6895 Q1057.56 69.8214 1053.75 71.8063 Q1049.94 73.7508 1044.43 73.7508 Q1037.47 73.7508 1033.33 69.8619 Q1029.24 65.9325 1029.24 59.3701 Q1029.24 51.7138 1034.35 47.825 Q1039.49 43.9361 1049.66 43.9361 L1060.11 43.9361 L1060.11 43.2069 Q1060.11 38.0623 1056.71 35.2672 Q1053.35 32.4315 1047.23 32.4315 Q1043.34 32.4315 1039.65 33.3632 Q1035.97 34.295 1032.56 36.1584 L1032.56 29.2718 Q1036.66 27.692 1040.5 26.9223 Q1044.35 26.1121 1048 26.1121 Q1057.84 26.1121 1062.7 31.2163 Q1067.56 36.3204 1067.56 46.6907 Z" fill="#000000" fill-rule="nonzero" fill-opacity="1" /><path clip-path="url(#clip470)" d="M1118.24 35.9153 Q1121.04 30.8922 1124.93 28.5022 Q1128.81 26.1121 1134.08 26.1121 Q1141.17 26.1121 1145.02 31.0947 Q1148.87 36.0368 1148.87 45.1919 L1148.87 72.576 L1141.37 72.576 L1141.37 45.4349 Q1141.37 38.913 1139.06 35.7533 Q1136.75 32.5936 1132.01 32.5936 Q1126.22 32.5936 1122.86 36.4419 Q1119.5 40.2903 1119.5 46.9338 L1119.5 72.576 L1112 72.576 L1112 45.4349 Q1112 38.8725 1109.69 35.7533 Q1107.39 32.5936 1102.56 32.5936 Q1096.85 32.5936 1093.49 36.4824 Q1090.13 40.3308 1090.13 46.9338 L1090.13 72.576 L1082.63 72.576 L1082.63 27.2059 L1090.13 27.2059 L1090.13 34.2544 Q1092.68 30.082 1096.25 28.0971 Q1099.81 26.1121 1104.71 26.1121 Q1109.65 26.1121 1113.1 28.6237 Q1116.58 31.1352 1118.24 35.9153 Z" fill="#000000" fill-rule="nonzero" fill-opacity="1" /><path clip-path="url(#clip470)" d="M1163.73 27.2059 L1171.19 27.2059 L1171.19 72.576 L1163.73 72.576 L1163.73 27.2059 M1163.73 9.54393 L1171.19 9.54393 L1171.19 18.9825 L1163.73 18.9825 L1163.73 9.54393 Z" fill="#000000" fill-rule="nonzero" fill-opacity="1" /><path clip-path="url(#clip470)" d="M1219.43 28.9478 L1219.43 35.9153 Q1216.27 34.1734 1213.07 33.3227 Q1209.91 32.4315 1206.67 32.4315 Q1199.42 32.4315 1195.41 37.0496 Q1191.4 41.6271 1191.4 49.9314 Q1191.4 58.2358 1195.41 62.8538 Q1199.42 67.4314 1206.67 67.4314 Q1209.91 67.4314 1213.07 66.5807 Q1216.27 65.6895 1219.43 63.9476 L1219.43 70.8341 Q1216.31 72.2924 1212.95 73.0216 Q1209.63 73.7508 1205.86 73.7508 Q1195.61 73.7508 1189.58 67.3098 Q1183.54 60.8689 1183.54 49.9314 Q1183.54 38.832 1189.62 32.472 Q1195.74 26.1121 1206.35 26.1121 Q1209.79 26.1121 1213.07 26.8413 Q1216.35 27.5299 1219.43 28.9478 Z" fill="#000000" fill-rule="nonzero" fill-opacity="1" /><path clip-path="url(#clip470)" d="M1261.32 28.5427 L1261.32 35.5912 Q1258.16 33.9709 1254.76 33.1607 Q1251.35 32.3505 1247.71 32.3505 Q1242.16 32.3505 1239.36 34.0519 Q1236.61 35.7533 1236.61 39.156 Q1236.61 41.7486 1238.59 43.2475 Q1240.58 44.7058 1246.57 46.0426 L1249.13 46.6097 Q1257.07 48.3111 1260.39 51.4303 Q1263.75 54.509 1263.75 60.0587 Q1263.75 66.3781 1258.73 70.0644 Q1253.74 73.7508 1244.99 73.7508 Q1241.35 73.7508 1237.38 73.0216 Q1233.45 72.3329 1229.07 70.9151 L1229.07 63.2184 Q1233.21 65.3654 1237.22 66.4591 Q1241.23 67.5124 1245.16 67.5124 Q1250.42 67.5124 1253.26 65.73 Q1256.09 63.9071 1256.09 60.6258 Q1256.09 57.5877 1254.03 55.9673 Q1252 54.3469 1245.08 52.8481 L1242.48 52.2405 Q1235.56 50.7821 1232.48 47.7845 Q1229.4 44.7463 1229.4 39.4801 Q1229.4 33.0797 1233.94 29.5959 Q1238.47 26.1121 1246.82 26.1121 Q1250.95 26.1121 1254.6 26.7198 Q1258.24 27.3274 1261.32 28.5427 Z" fill="#000000" fill-rule="nonzero" fill-opacity="1" /><path clip-path="url(#clip470)" d="M1298.22 46.9338 L1373.08 46.9338 L1373.08 52.7671 L1298.22 52.7671 L1298.22 46.9338 Z" fill="#000000" fill-rule="nonzero" fill-opacity="1" /><path clip-path="url(#clip470)" d="M1450.13 48.0275 L1450.13 51.6733 L1415.86 51.6733 Q1416.35 59.3701 1420.48 63.421 Q1424.65 67.4314 1432.07 67.4314 Q1436.36 67.4314 1440.37 66.3781 Q1444.42 65.3249 1448.39 63.2184 L1448.39 70.267 Q1444.38 71.9684 1440.17 72.8596 Q1435.95 73.7508 1431.62 73.7508 Q1420.76 73.7508 1414.4 67.4314 Q1408.08 61.1119 1408.08 50.3365 Q1408.08 39.1965 1414.08 32.6746 Q1420.11 26.1121 1430.32 26.1121 Q1439.48 26.1121 1444.78 32.0264 Q1450.13 37.9003 1450.13 48.0275 M1442.68 45.84 Q1442.6 39.7232 1439.24 36.0774 Q1435.91 32.4315 1430.4 32.4315 Q1424.17 32.4315 1420.4 35.9558 Q1416.67 39.4801 1416.1 45.8805 L1442.68 45.84 Z" fill="#000000" fill-rule="nonzero" fill-opacity="1" /><path clip-path="url(#clip470)" d="M1485.33 9.54393 L1485.33 15.7418 L1478.2 15.7418 Q1474.19 15.7418 1472.61 17.3622 Q1471.08 18.9825 1471.08 23.1955 L1471.08 27.2059 L1483.35 27.2059 L1483.35 32.9987 L1471.08 32.9987 L1471.08 72.576 L1463.58 72.576 L1463.58 32.9987 L1456.45 32.9987 L1456.45 27.2059 L1463.58 27.2059 L1463.58 24.0462 Q1463.58 16.471 1467.11 13.0277 Q1470.63 9.54393 1478.29 9.54393 L1485.33 9.54393 Z" fill="#000000" fill-rule="nonzero" fill-opacity="1" /><path clip-path="url(#clip470)" d="M1514.54 9.54393 L1514.54 15.7418 L1507.41 15.7418 Q1503.4 15.7418 1501.82 17.3622 Q1500.28 18.9825 1500.28 23.1955 L1500.28 27.2059 L1512.56 27.2059 L1512.56 32.9987 L1500.28 32.9987 L1500.28 72.576 L1492.79 72.576 L1492.79 32.9987 L1485.66 32.9987 L1485.66 27.2059 L1492.79 27.2059 L1492.79 24.0462 Q1492.79 16.471 1496.31 13.0277 Q1499.84 9.54393 1507.49 9.54393 L1514.54 9.54393 Z" fill="#000000" fill-rule="nonzero" fill-opacity="1" /><path clip-path="url(#clip470)" d="M1559.59 48.0275 L1559.59 51.6733 L1525.32 51.6733 Q1525.8 59.3701 1529.93 63.421 Q1534.11 67.4314 1541.52 67.4314 Q1545.81 67.4314 1549.82 66.3781 Q1553.88 65.3249 1557.85 63.2184 L1557.85 70.267 Q1553.84 71.9684 1549.62 72.8596 Q1545.41 73.7508 1541.07 73.7508 Q1530.22 73.7508 1523.86 67.4314 Q1517.54 61.1119 1517.54 50.3365 Q1517.54 39.1965 1523.53 32.6746 Q1529.57 26.1121 1539.78 26.1121 Q1548.93 26.1121 1554.24 32.0264 Q1559.59 37.9003 1559.59 48.0275 M1552.13 45.84 Q1552.05 39.7232 1548.69 36.0774 Q1545.37 32.4315 1539.86 32.4315 Q1533.62 32.4315 1529.85 35.9558 Q1526.13 39.4801 1525.56 45.8805 L1552.13 45.84 Z" fill="#000000" fill-rule="nonzero" fill-opacity="1" /><path clip-path="url(#clip470)" d="M1604.47 28.9478 L1604.47 35.9153 Q1601.31 34.1734 1598.11 33.3227 Q1594.95 32.4315 1591.71 32.4315 Q1584.46 32.4315 1580.45 37.0496 Q1576.44 41.6271 1576.44 49.9314 Q1576.44 58.2358 1580.45 62.8538 Q1584.46 67.4314 1591.71 67.4314 Q1594.95 67.4314 1598.11 66.5807 Q1601.31 65.6895 1604.47 63.9476 L1604.47 70.8341 Q1601.35 72.2924 1597.99 73.0216 Q1594.67 73.7508 1590.9 73.7508 Q1580.65 73.7508 1574.62 67.3098 Q1568.58 60.8689 1568.58 49.9314 Q1568.58 38.832 1574.66 32.472 Q1580.77 26.1121 1591.39 26.1121 Q1594.83 26.1121 1598.11 26.8413 Q1601.39 27.5299 1604.47 28.9478 Z" fill="#000000" fill-rule="nonzero" fill-opacity="1" /><path clip-path="url(#clip470)" d="M1624.81 14.324 L1624.81 27.2059 L1640.16 27.2059 L1640.16 32.9987 L1624.81 32.9987 L1624.81 57.6282 Q1624.81 63.1779 1626.31 64.7578 Q1627.85 66.3376 1632.5 66.3376 L1640.16 66.3376 L1640.16 72.576 L1632.5 72.576 Q1623.88 72.576 1620.59 69.3758 Q1617.31 66.1351 1617.31 57.6282 L1617.31 32.9987 L1611.84 32.9987 L1611.84 27.2059 L1617.31 27.2059 L1617.31 14.324 L1624.81 14.324 Z" fill="#000000" fill-rule="nonzero" fill-opacity="1" /><path clip-path="url(#clip470)" d="M1693.92 32.4315 Q1687.92 32.4315 1684.44 37.1306 Q1680.95 41.7891 1680.95 49.9314 Q1680.95 58.0738 1684.4 62.7728 Q1687.88 67.4314 1693.92 67.4314 Q1699.87 67.4314 1703.35 62.7323 Q1706.84 58.0333 1706.84 49.9314 Q1706.84 41.8701 1703.35 37.1711 Q1699.87 32.4315 1693.92 32.4315 M1693.92 26.1121 Q1703.64 26.1121 1709.19 32.4315 Q1714.74 38.7509 1714.74 49.9314 Q1714.74 61.0714 1709.19 67.4314 Q1703.64 73.7508 1693.92 73.7508 Q1684.15 73.7508 1678.6 67.4314 Q1673.09 61.0714 1673.09 49.9314 Q1673.09 38.7509 1678.6 32.4315 Q1684.15 26.1121 1693.92 26.1121 Z" fill="#000000" fill-rule="nonzero" fill-opacity="1" /><path clip-path="url(#clip470)" d="M1750.06 9.54393 L1750.06 15.7418 L1742.93 15.7418 Q1738.92 15.7418 1737.34 17.3622 Q1735.8 18.9825 1735.8 23.1955 L1735.8 27.2059 L1748.08 27.2059 L1748.08 32.9987 L1735.8 32.9987 L1735.8 72.576 L1728.31 72.576 L1728.31 32.9987 L1721.18 32.9987 L1721.18 27.2059 L1728.31 27.2059 L1728.31 24.0462 Q1728.31 16.471 1731.83 13.0277 Q1735.36 9.54393 1743.01 9.54393 L1750.06 9.54393 Z" fill="#000000" fill-rule="nonzero" fill-opacity="1" /><path clip-path="url(#clip470)" d="M1782.67 27.2059 L1790.12 27.2059 L1790.12 72.576 L1782.67 72.576 L1782.67 27.2059 M1782.67 9.54393 L1790.12 9.54393 L1790.12 18.9825 L1782.67 18.9825 L1782.67 9.54393 Z" fill="#000000" fill-rule="nonzero" fill-opacity="1" /><path clip-path="url(#clip470)" d="M1843.43 45.1919 L1843.43 72.576 L1835.98 72.576 L1835.98 45.4349 Q1835.98 38.994 1833.47 35.7938 Q1830.96 32.5936 1825.93 32.5936 Q1819.9 32.5936 1816.41 36.4419 Q1812.93 40.2903 1812.93 46.9338 L1812.93 72.576 L1805.44 72.576 L1805.44 27.2059 L1812.93 27.2059 L1812.93 34.2544 Q1815.6 30.163 1819.21 28.1376 Q1822.86 26.1121 1827.6 26.1121 Q1835.41 26.1121 1839.42 30.9732 Q1843.43 35.7938 1843.43 45.1919 Z" fill="#000000" fill-rule="nonzero" fill-opacity="1" /><path clip-path="url(#clip470)" d="M1858.3 27.2059 L1865.75 27.2059 L1865.75 72.576 L1858.3 72.576 L1858.3 27.2059 M1858.3 9.54393 L1865.75 9.54393 L1865.75 18.9825 L1858.3 18.9825 L1858.3 9.54393 Z" fill="#000000" fill-rule="nonzero" fill-opacity="1" /><path clip-path="url(#clip470)" d="M1888.72 14.324 L1888.72 27.2059 L1904.08 27.2059 L1904.08 32.9987 L1888.72 32.9987 L1888.72 57.6282 Q1888.72 63.1779 1890.22 64.7578 Q1891.76 66.3376 1896.42 66.3376 L1904.08 66.3376 L1904.08 72.576 L1896.42 72.576 Q1887.79 72.576 1884.51 69.3758 Q1881.23 66.1351 1881.23 57.6282 L1881.23 32.9987 L1875.76 32.9987 L1875.76 27.2059 L1881.23 27.2059 L1881.23 14.324 L1888.72 14.324 Z" fill="#000000" fill-rule="nonzero" fill-opacity="1" /><path clip-path="url(#clip470)" d="M1913.88 27.2059 L1921.33 27.2059 L1921.33 72.576 L1913.88 72.576 L1913.88 27.2059 M1913.88 9.54393 L1921.33 9.54393 L1921.33 18.9825 L1913.88 18.9825 L1913.88 9.54393 Z" fill="#000000" fill-rule="nonzero" fill-opacity="1" /><path clip-path="url(#clip470)" d="M1957.55 49.7694 Q1948.51 49.7694 1945.03 51.8354 Q1941.55 53.9013 1941.55 58.8839 Q1941.55 62.8538 1944.14 65.2034 Q1946.77 67.5124 1951.27 67.5124 Q1957.47 67.5124 1961.19 63.1374 Q1964.96 58.7219 1964.96 51.4303 L1964.96 49.7694 L1957.55 49.7694 M1972.42 46.6907 L1972.42 72.576 L1964.96 72.576 L1964.96 65.6895 Q1962.41 69.8214 1958.6 71.8063 Q1954.79 73.7508 1949.28 73.7508 Q1942.32 73.7508 1938.19 69.8619 Q1934.09 65.9325 1934.09 59.3701 Q1934.09 51.7138 1939.2 47.825 Q1944.34 43.9361 1954.51 43.9361 L1964.96 43.9361 L1964.96 43.2069 Q1964.96 38.0623 1961.56 35.2672 Q1958.2 32.4315 1952.08 32.4315 Q1948.19 32.4315 1944.5 33.3632 Q1940.82 34.295 1937.42 36.1584 L1937.42 29.2718 Q1941.51 27.692 1945.36 26.9223 Q1949.2 26.1121 1952.85 26.1121 Q1962.69 26.1121 1967.55 31.2163 Q1972.42 36.3204 1972.42 46.6907 Z" fill="#000000" fill-rule="nonzero" fill-opacity="1" /><path clip-path="url(#clip470)" d="M1987.77 9.54393 L1995.22 9.54393 L1995.22 72.576 L1987.77 72.576 L1987.77 9.54393 Z" fill="#000000" fill-rule="nonzero" fill-opacity="1" /><path clip-path="url(#clip470)" d="M2066.11 28.5427 L2066.11 35.5912 Q2062.95 33.9709 2059.55 33.1607 Q2056.15 32.3505 2052.5 32.3505 Q2046.95 32.3505 2044.16 34.0519 Q2041.4 35.7533 2041.4 39.156 Q2041.4 41.7486 2043.39 43.2475 Q2045.37 44.7058 2051.37 46.0426 L2053.92 46.6097 Q2061.86 48.3111 2065.18 51.4303 Q2068.54 54.509 2068.54 60.0587 Q2068.54 66.3781 2063.52 70.0644 Q2058.54 73.7508 2049.79 73.7508 Q2046.14 73.7508 2042.17 73.0216 Q2038.24 72.3329 2033.87 70.9151 L2033.87 63.2184 Q2038 65.3654 2042.01 66.4591 Q2046.02 67.5124 2049.95 67.5124 Q2055.22 67.5124 2058.05 65.73 Q2060.89 63.9071 2060.89 60.6258 Q2060.89 57.5877 2058.82 55.9673 Q2056.8 54.3469 2049.87 52.8481 L2047.28 52.2405 Q2040.35 50.7821 2037.27 47.7845 Q2034.19 44.7463 2034.19 39.4801 Q2034.19 33.0797 2038.73 29.5959 Q2043.27 26.1121 2051.61 26.1121 Q2055.74 26.1121 2059.39 26.7198 Q2063.03 27.3274 2066.11 28.5427 Z" fill="#000000" fill-rule="nonzero" fill-opacity="1" /><path clip-path="url(#clip470)" d="M2087.79 14.324 L2087.79 27.2059 L2103.14 27.2059 L2103.14 32.9987 L2087.79 32.9987 L2087.79 57.6282 Q2087.79 63.1779 2089.28 64.7578 Q2090.82 66.3376 2095.48 66.3376 L2103.14 66.3376 L2103.14 72.576 L2095.48 72.576 Q2086.85 72.576 2083.57 69.3758 Q2080.29 66.1351 2080.29 57.6282 L2080.29 32.9987 L2074.82 32.9987 L2074.82 27.2059 L2080.29 27.2059 L2080.29 14.324 L2087.79 14.324 Z" fill="#000000" fill-rule="nonzero" fill-opacity="1" /><path clip-path="url(#clip470)" d="M2139.23 34.1734 Q2137.98 33.4443 2136.48 33.1202 Q2135.02 32.7556 2133.24 32.7556 Q2126.92 32.7556 2123.51 36.8875 Q2120.15 40.9789 2120.15 48.6757 L2120.15 72.576 L2112.66 72.576 L2112.66 27.2059 L2120.15 27.2059 L2120.15 34.2544 Q2122.5 30.1225 2126.27 28.1376 Q2130.04 26.1121 2135.42 26.1121 Q2136.19 26.1121 2137.13 26.2337 Q2138.06 26.3147 2139.19 26.5172 L2139.23 34.1734 Z" fill="#000000" fill-rule="nonzero" fill-opacity="1" /><path clip-path="url(#clip470)" d="M2146.28 54.671 L2146.28 27.2059 L2153.73 27.2059 L2153.73 54.3874 Q2153.73 60.8284 2156.25 64.0691 Q2158.76 67.2693 2163.78 67.2693 Q2169.82 67.2693 2173.3 63.421 Q2176.82 59.5726 2176.82 52.9291 L2176.82 27.2059 L2184.28 27.2059 L2184.28 72.576 L2176.82 72.576 L2176.82 65.6084 Q2174.11 69.7404 2170.5 71.7658 Q2166.94 73.7508 2162.2 73.7508 Q2154.38 73.7508 2150.33 68.8897 Q2146.28 64.0286 2146.28 54.671 M2165.04 26.1121 L2165.04 26.1121 Z" fill="#000000" fill-rule="nonzero" fill-opacity="1" /><path clip-path="url(#clip470)" d="M2232.28 28.9478 L2232.28 35.9153 Q2229.12 34.1734 2225.92 33.3227 Q2222.76 32.4315 2219.52 32.4315 Q2212.27 32.4315 2208.26 37.0496 Q2204.25 41.6271 2204.25 49.9314 Q2204.25 58.2358 2208.26 62.8538 Q2212.27 67.4314 2219.52 67.4314 Q2222.76 67.4314 2225.92 66.5807 Q2229.12 65.6895 2232.28 63.9476 L2232.28 70.8341 Q2229.16 72.2924 2225.8 73.0216 Q2222.48 73.7508 2218.71 73.7508 Q2208.46 73.7508 2202.43 67.3098 Q2196.39 60.8689 2196.39 49.9314 Q2196.39 38.832 2202.47 32.472 Q2208.58 26.1121 2219.2 26.1121 Q2222.64 26.1121 2225.92 26.8413 Q2229.2 27.5299 2232.28 28.9478 Z" fill="#000000" fill-rule="nonzero" fill-opacity="1" /><path clip-path="url(#clip470)" d="M2252.62 14.324 L2252.62 27.2059 L2267.97 27.2059 L2267.97 32.9987 L2252.62 32.9987 L2252.62 57.6282 Q2252.62 63.1779 2254.12 64.7578 Q2255.65 66.3376 2260.31 66.3376 L2267.97 66.3376 L2267.97 72.576 L2260.31 72.576 Q2251.68 72.576 2248.4 69.3758 Q2245.12 66.1351 2245.12 57.6282 L2245.12 32.9987 L2239.65 32.9987 L2239.65 27.2059 L2245.12 27.2059 L2245.12 14.324 L2252.62 14.324 Z" fill="#000000" fill-rule="nonzero" fill-opacity="1" /><path clip-path="url(#clip470)" d="M2277 54.671 L2277 27.2059 L2284.46 27.2059 L2284.46 54.3874 Q2284.46 60.8284 2286.97 64.0691 Q2289.48 67.2693 2294.5 67.2693 Q2300.54 67.2693 2304.02 63.421 Q2307.55 59.5726 2307.55 52.9291 L2307.55 27.2059 L2315 27.2059 L2315 72.576 L2307.55 72.576 L2307.55 65.6084 Q2304.83 69.7404 2301.23 71.7658 Q2297.66 73.7508 2292.92 73.7508 Q2285.1 73.7508 2281.05 68.8897 Q2277 64.0286 2277 54.671 M2295.76 26.1121 L2295.76 26.1121 Z" fill="#000000" fill-rule="nonzero" fill-opacity="1" /><path clip-path="url(#clip470)" d="M2356.64 34.1734 Q2355.39 33.4443 2353.89 33.1202 Q2352.43 32.7556 2350.65 32.7556 Q2344.33 32.7556 2340.93 36.8875 Q2337.56 40.9789 2337.56 48.6757 L2337.56 72.576 L2330.07 72.576 L2330.07 27.2059 L2337.56 27.2059 L2337.56 34.2544 Q2339.91 30.1225 2343.68 28.1376 Q2347.45 26.1121 2352.84 26.1121 Q2353.61 26.1121 2354.54 26.2337 Q2355.47 26.3147 2356.6 26.5172 L2356.64 34.1734 Z" fill="#000000" fill-rule="nonzero" fill-opacity="1" /><path clip-path="url(#clip470)" d="M2401.45 48.0275 L2401.45 51.6733 L2367.18 51.6733 Q2367.66 59.3701 2371.79 63.421 Q2375.97 67.4314 2383.38 67.4314 Q2387.67 67.4314 2391.68 66.3781 Q2395.73 65.3249 2399.7 63.2184 L2399.7 70.267 Q2395.69 71.9684 2391.48 72.8596 Q2387.27 73.7508 2382.93 73.7508 Q2372.08 73.7508 2365.72 67.4314 Q2359.4 61.1119 2359.4 50.3365 Q2359.4 39.1965 2365.39 32.6746 Q2371.43 26.1121 2381.64 26.1121 Q2390.79 26.1121 2396.1 32.0264 Q2401.45 37.9003 2401.45 48.0275 M2393.99 45.84 Q2393.91 39.7232 2390.55 36.0774 Q2387.23 32.4315 2381.72 32.4315 Q2375.48 32.4315 2371.71 35.9558 Q2367.99 39.4801 2367.42 45.8805 L2393.99 45.84 Z" fill="#000000" fill-rule="nonzero" fill-opacity="1" /><polyline clip-path="url(#clip471)" style="stroke:#009af9; stroke-linecap:round; stroke-linejoin:round; stroke-width:8; stroke-opacity:1; fill:none" points="293.916,1688.65 372.485,1688.65 451.053,1688.65 529.622,1682.89 608.19,1653.39 686.759,1594.19 765.327,1516.99 843.896,1447.68 922.464,1405.75 1001.03,1391.87 1079.6,1396.08 1158.17,1408.44 1236.74,1422.62 1315.31,1435.37 1393.87,1445.35 1472.44,1452.28 1551.01,1456.4 1629.58,1458.24 1708.15,1458.45 1786.72,1457.65 1865.29,1456.39 1943.85,1455.06 2022.42,1453.91 2100.99,1453.06 2179.56,1452.53 2258.13,1452.28 2336.7,1452.23 2415.26,1452.3 2493.83,1452.44 2572.4,1452.59 "/>
<polyline clip-path="url(#clip471)" style="stroke:#e26f46; stroke-linecap:round; stroke-linejoin:round; stroke-width:8; stroke-opacity:1; fill:none" points="293.916,173.254 372.485,1103.83 451.053,1308.44 529.622,1397.67 608.19,1446.32 686.759,1473.42 765.327,1486.36 843.896,1489.27 922.464,1485.42 1001.03,1477.76 1079.6,1468.91 1158.17,1460.81 1236.74,1454.62 1315.31,1450.66 1393.87,1448.71 1472.44,1448.28 1551.01,1448.8 1629.58,1449.77 1708.15,1450.86 1786.72,1451.82 1865.29,1452.56 1943.85,1453.04 2022.42,1453.29 2100.99,1453.37 2179.56,1453.33 2258.13,1453.23 2336.7,1453.11 2415.26,1453 2493.83,1452.91 2572.4,1452.85 "/>
<polyline clip-path="url(#clip471)" style="stroke:#3da44d; stroke-linecap:round; stroke-linejoin:round; stroke-width:8; stroke-opacity:1; fill:none" points="293.916,1358.97 372.485,1356.68 451.053,1373.52 529.622,1395.82 608.19,1416.91 686.759,1434.09 765.327,1446.66 843.896,1454.83 922.464,1459.28 1001.03,1460.87 1079.6,1460.51 1158.17,1459.03 1236.74,1457.14 1315.31,1455.31 1393.87,1453.82 1472.44,1452.79 1551.01,1452.2 1629.58,1451.96 1708.15,1451.97 1786.72,1452.13 1865.29,1452.34 1943.85,1452.55 2022.42,1452.73 2100.99,1452.85 2179.56,1452.93 2258.13,1452.96 2336.7,1452.97 2415.26,1452.95 2493.83,1452.93 2572.4,1452.9 "/>
<polyline clip-path="url(#clip471)" style="stroke:#000000; stroke-linecap:round; stroke-linejoin:round; stroke-width:4; stroke-opacity:1; fill:none" stroke-dasharray="16, 10" points="-2189.63,1452.87 5055.95,1452.87 "/>
<path clip-path="url(#clip470)" d="M1909.87 1680.57 L2560.25 1680.57 L2560.25 1421.37 L1909.87 1421.37  Z" fill="#ffffff" fill-rule="evenodd" fill-opacity="1"/>
<polyline clip-path="url(#clip470)" style="stroke:#000000; stroke-linecap:round; stroke-linejoin:round; stroke-width:4; stroke-opacity:1; fill:none" points="1909.87,1680.57 2560.25,1680.57 2560.25,1421.37 1909.87,1421.37 1909.87,1680.57 "/>
<polyline clip-path="url(#clip470)" style="stroke:#009af9; stroke-linecap:round; stroke-linejoin:round; stroke-width:8; stroke-opacity:1; fill:none" points="1936.7,1473.21 2097.71,1473.21 "/>
<path clip-path="url(#clip470)" d="M2140.38 1460.54 L2134.04 1477.74 L2146.75 1477.74 L2140.38 1460.54 M2137.74 1455.93 L2143.05 1455.93 L2156.22 1490.49 L2151.36 1490.49 L2148.21 1481.63 L2132.63 1481.63 L2129.48 1490.49 L2124.55 1490.49 L2137.74 1455.93 Z" fill="#000000" fill-rule="nonzero" fill-opacity="1" /><path clip-path="url(#clip470)" d="M2161.08 1454.47 L2165.34 1454.47 L2165.34 1490.49 L2161.08 1490.49 L2161.08 1454.47 Z" fill="#000000" fill-rule="nonzero" fill-opacity="1" /><path clip-path="url(#clip470)" d="M2174.25 1454.47 L2178.51 1454.47 L2178.51 1490.49 L2174.25 1490.49 L2174.25 1454.47 Z" fill="#000000" fill-rule="nonzero" fill-opacity="1" /><path clip-path="url(#clip470)" d="M2213.28 1492.9 Q2211.47 1497.53 2209.76 1498.94 Q2208.05 1500.35 2205.17 1500.35 L2201.77 1500.35 L2201.77 1496.79 L2204.27 1496.79 Q2206.03 1496.79 2207 1495.96 Q2207.98 1495.12 2209.16 1492.02 L2209.92 1490.08 L2199.43 1464.57 L2203.95 1464.57 L2212.05 1484.84 L2220.15 1464.57 L2224.67 1464.57 L2213.28 1492.9 Z" fill="#000000" fill-rule="nonzero" fill-opacity="1" /><path clip-path="url(#clip470)" d="M2252.72 1476.47 L2252.72 1478.55 L2233.14 1478.55 Q2233.42 1482.95 2235.78 1485.26 Q2238.16 1487.55 2242.4 1487.55 Q2244.85 1487.55 2247.14 1486.95 Q2249.46 1486.35 2251.73 1485.15 L2251.73 1489.17 Q2249.43 1490.15 2247.03 1490.65 Q2244.62 1491.16 2242.14 1491.16 Q2235.94 1491.16 2232.3 1487.55 Q2228.69 1483.94 2228.69 1477.78 Q2228.69 1471.42 2232.12 1467.69 Q2235.57 1463.94 2241.4 1463.94 Q2246.63 1463.94 2249.67 1467.32 Q2252.72 1470.68 2252.72 1476.47 M2248.46 1475.22 Q2248.42 1471.72 2246.49 1469.64 Q2244.6 1467.55 2241.45 1467.55 Q2237.88 1467.55 2235.73 1469.57 Q2233.6 1471.58 2233.28 1475.24 L2248.46 1475.22 Z" fill="#000000" fill-rule="nonzero" fill-opacity="1" /><path clip-path="url(#clip470)" d="M2271.49 1477.46 Q2266.33 1477.46 2264.34 1478.64 Q2262.35 1479.82 2262.35 1482.67 Q2262.35 1484.94 2263.83 1486.28 Q2265.34 1487.6 2267.91 1487.6 Q2271.45 1487.6 2273.58 1485.1 Q2275.73 1482.58 2275.73 1478.41 L2275.73 1477.46 L2271.49 1477.46 M2279.99 1475.7 L2279.99 1490.49 L2275.73 1490.49 L2275.73 1486.56 Q2274.27 1488.92 2272.1 1490.05 Q2269.92 1491.16 2266.77 1491.16 Q2262.79 1491.16 2260.43 1488.94 Q2258.09 1486.7 2258.09 1482.95 Q2258.09 1478.57 2261.01 1476.35 Q2263.95 1474.13 2269.76 1474.13 L2275.73 1474.13 L2275.73 1473.71 Q2275.73 1470.77 2273.79 1469.17 Q2271.86 1467.55 2268.37 1467.55 Q2266.15 1467.55 2264.04 1468.09 Q2261.93 1468.62 2259.99 1469.68 L2259.99 1465.75 Q2262.33 1464.84 2264.53 1464.41 Q2266.73 1463.94 2268.81 1463.94 Q2274.43 1463.94 2277.21 1466.86 Q2279.99 1469.78 2279.99 1475.7 Z" fill="#000000" fill-rule="nonzero" fill-opacity="1" /><path clip-path="url(#clip470)" d="M2303.79 1468.55 Q2303.07 1468.13 2302.21 1467.95 Q2301.38 1467.74 2300.36 1467.74 Q2296.75 1467.74 2294.8 1470.1 Q2292.88 1472.44 2292.88 1476.84 L2292.88 1490.49 L2288.6 1490.49 L2288.6 1464.57 L2292.88 1464.57 L2292.88 1468.59 Q2294.23 1466.23 2296.38 1465.1 Q2298.53 1463.94 2301.61 1463.94 Q2302.05 1463.94 2302.58 1464.01 Q2303.11 1464.06 2303.76 1464.17 L2303.79 1468.55 Z" fill="#000000" fill-rule="nonzero" fill-opacity="1" /><path clip-path="url(#clip470)" d="M2308.25 1454.47 L2312.51 1454.47 L2312.51 1490.49 L2308.25 1490.49 L2308.25 1454.47 Z" fill="#000000" fill-rule="nonzero" fill-opacity="1" /><path clip-path="url(#clip470)" d="M2321.42 1464.57 L2325.68 1464.57 L2325.68 1490.49 L2321.42 1490.49 L2321.42 1464.57 M2321.42 1454.47 L2325.68 1454.47 L2325.68 1459.87 L2321.42 1459.87 L2321.42 1454.47 Z" fill="#000000" fill-rule="nonzero" fill-opacity="1" /><path clip-path="url(#clip470)" d="M2356.15 1474.84 L2356.15 1490.49 L2351.89 1490.49 L2351.89 1474.98 Q2351.89 1471.3 2350.45 1469.47 Q2349.02 1467.65 2346.15 1467.65 Q2342.7 1467.65 2340.71 1469.84 Q2338.72 1472.04 2338.72 1475.84 L2338.72 1490.49 L2334.43 1490.49 L2334.43 1464.57 L2338.72 1464.57 L2338.72 1468.59 Q2340.24 1466.26 2342.3 1465.1 Q2344.39 1463.94 2347.1 1463.94 Q2351.56 1463.94 2353.85 1466.72 Q2356.15 1469.47 2356.15 1474.84 Z" fill="#000000" fill-rule="nonzero" fill-opacity="1" /><path clip-path="url(#clip470)" d="M2381.7 1477.23 Q2381.7 1472.6 2379.78 1470.05 Q2377.88 1467.51 2374.43 1467.51 Q2371.01 1467.51 2369.09 1470.05 Q2367.19 1472.6 2367.19 1477.23 Q2367.19 1481.84 2369.09 1484.38 Q2371.01 1486.93 2374.43 1486.93 Q2377.88 1486.93 2379.78 1484.38 Q2381.7 1481.84 2381.7 1477.23 M2385.96 1487.28 Q2385.96 1493.9 2383.02 1497.11 Q2380.08 1500.35 2374.02 1500.35 Q2371.77 1500.35 2369.78 1500.01 Q2367.79 1499.68 2365.91 1498.99 L2365.91 1494.84 Q2367.79 1495.86 2369.62 1496.35 Q2371.45 1496.84 2373.35 1496.84 Q2377.54 1496.84 2379.62 1494.64 Q2381.7 1492.46 2381.7 1488.04 L2381.7 1485.93 Q2380.38 1488.22 2378.32 1489.36 Q2376.26 1490.49 2373.39 1490.49 Q2368.62 1490.49 2365.71 1486.86 Q2362.79 1483.22 2362.79 1477.23 Q2362.79 1471.21 2365.71 1467.58 Q2368.62 1463.94 2373.39 1463.94 Q2376.26 1463.94 2378.32 1465.08 Q2380.38 1466.21 2381.7 1468.5 L2381.7 1464.57 L2385.96 1464.57 L2385.96 1487.28 Z" fill="#000000" fill-rule="nonzero" fill-opacity="1" /><path clip-path="url(#clip470)" d="M2411.26 1465.33 L2411.26 1469.36 Q2409.46 1468.43 2407.51 1467.97 Q2405.57 1467.51 2403.48 1467.51 Q2400.31 1467.51 2398.72 1468.48 Q2397.14 1469.45 2397.14 1471.4 Q2397.14 1472.88 2398.28 1473.73 Q2399.41 1474.57 2402.84 1475.33 L2404.29 1475.65 Q2408.83 1476.63 2410.73 1478.41 Q2412.65 1480.17 2412.65 1483.34 Q2412.65 1486.95 2409.78 1489.06 Q2406.93 1491.16 2401.93 1491.16 Q2399.85 1491.16 2397.58 1490.75 Q2395.34 1490.35 2392.84 1489.54 L2392.84 1485.15 Q2395.2 1486.37 2397.49 1487 Q2399.78 1487.6 2402.03 1487.6 Q2405.04 1487.6 2406.66 1486.58 Q2408.28 1485.54 2408.28 1483.66 Q2408.28 1481.93 2407.1 1481 Q2405.94 1480.08 2401.98 1479.22 L2400.5 1478.87 Q2396.54 1478.04 2394.78 1476.33 Q2393.02 1474.59 2393.02 1471.58 Q2393.02 1467.92 2395.61 1465.93 Q2398.21 1463.94 2402.97 1463.94 Q2405.34 1463.94 2407.42 1464.29 Q2409.5 1464.64 2411.26 1465.33 Z" fill="#000000" fill-rule="nonzero" fill-opacity="1" /><polyline clip-path="url(#clip470)" style="stroke:#e26f46; stroke-linecap:round; stroke-linejoin:round; stroke-width:8; stroke-opacity:1; fill:none" points="1936.7,1525.05 2097.71,1525.05 "/>
<path clip-path="url(#clip470)" d="M2140.38 1512.38 L2134.04 1529.58 L2146.75 1529.58 L2140.38 1512.38 M2137.74 1507.77 L2143.05 1507.77 L2156.22 1542.33 L2151.36 1542.33 L2148.21 1533.47 L2132.63 1533.47 L2129.48 1542.33 L2124.55 1542.33 L2137.74 1507.77 Z" fill="#000000" fill-rule="nonzero" fill-opacity="1" /><path clip-path="url(#clip470)" d="M2161.08 1506.31 L2165.34 1506.31 L2165.34 1542.33 L2161.08 1542.33 L2161.08 1506.31 Z" fill="#000000" fill-rule="nonzero" fill-opacity="1" /><path clip-path="url(#clip470)" d="M2174.25 1506.31 L2178.51 1506.31 L2178.51 1542.33 L2174.25 1542.33 L2174.25 1506.31 Z" fill="#000000" fill-rule="nonzero" fill-opacity="1" /><path clip-path="url(#clip470)" d="M2214.27 1529.3 Q2209.11 1529.3 2207.12 1530.48 Q2205.13 1531.66 2205.13 1534.51 Q2205.13 1536.78 2206.61 1538.12 Q2208.11 1539.44 2210.68 1539.44 Q2214.23 1539.44 2216.36 1536.94 Q2218.51 1534.42 2218.51 1530.25 L2218.51 1529.3 L2214.27 1529.3 M2222.77 1527.54 L2222.77 1542.33 L2218.51 1542.33 L2218.51 1538.4 Q2217.05 1540.76 2214.87 1541.89 Q2212.7 1543 2209.55 1543 Q2205.57 1543 2203.21 1540.78 Q2200.87 1538.54 2200.87 1534.79 Q2200.87 1530.41 2203.79 1528.19 Q2206.73 1525.97 2212.54 1525.97 L2218.51 1525.97 L2218.51 1525.55 Q2218.51 1522.61 2216.56 1521.01 Q2214.64 1519.39 2211.15 1519.39 Q2208.92 1519.39 2206.82 1519.93 Q2204.71 1520.46 2202.77 1521.52 L2202.77 1517.59 Q2205.11 1516.68 2207.3 1516.25 Q2209.5 1515.78 2211.59 1515.78 Q2217.21 1515.78 2219.99 1518.7 Q2222.77 1521.62 2222.77 1527.54 Z" fill="#000000" fill-rule="nonzero" fill-opacity="1" /><path clip-path="url(#clip470)" d="M2248.6 1520.34 L2248.6 1506.31 L2252.86 1506.31 L2252.86 1542.33 L2248.6 1542.33 L2248.6 1538.44 Q2247.26 1540.76 2245.2 1541.89 Q2243.16 1543 2240.29 1543 Q2235.59 1543 2232.63 1539.25 Q2229.69 1535.5 2229.69 1529.39 Q2229.69 1523.28 2232.63 1519.53 Q2235.59 1515.78 2240.29 1515.78 Q2243.16 1515.78 2245.2 1516.92 Q2247.26 1518.03 2248.6 1520.34 M2234.09 1529.39 Q2234.09 1534.09 2236.01 1536.78 Q2237.95 1539.44 2241.33 1539.44 Q2244.71 1539.44 2246.66 1536.78 Q2248.6 1534.09 2248.6 1529.39 Q2248.6 1524.69 2246.66 1522.03 Q2244.71 1519.35 2241.33 1519.35 Q2237.95 1519.35 2236.01 1522.03 Q2234.09 1524.69 2234.09 1529.39 Z" fill="#000000" fill-rule="nonzero" fill-opacity="1" /><path clip-path="url(#clip470)" d="M2261.19 1532.1 L2261.19 1516.41 L2265.45 1516.41 L2265.45 1531.94 Q2265.45 1535.62 2266.89 1537.47 Q2268.32 1539.3 2271.19 1539.3 Q2274.64 1539.3 2276.63 1537.1 Q2278.65 1534.9 2278.65 1531.11 L2278.65 1516.41 L2282.91 1516.41 L2282.91 1542.33 L2278.65 1542.33 L2278.65 1538.35 Q2277.1 1540.71 2275.04 1541.87 Q2273 1543 2270.29 1543 Q2265.82 1543 2263.51 1540.23 Q2261.19 1537.45 2261.19 1532.1 M2271.91 1515.78 L2271.91 1515.78 Z" fill="#000000" fill-rule="nonzero" fill-opacity="1" /><path clip-path="url(#clip470)" d="M2291.68 1506.31 L2295.94 1506.31 L2295.94 1542.33 L2291.68 1542.33 L2291.68 1506.31 Z" fill="#000000" fill-rule="nonzero" fill-opacity="1" /><path clip-path="url(#clip470)" d="M2309.06 1509.05 L2309.06 1516.41 L2317.84 1516.41 L2317.84 1519.72 L2309.06 1519.72 L2309.06 1533.79 Q2309.06 1536.96 2309.92 1537.87 Q2310.8 1538.77 2313.46 1538.77 L2317.84 1538.77 L2317.84 1542.33 L2313.46 1542.33 Q2308.53 1542.33 2306.66 1540.5 Q2304.78 1538.65 2304.78 1533.79 L2304.78 1519.72 L2301.66 1519.72 L2301.66 1516.41 L2304.78 1516.41 L2304.78 1509.05 L2309.06 1509.05 Z" fill="#000000" fill-rule="nonzero" fill-opacity="1" /><path clip-path="url(#clip470)" d="M2339.97 1517.17 L2339.97 1521.2 Q2338.16 1520.27 2336.22 1519.81 Q2334.27 1519.35 2332.19 1519.35 Q2329.02 1519.35 2327.42 1520.32 Q2325.85 1521.29 2325.85 1523.24 Q2325.85 1524.72 2326.98 1525.57 Q2328.11 1526.41 2331.54 1527.17 L2333 1527.49 Q2337.54 1528.47 2339.43 1530.25 Q2341.35 1532.01 2341.35 1535.18 Q2341.35 1538.79 2338.48 1540.9 Q2335.64 1543 2330.64 1543 Q2328.55 1543 2326.29 1542.59 Q2324.04 1542.19 2321.54 1541.38 L2321.54 1536.99 Q2323.9 1538.21 2326.19 1538.84 Q2328.48 1539.44 2330.73 1539.44 Q2333.74 1539.44 2335.36 1538.42 Q2336.98 1537.38 2336.98 1535.5 Q2336.98 1533.77 2335.8 1532.84 Q2334.64 1531.92 2330.68 1531.06 L2329.2 1530.71 Q2325.24 1529.88 2323.48 1528.17 Q2321.73 1526.43 2321.73 1523.42 Q2321.73 1519.76 2324.32 1517.77 Q2326.91 1515.78 2331.68 1515.78 Q2334.04 1515.78 2336.12 1516.13 Q2338.21 1516.48 2339.97 1517.17 Z" fill="#000000" fill-rule="nonzero" fill-opacity="1" /><polyline clip-path="url(#clip470)" style="stroke:#3da44d; stroke-linecap:round; stroke-linejoin:round; stroke-width:8; stroke-opacity:1; fill:none" points="1936.7,1576.89 2097.71,1576.89 "/>
<path clip-path="url(#clip470)" d="M2124.55 1559.61 L2146.4 1559.61 L2146.4 1563.55 L2129.23 1563.55 L2129.23 1573.78 L2145.68 1573.78 L2145.68 1577.71 L2129.23 1577.71 L2129.23 1590.24 L2146.82 1590.24 L2146.82 1594.17 L2124.55 1594.17 L2124.55 1559.61 Z" fill="#000000" fill-rule="nonzero" fill-opacity="1" /><path clip-path="url(#clip470)" d="M2156.87 1581.23 Q2156.87 1585.93 2158.79 1588.62 Q2160.73 1591.28 2164.11 1591.28 Q2167.49 1591.28 2169.43 1588.62 Q2171.38 1585.93 2171.38 1581.23 Q2171.38 1576.53 2169.43 1573.87 Q2167.49 1571.19 2164.11 1571.19 Q2160.73 1571.19 2158.79 1573.87 Q2156.87 1576.53 2156.87 1581.23 M2171.38 1590.28 Q2170.04 1592.6 2167.98 1593.73 Q2165.94 1594.84 2163.07 1594.84 Q2158.37 1594.84 2155.41 1591.09 Q2152.47 1587.34 2152.47 1581.23 Q2152.47 1575.12 2155.41 1571.37 Q2158.37 1567.62 2163.07 1567.62 Q2165.94 1567.62 2167.98 1568.76 Q2170.04 1569.87 2171.38 1572.18 L2171.38 1568.25 L2175.64 1568.25 L2175.64 1604.03 L2171.38 1604.03 L2171.38 1590.28 Z" fill="#000000" fill-rule="nonzero" fill-opacity="1" /><path clip-path="url(#clip470)" d="M2183.97 1583.94 L2183.97 1568.25 L2188.23 1568.25 L2188.23 1583.78 Q2188.23 1587.46 2189.67 1589.31 Q2191.1 1591.14 2193.97 1591.14 Q2197.42 1591.14 2199.41 1588.94 Q2201.42 1586.74 2201.42 1582.95 L2201.42 1568.25 L2205.68 1568.25 L2205.68 1594.17 L2201.42 1594.17 L2201.42 1590.19 Q2199.87 1592.55 2197.81 1593.71 Q2195.78 1594.84 2193.07 1594.84 Q2188.6 1594.84 2186.29 1592.07 Q2183.97 1589.29 2183.97 1583.94 M2194.69 1567.62 L2194.69 1567.62 Z" fill="#000000" fill-rule="nonzero" fill-opacity="1" /><path clip-path="url(#clip470)" d="M2226.24 1581.14 Q2221.08 1581.14 2219.09 1582.32 Q2217.1 1583.5 2217.1 1586.35 Q2217.1 1588.62 2218.58 1589.96 Q2220.08 1591.28 2222.65 1591.28 Q2226.19 1591.28 2228.32 1588.78 Q2230.48 1586.26 2230.48 1582.09 L2230.48 1581.14 L2226.24 1581.14 M2234.73 1579.38 L2234.73 1594.17 L2230.48 1594.17 L2230.48 1590.24 Q2229.02 1592.6 2226.84 1593.73 Q2224.67 1594.84 2221.52 1594.84 Q2217.54 1594.84 2215.17 1592.62 Q2212.84 1590.38 2212.84 1586.63 Q2212.84 1582.25 2215.75 1580.03 Q2218.69 1577.81 2224.5 1577.81 L2230.48 1577.81 L2230.48 1577.39 Q2230.48 1574.45 2228.53 1572.85 Q2226.61 1571.23 2223.11 1571.23 Q2220.89 1571.23 2218.79 1571.77 Q2216.68 1572.3 2214.74 1573.36 L2214.74 1569.43 Q2217.07 1568.52 2219.27 1568.09 Q2221.47 1567.62 2223.55 1567.62 Q2229.18 1567.62 2231.96 1570.54 Q2234.73 1573.46 2234.73 1579.38 Z" fill="#000000" fill-rule="nonzero" fill-opacity="1" /><path clip-path="url(#clip470)" d="M2243.51 1558.15 L2247.77 1558.15 L2247.77 1594.17 L2243.51 1594.17 L2243.51 1558.15 Z" fill="#000000" fill-rule="nonzero" fill-opacity="1" /><path clip-path="url(#clip470)" d="M2288.81 1572.18 L2288.81 1558.15 L2293.07 1558.15 L2293.07 1594.17 L2288.81 1594.17 L2288.81 1590.28 Q2287.47 1592.6 2285.41 1593.73 Q2283.37 1594.84 2280.5 1594.84 Q2275.8 1594.84 2272.84 1591.09 Q2269.9 1587.34 2269.9 1581.23 Q2269.9 1575.12 2272.84 1571.37 Q2275.8 1567.62 2280.5 1567.62 Q2283.37 1567.62 2285.41 1568.76 Q2287.47 1569.87 2288.81 1572.18 M2274.29 1581.23 Q2274.29 1585.93 2276.22 1588.62 Q2278.16 1591.28 2281.54 1591.28 Q2284.92 1591.28 2286.86 1588.62 Q2288.81 1585.93 2288.81 1581.23 Q2288.81 1576.53 2286.86 1573.87 Q2284.92 1571.19 2281.54 1571.19 Q2278.16 1571.19 2276.22 1573.87 Q2274.29 1576.53 2274.29 1581.23 Z" fill="#000000" fill-rule="nonzero" fill-opacity="1" /><path clip-path="url(#clip470)" d="M2301.84 1568.25 L2306.1 1568.25 L2306.1 1594.17 L2301.84 1594.17 L2301.84 1568.25 M2301.84 1558.15 L2306.1 1558.15 L2306.1 1563.55 L2301.84 1563.55 L2301.84 1558.15 Z" fill="#000000" fill-rule="nonzero" fill-opacity="1" /><path clip-path="url(#clip470)" d="M2331.54 1569.01 L2331.54 1573.04 Q2329.73 1572.11 2327.79 1571.65 Q2325.85 1571.19 2323.76 1571.19 Q2320.59 1571.19 2318.99 1572.16 Q2317.42 1573.13 2317.42 1575.08 Q2317.42 1576.56 2318.55 1577.41 Q2319.69 1578.25 2323.11 1579.01 L2324.57 1579.33 Q2329.11 1580.31 2331.01 1582.09 Q2332.93 1583.85 2332.93 1587.02 Q2332.93 1590.63 2330.06 1592.74 Q2327.21 1594.84 2322.21 1594.84 Q2320.13 1594.84 2317.86 1594.43 Q2315.61 1594.03 2313.11 1593.22 L2313.11 1588.83 Q2315.48 1590.05 2317.77 1590.68 Q2320.06 1591.28 2322.3 1591.28 Q2325.31 1591.28 2326.93 1590.26 Q2328.55 1589.22 2328.55 1587.34 Q2328.55 1585.61 2327.37 1584.68 Q2326.22 1583.76 2322.26 1582.9 L2320.78 1582.55 Q2316.82 1581.72 2315.06 1580.01 Q2313.3 1578.27 2313.3 1575.26 Q2313.3 1571.6 2315.89 1569.61 Q2318.48 1567.62 2323.25 1567.62 Q2325.61 1567.62 2327.7 1567.97 Q2329.78 1568.32 2331.54 1569.01 Z" fill="#000000" fill-rule="nonzero" fill-opacity="1" /><path clip-path="url(#clip470)" d="M2343.92 1560.89 L2343.92 1568.25 L2352.7 1568.25 L2352.7 1571.56 L2343.92 1571.56 L2343.92 1585.63 Q2343.92 1588.8 2344.78 1589.71 Q2345.66 1590.61 2348.32 1590.61 L2352.7 1590.61 L2352.7 1594.17 L2348.32 1594.17 Q2343.39 1594.17 2341.52 1592.34 Q2339.64 1590.49 2339.64 1585.63 L2339.64 1571.56 L2336.52 1571.56 L2336.52 1568.25 L2339.64 1568.25 L2339.64 1560.89 L2343.92 1560.89 Z" fill="#000000" fill-rule="nonzero" fill-opacity="1" /><path clip-path="url(#clip470)" d="M2373.32 1572.23 Q2372.6 1571.81 2371.75 1571.63 Q2370.91 1571.42 2369.9 1571.42 Q2366.29 1571.42 2364.34 1573.78 Q2362.42 1576.12 2362.42 1580.52 L2362.42 1594.17 L2358.14 1594.17 L2358.14 1568.25 L2362.42 1568.25 L2362.42 1572.27 Q2363.76 1569.91 2365.91 1568.78 Q2368.07 1567.62 2371.15 1567.62 Q2371.59 1567.62 2372.12 1567.69 Q2372.65 1567.74 2373.3 1567.85 L2373.32 1572.23 Z" fill="#000000" fill-rule="nonzero" fill-opacity="1" /><path clip-path="url(#clip470)" d="M2377.79 1568.25 L2382.05 1568.25 L2382.05 1594.17 L2377.79 1594.17 L2377.79 1568.25 M2377.79 1558.15 L2382.05 1558.15 L2382.05 1563.55 L2377.79 1563.55 L2377.79 1558.15 Z" fill="#000000" fill-rule="nonzero" fill-opacity="1" /><path clip-path="url(#clip470)" d="M2409.57 1581.23 Q2409.57 1576.53 2407.63 1573.87 Q2405.71 1571.19 2402.33 1571.19 Q2398.95 1571.19 2397 1573.87 Q2395.08 1576.53 2395.08 1581.23 Q2395.08 1585.93 2397 1588.62 Q2398.95 1591.28 2402.33 1591.28 Q2405.71 1591.28 2407.63 1588.62 Q2409.57 1585.93 2409.57 1581.23 M2395.08 1572.18 Q2396.42 1569.87 2398.46 1568.76 Q2400.52 1567.62 2403.37 1567.62 Q2408.09 1567.62 2411.03 1571.37 Q2413.99 1575.12 2413.99 1581.23 Q2413.99 1587.34 2411.03 1591.09 Q2408.09 1594.84 2403.37 1594.84 Q2400.52 1594.84 2398.46 1593.73 Q2396.42 1592.6 2395.08 1590.28 L2395.08 1594.17 L2390.8 1594.17 L2390.8 1558.15 L2395.08 1558.15 L2395.08 1572.18 Z" fill="#000000" fill-rule="nonzero" fill-opacity="1" /><path clip-path="url(#clip470)" d="M2420.61 1583.94 L2420.61 1568.25 L2424.87 1568.25 L2424.87 1583.78 Q2424.87 1587.46 2426.31 1589.31 Q2427.74 1591.14 2430.61 1591.14 Q2434.06 1591.14 2436.05 1588.94 Q2438.07 1586.74 2438.07 1582.95 L2438.07 1568.25 L2442.33 1568.25 L2442.33 1594.17 L2438.07 1594.17 L2438.07 1590.19 Q2436.52 1592.55 2434.46 1593.71 Q2432.42 1594.84 2429.71 1594.84 Q2425.24 1594.84 2422.93 1592.07 Q2420.61 1589.29 2420.61 1583.94 M2431.33 1567.62 L2431.33 1567.62 Z" fill="#000000" fill-rule="nonzero" fill-opacity="1" /><path clip-path="url(#clip470)" d="M2455.31 1560.89 L2455.31 1568.25 L2464.09 1568.25 L2464.09 1571.56 L2455.31 1571.56 L2455.31 1585.63 Q2455.31 1588.8 2456.17 1589.71 Q2457.05 1590.61 2459.71 1590.61 L2464.09 1590.61 L2464.09 1594.17 L2459.71 1594.17 Q2454.78 1594.17 2452.91 1592.34 Q2451.03 1590.49 2451.03 1585.63 L2451.03 1571.56 L2447.91 1571.56 L2447.91 1568.25 L2451.03 1568.25 L2451.03 1560.89 L2455.31 1560.89 Z" fill="#000000" fill-rule="nonzero" fill-opacity="1" /><path clip-path="url(#clip470)" d="M2469.69 1568.25 L2473.95 1568.25 L2473.95 1594.17 L2469.69 1594.17 L2469.69 1568.25 M2469.69 1558.15 L2473.95 1558.15 L2473.95 1563.55 L2469.69 1563.55 L2469.69 1558.15 Z" fill="#000000" fill-rule="nonzero" fill-opacity="1" /><path clip-path="url(#clip470)" d="M2492.9 1571.23 Q2489.48 1571.23 2487.49 1573.92 Q2485.5 1576.58 2485.5 1581.23 Q2485.5 1585.89 2487.47 1588.57 Q2489.46 1591.23 2492.9 1591.23 Q2496.31 1591.23 2498.3 1588.55 Q2500.29 1585.86 2500.29 1581.23 Q2500.29 1576.63 2498.3 1573.94 Q2496.31 1571.23 2492.9 1571.23 M2492.9 1567.62 Q2498.46 1567.62 2501.63 1571.23 Q2504.8 1574.84 2504.8 1581.23 Q2504.8 1587.6 2501.63 1591.23 Q2498.46 1594.84 2492.9 1594.84 Q2487.33 1594.84 2484.15 1591.23 Q2481.01 1587.6 2481.01 1581.23 Q2481.01 1574.84 2484.15 1571.23 Q2487.33 1567.62 2492.9 1567.62 Z" fill="#000000" fill-rule="nonzero" fill-opacity="1" /><path clip-path="url(#clip470)" d="M2533.41 1578.52 L2533.41 1594.17 L2529.15 1594.17 L2529.15 1578.66 Q2529.15 1574.98 2527.72 1573.15 Q2526.28 1571.33 2523.41 1571.33 Q2519.96 1571.33 2517.97 1573.52 Q2515.98 1575.72 2515.98 1579.52 L2515.98 1594.17 L2511.7 1594.17 L2511.7 1568.25 L2515.98 1568.25 L2515.98 1572.27 Q2517.51 1569.94 2519.57 1568.78 Q2521.65 1567.62 2524.36 1567.62 Q2528.83 1567.62 2531.12 1570.4 Q2533.41 1573.15 2533.41 1578.52 Z" fill="#000000" fill-rule="nonzero" fill-opacity="1" /><polyline clip-path="url(#clip470)" style="stroke:#000000; stroke-linecap:round; stroke-linejoin:round; stroke-width:4; stroke-opacity:1; fill:none" stroke-dasharray="16, 10" points="1936.7,1628.73 2097.71,1628.73 "/>
<path clip-path="url(#clip470)" d="M2140.38 1616.06 L2134.04 1633.26 L2146.75 1633.26 L2140.38 1616.06 M2137.74 1611.45 L2143.05 1611.45 L2156.22 1646.01 L2151.36 1646.01 L2148.21 1637.15 L2132.63 1637.15 L2129.48 1646.01 L2124.55 1646.01 L2137.74 1611.45 Z" fill="#000000" fill-rule="nonzero" fill-opacity="1" /><path clip-path="url(#clip470)" d="M2177.61 1620.85 L2177.61 1624.88 Q2175.8 1623.95 2173.86 1623.49 Q2171.91 1623.03 2169.83 1623.03 Q2166.66 1623.03 2165.06 1624 Q2163.49 1624.97 2163.49 1626.92 Q2163.49 1628.4 2164.62 1629.25 Q2165.75 1630.09 2169.18 1630.85 L2170.64 1631.17 Q2175.18 1632.15 2177.07 1633.93 Q2178.99 1635.69 2178.99 1638.86 Q2178.99 1642.47 2176.12 1644.58 Q2173.28 1646.68 2168.28 1646.68 Q2166.19 1646.68 2163.93 1646.27 Q2161.68 1645.87 2159.18 1645.06 L2159.18 1640.67 Q2161.54 1641.89 2163.83 1642.52 Q2166.12 1643.12 2168.37 1643.12 Q2171.38 1643.12 2173 1642.1 Q2174.62 1641.06 2174.62 1639.18 Q2174.62 1637.45 2173.44 1636.52 Q2172.28 1635.6 2168.32 1634.74 L2166.84 1634.39 Q2162.88 1633.56 2161.12 1631.85 Q2159.37 1630.11 2159.37 1627.1 Q2159.37 1623.44 2161.96 1621.45 Q2164.55 1619.46 2169.32 1619.46 Q2171.68 1619.46 2173.76 1619.81 Q2175.85 1620.16 2177.61 1620.85 Z" fill="#000000" fill-rule="nonzero" fill-opacity="1" /><path clip-path="url(#clip470)" d="M2196.56 1648.42 Q2194.76 1653.05 2193.05 1654.46 Q2191.33 1655.87 2188.46 1655.87 L2185.06 1655.87 L2185.06 1652.31 L2187.56 1652.31 Q2189.32 1652.31 2190.29 1651.48 Q2191.26 1650.64 2192.44 1647.54 L2193.21 1645.6 L2182.72 1620.09 L2187.24 1620.09 L2195.34 1640.36 L2203.44 1620.09 L2207.95 1620.09 L2196.56 1648.42 Z" fill="#000000" fill-rule="nonzero" fill-opacity="1" /><path clip-path="url(#clip470)" d="M2234.02 1625.06 Q2235.61 1622.19 2237.84 1620.83 Q2240.06 1619.46 2243.07 1619.46 Q2247.12 1619.46 2249.32 1622.31 Q2251.52 1625.13 2251.52 1630.36 L2251.52 1646.01 L2247.23 1646.01 L2247.23 1630.5 Q2247.23 1626.78 2245.92 1624.97 Q2244.6 1623.17 2241.89 1623.17 Q2238.58 1623.17 2236.66 1625.36 Q2234.73 1627.56 2234.73 1631.36 L2234.73 1646.01 L2230.45 1646.01 L2230.45 1630.5 Q2230.45 1626.75 2229.13 1624.97 Q2227.81 1623.17 2225.06 1623.17 Q2221.8 1623.17 2219.87 1625.39 Q2217.95 1627.59 2217.95 1631.36 L2217.95 1646.01 L2213.67 1646.01 L2213.67 1620.09 L2217.95 1620.09 L2217.95 1624.11 Q2219.41 1621.73 2221.45 1620.6 Q2223.49 1619.46 2226.29 1619.46 Q2229.11 1619.46 2231.08 1620.9 Q2233.07 1622.33 2234.02 1625.06 Z" fill="#000000" fill-rule="nonzero" fill-opacity="1" /><path clip-path="url(#clip470)" d="M2264.13 1642.12 L2264.13 1655.87 L2259.85 1655.87 L2259.85 1620.09 L2264.13 1620.09 L2264.13 1624.02 Q2265.48 1621.71 2267.51 1620.6 Q2269.57 1619.46 2272.42 1619.46 Q2277.14 1619.46 2280.08 1623.21 Q2283.04 1626.96 2283.04 1633.07 Q2283.04 1639.18 2280.08 1642.93 Q2277.14 1646.68 2272.42 1646.68 Q2269.57 1646.68 2267.51 1645.57 Q2265.48 1644.44 2264.13 1642.12 M2278.62 1633.07 Q2278.62 1628.37 2276.68 1625.71 Q2274.76 1623.03 2271.38 1623.03 Q2268 1623.03 2266.05 1625.71 Q2264.13 1628.37 2264.13 1633.07 Q2264.13 1637.77 2266.05 1640.46 Q2268 1643.12 2271.38 1643.12 Q2274.76 1643.12 2276.68 1640.46 Q2278.62 1637.77 2278.62 1633.07 Z" fill="#000000" fill-rule="nonzero" fill-opacity="1" /><path clip-path="url(#clip470)" d="M2294.32 1612.73 L2294.32 1620.09 L2303.09 1620.09 L2303.09 1623.4 L2294.32 1623.4 L2294.32 1637.47 Q2294.32 1640.64 2295.17 1641.55 Q2296.05 1642.45 2298.72 1642.45 L2303.09 1642.45 L2303.09 1646.01 L2298.72 1646.01 Q2293.79 1646.01 2291.91 1644.18 Q2290.04 1642.33 2290.04 1637.47 L2290.04 1623.4 L2286.91 1623.4 L2286.91 1620.09 L2290.04 1620.09 L2290.04 1612.73 L2294.32 1612.73 Z" fill="#000000" fill-rule="nonzero" fill-opacity="1" /><path clip-path="url(#clip470)" d="M2318.74 1623.07 Q2315.31 1623.07 2313.32 1625.76 Q2311.33 1628.42 2311.33 1633.07 Q2311.33 1637.73 2313.3 1640.41 Q2315.29 1643.07 2318.74 1643.07 Q2322.14 1643.07 2324.13 1640.39 Q2326.12 1637.7 2326.12 1633.07 Q2326.12 1628.47 2324.13 1625.78 Q2322.14 1623.07 2318.74 1623.07 M2318.74 1619.46 Q2324.29 1619.46 2327.47 1623.07 Q2330.64 1626.68 2330.64 1633.07 Q2330.64 1639.44 2327.47 1643.07 Q2324.29 1646.68 2318.74 1646.68 Q2313.16 1646.68 2309.99 1643.07 Q2306.84 1639.44 2306.84 1633.07 Q2306.84 1626.68 2309.99 1623.07 Q2313.16 1619.46 2318.74 1619.46 Z" fill="#000000" fill-rule="nonzero" fill-opacity="1" /><path clip-path="url(#clip470)" d="M2341.91 1612.73 L2341.91 1620.09 L2350.68 1620.09 L2350.68 1623.4 L2341.91 1623.4 L2341.91 1637.47 Q2341.91 1640.64 2342.77 1641.55 Q2343.65 1642.45 2346.31 1642.45 L2350.68 1642.45 L2350.68 1646.01 L2346.31 1646.01 Q2341.38 1646.01 2339.5 1644.18 Q2337.63 1642.33 2337.63 1637.47 L2337.63 1623.4 L2334.5 1623.4 L2334.5 1620.09 L2337.63 1620.09 L2337.63 1612.73 L2341.91 1612.73 Z" fill="#000000" fill-rule="nonzero" fill-opacity="1" /><path clip-path="url(#clip470)" d="M2356.29 1620.09 L2360.54 1620.09 L2360.54 1646.01 L2356.29 1646.01 L2356.29 1620.09 M2356.29 1609.99 L2360.54 1609.99 L2360.54 1615.39 L2356.29 1615.39 L2356.29 1609.99 Z" fill="#000000" fill-rule="nonzero" fill-opacity="1" /><path clip-path="url(#clip470)" d="M2388.11 1621.08 L2388.11 1625.06 Q2386.31 1624.07 2384.48 1623.58 Q2382.67 1623.07 2380.82 1623.07 Q2376.68 1623.07 2374.39 1625.71 Q2372.1 1628.33 2372.1 1633.07 Q2372.1 1637.82 2374.39 1640.46 Q2376.68 1643.07 2380.82 1643.07 Q2382.67 1643.07 2384.48 1642.59 Q2386.31 1642.08 2388.11 1641.08 L2388.11 1645.02 Q2386.33 1645.85 2384.41 1646.27 Q2382.51 1646.68 2380.36 1646.68 Q2374.5 1646.68 2371.05 1643 Q2367.6 1639.32 2367.6 1633.07 Q2367.6 1626.73 2371.08 1623.1 Q2374.57 1619.46 2380.64 1619.46 Q2382.6 1619.46 2384.48 1619.88 Q2386.35 1620.27 2388.11 1621.08 Z" fill="#000000" fill-rule="nonzero" fill-opacity="1" /><path clip-path="url(#clip470)" d="M2420.8 1614.05 L2432.77 1646.01 L2428.25 1646.01 L2420.98 1626.85 L2412.05 1646.01 L2407.53 1646.01 L2418.9 1621.15 L2417.19 1616.57 Q2416.1 1613.65 2413.62 1613.65 L2411.4 1613.65 L2411.4 1609.99 L2414.11 1610.04 Q2419.34 1610.11 2420.8 1614.05 Z" fill="#000000" fill-rule="nonzero" fill-opacity="1" /></svg>
