<?xml version="1.0" encoding="utf-8"?>
<svg xmlns="http://www.w3.org/2000/svg" xmlns:xlink="http://www.w3.org/1999/xlink" width="672" height="480" viewBox="0 0 2688 1920">
<defs>
  <clipPath id="clip770">
    <rect x="0" y="0" width="2688" height="1920"/>
  </clipPath>
</defs>
<path clip-path="url(#clip770)" d="M0 1920 L2688 1920 L2688 -4.26326e-14 L0 -4.26326e-14  Z" fill="#ffffff" fill-rule="evenodd" fill-opacity="1"/>
<defs>
  <clipPath id="clip771">
    <rect x="278" y="127" width="2363" height="1607"/>
  </clipPath>
</defs>
<path clip-path="url(#clip770)" d="M278.571 1734.12 L2640.76 1734.12 L2640.76 127.792 L278.571 127.792  Z" fill="#ffffff" fill-rule="evenodd" fill-opacity="1"/>
<polyline clip-path="url(#clip771)" style="stroke:#000000; stroke-linecap:round; stroke-linejoin:round; stroke-width:2; stroke-opacity:0.1; fill:none" points="345.425,1734.12 345.425,127.792 "/>
<polyline clip-path="url(#clip771)" style="stroke:#000000; stroke-linecap:round; stroke-linejoin:round; stroke-width:2; stroke-opacity:0.1; fill:none" points="679.697,1734.12 679.697,127.792 "/>
<polyline clip-path="url(#clip771)" style="stroke:#000000; stroke-linecap:round; stroke-linejoin:round; stroke-width:2; stroke-opacity:0.1; fill:none" points="1013.97,1734.12 1013.97,127.792 "/>
<polyline clip-path="url(#clip771)" style="stroke:#000000; stroke-linecap:round; stroke-linejoin:round; stroke-width:2; stroke-opacity:0.1; fill:none" points="1348.24,1734.12 1348.24,127.792 "/>
<polyline clip-path="url(#clip771)" style="stroke:#000000; stroke-linecap:round; stroke-linejoin:round; stroke-width:2; stroke-opacity:0.1; fill:none" points="1682.51,1734.12 1682.51,127.792 "/>
<polyline clip-path="url(#clip771)" style="stroke:#000000; stroke-linecap:round; stroke-linejoin:round; stroke-width:2; stroke-opacity:0.1; fill:none" points="2016.78,1734.12 2016.78,127.792 "/>
<polyline clip-path="url(#clip771)" style="stroke:#000000; stroke-linecap:round; stroke-linejoin:round; stroke-width:2; stroke-opacity:0.1; fill:none" points="2351.05,1734.12 2351.05,127.792 "/>
<polyline clip-path="url(#clip771)" style="stroke:#000000; stroke-linecap:round; stroke-linejoin:round; stroke-width:2; stroke-opacity:0.1; fill:none" points="278.571,1496.02 2640.76,1496.02 "/>
<polyline clip-path="url(#clip771)" style="stroke:#000000; stroke-linecap:round; stroke-linejoin:round; stroke-width:2; stroke-opacity:0.1; fill:none" points="278.571,1082.32 2640.76,1082.32 "/>
<polyline clip-path="url(#clip771)" style="stroke:#000000; stroke-linecap:round; stroke-linejoin:round; stroke-width:2; stroke-opacity:0.1; fill:none" points="278.571,668.622 2640.76,668.622 "/>
<polyline clip-path="url(#clip771)" style="stroke:#000000; stroke-linecap:round; stroke-linejoin:round; stroke-width:2; stroke-opacity:0.1; fill:none" points="278.571,254.923 2640.76,254.923 "/>
<polyline clip-path="url(#clip770)" style="stroke:#000000; stroke-linecap:round; stroke-linejoin:round; stroke-width:4; stroke-opacity:1; fill:none" points="278.571,1734.12 2640.76,1734.12 "/>
<polyline clip-path="url(#clip770)" style="stroke:#000000; stroke-linecap:round; stroke-linejoin:round; stroke-width:4; stroke-opacity:1; fill:none" points="345.425,1734.12 345.425,1715.22 "/>
<polyline clip-path="url(#clip770)" style="stroke:#000000; stroke-linecap:round; stroke-linejoin:round; stroke-width:4; stroke-opacity:1; fill:none" points="679.697,1734.12 679.697,1715.22 "/>
<polyline clip-path="url(#clip770)" style="stroke:#000000; stroke-linecap:round; stroke-linejoin:round; stroke-width:4; stroke-opacity:1; fill:none" points="1013.97,1734.12 1013.97,1715.22 "/>
<polyline clip-path="url(#clip770)" style="stroke:#000000; stroke-linecap:round; stroke-linejoin:round; stroke-width:4; stroke-opacity:1; fill:none" points="1348.24,1734.12 1348.24,1715.22 "/>
<polyline clip-path="url(#clip770)" style="stroke:#000000; stroke-linecap:round; stroke-linejoin:round; stroke-width:4; stroke-opacity:1; fill:none" points="1682.51,1734.12 1682.51,1715.22 "/>
<polyline clip-path="url(#clip770)" style="stroke:#000000; stroke-linecap:round; stroke-linejoin:round; stroke-width:4; stroke-opacity:1; fill:none" points="2016.78,1734.12 2016.78,1715.22 "/>
<polyline clip-path="url(#clip770)" style="stroke:#000000; stroke-linecap:round; stroke-linejoin:round; stroke-width:4; stroke-opacity:1; fill:none" points="2351.05,1734.12 2351.05,1715.22 "/>
<path clip-path="url(#clip770)" d="M312.578 1794.89 L320.217 1794.89 L320.217 1768.52 L311.907 1770.19 L311.907 1765.93 L320.171 1764.26 L324.847 1764.26 L324.847 1794.89 L332.485 1794.89 L332.485 1798.82 L312.578 1798.82 L312.578 1794.89 Z" fill="#000000" fill-rule="nonzero" fill-opacity="1" /><path clip-path="url(#clip770)" d="M341.93 1792.94 L346.814 1792.94 L346.814 1798.82 L341.93 1798.82 L341.93 1792.94 Z" fill="#000000" fill-rule="nonzero" fill-opacity="1" /><path clip-path="url(#clip770)" d="M366.999 1767.34 Q363.388 1767.34 361.559 1770.9 Q359.754 1774.45 359.754 1781.58 Q359.754 1788.68 361.559 1792.25 Q363.388 1795.79 366.999 1795.79 Q370.633 1795.79 372.439 1792.25 Q374.268 1788.68 374.268 1781.58 Q374.268 1774.45 372.439 1770.9 Q370.633 1767.34 366.999 1767.34 M366.999 1763.64 Q372.809 1763.64 375.865 1768.24 Q378.943 1772.83 378.943 1781.58 Q378.943 1790.3 375.865 1794.91 Q372.809 1799.49 366.999 1799.49 Q361.189 1799.49 358.11 1794.91 Q355.055 1790.3 355.055 1781.58 Q355.055 1772.83 358.11 1768.24 Q361.189 1763.64 366.999 1763.64 Z" fill="#000000" fill-rule="nonzero" fill-opacity="1" /><path clip-path="url(#clip770)" d="M647.463 1794.89 L655.102 1794.89 L655.102 1768.52 L646.792 1770.19 L646.792 1765.93 L655.056 1764.26 L659.731 1764.26 L659.731 1794.89 L667.37 1794.89 L667.37 1798.82 L647.463 1798.82 L647.463 1794.89 Z" fill="#000000" fill-rule="nonzero" fill-opacity="1" /><path clip-path="url(#clip770)" d="M676.815 1792.94 L681.699 1792.94 L681.699 1798.82 L676.815 1798.82 L676.815 1792.94 Z" fill="#000000" fill-rule="nonzero" fill-opacity="1" /><path clip-path="url(#clip770)" d="M692.694 1794.89 L700.333 1794.89 L700.333 1768.52 L692.023 1770.19 L692.023 1765.93 L700.287 1764.26 L704.963 1764.26 L704.963 1794.89 L712.602 1794.89 L712.602 1798.82 L692.694 1798.82 L692.694 1794.89 Z" fill="#000000" fill-rule="nonzero" fill-opacity="1" /><path clip-path="url(#clip770)" d="M981.92 1794.89 L989.558 1794.89 L989.558 1768.52 L981.248 1770.19 L981.248 1765.93 L989.512 1764.26 L994.188 1764.26 L994.188 1794.89 L1001.83 1794.89 L1001.83 1798.82 L981.92 1798.82 L981.92 1794.89 Z" fill="#000000" fill-rule="nonzero" fill-opacity="1" /><path clip-path="url(#clip770)" d="M1011.27 1792.94 L1016.16 1792.94 L1016.16 1798.82 L1011.27 1798.82 L1011.27 1792.94 Z" fill="#000000" fill-rule="nonzero" fill-opacity="1" /><path clip-path="url(#clip770)" d="M1030.37 1794.89 L1046.69 1794.89 L1046.69 1798.82 L1024.74 1798.82 L1024.74 1794.89 Q1027.41 1792.13 1031.99 1787.5 Q1036.6 1782.85 1037.78 1781.51 Q1040.02 1778.98 1040.9 1777.25 Q1041.8 1775.49 1041.8 1773.8 Q1041.8 1771.04 1039.86 1769.31 Q1037.94 1767.57 1034.84 1767.57 Q1032.64 1767.57 1030.18 1768.34 Q1027.75 1769.1 1024.97 1770.65 L1024.97 1765.93 Q1027.8 1764.79 1030.25 1764.21 Q1032.71 1763.64 1034.74 1763.64 Q1040.11 1763.64 1043.31 1766.32 Q1046.5 1769.01 1046.5 1773.5 Q1046.5 1775.63 1045.69 1777.55 Q1044.91 1779.45 1042.8 1782.04 Q1042.22 1782.71 1039.12 1785.93 Q1036.02 1789.12 1030.37 1794.89 Z" fill="#000000" fill-rule="nonzero" fill-opacity="1" /><path clip-path="url(#clip770)" d="M1315.72 1794.89 L1323.36 1794.89 L1323.36 1768.52 L1315.05 1770.19 L1315.05 1765.93 L1323.31 1764.26 L1327.99 1764.26 L1327.99 1794.89 L1335.62 1794.89 L1335.62 1798.82 L1315.72 1798.82 L1315.72 1794.89 Z" fill="#000000" fill-rule="nonzero" fill-opacity="1" /><path clip-path="url(#clip770)" d="M1345.07 1792.94 L1349.95 1792.94 L1349.95 1798.82 L1345.07 1798.82 L1345.07 1792.94 Z" fill="#000000" fill-rule="nonzero" fill-opacity="1" /><path clip-path="url(#clip770)" d="M1374.3 1780.19 Q1377.66 1780.9 1379.54 1783.17 Q1381.43 1785.44 1381.43 1788.77 Q1381.43 1793.89 1377.92 1796.69 Q1374.4 1799.49 1367.92 1799.49 Q1365.74 1799.49 1363.42 1799.05 Q1361.13 1798.64 1358.68 1797.78 L1358.68 1793.27 Q1360.62 1794.4 1362.94 1794.98 Q1365.25 1795.56 1367.78 1795.56 Q1372.17 1795.56 1374.47 1793.82 Q1376.78 1792.08 1376.78 1788.77 Q1376.78 1785.72 1374.63 1784.01 Q1372.5 1782.27 1368.68 1782.27 L1364.65 1782.27 L1364.65 1778.43 L1368.86 1778.43 Q1372.31 1778.43 1374.14 1777.06 Q1375.97 1775.67 1375.97 1773.08 Q1375.97 1770.42 1374.07 1769.01 Q1372.2 1767.57 1368.68 1767.57 Q1366.76 1767.57 1364.56 1767.99 Q1362.36 1768.4 1359.72 1769.28 L1359.72 1765.12 Q1362.38 1764.38 1364.7 1764.01 Q1367.04 1763.64 1369.1 1763.64 Q1374.42 1763.64 1377.52 1766.07 Q1380.62 1768.47 1380.62 1772.59 Q1380.62 1775.46 1378.98 1777.46 Q1377.34 1779.42 1374.3 1780.19 Z" fill="#000000" fill-rule="nonzero" fill-opacity="1" /><path clip-path="url(#clip770)" d="M1649.42 1794.89 L1657.06 1794.89 L1657.06 1768.52 L1648.75 1770.19 L1648.75 1765.93 L1657.01 1764.26 L1661.69 1764.26 L1661.69 1794.89 L1669.33 1794.89 L1669.33 1798.82 L1649.42 1798.82 L1649.42 1794.89 Z" fill="#000000" fill-rule="nonzero" fill-opacity="1" /><path clip-path="url(#clip770)" d="M1678.77 1792.94 L1683.66 1792.94 L1683.66 1798.82 L1678.77 1798.82 L1678.77 1792.94 Z" fill="#000000" fill-rule="nonzero" fill-opacity="1" /><path clip-path="url(#clip770)" d="M1706.69 1768.34 L1694.88 1786.78 L1706.69 1786.78 L1706.69 1768.34 M1705.46 1764.26 L1711.34 1764.26 L1711.34 1786.78 L1716.27 1786.78 L1716.27 1790.67 L1711.34 1790.67 L1711.34 1798.82 L1706.69 1798.82 L1706.69 1790.67 L1691.09 1790.67 L1691.09 1786.16 L1705.46 1764.26 Z" fill="#000000" fill-rule="nonzero" fill-opacity="1" /><path clip-path="url(#clip770)" d="M1984.43 1794.89 L1992.07 1794.89 L1992.07 1768.52 L1983.76 1770.19 L1983.76 1765.93 L1992.03 1764.26 L1996.7 1764.26 L1996.7 1794.89 L2004.34 1794.89 L2004.34 1798.82 L1984.43 1798.82 L1984.43 1794.89 Z" fill="#000000" fill-rule="nonzero" fill-opacity="1" /><path clip-path="url(#clip770)" d="M2013.78 1792.94 L2018.67 1792.94 L2018.67 1798.82 L2013.78 1798.82 L2013.78 1792.94 Z" fill="#000000" fill-rule="nonzero" fill-opacity="1" /><path clip-path="url(#clip770)" d="M2028.9 1764.26 L2047.26 1764.26 L2047.26 1768.2 L2033.18 1768.2 L2033.18 1776.67 Q2034.2 1776.32 2035.22 1776.16 Q2036.24 1775.97 2037.26 1775.97 Q2043.04 1775.97 2046.42 1779.15 Q2049.8 1782.32 2049.8 1787.73 Q2049.8 1793.31 2046.33 1796.41 Q2042.86 1799.49 2036.54 1799.49 Q2034.36 1799.49 2032.09 1799.12 Q2029.85 1798.75 2027.44 1798.01 L2027.44 1793.31 Q2029.53 1794.45 2031.75 1795 Q2033.97 1795.56 2036.45 1795.56 Q2040.45 1795.56 2042.79 1793.45 Q2045.13 1791.34 2045.13 1787.73 Q2045.13 1784.12 2042.79 1782.02 Q2040.45 1779.91 2036.45 1779.91 Q2034.57 1779.91 2032.7 1780.33 Q2030.84 1780.74 2028.9 1781.62 L2028.9 1764.26 Z" fill="#000000" fill-rule="nonzero" fill-opacity="1" /><path clip-path="url(#clip770)" d="M2318.13 1794.89 L2325.76 1794.89 L2325.76 1768.52 L2317.45 1770.19 L2317.45 1765.93 L2325.72 1764.26 L2330.39 1764.26 L2330.39 1794.89 L2338.03 1794.89 L2338.03 1798.82 L2318.13 1798.82 L2318.13 1794.89 Z" fill="#000000" fill-rule="nonzero" fill-opacity="1" /><path clip-path="url(#clip770)" d="M2347.48 1792.94 L2352.36 1792.94 L2352.36 1798.82 L2347.48 1798.82 L2347.48 1792.94 Z" fill="#000000" fill-rule="nonzero" fill-opacity="1" /><path clip-path="url(#clip770)" d="M2373.13 1779.68 Q2369.98 1779.68 2368.13 1781.83 Q2366.3 1783.98 2366.3 1787.73 Q2366.3 1791.46 2368.13 1793.64 Q2369.98 1795.79 2373.13 1795.79 Q2376.27 1795.79 2378.1 1793.64 Q2379.95 1791.46 2379.95 1787.73 Q2379.95 1783.98 2378.1 1781.83 Q2376.27 1779.68 2373.13 1779.68 M2382.41 1765.02 L2382.41 1769.28 Q2380.65 1768.45 2378.84 1768.01 Q2377.06 1767.57 2375.3 1767.57 Q2370.67 1767.57 2368.22 1770.7 Q2365.79 1773.82 2365.44 1780.14 Q2366.81 1778.13 2368.87 1777.06 Q2370.93 1775.97 2373.4 1775.97 Q2378.61 1775.97 2381.62 1779.15 Q2384.65 1782.29 2384.65 1787.73 Q2384.65 1793.06 2381.51 1796.27 Q2378.36 1799.49 2373.13 1799.49 Q2367.13 1799.49 2363.96 1794.91 Q2360.79 1790.3 2360.79 1781.58 Q2360.79 1773.38 2364.68 1768.52 Q2368.57 1763.64 2375.12 1763.64 Q2376.88 1763.64 2378.66 1763.98 Q2380.46 1764.33 2382.41 1765.02 Z" fill="#000000" fill-rule="nonzero" fill-opacity="1" /><path clip-path="url(#clip770)" d="M1116.63 1835.78 L1126.21 1835.78 L1138.34 1868.12 L1150.53 1835.78 L1160.11 1835.78 L1160.11 1883.3 L1153.84 1883.3 L1153.84 1841.57 L1141.58 1874.17 L1135.12 1874.17 L1122.87 1841.57 L1122.87 1883.3 L1116.63 1883.3 L1116.63 1835.78 Z" fill="#000000" fill-rule="nonzero" fill-opacity="1" /><path clip-path="url(#clip770)" d="M1203.11 1864.01 L1203.11 1866.88 L1176.18 1866.88 Q1176.56 1872.92 1179.81 1876.11 Q1183.09 1879.26 1188.91 1879.26 Q1192.29 1879.26 1195.44 1878.43 Q1198.62 1877.6 1201.74 1875.95 L1201.74 1881.49 Q1198.59 1882.82 1195.28 1883.52 Q1191.97 1884.22 1188.56 1884.22 Q1180.03 1884.22 1175.04 1879.26 Q1170.07 1874.29 1170.07 1865.83 Q1170.07 1857.07 1174.78 1851.95 Q1179.52 1846.79 1187.55 1846.79 Q1194.74 1846.79 1198.91 1851.44 Q1203.11 1856.06 1203.11 1864.01 M1197.25 1862.29 Q1197.19 1857.49 1194.55 1854.62 Q1191.94 1851.76 1187.61 1851.76 Q1182.71 1851.76 1179.75 1854.53 Q1176.82 1857.3 1176.37 1862.33 L1197.25 1862.29 Z" fill="#000000" fill-rule="nonzero" fill-opacity="1" /><path clip-path="url(#clip770)" d="M1228.92 1865.38 Q1221.82 1865.38 1219.09 1867 Q1216.35 1868.63 1216.35 1872.54 Q1216.35 1875.66 1218.39 1877.51 Q1220.46 1879.32 1223.99 1879.32 Q1228.86 1879.32 1231.79 1875.88 Q1234.75 1872.42 1234.75 1866.69 L1234.75 1865.38 L1228.92 1865.38 M1240.6 1862.96 L1240.6 1883.3 L1234.75 1883.3 L1234.75 1877.89 Q1232.74 1881.14 1229.75 1882.7 Q1226.76 1884.22 1222.43 1884.22 Q1216.95 1884.22 1213.71 1881.17 Q1210.49 1878.08 1210.49 1872.92 Q1210.49 1866.91 1214.5 1863.85 Q1218.55 1860.8 1226.54 1860.8 L1234.75 1860.8 L1234.75 1860.23 Q1234.75 1856.18 1232.07 1853.99 Q1229.43 1851.76 1224.63 1851.76 Q1221.57 1851.76 1218.67 1852.49 Q1215.78 1853.22 1213.1 1854.69 L1213.1 1849.28 Q1216.32 1848.03 1219.34 1847.43 Q1222.37 1846.79 1225.23 1846.79 Q1232.96 1846.79 1236.78 1850.8 Q1240.6 1854.81 1240.6 1862.96 Z" fill="#000000" fill-rule="nonzero" fill-opacity="1" /><path clip-path="url(#clip770)" d="M1282.3 1861.78 L1282.3 1883.3 L1276.44 1883.3 L1276.44 1861.98 Q1276.44 1856.92 1274.47 1854.4 Q1272.5 1851.89 1268.55 1851.89 Q1263.81 1851.89 1261.07 1854.91 Q1258.33 1857.93 1258.33 1863.15 L1258.33 1883.3 L1252.44 1883.3 L1252.44 1847.65 L1258.33 1847.65 L1258.33 1853.19 Q1260.43 1849.98 1263.27 1848.39 Q1266.13 1846.79 1269.85 1846.79 Q1276 1846.79 1279.15 1850.61 Q1282.3 1854.4 1282.3 1861.78 Z" fill="#000000" fill-rule="nonzero" fill-opacity="1" /><path clip-path="url(#clip770)" d="M1314.7 1833.78 L1320.56 1833.78 L1320.56 1883.3 L1314.7 1883.3 L1314.7 1833.78 Z" fill="#000000" fill-rule="nonzero" fill-opacity="1" /><path clip-path="url(#clip770)" d="M1332.81 1847.65 L1338.67 1847.65 L1338.67 1883.3 L1332.81 1883.3 L1332.81 1847.65 M1332.81 1833.78 L1338.67 1833.78 L1338.67 1841.19 L1332.81 1841.19 L1332.81 1833.78 Z" fill="#000000" fill-rule="nonzero" fill-opacity="1" /><path clip-path="url(#clip770)" d="M1368.97 1833.78 L1368.97 1838.65 L1363.37 1838.65 Q1360.22 1838.65 1358.97 1839.92 Q1357.76 1841.19 1357.76 1844.5 L1357.76 1847.65 L1367.41 1847.65 L1367.41 1852.2 L1357.76 1852.2 L1357.76 1883.3 L1351.88 1883.3 L1351.88 1852.2 L1346.27 1852.2 L1346.27 1847.65 L1351.88 1847.65 L1351.88 1845.17 Q1351.88 1839.22 1354.65 1836.51 Q1357.41 1833.78 1363.43 1833.78 L1368.97 1833.78 Z" fill="#000000" fill-rule="nonzero" fill-opacity="1" /><path clip-path="url(#clip770)" d="M1404.36 1864.01 L1404.36 1866.88 L1377.43 1866.88 Q1377.82 1872.92 1381.06 1876.11 Q1384.34 1879.26 1390.17 1879.26 Q1393.54 1879.26 1396.69 1878.43 Q1399.87 1877.6 1402.99 1875.95 L1402.99 1881.49 Q1399.84 1882.82 1396.53 1883.52 Q1393.22 1884.22 1389.82 1884.22 Q1381.29 1884.22 1376.29 1879.26 Q1371.32 1874.29 1371.32 1865.83 Q1371.32 1857.07 1376.03 1851.95 Q1380.78 1846.79 1388.8 1846.79 Q1395.99 1846.79 1400.16 1851.44 Q1404.36 1856.06 1404.36 1864.01 M1398.5 1862.29 Q1398.44 1857.49 1395.8 1854.62 Q1393.19 1851.76 1388.86 1851.76 Q1383.96 1851.76 1381 1854.53 Q1378.07 1857.3 1377.63 1862.33 L1398.5 1862.29 Z" fill="#000000" fill-rule="nonzero" fill-opacity="1" /><path clip-path="url(#clip770)" d="M1465.19 1864.01 L1465.19 1866.88 L1438.26 1866.88 Q1438.64 1872.92 1441.89 1876.11 Q1445.17 1879.26 1450.99 1879.26 Q1454.36 1879.26 1457.51 1878.43 Q1460.7 1877.6 1463.82 1875.95 L1463.82 1881.49 Q1460.67 1882.82 1457.36 1883.52 Q1454.05 1884.22 1450.64 1884.22 Q1442.11 1884.22 1437.11 1879.26 Q1432.15 1874.29 1432.15 1865.83 Q1432.15 1857.07 1436.86 1851.95 Q1441.6 1846.79 1449.62 1846.79 Q1456.81 1846.79 1460.98 1851.44 Q1465.19 1856.06 1465.19 1864.01 M1459.33 1862.29 Q1459.27 1857.49 1456.62 1854.62 Q1454.01 1851.76 1449.69 1851.76 Q1444.78 1851.76 1441.82 1854.53 Q1438.9 1857.3 1438.45 1862.33 L1459.33 1862.29 Z" fill="#000000" fill-rule="nonzero" fill-opacity="1" /><path clip-path="url(#clip770)" d="M1503.28 1847.65 L1490.39 1865 L1503.95 1883.3 L1497.05 1883.3 L1486.67 1869.3 L1476.29 1883.3 L1469.39 1883.3 L1483.23 1864.65 L1470.56 1847.65 L1477.47 1847.65 L1486.92 1860.35 L1496.38 1847.65 L1503.28 1847.65 Z" fill="#000000" fill-rule="nonzero" fill-opacity="1" /><path clip-path="url(#clip770)" d="M1517.89 1877.95 L1517.89 1896.86 L1512.01 1896.86 L1512.01 1847.65 L1517.89 1847.65 L1517.89 1853.06 Q1519.74 1849.88 1522.54 1848.35 Q1525.37 1846.79 1529.29 1846.79 Q1535.78 1846.79 1539.82 1851.95 Q1543.9 1857.11 1543.9 1865.51 Q1543.9 1873.91 1539.82 1879.07 Q1535.78 1884.22 1529.29 1884.22 Q1525.37 1884.22 1522.54 1882.7 Q1519.74 1881.14 1517.89 1877.95 M1537.82 1865.51 Q1537.82 1859.05 1535.14 1855.39 Q1532.5 1851.7 1527.86 1851.7 Q1523.21 1851.7 1520.54 1855.39 Q1517.89 1859.05 1517.89 1865.51 Q1517.89 1871.97 1520.54 1875.66 Q1523.21 1879.32 1527.86 1879.32 Q1532.5 1879.32 1535.14 1875.66 Q1537.82 1871.97 1537.82 1865.51 Z" fill="#000000" fill-rule="nonzero" fill-opacity="1" /><path clip-path="url(#clip770)" d="M1584.1 1864.01 L1584.1 1866.88 L1557.17 1866.88 Q1557.55 1872.92 1560.8 1876.11 Q1564.08 1879.26 1569.9 1879.26 Q1573.28 1879.26 1576.43 1878.43 Q1579.61 1877.6 1582.73 1875.95 L1582.73 1881.49 Q1579.58 1882.82 1576.27 1883.52 Q1572.96 1884.22 1569.55 1884.22 Q1561.02 1884.22 1556.02 1879.26 Q1551.06 1874.29 1551.06 1865.83 Q1551.06 1857.07 1555.77 1851.95 Q1560.51 1846.79 1568.53 1846.79 Q1575.73 1846.79 1579.9 1851.44 Q1584.1 1856.06 1584.1 1864.01 M1578.24 1862.29 Q1578.18 1857.49 1575.54 1854.62 Q1572.93 1851.76 1568.6 1851.76 Q1563.69 1851.76 1560.73 1854.53 Q1557.81 1857.3 1557.36 1862.33 L1578.24 1862.29 Z" fill="#000000" fill-rule="nonzero" fill-opacity="1" /><path clip-path="url(#clip770)" d="M1619.36 1849.02 L1619.36 1854.5 Q1616.88 1853.13 1614.37 1852.46 Q1611.88 1851.76 1609.34 1851.76 Q1603.64 1851.76 1600.49 1855.39 Q1597.34 1858.98 1597.34 1865.51 Q1597.34 1872.03 1600.49 1875.66 Q1603.64 1879.26 1609.34 1879.26 Q1611.88 1879.26 1614.37 1878.59 Q1616.88 1877.89 1619.36 1876.52 L1619.36 1881.93 Q1616.91 1883.08 1614.27 1883.65 Q1611.66 1884.22 1608.7 1884.22 Q1600.65 1884.22 1595.91 1879.16 Q1591.16 1874.1 1591.16 1865.51 Q1591.16 1856.79 1595.94 1851.79 Q1600.74 1846.79 1609.08 1846.79 Q1611.79 1846.79 1614.37 1847.37 Q1616.94 1847.91 1619.36 1849.02 Z" fill="#000000" fill-rule="nonzero" fill-opacity="1" /><path clip-path="url(#clip770)" d="M1635.34 1837.53 L1635.34 1847.65 L1647.4 1847.65 L1647.4 1852.2 L1635.34 1852.2 L1635.34 1871.56 Q1635.34 1875.92 1636.52 1877.16 Q1637.73 1878.4 1641.39 1878.4 L1647.4 1878.4 L1647.4 1883.3 L1641.39 1883.3 Q1634.61 1883.3 1632.03 1880.79 Q1629.45 1878.24 1629.45 1871.56 L1629.45 1852.2 L1625.16 1852.2 L1625.16 1847.65 L1629.45 1847.65 L1629.45 1837.53 L1635.34 1837.53 Z" fill="#000000" fill-rule="nonzero" fill-opacity="1" /><path clip-path="url(#clip770)" d="M1671.31 1865.38 Q1664.21 1865.38 1661.47 1867 Q1658.73 1868.63 1658.73 1872.54 Q1658.73 1875.66 1660.77 1877.51 Q1662.84 1879.32 1666.37 1879.32 Q1671.24 1879.32 1674.17 1875.88 Q1677.13 1872.42 1677.13 1866.69 L1677.13 1865.38 L1671.31 1865.38 M1682.99 1862.96 L1682.99 1883.3 L1677.13 1883.3 L1677.13 1877.89 Q1675.13 1881.14 1672.13 1882.7 Q1669.14 1884.22 1664.81 1884.22 Q1659.34 1884.22 1656.09 1881.17 Q1652.88 1878.08 1652.88 1872.92 Q1652.88 1866.91 1656.89 1863.85 Q1660.93 1860.8 1668.92 1860.8 L1677.13 1860.8 L1677.13 1860.23 Q1677.13 1856.18 1674.46 1853.99 Q1671.82 1851.76 1667.01 1851.76 Q1663.95 1851.76 1661.06 1852.49 Q1658.16 1853.22 1655.49 1854.69 L1655.49 1849.28 Q1658.7 1848.03 1661.73 1847.43 Q1664.75 1846.79 1667.62 1846.79 Q1675.35 1846.79 1679.17 1850.8 Q1682.99 1854.81 1682.99 1862.96 Z" fill="#000000" fill-rule="nonzero" fill-opacity="1" /><path clip-path="url(#clip770)" d="M1724.68 1861.78 L1724.68 1883.3 L1718.83 1883.3 L1718.83 1861.98 Q1718.83 1856.92 1716.85 1854.4 Q1714.88 1851.89 1710.93 1851.89 Q1706.19 1851.89 1703.45 1854.91 Q1700.72 1857.93 1700.72 1863.15 L1700.72 1883.3 L1694.83 1883.3 L1694.83 1847.65 L1700.72 1847.65 L1700.72 1853.19 Q1702.82 1849.98 1705.65 1848.39 Q1708.51 1846.79 1712.24 1846.79 Q1718.38 1846.79 1721.53 1850.61 Q1724.68 1854.4 1724.68 1861.78 Z" fill="#000000" fill-rule="nonzero" fill-opacity="1" /><path clip-path="url(#clip770)" d="M1762.02 1849.02 L1762.02 1854.5 Q1759.54 1853.13 1757.02 1852.46 Q1754.54 1851.76 1751.99 1851.76 Q1746.3 1851.76 1743.14 1855.39 Q1739.99 1858.98 1739.99 1865.51 Q1739.99 1872.03 1743.14 1875.66 Q1746.3 1879.26 1751.99 1879.26 Q1754.54 1879.26 1757.02 1878.59 Q1759.54 1877.89 1762.02 1876.52 L1762.02 1881.93 Q1759.57 1883.08 1756.93 1883.65 Q1754.32 1884.22 1751.36 1884.22 Q1743.3 1884.22 1738.56 1879.16 Q1733.82 1874.1 1733.82 1865.51 Q1733.82 1856.79 1738.59 1851.79 Q1743.4 1846.79 1751.74 1846.79 Q1754.44 1846.79 1757.02 1847.37 Q1759.6 1847.91 1762.02 1849.02 Z" fill="#000000" fill-rule="nonzero" fill-opacity="1" /><path clip-path="url(#clip770)" d="M1787.04 1886.61 Q1784.55 1892.98 1782.2 1894.92 Q1779.84 1896.86 1775.9 1896.86 L1771.22 1896.86 L1771.22 1891.96 L1774.65 1891.96 Q1777.07 1891.96 1778.41 1890.81 Q1779.75 1889.67 1781.37 1885.4 L1782.42 1882.73 L1768 1847.65 L1774.21 1847.65 L1785.35 1875.53 L1796.49 1847.65 L1802.7 1847.65 L1787.04 1886.61 Z" fill="#000000" fill-rule="nonzero" fill-opacity="1" /><polyline clip-path="url(#clip770)" style="stroke:#000000; stroke-linecap:round; stroke-linejoin:round; stroke-width:4; stroke-opacity:1; fill:none" points="278.571,1734.12 278.571,127.792 "/>
<polyline clip-path="url(#clip770)" style="stroke:#000000; stroke-linecap:round; stroke-linejoin:round; stroke-width:4; stroke-opacity:1; fill:none" points="278.571,1496.02 297.468,1496.02 "/>
<polyline clip-path="url(#clip770)" style="stroke:#000000; stroke-linecap:round; stroke-linejoin:round; stroke-width:4; stroke-opacity:1; fill:none" points="278.571,1082.32 297.468,1082.32 "/>
<polyline clip-path="url(#clip770)" style="stroke:#000000; stroke-linecap:round; stroke-linejoin:round; stroke-width:4; stroke-opacity:1; fill:none" points="278.571,668.622 297.468,668.622 "/>
<polyline clip-path="url(#clip770)" style="stroke:#000000; stroke-linecap:round; stroke-linejoin:round; stroke-width:4; stroke-opacity:1; fill:none" points="278.571,254.923 297.468,254.923 "/>
<path clip-path="url(#clip770)" d="M116.214 1496.47 L145.89 1496.47 L145.89 1500.41 L116.214 1500.41 L116.214 1496.47 Z" fill="#000000" fill-rule="nonzero" fill-opacity="1" /><path clip-path="url(#clip770)" d="M170.149 1494.67 Q173.506 1495.38 175.381 1497.65 Q177.279 1499.92 177.279 1503.25 Q177.279 1508.37 173.76 1511.17 Q170.242 1513.97 163.76 1513.97 Q161.585 1513.97 159.27 1513.53 Q156.978 1513.11 154.524 1512.26 L154.524 1507.74 Q156.469 1508.88 158.784 1509.46 Q161.098 1510.04 163.622 1510.04 Q168.02 1510.04 170.311 1508.3 Q172.626 1506.56 172.626 1503.25 Q172.626 1500.2 170.473 1498.48 Q168.344 1496.75 164.524 1496.75 L160.497 1496.75 L160.497 1492.91 L164.71 1492.91 Q168.159 1492.91 169.987 1491.54 Q171.816 1490.15 171.816 1487.56 Q171.816 1484.9 169.918 1483.48 Q168.043 1482.05 164.524 1482.05 Q162.603 1482.05 160.404 1482.47 Q158.205 1482.88 155.566 1483.76 L155.566 1479.6 Q158.228 1478.86 160.543 1478.48 Q162.881 1478.11 164.941 1478.11 Q170.265 1478.11 173.367 1480.55 Q176.469 1482.95 176.469 1487.07 Q176.469 1489.94 174.825 1491.93 Q173.182 1493.9 170.149 1494.67 Z" fill="#000000" fill-rule="nonzero" fill-opacity="1" /><path clip-path="url(#clip770)" d="M196.145 1481.82 Q192.533 1481.82 190.705 1485.38 Q188.899 1488.92 188.899 1496.05 Q188.899 1503.16 190.705 1506.73 Q192.533 1510.27 196.145 1510.27 Q199.779 1510.27 201.584 1506.73 Q203.413 1503.16 203.413 1496.05 Q203.413 1488.92 201.584 1485.38 Q199.779 1481.82 196.145 1481.82 M196.145 1478.11 Q201.955 1478.11 205.01 1482.72 Q208.089 1487.3 208.089 1496.05 Q208.089 1504.78 205.01 1509.39 Q201.955 1513.97 196.145 1513.97 Q190.334 1513.97 187.256 1509.39 Q184.2 1504.78 184.2 1496.05 Q184.2 1487.3 187.256 1482.72 Q190.334 1478.11 196.145 1478.11 Z" fill="#000000" fill-rule="nonzero" fill-opacity="1" /><path clip-path="url(#clip770)" d="M226.306 1481.82 Q222.695 1481.82 220.867 1485.38 Q219.061 1488.92 219.061 1496.05 Q219.061 1503.16 220.867 1506.73 Q222.695 1510.27 226.306 1510.27 Q229.941 1510.27 231.746 1506.73 Q233.575 1503.16 233.575 1496.05 Q233.575 1488.92 231.746 1485.38 Q229.941 1481.82 226.306 1481.82 M226.306 1478.11 Q232.117 1478.11 235.172 1482.72 Q238.251 1487.3 238.251 1496.05 Q238.251 1504.78 235.172 1509.39 Q232.117 1513.97 226.306 1513.97 Q220.496 1513.97 217.418 1509.39 Q214.362 1504.78 214.362 1496.05 Q214.362 1487.3 217.418 1482.72 Q220.496 1478.11 226.306 1478.11 Z" fill="#000000" fill-rule="nonzero" fill-opacity="1" /><path clip-path="url(#clip770)" d="M116.214 1082.77 L145.89 1082.77 L145.89 1086.71 L116.214 1086.71 L116.214 1082.77 Z" fill="#000000" fill-rule="nonzero" fill-opacity="1" /><path clip-path="url(#clip770)" d="M160.011 1095.67 L176.33 1095.67 L176.33 1099.6 L154.386 1099.6 L154.386 1095.67 Q157.048 1092.91 161.631 1088.28 Q166.237 1083.63 167.418 1082.29 Q169.663 1079.76 170.543 1078.03 Q171.446 1076.27 171.446 1074.58 Q171.446 1071.82 169.501 1070.09 Q167.58 1068.35 164.478 1068.35 Q162.279 1068.35 159.825 1069.11 Q157.395 1069.88 154.617 1071.43 L154.617 1066.71 Q157.441 1065.57 159.895 1064.99 Q162.348 1064.42 164.385 1064.42 Q169.756 1064.42 172.95 1067.1 Q176.145 1069.79 176.145 1074.28 Q176.145 1076.41 175.334 1078.33 Q174.547 1080.23 172.441 1082.82 Q171.862 1083.49 168.76 1086.71 Q165.659 1089.9 160.011 1095.67 Z" fill="#000000" fill-rule="nonzero" fill-opacity="1" /><path clip-path="url(#clip770)" d="M196.145 1068.12 Q192.533 1068.12 190.705 1071.68 Q188.899 1075.23 188.899 1082.36 Q188.899 1089.46 190.705 1093.03 Q192.533 1096.57 196.145 1096.57 Q199.779 1096.57 201.584 1093.03 Q203.413 1089.46 203.413 1082.36 Q203.413 1075.23 201.584 1071.68 Q199.779 1068.12 196.145 1068.12 M196.145 1064.42 Q201.955 1064.42 205.01 1069.02 Q208.089 1073.61 208.089 1082.36 Q208.089 1091.08 205.01 1095.69 Q201.955 1100.27 196.145 1100.27 Q190.334 1100.27 187.256 1095.69 Q184.2 1091.08 184.2 1082.36 Q184.2 1073.61 187.256 1069.02 Q190.334 1064.42 196.145 1064.42 Z" fill="#000000" fill-rule="nonzero" fill-opacity="1" /><path clip-path="url(#clip770)" d="M226.306 1068.12 Q222.695 1068.12 220.867 1071.68 Q219.061 1075.23 219.061 1082.36 Q219.061 1089.46 220.867 1093.03 Q222.695 1096.57 226.306 1096.57 Q229.941 1096.57 231.746 1093.03 Q233.575 1089.46 233.575 1082.36 Q233.575 1075.23 231.746 1071.68 Q229.941 1068.12 226.306 1068.12 M226.306 1064.42 Q232.117 1064.42 235.172 1069.02 Q238.251 1073.61 238.251 1082.36 Q238.251 1091.08 235.172 1095.69 Q232.117 1100.27 226.306 1100.27 Q220.496 1100.27 217.418 1095.69 Q214.362 1091.08 214.362 1082.36 Q214.362 1073.61 217.418 1069.02 Q220.496 1064.42 226.306 1064.42 Z" fill="#000000" fill-rule="nonzero" fill-opacity="1" /><path clip-path="url(#clip770)" d="M116.214 669.073 L145.89 669.073 L145.89 673.008 L116.214 673.008 L116.214 669.073 Z" fill="#000000" fill-rule="nonzero" fill-opacity="1" /><path clip-path="url(#clip770)" d="M156.793 681.967 L164.432 681.967 L164.432 655.601 L156.122 657.268 L156.122 653.008 L164.385 651.342 L169.061 651.342 L169.061 681.967 L176.7 681.967 L176.7 685.902 L156.793 685.902 L156.793 681.967 Z" fill="#000000" fill-rule="nonzero" fill-opacity="1" /><path clip-path="url(#clip770)" d="M196.145 654.42 Q192.533 654.42 190.705 657.985 Q188.899 661.527 188.899 668.656 Q188.899 675.763 190.705 679.328 Q192.533 682.869 196.145 682.869 Q199.779 682.869 201.584 679.328 Q203.413 675.763 203.413 668.656 Q203.413 661.527 201.584 657.985 Q199.779 654.42 196.145 654.42 M196.145 650.717 Q201.955 650.717 205.01 655.323 Q208.089 659.907 208.089 668.656 Q208.089 677.383 205.01 681.99 Q201.955 686.573 196.145 686.573 Q190.334 686.573 187.256 681.99 Q184.2 677.383 184.2 668.656 Q184.2 659.907 187.256 655.323 Q190.334 650.717 196.145 650.717 Z" fill="#000000" fill-rule="nonzero" fill-opacity="1" /><path clip-path="url(#clip770)" d="M226.306 654.42 Q222.695 654.42 220.867 657.985 Q219.061 661.527 219.061 668.656 Q219.061 675.763 220.867 679.328 Q222.695 682.869 226.306 682.869 Q229.941 682.869 231.746 679.328 Q233.575 675.763 233.575 668.656 Q233.575 661.527 231.746 657.985 Q229.941 654.42 226.306 654.42 M226.306 650.717 Q232.117 650.717 235.172 655.323 Q238.251 659.907 238.251 668.656 Q238.251 677.383 235.172 681.99 Q232.117 686.573 226.306 686.573 Q220.496 686.573 217.418 681.99 Q214.362 677.383 214.362 668.656 Q214.362 659.907 217.418 655.323 Q220.496 650.717 226.306 650.717 Z" fill="#000000" fill-rule="nonzero" fill-opacity="1" /><path clip-path="url(#clip770)" d="M226.306 240.722 Q222.695 240.722 220.867 244.286 Q219.061 247.828 219.061 254.958 Q219.061 262.064 220.867 265.629 Q222.695 269.17 226.306 269.17 Q229.941 269.17 231.746 265.629 Q233.575 262.064 233.575 254.958 Q233.575 247.828 231.746 244.286 Q229.941 240.722 226.306 240.722 M226.306 237.018 Q232.117 237.018 235.172 241.624 Q238.251 246.208 238.251 254.958 Q238.251 263.684 235.172 268.291 Q232.117 272.874 226.306 272.874 Q220.496 272.874 217.418 268.291 Q214.362 263.684 214.362 254.958 Q214.362 246.208 217.418 241.624 Q220.496 237.018 226.306 237.018 Z" fill="#000000" fill-rule="nonzero" fill-opacity="1" /><path clip-path="url(#clip770)" d="M54.859 1158.07 L42.0957 1158.07 L42.0957 1168.57 L36.8122 1168.57 L36.8122 1151.7 L57.2143 1151.7 Q59.856 1155.43 61.2247 1159.91 Q62.5615 1164.4 62.5615 1169.49 Q62.5615 1180.63 56.0684 1186.94 Q49.5436 1193.21 37.9262 1193.21 Q26.2769 1193.21 19.7839 1186.94 Q13.2591 1180.63 13.2591 1169.49 Q13.2591 1164.85 14.4049 1160.68 Q15.5507 1156.48 17.7787 1152.94 L24.6219 1152.94 Q21.5981 1156.51 20.0704 1160.52 Q18.5426 1164.53 18.5426 1168.95 Q18.5426 1177.67 23.4124 1182.07 Q28.2821 1186.43 37.9262 1186.43 Q47.5384 1186.43 52.4082 1182.07 Q57.2779 1177.67 57.2779 1168.95 Q57.2779 1165.55 56.705 1162.87 Q56.1003 1160.2 54.859 1158.07 Z" fill="#000000" fill-rule="nonzero" fill-opacity="1" /><path clip-path="url(#clip770)" d="M42.3504 1109.72 L45.2149 1109.72 L45.2149 1136.65 Q51.2623 1136.26 54.4452 1133.02 Q57.5962 1129.74 57.5962 1123.92 Q57.5962 1120.54 56.7687 1117.39 Q55.9411 1114.21 54.2861 1111.09 L59.8242 1111.09 Q61.161 1114.24 61.8612 1117.55 Q62.5615 1120.86 62.5615 1124.27 Q62.5615 1132.8 57.5962 1137.79 Q52.631 1142.76 44.1646 1142.76 Q35.4117 1142.76 30.2873 1138.05 Q25.1311 1133.3 25.1311 1125.28 Q25.1311 1118.09 29.7781 1113.92 Q34.3932 1109.72 42.3504 1109.72 M40.6316 1115.58 Q35.8255 1115.64 32.9609 1118.28 Q30.0964 1120.89 30.0964 1125.22 Q30.0964 1130.12 32.8654 1133.08 Q35.6345 1136.01 40.6634 1136.46 L40.6316 1115.58 Z" fill="#000000" fill-rule="nonzero" fill-opacity="1" /><path clip-path="url(#clip770)" d="M40.1224 1070.47 L61.6384 1070.47 L61.6384 1076.33 L40.3133 1076.33 Q35.2526 1076.33 32.7381 1078.3 Q30.2237 1080.28 30.2237 1084.22 Q30.2237 1088.97 33.2474 1091.7 Q36.2711 1094.44 41.491 1094.44 L61.6384 1094.44 L61.6384 1100.33 L25.9905 1100.33 L25.9905 1094.44 L31.5287 1094.44 Q28.314 1092.34 26.7225 1089.51 Q25.1311 1086.64 25.1311 1082.92 Q25.1311 1076.78 28.9505 1073.63 Q32.7381 1070.47 40.1224 1070.47 Z" fill="#000000" fill-rule="nonzero" fill-opacity="1" /><path clip-path="url(#clip770)" d="M42.3504 1028.3 L45.2149 1028.3 L45.2149 1055.23 Q51.2623 1054.85 54.4452 1051.6 Q57.5962 1048.32 57.5962 1042.5 Q57.5962 1039.12 56.7687 1035.97 Q55.9411 1032.79 54.2861 1029.67 L59.8242 1029.67 Q61.161 1032.82 61.8612 1036.13 Q62.5615 1039.44 62.5615 1042.85 Q62.5615 1051.38 57.5962 1056.37 Q52.631 1061.34 44.1646 1061.34 Q35.4117 1061.34 30.2873 1056.63 Q25.1311 1051.89 25.1311 1043.87 Q25.1311 1036.67 29.7781 1032.5 Q34.3932 1028.3 42.3504 1028.3 M40.6316 1034.16 Q35.8255 1034.22 32.9609 1036.86 Q30.0964 1039.47 30.0964 1043.8 Q30.0964 1048.7 32.8654 1051.66 Q35.6345 1054.59 40.6634 1055.04 L40.6316 1034.16 Z" fill="#000000" fill-rule="nonzero" fill-opacity="1" /><path clip-path="url(#clip770)" d="M31.465 998.033 Q30.8921 999.02 30.6375 1000.2 Q30.351 1001.34 30.351 1002.74 Q30.351 1007.71 33.5975 1010.38 Q36.8122 1013.02 42.8596 1013.02 L61.6384 1013.02 L61.6384 1018.91 L25.9905 1018.91 L25.9905 1013.02 L31.5287 1013.02 Q28.2821 1011.18 26.7225 1008.22 Q25.1311 1005.26 25.1311 1001.03 Q25.1311 1000.42 25.2266 999.688 Q25.2903 998.956 25.4494 998.065 L31.465 998.033 Z" fill="#000000" fill-rule="nonzero" fill-opacity="1" /><path clip-path="url(#clip770)" d="M43.719 975.69 Q43.719 982.787 45.3422 985.525 Q46.9655 988.262 50.8804 988.262 Q53.9996 988.262 55.8457 986.225 Q57.6599 984.156 57.6599 980.623 Q57.6599 975.753 54.2224 972.825 Q50.7531 969.865 45.0239 969.865 L43.719 969.865 L43.719 975.69 M41.3 964.008 L61.6384 964.008 L61.6384 969.865 L56.2276 969.865 Q59.4741 971.87 61.0337 974.862 Q62.5615 977.854 62.5615 982.183 Q62.5615 987.657 59.5059 990.904 Q56.4186 994.118 51.2623 994.118 Q45.2467 994.118 42.1912 990.108 Q39.1357 986.066 39.1357 978.077 L39.1357 969.865 L38.5628 969.865 Q34.5205 969.865 32.3244 972.539 Q30.0964 975.18 30.0964 979.986 Q30.0964 983.042 30.8284 985.938 Q31.5605 988.835 33.0246 991.508 L27.6137 991.508 Q26.3724 988.294 25.7677 985.27 Q25.1311 982.246 25.1311 979.382 Q25.1311 971.647 29.1415 967.828 Q33.1519 964.008 41.3 964.008 Z" fill="#000000" fill-rule="nonzero" fill-opacity="1" /><path clip-path="url(#clip770)" d="M15.869 946.153 L25.9905 946.153 L25.9905 934.09 L30.542 934.09 L30.542 946.153 L49.8937 946.153 Q54.2542 946.153 55.4955 944.975 Q56.7368 943.766 56.7368 940.105 L56.7368 934.09 L61.6384 934.09 L61.6384 940.105 Q61.6384 946.885 59.124 949.463 Q56.5777 952.041 49.8937 952.041 L30.542 952.041 L30.542 956.338 L25.9905 956.338 L25.9905 952.041 L15.869 952.041 L15.869 946.153 Z" fill="#000000" fill-rule="nonzero" fill-opacity="1" /><path clip-path="url(#clip770)" d="M25.9905 926.387 L25.9905 920.531 L61.6384 920.531 L61.6384 926.387 L25.9905 926.387 M12.1132 926.387 L12.1132 920.531 L19.5293 920.531 L19.5293 926.387 L12.1132 926.387 Z" fill="#000000" fill-rule="nonzero" fill-opacity="1" /><path clip-path="url(#clip770)" d="M30.0964 894.463 Q30.0964 899.174 33.7885 901.911 Q37.4488 904.648 43.8463 904.648 Q50.2438 904.648 53.9359 901.943 Q57.5962 899.206 57.5962 894.463 Q57.5962 889.784 53.9041 887.047 Q50.212 884.31 43.8463 884.31 Q37.5124 884.31 33.8203 887.047 Q30.0964 889.784 30.0964 894.463 M25.1311 894.463 Q25.1311 886.824 30.0964 882.464 Q35.0616 878.103 43.8463 878.103 Q52.5991 878.103 57.5962 882.464 Q62.5615 886.824 62.5615 894.463 Q62.5615 902.134 57.5962 906.494 Q52.5991 910.823 43.8463 910.823 Q35.0616 910.823 30.0964 906.494 Q25.1311 902.134 25.1311 894.463 Z" fill="#000000" fill-rule="nonzero" fill-opacity="1" /><path clip-path="url(#clip770)" d="M40.1224 838.763 L61.6384 838.763 L61.6384 844.62 L40.3133 844.62 Q35.2526 844.62 32.7381 846.593 Q30.2237 848.566 30.2237 852.513 Q30.2237 857.256 33.2474 859.993 Q36.2711 862.73 41.491 862.73 L61.6384 862.73 L61.6384 868.618 L25.9905 868.618 L25.9905 862.73 L31.5287 862.73 Q28.314 860.629 26.7225 857.797 Q25.1311 854.932 25.1311 851.208 Q25.1311 845.065 28.9505 841.914 Q32.7381 838.763 40.1224 838.763 Z" fill="#000000" fill-rule="nonzero" fill-opacity="1" /><path clip-path="url(#clip770)" d="M15.869 800.569 L25.9905 800.569 L25.9905 788.506 L30.542 788.506 L30.542 800.569 L49.8937 800.569 Q54.2542 800.569 55.4955 799.391 Q56.7368 798.182 56.7368 794.522 L56.7368 788.506 L61.6384 788.506 L61.6384 794.522 Q61.6384 801.301 59.124 803.879 Q56.5777 806.457 49.8937 806.457 L30.542 806.457 L30.542 810.754 L25.9905 810.754 L25.9905 806.457 L15.869 806.457 L15.869 800.569 Z" fill="#000000" fill-rule="nonzero" fill-opacity="1" /><path clip-path="url(#clip770)" d="M25.9905 780.803 L25.9905 774.947 L61.6384 774.947 L61.6384 780.803 L25.9905 780.803 M12.1132 780.803 L12.1132 774.947 L19.5293 774.947 L19.5293 780.803 L12.1132 780.803 Z" fill="#000000" fill-rule="nonzero" fill-opacity="1" /><path clip-path="url(#clip770)" d="M32.8336 734.939 Q28.8869 732.742 27.009 729.687 Q25.1311 726.631 25.1311 722.494 Q25.1311 716.924 29.046 713.9 Q32.9291 710.876 40.1224 710.876 L61.6384 710.876 L61.6384 716.764 L40.3133 716.764 Q35.1889 716.764 32.7063 718.579 Q30.2237 720.393 30.2237 724.117 Q30.2237 728.668 33.2474 731.31 Q36.2711 733.952 41.491 733.952 L61.6384 733.952 L61.6384 739.84 L40.3133 739.84 Q35.1571 739.84 32.7063 741.654 Q30.2237 743.469 30.2237 747.256 Q30.2237 751.744 33.2792 754.386 Q36.3029 757.028 41.491 757.028 L61.6384 757.028 L61.6384 762.916 L25.9905 762.916 L25.9905 757.028 L31.5287 757.028 Q28.2503 755.022 26.6907 752.221 Q25.1311 749.421 25.1311 745.569 Q25.1311 741.686 27.1045 738.981 Q29.0779 736.244 32.8336 734.939 Z" fill="#000000" fill-rule="nonzero" fill-opacity="1" /><path clip-path="url(#clip770)" d="M42.3504 668.703 L45.2149 668.703 L45.2149 695.63 Q51.2623 695.248 54.4452 692.002 Q57.5962 688.724 57.5962 682.899 Q57.5962 679.525 56.7687 676.374 Q55.9411 673.191 54.2861 670.072 L59.8242 670.072 Q61.161 673.223 61.8612 676.533 Q62.5615 679.843 62.5615 683.249 Q62.5615 691.779 57.5962 696.776 Q52.631 701.741 44.1646 701.741 Q35.4117 701.741 30.2873 697.031 Q25.1311 692.288 25.1311 684.268 Q25.1311 677.074 29.7781 672.905 Q34.3932 668.703 42.3504 668.703 M40.6316 674.56 Q35.8255 674.623 32.9609 677.265 Q30.0964 679.875 30.0964 684.204 Q30.0964 689.105 32.8654 692.066 Q35.6345 694.994 40.6634 695.439 L40.6316 674.56 Z" fill="#000000" fill-rule="nonzero" fill-opacity="1" /><path clip-path="url(#clip770)" d="M1041.77 12.096 L1076.53 12.096 L1076.53 18.9825 L1049.95 18.9825 L1049.95 36.8065 L1073.94 36.8065 L1073.94 43.6931 L1049.95 43.6931 L1049.95 72.576 L1041.77 72.576 L1041.77 12.096 Z" fill="#000000" fill-rule="nonzero" fill-opacity="1" /><path clip-path="url(#clip770)" d="M1102.17 49.7694 Q1093.14 49.7694 1089.65 51.8354 Q1086.17 53.9013 1086.17 58.8839 Q1086.17 62.8538 1088.76 65.2034 Q1091.4 67.5124 1095.89 67.5124 Q1102.09 67.5124 1105.82 63.1374 Q1109.58 58.7219 1109.58 51.4303 L1109.58 49.7694 L1102.17 49.7694 M1117.04 46.6907 L1117.04 72.576 L1109.58 72.576 L1109.58 65.6895 Q1107.03 69.8214 1103.22 71.8063 Q1099.42 73.7508 1093.91 73.7508 Q1086.94 73.7508 1082.81 69.8619 Q1078.72 65.9325 1078.72 59.3701 Q1078.72 51.7138 1083.82 47.825 Q1088.97 43.9361 1099.13 43.9361 L1109.58 43.9361 L1109.58 43.2069 Q1109.58 38.0623 1106.18 35.2672 Q1102.82 32.4315 1096.7 32.4315 Q1092.81 32.4315 1089.13 33.3632 Q1085.44 34.295 1082.04 36.1584 L1082.04 29.2718 Q1086.13 27.692 1089.98 26.9223 Q1093.83 26.1121 1097.47 26.1121 Q1107.32 26.1121 1112.18 31.2163 Q1117.04 36.3204 1117.04 46.6907 Z" fill="#000000" fill-rule="nonzero" fill-opacity="1" /><path clip-path="url(#clip770)" d="M1161.31 28.5427 L1161.31 35.5912 Q1158.15 33.9709 1154.75 33.1607 Q1151.35 32.3505 1147.7 32.3505 Q1142.15 32.3505 1139.36 34.0519 Q1136.6 35.7533 1136.6 39.156 Q1136.6 41.7486 1138.59 43.2475 Q1140.57 44.7058 1146.57 46.0426 L1149.12 46.6097 Q1157.06 48.3111 1160.38 51.4303 Q1163.74 54.509 1163.74 60.0587 Q1163.74 66.3781 1158.72 70.0644 Q1153.74 73.7508 1144.99 73.7508 Q1141.34 73.7508 1137.37 73.0216 Q1133.44 72.3329 1129.07 70.9151 L1129.07 63.2184 Q1133.2 65.3654 1137.21 66.4591 Q1141.22 67.5124 1145.15 67.5124 Q1150.42 67.5124 1153.25 65.73 Q1156.09 63.9071 1156.09 60.6258 Q1156.09 57.5877 1154.02 55.9673 Q1152 54.3469 1145.07 52.8481 L1142.48 52.2405 Q1135.55 50.7821 1132.47 47.7845 Q1129.39 44.7463 1129.39 39.4801 Q1129.39 33.0797 1133.93 29.5959 Q1138.47 26.1121 1146.81 26.1121 Q1150.94 26.1121 1154.59 26.7198 Q1158.24 27.3274 1161.31 28.5427 Z" fill="#000000" fill-rule="nonzero" fill-opacity="1" /><path clip-path="url(#clip770)" d="M1182.99 14.324 L1182.99 27.2059 L1198.34 27.2059 L1198.34 32.9987 L1182.99 32.9987 L1182.99 57.6282 Q1182.99 63.1779 1184.49 64.7578 Q1186.02 66.3376 1190.68 66.3376 L1198.34 66.3376 L1198.34 72.576 L1190.68 72.576 Q1182.05 72.576 1178.77 69.3758 Q1175.49 66.1351 1175.49 57.6282 L1175.49 32.9987 L1170.02 32.9987 L1170.02 27.2059 L1175.49 27.2059 L1175.49 14.324 L1182.99 14.324 Z" fill="#000000" fill-rule="nonzero" fill-opacity="1" /><path clip-path="url(#clip770)" d="M1204.38 46.5287 L1226.21 46.5287 L1226.21 53.1722 L1204.38 53.1722 L1204.38 46.5287 Z" fill="#000000" fill-rule="nonzero" fill-opacity="1" /><path clip-path="url(#clip770)" d="M1267 28.5427 L1267 35.5912 Q1263.84 33.9709 1260.44 33.1607 Q1257.04 32.3505 1253.39 32.3505 Q1247.84 32.3505 1245.05 34.0519 Q1242.29 35.7533 1242.29 39.156 Q1242.29 41.7486 1244.28 43.2475 Q1246.26 44.7058 1252.26 46.0426 L1254.81 46.6097 Q1262.75 48.3111 1266.07 51.4303 Q1269.43 54.509 1269.43 60.0587 Q1269.43 66.3781 1264.41 70.0644 Q1259.43 73.7508 1250.68 73.7508 Q1247.03 73.7508 1243.06 73.0216 Q1239.13 72.3329 1234.76 70.9151 L1234.76 63.2184 Q1238.89 65.3654 1242.9 66.4591 Q1246.91 67.5124 1250.84 67.5124 Q1256.11 67.5124 1258.94 65.73 Q1261.78 63.9071 1261.78 60.6258 Q1261.78 57.5877 1259.71 55.9673 Q1257.69 54.3469 1250.76 52.8481 L1248.17 52.2405 Q1241.24 50.7821 1238.16 47.7845 Q1235.08 44.7463 1235.08 39.4801 Q1235.08 33.0797 1239.62 29.5959 Q1244.16 26.1121 1252.5 26.1121 Q1256.63 26.1121 1260.28 26.7198 Q1263.92 27.3274 1267 28.5427 Z" fill="#000000" fill-rule="nonzero" fill-opacity="1" /><path clip-path="url(#clip770)" d="M1281.3 9.54393 L1288.76 9.54393 L1288.76 72.576 L1281.3 72.576 L1281.3 9.54393 Z" fill="#000000" fill-rule="nonzero" fill-opacity="1" /><path clip-path="url(#clip770)" d="M1321.93 32.4315 Q1315.94 32.4315 1312.45 37.1306 Q1308.97 41.7891 1308.97 49.9314 Q1308.97 58.0738 1312.41 62.7728 Q1315.9 67.4314 1321.93 67.4314 Q1327.89 67.4314 1331.37 62.7323 Q1334.86 58.0333 1334.86 49.9314 Q1334.86 41.8701 1331.37 37.1711 Q1327.89 32.4315 1321.93 32.4315 M1321.93 26.1121 Q1331.65 26.1121 1337.2 32.4315 Q1342.75 38.7509 1342.75 49.9314 Q1342.75 61.0714 1337.2 67.4314 Q1331.65 73.7508 1321.93 73.7508 Q1312.17 73.7508 1306.62 67.4314 Q1301.11 61.0714 1301.11 49.9314 Q1301.11 38.7509 1306.62 32.4315 Q1312.17 26.1121 1321.93 26.1121 Z" fill="#000000" fill-rule="nonzero" fill-opacity="1" /><path clip-path="url(#clip770)" d="M1350.78 27.2059 L1358.23 27.2059 L1367.55 62.6108 L1376.82 27.2059 L1385.61 27.2059 L1394.93 62.6108 L1404.21 27.2059 L1411.66 27.2059 L1399.79 72.576 L1391 72.576 L1381.24 35.3887 L1371.43 72.576 L1362.64 72.576 L1350.78 27.2059 Z" fill="#000000" fill-rule="nonzero" fill-opacity="1" /><path clip-path="url(#clip770)" d="M1481.98 28.9478 L1481.98 35.9153 Q1478.82 34.1734 1475.62 33.3227 Q1472.46 32.4315 1469.22 32.4315 Q1461.97 32.4315 1457.96 37.0496 Q1453.95 41.6271 1453.95 49.9314 Q1453.95 58.2358 1457.96 62.8538 Q1461.97 67.4314 1469.22 67.4314 Q1472.46 67.4314 1475.62 66.5807 Q1478.82 65.6895 1481.98 63.9476 L1481.98 70.8341 Q1478.86 72.2924 1475.5 73.0216 Q1472.18 73.7508 1468.41 73.7508 Q1458.16 73.7508 1452.13 67.3098 Q1446.09 60.8689 1446.09 49.9314 Q1446.09 38.832 1452.17 32.472 Q1458.29 26.1121 1468.9 26.1121 Q1472.34 26.1121 1475.62 26.8413 Q1478.91 27.5299 1481.98 28.9478 Z" fill="#000000" fill-rule="nonzero" fill-opacity="1" /><path clip-path="url(#clip770)" d="M1512.53 32.4315 Q1506.53 32.4315 1503.05 37.1306 Q1499.56 41.7891 1499.56 49.9314 Q1499.56 58.0738 1503.01 62.7728 Q1506.49 67.4314 1512.53 67.4314 Q1518.48 67.4314 1521.97 62.7323 Q1525.45 58.0333 1525.45 49.9314 Q1525.45 41.8701 1521.97 37.1711 Q1518.48 32.4315 1512.53 32.4315 M1512.53 26.1121 Q1522.25 26.1121 1527.8 32.4315 Q1533.35 38.7509 1533.35 49.9314 Q1533.35 61.0714 1527.8 67.4314 Q1522.25 73.7508 1512.53 73.7508 Q1502.76 73.7508 1497.22 67.4314 Q1491.71 61.0714 1491.71 49.9314 Q1491.71 38.7509 1497.22 32.4315 Q1502.76 26.1121 1512.53 26.1121 Z" fill="#000000" fill-rule="nonzero" fill-opacity="1" /><path clip-path="url(#clip770)" d="M1583.42 45.1919 L1583.42 72.576 L1575.96 72.576 L1575.96 45.4349 Q1575.96 38.994 1573.45 35.7938 Q1570.94 32.5936 1565.92 32.5936 Q1559.88 32.5936 1556.4 36.4419 Q1552.92 40.2903 1552.92 46.9338 L1552.92 72.576 L1545.42 72.576 L1545.42 27.2059 L1552.92 27.2059 L1552.92 34.2544 Q1555.59 30.163 1559.19 28.1376 Q1562.84 26.1121 1567.58 26.1121 Q1575.4 26.1121 1579.41 30.9732 Q1583.42 35.7938 1583.42 45.1919 Z" fill="#000000" fill-rule="nonzero" fill-opacity="1" /><path clip-path="url(#clip770)" d="M1605.66 14.324 L1605.66 27.2059 L1621.01 27.2059 L1621.01 32.9987 L1605.66 32.9987 L1605.66 57.6282 Q1605.66 63.1779 1607.16 64.7578 Q1608.7 66.3376 1613.35 66.3376 L1621.01 66.3376 L1621.01 72.576 L1613.35 72.576 Q1604.73 72.576 1601.45 69.3758 Q1598.16 66.1351 1598.16 57.6282 L1598.16 32.9987 L1592.7 32.9987 L1592.7 27.2059 L1598.16 27.2059 L1598.16 14.324 L1605.66 14.324 Z" fill="#000000" fill-rule="nonzero" fill-opacity="1" /><path clip-path="url(#clip770)" d="M1630.81 27.2059 L1638.27 27.2059 L1638.27 72.576 L1630.81 72.576 L1630.81 27.2059 M1630.81 9.54393 L1638.27 9.54393 L1638.27 18.9825 L1630.81 18.9825 L1630.81 9.54393 Z" fill="#000000" fill-rule="nonzero" fill-opacity="1" /><path clip-path="url(#clip770)" d="M1691.58 45.1919 L1691.58 72.576 L1684.12 72.576 L1684.12 45.4349 Q1684.12 38.994 1681.61 35.7938 Q1679.1 32.5936 1674.08 32.5936 Q1668.04 32.5936 1664.56 36.4419 Q1661.07 40.2903 1661.07 46.9338 L1661.07 72.576 L1653.58 72.576 L1653.58 27.2059 L1661.07 27.2059 L1661.07 34.2544 Q1663.75 30.163 1667.35 28.1376 Q1671 26.1121 1675.74 26.1121 Q1683.56 26.1121 1687.57 30.9732 Q1691.58 35.7938 1691.58 45.1919 Z" fill="#000000" fill-rule="nonzero" fill-opacity="1" /><path clip-path="url(#clip770)" d="M1705.67 54.671 L1705.67 27.2059 L1713.13 27.2059 L1713.13 54.3874 Q1713.13 60.8284 1715.64 64.0691 Q1718.15 67.2693 1723.17 67.2693 Q1729.21 67.2693 1732.69 63.421 Q1736.22 59.5726 1736.22 52.9291 L1736.22 27.2059 L1743.67 27.2059 L1743.67 72.576 L1736.22 72.576 L1736.22 65.6084 Q1733.5 69.7404 1729.9 71.7658 Q1726.33 73.7508 1721.59 73.7508 Q1713.78 73.7508 1709.73 68.8897 Q1705.67 64.0286 1705.67 54.671 M1724.43 26.1121 L1724.43 26.1121 Z" fill="#000000" fill-rule="nonzero" fill-opacity="1" /><path clip-path="url(#clip770)" d="M1758.26 54.671 L1758.26 27.2059 L1765.71 27.2059 L1765.71 54.3874 Q1765.71 60.8284 1768.22 64.0691 Q1770.73 67.2693 1775.76 67.2693 Q1781.79 67.2693 1785.28 63.421 Q1788.8 59.5726 1788.8 52.9291 L1788.8 27.2059 L1796.25 27.2059 L1796.25 72.576 L1788.8 72.576 L1788.8 65.6084 Q1786.09 69.7404 1782.48 71.7658 Q1778.92 73.7508 1774.18 73.7508 Q1766.36 73.7508 1762.31 68.8897 Q1758.26 64.0286 1758.26 54.671 M1777.01 26.1121 L1777.01 26.1121 Z" fill="#000000" fill-rule="nonzero" fill-opacity="1" /><path clip-path="url(#clip770)" d="M1846.93 35.9153 Q1849.72 30.8922 1853.61 28.5022 Q1857.5 26.1121 1862.77 26.1121 Q1869.86 26.1121 1873.71 31.0947 Q1877.55 36.0368 1877.55 45.1919 L1877.55 72.576 L1870.06 72.576 L1870.06 45.4349 Q1870.06 38.913 1867.75 35.7533 Q1865.44 32.5936 1860.7 32.5936 Q1854.91 32.5936 1851.55 36.4419 Q1848.19 40.2903 1848.19 46.9338 L1848.19 72.576 L1840.69 72.576 L1840.69 45.4349 Q1840.69 38.8725 1838.38 35.7533 Q1836.07 32.5936 1831.25 32.5936 Q1825.54 32.5936 1822.18 36.4824 Q1818.82 40.3308 1818.82 46.9338 L1818.82 72.576 L1811.32 72.576 L1811.32 27.2059 L1818.82 27.2059 L1818.82 34.2544 Q1821.37 30.082 1824.93 28.0971 Q1828.5 26.1121 1833.4 26.1121 Q1838.34 26.1121 1841.79 28.6237 Q1845.27 31.1352 1846.93 35.9153 Z" fill="#000000" fill-rule="nonzero" fill-opacity="1" /><circle clip-path="url(#clip771)" cx="345.425" cy="246.649" r="28.8" fill="#ff0000" fill-rule="evenodd" fill-opacity="1" stroke="#000000" stroke-opacity="1" stroke-width="3.84"/>
<circle clip-path="url(#clip771)" cx="716.838" cy="1688.65" r="28.8" fill="#0000ff" fill-rule="evenodd" fill-opacity="1" stroke="#000000" stroke-opacity="1" stroke-width="3.84"/>
<circle clip-path="url(#clip771)" cx="2573.9" cy="173.254" r="28.8" fill="#008000" fill-rule="evenodd" fill-opacity="1" stroke="#000000" stroke-opacity="1" stroke-width="3.84"/>
<path clip-path="url(#clip770)" d="M233.154 224.47 L222.055 254.568 L244.294 254.568 L233.154 224.47 M228.536 216.409 L237.813 216.409 L260.862 276.889 L252.356 276.889 L246.846 261.374 L219.584 261.374 L214.075 276.889 L205.446 276.889 L228.536 216.409 Z" fill="#000000" fill-rule="nonzero" fill-opacity="1" /><path clip-path="url(#clip770)" d="M307.083 249.505 L307.083 276.889 L299.63 276.889 L299.63 249.748 Q299.63 243.307 297.118 240.107 Q294.607 236.906 289.583 236.906 Q283.548 236.906 280.064 240.755 Q276.58 244.603 276.58 251.247 L276.58 276.889 L269.086 276.889 L269.086 231.519 L276.58 231.519 L276.58 238.567 Q279.254 234.476 282.859 232.45 Q286.505 230.425 291.244 230.425 Q299.063 230.425 303.073 235.286 Q307.083 240.107 307.083 249.505 Z" fill="#000000" fill-rule="nonzero" fill-opacity="1" /><path clip-path="url(#clip770)" d="M359.664 249.505 L359.664 276.889 L352.21 276.889 L352.21 249.748 Q352.21 243.307 349.699 240.107 Q347.187 236.906 342.164 236.906 Q336.128 236.906 332.645 240.755 Q329.161 244.603 329.161 251.247 L329.161 276.889 L321.667 276.889 L321.667 231.519 L329.161 231.519 L329.161 238.567 Q331.834 234.476 335.44 232.45 Q339.085 230.425 343.825 230.425 Q351.643 230.425 355.654 235.286 Q359.664 240.107 359.664 249.505 Z" fill="#000000" fill-rule="nonzero" fill-opacity="1" /><path clip-path="url(#clip770)" d="M373.761 258.984 L373.761 231.519 L381.215 231.519 L381.215 258.7 Q381.215 265.141 383.726 268.382 Q386.238 271.582 391.261 271.582 Q397.297 271.582 400.781 267.734 Q404.305 263.885 404.305 257.242 L404.305 231.519 L411.759 231.519 L411.759 276.889 L404.305 276.889 L404.305 269.921 Q401.591 274.053 397.986 276.079 Q394.421 278.064 389.681 278.064 Q381.863 278.064 377.812 273.203 Q373.761 268.341 373.761 258.984 M392.517 230.425 L392.517 230.425 Z" fill="#000000" fill-rule="nonzero" fill-opacity="1" /><path clip-path="url(#clip770)" d="M447.731 254.082 Q438.697 254.082 435.213 256.148 Q431.73 258.214 431.73 263.197 Q431.73 267.167 434.322 269.516 Q436.955 271.825 441.452 271.825 Q447.65 271.825 451.377 267.45 Q455.144 263.035 455.144 255.743 L455.144 254.082 L447.731 254.082 M462.598 251.004 L462.598 276.889 L455.144 276.889 L455.144 270.002 Q452.592 274.134 448.784 276.119 Q444.976 278.064 439.467 278.064 Q432.499 278.064 428.367 274.175 Q424.276 270.245 424.276 263.683 Q424.276 256.027 429.38 252.138 Q434.525 248.249 444.693 248.249 L455.144 248.249 L455.144 247.52 Q455.144 242.375 451.741 239.58 Q448.379 236.744 442.262 236.744 Q438.373 236.744 434.687 237.676 Q431 238.608 427.598 240.471 L427.598 233.585 Q431.689 232.005 435.537 231.235 Q439.386 230.425 443.032 230.425 Q452.875 230.425 457.736 235.529 Q462.598 240.633 462.598 251.004 Z" fill="#000000" fill-rule="nonzero" fill-opacity="1" /><path clip-path="url(#clip770)" d="M477.95 213.857 L485.404 213.857 L485.404 276.889 L477.95 276.889 L477.95 213.857 Z" fill="#000000" fill-rule="nonzero" fill-opacity="1" /><path clip-path="url(#clip770)" d="M431.209 1665.14 L431.209 1687.87 L441.498 1687.87 Q447.21 1687.87 450.329 1684.91 Q453.448 1681.95 453.448 1676.48 Q453.448 1671.05 450.329 1668.1 Q447.21 1665.14 441.498 1665.14 L431.209 1665.14 M423.026 1658.41 L441.498 1658.41 Q451.666 1658.41 456.851 1663.03 Q462.077 1667.61 462.077 1676.48 Q462.077 1685.43 456.851 1690.01 Q451.666 1694.59 441.498 1694.59 L431.209 1694.59 L431.209 1718.89 L423.026 1718.89 L423.026 1658.41 Z" fill="#000000" fill-rule="nonzero" fill-opacity="1" /><path clip-path="url(#clip770)" d="M508.581 1694.35 L508.581 1697.99 L474.31 1697.99 Q474.796 1705.69 478.928 1709.74 Q483.101 1713.75 490.514 1713.75 Q494.808 1713.75 498.818 1712.7 Q502.869 1711.64 506.839 1709.54 L506.839 1716.59 Q502.829 1718.29 498.616 1719.18 Q494.403 1720.07 490.068 1720.07 Q479.212 1720.07 472.852 1713.75 Q466.532 1707.43 466.532 1696.66 Q466.532 1685.52 472.528 1678.99 Q478.564 1672.43 488.772 1672.43 Q497.927 1672.43 503.234 1678.35 Q508.581 1684.22 508.581 1694.35 M501.127 1692.16 Q501.046 1686.04 497.684 1682.4 Q494.362 1678.75 488.853 1678.75 Q482.615 1678.75 478.847 1682.27 Q475.12 1685.8 474.553 1692.2 L501.127 1692.16 Z" fill="#000000" fill-rule="nonzero" fill-opacity="1" /><path clip-path="url(#clip770)" d="M547.105 1680.49 Q545.849 1679.76 544.35 1679.44 Q542.892 1679.07 541.11 1679.07 Q534.79 1679.07 531.387 1683.21 Q528.025 1687.3 528.025 1694.99 L528.025 1718.89 L520.531 1718.89 L520.531 1673.52 L528.025 1673.52 L528.025 1680.57 Q530.375 1676.44 534.142 1674.46 Q537.909 1672.43 543.297 1672.43 Q544.067 1672.43 544.999 1672.55 Q545.93 1672.63 547.064 1672.84 L547.105 1680.49 Z" fill="#000000" fill-rule="nonzero" fill-opacity="1" /><path clip-path="url(#clip770)" d="M591.908 1694.35 L591.908 1697.99 L557.637 1697.99 Q558.123 1705.69 562.255 1709.74 Q566.428 1713.75 573.841 1713.75 Q578.135 1713.75 582.145 1712.7 Q586.196 1711.64 590.166 1709.54 L590.166 1716.59 Q586.156 1718.29 581.943 1719.18 Q577.73 1720.07 573.395 1720.07 Q562.539 1720.07 556.179 1713.75 Q549.86 1707.43 549.86 1696.66 Q549.86 1685.52 555.855 1678.99 Q561.891 1672.43 572.099 1672.43 Q581.254 1672.43 586.561 1678.35 Q591.908 1684.22 591.908 1694.35 M584.454 1692.16 Q584.373 1686.04 581.011 1682.4 Q577.689 1678.75 572.18 1678.75 Q565.942 1678.75 562.174 1682.27 Q558.448 1685.8 557.88 1692.2 L584.454 1692.16 Z" fill="#000000" fill-rule="nonzero" fill-opacity="1" /><path clip-path="url(#clip770)" d="M641.856 1691.51 L641.856 1718.89 L634.402 1718.89 L634.402 1691.75 Q634.402 1685.31 631.89 1682.11 Q629.379 1678.91 624.356 1678.91 Q618.32 1678.91 614.836 1682.76 Q611.352 1686.61 611.352 1693.25 L611.352 1718.89 L603.858 1718.89 L603.858 1673.52 L611.352 1673.52 L611.352 1680.57 Q614.026 1676.48 617.631 1674.46 Q621.277 1672.43 626.017 1672.43 Q633.835 1672.43 637.845 1677.29 Q641.856 1682.11 641.856 1691.51 Z" fill="#000000" fill-rule="nonzero" fill-opacity="1" /><path clip-path="url(#clip770)" d="M694.436 1691.51 L694.436 1718.89 L686.983 1718.89 L686.983 1691.75 Q686.983 1685.31 684.471 1682.11 Q681.96 1678.91 676.936 1678.91 Q670.901 1678.91 667.417 1682.76 Q663.933 1686.61 663.933 1693.25 L663.933 1718.89 L656.439 1718.89 L656.439 1673.52 L663.933 1673.52 L663.933 1680.57 Q666.607 1676.48 670.212 1674.46 Q673.858 1672.43 678.597 1672.43 Q686.416 1672.43 690.426 1677.29 Q694.436 1682.11 694.436 1691.51 Z" fill="#000000" fill-rule="nonzero" fill-opacity="1" /><path clip-path="url(#clip770)" d="M709.303 1673.52 L716.757 1673.52 L716.757 1718.89 L709.303 1718.89 L709.303 1673.52 M709.303 1655.86 L716.757 1655.86 L716.757 1665.3 L709.303 1665.3 L709.303 1655.86 Z" fill="#000000" fill-rule="nonzero" fill-opacity="1" /><path clip-path="url(#clip770)" d="M752.972 1696.09 Q743.938 1696.09 740.455 1698.15 Q736.971 1700.22 736.971 1705.2 Q736.971 1709.17 739.563 1711.52 Q742.197 1713.83 746.693 1713.83 Q752.891 1713.83 756.618 1709.46 Q760.385 1705.04 760.385 1697.75 L760.385 1696.09 L752.972 1696.09 M767.839 1693.01 L767.839 1718.89 L760.385 1718.89 L760.385 1712.01 Q757.833 1716.14 754.025 1718.13 Q750.217 1720.07 744.708 1720.07 Q737.741 1720.07 733.609 1716.18 Q729.517 1712.25 729.517 1705.69 Q729.517 1698.03 734.621 1694.14 Q739.766 1690.26 749.934 1690.26 L760.385 1690.26 L760.385 1689.53 Q760.385 1684.38 756.982 1681.59 Q753.62 1678.75 747.503 1678.75 Q743.614 1678.75 739.928 1679.68 Q736.242 1680.61 732.839 1682.48 L732.839 1675.59 Q736.93 1674.01 740.779 1673.24 Q744.627 1672.43 748.273 1672.43 Q758.117 1672.43 762.978 1677.54 Q767.839 1682.64 767.839 1693.01 Z" fill="#000000" fill-rule="nonzero" fill-opacity="1" /><path clip-path="url(#clip770)" d="M783.192 1655.86 L790.645 1655.86 L790.645 1718.89 L783.192 1718.89 L783.192 1655.86 Z" fill="#000000" fill-rule="nonzero" fill-opacity="1" /><path clip-path="url(#clip770)" d="M870.327 1691.51 L870.327 1718.89 L862.873 1718.89 L862.873 1691.75 Q862.873 1685.31 860.361 1682.11 Q857.85 1678.91 852.827 1678.91 Q846.791 1678.91 843.307 1682.76 Q839.823 1686.61 839.823 1693.25 L839.823 1718.89 L832.329 1718.89 L832.329 1655.86 L839.823 1655.86 L839.823 1680.57 Q842.497 1676.48 846.102 1674.46 Q849.748 1672.43 854.488 1672.43 Q862.306 1672.43 866.316 1677.29 Q870.327 1682.11 870.327 1691.51 Z" fill="#000000" fill-rule="nonzero" fill-opacity="1" /><path clip-path="url(#clip770)" d="M924.001 1694.35 L924.001 1697.99 L889.73 1697.99 Q890.217 1705.69 894.348 1709.74 Q898.521 1713.75 905.934 1713.75 Q910.228 1713.75 914.238 1712.7 Q918.289 1711.64 922.259 1709.54 L922.259 1716.59 Q918.249 1718.29 914.036 1719.18 Q909.823 1720.07 905.488 1720.07 Q894.632 1720.07 888.272 1713.75 Q881.953 1707.43 881.953 1696.66 Q881.953 1685.52 887.948 1678.99 Q893.984 1672.43 904.192 1672.43 Q913.347 1672.43 918.654 1678.35 Q924.001 1684.22 924.001 1694.35 M916.547 1692.16 Q916.466 1686.04 913.104 1682.4 Q909.782 1678.75 904.273 1678.75 Q898.035 1678.75 894.267 1682.27 Q890.541 1685.8 889.974 1692.2 L916.547 1692.16 Z" fill="#000000" fill-rule="nonzero" fill-opacity="1" /><path clip-path="url(#clip770)" d="M962.525 1680.49 Q961.269 1679.76 959.771 1679.44 Q958.312 1679.07 956.53 1679.07 Q950.21 1679.07 946.808 1683.21 Q943.445 1687.3 943.445 1694.99 L943.445 1718.89 L935.951 1718.89 L935.951 1673.52 L943.445 1673.52 L943.445 1680.57 Q945.795 1676.44 949.562 1674.46 Q953.33 1672.43 958.717 1672.43 Q959.487 1672.43 960.419 1672.55 Q961.35 1672.63 962.485 1672.84 L962.525 1680.49 Z" fill="#000000" fill-rule="nonzero" fill-opacity="1" /><path clip-path="url(#clip770)" d="M1002.91 1696.25 Q1002.91 1688.03 999.51 1683.37 Q996.148 1678.67 990.233 1678.67 Q984.319 1678.67 980.916 1683.37 Q977.554 1688.03 977.554 1696.25 Q977.554 1704.47 980.916 1709.17 Q984.319 1713.83 990.233 1713.83 Q996.148 1713.83 999.51 1709.17 Q1002.91 1704.47 1002.91 1696.25 M977.554 1680.41 Q979.904 1676.36 983.468 1674.42 Q987.074 1672.43 992.056 1672.43 Q1000.32 1672.43 1005.46 1678.99 Q1010.65 1685.56 1010.65 1696.25 Q1010.65 1706.94 1005.46 1713.51 Q1000.32 1720.07 992.056 1720.07 Q987.074 1720.07 983.468 1718.13 Q979.904 1716.14 977.554 1712.09 L977.554 1718.89 L970.06 1718.89 L970.06 1655.86 L977.554 1655.86 L977.554 1680.41 Z" fill="#000000" fill-rule="nonzero" fill-opacity="1" /><path clip-path="url(#clip770)" d="M2489.56 143.014 L2540.72 143.014 L2540.72 149.901 L2519.25 149.901 L2519.25 203.494 L2511.03 203.494 L2511.03 149.901 L2489.56 149.901 L2489.56 143.014 Z" fill="#000000" fill-rule="nonzero" fill-opacity="1" /><path clip-path="url(#clip770)" d="M2562.4 165.092 Q2561.14 164.362 2559.64 164.038 Q2558.18 163.674 2556.4 163.674 Q2550.08 163.674 2546.68 167.806 Q2543.32 171.897 2543.32 179.594 L2543.32 203.494 L2535.82 203.494 L2535.82 158.124 L2543.32 158.124 L2543.32 165.173 Q2545.67 161.041 2549.43 159.056 Q2553.2 157.03 2558.59 157.03 Q2559.36 157.03 2560.29 157.152 Q2561.22 157.233 2562.36 157.435 L2562.4 165.092 Z" fill="#000000" fill-rule="nonzero" fill-opacity="1" /><path clip-path="url(#clip770)" d="M2607.2 178.946 L2607.2 182.591 L2572.93 182.591 Q2573.42 190.288 2577.55 194.339 Q2581.72 198.35 2589.13 198.35 Q2593.43 198.35 2597.44 197.296 Q2601.49 196.243 2605.46 194.137 L2605.46 201.185 Q2601.45 202.887 2597.23 203.778 Q2593.02 204.669 2588.69 204.669 Q2577.83 204.669 2571.47 198.35 Q2565.15 192.03 2565.15 181.255 Q2565.15 170.115 2571.15 163.593 Q2577.18 157.03 2587.39 157.03 Q2596.55 157.03 2601.85 162.945 Q2607.2 168.818 2607.2 178.946 M2599.75 176.758 Q2599.67 170.641 2596.3 166.996 Q2592.98 163.35 2587.47 163.35 Q2581.23 163.35 2577.47 166.874 Q2573.74 170.398 2573.17 176.799 L2599.75 176.758 Z" fill="#000000" fill-rule="nonzero" fill-opacity="1" /><path clip-path="url(#clip770)" d="M2658.24 178.946 L2658.24 182.591 L2623.97 182.591 Q2624.46 190.288 2628.59 194.339 Q2632.76 198.35 2640.17 198.35 Q2644.47 198.35 2648.48 197.296 Q2652.53 196.243 2656.5 194.137 L2656.5 201.185 Q2652.49 202.887 2648.28 203.778 Q2644.06 204.669 2639.73 204.669 Q2628.87 204.669 2622.51 198.35 Q2616.19 192.03 2616.19 181.255 Q2616.19 170.115 2622.19 163.593 Q2628.22 157.03 2638.43 157.03 Q2647.59 157.03 2652.89 162.945 Q2658.24 168.818 2658.24 178.946 M2650.79 176.758 Q2650.71 170.641 2647.34 166.996 Q2644.02 163.35 2638.51 163.35 Q2632.28 163.35 2628.51 166.874 Q2624.78 170.398 2624.21 176.799 L2650.79 176.758 Z" fill="#000000" fill-rule="nonzero" fill-opacity="1" /></svg>
