<?xml version="1.0" encoding="utf-8"?>
<svg xmlns="http://www.w3.org/2000/svg" xmlns:xlink="http://www.w3.org/1999/xlink" width="672" height="480" viewBox="0 0 2688 1920">
<defs>
  <clipPath id="clip810">
    <rect x="0" y="0" width="2688" height="1920"/>
  </clipPath>
</defs>
<path clip-path="url(#clip810)" d="M0 1920 L2688 1920 L2688 -4.26326e-14 L0 -4.26326e-14  Z" fill="#ffffff" fill-rule="evenodd" fill-opacity="1"/>
<defs>
  <clipPath id="clip811">
    <rect x="298" y="127" width="2343" height="1607"/>
  </clipPath>
</defs>
<path clip-path="url(#clip810)" d="M298.987 1734.12 L2640.76 1734.12 L2640.76 127.792 L298.987 127.792  Z" fill="#ffffff" fill-rule="evenodd" fill-opacity="1"/>
<polyline clip-path="url(#clip811)" style="stroke:#000000; stroke-linecap:round; stroke-linejoin:round; stroke-width:2; stroke-opacity:0.1; fill:none" points="365.264,1734.12 365.264,127.792 "/>
<polyline clip-path="url(#clip811)" style="stroke:#000000; stroke-linecap:round; stroke-linejoin:round; stroke-width:2; stroke-opacity:0.1; fill:none" points="1101.67,1734.12 1101.67,127.792 "/>
<polyline clip-path="url(#clip811)" style="stroke:#000000; stroke-linecap:round; stroke-linejoin:round; stroke-width:2; stroke-opacity:0.1; fill:none" points="1838.07,1734.12 1838.07,127.792 "/>
<polyline clip-path="url(#clip811)" style="stroke:#000000; stroke-linecap:round; stroke-linejoin:round; stroke-width:2; stroke-opacity:0.1; fill:none" points="2574.48,1734.12 2574.48,127.792 "/>
<polyline clip-path="url(#clip811)" style="stroke:#000000; stroke-linecap:round; stroke-linejoin:round; stroke-width:2; stroke-opacity:0.1; fill:none" points="298.987,1690.2 2640.76,1690.2 "/>
<polyline clip-path="url(#clip811)" style="stroke:#000000; stroke-linecap:round; stroke-linejoin:round; stroke-width:2; stroke-opacity:0.1; fill:none" points="298.987,1304.51 2640.76,1304.51 "/>
<polyline clip-path="url(#clip811)" style="stroke:#000000; stroke-linecap:round; stroke-linejoin:round; stroke-width:2; stroke-opacity:0.1; fill:none" points="298.987,918.817 2640.76,918.817 "/>
<polyline clip-path="url(#clip811)" style="stroke:#000000; stroke-linecap:round; stroke-linejoin:round; stroke-width:2; stroke-opacity:0.1; fill:none" points="298.987,533.128 2640.76,533.128 "/>
<polyline clip-path="url(#clip811)" style="stroke:#000000; stroke-linecap:round; stroke-linejoin:round; stroke-width:2; stroke-opacity:0.1; fill:none" points="298.987,147.438 2640.76,147.438 "/>
<polyline clip-path="url(#clip810)" style="stroke:#000000; stroke-linecap:round; stroke-linejoin:round; stroke-width:4; stroke-opacity:1; fill:none" points="298.987,1734.12 2640.76,1734.12 "/>
<polyline clip-path="url(#clip810)" style="stroke:#000000; stroke-linecap:round; stroke-linejoin:round; stroke-width:4; stroke-opacity:1; fill:none" points="365.264,1734.12 365.264,1715.22 "/>
<polyline clip-path="url(#clip810)" style="stroke:#000000; stroke-linecap:round; stroke-linejoin:round; stroke-width:4; stroke-opacity:1; fill:none" points="1101.67,1734.12 1101.67,1715.22 "/>
<polyline clip-path="url(#clip810)" style="stroke:#000000; stroke-linecap:round; stroke-linejoin:round; stroke-width:4; stroke-opacity:1; fill:none" points="1838.07,1734.12 1838.07,1715.22 "/>
<polyline clip-path="url(#clip810)" style="stroke:#000000; stroke-linecap:round; stroke-linejoin:round; stroke-width:4; stroke-opacity:1; fill:none" points="2574.48,1734.12 2574.48,1715.22 "/>
<path clip-path="url(#clip810)" d="M365.264 1767.34 Q361.653 1767.34 359.824 1770.9 Q358.019 1774.45 358.019 1781.58 Q358.019 1788.68 359.824 1792.25 Q361.653 1795.79 365.264 1795.79 Q368.898 1795.79 370.704 1792.25 Q372.532 1788.68 372.532 1781.58 Q372.532 1774.45 370.704 1770.9 Q368.898 1767.34 365.264 1767.34 M365.264 1763.64 Q371.074 1763.64 374.13 1768.24 Q377.208 1772.83 377.208 1781.58 Q377.208 1790.3 374.13 1794.91 Q371.074 1799.49 365.264 1799.49 Q359.454 1799.49 356.375 1794.91 Q353.319 1790.3 353.319 1781.58 Q353.319 1772.83 356.375 1768.24 Q359.454 1763.64 365.264 1763.64 Z" fill="#000000" fill-rule="nonzero" fill-opacity="1" /><path clip-path="url(#clip810)" d="M1076.36 1794.89 L1084 1794.89 L1084 1768.52 L1075.69 1770.19 L1075.69 1765.93 L1083.95 1764.26 L1088.63 1764.26 L1088.63 1794.89 L1096.26 1794.89 L1096.26 1798.82 L1076.36 1798.82 L1076.36 1794.89 Z" fill="#000000" fill-rule="nonzero" fill-opacity="1" /><path clip-path="url(#clip810)" d="M1115.71 1767.34 Q1112.1 1767.34 1110.27 1770.9 Q1108.46 1774.45 1108.46 1781.58 Q1108.46 1788.68 1110.27 1792.25 Q1112.1 1795.79 1115.71 1795.79 Q1119.34 1795.79 1121.15 1792.25 Q1122.98 1788.68 1122.98 1781.58 Q1122.98 1774.45 1121.15 1770.9 Q1119.34 1767.34 1115.71 1767.34 M1115.71 1763.64 Q1121.52 1763.64 1124.57 1768.24 Q1127.65 1772.83 1127.65 1781.58 Q1127.65 1790.3 1124.57 1794.91 Q1121.52 1799.49 1115.71 1799.49 Q1109.9 1799.49 1106.82 1794.91 Q1103.76 1790.3 1103.76 1781.58 Q1103.76 1772.83 1106.82 1768.24 Q1109.9 1763.64 1115.71 1763.64 Z" fill="#000000" fill-rule="nonzero" fill-opacity="1" /><path clip-path="url(#clip810)" d="M1816.85 1794.89 L1833.17 1794.89 L1833.17 1798.82 L1811.22 1798.82 L1811.22 1794.89 Q1813.88 1792.13 1818.47 1787.5 Q1823.07 1782.85 1824.25 1781.51 Q1826.5 1778.98 1827.38 1777.25 Q1828.28 1775.49 1828.28 1773.8 Q1828.28 1771.04 1826.34 1769.31 Q1824.42 1767.57 1821.32 1767.57 Q1819.12 1767.57 1816.66 1768.34 Q1814.23 1769.1 1811.45 1770.65 L1811.45 1765.93 Q1814.28 1764.79 1816.73 1764.21 Q1819.19 1763.64 1821.22 1763.64 Q1826.59 1763.64 1829.79 1766.32 Q1832.98 1769.01 1832.98 1773.5 Q1832.98 1775.63 1832.17 1777.55 Q1831.38 1779.45 1829.28 1782.04 Q1828.7 1782.71 1825.6 1785.93 Q1822.5 1789.12 1816.85 1794.89 Z" fill="#000000" fill-rule="nonzero" fill-opacity="1" /><path clip-path="url(#clip810)" d="M1852.98 1767.34 Q1849.37 1767.34 1847.54 1770.9 Q1845.74 1774.45 1845.74 1781.58 Q1845.74 1788.68 1847.54 1792.25 Q1849.37 1795.79 1852.98 1795.79 Q1856.62 1795.79 1858.42 1792.25 Q1860.25 1788.68 1860.25 1781.58 Q1860.25 1774.45 1858.42 1770.9 Q1856.62 1767.34 1852.98 1767.34 M1852.98 1763.64 Q1858.79 1763.64 1861.85 1768.24 Q1864.93 1772.83 1864.93 1781.58 Q1864.93 1790.3 1861.85 1794.91 Q1858.79 1799.49 1852.98 1799.49 Q1847.17 1799.49 1844.09 1794.91 Q1841.04 1790.3 1841.04 1781.58 Q1841.04 1772.83 1844.09 1768.24 Q1847.17 1763.64 1852.98 1763.64 Z" fill="#000000" fill-rule="nonzero" fill-opacity="1" /><path clip-path="url(#clip810)" d="M2563.32 1780.19 Q2566.68 1780.9 2568.55 1783.17 Q2570.45 1785.44 2570.45 1788.77 Q2570.45 1793.89 2566.93 1796.69 Q2563.41 1799.49 2556.93 1799.49 Q2554.76 1799.49 2552.44 1799.05 Q2550.15 1798.64 2547.7 1797.78 L2547.7 1793.27 Q2549.64 1794.4 2551.96 1794.98 Q2554.27 1795.56 2556.79 1795.56 Q2561.19 1795.56 2563.48 1793.82 Q2565.8 1792.08 2565.8 1788.77 Q2565.8 1785.72 2563.65 1784.01 Q2561.52 1782.27 2557.7 1782.27 L2553.67 1782.27 L2553.67 1778.43 L2557.88 1778.43 Q2561.33 1778.43 2563.16 1777.06 Q2564.99 1775.67 2564.99 1773.08 Q2564.99 1770.42 2563.09 1769.01 Q2561.22 1767.57 2557.7 1767.57 Q2555.78 1767.57 2553.58 1767.99 Q2551.38 1768.4 2548.74 1769.28 L2548.74 1765.12 Q2551.4 1764.38 2553.72 1764.01 Q2556.05 1763.64 2558.11 1763.64 Q2563.44 1763.64 2566.54 1766.07 Q2569.64 1768.47 2569.64 1772.59 Q2569.64 1775.46 2568 1777.46 Q2566.35 1779.42 2563.32 1780.19 Z" fill="#000000" fill-rule="nonzero" fill-opacity="1" /><path clip-path="url(#clip810)" d="M2589.32 1767.34 Q2585.71 1767.34 2583.88 1770.9 Q2582.07 1774.45 2582.07 1781.58 Q2582.07 1788.68 2583.88 1792.25 Q2585.71 1795.79 2589.32 1795.79 Q2592.95 1795.79 2594.76 1792.25 Q2596.59 1788.68 2596.59 1781.58 Q2596.59 1774.45 2594.76 1770.9 Q2592.95 1767.34 2589.32 1767.34 M2589.32 1763.64 Q2595.13 1763.64 2598.18 1768.24 Q2601.26 1772.83 2601.26 1781.58 Q2601.26 1790.3 2598.18 1794.91 Q2595.13 1799.49 2589.32 1799.49 Q2583.51 1799.49 2580.43 1794.91 Q2577.37 1790.3 2577.37 1781.58 Q2577.37 1772.83 2580.43 1768.24 Q2583.51 1763.64 2589.32 1763.64 Z" fill="#000000" fill-rule="nonzero" fill-opacity="1" /><path clip-path="url(#clip810)" d="M1400.8 1835.78 L1407.71 1835.78 L1420.89 1855.32 L1433.97 1835.78 L1440.88 1835.78 L1424.07 1860.67 L1424.07 1883.3 L1417.61 1883.3 L1417.61 1860.67 L1400.8 1835.78 Z" fill="#000000" fill-rule="nonzero" fill-opacity="1" /><path clip-path="url(#clip810)" d="M1468.73 1864.01 L1468.73 1866.88 L1441.8 1866.88 Q1442.18 1872.92 1445.43 1876.11 Q1448.71 1879.26 1454.53 1879.26 Q1457.9 1879.26 1461.06 1878.43 Q1464.24 1877.6 1467.36 1875.95 L1467.36 1881.49 Q1464.21 1882.82 1460.9 1883.52 Q1457.59 1884.22 1454.18 1884.22 Q1445.65 1884.22 1440.65 1879.26 Q1435.69 1874.29 1435.69 1865.83 Q1435.69 1857.07 1440.4 1851.95 Q1445.14 1846.79 1453.16 1846.79 Q1460.35 1846.79 1464.52 1851.44 Q1468.73 1856.06 1468.73 1864.01 M1462.87 1862.29 Q1462.81 1857.49 1460.16 1854.62 Q1457.55 1851.76 1453.23 1851.76 Q1448.32 1851.76 1445.36 1854.53 Q1442.44 1857.3 1441.99 1862.33 L1462.87 1862.29 Z" fill="#000000" fill-rule="nonzero" fill-opacity="1" /><path clip-path="url(#clip810)" d="M1494.54 1865.38 Q1487.44 1865.38 1484.7 1867 Q1481.97 1868.63 1481.97 1872.54 Q1481.97 1875.66 1484 1877.51 Q1486.07 1879.32 1489.61 1879.32 Q1494.48 1879.32 1497.4 1875.88 Q1500.36 1872.42 1500.36 1866.69 L1500.36 1865.38 L1494.54 1865.38 M1506.22 1862.96 L1506.22 1883.3 L1500.36 1883.3 L1500.36 1877.89 Q1498.36 1881.14 1495.37 1882.7 Q1492.37 1884.22 1488.05 1884.22 Q1482.57 1884.22 1479.32 1881.17 Q1476.11 1878.08 1476.11 1872.92 Q1476.11 1866.91 1480.12 1863.85 Q1484.16 1860.8 1492.15 1860.8 L1500.36 1860.8 L1500.36 1860.23 Q1500.36 1856.18 1497.69 1853.99 Q1495.05 1851.76 1490.24 1851.76 Q1487.19 1851.76 1484.29 1852.49 Q1481.39 1853.22 1478.72 1854.69 L1478.72 1849.28 Q1481.93 1848.03 1484.96 1847.43 Q1487.98 1846.79 1490.85 1846.79 Q1498.58 1846.79 1502.4 1850.8 Q1506.22 1854.81 1506.22 1862.96 Z" fill="#000000" fill-rule="nonzero" fill-opacity="1" /><path clip-path="url(#clip810)" d="M1538.94 1853.13 Q1537.95 1852.55 1536.78 1852.3 Q1535.63 1852.01 1534.23 1852.01 Q1529.26 1852.01 1526.59 1855.26 Q1523.95 1858.47 1523.95 1864.52 L1523.95 1883.3 L1518.06 1883.3 L1518.06 1847.65 L1523.95 1847.65 L1523.95 1853.19 Q1525.79 1849.94 1528.75 1848.39 Q1531.71 1846.79 1535.95 1846.79 Q1536.55 1846.79 1537.28 1846.89 Q1538.02 1846.95 1538.91 1847.11 L1538.94 1853.13 Z" fill="#000000" fill-rule="nonzero" fill-opacity="1" /><polyline clip-path="url(#clip810)" style="stroke:#000000; stroke-linecap:round; stroke-linejoin:round; stroke-width:4; stroke-opacity:1; fill:none" points="298.987,1734.12 298.987,127.792 "/>
<polyline clip-path="url(#clip810)" style="stroke:#000000; stroke-linecap:round; stroke-linejoin:round; stroke-width:4; stroke-opacity:1; fill:none" points="298.987,1690.2 317.885,1690.2 "/>
<polyline clip-path="url(#clip810)" style="stroke:#000000; stroke-linecap:round; stroke-linejoin:round; stroke-width:4; stroke-opacity:1; fill:none" points="298.987,1304.51 317.885,1304.51 "/>
<polyline clip-path="url(#clip810)" style="stroke:#000000; stroke-linecap:round; stroke-linejoin:round; stroke-width:4; stroke-opacity:1; fill:none" points="298.987,918.817 317.885,918.817 "/>
<polyline clip-path="url(#clip810)" style="stroke:#000000; stroke-linecap:round; stroke-linejoin:round; stroke-width:4; stroke-opacity:1; fill:none" points="298.987,533.128 317.885,533.128 "/>
<polyline clip-path="url(#clip810)" style="stroke:#000000; stroke-linecap:round; stroke-linejoin:round; stroke-width:4; stroke-opacity:1; fill:none" points="298.987,147.438 317.885,147.438 "/>
<path clip-path="url(#clip810)" d="M246.723 1675.99 Q243.112 1675.99 241.283 1679.56 Q239.478 1683.1 239.478 1690.23 Q239.478 1697.34 241.283 1700.9 Q243.112 1704.44 246.723 1704.44 Q250.357 1704.44 252.163 1700.9 Q253.991 1697.34 253.991 1690.23 Q253.991 1683.1 252.163 1679.56 Q250.357 1675.99 246.723 1675.99 M246.723 1672.29 Q252.533 1672.29 255.589 1676.9 Q258.667 1681.48 258.667 1690.23 Q258.667 1698.96 255.589 1703.56 Q252.533 1708.15 246.723 1708.15 Q240.913 1708.15 237.834 1703.56 Q234.779 1698.96 234.779 1690.23 Q234.779 1681.48 237.834 1676.9 Q240.913 1672.29 246.723 1672.29 Z" fill="#000000" fill-rule="nonzero" fill-opacity="1" /><path clip-path="url(#clip810)" d="M150.265 1317.85 L166.585 1317.85 L166.585 1321.79 L144.64 1321.79 L144.64 1317.85 Q147.302 1315.1 151.886 1310.47 Q156.492 1305.81 157.673 1304.47 Q159.918 1301.95 160.798 1300.21 Q161.7 1298.45 161.7 1296.76 Q161.7 1294.01 159.756 1292.27 Q157.835 1290.54 154.733 1290.54 Q152.534 1290.54 150.08 1291.3 Q147.649 1292.06 144.872 1293.62 L144.872 1288.89 Q147.696 1287.76 150.149 1287.18 Q152.603 1286.6 154.64 1286.6 Q160.011 1286.6 163.205 1289.29 Q166.399 1291.97 166.399 1296.46 Q166.399 1298.59 165.589 1300.51 Q164.802 1302.41 162.696 1305 Q162.117 1305.68 159.015 1308.89 Q155.913 1312.09 150.265 1317.85 Z" fill="#000000" fill-rule="nonzero" fill-opacity="1" /><path clip-path="url(#clip810)" d="M176.446 1287.23 L194.802 1287.23 L194.802 1291.16 L180.728 1291.16 L180.728 1299.63 Q181.746 1299.29 182.765 1299.12 Q183.784 1298.94 184.802 1298.94 Q190.589 1298.94 193.969 1302.11 Q197.348 1305.28 197.348 1310.7 Q197.348 1316.28 193.876 1319.38 Q190.404 1322.46 184.084 1322.46 Q181.909 1322.46 179.64 1322.09 Q177.395 1321.72 174.987 1320.98 L174.987 1316.28 Q177.071 1317.41 179.293 1317.97 Q181.515 1318.52 183.992 1318.52 Q187.996 1318.52 190.334 1316.42 Q192.672 1314.31 192.672 1310.7 Q192.672 1307.09 190.334 1304.98 Q187.996 1302.87 183.992 1302.87 Q182.117 1302.87 180.242 1303.29 Q178.39 1303.71 176.446 1304.59 L176.446 1287.23 Z" fill="#000000" fill-rule="nonzero" fill-opacity="1" /><path clip-path="url(#clip810)" d="M216.561 1290.3 Q212.95 1290.3 211.121 1293.87 Q209.316 1297.41 209.316 1304.54 Q209.316 1311.65 211.121 1315.21 Q212.95 1318.75 216.561 1318.75 Q220.195 1318.75 222.001 1315.21 Q223.83 1311.65 223.83 1304.54 Q223.83 1297.41 222.001 1293.87 Q220.195 1290.3 216.561 1290.3 M216.561 1286.6 Q222.371 1286.6 225.427 1291.21 Q228.506 1295.79 228.506 1304.54 Q228.506 1313.27 225.427 1317.87 Q222.371 1322.46 216.561 1322.46 Q210.751 1322.46 207.672 1317.87 Q204.617 1313.27 204.617 1304.54 Q204.617 1295.79 207.672 1291.21 Q210.751 1286.6 216.561 1286.6 Z" fill="#000000" fill-rule="nonzero" fill-opacity="1" /><path clip-path="url(#clip810)" d="M246.723 1290.3 Q243.112 1290.3 241.283 1293.87 Q239.478 1297.41 239.478 1304.54 Q239.478 1311.65 241.283 1315.21 Q243.112 1318.75 246.723 1318.75 Q250.357 1318.75 252.163 1315.21 Q253.991 1311.65 253.991 1304.54 Q253.991 1297.41 252.163 1293.87 Q250.357 1290.3 246.723 1290.3 M246.723 1286.6 Q252.533 1286.6 255.589 1291.21 Q258.667 1295.79 258.667 1304.54 Q258.667 1313.27 255.589 1317.87 Q252.533 1322.46 246.723 1322.46 Q240.913 1322.46 237.834 1317.87 Q234.779 1313.27 234.779 1304.54 Q234.779 1295.79 237.834 1291.21 Q240.913 1286.6 246.723 1286.6 Z" fill="#000000" fill-rule="nonzero" fill-opacity="1" /><path clip-path="url(#clip810)" d="M146.284 901.537 L164.64 901.537 L164.64 905.472 L150.566 905.472 L150.566 913.944 Q151.585 913.597 152.603 913.435 Q153.622 913.25 154.64 913.25 Q160.427 913.25 163.807 916.421 Q167.186 919.592 167.186 925.009 Q167.186 930.588 163.714 933.69 Q160.242 936.768 153.923 936.768 Q151.747 936.768 149.478 936.398 Q147.233 936.027 144.825 935.287 L144.825 930.588 Q146.909 931.722 149.131 932.277 Q151.353 932.833 153.83 932.833 Q157.835 932.833 160.173 930.727 Q162.51 928.62 162.51 925.009 Q162.51 921.398 160.173 919.291 Q157.835 917.185 153.83 917.185 Q151.955 917.185 150.08 917.602 Q148.228 918.018 146.284 918.898 L146.284 901.537 Z" fill="#000000" fill-rule="nonzero" fill-opacity="1" /><path clip-path="url(#clip810)" d="M186.399 904.616 Q182.788 904.616 180.959 908.18 Q179.154 911.722 179.154 918.852 Q179.154 925.958 180.959 929.523 Q182.788 933.065 186.399 933.065 Q190.033 933.065 191.839 929.523 Q193.668 925.958 193.668 918.852 Q193.668 911.722 191.839 908.18 Q190.033 904.616 186.399 904.616 M186.399 900.912 Q192.209 900.912 195.265 905.518 Q198.344 910.102 198.344 918.852 Q198.344 927.578 195.265 932.185 Q192.209 936.768 186.399 936.768 Q180.589 936.768 177.51 932.185 Q174.455 927.578 174.455 918.852 Q174.455 910.102 177.51 905.518 Q180.589 900.912 186.399 900.912 Z" fill="#000000" fill-rule="nonzero" fill-opacity="1" /><path clip-path="url(#clip810)" d="M216.561 904.616 Q212.95 904.616 211.121 908.18 Q209.316 911.722 209.316 918.852 Q209.316 925.958 211.121 929.523 Q212.95 933.065 216.561 933.065 Q220.195 933.065 222.001 929.523 Q223.83 925.958 223.83 918.852 Q223.83 911.722 222.001 908.18 Q220.195 904.616 216.561 904.616 M216.561 900.912 Q222.371 900.912 225.427 905.518 Q228.506 910.102 228.506 918.852 Q228.506 927.578 225.427 932.185 Q222.371 936.768 216.561 936.768 Q210.751 936.768 207.672 932.185 Q204.617 927.578 204.617 918.852 Q204.617 910.102 207.672 905.518 Q210.751 900.912 216.561 900.912 Z" fill="#000000" fill-rule="nonzero" fill-opacity="1" /><path clip-path="url(#clip810)" d="M246.723 904.616 Q243.112 904.616 241.283 908.18 Q239.478 911.722 239.478 918.852 Q239.478 925.958 241.283 929.523 Q243.112 933.065 246.723 933.065 Q250.357 933.065 252.163 929.523 Q253.991 925.958 253.991 918.852 Q253.991 911.722 252.163 908.18 Q250.357 904.616 246.723 904.616 M246.723 900.912 Q252.533 900.912 255.589 905.518 Q258.667 910.102 258.667 918.852 Q258.667 927.578 255.589 932.185 Q252.533 936.768 246.723 936.768 Q240.913 936.768 237.834 932.185 Q234.779 927.578 234.779 918.852 Q234.779 910.102 237.834 905.518 Q240.913 900.912 246.723 900.912 Z" fill="#000000" fill-rule="nonzero" fill-opacity="1" /><path clip-path="url(#clip810)" d="M145.057 515.848 L167.279 515.848 L167.279 517.838 L154.733 550.408 L149.849 550.408 L161.654 519.783 L145.057 519.783 L145.057 515.848 Z" fill="#000000" fill-rule="nonzero" fill-opacity="1" /><path clip-path="url(#clip810)" d="M176.446 515.848 L194.802 515.848 L194.802 519.783 L180.728 519.783 L180.728 528.255 Q181.746 527.908 182.765 527.746 Q183.784 527.56 184.802 527.56 Q190.589 527.56 193.969 530.732 Q197.348 533.903 197.348 539.32 Q197.348 544.898 193.876 548 Q190.404 551.079 184.084 551.079 Q181.909 551.079 179.64 550.708 Q177.395 550.338 174.987 549.597 L174.987 544.898 Q177.071 546.033 179.293 546.588 Q181.515 547.144 183.992 547.144 Q187.996 547.144 190.334 545.037 Q192.672 542.931 192.672 539.32 Q192.672 535.709 190.334 533.602 Q187.996 531.496 183.992 531.496 Q182.117 531.496 180.242 531.912 Q178.39 532.329 176.446 533.209 L176.446 515.848 Z" fill="#000000" fill-rule="nonzero" fill-opacity="1" /><path clip-path="url(#clip810)" d="M216.561 518.926 Q212.95 518.926 211.121 522.491 Q209.316 526.033 209.316 533.162 Q209.316 540.269 211.121 543.833 Q212.95 547.375 216.561 547.375 Q220.195 547.375 222.001 543.833 Q223.83 540.269 223.83 533.162 Q223.83 526.033 222.001 522.491 Q220.195 518.926 216.561 518.926 M216.561 515.223 Q222.371 515.223 225.427 519.829 Q228.506 524.412 228.506 533.162 Q228.506 541.889 225.427 546.496 Q222.371 551.079 216.561 551.079 Q210.751 551.079 207.672 546.496 Q204.617 541.889 204.617 533.162 Q204.617 524.412 207.672 519.829 Q210.751 515.223 216.561 515.223 Z" fill="#000000" fill-rule="nonzero" fill-opacity="1" /><path clip-path="url(#clip810)" d="M246.723 518.926 Q243.112 518.926 241.283 522.491 Q239.478 526.033 239.478 533.162 Q239.478 540.269 241.283 543.833 Q243.112 547.375 246.723 547.375 Q250.357 547.375 252.163 543.833 Q253.991 540.269 253.991 533.162 Q253.991 526.033 252.163 522.491 Q250.357 518.926 246.723 518.926 M246.723 515.223 Q252.533 515.223 255.589 519.829 Q258.667 524.412 258.667 533.162 Q258.667 541.889 255.589 546.496 Q252.533 551.079 246.723 551.079 Q240.913 551.079 237.834 546.496 Q234.779 541.889 234.779 533.162 Q234.779 524.412 237.834 519.829 Q240.913 515.223 246.723 515.223 Z" fill="#000000" fill-rule="nonzero" fill-opacity="1" /><path clip-path="url(#clip810)" d="M116.886 160.783 L124.525 160.783 L124.525 134.417 L116.214 136.084 L116.214 131.825 L124.478 130.158 L129.154 130.158 L129.154 160.783 L136.793 160.783 L136.793 164.718 L116.886 164.718 L116.886 160.783 Z" fill="#000000" fill-rule="nonzero" fill-opacity="1" /><path clip-path="url(#clip810)" d="M156.237 133.237 Q152.626 133.237 150.798 136.802 Q148.992 140.343 148.992 147.473 Q148.992 154.579 150.798 158.144 Q152.626 161.686 156.237 161.686 Q159.872 161.686 161.677 158.144 Q163.506 154.579 163.506 147.473 Q163.506 140.343 161.677 136.802 Q159.872 133.237 156.237 133.237 M156.237 129.533 Q162.048 129.533 165.103 134.14 Q168.182 138.723 168.182 147.473 Q168.182 156.2 165.103 160.806 Q162.048 165.389 156.237 165.389 Q150.427 165.389 147.349 160.806 Q144.293 156.2 144.293 147.473 Q144.293 138.723 147.349 134.14 Q150.427 129.533 156.237 129.533 Z" fill="#000000" fill-rule="nonzero" fill-opacity="1" /><path clip-path="url(#clip810)" d="M186.399 133.237 Q182.788 133.237 180.959 136.802 Q179.154 140.343 179.154 147.473 Q179.154 154.579 180.959 158.144 Q182.788 161.686 186.399 161.686 Q190.033 161.686 191.839 158.144 Q193.668 154.579 193.668 147.473 Q193.668 140.343 191.839 136.802 Q190.033 133.237 186.399 133.237 M186.399 129.533 Q192.209 129.533 195.265 134.14 Q198.344 138.723 198.344 147.473 Q198.344 156.2 195.265 160.806 Q192.209 165.389 186.399 165.389 Q180.589 165.389 177.51 160.806 Q174.455 156.2 174.455 147.473 Q174.455 138.723 177.51 134.14 Q180.589 129.533 186.399 129.533 Z" fill="#000000" fill-rule="nonzero" fill-opacity="1" /><path clip-path="url(#clip810)" d="M216.561 133.237 Q212.95 133.237 211.121 136.802 Q209.316 140.343 209.316 147.473 Q209.316 154.579 211.121 158.144 Q212.95 161.686 216.561 161.686 Q220.195 161.686 222.001 158.144 Q223.83 154.579 223.83 147.473 Q223.83 140.343 222.001 136.802 Q220.195 133.237 216.561 133.237 M216.561 129.533 Q222.371 129.533 225.427 134.14 Q228.506 138.723 228.506 147.473 Q228.506 156.2 225.427 160.806 Q222.371 165.389 216.561 165.389 Q210.751 165.389 207.672 160.806 Q204.617 156.2 204.617 147.473 Q204.617 138.723 207.672 134.14 Q210.751 129.533 216.561 129.533 Z" fill="#000000" fill-rule="nonzero" fill-opacity="1" /><path clip-path="url(#clip810)" d="M246.723 133.237 Q243.112 133.237 241.283 136.802 Q239.478 140.343 239.478 147.473 Q239.478 154.579 241.283 158.144 Q243.112 161.686 246.723 161.686 Q250.357 161.686 252.163 158.144 Q253.991 154.579 253.991 147.473 Q253.991 140.343 252.163 136.802 Q250.357 133.237 246.723 133.237 M246.723 129.533 Q252.533 129.533 255.589 134.14 Q258.667 138.723 258.667 147.473 Q258.667 156.2 255.589 160.806 Q252.533 165.389 246.723 165.389 Q240.913 165.389 237.834 160.806 Q234.779 156.2 234.779 147.473 Q234.779 138.723 237.834 134.14 Q240.913 129.533 246.723 129.533 Z" fill="#000000" fill-rule="nonzero" fill-opacity="1" /><path clip-path="url(#clip810)" d="M20.4523 1090.78 L44.1009 1099.5 L44.1009 1082.03 L20.4523 1090.78 M14.1184 1094.41 L14.1184 1087.12 L61.6384 1069.01 L61.6384 1075.69 L49.4481 1080.02 L49.4481 1101.44 L61.6384 1105.77 L61.6384 1112.55 L14.1184 1094.41 Z" fill="#000000" fill-rule="nonzero" fill-opacity="1" /><path clip-path="url(#clip810)" d="M43.8463 1036.74 Q37.3851 1036.74 33.7248 1039.41 Q30.0327 1042.05 30.0327 1046.7 Q30.0327 1051.35 33.7248 1054.02 Q37.3851 1056.66 43.8463 1056.66 Q50.3075 1056.66 53.9996 1054.02 Q57.6599 1051.35 57.6599 1046.7 Q57.6599 1042.05 53.9996 1039.41 Q50.3075 1036.74 43.8463 1036.74 M31.4013 1056.66 Q28.2185 1054.82 26.6907 1052.01 Q25.1311 1049.18 25.1311 1045.27 Q25.1311 1038.77 30.2873 1034.73 Q35.4436 1030.66 43.8463 1030.66 Q52.249 1030.66 57.4052 1034.73 Q62.5615 1038.77 62.5615 1045.27 Q62.5615 1049.18 61.0337 1052.01 Q59.4741 1054.82 56.2912 1056.66 L61.6384 1056.66 L61.6384 1062.55 L12.1132 1062.55 L12.1132 1056.66 L31.4013 1056.66 Z" fill="#000000" fill-rule="nonzero" fill-opacity="1" /><path clip-path="url(#clip810)" d="M47.5702 1021.55 L25.9905 1021.55 L25.9905 1015.7 L47.3474 1015.7 Q52.4082 1015.7 54.9545 1013.72 Q57.4689 1011.75 57.4689 1007.8 Q57.4689 1003.06 54.4452 1000.32 Q51.4215 997.556 46.2016 997.556 L25.9905 997.556 L25.9905 991.699 L61.6384 991.699 L61.6384 997.556 L56.1639 997.556 Q59.4104 999.688 61.0019 1002.52 Q62.5615 1005.32 62.5615 1009.05 Q62.5615 1015.19 58.742 1018.37 Q54.9226 1021.55 47.5702 1021.55 M25.1311 1006.82 L25.1311 1006.82 Z" fill="#000000" fill-rule="nonzero" fill-opacity="1" /><path clip-path="url(#clip810)" d="M40.1224 950.004 L61.6384 950.004 L61.6384 955.86 L40.3133 955.86 Q35.2526 955.86 32.7381 957.834 Q30.2237 959.807 30.2237 963.754 Q30.2237 968.496 33.2474 971.234 Q36.2711 973.971 41.491 973.971 L61.6384 973.971 L61.6384 979.859 L25.9905 979.859 L25.9905 973.971 L31.5287 973.971 Q28.314 971.87 26.7225 969.037 Q25.1311 966.173 25.1311 962.449 Q25.1311 956.306 28.9505 953.155 Q32.7381 950.004 40.1224 950.004 Z" fill="#000000" fill-rule="nonzero" fill-opacity="1" /><path clip-path="url(#clip810)" d="M31.4013 914.865 L12.1132 914.865 L12.1132 909.009 L61.6384 909.009 L61.6384 914.865 L56.2912 914.865 Q59.4741 916.711 61.0337 919.544 Q62.5615 922.345 62.5615 926.292 Q62.5615 932.753 57.4052 936.827 Q52.249 940.869 43.8463 940.869 Q35.4436 940.869 30.2873 936.827 Q25.1311 932.753 25.1311 926.292 Q25.1311 922.345 26.6907 919.544 Q28.2185 916.711 31.4013 914.865 M43.8463 934.822 Q50.3075 934.822 53.9996 932.18 Q57.6599 929.506 57.6599 924.859 Q57.6599 920.212 53.9996 917.539 Q50.3075 914.865 43.8463 914.865 Q37.3851 914.865 33.7248 917.539 Q30.0327 920.212 30.0327 924.859 Q30.0327 929.506 33.7248 932.18 Q37.3851 934.822 43.8463 934.822 Z" fill="#000000" fill-rule="nonzero" fill-opacity="1" /><path clip-path="url(#clip810)" d="M43.719 880.745 Q43.719 887.843 45.3422 890.58 Q46.9655 893.317 50.8804 893.317 Q53.9996 893.317 55.8457 891.28 Q57.6599 889.211 57.6599 885.678 Q57.6599 880.809 54.2224 877.88 Q50.7531 874.92 45.0239 874.92 L43.719 874.92 L43.719 880.745 M41.3 869.064 L61.6384 869.064 L61.6384 874.92 L56.2276 874.92 Q59.4741 876.926 61.0337 879.918 Q62.5615 882.909 62.5615 887.238 Q62.5615 892.713 59.5059 895.959 Q56.4186 899.174 51.2623 899.174 Q45.2467 899.174 42.1912 895.163 Q39.1357 891.121 39.1357 883.132 L39.1357 874.92 L38.5628 874.92 Q34.5205 874.92 32.3244 877.594 Q30.0964 880.236 30.0964 885.042 Q30.0964 888.097 30.8284 890.994 Q31.5605 893.89 33.0246 896.564 L27.6137 896.564 Q26.3724 893.349 25.7677 890.325 Q25.1311 887.302 25.1311 884.437 Q25.1311 876.703 29.1415 872.883 Q33.1519 869.064 41.3 869.064 Z" fill="#000000" fill-rule="nonzero" fill-opacity="1" /><path clip-path="url(#clip810)" d="M40.1224 827.369 L61.6384 827.369 L61.6384 833.225 L40.3133 833.225 Q35.2526 833.225 32.7381 835.198 Q30.2237 837.172 30.2237 841.119 Q30.2237 845.861 33.2474 848.598 Q36.2711 851.335 41.491 851.335 L61.6384 851.335 L61.6384 857.224 L25.9905 857.224 L25.9905 851.335 L31.5287 851.335 Q28.314 849.235 26.7225 846.402 Q25.1311 843.537 25.1311 839.814 Q25.1311 833.671 28.9505 830.52 Q32.7381 827.369 40.1224 827.369 Z" fill="#000000" fill-rule="nonzero" fill-opacity="1" /><path clip-path="url(#clip810)" d="M27.3591 790.034 L32.8336 790.034 Q31.465 792.516 30.7966 795.031 Q30.0964 797.513 30.0964 800.06 Q30.0964 805.757 33.7248 808.908 Q37.3214 812.059 43.8463 812.059 Q50.3711 812.059 53.9996 808.908 Q57.5962 805.757 57.5962 800.06 Q57.5962 797.513 56.9278 795.031 Q56.2276 792.516 54.859 790.034 L60.2698 790.034 Q61.4156 792.485 61.9886 795.126 Q62.5615 797.736 62.5615 800.696 Q62.5615 808.749 57.5007 813.491 Q52.44 818.234 43.8463 818.234 Q35.1253 818.234 30.1282 813.46 Q25.1311 808.653 25.1311 800.314 Q25.1311 797.609 25.704 795.031 Q26.2451 792.453 27.3591 790.034 Z" fill="#000000" fill-rule="nonzero" fill-opacity="1" /><path clip-path="url(#clip810)" d="M42.3504 749.357 L45.2149 749.357 L45.2149 776.284 Q51.2623 775.902 54.4452 772.655 Q57.5962 769.377 57.5962 763.552 Q57.5962 760.179 56.7687 757.028 Q55.9411 753.845 54.2861 750.725 L59.8242 750.725 Q61.161 753.877 61.8612 757.187 Q62.5615 760.497 62.5615 763.902 Q62.5615 772.433 57.5962 777.43 Q52.631 782.395 44.1646 782.395 Q35.4117 782.395 30.2873 777.684 Q25.1311 772.942 25.1311 764.921 Q25.1311 757.728 29.7781 753.558 Q34.3932 749.357 42.3504 749.357 M40.6316 755.213 Q35.8255 755.277 32.9609 757.919 Q30.0964 760.529 30.0964 764.857 Q30.0964 769.759 32.8654 772.719 Q35.6345 775.647 40.6634 776.093 L40.6316 755.213 Z" fill="#000000" fill-rule="nonzero" fill-opacity="1" /><path clip-path="url(#clip810)" d="M565.528 12.096 L573.71 12.096 L573.71 65.6895 L603.16 65.6895 L603.16 72.576 L565.528 72.576 L565.528 12.096 Z" fill="#000000" fill-rule="nonzero" fill-opacity="1" /><path clip-path="url(#clip810)" d="M627.547 32.4315 Q621.552 32.4315 618.068 37.1306 Q614.584 41.7891 614.584 49.9314 Q614.584 58.0738 618.027 62.7728 Q621.511 67.4314 627.547 67.4314 Q633.502 67.4314 636.985 62.7323 Q640.469 58.0333 640.469 49.9314 Q640.469 41.8701 636.985 37.1711 Q633.502 32.4315 627.547 32.4315 M627.547 26.1121 Q637.269 26.1121 642.819 32.4315 Q648.369 38.7509 648.369 49.9314 Q648.369 61.0714 642.819 67.4314 Q637.269 73.7508 627.547 73.7508 Q617.784 73.7508 612.234 67.4314 Q606.725 61.0714 606.725 49.9314 Q606.725 38.7509 612.234 32.4315 Q617.784 26.1121 627.547 26.1121 Z" fill="#000000" fill-rule="nonzero" fill-opacity="1" /><path clip-path="url(#clip810)" d="M690.579 49.3643 Q690.579 41.2625 687.217 36.8065 Q683.895 32.3505 677.859 32.3505 Q671.864 32.3505 668.502 36.8065 Q665.18 41.2625 665.18 49.3643 Q665.18 57.4256 668.502 61.8816 Q671.864 66.3376 677.859 66.3376 Q683.895 66.3376 687.217 61.8816 Q690.579 57.4256 690.579 49.3643 M698.033 66.9452 Q698.033 78.5308 692.888 84.1616 Q687.743 89.8329 677.13 89.8329 Q673.201 89.8329 669.717 89.2252 Q666.233 88.6581 662.952 87.4428 L662.952 80.1917 Q666.233 81.9741 669.433 82.8248 Q672.633 83.6755 675.955 83.6755 Q683.287 83.6755 686.933 79.8271 Q690.579 76.0193 690.579 68.282 L690.579 64.5957 Q688.27 68.6061 684.665 70.5911 Q681.059 72.576 676.036 72.576 Q667.691 72.576 662.587 66.2161 Q657.483 59.8562 657.483 49.3643 Q657.483 38.832 662.587 32.472 Q667.691 26.1121 676.036 26.1121 Q681.059 26.1121 684.665 28.0971 Q688.27 30.082 690.579 34.0924 L690.579 27.2059 L698.033 27.2059 L698.033 66.9452 Z" fill="#000000" fill-rule="nonzero" fill-opacity="1" /><path clip-path="url(#clip810)" d="M743.241 49.3643 Q743.241 41.2625 739.878 36.8065 Q736.557 32.3505 730.521 32.3505 Q724.526 32.3505 721.163 36.8065 Q717.842 41.2625 717.842 49.3643 Q717.842 57.4256 721.163 61.8816 Q724.526 66.3376 730.521 66.3376 Q736.557 66.3376 739.878 61.8816 Q743.241 57.4256 743.241 49.3643 M750.694 66.9452 Q750.694 78.5308 745.55 84.1616 Q740.405 89.8329 729.792 89.8329 Q725.862 89.8329 722.379 89.2252 Q718.895 88.6581 715.614 87.4428 L715.614 80.1917 Q718.895 81.9741 722.095 82.8248 Q725.295 83.6755 728.617 83.6755 Q735.949 83.6755 739.595 79.8271 Q743.241 76.0193 743.241 68.282 L743.241 64.5957 Q740.932 68.6061 737.326 70.5911 Q733.721 72.576 728.698 72.576 Q720.353 72.576 715.249 66.2161 Q710.145 59.8562 710.145 49.3643 Q710.145 38.832 715.249 32.472 Q720.353 26.1121 728.698 26.1121 Q733.721 26.1121 737.326 28.0971 Q740.932 30.082 743.241 34.0924 L743.241 27.2059 L750.694 27.2059 L750.694 66.9452 Z" fill="#000000" fill-rule="nonzero" fill-opacity="1" /><path clip-path="url(#clip810)" d="M804.855 48.0275 L804.855 51.6733 L770.584 51.6733 Q771.07 59.3701 775.202 63.421 Q779.375 67.4314 786.788 67.4314 Q791.082 67.4314 795.092 66.3781 Q799.143 65.3249 803.113 63.2184 L803.113 70.267 Q799.103 71.9684 794.89 72.8596 Q790.677 73.7508 786.342 73.7508 Q775.486 73.7508 769.126 67.4314 Q762.807 61.1119 762.807 50.3365 Q762.807 39.1965 768.802 32.6746 Q774.838 26.1121 785.046 26.1121 Q794.201 26.1121 799.508 32.0264 Q804.855 37.9003 804.855 48.0275 M797.401 45.84 Q797.32 39.7232 793.958 36.0774 Q790.636 32.4315 785.127 32.4315 Q778.889 32.4315 775.121 35.9558 Q771.394 39.4801 770.827 45.8805 L797.401 45.84 Z" fill="#000000" fill-rule="nonzero" fill-opacity="1" /><path clip-path="url(#clip810)" d="M843.379 34.1734 Q842.123 33.4443 840.624 33.1202 Q839.166 32.7556 837.384 32.7556 Q831.064 32.7556 827.662 36.8875 Q824.299 40.9789 824.299 48.6757 L824.299 72.576 L816.805 72.576 L816.805 27.2059 L824.299 27.2059 L824.299 34.2544 Q826.649 30.1225 830.416 28.1376 Q834.183 26.1121 839.571 26.1121 Q840.341 26.1121 841.273 26.2337 Q842.204 26.3147 843.339 26.5172 L843.379 34.1734 Z" fill="#000000" fill-rule="nonzero" fill-opacity="1" /><path clip-path="url(#clip810)" d="M887.453 45.1919 L887.453 72.576 L879.999 72.576 L879.999 45.4349 Q879.999 38.994 877.488 35.7938 Q874.976 32.5936 869.953 32.5936 Q863.917 32.5936 860.433 36.4419 Q856.95 40.2903 856.95 46.9338 L856.95 72.576 L849.455 72.576 L849.455 9.54393 L856.95 9.54393 L856.95 34.2544 Q859.623 30.163 863.228 28.1376 Q866.874 26.1121 871.614 26.1121 Q879.432 26.1121 883.442 30.9732 Q887.453 35.7938 887.453 45.1919 Z" fill="#000000" fill-rule="nonzero" fill-opacity="1" /><path clip-path="url(#clip810)" d="M941.127 48.0275 L941.127 51.6733 L906.857 51.6733 Q907.343 59.3701 911.475 63.421 Q915.647 67.4314 923.06 67.4314 Q927.354 67.4314 931.365 66.3781 Q935.416 65.3249 939.385 63.2184 L939.385 70.267 Q935.375 71.9684 931.162 72.8596 Q926.949 73.7508 922.615 73.7508 Q911.758 73.7508 905.398 67.4314 Q899.079 61.1119 899.079 50.3365 Q899.079 39.1965 905.074 32.6746 Q911.11 26.1121 921.318 26.1121 Q930.473 26.1121 935.78 32.0264 Q941.127 37.9003 941.127 48.0275 M933.674 45.84 Q933.593 39.7232 930.23 36.0774 Q926.909 32.4315 921.399 32.4315 Q915.161 32.4315 911.394 35.9558 Q907.667 39.4801 907.1 45.8805 L933.674 45.84 Z" fill="#000000" fill-rule="nonzero" fill-opacity="1" /><path clip-path="url(#clip810)" d="M973.98 49.7694 Q964.947 49.7694 961.463 51.8354 Q957.979 53.9013 957.979 58.8839 Q957.979 62.8538 960.572 65.2034 Q963.205 67.5124 967.701 67.5124 Q973.899 67.5124 977.626 63.1374 Q981.393 58.7219 981.393 51.4303 L981.393 49.7694 L973.98 49.7694 M988.847 46.6907 L988.847 72.576 L981.393 72.576 L981.393 65.6895 Q978.841 69.8214 975.033 71.8063 Q971.226 73.7508 965.716 73.7508 Q958.749 73.7508 954.617 69.8619 Q950.525 65.9325 950.525 59.3701 Q950.525 51.7138 955.63 47.825 Q960.774 43.9361 970.942 43.9361 L981.393 43.9361 L981.393 43.2069 Q981.393 38.0623 977.991 35.2672 Q974.628 32.4315 968.511 32.4315 Q964.623 32.4315 960.936 33.3632 Q957.25 34.295 953.847 36.1584 L953.847 29.2718 Q957.939 27.692 961.787 26.9223 Q965.635 26.1121 969.281 26.1121 Q979.125 26.1121 983.986 31.2163 Q988.847 36.3204 988.847 46.6907 Z" fill="#000000" fill-rule="nonzero" fill-opacity="1" /><path clip-path="url(#clip810)" d="M1034.06 34.0924 L1034.06 9.54393 L1041.51 9.54393 L1041.51 72.576 L1034.06 72.576 L1034.06 65.7705 Q1031.71 69.8214 1028.1 71.8063 Q1024.54 73.7508 1019.51 73.7508 Q1011.29 73.7508 1006.1 67.1883 Q1000.96 60.6258 1000.96 49.9314 Q1000.96 39.2371 1006.1 32.6746 Q1011.29 26.1121 1019.51 26.1121 Q1024.54 26.1121 1028.1 28.0971 Q1031.71 30.0415 1034.06 34.0924 M1008.66 49.9314 Q1008.66 58.1548 1012.02 62.8538 Q1015.42 67.5124 1021.34 67.5124 Q1027.25 67.5124 1030.65 62.8538 Q1034.06 58.1548 1034.06 49.9314 Q1034.06 41.7081 1030.65 37.0496 Q1027.25 32.3505 1021.34 32.3505 Q1015.42 32.3505 1012.02 37.0496 Q1008.66 41.7081 1008.66 49.9314 Z" fill="#000000" fill-rule="nonzero" fill-opacity="1" /><path clip-path="url(#clip810)" d="M1112.16 28.5427 L1112.16 35.5912 Q1109 33.9709 1105.59 33.1607 Q1102.19 32.3505 1098.55 32.3505 Q1093 32.3505 1090.2 34.0519 Q1087.45 35.7533 1087.45 39.156 Q1087.45 41.7486 1089.43 43.2475 Q1091.42 44.7058 1097.41 46.0426 L1099.96 46.6097 Q1107.9 48.3111 1111.22 51.4303 Q1114.59 54.509 1114.59 60.0587 Q1114.59 66.3781 1109.56 70.0644 Q1104.58 73.7508 1095.83 73.7508 Q1092.19 73.7508 1088.22 73.0216 Q1084.29 72.3329 1079.91 70.9151 L1079.91 63.2184 Q1084.04 65.3654 1088.05 66.4591 Q1092.06 67.5124 1095.99 67.5124 Q1101.26 67.5124 1104.1 65.73 Q1106.93 63.9071 1106.93 60.6258 Q1106.93 57.5877 1104.86 55.9673 Q1102.84 54.3469 1095.91 52.8481 L1093.32 52.2405 Q1086.39 50.7821 1083.31 47.7845 Q1080.24 44.7463 1080.24 39.4801 Q1080.24 33.0797 1084.77 29.5959 Q1089.31 26.1121 1097.65 26.1121 Q1101.79 26.1121 1105.43 26.7198 Q1109.08 27.3274 1112.16 28.5427 Z" fill="#000000" fill-rule="nonzero" fill-opacity="1" /><path clip-path="url(#clip810)" d="M1165.26 48.0275 L1165.26 51.6733 L1130.99 51.6733 Q1131.48 59.3701 1135.61 63.421 Q1139.78 67.4314 1147.2 67.4314 Q1151.49 67.4314 1155.5 66.3781 Q1159.55 65.3249 1163.52 63.2184 L1163.52 70.267 Q1159.51 71.9684 1155.3 72.8596 Q1151.09 73.7508 1146.75 73.7508 Q1135.89 73.7508 1129.53 67.4314 Q1123.22 61.1119 1123.22 50.3365 Q1123.22 39.1965 1129.21 32.6746 Q1135.25 26.1121 1145.45 26.1121 Q1154.61 26.1121 1159.92 32.0264 Q1165.26 37.9003 1165.26 48.0275 M1157.81 45.84 Q1157.73 39.7232 1154.37 36.0774 Q1151.05 32.4315 1145.54 32.4315 Q1139.3 32.4315 1135.53 35.9558 Q1131.8 39.4801 1131.24 45.8805 L1157.81 45.84 Z" fill="#000000" fill-rule="nonzero" fill-opacity="1" /><path clip-path="url(#clip810)" d="M1198.12 49.7694 Q1189.08 49.7694 1185.6 51.8354 Q1182.12 53.9013 1182.12 58.8839 Q1182.12 62.8538 1184.71 65.2034 Q1187.34 67.5124 1191.84 67.5124 Q1198.04 67.5124 1201.76 63.1374 Q1205.53 58.7219 1205.53 51.4303 L1205.53 49.7694 L1198.12 49.7694 M1212.98 46.6907 L1212.98 72.576 L1205.53 72.576 L1205.53 65.6895 Q1202.98 69.8214 1199.17 71.8063 Q1195.36 73.7508 1189.85 73.7508 Q1182.89 73.7508 1178.75 69.8619 Q1174.66 65.9325 1174.66 59.3701 Q1174.66 51.7138 1179.77 47.825 Q1184.91 43.9361 1195.08 43.9361 L1205.53 43.9361 L1205.53 43.2069 Q1205.53 38.0623 1202.13 35.2672 Q1198.76 32.4315 1192.65 32.4315 Q1188.76 32.4315 1185.07 33.3632 Q1181.39 34.295 1177.98 36.1584 L1177.98 29.2718 Q1182.08 27.692 1185.92 26.9223 Q1189.77 26.1121 1193.42 26.1121 Q1203.26 26.1121 1208.12 31.2163 Q1212.98 36.3204 1212.98 46.6907 Z" fill="#000000" fill-rule="nonzero" fill-opacity="1" /><path clip-path="url(#clip810)" d="M1262.08 14.324 L1262.08 27.2059 L1277.43 27.2059 L1277.43 32.9987 L1262.08 32.9987 L1262.08 57.6282 Q1262.08 63.1779 1263.58 64.7578 Q1265.12 66.3376 1269.78 66.3376 L1277.43 66.3376 L1277.43 72.576 L1269.78 72.576 Q1261.15 72.576 1257.87 69.3758 Q1254.59 66.1351 1254.59 57.6282 L1254.59 32.9987 L1249.12 32.9987 L1249.12 27.2059 L1254.59 27.2059 L1254.59 14.324 L1262.08 14.324 Z" fill="#000000" fill-rule="nonzero" fill-opacity="1" /><path clip-path="url(#clip810)" d="M1286.47 54.671 L1286.47 27.2059 L1293.92 27.2059 L1293.92 54.3874 Q1293.92 60.8284 1296.43 64.0691 Q1298.94 67.2693 1303.97 67.2693 Q1310 67.2693 1313.49 63.421 Q1317.01 59.5726 1317.01 52.9291 L1317.01 27.2059 L1324.46 27.2059 L1324.46 72.576 L1317.01 72.576 L1317.01 65.6084 Q1314.3 69.7404 1310.69 71.7658 Q1307.13 73.7508 1302.39 73.7508 Q1294.57 73.7508 1290.52 68.8897 Q1286.47 64.0286 1286.47 54.671 M1305.22 26.1121 L1305.22 26.1121 Z" fill="#000000" fill-rule="nonzero" fill-opacity="1" /><path clip-path="url(#clip810)" d="M1366.11 34.1734 Q1364.85 33.4443 1363.35 33.1202 Q1361.89 32.7556 1360.11 32.7556 Q1353.79 32.7556 1350.39 36.8875 Q1347.03 40.9789 1347.03 48.6757 L1347.03 72.576 L1339.53 72.576 L1339.53 27.2059 L1347.03 27.2059 L1347.03 34.2544 Q1349.38 30.1225 1353.14 28.1376 Q1356.91 26.1121 1362.3 26.1121 Q1363.07 26.1121 1364 26.2337 Q1364.93 26.3147 1366.07 26.5172 L1366.11 34.1734 Z" fill="#000000" fill-rule="nonzero" fill-opacity="1" /><path clip-path="url(#clip810)" d="M1381.3 14.324 L1381.3 27.2059 L1396.65 27.2059 L1396.65 32.9987 L1381.3 32.9987 L1381.3 57.6282 Q1381.3 63.1779 1382.8 64.7578 Q1384.34 66.3376 1389 66.3376 L1396.65 66.3376 L1396.65 72.576 L1389 72.576 Q1380.37 72.576 1377.09 69.3758 Q1373.8 66.1351 1373.8 57.6282 L1373.8 32.9987 L1368.34 32.9987 L1368.34 27.2059 L1373.8 27.2059 L1373.8 14.324 L1381.3 14.324 Z" fill="#000000" fill-rule="nonzero" fill-opacity="1" /><path clip-path="url(#clip810)" d="M1406.45 9.54393 L1413.91 9.54393 L1413.91 72.576 L1406.45 72.576 L1406.45 9.54393 Z" fill="#000000" fill-rule="nonzero" fill-opacity="1" /><path clip-path="url(#clip810)" d="M1468.31 48.0275 L1468.31 51.6733 L1434.04 51.6733 Q1434.53 59.3701 1438.66 63.421 Q1442.83 67.4314 1450.25 67.4314 Q1454.54 67.4314 1458.55 66.3781 Q1462.6 65.3249 1466.57 63.2184 L1466.57 70.267 Q1462.56 71.9684 1458.35 72.8596 Q1454.13 73.7508 1449.8 73.7508 Q1438.94 73.7508 1432.58 67.4314 Q1426.26 61.1119 1426.26 50.3365 Q1426.26 39.1965 1432.26 32.6746 Q1438.29 26.1121 1448.5 26.1121 Q1457.66 26.1121 1462.96 32.0264 Q1468.31 37.9003 1468.31 48.0275 M1460.86 45.84 Q1460.78 39.7232 1457.42 36.0774 Q1454.09 32.4315 1448.58 32.4315 Q1442.35 32.4315 1438.58 35.9558 Q1434.85 39.4801 1434.28 45.8805 L1460.86 45.84 Z" fill="#000000" fill-rule="nonzero" fill-opacity="1" /><path clip-path="url(#clip810)" d="M1514.13 65.7705 L1514.13 89.8329 L1506.63 89.8329 L1506.63 27.2059 L1514.13 27.2059 L1514.13 34.0924 Q1516.48 30.0415 1520.04 28.0971 Q1523.65 26.1121 1528.63 26.1121 Q1536.89 26.1121 1542.04 32.6746 Q1547.22 39.2371 1547.22 49.9314 Q1547.22 60.6258 1542.04 67.1883 Q1536.89 73.7508 1528.63 73.7508 Q1523.65 73.7508 1520.04 71.8063 Q1516.48 69.8214 1514.13 65.7705 M1539.49 49.9314 Q1539.49 41.7081 1536.08 37.0496 Q1532.72 32.3505 1526.81 32.3505 Q1520.89 32.3505 1517.49 37.0496 Q1514.13 41.7081 1514.13 49.9314 Q1514.13 58.1548 1517.49 62.8538 Q1520.89 67.5124 1526.81 67.5124 Q1532.72 67.5124 1536.08 62.8538 Q1539.49 58.1548 1539.49 49.9314 Z" fill="#000000" fill-rule="nonzero" fill-opacity="1" /><path clip-path="url(#clip810)" d="M1577.16 32.4315 Q1571.16 32.4315 1567.68 37.1306 Q1564.2 41.7891 1564.2 49.9314 Q1564.2 58.0738 1567.64 62.7728 Q1571.12 67.4314 1577.16 67.4314 Q1583.11 67.4314 1586.6 62.7323 Q1590.08 58.0333 1590.08 49.9314 Q1590.08 41.8701 1586.6 37.1711 Q1583.11 32.4315 1577.16 32.4315 M1577.16 26.1121 Q1586.88 26.1121 1592.43 32.4315 Q1597.98 38.7509 1597.98 49.9314 Q1597.98 61.0714 1592.43 67.4314 Q1586.88 73.7508 1577.16 73.7508 Q1567.4 73.7508 1561.85 67.4314 Q1556.34 61.0714 1556.34 49.9314 Q1556.34 38.7509 1561.85 32.4315 Q1567.4 26.1121 1577.16 26.1121 Z" fill="#000000" fill-rule="nonzero" fill-opacity="1" /><path clip-path="url(#clip810)" d="M1617.55 65.7705 L1617.55 89.8329 L1610.05 89.8329 L1610.05 27.2059 L1617.55 27.2059 L1617.55 34.0924 Q1619.9 30.0415 1623.46 28.0971 Q1627.07 26.1121 1632.05 26.1121 Q1640.31 26.1121 1645.46 32.6746 Q1650.64 39.2371 1650.64 49.9314 Q1650.64 60.6258 1645.46 67.1883 Q1640.31 73.7508 1632.05 73.7508 Q1627.07 73.7508 1623.46 71.8063 Q1619.9 69.8214 1617.55 65.7705 M1642.91 49.9314 Q1642.91 41.7081 1639.5 37.0496 Q1636.14 32.3505 1630.23 32.3505 Q1624.31 32.3505 1620.91 37.0496 Q1617.55 41.7081 1617.55 49.9314 Q1617.55 58.1548 1620.91 62.8538 Q1624.31 67.5124 1630.23 67.5124 Q1636.14 67.5124 1639.5 62.8538 Q1642.91 58.1548 1642.91 49.9314 Z" fill="#000000" fill-rule="nonzero" fill-opacity="1" /><path clip-path="url(#clip810)" d="M1662.23 54.671 L1662.23 27.2059 L1669.68 27.2059 L1669.68 54.3874 Q1669.68 60.8284 1672.19 64.0691 Q1674.71 67.2693 1679.73 67.2693 Q1685.76 67.2693 1689.25 63.421 Q1692.77 59.5726 1692.77 52.9291 L1692.77 27.2059 L1700.23 27.2059 L1700.23 72.576 L1692.77 72.576 L1692.77 65.6084 Q1690.06 69.7404 1686.45 71.7658 Q1682.89 73.7508 1678.15 73.7508 Q1670.33 73.7508 1666.28 68.8897 Q1662.23 64.0286 1662.23 54.671 M1680.98 26.1121 L1680.98 26.1121 Z" fill="#000000" fill-rule="nonzero" fill-opacity="1" /><path clip-path="url(#clip810)" d="M1715.58 9.54393 L1723.03 9.54393 L1723.03 72.576 L1715.58 72.576 L1715.58 9.54393 Z" fill="#000000" fill-rule="nonzero" fill-opacity="1" /><path clip-path="url(#clip810)" d="M1759.25 49.7694 Q1750.21 49.7694 1746.73 51.8354 Q1743.25 53.9013 1743.25 58.8839 Q1743.25 62.8538 1745.84 65.2034 Q1748.47 67.5124 1752.97 67.5124 Q1759.17 67.5124 1762.89 63.1374 Q1766.66 58.7219 1766.66 51.4303 L1766.66 49.7694 L1759.25 49.7694 M1774.11 46.6907 L1774.11 72.576 L1766.66 72.576 L1766.66 65.6895 Q1764.11 69.8214 1760.3 71.8063 Q1756.49 73.7508 1750.98 73.7508 Q1744.02 73.7508 1739.88 69.8619 Q1735.79 65.9325 1735.79 59.3701 Q1735.79 51.7138 1740.9 47.825 Q1746.04 43.9361 1756.21 43.9361 L1766.66 43.9361 L1766.66 43.2069 Q1766.66 38.0623 1763.26 35.2672 Q1759.9 32.4315 1753.78 32.4315 Q1749.89 32.4315 1746.2 33.3632 Q1742.52 34.295 1739.11 36.1584 L1739.11 29.2718 Q1743.21 27.692 1747.05 26.9223 Q1750.9 26.1121 1754.55 26.1121 Q1764.39 26.1121 1769.25 31.2163 Q1774.11 36.3204 1774.11 46.6907 Z" fill="#000000" fill-rule="nonzero" fill-opacity="1" /><path clip-path="url(#clip810)" d="M1796.84 14.324 L1796.84 27.2059 L1812.19 27.2059 L1812.19 32.9987 L1796.84 32.9987 L1796.84 57.6282 Q1796.84 63.1779 1798.34 64.7578 Q1799.88 66.3376 1804.54 66.3376 L1812.19 66.3376 L1812.19 72.576 L1804.54 72.576 Q1795.91 72.576 1792.63 69.3758 Q1789.35 66.1351 1789.35 57.6282 L1789.35 32.9987 L1783.88 32.9987 L1783.88 27.2059 L1789.35 27.2059 L1789.35 14.324 L1796.84 14.324 Z" fill="#000000" fill-rule="nonzero" fill-opacity="1" /><path clip-path="url(#clip810)" d="M1822 27.2059 L1829.45 27.2059 L1829.45 72.576 L1822 72.576 L1822 27.2059 M1822 9.54393 L1829.45 9.54393 L1829.45 18.9825 L1822 18.9825 L1822 9.54393 Z" fill="#000000" fill-rule="nonzero" fill-opacity="1" /><path clip-path="url(#clip810)" d="M1862.63 32.4315 Q1856.63 32.4315 1853.15 37.1306 Q1849.66 41.7891 1849.66 49.9314 Q1849.66 58.0738 1853.11 62.7728 Q1856.59 67.4314 1862.63 67.4314 Q1868.58 67.4314 1872.07 62.7323 Q1875.55 58.0333 1875.55 49.9314 Q1875.55 41.8701 1872.07 37.1711 Q1868.58 32.4315 1862.63 32.4315 M1862.63 26.1121 Q1872.35 26.1121 1877.9 32.4315 Q1883.45 38.7509 1883.45 49.9314 Q1883.45 61.0714 1877.9 67.4314 Q1872.35 73.7508 1862.63 73.7508 Q1852.86 73.7508 1847.31 67.4314 Q1841.81 61.0714 1841.81 49.9314 Q1841.81 38.7509 1847.31 32.4315 Q1852.86 26.1121 1862.63 26.1121 Z" fill="#000000" fill-rule="nonzero" fill-opacity="1" /><path clip-path="url(#clip810)" d="M1933.52 45.1919 L1933.52 72.576 L1926.06 72.576 L1926.06 45.4349 Q1926.06 38.994 1923.55 35.7938 Q1921.04 32.5936 1916.02 32.5936 Q1909.98 32.5936 1906.5 36.4419 Q1903.01 40.2903 1903.01 46.9338 L1903.01 72.576 L1895.52 72.576 L1895.52 27.2059 L1903.01 27.2059 L1903.01 34.2544 Q1905.69 30.163 1909.29 28.1376 Q1912.94 26.1121 1917.68 26.1121 Q1925.5 26.1121 1929.51 30.9732 Q1933.52 35.7938 1933.52 45.1919 Z" fill="#000000" fill-rule="nonzero" fill-opacity="1" /><path clip-path="url(#clip810)" d="M1981.97 65.7705 L1981.97 89.8329 L1974.47 89.8329 L1974.47 27.2059 L1981.97 27.2059 L1981.97 34.0924 Q1984.32 30.0415 1987.88 28.0971 Q1991.49 26.1121 1996.47 26.1121 Q2004.73 26.1121 2009.88 32.6746 Q2015.06 39.2371 2015.06 49.9314 Q2015.06 60.6258 2009.88 67.1883 Q2004.73 73.7508 1996.47 73.7508 Q1991.49 73.7508 1987.88 71.8063 Q1984.32 69.8214 1981.97 65.7705 M2007.33 49.9314 Q2007.33 41.7081 2003.92 37.0496 Q2000.56 32.3505 1994.65 32.3505 Q1988.73 32.3505 1985.33 37.0496 Q1981.97 41.7081 1981.97 49.9314 Q1981.97 58.1548 1985.33 62.8538 Q1988.73 67.5124 1994.65 67.5124 Q2000.56 67.5124 2003.92 62.8538 Q2007.33 58.1548 2007.33 49.9314 Z" fill="#000000" fill-rule="nonzero" fill-opacity="1" /><path clip-path="url(#clip810)" d="M2053.71 34.1734 Q2052.45 33.4443 2050.95 33.1202 Q2049.5 32.7556 2047.71 32.7556 Q2041.39 32.7556 2037.99 36.8875 Q2034.63 40.9789 2034.63 48.6757 L2034.63 72.576 L2027.13 72.576 L2027.13 27.2059 L2034.63 27.2059 L2034.63 34.2544 Q2036.98 30.1225 2040.75 28.1376 Q2044.51 26.1121 2049.9 26.1121 Q2050.67 26.1121 2051.6 26.2337 Q2052.53 26.3147 2053.67 26.5172 L2053.71 34.1734 Z" fill="#000000" fill-rule="nonzero" fill-opacity="1" /><path clip-path="url(#clip810)" d="M2077.28 32.4315 Q2071.29 32.4315 2067.81 37.1306 Q2064.32 41.7891 2064.32 49.9314 Q2064.32 58.0738 2067.76 62.7728 Q2071.25 67.4314 2077.28 67.4314 Q2083.24 67.4314 2086.72 62.7323 Q2090.21 58.0333 2090.21 49.9314 Q2090.21 41.8701 2086.72 37.1711 Q2083.24 32.4315 2077.28 32.4315 M2077.28 26.1121 Q2087.01 26.1121 2092.56 32.4315 Q2098.11 38.7509 2098.11 49.9314 Q2098.11 61.0714 2092.56 67.4314 Q2087.01 73.7508 2077.28 73.7508 Q2067.52 73.7508 2061.97 67.4314 Q2056.46 61.0714 2056.46 49.9314 Q2056.46 38.7509 2061.97 32.4315 Q2067.52 26.1121 2077.28 26.1121 Z" fill="#000000" fill-rule="nonzero" fill-opacity="1" /><path clip-path="url(#clip810)" d="M2110.46 27.2059 L2117.92 27.2059 L2117.92 73.3862 Q2117.92 82.0551 2114.59 85.944 Q2111.31 89.8329 2103.98 89.8329 L2101.14 89.8329 L2101.14 83.5134 L2103.13 83.5134 Q2107.38 83.5134 2108.92 81.5285 Q2110.46 79.5841 2110.46 73.3862 L2110.46 27.2059 M2110.46 9.54393 L2117.92 9.54393 L2117.92 18.9825 L2110.46 18.9825 L2110.46 9.54393 Z" fill="#000000" fill-rule="nonzero" fill-opacity="1" /><path clip-path="url(#clip810)" d="M2172.32 48.0275 L2172.32 51.6733 L2138.05 51.6733 Q2138.53 59.3701 2142.67 63.421 Q2146.84 67.4314 2154.25 67.4314 Q2158.55 67.4314 2162.56 66.3781 Q2166.61 65.3249 2170.58 63.2184 L2170.58 70.267 Q2166.57 71.9684 2162.35 72.8596 Q2158.14 73.7508 2153.81 73.7508 Q2142.95 73.7508 2136.59 67.4314 Q2130.27 61.1119 2130.27 50.3365 Q2130.27 39.1965 2136.27 32.6746 Q2142.3 26.1121 2152.51 26.1121 Q2161.66 26.1121 2166.97 32.0264 Q2172.32 37.9003 2172.32 48.0275 M2164.87 45.84 Q2164.78 39.7232 2161.42 36.0774 Q2158.1 32.4315 2152.59 32.4315 Q2146.35 32.4315 2142.59 35.9558 Q2138.86 39.4801 2138.29 45.8805 L2164.87 45.84 Z" fill="#000000" fill-rule="nonzero" fill-opacity="1" /><path clip-path="url(#clip810)" d="M2217.2 28.9478 L2217.2 35.9153 Q2214.04 34.1734 2210.84 33.3227 Q2207.68 32.4315 2204.44 32.4315 Q2197.19 32.4315 2193.18 37.0496 Q2189.17 41.6271 2189.17 49.9314 Q2189.17 58.2358 2193.18 62.8538 Q2197.19 67.4314 2204.44 67.4314 Q2207.68 67.4314 2210.84 66.5807 Q2214.04 65.6895 2217.2 63.9476 L2217.2 70.8341 Q2214.08 72.2924 2210.72 73.0216 Q2207.4 73.7508 2203.63 73.7508 Q2193.38 73.7508 2187.35 67.3098 Q2181.31 60.8689 2181.31 49.9314 Q2181.31 38.832 2187.39 32.472 Q2193.5 26.1121 2204.12 26.1121 Q2207.56 26.1121 2210.84 26.8413 Q2214.12 27.5299 2217.2 28.9478 Z" fill="#000000" fill-rule="nonzero" fill-opacity="1" /><path clip-path="url(#clip810)" d="M2237.54 14.324 L2237.54 27.2059 L2252.89 27.2059 L2252.89 32.9987 L2237.54 32.9987 L2237.54 57.6282 Q2237.54 63.1779 2239.04 64.7578 Q2240.58 66.3376 2245.23 66.3376 L2252.89 66.3376 L2252.89 72.576 L2245.23 72.576 Q2236.61 72.576 2233.33 69.3758 Q2230.04 66.1351 2230.04 57.6282 L2230.04 32.9987 L2224.58 32.9987 L2224.58 27.2059 L2230.04 27.2059 L2230.04 14.324 L2237.54 14.324 Z" fill="#000000" fill-rule="nonzero" fill-opacity="1" /><path clip-path="url(#clip810)" d="M2262.69 27.2059 L2270.15 27.2059 L2270.15 72.576 L2262.69 72.576 L2262.69 27.2059 M2262.69 9.54393 L2270.15 9.54393 L2270.15 18.9825 L2262.69 18.9825 L2262.69 9.54393 Z" fill="#000000" fill-rule="nonzero" fill-opacity="1" /><path clip-path="url(#clip810)" d="M2303.32 32.4315 Q2297.33 32.4315 2293.85 37.1306 Q2290.36 41.7891 2290.36 49.9314 Q2290.36 58.0738 2293.81 62.7728 Q2297.29 67.4314 2303.32 67.4314 Q2309.28 67.4314 2312.76 62.7323 Q2316.25 58.0333 2316.25 49.9314 Q2316.25 41.8701 2312.76 37.1711 Q2309.28 32.4315 2303.32 32.4315 M2303.32 26.1121 Q2313.05 26.1121 2318.6 32.4315 Q2324.15 38.7509 2324.15 49.9314 Q2324.15 61.0714 2318.6 67.4314 Q2313.05 73.7508 2303.32 73.7508 Q2293.56 73.7508 2288.01 67.4314 Q2282.5 61.0714 2282.5 49.9314 Q2282.5 38.7509 2288.01 32.4315 Q2293.56 26.1121 2303.32 26.1121 Z" fill="#000000" fill-rule="nonzero" fill-opacity="1" /><path clip-path="url(#clip810)" d="M2374.22 45.1919 L2374.22 72.576 L2366.76 72.576 L2366.76 45.4349 Q2366.76 38.994 2364.25 35.7938 Q2361.74 32.5936 2356.72 32.5936 Q2350.68 32.5936 2347.2 36.4419 Q2343.71 40.2903 2343.71 46.9338 L2343.71 72.576 L2336.22 72.576 L2336.22 27.2059 L2343.71 27.2059 L2343.71 34.2544 Q2346.39 30.163 2349.99 28.1376 Q2353.64 26.1121 2358.38 26.1121 Q2366.19 26.1121 2370.21 30.9732 Q2374.22 35.7938 2374.22 45.1919 Z" fill="#000000" fill-rule="nonzero" fill-opacity="1" /><polyline clip-path="url(#clip811)" style="stroke:#009af9; stroke-linecap:round; stroke-linejoin:round; stroke-width:8; stroke-opacity:1; fill:none" points="365.264,1535.92 438.904,710.545 512.545,796.068 586.185,893.673 659.826,992.915 733.466,1087.25 807.107,1170.38 880.747,1238.57 954.388,1290.82 1028.03,1328.23 1101.67,1353.23 1175.31,1368.77 1248.95,1377.8 1322.59,1382.9 1396.23,1386.12 1469.87,1388.91 1543.51,1392.19 1617.15,1396.42 1690.79,1401.74 1764.43,1408.07 1838.07,1415.19 1911.71,1422.86 1985.36,1430.83 2059,1438.86 2132.64,1446.79 2206.28,1454.51 2279.92,1461.95 2353.56,1469.06 2427.2,1475.86 2500.84,1482.35 2574.48,1488.57 "/>
<polyline clip-path="url(#clip811)" style="stroke:#e26f46; stroke-linecap:round; stroke-linejoin:round; stroke-width:8; stroke-opacity:1; fill:none" points="365.264,1613.06 438.904,1529.26 512.545,910.612 586.185,512.375 659.826,284.728 733.466,183.91 807.107,173.254 880.747,221.491 954.388,303.05 1028.03,398.407 1101.67,493.931 1175.31,581.198 1248.95,655.999 1322.59,717.219 1396.23,765.782 1469.87,803.745 1543.51,833.606 1617.15,857.825 1690.79,878.527 1764.43,897.374 1838.07,915.533 1911.71,933.726 1985.36,952.309 2059,971.377 2132.64,990.85 2206.28,1010.56 2279.92,1030.29 2353.56,1049.84 2427.2,1069.06 2500.84,1087.8 2574.48,1106 "/>
<polyline clip-path="url(#clip811)" style="stroke:#3da44d; stroke-linecap:round; stroke-linejoin:round; stroke-width:8; stroke-opacity:1; fill:none" points="365.264,1659.34 438.904,1666.05 512.545,1666.41 586.185,1636.59 659.826,1597.52 733.466,1560.63 807.107,1531.35 880.747,1511.47 954.388,1500.68 1028.03,1497.51 1101.67,1500.05 1175.31,1506.37 1248.95,1514.79 1322.59,1523.99 1396.23,1533.05 1469.87,1541.39 1543.51,1548.76 1617.15,1555.07 1690.79,1560.43 1764.43,1564.97 1838.07,1568.89 1911.71,1572.36 1985.36,1575.55 2059,1578.55 2132.64,1581.46 2206.28,1584.34 2279.92,1587.19 2353.56,1590.04 2427.2,1592.87 2500.84,1595.68 2574.48,1598.44 "/>
<polyline clip-path="url(#clip811)" style="stroke:#c271d2; stroke-linecap:round; stroke-linejoin:round; stroke-width:8; stroke-opacity:1; fill:none" points="365.264,1674.77 438.904,1679.09 512.545,1682.17 586.185,1684.3 659.826,1685.34 733.466,1685.48 807.107,1685.03 880.747,1684.29 954.388,1683.49 1028.03,1682.78 1101.67,1682.24 1175.31,1681.91 1248.95,1681.77 1322.59,1681.8 1396.23,1681.95 1469.87,1682.19 1543.51,1682.48 1617.15,1682.79 1690.79,1683.09 1764.43,1683.38 1838.07,1683.65 1911.71,1683.89 1985.36,1684.11 2059,1684.31 2132.64,1684.49 2206.28,1684.65 2279.92,1684.81 2353.56,1684.96 2427.2,1685.11 2500.84,1685.25 2574.48,1685.39 "/>
<polyline clip-path="url(#clip811)" style="stroke:#ac8d18; stroke-linecap:round; stroke-linejoin:round; stroke-width:8; stroke-opacity:1; fill:none" points="365.264,1682.48 438.904,1683.16 512.545,1683.92 586.185,1684.71 659.826,1685.45 733.466,1686.1 807.107,1686.64 880.747,1687.05 954.388,1687.35 1028.03,1687.54 1101.67,1687.66 1175.31,1687.74 1248.95,1687.78 1322.59,1687.8 1396.23,1687.82 1469.87,1687.85 1543.51,1687.88 1617.15,1687.92 1690.79,1687.97 1764.43,1688.03 1838.07,1688.09 1911.71,1688.15 1985.36,1688.22 2059,1688.28 2132.64,1688.34 2206.28,1688.4 2279.92,1688.45 2353.56,1688.51 2427.2,1688.56 2500.84,1688.61 2574.48,1688.65 "/>
<path clip-path="url(#clip810)" d="M2088.31 492.376 L2562.7 492.376 L2562.7 181.336 L2088.31 181.336  Z" fill="#ffffff" fill-rule="evenodd" fill-opacity="1"/>
<polyline clip-path="url(#clip810)" style="stroke:#000000; stroke-linecap:round; stroke-linejoin:round; stroke-width:4; stroke-opacity:1; fill:none" points="2088.31,492.376 2562.7,492.376 2562.7,181.336 2088.31,181.336 2088.31,492.376 "/>
<polyline clip-path="url(#clip810)" style="stroke:#009af9; stroke-linecap:round; stroke-linejoin:round; stroke-width:8; stroke-opacity:1; fill:none" points="2114.33,233.176 2270.45,233.176 "/>
<path clip-path="url(#clip810)" d="M2320.5 236.429 L2320.5 238.512 L2300.91 238.512 Q2301.19 242.91 2303.55 245.225 Q2305.94 247.516 2310.17 247.516 Q2312.63 247.516 2314.92 246.915 Q2317.23 246.313 2319.5 245.109 L2319.5 249.137 Q2317.21 250.109 2314.8 250.618 Q2312.4 251.128 2309.92 251.128 Q2303.72 251.128 2300.08 247.516 Q2296.47 243.905 2296.47 237.748 Q2296.47 231.382 2299.9 227.655 Q2303.35 223.906 2309.18 223.906 Q2314.41 223.906 2317.44 227.285 Q2320.5 230.642 2320.5 236.429 M2316.24 235.179 Q2316.19 231.683 2314.27 229.6 Q2312.37 227.517 2309.22 227.517 Q2305.66 227.517 2303.51 229.53 Q2301.38 231.544 2301.05 235.202 L2316.24 235.179 Z" fill="#000000" fill-rule="nonzero" fill-opacity="1" /><path clip-path="url(#clip810)" d="M2344.55 237.192 Q2344.55 232.563 2342.63 230.017 Q2340.73 227.47 2337.28 227.47 Q2333.85 227.47 2331.93 230.017 Q2330.03 232.563 2330.03 237.192 Q2330.03 241.799 2331.93 244.345 Q2333.85 246.891 2337.28 246.891 Q2340.73 246.891 2342.63 244.345 Q2344.55 241.799 2344.55 237.192 M2348.81 247.239 Q2348.81 253.859 2345.87 257.077 Q2342.93 260.317 2336.86 260.317 Q2334.62 260.317 2332.63 259.97 Q2330.64 259.646 2328.76 258.952 L2328.76 254.808 Q2330.64 255.827 2332.47 256.313 Q2334.29 256.799 2336.19 256.799 Q2340.38 256.799 2342.47 254.6 Q2344.55 252.424 2344.55 248.003 L2344.55 245.896 Q2343.23 248.188 2341.17 249.322 Q2339.11 250.456 2336.24 250.456 Q2331.47 250.456 2328.55 246.822 Q2325.64 243.188 2325.64 237.192 Q2325.64 231.174 2328.55 227.54 Q2331.47 223.906 2336.24 223.906 Q2339.11 223.906 2341.17 225.04 Q2343.23 226.174 2344.55 228.466 L2344.55 224.531 L2348.81 224.531 L2348.81 247.239 Z" fill="#000000" fill-rule="nonzero" fill-opacity="1" /><path clip-path="url(#clip810)" d="M2374.64 237.192 Q2374.64 232.563 2372.72 230.017 Q2370.82 227.47 2367.37 227.47 Q2363.95 227.47 2362.03 230.017 Q2360.13 232.563 2360.13 237.192 Q2360.13 241.799 2362.03 244.345 Q2363.95 246.891 2367.37 246.891 Q2370.82 246.891 2372.72 244.345 Q2374.64 241.799 2374.64 237.192 M2378.9 247.239 Q2378.9 253.859 2375.96 257.077 Q2373.02 260.317 2366.96 260.317 Q2364.71 260.317 2362.72 259.97 Q2360.73 259.646 2358.85 258.952 L2358.85 254.808 Q2360.73 255.827 2362.56 256.313 Q2364.39 256.799 2366.28 256.799 Q2370.47 256.799 2372.56 254.6 Q2374.64 252.424 2374.64 248.003 L2374.64 245.896 Q2373.32 248.188 2371.26 249.322 Q2369.2 250.456 2366.33 250.456 Q2361.56 250.456 2358.65 246.822 Q2355.73 243.188 2355.73 237.192 Q2355.73 231.174 2358.65 227.54 Q2361.56 223.906 2366.33 223.906 Q2369.2 223.906 2371.26 225.04 Q2373.32 226.174 2374.64 228.466 L2374.64 224.531 L2378.9 224.531 L2378.9 247.239 Z" fill="#000000" fill-rule="nonzero" fill-opacity="1" /><path clip-path="url(#clip810)" d="M2407.37 258.327 L2407.37 261.637 L2382.74 261.637 L2382.74 258.327 L2407.37 258.327 Z" fill="#000000" fill-rule="nonzero" fill-opacity="1" /><path clip-path="url(#clip810)" d="M2432.93 234.808 L2432.93 250.456 L2428.67 250.456 L2428.67 234.947 Q2428.67 231.267 2427.23 229.438 Q2425.8 227.609 2422.93 227.609 Q2419.48 227.609 2417.49 229.808 Q2415.5 232.007 2415.5 235.804 L2415.5 250.456 L2411.22 250.456 L2411.22 214.438 L2415.5 214.438 L2415.5 228.558 Q2417.03 226.22 2419.09 225.063 Q2421.17 223.906 2423.88 223.906 Q2428.34 223.906 2430.64 226.683 Q2432.93 229.438 2432.93 234.808 Z" fill="#000000" fill-rule="nonzero" fill-opacity="1" /><path clip-path="url(#clip810)" d="M2453.21 237.424 Q2448.04 237.424 2446.05 238.604 Q2444.06 239.785 2444.06 242.632 Q2444.06 244.901 2445.54 246.243 Q2447.05 247.563 2449.62 247.563 Q2453.16 247.563 2455.29 245.063 Q2457.44 242.54 2457.44 238.373 L2457.44 237.424 L2453.21 237.424 M2461.7 235.665 L2461.7 250.456 L2457.44 250.456 L2457.44 246.521 Q2455.98 248.882 2453.81 250.016 Q2451.63 251.128 2448.48 251.128 Q2444.5 251.128 2442.14 248.905 Q2439.8 246.66 2439.8 242.91 Q2439.8 238.535 2442.72 236.313 Q2445.66 234.091 2451.47 234.091 L2457.44 234.091 L2457.44 233.674 Q2457.44 230.734 2455.5 229.137 Q2453.58 227.517 2450.08 227.517 Q2447.86 227.517 2445.75 228.049 Q2443.65 228.581 2441.7 229.646 L2441.7 225.711 Q2444.04 224.808 2446.24 224.368 Q2448.44 223.906 2450.52 223.906 Q2456.15 223.906 2458.92 226.822 Q2461.7 229.739 2461.7 235.665 Z" fill="#000000" fill-rule="nonzero" fill-opacity="1" /><path clip-path="url(#clip810)" d="M2474.69 217.169 L2474.69 224.531 L2483.46 224.531 L2483.46 227.841 L2474.69 227.841 L2474.69 241.915 Q2474.69 245.086 2475.54 245.989 Q2476.42 246.891 2479.09 246.891 L2483.46 246.891 L2483.46 250.456 L2479.09 250.456 Q2474.15 250.456 2472.28 248.628 Q2470.4 246.776 2470.4 241.915 L2470.4 227.841 L2467.28 227.841 L2467.28 224.531 L2470.4 224.531 L2470.4 217.169 L2474.69 217.169 Z" fill="#000000" fill-rule="nonzero" fill-opacity="1" /><path clip-path="url(#clip810)" d="M2507.72 225.526 L2507.72 229.507 Q2505.91 228.512 2504.08 228.026 Q2502.28 227.517 2500.43 227.517 Q2496.28 227.517 2493.99 230.155 Q2491.7 232.771 2491.7 237.517 Q2491.7 242.262 2493.99 244.901 Q2496.28 247.516 2500.43 247.516 Q2502.28 247.516 2504.08 247.03 Q2505.91 246.521 2507.72 245.526 L2507.72 249.461 Q2505.94 250.294 2504.02 250.711 Q2502.12 251.128 2499.96 251.128 Q2494.11 251.128 2490.66 247.447 Q2487.21 243.767 2487.21 237.517 Q2487.21 231.174 2490.68 227.54 Q2494.18 223.906 2500.24 223.906 Q2502.21 223.906 2504.08 224.322 Q2505.96 224.716 2507.72 225.526 Z" fill="#000000" fill-rule="nonzero" fill-opacity="1" /><path clip-path="url(#clip810)" d="M2536.68 234.808 L2536.68 250.456 L2532.42 250.456 L2532.42 234.947 Q2532.42 231.267 2530.98 229.438 Q2529.55 227.609 2526.68 227.609 Q2523.23 227.609 2521.24 229.808 Q2519.25 232.007 2519.25 235.804 L2519.25 250.456 L2514.96 250.456 L2514.96 214.438 L2519.25 214.438 L2519.25 228.558 Q2520.77 226.22 2522.83 225.063 Q2524.92 223.906 2527.63 223.906 Q2532.09 223.906 2534.39 226.683 Q2536.68 229.438 2536.68 234.808 Z" fill="#000000" fill-rule="nonzero" fill-opacity="1" /><polyline clip-path="url(#clip810)" style="stroke:#e26f46; stroke-linecap:round; stroke-linejoin:round; stroke-width:8; stroke-opacity:1; fill:none" points="2114.33,285.016 2270.45,285.016 "/>
<path clip-path="url(#clip810)" d="M2314.9 277.134 L2314.9 281.162 Q2313.09 280.236 2311.15 279.773 Q2309.2 279.31 2307.12 279.31 Q2303.95 279.31 2302.35 280.283 Q2300.78 281.255 2300.78 283.199 Q2300.78 284.681 2301.91 285.537 Q2303.04 286.37 2306.47 287.134 L2307.93 287.458 Q2312.47 288.431 2314.36 290.213 Q2316.28 291.972 2316.28 295.144 Q2316.28 298.755 2313.41 300.861 Q2310.57 302.968 2305.57 302.968 Q2303.48 302.968 2301.22 302.551 Q2298.97 302.157 2296.47 301.347 L2296.47 296.949 Q2298.83 298.176 2301.12 298.801 Q2303.41 299.403 2305.66 299.403 Q2308.67 299.403 2310.29 298.384 Q2311.91 297.343 2311.91 295.468 Q2311.91 293.732 2310.73 292.806 Q2309.57 291.88 2305.61 291.023 L2304.13 290.676 Q2300.17 289.843 2298.41 288.13 Q2296.66 286.394 2296.66 283.384 Q2296.66 279.727 2299.25 277.736 Q2301.84 275.746 2306.61 275.746 Q2308.97 275.746 2311.05 276.093 Q2313.14 276.44 2314.9 277.134 Z" fill="#000000" fill-rule="nonzero" fill-opacity="1" /><path clip-path="url(#clip810)" d="M2343.25 281.347 Q2344.85 278.477 2347.07 277.111 Q2349.29 275.746 2352.3 275.746 Q2356.35 275.746 2358.55 278.593 Q2360.75 281.417 2360.75 286.648 L2360.75 302.296 L2356.47 302.296 L2356.47 286.787 Q2356.47 283.06 2355.15 281.255 Q2353.83 279.449 2351.12 279.449 Q2347.81 279.449 2345.89 281.648 Q2343.97 283.847 2343.97 287.644 L2343.97 302.296 L2339.69 302.296 L2339.69 286.787 Q2339.69 283.037 2338.37 281.255 Q2337.05 279.449 2334.29 279.449 Q2331.03 279.449 2329.11 281.671 Q2327.19 283.87 2327.19 287.644 L2327.19 302.296 L2322.91 302.296 L2322.91 276.371 L2327.19 276.371 L2327.19 280.398 Q2328.65 278.014 2330.68 276.88 Q2332.72 275.746 2335.52 275.746 Q2338.35 275.746 2340.31 277.181 Q2342.3 278.616 2343.25 281.347 Z" fill="#000000" fill-rule="nonzero" fill-opacity="1" /><path clip-path="url(#clip810)" d="M2388.95 310.167 L2388.95 313.477 L2364.32 313.477 L2364.32 310.167 L2388.95 310.167 Z" fill="#000000" fill-rule="nonzero" fill-opacity="1" /><path clip-path="url(#clip810)" d="M2392.95 276.371 L2397.21 276.371 L2397.21 302.759 Q2397.21 307.713 2395.31 309.935 Q2393.44 312.157 2389.25 312.157 L2387.63 312.157 L2387.63 308.546 L2388.76 308.546 Q2391.19 308.546 2392.07 307.412 Q2392.95 306.301 2392.95 302.759 L2392.95 276.371 M2392.95 266.278 L2397.21 266.278 L2397.21 271.671 L2392.95 271.671 L2392.95 266.278 Z" fill="#000000" fill-rule="nonzero" fill-opacity="1" /><path clip-path="url(#clip810)" d="M2405.68 292.065 L2405.68 276.371 L2409.94 276.371 L2409.94 291.903 Q2409.94 295.583 2411.38 297.435 Q2412.81 299.264 2415.68 299.264 Q2419.13 299.264 2421.12 297.065 Q2423.14 294.866 2423.14 291.069 L2423.14 276.371 L2427.4 276.371 L2427.4 302.296 L2423.14 302.296 L2423.14 298.315 Q2421.59 300.676 2419.53 301.833 Q2417.49 302.968 2414.78 302.968 Q2410.31 302.968 2408 300.19 Q2405.68 297.412 2405.68 292.065 M2416.4 275.746 L2416.4 275.746 Z" fill="#000000" fill-rule="nonzero" fill-opacity="1" /><path clip-path="url(#clip810)" d="M2433.11 276.371 L2437.63 276.371 L2445.73 298.13 L2453.83 276.371 L2458.34 276.371 L2448.62 302.296 L2442.84 302.296 L2433.11 276.371 Z" fill="#000000" fill-rule="nonzero" fill-opacity="1" /><polyline clip-path="url(#clip810)" style="stroke:#3da44d; stroke-linecap:round; stroke-linejoin:round; stroke-width:8; stroke-opacity:1; fill:none" points="2114.33,336.856 2270.45,336.856 "/>
<path clip-path="url(#clip810)" d="M2296.47 318.118 L2300.73 318.118 L2300.73 354.136 L2296.47 354.136 L2296.47 318.118 Z" fill="#000000" fill-rule="nonzero" fill-opacity="1" /><path clip-path="url(#clip810)" d="M2326.7 340.872 Q2326.7 336.243 2324.78 333.697 Q2322.88 331.15 2319.43 331.15 Q2316.01 331.15 2314.09 333.697 Q2312.19 336.243 2312.19 340.872 Q2312.19 345.479 2314.09 348.025 Q2316.01 350.571 2319.43 350.571 Q2322.88 350.571 2324.78 348.025 Q2326.7 345.479 2326.7 340.872 M2330.96 350.919 Q2330.96 357.539 2328.02 360.757 Q2325.08 363.997 2319.02 363.997 Q2316.77 363.997 2314.78 363.65 Q2312.79 363.326 2310.91 362.632 L2310.91 358.488 Q2312.79 359.507 2314.62 359.993 Q2316.45 360.479 2318.35 360.479 Q2322.53 360.479 2324.62 358.28 Q2326.7 356.104 2326.7 351.683 L2326.7 349.576 Q2325.38 351.868 2323.32 353.002 Q2321.26 354.136 2318.39 354.136 Q2313.62 354.136 2310.71 350.502 Q2307.79 346.868 2307.79 340.872 Q2307.79 334.854 2310.71 331.22 Q2313.62 327.586 2318.39 327.586 Q2321.26 327.586 2323.32 328.72 Q2325.38 329.854 2326.7 332.146 L2326.7 328.211 L2330.96 328.211 L2330.96 350.919 Z" fill="#000000" fill-rule="nonzero" fill-opacity="1" /><path clip-path="url(#clip810)" d="M2359.43 362.007 L2359.43 365.317 L2334.8 365.317 L2334.8 362.007 L2359.43 362.007 Z" fill="#000000" fill-rule="nonzero" fill-opacity="1" /><path clip-path="url(#clip810)" d="M2363.44 328.211 L2367.7 328.211 L2367.7 354.599 Q2367.7 359.553 2365.8 361.775 Q2363.92 363.997 2359.73 363.997 L2358.11 363.997 L2358.11 360.386 L2359.25 360.386 Q2361.68 360.386 2362.56 359.252 Q2363.44 358.141 2363.44 354.599 L2363.44 328.211 M2363.44 318.118 L2367.7 318.118 L2367.7 323.511 L2363.44 323.511 L2363.44 318.118 Z" fill="#000000" fill-rule="nonzero" fill-opacity="1" /><path clip-path="url(#clip810)" d="M2376.17 343.905 L2376.17 328.211 L2380.43 328.211 L2380.43 343.743 Q2380.43 347.423 2381.86 349.275 Q2383.3 351.104 2386.17 351.104 Q2389.62 351.104 2391.61 348.905 Q2393.62 346.706 2393.62 342.909 L2393.62 328.211 L2397.88 328.211 L2397.88 354.136 L2393.62 354.136 L2393.62 350.155 Q2392.07 352.516 2390.01 353.673 Q2387.97 354.808 2385.27 354.808 Q2380.8 354.808 2378.48 352.03 Q2376.17 349.252 2376.17 343.905 M2386.89 327.586 L2386.89 327.586 Z" fill="#000000" fill-rule="nonzero" fill-opacity="1" /><path clip-path="url(#clip810)" d="M2403.6 328.211 L2408.11 328.211 L2416.21 349.97 L2424.32 328.211 L2428.83 328.211 L2419.11 354.136 L2413.32 354.136 L2403.6 328.211 Z" fill="#000000" fill-rule="nonzero" fill-opacity="1" /><polyline clip-path="url(#clip810)" style="stroke:#c271d2; stroke-linecap:round; stroke-linejoin:round; stroke-width:8; stroke-opacity:1; fill:none" points="2114.33,388.696 2270.45,388.696 "/>
<path clip-path="url(#clip810)" d="M2314.9 380.814 L2314.9 384.842 Q2313.09 383.916 2311.15 383.453 Q2309.2 382.99 2307.12 382.99 Q2303.95 382.99 2302.35 383.963 Q2300.78 384.935 2300.78 386.879 Q2300.78 388.361 2301.91 389.217 Q2303.04 390.05 2306.47 390.814 L2307.93 391.138 Q2312.47 392.111 2314.36 393.893 Q2316.28 395.652 2316.28 398.824 Q2316.28 402.435 2313.41 404.541 Q2310.57 406.648 2305.57 406.648 Q2303.48 406.648 2301.22 406.231 Q2298.97 405.837 2296.47 405.027 L2296.47 400.629 Q2298.83 401.856 2301.12 402.481 Q2303.41 403.083 2305.66 403.083 Q2308.67 403.083 2310.29 402.064 Q2311.91 401.023 2311.91 399.148 Q2311.91 397.412 2310.73 396.486 Q2309.57 395.56 2305.61 394.703 L2304.13 394.356 Q2300.17 393.523 2298.41 391.81 Q2296.66 390.074 2296.66 387.064 Q2296.66 383.407 2299.25 381.416 Q2301.84 379.426 2306.61 379.426 Q2308.97 379.426 2311.05 379.773 Q2313.14 380.12 2314.9 380.814 Z" fill="#000000" fill-rule="nonzero" fill-opacity="1" /><path clip-path="url(#clip810)" d="M2322.63 395.745 L2322.63 380.051 L2326.89 380.051 L2326.89 395.583 Q2326.89 399.263 2328.32 401.115 Q2329.76 402.944 2332.63 402.944 Q2336.08 402.944 2338.07 400.745 Q2340.08 398.546 2340.08 394.749 L2340.08 380.051 L2344.34 380.051 L2344.34 405.976 L2340.08 405.976 L2340.08 401.995 Q2338.53 404.356 2336.47 405.513 Q2334.43 406.648 2331.72 406.648 Q2327.26 406.648 2324.94 403.87 Q2322.63 401.092 2322.63 395.745 M2333.35 379.426 L2333.35 379.426 Z" fill="#000000" fill-rule="nonzero" fill-opacity="1" /><path clip-path="url(#clip810)" d="M2371.72 393.037 Q2371.72 388.337 2369.78 385.675 Q2367.86 382.99 2364.48 382.99 Q2361.1 382.99 2359.16 385.675 Q2357.23 388.337 2357.23 393.037 Q2357.23 397.736 2359.16 400.421 Q2361.1 403.083 2364.48 403.083 Q2367.86 403.083 2369.78 400.421 Q2371.72 397.736 2371.72 393.037 M2357.23 383.986 Q2358.58 381.671 2360.61 380.56 Q2362.67 379.426 2365.52 379.426 Q2370.24 379.426 2373.18 383.175 Q2376.15 386.925 2376.15 393.037 Q2376.15 399.148 2373.18 402.898 Q2370.24 406.648 2365.52 406.648 Q2362.67 406.648 2360.61 405.536 Q2358.58 404.402 2357.23 402.087 L2357.23 405.976 L2352.95 405.976 L2352.95 369.958 L2357.23 369.958 L2357.23 383.986 Z" fill="#000000" fill-rule="nonzero" fill-opacity="1" /><path clip-path="url(#clip810)" d="M2394.99 392.944 Q2389.83 392.944 2387.84 394.124 Q2385.84 395.305 2385.84 398.152 Q2385.84 400.421 2387.33 401.763 Q2388.83 403.083 2391.4 403.083 Q2394.94 403.083 2397.07 400.583 Q2399.22 398.06 2399.22 393.893 L2399.22 392.944 L2394.99 392.944 M2403.48 391.185 L2403.48 405.976 L2399.22 405.976 L2399.22 402.041 Q2397.77 404.402 2395.59 405.536 Q2393.41 406.648 2390.27 406.648 Q2386.28 406.648 2383.92 404.425 Q2381.59 402.18 2381.59 398.43 Q2381.59 394.055 2384.5 391.833 Q2387.44 389.611 2393.25 389.611 L2399.22 389.611 L2399.22 389.194 Q2399.22 386.254 2397.28 384.657 Q2395.36 383.037 2391.86 383.037 Q2389.64 383.037 2387.53 383.569 Q2385.43 384.101 2383.48 385.166 L2383.48 381.231 Q2385.82 380.328 2388.02 379.888 Q2390.22 379.426 2392.3 379.426 Q2397.93 379.426 2400.71 382.342 Q2403.48 385.259 2403.48 391.185 Z" fill="#000000" fill-rule="nonzero" fill-opacity="1" /><path clip-path="url(#clip810)" d="M2429.32 383.986 L2429.32 369.958 L2433.58 369.958 L2433.58 405.976 L2429.32 405.976 L2429.32 402.087 Q2427.97 404.402 2425.91 405.536 Q2423.88 406.648 2421.01 406.648 Q2416.31 406.648 2413.34 402.898 Q2410.4 399.148 2410.4 393.037 Q2410.4 386.925 2413.34 383.175 Q2416.31 379.426 2421.01 379.426 Q2423.88 379.426 2425.91 380.56 Q2427.97 381.671 2429.32 383.986 M2414.8 393.037 Q2414.8 397.736 2416.72 400.421 Q2418.67 403.083 2422.05 403.083 Q2425.43 403.083 2427.37 400.421 Q2429.32 397.736 2429.32 393.037 Q2429.32 388.337 2427.37 385.675 Q2425.43 382.99 2422.05 382.99 Q2418.67 382.99 2416.72 385.675 Q2414.8 388.337 2414.8 393.037 Z" fill="#000000" fill-rule="nonzero" fill-opacity="1" /><path clip-path="url(#clip810)" d="M2441.91 395.745 L2441.91 380.051 L2446.17 380.051 L2446.17 395.583 Q2446.17 399.263 2447.6 401.115 Q2449.04 402.944 2451.91 402.944 Q2455.36 402.944 2457.35 400.745 Q2459.36 398.546 2459.36 394.749 L2459.36 380.051 L2463.62 380.051 L2463.62 405.976 L2459.36 405.976 L2459.36 401.995 Q2457.81 404.356 2455.75 405.513 Q2453.71 406.648 2451.01 406.648 Q2446.54 406.648 2444.22 403.87 Q2441.91 401.092 2441.91 395.745 M2452.63 379.426 L2452.63 379.426 Z" fill="#000000" fill-rule="nonzero" fill-opacity="1" /><path clip-path="url(#clip810)" d="M2472.4 369.958 L2476.65 369.958 L2476.65 405.976 L2472.4 405.976 L2472.4 369.958 Z" fill="#000000" fill-rule="nonzero" fill-opacity="1" /><path clip-path="url(#clip810)" d="M2489.78 372.689 L2489.78 380.051 L2498.55 380.051 L2498.55 383.361 L2489.78 383.361 L2489.78 397.435 Q2489.78 400.606 2490.64 401.509 Q2491.52 402.411 2494.18 402.411 L2498.55 402.411 L2498.55 405.976 L2494.18 405.976 Q2489.25 405.976 2487.37 404.148 Q2485.5 402.296 2485.5 397.435 L2485.5 383.361 L2482.37 383.361 L2482.37 380.051 L2485.5 380.051 L2485.5 372.689 L2489.78 372.689 Z" fill="#000000" fill-rule="nonzero" fill-opacity="1" /><polyline clip-path="url(#clip810)" style="stroke:#ac8d18; stroke-linecap:round; stroke-linejoin:round; stroke-width:8; stroke-opacity:1; fill:none" points="2114.33,440.536 2270.45,440.536 "/>
<path clip-path="url(#clip810)" d="M2309.87 444.784 Q2304.71 444.784 2302.72 445.964 Q2300.73 447.145 2300.73 449.992 Q2300.73 452.261 2302.21 453.603 Q2303.72 454.923 2306.29 454.923 Q2309.83 454.923 2311.96 452.423 Q2314.11 449.9 2314.11 445.733 L2314.11 444.784 L2309.87 444.784 M2318.37 443.025 L2318.37 457.816 L2314.11 457.816 L2314.11 453.881 Q2312.65 456.242 2310.47 457.376 Q2308.3 458.488 2305.15 458.488 Q2301.17 458.488 2298.81 456.265 Q2296.47 454.02 2296.47 450.27 Q2296.47 445.895 2299.39 443.673 Q2302.33 441.451 2308.14 441.451 L2314.11 441.451 L2314.11 441.034 Q2314.11 438.094 2312.16 436.497 Q2310.24 434.877 2306.75 434.877 Q2304.53 434.877 2302.42 435.409 Q2300.31 435.941 2298.37 437.006 L2298.37 433.071 Q2300.71 432.168 2302.91 431.728 Q2305.1 431.266 2307.19 431.266 Q2312.81 431.266 2315.59 434.182 Q2318.37 437.099 2318.37 443.025 Z" fill="#000000" fill-rule="nonzero" fill-opacity="1" /><path clip-path="url(#clip810)" d="M2344.2 435.826 L2344.2 421.798 L2348.46 421.798 L2348.46 457.816 L2344.2 457.816 L2344.2 453.927 Q2342.86 456.242 2340.8 457.376 Q2338.76 458.488 2335.89 458.488 Q2331.19 458.488 2328.23 454.738 Q2325.29 450.988 2325.29 444.877 Q2325.29 438.765 2328.23 435.015 Q2331.19 431.266 2335.89 431.266 Q2338.76 431.266 2340.8 432.4 Q2342.86 433.511 2344.2 435.826 M2329.69 444.877 Q2329.69 449.576 2331.61 452.261 Q2333.55 454.923 2336.93 454.923 Q2340.31 454.923 2342.26 452.261 Q2344.2 449.576 2344.2 444.877 Q2344.2 440.177 2342.26 437.515 Q2340.31 434.83 2336.93 434.83 Q2333.55 434.83 2331.61 437.515 Q2329.69 440.177 2329.69 444.877 Z" fill="#000000" fill-rule="nonzero" fill-opacity="1" /><path clip-path="url(#clip810)" d="M2356.79 447.585 L2356.79 431.891 L2361.05 431.891 L2361.05 447.423 Q2361.05 451.103 2362.49 452.955 Q2363.92 454.784 2366.79 454.784 Q2370.24 454.784 2372.23 452.585 Q2374.25 450.386 2374.25 446.589 L2374.25 431.891 L2378.51 431.891 L2378.51 457.816 L2374.25 457.816 L2374.25 453.835 Q2372.7 456.196 2370.64 457.353 Q2368.6 458.488 2365.89 458.488 Q2361.42 458.488 2359.11 455.71 Q2356.79 452.932 2356.79 447.585 M2367.51 431.266 L2367.51 431.266 Z" fill="#000000" fill-rule="nonzero" fill-opacity="1" /><path clip-path="url(#clip810)" d="M2387.28 421.798 L2391.54 421.798 L2391.54 457.816 L2387.28 457.816 L2387.28 421.798 Z" fill="#000000" fill-rule="nonzero" fill-opacity="1" /><path clip-path="url(#clip810)" d="M2404.66 424.529 L2404.66 431.891 L2413.44 431.891 L2413.44 435.201 L2404.66 435.201 L2404.66 449.275 Q2404.66 452.446 2405.52 453.349 Q2406.4 454.251 2409.06 454.251 L2413.44 454.251 L2413.44 457.816 L2409.06 457.816 Q2404.13 457.816 2402.26 455.988 Q2400.38 454.136 2400.38 449.275 L2400.38 435.201 L2397.26 435.201 L2397.26 431.891 L2400.38 431.891 L2400.38 424.529 L2404.66 424.529 Z" fill="#000000" fill-rule="nonzero" fill-opacity="1" /></svg>
