<?xml version="1.0" encoding="utf-8"?>
<svg xmlns="http://www.w3.org/2000/svg" xmlns:xlink="http://www.w3.org/1999/xlink" width="800" height="400" viewBox="0 0 3200 1600">
<defs>
  <clipPath id="clip160">
    <rect x="0" y="0" width="3200" height="1600"/>
  </clipPath>
</defs>
<path clip-path="url(#clip160)" d="M0 1600 L3200 1600 L3200 0 L0 0  Z" fill="#ffffff" fill-rule="evenodd" fill-opacity="1"/>
<defs>
  <clipPath id="clip161">
    <rect x="215" y="108" width="2938" height="1268"/>
  </clipPath>
</defs>
<path clip-path="url(#clip160)" d="M215.5 1375.45 L3152.76 1375.45 L3152.76 108.352 L215.5 108.352  Z" fill="#ffffff" fill-rule="evenodd" fill-opacity="1"/>
<polyline clip-path="url(#clip161)" style="stroke:#000000; stroke-linecap:round; stroke-linejoin:round; stroke-width:2; stroke-opacity:0.1; fill:none" points="483.754,1375.45 483.754,108.352 "/>
<polyline clip-path="url(#clip161)" style="stroke:#000000; stroke-linecap:round; stroke-linejoin:round; stroke-width:2; stroke-opacity:0.1; fill:none" points="750.504,1375.45 750.504,108.352 "/>
<polyline clip-path="url(#clip161)" style="stroke:#000000; stroke-linecap:round; stroke-linejoin:round; stroke-width:2; stroke-opacity:0.1; fill:none" points="1017.25,1375.45 1017.25,108.352 "/>
<polyline clip-path="url(#clip161)" style="stroke:#000000; stroke-linecap:round; stroke-linejoin:round; stroke-width:2; stroke-opacity:0.1; fill:none" points="1284,1375.45 1284,108.352 "/>
<polyline clip-path="url(#clip161)" style="stroke:#000000; stroke-linecap:round; stroke-linejoin:round; stroke-width:2; stroke-opacity:0.1; fill:none" points="1550.75,1375.45 1550.75,108.352 "/>
<polyline clip-path="url(#clip161)" style="stroke:#000000; stroke-linecap:round; stroke-linejoin:round; stroke-width:2; stroke-opacity:0.1; fill:none" points="1817.5,1375.45 1817.5,108.352 "/>
<polyline clip-path="url(#clip161)" style="stroke:#000000; stroke-linecap:round; stroke-linejoin:round; stroke-width:2; stroke-opacity:0.1; fill:none" points="2084.25,1375.45 2084.25,108.352 "/>
<polyline clip-path="url(#clip161)" style="stroke:#000000; stroke-linecap:round; stroke-linejoin:round; stroke-width:2; stroke-opacity:0.1; fill:none" points="2351,1375.45 2351,108.352 "/>
<polyline clip-path="url(#clip161)" style="stroke:#000000; stroke-linecap:round; stroke-linejoin:round; stroke-width:2; stroke-opacity:0.1; fill:none" points="2617.75,1375.45 2617.75,108.352 "/>
<polyline clip-path="url(#clip161)" style="stroke:#000000; stroke-linecap:round; stroke-linejoin:round; stroke-width:2; stroke-opacity:0.1; fill:none" points="2884.5,1375.45 2884.5,108.352 "/>
<polyline clip-path="url(#clip161)" style="stroke:#000000; stroke-linecap:round; stroke-linejoin:round; stroke-width:2; stroke-opacity:0.1; fill:none" points="215.5,1375.45 3152.76,1375.45 "/>
<polyline clip-path="url(#clip161)" style="stroke:#000000; stroke-linecap:round; stroke-linejoin:round; stroke-width:2; stroke-opacity:0.1; fill:none" points="215.5,1021.29 3152.76,1021.29 "/>
<polyline clip-path="url(#clip161)" style="stroke:#000000; stroke-linecap:round; stroke-linejoin:round; stroke-width:2; stroke-opacity:0.1; fill:none" points="215.5,667.121 3152.76,667.121 "/>
<polyline clip-path="url(#clip161)" style="stroke:#000000; stroke-linecap:round; stroke-linejoin:round; stroke-width:2; stroke-opacity:0.1; fill:none" points="215.5,312.956 3152.76,312.956 "/>
<polyline clip-path="url(#clip160)" style="stroke:#000000; stroke-linecap:round; stroke-linejoin:round; stroke-width:4; stroke-opacity:1; fill:none" points="215.5,1375.45 3152.76,1375.45 "/>
<polyline clip-path="url(#clip160)" style="stroke:#000000; stroke-linecap:round; stroke-linejoin:round; stroke-width:4; stroke-opacity:1; fill:none" points="483.754,1375.45 483.754,1356.55 "/>
<polyline clip-path="url(#clip160)" style="stroke:#000000; stroke-linecap:round; stroke-linejoin:round; stroke-width:4; stroke-opacity:1; fill:none" points="750.504,1375.45 750.504,1356.55 "/>
<polyline clip-path="url(#clip160)" style="stroke:#000000; stroke-linecap:round; stroke-linejoin:round; stroke-width:4; stroke-opacity:1; fill:none" points="1017.25,1375.45 1017.25,1356.55 "/>
<polyline clip-path="url(#clip160)" style="stroke:#000000; stroke-linecap:round; stroke-linejoin:round; stroke-width:4; stroke-opacity:1; fill:none" points="1284,1375.45 1284,1356.55 "/>
<polyline clip-path="url(#clip160)" style="stroke:#000000; stroke-linecap:round; stroke-linejoin:round; stroke-width:4; stroke-opacity:1; fill:none" points="1550.75,1375.45 1550.75,1356.55 "/>
<polyline clip-path="url(#clip160)" style="stroke:#000000; stroke-linecap:round; stroke-linejoin:round; stroke-width:4; stroke-opacity:1; fill:none" points="1817.5,1375.45 1817.5,1356.55 "/>
<polyline clip-path="url(#clip160)" style="stroke:#000000; stroke-linecap:round; stroke-linejoin:round; stroke-width:4; stroke-opacity:1; fill:none" points="2084.25,1375.45 2084.25,1356.55 "/>
<polyline clip-path="url(#clip160)" style="stroke:#000000; stroke-linecap:round; stroke-linejoin:round; stroke-width:4; stroke-opacity:1; fill:none" points="2351,1375.45 2351,1356.55 "/>
<polyline clip-path="url(#clip160)" style="stroke:#000000; stroke-linecap:round; stroke-linejoin:round; stroke-width:4; stroke-opacity:1; fill:none" points="2617.75,1375.45 2617.75,1356.55 "/>
<polyline clip-path="url(#clip160)" style="stroke:#000000; stroke-linecap:round; stroke-linejoin:round; stroke-width:4; stroke-opacity:1; fill:none" points="2884.5,1375.45 2884.5,1356.55 "/>
<path clip-path="url(#clip160)" d="M283.973 1601.24 L291.65 1617.88 L300.636 1608.9 L283.973 1601.24 M278.85 1599.85 L282.598 1596.1 L316.349 1611.22 L312.912 1614.66 L304.417 1610.62 L293.401 1621.63 L297.444 1630.13 L293.958 1633.61 L278.85 1599.85 Z" fill="#000000" fill-rule="nonzero" fill-opacity="1" /><path clip-path="url(#clip160)" d="M323.961 1581.48 L335.025 1592.55 L332.014 1595.56 L321.047 1584.59 Q318.444 1581.99 316.137 1581.71 Q313.829 1581.43 311.799 1583.46 Q309.36 1585.9 309.507 1588.86 Q309.655 1591.82 312.339 1594.51 L322.7 1604.87 L319.672 1607.9 L301.34 1589.57 L304.368 1586.54 L307.216 1589.39 Q306.643 1586.65 307.281 1584.38 Q307.936 1582.09 309.851 1580.17 Q313.01 1577.01 316.595 1577.36 Q320.163 1577.68 323.961 1581.48 Z" fill="#000000" fill-rule="nonzero" fill-opacity="1" /><path clip-path="url(#clip160)" d="M345.206 1560.23 L356.271 1571.3 L353.259 1574.31 L342.293 1563.34 Q339.69 1560.74 337.382 1560.46 Q335.074 1560.19 333.045 1562.21 Q330.606 1564.65 330.753 1567.62 Q330.901 1570.58 333.585 1573.26 L343.946 1583.62 L340.918 1586.65 L322.586 1568.32 L325.614 1565.29 L328.462 1568.14 Q327.889 1565.41 328.527 1563.13 Q329.182 1560.84 331.097 1558.92 Q334.256 1555.77 337.841 1556.11 Q341.409 1556.44 345.206 1560.23 Z" fill="#000000" fill-rule="nonzero" fill-opacity="1" /><path clip-path="url(#clip160)" d="M354.733 1558.37 L343.635 1547.27 L346.647 1544.26 L357.63 1555.24 Q360.232 1557.84 362.557 1558.14 Q364.864 1558.42 366.894 1556.39 Q369.333 1553.95 369.186 1550.99 Q369.055 1548.01 366.37 1545.32 L355.977 1534.93 L358.988 1531.92 L377.321 1550.25 L374.309 1553.26 L371.494 1550.45 Q372.066 1553.21 371.428 1555.49 Q370.79 1557.73 368.875 1559.65 Q365.716 1562.8 362.115 1562.48 Q358.514 1562.15 354.733 1558.37 M350.772 1539.25 L350.772 1539.25 Z" fill="#000000" fill-rule="nonzero" fill-opacity="1" /><path clip-path="url(#clip160)" d="M382.64 1526.5 Q378.99 1530.15 378.417 1532.39 Q377.844 1534.63 379.858 1536.65 Q381.462 1538.25 383.459 1538.15 Q385.456 1538.02 387.272 1536.21 Q389.777 1533.7 389.515 1530.43 Q389.253 1527.12 386.307 1524.18 L385.636 1523.5 L382.64 1526.5 M387.403 1519.25 L397.863 1529.71 L394.851 1532.72 L392.068 1529.94 Q392.707 1532.64 391.97 1534.98 Q391.217 1537.3 388.991 1539.53 Q386.176 1542.34 382.935 1542.44 Q379.694 1542.51 377.042 1539.86 Q373.949 1536.76 374.44 1533.13 Q374.947 1529.48 379.056 1525.37 L383.279 1521.15 L382.984 1520.85 Q380.905 1518.77 378.401 1519.02 Q375.897 1519.23 373.425 1521.7 Q371.854 1523.28 370.741 1525.14 Q369.628 1527.01 369.006 1529.13 L366.223 1526.35 Q367.238 1524.06 368.482 1522.19 Q369.709 1520.31 371.183 1518.84 Q375.16 1514.86 379.187 1514.96 Q383.213 1515.06 387.403 1519.25 Z" fill="#000000" fill-rule="nonzero" fill-opacity="1" /><path clip-path="url(#clip160)" d="M378.597 1498.04 L381.609 1495.02 L407.078 1520.49 L404.066 1523.5 L378.597 1498.04 Z" fill="#000000" fill-rule="nonzero" fill-opacity="1" /><path clip-path="url(#clip160)" d="M428.209 1477.23 L439.274 1488.3 L436.262 1491.31 L425.296 1480.34 Q422.693 1477.74 420.385 1477.46 Q418.077 1477.18 416.048 1479.21 Q413.609 1481.65 413.756 1484.61 Q413.903 1487.58 416.588 1490.26 L426.949 1500.62 L423.921 1503.65 L398.452 1478.18 L401.48 1475.15 L411.465 1485.14 Q410.892 1482.4 411.53 1480.13 Q412.185 1477.84 414.1 1475.92 Q417.259 1472.76 420.843 1473.11 Q424.412 1473.43 428.209 1477.23 Z" fill="#000000" fill-rule="nonzero" fill-opacity="1" /><path clip-path="url(#clip160)" d="M451.043 1456.69 L452.516 1458.16 L438.668 1472.01 Q441.975 1474.92 445.281 1474.89 Q448.587 1474.83 451.583 1471.83 Q453.318 1470.1 454.513 1468.05 Q455.724 1465.99 456.477 1463.53 L459.325 1466.38 Q458.392 1468.69 457.05 1470.75 Q455.708 1472.81 453.956 1474.56 Q449.57 1478.95 444.446 1478.97 Q439.339 1478.97 434.986 1474.61 Q430.484 1470.11 430.271 1465.05 Q430.059 1459.96 434.183 1455.84 Q437.883 1452.14 442.417 1452.38 Q446.951 1452.6 451.043 1456.69 M447.147 1458.82 Q444.643 1456.38 441.811 1456.26 Q438.996 1456.13 436.77 1458.36 Q434.249 1460.88 434.151 1463.83 Q434.069 1466.76 436.426 1469.57 L447.147 1458.82 Z" fill="#000000" fill-rule="nonzero" fill-opacity="1" /><path clip-path="url(#clip160)" d="M461.011 1435.53 Q460.209 1435.74 459.472 1436.21 Q458.736 1436.65 458.015 1437.38 Q455.462 1439.93 455.757 1442.97 Q456.051 1445.98 459.161 1449.09 L468.818 1458.75 L465.79 1461.78 L447.458 1443.45 L450.486 1440.42 L453.334 1443.27 Q452.614 1440.65 453.334 1438.32 Q454.038 1435.98 456.215 1433.81 Q456.526 1433.5 456.952 1433.17 Q457.361 1432.82 457.901 1432.45 L461.011 1435.53 Z" fill="#000000" fill-rule="nonzero" fill-opacity="1" /><path clip-path="url(#clip160)" d="M483.697 1425.57 Q480.374 1422.25 477.117 1421.74 Q473.86 1421.2 471.47 1423.59 Q469.08 1425.98 469.604 1429.26 Q470.128 1432.5 473.451 1435.82 Q476.773 1439.14 480.031 1439.68 Q483.288 1440.19 485.678 1437.8 Q488.067 1435.41 487.544 1432.17 Q487.02 1428.9 483.697 1425.57 M467.051 1429.42 Q466.363 1426.83 467.018 1424.61 Q467.673 1422.35 469.686 1420.34 Q473.025 1417 477.755 1417.57 Q482.502 1418.13 486.823 1422.45 Q491.145 1426.77 491.701 1431.52 Q492.274 1436.25 488.935 1439.58 Q486.922 1441.6 484.679 1442.27 Q482.437 1442.91 479.851 1442.22 L482.6 1444.97 L479.572 1448 L454.103 1422.53 L457.132 1419.5 L467.051 1429.42 Z" fill="#000000" fill-rule="nonzero" fill-opacity="1" /><path clip-path="url(#clip160)" d="M493.074 1657.8 L502.257 1666.99 L506.414 1662.83 Q508.722 1660.52 508.788 1658.07 Q508.853 1655.61 506.644 1653.4 Q504.45 1651.21 501.995 1651.27 Q499.54 1651.34 497.232 1653.65 L493.074 1657.8 M487.051 1658.39 L494.515 1650.93 Q498.623 1646.82 502.584 1646.59 Q506.545 1646.33 510.13 1649.92 Q513.747 1653.53 513.485 1657.49 Q513.24 1661.44 509.131 1665.55 L504.974 1669.7 L514.795 1679.53 L511.489 1682.83 L487.051 1658.39 Z" fill="#000000" fill-rule="nonzero" fill-opacity="1" /><path clip-path="url(#clip160)" d="M536.139 1638.34 L537.612 1639.82 L523.765 1653.66 Q527.071 1656.58 530.377 1656.54 Q533.684 1656.48 536.679 1653.48 Q538.414 1651.75 539.609 1649.7 Q540.82 1647.64 541.573 1645.18 L544.421 1648.03 Q543.488 1650.34 542.146 1652.4 Q540.804 1654.47 539.052 1656.22 Q534.666 1660.6 529.543 1660.62 Q524.436 1660.62 520.082 1656.27 Q515.581 1651.76 515.368 1646.71 Q515.155 1641.62 519.28 1637.49 Q522.979 1633.79 527.513 1634.04 Q532.047 1634.25 536.139 1638.34 M532.243 1640.47 Q529.739 1638.03 526.907 1637.92 Q524.092 1637.79 521.866 1640.01 Q519.345 1642.53 519.247 1645.48 Q519.165 1648.41 521.522 1651.22 L532.243 1640.47 Z" fill="#000000" fill-rule="nonzero" fill-opacity="1" /><path clip-path="url(#clip160)" d="M546.107 1617.18 Q545.305 1617.39 544.568 1617.87 Q543.832 1618.31 543.112 1619.03 Q540.558 1621.58 540.853 1624.63 Q541.148 1627.64 544.257 1630.75 L553.915 1640.41 L550.887 1643.43 L532.554 1625.1 L535.582 1622.07 L538.43 1624.92 Q537.71 1622.3 538.43 1619.98 Q539.134 1617.64 541.311 1615.46 Q541.622 1615.15 542.048 1614.82 Q542.457 1614.48 542.997 1614.1 L546.107 1617.18 Z" fill="#000000" fill-rule="nonzero" fill-opacity="1" /><path clip-path="url(#clip160)" d="M569.808 1604.67 L571.281 1606.15 L557.434 1619.99 Q560.74 1622.91 564.047 1622.88 Q567.353 1622.81 570.348 1619.81 Q572.083 1618.08 573.278 1616.03 Q574.489 1613.97 575.242 1611.52 L578.09 1614.36 Q577.157 1616.67 575.815 1618.73 Q574.473 1620.8 572.722 1622.55 Q568.335 1626.93 563.212 1626.95 Q558.105 1626.95 553.751 1622.6 Q549.25 1618.1 549.037 1613.04 Q548.824 1607.95 552.949 1603.82 Q556.648 1600.12 561.182 1600.37 Q565.716 1600.58 569.808 1604.67 M565.913 1606.8 Q563.408 1604.36 560.577 1604.25 Q557.761 1604.12 555.535 1606.34 Q553.014 1608.86 552.916 1611.81 Q552.834 1614.74 555.191 1617.56 L565.913 1606.8 Z" fill="#000000" fill-rule="nonzero" fill-opacity="1" /><path clip-path="url(#clip160)" d="M588.844 1583.35 L599.909 1594.41 L596.897 1597.42 L585.931 1586.46 Q583.328 1583.85 581.02 1583.58 Q578.712 1583.3 576.683 1585.33 Q574.244 1587.77 574.391 1590.73 Q574.539 1593.69 577.223 1596.38 L587.584 1606.74 L584.556 1609.76 L566.224 1591.43 L569.252 1588.4 L572.1 1591.25 Q571.527 1588.52 572.165 1586.24 Q572.82 1583.95 574.735 1582.04 Q577.894 1578.88 581.479 1579.22 Q585.047 1579.55 588.844 1583.35 Z" fill="#000000" fill-rule="nonzero" fill-opacity="1" /><path clip-path="url(#clip160)" d="M610.09 1562.1 L621.155 1573.17 L618.143 1576.18 L607.177 1565.21 Q604.574 1562.61 602.266 1562.33 Q599.958 1562.05 597.929 1564.08 Q595.49 1566.52 595.637 1569.48 Q595.784 1572.44 598.469 1575.13 L608.83 1585.49 L605.802 1588.52 L587.469 1570.19 L590.497 1567.16 L593.345 1570.01 Q592.773 1567.27 593.411 1565 Q594.066 1562.71 595.981 1560.79 Q599.14 1557.63 602.724 1557.98 Q606.293 1558.3 610.09 1562.1 Z" fill="#000000" fill-rule="nonzero" fill-opacity="1" /><path clip-path="url(#clip160)" d="M608.83 1548.83 L611.841 1545.81 L630.174 1564.15 L627.162 1567.16 L608.83 1548.83 M601.693 1541.69 L604.705 1538.68 L608.519 1542.49 L605.507 1545.5 L601.693 1541.69 Z" fill="#000000" fill-rule="nonzero" fill-opacity="1" /><path clip-path="url(#clip160)" d="M635.592 1540.3 Q631.942 1543.95 631.369 1546.19 Q630.796 1548.43 632.809 1550.45 Q634.413 1552.05 636.41 1551.95 Q638.407 1551.82 640.224 1550 Q642.728 1547.5 642.466 1544.23 Q642.204 1540.92 639.258 1537.97 L638.587 1537.3 L635.592 1540.3 M640.355 1533.05 L650.814 1543.51 L647.802 1546.52 L645.02 1543.74 Q645.658 1546.44 644.921 1548.78 Q644.169 1551.1 641.942 1553.33 Q639.127 1556.14 635.886 1556.24 Q632.645 1556.31 629.994 1553.65 Q626.9 1550.56 627.391 1546.93 Q627.899 1543.28 632.007 1539.17 L636.23 1534.95 L635.935 1534.65 Q633.857 1532.57 631.352 1532.82 Q628.848 1533.03 626.376 1535.5 Q624.805 1537.07 623.692 1538.94 Q622.579 1540.81 621.957 1542.93 L619.174 1540.15 Q620.189 1537.86 621.433 1535.99 Q622.661 1534.11 624.134 1532.64 Q628.111 1528.66 632.138 1528.76 Q636.165 1528.86 640.355 1533.05 Z" fill="#000000" fill-rule="nonzero" fill-opacity="1" /><path clip-path="url(#clip160)" d="M631.549 1511.83 L634.56 1508.82 L660.029 1534.29 L657.018 1537.3 L631.549 1511.83 Z" fill="#000000" fill-rule="nonzero" fill-opacity="1" /><path clip-path="url(#clip160)" d="M679.671 1495.89 Q676.397 1492.62 673.238 1492.18 Q670.096 1491.72 667.657 1494.16 Q665.234 1496.58 665.676 1499.74 Q666.135 1502.88 669.408 1506.15 Q672.665 1509.41 675.808 1509.87 Q678.967 1510.31 681.39 1507.89 Q683.828 1505.45 683.37 1502.31 Q682.928 1499.15 679.671 1495.89 M689.786 1499.98 Q694.468 1504.66 694.664 1509.02 Q694.877 1513.39 690.589 1517.68 Q689.001 1519.26 687.348 1520.43 Q685.711 1521.61 683.894 1522.44 L680.964 1519.51 Q683.01 1518.9 684.647 1517.96 Q686.284 1517.01 687.626 1515.66 Q690.589 1512.7 690.507 1509.67 Q690.441 1506.66 687.315 1503.54 L685.825 1502.05 Q686.513 1504.6 685.858 1506.86 Q685.203 1509.12 683.174 1511.15 Q679.802 1514.52 675.17 1514.01 Q670.538 1513.5 666.298 1509.26 Q662.043 1505.01 661.535 1500.38 Q661.028 1495.74 664.4 1492.37 Q666.429 1490.34 668.688 1489.69 Q670.947 1489.03 673.5 1489.72 L670.718 1486.94 L673.729 1483.93 L689.786 1499.98 Z" fill="#000000" fill-rule="nonzero" fill-opacity="1" /><path clip-path="url(#clip160)" d="M693.371 1469.92 Q692.569 1470.13 691.833 1470.6 Q691.096 1471.04 690.376 1471.76 Q687.822 1474.32 688.117 1477.36 Q688.412 1480.37 691.522 1483.48 L701.179 1493.14 L698.151 1496.17 L679.818 1477.84 L682.846 1474.81 L685.694 1477.66 Q684.974 1475.04 685.694 1472.71 Q686.398 1470.37 688.575 1468.2 Q688.886 1467.89 689.312 1467.56 Q689.721 1467.21 690.261 1466.84 L693.371 1469.92 Z" fill="#000000" fill-rule="nonzero" fill-opacity="1" /><path clip-path="url(#clip160)" d="M711.163 1464.73 Q707.513 1468.38 706.94 1470.62 Q706.367 1472.86 708.381 1474.87 Q709.985 1476.48 711.982 1476.38 Q713.979 1476.25 715.795 1474.43 Q718.3 1471.93 718.038 1468.65 Q717.776 1465.35 714.83 1462.4 L714.159 1461.73 L711.163 1464.73 M715.926 1457.48 L726.386 1467.93 L723.374 1470.95 L720.591 1468.16 Q721.23 1470.86 720.493 1473.21 Q719.74 1475.53 717.514 1477.76 Q714.699 1480.57 711.458 1480.67 Q708.217 1480.73 705.565 1478.08 Q702.472 1474.99 702.963 1471.36 Q703.47 1467.71 707.579 1463.6 L711.802 1459.37 L711.507 1459.08 Q709.428 1457 706.924 1457.25 Q704.42 1457.46 701.948 1459.93 Q700.377 1461.5 699.264 1463.37 Q698.151 1465.23 697.529 1467.36 L694.746 1464.58 Q695.761 1462.29 697.005 1460.42 Q698.232 1458.54 699.706 1457.07 Q703.683 1453.09 707.71 1453.19 Q711.736 1453.29 715.926 1457.48 Z" fill="#000000" fill-rule="nonzero" fill-opacity="1" /><path clip-path="url(#clip160)" d="M726.484 1432.25 L729.332 1435.1 Q727.4 1435.72 725.698 1436.77 Q723.996 1437.82 722.523 1439.29 Q720.28 1441.53 719.838 1443.35 Q719.413 1445.15 720.788 1446.52 Q721.835 1447.57 723.243 1447.38 Q724.634 1447.16 727.597 1445.28 L728.857 1444.48 Q732.753 1441.96 735.355 1441.88 Q737.958 1441.76 740.2 1444 Q742.754 1446.56 742.214 1450.08 Q741.69 1453.58 738.154 1457.12 Q736.681 1458.59 734.782 1459.9 Q732.916 1461.21 730.576 1462.4 L727.466 1459.29 Q730.003 1458.49 732.065 1457.31 Q734.111 1456.12 735.699 1454.53 Q737.827 1452.4 738.253 1450.54 Q738.662 1448.65 737.336 1447.33 Q736.108 1446.1 734.619 1446.28 Q733.146 1446.44 729.741 1448.64 L728.448 1449.44 Q725.06 1451.65 722.605 1451.68 Q720.133 1451.7 718.005 1449.57 Q715.419 1446.98 715.845 1443.74 Q716.27 1440.5 719.642 1437.13 Q721.311 1435.46 723.03 1434.23 Q724.749 1433 726.484 1432.25 Z" fill="#000000" fill-rule="nonzero" fill-opacity="1" /><path clip-path="url(#clip160)" d="M743.949 1414.79 L746.797 1417.64 Q744.865 1418.26 743.163 1419.3 Q741.461 1420.35 739.988 1421.83 Q737.745 1424.07 737.303 1425.88 Q736.878 1427.69 738.253 1429.06 Q739.3 1430.11 740.708 1429.91 Q742.099 1429.7 745.062 1427.82 L746.322 1427.01 Q750.218 1424.49 752.82 1424.41 Q755.423 1424.3 757.665 1426.54 Q760.219 1429.09 759.678 1432.61 Q759.155 1436.11 755.619 1439.65 Q754.146 1441.12 752.247 1442.43 Q750.381 1443.74 748.041 1444.94 L744.931 1441.83 Q747.468 1441.03 749.53 1439.85 Q751.576 1438.65 753.164 1437.06 Q755.292 1434.94 755.717 1433.07 Q756.126 1431.19 754.801 1429.86 Q753.573 1428.63 752.084 1428.81 Q750.61 1428.98 747.206 1431.17 L745.913 1431.97 Q742.525 1434.18 740.069 1434.22 Q737.598 1434.23 735.47 1432.1 Q732.884 1429.52 733.309 1426.28 Q733.735 1423.04 737.107 1419.66 Q738.776 1418 740.495 1416.77 Q742.214 1415.54 743.949 1414.79 Z" fill="#000000" fill-rule="nonzero" fill-opacity="1" /><path clip-path="url(#clip160)" d="M859.621 1554.18 L862.845 1557.4 Q860.062 1558.38 857.951 1559.61 Q855.839 1560.84 854.285 1562.39 Q851.584 1565.1 851.158 1567.62 Q850.749 1570.12 852.68 1572.05 Q854.301 1573.67 856.101 1573.54 Q857.902 1573.38 861.126 1571.17 L863.533 1569.58 Q867.936 1566.59 871.471 1566.62 Q875.007 1566.62 877.986 1569.6 Q881.537 1573.15 880.981 1577.37 Q880.441 1581.58 875.841 1586.18 Q874.106 1587.91 871.749 1589.48 Q869.409 1591.04 866.544 1592.36 L863.14 1588.96 Q866.282 1588.08 868.787 1586.72 Q871.291 1585.36 873.157 1583.49 Q875.989 1580.66 876.414 1578.01 Q876.84 1575.36 874.777 1573.3 Q872.977 1571.5 870.849 1571.59 Q868.738 1571.68 865.709 1573.69 L863.303 1575.31 Q858.868 1578.27 855.643 1578.35 Q852.419 1578.44 849.62 1575.64 Q846.379 1572.4 846.788 1568.25 Q847.213 1564.1 851.224 1560.09 Q852.942 1558.37 855.037 1556.9 Q857.133 1555.42 859.621 1554.18 Z" fill="#000000" fill-rule="nonzero" fill-opacity="1" /><path clip-path="url(#clip160)" d="M882.209 1564.39 L871.111 1553.29 L874.123 1550.28 L885.106 1561.27 Q887.708 1563.87 890.033 1564.16 Q892.34 1564.44 894.37 1562.41 Q896.809 1559.97 896.662 1557.01 Q896.531 1554.03 893.846 1551.35 L883.453 1540.95 L886.464 1537.94 L904.797 1556.27 L901.785 1559.28 L898.97 1556.47 Q899.542 1559.24 898.904 1561.51 Q898.266 1563.75 896.351 1565.67 Q893.192 1568.83 889.591 1568.5 Q885.99 1568.17 882.209 1564.39 M878.247 1545.27 L878.247 1545.27 Z" fill="#000000" fill-rule="nonzero" fill-opacity="1" /><path clip-path="url(#clip160)" d="M906.564 1519.25 L909.38 1522.06 Q907.399 1522.64 905.762 1523.59 Q904.125 1524.5 902.816 1525.81 Q899.886 1528.74 900.132 1532.23 Q900.361 1535.7 903.716 1539.05 Q907.072 1542.41 910.558 1542.65 Q914.028 1542.88 916.958 1539.95 Q918.268 1538.64 919.201 1537.02 Q920.133 1535.37 920.706 1533.39 L923.489 1536.17 Q922.818 1538.02 921.754 1539.68 Q920.706 1541.31 919.184 1542.84 Q915.043 1546.98 910.002 1546.81 Q904.96 1546.65 900.541 1542.23 Q896.056 1537.74 895.941 1532.72 Q895.843 1527.68 900.132 1523.39 Q901.523 1522 903.143 1520.97 Q904.747 1519.92 906.564 1519.25 Z" fill="#000000" fill-rule="nonzero" fill-opacity="1" /><path clip-path="url(#clip160)" d="M924.995 1500.82 L927.81 1503.63 Q925.83 1504.21 924.193 1505.16 Q922.556 1506.07 921.247 1507.38 Q918.317 1510.31 918.562 1513.8 Q918.791 1517.27 922.147 1520.62 Q925.502 1523.98 928.989 1524.22 Q932.459 1524.45 935.389 1521.52 Q936.698 1520.21 937.631 1518.59 Q938.564 1516.94 939.137 1514.96 L941.919 1517.74 Q941.248 1519.59 940.184 1521.25 Q939.137 1522.88 937.615 1524.4 Q933.474 1528.55 928.432 1528.38 Q923.391 1528.22 918.971 1523.8 Q914.486 1519.31 914.372 1514.29 Q914.274 1509.25 918.562 1504.96 Q919.953 1503.57 921.574 1502.54 Q923.178 1501.49 924.995 1500.82 Z" fill="#000000" fill-rule="nonzero" fill-opacity="1" /><path clip-path="url(#clip160)" d="M940.315 1506.28 L929.218 1495.19 L932.23 1492.18 L943.213 1503.16 Q945.815 1505.76 948.139 1506.06 Q950.447 1506.33 952.477 1504.3 Q954.916 1501.87 954.768 1498.9 Q954.637 1495.92 951.953 1493.24 L941.559 1482.85 L944.571 1479.83 L962.903 1498.17 L959.892 1501.18 L957.076 1498.36 Q957.649 1501.13 957.011 1503.4 Q956.373 1505.65 954.457 1507.56 Q951.298 1510.72 947.697 1510.39 Q944.096 1510.07 940.315 1506.28 M936.354 1487.17 L936.354 1487.17 Z" fill="#000000" fill-rule="nonzero" fill-opacity="1" /><path clip-path="url(#clip160)" d="M943.638 1466.49 L946.65 1463.48 L972.119 1488.95 L969.107 1491.96 L943.638 1466.49 Z" fill="#000000" fill-rule="nonzero" fill-opacity="1" /><path clip-path="url(#clip160)" d="M984.182 1457.05 L985.655 1458.52 L971.808 1472.37 Q975.114 1475.28 978.42 1475.25 Q981.727 1475.19 984.722 1472.19 Q986.457 1470.46 987.652 1468.41 Q988.863 1466.35 989.616 1463.89 L992.464 1466.74 Q991.531 1469.05 990.189 1471.11 Q988.847 1473.17 987.095 1474.92 Q982.709 1479.31 977.586 1479.33 Q972.479 1479.33 968.125 1474.97 Q963.624 1470.47 963.411 1465.41 Q963.198 1460.32 967.323 1456.2 Q971.022 1452.5 975.556 1452.74 Q980.09 1452.96 984.182 1457.05 M980.286 1459.18 Q977.782 1456.74 974.95 1456.62 Q972.135 1456.49 969.909 1458.72 Q967.388 1461.24 967.29 1464.19 Q967.208 1467.12 969.565 1469.93 L980.286 1459.18 Z" fill="#000000" fill-rule="nonzero" fill-opacity="1" /><path clip-path="url(#clip160)" d="M1003.22 1435.72 L1014.28 1446.79 L1011.27 1449.8 L1000.3 1438.83 Q997.702 1436.23 995.394 1435.95 Q993.086 1435.67 991.057 1437.7 Q988.618 1440.14 988.765 1443.1 Q988.912 1446.07 991.597 1448.75 L1001.96 1459.11 L998.93 1462.14 L980.597 1443.81 L983.625 1440.78 L986.473 1443.63 Q985.901 1440.89 986.539 1438.62 Q987.194 1436.33 989.109 1434.41 Q992.268 1431.25 995.852 1431.6 Q999.421 1431.92 1003.22 1435.72 Z" fill="#000000" fill-rule="nonzero" fill-opacity="1" /><path clip-path="url(#clip160)" d="M999.732 1414.26 L1004.94 1419.47 L1011.14 1413.26 L1013.48 1415.61 L1007.28 1421.81 L1017.23 1431.76 Q1019.47 1434 1020.72 1434.04 Q1021.98 1434.05 1023.86 1432.17 L1026.95 1429.08 L1029.47 1431.6 L1026.38 1434.69 Q1022.89 1438.18 1020.27 1438.21 Q1017.64 1438.23 1014.2 1434.79 L1004.25 1424.84 L1002.04 1427.05 L999.699 1424.71 L1001.91 1422.5 L996.704 1417.29 L999.732 1414.26 Z" fill="#000000" fill-rule="nonzero" fill-opacity="1" /><path clip-path="url(#clip160)" d="M1017.33 1661.62 L1038 1640.95 L1040.78 1643.73 L1032.11 1652.4 L1053.76 1674.06 L1050.44 1677.38 L1028.78 1655.73 L1020.11 1664.4 L1017.33 1661.62 Z" fill="#000000" fill-rule="nonzero" fill-opacity="1" /><path clip-path="url(#clip160)" d="M1065.56 1642.42 L1067.04 1643.89 L1053.19 1657.74 Q1056.49 1660.65 1059.8 1660.62 Q1063.11 1660.55 1066.1 1657.56 Q1067.84 1655.82 1069.03 1653.78 Q1070.24 1651.72 1071 1649.26 L1073.84 1652.11 Q1072.91 1654.42 1071.57 1656.48 Q1070.23 1658.54 1068.48 1660.29 Q1064.09 1664.68 1058.97 1664.7 Q1053.86 1664.7 1049.51 1660.34 Q1045 1655.84 1044.79 1650.78 Q1044.58 1645.69 1048.7 1641.57 Q1052.4 1637.87 1056.94 1638.11 Q1061.47 1638.33 1065.56 1642.42 M1061.67 1644.55 Q1059.16 1642.11 1056.33 1641.99 Q1053.52 1641.86 1051.29 1644.09 Q1048.77 1646.61 1048.67 1649.56 Q1048.59 1652.49 1050.95 1655.3 L1061.67 1644.55 Z" fill="#000000" fill-rule="nonzero" fill-opacity="1" /><path clip-path="url(#clip160)" d="M1079.88 1618.31 Q1078.98 1615.15 1079.59 1612.61 Q1080.2 1610.08 1082.32 1607.95 Q1085.19 1605.08 1088.76 1605.54 Q1092.31 1605.98 1096.01 1609.68 L1107.07 1620.75 L1104.04 1623.78 L1093.08 1612.81 Q1090.44 1610.17 1088.23 1609.83 Q1086.02 1609.49 1084.11 1611.4 Q1081.77 1613.74 1081.96 1616.66 Q1082.16 1619.57 1084.84 1622.25 L1095.21 1632.61 L1092.18 1635.64 L1081.21 1624.68 Q1078.56 1622.02 1076.37 1621.7 Q1074.16 1621.35 1072.21 1623.3 Q1069.9 1625.61 1070.11 1628.54 Q1070.31 1631.45 1072.98 1634.12 L1083.34 1644.48 L1080.31 1647.51 L1061.98 1629.18 L1065.01 1626.15 L1067.85 1629 Q1067.2 1626.28 1067.84 1624.04 Q1068.48 1621.79 1070.46 1619.81 Q1072.45 1617.82 1074.86 1617.44 Q1077.28 1617.05 1079.88 1618.31 Z" fill="#000000" fill-rule="nonzero" fill-opacity="1" /><path clip-path="url(#clip160)" d="M1113.24 1609.08 L1122.97 1618.8 L1119.94 1621.83 L1094.63 1596.52 L1097.66 1593.49 L1100.44 1596.28 Q1099.76 1593.69 1100.41 1591.46 Q1101.07 1589.21 1103.08 1587.19 Q1106.42 1583.85 1111.15 1584.43 Q1115.89 1584.98 1120.22 1589.3 Q1124.54 1593.63 1125.09 1598.37 Q1125.67 1603.1 1122.33 1606.44 Q1120.31 1608.45 1118.07 1609.13 Q1115.83 1609.76 1113.24 1609.08 M1117.09 1592.43 Q1113.77 1589.11 1110.51 1588.6 Q1107.25 1588.06 1104.86 1590.45 Q1102.47 1592.84 1103 1596.11 Q1103.52 1599.35 1106.84 1602.68 Q1110.17 1606 1113.42 1606.54 Q1116.68 1607.05 1119.07 1604.66 Q1121.46 1602.27 1120.94 1599.03 Q1120.41 1595.75 1117.09 1592.43 Z" fill="#000000" fill-rule="nonzero" fill-opacity="1" /><path clip-path="url(#clip160)" d="M1140.12 1567.86 L1141.59 1569.34 L1127.75 1583.18 Q1131.05 1586.1 1134.36 1586.06 Q1137.66 1586 1140.66 1583 Q1142.39 1581.27 1143.59 1579.22 Q1144.8 1577.16 1145.55 1574.7 L1148.4 1577.55 Q1147.47 1579.86 1146.13 1581.92 Q1144.78 1583.98 1143.03 1585.74 Q1138.65 1590.12 1133.52 1590.14 Q1128.42 1590.14 1124.06 1585.78 Q1119.56 1581.28 1119.35 1576.23 Q1119.14 1571.14 1123.26 1567.01 Q1126.96 1563.31 1131.49 1563.56 Q1136.03 1563.77 1140.12 1567.86 M1136.22 1569.99 Q1133.72 1567.55 1130.89 1567.44 Q1128.07 1567.31 1125.85 1569.53 Q1123.33 1572.05 1123.23 1575 Q1123.15 1577.93 1125.5 1580.74 L1136.22 1569.99 Z" fill="#000000" fill-rule="nonzero" fill-opacity="1" /><path clip-path="url(#clip160)" d="M1150.09 1546.7 Q1149.29 1546.91 1148.55 1547.39 Q1147.81 1547.83 1147.09 1548.55 Q1144.54 1551.1 1144.83 1554.15 Q1145.13 1557.16 1148.24 1560.27 L1157.9 1569.92 L1154.87 1572.95 L1136.53 1554.62 L1139.56 1551.59 L1142.41 1554.44 Q1141.69 1551.82 1142.41 1549.5 Q1143.11 1547.16 1145.29 1544.98 Q1145.6 1544.67 1146.03 1544.34 Q1146.44 1544 1146.98 1543.62 L1150.09 1546.7 Z" fill="#000000" fill-rule="nonzero" fill-opacity="1" /><path clip-path="url(#clip160)" d="M1167.88 1541.51 Q1164.23 1545.16 1163.66 1547.4 Q1163.08 1549.64 1165.1 1551.66 Q1166.7 1553.26 1168.7 1553.16 Q1170.7 1553.03 1172.51 1551.22 Q1175.02 1548.71 1174.75 1545.44 Q1174.49 1542.13 1171.55 1539.18 L1170.88 1538.51 L1167.88 1541.51 M1172.64 1534.26 L1183.1 1544.72 L1180.09 1547.73 L1177.31 1544.95 Q1177.95 1547.65 1177.21 1549.99 Q1176.46 1552.31 1174.23 1554.54 Q1171.42 1557.35 1168.17 1557.45 Q1164.93 1557.52 1162.28 1554.87 Q1159.19 1551.77 1159.68 1548.14 Q1160.19 1544.49 1164.3 1540.38 L1168.52 1536.16 L1168.22 1535.86 Q1166.14 1533.78 1163.64 1534.03 Q1161.14 1534.24 1158.66 1536.71 Q1157.09 1538.28 1155.98 1540.15 Q1154.87 1542.02 1154.25 1544.14 L1151.46 1541.36 Q1152.48 1539.07 1153.72 1537.2 Q1154.95 1535.32 1156.42 1533.85 Q1160.4 1529.87 1164.43 1529.97 Q1168.45 1530.07 1172.64 1534.26 Z" fill="#000000" fill-rule="nonzero" fill-opacity="1" /><path clip-path="url(#clip160)" d="M1168.75 1512 L1173.95 1517.2 L1180.16 1511 L1182.5 1513.34 L1176.29 1519.54 L1186.24 1529.49 Q1188.49 1531.74 1189.73 1531.77 Q1190.99 1531.79 1192.87 1529.9 L1195.97 1526.81 L1198.49 1529.33 L1195.39 1532.42 Q1191.91 1535.91 1189.29 1535.94 Q1186.65 1535.96 1183.22 1532.52 L1173.26 1522.57 L1171.06 1524.78 L1168.71 1522.44 L1170.92 1520.23 L1165.72 1515.03 L1168.75 1512 Z" fill="#000000" fill-rule="nonzero" fill-opacity="1" /><path clip-path="url(#clip160)" d="M1208.21 1499.77 L1209.68 1501.24 L1195.84 1515.09 Q1199.14 1518 1202.45 1517.97 Q1205.76 1517.91 1208.75 1514.91 Q1210.49 1513.18 1211.68 1511.13 Q1212.89 1509.07 1213.65 1506.61 L1216.49 1509.46 Q1215.56 1511.77 1214.22 1513.83 Q1212.88 1515.89 1211.12 1517.64 Q1206.74 1522.03 1201.61 1522.05 Q1196.51 1522.05 1192.15 1517.69 Q1187.65 1513.19 1187.44 1508.13 Q1187.23 1503.04 1191.35 1498.92 Q1195.05 1495.22 1199.58 1495.47 Q1204.12 1495.68 1208.21 1499.77 M1204.32 1501.9 Q1201.81 1499.46 1198.98 1499.34 Q1196.16 1499.21 1193.94 1501.44 Q1191.42 1503.96 1191.32 1506.91 Q1191.24 1509.84 1193.59 1512.65 L1204.32 1501.9 Z" fill="#000000" fill-rule="nonzero" fill-opacity="1" /><path clip-path="url(#clip160)" d="M1213.17 1467.57 L1218.38 1472.78 L1224.58 1466.58 L1226.92 1468.92 L1220.72 1475.12 L1230.67 1485.07 Q1232.91 1487.31 1234.15 1487.35 Q1235.41 1487.36 1237.3 1485.48 L1240.39 1482.39 L1242.91 1484.91 L1239.82 1488 Q1236.33 1491.49 1233.71 1491.52 Q1231.08 1491.54 1227.64 1488.1 L1217.69 1478.15 L1215.48 1480.36 L1213.14 1478.02 L1215.35 1475.81 L1210.14 1470.6 L1213.17 1467.57 Z" fill="#000000" fill-rule="nonzero" fill-opacity="1" /><path clip-path="url(#clip160)" d="M1241.98 1454.81 Q1241.18 1455.02 1240.44 1455.49 Q1239.7 1455.94 1238.98 1456.66 Q1236.43 1459.21 1236.72 1462.25 Q1237.02 1465.27 1240.13 1468.38 L1249.79 1478.03 L1246.76 1481.06 L1228.43 1462.73 L1231.45 1459.7 L1234.3 1462.55 Q1233.58 1459.93 1234.3 1457.61 Q1235.01 1455.27 1237.18 1453.09 Q1237.49 1452.78 1237.92 1452.45 Q1238.33 1452.11 1238.87 1451.73 L1241.98 1454.81 Z" fill="#000000" fill-rule="nonzero" fill-opacity="1" /><path clip-path="url(#clip160)" d="M1265.68 1442.3 L1267.15 1443.78 L1253.31 1457.62 Q1256.61 1460.54 1259.92 1460.5 Q1263.22 1460.44 1266.22 1457.44 Q1267.95 1455.71 1269.15 1453.66 Q1270.36 1451.6 1271.11 1449.14 L1273.96 1451.99 Q1273.03 1454.3 1271.69 1456.36 Q1270.34 1458.42 1268.59 1460.18 Q1264.21 1464.56 1259.08 1464.58 Q1253.98 1464.58 1249.62 1460.23 Q1245.12 1455.72 1244.91 1450.67 Q1244.7 1445.58 1248.82 1441.45 Q1252.52 1437.75 1257.05 1438 Q1261.59 1438.21 1265.68 1442.3 M1261.78 1444.43 Q1259.28 1441.99 1256.45 1441.88 Q1253.63 1441.75 1251.41 1443.97 Q1248.89 1446.49 1248.79 1449.44 Q1248.71 1452.37 1251.06 1455.18 L1261.78 1444.43 Z" fill="#000000" fill-rule="nonzero" fill-opacity="1" /><path clip-path="url(#clip160)" d="M1286.3 1421.68 L1287.78 1423.15 L1273.93 1437 Q1277.24 1439.91 1280.54 1439.88 Q1283.85 1439.81 1286.84 1436.82 Q1288.58 1435.08 1289.77 1433.04 Q1290.98 1430.98 1291.74 1428.52 L1294.59 1431.37 Q1293.65 1433.68 1292.31 1435.74 Q1290.97 1437.8 1289.22 1439.55 Q1284.83 1443.94 1279.71 1443.96 Q1274.6 1443.96 1270.25 1439.6 Q1265.74 1435.1 1265.53 1430.04 Q1265.32 1424.95 1269.44 1420.83 Q1273.14 1417.13 1277.68 1417.37 Q1282.21 1417.59 1286.3 1421.68 M1282.41 1423.81 Q1279.9 1421.37 1277.07 1421.25 Q1274.26 1421.12 1272.03 1423.35 Q1269.51 1425.87 1269.41 1428.81 Q1269.33 1431.74 1271.69 1434.56 L1282.41 1423.81 Z" fill="#000000" fill-rule="nonzero" fill-opacity="1" /><path clip-path="url(#clip160)" d="M1318.86 1626.84 L1339.53 1606.16 L1342.31 1608.95 L1333.64 1617.62 L1355.29 1639.28 L1351.97 1642.6 L1330.32 1620.94 L1321.64 1629.62 L1318.86 1626.84 Z" fill="#000000" fill-rule="nonzero" fill-opacity="1" /><path clip-path="url(#clip160)" d="M1357.21 1606.33 Q1356.41 1606.54 1355.67 1607.01 Q1354.93 1607.46 1354.21 1608.18 Q1351.66 1610.73 1351.95 1613.77 Q1352.25 1616.79 1355.36 1619.9 L1365.02 1629.55 L1361.99 1632.58 L1343.66 1614.25 L1346.68 1611.22 L1349.53 1614.07 Q1348.81 1611.45 1349.53 1609.13 Q1350.24 1606.79 1352.41 1604.61 Q1352.72 1604.3 1353.15 1603.97 Q1353.56 1603.63 1354.1 1603.25 L1357.21 1606.33 Z" fill="#000000" fill-rule="nonzero" fill-opacity="1" /><path clip-path="url(#clip160)" d="M1366.03 1596.1 Q1363.61 1598.52 1364.1 1601.83 Q1364.57 1605.12 1367.86 1608.41 Q1371.15 1611.7 1374.44 1612.2 Q1377.73 1612.68 1380.17 1610.24 Q1382.58 1607.83 1382.09 1604.53 Q1381.6 1601.22 1378.32 1597.95 Q1375.07 1594.69 1371.76 1594.2 Q1368.44 1593.69 1366.03 1596.1 M1363.48 1593.54 Q1367.41 1589.62 1372.2 1589.93 Q1377 1590.24 1381.51 1594.75 Q1386.02 1599.26 1386.34 1604.07 Q1386.65 1608.86 1382.73 1612.79 Q1378.78 1616.74 1373.99 1616.43 Q1369.19 1616.08 1364.69 1611.58 Q1360.17 1607.06 1359.84 1602.28 Q1359.53 1597.49 1363.48 1593.54 Z" fill="#000000" fill-rule="nonzero" fill-opacity="1" /><path clip-path="url(#clip160)" d="M1395.82 1593.25 L1405.54 1602.97 L1402.52 1606 L1377.21 1580.69 L1380.24 1577.67 L1383.02 1580.45 Q1382.33 1577.86 1382.99 1575.64 Q1383.64 1573.38 1385.66 1571.36 Q1389 1568.03 1393.73 1568.6 Q1398.47 1569.15 1402.79 1573.48 Q1407.11 1577.8 1407.67 1582.54 Q1408.24 1587.27 1404.91 1590.61 Q1402.89 1592.63 1400.65 1593.3 Q1398.41 1593.94 1395.82 1593.25 M1399.67 1576.6 Q1396.34 1573.28 1393.09 1572.77 Q1389.83 1572.23 1387.44 1574.62 Q1385.05 1577.01 1385.57 1580.29 Q1386.1 1583.53 1389.42 1586.85 Q1392.74 1590.17 1396 1590.71 Q1399.26 1591.22 1401.65 1588.83 Q1404.04 1586.44 1403.51 1583.2 Q1402.99 1579.93 1399.67 1576.6 Z" fill="#000000" fill-rule="nonzero" fill-opacity="1" /><path clip-path="url(#clip160)" d="M1398.6 1559.3 L1401.62 1556.29 L1419.95 1574.62 L1416.94 1577.63 L1398.6 1559.3 M1391.47 1552.16 L1394.48 1549.15 L1398.29 1552.97 L1395.28 1555.98 L1391.47 1552.16 Z" fill="#000000" fill-rule="nonzero" fill-opacity="1" /><path clip-path="url(#clip160)" d="M1421.81 1537.5 L1424.63 1540.31 Q1422.65 1540.89 1421.01 1541.84 Q1419.37 1542.75 1418.06 1544.06 Q1415.14 1546.99 1415.38 1550.48 Q1415.61 1553.95 1418.97 1557.3 Q1422.32 1560.66 1425.81 1560.91 Q1429.28 1561.13 1432.21 1558.2 Q1433.52 1556.9 1434.45 1555.27 Q1435.38 1553.62 1435.96 1551.64 L1438.74 1554.42 Q1438.07 1556.27 1437 1557.93 Q1435.96 1559.56 1434.43 1561.09 Q1430.29 1565.23 1425.25 1565.06 Q1420.21 1564.9 1415.79 1560.48 Q1411.3 1555.99 1411.19 1550.97 Q1411.09 1545.93 1415.38 1541.64 Q1416.77 1540.25 1418.39 1539.22 Q1420 1538.17 1421.81 1537.5 Z" fill="#000000" fill-rule="nonzero" fill-opacity="1" /><path clip-path="url(#clip160)" d="M1443.8 1532.34 Q1440.15 1535.99 1439.57 1538.24 Q1439 1540.48 1441.01 1542.49 Q1442.62 1544.1 1444.61 1544 Q1446.61 1543.87 1448.43 1542.05 Q1450.93 1539.55 1450.67 1536.27 Q1450.41 1532.97 1447.46 1530.02 L1446.79 1529.35 L1443.8 1532.34 M1448.56 1525.09 L1459.02 1535.55 L1456.01 1538.56 L1453.22 1535.78 Q1453.86 1538.48 1453.13 1540.82 Q1452.37 1543.15 1450.15 1545.37 Q1447.33 1548.19 1444.09 1548.29 Q1440.85 1548.35 1438.2 1545.7 Q1435.1 1542.61 1435.6 1538.97 Q1436.1 1535.32 1440.21 1531.21 L1444.43 1526.99 L1444.14 1526.7 Q1442.06 1524.62 1439.56 1524.86 Q1437.05 1525.08 1434.58 1527.55 Q1433.01 1529.12 1431.9 1530.98 Q1430.78 1532.85 1430.16 1534.98 L1427.38 1532.2 Q1428.39 1529.9 1429.64 1528.04 Q1430.86 1526.16 1432.34 1524.68 Q1436.32 1520.71 1440.34 1520.8 Q1444.37 1520.9 1448.56 1525.09 Z" fill="#000000" fill-rule="nonzero" fill-opacity="1" /><path clip-path="url(#clip160)" d="M1439.75 1503.88 L1442.76 1500.87 L1468.23 1526.34 L1465.22 1529.35 L1439.75 1503.88 Z" fill="#000000" fill-rule="nonzero" fill-opacity="1" /><path clip-path="url(#clip160)" d="M1485.35 1503.72 L1495.08 1513.44 L1492.05 1516.47 L1466.74 1491.16 L1469.77 1488.13 L1472.55 1490.92 Q1471.87 1488.33 1472.52 1486.1 Q1473.18 1483.84 1475.19 1481.83 Q1478.53 1478.49 1483.26 1479.06 Q1488.01 1479.62 1492.33 1483.94 Q1496.65 1488.26 1497.2 1493.01 Q1497.78 1497.74 1494.44 1501.08 Q1492.43 1503.09 1490.18 1503.76 Q1487.94 1504.4 1485.35 1503.72 M1489.2 1487.07 Q1485.88 1483.75 1482.62 1483.24 Q1479.36 1482.7 1476.97 1485.09 Q1474.58 1487.48 1475.11 1490.75 Q1475.63 1493.99 1478.95 1497.32 Q1482.28 1500.64 1485.53 1501.18 Q1488.79 1501.69 1491.18 1499.3 Q1493.57 1496.91 1493.05 1493.67 Q1492.52 1490.39 1489.2 1487.07 Z" fill="#000000" fill-rule="nonzero" fill-opacity="1" /><path clip-path="url(#clip160)" d="M1505.59 1470.55 Q1501.94 1474.2 1501.36 1476.45 Q1500.79 1478.69 1502.8 1480.7 Q1504.41 1482.31 1506.4 1482.21 Q1508.4 1482.08 1510.22 1480.26 Q1512.72 1477.76 1512.46 1474.48 Q1512.2 1471.18 1509.25 1468.23 L1508.58 1467.56 L1505.59 1470.55 M1510.35 1463.3 L1520.81 1473.76 L1517.8 1476.77 L1515.01 1473.99 Q1515.65 1476.69 1514.92 1479.03 Q1514.16 1481.36 1511.94 1483.58 Q1509.12 1486.4 1505.88 1486.5 Q1502.64 1486.56 1499.99 1483.91 Q1496.89 1480.82 1497.38 1477.18 Q1497.89 1473.53 1502 1469.42 L1506.22 1465.2 L1505.93 1464.91 Q1503.85 1462.83 1501.35 1463.07 Q1498.84 1463.29 1496.37 1465.76 Q1494.8 1467.33 1493.69 1469.19 Q1492.57 1471.06 1491.95 1473.19 L1489.17 1470.41 Q1490.18 1468.11 1491.43 1466.25 Q1492.65 1464.37 1494.13 1462.89 Q1498.11 1458.92 1502.13 1459.01 Q1506.16 1459.11 1510.35 1463.3 Z" fill="#000000" fill-rule="nonzero" fill-opacity="1" /><path clip-path="url(#clip160)" d="M1501.54 1442.09 L1504.55 1439.08 L1530.02 1464.55 L1527.01 1467.56 L1501.54 1442.09 Z" fill="#000000" fill-rule="nonzero" fill-opacity="1" /><path clip-path="url(#clip160)" d="M1535.78 1429.16 Q1534.88 1426 1535.49 1423.46 Q1536.1 1420.93 1538.22 1418.8 Q1541.09 1415.93 1544.66 1416.39 Q1548.21 1416.83 1551.91 1420.53 L1562.97 1431.6 L1559.94 1434.63 L1548.98 1423.66 Q1546.34 1421.02 1544.13 1420.68 Q1541.92 1420.34 1540.01 1422.25 Q1537.67 1424.59 1537.86 1427.51 Q1538.06 1430.42 1540.74 1433.1 L1551.11 1443.46 L1548.08 1446.49 L1537.11 1435.53 Q1534.46 1432.87 1532.27 1432.55 Q1530.06 1432.2 1528.11 1434.15 Q1525.8 1436.46 1526.01 1439.39 Q1526.21 1442.3 1528.88 1444.97 L1539.24 1455.33 L1536.21 1458.36 L1517.88 1440.03 L1520.91 1437 L1523.75 1439.85 Q1523.1 1437.13 1523.74 1434.89 Q1524.38 1432.64 1526.36 1430.66 Q1528.35 1428.67 1530.76 1428.29 Q1533.18 1427.9 1535.78 1429.16 Z" fill="#000000" fill-rule="nonzero" fill-opacity="1" /><path clip-path="url(#clip160)" d="M1677.69 1536.35 L1680.92 1539.58 Q1678.14 1540.56 1676.02 1541.79 Q1673.91 1543.02 1672.36 1544.57 Q1669.66 1547.27 1669.23 1549.79 Q1668.82 1552.3 1670.75 1554.23 Q1672.37 1555.85 1674.18 1555.72 Q1675.98 1555.55 1679.2 1553.34 L1681.61 1551.76 Q1686.01 1548.76 1689.55 1548.79 Q1693.08 1548.79 1696.06 1551.77 Q1699.61 1555.32 1699.05 1559.55 Q1698.51 1563.75 1693.92 1568.35 Q1692.18 1570.09 1689.82 1571.66 Q1687.48 1573.21 1684.62 1574.54 L1681.21 1571.14 Q1684.36 1570.25 1686.86 1568.89 Q1689.37 1567.53 1691.23 1565.67 Q1694.06 1562.84 1694.49 1560.19 Q1694.91 1557.53 1692.85 1555.47 Q1691.05 1553.67 1688.92 1553.77 Q1686.81 1553.85 1683.78 1555.86 L1681.38 1557.48 Q1676.94 1560.45 1673.72 1560.53 Q1670.49 1560.61 1667.69 1557.81 Q1664.45 1554.57 1664.86 1550.43 Q1665.29 1546.27 1669.3 1542.26 Q1671.02 1540.54 1673.11 1539.07 Q1675.21 1537.6 1677.69 1536.35 Z" fill="#000000" fill-rule="nonzero" fill-opacity="1" /><path clip-path="url(#clip160)" d="M1698.71 1530.17 Q1696.29 1532.59 1696.78 1535.89 Q1697.25 1539.18 1700.54 1542.47 Q1703.83 1545.76 1707.12 1546.27 Q1710.41 1546.75 1712.85 1544.31 Q1715.26 1541.9 1714.77 1538.6 Q1714.28 1535.29 1711 1532.02 Q1707.75 1528.76 1704.44 1528.27 Q1701.12 1527.76 1698.71 1530.17 M1696.16 1527.61 Q1700.09 1523.68 1704.88 1524 Q1709.68 1524.31 1714.2 1528.82 Q1718.7 1533.33 1719.02 1538.14 Q1719.34 1542.93 1715.41 1546.86 Q1711.46 1550.81 1706.67 1550.5 Q1701.87 1550.15 1697.37 1545.65 Q1692.85 1541.13 1692.52 1536.35 Q1692.21 1531.56 1696.16 1527.61 Z" fill="#000000" fill-rule="nonzero" fill-opacity="1" /><path clip-path="url(#clip160)" d="M1732.51 1506.68 L1743.58 1517.74 L1740.56 1520.75 L1729.6 1509.79 Q1727 1507.19 1724.69 1506.91 Q1722.38 1506.63 1720.35 1508.66 Q1717.91 1511.1 1718.06 1514.06 Q1718.21 1517.02 1720.89 1519.71 L1731.25 1530.07 L1728.22 1533.1 L1709.89 1514.76 L1712.92 1511.74 L1715.77 1514.58 Q1715.19 1511.85 1715.83 1509.57 Q1716.49 1507.28 1718.4 1505.37 Q1721.56 1502.21 1725.15 1502.55 Q1728.71 1502.88 1732.51 1506.68 Z" fill="#000000" fill-rule="nonzero" fill-opacity="1" /><path clip-path="url(#clip160)" d="M1752.27 1490.29 Q1748.99 1487.02 1745.84 1486.58 Q1742.69 1486.12 1740.25 1488.56 Q1737.83 1490.98 1738.27 1494.14 Q1738.73 1497.28 1742 1500.56 Q1745.26 1503.81 1748.4 1504.27 Q1751.56 1504.71 1753.99 1502.29 Q1756.43 1499.85 1755.97 1496.71 Q1755.52 1493.55 1752.27 1490.29 M1762.38 1494.39 Q1767.06 1499.07 1767.26 1503.42 Q1767.47 1507.79 1763.19 1512.08 Q1761.6 1513.67 1759.94 1514.83 Q1758.31 1516.01 1756.49 1516.84 L1753.56 1513.91 Q1755.61 1513.31 1757.24 1512.36 Q1758.88 1511.41 1760.22 1510.07 Q1763.19 1507.1 1763.1 1504.08 Q1763.04 1501.06 1759.91 1497.94 L1758.42 1496.45 Q1759.11 1499 1758.45 1501.26 Q1757.8 1503.52 1755.77 1505.55 Q1752.4 1508.92 1747.77 1508.41 Q1743.13 1507.91 1738.89 1503.67 Q1734.64 1499.41 1734.13 1494.78 Q1733.62 1490.15 1737 1486.77 Q1739.03 1484.74 1741.28 1484.09 Q1743.54 1483.44 1746.1 1484.12 L1743.31 1481.34 L1746.33 1478.33 L1762.38 1494.39 Z" fill="#000000" fill-rule="nonzero" fill-opacity="1" /><path clip-path="url(#clip160)" d="M1774.87 1468.15 Q1771.55 1464.82 1768.29 1464.32 Q1765.03 1463.78 1762.65 1466.17 Q1760.26 1468.56 1760.78 1471.83 Q1761.3 1475.07 1764.63 1478.39 Q1767.95 1481.72 1771.21 1482.26 Q1774.46 1482.76 1776.85 1480.37 Q1779.24 1477.98 1778.72 1474.74 Q1778.19 1471.47 1774.87 1468.15 M1758.23 1471.99 Q1757.54 1469.41 1758.19 1467.18 Q1758.85 1464.92 1760.86 1462.91 Q1764.2 1459.57 1768.93 1460.14 Q1773.68 1460.7 1778 1465.02 Q1782.32 1469.34 1782.88 1474.09 Q1783.45 1478.82 1780.11 1482.16 Q1778.1 1484.17 1775.85 1484.84 Q1773.61 1485.48 1771.03 1484.79 L1773.78 1487.54 L1770.75 1490.57 L1745.28 1465.1 L1748.31 1462.07 L1758.23 1471.99 Z" fill="#000000" fill-rule="nonzero" fill-opacity="1" /><path clip-path="url(#clip160)" d="M1773.81 1450.85 L1776.82 1447.83 L1795.15 1466.17 L1792.14 1469.18 L1773.81 1450.85 M1766.67 1443.71 L1769.68 1440.7 L1773.5 1444.51 L1770.49 1447.52 L1766.67 1443.71 Z" fill="#000000" fill-rule="nonzero" fill-opacity="1" /><path clip-path="url(#clip160)" d="M1796.56 1433.73 Q1795.76 1433.94 1795.02 1434.41 Q1794.28 1434.85 1793.56 1435.57 Q1791.01 1438.13 1791.31 1441.17 Q1791.6 1444.18 1794.71 1447.29 L1804.37 1456.95 L1801.34 1459.98 L1783.01 1441.65 L1786.04 1438.62 L1788.88 1441.47 Q1788.16 1438.85 1788.88 1436.52 Q1789.59 1434.18 1791.76 1432.01 Q1792.08 1431.7 1792.5 1431.37 Q1792.91 1431.02 1793.45 1430.65 L1796.56 1433.73 Z" fill="#000000" fill-rule="nonzero" fill-opacity="1" /><path clip-path="url(#clip160)" d="M1811.16 1419.06 L1801.24 1409.14 L1804.25 1406.13 L1829.72 1431.6 L1826.71 1434.61 L1823.96 1431.86 Q1824.65 1434.45 1823.99 1436.7 Q1823.34 1438.93 1821.31 1440.96 Q1817.99 1444.28 1813.24 1443.73 Q1808.51 1443.15 1804.19 1438.83 Q1799.87 1434.51 1799.29 1429.78 Q1798.74 1425.03 1802.06 1421.71 Q1804.09 1419.68 1806.33 1419.04 Q1808.57 1418.37 1811.16 1419.06 M1807.3 1435.72 Q1810.62 1439.04 1813.88 1439.58 Q1817.13 1440.09 1819.52 1437.7 Q1821.91 1435.31 1821.41 1432.06 Q1820.88 1428.78 1817.56 1425.46 Q1814.24 1422.14 1810.98 1421.63 Q1807.71 1421.11 1805.32 1423.5 Q1802.93 1425.88 1803.45 1429.16 Q1803.97 1432.4 1807.3 1435.72 Z" fill="#000000" fill-rule="nonzero" fill-opacity="1" /><path clip-path="url(#clip160)" d="M1832.54 1652.09 L1851.54 1671.1 L1855.53 1667.1 Q1860.59 1662.04 1860.64 1657.41 Q1860.7 1652.76 1855.76 1647.82 Q1850.85 1642.91 1846.22 1642.99 Q1841.59 1643.04 1836.53 1648.1 L1832.54 1652.09 M1826.51 1652.68 L1833.3 1645.89 Q1840.41 1638.78 1846.69 1638.42 Q1852.96 1638.05 1859.25 1644.33 Q1865.57 1650.65 1865.19 1656.95 Q1864.81 1663.26 1857.74 1670.33 L1850.95 1677.12 L1826.51 1652.68 Z" fill="#000000" fill-rule="nonzero" fill-opacity="1" /><path clip-path="url(#clip160)" d="M1882.39 1625.84 L1883.87 1627.31 L1870.02 1641.16 Q1873.32 1644.07 1876.63 1644.04 Q1879.94 1643.97 1882.93 1640.98 Q1884.67 1639.24 1885.86 1637.2 Q1887.07 1635.13 1887.83 1632.68 L1890.67 1635.53 Q1889.74 1637.84 1888.4 1639.9 Q1887.06 1641.96 1885.31 1643.71 Q1880.92 1648.1 1875.8 1648.11 Q1870.69 1648.11 1866.34 1643.76 Q1861.83 1639.26 1861.62 1634.2 Q1861.41 1629.11 1865.53 1624.99 Q1869.23 1621.29 1873.77 1621.53 Q1878.3 1621.75 1882.39 1625.84 M1878.5 1627.97 Q1875.99 1625.53 1873.16 1625.41 Q1870.35 1625.28 1868.12 1627.51 Q1865.6 1630.03 1865.5 1632.97 Q1865.42 1635.9 1867.78 1638.72 L1878.5 1627.97 Z" fill="#000000" fill-rule="nonzero" fill-opacity="1" /><path clip-path="url(#clip160)" d="M1891.15 1601.33 L1894 1604.18 Q1892.07 1604.8 1890.36 1605.85 Q1888.66 1606.9 1887.19 1608.37 Q1884.95 1610.62 1884.5 1612.43 Q1884.08 1614.23 1885.45 1615.61 Q1886.5 1616.66 1887.91 1616.46 Q1889.3 1616.25 1892.26 1614.36 L1893.52 1613.56 Q1897.42 1611.04 1900.02 1610.96 Q1902.62 1610.84 1904.87 1613.09 Q1907.42 1615.64 1906.88 1619.16 Q1906.36 1622.66 1902.82 1626.2 Q1901.35 1627.67 1899.45 1628.98 Q1897.58 1630.29 1895.24 1631.48 L1892.13 1628.37 Q1894.67 1627.57 1896.73 1626.39 Q1898.78 1625.2 1900.36 1623.61 Q1902.49 1621.48 1902.92 1619.62 Q1903.33 1617.74 1902 1616.41 Q1900.77 1615.18 1899.28 1615.36 Q1897.81 1615.53 1894.41 1617.72 L1893.11 1618.52 Q1889.73 1620.73 1887.27 1620.76 Q1884.8 1620.78 1882.67 1618.65 Q1880.08 1616.07 1880.51 1612.83 Q1880.94 1609.58 1884.31 1606.21 Q1885.98 1604.54 1887.7 1603.32 Q1889.41 1602.09 1891.15 1601.33 Z" fill="#000000" fill-rule="nonzero" fill-opacity="1" /><path clip-path="url(#clip160)" d="M1920.48 1587.75 L1921.95 1589.22 L1908.11 1603.07 Q1911.41 1605.98 1914.72 1605.95 Q1918.03 1605.89 1921.02 1602.89 Q1922.76 1601.15 1923.95 1599.11 Q1925.16 1597.05 1925.92 1594.59 L1928.76 1597.44 Q1927.83 1599.75 1926.49 1601.81 Q1925.15 1603.87 1923.39 1605.62 Q1919.01 1610.01 1913.88 1610.03 Q1908.78 1610.03 1904.42 1605.67 Q1899.92 1601.17 1899.71 1596.11 Q1899.5 1591.02 1903.62 1586.9 Q1907.32 1583.2 1911.86 1583.44 Q1916.39 1583.66 1920.48 1587.75 M1916.59 1589.88 Q1914.08 1587.44 1911.25 1587.32 Q1908.43 1587.19 1906.21 1589.42 Q1903.69 1591.94 1903.59 1594.89 Q1903.51 1597.82 1905.86 1600.63 L1916.59 1589.88 Z" fill="#000000" fill-rule="nonzero" fill-opacity="1" /><path clip-path="url(#clip160)" d="M1930.45 1566.59 Q1929.65 1566.8 1928.91 1567.27 Q1928.17 1567.71 1927.45 1568.43 Q1924.9 1570.99 1925.2 1574.03 Q1925.49 1577.04 1928.6 1580.15 L1938.26 1589.81 L1935.23 1592.84 L1916.9 1574.51 L1919.92 1571.48 L1922.77 1574.33 Q1922.05 1571.71 1922.77 1569.38 Q1923.48 1567.04 1925.65 1564.87 Q1925.96 1564.56 1926.39 1564.23 Q1926.8 1563.88 1927.34 1563.51 L1930.45 1566.59 Z" fill="#000000" fill-rule="nonzero" fill-opacity="1" /><path clip-path="url(#clip160)" d="M1928.57 1552.43 L1933.77 1557.63 L1939.98 1551.43 L1942.32 1553.77 L1936.11 1559.97 L1946.06 1569.92 Q1948.31 1572.17 1949.55 1572.2 Q1950.81 1572.22 1952.69 1570.33 L1955.79 1567.24 L1958.31 1569.76 L1955.21 1572.85 Q1951.73 1576.34 1949.11 1576.37 Q1946.47 1576.39 1943.04 1572.95 L1933.08 1563 L1930.88 1565.21 L1928.53 1562.87 L1930.74 1560.66 L1925.54 1555.45 L1928.57 1552.43 Z" fill="#000000" fill-rule="nonzero" fill-opacity="1" /><path clip-path="url(#clip160)" d="M1952.37 1528.63 L1957.57 1533.83 L1963.78 1527.63 L1966.12 1529.97 L1959.91 1536.17 L1969.86 1546.13 Q1972.11 1548.37 1973.35 1548.4 Q1974.61 1548.42 1976.49 1546.53 L1979.59 1543.44 L1982.11 1545.96 L1979.01 1549.05 Q1975.53 1552.54 1972.91 1552.57 Q1970.27 1552.59 1966.84 1549.15 L1956.88 1539.2 L1954.67 1541.41 L1952.33 1539.07 L1954.54 1536.86 L1949.34 1531.66 L1952.37 1528.63 Z" fill="#000000" fill-rule="nonzero" fill-opacity="1" /><path clip-path="url(#clip160)" d="M1976.95 1518.68 Q1974.53 1521.1 1975.02 1524.4 Q1975.49 1527.69 1978.78 1530.98 Q1982.07 1534.27 1985.36 1534.78 Q1988.65 1535.26 1991.09 1532.82 Q1993.5 1530.41 1993.01 1527.11 Q1992.52 1523.8 1989.24 1520.53 Q1985.99 1517.27 1982.68 1516.78 Q1979.36 1516.27 1976.95 1518.68 M1974.4 1516.12 Q1978.33 1512.19 1983.12 1512.5 Q1987.92 1512.82 1992.44 1517.33 Q1996.94 1521.83 1997.26 1526.65 Q1997.58 1531.44 1993.65 1535.37 Q1989.7 1539.32 1984.91 1539 Q1980.11 1538.66 1975.61 1534.16 Q1971.09 1529.64 1970.76 1524.86 Q1970.45 1520.07 1974.4 1516.12 Z" fill="#000000" fill-rule="nonzero" fill-opacity="1" /><path clip-path="url(#clip160)" d="M2001.68 1495.35 Q2000.88 1495.56 2000.14 1496.04 Q1999.41 1496.48 1998.69 1497.2 Q1996.13 1499.75 1996.43 1502.8 Q1996.72 1505.81 1999.83 1508.92 L2009.49 1518.58 L2006.46 1521.61 L1988.13 1503.27 L1991.16 1500.25 L1994.01 1503.09 Q1993.29 1500.47 1994.01 1498.15 Q1994.71 1495.81 1996.89 1493.63 Q1997.2 1493.32 1997.62 1492.99 Q1998.03 1492.65 1998.57 1492.27 L2001.68 1495.35 Z" fill="#000000" fill-rule="nonzero" fill-opacity="1" /><path clip-path="url(#clip160)" d="M1999.8 1481.19 L2005.01 1486.4 L2011.21 1480.19 L2013.55 1482.53 L2007.35 1488.74 L2017.3 1498.69 Q2019.54 1500.93 2020.79 1500.97 Q2022.05 1500.98 2023.93 1499.1 L2027.02 1496.01 L2029.54 1498.53 L2026.45 1501.62 Q2022.96 1505.11 2020.34 1505.14 Q2017.71 1505.16 2014.27 1501.72 L2004.32 1491.77 L2002.11 1493.98 L1999.77 1491.64 L2001.98 1489.43 L1996.77 1484.22 L1999.8 1481.19 Z" fill="#000000" fill-rule="nonzero" fill-opacity="1" /><path clip-path="url(#clip160)" d="M2024.39 1471.24 Q2021.96 1473.66 2022.45 1476.97 Q2022.93 1480.26 2026.22 1483.55 Q2029.51 1486.84 2032.8 1487.35 Q2036.09 1487.82 2038.53 1485.38 Q2040.93 1482.98 2040.44 1479.67 Q2039.95 1476.36 2036.68 1473.09 Q2033.42 1469.83 2030.12 1469.34 Q2026.79 1468.83 2024.39 1471.24 M2021.83 1468.69 Q2025.76 1464.76 2030.56 1465.07 Q2035.35 1465.38 2039.87 1469.9 Q2044.37 1474.4 2044.7 1479.21 Q2045.01 1484.01 2041.08 1487.94 Q2037.14 1491.88 2032.34 1491.57 Q2027.55 1491.23 2023.04 1486.73 Q2018.53 1482.21 2018.2 1477.43 Q2017.89 1472.63 2021.83 1468.69 Z" fill="#000000" fill-rule="nonzero" fill-opacity="1" /><path clip-path="url(#clip160)" d="M2035.68 1455.72 L2038.69 1452.71 L2057.02 1471.04 L2054.01 1474.06 L2035.68 1455.72 M2028.54 1448.59 L2031.56 1445.58 L2035.37 1449.39 L2032.36 1452.4 L2028.54 1448.59 Z" fill="#000000" fill-rule="nonzero" fill-opacity="1" /><path clip-path="url(#clip160)" d="M2057.22 1435.26 L2060.07 1438.11 Q2058.14 1438.73 2056.43 1439.78 Q2054.73 1440.83 2053.26 1442.3 Q2051.02 1444.54 2050.58 1446.36 Q2050.15 1448.16 2051.52 1449.54 Q2052.57 1450.58 2053.98 1450.39 Q2055.37 1450.18 2058.33 1448.29 L2059.59 1447.49 Q2063.49 1444.97 2066.09 1444.89 Q2068.69 1444.77 2070.94 1447.02 Q2073.49 1449.57 2072.95 1453.09 Q2072.43 1456.59 2068.89 1460.13 Q2067.42 1461.6 2065.52 1462.91 Q2063.65 1464.22 2061.31 1465.41 L2058.2 1462.3 Q2060.74 1461.5 2062.8 1460.32 Q2064.85 1459.13 2066.44 1457.54 Q2068.56 1455.41 2068.99 1453.55 Q2069.4 1451.66 2068.07 1450.34 Q2066.85 1449.11 2065.36 1449.29 Q2063.88 1449.45 2060.48 1451.65 L2059.18 1452.45 Q2055.8 1454.66 2053.34 1454.69 Q2050.87 1454.71 2048.74 1452.58 Q2046.16 1450 2046.58 1446.75 Q2047.01 1443.51 2050.38 1440.14 Q2052.05 1438.47 2053.77 1437.24 Q2055.49 1436.02 2057.22 1435.26 Z" fill="#000000" fill-rule="nonzero" fill-opacity="1" /><path clip-path="url(#clip160)" d="M2086.55 1421.68 L2088.03 1423.15 L2074.18 1437 Q2077.48 1439.91 2080.79 1439.88 Q2084.1 1439.81 2087.09 1436.82 Q2088.83 1435.08 2090.02 1433.04 Q2091.23 1430.98 2091.99 1428.52 L2094.83 1431.37 Q2093.9 1433.68 2092.56 1435.74 Q2091.22 1437.8 2089.47 1439.55 Q2085.08 1443.94 2079.96 1443.96 Q2074.85 1443.96 2070.5 1439.6 Q2065.99 1435.1 2065.78 1430.04 Q2065.57 1424.95 2069.69 1420.83 Q2073.39 1417.13 2077.93 1417.37 Q2082.46 1417.59 2086.55 1421.68 M2082.66 1423.81 Q2080.15 1421.37 2077.32 1421.25 Q2074.51 1421.12 2072.28 1423.35 Q2069.76 1425.87 2069.66 1428.81 Q2069.58 1431.74 2071.94 1434.56 L2082.66 1423.81 Z" fill="#000000" fill-rule="nonzero" fill-opacity="1" /><path clip-path="url(#clip160)" d="M2194.96 1552.59 L2198.18 1555.81 Q2195.4 1556.8 2193.29 1558.02 Q2191.18 1559.25 2189.62 1560.81 Q2186.92 1563.51 2186.49 1566.03 Q2186.09 1568.53 2188.02 1570.46 Q2189.64 1572.08 2191.44 1571.95 Q2193.24 1571.79 2196.46 1569.58 L2198.87 1567.99 Q2203.27 1565 2206.81 1565.03 Q2210.34 1565.03 2213.32 1568.01 Q2216.87 1571.56 2216.32 1575.78 Q2215.78 1579.99 2211.18 1584.59 Q2209.44 1586.33 2207.09 1587.9 Q2204.74 1589.45 2201.88 1590.78 L2198.48 1587.37 Q2201.62 1586.49 2204.12 1585.13 Q2206.63 1583.77 2208.49 1581.91 Q2211.32 1579.07 2211.75 1576.42 Q2212.18 1573.77 2210.11 1571.71 Q2208.31 1569.91 2206.19 1570.01 Q2204.07 1570.09 2201.05 1572.1 L2198.64 1573.72 Q2194.2 1576.68 2190.98 1576.77 Q2187.75 1576.85 2184.96 1574.05 Q2181.71 1570.81 2182.12 1566.67 Q2182.55 1562.51 2186.56 1558.5 Q2188.28 1556.78 2190.37 1555.31 Q2192.47 1553.83 2194.96 1552.59 Z" fill="#000000" fill-rule="nonzero" fill-opacity="1" /><path clip-path="url(#clip160)" d="M2230.85 1544.13 L2232.33 1545.6 L2218.48 1559.45 Q2221.78 1562.36 2225.09 1562.33 Q2228.4 1562.26 2231.39 1559.27 Q2233.13 1557.53 2234.32 1555.49 Q2235.53 1553.43 2236.29 1550.97 L2239.13 1553.82 Q2238.2 1556.13 2236.86 1558.19 Q2235.52 1560.25 2233.77 1562 Q2229.38 1566.39 2224.26 1566.41 Q2219.15 1566.41 2214.79 1562.05 Q2210.29 1557.55 2210.08 1552.49 Q2209.87 1547.4 2213.99 1543.28 Q2217.69 1539.58 2222.23 1539.82 Q2226.76 1540.04 2230.85 1544.13 M2226.96 1546.26 Q2224.45 1543.82 2221.62 1543.7 Q2218.81 1543.57 2216.58 1545.8 Q2214.06 1548.32 2213.96 1551.26 Q2213.88 1554.19 2216.24 1557.01 L2226.96 1546.26 Z" fill="#000000" fill-rule="nonzero" fill-opacity="1" /><path clip-path="url(#clip160)" d="M2244.83 1531.56 Q2241.18 1535.21 2240.61 1537.45 Q2240.03 1539.69 2242.05 1541.71 Q2243.65 1543.31 2245.65 1543.21 Q2247.65 1543.08 2249.46 1541.26 Q2251.97 1538.76 2251.71 1535.49 Q2251.44 1532.18 2248.5 1529.23 L2247.83 1528.56 L2244.83 1531.56 M2249.59 1524.31 L2260.05 1534.77 L2257.04 1537.78 L2254.26 1534.99 Q2254.9 1537.7 2254.16 1540.04 Q2253.41 1542.36 2251.18 1544.59 Q2248.37 1547.4 2245.13 1547.5 Q2241.88 1547.57 2239.23 1544.91 Q2236.14 1541.82 2236.63 1538.19 Q2237.14 1534.54 2241.25 1530.43 L2245.47 1526.21 L2245.17 1525.91 Q2243.1 1523.83 2240.59 1524.08 Q2238.09 1524.29 2235.62 1526.76 Q2234.04 1528.33 2232.93 1530.2 Q2231.82 1532.06 2231.2 1534.19 L2228.41 1531.41 Q2229.43 1529.12 2230.67 1527.25 Q2231.9 1525.37 2233.37 1523.9 Q2237.35 1519.92 2241.38 1520.02 Q2245.4 1520.12 2249.59 1524.31 Z" fill="#000000" fill-rule="nonzero" fill-opacity="1" /><path clip-path="url(#clip160)" d="M2256.35 1491.39 L2261.56 1496.6 L2267.76 1490.39 L2270.1 1492.73 L2263.9 1498.94 L2273.85 1508.89 Q2276.09 1511.13 2277.34 1511.16 Q2278.6 1511.18 2280.48 1509.3 L2283.57 1506.2 L2286.09 1508.72 L2283 1511.82 Q2279.51 1515.3 2276.9 1515.34 Q2274.26 1515.35 2270.82 1511.92 L2260.87 1501.96 L2258.66 1504.17 L2256.32 1501.83 L2258.53 1499.62 L2253.33 1494.42 L2256.35 1491.39 Z" fill="#000000" fill-rule="nonzero" fill-opacity="1" /><path clip-path="url(#clip160)" d="M2282.51 1497.84 L2271.41 1486.74 L2274.42 1483.73 L2285.41 1494.71 Q2288.01 1497.32 2290.33 1497.61 Q2292.64 1497.89 2294.67 1495.86 Q2297.11 1493.42 2296.96 1490.46 Q2296.83 1487.48 2294.15 1484.79 L2283.75 1474.4 L2286.77 1471.39 L2305.1 1489.72 L2302.09 1492.73 L2299.27 1489.92 Q2299.84 1492.68 2299.21 1494.96 Q2298.57 1497.2 2296.65 1499.12 Q2293.49 1502.27 2289.89 1501.95 Q2286.29 1501.62 2282.51 1497.84 M2278.55 1478.72 L2278.55 1478.72 Z" fill="#000000" fill-rule="nonzero" fill-opacity="1" /><path clip-path="url(#clip160)" d="M2306.41 1457.38 Q2305.61 1457.59 2304.87 1458.06 Q2304.13 1458.51 2303.41 1459.23 Q2300.86 1461.78 2301.15 1464.82 Q2301.45 1467.84 2304.56 1470.95 L2314.21 1480.6 L2311.19 1483.63 L2292.85 1465.3 L2295.88 1462.27 L2298.73 1465.12 Q2298.01 1462.5 2298.73 1460.18 Q2299.43 1457.84 2301.61 1455.66 Q2301.92 1455.35 2302.35 1455.02 Q2302.76 1454.68 2303.3 1454.3 L2306.41 1457.38 Z" fill="#000000" fill-rule="nonzero" fill-opacity="1" /><path clip-path="url(#clip160)" d="M2304.53 1443.22 L2309.73 1448.42 L2315.93 1442.22 L2318.27 1444.56 L2312.07 1450.76 L2322.02 1460.72 Q2324.26 1462.96 2325.51 1462.99 Q2326.77 1463.01 2328.65 1461.13 L2331.75 1458.03 L2334.27 1460.55 L2331.17 1463.65 Q2327.69 1467.13 2325.07 1467.17 Q2322.43 1467.18 2318.99 1463.74 L2309.04 1453.79 L2306.83 1456 L2304.49 1453.66 L2306.7 1451.45 L2301.5 1446.25 L2304.53 1443.22 Z" fill="#000000" fill-rule="nonzero" fill-opacity="1" /><path clip-path="url(#clip160)" d="M2312.76 1431.12 L2315.77 1428.11 L2341.24 1453.58 L2338.23 1456.59 L2312.76 1431.12 Z" fill="#000000" fill-rule="nonzero" fill-opacity="1" /><path clip-path="url(#clip160)" d="M2353.3 1421.68 L2354.78 1423.15 L2340.93 1437 Q2344.23 1439.91 2347.54 1439.88 Q2350.85 1439.81 2353.84 1436.82 Q2355.58 1435.08 2356.77 1433.04 Q2357.98 1430.98 2358.74 1428.52 L2361.58 1431.37 Q2360.65 1433.68 2359.31 1435.74 Q2357.97 1437.8 2356.22 1439.55 Q2351.83 1443.94 2346.71 1443.96 Q2341.6 1443.96 2337.24 1439.6 Q2332.74 1435.1 2332.53 1430.04 Q2332.32 1424.95 2336.44 1420.83 Q2340.14 1417.13 2344.68 1417.37 Q2349.21 1417.59 2353.3 1421.68 M2349.41 1423.81 Q2346.9 1421.37 2344.07 1421.25 Q2341.26 1421.12 2339.03 1423.35 Q2336.51 1425.87 2336.41 1428.81 Q2336.33 1431.74 2338.69 1434.56 L2349.41 1423.81 Z" fill="#000000" fill-rule="nonzero" fill-opacity="1" /><path clip-path="url(#clip160)" d="M2559.02 1453.68 L2574.47 1438.23 L2577.25 1441.01 L2565.1 1453.15 L2572.34 1460.39 L2583.98 1448.75 L2586.76 1451.53 L2575.12 1463.17 L2583.98 1472.03 L2596.42 1459.59 L2599.2 1462.37 L2583.45 1478.12 L2559.02 1453.68 Z" fill="#000000" fill-rule="nonzero" fill-opacity="1" /><path clip-path="url(#clip160)" d="M2579.03 1431.6 L2582.04 1428.59 L2607.51 1454.05 L2604.5 1457.07 L2579.03 1431.6 Z" fill="#000000" fill-rule="nonzero" fill-opacity="1" /><path clip-path="url(#clip160)" d="M2588.23 1422.4 L2591.26 1419.37 L2606.3 1434.41 L2607.38 1417.52 L2611.23 1413.67 L2610.08 1431.97 L2629.97 1431.6 L2626.04 1435.53 L2607.78 1435.89 L2616.73 1444.84 L2613.7 1447.87 L2588.23 1422.4 Z" fill="#000000" fill-rule="nonzero" fill-opacity="1" /><path clip-path="url(#clip160)" d="M2748.54 1572.81 L2741.98 1566.24 L2736.57 1571.64 L2733.86 1568.93 L2742.53 1560.25 L2753.02 1570.74 Q2752.47 1574.02 2750.86 1577.03 Q2749.24 1580.02 2746.62 1582.64 Q2740.9 1588.37 2734.32 1588.27 Q2727.74 1588.14 2721.76 1582.17 Q2715.77 1576.18 2715.66 1569.61 Q2715.54 1563.02 2721.27 1557.29 Q2723.66 1554.9 2726.39 1553.34 Q2729.14 1551.77 2732.11 1551.1 L2735.63 1554.62 Q2732.24 1554.9 2729.39 1556.18 Q2726.54 1557.45 2724.27 1559.73 Q2719.78 1564.21 2720.03 1568.97 Q2720.29 1573.72 2725.25 1578.68 Q2730.19 1583.62 2734.94 1583.89 Q2739.7 1584.13 2744.19 1579.65 Q2745.94 1577.9 2747.02 1576.23 Q2748.08 1574.54 2748.54 1572.81 Z" fill="#000000" fill-rule="nonzero" fill-opacity="1" /><path clip-path="url(#clip160)" d="M2756.31 1540.97 Q2755.51 1541.18 2754.78 1541.66 Q2754.04 1542.1 2753.32 1542.82 Q2750.77 1545.37 2751.06 1548.42 Q2751.36 1551.43 2754.47 1554.54 L2764.12 1564.2 L2761.09 1567.22 L2742.76 1548.89 L2745.79 1545.86 L2748.64 1548.71 Q2747.92 1546.09 2748.64 1543.77 Q2749.34 1541.43 2751.52 1539.25 Q2751.83 1538.94 2752.26 1538.61 Q2752.66 1538.27 2753.2 1537.89 L2756.31 1540.97 Z" fill="#000000" fill-rule="nonzero" fill-opacity="1" /><path clip-path="url(#clip160)" d="M2780.02 1528.46 L2781.49 1529.94 L2767.64 1543.78 Q2770.95 1546.7 2774.25 1546.67 Q2777.56 1546.6 2780.56 1543.6 Q2782.29 1541.87 2783.49 1539.82 Q2784.7 1537.76 2785.45 1535.31 L2788.3 1538.15 Q2787.37 1540.46 2786.02 1542.52 Q2784.68 1544.59 2782.93 1546.34 Q2778.54 1550.72 2773.42 1550.74 Q2768.31 1550.74 2763.96 1546.39 Q2759.46 1541.89 2759.24 1536.83 Q2759.03 1531.74 2763.16 1527.61 Q2766.86 1523.91 2771.39 1524.16 Q2775.92 1524.37 2780.02 1528.46 M2776.12 1530.59 Q2773.62 1528.15 2770.78 1528.04 Q2767.97 1527.91 2765.74 1530.13 Q2763.22 1532.65 2763.12 1535.6 Q2763.04 1538.53 2765.4 1541.35 L2776.12 1530.59 Z" fill="#000000" fill-rule="nonzero" fill-opacity="1" /><path clip-path="url(#clip160)" d="M2793.99 1515.89 Q2790.34 1519.54 2789.77 1521.79 Q2789.2 1524.03 2791.21 1526.04 Q2792.82 1527.65 2794.81 1527.55 Q2796.81 1527.42 2798.63 1525.6 Q2801.13 1523.1 2800.87 1519.82 Q2800.61 1516.52 2797.66 1513.57 L2796.99 1512.9 L2793.99 1515.89 M2798.76 1508.64 L2809.22 1519.1 L2806.2 1522.11 L2803.42 1519.33 Q2804.06 1522.03 2803.32 1524.37 Q2802.57 1526.7 2800.35 1528.92 Q2797.53 1531.74 2794.29 1531.84 Q2791.05 1531.9 2788.4 1529.25 Q2785.3 1526.16 2785.79 1522.52 Q2786.3 1518.87 2790.41 1514.76 L2794.63 1510.54 L2794.34 1510.25 Q2792.26 1508.17 2789.75 1508.41 Q2787.25 1508.63 2784.78 1511.1 Q2783.21 1512.67 2782.09 1514.53 Q2780.98 1516.4 2780.36 1518.53 L2777.58 1515.75 Q2778.59 1513.45 2779.84 1511.59 Q2781.06 1509.71 2782.54 1508.23 Q2786.51 1504.26 2790.54 1504.35 Q2794.57 1504.45 2798.76 1508.64 Z" fill="#000000" fill-rule="nonzero" fill-opacity="1" /><path clip-path="url(#clip160)" d="M2794.86 1486.38 L2800.07 1491.59 L2806.27 1485.38 L2808.61 1487.72 L2802.41 1493.93 L2812.36 1503.88 Q2814.6 1506.12 2815.85 1506.15 Q2817.11 1506.17 2818.99 1504.29 L2822.08 1501.19 L2824.6 1503.72 L2821.51 1506.81 Q2818.02 1510.3 2815.4 1510.33 Q2812.77 1510.34 2809.33 1506.91 L2799.38 1496.96 L2797.17 1499.16 L2794.83 1496.82 L2797.04 1494.61 L2791.83 1489.41 L2794.86 1486.38 Z" fill="#000000" fill-rule="nonzero" fill-opacity="1" /><path clip-path="url(#clip160)" d="M2838.34 1471.55 Q2834.69 1475.2 2834.11 1477.44 Q2833.54 1479.69 2835.55 1481.7 Q2837.16 1483.3 2839.15 1483.21 Q2841.15 1483.07 2842.97 1481.26 Q2845.47 1478.75 2845.21 1475.48 Q2844.95 1472.17 2842 1469.23 L2841.33 1468.56 L2838.34 1471.55 M2843.1 1464.3 L2853.56 1474.76 L2850.55 1477.77 L2847.76 1474.99 Q2848.4 1477.69 2847.67 1480.03 Q2846.91 1482.35 2844.69 1484.58 Q2841.87 1487.4 2838.63 1487.49 Q2835.39 1487.56 2832.74 1484.91 Q2829.64 1481.81 2830.14 1478.18 Q2830.64 1474.53 2834.75 1470.42 L2838.97 1466.2 L2838.68 1465.9 Q2836.6 1463.83 2834.1 1464.07 Q2831.59 1464.28 2829.12 1466.76 Q2827.55 1468.33 2826.44 1470.19 Q2825.32 1472.06 2824.7 1474.19 L2821.92 1471.4 Q2822.93 1469.11 2824.18 1467.25 Q2825.4 1465.36 2826.88 1463.89 Q2830.86 1459.91 2834.88 1460.01 Q2838.91 1460.11 2843.1 1464.3 Z" fill="#000000" fill-rule="nonzero" fill-opacity="1" /><path clip-path="url(#clip160)" d="M2859.92 1462.89 L2869.65 1472.62 L2866.62 1475.64 L2841.31 1450.34 L2844.34 1447.31 L2847.13 1450.09 Q2846.44 1447.51 2847.09 1445.28 Q2847.75 1443.02 2849.76 1441.01 Q2853.1 1437.67 2857.83 1438.24 Q2862.58 1438.8 2866.9 1443.12 Q2871.22 1447.44 2871.78 1452.19 Q2872.35 1456.92 2869.01 1460.26 Q2867 1462.27 2864.75 1462.94 Q2862.51 1463.58 2859.92 1462.89 M2863.77 1446.25 Q2860.45 1442.92 2857.19 1442.42 Q2853.93 1441.88 2851.54 1444.27 Q2849.15 1446.66 2849.68 1449.93 Q2850.2 1453.17 2853.53 1456.49 Q2856.85 1459.82 2860.11 1460.36 Q2863.36 1460.86 2865.75 1458.47 Q2868.14 1456.08 2867.62 1452.84 Q2867.09 1449.57 2863.77 1446.25 Z" fill="#000000" fill-rule="nonzero" fill-opacity="1" /><path clip-path="url(#clip160)" d="M2886.8 1421.68 L2888.27 1423.15 L2874.43 1437 Q2877.73 1439.91 2881.04 1439.88 Q2884.35 1439.81 2887.34 1436.82 Q2889.08 1435.08 2890.27 1433.04 Q2891.48 1430.98 2892.24 1428.52 L2895.08 1431.37 Q2894.15 1433.68 2892.81 1435.74 Q2891.47 1437.8 2889.71 1439.55 Q2885.33 1443.94 2880.21 1443.96 Q2875.1 1443.96 2870.74 1439.6 Q2866.24 1435.1 2866.03 1430.04 Q2865.82 1424.95 2869.94 1420.83 Q2873.64 1417.13 2878.18 1417.37 Q2882.71 1417.59 2886.8 1421.68 M2882.91 1423.81 Q2880.4 1421.37 2877.57 1421.25 Q2874.75 1421.12 2872.53 1423.35 Q2870.01 1425.87 2869.91 1428.81 Q2869.83 1431.74 2872.18 1434.56 L2882.91 1423.81 Z" fill="#000000" fill-rule="nonzero" fill-opacity="1" /><polyline clip-path="url(#clip160)" style="stroke:#000000; stroke-linecap:round; stroke-linejoin:round; stroke-width:4; stroke-opacity:1; fill:none" points="215.5,1375.45 215.5,108.352 "/>
<polyline clip-path="url(#clip160)" style="stroke:#000000; stroke-linecap:round; stroke-linejoin:round; stroke-width:4; stroke-opacity:1; fill:none" points="215.5,1375.45 234.398,1375.45 "/>
<polyline clip-path="url(#clip160)" style="stroke:#000000; stroke-linecap:round; stroke-linejoin:round; stroke-width:4; stroke-opacity:1; fill:none" points="215.5,1021.29 234.398,1021.29 "/>
<polyline clip-path="url(#clip160)" style="stroke:#000000; stroke-linecap:round; stroke-linejoin:round; stroke-width:4; stroke-opacity:1; fill:none" points="215.5,667.121 234.398,667.121 "/>
<polyline clip-path="url(#clip160)" style="stroke:#000000; stroke-linecap:round; stroke-linejoin:round; stroke-width:4; stroke-opacity:1; fill:none" points="215.5,312.956 234.398,312.956 "/>
<path clip-path="url(#clip160)" d="M110.325 1361.25 Q106.713 1361.25 104.885 1364.81 Q103.079 1368.36 103.079 1375.48 Q103.079 1382.59 104.885 1386.16 Q106.713 1389.7 110.325 1389.7 Q113.959 1389.7 115.764 1386.16 Q117.593 1382.59 117.593 1375.48 Q117.593 1368.36 115.764 1364.81 Q113.959 1361.25 110.325 1361.25 M110.325 1357.55 Q116.135 1357.55 119.19 1362.15 Q122.269 1366.74 122.269 1375.48 Q122.269 1384.21 119.19 1388.82 Q116.135 1393.4 110.325 1393.4 Q104.514 1393.4 101.436 1388.82 Q98.3802 1384.21 98.3802 1375.48 Q98.3802 1366.74 101.436 1362.15 Q104.514 1357.55 110.325 1357.55 Z" fill="#000000" fill-rule="nonzero" fill-opacity="1" /><path clip-path="url(#clip160)" d="M130.486 1386.85 L135.371 1386.85 L135.371 1392.73 L130.486 1392.73 L130.486 1386.85 Z" fill="#000000" fill-rule="nonzero" fill-opacity="1" /><path clip-path="url(#clip160)" d="M155.556 1361.25 Q151.945 1361.25 150.116 1364.81 Q148.31 1368.36 148.31 1375.48 Q148.31 1382.59 150.116 1386.16 Q151.945 1389.7 155.556 1389.7 Q159.19 1389.7 160.996 1386.16 Q162.824 1382.59 162.824 1375.48 Q162.824 1368.36 160.996 1364.81 Q159.19 1361.25 155.556 1361.25 M155.556 1357.55 Q161.366 1357.55 164.421 1362.15 Q167.5 1366.74 167.5 1375.48 Q167.5 1384.21 164.421 1388.82 Q161.366 1393.4 155.556 1393.4 Q149.746 1393.4 146.667 1388.82 Q143.611 1384.21 143.611 1375.48 Q143.611 1366.74 146.667 1362.15 Q149.746 1357.55 155.556 1357.55 Z" fill="#000000" fill-rule="nonzero" fill-opacity="1" /><path clip-path="url(#clip160)" d="M111.32 1007.08 Q107.709 1007.08 105.88 1010.65 Q104.075 1014.19 104.075 1021.32 Q104.075 1028.43 105.88 1031.99 Q107.709 1035.53 111.32 1035.53 Q114.954 1035.53 116.76 1031.99 Q118.588 1028.43 118.588 1021.32 Q118.588 1014.19 116.76 1010.65 Q114.954 1007.08 111.32 1007.08 M111.32 1003.38 Q117.13 1003.38 120.186 1007.99 Q123.264 1012.57 123.264 1021.32 Q123.264 1030.05 120.186 1034.65 Q117.13 1039.24 111.32 1039.24 Q105.51 1039.24 102.431 1034.65 Q99.3755 1030.05 99.3755 1021.32 Q99.3755 1012.57 102.431 1007.99 Q105.51 1003.38 111.32 1003.38 Z" fill="#000000" fill-rule="nonzero" fill-opacity="1" /><path clip-path="url(#clip160)" d="M131.482 1032.69 L136.366 1032.69 L136.366 1038.57 L131.482 1038.57 L131.482 1032.69 Z" fill="#000000" fill-rule="nonzero" fill-opacity="1" /><path clip-path="url(#clip160)" d="M146.597 1004.01 L164.954 1004.01 L164.954 1007.94 L150.88 1007.94 L150.88 1016.41 Q151.898 1016.07 152.917 1015.9 Q153.935 1015.72 154.954 1015.72 Q160.741 1015.72 164.121 1018.89 Q167.5 1022.06 167.5 1027.48 Q167.5 1033.06 164.028 1036.16 Q160.556 1039.24 154.236 1039.24 Q152.06 1039.24 149.792 1038.87 Q147.547 1038.5 145.139 1037.76 L145.139 1033.06 Q147.222 1034.19 149.445 1034.75 Q151.667 1035.3 154.144 1035.3 Q158.148 1035.3 160.486 1033.2 Q162.824 1031.09 162.824 1027.48 Q162.824 1023.87 160.486 1021.76 Q158.148 1019.65 154.144 1019.65 Q152.269 1019.65 150.394 1020.07 Q148.542 1020.49 146.597 1021.37 L146.597 1004.01 Z" fill="#000000" fill-rule="nonzero" fill-opacity="1" /><path clip-path="url(#clip160)" d="M101.135 680.466 L108.774 680.466 L108.774 654.1 L100.463 655.767 L100.463 651.508 L108.727 649.841 L113.403 649.841 L113.403 680.466 L121.042 680.466 L121.042 684.401 L101.135 684.401 L101.135 680.466 Z" fill="#000000" fill-rule="nonzero" fill-opacity="1" /><path clip-path="url(#clip160)" d="M130.486 678.521 L135.371 678.521 L135.371 684.401 L130.486 684.401 L130.486 678.521 Z" fill="#000000" fill-rule="nonzero" fill-opacity="1" /><path clip-path="url(#clip160)" d="M155.556 652.92 Q151.945 652.92 150.116 656.484 Q148.31 660.026 148.31 667.156 Q148.31 674.262 150.116 677.827 Q151.945 681.368 155.556 681.368 Q159.19 681.368 160.996 677.827 Q162.824 674.262 162.824 667.156 Q162.824 660.026 160.996 656.484 Q159.19 652.92 155.556 652.92 M155.556 649.216 Q161.366 649.216 164.421 653.822 Q167.5 658.406 167.5 667.156 Q167.5 675.882 164.421 680.489 Q161.366 685.072 155.556 685.072 Q149.746 685.072 146.667 680.489 Q143.611 675.882 143.611 667.156 Q143.611 658.406 146.667 653.822 Q149.746 649.216 155.556 649.216 Z" fill="#000000" fill-rule="nonzero" fill-opacity="1" /><path clip-path="url(#clip160)" d="M102.13 326.301 L109.769 326.301 L109.769 299.935 L101.459 301.602 L101.459 297.343 L109.723 295.676 L114.399 295.676 L114.399 326.301 L122.037 326.301 L122.037 330.236 L102.13 330.236 L102.13 326.301 Z" fill="#000000" fill-rule="nonzero" fill-opacity="1" /><path clip-path="url(#clip160)" d="M131.482 324.357 L136.366 324.357 L136.366 330.236 L131.482 330.236 L131.482 324.357 Z" fill="#000000" fill-rule="nonzero" fill-opacity="1" /><path clip-path="url(#clip160)" d="M146.597 295.676 L164.954 295.676 L164.954 299.611 L150.88 299.611 L150.88 308.084 Q151.898 307.736 152.917 307.574 Q153.935 307.389 154.954 307.389 Q160.741 307.389 164.121 310.56 Q167.5 313.732 167.5 319.148 Q167.5 324.727 164.028 327.829 Q160.556 330.907 154.236 330.907 Q152.06 330.907 149.792 330.537 Q147.547 330.167 145.139 329.426 L145.139 324.727 Q147.222 325.861 149.445 326.417 Q151.667 326.972 154.144 326.972 Q158.148 326.972 160.486 324.866 Q162.824 322.759 162.824 319.148 Q162.824 315.537 160.486 313.431 Q158.148 311.324 154.144 311.324 Q152.269 311.324 150.394 311.741 Q148.542 312.158 146.597 313.037 L146.597 295.676 Z" fill="#000000" fill-rule="nonzero" fill-opacity="1" /><path clip-path="url(#clip160)" d="M-7.83105 741.01 L36.1242 724.555 L36.1242 730.761 L9.77013 740.755 L36.1242 753.041 L36.1242 759.248 L1.94031 743.62 L-4.36174 745.975 Q-8.37213 747.471 -8.37213 750.877 L-8.37213 753.932 L-13.401 753.932 L-13.3374 750.208 Q-13.2419 743.015 -7.83105 741.01 Z" fill="#000000" fill-rule="nonzero" fill-opacity="1" /><path clip-path="url(#clip160)" d="M911.438 20.1573 L900.339 50.2555 L922.578 50.2555 L911.438 20.1573 M906.82 12.096 L916.097 12.096 L939.146 72.576 L930.64 72.576 L925.13 57.061 L897.868 57.061 L892.359 72.576 L883.73 72.576 L906.82 12.096 Z" fill="#000000" fill-rule="nonzero" fill-opacity="1" /><path clip-path="url(#clip160)" d="M976.577 28.5427 L976.577 35.5912 Q973.417 33.9709 970.014 33.1607 Q966.612 32.3505 962.966 32.3505 Q957.416 32.3505 954.621 34.0519 Q951.866 35.7533 951.866 39.156 Q951.866 41.7486 953.851 43.2475 Q955.836 44.7058 961.832 46.0426 L964.384 46.6097 Q972.323 48.3111 975.645 51.4303 Q979.007 54.509 979.007 60.0587 Q979.007 66.3781 973.984 70.0644 Q969.002 73.7508 960.252 73.7508 Q956.606 73.7508 952.636 73.0216 Q948.707 72.3329 944.332 70.9151 L944.332 63.2184 Q948.464 65.3654 952.474 66.4591 Q956.484 67.5124 960.414 67.5124 Q965.68 67.5124 968.516 65.73 Q971.351 63.9071 971.351 60.6258 Q971.351 57.5877 969.285 55.9673 Q967.26 54.3469 960.333 52.8481 L957.74 52.2405 Q950.813 50.7821 947.734 47.7845 Q944.656 44.7463 944.656 39.4801 Q944.656 33.0797 949.193 29.5959 Q953.73 26.1121 962.075 26.1121 Q966.207 26.1121 969.852 26.7198 Q973.498 27.3274 976.577 28.5427 Z" fill="#000000" fill-rule="nonzero" fill-opacity="1" /><path clip-path="url(#clip160)" d="M1009.75 76.7889 Q1006.59 84.8907 1003.6 87.3618 Q1000.6 89.8329 995.576 89.8329 L989.621 89.8329 L989.621 83.5945 L993.996 83.5945 Q997.074 83.5945 998.776 82.1361 Q1000.48 80.6778 1002.54 75.2496 L1003.88 71.8468 L985.529 27.2059 L993.429 27.2059 L1007.61 62.6918 L1021.78 27.2059 L1029.68 27.2059 L1009.75 76.7889 Z" fill="#000000" fill-rule="nonzero" fill-opacity="1" /><path clip-path="url(#clip160)" d="M1075.3 35.9153 Q1078.09 30.8922 1081.98 28.5022 Q1085.87 26.1121 1091.14 26.1121 Q1098.23 26.1121 1102.07 31.0947 Q1105.92 36.0368 1105.92 45.1919 L1105.92 72.576 L1098.43 72.576 L1098.43 45.4349 Q1098.43 38.913 1096.12 35.7533 Q1093.81 32.5936 1089.07 32.5936 Q1083.28 32.5936 1079.92 36.4419 Q1076.55 40.2903 1076.55 46.9338 L1076.55 72.576 L1069.06 72.576 L1069.06 45.4349 Q1069.06 38.8725 1066.75 35.7533 Q1064.44 32.5936 1059.62 32.5936 Q1053.91 32.5936 1050.55 36.4824 Q1047.18 40.3308 1047.18 46.9338 L1047.18 72.576 L1039.69 72.576 L1039.69 27.2059 L1047.18 27.2059 L1047.18 34.2544 Q1049.74 30.082 1053.3 28.0971 Q1056.87 26.1121 1061.77 26.1121 Q1066.71 26.1121 1070.15 28.6237 Q1073.64 31.1352 1075.3 35.9153 Z" fill="#000000" fill-rule="nonzero" fill-opacity="1" /><path clip-path="url(#clip160)" d="M1128 65.7705 L1128 89.8329 L1120.51 89.8329 L1120.51 27.2059 L1128 27.2059 L1128 34.0924 Q1130.35 30.0415 1133.91 28.0971 Q1137.52 26.1121 1142.5 26.1121 Q1150.77 26.1121 1155.91 32.6746 Q1161.1 39.2371 1161.1 49.9314 Q1161.1 60.6258 1155.91 67.1883 Q1150.77 73.7508 1142.5 73.7508 Q1137.52 73.7508 1133.91 71.8063 Q1130.35 69.8214 1128 65.7705 M1153.36 49.9314 Q1153.36 41.7081 1149.96 37.0496 Q1146.59 32.3505 1140.68 32.3505 Q1134.76 32.3505 1131.36 37.0496 Q1128 41.7081 1128 49.9314 Q1128 58.1548 1131.36 62.8538 Q1134.76 67.5124 1140.68 67.5124 Q1146.59 67.5124 1149.96 62.8538 Q1153.36 58.1548 1153.36 49.9314 Z" fill="#000000" fill-rule="nonzero" fill-opacity="1" /><path clip-path="url(#clip160)" d="M1180.82 14.324 L1180.82 27.2059 L1196.18 27.2059 L1196.18 32.9987 L1180.82 32.9987 L1180.82 57.6282 Q1180.82 63.1779 1182.32 64.7578 Q1183.86 66.3376 1188.52 66.3376 L1196.18 66.3376 L1196.18 72.576 L1188.52 72.576 Q1179.89 72.576 1176.61 69.3758 Q1173.33 66.1351 1173.33 57.6282 L1173.33 32.9987 L1167.86 32.9987 L1167.86 27.2059 L1173.33 27.2059 L1173.33 14.324 L1180.82 14.324 Z" fill="#000000" fill-rule="nonzero" fill-opacity="1" /><path clip-path="url(#clip160)" d="M1223.56 32.4315 Q1217.57 32.4315 1214.08 37.1306 Q1210.6 41.7891 1210.6 49.9314 Q1210.6 58.0738 1214.04 62.7728 Q1217.52 67.4314 1223.56 67.4314 Q1229.52 67.4314 1233 62.7323 Q1236.48 58.0333 1236.48 49.9314 Q1236.48 41.8701 1233 37.1711 Q1229.52 32.4315 1223.56 32.4315 M1223.56 26.1121 Q1233.28 26.1121 1238.83 32.4315 Q1244.38 38.7509 1244.38 49.9314 Q1244.38 61.0714 1238.83 67.4314 Q1233.28 73.7508 1223.56 73.7508 Q1213.8 73.7508 1208.25 67.4314 Q1202.74 61.0714 1202.74 49.9314 Q1202.74 38.7509 1208.25 32.4315 Q1213.8 26.1121 1223.56 26.1121 Z" fill="#000000" fill-rule="nonzero" fill-opacity="1" /><path clip-path="url(#clip160)" d="M1264.11 14.324 L1264.11 27.2059 L1279.46 27.2059 L1279.46 32.9987 L1264.11 32.9987 L1264.11 57.6282 Q1264.11 63.1779 1265.61 64.7578 Q1267.15 66.3376 1271.81 66.3376 L1279.46 66.3376 L1279.46 72.576 L1271.81 72.576 Q1263.18 72.576 1259.9 69.3758 Q1256.62 66.1351 1256.62 57.6282 L1256.62 32.9987 L1251.15 32.9987 L1251.15 27.2059 L1256.62 27.2059 L1256.62 14.324 L1264.11 14.324 Z" fill="#000000" fill-rule="nonzero" fill-opacity="1" /><path clip-path="url(#clip160)" d="M1289.27 27.2059 L1296.72 27.2059 L1296.72 72.576 L1289.27 72.576 L1289.27 27.2059 M1289.27 9.54393 L1296.72 9.54393 L1296.72 18.9825 L1289.27 18.9825 L1289.27 9.54393 Z" fill="#000000" fill-rule="nonzero" fill-opacity="1" /><path clip-path="url(#clip160)" d="M1344.97 28.9478 L1344.97 35.9153 Q1341.81 34.1734 1338.61 33.3227 Q1335.45 32.4315 1332.21 32.4315 Q1324.95 32.4315 1320.94 37.0496 Q1316.93 41.6271 1316.93 49.9314 Q1316.93 58.2358 1320.94 62.8538 Q1324.95 67.4314 1332.21 67.4314 Q1335.45 67.4314 1338.61 66.5807 Q1341.81 65.6895 1344.97 63.9476 L1344.97 70.8341 Q1341.85 72.2924 1338.48 73.0216 Q1335.16 73.7508 1331.4 73.7508 Q1321.15 73.7508 1315.11 67.3098 Q1309.08 60.8689 1309.08 49.9314 Q1309.08 38.832 1315.15 32.472 Q1321.27 26.1121 1331.88 26.1121 Q1335.32 26.1121 1338.61 26.8413 Q1341.89 27.5299 1344.97 28.9478 Z" fill="#000000" fill-rule="nonzero" fill-opacity="1" /><path clip-path="url(#clip160)" d="M1414.16 49.3643 Q1414.16 41.2625 1410.79 36.8065 Q1407.47 32.3505 1401.44 32.3505 Q1395.44 32.3505 1392.08 36.8065 Q1388.76 41.2625 1388.76 49.3643 Q1388.76 57.4256 1392.08 61.8816 Q1395.44 66.3376 1401.44 66.3376 Q1407.47 66.3376 1410.79 61.8816 Q1414.16 57.4256 1414.16 49.3643 M1421.61 66.9452 Q1421.61 78.5308 1416.46 84.1616 Q1411.32 89.8329 1400.71 89.8329 Q1396.78 89.8329 1393.29 89.2252 Q1389.81 88.6581 1386.53 87.4428 L1386.53 80.1917 Q1389.81 81.9741 1393.01 82.8248 Q1396.21 83.6755 1399.53 83.6755 Q1406.86 83.6755 1410.51 79.8271 Q1414.16 76.0193 1414.16 68.282 L1414.16 64.5957 Q1411.85 68.6061 1408.24 70.5911 Q1404.64 72.576 1399.61 72.576 Q1391.27 72.576 1386.16 66.2161 Q1381.06 59.8562 1381.06 49.3643 Q1381.06 38.832 1386.16 32.472 Q1391.27 26.1121 1399.61 26.1121 Q1404.64 26.1121 1408.24 28.0971 Q1411.85 30.082 1414.16 34.0924 L1414.16 27.2059 L1421.61 27.2059 L1421.61 66.9452 Z" fill="#000000" fill-rule="nonzero" fill-opacity="1" /><path clip-path="url(#clip160)" d="M1463.25 34.1734 Q1462 33.4443 1460.5 33.1202 Q1459.04 32.7556 1457.26 32.7556 Q1450.94 32.7556 1447.53 36.8875 Q1444.17 40.9789 1444.17 48.6757 L1444.17 72.576 L1436.68 72.576 L1436.68 27.2059 L1444.17 27.2059 L1444.17 34.2544 Q1446.52 30.1225 1450.29 28.1376 Q1454.06 26.1121 1459.44 26.1121 Q1460.21 26.1121 1461.15 26.2337 Q1462.08 26.3147 1463.21 26.5172 L1463.25 34.1734 Z" fill="#000000" fill-rule="nonzero" fill-opacity="1" /><path clip-path="url(#clip160)" d="M1486.83 32.4315 Q1480.83 32.4315 1477.35 37.1306 Q1473.87 41.7891 1473.87 49.9314 Q1473.87 58.0738 1477.31 62.7728 Q1480.79 67.4314 1486.83 67.4314 Q1492.78 67.4314 1496.27 62.7323 Q1499.75 58.0333 1499.75 49.9314 Q1499.75 41.8701 1496.27 37.1711 Q1492.78 32.4315 1486.83 32.4315 M1486.83 26.1121 Q1496.55 26.1121 1502.1 32.4315 Q1507.65 38.7509 1507.65 49.9314 Q1507.65 61.0714 1502.1 67.4314 Q1496.55 73.7508 1486.83 73.7508 Q1477.07 73.7508 1471.52 67.4314 Q1466.01 61.0714 1466.01 49.9314 Q1466.01 38.7509 1471.52 32.4315 Q1477.07 26.1121 1486.83 26.1121 Z" fill="#000000" fill-rule="nonzero" fill-opacity="1" /><path clip-path="url(#clip160)" d="M1515.67 27.2059 L1523.12 27.2059 L1532.44 62.6108 L1541.72 27.2059 L1550.51 27.2059 L1559.83 62.6108 L1569.1 27.2059 L1576.56 27.2059 L1564.69 72.576 L1555.9 72.576 L1546.13 35.3887 L1536.33 72.576 L1527.54 72.576 L1515.67 27.2059 Z" fill="#000000" fill-rule="nonzero" fill-opacity="1" /><path clip-path="url(#clip160)" d="M1595.23 14.324 L1595.23 27.2059 L1610.58 27.2059 L1610.58 32.9987 L1595.23 32.9987 L1595.23 57.6282 Q1595.23 63.1779 1596.73 64.7578 Q1598.27 66.3376 1602.93 66.3376 L1610.58 66.3376 L1610.58 72.576 L1602.93 72.576 Q1594.3 72.576 1591.02 69.3758 Q1587.74 66.1351 1587.74 57.6282 L1587.74 32.9987 L1582.27 32.9987 L1582.27 27.2059 L1587.74 27.2059 L1587.74 14.324 L1595.23 14.324 Z" fill="#000000" fill-rule="nonzero" fill-opacity="1" /><path clip-path="url(#clip160)" d="M1658.1 45.1919 L1658.1 72.576 L1650.65 72.576 L1650.65 45.4349 Q1650.65 38.994 1648.14 35.7938 Q1645.62 32.5936 1640.6 32.5936 Q1634.57 32.5936 1631.08 36.4419 Q1627.6 40.2903 1627.6 46.9338 L1627.6 72.576 L1620.1 72.576 L1620.1 9.54393 L1627.6 9.54393 L1627.6 34.2544 Q1630.27 30.163 1633.88 28.1376 Q1637.52 26.1121 1642.26 26.1121 Q1650.08 26.1121 1654.09 30.9732 Q1658.1 35.7938 1658.1 45.1919 Z" fill="#000000" fill-rule="nonzero" fill-opacity="1" /><path clip-path="url(#clip160)" d="M1725.63 34.1734 Q1724.37 33.4443 1722.87 33.1202 Q1721.42 32.7556 1719.63 32.7556 Q1713.31 32.7556 1709.91 36.8875 Q1706.55 40.9789 1706.55 48.6757 L1706.55 72.576 L1699.06 72.576 L1699.06 27.2059 L1706.55 27.2059 L1706.55 34.2544 Q1708.9 30.1225 1712.67 28.1376 Q1716.43 26.1121 1721.82 26.1121 Q1722.59 26.1121 1723.52 26.2337 Q1724.45 26.3147 1725.59 26.5172 L1725.63 34.1734 Z" fill="#000000" fill-rule="nonzero" fill-opacity="1" /><path clip-path="url(#clip160)" d="M1754.07 49.7694 Q1745.03 49.7694 1741.55 51.8354 Q1738.07 53.9013 1738.07 58.8839 Q1738.07 62.8538 1740.66 65.2034 Q1743.29 67.5124 1747.79 67.5124 Q1753.99 67.5124 1757.71 63.1374 Q1761.48 58.7219 1761.48 51.4303 L1761.48 49.7694 L1754.07 49.7694 M1768.93 46.6907 L1768.93 72.576 L1761.48 72.576 L1761.48 65.6895 Q1758.93 69.8214 1755.12 71.8063 Q1751.31 73.7508 1745.8 73.7508 Q1738.84 73.7508 1734.7 69.8619 Q1730.61 65.9325 1730.61 59.3701 Q1730.61 51.7138 1735.72 47.825 Q1740.86 43.9361 1751.03 43.9361 L1761.48 43.9361 L1761.48 43.2069 Q1761.48 38.0623 1758.08 35.2672 Q1754.72 32.4315 1748.6 32.4315 Q1744.71 32.4315 1741.02 33.3632 Q1737.34 34.295 1733.93 36.1584 L1733.93 29.2718 Q1738.03 27.692 1741.87 26.9223 Q1745.72 26.1121 1749.37 26.1121 Q1759.21 26.1121 1764.07 31.2163 Q1768.93 36.3204 1768.93 46.6907 Z" fill="#000000" fill-rule="nonzero" fill-opacity="1" /><path clip-path="url(#clip160)" d="M1791.66 14.324 L1791.66 27.2059 L1807.01 27.2059 L1807.01 32.9987 L1791.66 32.9987 L1791.66 57.6282 Q1791.66 63.1779 1793.16 64.7578 Q1794.7 66.3376 1799.36 66.3376 L1807.01 66.3376 L1807.01 72.576 L1799.36 72.576 Q1790.73 72.576 1787.45 69.3758 Q1784.17 66.1351 1784.17 57.6282 L1784.17 32.9987 L1778.7 32.9987 L1778.7 27.2059 L1784.17 27.2059 L1784.17 14.324 L1791.66 14.324 Z" fill="#000000" fill-rule="nonzero" fill-opacity="1" /><path clip-path="url(#clip160)" d="M1855.62 48.0275 L1855.62 51.6733 L1821.35 51.6733 Q1821.84 59.3701 1825.97 63.421 Q1830.14 67.4314 1837.56 67.4314 Q1841.85 67.4314 1845.86 66.3781 Q1849.91 65.3249 1853.88 63.2184 L1853.88 70.267 Q1849.87 71.9684 1845.66 72.8596 Q1841.44 73.7508 1837.11 73.7508 Q1826.25 73.7508 1819.89 67.4314 Q1813.57 61.1119 1813.57 50.3365 Q1813.57 39.1965 1819.57 32.6746 Q1825.61 26.1121 1835.81 26.1121 Q1844.97 26.1121 1850.28 32.0264 Q1855.62 37.9003 1855.62 48.0275 M1848.17 45.84 Q1848.09 39.7232 1844.73 36.0774 Q1841.4 32.4315 1835.9 32.4315 Q1829.66 32.4315 1825.89 35.9558 Q1822.16 39.4801 1821.6 45.8805 L1848.17 45.84 Z" fill="#000000" fill-rule="nonzero" fill-opacity="1" /><path clip-path="url(#clip160)" d="M1914.85 49.7694 Q1905.81 49.7694 1902.33 51.8354 Q1898.85 53.9013 1898.85 58.8839 Q1898.85 62.8538 1901.44 65.2034 Q1904.07 67.5124 1908.57 67.5124 Q1914.77 67.5124 1918.49 63.1374 Q1922.26 58.7219 1922.26 51.4303 L1922.26 49.7694 L1914.85 49.7694 M1929.71 46.6907 L1929.71 72.576 L1922.26 72.576 L1922.26 65.6895 Q1919.71 69.8214 1915.9 71.8063 Q1912.09 73.7508 1906.58 73.7508 Q1899.62 73.7508 1895.48 69.8619 Q1891.39 65.9325 1891.39 59.3701 Q1891.39 51.7138 1896.5 47.825 Q1901.64 43.9361 1911.81 43.9361 L1922.26 43.9361 L1922.26 43.2069 Q1922.26 38.0623 1918.86 35.2672 Q1915.5 32.4315 1909.38 32.4315 Q1905.49 32.4315 1901.8 33.3632 Q1898.12 34.295 1894.71 36.1584 L1894.71 29.2718 Q1898.81 27.692 1902.65 26.9223 Q1906.5 26.1121 1910.15 26.1121 Q1919.99 26.1121 1924.85 31.2163 Q1929.71 36.3204 1929.71 46.6907 Z" fill="#000000" fill-rule="nonzero" fill-opacity="1" /><path clip-path="url(#clip160)" d="M1977.72 28.9478 L1977.72 35.9153 Q1974.56 34.1734 1971.36 33.3227 Q1968.2 32.4315 1964.96 32.4315 Q1957.71 32.4315 1953.7 37.0496 Q1949.69 41.6271 1949.69 49.9314 Q1949.69 58.2358 1953.7 62.8538 Q1957.71 67.4314 1964.96 67.4314 Q1968.2 67.4314 1971.36 66.5807 Q1974.56 65.6895 1977.72 63.9476 L1977.72 70.8341 Q1974.6 72.2924 1971.24 73.0216 Q1967.91 73.7508 1964.15 73.7508 Q1953.9 73.7508 1947.86 67.3098 Q1941.83 60.8689 1941.83 49.9314 Q1941.83 38.832 1947.9 32.472 Q1954.02 26.1121 1964.63 26.1121 Q1968.08 26.1121 1971.36 26.8413 Q1974.64 27.5299 1977.72 28.9478 Z" fill="#000000" fill-rule="nonzero" fill-opacity="1" /><path clip-path="url(#clip160)" d="M2016.97 34.1734 Q2015.71 33.4443 2014.22 33.1202 Q2012.76 32.7556 2010.98 32.7556 Q2004.66 32.7556 2001.25 36.8875 Q1997.89 40.9789 1997.89 48.6757 L1997.89 72.576 L1990.4 72.576 L1990.4 27.2059 L1997.89 27.2059 L1997.89 34.2544 Q2000.24 30.1225 2004.01 28.1376 Q2007.78 26.1121 2013.16 26.1121 Q2013.93 26.1121 2014.86 26.2337 Q2015.8 26.3147 2016.93 26.5172 L2016.97 34.1734 Z" fill="#000000" fill-rule="nonzero" fill-opacity="1" /><path clip-path="url(#clip160)" d="M2040.55 32.4315 Q2034.55 32.4315 2031.07 37.1306 Q2027.58 41.7891 2027.58 49.9314 Q2027.58 58.0738 2031.03 62.7728 Q2034.51 67.4314 2040.55 67.4314 Q2046.5 67.4314 2049.99 62.7323 Q2053.47 58.0333 2053.47 49.9314 Q2053.47 41.8701 2049.99 37.1711 Q2046.5 32.4315 2040.55 32.4315 M2040.55 26.1121 Q2050.27 26.1121 2055.82 32.4315 Q2061.37 38.7509 2061.37 49.9314 Q2061.37 61.0714 2055.82 67.4314 Q2050.27 73.7508 2040.55 73.7508 Q2030.78 73.7508 2025.23 67.4314 Q2019.73 61.0714 2019.73 49.9314 Q2019.73 38.7509 2025.23 32.4315 Q2030.78 26.1121 2040.55 26.1121 Z" fill="#000000" fill-rule="nonzero" fill-opacity="1" /><path clip-path="url(#clip160)" d="M2102.65 28.5427 L2102.65 35.5912 Q2099.49 33.9709 2096.08 33.1607 Q2092.68 32.3505 2089.04 32.3505 Q2083.49 32.3505 2080.69 34.0519 Q2077.94 35.7533 2077.94 39.156 Q2077.94 41.7486 2079.92 43.2475 Q2081.91 44.7058 2087.9 46.0426 L2090.45 46.6097 Q2098.39 48.3111 2101.72 51.4303 Q2105.08 54.509 2105.08 60.0587 Q2105.08 66.3781 2100.05 70.0644 Q2095.07 73.7508 2086.32 73.7508 Q2082.68 73.7508 2078.71 73.0216 Q2074.78 72.3329 2070.4 70.9151 L2070.4 63.2184 Q2074.53 65.3654 2078.54 66.4591 Q2082.55 67.5124 2086.48 67.5124 Q2091.75 67.5124 2094.59 65.73 Q2097.42 63.9071 2097.42 60.6258 Q2097.42 57.5877 2095.36 55.9673 Q2093.33 54.3469 2086.4 52.8481 L2083.81 52.2405 Q2076.88 50.7821 2073.8 47.7845 Q2070.73 44.7463 2070.73 39.4801 Q2070.73 33.0797 2075.26 29.5959 Q2079.8 26.1121 2088.14 26.1121 Q2092.28 26.1121 2095.92 26.7198 Q2099.57 27.3274 2102.65 28.5427 Z" fill="#000000" fill-rule="nonzero" fill-opacity="1" /><path clip-path="url(#clip160)" d="M2145.87 28.5427 L2145.87 35.5912 Q2142.71 33.9709 2139.31 33.1607 Q2135.91 32.3505 2132.26 32.3505 Q2126.71 32.3505 2123.91 34.0519 Q2121.16 35.7533 2121.16 39.156 Q2121.16 41.7486 2123.14 43.2475 Q2125.13 44.7058 2131.13 46.0426 L2133.68 46.6097 Q2141.62 48.3111 2144.94 51.4303 Q2148.3 54.509 2148.3 60.0587 Q2148.3 66.3781 2143.28 70.0644 Q2138.3 73.7508 2129.55 73.7508 Q2125.9 73.7508 2121.93 73.0216 Q2118 72.3329 2113.63 70.9151 L2113.63 63.2184 Q2117.76 65.3654 2121.77 66.4591 Q2125.78 67.5124 2129.71 67.5124 Q2134.97 67.5124 2137.81 65.73 Q2140.64 63.9071 2140.64 60.6258 Q2140.64 57.5877 2138.58 55.9673 Q2136.55 54.3469 2129.63 52.8481 L2127.03 52.2405 Q2120.11 50.7821 2117.03 47.7845 Q2113.95 44.7463 2113.95 39.4801 Q2113.95 33.0797 2118.49 29.5959 Q2123.02 26.1121 2131.37 26.1121 Q2135.5 26.1121 2139.15 26.7198 Q2142.79 27.3274 2145.87 28.5427 Z" fill="#000000" fill-rule="nonzero" fill-opacity="1" /><path clip-path="url(#clip160)" d="M2215.46 28.5427 L2215.46 35.5912 Q2212.31 33.9709 2208.9 33.1607 Q2205.5 32.3505 2201.85 32.3505 Q2196.3 32.3505 2193.51 34.0519 Q2190.75 35.7533 2190.75 39.156 Q2190.75 41.7486 2192.74 43.2475 Q2194.72 44.7058 2200.72 46.0426 L2203.27 46.6097 Q2211.21 48.3111 2214.53 51.4303 Q2217.9 54.509 2217.9 60.0587 Q2217.9 66.3781 2212.87 70.0644 Q2207.89 73.7508 2199.14 73.7508 Q2195.49 73.7508 2191.52 73.0216 Q2187.59 72.3329 2183.22 70.9151 L2183.22 63.2184 Q2187.35 65.3654 2191.36 66.4591 Q2195.37 67.5124 2199.3 67.5124 Q2204.57 67.5124 2207.4 65.73 Q2210.24 63.9071 2210.24 60.6258 Q2210.24 57.5877 2208.17 55.9673 Q2206.15 54.3469 2199.22 52.8481 L2196.63 52.2405 Q2189.7 50.7821 2186.62 47.7845 Q2183.54 44.7463 2183.54 39.4801 Q2183.54 33.0797 2188.08 29.5959 Q2192.62 26.1121 2200.96 26.1121 Q2205.09 26.1121 2208.74 26.7198 Q2212.39 27.3274 2215.46 28.5427 Z" fill="#000000" fill-rule="nonzero" fill-opacity="1" /><path clip-path="url(#clip160)" d="M2236.98 65.7705 L2236.98 89.8329 L2229.48 89.8329 L2229.48 27.2059 L2236.98 27.2059 L2236.98 34.0924 Q2239.32 30.0415 2242.89 28.0971 Q2246.49 26.1121 2251.48 26.1121 Q2259.74 26.1121 2264.89 32.6746 Q2270.07 39.2371 2270.07 49.9314 Q2270.07 60.6258 2264.89 67.1883 Q2259.74 73.7508 2251.48 73.7508 Q2246.49 73.7508 2242.89 71.8063 Q2239.32 69.8214 2236.98 65.7705 M2262.33 49.9314 Q2262.33 41.7081 2258.93 37.0496 Q2255.57 32.3505 2249.65 32.3505 Q2243.74 32.3505 2240.34 37.0496 Q2236.98 41.7081 2236.98 49.9314 Q2236.98 58.1548 2240.34 62.8538 Q2243.74 67.5124 2249.65 67.5124 Q2255.57 67.5124 2258.93 62.8538 Q2262.33 58.1548 2262.33 49.9314 Z" fill="#000000" fill-rule="nonzero" fill-opacity="1" /><path clip-path="url(#clip160)" d="M2321.23 48.0275 L2321.23 51.6733 L2286.96 51.6733 Q2287.45 59.3701 2291.58 63.421 Q2295.75 67.4314 2303.17 67.4314 Q2307.46 67.4314 2311.47 66.3781 Q2315.52 65.3249 2319.49 63.2184 L2319.49 70.267 Q2315.48 71.9684 2311.27 72.8596 Q2307.06 73.7508 2302.72 73.7508 Q2291.86 73.7508 2285.51 67.4314 Q2279.19 61.1119 2279.19 50.3365 Q2279.19 39.1965 2285.18 32.6746 Q2291.22 26.1121 2301.43 26.1121 Q2310.58 26.1121 2315.89 32.0264 Q2321.23 37.9003 2321.23 48.0275 M2313.78 45.84 Q2313.7 39.7232 2310.34 36.0774 Q2307.02 32.4315 2301.51 32.4315 Q2295.27 32.4315 2291.5 35.9558 Q2287.77 39.4801 2287.21 45.8805 L2313.78 45.84 Z" fill="#000000" fill-rule="nonzero" fill-opacity="1" /><path clip-path="url(#clip160)" d="M2366.12 28.9478 L2366.12 35.9153 Q2362.96 34.1734 2359.76 33.3227 Q2356.6 32.4315 2353.36 32.4315 Q2346.11 32.4315 2342.1 37.0496 Q2338.09 41.6271 2338.09 49.9314 Q2338.09 58.2358 2342.1 62.8538 Q2346.11 67.4314 2353.36 67.4314 Q2356.6 67.4314 2359.76 66.5807 Q2362.96 65.6895 2366.12 63.9476 L2366.12 70.8341 Q2363 72.2924 2359.64 73.0216 Q2356.31 73.7508 2352.55 73.7508 Q2342.3 73.7508 2336.26 67.3098 Q2330.23 60.8689 2330.23 49.9314 Q2330.23 38.832 2336.3 32.472 Q2342.42 26.1121 2353.03 26.1121 Q2356.48 26.1121 2359.76 26.8413 Q2363.04 27.5299 2366.12 28.9478 Z" fill="#000000" fill-rule="nonzero" fill-opacity="1" /><path clip-path="url(#clip160)" d="M2379.08 27.2059 L2386.53 27.2059 L2386.53 72.576 L2379.08 72.576 L2379.08 27.2059 M2379.08 9.54393 L2386.53 9.54393 L2386.53 18.9825 L2379.08 18.9825 L2379.08 9.54393 Z" fill="#000000" fill-rule="nonzero" fill-opacity="1" /><path clip-path="url(#clip160)" d="M2440.94 48.0275 L2440.94 51.6733 L2406.67 51.6733 Q2407.15 59.3701 2411.29 63.421 Q2415.46 67.4314 2422.87 67.4314 Q2427.17 67.4314 2431.18 66.3781 Q2435.23 65.3249 2439.2 63.2184 L2439.2 70.267 Q2435.19 71.9684 2430.97 72.8596 Q2426.76 73.7508 2422.43 73.7508 Q2411.57 73.7508 2405.21 67.4314 Q2398.89 61.1119 2398.89 50.3365 Q2398.89 39.1965 2404.89 32.6746 Q2410.92 26.1121 2421.13 26.1121 Q2430.28 26.1121 2435.59 32.0264 Q2440.94 37.9003 2440.94 48.0275 M2433.48 45.84 Q2433.4 39.7232 2430.04 36.0774 Q2426.72 32.4315 2421.21 32.4315 Q2414.97 32.4315 2411.2 35.9558 Q2407.48 39.4801 2406.91 45.8805 L2433.48 45.84 Z" fill="#000000" fill-rule="nonzero" fill-opacity="1" /><path clip-path="url(#clip160)" d="M2482.1 28.5427 L2482.1 35.5912 Q2478.94 33.9709 2475.53 33.1607 Q2472.13 32.3505 2468.48 32.3505 Q2462.93 32.3505 2460.14 34.0519 Q2457.38 35.7533 2457.38 39.156 Q2457.38 41.7486 2459.37 43.2475 Q2461.35 44.7058 2467.35 46.0426 L2469.9 46.6097 Q2477.84 48.3111 2481.16 51.4303 Q2484.53 54.509 2484.53 60.0587 Q2484.53 66.3781 2479.5 70.0644 Q2474.52 73.7508 2465.77 73.7508 Q2462.12 73.7508 2458.15 73.0216 Q2454.23 72.3329 2449.85 70.9151 L2449.85 63.2184 Q2453.98 65.3654 2457.99 66.4591 Q2462 67.5124 2465.93 67.5124 Q2471.2 67.5124 2474.03 65.73 Q2476.87 63.9071 2476.87 60.6258 Q2476.87 57.5877 2474.8 55.9673 Q2472.78 54.3469 2465.85 52.8481 L2463.26 52.2405 Q2456.33 50.7821 2453.25 47.7845 Q2450.17 44.7463 2450.17 39.4801 Q2450.17 33.0797 2454.71 29.5959 Q2459.25 26.1121 2467.59 26.1121 Q2471.73 26.1121 2475.37 26.7198 Q2479.02 27.3274 2482.1 28.5427 Z" fill="#000000" fill-rule="nonzero" fill-opacity="1" /><path clip-path="url(#clip161)" d="M377.054 108.352 L377.054 1375.45 L590.454 1375.45 L590.454 108.352 L377.054 108.352 L377.054 108.352  Z" fill="#228b22" fill-rule="evenodd" fill-opacity="0.7"/>
<polyline clip-path="url(#clip161)" style="stroke:#000000; stroke-linecap:round; stroke-linejoin:round; stroke-width:4; stroke-opacity:0.7; fill:none" points="377.054,108.352 377.054,1375.45 590.454,1375.45 590.454,108.352 377.054,108.352 "/>
<path clip-path="url(#clip161)" d="M643.804 606.865 L643.804 1375.45 L857.204 1375.45 L857.204 606.865 L643.804 606.865 L643.804 606.865  Z" fill="#228b22" fill-rule="evenodd" fill-opacity="0.7"/>
<polyline clip-path="url(#clip161)" style="stroke:#000000; stroke-linecap:round; stroke-linejoin:round; stroke-width:4; stroke-opacity:0.7; fill:none" points="643.804,606.865 643.804,1375.45 857.204,1375.45 857.204,606.865 643.804,606.865 "/>
<path clip-path="url(#clip161)" d="M910.554 586.098 L910.554 1375.45 L1123.95 1375.45 L1123.95 586.098 L910.554 586.098 L910.554 586.098  Z" fill="#228b22" fill-rule="evenodd" fill-opacity="0.7"/>
<polyline clip-path="url(#clip161)" style="stroke:#000000; stroke-linecap:round; stroke-linejoin:round; stroke-width:4; stroke-opacity:0.7; fill:none" points="910.554,586.098 910.554,1375.45 1123.95,1375.45 1123.95,586.098 910.554,586.098 "/>
<path clip-path="url(#clip161)" d="M1177.3 582.5 L1177.3 1375.45 L1390.7 1375.45 L1390.7 582.5 L1177.3 582.5 L1177.3 582.5  Z" fill="#228b22" fill-rule="evenodd" fill-opacity="0.7"/>
<polyline clip-path="url(#clip161)" style="stroke:#000000; stroke-linecap:round; stroke-linejoin:round; stroke-width:4; stroke-opacity:0.7; fill:none" points="1177.3,582.5 1177.3,1375.45 1390.7,1375.45 1390.7,582.5 1177.3,582.5 "/>
<path clip-path="url(#clip161)" d="M1444.05 662.538 L1444.05 1375.45 L1657.45 1375.45 L1657.45 662.538 L1444.05 662.538 L1444.05 662.538  Z" fill="#228b22" fill-rule="evenodd" fill-opacity="0.7"/>
<polyline clip-path="url(#clip161)" style="stroke:#000000; stroke-linecap:round; stroke-linejoin:round; stroke-width:4; stroke-opacity:0.7; fill:none" points="1444.05,662.538 1444.05,1375.45 1657.45,1375.45 1657.45,662.538 1444.05,662.538 "/>
<path clip-path="url(#clip161)" d="M1710.8 559.978 L1710.8 1375.45 L1924.2 1375.45 L1924.2 559.978 L1710.8 559.978 L1710.8 559.978  Z" fill="#4682b4" fill-rule="evenodd" fill-opacity="0.7"/>
<polyline clip-path="url(#clip161)" style="stroke:#000000; stroke-linecap:round; stroke-linejoin:round; stroke-width:4; stroke-opacity:0.7; fill:none" points="1710.8,559.978 1710.8,1375.45 1924.2,1375.45 1924.2,559.978 1710.8,559.978 "/>
<path clip-path="url(#clip161)" d="M1977.55 713.878 L1977.55 1375.45 L2190.95 1375.45 L2190.95 713.878 L1977.55 713.878 L1977.55 713.878  Z" fill="#4682b4" fill-rule="evenodd" fill-opacity="0.7"/>
<polyline clip-path="url(#clip161)" style="stroke:#000000; stroke-linecap:round; stroke-linejoin:round; stroke-width:4; stroke-opacity:0.7; fill:none" points="1977.55,713.878 1977.55,1375.45 2190.95,1375.45 2190.95,713.878 1977.55,713.878 "/>
<path clip-path="url(#clip161)" d="M2244.3 687.972 L2244.3 1375.45 L2457.7 1375.45 L2457.7 687.972 L2244.3 687.972 L2244.3 687.972  Z" fill="#4682b4" fill-rule="evenodd" fill-opacity="0.7"/>
<polyline clip-path="url(#clip161)" style="stroke:#000000; stroke-linecap:round; stroke-linejoin:round; stroke-width:4; stroke-opacity:0.7; fill:none" points="2244.3,687.972 2244.3,1375.45 2457.7,1375.45 2457.7,687.972 2244.3,687.972 "/>
<path clip-path="url(#clip161)" d="M2511.05 630.15 L2511.05 1375.45 L2724.45 1375.45 L2724.45 630.15 L2511.05 630.15 L2511.05 630.15  Z" fill="#4682b4" fill-rule="evenodd" fill-opacity="0.7"/>
<polyline clip-path="url(#clip161)" style="stroke:#000000; stroke-linecap:round; stroke-linejoin:round; stroke-width:4; stroke-opacity:0.7; fill:none" points="2511.05,630.15 2511.05,1375.45 2724.45,1375.45 2724.45,630.15 2511.05,630.15 "/>
<path clip-path="url(#clip161)" d="M2777.8 654.551 L2777.8 1375.45 L2991.2 1375.45 L2991.2 654.551 L2777.8 654.551 L2777.8 654.551  Z" fill="#4682b4" fill-rule="evenodd" fill-opacity="0.7"/>
<polyline clip-path="url(#clip161)" style="stroke:#000000; stroke-linecap:round; stroke-linejoin:round; stroke-width:4; stroke-opacity:0.7; fill:none" points="2777.8,654.551 2777.8,1375.45 2991.2,1375.45 2991.2,654.551 2777.8,654.551 "/>
<circle clip-path="url(#clip161)" style="fill:#228b22; stroke:none; fill-opacity:0" cx="483.754" cy="108.352" r="2"/>
<circle clip-path="url(#clip161)" style="fill:#228b22; stroke:none; fill-opacity:0" cx="750.504" cy="606.865" r="2"/>
<circle clip-path="url(#clip161)" style="fill:#228b22; stroke:none; fill-opacity:0" cx="1017.25" cy="586.098" r="2"/>
<circle clip-path="url(#clip161)" style="fill:#228b22; stroke:none; fill-opacity:0" cx="1284" cy="582.5" r="2"/>
<circle clip-path="url(#clip161)" style="fill:#228b22; stroke:none; fill-opacity:0" cx="1550.75" cy="662.538" r="2"/>
<circle clip-path="url(#clip161)" style="fill:#4682b4; stroke:none; fill-opacity:0" cx="1817.5" cy="559.978" r="2"/>
<circle clip-path="url(#clip161)" style="fill:#4682b4; stroke:none; fill-opacity:0" cx="2084.25" cy="713.878" r="2"/>
<circle clip-path="url(#clip161)" style="fill:#4682b4; stroke:none; fill-opacity:0" cx="2351" cy="687.972" r="2"/>
<circle clip-path="url(#clip161)" style="fill:#4682b4; stroke:none; fill-opacity:0" cx="2617.75" cy="630.15" r="2"/>
<circle clip-path="url(#clip161)" style="fill:#4682b4; stroke:none; fill-opacity:0" cx="2884.5" cy="654.551" r="2"/>
<polyline clip-path="url(#clip161)" style="stroke:#ff0000; stroke-linecap:round; stroke-linejoin:round; stroke-width:4; stroke-opacity:1; fill:none" stroke-dasharray="16, 10" points="-2721.76,667.121 6090.01,667.121 "/>
</svg>
