<?xml version="1.0" encoding="utf-8"?>
<svg xmlns="http://www.w3.org/2000/svg" xmlns:xlink="http://www.w3.org/1999/xlink" width="672" height="480" viewBox="0 0 2688 1920">
<defs>
  <clipPath id="clip390">
    <rect x="0" y="0" width="2688" height="1920"/>
  </clipPath>
</defs>
<path clip-path="url(#clip390)" d="M0 1920 L2688 1920 L2688 -4.26326e-14 L0 -4.26326e-14  Z" fill="#ffffff" fill-rule="evenodd" fill-opacity="1"/>
<defs>
  <clipPath id="clip391">
    <rect x="208" y="127" width="2433" height="1607"/>
  </clipPath>
</defs>
<path clip-path="url(#clip390)" d="M208.502 1734.12 L2640.76 1734.12 L2640.76 127.792 L208.502 127.792  Z" fill="#ffffff" fill-rule="evenodd" fill-opacity="1"/>
<polyline clip-path="url(#clip391)" style="stroke:#000000; stroke-linecap:round; stroke-linejoin:round; stroke-width:2; stroke-opacity:0.1; fill:none" points="277.339,1734.12 277.339,127.792 "/>
<polyline clip-path="url(#clip391)" style="stroke:#000000; stroke-linecap:round; stroke-linejoin:round; stroke-width:2; stroke-opacity:0.1; fill:none" points="736.255,1734.12 736.255,127.792 "/>
<polyline clip-path="url(#clip391)" style="stroke:#000000; stroke-linecap:round; stroke-linejoin:round; stroke-width:2; stroke-opacity:0.1; fill:none" points="1195.17,1734.12 1195.17,127.792 "/>
<polyline clip-path="url(#clip391)" style="stroke:#000000; stroke-linecap:round; stroke-linejoin:round; stroke-width:2; stroke-opacity:0.1; fill:none" points="1654.09,1734.12 1654.09,127.792 "/>
<polyline clip-path="url(#clip391)" style="stroke:#000000; stroke-linecap:round; stroke-linejoin:round; stroke-width:2; stroke-opacity:0.1; fill:none" points="2113,1734.12 2113,127.792 "/>
<polyline clip-path="url(#clip391)" style="stroke:#000000; stroke-linecap:round; stroke-linejoin:round; stroke-width:2; stroke-opacity:0.1; fill:none" points="2571.92,1734.12 2571.92,127.792 "/>
<polyline clip-path="url(#clip391)" style="stroke:#000000; stroke-linecap:round; stroke-linejoin:round; stroke-width:2; stroke-opacity:0.1; fill:none" points="208.502,1473.83 2640.76,1473.83 "/>
<polyline clip-path="url(#clip391)" style="stroke:#000000; stroke-linecap:round; stroke-linejoin:round; stroke-width:2; stroke-opacity:0.1; fill:none" points="208.502,1105.59 2640.76,1105.59 "/>
<polyline clip-path="url(#clip391)" style="stroke:#000000; stroke-linecap:round; stroke-linejoin:round; stroke-width:2; stroke-opacity:0.1; fill:none" points="208.502,737.358 2640.76,737.358 "/>
<polyline clip-path="url(#clip391)" style="stroke:#000000; stroke-linecap:round; stroke-linejoin:round; stroke-width:2; stroke-opacity:0.1; fill:none" points="208.502,369.122 2640.76,369.122 "/>
<polyline clip-path="url(#clip390)" style="stroke:#000000; stroke-linecap:round; stroke-linejoin:round; stroke-width:4; stroke-opacity:1; fill:none" points="208.502,1734.12 2640.76,1734.12 "/>
<polyline clip-path="url(#clip390)" style="stroke:#000000; stroke-linecap:round; stroke-linejoin:round; stroke-width:4; stroke-opacity:1; fill:none" points="277.339,1734.12 277.339,1715.22 "/>
<polyline clip-path="url(#clip390)" style="stroke:#000000; stroke-linecap:round; stroke-linejoin:round; stroke-width:4; stroke-opacity:1; fill:none" points="736.255,1734.12 736.255,1715.22 "/>
<polyline clip-path="url(#clip390)" style="stroke:#000000; stroke-linecap:round; stroke-linejoin:round; stroke-width:4; stroke-opacity:1; fill:none" points="1195.17,1734.12 1195.17,1715.22 "/>
<polyline clip-path="url(#clip390)" style="stroke:#000000; stroke-linecap:round; stroke-linejoin:round; stroke-width:4; stroke-opacity:1; fill:none" points="1654.09,1734.12 1654.09,1715.22 "/>
<polyline clip-path="url(#clip390)" style="stroke:#000000; stroke-linecap:round; stroke-linejoin:round; stroke-width:4; stroke-opacity:1; fill:none" points="2113,1734.12 2113,1715.22 "/>
<polyline clip-path="url(#clip390)" style="stroke:#000000; stroke-linecap:round; stroke-linejoin:round; stroke-width:4; stroke-opacity:1; fill:none" points="2571.92,1734.12 2571.92,1715.22 "/>
<path clip-path="url(#clip390)" d="M277.339 1767.34 Q273.728 1767.34 271.899 1770.9 Q270.094 1774.45 270.094 1781.58 Q270.094 1788.68 271.899 1792.25 Q273.728 1795.79 277.339 1795.79 Q280.973 1795.79 282.779 1792.25 Q284.608 1788.68 284.608 1781.58 Q284.608 1774.45 282.779 1770.9 Q280.973 1767.34 277.339 1767.34 M277.339 1763.64 Q283.149 1763.64 286.205 1768.24 Q289.284 1772.83 289.284 1781.58 Q289.284 1790.3 286.205 1794.91 Q283.149 1799.49 277.339 1799.49 Q271.529 1799.49 268.45 1794.91 Q265.395 1790.3 265.395 1781.58 Q265.395 1772.83 268.45 1768.24 Q271.529 1763.64 277.339 1763.64 Z" fill="#000000" fill-rule="nonzero" fill-opacity="1" /><path clip-path="url(#clip390)" d="M710.943 1794.89 L718.581 1794.89 L718.581 1768.52 L710.271 1770.19 L710.271 1765.93 L718.535 1764.26 L723.211 1764.26 L723.211 1794.89 L730.85 1794.89 L730.85 1798.82 L710.943 1798.82 L710.943 1794.89 Z" fill="#000000" fill-rule="nonzero" fill-opacity="1" /><path clip-path="url(#clip390)" d="M750.294 1767.34 Q746.683 1767.34 744.855 1770.9 Q743.049 1774.45 743.049 1781.58 Q743.049 1788.68 744.855 1792.25 Q746.683 1795.79 750.294 1795.79 Q753.929 1795.79 755.734 1792.25 Q757.563 1788.68 757.563 1781.58 Q757.563 1774.45 755.734 1770.9 Q753.929 1767.34 750.294 1767.34 M750.294 1763.64 Q756.104 1763.64 759.16 1768.24 Q762.239 1772.83 762.239 1781.58 Q762.239 1790.3 759.16 1794.91 Q756.104 1799.49 750.294 1799.49 Q744.484 1799.49 741.405 1794.91 Q738.35 1790.3 738.35 1781.58 Q738.35 1772.83 741.405 1768.24 Q744.484 1763.64 750.294 1763.64 Z" fill="#000000" fill-rule="nonzero" fill-opacity="1" /><path clip-path="url(#clip390)" d="M1173.94 1794.89 L1190.26 1794.89 L1190.26 1798.82 L1168.32 1798.82 L1168.32 1794.89 Q1170.98 1792.13 1175.56 1787.5 Q1180.17 1782.85 1181.35 1781.51 Q1183.6 1778.98 1184.48 1777.25 Q1185.38 1775.49 1185.38 1773.8 Q1185.38 1771.04 1183.43 1769.31 Q1181.51 1767.57 1178.41 1767.57 Q1176.21 1767.57 1173.76 1768.34 Q1171.33 1769.1 1168.55 1770.65 L1168.55 1765.93 Q1171.37 1764.79 1173.83 1764.21 Q1176.28 1763.64 1178.32 1763.64 Q1183.69 1763.64 1186.88 1766.32 Q1190.08 1769.01 1190.08 1773.5 Q1190.08 1775.63 1189.27 1777.55 Q1188.48 1779.45 1186.37 1782.04 Q1185.8 1782.71 1182.69 1785.93 Q1179.59 1789.12 1173.94 1794.89 Z" fill="#000000" fill-rule="nonzero" fill-opacity="1" /><path clip-path="url(#clip390)" d="M1210.08 1767.34 Q1206.47 1767.34 1204.64 1770.9 Q1202.83 1774.45 1202.83 1781.58 Q1202.83 1788.68 1204.64 1792.25 Q1206.47 1795.79 1210.08 1795.79 Q1213.71 1795.79 1215.52 1792.25 Q1217.35 1788.68 1217.35 1781.58 Q1217.35 1774.45 1215.52 1770.9 Q1213.71 1767.34 1210.08 1767.34 M1210.08 1763.64 Q1215.89 1763.64 1218.94 1768.24 Q1222.02 1772.83 1222.02 1781.58 Q1222.02 1790.3 1218.94 1794.91 Q1215.89 1799.49 1210.08 1799.49 Q1204.27 1799.49 1201.19 1794.91 Q1198.13 1790.3 1198.13 1781.58 Q1198.13 1772.83 1201.19 1768.24 Q1204.27 1763.64 1210.08 1763.64 Z" fill="#000000" fill-rule="nonzero" fill-opacity="1" /><path clip-path="url(#clip390)" d="M1642.93 1780.19 Q1646.29 1780.9 1648.16 1783.17 Q1650.06 1785.44 1650.06 1788.77 Q1650.06 1793.89 1646.54 1796.69 Q1643.02 1799.49 1636.54 1799.49 Q1634.36 1799.49 1632.05 1799.05 Q1629.76 1798.64 1627.3 1797.78 L1627.3 1793.27 Q1629.25 1794.4 1631.56 1794.98 Q1633.88 1795.56 1636.4 1795.56 Q1640.8 1795.56 1643.09 1793.82 Q1645.41 1792.08 1645.41 1788.77 Q1645.41 1785.72 1643.25 1784.01 Q1641.12 1782.27 1637.3 1782.27 L1633.28 1782.27 L1633.28 1778.43 L1637.49 1778.43 Q1640.94 1778.43 1642.77 1777.06 Q1644.6 1775.67 1644.6 1773.08 Q1644.6 1770.42 1642.7 1769.01 Q1640.82 1767.57 1637.3 1767.57 Q1635.38 1767.57 1633.18 1767.99 Q1630.99 1768.4 1628.35 1769.28 L1628.35 1765.12 Q1631.01 1764.38 1633.32 1764.01 Q1635.66 1763.64 1637.72 1763.64 Q1643.05 1763.64 1646.15 1766.07 Q1649.25 1768.47 1649.25 1772.59 Q1649.25 1775.46 1647.61 1777.46 Q1645.96 1779.42 1642.93 1780.19 Z" fill="#000000" fill-rule="nonzero" fill-opacity="1" /><path clip-path="url(#clip390)" d="M1668.92 1767.34 Q1665.31 1767.34 1663.48 1770.9 Q1661.68 1774.45 1661.68 1781.58 Q1661.68 1788.68 1663.48 1792.25 Q1665.31 1795.79 1668.92 1795.79 Q1672.56 1795.79 1674.36 1792.25 Q1676.19 1788.68 1676.19 1781.58 Q1676.19 1774.45 1674.36 1770.9 Q1672.56 1767.34 1668.92 1767.34 M1668.92 1763.64 Q1674.73 1763.64 1677.79 1768.24 Q1680.87 1772.83 1680.87 1781.58 Q1680.87 1790.3 1677.79 1794.91 Q1674.73 1799.49 1668.92 1799.49 Q1663.11 1799.49 1660.04 1794.91 Q1656.98 1790.3 1656.98 1781.58 Q1656.98 1772.83 1660.04 1768.24 Q1663.11 1763.64 1668.92 1763.64 Z" fill="#000000" fill-rule="nonzero" fill-opacity="1" /><path clip-path="url(#clip390)" d="M2101.17 1768.34 L2089.37 1786.78 L2101.17 1786.78 L2101.17 1768.34 M2099.95 1764.26 L2105.83 1764.26 L2105.83 1786.78 L2110.76 1786.78 L2110.76 1790.67 L2105.83 1790.67 L2105.83 1798.82 L2101.17 1798.82 L2101.17 1790.67 L2085.57 1790.67 L2085.57 1786.16 L2099.95 1764.26 Z" fill="#000000" fill-rule="nonzero" fill-opacity="1" /><path clip-path="url(#clip390)" d="M2128.49 1767.34 Q2124.88 1767.34 2123.05 1770.9 Q2121.24 1774.45 2121.24 1781.58 Q2121.24 1788.68 2123.05 1792.25 Q2124.88 1795.79 2128.49 1795.79 Q2132.12 1795.79 2133.93 1792.25 Q2135.76 1788.68 2135.76 1781.58 Q2135.76 1774.45 2133.93 1770.9 Q2132.12 1767.34 2128.49 1767.34 M2128.49 1763.64 Q2134.3 1763.64 2137.35 1768.24 Q2140.43 1772.83 2140.43 1781.58 Q2140.43 1790.3 2137.35 1794.91 Q2134.3 1799.49 2128.49 1799.49 Q2122.68 1799.49 2119.6 1794.91 Q2116.54 1790.3 2116.54 1781.58 Q2116.54 1772.83 2119.6 1768.24 Q2122.68 1763.64 2128.49 1763.64 Z" fill="#000000" fill-rule="nonzero" fill-opacity="1" /><path clip-path="url(#clip390)" d="M2546.62 1764.26 L2564.97 1764.26 L2564.97 1768.2 L2550.9 1768.2 L2550.9 1776.67 Q2551.92 1776.32 2552.94 1776.16 Q2553.96 1775.97 2554.97 1775.97 Q2560.76 1775.97 2564.14 1779.15 Q2567.52 1782.32 2567.52 1787.73 Q2567.52 1793.31 2564.05 1796.41 Q2560.58 1799.49 2554.26 1799.49 Q2552.08 1799.49 2549.81 1799.12 Q2547.57 1798.75 2545.16 1798.01 L2545.16 1793.31 Q2547.24 1794.45 2549.46 1795 Q2551.69 1795.56 2554.16 1795.56 Q2558.17 1795.56 2560.51 1793.45 Q2562.84 1791.34 2562.84 1787.73 Q2562.84 1784.12 2560.51 1782.02 Q2558.17 1779.91 2554.16 1779.91 Q2552.29 1779.91 2550.41 1780.33 Q2548.56 1780.74 2546.62 1781.62 L2546.62 1764.26 Z" fill="#000000" fill-rule="nonzero" fill-opacity="1" /><path clip-path="url(#clip390)" d="M2586.73 1767.34 Q2583.12 1767.34 2581.29 1770.9 Q2579.49 1774.45 2579.49 1781.58 Q2579.49 1788.68 2581.29 1792.25 Q2583.12 1795.79 2586.73 1795.79 Q2590.37 1795.79 2592.17 1792.25 Q2594 1788.68 2594 1781.58 Q2594 1774.45 2592.17 1770.9 Q2590.37 1767.34 2586.73 1767.34 M2586.73 1763.64 Q2592.54 1763.64 2595.6 1768.24 Q2598.68 1772.83 2598.68 1781.58 Q2598.68 1790.3 2595.6 1794.91 Q2592.54 1799.49 2586.73 1799.49 Q2580.92 1799.49 2577.84 1794.91 Q2574.79 1790.3 2574.79 1781.58 Q2574.79 1772.83 2577.84 1768.24 Q2580.92 1763.64 2586.73 1763.64 Z" fill="#000000" fill-rule="nonzero" fill-opacity="1" /><path clip-path="url(#clip390)" d="M1265.69 1835.78 L1305.89 1835.78 L1305.89 1841.19 L1289.02 1841.19 L1289.02 1883.3 L1282.56 1883.3 L1282.56 1841.19 L1265.69 1841.19 L1265.69 1835.78 Z" fill="#000000" fill-rule="nonzero" fill-opacity="1" /><path clip-path="url(#clip390)" d="M1309.84 1847.65 L1315.7 1847.65 L1315.7 1883.3 L1309.84 1883.3 L1309.84 1847.65 M1309.84 1833.78 L1315.7 1833.78 L1315.7 1841.19 L1309.84 1841.19 L1309.84 1833.78 Z" fill="#000000" fill-rule="nonzero" fill-opacity="1" /><path clip-path="url(#clip390)" d="M1355.7 1854.5 Q1357.9 1850.55 1360.96 1848.67 Q1364.01 1846.79 1368.15 1846.79 Q1373.72 1846.79 1376.74 1850.71 Q1379.77 1854.59 1379.77 1861.78 L1379.77 1883.3 L1373.88 1883.3 L1373.88 1861.98 Q1373.88 1856.85 1372.06 1854.37 Q1370.25 1851.89 1366.53 1851.89 Q1361.97 1851.89 1359.33 1854.91 Q1356.69 1857.93 1356.69 1863.15 L1356.69 1883.3 L1350.8 1883.3 L1350.8 1861.98 Q1350.8 1856.82 1348.99 1854.37 Q1347.17 1851.89 1343.39 1851.89 Q1338.9 1851.89 1336.26 1854.94 Q1333.62 1857.97 1333.62 1863.15 L1333.62 1883.3 L1327.73 1883.3 L1327.73 1847.65 L1333.62 1847.65 L1333.62 1853.19 Q1335.62 1849.91 1338.42 1848.35 Q1341.22 1846.79 1345.07 1846.79 Q1348.96 1846.79 1351.66 1848.77 Q1354.4 1850.74 1355.7 1854.5 Z" fill="#000000" fill-rule="nonzero" fill-opacity="1" /><path clip-path="url(#clip390)" d="M1421.94 1864.01 L1421.94 1866.88 L1395.01 1866.88 Q1395.39 1872.92 1398.64 1876.11 Q1401.92 1879.26 1407.74 1879.26 Q1411.12 1879.26 1414.27 1878.43 Q1417.45 1877.6 1420.57 1875.95 L1420.57 1881.49 Q1417.42 1882.82 1414.11 1883.52 Q1410.8 1884.22 1407.39 1884.22 Q1398.86 1884.22 1393.87 1879.26 Q1388.9 1874.29 1388.9 1865.83 Q1388.9 1857.07 1393.61 1851.95 Q1398.35 1846.79 1406.38 1846.79 Q1413.57 1846.79 1417.74 1851.44 Q1421.94 1856.06 1421.94 1864.01 M1416.08 1862.29 Q1416.02 1857.49 1413.38 1854.62 Q1410.77 1851.76 1406.44 1851.76 Q1401.54 1851.76 1398.58 1854.53 Q1395.65 1857.3 1395.2 1862.33 L1416.08 1862.29 Z" fill="#000000" fill-rule="nonzero" fill-opacity="1" /><path clip-path="url(#clip390)" d="M1475 1848.7 L1475 1854.24 Q1472.51 1852.97 1469.84 1852.33 Q1467.17 1851.7 1464.3 1851.7 Q1459.94 1851.7 1457.75 1853.03 Q1455.58 1854.37 1455.58 1857.04 Q1455.58 1859.08 1457.14 1860.26 Q1458.7 1861.4 1463.41 1862.45 L1465.42 1862.9 Q1471.66 1864.24 1474.27 1866.69 Q1476.91 1869.11 1476.91 1873.47 Q1476.91 1878.43 1472.96 1881.33 Q1469.05 1884.22 1462.17 1884.22 Q1459.31 1884.22 1456.19 1883.65 Q1453.1 1883.11 1449.66 1882 L1449.66 1875.95 Q1452.91 1877.64 1456.06 1878.49 Q1459.21 1879.32 1462.3 1879.32 Q1466.44 1879.32 1468.66 1877.92 Q1470.89 1876.49 1470.89 1873.91 Q1470.89 1871.52 1469.27 1870.25 Q1467.68 1868.98 1462.23 1867.8 L1460.2 1867.32 Q1454.75 1866.18 1452.34 1863.82 Q1449.92 1861.43 1449.92 1857.3 Q1449.92 1852.27 1453.48 1849.53 Q1457.05 1846.79 1463.6 1846.79 Q1466.85 1846.79 1469.71 1847.27 Q1472.58 1847.75 1475 1848.7 Z" fill="#000000" fill-rule="nonzero" fill-opacity="1" /><path clip-path="url(#clip390)" d="M1492.03 1837.53 L1492.03 1847.65 L1504.09 1847.65 L1504.09 1852.2 L1492.03 1852.2 L1492.03 1871.56 Q1492.03 1875.92 1493.2 1877.16 Q1494.41 1878.4 1498.07 1878.4 L1504.09 1878.4 L1504.09 1883.3 L1498.07 1883.3 Q1491.29 1883.3 1488.72 1880.79 Q1486.14 1878.24 1486.14 1871.56 L1486.14 1852.2 L1481.84 1852.2 L1481.84 1847.65 L1486.14 1847.65 L1486.14 1837.53 L1492.03 1837.53 Z" fill="#000000" fill-rule="nonzero" fill-opacity="1" /><path clip-path="url(#clip390)" d="M1542.28 1864.01 L1542.28 1866.88 L1515.36 1866.88 Q1515.74 1872.92 1518.98 1876.11 Q1522.26 1879.26 1528.09 1879.26 Q1531.46 1879.26 1534.61 1878.43 Q1537.8 1877.6 1540.91 1875.95 L1540.91 1881.49 Q1537.76 1882.82 1534.45 1883.52 Q1531.14 1884.22 1527.74 1884.22 Q1519.21 1884.22 1514.21 1879.26 Q1509.24 1874.29 1509.24 1865.83 Q1509.24 1857.07 1513.96 1851.95 Q1518.7 1846.79 1526.72 1846.79 Q1533.91 1846.79 1538.08 1851.44 Q1542.28 1856.06 1542.28 1864.01 M1536.43 1862.29 Q1536.36 1857.49 1533.72 1854.62 Q1531.11 1851.76 1526.78 1851.76 Q1521.88 1851.76 1518.92 1854.53 Q1515.99 1857.3 1515.55 1862.33 L1536.43 1862.29 Z" fill="#000000" fill-rule="nonzero" fill-opacity="1" /><path clip-path="url(#clip390)" d="M1557.56 1877.95 L1557.56 1896.86 L1551.67 1896.86 L1551.67 1847.65 L1557.56 1847.65 L1557.56 1853.06 Q1559.41 1849.88 1562.21 1848.35 Q1565.04 1846.79 1568.96 1846.79 Q1575.45 1846.79 1579.49 1851.95 Q1583.56 1857.11 1583.56 1865.51 Q1583.56 1873.91 1579.49 1879.07 Q1575.45 1884.22 1568.96 1884.22 Q1565.04 1884.22 1562.21 1882.7 Q1559.41 1881.14 1557.56 1877.95 M1577.49 1865.51 Q1577.49 1859.05 1574.81 1855.39 Q1572.17 1851.7 1567.52 1851.7 Q1562.88 1851.7 1560.2 1855.39 Q1557.56 1859.05 1557.56 1865.51 Q1557.56 1871.97 1560.2 1875.66 Q1562.88 1879.32 1567.52 1879.32 Q1572.17 1879.32 1574.81 1875.66 Q1577.49 1871.97 1577.49 1865.51 Z" fill="#000000" fill-rule="nonzero" fill-opacity="1" /><polyline clip-path="url(#clip390)" style="stroke:#000000; stroke-linecap:round; stroke-linejoin:round; stroke-width:4; stroke-opacity:1; fill:none" points="208.502,1734.12 208.502,127.792 "/>
<polyline clip-path="url(#clip390)" style="stroke:#000000; stroke-linecap:round; stroke-linejoin:round; stroke-width:4; stroke-opacity:1; fill:none" points="208.502,1473.83 227.399,1473.83 "/>
<polyline clip-path="url(#clip390)" style="stroke:#000000; stroke-linecap:round; stroke-linejoin:round; stroke-width:4; stroke-opacity:1; fill:none" points="208.502,1105.59 227.399,1105.59 "/>
<polyline clip-path="url(#clip390)" style="stroke:#000000; stroke-linecap:round; stroke-linejoin:round; stroke-width:4; stroke-opacity:1; fill:none" points="208.502,737.358 227.399,737.358 "/>
<polyline clip-path="url(#clip390)" style="stroke:#000000; stroke-linecap:round; stroke-linejoin:round; stroke-width:4; stroke-opacity:1; fill:none" points="208.502,369.122 227.399,369.122 "/>
<path clip-path="url(#clip390)" d="M158.598 1460.62 L146.793 1479.07 L158.598 1479.07 L158.598 1460.62 M157.372 1456.55 L163.251 1456.55 L163.251 1479.07 L168.182 1479.07 L168.182 1482.96 L163.251 1482.96 L163.251 1491.11 L158.598 1491.11 L158.598 1482.96 L142.997 1482.96 L142.997 1478.45 L157.372 1456.55 Z" fill="#000000" fill-rule="nonzero" fill-opacity="1" /><path clip-path="url(#clip390)" d="M156.654 1103.73 Q153.506 1103.73 151.654 1105.88 Q149.825 1108.04 149.825 1111.79 Q149.825 1115.51 151.654 1117.69 Q153.506 1119.84 156.654 1119.84 Q159.802 1119.84 161.631 1117.69 Q163.483 1115.51 163.483 1111.79 Q163.483 1108.04 161.631 1105.88 Q159.802 1103.73 156.654 1103.73 M165.936 1089.08 L165.936 1093.34 Q164.177 1092.5 162.372 1092.06 Q160.589 1091.62 158.83 1091.62 Q154.2 1091.62 151.747 1094.75 Q149.316 1097.87 148.969 1104.19 Q150.335 1102.18 152.395 1101.11 Q154.455 1100.03 156.932 1100.03 Q162.14 1100.03 165.149 1103.2 Q168.182 1106.35 168.182 1111.79 Q168.182 1117.11 165.034 1120.33 Q161.885 1123.54 156.654 1123.54 Q150.659 1123.54 147.487 1118.96 Q144.316 1114.35 144.316 1105.63 Q144.316 1097.43 148.205 1092.57 Q152.094 1087.69 158.645 1087.69 Q160.404 1087.69 162.186 1088.04 Q163.992 1088.38 165.936 1089.08 Z" fill="#000000" fill-rule="nonzero" fill-opacity="1" /><path clip-path="url(#clip390)" d="M156.33 738.226 Q152.997 738.226 151.075 740.008 Q149.177 741.791 149.177 744.916 Q149.177 748.041 151.075 749.823 Q152.997 751.606 156.33 751.606 Q159.663 751.606 161.585 749.823 Q163.506 748.018 163.506 744.916 Q163.506 741.791 161.585 740.008 Q159.686 738.226 156.33 738.226 M151.654 736.235 Q148.645 735.494 146.955 733.434 Q145.288 731.374 145.288 728.411 Q145.288 724.268 148.228 721.86 Q151.191 719.453 156.33 719.453 Q161.492 719.453 164.432 721.86 Q167.372 724.268 167.372 728.411 Q167.372 731.374 165.682 733.434 Q164.015 735.494 161.029 736.235 Q164.409 737.022 166.284 739.314 Q168.182 741.606 168.182 744.916 Q168.182 749.939 165.103 752.624 Q162.048 755.309 156.33 755.309 Q150.612 755.309 147.534 752.624 Q144.478 749.939 144.478 744.916 Q144.478 741.606 146.376 739.314 Q148.274 737.022 151.654 736.235 M149.941 728.851 Q149.941 731.536 151.608 733.041 Q153.298 734.545 156.33 734.545 Q159.339 734.545 161.029 733.041 Q162.742 731.536 162.742 728.851 Q162.742 726.166 161.029 724.661 Q159.339 723.157 156.33 723.157 Q153.298 723.157 151.608 724.661 Q149.941 726.166 149.941 728.851 Z" fill="#000000" fill-rule="nonzero" fill-opacity="1" /><path clip-path="url(#clip390)" d="M116.886 382.467 L124.525 382.467 L124.525 356.102 L116.214 357.768 L116.214 353.509 L124.478 351.842 L129.154 351.842 L129.154 382.467 L136.793 382.467 L136.793 386.402 L116.886 386.402 L116.886 382.467 Z" fill="#000000" fill-rule="nonzero" fill-opacity="1" /><path clip-path="url(#clip390)" d="M156.237 354.921 Q152.626 354.921 150.798 358.486 Q148.992 362.028 148.992 369.157 Q148.992 376.264 150.798 379.828 Q152.626 383.37 156.237 383.37 Q159.872 383.37 161.677 379.828 Q163.506 376.264 163.506 369.157 Q163.506 362.028 161.677 358.486 Q159.872 354.921 156.237 354.921 M156.237 351.217 Q162.048 351.217 165.103 355.824 Q168.182 360.407 168.182 369.157 Q168.182 377.884 165.103 382.49 Q162.048 387.074 156.237 387.074 Q150.427 387.074 147.349 382.49 Q144.293 377.884 144.293 369.157 Q144.293 360.407 147.349 355.824 Q150.427 351.217 156.237 351.217 Z" fill="#000000" fill-rule="nonzero" fill-opacity="1" /><path clip-path="url(#clip390)" d="M12.1132 1047.72 L12.1132 1041.86 L61.6384 1041.86 L61.6384 1047.72 L12.1132 1047.72 Z" fill="#000000" fill-rule="nonzero" fill-opacity="1" /><path clip-path="url(#clip390)" d="M30.0964 1015.79 Q30.0964 1020.5 33.7885 1023.24 Q37.4488 1025.98 43.8463 1025.98 Q50.2438 1025.98 53.9359 1023.27 Q57.5962 1020.54 57.5962 1015.79 Q57.5962 1011.11 53.9041 1008.38 Q50.212 1005.64 43.8463 1005.64 Q37.5124 1005.64 33.8203 1008.38 Q30.0964 1011.11 30.0964 1015.79 M25.1311 1015.79 Q25.1311 1008.15 30.0964 1003.79 Q35.0616 999.434 43.8463 999.434 Q52.5991 999.434 57.5962 1003.79 Q62.5615 1008.15 62.5615 1015.79 Q62.5615 1023.46 57.5962 1027.82 Q52.5991 1032.15 43.8463 1032.15 Q35.0616 1032.15 30.0964 1027.82 Q25.1311 1023.46 25.1311 1015.79 Z" fill="#000000" fill-rule="nonzero" fill-opacity="1" /><path clip-path="url(#clip390)" d="M43.4007 966.268 Q37.035 966.268 33.5338 968.91 Q30.0327 971.52 30.0327 976.262 Q30.0327 980.973 33.5338 983.615 Q37.035 986.225 43.4007 986.225 Q49.7346 986.225 53.2357 983.615 Q56.7368 980.973 56.7368 976.262 Q56.7368 971.52 53.2357 968.91 Q49.7346 966.268 43.4007 966.268 M57.2143 960.412 Q66.3172 960.412 70.7414 964.454 Q75.1974 968.496 75.1974 976.835 Q75.1974 979.923 74.72 982.66 Q74.2744 985.397 73.3195 987.975 L67.6222 987.975 Q69.0227 985.397 69.6911 982.883 Q70.3595 980.368 70.3595 977.758 Q70.3595 971.997 67.3358 969.133 Q64.3439 966.268 58.2646 966.268 L55.3682 966.268 Q58.5192 968.083 60.0788 970.915 Q61.6384 973.748 61.6384 977.695 Q61.6384 984.251 56.6414 988.262 Q51.6443 992.272 43.4007 992.272 Q35.1253 992.272 30.1282 988.262 Q25.1311 984.251 25.1311 977.695 Q25.1311 973.748 26.6907 970.915 Q28.2503 968.083 31.4013 966.268 L25.9905 966.268 L25.9905 960.412 L57.2143 960.412 Z" fill="#000000" fill-rule="nonzero" fill-opacity="1" /><path clip-path="url(#clip390)" d="M14.1184 927.374 L14.1184 918.716 L53.8723 897.646 L14.1184 897.646 L14.1184 891.408 L61.6384 891.408 L61.6384 900.065 L21.8846 921.135 L61.6384 921.135 L61.6384 927.374 L14.1184 927.374 Z" fill="#000000" fill-rule="nonzero" fill-opacity="1" /><path clip-path="url(#clip390)" d="M12.1769 864.799 Q19.4975 869.064 26.6589 871.133 Q33.8203 873.202 41.1727 873.202 Q48.5251 873.202 55.7502 871.133 Q62.9434 869.032 70.2321 864.799 L70.2321 869.892 Q62.7524 874.666 55.5274 877.053 Q48.3023 879.408 41.1727 879.408 Q34.0749 879.408 26.8817 877.053 Q19.6884 874.698 12.1769 869.892 L12.1769 864.799 Z" fill="#000000" fill-rule="nonzero" fill-opacity="1" /><path clip-path="url(#clip390)" d="M15.869 847.643 L25.9905 847.643 L25.9905 835.58 L30.542 835.58 L30.542 847.643 L49.8937 847.643 Q54.2542 847.643 55.4955 846.466 Q56.7368 845.256 56.7368 841.596 L56.7368 835.58 L61.6384 835.58 L61.6384 841.596 Q61.6384 848.375 59.124 850.954 Q56.5777 853.532 49.8937 853.532 L30.542 853.532 L30.542 857.829 L25.9905 857.829 L25.9905 853.532 L15.869 853.532 L15.869 847.643 Z" fill="#000000" fill-rule="nonzero" fill-opacity="1" /><path clip-path="url(#clip390)" d="M12.1769 828.801 L12.1769 823.708 Q19.6884 818.934 26.8817 816.579 Q34.0749 814.192 41.1727 814.192 Q48.3023 814.192 55.5274 816.579 Q62.7524 818.934 70.2321 823.708 L70.2321 828.801 Q62.9434 824.568 55.7502 822.499 Q48.5251 820.398 41.1727 820.398 Q33.8203 820.398 26.6589 822.499 Q19.4975 824.568 12.1769 828.801 Z" fill="#000000" fill-rule="nonzero" fill-opacity="1" /><path clip-path="url(#clip390)" d="M678.128 18.8205 L678.128 41.5461 L688.417 41.5461 Q694.129 41.5461 697.248 38.5889 Q700.368 35.6318 700.368 30.163 Q700.368 24.7348 697.248 21.7777 Q694.129 18.8205 688.417 18.8205 L678.128 18.8205 M669.945 12.096 L688.417 12.096 Q698.585 12.096 703.77 16.714 Q708.996 21.2916 708.996 30.163 Q708.996 39.1155 703.77 43.6931 Q698.585 48.2706 688.417 48.2706 L678.128 48.2706 L678.128 72.576 L669.945 72.576 L669.945 12.096 Z" fill="#000000" fill-rule="nonzero" fill-opacity="1" /><path clip-path="url(#clip390)" d="M734.274 32.4315 Q728.278 32.4315 724.795 37.1306 Q721.311 41.7891 721.311 49.9314 Q721.311 58.0738 724.754 62.7728 Q728.238 67.4314 734.274 67.4314 Q740.229 67.4314 743.712 62.7323 Q747.196 58.0333 747.196 49.9314 Q747.196 41.8701 743.712 37.1711 Q740.229 32.4315 734.274 32.4315 M734.274 26.1121 Q743.996 26.1121 749.546 32.4315 Q755.095 38.7509 755.095 49.9314 Q755.095 61.0714 749.546 67.4314 Q743.996 73.7508 734.274 73.7508 Q724.511 73.7508 718.961 67.4314 Q713.452 61.0714 713.452 49.9314 Q713.452 38.7509 718.961 32.4315 Q724.511 26.1121 734.274 26.1121 Z" fill="#000000" fill-rule="nonzero" fill-opacity="1" /><path clip-path="url(#clip390)" d="M774.661 65.7705 L774.661 89.8329 L767.167 89.8329 L767.167 27.2059 L774.661 27.2059 L774.661 34.0924 Q777.011 30.0415 780.576 28.0971 Q784.181 26.1121 789.163 26.1121 Q797.427 26.1121 802.572 32.6746 Q807.757 39.2371 807.757 49.9314 Q807.757 60.6258 802.572 67.1883 Q797.427 73.7508 789.163 73.7508 Q784.181 73.7508 780.576 71.8063 Q777.011 69.8214 774.661 65.7705 M800.02 49.9314 Q800.02 41.7081 796.617 37.0496 Q793.255 32.3505 787.341 32.3505 Q781.426 32.3505 778.023 37.0496 Q774.661 41.7081 774.661 49.9314 Q774.661 58.1548 778.023 62.8538 Q781.426 67.5124 787.341 67.5124 Q793.255 67.5124 796.617 62.8538 Q800.02 58.1548 800.02 49.9314 Z" fill="#000000" fill-rule="nonzero" fill-opacity="1" /><path clip-path="url(#clip390)" d="M819.343 54.671 L819.343 27.2059 L826.796 27.2059 L826.796 54.3874 Q826.796 60.8284 829.308 64.0691 Q831.82 67.2693 836.843 67.2693 Q842.878 67.2693 846.362 63.421 Q849.887 59.5726 849.887 52.9291 L849.887 27.2059 L857.34 27.2059 L857.34 72.576 L849.887 72.576 L849.887 65.6084 Q847.172 69.7404 843.567 71.7658 Q840.002 73.7508 835.263 73.7508 Q827.445 73.7508 823.394 68.8897 Q819.343 64.0286 819.343 54.671 M838.098 26.1121 L838.098 26.1121 Z" fill="#000000" fill-rule="nonzero" fill-opacity="1" /><path clip-path="url(#clip390)" d="M872.693 9.54393 L880.147 9.54393 L880.147 72.576 L872.693 72.576 L872.693 9.54393 Z" fill="#000000" fill-rule="nonzero" fill-opacity="1" /><path clip-path="url(#clip390)" d="M916.362 49.7694 Q907.328 49.7694 903.845 51.8354 Q900.361 53.9013 900.361 58.8839 Q900.361 62.8538 902.953 65.2034 Q905.586 67.5124 910.083 67.5124 Q916.281 67.5124 920.008 63.1374 Q923.775 58.7219 923.775 51.4303 L923.775 49.7694 L916.362 49.7694 M931.229 46.6907 L931.229 72.576 L923.775 72.576 L923.775 65.6895 Q921.223 69.8214 917.415 71.8063 Q913.607 73.7508 908.098 73.7508 Q901.13 73.7508 896.999 69.8619 Q892.907 65.9325 892.907 59.3701 Q892.907 51.7138 898.011 47.825 Q903.156 43.9361 913.324 43.9361 L923.775 43.9361 L923.775 43.2069 Q923.775 38.0623 920.372 35.2672 Q917.01 32.4315 910.893 32.4315 Q907.004 32.4315 903.318 33.3632 Q899.632 34.295 896.229 36.1584 L896.229 29.2718 Q900.32 27.692 904.169 26.9223 Q908.017 26.1121 911.663 26.1121 Q921.507 26.1121 926.368 31.2163 Q931.229 36.3204 931.229 46.6907 Z" fill="#000000" fill-rule="nonzero" fill-opacity="1" /><path clip-path="url(#clip390)" d="M953.954 14.324 L953.954 27.2059 L969.307 27.2059 L969.307 32.9987 L953.954 32.9987 L953.954 57.6282 Q953.954 63.1779 955.453 64.7578 Q956.992 66.3376 961.651 66.3376 L969.307 66.3376 L969.307 72.576 L961.651 72.576 Q953.023 72.576 949.741 69.3758 Q946.46 66.1351 946.46 57.6282 L946.46 32.9987 L940.991 32.9987 L940.991 27.2059 L946.46 27.2059 L946.46 14.324 L953.954 14.324 Z" fill="#000000" fill-rule="nonzero" fill-opacity="1" /><path clip-path="url(#clip390)" d="M979.11 27.2059 L986.564 27.2059 L986.564 72.576 L979.11 72.576 L979.11 27.2059 M979.11 9.54393 L986.564 9.54393 L986.564 18.9825 L979.11 18.9825 L979.11 9.54393 Z" fill="#000000" fill-rule="nonzero" fill-opacity="1" /><path clip-path="url(#clip390)" d="M1019.74 32.4315 Q1013.75 32.4315 1010.26 37.1306 Q1006.78 41.7891 1006.78 49.9314 Q1006.78 58.0738 1010.22 62.7728 Q1013.71 67.4314 1019.74 67.4314 Q1025.7 67.4314 1029.18 62.7323 Q1032.66 58.0333 1032.66 49.9314 Q1032.66 41.8701 1029.18 37.1711 Q1025.7 32.4315 1019.74 32.4315 M1019.74 26.1121 Q1029.46 26.1121 1035.01 32.4315 Q1040.56 38.7509 1040.56 49.9314 Q1040.56 61.0714 1035.01 67.4314 Q1029.46 73.7508 1019.74 73.7508 Q1009.98 73.7508 1004.43 67.4314 Q998.919 61.0714 998.919 49.9314 Q998.919 38.7509 1004.43 32.4315 Q1009.98 26.1121 1019.74 26.1121 Z" fill="#000000" fill-rule="nonzero" fill-opacity="1" /><path clip-path="url(#clip390)" d="M1090.63 45.1919 L1090.63 72.576 L1083.18 72.576 L1083.18 45.4349 Q1083.18 38.994 1080.67 35.7938 Q1078.15 32.5936 1073.13 32.5936 Q1067.1 32.5936 1063.61 36.4419 Q1060.13 40.2903 1060.13 46.9338 L1060.13 72.576 L1052.63 72.576 L1052.63 27.2059 L1060.13 27.2059 L1060.13 34.2544 Q1062.8 30.163 1066.41 28.1376 Q1070.05 26.1121 1074.79 26.1121 Q1082.61 26.1121 1086.62 30.9732 Q1090.63 35.7938 1090.63 45.1919 Z" fill="#000000" fill-rule="nonzero" fill-opacity="1" /><path clip-path="url(#clip390)" d="M1139.24 14.324 L1139.24 27.2059 L1154.6 27.2059 L1154.6 32.9987 L1139.24 32.9987 L1139.24 57.6282 Q1139.24 63.1779 1140.74 64.7578 Q1142.28 66.3376 1146.94 66.3376 L1154.6 66.3376 L1154.6 72.576 L1146.94 72.576 Q1138.31 72.576 1135.03 69.3758 Q1131.75 66.1351 1131.75 57.6282 L1131.75 32.9987 L1126.28 32.9987 L1126.28 27.2059 L1131.75 27.2059 L1131.75 14.324 L1139.24 14.324 Z" fill="#000000" fill-rule="nonzero" fill-opacity="1" /><path clip-path="url(#clip390)" d="M1190.69 34.1734 Q1189.43 33.4443 1187.93 33.1202 Q1186.48 32.7556 1184.69 32.7556 Q1178.37 32.7556 1174.97 36.8875 Q1171.61 40.9789 1171.61 48.6757 L1171.61 72.576 L1164.12 72.576 L1164.12 27.2059 L1171.61 27.2059 L1171.61 34.2544 Q1173.96 30.1225 1177.73 28.1376 Q1181.49 26.1121 1186.88 26.1121 Q1187.65 26.1121 1188.58 26.2337 Q1189.51 26.3147 1190.65 26.5172 L1190.69 34.1734 Z" fill="#000000" fill-rule="nonzero" fill-opacity="1" /><path clip-path="url(#clip390)" d="M1219.13 49.7694 Q1210.09 49.7694 1206.61 51.8354 Q1203.13 53.9013 1203.13 58.8839 Q1203.13 62.8538 1205.72 65.2034 Q1208.35 67.5124 1212.85 67.5124 Q1219.05 67.5124 1222.77 63.1374 Q1226.54 58.7219 1226.54 51.4303 L1226.54 49.7694 L1219.13 49.7694 M1233.99 46.6907 L1233.99 72.576 L1226.54 72.576 L1226.54 65.6895 Q1223.99 69.8214 1220.18 71.8063 Q1216.37 73.7508 1210.86 73.7508 Q1203.9 73.7508 1199.76 69.8619 Q1195.67 65.9325 1195.67 59.3701 Q1195.67 51.7138 1200.78 47.825 Q1205.92 43.9361 1216.09 43.9361 L1226.54 43.9361 L1226.54 43.2069 Q1226.54 38.0623 1223.14 35.2672 Q1219.77 32.4315 1213.66 32.4315 Q1209.77 32.4315 1206.08 33.3632 Q1202.4 34.295 1198.99 36.1584 L1198.99 29.2718 Q1203.08 27.692 1206.93 26.9223 Q1210.78 26.1121 1214.43 26.1121 Q1224.27 26.1121 1229.13 31.2163 Q1233.99 36.3204 1233.99 46.6907 Z" fill="#000000" fill-rule="nonzero" fill-opacity="1" /><path clip-path="url(#clip390)" d="M1249.35 27.2059 L1256.8 27.2059 L1256.8 73.3862 Q1256.8 82.0551 1253.48 85.944 Q1250.2 89.8329 1242.86 89.8329 L1240.03 89.8329 L1240.03 83.5134 L1242.01 83.5134 Q1246.27 83.5134 1247.81 81.5285 Q1249.35 79.5841 1249.35 73.3862 L1249.35 27.2059 M1249.35 9.54393 L1256.8 9.54393 L1256.8 18.9825 L1249.35 18.9825 L1249.35 9.54393 Z" fill="#000000" fill-rule="nonzero" fill-opacity="1" /><path clip-path="url(#clip390)" d="M1311.2 48.0275 L1311.2 51.6733 L1276.93 51.6733 Q1277.42 59.3701 1281.55 63.421 Q1285.72 67.4314 1293.14 67.4314 Q1297.43 67.4314 1301.44 66.3781 Q1305.49 65.3249 1309.46 63.2184 L1309.46 70.267 Q1305.45 71.9684 1301.24 72.8596 Q1297.03 73.7508 1292.69 73.7508 Q1281.83 73.7508 1275.47 67.4314 Q1269.16 61.1119 1269.16 50.3365 Q1269.16 39.1965 1275.15 32.6746 Q1281.19 26.1121 1291.39 26.1121 Q1300.55 26.1121 1305.86 32.0264 Q1311.2 37.9003 1311.2 48.0275 M1303.75 45.84 Q1303.67 39.7232 1300.31 36.0774 Q1296.98 32.4315 1291.48 32.4315 Q1285.24 32.4315 1281.47 35.9558 Q1277.74 39.4801 1277.18 45.8805 L1303.75 45.84 Z" fill="#000000" fill-rule="nonzero" fill-opacity="1" /><path clip-path="url(#clip390)" d="M1356.09 28.9478 L1356.09 35.9153 Q1352.93 34.1734 1349.73 33.3227 Q1346.57 32.4315 1343.33 32.4315 Q1336.08 32.4315 1332.07 37.0496 Q1328.06 41.6271 1328.06 49.9314 Q1328.06 58.2358 1332.07 62.8538 Q1336.08 67.4314 1343.33 67.4314 Q1346.57 67.4314 1349.73 66.5807 Q1352.93 65.6895 1356.09 63.9476 L1356.09 70.8341 Q1352.97 72.2924 1349.61 73.0216 Q1346.28 73.7508 1342.52 73.7508 Q1332.27 73.7508 1326.23 67.3098 Q1320.2 60.8689 1320.2 49.9314 Q1320.2 38.832 1326.27 32.472 Q1332.39 26.1121 1343 26.1121 Q1346.45 26.1121 1349.73 26.8413 Q1353.01 27.5299 1356.09 28.9478 Z" fill="#000000" fill-rule="nonzero" fill-opacity="1" /><path clip-path="url(#clip390)" d="M1376.42 14.324 L1376.42 27.2059 L1391.78 27.2059 L1391.78 32.9987 L1376.42 32.9987 L1376.42 57.6282 Q1376.42 63.1779 1377.92 64.7578 Q1379.46 66.3376 1384.12 66.3376 L1391.78 66.3376 L1391.78 72.576 L1384.12 72.576 Q1375.49 72.576 1372.21 69.3758 Q1368.93 66.1351 1368.93 57.6282 L1368.93 32.9987 L1363.46 32.9987 L1363.46 27.2059 L1368.93 27.2059 L1368.93 14.324 L1376.42 14.324 Z" fill="#000000" fill-rule="nonzero" fill-opacity="1" /><path clip-path="url(#clip390)" d="M1419.16 32.4315 Q1413.16 32.4315 1409.68 37.1306 Q1406.2 41.7891 1406.2 49.9314 Q1406.2 58.0738 1409.64 62.7728 Q1413.12 67.4314 1419.16 67.4314 Q1425.11 67.4314 1428.6 62.7323 Q1432.08 58.0333 1432.08 49.9314 Q1432.08 41.8701 1428.6 37.1711 Q1425.11 32.4315 1419.16 32.4315 M1419.16 26.1121 Q1428.88 26.1121 1434.43 32.4315 Q1439.98 38.7509 1439.98 49.9314 Q1439.98 61.0714 1434.43 67.4314 Q1428.88 73.7508 1419.16 73.7508 Q1409.4 73.7508 1403.85 67.4314 Q1398.34 61.0714 1398.34 49.9314 Q1398.34 38.7509 1403.85 32.4315 Q1409.4 26.1121 1419.16 26.1121 Z" fill="#000000" fill-rule="nonzero" fill-opacity="1" /><path clip-path="url(#clip390)" d="M1478.63 34.1734 Q1477.37 33.4443 1475.87 33.1202 Q1474.41 32.7556 1472.63 32.7556 Q1466.31 32.7556 1462.91 36.8875 Q1459.55 40.9789 1459.55 48.6757 L1459.55 72.576 L1452.05 72.576 L1452.05 27.2059 L1459.55 27.2059 L1459.55 34.2544 Q1461.9 30.1225 1465.66 28.1376 Q1469.43 26.1121 1474.82 26.1121 Q1475.59 26.1121 1476.52 26.2337 Q1477.45 26.3147 1478.59 26.5172 L1478.63 34.1734 Z" fill="#000000" fill-rule="nonzero" fill-opacity="1" /><path clip-path="url(#clip390)" d="M1505.32 76.7889 Q1502.16 84.8907 1499.17 87.3618 Q1496.17 89.8329 1491.14 89.8329 L1485.19 89.8329 L1485.19 83.5945 L1489.56 83.5945 Q1492.64 83.5945 1494.34 82.1361 Q1496.05 80.6778 1498.11 75.2496 L1499.45 71.8468 L1481.1 27.2059 L1489 27.2059 L1503.18 62.6918 L1517.35 27.2059 L1525.25 27.2059 L1505.32 76.7889 Z" fill="#000000" fill-rule="nonzero" fill-opacity="1" /><path clip-path="url(#clip390)" d="M1579.82 9.62495 Q1574.39 18.942 1571.76 28.0566 Q1569.12 37.1711 1569.12 46.5287 Q1569.12 55.8863 1571.76 65.0818 Q1574.43 74.2369 1579.82 83.5134 L1573.34 83.5134 Q1567.26 73.9938 1564.22 64.7983 Q1561.23 55.6027 1561.23 46.5287 Q1561.23 37.4952 1564.22 28.3401 Q1567.22 19.1851 1573.34 9.62495 L1579.82 9.62495 Z" fill="#000000" fill-rule="nonzero" fill-opacity="1" /><path clip-path="url(#clip390)" d="M1594.28 9.54393 L1601.73 9.54393 L1601.73 72.576 L1594.28 72.576 L1594.28 9.54393 Z" fill="#000000" fill-rule="nonzero" fill-opacity="1" /><path clip-path="url(#clip390)" d="M1637.95 49.7694 Q1628.92 49.7694 1625.43 51.8354 Q1621.95 53.9013 1621.95 58.8839 Q1621.95 62.8538 1624.54 65.2034 Q1627.17 67.5124 1631.67 67.5124 Q1637.87 67.5124 1641.6 63.1374 Q1645.36 58.7219 1645.36 51.4303 L1645.36 49.7694 L1637.95 49.7694 M1652.82 46.6907 L1652.82 72.576 L1645.36 72.576 L1645.36 65.6895 Q1642.81 69.8214 1639 71.8063 Q1635.19 73.7508 1629.69 73.7508 Q1622.72 73.7508 1618.59 69.8619 Q1614.49 65.9325 1614.49 59.3701 Q1614.49 51.7138 1619.6 47.825 Q1624.74 43.9361 1634.91 43.9361 L1645.36 43.9361 L1645.36 43.2069 Q1645.36 38.0623 1641.96 35.2672 Q1638.6 32.4315 1632.48 32.4315 Q1628.59 32.4315 1624.91 33.3632 Q1621.22 34.295 1617.82 36.1584 L1617.82 29.2718 Q1621.91 27.692 1625.76 26.9223 Q1629.6 26.1121 1633.25 26.1121 Q1643.09 26.1121 1647.96 31.2163 Q1652.82 36.3204 1652.82 46.6907 Z" fill="#000000" fill-rule="nonzero" fill-opacity="1" /><path clip-path="url(#clip390)" d="M1698.02 49.3643 Q1698.02 41.2625 1694.66 36.8065 Q1691.34 32.3505 1685.3 32.3505 Q1679.31 32.3505 1675.95 36.8065 Q1672.63 41.2625 1672.63 49.3643 Q1672.63 57.4256 1675.95 61.8816 Q1679.31 66.3376 1685.3 66.3376 Q1691.34 66.3376 1694.66 61.8816 Q1698.02 57.4256 1698.02 49.3643 M1705.48 66.9452 Q1705.48 78.5308 1700.33 84.1616 Q1695.19 89.8329 1684.58 89.8329 Q1680.65 89.8329 1677.16 89.2252 Q1673.68 88.6581 1670.4 87.4428 L1670.4 80.1917 Q1673.68 81.9741 1676.88 82.8248 Q1680.08 83.6755 1683.4 83.6755 Q1690.73 83.6755 1694.38 79.8271 Q1698.02 76.0193 1698.02 68.282 L1698.02 64.5957 Q1695.72 68.6061 1692.11 70.5911 Q1688.5 72.576 1683.48 72.576 Q1675.14 72.576 1670.03 66.2161 Q1664.93 59.8562 1664.93 49.3643 Q1664.93 38.832 1670.03 32.472 Q1675.14 26.1121 1683.48 26.1121 Q1688.5 26.1121 1692.11 28.0971 Q1695.72 30.082 1698.02 34.0924 L1698.02 27.2059 L1705.48 27.2059 L1705.48 66.9452 Z" fill="#000000" fill-rule="nonzero" fill-opacity="1" /><path clip-path="url(#clip390)" d="M1750.69 49.3643 Q1750.69 41.2625 1747.32 36.8065 Q1744 32.3505 1737.97 32.3505 Q1731.97 32.3505 1728.61 36.8065 Q1725.29 41.2625 1725.29 49.3643 Q1725.29 57.4256 1728.61 61.8816 Q1731.97 66.3376 1737.97 66.3376 Q1744 66.3376 1747.32 61.8816 Q1750.69 57.4256 1750.69 49.3643 M1758.14 66.9452 Q1758.14 78.5308 1753 84.1616 Q1747.85 89.8329 1737.24 89.8329 Q1733.31 89.8329 1729.82 89.2252 Q1726.34 88.6581 1723.06 87.4428 L1723.06 80.1917 Q1726.34 81.9741 1729.54 82.8248 Q1732.74 83.6755 1736.06 83.6755 Q1743.39 83.6755 1747.04 79.8271 Q1750.69 76.0193 1750.69 68.282 L1750.69 64.5957 Q1748.38 68.6061 1744.77 70.5911 Q1741.17 72.576 1736.14 72.576 Q1727.8 72.576 1722.69 66.2161 Q1717.59 59.8562 1717.59 49.3643 Q1717.59 38.832 1722.69 32.472 Q1727.8 26.1121 1736.14 26.1121 Q1741.17 26.1121 1744.77 28.0971 Q1748.38 30.082 1750.69 34.0924 L1750.69 27.2059 L1758.14 27.2059 L1758.14 66.9452 Z" fill="#000000" fill-rule="nonzero" fill-opacity="1" /><path clip-path="url(#clip390)" d="M1812.3 48.0275 L1812.3 51.6733 L1778.03 51.6733 Q1778.52 59.3701 1782.65 63.421 Q1786.82 67.4314 1794.23 67.4314 Q1798.53 67.4314 1802.54 66.3781 Q1806.59 65.3249 1810.56 63.2184 L1810.56 70.267 Q1806.55 71.9684 1802.34 72.8596 Q1798.12 73.7508 1793.79 73.7508 Q1782.93 73.7508 1776.57 67.4314 Q1770.25 61.1119 1770.25 50.3365 Q1770.25 39.1965 1776.25 32.6746 Q1782.28 26.1121 1792.49 26.1121 Q1801.65 26.1121 1806.95 32.0264 Q1812.3 37.9003 1812.3 48.0275 M1804.85 45.84 Q1804.77 39.7232 1801.4 36.0774 Q1798.08 32.4315 1792.57 32.4315 Q1786.33 32.4315 1782.57 35.9558 Q1778.84 39.4801 1778.27 45.8805 L1804.85 45.84 Z" fill="#000000" fill-rule="nonzero" fill-opacity="1" /><path clip-path="url(#clip390)" d="M1854.39 34.0924 L1854.39 9.54393 L1861.84 9.54393 L1861.84 72.576 L1854.39 72.576 L1854.39 65.7705 Q1852.04 69.8214 1848.43 71.8063 Q1844.87 73.7508 1839.85 73.7508 Q1831.62 73.7508 1826.44 67.1883 Q1821.29 60.6258 1821.29 49.9314 Q1821.29 39.2371 1826.44 32.6746 Q1831.62 26.1121 1839.85 26.1121 Q1844.87 26.1121 1848.43 28.0971 Q1852.04 30.0415 1854.39 34.0924 M1828.99 49.9314 Q1828.99 58.1548 1832.35 62.8538 Q1835.76 67.5124 1841.67 67.5124 Q1847.58 67.5124 1850.99 62.8538 Q1854.39 58.1548 1854.39 49.9314 Q1854.39 41.7081 1850.99 37.0496 Q1847.58 32.3505 1841.67 32.3505 Q1835.76 32.3505 1832.35 37.0496 Q1828.99 41.7081 1828.99 49.9314 Z" fill="#000000" fill-rule="nonzero" fill-opacity="1" /><path clip-path="url(#clip390)" d="M1938.89 35.9153 Q1941.69 30.8922 1945.58 28.5022 Q1949.46 26.1121 1954.73 26.1121 Q1961.82 26.1121 1965.67 31.0947 Q1969.52 36.0368 1969.52 45.1919 L1969.52 72.576 L1962.02 72.576 L1962.02 45.4349 Q1962.02 38.913 1959.71 35.7533 Q1957.4 32.5936 1952.66 32.5936 Q1946.87 32.5936 1943.51 36.4419 Q1940.15 40.2903 1940.15 46.9338 L1940.15 72.576 L1932.65 72.576 L1932.65 45.4349 Q1932.65 38.8725 1930.34 35.7533 Q1928.03 32.5936 1923.21 32.5936 Q1917.5 32.5936 1914.14 36.4824 Q1910.78 40.3308 1910.78 46.9338 L1910.78 72.576 L1903.28 72.576 L1903.28 27.2059 L1910.78 27.2059 L1910.78 34.2544 Q1913.33 30.082 1916.89 28.0971 Q1920.46 26.1121 1925.36 26.1121 Q1930.3 26.1121 1933.75 28.6237 Q1937.23 31.1352 1938.89 35.9153 Z" fill="#000000" fill-rule="nonzero" fill-opacity="1" /><path clip-path="url(#clip390)" d="M2001.96 32.4315 Q1995.97 32.4315 1992.48 37.1306 Q1989 41.7891 1989 49.9314 Q1989 58.0738 1992.44 62.7728 Q1995.93 67.4314 2001.96 67.4314 Q2007.92 67.4314 2011.4 62.7323 Q2014.89 58.0333 2014.89 49.9314 Q2014.89 41.8701 2011.4 37.1711 Q2007.92 32.4315 2001.96 32.4315 M2001.96 26.1121 Q2011.69 26.1121 2017.24 32.4315 Q2022.79 38.7509 2022.79 49.9314 Q2022.79 61.0714 2017.24 67.4314 Q2011.69 73.7508 2001.96 73.7508 Q1992.2 73.7508 1986.65 67.4314 Q1981.14 61.0714 1981.14 49.9314 Q1981.14 38.7509 1986.65 32.4315 Q1992.2 26.1121 2001.96 26.1121 Z" fill="#000000" fill-rule="nonzero" fill-opacity="1" /><path clip-path="url(#clip390)" d="M2065 34.0924 L2065 9.54393 L2072.45 9.54393 L2072.45 72.576 L2065 72.576 L2065 65.7705 Q2062.65 69.8214 2059.04 71.8063 Q2055.48 73.7508 2050.45 73.7508 Q2042.23 73.7508 2037.04 67.1883 Q2031.9 60.6258 2031.9 49.9314 Q2031.9 39.2371 2037.04 32.6746 Q2042.23 26.1121 2050.45 26.1121 Q2055.48 26.1121 2059.04 28.0971 Q2062.65 30.0415 2065 34.0924 M2039.6 49.9314 Q2039.6 58.1548 2042.96 62.8538 Q2046.36 67.5124 2052.28 67.5124 Q2058.19 67.5124 2061.59 62.8538 Q2065 58.1548 2065 49.9314 Q2065 41.7081 2061.59 37.0496 Q2058.19 32.3505 2052.28 32.3505 Q2046.36 32.3505 2042.96 37.0496 Q2039.6 41.7081 2039.6 49.9314 Z" fill="#000000" fill-rule="nonzero" fill-opacity="1" /><path clip-path="url(#clip390)" d="M2126.61 48.0275 L2126.61 51.6733 L2092.34 51.6733 Q2092.83 59.3701 2096.96 63.421 Q2101.13 67.4314 2108.54 67.4314 Q2112.84 67.4314 2116.85 66.3781 Q2120.9 65.3249 2124.87 63.2184 L2124.87 70.267 Q2120.86 71.9684 2116.64 72.8596 Q2112.43 73.7508 2108.1 73.7508 Q2097.24 73.7508 2090.88 67.4314 Q2084.56 61.1119 2084.56 50.3365 Q2084.56 39.1965 2090.56 32.6746 Q2096.59 26.1121 2106.8 26.1121 Q2115.96 26.1121 2121.26 32.0264 Q2126.61 37.9003 2126.61 48.0275 M2119.16 45.84 Q2119.08 39.7232 2115.71 36.0774 Q2112.39 32.4315 2106.88 32.4315 Q2100.64 32.4315 2096.88 35.9558 Q2093.15 39.4801 2092.58 45.8805 L2119.16 45.84 Z" fill="#000000" fill-rule="nonzero" fill-opacity="1" /><path clip-path="url(#clip390)" d="M2138.84 9.54393 L2146.3 9.54393 L2146.3 72.576 L2138.84 72.576 L2138.84 9.54393 Z" fill="#000000" fill-rule="nonzero" fill-opacity="1" /><path clip-path="url(#clip390)" d="M2160.72 9.62495 L2167.2 9.62495 Q2173.28 19.1851 2176.27 28.3401 Q2179.31 37.4952 2179.31 46.5287 Q2179.31 55.6027 2176.27 64.7983 Q2173.28 73.9938 2167.2 83.5134 L2160.72 83.5134 Q2166.11 74.2369 2168.74 65.0818 Q2171.41 55.8863 2171.41 46.5287 Q2171.41 37.1711 2168.74 28.0566 Q2166.11 18.942 2160.72 9.62495 Z" fill="#000000" fill-rule="nonzero" fill-opacity="1" /><polyline clip-path="url(#clip391)" style="stroke:#009af9; stroke-linecap:round; stroke-linejoin:round; stroke-width:8; stroke-opacity:1; fill:none" points="277.339,1688.65 323.231,1629.04 369.122,1603.48 415.014,1599.76 460.905,1541.53 506.797,1513.46 552.689,1507.9 598.58,1453.92 644.472,1423.64 690.363,1416.19 736.255,1366.02 782.147,1333.99 828.038,1324.66 873.93,1277.86 919.821,1244.48 965.713,1233.29 1011.6,1189.45 1057.5,1155.08 1103.39,1142.07 1149.28,1100.83 1195.17,1065.75 1241.06,1051.02 1286.95,1012.02 1332.85,976.475 1378.74,960.108 1424.63,923.041 1470.52,887.236 1516.41,869.335 1562.3,833.917 1608.2,798.016 1654.09,778.691 1699.98,744.668 1745.87,708.804 1791.76,688.165 1837.65,655.312 1883.54,619.589 1929.44,597.747 1975.33,565.866 2021.22,530.363 2067.11,507.427 2113,476.345 2158.89,441.121 2204.79,417.196 2250.68,386.762 2296.57,351.857 2342.46,327.046 2388.35,297.129 2434.24,262.569 2480.14,236.966 2526.03,207.455 2571.92,173.254 "/>
<path clip-path="url(#clip390)" d="M289.577 285.016 L702.639 285.016 L702.639 181.336 L289.577 181.336  Z" fill="#ffffff" fill-rule="evenodd" fill-opacity="1"/>
<polyline clip-path="url(#clip390)" style="stroke:#000000; stroke-linecap:round; stroke-linejoin:round; stroke-width:4; stroke-opacity:1; fill:none" points="289.577,285.016 702.639,285.016 702.639,181.336 289.577,181.336 289.577,285.016 "/>
<polyline clip-path="url(#clip390)" style="stroke:#009af9; stroke-linecap:round; stroke-linejoin:round; stroke-width:8; stroke-opacity:1; fill:none" points="316.602,233.176 478.752,233.176 "/>
<path clip-path="url(#clip390)" d="M505.777 214.438 L510.037 214.438 L510.037 250.456 L505.777 250.456 L505.777 214.438 Z" fill="#000000" fill-rule="nonzero" fill-opacity="1" /><path clip-path="url(#clip390)" d="M528.995 227.517 Q525.569 227.517 523.578 230.202 Q521.587 232.864 521.587 237.517 Q521.587 242.169 523.555 244.854 Q525.546 247.516 528.995 247.516 Q532.397 247.516 534.388 244.831 Q536.379 242.146 536.379 237.517 Q536.379 232.91 534.388 230.225 Q532.397 227.517 528.995 227.517 M528.995 223.906 Q534.55 223.906 537.722 227.517 Q540.893 231.128 540.893 237.517 Q540.893 243.882 537.722 247.516 Q534.55 251.128 528.995 251.128 Q523.416 251.128 520.245 247.516 Q517.097 243.882 517.097 237.517 Q517.097 231.128 520.245 227.517 Q523.416 223.906 528.995 223.906 Z" fill="#000000" fill-rule="nonzero" fill-opacity="1" /><path clip-path="url(#clip390)" d="M565.013 237.192 Q565.013 232.563 563.092 230.017 Q561.194 227.47 557.745 227.47 Q554.319 227.47 552.397 230.017 Q550.499 232.563 550.499 237.192 Q550.499 241.799 552.397 244.345 Q554.319 246.891 557.745 246.891 Q561.194 246.891 563.092 244.345 Q565.013 241.799 565.013 237.192 M569.272 247.239 Q569.272 253.859 566.332 257.077 Q563.393 260.317 557.328 260.317 Q555.083 260.317 553.092 259.97 Q551.101 259.646 549.226 258.952 L549.226 254.808 Q551.101 255.827 552.93 256.313 Q554.758 256.799 556.657 256.799 Q560.846 256.799 562.93 254.6 Q565.013 252.424 565.013 248.003 L565.013 245.896 Q563.694 248.188 561.633 249.322 Q559.573 250.456 556.703 250.456 Q551.934 250.456 549.018 246.822 Q546.101 243.188 546.101 237.192 Q546.101 231.174 549.018 227.54 Q551.934 223.906 556.703 223.906 Q559.573 223.906 561.633 225.04 Q563.694 226.174 565.013 228.466 L565.013 224.531 L569.272 224.531 L569.272 247.239 Z" fill="#000000" fill-rule="nonzero" fill-opacity="1" /><path clip-path="url(#clip390)" d="M593.3 215.896 L599.596 215.896 L614.92 244.808 L614.92 215.896 L619.457 215.896 L619.457 250.456 L613.161 250.456 L597.837 221.544 L597.837 250.456 L593.3 250.456 L593.3 215.896 Z" fill="#000000" fill-rule="nonzero" fill-opacity="1" /><path clip-path="url(#clip390)" d="M638.809 214.484 Q635.707 219.808 634.203 225.017 Q632.698 230.225 632.698 235.572 Q632.698 240.919 634.203 246.174 Q635.73 251.405 638.809 256.706 L635.105 256.706 Q631.633 251.266 629.897 246.012 Q628.184 240.757 628.184 235.572 Q628.184 230.41 629.897 225.179 Q631.61 219.947 635.105 214.484 L638.809 214.484 Z" fill="#000000" fill-rule="nonzero" fill-opacity="1" /><path clip-path="url(#clip390)" d="M651.286 217.169 L651.286 224.531 L660.059 224.531 L660.059 227.841 L651.286 227.841 L651.286 241.915 Q651.286 245.086 652.142 245.989 Q653.022 246.891 655.684 246.891 L660.059 246.891 L660.059 250.456 L655.684 250.456 Q650.753 250.456 648.878 248.628 Q647.003 246.776 647.003 241.915 L647.003 227.841 L643.878 227.841 L643.878 224.531 L647.003 224.531 L647.003 217.169 L651.286 217.169 Z" fill="#000000" fill-rule="nonzero" fill-opacity="1" /><path clip-path="url(#clip390)" d="M664.989 214.484 L668.693 214.484 Q672.165 219.947 673.878 225.179 Q675.614 230.41 675.614 235.572 Q675.614 240.757 673.878 246.012 Q672.165 251.266 668.693 256.706 L664.989 256.706 Q668.068 251.405 669.573 246.174 Q671.1 240.919 671.1 235.572 Q671.1 230.225 669.573 225.017 Q668.068 219.808 664.989 214.484 Z" fill="#000000" fill-rule="nonzero" fill-opacity="1" /></svg>
