<?xml version="1.0" encoding="utf-8"?>
<svg xmlns="http://www.w3.org/2000/svg" xmlns:xlink="http://www.w3.org/1999/xlink" width="672" height="480" viewBox="0 0 2688 1920">
<defs>
  <clipPath id="clip480">
    <rect x="0" y="0" width="2688" height="1920"/>
  </clipPath>
</defs>
<path clip-path="url(#clip480)" d="M0 1920 L2688 1920 L2688 -4.26326e-14 L0 -4.26326e-14  Z" fill="#ffffff" fill-rule="evenodd" fill-opacity="1"/>
<defs>
  <clipPath id="clip481">
    <rect x="208" y="127" width="2433" height="1607"/>
  </clipPath>
</defs>
<path clip-path="url(#clip480)" d="M208.988 1734.12 L2640.76 1734.12 L2640.76 127.792 L208.988 127.792  Z" fill="#ffffff" fill-rule="evenodd" fill-opacity="1"/>
<polyline clip-path="url(#clip481)" style="stroke:#000000; stroke-linecap:round; stroke-linejoin:round; stroke-width:2; stroke-opacity:0.1; fill:none" points="277.811,1734.12 277.811,127.792 "/>
<polyline clip-path="url(#clip481)" style="stroke:#000000; stroke-linecap:round; stroke-linejoin:round; stroke-width:2; stroke-opacity:0.1; fill:none" points="736.636,1734.12 736.636,127.792 "/>
<polyline clip-path="url(#clip481)" style="stroke:#000000; stroke-linecap:round; stroke-linejoin:round; stroke-width:2; stroke-opacity:0.1; fill:none" points="1195.46,1734.12 1195.46,127.792 "/>
<polyline clip-path="url(#clip481)" style="stroke:#000000; stroke-linecap:round; stroke-linejoin:round; stroke-width:2; stroke-opacity:0.1; fill:none" points="1654.28,1734.12 1654.28,127.792 "/>
<polyline clip-path="url(#clip481)" style="stroke:#000000; stroke-linecap:round; stroke-linejoin:round; stroke-width:2; stroke-opacity:0.1; fill:none" points="2113.11,1734.12 2113.11,127.792 "/>
<polyline clip-path="url(#clip481)" style="stroke:#000000; stroke-linecap:round; stroke-linejoin:round; stroke-width:2; stroke-opacity:0.1; fill:none" points="2571.93,1734.12 2571.93,127.792 "/>
<polyline clip-path="url(#clip481)" style="stroke:#000000; stroke-linecap:round; stroke-linejoin:round; stroke-width:2; stroke-opacity:0.1; fill:none" points="208.988,1541.94 2640.76,1541.94 "/>
<polyline clip-path="url(#clip481)" style="stroke:#000000; stroke-linecap:round; stroke-linejoin:round; stroke-width:2; stroke-opacity:0.1; fill:none" points="208.988,1290.45 2640.76,1290.45 "/>
<polyline clip-path="url(#clip481)" style="stroke:#000000; stroke-linecap:round; stroke-linejoin:round; stroke-width:2; stroke-opacity:0.1; fill:none" points="208.988,1038.96 2640.76,1038.96 "/>
<polyline clip-path="url(#clip481)" style="stroke:#000000; stroke-linecap:round; stroke-linejoin:round; stroke-width:2; stroke-opacity:0.1; fill:none" points="208.988,787.472 2640.76,787.472 "/>
<polyline clip-path="url(#clip481)" style="stroke:#000000; stroke-linecap:round; stroke-linejoin:round; stroke-width:2; stroke-opacity:0.1; fill:none" points="208.988,535.984 2640.76,535.984 "/>
<polyline clip-path="url(#clip481)" style="stroke:#000000; stroke-linecap:round; stroke-linejoin:round; stroke-width:2; stroke-opacity:0.1; fill:none" points="208.988,284.495 2640.76,284.495 "/>
<polyline clip-path="url(#clip480)" style="stroke:#000000; stroke-linecap:round; stroke-linejoin:round; stroke-width:4; stroke-opacity:1; fill:none" points="208.988,1734.12 2640.76,1734.12 "/>
<polyline clip-path="url(#clip480)" style="stroke:#000000; stroke-linecap:round; stroke-linejoin:round; stroke-width:4; stroke-opacity:1; fill:none" points="277.811,1734.12 277.811,1715.22 "/>
<polyline clip-path="url(#clip480)" style="stroke:#000000; stroke-linecap:round; stroke-linejoin:round; stroke-width:4; stroke-opacity:1; fill:none" points="736.636,1734.12 736.636,1715.22 "/>
<polyline clip-path="url(#clip480)" style="stroke:#000000; stroke-linecap:round; stroke-linejoin:round; stroke-width:4; stroke-opacity:1; fill:none" points="1195.46,1734.12 1195.46,1715.22 "/>
<polyline clip-path="url(#clip480)" style="stroke:#000000; stroke-linecap:round; stroke-linejoin:round; stroke-width:4; stroke-opacity:1; fill:none" points="1654.28,1734.12 1654.28,1715.22 "/>
<polyline clip-path="url(#clip480)" style="stroke:#000000; stroke-linecap:round; stroke-linejoin:round; stroke-width:4; stroke-opacity:1; fill:none" points="2113.11,1734.12 2113.11,1715.22 "/>
<polyline clip-path="url(#clip480)" style="stroke:#000000; stroke-linecap:round; stroke-linejoin:round; stroke-width:4; stroke-opacity:1; fill:none" points="2571.93,1734.12 2571.93,1715.22 "/>
<path clip-path="url(#clip480)" d="M277.811 1767.34 Q274.2 1767.34 272.372 1770.9 Q270.566 1774.45 270.566 1781.58 Q270.566 1788.68 272.372 1792.25 Q274.2 1795.79 277.811 1795.79 Q281.446 1795.79 283.251 1792.25 Q285.08 1788.68 285.08 1781.58 Q285.08 1774.45 283.251 1770.9 Q281.446 1767.34 277.811 1767.34 M277.811 1763.64 Q283.622 1763.64 286.677 1768.24 Q289.756 1772.83 289.756 1781.58 Q289.756 1790.3 286.677 1794.91 Q283.622 1799.49 277.811 1799.49 Q272.001 1799.49 268.923 1794.91 Q265.867 1790.3 265.867 1781.58 Q265.867 1772.83 268.923 1768.24 Q272.001 1763.64 277.811 1763.64 Z" fill="#000000" fill-rule="nonzero" fill-opacity="1" /><path clip-path="url(#clip480)" d="M711.323 1794.89 L718.962 1794.89 L718.962 1768.52 L710.652 1770.19 L710.652 1765.93 L718.916 1764.26 L723.592 1764.26 L723.592 1794.89 L731.231 1794.89 L731.231 1798.82 L711.323 1798.82 L711.323 1794.89 Z" fill="#000000" fill-rule="nonzero" fill-opacity="1" /><path clip-path="url(#clip480)" d="M750.675 1767.34 Q747.064 1767.34 745.235 1770.9 Q743.43 1774.45 743.43 1781.58 Q743.43 1788.68 745.235 1792.25 Q747.064 1795.79 750.675 1795.79 Q754.309 1795.79 756.115 1792.25 Q757.943 1788.68 757.943 1781.58 Q757.943 1774.45 756.115 1770.9 Q754.309 1767.34 750.675 1767.34 M750.675 1763.64 Q756.485 1763.64 759.541 1768.24 Q762.619 1772.83 762.619 1781.58 Q762.619 1790.3 759.541 1794.91 Q756.485 1799.49 750.675 1799.49 Q744.865 1799.49 741.786 1794.91 Q738.731 1790.3 738.731 1781.58 Q738.731 1772.83 741.786 1768.24 Q744.865 1763.64 750.675 1763.64 Z" fill="#000000" fill-rule="nonzero" fill-opacity="1" /><path clip-path="url(#clip480)" d="M1174.23 1794.89 L1190.55 1794.89 L1190.55 1798.82 L1168.61 1798.82 L1168.61 1794.89 Q1171.27 1792.13 1175.85 1787.5 Q1180.46 1782.85 1181.64 1781.51 Q1183.89 1778.98 1184.77 1777.25 Q1185.67 1775.49 1185.67 1773.8 Q1185.67 1771.04 1183.72 1769.31 Q1181.8 1767.57 1178.7 1767.57 Q1176.5 1767.57 1174.05 1768.34 Q1171.62 1769.1 1168.84 1770.65 L1168.84 1765.93 Q1171.66 1764.79 1174.12 1764.21 Q1176.57 1763.64 1178.61 1763.64 Q1183.98 1763.64 1187.17 1766.32 Q1190.37 1769.01 1190.37 1773.5 Q1190.37 1775.63 1189.56 1777.55 Q1188.77 1779.45 1186.66 1782.04 Q1186.08 1782.71 1182.98 1785.93 Q1179.88 1789.12 1174.23 1794.89 Z" fill="#000000" fill-rule="nonzero" fill-opacity="1" /><path clip-path="url(#clip480)" d="M1210.37 1767.34 Q1206.76 1767.34 1204.93 1770.9 Q1203.12 1774.45 1203.12 1781.58 Q1203.12 1788.68 1204.93 1792.25 Q1206.76 1795.79 1210.37 1795.79 Q1214 1795.79 1215.81 1792.25 Q1217.64 1788.68 1217.64 1781.58 Q1217.64 1774.45 1215.81 1770.9 Q1214 1767.34 1210.37 1767.34 M1210.37 1763.64 Q1216.18 1763.64 1219.23 1768.24 Q1222.31 1772.83 1222.31 1781.58 Q1222.31 1790.3 1219.23 1794.91 Q1216.18 1799.49 1210.37 1799.49 Q1204.56 1799.49 1201.48 1794.91 Q1198.42 1790.3 1198.42 1781.58 Q1198.42 1772.83 1201.48 1768.24 Q1204.56 1763.64 1210.37 1763.64 Z" fill="#000000" fill-rule="nonzero" fill-opacity="1" /><path clip-path="url(#clip480)" d="M1643.13 1780.19 Q1646.48 1780.9 1648.36 1783.17 Q1650.26 1785.44 1650.26 1788.77 Q1650.26 1793.89 1646.74 1796.69 Q1643.22 1799.49 1636.74 1799.49 Q1634.56 1799.49 1632.25 1799.05 Q1629.96 1798.64 1627.5 1797.78 L1627.5 1793.27 Q1629.45 1794.4 1631.76 1794.98 Q1634.08 1795.56 1636.6 1795.56 Q1641 1795.56 1643.29 1793.82 Q1645.6 1792.08 1645.6 1788.77 Q1645.6 1785.72 1643.45 1784.01 Q1641.32 1782.27 1637.5 1782.27 L1633.47 1782.27 L1633.47 1778.43 L1637.69 1778.43 Q1641.14 1778.43 1642.96 1777.06 Q1644.79 1775.67 1644.79 1773.08 Q1644.79 1770.42 1642.9 1769.01 Q1641.02 1767.57 1637.5 1767.57 Q1635.58 1767.57 1633.38 1767.99 Q1631.18 1768.4 1628.54 1769.28 L1628.54 1765.12 Q1631.21 1764.38 1633.52 1764.01 Q1635.86 1763.64 1637.92 1763.64 Q1643.24 1763.64 1646.34 1766.07 Q1649.45 1768.47 1649.45 1772.59 Q1649.45 1775.46 1647.8 1777.46 Q1646.16 1779.42 1643.13 1780.19 Z" fill="#000000" fill-rule="nonzero" fill-opacity="1" /><path clip-path="url(#clip480)" d="M1669.12 1767.34 Q1665.51 1767.34 1663.68 1770.9 Q1661.88 1774.45 1661.88 1781.58 Q1661.88 1788.68 1663.68 1792.25 Q1665.51 1795.79 1669.12 1795.79 Q1672.76 1795.79 1674.56 1792.25 Q1676.39 1788.68 1676.39 1781.58 Q1676.39 1774.45 1674.56 1770.9 Q1672.76 1767.34 1669.12 1767.34 M1669.12 1763.64 Q1674.93 1763.64 1677.99 1768.24 Q1681.07 1772.83 1681.07 1781.58 Q1681.07 1790.3 1677.99 1794.91 Q1674.93 1799.49 1669.12 1799.49 Q1663.31 1799.49 1660.23 1794.91 Q1657.18 1790.3 1657.18 1781.58 Q1657.18 1772.83 1660.23 1768.24 Q1663.31 1763.64 1669.12 1763.64 Z" fill="#000000" fill-rule="nonzero" fill-opacity="1" /><path clip-path="url(#clip480)" d="M2101.28 1768.34 L2089.47 1786.78 L2101.28 1786.78 L2101.28 1768.34 M2100.05 1764.26 L2105.93 1764.26 L2105.93 1786.78 L2110.86 1786.78 L2110.86 1790.67 L2105.93 1790.67 L2105.93 1798.82 L2101.28 1798.82 L2101.28 1790.67 L2085.68 1790.67 L2085.68 1786.16 L2100.05 1764.26 Z" fill="#000000" fill-rule="nonzero" fill-opacity="1" /><path clip-path="url(#clip480)" d="M2128.59 1767.34 Q2124.98 1767.34 2123.15 1770.9 Q2121.35 1774.45 2121.35 1781.58 Q2121.35 1788.68 2123.15 1792.25 Q2124.98 1795.79 2128.59 1795.79 Q2132.23 1795.79 2134.03 1792.25 Q2135.86 1788.68 2135.86 1781.58 Q2135.86 1774.45 2134.03 1770.9 Q2132.23 1767.34 2128.59 1767.34 M2128.59 1763.64 Q2134.4 1763.64 2137.46 1768.24 Q2140.54 1772.83 2140.54 1781.58 Q2140.54 1790.3 2137.46 1794.91 Q2134.4 1799.49 2128.59 1799.49 Q2122.78 1799.49 2119.71 1794.91 Q2116.65 1790.3 2116.65 1781.58 Q2116.65 1772.83 2119.71 1768.24 Q2122.78 1763.64 2128.59 1763.64 Z" fill="#000000" fill-rule="nonzero" fill-opacity="1" /><path clip-path="url(#clip480)" d="M2546.63 1764.26 L2564.99 1764.26 L2564.99 1768.2 L2550.91 1768.2 L2550.91 1776.67 Q2551.93 1776.32 2552.95 1776.16 Q2553.97 1775.97 2554.99 1775.97 Q2560.77 1775.97 2564.15 1779.15 Q2567.53 1782.32 2567.53 1787.73 Q2567.53 1793.31 2564.06 1796.41 Q2560.59 1799.49 2554.27 1799.49 Q2552.09 1799.49 2549.83 1799.12 Q2547.58 1798.75 2545.17 1798.01 L2545.17 1793.31 Q2547.26 1794.45 2549.48 1795 Q2551.7 1795.56 2554.18 1795.56 Q2558.18 1795.56 2560.52 1793.45 Q2562.86 1791.34 2562.86 1787.73 Q2562.86 1784.12 2560.52 1782.02 Q2558.18 1779.91 2554.18 1779.91 Q2552.3 1779.91 2550.43 1780.33 Q2548.58 1780.74 2546.63 1781.62 L2546.63 1764.26 Z" fill="#000000" fill-rule="nonzero" fill-opacity="1" /><path clip-path="url(#clip480)" d="M2586.75 1767.34 Q2583.14 1767.34 2581.31 1770.9 Q2579.5 1774.45 2579.5 1781.58 Q2579.5 1788.68 2581.31 1792.25 Q2583.14 1795.79 2586.75 1795.79 Q2590.38 1795.79 2592.19 1792.25 Q2594.02 1788.68 2594.02 1781.58 Q2594.02 1774.45 2592.19 1770.9 Q2590.38 1767.34 2586.75 1767.34 M2586.75 1763.64 Q2592.56 1763.64 2595.61 1768.24 Q2598.69 1772.83 2598.69 1781.58 Q2598.69 1790.3 2595.61 1794.91 Q2592.56 1799.49 2586.75 1799.49 Q2580.94 1799.49 2577.86 1794.91 Q2574.8 1790.3 2574.8 1781.58 Q2574.8 1772.83 2577.86 1768.24 Q2580.94 1763.64 2586.75 1763.64 Z" fill="#000000" fill-rule="nonzero" fill-opacity="1" /><path clip-path="url(#clip480)" d="M1265.94 1835.78 L1306.14 1835.78 L1306.14 1841.19 L1289.27 1841.19 L1289.27 1883.3 L1282.81 1883.3 L1282.81 1841.19 L1265.94 1841.19 L1265.94 1835.78 Z" fill="#000000" fill-rule="nonzero" fill-opacity="1" /><path clip-path="url(#clip480)" d="M1310.08 1847.65 L1315.94 1847.65 L1315.94 1883.3 L1310.08 1883.3 L1310.08 1847.65 M1310.08 1833.78 L1315.94 1833.78 L1315.94 1841.19 L1310.08 1841.19 L1310.08 1833.78 Z" fill="#000000" fill-rule="nonzero" fill-opacity="1" /><path clip-path="url(#clip480)" d="M1355.95 1854.5 Q1358.14 1850.55 1361.2 1848.67 Q1364.25 1846.79 1368.39 1846.79 Q1373.96 1846.79 1376.99 1850.71 Q1380.01 1854.59 1380.01 1861.78 L1380.01 1883.3 L1374.12 1883.3 L1374.12 1861.98 Q1374.12 1856.85 1372.31 1854.37 Q1370.49 1851.89 1366.77 1851.89 Q1362.22 1851.89 1359.58 1854.91 Q1356.93 1857.93 1356.93 1863.15 L1356.93 1883.3 L1351.05 1883.3 L1351.05 1861.98 Q1351.05 1856.82 1349.23 1854.37 Q1347.42 1851.89 1343.63 1851.89 Q1339.14 1851.89 1336.5 1854.94 Q1333.86 1857.97 1333.86 1863.15 L1333.86 1883.3 L1327.97 1883.3 L1327.97 1847.65 L1333.86 1847.65 L1333.86 1853.19 Q1335.86 1849.91 1338.66 1848.35 Q1341.47 1846.79 1345.32 1846.79 Q1349.2 1846.79 1351.9 1848.77 Q1354.64 1850.74 1355.95 1854.5 Z" fill="#000000" fill-rule="nonzero" fill-opacity="1" /><path clip-path="url(#clip480)" d="M1422.18 1864.01 L1422.18 1866.88 L1395.26 1866.88 Q1395.64 1872.92 1398.88 1876.11 Q1402.16 1879.26 1407.99 1879.26 Q1411.36 1879.26 1414.51 1878.43 Q1417.69 1877.6 1420.81 1875.95 L1420.81 1881.49 Q1417.66 1882.82 1414.35 1883.52 Q1411.04 1884.22 1407.64 1884.22 Q1399.11 1884.22 1394.11 1879.26 Q1389.14 1874.29 1389.14 1865.83 Q1389.14 1857.07 1393.85 1851.95 Q1398.6 1846.79 1406.62 1846.79 Q1413.81 1846.79 1417.98 1851.44 Q1422.18 1856.06 1422.18 1864.01 M1416.33 1862.29 Q1416.26 1857.49 1413.62 1854.62 Q1411.01 1851.76 1406.68 1851.76 Q1401.78 1851.76 1398.82 1854.53 Q1395.89 1857.3 1395.45 1862.33 L1416.33 1862.29 Z" fill="#000000" fill-rule="nonzero" fill-opacity="1" /><path clip-path="url(#clip480)" d="M1475.24 1848.7 L1475.24 1854.24 Q1472.76 1852.97 1470.08 1852.33 Q1467.41 1851.7 1464.55 1851.7 Q1460.19 1851.7 1457.99 1853.03 Q1455.83 1854.37 1455.83 1857.04 Q1455.83 1859.08 1457.38 1860.26 Q1458.94 1861.4 1463.65 1862.45 L1465.66 1862.9 Q1471.9 1864.24 1474.51 1866.69 Q1477.15 1869.11 1477.15 1873.47 Q1477.15 1878.43 1473.2 1881.33 Q1469.29 1884.22 1462.41 1884.22 Q1459.55 1884.22 1456.43 1883.65 Q1453.34 1883.11 1449.91 1882 L1449.91 1875.95 Q1453.15 1877.64 1456.3 1878.49 Q1459.45 1879.32 1462.54 1879.32 Q1466.68 1879.32 1468.91 1877.92 Q1471.13 1876.49 1471.13 1873.91 Q1471.13 1871.52 1469.51 1870.25 Q1467.92 1868.98 1462.48 1867.8 L1460.44 1867.32 Q1455 1866.18 1452.58 1863.82 Q1450.16 1861.43 1450.16 1857.3 Q1450.16 1852.27 1453.72 1849.53 Q1457.29 1846.79 1463.85 1846.79 Q1467.09 1846.79 1469.96 1847.27 Q1472.82 1847.75 1475.24 1848.7 Z" fill="#000000" fill-rule="nonzero" fill-opacity="1" /><path clip-path="url(#clip480)" d="M1492.27 1837.53 L1492.27 1847.65 L1504.33 1847.65 L1504.33 1852.2 L1492.27 1852.2 L1492.27 1871.56 Q1492.27 1875.92 1493.45 1877.16 Q1494.66 1878.4 1498.32 1878.4 L1504.33 1878.4 L1504.33 1883.3 L1498.32 1883.3 Q1491.54 1883.3 1488.96 1880.79 Q1486.38 1878.24 1486.38 1871.56 L1486.38 1852.2 L1482.08 1852.2 L1482.08 1847.65 L1486.38 1847.65 L1486.38 1837.53 L1492.27 1837.53 Z" fill="#000000" fill-rule="nonzero" fill-opacity="1" /><path clip-path="url(#clip480)" d="M1542.53 1864.01 L1542.53 1866.88 L1515.6 1866.88 Q1515.98 1872.92 1519.23 1876.11 Q1522.51 1879.26 1528.33 1879.26 Q1531.7 1879.26 1534.86 1878.43 Q1538.04 1877.6 1541.16 1875.95 L1541.16 1881.49 Q1538.01 1882.82 1534.7 1883.52 Q1531.39 1884.22 1527.98 1884.22 Q1519.45 1884.22 1514.45 1879.26 Q1509.49 1874.29 1509.49 1865.83 Q1509.49 1857.07 1514.2 1851.95 Q1518.94 1846.79 1526.96 1846.79 Q1534.16 1846.79 1538.32 1851.44 Q1542.53 1856.06 1542.53 1864.01 M1536.67 1862.29 Q1536.61 1857.49 1533.96 1854.62 Q1531.35 1851.76 1527.03 1851.76 Q1522.12 1851.76 1519.16 1854.53 Q1516.24 1857.3 1515.79 1862.33 L1536.67 1862.29 Z" fill="#000000" fill-rule="nonzero" fill-opacity="1" /><path clip-path="url(#clip480)" d="M1557.8 1877.95 L1557.8 1896.86 L1551.92 1896.86 L1551.92 1847.65 L1557.8 1847.65 L1557.8 1853.06 Q1559.65 1849.88 1562.45 1848.35 Q1565.28 1846.79 1569.2 1846.79 Q1575.69 1846.79 1579.73 1851.95 Q1583.81 1857.11 1583.81 1865.51 Q1583.81 1873.91 1579.73 1879.07 Q1575.69 1884.22 1569.2 1884.22 Q1565.28 1884.22 1562.45 1882.7 Q1559.65 1881.14 1557.8 1877.95 M1577.73 1865.51 Q1577.73 1859.05 1575.05 1855.39 Q1572.41 1851.7 1567.77 1851.7 Q1563.12 1851.7 1560.45 1855.39 Q1557.8 1859.05 1557.8 1865.51 Q1557.8 1871.97 1560.45 1875.66 Q1563.12 1879.32 1567.77 1879.32 Q1572.41 1879.32 1575.05 1875.66 Q1577.73 1871.97 1577.73 1865.51 Z" fill="#000000" fill-rule="nonzero" fill-opacity="1" /><polyline clip-path="url(#clip480)" style="stroke:#000000; stroke-linecap:round; stroke-linejoin:round; stroke-width:4; stroke-opacity:1; fill:none" points="208.988,1734.12 208.988,127.792 "/>
<polyline clip-path="url(#clip480)" style="stroke:#000000; stroke-linecap:round; stroke-linejoin:round; stroke-width:4; stroke-opacity:1; fill:none" points="208.988,1541.94 227.886,1541.94 "/>
<polyline clip-path="url(#clip480)" style="stroke:#000000; stroke-linecap:round; stroke-linejoin:round; stroke-width:4; stroke-opacity:1; fill:none" points="208.988,1290.45 227.886,1290.45 "/>
<polyline clip-path="url(#clip480)" style="stroke:#000000; stroke-linecap:round; stroke-linejoin:round; stroke-width:4; stroke-opacity:1; fill:none" points="208.988,1038.96 227.886,1038.96 "/>
<polyline clip-path="url(#clip480)" style="stroke:#000000; stroke-linecap:round; stroke-linejoin:round; stroke-width:4; stroke-opacity:1; fill:none" points="208.988,787.472 227.886,787.472 "/>
<polyline clip-path="url(#clip480)" style="stroke:#000000; stroke-linecap:round; stroke-linejoin:round; stroke-width:4; stroke-opacity:1; fill:none" points="208.988,535.984 227.886,535.984 "/>
<polyline clip-path="url(#clip480)" style="stroke:#000000; stroke-linecap:round; stroke-linejoin:round; stroke-width:4; stroke-opacity:1; fill:none" points="208.988,284.495 227.886,284.495 "/>
<path clip-path="url(#clip480)" d="M159.085 1528.73 L147.279 1547.18 L159.085 1547.18 L159.085 1528.73 M157.858 1524.66 L163.737 1524.66 L163.737 1547.18 L168.668 1547.18 L168.668 1551.07 L163.737 1551.07 L163.737 1559.22 L159.085 1559.22 L159.085 1551.07 L143.483 1551.07 L143.483 1546.56 L157.858 1524.66 Z" fill="#000000" fill-rule="nonzero" fill-opacity="1" /><path clip-path="url(#clip480)" d="M157.14 1288.59 Q153.992 1288.59 152.14 1290.74 Q150.311 1292.89 150.311 1296.64 Q150.311 1300.37 152.14 1302.54 Q153.992 1304.7 157.14 1304.7 Q160.288 1304.7 162.117 1302.54 Q163.969 1300.37 163.969 1296.64 Q163.969 1292.89 162.117 1290.74 Q160.288 1288.59 157.14 1288.59 M166.423 1273.93 L166.423 1278.19 Q164.663 1277.36 162.858 1276.92 Q161.075 1276.48 159.316 1276.48 Q154.686 1276.48 152.233 1279.6 Q149.802 1282.73 149.455 1289.05 Q150.821 1287.04 152.881 1285.97 Q154.941 1284.88 157.418 1284.88 Q162.626 1284.88 165.635 1288.05 Q168.668 1291.2 168.668 1296.64 Q168.668 1301.97 165.52 1305.18 Q162.372 1308.4 157.14 1308.4 Q151.145 1308.4 147.974 1303.82 Q144.802 1299.21 144.802 1290.48 Q144.802 1282.29 148.691 1277.43 Q152.58 1272.54 159.131 1272.54 Q160.89 1272.54 162.673 1272.89 Q164.478 1273.24 166.423 1273.93 Z" fill="#000000" fill-rule="nonzero" fill-opacity="1" /><path clip-path="url(#clip480)" d="M156.816 1039.83 Q153.483 1039.83 151.561 1041.61 Q149.663 1043.39 149.663 1046.52 Q149.663 1049.64 151.561 1051.43 Q153.483 1053.21 156.816 1053.21 Q160.149 1053.21 162.071 1051.43 Q163.992 1049.62 163.992 1046.52 Q163.992 1043.39 162.071 1041.61 Q160.173 1039.83 156.816 1039.83 M152.14 1037.84 Q149.131 1037.1 147.441 1035.04 Q145.774 1032.98 145.774 1030.01 Q145.774 1025.87 148.714 1023.46 Q151.677 1021.06 156.816 1021.06 Q161.978 1021.06 164.918 1023.46 Q167.858 1025.87 167.858 1030.01 Q167.858 1032.98 166.168 1035.04 Q164.501 1037.1 161.515 1037.84 Q164.895 1038.63 166.77 1040.92 Q168.668 1043.21 168.668 1046.52 Q168.668 1051.54 165.589 1054.23 Q162.534 1056.91 156.816 1056.91 Q151.099 1056.91 148.02 1054.23 Q144.964 1051.54 144.964 1046.52 Q144.964 1043.21 146.862 1040.92 Q148.761 1038.63 152.14 1037.84 M150.427 1030.45 Q150.427 1033.14 152.094 1034.64 Q153.784 1036.15 156.816 1036.15 Q159.825 1036.15 161.515 1034.64 Q163.228 1033.14 163.228 1030.45 Q163.228 1027.77 161.515 1026.26 Q159.825 1024.76 156.816 1024.76 Q153.784 1024.76 152.094 1026.26 Q150.427 1027.77 150.427 1030.45 Z" fill="#000000" fill-rule="nonzero" fill-opacity="1" /><path clip-path="url(#clip480)" d="M117.372 800.817 L125.011 800.817 L125.011 774.452 L116.701 776.118 L116.701 771.859 L124.964 770.192 L129.64 770.192 L129.64 800.817 L137.279 800.817 L137.279 804.752 L117.372 804.752 L117.372 800.817 Z" fill="#000000" fill-rule="nonzero" fill-opacity="1" /><path clip-path="url(#clip480)" d="M156.723 773.271 Q153.112 773.271 151.284 776.836 Q149.478 780.377 149.478 787.507 Q149.478 794.614 151.284 798.178 Q153.112 801.72 156.723 801.72 Q160.358 801.72 162.163 798.178 Q163.992 794.614 163.992 787.507 Q163.992 780.377 162.163 776.836 Q160.358 773.271 156.723 773.271 M156.723 769.567 Q162.534 769.567 165.589 774.174 Q168.668 778.757 168.668 787.507 Q168.668 796.234 165.589 800.84 Q162.534 805.424 156.723 805.424 Q150.913 805.424 147.835 800.84 Q144.779 796.234 144.779 787.507 Q144.779 778.757 147.835 774.174 Q150.913 769.567 156.723 769.567 Z" fill="#000000" fill-rule="nonzero" fill-opacity="1" /><path clip-path="url(#clip480)" d="M118.969 549.329 L126.608 549.329 L126.608 522.963 L118.298 524.63 L118.298 520.37 L126.562 518.704 L131.238 518.704 L131.238 549.329 L138.876 549.329 L138.876 553.264 L118.969 553.264 L118.969 549.329 Z" fill="#000000" fill-rule="nonzero" fill-opacity="1" /><path clip-path="url(#clip480)" d="M152.349 549.329 L168.668 549.329 L168.668 553.264 L146.724 553.264 L146.724 549.329 Q149.386 546.574 153.969 541.944 Q158.575 537.292 159.756 535.949 Q162.001 533.426 162.881 531.69 Q163.784 529.931 163.784 528.241 Q163.784 525.486 161.839 523.75 Q159.918 522.014 156.816 522.014 Q154.617 522.014 152.163 522.778 Q149.733 523.542 146.955 525.093 L146.955 520.37 Q149.779 519.236 152.233 518.657 Q154.686 518.079 156.723 518.079 Q162.094 518.079 165.288 520.764 Q168.483 523.449 168.483 527.94 Q168.483 530.069 167.673 531.991 Q166.885 533.889 164.779 536.481 Q164.2 537.153 161.098 540.37 Q157.997 543.565 152.349 549.329 Z" fill="#000000" fill-rule="nonzero" fill-opacity="1" /><path clip-path="url(#clip480)" d="M116.886 297.84 L124.525 297.84 L124.525 271.474 L116.214 273.141 L116.214 268.882 L124.478 267.215 L129.154 267.215 L129.154 297.84 L136.793 297.84 L136.793 301.775 L116.886 301.775 L116.886 297.84 Z" fill="#000000" fill-rule="nonzero" fill-opacity="1" /><path clip-path="url(#clip480)" d="M159.085 271.289 L147.279 289.738 L159.085 289.738 L159.085 271.289 M157.858 267.215 L163.737 267.215 L163.737 289.738 L168.668 289.738 L168.668 293.627 L163.737 293.627 L163.737 301.775 L159.085 301.775 L159.085 293.627 L143.483 293.627 L143.483 289.113 L157.858 267.215 Z" fill="#000000" fill-rule="nonzero" fill-opacity="1" /><path clip-path="url(#clip480)" d="M12.1132 1047.72 L12.1132 1041.86 L61.6384 1041.86 L61.6384 1047.72 L12.1132 1047.72 Z" fill="#000000" fill-rule="nonzero" fill-opacity="1" /><path clip-path="url(#clip480)" d="M30.0964 1015.79 Q30.0964 1020.5 33.7885 1023.24 Q37.4488 1025.98 43.8463 1025.98 Q50.2438 1025.98 53.9359 1023.27 Q57.5962 1020.54 57.5962 1015.79 Q57.5962 1011.11 53.9041 1008.38 Q50.212 1005.64 43.8463 1005.64 Q37.5124 1005.64 33.8203 1008.38 Q30.0964 1011.11 30.0964 1015.79 M25.1311 1015.79 Q25.1311 1008.15 30.0964 1003.79 Q35.0616 999.434 43.8463 999.434 Q52.5991 999.434 57.5962 1003.79 Q62.5615 1008.15 62.5615 1015.79 Q62.5615 1023.46 57.5962 1027.82 Q52.5991 1032.15 43.8463 1032.15 Q35.0616 1032.15 30.0964 1027.82 Q25.1311 1023.46 25.1311 1015.79 Z" fill="#000000" fill-rule="nonzero" fill-opacity="1" /><path clip-path="url(#clip480)" d="M43.4007 966.268 Q37.035 966.268 33.5338 968.91 Q30.0327 971.52 30.0327 976.262 Q30.0327 980.973 33.5338 983.615 Q37.035 986.225 43.4007 986.225 Q49.7346 986.225 53.2357 983.615 Q56.7368 980.973 56.7368 976.262 Q56.7368 971.52 53.2357 968.91 Q49.7346 966.268 43.4007 966.268 M57.2143 960.412 Q66.3172 960.412 70.7414 964.454 Q75.1974 968.496 75.1974 976.835 Q75.1974 979.923 74.72 982.66 Q74.2744 985.397 73.3195 987.975 L67.6222 987.975 Q69.0227 985.397 69.6911 982.883 Q70.3595 980.368 70.3595 977.758 Q70.3595 971.997 67.3358 969.133 Q64.3439 966.268 58.2646 966.268 L55.3682 966.268 Q58.5192 968.083 60.0788 970.915 Q61.6384 973.748 61.6384 977.695 Q61.6384 984.251 56.6414 988.262 Q51.6443 992.272 43.4007 992.272 Q35.1253 992.272 30.1282 988.262 Q25.1311 984.251 25.1311 977.695 Q25.1311 973.748 26.6907 970.915 Q28.2503 968.083 31.4013 966.268 L25.9905 966.268 L25.9905 960.412 L57.2143 960.412 Z" fill="#000000" fill-rule="nonzero" fill-opacity="1" /><path clip-path="url(#clip480)" d="M14.1184 927.374 L14.1184 918.716 L53.8723 897.646 L14.1184 897.646 L14.1184 891.408 L61.6384 891.408 L61.6384 900.065 L21.8846 921.135 L61.6384 921.135 L61.6384 927.374 L14.1184 927.374 Z" fill="#000000" fill-rule="nonzero" fill-opacity="1" /><path clip-path="url(#clip480)" d="M12.1769 864.799 Q19.4975 869.064 26.6589 871.133 Q33.8203 873.202 41.1727 873.202 Q48.5251 873.202 55.7502 871.133 Q62.9434 869.032 70.2321 864.799 L70.2321 869.892 Q62.7524 874.666 55.5274 877.053 Q48.3023 879.408 41.1727 879.408 Q34.0749 879.408 26.8817 877.053 Q19.6884 874.698 12.1769 869.892 L12.1769 864.799 Z" fill="#000000" fill-rule="nonzero" fill-opacity="1" /><path clip-path="url(#clip480)" d="M15.869 847.643 L25.9905 847.643 L25.9905 835.58 L30.542 835.58 L30.542 847.643 L49.8937 847.643 Q54.2542 847.643 55.4955 846.466 Q56.7368 845.256 56.7368 841.596 L56.7368 835.58 L61.6384 835.58 L61.6384 841.596 Q61.6384 848.375 59.124 850.954 Q56.5777 853.532 49.8937 853.532 L30.542 853.532 L30.542 857.829 L25.9905 857.829 L25.9905 853.532 L15.869 853.532 L15.869 847.643 Z" fill="#000000" fill-rule="nonzero" fill-opacity="1" /><path clip-path="url(#clip480)" d="M12.1769 828.801 L12.1769 823.708 Q19.6884 818.934 26.8817 816.579 Q34.0749 814.192 41.1727 814.192 Q48.3023 814.192 55.5274 816.579 Q62.7524 818.934 70.2321 823.708 L70.2321 828.801 Q62.9434 824.568 55.7502 822.499 Q48.5251 820.398 41.1727 820.398 Q33.8203 820.398 26.6589 822.499 Q19.4975 824.568 12.1769 828.801 Z" fill="#000000" fill-rule="nonzero" fill-opacity="1" /><path clip-path="url(#clip480)" d="M675.92 14.0809 L675.92 22.0612 Q671.262 19.8332 667.13 18.7395 Q662.998 17.6457 659.15 17.6457 Q652.466 17.6457 648.82 20.2383 Q645.215 22.8309 645.215 27.611 Q645.215 31.6214 647.605 33.6873 Q650.035 35.7128 656.76 36.9686 L661.702 37.9813 Q670.857 39.7232 675.191 44.1387 Q679.566 48.5136 679.566 55.8863 Q679.566 64.6767 673.652 69.2137 Q667.778 73.7508 656.395 73.7508 Q652.101 73.7508 647.24 72.7785 Q642.419 71.8063 637.234 69.9024 L637.234 61.4765 Q642.217 64.2716 646.997 65.6895 Q651.777 67.1073 656.395 67.1073 Q663.403 67.1073 667.211 64.3527 Q671.019 61.598 671.019 56.4939 Q671.019 52.0379 668.264 49.5264 Q665.55 47.0148 659.312 45.759 L654.329 44.7868 Q645.174 42.9639 641.083 39.075 Q636.991 35.1862 636.991 28.2591 Q636.991 20.2383 642.622 15.6203 Q648.293 11.0023 658.218 11.0023 Q662.471 11.0023 666.887 11.7719 Q671.302 12.5416 675.92 14.0809 Z" fill="#000000" fill-rule="nonzero" fill-opacity="1" /><path clip-path="url(#clip480)" d="M699.375 14.324 L699.375 27.2059 L714.728 27.2059 L714.728 32.9987 L699.375 32.9987 L699.375 57.6282 Q699.375 63.1779 700.874 64.7578 Q702.413 66.3376 707.072 66.3376 L714.728 66.3376 L714.728 72.576 L707.072 72.576 Q698.443 72.576 695.162 69.3758 Q691.881 66.1351 691.881 57.6282 L691.881 32.9987 L686.412 32.9987 L686.412 27.2059 L691.881 27.2059 L691.881 14.324 L699.375 14.324 Z" fill="#000000" fill-rule="nonzero" fill-opacity="1" /><path clip-path="url(#clip480)" d="M745.15 49.7694 Q736.117 49.7694 732.633 51.8354 Q729.149 53.9013 729.149 58.8839 Q729.149 62.8538 731.742 65.2034 Q734.375 67.5124 738.872 67.5124 Q745.069 67.5124 748.796 63.1374 Q752.564 58.7219 752.564 51.4303 L752.564 49.7694 L745.15 49.7694 M760.017 46.6907 L760.017 72.576 L752.564 72.576 L752.564 65.6895 Q750.011 69.8214 746.204 71.8063 Q742.396 73.7508 736.887 73.7508 Q729.919 73.7508 725.787 69.8619 Q721.696 65.9325 721.696 59.3701 Q721.696 51.7138 726.8 47.825 Q731.944 43.9361 742.112 43.9361 L752.564 43.9361 L752.564 43.2069 Q752.564 38.0623 749.161 35.2672 Q745.799 32.4315 739.682 32.4315 Q735.793 32.4315 732.107 33.3632 Q728.42 34.295 725.017 36.1584 L725.017 29.2718 Q729.109 27.692 732.957 26.9223 Q736.806 26.1121 740.451 26.1121 Q750.295 26.1121 755.156 31.2163 Q760.017 36.3204 760.017 46.6907 Z" fill="#000000" fill-rule="nonzero" fill-opacity="1" /><path clip-path="url(#clip480)" d="M813.084 45.1919 L813.084 72.576 L805.63 72.576 L805.63 45.4349 Q805.63 38.994 803.119 35.7938 Q800.607 32.5936 795.584 32.5936 Q789.548 32.5936 786.065 36.4419 Q782.581 40.2903 782.581 46.9338 L782.581 72.576 L775.087 72.576 L775.087 27.2059 L782.581 27.2059 L782.581 34.2544 Q785.254 30.163 788.86 28.1376 Q792.505 26.1121 797.245 26.1121 Q805.063 26.1121 809.074 30.9732 Q813.084 35.7938 813.084 45.1919 Z" fill="#000000" fill-rule="nonzero" fill-opacity="1" /><path clip-path="url(#clip480)" d="M857.806 34.0924 L857.806 9.54393 L865.26 9.54393 L865.26 72.576 L857.806 72.576 L857.806 65.7705 Q855.457 69.8214 851.851 71.8063 Q848.286 73.7508 843.263 73.7508 Q835.04 73.7508 829.855 67.1883 Q824.71 60.6258 824.71 49.9314 Q824.71 39.2371 829.855 32.6746 Q835.04 26.1121 843.263 26.1121 Q848.286 26.1121 851.851 28.0971 Q855.457 30.0415 857.806 34.0924 M832.407 49.9314 Q832.407 58.1548 835.769 62.8538 Q839.172 67.5124 845.086 67.5124 Q851.001 67.5124 854.403 62.8538 Q857.806 58.1548 857.806 49.9314 Q857.806 41.7081 854.403 37.0496 Q851.001 32.3505 845.086 32.3505 Q839.172 32.3505 835.769 37.0496 Q832.407 41.7081 832.407 49.9314 Z" fill="#000000" fill-rule="nonzero" fill-opacity="1" /><path clip-path="url(#clip480)" d="M901.232 49.7694 Q892.198 49.7694 888.714 51.8354 Q885.231 53.9013 885.231 58.8839 Q885.231 62.8538 887.823 65.2034 Q890.456 67.5124 894.953 67.5124 Q901.151 67.5124 904.878 63.1374 Q908.645 58.7219 908.645 51.4303 L908.645 49.7694 L901.232 49.7694 M916.099 46.6907 L916.099 72.576 L908.645 72.576 L908.645 65.6895 Q906.093 69.8214 902.285 71.8063 Q898.477 73.7508 892.968 73.7508 Q886 73.7508 881.868 69.8619 Q877.777 65.9325 877.777 59.3701 Q877.777 51.7138 882.881 47.825 Q888.026 43.9361 898.194 43.9361 L908.645 43.9361 L908.645 43.2069 Q908.645 38.0623 905.242 35.2672 Q901.88 32.4315 895.763 32.4315 Q891.874 32.4315 888.188 33.3632 Q884.502 34.295 881.099 36.1584 L881.099 29.2718 Q885.19 27.692 889.039 26.9223 Q892.887 26.1121 896.533 26.1121 Q906.376 26.1121 911.237 31.2163 Q916.099 36.3204 916.099 46.6907 Z" fill="#000000" fill-rule="nonzero" fill-opacity="1" /><path clip-path="url(#clip480)" d="M957.742 34.1734 Q956.486 33.4443 954.987 33.1202 Q953.529 32.7556 951.747 32.7556 Q945.427 32.7556 942.024 36.8875 Q938.662 40.9789 938.662 48.6757 L938.662 72.576 L931.168 72.576 L931.168 27.2059 L938.662 27.2059 L938.662 34.2544 Q941.012 30.1225 944.779 28.1376 Q948.546 26.1121 953.934 26.1121 Q954.704 26.1121 955.635 26.2337 Q956.567 26.3147 957.701 26.5172 L957.742 34.1734 Z" fill="#000000" fill-rule="nonzero" fill-opacity="1" /><path clip-path="url(#clip480)" d="M993.957 34.0924 L993.957 9.54393 L1001.41 9.54393 L1001.41 72.576 L993.957 72.576 L993.957 65.7705 Q991.607 69.8214 988.002 71.8063 Q984.437 73.7508 979.414 73.7508 Q971.191 73.7508 966.006 67.1883 Q960.861 60.6258 960.861 49.9314 Q960.861 39.2371 966.006 32.6746 Q971.191 26.1121 979.414 26.1121 Q984.437 26.1121 988.002 28.0971 Q991.607 30.0415 993.957 34.0924 M968.558 49.9314 Q968.558 58.1548 971.92 62.8538 Q975.323 67.5124 981.237 67.5124 Q987.151 67.5124 990.554 62.8538 Q993.957 58.1548 993.957 49.9314 Q993.957 41.7081 990.554 37.0496 Q987.151 32.3505 981.237 32.3505 Q975.323 32.3505 971.92 37.0496 Q968.558 41.7081 968.558 49.9314 Z" fill="#000000" fill-rule="nonzero" fill-opacity="1" /><path clip-path="url(#clip480)" d="M1037.79 27.2059 L1045.69 27.2059 L1059.87 65.2844 L1074.04 27.2059 L1081.94 27.2059 L1064.93 72.576 L1054.8 72.576 L1037.79 27.2059 Z" fill="#000000" fill-rule="nonzero" fill-opacity="1" /><path clip-path="url(#clip480)" d="M1121.16 28.5427 L1121.16 35.5912 Q1118 33.9709 1114.59 33.1607 Q1111.19 32.3505 1107.54 32.3505 Q1101.99 32.3505 1099.2 34.0519 Q1096.44 35.7533 1096.44 39.156 Q1096.44 41.7486 1098.43 43.2475 Q1100.41 44.7058 1106.41 46.0426 L1108.96 46.6097 Q1116.9 48.3111 1120.22 51.4303 Q1123.59 54.509 1123.59 60.0587 Q1123.59 66.3781 1118.56 70.0644 Q1113.58 73.7508 1104.83 73.7508 Q1101.18 73.7508 1097.21 73.0216 Q1093.29 72.3329 1088.91 70.9151 L1088.91 63.2184 Q1093.04 65.3654 1097.05 66.4591 Q1101.06 67.5124 1104.99 67.5124 Q1110.26 67.5124 1113.09 65.73 Q1115.93 63.9071 1115.93 60.6258 Q1115.93 57.5877 1113.86 55.9673 Q1111.84 54.3469 1104.91 52.8481 L1102.32 52.2405 Q1095.39 50.7821 1092.31 47.7845 Q1089.23 44.7463 1089.23 39.4801 Q1089.23 33.0797 1093.77 29.5959 Q1098.31 26.1121 1106.65 26.1121 Q1110.79 26.1121 1114.43 26.7198 Q1118.08 27.3274 1121.16 28.5427 Z" fill="#000000" fill-rule="nonzero" fill-opacity="1" /><path clip-path="url(#clip480)" d="M1161.83 9.54393 L1169.28 9.54393 L1169.28 72.576 L1161.83 72.576 L1161.83 9.54393 Z" fill="#000000" fill-rule="nonzero" fill-opacity="1" /><path clip-path="url(#clip480)" d="M1205.5 49.7694 Q1196.46 49.7694 1192.98 51.8354 Q1189.49 53.9013 1189.49 58.8839 Q1189.49 62.8538 1192.09 65.2034 Q1194.72 67.5124 1199.22 67.5124 Q1205.41 67.5124 1209.14 63.1374 Q1212.91 58.7219 1212.91 51.4303 L1212.91 49.7694 L1205.5 49.7694 M1220.36 46.6907 L1220.36 72.576 L1212.91 72.576 L1212.91 65.6895 Q1210.36 69.8214 1206.55 71.8063 Q1202.74 73.7508 1197.23 73.7508 Q1190.26 73.7508 1186.13 69.8619 Q1182.04 65.9325 1182.04 59.3701 Q1182.04 51.7138 1187.14 47.825 Q1192.29 43.9361 1202.46 43.9361 L1212.91 43.9361 L1212.91 43.2069 Q1212.91 38.0623 1209.51 35.2672 Q1206.14 32.4315 1200.03 32.4315 Q1196.14 32.4315 1192.45 33.3632 Q1188.76 34.295 1185.36 36.1584 L1185.36 29.2718 Q1189.45 27.692 1193.3 26.9223 Q1197.15 26.1121 1200.8 26.1121 Q1210.64 26.1121 1215.5 31.2163 Q1220.36 36.3204 1220.36 46.6907 Z" fill="#000000" fill-rule="nonzero" fill-opacity="1" /><path clip-path="url(#clip480)" d="M1265.57 49.3643 Q1265.57 41.2625 1262.21 36.8065 Q1258.89 32.3505 1252.85 32.3505 Q1246.85 32.3505 1243.49 36.8065 Q1240.17 41.2625 1240.17 49.3643 Q1240.17 57.4256 1243.49 61.8816 Q1246.85 66.3376 1252.85 66.3376 Q1258.89 66.3376 1262.21 61.8816 Q1265.57 57.4256 1265.57 49.3643 M1273.02 66.9452 Q1273.02 78.5308 1267.88 84.1616 Q1262.73 89.8329 1252.12 89.8329 Q1248.19 89.8329 1244.71 89.2252 Q1241.22 88.6581 1237.94 87.4428 L1237.94 80.1917 Q1241.22 81.9741 1244.42 82.8248 Q1247.62 83.6755 1250.95 83.6755 Q1258.28 83.6755 1261.92 79.8271 Q1265.57 76.0193 1265.57 68.282 L1265.57 64.5957 Q1263.26 68.6061 1259.66 70.5911 Q1256.05 72.576 1251.03 72.576 Q1242.68 72.576 1237.58 66.2161 Q1232.47 59.8562 1232.47 49.3643 Q1232.47 38.832 1237.58 32.472 Q1242.68 26.1121 1251.03 26.1121 Q1256.05 26.1121 1259.66 28.0971 Q1263.26 30.082 1265.57 34.0924 L1265.57 27.2059 L1273.02 27.2059 L1273.02 66.9452 Z" fill="#000000" fill-rule="nonzero" fill-opacity="1" /><path clip-path="url(#clip480)" d="M1318.23 49.3643 Q1318.23 41.2625 1314.87 36.8065 Q1311.55 32.3505 1305.51 32.3505 Q1299.52 32.3505 1296.15 36.8065 Q1292.83 41.2625 1292.83 49.3643 Q1292.83 57.4256 1296.15 61.8816 Q1299.52 66.3376 1305.51 66.3376 Q1311.55 66.3376 1314.87 61.8816 Q1318.23 57.4256 1318.23 49.3643 M1325.69 66.9452 Q1325.69 78.5308 1320.54 84.1616 Q1315.4 89.8329 1304.78 89.8329 Q1300.85 89.8329 1297.37 89.2252 Q1293.89 88.6581 1290.6 87.4428 L1290.6 80.1917 Q1293.89 81.9741 1297.09 82.8248 Q1300.29 83.6755 1303.61 83.6755 Q1310.94 83.6755 1314.59 79.8271 Q1318.23 76.0193 1318.23 68.282 L1318.23 64.5957 Q1315.92 68.6061 1312.32 70.5911 Q1308.71 72.576 1303.69 72.576 Q1295.34 72.576 1290.24 66.2161 Q1285.14 59.8562 1285.14 49.3643 Q1285.14 38.832 1290.24 32.472 Q1295.34 26.1121 1303.69 26.1121 Q1308.71 26.1121 1312.32 28.0971 Q1315.92 30.082 1318.23 34.0924 L1318.23 27.2059 L1325.69 27.2059 L1325.69 66.9452 Z" fill="#000000" fill-rule="nonzero" fill-opacity="1" /><path clip-path="url(#clip480)" d="M1379.85 48.0275 L1379.85 51.6733 L1345.58 51.6733 Q1346.06 59.3701 1350.19 63.421 Q1354.37 67.4314 1361.78 67.4314 Q1366.07 67.4314 1370.08 66.3781 Q1374.13 65.3249 1378.1 63.2184 L1378.1 70.267 Q1374.09 71.9684 1369.88 72.8596 Q1365.67 73.7508 1361.33 73.7508 Q1350.48 73.7508 1344.12 67.4314 Q1337.8 61.1119 1337.8 50.3365 Q1337.8 39.1965 1343.79 32.6746 Q1349.83 26.1121 1360.04 26.1121 Q1369.19 26.1121 1374.5 32.0264 Q1379.85 37.9003 1379.85 48.0275 M1372.39 45.84 Q1372.31 39.7232 1368.95 36.0774 Q1365.63 32.4315 1360.12 32.4315 Q1353.88 32.4315 1350.11 35.9558 Q1346.39 39.4801 1345.82 45.8805 L1372.39 45.84 Z" fill="#000000" fill-rule="nonzero" fill-opacity="1" /><path clip-path="url(#clip480)" d="M1421.93 34.0924 L1421.93 9.54393 L1429.39 9.54393 L1429.39 72.576 L1421.93 72.576 L1421.93 65.7705 Q1419.59 69.8214 1415.98 71.8063 Q1412.42 73.7508 1407.39 73.7508 Q1399.17 73.7508 1393.98 67.1883 Q1388.84 60.6258 1388.84 49.9314 Q1388.84 39.2371 1393.98 32.6746 Q1399.17 26.1121 1407.39 26.1121 Q1412.42 26.1121 1415.98 28.0971 Q1419.59 30.0415 1421.93 34.0924 M1396.54 49.9314 Q1396.54 58.1548 1399.9 62.8538 Q1403.3 67.5124 1409.22 67.5124 Q1415.13 67.5124 1418.53 62.8538 Q1421.93 58.1548 1421.93 49.9314 Q1421.93 41.7081 1418.53 37.0496 Q1415.13 32.3505 1409.22 32.3505 Q1403.3 32.3505 1399.9 37.0496 Q1396.54 41.7081 1396.54 49.9314 Z" fill="#000000" fill-rule="nonzero" fill-opacity="1" /><path clip-path="url(#clip480)" d="M1478.32 65.7705 L1478.32 89.8329 L1470.83 89.8329 L1470.83 27.2059 L1478.32 27.2059 L1478.32 34.0924 Q1480.67 30.0415 1484.24 28.0971 Q1487.84 26.1121 1492.83 26.1121 Q1501.09 26.1121 1506.23 32.6746 Q1511.42 39.2371 1511.42 49.9314 Q1511.42 60.6258 1506.23 67.1883 Q1501.09 73.7508 1492.83 73.7508 Q1487.84 73.7508 1484.24 71.8063 Q1480.67 69.8214 1478.32 65.7705 M1503.68 49.9314 Q1503.68 41.7081 1500.28 37.0496 Q1496.92 32.3505 1491 32.3505 Q1485.09 32.3505 1481.69 37.0496 Q1478.32 41.7081 1478.32 49.9314 Q1478.32 58.1548 1481.69 62.8538 Q1485.09 67.5124 1491 67.5124 Q1496.92 67.5124 1500.28 62.8538 Q1503.68 58.1548 1503.68 49.9314 Z" fill="#000000" fill-rule="nonzero" fill-opacity="1" /><path clip-path="url(#clip480)" d="M1541.36 32.4315 Q1535.36 32.4315 1531.88 37.1306 Q1528.39 41.7891 1528.39 49.9314 Q1528.39 58.0738 1531.84 62.7728 Q1535.32 67.4314 1541.36 67.4314 Q1547.31 67.4314 1550.79 62.7323 Q1554.28 58.0333 1554.28 49.9314 Q1554.28 41.8701 1550.79 37.1711 Q1547.31 32.4315 1541.36 32.4315 M1541.36 26.1121 Q1551.08 26.1121 1556.63 32.4315 Q1562.18 38.7509 1562.18 49.9314 Q1562.18 61.0714 1556.63 67.4314 Q1551.08 73.7508 1541.36 73.7508 Q1531.59 73.7508 1526.04 67.4314 Q1520.53 61.0714 1520.53 49.9314 Q1520.53 38.7509 1526.04 32.4315 Q1531.59 26.1121 1541.36 26.1121 Z" fill="#000000" fill-rule="nonzero" fill-opacity="1" /><path clip-path="url(#clip480)" d="M1581.74 65.7705 L1581.74 89.8329 L1574.25 89.8329 L1574.25 27.2059 L1581.74 27.2059 L1581.74 34.0924 Q1584.09 30.0415 1587.66 28.0971 Q1591.26 26.1121 1596.25 26.1121 Q1604.51 26.1121 1609.65 32.6746 Q1614.84 39.2371 1614.84 49.9314 Q1614.84 60.6258 1609.65 67.1883 Q1604.51 73.7508 1596.25 73.7508 Q1591.26 73.7508 1587.66 71.8063 Q1584.09 69.8214 1581.74 65.7705 M1607.1 49.9314 Q1607.1 41.7081 1603.7 37.0496 Q1600.34 32.3505 1594.42 32.3505 Q1588.51 32.3505 1585.11 37.0496 Q1581.74 41.7081 1581.74 49.9314 Q1581.74 58.1548 1585.11 62.8538 Q1588.51 67.5124 1594.42 67.5124 Q1600.34 67.5124 1603.7 62.8538 Q1607.1 58.1548 1607.1 49.9314 Z" fill="#000000" fill-rule="nonzero" fill-opacity="1" /><path clip-path="url(#clip480)" d="M1626.42 54.671 L1626.42 27.2059 L1633.88 27.2059 L1633.88 54.3874 Q1633.88 60.8284 1636.39 64.0691 Q1638.9 67.2693 1643.92 67.2693 Q1649.96 67.2693 1653.44 63.421 Q1656.97 59.5726 1656.97 52.9291 L1656.97 27.2059 L1664.42 27.2059 L1664.42 72.576 L1656.97 72.576 L1656.97 65.6084 Q1654.25 69.7404 1650.65 71.7658 Q1647.08 73.7508 1642.34 73.7508 Q1634.53 73.7508 1630.48 68.8897 Q1626.42 64.0286 1626.42 54.671 M1645.18 26.1121 L1645.18 26.1121 Z" fill="#000000" fill-rule="nonzero" fill-opacity="1" /><path clip-path="url(#clip480)" d="M1679.78 9.54393 L1687.23 9.54393 L1687.23 72.576 L1679.78 72.576 L1679.78 9.54393 Z" fill="#000000" fill-rule="nonzero" fill-opacity="1" /><path clip-path="url(#clip480)" d="M1723.44 49.7694 Q1714.41 49.7694 1710.93 51.8354 Q1707.44 53.9013 1707.44 58.8839 Q1707.44 62.8538 1710.04 65.2034 Q1712.67 67.5124 1717.16 67.5124 Q1723.36 67.5124 1727.09 63.1374 Q1730.86 58.7219 1730.86 51.4303 L1730.86 49.7694 L1723.44 49.7694 M1738.31 46.6907 L1738.31 72.576 L1730.86 72.576 L1730.86 65.6895 Q1728.3 69.8214 1724.5 71.8063 Q1720.69 73.7508 1715.18 73.7508 Q1708.21 73.7508 1704.08 69.8619 Q1699.99 65.9325 1699.99 59.3701 Q1699.99 51.7138 1705.09 47.825 Q1710.24 43.9361 1720.41 43.9361 L1730.86 43.9361 L1730.86 43.2069 Q1730.86 38.0623 1727.45 35.2672 Q1724.09 32.4315 1717.98 32.4315 Q1714.09 32.4315 1710.4 33.3632 Q1706.71 34.295 1703.31 36.1584 L1703.31 29.2718 Q1707.4 27.692 1711.25 26.9223 Q1715.1 26.1121 1718.74 26.1121 Q1728.59 26.1121 1733.45 31.2163 Q1738.31 36.3204 1738.31 46.6907 Z" fill="#000000" fill-rule="nonzero" fill-opacity="1" /><path clip-path="url(#clip480)" d="M1761.04 14.324 L1761.04 27.2059 L1776.39 27.2059 L1776.39 32.9987 L1761.04 32.9987 L1761.04 57.6282 Q1761.04 63.1779 1762.54 64.7578 Q1764.07 66.3376 1768.73 66.3376 L1776.39 66.3376 L1776.39 72.576 L1768.73 72.576 Q1760.1 72.576 1756.82 69.3758 Q1753.54 66.1351 1753.54 57.6282 L1753.54 32.9987 L1748.07 32.9987 L1748.07 27.2059 L1753.54 27.2059 L1753.54 14.324 L1761.04 14.324 Z" fill="#000000" fill-rule="nonzero" fill-opacity="1" /><path clip-path="url(#clip480)" d="M1786.19 27.2059 L1793.65 27.2059 L1793.65 72.576 L1786.19 72.576 L1786.19 27.2059 M1786.19 9.54393 L1793.65 9.54393 L1793.65 18.9825 L1786.19 18.9825 L1786.19 9.54393 Z" fill="#000000" fill-rule="nonzero" fill-opacity="1" /><path clip-path="url(#clip480)" d="M1826.82 32.4315 Q1820.83 32.4315 1817.34 37.1306 Q1813.86 41.7891 1813.86 49.9314 Q1813.86 58.0738 1817.3 62.7728 Q1820.79 67.4314 1826.82 67.4314 Q1832.78 67.4314 1836.26 62.7323 Q1839.75 58.0333 1839.75 49.9314 Q1839.75 41.8701 1836.26 37.1711 Q1832.78 32.4315 1826.82 32.4315 M1826.82 26.1121 Q1836.55 26.1121 1842.09 32.4315 Q1847.64 38.7509 1847.64 49.9314 Q1847.64 61.0714 1842.09 67.4314 Q1836.55 73.7508 1826.82 73.7508 Q1817.06 73.7508 1811.51 67.4314 Q1806 61.0714 1806 49.9314 Q1806 38.7509 1811.51 32.4315 Q1817.06 26.1121 1826.82 26.1121 Z" fill="#000000" fill-rule="nonzero" fill-opacity="1" /><path clip-path="url(#clip480)" d="M1897.71 45.1919 L1897.71 72.576 L1890.26 72.576 L1890.26 45.4349 Q1890.26 38.994 1887.75 35.7938 Q1885.24 32.5936 1880.21 32.5936 Q1874.18 32.5936 1870.69 36.4419 Q1867.21 40.2903 1867.21 46.9338 L1867.21 72.576 L1859.72 72.576 L1859.72 27.2059 L1867.21 27.2059 L1867.21 34.2544 Q1869.88 30.163 1873.49 28.1376 Q1877.14 26.1121 1881.87 26.1121 Q1889.69 26.1121 1893.7 30.9732 Q1897.71 35.7938 1897.71 45.1919 Z" fill="#000000" fill-rule="nonzero" fill-opacity="1" /><path clip-path="url(#clip480)" d="M1968.81 49.3643 Q1968.81 41.2625 1965.44 36.8065 Q1962.12 32.3505 1956.09 32.3505 Q1950.09 32.3505 1946.73 36.8065 Q1943.41 41.2625 1943.41 49.3643 Q1943.41 57.4256 1946.73 61.8816 Q1950.09 66.3376 1956.09 66.3376 Q1962.12 66.3376 1965.44 61.8816 Q1968.81 57.4256 1968.81 49.3643 M1976.26 66.9452 Q1976.26 78.5308 1971.12 84.1616 Q1965.97 89.8329 1955.36 89.8329 Q1951.43 89.8329 1947.94 89.2252 Q1944.46 88.6581 1941.18 87.4428 L1941.18 80.1917 Q1944.46 81.9741 1947.66 82.8248 Q1950.86 83.6755 1954.18 83.6755 Q1961.52 83.6755 1965.16 79.8271 Q1968.81 76.0193 1968.81 68.282 L1968.81 64.5957 Q1966.5 68.6061 1962.89 70.5911 Q1959.29 72.576 1954.26 72.576 Q1945.92 72.576 1940.82 66.2161 Q1935.71 59.8562 1935.71 49.3643 Q1935.71 38.832 1940.82 32.472 Q1945.92 26.1121 1954.26 26.1121 Q1959.29 26.1121 1962.89 28.0971 Q1966.5 30.082 1968.81 34.0924 L1968.81 27.2059 L1976.26 27.2059 L1976.26 66.9452 Z" fill="#000000" fill-rule="nonzero" fill-opacity="1" /><path clip-path="url(#clip480)" d="M2017.9 34.1734 Q2016.65 33.4443 2015.15 33.1202 Q2013.69 32.7556 2011.91 32.7556 Q2005.59 32.7556 2002.19 36.8875 Q1998.82 40.9789 1998.82 48.6757 L1998.82 72.576 L1991.33 72.576 L1991.33 27.2059 L1998.82 27.2059 L1998.82 34.2544 Q2001.17 30.1225 2004.94 28.1376 Q2008.71 26.1121 2014.1 26.1121 Q2014.87 26.1121 2015.8 26.2337 Q2016.73 26.3147 2017.86 26.5172 L2017.9 34.1734 Z" fill="#000000" fill-rule="nonzero" fill-opacity="1" /><path clip-path="url(#clip480)" d="M2041.48 32.4315 Q2035.48 32.4315 2032 37.1306 Q2028.52 41.7891 2028.52 49.9314 Q2028.52 58.0738 2031.96 62.7728 Q2035.44 67.4314 2041.48 67.4314 Q2047.44 67.4314 2050.92 62.7323 Q2054.4 58.0333 2054.4 49.9314 Q2054.4 41.8701 2050.92 37.1711 Q2047.44 32.4315 2041.48 32.4315 M2041.48 26.1121 Q2051.2 26.1121 2056.75 32.4315 Q2062.3 38.7509 2062.3 49.9314 Q2062.3 61.0714 2056.75 67.4314 Q2051.2 73.7508 2041.48 73.7508 Q2031.72 73.7508 2026.17 67.4314 Q2020.66 61.0714 2020.66 49.9314 Q2020.66 38.7509 2026.17 32.4315 Q2031.72 26.1121 2041.48 26.1121 Z" fill="#000000" fill-rule="nonzero" fill-opacity="1" /><path clip-path="url(#clip480)" d="M2070.32 27.2059 L2077.78 27.2059 L2087.09 62.6108 L2096.37 27.2059 L2105.16 27.2059 L2114.48 62.6108 L2123.75 27.2059 L2131.21 27.2059 L2119.34 72.576 L2110.55 72.576 L2100.79 35.3887 L2090.98 72.576 L2082.19 72.576 L2070.32 27.2059 Z" fill="#000000" fill-rule="nonzero" fill-opacity="1" /><path clip-path="url(#clip480)" d="M2149.88 14.324 L2149.88 27.2059 L2165.24 27.2059 L2165.24 32.9987 L2149.88 32.9987 L2149.88 57.6282 Q2149.88 63.1779 2151.38 64.7578 Q2152.92 66.3376 2157.58 66.3376 L2165.24 66.3376 L2165.24 72.576 L2157.58 72.576 Q2148.95 72.576 2145.67 69.3758 Q2142.39 66.1351 2142.39 57.6282 L2142.39 32.9987 L2136.92 32.9987 L2136.92 27.2059 L2142.39 27.2059 L2142.39 14.324 L2149.88 14.324 Z" fill="#000000" fill-rule="nonzero" fill-opacity="1" /><path clip-path="url(#clip480)" d="M2212.75 45.1919 L2212.75 72.576 L2205.3 72.576 L2205.3 45.4349 Q2205.3 38.994 2202.79 35.7938 Q2200.28 32.5936 2195.25 32.5936 Q2189.22 32.5936 2185.73 36.4419 Q2182.25 40.2903 2182.25 46.9338 L2182.25 72.576 L2174.76 72.576 L2174.76 9.54393 L2182.25 9.54393 L2182.25 34.2544 Q2184.92 30.163 2188.53 28.1376 Q2192.17 26.1121 2196.91 26.1121 Q2204.73 26.1121 2208.74 30.9732 Q2212.75 35.7938 2212.75 45.1919 Z" fill="#000000" fill-rule="nonzero" fill-opacity="1" /><polyline clip-path="url(#clip481)" style="stroke:#009af9; stroke-linecap:round; stroke-linejoin:round; stroke-width:8; stroke-opacity:1; fill:none" points="277.811,1688.65 323.694,1647.94 369.576,1632.83 415.459,1588.17 461.341,1571.16 507.224,1528.67 553.106,1509.65 598.988,1469.02 644.871,1448.29 690.753,1409.25 736.636,1387.07 782.518,1349.37 828.4,1325.97 874.283,1289.39 920.165,1264.95 966.048,1229.34 1011.93,1204.02 1057.81,1169.22 1103.69,1143.15 1149.58,1109.05 1195.46,1082.34 1241.34,1048.82 1287.22,1021.58 1333.11,988.558 1378.99,960.856 1424.87,928.257 1470.75,900.167 1516.64,867.925 1562.52,839.507 1608.4,807.568 1654.28,778.871 1700.17,747.189 1746.05,718.256 1791.93,686.792 1837.81,657.658 1883.7,626.378 1929.58,597.075 1975.46,565.952 2021.34,536.504 2067.23,505.514 2113.11,475.944 2158.99,445.066 2204.87,415.393 2250.76,384.611 2296.64,354.85 2342.52,324.148 2388.4,294.313 2434.29,263.68 2480.17,233.781 2526.05,203.206 2571.93,173.254 "/>
<polyline clip-path="url(#clip481)" style="stroke:#e26f46; stroke-linecap:round; stroke-linejoin:round; stroke-width:8; stroke-opacity:1; fill:none" stroke-dasharray="32, 20" points="277.811,1688.65 323.694,1647.94 369.576,1630.48 415.459,1627.95 461.341,1588.17 507.224,1569 553.106,1565.21 598.988,1528.34 644.871,1507.66 690.753,1502.58 736.636,1468.31 782.518,1446.44 828.4,1440.06 874.283,1408.1 920.165,1385.31 966.048,1377.66 1011.93,1347.72 1057.81,1324.25 1103.69,1315.36 1149.58,1287.2 1195.46,1263.24 1241.34,1253.18 1287.22,1226.54 1333.11,1202.27 1378.99,1191.09 1424.87,1165.77 1470.75,1141.32 1516.64,1129.1 1562.52,1104.91 1608.4,1080.39 1654.28,1067.19 1700.17,1043.95 1746.05,1019.46 1791.93,1005.36 1837.81,982.927 1883.7,958.53 1929.58,943.613 1975.46,921.84 2021.34,897.593 2067.23,881.928 2113.11,860.701 2158.99,836.644 2204.87,820.305 2250.76,799.52 2296.64,775.681 2342.52,758.736 2388.4,738.304 2434.29,714.701 2480.17,697.216 2526.05,677.06 2571.93,653.703 "/>
<path clip-path="url(#clip480)" d="M290.047 336.856 L847.759 336.856 L847.759 181.336 L290.047 181.336  Z" fill="#ffffff" fill-rule="evenodd" fill-opacity="1"/>
<polyline clip-path="url(#clip480)" style="stroke:#000000; stroke-linecap:round; stroke-linejoin:round; stroke-width:4; stroke-opacity:1; fill:none" points="290.047,336.856 847.759,336.856 847.759,181.336 290.047,181.336 290.047,336.856 "/>
<polyline clip-path="url(#clip480)" style="stroke:#009af9; stroke-linecap:round; stroke-linejoin:round; stroke-width:8; stroke-opacity:1; fill:none" points="317.066,233.176 479.184,233.176 "/>
<path clip-path="url(#clip480)" d="M528.449 217.031 L528.449 221.591 Q525.787 220.318 523.426 219.693 Q521.065 219.068 518.866 219.068 Q515.047 219.068 512.963 220.549 Q510.903 222.031 510.903 224.762 Q510.903 227.054 512.269 228.234 Q513.658 229.392 517.5 230.109 L520.324 230.688 Q525.556 231.683 528.033 234.206 Q530.533 236.706 530.533 240.919 Q530.533 245.942 527.153 248.535 Q523.796 251.128 517.292 251.128 Q514.838 251.128 512.06 250.572 Q509.306 250.016 506.343 248.929 L506.343 244.114 Q509.19 245.711 511.922 246.521 Q514.653 247.331 517.292 247.331 Q521.296 247.331 523.472 245.757 Q525.648 244.183 525.648 241.267 Q525.648 238.72 524.074 237.285 Q522.523 235.85 518.959 235.132 L516.111 234.577 Q510.88 233.535 508.542 231.313 Q506.204 229.091 506.204 225.132 Q506.204 220.549 509.422 217.91 Q512.662 215.271 518.334 215.271 Q520.764 215.271 523.287 215.711 Q525.81 216.151 528.449 217.031 Z" fill="#000000" fill-rule="nonzero" fill-opacity="1" /><path clip-path="url(#clip480)" d="M541.852 217.169 L541.852 224.531 L550.625 224.531 L550.625 227.841 L541.852 227.841 L541.852 241.915 Q541.852 245.086 542.708 245.989 Q543.588 246.891 546.25 246.891 L550.625 246.891 L550.625 250.456 L546.25 250.456 Q541.32 250.456 539.445 248.628 Q537.57 246.776 537.57 241.915 L537.57 227.841 L534.445 227.841 L534.445 224.531 L537.57 224.531 L537.57 217.169 L541.852 217.169 Z" fill="#000000" fill-rule="nonzero" fill-opacity="1" /><path clip-path="url(#clip480)" d="M568.009 237.424 Q562.847 237.424 560.856 238.604 Q558.866 239.785 558.866 242.632 Q558.866 244.901 560.347 246.243 Q561.852 247.563 564.421 247.563 Q567.963 247.563 570.093 245.063 Q572.245 242.54 572.245 238.373 L572.245 237.424 L568.009 237.424 M576.505 235.665 L576.505 250.456 L572.245 250.456 L572.245 246.521 Q570.787 248.882 568.611 250.016 Q566.435 251.128 563.287 251.128 Q559.306 251.128 556.944 248.905 Q554.606 246.66 554.606 242.91 Q554.606 238.535 557.523 236.313 Q560.463 234.091 566.273 234.091 L572.245 234.091 L572.245 233.674 Q572.245 230.734 570.301 229.137 Q568.38 227.517 564.884 227.517 Q562.662 227.517 560.556 228.049 Q558.449 228.581 556.505 229.646 L556.505 225.711 Q558.843 224.808 561.042 224.368 Q563.241 223.906 565.324 223.906 Q570.949 223.906 573.727 226.822 Q576.505 229.739 576.505 235.665 Z" fill="#000000" fill-rule="nonzero" fill-opacity="1" /><path clip-path="url(#clip480)" d="M606.828 234.808 L606.828 250.456 L602.569 250.456 L602.569 234.947 Q602.569 231.267 601.134 229.438 Q599.699 227.609 596.828 227.609 Q593.379 227.609 591.389 229.808 Q589.398 232.007 589.398 235.804 L589.398 250.456 L585.116 250.456 L585.116 224.531 L589.398 224.531 L589.398 228.558 Q590.926 226.22 592.986 225.063 Q595.069 223.906 597.778 223.906 Q602.245 223.906 604.537 226.683 Q606.828 229.438 606.828 234.808 Z" fill="#000000" fill-rule="nonzero" fill-opacity="1" /><path clip-path="url(#clip480)" d="M632.384 228.466 L632.384 214.438 L636.643 214.438 L636.643 250.456 L632.384 250.456 L632.384 246.567 Q631.041 248.882 628.981 250.016 Q626.944 251.128 624.074 251.128 Q619.375 251.128 616.412 247.378 Q613.472 243.628 613.472 237.517 Q613.472 231.405 616.412 227.655 Q619.375 223.906 624.074 223.906 Q626.944 223.906 628.981 225.04 Q631.041 226.151 632.384 228.466 M617.87 237.517 Q617.87 242.216 619.791 244.901 Q621.736 247.563 625.115 247.563 Q628.495 247.563 630.439 244.901 Q632.384 242.216 632.384 237.517 Q632.384 232.817 630.439 230.155 Q628.495 227.47 625.115 227.47 Q621.736 227.47 619.791 230.155 Q617.87 232.817 617.87 237.517 Z" fill="#000000" fill-rule="nonzero" fill-opacity="1" /><path clip-path="url(#clip480)" d="M657.199 237.424 Q652.037 237.424 650.046 238.604 Q648.055 239.785 648.055 242.632 Q648.055 244.901 649.537 246.243 Q651.041 247.563 653.611 247.563 Q657.152 247.563 659.282 245.063 Q661.435 242.54 661.435 238.373 L661.435 237.424 L657.199 237.424 M665.694 235.665 L665.694 250.456 L661.435 250.456 L661.435 246.521 Q659.976 248.882 657.8 250.016 Q655.624 251.128 652.476 251.128 Q648.495 251.128 646.134 248.905 Q643.796 246.66 643.796 242.91 Q643.796 238.535 646.712 236.313 Q649.652 234.091 655.462 234.091 L661.435 234.091 L661.435 233.674 Q661.435 230.734 659.49 229.137 Q657.569 227.517 654.074 227.517 Q651.851 227.517 649.745 228.049 Q647.638 228.581 645.694 229.646 L645.694 225.711 Q648.032 224.808 650.231 224.368 Q652.43 223.906 654.513 223.906 Q660.138 223.906 662.916 226.822 Q665.694 229.739 665.694 235.665 Z" fill="#000000" fill-rule="nonzero" fill-opacity="1" /><path clip-path="url(#clip480)" d="M689.49 228.512 Q688.772 228.095 687.916 227.91 Q687.083 227.702 686.064 227.702 Q682.453 227.702 680.509 230.063 Q678.587 232.401 678.587 236.799 L678.587 250.456 L674.305 250.456 L674.305 224.531 L678.587 224.531 L678.587 228.558 Q679.93 226.197 682.083 225.063 Q684.235 223.906 687.314 223.906 Q687.754 223.906 688.286 223.975 Q688.819 224.021 689.467 224.137 L689.49 228.512 Z" fill="#000000" fill-rule="nonzero" fill-opacity="1" /><path clip-path="url(#clip480)" d="M710.184 228.466 L710.184 214.438 L714.444 214.438 L714.444 250.456 L710.184 250.456 L710.184 246.567 Q708.842 248.882 706.782 250.016 Q704.745 251.128 701.874 251.128 Q697.175 251.128 694.212 247.378 Q691.272 243.628 691.272 237.517 Q691.272 231.405 694.212 227.655 Q697.175 223.906 701.874 223.906 Q704.745 223.906 706.782 225.04 Q708.842 226.151 710.184 228.466 M695.671 237.517 Q695.671 242.216 697.592 244.901 Q699.536 247.563 702.916 247.563 Q706.295 247.563 708.24 244.901 Q710.184 242.216 710.184 237.517 Q710.184 232.817 708.24 230.155 Q706.295 227.47 702.916 227.47 Q699.536 227.47 697.592 230.155 Q695.671 232.817 695.671 237.517 Z" fill="#000000" fill-rule="nonzero" fill-opacity="1" /><polyline clip-path="url(#clip480)" style="stroke:#e26f46; stroke-linecap:round; stroke-linejoin:round; stroke-width:8; stroke-opacity:1; fill:none" stroke-dasharray="32, 20" points="317.066,285.016 479.184,285.016 "/>
<path clip-path="url(#clip480)" d="M506.204 267.736 L510.88 267.736 L510.88 298.361 L527.708 298.361 L527.708 302.296 L506.204 302.296 L506.204 267.736 Z" fill="#000000" fill-rule="nonzero" fill-opacity="1" /><path clip-path="url(#clip480)" d="M544.213 289.264 Q539.051 289.264 537.06 290.444 Q535.07 291.625 535.07 294.472 Q535.07 296.741 536.551 298.083 Q538.056 299.403 540.625 299.403 Q544.167 299.403 546.296 296.903 Q548.449 294.38 548.449 290.213 L548.449 289.264 L544.213 289.264 M552.708 287.505 L552.708 302.296 L548.449 302.296 L548.449 298.361 Q546.991 300.722 544.815 301.856 Q542.639 302.968 539.491 302.968 Q535.509 302.968 533.148 300.745 Q530.81 298.5 530.81 294.75 Q530.81 290.375 533.727 288.153 Q536.667 285.931 542.477 285.931 L548.449 285.931 L548.449 285.514 Q548.449 282.574 546.505 280.977 Q544.583 279.357 541.088 279.357 Q538.866 279.357 536.759 279.889 Q534.653 280.421 532.708 281.486 L532.708 277.551 Q535.046 276.648 537.245 276.208 Q539.445 275.746 541.528 275.746 Q547.153 275.746 549.931 278.662 Q552.708 281.579 552.708 287.505 Z" fill="#000000" fill-rule="nonzero" fill-opacity="1" /><path clip-path="url(#clip480)" d="M578.542 289.032 Q578.542 284.403 576.62 281.857 Q574.722 279.31 571.273 279.31 Q567.847 279.31 565.926 281.857 Q564.028 284.403 564.028 289.032 Q564.028 293.639 565.926 296.185 Q567.847 298.731 571.273 298.731 Q574.722 298.731 576.62 296.185 Q578.542 293.639 578.542 289.032 M582.801 299.079 Q582.801 305.699 579.861 308.917 Q576.921 312.157 570.856 312.157 Q568.611 312.157 566.62 311.81 Q564.63 311.486 562.755 310.792 L562.755 306.648 Q564.63 307.667 566.458 308.153 Q568.287 308.639 570.185 308.639 Q574.375 308.639 576.458 306.44 Q578.542 304.264 578.542 299.843 L578.542 297.736 Q577.222 300.028 575.162 301.162 Q573.102 302.296 570.231 302.296 Q565.463 302.296 562.546 298.662 Q559.63 295.028 559.63 289.032 Q559.63 283.014 562.546 279.38 Q565.463 275.746 570.231 275.746 Q573.102 275.746 575.162 276.88 Q577.222 278.014 578.542 280.306 L578.542 276.371 L582.801 276.371 L582.801 299.079 Z" fill="#000000" fill-rule="nonzero" fill-opacity="1" /><path clip-path="url(#clip480)" d="M608.634 289.032 Q608.634 284.403 606.713 281.857 Q604.815 279.31 601.365 279.31 Q597.94 279.31 596.018 281.857 Q594.12 284.403 594.12 289.032 Q594.12 293.639 596.018 296.185 Q597.94 298.731 601.365 298.731 Q604.815 298.731 606.713 296.185 Q608.634 293.639 608.634 289.032 M612.893 299.079 Q612.893 305.699 609.953 308.917 Q607.014 312.157 600.949 312.157 Q598.703 312.157 596.713 311.81 Q594.722 311.486 592.847 310.792 L592.847 306.648 Q594.722 307.667 596.551 308.153 Q598.379 308.639 600.278 308.639 Q604.467 308.639 606.551 306.44 Q608.634 304.264 608.634 299.843 L608.634 297.736 Q607.315 300.028 605.254 301.162 Q603.194 302.296 600.324 302.296 Q595.555 302.296 592.639 298.662 Q589.722 295.028 589.722 289.032 Q589.722 283.014 592.639 279.38 Q595.555 275.746 600.324 275.746 Q603.194 275.746 605.254 276.88 Q607.315 278.014 608.634 280.306 L608.634 276.371 L612.893 276.371 L612.893 299.079 Z" fill="#000000" fill-rule="nonzero" fill-opacity="1" /><path clip-path="url(#clip480)" d="M643.842 288.269 L643.842 290.352 L624.259 290.352 Q624.537 294.75 626.898 297.065 Q629.282 299.356 633.518 299.356 Q635.972 299.356 638.263 298.755 Q640.578 298.153 642.847 296.949 L642.847 300.977 Q640.555 301.949 638.148 302.458 Q635.74 302.968 633.263 302.968 Q627.06 302.968 623.426 299.356 Q619.814 295.745 619.814 289.588 Q619.814 283.222 623.24 279.495 Q626.689 275.746 632.523 275.746 Q637.754 275.746 640.787 279.125 Q643.842 282.482 643.842 288.269 M639.583 287.019 Q639.537 283.523 637.615 281.44 Q635.717 279.357 632.569 279.357 Q629.004 279.357 626.851 281.37 Q624.722 283.384 624.398 287.042 L639.583 287.019 Z" fill="#000000" fill-rule="nonzero" fill-opacity="1" /><path clip-path="url(#clip480)" d="M667.893 280.306 L667.893 266.278 L672.152 266.278 L672.152 302.296 L667.893 302.296 L667.893 298.407 Q666.55 300.722 664.49 301.856 Q662.453 302.968 659.583 302.968 Q654.884 302.968 651.921 299.218 Q648.981 295.468 648.981 289.357 Q648.981 283.245 651.921 279.495 Q654.884 275.746 659.583 275.746 Q662.453 275.746 664.49 276.88 Q666.55 277.991 667.893 280.306 M653.379 289.357 Q653.379 294.056 655.3 296.741 Q657.245 299.403 660.624 299.403 Q664.004 299.403 665.948 296.741 Q667.893 294.056 667.893 289.357 Q667.893 284.657 665.948 281.995 Q664.004 279.31 660.624 279.31 Q657.245 279.31 655.3 281.995 Q653.379 284.657 653.379 289.357 Z" fill="#000000" fill-rule="nonzero" fill-opacity="1" /><path clip-path="url(#clip480)" d="M706.226 266.324 Q703.124 271.648 701.62 276.857 Q700.115 282.065 700.115 287.412 Q700.115 292.759 701.62 298.014 Q703.147 303.245 706.226 308.546 L702.522 308.546 Q699.05 303.106 697.314 297.852 Q695.601 292.597 695.601 287.412 Q695.601 282.25 697.314 277.019 Q699.027 271.787 702.522 266.324 L706.226 266.324 Z" fill="#000000" fill-rule="nonzero" fill-opacity="1" /><path clip-path="url(#clip480)" d="M714.675 267.736 L719.351 267.736 L719.351 298.361 L736.18 298.361 L736.18 302.296 L714.675 302.296 L714.675 267.736 Z" fill="#000000" fill-rule="nonzero" fill-opacity="1" /><path clip-path="url(#clip480)" d="M741.457 280.769 L771.133 280.769 L771.133 284.657 L741.457 284.657 L741.457 280.769 M741.457 290.213 L771.133 290.213 L771.133 294.148 L741.457 294.148 L741.457 290.213 Z" fill="#000000" fill-rule="nonzero" fill-opacity="1" /><path clip-path="url(#clip480)" d="M782.036 298.361 L789.675 298.361 L789.675 271.996 L781.365 273.662 L781.365 269.403 L789.628 267.736 L794.304 267.736 L794.304 298.361 L801.943 298.361 L801.943 302.296 L782.036 302.296 L782.036 298.361 Z" fill="#000000" fill-rule="nonzero" fill-opacity="1" /><path clip-path="url(#clip480)" d="M810.114 266.324 L813.818 266.324 Q817.29 271.787 819.003 277.019 Q820.739 282.25 820.739 287.412 Q820.739 292.597 819.003 297.852 Q817.29 303.106 813.818 308.546 L810.114 308.546 Q813.193 303.245 814.698 298.014 Q816.225 292.759 816.225 287.412 Q816.225 282.065 814.698 276.857 Q813.193 271.648 810.114 266.324 Z" fill="#000000" fill-rule="nonzero" fill-opacity="1" /></svg>
