<?xml version="1.0" encoding="utf-8"?>
<svg xmlns="http://www.w3.org/2000/svg" xmlns:xlink="http://www.w3.org/1999/xlink" width="672" height="480" viewBox="0 0 2688 1920">
<defs>
  <clipPath id="clip420">
    <rect x="0" y="0" width="2688" height="1920"/>
  </clipPath>
</defs>
<path clip-path="url(#clip420)" d="M0 1920 L2688 1920 L2688 -4.26326e-14 L0 -4.26326e-14  Z" fill="#ffffff" fill-rule="evenodd" fill-opacity="1"/>
<defs>
  <clipPath id="clip421">
    <rect x="253" y="127" width="2388" height="1607"/>
  </clipPath>
</defs>
<path clip-path="url(#clip420)" d="M253.733 1734.12 L2640.76 1734.12 L2640.76 127.792 L253.733 127.792  Z" fill="#ffffff" fill-rule="evenodd" fill-opacity="1"/>
<polyline clip-path="url(#clip421)" style="stroke:#000000; stroke-linecap:round; stroke-linejoin:round; stroke-width:2; stroke-opacity:0.1; fill:none" points="275.333,1734.12 275.333,127.792 "/>
<polyline clip-path="url(#clip421)" style="stroke:#000000; stroke-linecap:round; stroke-linejoin:round; stroke-width:2; stroke-opacity:0.1; fill:none" points="734.906,1734.12 734.906,127.792 "/>
<polyline clip-path="url(#clip421)" style="stroke:#000000; stroke-linecap:round; stroke-linejoin:round; stroke-width:2; stroke-opacity:0.1; fill:none" points="1194.48,1734.12 1194.48,127.792 "/>
<polyline clip-path="url(#clip421)" style="stroke:#000000; stroke-linecap:round; stroke-linejoin:round; stroke-width:2; stroke-opacity:0.1; fill:none" points="1654.05,1734.12 1654.05,127.792 "/>
<polyline clip-path="url(#clip421)" style="stroke:#000000; stroke-linecap:round; stroke-linejoin:round; stroke-width:2; stroke-opacity:0.1; fill:none" points="2113.63,1734.12 2113.63,127.792 "/>
<polyline clip-path="url(#clip421)" style="stroke:#000000; stroke-linecap:round; stroke-linejoin:round; stroke-width:2; stroke-opacity:0.1; fill:none" points="2573.2,1734.12 2573.2,127.792 "/>
<polyline clip-path="url(#clip421)" style="stroke:#000000; stroke-linecap:round; stroke-linejoin:round; stroke-width:2; stroke-opacity:0.1; fill:none" points="253.733,1564.61 2640.76,1564.61 "/>
<polyline clip-path="url(#clip421)" style="stroke:#000000; stroke-linecap:round; stroke-linejoin:round; stroke-width:2; stroke-opacity:0.1; fill:none" points="253.733,1355.29 2640.76,1355.29 "/>
<polyline clip-path="url(#clip421)" style="stroke:#000000; stroke-linecap:round; stroke-linejoin:round; stroke-width:2; stroke-opacity:0.1; fill:none" points="253.733,1145.97 2640.76,1145.97 "/>
<polyline clip-path="url(#clip421)" style="stroke:#000000; stroke-linecap:round; stroke-linejoin:round; stroke-width:2; stroke-opacity:0.1; fill:none" points="253.733,936.655 2640.76,936.655 "/>
<polyline clip-path="url(#clip421)" style="stroke:#000000; stroke-linecap:round; stroke-linejoin:round; stroke-width:2; stroke-opacity:0.1; fill:none" points="253.733,727.335 2640.76,727.335 "/>
<polyline clip-path="url(#clip421)" style="stroke:#000000; stroke-linecap:round; stroke-linejoin:round; stroke-width:2; stroke-opacity:0.1; fill:none" points="253.733,518.016 2640.76,518.016 "/>
<polyline clip-path="url(#clip421)" style="stroke:#000000; stroke-linecap:round; stroke-linejoin:round; stroke-width:2; stroke-opacity:0.1; fill:none" points="253.733,308.696 2640.76,308.696 "/>
<polyline clip-path="url(#clip420)" style="stroke:#000000; stroke-linecap:round; stroke-linejoin:round; stroke-width:4; stroke-opacity:1; fill:none" points="253.733,1734.12 2640.76,1734.12 "/>
<polyline clip-path="url(#clip420)" style="stroke:#000000; stroke-linecap:round; stroke-linejoin:round; stroke-width:4; stroke-opacity:1; fill:none" points="275.333,1734.12 275.333,1715.22 "/>
<polyline clip-path="url(#clip420)" style="stroke:#000000; stroke-linecap:round; stroke-linejoin:round; stroke-width:4; stroke-opacity:1; fill:none" points="734.906,1734.12 734.906,1715.22 "/>
<polyline clip-path="url(#clip420)" style="stroke:#000000; stroke-linecap:round; stroke-linejoin:round; stroke-width:4; stroke-opacity:1; fill:none" points="1194.48,1734.12 1194.48,1715.22 "/>
<polyline clip-path="url(#clip420)" style="stroke:#000000; stroke-linecap:round; stroke-linejoin:round; stroke-width:4; stroke-opacity:1; fill:none" points="1654.05,1734.12 1654.05,1715.22 "/>
<polyline clip-path="url(#clip420)" style="stroke:#000000; stroke-linecap:round; stroke-linejoin:round; stroke-width:4; stroke-opacity:1; fill:none" points="2113.63,1734.12 2113.63,1715.22 "/>
<polyline clip-path="url(#clip420)" style="stroke:#000000; stroke-linecap:round; stroke-linejoin:round; stroke-width:4; stroke-opacity:1; fill:none" points="2573.2,1734.12 2573.2,1715.22 "/>
<path clip-path="url(#clip420)" d="M275.333 1767.34 Q271.722 1767.34 269.893 1770.9 Q268.088 1774.45 268.088 1781.58 Q268.088 1788.68 269.893 1792.25 Q271.722 1795.79 275.333 1795.79 Q278.967 1795.79 280.773 1792.25 Q282.601 1788.68 282.601 1781.58 Q282.601 1774.45 280.773 1770.9 Q278.967 1767.34 275.333 1767.34 M275.333 1763.64 Q281.143 1763.64 284.199 1768.24 Q287.277 1772.83 287.277 1781.58 Q287.277 1790.3 284.199 1794.91 Q281.143 1799.49 275.333 1799.49 Q269.523 1799.49 266.444 1794.91 Q263.389 1790.3 263.389 1781.58 Q263.389 1772.83 266.444 1768.24 Q269.523 1763.64 275.333 1763.64 Z" fill="#000000" fill-rule="nonzero" fill-opacity="1" /><path clip-path="url(#clip420)" d="M709.594 1794.89 L717.233 1794.89 L717.233 1768.52 L708.922 1770.19 L708.922 1765.93 L717.186 1764.26 L721.862 1764.26 L721.862 1794.89 L729.501 1794.89 L729.501 1798.82 L709.594 1798.82 L709.594 1794.89 Z" fill="#000000" fill-rule="nonzero" fill-opacity="1" /><path clip-path="url(#clip420)" d="M748.945 1767.34 Q745.334 1767.34 743.506 1770.9 Q741.7 1774.45 741.7 1781.58 Q741.7 1788.68 743.506 1792.25 Q745.334 1795.79 748.945 1795.79 Q752.58 1795.79 754.385 1792.25 Q756.214 1788.68 756.214 1781.58 Q756.214 1774.45 754.385 1770.9 Q752.58 1767.34 748.945 1767.34 M748.945 1763.64 Q754.756 1763.64 757.811 1768.24 Q760.89 1772.83 760.89 1781.58 Q760.89 1790.3 757.811 1794.91 Q754.756 1799.49 748.945 1799.49 Q743.135 1799.49 740.057 1794.91 Q737.001 1790.3 737.001 1781.58 Q737.001 1772.83 740.057 1768.24 Q743.135 1763.64 748.945 1763.64 Z" fill="#000000" fill-rule="nonzero" fill-opacity="1" /><path clip-path="url(#clip420)" d="M1173.25 1794.89 L1189.57 1794.89 L1189.57 1798.82 L1167.63 1798.82 L1167.63 1794.89 Q1170.29 1792.13 1174.87 1787.5 Q1179.48 1782.85 1180.66 1781.51 Q1182.91 1778.98 1183.78 1777.25 Q1184.69 1775.49 1184.69 1773.8 Q1184.69 1771.04 1182.74 1769.31 Q1180.82 1767.57 1177.72 1767.57 Q1175.52 1767.57 1173.07 1768.34 Q1170.64 1769.1 1167.86 1770.65 L1167.86 1765.93 Q1170.68 1764.79 1173.14 1764.21 Q1175.59 1763.64 1177.63 1763.64 Q1183 1763.64 1186.19 1766.32 Q1189.39 1769.01 1189.39 1773.5 Q1189.39 1775.63 1188.58 1777.55 Q1187.79 1779.45 1185.68 1782.04 Q1185.1 1782.71 1182 1785.93 Q1178.9 1789.12 1173.25 1794.89 Z" fill="#000000" fill-rule="nonzero" fill-opacity="1" /><path clip-path="url(#clip420)" d="M1209.39 1767.34 Q1205.78 1767.34 1203.95 1770.9 Q1202.14 1774.45 1202.14 1781.58 Q1202.14 1788.68 1203.95 1792.25 Q1205.78 1795.79 1209.39 1795.79 Q1213.02 1795.79 1214.83 1792.25 Q1216.66 1788.68 1216.66 1781.58 Q1216.66 1774.45 1214.83 1770.9 Q1213.02 1767.34 1209.39 1767.34 M1209.39 1763.64 Q1215.2 1763.64 1218.25 1768.24 Q1221.33 1772.83 1221.33 1781.58 Q1221.33 1790.3 1218.25 1794.91 Q1215.2 1799.49 1209.39 1799.49 Q1203.58 1799.49 1200.5 1794.91 Q1197.44 1790.3 1197.44 1781.58 Q1197.44 1772.83 1200.5 1768.24 Q1203.58 1763.64 1209.39 1763.64 Z" fill="#000000" fill-rule="nonzero" fill-opacity="1" /><path clip-path="url(#clip420)" d="M1642.9 1780.19 Q1646.25 1780.9 1648.13 1783.17 Q1650.02 1785.44 1650.02 1788.77 Q1650.02 1793.89 1646.51 1796.69 Q1642.99 1799.49 1636.51 1799.49 Q1634.33 1799.49 1632.02 1799.05 Q1629.72 1798.64 1627.27 1797.78 L1627.27 1793.27 Q1629.21 1794.4 1631.53 1794.98 Q1633.84 1795.56 1636.37 1795.56 Q1640.77 1795.56 1643.06 1793.82 Q1645.37 1792.08 1645.37 1788.77 Q1645.37 1785.72 1643.22 1784.01 Q1641.09 1782.27 1637.27 1782.27 L1633.24 1782.27 L1633.24 1778.43 L1637.46 1778.43 Q1640.9 1778.43 1642.73 1777.06 Q1644.56 1775.67 1644.56 1773.08 Q1644.56 1770.42 1642.66 1769.01 Q1640.79 1767.57 1637.27 1767.57 Q1635.35 1767.57 1633.15 1767.99 Q1630.95 1768.4 1628.31 1769.28 L1628.31 1765.12 Q1630.97 1764.38 1633.29 1764.01 Q1635.63 1763.64 1637.69 1763.64 Q1643.01 1763.64 1646.11 1766.07 Q1649.21 1768.47 1649.21 1772.59 Q1649.21 1775.46 1647.57 1777.46 Q1645.93 1779.42 1642.9 1780.19 Z" fill="#000000" fill-rule="nonzero" fill-opacity="1" /><path clip-path="url(#clip420)" d="M1668.89 1767.34 Q1665.28 1767.34 1663.45 1770.9 Q1661.64 1774.45 1661.64 1781.58 Q1661.64 1788.68 1663.45 1792.25 Q1665.28 1795.79 1668.89 1795.79 Q1672.52 1795.79 1674.33 1792.25 Q1676.16 1788.68 1676.16 1781.58 Q1676.16 1774.45 1674.33 1770.9 Q1672.52 1767.34 1668.89 1767.34 M1668.89 1763.64 Q1674.7 1763.64 1677.76 1768.24 Q1680.83 1772.83 1680.83 1781.58 Q1680.83 1790.3 1677.76 1794.91 Q1674.7 1799.49 1668.89 1799.49 Q1663.08 1799.49 1660 1794.91 Q1656.95 1790.3 1656.95 1781.58 Q1656.95 1772.83 1660 1768.24 Q1663.08 1763.64 1668.89 1763.64 Z" fill="#000000" fill-rule="nonzero" fill-opacity="1" /><path clip-path="url(#clip420)" d="M2101.8 1768.34 L2089.99 1786.78 L2101.8 1786.78 L2101.8 1768.34 M2100.57 1764.26 L2106.45 1764.26 L2106.45 1786.78 L2111.38 1786.78 L2111.38 1790.67 L2106.45 1790.67 L2106.45 1798.82 L2101.8 1798.82 L2101.8 1790.67 L2086.2 1790.67 L2086.2 1786.16 L2100.57 1764.26 Z" fill="#000000" fill-rule="nonzero" fill-opacity="1" /><path clip-path="url(#clip420)" d="M2129.11 1767.34 Q2125.5 1767.34 2123.67 1770.9 Q2121.87 1774.45 2121.87 1781.58 Q2121.87 1788.68 2123.67 1792.25 Q2125.5 1795.79 2129.11 1795.79 Q2132.75 1795.79 2134.55 1792.25 Q2136.38 1788.68 2136.38 1781.58 Q2136.38 1774.45 2134.55 1770.9 Q2132.75 1767.34 2129.11 1767.34 M2129.11 1763.64 Q2134.92 1763.64 2137.98 1768.24 Q2141.06 1772.83 2141.06 1781.58 Q2141.06 1790.3 2137.98 1794.91 Q2134.92 1799.49 2129.11 1799.49 Q2123.3 1799.49 2120.22 1794.91 Q2117.17 1790.3 2117.17 1781.58 Q2117.17 1772.83 2120.22 1768.24 Q2123.3 1763.64 2129.11 1763.64 Z" fill="#000000" fill-rule="nonzero" fill-opacity="1" /><path clip-path="url(#clip420)" d="M2547.9 1764.26 L2566.25 1764.26 L2566.25 1768.2 L2552.18 1768.2 L2552.18 1776.67 Q2553.2 1776.32 2554.22 1776.16 Q2555.24 1775.97 2556.25 1775.97 Q2562.04 1775.97 2565.42 1779.15 Q2568.8 1782.32 2568.8 1787.73 Q2568.8 1793.31 2565.33 1796.41 Q2561.86 1799.49 2555.54 1799.49 Q2553.36 1799.49 2551.09 1799.12 Q2548.85 1798.75 2546.44 1798.01 L2546.44 1793.31 Q2548.52 1794.45 2550.75 1795 Q2552.97 1795.56 2555.44 1795.56 Q2559.45 1795.56 2561.79 1793.45 Q2564.12 1791.34 2564.12 1787.73 Q2564.12 1784.12 2561.79 1782.02 Q2559.45 1779.91 2555.44 1779.91 Q2553.57 1779.91 2551.69 1780.33 Q2549.84 1780.74 2547.9 1781.62 L2547.9 1764.26 Z" fill="#000000" fill-rule="nonzero" fill-opacity="1" /><path clip-path="url(#clip420)" d="M2588.01 1767.34 Q2584.4 1767.34 2582.57 1770.9 Q2580.77 1774.45 2580.77 1781.58 Q2580.77 1788.68 2582.57 1792.25 Q2584.4 1795.79 2588.01 1795.79 Q2591.65 1795.79 2593.45 1792.25 Q2595.28 1788.68 2595.28 1781.58 Q2595.28 1774.45 2593.45 1770.9 Q2591.65 1767.34 2588.01 1767.34 M2588.01 1763.64 Q2593.82 1763.64 2596.88 1768.24 Q2599.96 1772.83 2599.96 1781.58 Q2599.96 1790.3 2596.88 1794.91 Q2593.82 1799.49 2588.01 1799.49 Q2582.2 1799.49 2579.12 1794.91 Q2576.07 1790.3 2576.07 1781.58 Q2576.07 1772.83 2579.12 1768.24 Q2582.2 1763.64 2588.01 1763.64 Z" fill="#000000" fill-rule="nonzero" fill-opacity="1" /><path clip-path="url(#clip420)" d="M1288.31 1835.78 L1328.51 1835.78 L1328.51 1841.19 L1311.64 1841.19 L1311.64 1883.3 L1305.18 1883.3 L1305.18 1841.19 L1288.31 1841.19 L1288.31 1835.78 Z" fill="#000000" fill-rule="nonzero" fill-opacity="1" /><path clip-path="url(#clip420)" d="M1332.45 1847.65 L1338.31 1847.65 L1338.31 1883.3 L1332.45 1883.3 L1332.45 1847.65 M1332.45 1833.78 L1338.31 1833.78 L1338.31 1841.19 L1332.45 1841.19 L1332.45 1833.78 Z" fill="#000000" fill-rule="nonzero" fill-opacity="1" /><path clip-path="url(#clip420)" d="M1378.32 1854.5 Q1380.52 1850.55 1383.57 1848.67 Q1386.63 1846.79 1390.76 1846.79 Q1396.33 1846.79 1399.36 1850.71 Q1402.38 1854.59 1402.38 1861.78 L1402.38 1883.3 L1396.49 1883.3 L1396.49 1861.98 Q1396.49 1856.85 1394.68 1854.37 Q1392.87 1851.89 1389.14 1851.89 Q1384.59 1851.89 1381.95 1854.91 Q1379.31 1857.93 1379.31 1863.15 L1379.31 1883.3 L1373.42 1883.3 L1373.42 1861.98 Q1373.42 1856.82 1371.6 1854.37 Q1369.79 1851.89 1366 1851.89 Q1361.51 1851.89 1358.87 1854.94 Q1356.23 1857.97 1356.23 1863.15 L1356.23 1883.3 L1350.34 1883.3 L1350.34 1847.65 L1356.23 1847.65 L1356.23 1853.19 Q1358.24 1849.91 1361.04 1848.35 Q1363.84 1846.79 1367.69 1846.79 Q1371.57 1846.79 1374.28 1848.77 Q1377.01 1850.74 1378.32 1854.5 Z" fill="#000000" fill-rule="nonzero" fill-opacity="1" /><path clip-path="url(#clip420)" d="M1444.55 1864.01 L1444.55 1866.88 L1417.63 1866.88 Q1418.01 1872.92 1421.26 1876.11 Q1424.53 1879.26 1430.36 1879.26 Q1433.73 1879.26 1436.88 1878.43 Q1440.07 1877.6 1443.19 1875.95 L1443.19 1881.49 Q1440.04 1882.82 1436.73 1883.52 Q1433.41 1884.22 1430.01 1884.22 Q1421.48 1884.22 1416.48 1879.26 Q1411.52 1874.29 1411.52 1865.83 Q1411.52 1857.07 1416.23 1851.95 Q1420.97 1846.79 1428.99 1846.79 Q1436.18 1846.79 1440.35 1851.44 Q1444.55 1856.06 1444.55 1864.01 M1438.7 1862.29 Q1438.63 1857.49 1435.99 1854.62 Q1433.38 1851.76 1429.05 1851.76 Q1424.15 1851.76 1421.19 1854.53 Q1418.26 1857.3 1417.82 1862.33 L1438.7 1862.29 Z" fill="#000000" fill-rule="nonzero" fill-opacity="1" /><path clip-path="url(#clip420)" d="M1497.61 1848.7 L1497.61 1854.24 Q1495.13 1852.97 1492.46 1852.33 Q1489.78 1851.7 1486.92 1851.7 Q1482.56 1851.7 1480.36 1853.03 Q1478.2 1854.37 1478.2 1857.04 Q1478.2 1859.08 1479.76 1860.26 Q1481.32 1861.4 1486.03 1862.45 L1488.03 1862.9 Q1494.27 1864.24 1496.88 1866.69 Q1499.52 1869.11 1499.52 1873.47 Q1499.52 1878.43 1495.58 1881.33 Q1491.66 1884.22 1484.79 1884.22 Q1481.92 1884.22 1478.8 1883.65 Q1475.72 1883.11 1472.28 1882 L1472.28 1875.95 Q1475.52 1877.64 1478.68 1878.49 Q1481.83 1879.32 1484.91 1879.32 Q1489.05 1879.32 1491.28 1877.92 Q1493.51 1876.49 1493.51 1873.91 Q1493.51 1871.52 1491.88 1870.25 Q1490.29 1868.98 1484.85 1867.8 L1482.81 1867.32 Q1477.37 1866.18 1474.95 1863.82 Q1472.53 1861.43 1472.53 1857.3 Q1472.53 1852.27 1476.1 1849.53 Q1479.66 1846.79 1486.22 1846.79 Q1489.47 1846.79 1492.33 1847.27 Q1495.19 1847.75 1497.61 1848.7 Z" fill="#000000" fill-rule="nonzero" fill-opacity="1" /><path clip-path="url(#clip420)" d="M1514.64 1837.53 L1514.64 1847.65 L1526.7 1847.65 L1526.7 1852.2 L1514.64 1852.2 L1514.64 1871.56 Q1514.64 1875.92 1515.82 1877.16 Q1517.03 1878.4 1520.69 1878.4 L1526.7 1878.4 L1526.7 1883.3 L1520.69 1883.3 Q1513.91 1883.3 1511.33 1880.79 Q1508.75 1878.24 1508.75 1871.56 L1508.75 1852.2 L1504.46 1852.2 L1504.46 1847.65 L1508.75 1847.65 L1508.75 1837.53 L1514.64 1837.53 Z" fill="#000000" fill-rule="nonzero" fill-opacity="1" /><path clip-path="url(#clip420)" d="M1564.9 1864.01 L1564.9 1866.88 L1537.97 1866.88 Q1538.35 1872.92 1541.6 1876.11 Q1544.88 1879.26 1550.7 1879.26 Q1554.08 1879.26 1557.23 1878.43 Q1560.41 1877.6 1563.53 1875.95 L1563.53 1881.49 Q1560.38 1882.82 1557.07 1883.52 Q1553.76 1884.22 1550.35 1884.22 Q1541.82 1884.22 1536.83 1879.26 Q1531.86 1874.29 1531.86 1865.83 Q1531.86 1857.07 1536.57 1851.95 Q1541.31 1846.79 1549.33 1846.79 Q1556.53 1846.79 1560.7 1851.44 Q1564.9 1856.06 1564.9 1864.01 M1559.04 1862.29 Q1558.98 1857.49 1556.34 1854.62 Q1553.73 1851.76 1549.4 1851.76 Q1544.5 1851.76 1541.54 1854.53 Q1538.61 1857.3 1538.16 1862.33 L1559.04 1862.29 Z" fill="#000000" fill-rule="nonzero" fill-opacity="1" /><path clip-path="url(#clip420)" d="M1580.18 1877.95 L1580.18 1896.86 L1574.29 1896.86 L1574.29 1847.65 L1580.18 1847.65 L1580.18 1853.06 Q1582.02 1849.88 1584.82 1848.35 Q1587.66 1846.79 1591.57 1846.79 Q1598.06 1846.79 1602.11 1851.95 Q1606.18 1857.11 1606.18 1865.51 Q1606.18 1873.91 1602.11 1879.07 Q1598.06 1884.22 1591.57 1884.22 Q1587.66 1884.22 1584.82 1882.7 Q1582.02 1881.14 1580.18 1877.95 M1600.1 1865.51 Q1600.1 1859.05 1597.43 1855.39 Q1594.79 1851.7 1590.14 1851.7 Q1585.49 1851.7 1582.82 1855.39 Q1580.18 1859.05 1580.18 1865.51 Q1580.18 1871.97 1582.82 1875.66 Q1585.49 1879.32 1590.14 1879.32 Q1594.79 1879.32 1597.43 1875.66 Q1600.1 1871.97 1600.1 1865.51 Z" fill="#000000" fill-rule="nonzero" fill-opacity="1" /><polyline clip-path="url(#clip420)" style="stroke:#000000; stroke-linecap:round; stroke-linejoin:round; stroke-width:4; stroke-opacity:1; fill:none" points="253.733,1734.12 253.733,127.792 "/>
<polyline clip-path="url(#clip420)" style="stroke:#000000; stroke-linecap:round; stroke-linejoin:round; stroke-width:4; stroke-opacity:1; fill:none" points="253.733,1564.61 272.631,1564.61 "/>
<polyline clip-path="url(#clip420)" style="stroke:#000000; stroke-linecap:round; stroke-linejoin:round; stroke-width:4; stroke-opacity:1; fill:none" points="253.733,1355.29 272.631,1355.29 "/>
<polyline clip-path="url(#clip420)" style="stroke:#000000; stroke-linecap:round; stroke-linejoin:round; stroke-width:4; stroke-opacity:1; fill:none" points="253.733,1145.97 272.631,1145.97 "/>
<polyline clip-path="url(#clip420)" style="stroke:#000000; stroke-linecap:round; stroke-linejoin:round; stroke-width:4; stroke-opacity:1; fill:none" points="253.733,936.655 272.631,936.655 "/>
<polyline clip-path="url(#clip420)" style="stroke:#000000; stroke-linecap:round; stroke-linejoin:round; stroke-width:4; stroke-opacity:1; fill:none" points="253.733,727.335 272.631,727.335 "/>
<polyline clip-path="url(#clip420)" style="stroke:#000000; stroke-linecap:round; stroke-linejoin:round; stroke-width:4; stroke-opacity:1; fill:none" points="253.733,518.016 272.631,518.016 "/>
<polyline clip-path="url(#clip420)" style="stroke:#000000; stroke-linecap:round; stroke-linejoin:round; stroke-width:4; stroke-opacity:1; fill:none" points="253.733,308.696 272.631,308.696 "/>
<path clip-path="url(#clip420)" d="M117.881 1577.96 L125.52 1577.96 L125.52 1551.59 L117.21 1553.26 L117.21 1549 L125.474 1547.33 L130.15 1547.33 L130.15 1577.96 L137.788 1577.96 L137.788 1581.89 L117.881 1581.89 L117.881 1577.96 Z" fill="#000000" fill-rule="nonzero" fill-opacity="1" /><path clip-path="url(#clip420)" d="M147.233 1576.01 L152.117 1576.01 L152.117 1581.89 L147.233 1581.89 L147.233 1576.01 Z" fill="#000000" fill-rule="nonzero" fill-opacity="1" /><path clip-path="url(#clip420)" d="M172.302 1550.41 Q168.691 1550.41 166.862 1553.98 Q165.057 1557.52 165.057 1564.65 Q165.057 1571.75 166.862 1575.32 Q168.691 1578.86 172.302 1578.86 Q175.936 1578.86 177.742 1575.32 Q179.571 1571.75 179.571 1564.65 Q179.571 1557.52 177.742 1553.98 Q175.936 1550.41 172.302 1550.41 M172.302 1546.71 Q178.112 1546.71 181.168 1551.32 Q184.246 1555.9 184.246 1564.65 Q184.246 1573.38 181.168 1577.98 Q178.112 1582.57 172.302 1582.57 Q166.492 1582.57 163.413 1577.98 Q160.358 1573.38 160.358 1564.65 Q160.358 1555.9 163.413 1551.32 Q166.492 1546.71 172.302 1546.71 Z" fill="#000000" fill-rule="nonzero" fill-opacity="1" /><path clip-path="url(#clip420)" d="M192.51 1547.33 L210.867 1547.33 L210.867 1551.27 L196.793 1551.27 L196.793 1559.74 Q197.811 1559.39 198.83 1559.23 Q199.848 1559.05 200.867 1559.05 Q206.654 1559.05 210.033 1562.22 Q213.413 1565.39 213.413 1570.81 Q213.413 1576.38 209.941 1579.49 Q206.469 1582.57 200.149 1582.57 Q197.973 1582.57 195.705 1582.19 Q193.459 1581.82 191.052 1581.08 L191.052 1576.38 Q193.135 1577.52 195.358 1578.07 Q197.58 1578.63 200.057 1578.63 Q204.061 1578.63 206.399 1576.52 Q208.737 1574.42 208.737 1570.81 Q208.737 1567.19 206.399 1565.09 Q204.061 1562.98 200.057 1562.98 Q198.182 1562.98 196.307 1563.4 Q194.455 1563.82 192.51 1564.69 L192.51 1547.33 Z" fill="#000000" fill-rule="nonzero" fill-opacity="1" /><path clip-path="url(#clip420)" d="M116.886 1368.64 L124.525 1368.64 L124.525 1342.27 L116.214 1343.94 L116.214 1339.68 L124.478 1338.01 L129.154 1338.01 L129.154 1368.64 L136.793 1368.64 L136.793 1372.57 L116.886 1372.57 L116.886 1368.64 Z" fill="#000000" fill-rule="nonzero" fill-opacity="1" /><path clip-path="url(#clip420)" d="M146.237 1366.69 L151.122 1366.69 L151.122 1372.57 L146.237 1372.57 L146.237 1366.69 Z" fill="#000000" fill-rule="nonzero" fill-opacity="1" /><path clip-path="url(#clip420)" d="M162.117 1368.64 L169.756 1368.64 L169.756 1342.27 L161.446 1343.94 L161.446 1339.68 L169.71 1338.01 L174.385 1338.01 L174.385 1368.64 L182.024 1368.64 L182.024 1372.57 L162.117 1372.57 L162.117 1368.64 Z" fill="#000000" fill-rule="nonzero" fill-opacity="1" /><path clip-path="url(#clip420)" d="M201.469 1341.09 Q197.858 1341.09 196.029 1344.66 Q194.223 1348.2 194.223 1355.33 Q194.223 1362.44 196.029 1366 Q197.858 1369.54 201.469 1369.54 Q205.103 1369.54 206.908 1366 Q208.737 1362.44 208.737 1355.33 Q208.737 1348.2 206.908 1344.66 Q205.103 1341.09 201.469 1341.09 M201.469 1337.39 Q207.279 1337.39 210.334 1342 Q213.413 1346.58 213.413 1355.33 Q213.413 1364.06 210.334 1368.66 Q207.279 1373.25 201.469 1373.25 Q195.658 1373.25 192.58 1368.66 Q189.524 1364.06 189.524 1355.33 Q189.524 1346.58 192.58 1342 Q195.658 1337.39 201.469 1337.39 Z" fill="#000000" fill-rule="nonzero" fill-opacity="1" /><path clip-path="url(#clip420)" d="M117.881 1159.32 L125.52 1159.32 L125.52 1132.95 L117.21 1134.62 L117.21 1130.36 L125.474 1128.69 L130.15 1128.69 L130.15 1159.32 L137.788 1159.32 L137.788 1163.25 L117.881 1163.25 L117.881 1159.32 Z" fill="#000000" fill-rule="nonzero" fill-opacity="1" /><path clip-path="url(#clip420)" d="M147.233 1157.37 L152.117 1157.37 L152.117 1163.25 L147.233 1163.25 L147.233 1157.37 Z" fill="#000000" fill-rule="nonzero" fill-opacity="1" /><path clip-path="url(#clip420)" d="M163.112 1159.32 L170.751 1159.32 L170.751 1132.95 L162.441 1134.62 L162.441 1130.36 L170.705 1128.69 L175.381 1128.69 L175.381 1159.32 L183.02 1159.32 L183.02 1163.25 L163.112 1163.25 L163.112 1159.32 Z" fill="#000000" fill-rule="nonzero" fill-opacity="1" /><path clip-path="url(#clip420)" d="M192.51 1128.69 L210.867 1128.69 L210.867 1132.63 L196.793 1132.63 L196.793 1141.1 Q197.811 1140.75 198.83 1140.59 Q199.848 1140.41 200.867 1140.41 Q206.654 1140.41 210.033 1143.58 Q213.413 1146.75 213.413 1152.17 Q213.413 1157.75 209.941 1160.85 Q206.469 1163.93 200.149 1163.93 Q197.973 1163.93 195.705 1163.56 Q193.459 1163.19 191.052 1162.44 L191.052 1157.75 Q193.135 1158.88 195.358 1159.44 Q197.58 1159.99 200.057 1159.99 Q204.061 1159.99 206.399 1157.88 Q208.737 1155.78 208.737 1152.17 Q208.737 1148.56 206.399 1146.45 Q204.061 1144.34 200.057 1144.34 Q198.182 1144.34 196.307 1144.76 Q194.455 1145.18 192.51 1146.06 L192.51 1128.69 Z" fill="#000000" fill-rule="nonzero" fill-opacity="1" /><path clip-path="url(#clip420)" d="M116.886 950 L124.525 950 L124.525 923.634 L116.214 925.301 L116.214 921.042 L124.478 919.375 L129.154 919.375 L129.154 950 L136.793 950 L136.793 953.935 L116.886 953.935 L116.886 950 Z" fill="#000000" fill-rule="nonzero" fill-opacity="1" /><path clip-path="url(#clip420)" d="M146.237 948.055 L151.122 948.055 L151.122 953.935 L146.237 953.935 L146.237 948.055 Z" fill="#000000" fill-rule="nonzero" fill-opacity="1" /><path clip-path="url(#clip420)" d="M165.335 950 L181.654 950 L181.654 953.935 L159.71 953.935 L159.71 950 Q162.372 947.245 166.955 942.616 Q171.561 937.963 172.742 936.62 Q174.987 934.097 175.867 932.361 Q176.77 930.602 176.77 928.912 Q176.77 926.157 174.825 924.421 Q172.904 922.685 169.802 922.685 Q167.603 922.685 165.149 923.449 Q162.719 924.213 159.941 925.764 L159.941 921.042 Q162.765 919.907 165.219 919.329 Q167.673 918.75 169.71 918.75 Q175.08 918.75 178.274 921.435 Q181.469 924.12 181.469 928.611 Q181.469 930.741 180.659 932.662 Q179.872 934.56 177.765 937.153 Q177.186 937.824 174.085 941.042 Q170.983 944.236 165.335 950 Z" fill="#000000" fill-rule="nonzero" fill-opacity="1" /><path clip-path="url(#clip420)" d="M201.469 922.454 Q197.858 922.454 196.029 926.018 Q194.223 929.56 194.223 936.69 Q194.223 943.796 196.029 947.361 Q197.858 950.903 201.469 950.903 Q205.103 950.903 206.908 947.361 Q208.737 943.796 208.737 936.69 Q208.737 929.56 206.908 926.018 Q205.103 922.454 201.469 922.454 M201.469 918.75 Q207.279 918.75 210.334 923.356 Q213.413 927.94 213.413 936.69 Q213.413 945.417 210.334 950.023 Q207.279 954.606 201.469 954.606 Q195.658 954.606 192.58 950.023 Q189.524 945.417 189.524 936.69 Q189.524 927.94 192.58 923.356 Q195.658 918.75 201.469 918.75 Z" fill="#000000" fill-rule="nonzero" fill-opacity="1" /><path clip-path="url(#clip420)" d="M117.881 740.68 L125.52 740.68 L125.52 714.315 L117.21 715.981 L117.21 711.722 L125.474 710.055 L130.15 710.055 L130.15 740.68 L137.788 740.68 L137.788 744.615 L117.881 744.615 L117.881 740.68 Z" fill="#000000" fill-rule="nonzero" fill-opacity="1" /><path clip-path="url(#clip420)" d="M147.233 738.736 L152.117 738.736 L152.117 744.615 L147.233 744.615 L147.233 738.736 Z" fill="#000000" fill-rule="nonzero" fill-opacity="1" /><path clip-path="url(#clip420)" d="M166.33 740.68 L182.649 740.68 L182.649 744.615 L160.705 744.615 L160.705 740.68 Q163.367 737.926 167.95 733.296 Q172.557 728.643 173.737 727.301 Q175.983 724.778 176.862 723.041 Q177.765 721.282 177.765 719.592 Q177.765 716.838 175.821 715.102 Q173.899 713.366 170.797 713.366 Q168.598 713.366 166.145 714.129 Q163.714 714.893 160.936 716.444 L160.936 711.722 Q163.76 710.588 166.214 710.009 Q168.668 709.43 170.705 709.43 Q176.075 709.43 179.27 712.116 Q182.464 714.801 182.464 719.291 Q182.464 721.421 181.654 723.342 Q180.867 725.241 178.76 727.833 Q178.182 728.504 175.08 731.722 Q171.978 734.916 166.33 740.68 Z" fill="#000000" fill-rule="nonzero" fill-opacity="1" /><path clip-path="url(#clip420)" d="M192.51 710.055 L210.867 710.055 L210.867 713.991 L196.793 713.991 L196.793 722.463 Q197.811 722.116 198.83 721.953 Q199.848 721.768 200.867 721.768 Q206.654 721.768 210.033 724.94 Q213.413 728.111 213.413 733.527 Q213.413 739.106 209.941 742.208 Q206.469 745.287 200.149 745.287 Q197.973 745.287 195.705 744.916 Q193.459 744.546 191.052 743.805 L191.052 739.106 Q193.135 740.24 195.358 740.796 Q197.58 741.352 200.057 741.352 Q204.061 741.352 206.399 739.245 Q208.737 737.139 208.737 733.527 Q208.737 729.916 206.399 727.81 Q204.061 725.703 200.057 725.703 Q198.182 725.703 196.307 726.12 Q194.455 726.537 192.51 727.416 L192.51 710.055 Z" fill="#000000" fill-rule="nonzero" fill-opacity="1" /><path clip-path="url(#clip420)" d="M116.886 531.361 L124.525 531.361 L124.525 504.995 L116.214 506.662 L116.214 502.402 L124.478 500.736 L129.154 500.736 L129.154 531.361 L136.793 531.361 L136.793 535.296 L116.886 535.296 L116.886 531.361 Z" fill="#000000" fill-rule="nonzero" fill-opacity="1" /><path clip-path="url(#clip420)" d="M146.237 529.416 L151.122 529.416 L151.122 535.296 L146.237 535.296 L146.237 529.416 Z" fill="#000000" fill-rule="nonzero" fill-opacity="1" /><path clip-path="url(#clip420)" d="M175.473 516.662 Q178.83 517.379 180.705 519.648 Q182.603 521.916 182.603 525.25 Q182.603 530.365 179.084 533.166 Q175.566 535.967 169.085 535.967 Q166.909 535.967 164.594 535.527 Q162.302 535.111 159.848 534.254 L159.848 529.74 Q161.793 530.875 164.108 531.453 Q166.423 532.032 168.946 532.032 Q173.344 532.032 175.635 530.296 Q177.95 528.56 177.95 525.25 Q177.95 522.194 175.797 520.481 Q173.668 518.745 169.848 518.745 L165.821 518.745 L165.821 514.902 L170.034 514.902 Q173.483 514.902 175.311 513.537 Q177.14 512.148 177.14 509.555 Q177.14 506.893 175.242 505.481 Q173.367 504.046 169.848 504.046 Q167.927 504.046 165.728 504.463 Q163.529 504.879 160.89 505.759 L160.89 501.592 Q163.552 500.852 165.867 500.481 Q168.205 500.111 170.265 500.111 Q175.589 500.111 178.691 502.541 Q181.793 504.949 181.793 509.069 Q181.793 511.939 180.149 513.93 Q178.506 515.898 175.473 516.662 Z" fill="#000000" fill-rule="nonzero" fill-opacity="1" /><path clip-path="url(#clip420)" d="M201.469 503.815 Q197.858 503.815 196.029 507.379 Q194.223 510.921 194.223 518.051 Q194.223 525.157 196.029 528.722 Q197.858 532.263 201.469 532.263 Q205.103 532.263 206.908 528.722 Q208.737 525.157 208.737 518.051 Q208.737 510.921 206.908 507.379 Q205.103 503.815 201.469 503.815 M201.469 500.111 Q207.279 500.111 210.334 504.717 Q213.413 509.301 213.413 518.051 Q213.413 526.777 210.334 531.384 Q207.279 535.967 201.469 535.967 Q195.658 535.967 192.58 531.384 Q189.524 526.777 189.524 518.051 Q189.524 509.301 192.58 504.717 Q195.658 500.111 201.469 500.111 Z" fill="#000000" fill-rule="nonzero" fill-opacity="1" /><path clip-path="url(#clip420)" d="M117.881 322.041 L125.52 322.041 L125.52 295.675 L117.21 297.342 L117.21 293.083 L125.474 291.416 L130.15 291.416 L130.15 322.041 L137.788 322.041 L137.788 325.976 L117.881 325.976 L117.881 322.041 Z" fill="#000000" fill-rule="nonzero" fill-opacity="1" /><path clip-path="url(#clip420)" d="M147.233 320.097 L152.117 320.097 L152.117 325.976 L147.233 325.976 L147.233 320.097 Z" fill="#000000" fill-rule="nonzero" fill-opacity="1" /><path clip-path="url(#clip420)" d="M176.469 307.342 Q179.825 308.06 181.7 310.328 Q183.598 312.597 183.598 315.93 Q183.598 321.046 180.08 323.847 Q176.561 326.648 170.08 326.648 Q167.904 326.648 165.589 326.208 Q163.298 325.791 160.844 324.935 L160.844 320.421 Q162.788 321.555 165.103 322.134 Q167.418 322.712 169.941 322.712 Q174.339 322.712 176.631 320.976 Q178.946 319.24 178.946 315.93 Q178.946 312.874 176.793 311.161 Q174.663 309.425 170.844 309.425 L166.816 309.425 L166.816 305.583 L171.029 305.583 Q174.478 305.583 176.307 304.217 Q178.135 302.828 178.135 300.236 Q178.135 297.574 176.237 296.162 Q174.362 294.726 170.844 294.726 Q168.922 294.726 166.723 295.143 Q164.524 295.56 161.885 296.439 L161.885 292.273 Q164.548 291.532 166.862 291.162 Q169.2 290.791 171.26 290.791 Q176.584 290.791 179.686 293.222 Q182.788 295.629 182.788 299.75 Q182.788 302.62 181.145 304.611 Q179.501 306.578 176.469 307.342 Z" fill="#000000" fill-rule="nonzero" fill-opacity="1" /><path clip-path="url(#clip420)" d="M192.51 291.416 L210.867 291.416 L210.867 295.351 L196.793 295.351 L196.793 303.824 Q197.811 303.476 198.83 303.314 Q199.848 303.129 200.867 303.129 Q206.654 303.129 210.033 306.3 Q213.413 309.472 213.413 314.888 Q213.413 320.467 209.941 323.569 Q206.469 326.648 200.149 326.648 Q197.973 326.648 195.705 326.277 Q193.459 325.907 191.052 325.166 L191.052 320.467 Q193.135 321.601 195.358 322.157 Q197.58 322.712 200.057 322.712 Q204.061 322.712 206.399 320.606 Q208.737 318.499 208.737 314.888 Q208.737 311.277 206.399 309.171 Q204.061 307.064 200.057 307.064 Q198.182 307.064 196.307 307.481 Q194.455 307.898 192.51 308.777 L192.51 291.416 Z" fill="#000000" fill-rule="nonzero" fill-opacity="1" /><path clip-path="url(#clip420)" d="M17.6832 966.443 L61.6384 949.988 L61.6384 956.195 L35.2844 966.189 L61.6384 978.475 L61.6384 984.681 L27.4546 969.053 L21.1525 971.409 Q17.1422 972.905 17.1422 976.31 L17.1422 979.366 L12.1132 979.366 L12.1769 975.642 Q12.2724 968.449 17.6832 966.443 Z" fill="#000000" fill-rule="nonzero" fill-opacity="1" /><path clip-path="url(#clip420)" d="M12.1769 927.835 Q19.4975 932.1 26.6589 934.169 Q33.8203 936.238 41.1727 936.238 Q48.5251 936.238 55.7502 934.169 Q62.9434 932.069 70.2321 927.835 L70.2321 932.928 Q62.7524 937.702 55.5274 940.089 Q48.3023 942.445 41.1727 942.445 Q34.0749 942.445 26.8817 940.089 Q19.6884 937.734 12.1769 932.928 L12.1769 927.835 Z" fill="#000000" fill-rule="nonzero" fill-opacity="1" /><path clip-path="url(#clip420)" d="M15.869 910.68 L25.9905 910.68 L25.9905 898.617 L30.542 898.617 L30.542 910.68 L49.8937 910.68 Q54.2542 910.68 55.4955 909.502 Q56.7368 908.293 56.7368 904.632 L56.7368 898.617 L61.6384 898.617 L61.6384 904.632 Q61.6384 911.412 59.124 913.99 Q56.5777 916.568 49.8937 916.568 L30.542 916.568 L30.542 920.865 L25.9905 920.865 L25.9905 916.568 L15.869 916.568 L15.869 910.68 Z" fill="#000000" fill-rule="nonzero" fill-opacity="1" /><path clip-path="url(#clip420)" d="M12.1769 891.837 L12.1769 886.745 Q19.6884 881.97 26.8817 879.615 Q34.0749 877.228 41.1727 877.228 Q48.3023 877.228 55.5274 879.615 Q62.7524 881.97 70.2321 886.745 L70.2321 891.837 Q62.9434 887.604 55.7502 885.535 Q48.5251 883.435 41.1727 883.435 Q33.8203 883.435 26.6589 885.535 Q19.4975 887.604 12.1769 891.837 Z" fill="#000000" fill-rule="nonzero" fill-opacity="1" /><path clip-path="url(#clip420)" d="M918.926 16.7545 L918.926 25.383 Q914.794 21.5346 910.095 19.6307 Q905.436 17.7268 900.17 17.7268 Q889.8 17.7268 884.29 24.0867 Q878.781 30.4061 878.781 42.3968 Q878.781 54.3469 884.29 60.7069 Q889.8 67.0263 900.17 67.0263 Q905.436 67.0263 910.095 65.1223 Q914.794 63.2184 918.926 59.3701 L918.926 67.9175 Q914.632 70.8341 909.811 72.2924 Q905.031 73.7508 899.684 73.7508 Q885.951 73.7508 878.052 65.3654 Q870.153 56.9395 870.153 42.3968 Q870.153 27.8135 878.052 19.4281 Q885.951 11.0023 899.684 11.0023 Q905.112 11.0023 909.892 12.4606 Q914.713 13.8784 918.926 16.7545 Z" fill="#000000" fill-rule="nonzero" fill-opacity="1" /><path clip-path="url(#clip420)" d="M948.821 32.4315 Q942.826 32.4315 939.342 37.1306 Q935.858 41.7891 935.858 49.9314 Q935.858 58.0738 939.302 62.7728 Q942.785 67.4314 948.821 67.4314 Q954.776 67.4314 958.26 62.7323 Q961.744 58.0333 961.744 49.9314 Q961.744 41.8701 958.26 37.1711 Q954.776 32.4315 948.821 32.4315 M948.821 26.1121 Q958.543 26.1121 964.093 32.4315 Q969.643 38.7509 969.643 49.9314 Q969.643 61.0714 964.093 67.4314 Q958.543 73.7508 948.821 73.7508 Q939.059 73.7508 933.509 67.4314 Q928 61.0714 928 49.9314 Q928 38.7509 933.509 32.4315 Q939.059 26.1121 948.821 26.1121 Z" fill="#000000" fill-rule="nonzero" fill-opacity="1" /><path clip-path="url(#clip420)" d="M1019.71 45.1919 L1019.71 72.576 L1012.26 72.576 L1012.26 45.4349 Q1012.26 38.994 1009.75 35.7938 Q1007.24 32.5936 1002.21 32.5936 Q996.176 32.5936 992.692 36.4419 Q989.209 40.2903 989.209 46.9338 L989.209 72.576 L981.715 72.576 L981.715 27.2059 L989.209 27.2059 L989.209 34.2544 Q991.882 30.163 995.488 28.1376 Q999.133 26.1121 1003.87 26.1121 Q1011.69 26.1121 1015.7 30.9732 Q1019.71 35.7938 1019.71 45.1919 Z" fill="#000000" fill-rule="nonzero" fill-opacity="1" /><path clip-path="url(#clip420)" d="M1029.23 27.2059 L1037.13 27.2059 L1051.31 65.2844 L1065.49 27.2059 L1073.39 27.2059 L1056.37 72.576 L1046.25 72.576 L1029.23 27.2059 Z" fill="#000000" fill-rule="nonzero" fill-opacity="1" /><path clip-path="url(#clip420)" d="M1122.48 48.0275 L1122.48 51.6733 L1088.21 51.6733 Q1088.7 59.3701 1092.83 63.421 Q1097 67.4314 1104.42 67.4314 Q1108.71 67.4314 1112.72 66.3781 Q1116.77 65.3249 1120.74 63.2184 L1120.74 70.267 Q1116.73 71.9684 1112.52 72.8596 Q1108.31 73.7508 1103.97 73.7508 Q1093.11 73.7508 1086.75 67.4314 Q1080.44 61.1119 1080.44 50.3365 Q1080.44 39.1965 1086.43 32.6746 Q1092.47 26.1121 1102.67 26.1121 Q1111.83 26.1121 1117.14 32.0264 Q1122.48 37.9003 1122.48 48.0275 M1115.03 45.84 Q1114.95 39.7232 1111.59 36.0774 Q1108.26 32.4315 1102.76 32.4315 Q1096.52 32.4315 1092.75 35.9558 Q1089.02 39.4801 1088.46 45.8805 L1115.03 45.84 Z" fill="#000000" fill-rule="nonzero" fill-opacity="1" /><path clip-path="url(#clip420)" d="M1161.01 34.1734 Q1159.75 33.4443 1158.25 33.1202 Q1156.79 32.7556 1155.01 32.7556 Q1148.69 32.7556 1145.29 36.8875 Q1141.93 40.9789 1141.93 48.6757 L1141.93 72.576 L1134.43 72.576 L1134.43 27.2059 L1141.93 27.2059 L1141.93 34.2544 Q1144.28 30.1225 1148.04 28.1376 Q1151.81 26.1121 1157.2 26.1121 Q1157.97 26.1121 1158.9 26.2337 Q1159.83 26.3147 1160.97 26.5172 L1161.01 34.1734 Z" fill="#000000" fill-rule="nonzero" fill-opacity="1" /><path clip-path="url(#clip420)" d="M1197.22 49.3643 Q1197.22 41.2625 1193.86 36.8065 Q1190.54 32.3505 1184.5 32.3505 Q1178.51 32.3505 1175.15 36.8065 Q1171.82 41.2625 1171.82 49.3643 Q1171.82 57.4256 1175.15 61.8816 Q1178.51 66.3376 1184.5 66.3376 Q1190.54 66.3376 1193.86 61.8816 Q1197.22 57.4256 1197.22 49.3643 M1204.68 66.9452 Q1204.68 78.5308 1199.53 84.1616 Q1194.39 89.8329 1183.77 89.8329 Q1179.84 89.8329 1176.36 89.2252 Q1172.88 88.6581 1169.6 87.4428 L1169.6 80.1917 Q1172.88 81.9741 1176.08 82.8248 Q1179.28 83.6755 1182.6 83.6755 Q1189.93 83.6755 1193.58 79.8271 Q1197.22 76.0193 1197.22 68.282 L1197.22 64.5957 Q1194.91 68.6061 1191.31 70.5911 Q1187.7 72.576 1182.68 72.576 Q1174.34 72.576 1169.23 66.2161 Q1164.13 59.8562 1164.13 49.3643 Q1164.13 38.832 1169.23 32.472 Q1174.34 26.1121 1182.68 26.1121 Q1187.7 26.1121 1191.31 28.0971 Q1194.91 30.082 1197.22 34.0924 L1197.22 27.2059 L1204.68 27.2059 L1204.68 66.9452 Z" fill="#000000" fill-rule="nonzero" fill-opacity="1" /><path clip-path="url(#clip420)" d="M1258.84 48.0275 L1258.84 51.6733 L1224.57 51.6733 Q1225.05 59.3701 1229.18 63.421 Q1233.36 67.4314 1240.77 67.4314 Q1245.06 67.4314 1249.07 66.3781 Q1253.13 65.3249 1257.1 63.2184 L1257.1 70.267 Q1253.08 71.9684 1248.87 72.8596 Q1244.66 73.7508 1240.32 73.7508 Q1229.47 73.7508 1223.11 67.4314 Q1216.79 61.1119 1216.79 50.3365 Q1216.79 39.1965 1222.78 32.6746 Q1228.82 26.1121 1239.03 26.1121 Q1248.18 26.1121 1253.49 32.0264 Q1258.84 37.9003 1258.84 48.0275 M1251.38 45.84 Q1251.3 39.7232 1247.94 36.0774 Q1244.62 32.4315 1239.11 32.4315 Q1232.87 32.4315 1229.1 35.9558 Q1225.38 39.4801 1224.81 45.8805 L1251.38 45.84 Z" fill="#000000" fill-rule="nonzero" fill-opacity="1" /><path clip-path="url(#clip420)" d="M1308.78 45.1919 L1308.78 72.576 L1301.33 72.576 L1301.33 45.4349 Q1301.33 38.994 1298.82 35.7938 Q1296.31 32.5936 1291.28 32.5936 Q1285.25 32.5936 1281.77 36.4419 Q1278.28 40.2903 1278.28 46.9338 L1278.28 72.576 L1270.79 72.576 L1270.79 27.2059 L1278.28 27.2059 L1278.28 34.2544 Q1280.95 30.163 1284.56 28.1376 Q1288.21 26.1121 1292.95 26.1121 Q1300.76 26.1121 1304.77 30.9732 Q1308.78 35.7938 1308.78 45.1919 Z" fill="#000000" fill-rule="nonzero" fill-opacity="1" /><path clip-path="url(#clip420)" d="M1356.3 28.9478 L1356.3 35.9153 Q1353.14 34.1734 1349.94 33.3227 Q1346.78 32.4315 1343.54 32.4315 Q1336.29 32.4315 1332.28 37.0496 Q1328.27 41.6271 1328.27 49.9314 Q1328.27 58.2358 1332.28 62.8538 Q1336.29 67.4314 1343.54 67.4314 Q1346.78 67.4314 1349.94 66.5807 Q1353.14 65.6895 1356.3 63.9476 L1356.3 70.8341 Q1353.18 72.2924 1349.82 73.0216 Q1346.5 73.7508 1342.73 73.7508 Q1332.48 73.7508 1326.45 67.3098 Q1320.41 60.8689 1320.41 49.9314 Q1320.41 38.832 1326.49 32.472 Q1332.6 26.1121 1343.22 26.1121 Q1346.66 26.1121 1349.94 26.8413 Q1353.22 27.5299 1356.3 28.9478 Z" fill="#000000" fill-rule="nonzero" fill-opacity="1" /><path clip-path="url(#clip420)" d="M1408.07 48.0275 L1408.07 51.6733 L1373.8 51.6733 Q1374.29 59.3701 1378.42 63.421 Q1382.59 67.4314 1390.01 67.4314 Q1394.3 67.4314 1398.31 66.3781 Q1402.36 65.3249 1406.33 63.2184 L1406.33 70.267 Q1402.32 71.9684 1398.11 72.8596 Q1393.89 73.7508 1389.56 73.7508 Q1378.7 73.7508 1372.34 67.4314 Q1366.02 61.1119 1366.02 50.3365 Q1366.02 39.1965 1372.02 32.6746 Q1378.06 26.1121 1388.26 26.1121 Q1397.42 26.1121 1402.73 32.0264 Q1408.07 37.9003 1408.07 48.0275 M1400.62 45.84 Q1400.54 39.7232 1397.18 36.0774 Q1393.85 32.4315 1388.34 32.4315 Q1382.11 32.4315 1378.34 35.9558 Q1374.61 39.4801 1374.04 45.8805 L1400.62 45.84 Z" fill="#000000" fill-rule="nonzero" fill-opacity="1" /><path clip-path="url(#clip420)" d="M1464.26 32.4315 Q1458.26 32.4315 1454.78 37.1306 Q1451.3 41.7891 1451.3 49.9314 Q1451.3 58.0738 1454.74 62.7728 Q1458.22 67.4314 1464.26 67.4314 Q1470.21 67.4314 1473.7 62.7323 Q1477.18 58.0333 1477.18 49.9314 Q1477.18 41.8701 1473.7 37.1711 Q1470.21 32.4315 1464.26 32.4315 M1464.26 26.1121 Q1473.98 26.1121 1479.53 32.4315 Q1485.08 38.7509 1485.08 49.9314 Q1485.08 61.0714 1479.53 67.4314 Q1473.98 73.7508 1464.26 73.7508 Q1454.5 73.7508 1448.95 67.4314 Q1443.44 61.0714 1443.44 49.9314 Q1443.44 38.7509 1448.95 32.4315 Q1454.5 26.1121 1464.26 26.1121 Z" fill="#000000" fill-rule="nonzero" fill-opacity="1" /><path clip-path="url(#clip420)" d="M1520.4 9.54393 L1520.4 15.7418 L1513.27 15.7418 Q1509.26 15.7418 1507.68 17.3622 Q1506.14 18.9825 1506.14 23.1955 L1506.14 27.2059 L1518.42 27.2059 L1518.42 32.9987 L1506.14 32.9987 L1506.14 72.576 L1498.65 72.576 L1498.65 32.9987 L1491.52 32.9987 L1491.52 27.2059 L1498.65 27.2059 L1498.65 24.0462 Q1498.65 16.471 1502.17 13.0277 Q1505.7 9.54393 1513.36 9.54393 L1520.4 9.54393 Z" fill="#000000" fill-rule="nonzero" fill-opacity="1" /><path clip-path="url(#clip420)" d="M1582.87 49.3643 Q1582.87 41.2625 1579.51 36.8065 Q1576.18 32.3505 1570.15 32.3505 Q1564.15 32.3505 1560.79 36.8065 Q1557.47 41.2625 1557.47 49.3643 Q1557.47 57.4256 1560.79 61.8816 Q1564.15 66.3376 1570.15 66.3376 Q1576.18 66.3376 1579.51 61.8816 Q1582.87 57.4256 1582.87 49.3643 M1590.32 66.9452 Q1590.32 78.5308 1585.18 84.1616 Q1580.03 89.8329 1569.42 89.8329 Q1565.49 89.8329 1562.01 89.2252 Q1558.52 88.6581 1555.24 87.4428 L1555.24 80.1917 Q1558.52 81.9741 1561.72 82.8248 Q1564.92 83.6755 1568.24 83.6755 Q1575.58 83.6755 1579.22 79.8271 Q1582.87 76.0193 1582.87 68.282 L1582.87 64.5957 Q1580.56 68.6061 1576.95 70.5911 Q1573.35 72.576 1568.33 72.576 Q1559.98 72.576 1554.88 66.2161 Q1549.77 59.8562 1549.77 49.3643 Q1549.77 38.832 1554.88 32.472 Q1559.98 26.1121 1568.33 26.1121 Q1573.35 26.1121 1576.95 28.0971 Q1580.56 30.082 1582.87 34.0924 L1582.87 27.2059 L1590.32 27.2059 L1590.32 66.9452 Z" fill="#000000" fill-rule="nonzero" fill-opacity="1" /><path clip-path="url(#clip420)" d="M1631.97 34.1734 Q1630.71 33.4443 1629.21 33.1202 Q1627.75 32.7556 1625.97 32.7556 Q1619.65 32.7556 1616.25 36.8875 Q1612.89 40.9789 1612.89 48.6757 L1612.89 72.576 L1605.39 72.576 L1605.39 27.2059 L1612.89 27.2059 L1612.89 34.2544 Q1615.24 30.1225 1619 28.1376 Q1622.77 26.1121 1628.16 26.1121 Q1628.93 26.1121 1629.86 26.2337 Q1630.79 26.3147 1631.93 26.5172 L1631.97 34.1734 Z" fill="#000000" fill-rule="nonzero" fill-opacity="1" /><path clip-path="url(#clip420)" d="M1655.54 32.4315 Q1649.55 32.4315 1646.06 37.1306 Q1642.58 41.7891 1642.58 49.9314 Q1642.58 58.0738 1646.02 62.7728 Q1649.51 67.4314 1655.54 67.4314 Q1661.5 67.4314 1664.98 62.7323 Q1668.46 58.0333 1668.46 49.9314 Q1668.46 41.8701 1664.98 37.1711 Q1661.5 32.4315 1655.54 32.4315 M1655.54 26.1121 Q1665.26 26.1121 1670.81 32.4315 Q1676.36 38.7509 1676.36 49.9314 Q1676.36 61.0714 1670.81 67.4314 Q1665.26 73.7508 1655.54 73.7508 Q1645.78 73.7508 1640.23 67.4314 Q1634.72 61.0714 1634.72 49.9314 Q1634.72 38.7509 1640.23 32.4315 Q1645.78 26.1121 1655.54 26.1121 Z" fill="#000000" fill-rule="nonzero" fill-opacity="1" /><path clip-path="url(#clip420)" d="M1684.38 27.2059 L1691.84 27.2059 L1701.16 62.6108 L1710.43 27.2059 L1719.22 27.2059 L1728.54 62.6108 L1737.82 27.2059 L1745.27 27.2059 L1733.4 72.576 L1724.61 72.576 L1714.85 35.3887 L1705.04 72.576 L1696.25 72.576 L1684.38 27.2059 Z" fill="#000000" fill-rule="nonzero" fill-opacity="1" /><path clip-path="url(#clip420)" d="M1763.94 14.324 L1763.94 27.2059 L1779.3 27.2059 L1779.3 32.9987 L1763.94 32.9987 L1763.94 57.6282 Q1763.94 63.1779 1765.44 64.7578 Q1766.98 66.3376 1771.64 66.3376 L1779.3 66.3376 L1779.3 72.576 L1771.64 72.576 Q1763.01 72.576 1759.73 69.3758 Q1756.45 66.1351 1756.45 57.6282 L1756.45 32.9987 L1750.98 32.9987 L1750.98 27.2059 L1756.45 27.2059 L1756.45 14.324 L1763.94 14.324 Z" fill="#000000" fill-rule="nonzero" fill-opacity="1" /><path clip-path="url(#clip420)" d="M1826.81 45.1919 L1826.81 72.576 L1819.36 72.576 L1819.36 45.4349 Q1819.36 38.994 1816.85 35.7938 Q1814.34 32.5936 1809.31 32.5936 Q1803.28 32.5936 1799.79 36.4419 Q1796.31 40.2903 1796.31 46.9338 L1796.31 72.576 L1788.82 72.576 L1788.82 9.54393 L1796.31 9.54393 L1796.31 34.2544 Q1798.98 30.163 1802.59 28.1376 Q1806.24 26.1121 1810.98 26.1121 Q1818.79 26.1121 1822.8 30.9732 Q1826.81 35.7938 1826.81 45.1919 Z" fill="#000000" fill-rule="nonzero" fill-opacity="1" /><path clip-path="url(#clip420)" d="M1894.34 34.1734 Q1893.09 33.4443 1891.59 33.1202 Q1890.13 32.7556 1888.35 32.7556 Q1882.03 32.7556 1878.63 36.8875 Q1875.26 40.9789 1875.26 48.6757 L1875.26 72.576 L1867.77 72.576 L1867.77 27.2059 L1875.26 27.2059 L1875.26 34.2544 Q1877.61 30.1225 1881.38 28.1376 Q1885.15 26.1121 1890.53 26.1121 Q1891.3 26.1121 1892.24 26.2337 Q1893.17 26.3147 1894.3 26.5172 L1894.34 34.1734 Z" fill="#000000" fill-rule="nonzero" fill-opacity="1" /><path clip-path="url(#clip420)" d="M1922.78 49.7694 Q1913.75 49.7694 1910.26 51.8354 Q1906.78 53.9013 1906.78 58.8839 Q1906.78 62.8538 1909.37 65.2034 Q1912 67.5124 1916.5 67.5124 Q1922.7 67.5124 1926.43 63.1374 Q1930.19 58.7219 1930.19 51.4303 L1930.19 49.7694 L1922.78 49.7694 M1937.65 46.6907 L1937.65 72.576 L1930.19 72.576 L1930.19 65.6895 Q1927.64 69.8214 1923.83 71.8063 Q1920.03 73.7508 1914.52 73.7508 Q1907.55 73.7508 1903.42 69.8619 Q1899.33 65.9325 1899.33 59.3701 Q1899.33 51.7138 1904.43 47.825 Q1909.57 43.9361 1919.74 43.9361 L1930.19 43.9361 L1930.19 43.2069 Q1930.19 38.0623 1926.79 35.2672 Q1923.43 32.4315 1917.31 32.4315 Q1913.42 32.4315 1909.74 33.3632 Q1906.05 34.295 1902.65 36.1584 L1902.65 29.2718 Q1906.74 27.692 1910.59 26.9223 Q1914.44 26.1121 1918.08 26.1121 Q1927.92 26.1121 1932.79 31.2163 Q1937.65 36.3204 1937.65 46.6907 Z" fill="#000000" fill-rule="nonzero" fill-opacity="1" /><path clip-path="url(#clip420)" d="M1960.37 14.324 L1960.37 27.2059 L1975.73 27.2059 L1975.73 32.9987 L1960.37 32.9987 L1960.37 57.6282 Q1960.37 63.1779 1961.87 64.7578 Q1963.41 66.3376 1968.07 66.3376 L1975.73 66.3376 L1975.73 72.576 L1968.07 72.576 Q1959.44 72.576 1956.16 69.3758 Q1952.88 66.1351 1952.88 57.6282 L1952.88 32.9987 L1947.41 32.9987 L1947.41 27.2059 L1952.88 27.2059 L1952.88 14.324 L1960.37 14.324 Z" fill="#000000" fill-rule="nonzero" fill-opacity="1" /><path clip-path="url(#clip420)" d="M2024.34 48.0275 L2024.34 51.6733 L1990.07 51.6733 Q1990.55 59.3701 1994.68 63.421 Q1998.86 67.4314 2006.27 67.4314 Q2010.56 67.4314 2014.57 66.3781 Q2018.62 65.3249 2022.59 63.2184 L2022.59 70.267 Q2018.58 71.9684 2014.37 72.8596 Q2010.16 73.7508 2005.82 73.7508 Q1994.97 73.7508 1988.61 67.4314 Q1982.29 61.1119 1982.29 50.3365 Q1982.29 39.1965 1988.28 32.6746 Q1994.32 26.1121 2004.53 26.1121 Q2013.68 26.1121 2018.99 32.0264 Q2024.34 37.9003 2024.34 48.0275 M2016.88 45.84 Q2016.8 39.7232 2013.44 36.0774 Q2010.12 32.4315 2004.61 32.4315 Q1998.37 32.4315 1994.6 35.9558 Q1990.88 39.4801 1990.31 45.8805 L2016.88 45.84 Z" fill="#000000" fill-rule="nonzero" fill-opacity="1" /><polyline clip-path="url(#clip421)" style="stroke:#009af9; stroke-linecap:round; stroke-linejoin:round; stroke-width:8; stroke-opacity:1; fill:none" points="321.29,173.254 367.248,1150.43 413.205,1688.65 459.162,216.383 505.12,1084.51 551.077,1645.56 597.034,347.792 642.991,1025.53 688.949,1601.2 734.906,462.572 780.863,978.49 826.821,1556.18 872.778,562.341 918.735,941.984 964.693,1511.4 1010.65,648.61 1056.61,914.66 1102.56,1467.55 1148.52,722.815 1194.48,895.223 1240.44,1425.2 1286.39,786.295 1332.35,882.463 1378.31,1384.74 1424.27,840.288 1470.22,875.264 1516.18,1346.48 1562.14,885.926 1608.1,872.62 1654.05,1310.64 1700.01,924.239 1745.97,873.634 1791.92,1277.34 1837.88,956.155 1883.84,877.518 1929.8,1246.64 1975.75,982.511 2021.71,883.589 2067.67,1218.55 2113.63,1004.06 2159.58,891.263 2205.54,1193.03 2251.5,1021.46 2297.45,900.048 2343.41,1170.01 2389.37,1035.31 2435.33,909.535 2481.28,1149.38 2527.24,1046.13 2573.2,919.388 "/>
<polyline clip-path="url(#clip421)" style="stroke:#ff0000; stroke-linecap:round; stroke-linejoin:round; stroke-width:4; stroke-opacity:1; fill:none" stroke-dasharray="16, 10" points="-2133.29,1035.98 5027.78,1035.98 "/>
<path clip-path="url(#clip420)" d="M2014.27 336.856 L2561.19 336.856 L2561.19 181.336 L2014.27 181.336  Z" fill="#ffffff" fill-rule="evenodd" fill-opacity="1"/>
<polyline clip-path="url(#clip420)" style="stroke:#000000; stroke-linecap:round; stroke-linejoin:round; stroke-width:4; stroke-opacity:1; fill:none" points="2014.27,336.856 2561.19,336.856 2561.19,181.336 2014.27,181.336 2014.27,336.856 "/>
<polyline clip-path="url(#clip420)" style="stroke:#009af9; stroke-linecap:round; stroke-linejoin:round; stroke-width:8; stroke-opacity:1; fill:none" points="2040.79,233.176 2199.93,233.176 "/>
<path clip-path="url(#clip420)" d="M2239.71 218.489 L2251.68 250.456 L2247.17 250.456 L2239.9 231.29 L2230.96 250.456 L2226.45 250.456 L2237.82 225.595 L2236.1 221.012 Q2235.01 218.095 2232.54 218.095 L2230.32 218.095 L2230.32 214.438 L2233.02 214.484 Q2238.26 214.554 2239.71 218.489 Z" fill="#000000" fill-rule="nonzero" fill-opacity="1" /><path clip-path="url(#clip420)" d="M2267.79 214.484 Q2264.69 219.808 2263.19 225.017 Q2261.68 230.225 2261.68 235.572 Q2261.68 240.919 2263.19 246.174 Q2264.71 251.405 2267.79 256.706 L2264.09 256.706 Q2260.62 251.266 2258.88 246.012 Q2257.17 240.757 2257.17 235.572 Q2257.17 230.41 2258.88 225.179 Q2260.59 219.947 2264.09 214.484 L2267.79 214.484 Z" fill="#000000" fill-rule="nonzero" fill-opacity="1" /><path clip-path="url(#clip420)" d="M2280.27 217.169 L2280.27 224.531 L2289.04 224.531 L2289.04 227.841 L2280.27 227.841 L2280.27 241.915 Q2280.27 245.086 2281.13 245.989 Q2282.01 246.891 2284.67 246.891 L2289.04 246.891 L2289.04 250.456 L2284.67 250.456 Q2279.74 250.456 2277.86 248.628 Q2275.99 246.776 2275.99 241.915 L2275.99 227.841 L2272.86 227.841 L2272.86 224.531 L2275.99 224.531 L2275.99 217.169 L2280.27 217.169 Z" fill="#000000" fill-rule="nonzero" fill-opacity="1" /><path clip-path="url(#clip420)" d="M2293.97 214.484 L2297.68 214.484 Q2301.15 219.947 2302.86 225.179 Q2304.6 230.41 2304.6 235.572 Q2304.6 240.757 2302.86 246.012 Q2301.15 251.266 2297.68 256.706 L2293.97 256.706 Q2297.05 251.405 2298.56 246.174 Q2300.08 240.919 2300.08 235.572 Q2300.08 230.225 2298.56 225.017 Q2297.05 219.808 2293.97 214.484 Z" fill="#000000" fill-rule="nonzero" fill-opacity="1" /><polyline clip-path="url(#clip420)" style="stroke:#ff0000; stroke-linecap:round; stroke-linejoin:round; stroke-width:4; stroke-opacity:1; fill:none" stroke-dasharray="16, 10" points="2040.79,285.016 2199.93,285.016 "/>
<path clip-path="url(#clip420)" d="M2242.28 272.343 L2235.94 289.542 L2248.65 289.542 L2242.28 272.343 M2239.64 267.736 L2244.95 267.736 L2258.12 302.296 L2253.26 302.296 L2250.11 293.431 L2234.53 293.431 L2231.38 302.296 L2226.45 302.296 L2239.64 267.736 Z" fill="#000000" fill-rule="nonzero" fill-opacity="1" /><path clip-path="url(#clip420)" d="M2279.51 277.134 L2279.51 281.162 Q2277.7 280.236 2275.76 279.773 Q2273.81 279.31 2271.73 279.31 Q2268.56 279.31 2266.96 280.283 Q2265.39 281.255 2265.39 283.199 Q2265.39 284.681 2266.52 285.537 Q2267.65 286.37 2271.08 287.134 L2272.54 287.458 Q2277.07 288.431 2278.97 290.213 Q2280.89 291.972 2280.89 295.144 Q2280.89 298.755 2278.02 300.861 Q2275.18 302.968 2270.18 302.968 Q2268.09 302.968 2265.82 302.551 Q2263.58 302.157 2261.08 301.347 L2261.08 296.949 Q2263.44 298.176 2265.73 298.801 Q2268.02 299.403 2270.27 299.403 Q2273.28 299.403 2274.9 298.384 Q2276.52 297.343 2276.52 295.468 Q2276.52 293.732 2275.34 292.806 Q2274.18 291.88 2270.22 291.023 L2268.74 290.676 Q2264.78 289.843 2263.02 288.13 Q2261.26 286.394 2261.26 283.384 Q2261.26 279.727 2263.86 277.736 Q2266.45 275.746 2271.22 275.746 Q2273.58 275.746 2275.66 276.093 Q2277.75 276.44 2279.51 277.134 Z" fill="#000000" fill-rule="nonzero" fill-opacity="1" /><path clip-path="url(#clip420)" d="M2298.46 304.704 Q2296.66 309.333 2294.95 310.745 Q2293.23 312.157 2290.36 312.157 L2286.96 312.157 L2286.96 308.593 L2289.46 308.593 Q2291.22 308.593 2292.19 307.759 Q2293.16 306.926 2294.34 303.824 L2295.11 301.88 L2284.62 276.371 L2289.13 276.371 L2297.24 296.648 L2305.34 276.371 L2309.85 276.371 L2298.46 304.704 Z" fill="#000000" fill-rule="nonzero" fill-opacity="1" /><path clip-path="url(#clip420)" d="M2335.92 281.347 Q2337.51 278.477 2339.74 277.111 Q2341.96 275.746 2344.97 275.746 Q2349.02 275.746 2351.22 278.593 Q2353.42 281.417 2353.42 286.648 L2353.42 302.296 L2349.13 302.296 L2349.13 286.787 Q2349.13 283.06 2347.82 281.255 Q2346.5 279.449 2343.79 279.449 Q2340.48 279.449 2338.56 281.648 Q2336.63 283.847 2336.63 287.644 L2336.63 302.296 L2332.35 302.296 L2332.35 286.787 Q2332.35 283.037 2331.03 281.255 Q2329.71 279.449 2326.96 279.449 Q2323.69 279.449 2321.77 281.671 Q2319.85 283.87 2319.85 287.644 L2319.85 302.296 L2315.57 302.296 L2315.57 276.371 L2319.85 276.371 L2319.85 280.398 Q2321.31 278.014 2323.35 276.88 Q2325.38 275.746 2328.19 275.746 Q2331.01 275.746 2332.98 277.181 Q2334.97 278.616 2335.92 281.347 Z" fill="#000000" fill-rule="nonzero" fill-opacity="1" /><path clip-path="url(#clip420)" d="M2366.03 298.407 L2366.03 312.157 L2361.75 312.157 L2361.75 276.371 L2366.03 276.371 L2366.03 280.306 Q2367.38 277.991 2369.41 276.88 Q2371.47 275.746 2374.32 275.746 Q2379.04 275.746 2381.98 279.495 Q2384.94 283.245 2384.94 289.357 Q2384.94 295.468 2381.98 299.218 Q2379.04 302.968 2374.32 302.968 Q2371.47 302.968 2369.41 301.856 Q2367.38 300.722 2366.03 298.407 M2380.52 289.357 Q2380.52 284.657 2378.58 281.995 Q2376.66 279.31 2373.28 279.31 Q2369.9 279.31 2367.95 281.995 Q2366.03 284.657 2366.03 289.357 Q2366.03 294.056 2367.95 296.741 Q2369.9 299.403 2373.28 299.403 Q2376.66 299.403 2378.58 296.741 Q2380.52 294.056 2380.52 289.357 Z" fill="#000000" fill-rule="nonzero" fill-opacity="1" /><path clip-path="url(#clip420)" d="M2396.22 269.009 L2396.22 276.371 L2404.99 276.371 L2404.99 279.681 L2396.22 279.681 L2396.22 293.755 Q2396.22 296.926 2397.07 297.829 Q2397.95 298.731 2400.62 298.731 L2404.99 298.731 L2404.99 302.296 L2400.62 302.296 Q2395.69 302.296 2393.81 300.468 Q2391.94 298.616 2391.94 293.755 L2391.94 279.681 L2388.81 279.681 L2388.81 276.371 L2391.94 276.371 L2391.94 269.009 L2396.22 269.009 Z" fill="#000000" fill-rule="nonzero" fill-opacity="1" /><path clip-path="url(#clip420)" d="M2420.64 279.357 Q2417.21 279.357 2415.22 282.042 Q2413.23 284.704 2413.23 289.357 Q2413.23 294.009 2415.2 296.694 Q2417.19 299.356 2420.64 299.356 Q2424.04 299.356 2426.03 296.671 Q2428.02 293.986 2428.02 289.357 Q2428.02 284.75 2426.03 282.065 Q2424.04 279.357 2420.64 279.357 M2420.64 275.746 Q2426.19 275.746 2429.37 279.357 Q2432.54 282.968 2432.54 289.357 Q2432.54 295.722 2429.37 299.356 Q2426.19 302.968 2420.64 302.968 Q2415.06 302.968 2411.89 299.356 Q2408.74 295.722 2408.74 289.357 Q2408.74 282.968 2411.89 279.357 Q2415.06 275.746 2420.64 275.746 Z" fill="#000000" fill-rule="nonzero" fill-opacity="1" /><path clip-path="url(#clip420)" d="M2443.81 269.009 L2443.81 276.371 L2452.58 276.371 L2452.58 279.681 L2443.81 279.681 L2443.81 293.755 Q2443.81 296.926 2444.67 297.829 Q2445.55 298.731 2448.21 298.731 L2452.58 298.731 L2452.58 302.296 L2448.21 302.296 Q2443.28 302.296 2441.4 300.468 Q2439.53 298.616 2439.53 293.755 L2439.53 279.681 L2436.4 279.681 L2436.4 276.371 L2439.53 276.371 L2439.53 269.009 L2443.81 269.009 Z" fill="#000000" fill-rule="nonzero" fill-opacity="1" /><path clip-path="url(#clip420)" d="M2458.18 276.371 L2462.44 276.371 L2462.44 302.296 L2458.18 302.296 L2458.18 276.371 M2458.18 266.278 L2462.44 266.278 L2462.44 271.671 L2458.18 271.671 L2458.18 266.278 Z" fill="#000000" fill-rule="nonzero" fill-opacity="1" /><path clip-path="url(#clip420)" d="M2490.01 277.366 L2490.01 281.347 Q2488.21 280.352 2486.38 279.866 Q2484.57 279.357 2482.72 279.357 Q2478.58 279.357 2476.29 281.995 Q2474 284.611 2474 289.357 Q2474 294.102 2476.29 296.741 Q2478.58 299.356 2482.72 299.356 Q2484.57 299.356 2486.38 298.87 Q2488.21 298.361 2490.01 297.366 L2490.01 301.301 Q2488.23 302.134 2486.31 302.551 Q2484.41 302.968 2482.26 302.968 Q2476.4 302.968 2472.95 299.287 Q2469.5 295.607 2469.5 289.357 Q2469.5 283.014 2472.98 279.38 Q2476.47 275.746 2482.54 275.746 Q2484.5 275.746 2486.38 276.162 Q2488.25 276.556 2490.01 277.366 Z" fill="#000000" fill-rule="nonzero" fill-opacity="1" /><path clip-path="url(#clip420)" d="M2522.7 270.329 L2534.67 302.296 L2530.15 302.296 L2522.88 283.13 L2513.95 302.296 L2509.43 302.296 L2520.8 277.435 L2519.09 272.852 Q2518 269.935 2515.52 269.935 L2513.3 269.935 L2513.3 266.278 L2516.01 266.324 Q2521.24 266.394 2522.7 270.329 Z" fill="#000000" fill-rule="nonzero" fill-opacity="1" /></svg>
