<?xml version="1.0" encoding="utf-8"?>
<svg xmlns="http://www.w3.org/2000/svg" xmlns:xlink="http://www.w3.org/1999/xlink" width="672" height="480" viewBox="0 0 2688 1920">
<defs>
  <clipPath id="clip170">
    <rect x="0" y="0" width="2688" height="1920"/>
  </clipPath>
</defs>
<path clip-path="url(#clip170)" d="M0 1920 L2688 1920 L2688 -4.26326e-14 L0 -4.26326e-14  Z" fill="#ffffff" fill-rule="evenodd" fill-opacity="1"/>
<defs>
  <clipPath id="clip171">
    <rect x="226" y="127" width="2416" height="1674"/>
  </clipPath>
</defs>
<path clip-path="url(#clip170)" d="M226.141 1800.78 L2640.76 1800.78 L2640.76 127.792 L226.141 127.792  Z" fill="#ffffff" fill-rule="evenodd" fill-opacity="1"/>
<polyline clip-path="url(#clip171)" style="stroke:#000000; stroke-linecap:round; stroke-linejoin:round; stroke-width:2; stroke-opacity:0.1; fill:none" points="538.032,1800.78 538.032,127.792 "/>
<polyline clip-path="url(#clip171)" style="stroke:#000000; stroke-linecap:round; stroke-linejoin:round; stroke-width:2; stroke-opacity:0.1; fill:none" points="985.74,1800.78 985.74,127.792 "/>
<polyline clip-path="url(#clip171)" style="stroke:#000000; stroke-linecap:round; stroke-linejoin:round; stroke-width:2; stroke-opacity:0.1; fill:none" points="1433.45,1800.78 1433.45,127.792 "/>
<polyline clip-path="url(#clip171)" style="stroke:#000000; stroke-linecap:round; stroke-linejoin:round; stroke-width:2; stroke-opacity:0.1; fill:none" points="1881.16,1800.78 1881.16,127.792 "/>
<polyline clip-path="url(#clip171)" style="stroke:#000000; stroke-linecap:round; stroke-linejoin:round; stroke-width:2; stroke-opacity:0.1; fill:none" points="2328.86,1800.78 2328.86,127.792 "/>
<polyline clip-path="url(#clip171)" style="stroke:#000000; stroke-linecap:round; stroke-linejoin:round; stroke-width:2; stroke-opacity:0.1; fill:none" points="226.141,1800.78 2640.76,1800.78 "/>
<polyline clip-path="url(#clip171)" style="stroke:#000000; stroke-linecap:round; stroke-linejoin:round; stroke-width:2; stroke-opacity:0.1; fill:none" points="226.141,1466.18 2640.76,1466.18 "/>
<polyline clip-path="url(#clip171)" style="stroke:#000000; stroke-linecap:round; stroke-linejoin:round; stroke-width:2; stroke-opacity:0.1; fill:none" points="226.141,1131.58 2640.76,1131.58 "/>
<polyline clip-path="url(#clip171)" style="stroke:#000000; stroke-linecap:round; stroke-linejoin:round; stroke-width:2; stroke-opacity:0.1; fill:none" points="226.141,796.987 2640.76,796.987 "/>
<polyline clip-path="url(#clip171)" style="stroke:#000000; stroke-linecap:round; stroke-linejoin:round; stroke-width:2; stroke-opacity:0.1; fill:none" points="226.141,462.39 2640.76,462.39 "/>
<polyline clip-path="url(#clip171)" style="stroke:#000000; stroke-linecap:round; stroke-linejoin:round; stroke-width:2; stroke-opacity:0.1; fill:none" points="226.141,127.792 2640.76,127.792 "/>
<polyline clip-path="url(#clip170)" style="stroke:#000000; stroke-linecap:round; stroke-linejoin:round; stroke-width:4; stroke-opacity:1; fill:none" points="226.141,1800.78 2640.76,1800.78 "/>
<polyline clip-path="url(#clip170)" style="stroke:#000000; stroke-linecap:round; stroke-linejoin:round; stroke-width:4; stroke-opacity:1; fill:none" points="538.032,1800.78 538.032,1781.88 "/>
<polyline clip-path="url(#clip170)" style="stroke:#000000; stroke-linecap:round; stroke-linejoin:round; stroke-width:4; stroke-opacity:1; fill:none" points="985.74,1800.78 985.74,1781.88 "/>
<polyline clip-path="url(#clip170)" style="stroke:#000000; stroke-linecap:round; stroke-linejoin:round; stroke-width:4; stroke-opacity:1; fill:none" points="1433.45,1800.78 1433.45,1781.88 "/>
<polyline clip-path="url(#clip170)" style="stroke:#000000; stroke-linecap:round; stroke-linejoin:round; stroke-width:4; stroke-opacity:1; fill:none" points="1881.16,1800.78 1881.16,1781.88 "/>
<polyline clip-path="url(#clip170)" style="stroke:#000000; stroke-linecap:round; stroke-linejoin:round; stroke-width:4; stroke-opacity:1; fill:none" points="2328.86,1800.78 2328.86,1781.88 "/>
<path clip-path="url(#clip170)" d="M431.077 1840.32 L431.077 1844.35 Q429.271 1843.42 427.327 1842.96 Q425.382 1842.5 423.299 1842.5 Q420.127 1842.5 418.53 1843.47 Q416.956 1844.44 416.956 1846.39 Q416.956 1847.87 418.09 1848.72 Q419.225 1849.56 422.651 1850.32 L424.109 1850.65 Q428.646 1851.62 430.544 1853.4 Q432.465 1855.16 432.465 1858.33 Q432.465 1861.94 429.595 1864.05 Q426.748 1866.15 421.748 1866.15 Q419.665 1866.15 417.396 1865.74 Q415.151 1865.34 412.651 1864.53 L412.651 1860.14 Q415.012 1861.36 417.303 1861.99 Q419.595 1862.59 421.84 1862.59 Q424.85 1862.59 426.47 1861.57 Q428.09 1860.53 428.09 1858.65 Q428.09 1856.92 426.91 1855.99 Q425.752 1855.07 421.794 1854.21 L420.313 1853.86 Q416.354 1853.03 414.595 1851.32 Q412.836 1849.58 412.836 1846.57 Q412.836 1842.91 415.428 1840.92 Q418.021 1838.93 422.79 1838.93 Q425.151 1838.93 427.234 1839.28 Q429.317 1839.63 431.077 1840.32 Z" fill="#000000" fill-rule="nonzero" fill-opacity="1" /><path clip-path="url(#clip170)" d="M461.424 1851.46 L461.424 1853.54 L441.84 1853.54 Q442.118 1857.94 444.479 1860.25 Q446.863 1862.54 451.1 1862.54 Q453.553 1862.54 455.845 1861.94 Q458.16 1861.34 460.428 1860.14 L460.428 1864.16 Q458.137 1865.14 455.729 1865.65 Q453.322 1866.15 450.845 1866.15 Q444.641 1866.15 441.007 1862.54 Q437.396 1858.93 437.396 1852.78 Q437.396 1846.41 440.822 1842.68 Q444.271 1838.93 450.104 1838.93 Q455.336 1838.93 458.368 1842.31 Q461.424 1845.67 461.424 1851.46 M457.164 1850.21 Q457.118 1846.71 455.197 1844.63 Q453.299 1842.54 450.15 1842.54 Q446.586 1842.54 444.433 1844.56 Q442.303 1846.57 441.979 1850.23 L457.164 1850.21 Z" fill="#000000" fill-rule="nonzero" fill-opacity="1" /><path clip-path="url(#clip170)" d="M490.59 1851.46 L490.59 1853.54 L471.007 1853.54 Q471.285 1857.94 473.646 1860.25 Q476.03 1862.54 480.266 1862.54 Q482.72 1862.54 485.011 1861.94 Q487.326 1861.34 489.595 1860.14 L489.595 1864.16 Q487.303 1865.14 484.896 1865.65 Q482.488 1866.15 480.011 1866.15 Q473.808 1866.15 470.174 1862.54 Q466.562 1858.93 466.562 1852.78 Q466.562 1846.41 469.988 1842.68 Q473.437 1838.93 479.271 1838.93 Q484.502 1838.93 487.535 1842.31 Q490.59 1845.67 490.59 1851.46 M486.331 1850.21 Q486.285 1846.71 484.363 1844.63 Q482.465 1842.54 479.317 1842.54 Q475.752 1842.54 473.599 1844.56 Q471.47 1846.57 471.146 1850.23 L486.331 1850.21 Z" fill="#000000" fill-rule="nonzero" fill-opacity="1" /><path clip-path="url(#clip170)" d="M514.641 1843.49 L514.641 1829.46 L518.9 1829.46 L518.9 1865.48 L514.641 1865.48 L514.641 1861.59 Q513.298 1863.91 511.238 1865.04 Q509.201 1866.15 506.331 1866.15 Q501.632 1866.15 498.669 1862.4 Q495.729 1858.65 495.729 1852.54 Q495.729 1846.43 498.669 1842.68 Q501.632 1838.93 506.331 1838.93 Q509.201 1838.93 511.238 1840.07 Q513.298 1841.18 514.641 1843.49 M500.127 1852.54 Q500.127 1857.24 502.048 1859.93 Q503.993 1862.59 507.372 1862.59 Q510.752 1862.59 512.696 1859.93 Q514.641 1857.24 514.641 1852.54 Q514.641 1847.84 512.696 1845.18 Q510.752 1842.5 507.372 1842.5 Q503.993 1842.5 502.048 1845.18 Q500.127 1847.84 500.127 1852.54 Z" fill="#000000" fill-rule="nonzero" fill-opacity="1" /><path clip-path="url(#clip170)" d="M547.372 1873.35 L547.372 1876.66 L522.743 1876.66 L522.743 1873.35 L547.372 1873.35 Z" fill="#000000" fill-rule="nonzero" fill-opacity="1" /><path clip-path="url(#clip170)" d="M569.988 1852.54 Q569.988 1847.84 568.043 1845.18 Q566.122 1842.5 562.742 1842.5 Q559.363 1842.5 557.418 1845.18 Q555.497 1847.84 555.497 1852.54 Q555.497 1857.24 557.418 1859.93 Q559.363 1862.59 562.742 1862.59 Q566.122 1862.59 568.043 1859.93 Q569.988 1857.24 569.988 1852.54 M555.497 1843.49 Q556.84 1841.18 558.877 1840.07 Q560.937 1838.93 563.784 1838.93 Q568.506 1838.93 571.446 1842.68 Q574.409 1846.43 574.409 1852.54 Q574.409 1858.65 571.446 1862.4 Q568.506 1866.15 563.784 1866.15 Q560.937 1866.15 558.877 1865.04 Q556.84 1863.91 555.497 1861.59 L555.497 1865.48 L551.215 1865.48 L551.215 1829.46 L555.497 1829.46 L555.497 1843.49 Z" fill="#000000" fill-rule="nonzero" fill-opacity="1" /><path clip-path="url(#clip170)" d="M593.252 1852.45 Q588.09 1852.45 586.099 1853.63 Q584.108 1854.81 584.108 1857.66 Q584.108 1859.93 585.59 1861.27 Q587.094 1862.59 589.664 1862.59 Q593.205 1862.59 595.335 1860.09 Q597.488 1857.57 597.488 1853.4 L597.488 1852.45 L593.252 1852.45 M601.747 1850.69 L601.747 1865.48 L597.488 1865.48 L597.488 1861.55 Q596.029 1863.91 593.853 1865.04 Q591.677 1866.15 588.529 1866.15 Q584.548 1866.15 582.187 1863.93 Q579.849 1861.69 579.849 1857.94 Q579.849 1853.56 582.766 1851.34 Q585.705 1849.12 591.515 1849.12 L597.488 1849.12 L597.488 1848.7 Q597.488 1845.76 595.543 1844.16 Q593.622 1842.54 590.127 1842.54 Q587.904 1842.54 585.798 1843.08 Q583.691 1843.61 581.747 1844.67 L581.747 1840.74 Q584.085 1839.84 586.284 1839.4 Q588.483 1838.93 590.566 1838.93 Q596.191 1838.93 598.969 1841.85 Q601.747 1844.77 601.747 1850.69 Z" fill="#000000" fill-rule="nonzero" fill-opacity="1" /><path clip-path="url(#clip170)" d="M632.071 1849.84 L632.071 1865.48 L627.812 1865.48 L627.812 1849.97 Q627.812 1846.29 626.376 1844.46 Q624.941 1842.64 622.071 1842.64 Q618.622 1842.64 616.631 1844.84 Q614.64 1847.03 614.64 1850.83 L614.64 1865.48 L610.358 1865.48 L610.358 1839.56 L614.64 1839.56 L614.64 1843.59 Q616.168 1841.25 618.228 1840.09 Q620.312 1838.93 623.02 1838.93 Q627.487 1838.93 629.779 1841.71 Q632.071 1844.46 632.071 1849.84 Z" fill="#000000" fill-rule="nonzero" fill-opacity="1" /><path clip-path="url(#clip170)" d="M640.404 1829.46 L644.686 1829.46 L644.686 1850.74 L657.395 1839.56 L662.835 1839.56 L649.085 1851.69 L663.413 1865.48 L657.858 1865.48 L644.686 1852.82 L644.686 1865.48 L640.404 1865.48 L640.404 1829.46 Z" fill="#000000" fill-rule="nonzero" fill-opacity="1" /><path clip-path="url(#clip170)" d="M907.801 1840.32 L907.801 1844.35 Q905.995 1843.42 904.051 1842.96 Q902.106 1842.5 900.023 1842.5 Q896.852 1842.5 895.254 1843.47 Q893.68 1844.44 893.68 1846.39 Q893.68 1847.87 894.815 1848.72 Q895.949 1849.56 899.375 1850.32 L900.833 1850.65 Q905.37 1851.62 907.268 1853.4 Q909.19 1855.16 909.19 1858.33 Q909.19 1861.94 906.319 1864.05 Q903.472 1866.15 898.472 1866.15 Q896.389 1866.15 894.12 1865.74 Q891.875 1865.34 889.375 1864.53 L889.375 1860.14 Q891.736 1861.36 894.028 1861.99 Q896.319 1862.59 898.565 1862.59 Q901.574 1862.59 903.194 1861.57 Q904.815 1860.53 904.815 1858.65 Q904.815 1856.92 903.634 1855.99 Q902.477 1855.07 898.518 1854.21 L897.037 1853.86 Q893.079 1853.03 891.319 1851.32 Q889.56 1849.58 889.56 1846.57 Q889.56 1842.91 892.153 1840.92 Q894.745 1838.93 899.514 1838.93 Q901.875 1838.93 903.958 1839.28 Q906.041 1839.63 907.801 1840.32 Z" fill="#000000" fill-rule="nonzero" fill-opacity="1" /><path clip-path="url(#clip170)" d="M938.148 1851.46 L938.148 1853.54 L918.565 1853.54 Q918.842 1857.94 921.203 1860.25 Q923.588 1862.54 927.824 1862.54 Q930.277 1862.54 932.569 1861.94 Q934.884 1861.34 937.152 1860.14 L937.152 1864.16 Q934.861 1865.14 932.453 1865.65 Q930.046 1866.15 927.569 1866.15 Q921.365 1866.15 917.731 1862.54 Q914.12 1858.93 914.12 1852.78 Q914.12 1846.41 917.546 1842.68 Q920.995 1838.93 926.828 1838.93 Q932.06 1838.93 935.092 1842.31 Q938.148 1845.67 938.148 1851.46 M933.889 1850.21 Q933.842 1846.71 931.921 1844.63 Q930.023 1842.54 926.875 1842.54 Q923.31 1842.54 921.157 1844.56 Q919.027 1846.57 918.703 1850.23 L933.889 1850.21 Z" fill="#000000" fill-rule="nonzero" fill-opacity="1" /><path clip-path="url(#clip170)" d="M967.314 1851.46 L967.314 1853.54 L947.731 1853.54 Q948.009 1857.94 950.37 1860.25 Q952.754 1862.54 956.99 1862.54 Q959.444 1862.54 961.736 1861.94 Q964.05 1861.34 966.319 1860.14 L966.319 1864.16 Q964.027 1865.14 961.62 1865.65 Q959.212 1866.15 956.736 1866.15 Q950.532 1866.15 946.898 1862.54 Q943.287 1858.93 943.287 1852.78 Q943.287 1846.41 946.713 1842.68 Q950.162 1838.93 955.995 1838.93 Q961.226 1838.93 964.259 1842.31 Q967.314 1845.67 967.314 1851.46 M963.055 1850.21 Q963.009 1846.71 961.087 1844.63 Q959.189 1842.54 956.041 1842.54 Q952.476 1842.54 950.324 1844.56 Q948.194 1846.57 947.87 1850.23 L963.055 1850.21 Z" fill="#000000" fill-rule="nonzero" fill-opacity="1" /><path clip-path="url(#clip170)" d="M991.365 1843.49 L991.365 1829.46 L995.624 1829.46 L995.624 1865.48 L991.365 1865.48 L991.365 1861.59 Q990.022 1863.91 987.962 1865.04 Q985.925 1866.15 983.055 1866.15 Q978.356 1866.15 975.393 1862.4 Q972.453 1858.65 972.453 1852.54 Q972.453 1846.43 975.393 1842.68 Q978.356 1838.93 983.055 1838.93 Q985.925 1838.93 987.962 1840.07 Q990.022 1841.18 991.365 1843.49 M976.851 1852.54 Q976.851 1857.24 978.773 1859.93 Q980.717 1862.59 984.097 1862.59 Q987.476 1862.59 989.421 1859.93 Q991.365 1857.24 991.365 1852.54 Q991.365 1847.84 989.421 1845.18 Q987.476 1842.5 984.097 1842.5 Q980.717 1842.5 978.773 1845.18 Q976.851 1847.84 976.851 1852.54 Z" fill="#000000" fill-rule="nonzero" fill-opacity="1" /><path clip-path="url(#clip170)" d="M1004.4 1829.46 L1008.66 1829.46 L1008.66 1865.48 L1004.4 1865.48 L1004.4 1829.46 Z" fill="#000000" fill-rule="nonzero" fill-opacity="1" /><path clip-path="url(#clip170)" d="M1017.57 1839.56 L1021.83 1839.56 L1021.83 1865.48 L1017.57 1865.48 L1017.57 1839.56 M1017.57 1829.46 L1021.83 1829.46 L1021.83 1834.86 L1017.57 1834.86 L1017.57 1829.46 Z" fill="#000000" fill-rule="nonzero" fill-opacity="1" /><path clip-path="url(#clip170)" d="M1052.29 1849.84 L1052.29 1865.48 L1048.03 1865.48 L1048.03 1849.97 Q1048.03 1846.29 1046.6 1844.46 Q1045.16 1842.64 1042.29 1842.64 Q1038.84 1842.64 1036.85 1844.84 Q1034.86 1847.03 1034.86 1850.83 L1034.86 1865.48 L1030.58 1865.48 L1030.58 1839.56 L1034.86 1839.56 L1034.86 1843.59 Q1036.39 1841.25 1038.45 1840.09 Q1040.53 1838.93 1043.24 1838.93 Q1047.71 1838.93 1050 1841.71 Q1052.29 1844.46 1052.29 1849.84 Z" fill="#000000" fill-rule="nonzero" fill-opacity="1" /><path clip-path="url(#clip170)" d="M1077.85 1852.22 Q1077.85 1847.59 1075.92 1845.04 Q1074.03 1842.5 1070.58 1842.5 Q1067.15 1842.5 1065.23 1845.04 Q1063.33 1847.59 1063.33 1852.22 Q1063.33 1856.83 1065.23 1859.37 Q1067.15 1861.92 1070.58 1861.92 Q1074.03 1861.92 1075.92 1859.37 Q1077.85 1856.83 1077.85 1852.22 M1082.11 1862.27 Q1082.11 1868.89 1079.17 1872.1 Q1076.23 1875.34 1070.16 1875.34 Q1067.92 1875.34 1065.92 1875 Q1063.93 1874.67 1062.06 1873.98 L1062.06 1869.84 Q1063.93 1870.85 1065.76 1871.34 Q1067.59 1871.83 1069.49 1871.83 Q1073.68 1871.83 1075.76 1869.63 Q1077.85 1867.45 1077.85 1863.03 L1077.85 1860.92 Q1076.53 1863.21 1074.47 1864.35 Q1072.41 1865.48 1069.54 1865.48 Q1064.77 1865.48 1061.85 1861.85 Q1058.93 1858.21 1058.93 1852.22 Q1058.93 1846.2 1061.85 1842.57 Q1064.77 1838.93 1069.54 1838.93 Q1072.41 1838.93 1074.47 1840.07 Q1076.53 1841.2 1077.85 1843.49 L1077.85 1839.56 L1082.11 1839.56 L1082.11 1862.27 Z" fill="#000000" fill-rule="nonzero" fill-opacity="1" /><path clip-path="url(#clip170)" d="M1392.24 1840.32 L1392.24 1844.35 Q1390.44 1843.42 1388.49 1842.96 Q1386.55 1842.5 1384.47 1842.5 Q1381.3 1842.5 1379.7 1843.47 Q1378.12 1844.44 1378.12 1846.39 Q1378.12 1847.87 1379.26 1848.72 Q1380.39 1849.56 1383.82 1850.32 L1385.28 1850.65 Q1389.81 1851.62 1391.71 1853.4 Q1393.63 1855.16 1393.63 1858.33 Q1393.63 1861.94 1390.76 1864.05 Q1387.92 1866.15 1382.92 1866.15 Q1380.83 1866.15 1378.56 1865.74 Q1376.32 1865.34 1373.82 1864.53 L1373.82 1860.14 Q1376.18 1861.36 1378.47 1861.99 Q1380.76 1862.59 1383.01 1862.59 Q1386.02 1862.59 1387.64 1861.57 Q1389.26 1860.53 1389.26 1858.65 Q1389.26 1856.92 1388.08 1855.99 Q1386.92 1855.07 1382.96 1854.21 L1381.48 1853.86 Q1377.52 1853.03 1375.76 1851.32 Q1374 1849.58 1374 1846.57 Q1374 1842.91 1376.6 1840.92 Q1379.19 1838.93 1383.96 1838.93 Q1386.32 1838.93 1388.4 1839.28 Q1390.49 1839.63 1392.24 1840.32 Z" fill="#000000" fill-rule="nonzero" fill-opacity="1" /><path clip-path="url(#clip170)" d="M1420.6 1844.53 Q1422.2 1841.66 1424.42 1840.3 Q1426.64 1838.93 1429.65 1838.93 Q1433.7 1838.93 1435.9 1841.78 Q1438.1 1844.6 1438.1 1849.84 L1438.1 1865.48 L1433.82 1865.48 L1433.82 1849.97 Q1433.82 1846.25 1432.5 1844.44 Q1431.18 1842.64 1428.47 1842.64 Q1425.16 1842.64 1423.24 1844.84 Q1421.32 1847.03 1421.32 1850.83 L1421.32 1865.48 L1417.04 1865.48 L1417.04 1849.97 Q1417.04 1846.22 1415.72 1844.44 Q1414.4 1842.64 1411.64 1842.64 Q1408.38 1842.64 1406.46 1844.86 Q1404.54 1847.06 1404.54 1850.83 L1404.54 1865.48 L1400.25 1865.48 L1400.25 1839.56 L1404.54 1839.56 L1404.54 1843.59 Q1405.99 1841.2 1408.03 1840.07 Q1410.07 1838.93 1412.87 1838.93 Q1415.69 1838.93 1417.66 1840.37 Q1419.65 1841.8 1420.6 1844.53 Z" fill="#000000" fill-rule="nonzero" fill-opacity="1" /><path clip-path="url(#clip170)" d="M1458.38 1852.45 Q1453.22 1852.45 1451.23 1853.63 Q1449.24 1854.81 1449.24 1857.66 Q1449.24 1859.93 1450.72 1861.27 Q1452.22 1862.59 1454.79 1862.59 Q1458.33 1862.59 1460.46 1860.09 Q1462.61 1857.57 1462.61 1853.4 L1462.61 1852.45 L1458.38 1852.45 M1466.87 1850.69 L1466.87 1865.48 L1462.61 1865.48 L1462.61 1861.55 Q1461.16 1863.91 1458.98 1865.04 Q1456.8 1866.15 1453.66 1866.15 Q1449.67 1866.15 1447.31 1863.93 Q1444.98 1861.69 1444.98 1857.94 Q1444.98 1853.56 1447.89 1851.34 Q1450.83 1849.12 1456.64 1849.12 L1462.61 1849.12 L1462.61 1848.7 Q1462.61 1845.76 1460.67 1844.16 Q1458.75 1842.54 1455.25 1842.54 Q1453.03 1842.54 1450.92 1843.08 Q1448.82 1843.61 1446.87 1844.67 L1446.87 1840.74 Q1449.21 1839.84 1451.41 1839.4 Q1453.61 1838.93 1455.69 1838.93 Q1461.32 1838.93 1464.1 1841.85 Q1466.87 1844.77 1466.87 1850.69 Z" fill="#000000" fill-rule="nonzero" fill-opacity="1" /><path clip-path="url(#clip170)" d="M1475.65 1829.46 L1479.91 1829.46 L1479.91 1865.48 L1475.65 1865.48 L1475.65 1829.46 Z" fill="#000000" fill-rule="nonzero" fill-opacity="1" /><path clip-path="url(#clip170)" d="M1488.82 1829.46 L1493.08 1829.46 L1493.08 1865.48 L1488.82 1865.48 L1488.82 1829.46 Z" fill="#000000" fill-rule="nonzero" fill-opacity="1" /><path clip-path="url(#clip170)" d="M1824.58 1829.46 L1828.84 1829.46 L1828.84 1865.48 L1824.58 1865.48 L1824.58 1829.46 Z" fill="#000000" fill-rule="nonzero" fill-opacity="1" /><path clip-path="url(#clip170)" d="M1849.54 1852.45 Q1844.37 1852.45 1842.38 1853.63 Q1840.39 1854.81 1840.39 1857.66 Q1840.39 1859.93 1841.87 1861.27 Q1843.38 1862.59 1845.95 1862.59 Q1849.49 1862.59 1851.62 1860.09 Q1853.77 1857.57 1853.77 1853.4 L1853.77 1852.45 L1849.54 1852.45 M1858.03 1850.69 L1858.03 1865.48 L1853.77 1865.48 L1853.77 1861.55 Q1852.31 1863.91 1850.14 1865.04 Q1847.96 1866.15 1844.81 1866.15 Q1840.83 1866.15 1838.47 1863.93 Q1836.13 1861.69 1836.13 1857.94 Q1836.13 1853.56 1839.05 1851.34 Q1841.99 1849.12 1847.8 1849.12 L1853.77 1849.12 L1853.77 1848.7 Q1853.77 1845.76 1851.83 1844.16 Q1849.91 1842.54 1846.41 1842.54 Q1844.19 1842.54 1842.08 1843.08 Q1839.98 1843.61 1838.03 1844.67 L1838.03 1840.74 Q1840.37 1839.84 1842.57 1839.4 Q1844.77 1838.93 1846.85 1838.93 Q1852.48 1838.93 1855.25 1841.85 Q1858.03 1844.77 1858.03 1850.69 Z" fill="#000000" fill-rule="nonzero" fill-opacity="1" /><path clip-path="url(#clip170)" d="M1881.83 1843.54 Q1881.11 1843.12 1880.25 1842.94 Q1879.42 1842.73 1878.4 1842.73 Q1874.79 1842.73 1872.85 1845.09 Q1870.92 1847.43 1870.92 1851.83 L1870.92 1865.48 L1866.64 1865.48 L1866.64 1839.56 L1870.92 1839.56 L1870.92 1843.59 Q1872.27 1841.22 1874.42 1840.09 Q1876.57 1838.93 1879.65 1838.93 Q1880.09 1838.93 1880.62 1839 Q1881.16 1839.05 1881.8 1839.16 L1881.83 1843.54 Z" fill="#000000" fill-rule="nonzero" fill-opacity="1" /><path clip-path="url(#clip170)" d="M1902.52 1852.22 Q1902.52 1847.59 1900.6 1845.04 Q1898.7 1842.5 1895.25 1842.5 Q1891.83 1842.5 1889.91 1845.04 Q1888.01 1847.59 1888.01 1852.22 Q1888.01 1856.83 1889.91 1859.37 Q1891.83 1861.92 1895.25 1861.92 Q1898.7 1861.92 1900.6 1859.37 Q1902.52 1856.83 1902.52 1852.22 M1906.78 1862.27 Q1906.78 1868.89 1903.84 1872.1 Q1900.9 1875.34 1894.84 1875.34 Q1892.59 1875.34 1890.6 1875 Q1888.61 1874.67 1886.74 1873.98 L1886.74 1869.84 Q1888.61 1870.85 1890.44 1871.34 Q1892.27 1871.83 1894.17 1871.83 Q1898.36 1871.83 1900.44 1869.63 Q1902.52 1867.45 1902.52 1863.03 L1902.52 1860.92 Q1901.2 1863.21 1899.14 1864.35 Q1897.08 1865.48 1894.21 1865.48 Q1889.44 1865.48 1886.53 1861.85 Q1883.61 1858.21 1883.61 1852.22 Q1883.61 1846.2 1886.53 1842.57 Q1889.44 1838.93 1894.21 1838.93 Q1897.08 1838.93 1899.14 1840.07 Q1901.2 1841.2 1902.52 1843.49 L1902.52 1839.56 L1906.78 1839.56 L1906.78 1862.27 Z" fill="#000000" fill-rule="nonzero" fill-opacity="1" /><path clip-path="url(#clip170)" d="M1937.73 1851.46 L1937.73 1853.54 L1918.15 1853.54 Q1918.42 1857.94 1920.79 1860.25 Q1923.17 1862.54 1927.41 1862.54 Q1929.86 1862.54 1932.15 1861.94 Q1934.47 1861.34 1936.73 1860.14 L1936.73 1864.16 Q1934.44 1865.14 1932.04 1865.65 Q1929.63 1866.15 1927.15 1866.15 Q1920.95 1866.15 1917.31 1862.54 Q1913.7 1858.93 1913.7 1852.78 Q1913.7 1846.41 1917.13 1842.68 Q1920.58 1838.93 1926.41 1838.93 Q1931.64 1838.93 1934.67 1842.31 Q1937.73 1845.67 1937.73 1851.46 M1933.47 1850.21 Q1933.42 1846.71 1931.5 1844.63 Q1929.61 1842.54 1926.46 1842.54 Q1922.89 1842.54 1920.74 1844.56 Q1918.61 1846.57 1918.29 1850.23 L1933.47 1850.21 Z" fill="#000000" fill-rule="nonzero" fill-opacity="1" /><path clip-path="url(#clip170)" d="M2238.26 1829.46 L2238.26 1833.01 L2234.19 1833.01 Q2231.9 1833.01 2230.99 1833.93 Q2230.12 1834.86 2230.12 1837.27 L2230.12 1839.56 L2237.13 1839.56 L2237.13 1842.87 L2230.12 1842.87 L2230.12 1865.48 L2225.83 1865.48 L2225.83 1842.87 L2221.76 1842.87 L2221.76 1839.56 L2225.83 1839.56 L2225.83 1837.75 Q2225.83 1833.42 2227.85 1831.46 Q2229.86 1829.46 2234.24 1829.46 L2238.26 1829.46 Z" fill="#000000" fill-rule="nonzero" fill-opacity="1" /><path clip-path="url(#clip170)" d="M2241.83 1829.46 L2246.09 1829.46 L2246.09 1865.48 L2241.83 1865.48 L2241.83 1829.46 Z" fill="#000000" fill-rule="nonzero" fill-opacity="1" /><path clip-path="url(#clip170)" d="M2265.05 1842.54 Q2261.62 1842.54 2259.63 1845.23 Q2257.64 1847.89 2257.64 1852.54 Q2257.64 1857.2 2259.61 1859.88 Q2261.6 1862.54 2265.05 1862.54 Q2268.45 1862.54 2270.44 1859.86 Q2272.43 1857.17 2272.43 1852.54 Q2272.43 1847.94 2270.44 1845.25 Q2268.45 1842.54 2265.05 1842.54 M2265.05 1838.93 Q2270.6 1838.93 2273.77 1842.54 Q2276.94 1846.15 2276.94 1852.54 Q2276.94 1858.91 2273.77 1862.54 Q2270.6 1866.15 2265.05 1866.15 Q2259.47 1866.15 2256.3 1862.54 Q2253.15 1858.91 2253.15 1852.54 Q2253.15 1846.15 2256.3 1842.54 Q2259.47 1838.93 2265.05 1838.93 Z" fill="#000000" fill-rule="nonzero" fill-opacity="1" /><path clip-path="url(#clip170)" d="M2281.53 1839.56 L2285.79 1839.56 L2291.11 1859.79 L2296.41 1839.56 L2301.43 1839.56 L2306.76 1859.79 L2312.06 1839.56 L2316.32 1839.56 L2309.54 1865.48 L2304.51 1865.48 L2298.93 1844.23 L2293.33 1865.48 L2288.31 1865.48 L2281.53 1839.56 Z" fill="#000000" fill-rule="nonzero" fill-opacity="1" /><path clip-path="url(#clip170)" d="M2344.95 1851.46 L2344.95 1853.54 L2325.37 1853.54 Q2325.65 1857.94 2328.01 1860.25 Q2330.39 1862.54 2334.63 1862.54 Q2337.08 1862.54 2339.37 1861.94 Q2341.69 1861.34 2343.96 1860.14 L2343.96 1864.16 Q2341.67 1865.14 2339.26 1865.65 Q2336.85 1866.15 2334.37 1866.15 Q2328.17 1866.15 2324.54 1862.54 Q2320.92 1858.93 2320.92 1852.78 Q2320.92 1846.41 2324.35 1842.68 Q2327.8 1838.93 2333.63 1838.93 Q2338.86 1838.93 2341.9 1842.31 Q2344.95 1845.67 2344.95 1851.46 M2340.69 1850.21 Q2340.65 1846.71 2338.73 1844.63 Q2336.83 1842.54 2333.68 1842.54 Q2330.11 1842.54 2327.96 1844.56 Q2325.83 1846.57 2325.51 1850.23 L2340.69 1850.21 Z" fill="#000000" fill-rule="nonzero" fill-opacity="1" /><path clip-path="url(#clip170)" d="M2366.97 1843.54 Q2366.25 1843.12 2365.39 1842.94 Q2364.56 1842.73 2363.54 1842.73 Q2359.93 1842.73 2357.98 1845.09 Q2356.06 1847.43 2356.06 1851.83 L2356.06 1865.48 L2351.78 1865.48 L2351.78 1839.56 L2356.06 1839.56 L2356.06 1843.59 Q2357.41 1841.22 2359.56 1840.09 Q2361.71 1838.93 2364.79 1838.93 Q2365.23 1838.93 2365.76 1839 Q2366.29 1839.05 2366.94 1839.16 L2366.97 1843.54 Z" fill="#000000" fill-rule="nonzero" fill-opacity="1" /><path clip-path="url(#clip170)" d="M2371.43 1839.56 L2375.69 1839.56 L2375.69 1865.48 L2371.43 1865.48 L2371.43 1839.56 M2371.43 1829.46 L2375.69 1829.46 L2375.69 1834.86 L2371.43 1834.86 L2371.43 1829.46 Z" fill="#000000" fill-rule="nonzero" fill-opacity="1" /><path clip-path="url(#clip170)" d="M2406.16 1849.84 L2406.16 1865.48 L2401.9 1865.48 L2401.9 1849.97 Q2401.9 1846.29 2400.46 1844.46 Q2399.03 1842.64 2396.16 1842.64 Q2392.71 1842.64 2390.72 1844.84 Q2388.73 1847.03 2388.73 1850.83 L2388.73 1865.48 L2384.44 1865.48 L2384.44 1839.56 L2388.73 1839.56 L2388.73 1843.59 Q2390.25 1841.25 2392.31 1840.09 Q2394.4 1838.93 2397.1 1838.93 Q2401.57 1838.93 2403.86 1841.71 Q2406.16 1844.46 2406.16 1849.84 Z" fill="#000000" fill-rule="nonzero" fill-opacity="1" /><path clip-path="url(#clip170)" d="M2431.71 1852.22 Q2431.71 1847.59 2429.79 1845.04 Q2427.89 1842.5 2424.44 1842.5 Q2421.02 1842.5 2419.1 1845.04 Q2417.2 1847.59 2417.2 1852.22 Q2417.2 1856.83 2419.1 1859.37 Q2421.02 1861.92 2424.44 1861.92 Q2427.89 1861.92 2429.79 1859.37 Q2431.71 1856.83 2431.71 1852.22 M2435.97 1862.27 Q2435.97 1868.89 2433.03 1872.1 Q2430.09 1875.34 2424.03 1875.34 Q2421.78 1875.34 2419.79 1875 Q2417.8 1874.67 2415.92 1873.98 L2415.92 1869.84 Q2417.8 1870.85 2419.63 1871.34 Q2421.46 1871.83 2423.35 1871.83 Q2427.54 1871.83 2429.63 1869.63 Q2431.71 1867.45 2431.71 1863.03 L2431.71 1860.92 Q2430.39 1863.21 2428.33 1864.35 Q2426.27 1865.48 2423.4 1865.48 Q2418.63 1865.48 2415.72 1861.85 Q2412.8 1858.21 2412.8 1852.22 Q2412.8 1846.2 2415.72 1842.57 Q2418.63 1838.93 2423.4 1838.93 Q2426.27 1838.93 2428.33 1840.07 Q2430.39 1841.2 2431.71 1843.49 L2431.71 1839.56 L2435.97 1839.56 L2435.97 1862.27 Z" fill="#000000" fill-rule="nonzero" fill-opacity="1" /><polyline clip-path="url(#clip170)" style="stroke:#000000; stroke-linecap:round; stroke-linejoin:round; stroke-width:4; stroke-opacity:1; fill:none" points="226.141,1800.78 226.141,127.792 "/>
<polyline clip-path="url(#clip170)" style="stroke:#000000; stroke-linecap:round; stroke-linejoin:round; stroke-width:4; stroke-opacity:1; fill:none" points="226.141,1800.78 245.038,1800.78 "/>
<polyline clip-path="url(#clip170)" style="stroke:#000000; stroke-linecap:round; stroke-linejoin:round; stroke-width:4; stroke-opacity:1; fill:none" points="226.141,1466.18 245.038,1466.18 "/>
<polyline clip-path="url(#clip170)" style="stroke:#000000; stroke-linecap:round; stroke-linejoin:round; stroke-width:4; stroke-opacity:1; fill:none" points="226.141,1131.58 245.038,1131.58 "/>
<polyline clip-path="url(#clip170)" style="stroke:#000000; stroke-linecap:round; stroke-linejoin:round; stroke-width:4; stroke-opacity:1; fill:none" points="226.141,796.987 245.038,796.987 "/>
<polyline clip-path="url(#clip170)" style="stroke:#000000; stroke-linecap:round; stroke-linejoin:round; stroke-width:4; stroke-opacity:1; fill:none" points="226.141,462.39 245.038,462.39 "/>
<polyline clip-path="url(#clip170)" style="stroke:#000000; stroke-linecap:round; stroke-linejoin:round; stroke-width:4; stroke-opacity:1; fill:none" points="226.141,127.792 245.038,127.792 "/>
<path clip-path="url(#clip170)" d="M128.645 1786.58 Q125.034 1786.58 123.205 1790.14 Q121.4 1793.68 121.4 1800.81 Q121.4 1807.92 123.205 1811.49 Q125.034 1815.03 128.645 1815.03 Q132.279 1815.03 134.085 1811.49 Q135.913 1807.92 135.913 1800.81 Q135.913 1793.68 134.085 1790.14 Q132.279 1786.58 128.645 1786.58 M128.645 1782.87 Q134.455 1782.87 137.511 1787.48 Q140.589 1792.06 140.589 1800.81 Q140.589 1809.54 137.511 1814.15 Q134.455 1818.73 128.645 1818.73 Q122.835 1818.73 119.756 1814.15 Q116.701 1809.54 116.701 1800.81 Q116.701 1792.06 119.756 1787.48 Q122.835 1782.87 128.645 1782.87 Z" fill="#000000" fill-rule="nonzero" fill-opacity="1" /><path clip-path="url(#clip170)" d="M148.807 1812.18 L153.691 1812.18 L153.691 1818.06 L148.807 1818.06 L148.807 1812.18 Z" fill="#000000" fill-rule="nonzero" fill-opacity="1" /><path clip-path="url(#clip170)" d="M173.876 1786.58 Q170.265 1786.58 168.436 1790.14 Q166.631 1793.68 166.631 1800.81 Q166.631 1807.92 168.436 1811.49 Q170.265 1815.03 173.876 1815.03 Q177.51 1815.03 179.316 1811.49 Q181.145 1807.92 181.145 1800.81 Q181.145 1793.68 179.316 1790.14 Q177.51 1786.58 173.876 1786.58 M173.876 1782.87 Q179.686 1782.87 182.742 1787.48 Q185.821 1792.06 185.821 1800.81 Q185.821 1809.54 182.742 1814.15 Q179.686 1818.73 173.876 1818.73 Q168.066 1818.73 164.987 1814.15 Q161.932 1809.54 161.932 1800.81 Q161.932 1792.06 164.987 1787.48 Q168.066 1782.87 173.876 1782.87 Z" fill="#000000" fill-rule="nonzero" fill-opacity="1" /><path clip-path="url(#clip170)" d="M130.242 1451.98 Q126.631 1451.98 124.802 1455.55 Q122.997 1459.09 122.997 1466.22 Q122.997 1473.32 124.802 1476.89 Q126.631 1480.43 130.242 1480.43 Q133.876 1480.43 135.682 1476.89 Q137.511 1473.32 137.511 1466.22 Q137.511 1459.09 135.682 1455.55 Q133.876 1451.98 130.242 1451.98 M130.242 1448.28 Q136.052 1448.28 139.108 1452.88 Q142.187 1457.47 142.187 1466.22 Q142.187 1474.94 139.108 1479.55 Q136.052 1484.13 130.242 1484.13 Q124.432 1484.13 121.353 1479.55 Q118.298 1474.94 118.298 1466.22 Q118.298 1457.47 121.353 1452.88 Q124.432 1448.28 130.242 1448.28 Z" fill="#000000" fill-rule="nonzero" fill-opacity="1" /><path clip-path="url(#clip170)" d="M150.404 1477.58 L155.288 1477.58 L155.288 1483.46 L150.404 1483.46 L150.404 1477.58 Z" fill="#000000" fill-rule="nonzero" fill-opacity="1" /><path clip-path="url(#clip170)" d="M169.501 1479.53 L185.821 1479.53 L185.821 1483.46 L163.876 1483.46 L163.876 1479.53 Q166.538 1476.77 171.122 1472.14 Q175.728 1467.49 176.909 1466.15 Q179.154 1463.62 180.034 1461.89 Q180.936 1460.13 180.936 1458.44 Q180.936 1455.68 178.992 1453.95 Q177.071 1452.21 173.969 1452.21 Q171.77 1452.21 169.316 1452.98 Q166.885 1453.74 164.108 1455.29 L164.108 1450.57 Q166.932 1449.43 169.385 1448.86 Q171.839 1448.28 173.876 1448.28 Q179.247 1448.28 182.441 1450.96 Q185.635 1453.65 185.635 1458.14 Q185.635 1460.27 184.825 1462.19 Q184.038 1464.09 181.932 1466.68 Q181.353 1467.35 178.251 1470.57 Q175.149 1473.76 169.501 1479.53 Z" fill="#000000" fill-rule="nonzero" fill-opacity="1" /><path clip-path="url(#clip170)" d="M128.159 1117.38 Q124.548 1117.38 122.719 1120.95 Q120.913 1124.49 120.913 1131.62 Q120.913 1138.73 122.719 1142.29 Q124.548 1145.83 128.159 1145.83 Q131.793 1145.83 133.599 1142.29 Q135.427 1138.73 135.427 1131.62 Q135.427 1124.49 133.599 1120.95 Q131.793 1117.38 128.159 1117.38 M128.159 1113.68 Q133.969 1113.68 137.025 1118.29 Q140.103 1122.87 140.103 1131.62 Q140.103 1140.35 137.025 1144.95 Q133.969 1149.54 128.159 1149.54 Q122.349 1149.54 119.27 1144.95 Q116.214 1140.35 116.214 1131.62 Q116.214 1122.87 119.27 1118.29 Q122.349 1113.68 128.159 1113.68 Z" fill="#000000" fill-rule="nonzero" fill-opacity="1" /><path clip-path="url(#clip170)" d="M148.321 1142.98 L153.205 1142.98 L153.205 1148.86 L148.321 1148.86 L148.321 1142.98 Z" fill="#000000" fill-rule="nonzero" fill-opacity="1" /><path clip-path="url(#clip170)" d="M176.237 1118.38 L164.432 1136.83 L176.237 1136.83 L176.237 1118.38 M175.01 1114.3 L180.89 1114.3 L180.89 1136.83 L185.821 1136.83 L185.821 1140.72 L180.89 1140.72 L180.89 1148.86 L176.237 1148.86 L176.237 1140.72 L160.636 1140.72 L160.636 1136.2 L175.01 1114.3 Z" fill="#000000" fill-rule="nonzero" fill-opacity="1" /><path clip-path="url(#clip170)" d="M128.483 782.786 Q124.872 782.786 123.043 786.35 Q121.238 789.892 121.238 797.022 Q121.238 804.128 123.043 807.693 Q124.872 811.235 128.483 811.235 Q132.117 811.235 133.923 807.693 Q135.751 804.128 135.751 797.022 Q135.751 789.892 133.923 786.35 Q132.117 782.786 128.483 782.786 M128.483 779.082 Q134.293 779.082 137.349 783.688 Q140.427 788.272 140.427 797.022 Q140.427 805.749 137.349 810.355 Q134.293 814.938 128.483 814.938 Q122.673 814.938 119.594 810.355 Q116.539 805.749 116.539 797.022 Q116.539 788.272 119.594 783.688 Q122.673 779.082 128.483 779.082 Z" fill="#000000" fill-rule="nonzero" fill-opacity="1" /><path clip-path="url(#clip170)" d="M148.645 808.387 L153.529 808.387 L153.529 814.267 L148.645 814.267 L148.645 808.387 Z" fill="#000000" fill-rule="nonzero" fill-opacity="1" /><path clip-path="url(#clip170)" d="M174.293 795.124 Q171.145 795.124 169.293 797.276 Q167.464 799.429 167.464 803.179 Q167.464 806.906 169.293 809.082 Q171.145 811.235 174.293 811.235 Q177.441 811.235 179.27 809.082 Q181.122 806.906 181.122 803.179 Q181.122 799.429 179.27 797.276 Q177.441 795.124 174.293 795.124 M183.575 780.471 L183.575 784.73 Q181.816 783.897 180.01 783.457 Q178.228 783.017 176.469 783.017 Q171.839 783.017 169.385 786.142 Q166.955 789.267 166.608 795.587 Q167.973 793.573 170.034 792.508 Q172.094 791.42 174.571 791.42 Q179.779 791.42 182.788 794.591 Q185.821 797.739 185.821 803.179 Q185.821 808.503 182.672 811.721 Q179.524 814.938 174.293 814.938 Q168.297 814.938 165.126 810.355 Q161.955 805.749 161.955 797.022 Q161.955 788.827 165.844 783.966 Q169.733 779.082 176.284 779.082 Q178.043 779.082 179.825 779.429 Q181.631 779.776 183.575 780.471 Z" fill="#000000" fill-rule="nonzero" fill-opacity="1" /><path clip-path="url(#clip170)" d="M128.738 448.188 Q125.126 448.188 123.298 451.753 Q121.492 455.295 121.492 462.424 Q121.492 469.531 123.298 473.096 Q125.126 476.637 128.738 476.637 Q132.372 476.637 134.177 473.096 Q136.006 469.531 136.006 462.424 Q136.006 455.295 134.177 451.753 Q132.372 448.188 128.738 448.188 M128.738 444.485 Q134.548 444.485 137.603 449.091 Q140.682 453.674 140.682 462.424 Q140.682 471.151 137.603 475.758 Q134.548 480.341 128.738 480.341 Q122.927 480.341 119.849 475.758 Q116.793 471.151 116.793 462.424 Q116.793 453.674 119.849 449.091 Q122.927 444.485 128.738 444.485 Z" fill="#000000" fill-rule="nonzero" fill-opacity="1" /><path clip-path="url(#clip170)" d="M148.899 473.79 L153.784 473.79 L153.784 479.67 L148.899 479.67 L148.899 473.79 Z" fill="#000000" fill-rule="nonzero" fill-opacity="1" /><path clip-path="url(#clip170)" d="M173.969 463.258 Q170.635 463.258 168.714 465.04 Q166.816 466.822 166.816 469.947 Q166.816 473.072 168.714 474.855 Q170.635 476.637 173.969 476.637 Q177.302 476.637 179.223 474.855 Q181.145 473.049 181.145 469.947 Q181.145 466.822 179.223 465.04 Q177.325 463.258 173.969 463.258 M169.293 461.267 Q166.284 460.526 164.594 458.466 Q162.927 456.406 162.927 453.443 Q162.927 449.299 165.867 446.892 Q168.83 444.485 173.969 444.485 Q179.131 444.485 182.071 446.892 Q185.01 449.299 185.01 453.443 Q185.01 456.406 183.321 458.466 Q181.654 460.526 178.668 461.267 Q182.047 462.054 183.922 464.346 Q185.821 466.637 185.821 469.947 Q185.821 474.971 182.742 477.656 Q179.686 480.341 173.969 480.341 Q168.251 480.341 165.173 477.656 Q162.117 474.971 162.117 469.947 Q162.117 466.637 164.015 464.346 Q165.913 462.054 169.293 461.267 M167.58 453.883 Q167.58 456.568 169.247 458.072 Q170.936 459.577 173.969 459.577 Q176.978 459.577 178.668 458.072 Q180.381 456.568 180.381 453.883 Q180.381 451.197 178.668 449.693 Q176.978 448.188 173.969 448.188 Q170.936 448.188 169.247 449.693 Q167.58 451.197 167.58 453.883 Z" fill="#000000" fill-rule="nonzero" fill-opacity="1" /><path clip-path="url(#clip170)" d="M119.455 141.137 L127.094 141.137 L127.094 114.771 L118.784 116.438 L118.784 112.179 L127.048 110.512 L131.724 110.512 L131.724 141.137 L139.362 141.137 L139.362 145.072 L119.455 145.072 L119.455 141.137 Z" fill="#000000" fill-rule="nonzero" fill-opacity="1" /><path clip-path="url(#clip170)" d="M148.807 139.193 L153.691 139.193 L153.691 145.072 L148.807 145.072 L148.807 139.193 Z" fill="#000000" fill-rule="nonzero" fill-opacity="1" /><path clip-path="url(#clip170)" d="M173.876 113.591 Q170.265 113.591 168.436 117.156 Q166.631 120.697 166.631 127.827 Q166.631 134.933 168.436 138.498 Q170.265 142.04 173.876 142.04 Q177.51 142.04 179.316 138.498 Q181.145 134.933 181.145 127.827 Q181.145 120.697 179.316 117.156 Q177.51 113.591 173.876 113.591 M173.876 109.887 Q179.686 109.887 182.742 114.494 Q185.821 119.077 185.821 127.827 Q185.821 136.554 182.742 141.16 Q179.686 145.743 173.876 145.743 Q168.066 145.743 164.987 141.16 Q161.932 136.554 161.932 127.827 Q161.932 119.077 164.987 114.494 Q168.066 109.887 173.876 109.887 Z" fill="#000000" fill-rule="nonzero" fill-opacity="1" /><path clip-path="url(#clip170)" d="M54.859 1228.57 L42.0957 1228.57 L42.0957 1239.08 L36.8122 1239.08 L36.8122 1222.21 L57.2143 1222.21 Q59.856 1225.93 61.2247 1230.42 Q62.5615 1234.91 62.5615 1240 Q62.5615 1251.14 56.0684 1257.44 Q49.5436 1263.71 37.9262 1263.71 Q26.2769 1263.71 19.7839 1257.44 Q13.2591 1251.14 13.2591 1240 Q13.2591 1235.35 14.4049 1231.18 Q15.5507 1226.98 17.7787 1223.45 L24.6219 1223.45 Q21.5981 1227.01 20.0704 1231.02 Q18.5426 1235.04 18.5426 1239.46 Q18.5426 1248.18 23.4124 1252.57 Q28.2821 1256.93 37.9262 1256.93 Q47.5384 1256.93 52.4082 1252.57 Q57.2779 1248.18 57.2779 1239.46 Q57.2779 1236.05 56.705 1233.38 Q56.1003 1230.71 54.859 1228.57 Z" fill="#000000" fill-rule="nonzero" fill-opacity="1" /><path clip-path="url(#clip170)" d="M31.465 1190.06 Q30.8921 1191.05 30.6375 1192.23 Q30.351 1193.37 30.351 1194.77 Q30.351 1199.74 33.5975 1202.41 Q36.8122 1205.05 42.8596 1205.05 L61.6384 1205.05 L61.6384 1210.94 L25.9905 1210.94 L25.9905 1205.05 L31.5287 1205.05 Q28.2821 1203.21 26.7225 1200.25 Q25.1311 1197.29 25.1311 1193.05 Q25.1311 1192.45 25.2266 1191.72 Q25.2903 1190.98 25.4494 1190.09 L31.465 1190.06 Z" fill="#000000" fill-rule="nonzero" fill-opacity="1" /><path clip-path="url(#clip170)" d="M30.0964 1171.54 Q30.0964 1176.25 33.7885 1178.99 Q37.4488 1181.72 43.8463 1181.72 Q50.2438 1181.72 53.9359 1179.02 Q57.5962 1176.28 57.5962 1171.54 Q57.5962 1166.86 53.9041 1164.12 Q50.212 1161.38 43.8463 1161.38 Q37.5124 1161.38 33.8203 1164.12 Q30.0964 1166.86 30.0964 1171.54 M25.1311 1171.54 Q25.1311 1163.9 30.0964 1159.54 Q35.0616 1155.18 43.8463 1155.18 Q52.5991 1155.18 57.5962 1159.54 Q62.5615 1163.9 62.5615 1171.54 Q62.5615 1179.21 57.5962 1183.57 Q52.5991 1187.9 43.8463 1187.9 Q35.0616 1187.9 30.0964 1183.57 Q25.1311 1179.21 25.1311 1171.54 Z" fill="#000000" fill-rule="nonzero" fill-opacity="1" /><path clip-path="url(#clip170)" d="M25.9905 1148.88 L25.9905 1143.02 L53.8086 1135.7 L25.9905 1128.41 L25.9905 1121.5 L53.8086 1114.18 L25.9905 1106.89 L25.9905 1101.04 L61.6384 1110.36 L61.6384 1117.27 L32.4198 1124.94 L61.6384 1132.64 L61.6384 1139.55 L25.9905 1148.88 Z" fill="#000000" fill-rule="nonzero" fill-opacity="1" /><path clip-path="url(#clip170)" d="M15.869 1086.36 L25.9905 1086.36 L25.9905 1074.3 L30.542 1074.3 L30.542 1086.36 L49.8937 1086.36 Q54.2542 1086.36 55.4955 1085.19 Q56.7368 1083.98 56.7368 1080.32 L56.7368 1074.3 L61.6384 1074.3 L61.6384 1080.32 Q61.6384 1087.1 59.124 1089.67 Q56.5777 1092.25 49.8937 1092.25 L30.542 1092.25 L30.542 1096.55 L25.9905 1096.55 L25.9905 1092.25 L15.869 1092.25 L15.869 1086.36 Z" fill="#000000" fill-rule="nonzero" fill-opacity="1" /><path clip-path="url(#clip170)" d="M40.1224 1036.97 L61.6384 1036.97 L61.6384 1042.82 L40.3133 1042.82 Q35.2526 1042.82 32.7381 1044.8 Q30.2237 1046.77 30.2237 1050.72 Q30.2237 1055.46 33.2474 1058.2 Q36.2711 1060.93 41.491 1060.93 L61.6384 1060.93 L61.6384 1066.82 L12.1132 1066.82 L12.1132 1060.93 L31.5287 1060.93 Q28.314 1058.83 26.7225 1056 Q25.1311 1053.14 25.1311 1049.41 Q25.1311 1043.27 28.9505 1040.12 Q32.7381 1036.97 40.1224 1036.97 Z" fill="#000000" fill-rule="nonzero" fill-opacity="1" /><path clip-path="url(#clip170)" d="M56.2912 998.899 L75.1974 998.899 L75.1974 1004.79 L25.9905 1004.79 L25.9905 998.899 L31.4013 998.899 Q28.2185 997.053 26.6907 994.252 Q25.1311 991.42 25.1311 987.505 Q25.1311 981.012 30.2873 976.969 Q35.4436 972.895 43.8463 972.895 Q52.249 972.895 57.4052 976.969 Q62.5615 981.012 62.5615 987.505 Q62.5615 991.42 61.0337 994.252 Q59.4741 997.053 56.2912 998.899 M43.8463 978.975 Q37.3851 978.975 33.7248 981.648 Q30.0327 984.29 30.0327 988.937 Q30.0327 993.584 33.7248 996.257 Q37.3851 998.899 43.8463 998.899 Q50.3075 998.899 53.9996 996.257 Q57.6599 993.584 57.6599 988.937 Q57.6599 984.29 53.9996 981.648 Q50.3075 978.975 43.8463 978.975 Z" fill="#000000" fill-rule="nonzero" fill-opacity="1" /><path clip-path="url(#clip170)" d="M31.465 942.531 Q30.8921 943.518 30.6375 944.695 Q30.351 945.841 30.351 947.242 Q30.351 952.207 33.5975 954.88 Q36.8122 957.522 42.8596 957.522 L61.6384 957.522 L61.6384 963.41 L25.9905 963.41 L25.9905 957.522 L31.5287 957.522 Q28.2821 955.676 26.7225 952.716 Q25.1311 949.756 25.1311 945.523 Q25.1311 944.918 25.2266 944.186 Q25.2903 943.454 25.4494 942.563 L31.465 942.531 Z" fill="#000000" fill-rule="nonzero" fill-opacity="1" /><path clip-path="url(#clip170)" d="M30.0964 924.007 Q30.0964 928.717 33.7885 931.455 Q37.4488 934.192 43.8463 934.192 Q50.2438 934.192 53.9359 931.486 Q57.5962 928.749 57.5962 924.007 Q57.5962 919.328 53.9041 916.591 Q50.212 913.853 43.8463 913.853 Q37.5124 913.853 33.8203 916.591 Q30.0964 919.328 30.0964 924.007 M25.1311 924.007 Q25.1311 916.368 30.0964 912.007 Q35.0616 907.647 43.8463 907.647 Q52.5991 907.647 57.5962 912.007 Q62.5615 916.368 62.5615 924.007 Q62.5615 931.677 57.5962 936.038 Q52.5991 940.367 43.8463 940.367 Q35.0616 940.367 30.0964 936.038 Q25.1311 931.677 25.1311 924.007 Z" fill="#000000" fill-rule="nonzero" fill-opacity="1" /><path clip-path="url(#clip170)" d="M43.8463 872.349 Q37.3851 872.349 33.7248 875.023 Q30.0327 877.664 30.0327 882.311 Q30.0327 886.958 33.7248 889.632 Q37.3851 892.274 43.8463 892.274 Q50.3075 892.274 53.9996 889.632 Q57.6599 886.958 57.6599 882.311 Q57.6599 877.664 53.9996 875.023 Q50.3075 872.349 43.8463 872.349 M31.4013 892.274 Q28.2185 890.428 26.6907 887.627 Q25.1311 884.794 25.1311 880.879 Q25.1311 874.386 30.2873 870.344 Q35.4436 866.27 43.8463 866.27 Q52.249 866.27 57.4052 870.344 Q62.5615 874.386 62.5615 880.879 Q62.5615 884.794 61.0337 887.627 Q59.4741 890.428 56.2912 892.274 L61.6384 892.274 L61.6384 898.162 L12.1132 898.162 L12.1132 892.274 L31.4013 892.274 Z" fill="#000000" fill-rule="nonzero" fill-opacity="1" /><path clip-path="url(#clip170)" d="M43.719 840.361 Q43.719 847.459 45.3422 850.196 Q46.9655 852.934 50.8804 852.934 Q53.9996 852.934 55.8457 850.897 Q57.6599 848.828 57.6599 845.295 Q57.6599 840.425 54.2224 837.497 Q50.7531 834.537 45.0239 834.537 L43.719 834.537 L43.719 840.361 M41.3 828.68 L61.6384 828.68 L61.6384 834.537 L56.2276 834.537 Q59.4741 836.542 61.0337 839.534 Q62.5615 842.526 62.5615 846.854 Q62.5615 852.329 59.5059 855.575 Q56.4186 858.79 51.2623 858.79 Q45.2467 858.79 42.1912 854.78 Q39.1357 850.737 39.1357 842.748 L39.1357 834.537 L38.5628 834.537 Q34.5205 834.537 32.3244 837.21 Q30.0964 839.852 30.0964 844.658 Q30.0964 847.714 30.8284 850.61 Q31.5605 853.507 33.0246 856.18 L27.6137 856.18 Q26.3724 852.965 25.7677 849.942 Q25.1311 846.918 25.1311 844.053 Q25.1311 836.319 29.1415 832.5 Q33.1519 828.68 41.3 828.68 Z" fill="#000000" fill-rule="nonzero" fill-opacity="1" /><path clip-path="url(#clip170)" d="M43.8463 791.027 Q37.3851 791.027 33.7248 793.701 Q30.0327 796.342 30.0327 800.989 Q30.0327 805.636 33.7248 808.31 Q37.3851 810.952 43.8463 810.952 Q50.3075 810.952 53.9996 808.31 Q57.6599 805.636 57.6599 800.989 Q57.6599 796.342 53.9996 793.701 Q50.3075 791.027 43.8463 791.027 M31.4013 810.952 Q28.2185 809.106 26.6907 806.305 Q25.1311 803.472 25.1311 799.557 Q25.1311 793.064 30.2873 789.022 Q35.4436 784.948 43.8463 784.948 Q52.249 784.948 57.4052 789.022 Q62.5615 793.064 62.5615 799.557 Q62.5615 803.472 61.0337 806.305 Q59.4741 809.106 56.2912 810.952 L61.6384 810.952 L61.6384 816.84 L12.1132 816.84 L12.1132 810.952 L31.4013 810.952 Z" fill="#000000" fill-rule="nonzero" fill-opacity="1" /><path clip-path="url(#clip170)" d="M25.9905 775.24 L25.9905 769.384 L61.6384 769.384 L61.6384 775.24 L25.9905 775.24 M12.1132 775.24 L12.1132 769.384 L19.5293 769.384 L19.5293 775.24 L12.1132 775.24 Z" fill="#000000" fill-rule="nonzero" fill-opacity="1" /><path clip-path="url(#clip170)" d="M12.1132 757.13 L12.1132 751.273 L61.6384 751.273 L61.6384 757.13 L12.1132 757.13 Z" fill="#000000" fill-rule="nonzero" fill-opacity="1" /><path clip-path="url(#clip170)" d="M25.9905 739.019 L25.9905 733.163 L61.6384 733.163 L61.6384 739.019 L25.9905 739.019 M12.1132 739.019 L12.1132 733.163 L19.5293 733.163 L19.5293 739.019 L12.1132 739.019 Z" fill="#000000" fill-rule="nonzero" fill-opacity="1" /><path clip-path="url(#clip170)" d="M15.869 715.116 L25.9905 715.116 L25.9905 703.053 L30.542 703.053 L30.542 715.116 L49.8937 715.116 Q54.2542 715.116 55.4955 713.938 Q56.7368 712.729 56.7368 709.069 L56.7368 703.053 L61.6384 703.053 L61.6384 709.069 Q61.6384 715.848 59.124 718.426 Q56.5777 721.004 49.8937 721.004 L30.542 721.004 L30.542 725.301 L25.9905 725.301 L25.9905 721.004 L15.869 721.004 L15.869 715.116 Z" fill="#000000" fill-rule="nonzero" fill-opacity="1" /><path clip-path="url(#clip170)" d="M64.9486 680.518 Q71.3143 683.001 73.2559 685.356 Q75.1974 687.712 75.1974 691.658 L75.1974 696.337 L70.2958 696.337 L70.2958 692.9 Q70.2958 690.481 69.15 689.144 Q68.0041 687.807 63.7391 686.184 L61.0655 685.134 L25.9905 699.552 L25.9905 693.345 L53.8723 682.205 L25.9905 671.065 L25.9905 664.859 L64.9486 680.518 Z" fill="#000000" fill-rule="nonzero" fill-opacity="1" /><path clip-path="url(#clip170)" d="M1110.25 18.8205 L1110.25 41.5461 L1120.54 41.5461 Q1126.25 41.5461 1129.37 38.5889 Q1132.49 35.6318 1132.49 30.163 Q1132.49 24.7348 1129.37 21.7777 Q1126.25 18.8205 1120.54 18.8205 L1110.25 18.8205 M1102.06 12.096 L1120.54 12.096 Q1130.7 12.096 1135.89 16.714 Q1141.11 21.2916 1141.11 30.163 Q1141.11 39.1155 1135.89 43.6931 Q1130.7 48.2706 1120.54 48.2706 L1110.25 48.2706 L1110.25 72.576 L1102.06 72.576 L1102.06 12.096 Z" fill="#000000" fill-rule="nonzero" fill-opacity="1" /><path clip-path="url(#clip170)" d="M1176.6 34.1734 Q1175.34 33.4443 1173.85 33.1202 Q1172.39 32.7556 1170.61 32.7556 Q1164.29 32.7556 1160.88 36.8875 Q1157.52 40.9789 1157.52 48.6757 L1157.52 72.576 L1150.03 72.576 L1150.03 27.2059 L1157.52 27.2059 L1157.52 34.2544 Q1159.87 30.1225 1163.64 28.1376 Q1167.41 26.1121 1172.79 26.1121 Q1173.56 26.1121 1174.49 26.2337 Q1175.43 26.3147 1176.56 26.5172 L1176.6 34.1734 Z" fill="#000000" fill-rule="nonzero" fill-opacity="1" /><path clip-path="url(#clip170)" d="M1200.18 32.4315 Q1194.18 32.4315 1190.7 37.1306 Q1187.21 41.7891 1187.21 49.9314 Q1187.21 58.0738 1190.66 62.7728 Q1194.14 67.4314 1200.18 67.4314 Q1206.13 67.4314 1209.62 62.7323 Q1213.1 58.0333 1213.1 49.9314 Q1213.1 41.8701 1209.62 37.1711 Q1206.13 32.4315 1200.18 32.4315 M1200.18 26.1121 Q1209.9 26.1121 1215.45 32.4315 Q1221 38.7509 1221 49.9314 Q1221 61.0714 1215.45 67.4314 Q1209.9 73.7508 1200.18 73.7508 Q1190.41 73.7508 1184.86 67.4314 Q1179.36 61.0714 1179.36 49.9314 Q1179.36 38.7509 1184.86 32.4315 Q1190.41 26.1121 1200.18 26.1121 Z" fill="#000000" fill-rule="nonzero" fill-opacity="1" /><path clip-path="url(#clip170)" d="M1263.21 49.3643 Q1263.21 41.2625 1259.85 36.8065 Q1256.52 32.3505 1250.49 32.3505 Q1244.49 32.3505 1241.13 36.8065 Q1237.81 41.2625 1237.81 49.3643 Q1237.81 57.4256 1241.13 61.8816 Q1244.49 66.3376 1250.49 66.3376 Q1256.52 66.3376 1259.85 61.8816 Q1263.21 57.4256 1263.21 49.3643 M1270.66 66.9452 Q1270.66 78.5308 1265.52 84.1616 Q1260.37 89.8329 1249.76 89.8329 Q1245.83 89.8329 1242.35 89.2252 Q1238.86 88.6581 1235.58 87.4428 L1235.58 80.1917 Q1238.86 81.9741 1242.06 82.8248 Q1245.26 83.6755 1248.59 83.6755 Q1255.92 83.6755 1259.56 79.8271 Q1263.21 76.0193 1263.21 68.282 L1263.21 64.5957 Q1260.9 68.6061 1257.29 70.5911 Q1253.69 72.576 1248.67 72.576 Q1240.32 72.576 1235.22 66.2161 Q1230.11 59.8562 1230.11 49.3643 Q1230.11 38.832 1235.22 32.472 Q1240.32 26.1121 1248.67 26.1121 Q1253.69 26.1121 1257.29 28.0971 Q1260.9 30.082 1263.21 34.0924 L1263.21 27.2059 L1270.66 27.2059 L1270.66 66.9452 Z" fill="#000000" fill-rule="nonzero" fill-opacity="1" /><path clip-path="url(#clip170)" d="M1312.31 34.1734 Q1311.05 33.4443 1309.55 33.1202 Q1308.09 32.7556 1306.31 32.7556 Q1299.99 32.7556 1296.59 36.8875 Q1293.23 40.9789 1293.23 48.6757 L1293.23 72.576 L1285.73 72.576 L1285.73 27.2059 L1293.23 27.2059 L1293.23 34.2544 Q1295.58 30.1225 1299.34 28.1376 Q1303.11 26.1121 1308.5 26.1121 Q1309.27 26.1121 1310.2 26.2337 Q1311.13 26.3147 1312.27 26.5172 L1312.31 34.1734 Z" fill="#000000" fill-rule="nonzero" fill-opacity="1" /><path clip-path="url(#clip170)" d="M1357.11 48.0275 L1357.11 51.6733 L1322.84 51.6733 Q1323.32 59.3701 1327.46 63.421 Q1331.63 67.4314 1339.04 67.4314 Q1343.34 67.4314 1347.35 66.3781 Q1351.4 65.3249 1355.37 63.2184 L1355.37 70.267 Q1351.36 71.9684 1347.14 72.8596 Q1342.93 73.7508 1338.6 73.7508 Q1327.74 73.7508 1321.38 67.4314 Q1315.06 61.1119 1315.06 50.3365 Q1315.06 39.1965 1321.06 32.6746 Q1327.09 26.1121 1337.3 26.1121 Q1346.46 26.1121 1351.76 32.0264 Q1357.11 37.9003 1357.11 48.0275 M1349.66 45.84 Q1349.57 39.7232 1346.21 36.0774 Q1342.89 32.4315 1337.38 32.4315 Q1331.14 32.4315 1327.38 35.9558 Q1323.65 39.4801 1323.08 45.8805 L1349.66 45.84 Z" fill="#000000" fill-rule="nonzero" fill-opacity="1" /><path clip-path="url(#clip170)" d="M1398.27 28.5427 L1398.27 35.5912 Q1395.11 33.9709 1391.7 33.1607 Q1388.3 32.3505 1384.66 32.3505 Q1379.11 32.3505 1376.31 34.0519 Q1373.56 35.7533 1373.56 39.156 Q1373.56 41.7486 1375.54 43.2475 Q1377.53 44.7058 1383.52 46.0426 L1386.07 46.6097 Q1394.01 48.3111 1397.33 51.4303 Q1400.7 54.509 1400.7 60.0587 Q1400.7 66.3781 1395.67 70.0644 Q1390.69 73.7508 1381.94 73.7508 Q1378.3 73.7508 1374.33 73.0216 Q1370.4 72.3329 1366.02 70.9151 L1366.02 63.2184 Q1370.15 65.3654 1374.16 66.4591 Q1378.17 67.5124 1382.1 67.5124 Q1387.37 67.5124 1390.2 65.73 Q1393.04 63.9071 1393.04 60.6258 Q1393.04 57.5877 1390.97 55.9673 Q1388.95 54.3469 1382.02 52.8481 L1379.43 52.2405 Q1372.5 50.7821 1369.42 47.7845 Q1366.35 44.7463 1366.35 39.4801 Q1366.35 33.0797 1370.88 29.5959 Q1375.42 26.1121 1383.76 26.1121 Q1387.9 26.1121 1391.54 26.7198 Q1395.19 27.3274 1398.27 28.5427 Z" fill="#000000" fill-rule="nonzero" fill-opacity="1" /><path clip-path="url(#clip170)" d="M1441.49 28.5427 L1441.49 35.5912 Q1438.33 33.9709 1434.93 33.1607 Q1431.52 32.3505 1427.88 32.3505 Q1422.33 32.3505 1419.53 34.0519 Q1416.78 35.7533 1416.78 39.156 Q1416.78 41.7486 1418.76 43.2475 Q1420.75 44.7058 1426.74 46.0426 L1429.3 46.6097 Q1437.24 48.3111 1440.56 51.4303 Q1443.92 54.509 1443.92 60.0587 Q1443.92 66.3781 1438.9 70.0644 Q1433.91 73.7508 1425.16 73.7508 Q1421.52 73.7508 1417.55 73.0216 Q1413.62 72.3329 1409.24 70.9151 L1409.24 63.2184 Q1413.38 65.3654 1417.39 66.4591 Q1421.4 67.5124 1425.33 67.5124 Q1430.59 67.5124 1433.43 65.73 Q1436.26 63.9071 1436.26 60.6258 Q1436.26 57.5877 1434.2 55.9673 Q1432.17 54.3469 1425.25 52.8481 L1422.65 52.2405 Q1415.73 50.7821 1412.65 47.7845 Q1409.57 44.7463 1409.57 39.4801 Q1409.57 33.0797 1414.11 29.5959 Q1418.64 26.1121 1426.99 26.1121 Q1431.12 26.1121 1434.76 26.7198 Q1438.41 27.3274 1441.49 28.5427 Z" fill="#000000" fill-rule="nonzero" fill-opacity="1" /><path clip-path="url(#clip170)" d="M1455.79 27.2059 L1463.24 27.2059 L1463.24 72.576 L1455.79 72.576 L1455.79 27.2059 M1455.79 9.54393 L1463.24 9.54393 L1463.24 18.9825 L1455.79 18.9825 L1455.79 9.54393 Z" fill="#000000" fill-rule="nonzero" fill-opacity="1" /><path clip-path="url(#clip170)" d="M1496.42 32.4315 Q1490.42 32.4315 1486.94 37.1306 Q1483.46 41.7891 1483.46 49.9314 Q1483.46 58.0738 1486.9 62.7728 Q1490.38 67.4314 1496.42 67.4314 Q1502.37 67.4314 1505.86 62.7323 Q1509.34 58.0333 1509.34 49.9314 Q1509.34 41.8701 1505.86 37.1711 Q1502.37 32.4315 1496.42 32.4315 M1496.42 26.1121 Q1506.14 26.1121 1511.69 32.4315 Q1517.24 38.7509 1517.24 49.9314 Q1517.24 61.0714 1511.69 67.4314 Q1506.14 73.7508 1496.42 73.7508 Q1486.66 73.7508 1481.11 67.4314 Q1475.6 61.0714 1475.6 49.9314 Q1475.6 38.7509 1481.11 32.4315 Q1486.66 26.1121 1496.42 26.1121 Z" fill="#000000" fill-rule="nonzero" fill-opacity="1" /><path clip-path="url(#clip170)" d="M1567.31 45.1919 L1567.31 72.576 L1559.86 72.576 L1559.86 45.4349 Q1559.86 38.994 1557.35 35.7938 Q1554.83 32.5936 1549.81 32.5936 Q1543.77 32.5936 1540.29 36.4419 Q1536.81 40.2903 1536.81 46.9338 L1536.81 72.576 L1529.31 72.576 L1529.31 27.2059 L1536.81 27.2059 L1536.81 34.2544 Q1539.48 30.163 1543.09 28.1376 Q1546.73 26.1121 1551.47 26.1121 Q1559.29 26.1121 1563.3 30.9732 Q1567.31 35.7938 1567.31 45.1919 Z" fill="#000000" fill-rule="nonzero" fill-opacity="1" /><path clip-path="url(#clip170)" d="M1634.84 34.1734 Q1633.58 33.4443 1632.08 33.1202 Q1630.63 32.7556 1628.84 32.7556 Q1622.52 32.7556 1619.12 36.8875 Q1615.76 40.9789 1615.76 48.6757 L1615.76 72.576 L1608.27 72.576 L1608.27 27.2059 L1615.76 27.2059 L1615.76 34.2544 Q1618.11 30.1225 1621.88 28.1376 Q1625.64 26.1121 1631.03 26.1121 Q1631.8 26.1121 1632.73 26.2337 Q1633.66 26.3147 1634.8 26.5172 L1634.84 34.1734 Z" fill="#000000" fill-rule="nonzero" fill-opacity="1" /><path clip-path="url(#clip170)" d="M1663.28 49.7694 Q1654.24 49.7694 1650.76 51.8354 Q1647.28 53.9013 1647.28 58.8839 Q1647.28 62.8538 1649.87 65.2034 Q1652.5 67.5124 1657 67.5124 Q1663.2 67.5124 1666.92 63.1374 Q1670.69 58.7219 1670.69 51.4303 L1670.69 49.7694 L1663.28 49.7694 M1678.14 46.6907 L1678.14 72.576 L1670.69 72.576 L1670.69 65.6895 Q1668.14 69.8214 1664.33 71.8063 Q1660.52 73.7508 1655.01 73.7508 Q1648.04 73.7508 1643.91 69.8619 Q1639.82 65.9325 1639.82 59.3701 Q1639.82 51.7138 1644.93 47.825 Q1650.07 43.9361 1660.24 43.9361 L1670.69 43.9361 L1670.69 43.2069 Q1670.69 38.0623 1667.29 35.2672 Q1663.92 32.4315 1657.81 32.4315 Q1653.92 32.4315 1650.23 33.3632 Q1646.55 34.295 1643.14 36.1584 L1643.14 29.2718 Q1647.23 27.692 1651.08 26.9223 Q1654.93 26.1121 1658.58 26.1121 Q1668.42 26.1121 1673.28 31.2163 Q1678.14 36.3204 1678.14 46.6907 Z" fill="#000000" fill-rule="nonzero" fill-opacity="1" /><path clip-path="url(#clip170)" d="M1700.87 14.324 L1700.87 27.2059 L1716.22 27.2059 L1716.22 32.9987 L1700.87 32.9987 L1700.87 57.6282 Q1700.87 63.1779 1702.37 64.7578 Q1703.91 66.3376 1708.57 66.3376 L1716.22 66.3376 L1716.22 72.576 L1708.57 72.576 Q1699.94 72.576 1696.66 69.3758 Q1693.37 66.1351 1693.37 57.6282 L1693.37 32.9987 L1687.91 32.9987 L1687.91 27.2059 L1693.37 27.2059 L1693.37 14.324 L1700.87 14.324 Z" fill="#000000" fill-rule="nonzero" fill-opacity="1" /><path clip-path="url(#clip170)" d="M1764.83 48.0275 L1764.83 51.6733 L1730.56 51.6733 Q1731.05 59.3701 1735.18 63.421 Q1739.35 67.4314 1746.77 67.4314 Q1751.06 67.4314 1755.07 66.3781 Q1759.12 65.3249 1763.09 63.2184 L1763.09 70.267 Q1759.08 71.9684 1754.87 72.8596 Q1750.65 73.7508 1746.32 73.7508 Q1735.46 73.7508 1729.1 67.4314 Q1722.78 61.1119 1722.78 50.3365 Q1722.78 39.1965 1728.78 32.6746 Q1734.82 26.1121 1745.02 26.1121 Q1754.18 26.1121 1759.49 32.0264 Q1764.83 37.9003 1764.83 48.0275 M1757.38 45.84 Q1757.3 39.7232 1753.94 36.0774 Q1750.61 32.4315 1745.1 32.4315 Q1738.87 32.4315 1735.1 35.9558 Q1731.37 39.4801 1730.8 45.8805 L1757.38 45.84 Z" fill="#000000" fill-rule="nonzero" fill-opacity="1" /><path clip-path="url(#clip171)" d="M358.949 1800.78 L358.949 1800.78 L717.115 1800.78 L717.115 1800.78 L358.949 1800.78 L358.949 1800.78  Z" fill="#228b22" fill-rule="evenodd" fill-opacity="0.7"/>
<polyline clip-path="url(#clip171)" style="stroke:#000000; stroke-linecap:round; stroke-linejoin:round; stroke-width:4; stroke-opacity:0.7; fill:none" points="358.949,1800.78 358.949,1800.78 717.115,1800.78 358.949,1800.78 "/>
<path clip-path="url(#clip171)" d="M806.657 1800.78 L806.657 1800.78 L1164.82 1800.78 L1164.82 1800.78 L806.657 1800.78 L806.657 1800.78  Z" fill="#228b22" fill-rule="evenodd" fill-opacity="0.7"/>
<polyline clip-path="url(#clip171)" style="stroke:#000000; stroke-linecap:round; stroke-linejoin:round; stroke-width:4; stroke-opacity:0.7; fill:none" points="806.657,1800.78 806.657,1800.78 1164.82,1800.78 806.657,1800.78 "/>
<path clip-path="url(#clip171)" d="M1254.36 1800.78 L1254.36 1800.78 L1612.53 1800.78 L1612.53 1800.78 L1254.36 1800.78 L1254.36 1800.78  Z" fill="#228b22" fill-rule="evenodd" fill-opacity="0.7"/>
<polyline clip-path="url(#clip171)" style="stroke:#000000; stroke-linecap:round; stroke-linejoin:round; stroke-width:4; stroke-opacity:0.7; fill:none" points="1254.36,1800.78 1254.36,1800.78 1612.53,1800.78 1254.36,1800.78 "/>
<path clip-path="url(#clip171)" d="M1702.07 1702.37 L1702.07 1800.78 L2060.24 1800.78 L2060.24 1702.37 L1702.07 1702.37 L1702.07 1702.37  Z" fill="#228b22" fill-rule="evenodd" fill-opacity="0.7"/>
<polyline clip-path="url(#clip171)" style="stroke:#000000; stroke-linecap:round; stroke-linejoin:round; stroke-width:4; stroke-opacity:0.7; fill:none" points="1702.07,1702.37 1702.07,1800.78 2060.24,1800.78 2060.24,1702.37 1702.07,1702.37 "/>
<path clip-path="url(#clip171)" d="M2149.78 1561.78 L2149.78 1800.78 L2507.95 1800.78 L2507.95 1561.78 L2149.78 1561.78 L2149.78 1561.78  Z" fill="#228b22" fill-rule="evenodd" fill-opacity="0.7"/>
<polyline clip-path="url(#clip171)" style="stroke:#000000; stroke-linecap:round; stroke-linejoin:round; stroke-width:4; stroke-opacity:0.7; fill:none" points="2149.78,1561.78 2149.78,1800.78 2507.95,1800.78 2507.95,1561.78 2149.78,1561.78 "/>
<circle clip-path="url(#clip171)" style="fill:#228b22; stroke:none; fill-opacity:0" cx="538.032" cy="1800.78" r="2"/>
<circle clip-path="url(#clip171)" style="fill:#228b22; stroke:none; fill-opacity:0" cx="985.74" cy="1800.78" r="2"/>
<circle clip-path="url(#clip171)" style="fill:#228b22; stroke:none; fill-opacity:0" cx="1433.45" cy="1800.78" r="2"/>
<circle clip-path="url(#clip171)" style="fill:#228b22; stroke:none; fill-opacity:0" cx="1881.16" cy="1702.37" r="2"/>
<circle clip-path="url(#clip171)" style="fill:#228b22; stroke:none; fill-opacity:0" cx="2328.86" cy="1561.78" r="2"/>
</svg>
