<?xml version="1.0" encoding="utf-8"?>
<svg xmlns="http://www.w3.org/2000/svg" xmlns:xlink="http://www.w3.org/1999/xlink" width="672" height="480" viewBox="0 0 2688 1920">
<defs>
  <clipPath id="clip200">
    <rect x="0" y="0" width="2688" height="1920"/>
  </clipPath>
</defs>
<path clip-path="url(#clip200)" d="M0 1920 L2688 1920 L2688 -4.26326e-14 L0 -4.26326e-14  Z" fill="#ffffff" fill-rule="evenodd" fill-opacity="1"/>
<defs>
  <clipPath id="clip201">
    <rect x="226" y="127" width="2416" height="1674"/>
  </clipPath>
</defs>
<path clip-path="url(#clip200)" d="M226.141 1800.78 L2640.76 1800.78 L2640.76 127.792 L226.141 127.792  Z" fill="#ffffff" fill-rule="evenodd" fill-opacity="1"/>
<polyline clip-path="url(#clip201)" style="stroke:#000000; stroke-linecap:round; stroke-linejoin:round; stroke-width:2; stroke-opacity:0.1; fill:none" points="538.032,1800.78 538.032,127.792 "/>
<polyline clip-path="url(#clip201)" style="stroke:#000000; stroke-linecap:round; stroke-linejoin:round; stroke-width:2; stroke-opacity:0.1; fill:none" points="985.74,1800.78 985.74,127.792 "/>
<polyline clip-path="url(#clip201)" style="stroke:#000000; stroke-linecap:round; stroke-linejoin:round; stroke-width:2; stroke-opacity:0.1; fill:none" points="1433.45,1800.78 1433.45,127.792 "/>
<polyline clip-path="url(#clip201)" style="stroke:#000000; stroke-linecap:round; stroke-linejoin:round; stroke-width:2; stroke-opacity:0.1; fill:none" points="1881.16,1800.78 1881.16,127.792 "/>
<polyline clip-path="url(#clip201)" style="stroke:#000000; stroke-linecap:round; stroke-linejoin:round; stroke-width:2; stroke-opacity:0.1; fill:none" points="2328.86,1800.78 2328.86,127.792 "/>
<polyline clip-path="url(#clip201)" style="stroke:#000000; stroke-linecap:round; stroke-linejoin:round; stroke-width:2; stroke-opacity:0.1; fill:none" points="226.141,1800.78 2640.76,1800.78 "/>
<polyline clip-path="url(#clip201)" style="stroke:#000000; stroke-linecap:round; stroke-linejoin:round; stroke-width:2; stroke-opacity:0.1; fill:none" points="226.141,1466.18 2640.76,1466.18 "/>
<polyline clip-path="url(#clip201)" style="stroke:#000000; stroke-linecap:round; stroke-linejoin:round; stroke-width:2; stroke-opacity:0.1; fill:none" points="226.141,1131.58 2640.76,1131.58 "/>
<polyline clip-path="url(#clip201)" style="stroke:#000000; stroke-linecap:round; stroke-linejoin:round; stroke-width:2; stroke-opacity:0.1; fill:none" points="226.141,796.987 2640.76,796.987 "/>
<polyline clip-path="url(#clip201)" style="stroke:#000000; stroke-linecap:round; stroke-linejoin:round; stroke-width:2; stroke-opacity:0.1; fill:none" points="226.141,462.39 2640.76,462.39 "/>
<polyline clip-path="url(#clip201)" style="stroke:#000000; stroke-linecap:round; stroke-linejoin:round; stroke-width:2; stroke-opacity:0.1; fill:none" points="226.141,127.792 2640.76,127.792 "/>
<polyline clip-path="url(#clip200)" style="stroke:#000000; stroke-linecap:round; stroke-linejoin:round; stroke-width:4; stroke-opacity:1; fill:none" points="226.141,1800.78 2640.76,1800.78 "/>
<polyline clip-path="url(#clip200)" style="stroke:#000000; stroke-linecap:round; stroke-linejoin:round; stroke-width:4; stroke-opacity:1; fill:none" points="538.032,1800.78 538.032,1781.88 "/>
<polyline clip-path="url(#clip200)" style="stroke:#000000; stroke-linecap:round; stroke-linejoin:round; stroke-width:4; stroke-opacity:1; fill:none" points="985.74,1800.78 985.74,1781.88 "/>
<polyline clip-path="url(#clip200)" style="stroke:#000000; stroke-linecap:round; stroke-linejoin:round; stroke-width:4; stroke-opacity:1; fill:none" points="1433.45,1800.78 1433.45,1781.88 "/>
<polyline clip-path="url(#clip200)" style="stroke:#000000; stroke-linecap:round; stroke-linejoin:round; stroke-width:4; stroke-opacity:1; fill:none" points="1881.16,1800.78 1881.16,1781.88 "/>
<polyline clip-path="url(#clip200)" style="stroke:#000000; stroke-linecap:round; stroke-linejoin:round; stroke-width:4; stroke-opacity:1; fill:none" points="2328.86,1800.78 2328.86,1781.88 "/>
<path clip-path="url(#clip200)" d="M431.077 1840.32 L431.077 1844.35 Q429.271 1843.42 427.327 1842.96 Q425.382 1842.5 423.299 1842.5 Q420.127 1842.5 418.53 1843.47 Q416.956 1844.44 416.956 1846.39 Q416.956 1847.87 418.09 1848.72 Q419.225 1849.56 422.651 1850.32 L424.109 1850.65 Q428.646 1851.62 430.544 1853.4 Q432.465 1855.16 432.465 1858.33 Q432.465 1861.94 429.595 1864.05 Q426.748 1866.15 421.748 1866.15 Q419.665 1866.15 417.396 1865.74 Q415.151 1865.34 412.651 1864.53 L412.651 1860.14 Q415.012 1861.36 417.303 1861.99 Q419.595 1862.59 421.84 1862.59 Q424.85 1862.59 426.47 1861.57 Q428.09 1860.53 428.09 1858.65 Q428.09 1856.92 426.91 1855.99 Q425.752 1855.07 421.794 1854.21 L420.313 1853.86 Q416.354 1853.03 414.595 1851.32 Q412.836 1849.58 412.836 1846.57 Q412.836 1842.91 415.428 1840.92 Q418.021 1838.93 422.79 1838.93 Q425.151 1838.93 427.234 1839.28 Q429.317 1839.63 431.077 1840.32 Z" fill="#000000" fill-rule="nonzero" fill-opacity="1" /><path clip-path="url(#clip200)" d="M461.424 1851.46 L461.424 1853.54 L441.84 1853.54 Q442.118 1857.94 444.479 1860.25 Q446.863 1862.54 451.1 1862.54 Q453.553 1862.54 455.845 1861.94 Q458.16 1861.34 460.428 1860.14 L460.428 1864.16 Q458.137 1865.14 455.729 1865.65 Q453.322 1866.15 450.845 1866.15 Q444.641 1866.15 441.007 1862.54 Q437.396 1858.93 437.396 1852.78 Q437.396 1846.41 440.822 1842.68 Q444.271 1838.93 450.104 1838.93 Q455.336 1838.93 458.368 1842.31 Q461.424 1845.67 461.424 1851.46 M457.164 1850.21 Q457.118 1846.71 455.197 1844.63 Q453.299 1842.54 450.15 1842.54 Q446.586 1842.54 444.433 1844.56 Q442.303 1846.57 441.979 1850.23 L457.164 1850.21 Z" fill="#000000" fill-rule="nonzero" fill-opacity="1" /><path clip-path="url(#clip200)" d="M490.59 1851.46 L490.59 1853.54 L471.007 1853.54 Q471.285 1857.94 473.646 1860.25 Q476.03 1862.54 480.266 1862.54 Q482.72 1862.54 485.011 1861.94 Q487.326 1861.34 489.595 1860.14 L489.595 1864.16 Q487.303 1865.14 484.896 1865.65 Q482.488 1866.15 480.011 1866.15 Q473.808 1866.15 470.174 1862.54 Q466.562 1858.93 466.562 1852.78 Q466.562 1846.41 469.988 1842.68 Q473.437 1838.93 479.271 1838.93 Q484.502 1838.93 487.535 1842.31 Q490.59 1845.67 490.59 1851.46 M486.331 1850.21 Q486.285 1846.71 484.363 1844.63 Q482.465 1842.54 479.317 1842.54 Q475.752 1842.54 473.599 1844.56 Q471.47 1846.57 471.146 1850.23 L486.331 1850.21 Z" fill="#000000" fill-rule="nonzero" fill-opacity="1" /><path clip-path="url(#clip200)" d="M514.641 1843.49 L514.641 1829.46 L518.9 1829.46 L518.9 1865.48 L514.641 1865.48 L514.641 1861.59 Q513.298 1863.91 511.238 1865.04 Q509.201 1866.15 506.331 1866.15 Q501.632 1866.15 498.669 1862.4 Q495.729 1858.65 495.729 1852.54 Q495.729 1846.43 498.669 1842.68 Q501.632 1838.93 506.331 1838.93 Q509.201 1838.93 511.238 1840.07 Q513.298 1841.18 514.641 1843.49 M500.127 1852.54 Q500.127 1857.24 502.048 1859.93 Q503.993 1862.59 507.372 1862.59 Q510.752 1862.59 512.696 1859.93 Q514.641 1857.24 514.641 1852.54 Q514.641 1847.84 512.696 1845.18 Q510.752 1842.5 507.372 1842.5 Q503.993 1842.5 502.048 1845.18 Q500.127 1847.84 500.127 1852.54 Z" fill="#000000" fill-rule="nonzero" fill-opacity="1" /><path clip-path="url(#clip200)" d="M547.372 1873.35 L547.372 1876.66 L522.743 1876.66 L522.743 1873.35 L547.372 1873.35 Z" fill="#000000" fill-rule="nonzero" fill-opacity="1" /><path clip-path="url(#clip200)" d="M569.988 1852.54 Q569.988 1847.84 568.043 1845.18 Q566.122 1842.5 562.742 1842.5 Q559.363 1842.5 557.418 1845.18 Q555.497 1847.84 555.497 1852.54 Q555.497 1857.24 557.418 1859.93 Q559.363 1862.59 562.742 1862.59 Q566.122 1862.59 568.043 1859.93 Q569.988 1857.24 569.988 1852.54 M555.497 1843.49 Q556.84 1841.18 558.877 1840.07 Q560.937 1838.93 563.784 1838.93 Q568.506 1838.93 571.446 1842.68 Q574.409 1846.43 574.409 1852.54 Q574.409 1858.65 571.446 1862.4 Q568.506 1866.15 563.784 1866.15 Q560.937 1866.15 558.877 1865.04 Q556.84 1863.91 555.497 1861.59 L555.497 1865.48 L551.215 1865.48 L551.215 1829.46 L555.497 1829.46 L555.497 1843.49 Z" fill="#000000" fill-rule="nonzero" fill-opacity="1" /><path clip-path="url(#clip200)" d="M593.252 1852.45 Q588.09 1852.45 586.099 1853.63 Q584.108 1854.81 584.108 1857.66 Q584.108 1859.93 585.59 1861.27 Q587.094 1862.59 589.664 1862.59 Q593.205 1862.59 595.335 1860.09 Q597.488 1857.57 597.488 1853.4 L597.488 1852.45 L593.252 1852.45 M601.747 1850.69 L601.747 1865.48 L597.488 1865.48 L597.488 1861.55 Q596.029 1863.91 593.853 1865.04 Q591.677 1866.15 588.529 1866.15 Q584.548 1866.15 582.187 1863.93 Q579.849 1861.69 579.849 1857.94 Q579.849 1853.56 582.766 1851.34 Q585.705 1849.12 591.515 1849.12 L597.488 1849.12 L597.488 1848.7 Q597.488 1845.76 595.543 1844.16 Q593.622 1842.54 590.127 1842.54 Q587.904 1842.54 585.798 1843.08 Q583.691 1843.61 581.747 1844.67 L581.747 1840.74 Q584.085 1839.84 586.284 1839.4 Q588.483 1838.93 590.566 1838.93 Q596.191 1838.93 598.969 1841.85 Q601.747 1844.77 601.747 1850.69 Z" fill="#000000" fill-rule="nonzero" fill-opacity="1" /><path clip-path="url(#clip200)" d="M632.071 1849.84 L632.071 1865.48 L627.812 1865.48 L627.812 1849.97 Q627.812 1846.29 626.376 1844.46 Q624.941 1842.64 622.071 1842.64 Q618.622 1842.64 616.631 1844.84 Q614.64 1847.03 614.64 1850.83 L614.64 1865.48 L610.358 1865.48 L610.358 1839.56 L614.64 1839.56 L614.64 1843.59 Q616.168 1841.25 618.228 1840.09 Q620.312 1838.93 623.02 1838.93 Q627.487 1838.93 629.779 1841.71 Q632.071 1844.46 632.071 1849.84 Z" fill="#000000" fill-rule="nonzero" fill-opacity="1" /><path clip-path="url(#clip200)" d="M640.404 1829.46 L644.686 1829.46 L644.686 1850.74 L657.395 1839.56 L662.835 1839.56 L649.085 1851.69 L663.413 1865.48 L657.858 1865.48 L644.686 1852.82 L644.686 1865.48 L640.404 1865.48 L640.404 1829.46 Z" fill="#000000" fill-rule="nonzero" fill-opacity="1" /><path clip-path="url(#clip200)" d="M907.801 1840.32 L907.801 1844.35 Q905.995 1843.42 904.051 1842.96 Q902.106 1842.5 900.023 1842.5 Q896.852 1842.5 895.254 1843.47 Q893.68 1844.44 893.68 1846.39 Q893.68 1847.87 894.815 1848.72 Q895.949 1849.56 899.375 1850.32 L900.833 1850.65 Q905.37 1851.62 907.268 1853.4 Q909.19 1855.16 909.19 1858.33 Q909.19 1861.94 906.319 1864.05 Q903.472 1866.15 898.472 1866.15 Q896.389 1866.15 894.12 1865.74 Q891.875 1865.34 889.375 1864.53 L889.375 1860.14 Q891.736 1861.36 894.028 1861.99 Q896.319 1862.59 898.565 1862.59 Q901.574 1862.59 903.194 1861.57 Q904.815 1860.53 904.815 1858.65 Q904.815 1856.92 903.634 1855.99 Q902.477 1855.07 898.518 1854.21 L897.037 1853.86 Q893.079 1853.03 891.319 1851.32 Q889.56 1849.58 889.56 1846.57 Q889.56 1842.91 892.153 1840.92 Q894.745 1838.93 899.514 1838.93 Q901.875 1838.93 903.958 1839.28 Q906.041 1839.63 907.801 1840.32 Z" fill="#000000" fill-rule="nonzero" fill-opacity="1" /><path clip-path="url(#clip200)" d="M938.148 1851.46 L938.148 1853.54 L918.565 1853.54 Q918.842 1857.94 921.203 1860.25 Q923.588 1862.54 927.824 1862.54 Q930.277 1862.54 932.569 1861.94 Q934.884 1861.34 937.152 1860.14 L937.152 1864.16 Q934.861 1865.14 932.453 1865.65 Q930.046 1866.15 927.569 1866.15 Q921.365 1866.15 917.731 1862.54 Q914.12 1858.93 914.12 1852.78 Q914.12 1846.41 917.546 1842.68 Q920.995 1838.93 926.828 1838.93 Q932.06 1838.93 935.092 1842.31 Q938.148 1845.67 938.148 1851.46 M933.889 1850.21 Q933.842 1846.71 931.921 1844.63 Q930.023 1842.54 926.875 1842.54 Q923.31 1842.54 921.157 1844.56 Q919.027 1846.57 918.703 1850.23 L933.889 1850.21 Z" fill="#000000" fill-rule="nonzero" fill-opacity="1" /><path clip-path="url(#clip200)" d="M967.314 1851.46 L967.314 1853.54 L947.731 1853.54 Q948.009 1857.94 950.37 1860.25 Q952.754 1862.54 956.99 1862.54 Q959.444 1862.54 961.736 1861.94 Q964.05 1861.34 966.319 1860.14 L966.319 1864.16 Q964.027 1865.14 961.62 1865.65 Q959.212 1866.15 956.736 1866.15 Q950.532 1866.15 946.898 1862.54 Q943.287 1858.93 943.287 1852.78 Q943.287 1846.41 946.713 1842.68 Q950.162 1838.93 955.995 1838.93 Q961.226 1838.93 964.259 1842.31 Q967.314 1845.67 967.314 1851.46 M963.055 1850.21 Q963.009 1846.71 961.087 1844.63 Q959.189 1842.54 956.041 1842.54 Q952.476 1842.54 950.324 1844.56 Q948.194 1846.57 947.87 1850.23 L963.055 1850.21 Z" fill="#000000" fill-rule="nonzero" fill-opacity="1" /><path clip-path="url(#clip200)" d="M991.365 1843.49 L991.365 1829.46 L995.624 1829.46 L995.624 1865.48 L991.365 1865.48 L991.365 1861.59 Q990.022 1863.91 987.962 1865.04 Q985.925 1866.15 983.055 1866.15 Q978.356 1866.15 975.393 1862.4 Q972.453 1858.65 972.453 1852.54 Q972.453 1846.43 975.393 1842.68 Q978.356 1838.93 983.055 1838.93 Q985.925 1838.93 987.962 1840.07 Q990.022 1841.18 991.365 1843.49 M976.851 1852.54 Q976.851 1857.24 978.773 1859.93 Q980.717 1862.59 984.097 1862.59 Q987.476 1862.59 989.421 1859.93 Q991.365 1857.24 991.365 1852.54 Q991.365 1847.84 989.421 1845.18 Q987.476 1842.5 984.097 1842.5 Q980.717 1842.5 978.773 1845.18 Q976.851 1847.84 976.851 1852.54 Z" fill="#000000" fill-rule="nonzero" fill-opacity="1" /><path clip-path="url(#clip200)" d="M1004.4 1829.46 L1008.66 1829.46 L1008.66 1865.48 L1004.4 1865.48 L1004.4 1829.46 Z" fill="#000000" fill-rule="nonzero" fill-opacity="1" /><path clip-path="url(#clip200)" d="M1017.57 1839.56 L1021.83 1839.56 L1021.83 1865.48 L1017.57 1865.48 L1017.57 1839.56 M1017.57 1829.46 L1021.83 1829.46 L1021.83 1834.86 L1017.57 1834.86 L1017.57 1829.46 Z" fill="#000000" fill-rule="nonzero" fill-opacity="1" /><path clip-path="url(#clip200)" d="M1052.29 1849.84 L1052.29 1865.48 L1048.03 1865.48 L1048.03 1849.97 Q1048.03 1846.29 1046.6 1844.46 Q1045.16 1842.64 1042.29 1842.64 Q1038.84 1842.64 1036.85 1844.84 Q1034.86 1847.03 1034.86 1850.83 L1034.86 1865.48 L1030.58 1865.48 L1030.58 1839.56 L1034.86 1839.56 L1034.86 1843.59 Q1036.39 1841.25 1038.45 1840.09 Q1040.53 1838.93 1043.24 1838.93 Q1047.71 1838.93 1050 1841.71 Q1052.29 1844.46 1052.29 1849.84 Z" fill="#000000" fill-rule="nonzero" fill-opacity="1" /><path clip-path="url(#clip200)" d="M1077.85 1852.22 Q1077.85 1847.59 1075.92 1845.04 Q1074.03 1842.5 1070.58 1842.5 Q1067.15 1842.5 1065.23 1845.04 Q1063.33 1847.59 1063.33 1852.22 Q1063.33 1856.83 1065.23 1859.37 Q1067.15 1861.92 1070.58 1861.92 Q1074.03 1861.92 1075.92 1859.37 Q1077.85 1856.83 1077.85 1852.22 M1082.11 1862.27 Q1082.11 1868.89 1079.17 1872.1 Q1076.23 1875.34 1070.16 1875.34 Q1067.92 1875.34 1065.92 1875 Q1063.93 1874.67 1062.06 1873.98 L1062.06 1869.84 Q1063.93 1870.85 1065.76 1871.34 Q1067.59 1871.83 1069.49 1871.83 Q1073.68 1871.83 1075.76 1869.63 Q1077.85 1867.45 1077.85 1863.03 L1077.85 1860.92 Q1076.53 1863.21 1074.47 1864.35 Q1072.41 1865.48 1069.54 1865.48 Q1064.77 1865.48 1061.85 1861.85 Q1058.93 1858.21 1058.93 1852.22 Q1058.93 1846.2 1061.85 1842.57 Q1064.77 1838.93 1069.54 1838.93 Q1072.41 1838.93 1074.47 1840.07 Q1076.53 1841.2 1077.85 1843.49 L1077.85 1839.56 L1082.11 1839.56 L1082.11 1862.27 Z" fill="#000000" fill-rule="nonzero" fill-opacity="1" /><path clip-path="url(#clip200)" d="M1392.24 1840.32 L1392.24 1844.35 Q1390.44 1843.42 1388.49 1842.96 Q1386.55 1842.5 1384.47 1842.5 Q1381.3 1842.5 1379.7 1843.47 Q1378.12 1844.44 1378.12 1846.39 Q1378.12 1847.87 1379.26 1848.72 Q1380.39 1849.56 1383.82 1850.32 L1385.28 1850.65 Q1389.81 1851.62 1391.71 1853.4 Q1393.63 1855.16 1393.63 1858.33 Q1393.63 1861.94 1390.76 1864.05 Q1387.92 1866.15 1382.92 1866.15 Q1380.83 1866.15 1378.56 1865.74 Q1376.32 1865.34 1373.82 1864.53 L1373.82 1860.14 Q1376.18 1861.36 1378.47 1861.99 Q1380.76 1862.59 1383.01 1862.59 Q1386.02 1862.59 1387.64 1861.57 Q1389.26 1860.53 1389.26 1858.65 Q1389.26 1856.92 1388.08 1855.99 Q1386.92 1855.07 1382.96 1854.21 L1381.48 1853.86 Q1377.52 1853.03 1375.76 1851.32 Q1374 1849.58 1374 1846.57 Q1374 1842.91 1376.6 1840.92 Q1379.19 1838.93 1383.96 1838.93 Q1386.32 1838.93 1388.4 1839.28 Q1390.49 1839.63 1392.24 1840.32 Z" fill="#000000" fill-rule="nonzero" fill-opacity="1" /><path clip-path="url(#clip200)" d="M1420.6 1844.53 Q1422.2 1841.66 1424.42 1840.3 Q1426.64 1838.93 1429.65 1838.93 Q1433.7 1838.93 1435.9 1841.78 Q1438.1 1844.6 1438.1 1849.84 L1438.1 1865.48 L1433.82 1865.48 L1433.82 1849.97 Q1433.82 1846.25 1432.5 1844.44 Q1431.18 1842.64 1428.47 1842.64 Q1425.16 1842.64 1423.24 1844.84 Q1421.32 1847.03 1421.32 1850.83 L1421.32 1865.48 L1417.04 1865.48 L1417.04 1849.97 Q1417.04 1846.22 1415.72 1844.44 Q1414.4 1842.64 1411.64 1842.64 Q1408.38 1842.64 1406.46 1844.86 Q1404.54 1847.06 1404.54 1850.83 L1404.54 1865.48 L1400.25 1865.48 L1400.25 1839.56 L1404.54 1839.56 L1404.54 1843.59 Q1405.99 1841.2 1408.03 1840.07 Q1410.07 1838.93 1412.87 1838.93 Q1415.69 1838.93 1417.66 1840.37 Q1419.65 1841.8 1420.6 1844.53 Z" fill="#000000" fill-rule="nonzero" fill-opacity="1" /><path clip-path="url(#clip200)" d="M1458.38 1852.45 Q1453.22 1852.45 1451.23 1853.63 Q1449.24 1854.81 1449.24 1857.66 Q1449.24 1859.93 1450.72 1861.27 Q1452.22 1862.59 1454.79 1862.59 Q1458.33 1862.59 1460.46 1860.09 Q1462.61 1857.57 1462.61 1853.4 L1462.61 1852.45 L1458.38 1852.45 M1466.87 1850.69 L1466.87 1865.48 L1462.61 1865.48 L1462.61 1861.55 Q1461.16 1863.91 1458.98 1865.04 Q1456.8 1866.15 1453.66 1866.15 Q1449.67 1866.15 1447.31 1863.93 Q1444.98 1861.69 1444.98 1857.94 Q1444.98 1853.56 1447.89 1851.34 Q1450.83 1849.12 1456.64 1849.12 L1462.61 1849.12 L1462.61 1848.7 Q1462.61 1845.76 1460.67 1844.16 Q1458.75 1842.54 1455.25 1842.54 Q1453.03 1842.54 1450.92 1843.08 Q1448.82 1843.61 1446.87 1844.67 L1446.87 1840.74 Q1449.21 1839.84 1451.41 1839.4 Q1453.61 1838.93 1455.69 1838.93 Q1461.32 1838.93 1464.1 1841.85 Q1466.87 1844.77 1466.87 1850.69 Z" fill="#000000" fill-rule="nonzero" fill-opacity="1" /><path clip-path="url(#clip200)" d="M1475.65 1829.46 L1479.91 1829.46 L1479.91 1865.48 L1475.65 1865.48 L1475.65 1829.46 Z" fill="#000000" fill-rule="nonzero" fill-opacity="1" /><path clip-path="url(#clip200)" d="M1488.82 1829.46 L1493.08 1829.46 L1493.08 1865.48 L1488.82 1865.48 L1488.82 1829.46 Z" fill="#000000" fill-rule="nonzero" fill-opacity="1" /><path clip-path="url(#clip200)" d="M1824.58 1829.46 L1828.84 1829.46 L1828.84 1865.48 L1824.58 1865.48 L1824.58 1829.46 Z" fill="#000000" fill-rule="nonzero" fill-opacity="1" /><path clip-path="url(#clip200)" d="M1849.54 1852.45 Q1844.37 1852.45 1842.38 1853.63 Q1840.39 1854.81 1840.39 1857.66 Q1840.39 1859.93 1841.87 1861.27 Q1843.38 1862.59 1845.95 1862.59 Q1849.49 1862.59 1851.62 1860.09 Q1853.77 1857.57 1853.77 1853.4 L1853.77 1852.45 L1849.54 1852.45 M1858.03 1850.69 L1858.03 1865.48 L1853.77 1865.48 L1853.77 1861.55 Q1852.31 1863.91 1850.14 1865.04 Q1847.96 1866.15 1844.81 1866.15 Q1840.83 1866.15 1838.47 1863.93 Q1836.13 1861.69 1836.13 1857.94 Q1836.13 1853.56 1839.05 1851.34 Q1841.99 1849.12 1847.8 1849.12 L1853.77 1849.12 L1853.77 1848.7 Q1853.77 1845.76 1851.83 1844.16 Q1849.91 1842.54 1846.41 1842.54 Q1844.19 1842.54 1842.08 1843.08 Q1839.98 1843.61 1838.03 1844.67 L1838.03 1840.74 Q1840.37 1839.84 1842.57 1839.4 Q1844.77 1838.93 1846.85 1838.93 Q1852.48 1838.93 1855.25 1841.85 Q1858.03 1844.77 1858.03 1850.69 Z" fill="#000000" fill-rule="nonzero" fill-opacity="1" /><path clip-path="url(#clip200)" d="M1881.83 1843.54 Q1881.11 1843.12 1880.25 1842.94 Q1879.42 1842.73 1878.4 1842.73 Q1874.79 1842.73 1872.85 1845.09 Q1870.92 1847.43 1870.92 1851.83 L1870.92 1865.48 L1866.64 1865.48 L1866.64 1839.56 L1870.92 1839.56 L1870.92 1843.59 Q1872.27 1841.22 1874.42 1840.09 Q1876.57 1838.93 1879.65 1838.93 Q1880.09 1838.93 1880.62 1839 Q1881.16 1839.05 1881.8 1839.16 L1881.83 1843.54 Z" fill="#000000" fill-rule="nonzero" fill-opacity="1" /><path clip-path="url(#clip200)" d="M1902.52 1852.22 Q1902.52 1847.59 1900.6 1845.04 Q1898.7 1842.5 1895.25 1842.5 Q1891.83 1842.5 1889.91 1845.04 Q1888.01 1847.59 1888.01 1852.22 Q1888.01 1856.83 1889.91 1859.37 Q1891.83 1861.92 1895.25 1861.92 Q1898.7 1861.92 1900.6 1859.37 Q1902.52 1856.83 1902.52 1852.22 M1906.78 1862.27 Q1906.78 1868.89 1903.84 1872.1 Q1900.9 1875.34 1894.84 1875.34 Q1892.59 1875.34 1890.6 1875 Q1888.61 1874.67 1886.74 1873.98 L1886.74 1869.84 Q1888.61 1870.85 1890.44 1871.34 Q1892.27 1871.83 1894.17 1871.83 Q1898.36 1871.83 1900.44 1869.63 Q1902.52 1867.45 1902.52 1863.03 L1902.52 1860.92 Q1901.2 1863.21 1899.14 1864.35 Q1897.08 1865.48 1894.21 1865.48 Q1889.44 1865.48 1886.53 1861.85 Q1883.61 1858.21 1883.61 1852.22 Q1883.61 1846.2 1886.53 1842.57 Q1889.44 1838.93 1894.21 1838.93 Q1897.08 1838.93 1899.14 1840.07 Q1901.2 1841.2 1902.52 1843.49 L1902.52 1839.56 L1906.78 1839.56 L1906.78 1862.27 Z" fill="#000000" fill-rule="nonzero" fill-opacity="1" /><path clip-path="url(#clip200)" d="M1937.73 1851.46 L1937.73 1853.54 L1918.15 1853.54 Q1918.42 1857.94 1920.79 1860.25 Q1923.17 1862.54 1927.41 1862.54 Q1929.86 1862.54 1932.15 1861.94 Q1934.47 1861.34 1936.73 1860.14 L1936.73 1864.16 Q1934.44 1865.14 1932.04 1865.65 Q1929.63 1866.15 1927.15 1866.15 Q1920.95 1866.15 1917.31 1862.54 Q1913.7 1858.93 1913.7 1852.78 Q1913.7 1846.41 1917.13 1842.68 Q1920.58 1838.93 1926.41 1838.93 Q1931.64 1838.93 1934.67 1842.31 Q1937.73 1845.67 1937.73 1851.46 M1933.47 1850.21 Q1933.42 1846.71 1931.5 1844.63 Q1929.61 1842.54 1926.46 1842.54 Q1922.89 1842.54 1920.74 1844.56 Q1918.61 1846.57 1918.29 1850.23 L1933.47 1850.21 Z" fill="#000000" fill-rule="nonzero" fill-opacity="1" /><path clip-path="url(#clip200)" d="M2238.26 1829.46 L2238.26 1833.01 L2234.19 1833.01 Q2231.9 1833.01 2230.99 1833.93 Q2230.12 1834.86 2230.12 1837.27 L2230.12 1839.56 L2237.13 1839.56 L2237.13 1842.87 L2230.12 1842.87 L2230.12 1865.48 L2225.83 1865.48 L2225.83 1842.87 L2221.76 1842.87 L2221.76 1839.56 L2225.83 1839.56 L2225.83 1837.75 Q2225.83 1833.42 2227.85 1831.46 Q2229.86 1829.46 2234.24 1829.46 L2238.26 1829.46 Z" fill="#000000" fill-rule="nonzero" fill-opacity="1" /><path clip-path="url(#clip200)" d="M2241.83 1829.46 L2246.09 1829.46 L2246.09 1865.48 L2241.83 1865.48 L2241.83 1829.46 Z" fill="#000000" fill-rule="nonzero" fill-opacity="1" /><path clip-path="url(#clip200)" d="M2265.05 1842.54 Q2261.62 1842.54 2259.63 1845.23 Q2257.64 1847.89 2257.64 1852.54 Q2257.64 1857.2 2259.61 1859.88 Q2261.6 1862.54 2265.05 1862.54 Q2268.45 1862.54 2270.44 1859.86 Q2272.43 1857.17 2272.43 1852.54 Q2272.43 1847.94 2270.44 1845.25 Q2268.45 1842.54 2265.05 1842.54 M2265.05 1838.93 Q2270.6 1838.93 2273.77 1842.54 Q2276.94 1846.15 2276.94 1852.54 Q2276.94 1858.91 2273.77 1862.54 Q2270.6 1866.15 2265.05 1866.15 Q2259.47 1866.15 2256.3 1862.54 Q2253.15 1858.91 2253.15 1852.54 Q2253.15 1846.15 2256.3 1842.54 Q2259.47 1838.93 2265.05 1838.93 Z" fill="#000000" fill-rule="nonzero" fill-opacity="1" /><path clip-path="url(#clip200)" d="M2281.53 1839.56 L2285.79 1839.56 L2291.11 1859.79 L2296.41 1839.56 L2301.43 1839.56 L2306.76 1859.79 L2312.06 1839.56 L2316.32 1839.56 L2309.54 1865.48 L2304.51 1865.48 L2298.93 1844.23 L2293.33 1865.48 L2288.31 1865.48 L2281.53 1839.56 Z" fill="#000000" fill-rule="nonzero" fill-opacity="1" /><path clip-path="url(#clip200)" d="M2344.95 1851.46 L2344.95 1853.54 L2325.37 1853.54 Q2325.65 1857.94 2328.01 1860.25 Q2330.39 1862.54 2334.63 1862.54 Q2337.08 1862.54 2339.37 1861.94 Q2341.69 1861.34 2343.96 1860.14 L2343.96 1864.16 Q2341.67 1865.14 2339.26 1865.65 Q2336.85 1866.15 2334.37 1866.15 Q2328.17 1866.15 2324.54 1862.54 Q2320.92 1858.93 2320.92 1852.78 Q2320.92 1846.41 2324.35 1842.68 Q2327.8 1838.93 2333.63 1838.93 Q2338.86 1838.93 2341.9 1842.31 Q2344.95 1845.67 2344.95 1851.46 M2340.69 1850.21 Q2340.65 1846.71 2338.73 1844.63 Q2336.83 1842.54 2333.68 1842.54 Q2330.11 1842.54 2327.96 1844.56 Q2325.83 1846.57 2325.51 1850.23 L2340.69 1850.21 Z" fill="#000000" fill-rule="nonzero" fill-opacity="1" /><path clip-path="url(#clip200)" d="M2366.97 1843.54 Q2366.25 1843.12 2365.39 1842.94 Q2364.56 1842.73 2363.54 1842.73 Q2359.93 1842.73 2357.98 1845.09 Q2356.06 1847.43 2356.06 1851.83 L2356.06 1865.48 L2351.78 1865.48 L2351.78 1839.56 L2356.06 1839.56 L2356.06 1843.59 Q2357.41 1841.22 2359.56 1840.09 Q2361.71 1838.93 2364.79 1838.93 Q2365.23 1838.93 2365.76 1839 Q2366.29 1839.05 2366.94 1839.16 L2366.97 1843.54 Z" fill="#000000" fill-rule="nonzero" fill-opacity="1" /><path clip-path="url(#clip200)" d="M2371.43 1839.56 L2375.69 1839.56 L2375.69 1865.48 L2371.43 1865.48 L2371.43 1839.56 M2371.43 1829.46 L2375.69 1829.46 L2375.69 1834.86 L2371.43 1834.86 L2371.43 1829.46 Z" fill="#000000" fill-rule="nonzero" fill-opacity="1" /><path clip-path="url(#clip200)" d="M2406.16 1849.84 L2406.16 1865.48 L2401.9 1865.48 L2401.9 1849.97 Q2401.9 1846.29 2400.46 1844.46 Q2399.03 1842.64 2396.16 1842.64 Q2392.71 1842.64 2390.72 1844.84 Q2388.73 1847.03 2388.73 1850.83 L2388.73 1865.48 L2384.44 1865.48 L2384.44 1839.56 L2388.73 1839.56 L2388.73 1843.59 Q2390.25 1841.25 2392.31 1840.09 Q2394.4 1838.93 2397.1 1838.93 Q2401.57 1838.93 2403.86 1841.71 Q2406.16 1844.46 2406.16 1849.84 Z" fill="#000000" fill-rule="nonzero" fill-opacity="1" /><path clip-path="url(#clip200)" d="M2431.71 1852.22 Q2431.71 1847.59 2429.79 1845.04 Q2427.89 1842.5 2424.44 1842.5 Q2421.02 1842.5 2419.1 1845.04 Q2417.2 1847.59 2417.2 1852.22 Q2417.2 1856.83 2419.1 1859.37 Q2421.02 1861.92 2424.44 1861.92 Q2427.89 1861.92 2429.79 1859.37 Q2431.71 1856.83 2431.71 1852.22 M2435.97 1862.27 Q2435.97 1868.89 2433.03 1872.1 Q2430.09 1875.34 2424.03 1875.34 Q2421.78 1875.34 2419.79 1875 Q2417.8 1874.67 2415.92 1873.98 L2415.92 1869.84 Q2417.8 1870.85 2419.63 1871.34 Q2421.46 1871.83 2423.35 1871.83 Q2427.54 1871.83 2429.63 1869.63 Q2431.71 1867.45 2431.71 1863.03 L2431.71 1860.92 Q2430.39 1863.21 2428.33 1864.35 Q2426.27 1865.48 2423.4 1865.48 Q2418.63 1865.48 2415.72 1861.85 Q2412.8 1858.21 2412.8 1852.22 Q2412.8 1846.2 2415.72 1842.57 Q2418.63 1838.93 2423.4 1838.93 Q2426.27 1838.93 2428.33 1840.07 Q2430.39 1841.2 2431.71 1843.49 L2431.71 1839.56 L2435.97 1839.56 L2435.97 1862.27 Z" fill="#000000" fill-rule="nonzero" fill-opacity="1" /><polyline clip-path="url(#clip200)" style="stroke:#000000; stroke-linecap:round; stroke-linejoin:round; stroke-width:4; stroke-opacity:1; fill:none" points="226.141,1800.78 226.141,127.792 "/>
<polyline clip-path="url(#clip200)" style="stroke:#000000; stroke-linecap:round; stroke-linejoin:round; stroke-width:4; stroke-opacity:1; fill:none" points="226.141,1800.78 245.038,1800.78 "/>
<polyline clip-path="url(#clip200)" style="stroke:#000000; stroke-linecap:round; stroke-linejoin:round; stroke-width:4; stroke-opacity:1; fill:none" points="226.141,1466.18 245.038,1466.18 "/>
<polyline clip-path="url(#clip200)" style="stroke:#000000; stroke-linecap:round; stroke-linejoin:round; stroke-width:4; stroke-opacity:1; fill:none" points="226.141,1131.58 245.038,1131.58 "/>
<polyline clip-path="url(#clip200)" style="stroke:#000000; stroke-linecap:round; stroke-linejoin:round; stroke-width:4; stroke-opacity:1; fill:none" points="226.141,796.987 245.038,796.987 "/>
<polyline clip-path="url(#clip200)" style="stroke:#000000; stroke-linecap:round; stroke-linejoin:round; stroke-width:4; stroke-opacity:1; fill:none" points="226.141,462.39 245.038,462.39 "/>
<polyline clip-path="url(#clip200)" style="stroke:#000000; stroke-linecap:round; stroke-linejoin:round; stroke-width:4; stroke-opacity:1; fill:none" points="226.141,127.792 245.038,127.792 "/>
<path clip-path="url(#clip200)" d="M128.645 1786.58 Q125.034 1786.58 123.205 1790.14 Q121.4 1793.68 121.4 1800.81 Q121.4 1807.92 123.205 1811.49 Q125.034 1815.03 128.645 1815.03 Q132.279 1815.03 134.085 1811.49 Q135.913 1807.92 135.913 1800.81 Q135.913 1793.68 134.085 1790.14 Q132.279 1786.58 128.645 1786.58 M128.645 1782.87 Q134.455 1782.87 137.511 1787.48 Q140.589 1792.06 140.589 1800.81 Q140.589 1809.54 137.511 1814.15 Q134.455 1818.73 128.645 1818.73 Q122.835 1818.73 119.756 1814.15 Q116.701 1809.54 116.701 1800.81 Q116.701 1792.06 119.756 1787.48 Q122.835 1782.87 128.645 1782.87 Z" fill="#000000" fill-rule="nonzero" fill-opacity="1" /><path clip-path="url(#clip200)" d="M148.807 1812.18 L153.691 1812.18 L153.691 1818.06 L148.807 1818.06 L148.807 1812.18 Z" fill="#000000" fill-rule="nonzero" fill-opacity="1" /><path clip-path="url(#clip200)" d="M173.876 1786.58 Q170.265 1786.58 168.436 1790.14 Q166.631 1793.68 166.631 1800.81 Q166.631 1807.92 168.436 1811.49 Q170.265 1815.03 173.876 1815.03 Q177.51 1815.03 179.316 1811.49 Q181.145 1807.92 181.145 1800.81 Q181.145 1793.68 179.316 1790.14 Q177.51 1786.58 173.876 1786.58 M173.876 1782.87 Q179.686 1782.87 182.742 1787.48 Q185.821 1792.06 185.821 1800.81 Q185.821 1809.54 182.742 1814.15 Q179.686 1818.73 173.876 1818.73 Q168.066 1818.73 164.987 1814.15 Q161.932 1809.54 161.932 1800.81 Q161.932 1792.06 164.987 1787.48 Q168.066 1782.87 173.876 1782.87 Z" fill="#000000" fill-rule="nonzero" fill-opacity="1" /><path clip-path="url(#clip200)" d="M130.242 1451.98 Q126.631 1451.98 124.802 1455.55 Q122.997 1459.09 122.997 1466.22 Q122.997 1473.32 124.802 1476.89 Q126.631 1480.43 130.242 1480.43 Q133.876 1480.43 135.682 1476.89 Q137.511 1473.32 137.511 1466.22 Q137.511 1459.09 135.682 1455.55 Q133.876 1451.98 130.242 1451.98 M130.242 1448.28 Q136.052 1448.28 139.108 1452.88 Q142.187 1457.47 142.187 1466.22 Q142.187 1474.94 139.108 1479.55 Q136.052 1484.13 130.242 1484.13 Q124.432 1484.13 121.353 1479.55 Q118.298 1474.94 118.298 1466.22 Q118.298 1457.47 121.353 1452.88 Q124.432 1448.28 130.242 1448.28 Z" fill="#000000" fill-rule="nonzero" fill-opacity="1" /><path clip-path="url(#clip200)" d="M150.404 1477.58 L155.288 1477.58 L155.288 1483.46 L150.404 1483.46 L150.404 1477.58 Z" fill="#000000" fill-rule="nonzero" fill-opacity="1" /><path clip-path="url(#clip200)" d="M169.501 1479.53 L185.821 1479.53 L185.821 1483.46 L163.876 1483.46 L163.876 1479.53 Q166.538 1476.77 171.122 1472.14 Q175.728 1467.49 176.909 1466.15 Q179.154 1463.62 180.034 1461.89 Q180.936 1460.13 180.936 1458.44 Q180.936 1455.68 178.992 1453.95 Q177.071 1452.21 173.969 1452.21 Q171.77 1452.21 169.316 1452.98 Q166.885 1453.74 164.108 1455.29 L164.108 1450.57 Q166.932 1449.43 169.385 1448.86 Q171.839 1448.28 173.876 1448.28 Q179.247 1448.28 182.441 1450.96 Q185.635 1453.65 185.635 1458.14 Q185.635 1460.27 184.825 1462.19 Q184.038 1464.09 181.932 1466.68 Q181.353 1467.35 178.251 1470.57 Q175.149 1473.76 169.501 1479.53 Z" fill="#000000" fill-rule="nonzero" fill-opacity="1" /><path clip-path="url(#clip200)" d="M128.159 1117.38 Q124.548 1117.38 122.719 1120.95 Q120.913 1124.49 120.913 1131.62 Q120.913 1138.73 122.719 1142.29 Q124.548 1145.83 128.159 1145.83 Q131.793 1145.83 133.599 1142.29 Q135.427 1138.73 135.427 1131.62 Q135.427 1124.49 133.599 1120.95 Q131.793 1117.38 128.159 1117.38 M128.159 1113.68 Q133.969 1113.68 137.025 1118.29 Q140.103 1122.87 140.103 1131.62 Q140.103 1140.35 137.025 1144.95 Q133.969 1149.54 128.159 1149.54 Q122.349 1149.54 119.27 1144.95 Q116.214 1140.35 116.214 1131.62 Q116.214 1122.87 119.27 1118.29 Q122.349 1113.68 128.159 1113.68 Z" fill="#000000" fill-rule="nonzero" fill-opacity="1" /><path clip-path="url(#clip200)" d="M148.321 1142.98 L153.205 1142.98 L153.205 1148.86 L148.321 1148.86 L148.321 1142.98 Z" fill="#000000" fill-rule="nonzero" fill-opacity="1" /><path clip-path="url(#clip200)" d="M176.237 1118.38 L164.432 1136.83 L176.237 1136.83 L176.237 1118.38 M175.01 1114.3 L180.89 1114.3 L180.89 1136.83 L185.821 1136.83 L185.821 1140.72 L180.89 1140.72 L180.89 1148.86 L176.237 1148.86 L176.237 1140.72 L160.636 1140.72 L160.636 1136.2 L175.01 1114.3 Z" fill="#000000" fill-rule="nonzero" fill-opacity="1" /><path clip-path="url(#clip200)" d="M128.483 782.786 Q124.872 782.786 123.043 786.35 Q121.238 789.892 121.238 797.022 Q121.238 804.128 123.043 807.693 Q124.872 811.235 128.483 811.235 Q132.117 811.235 133.923 807.693 Q135.751 804.128 135.751 797.022 Q135.751 789.892 133.923 786.35 Q132.117 782.786 128.483 782.786 M128.483 779.082 Q134.293 779.082 137.349 783.688 Q140.427 788.272 140.427 797.022 Q140.427 805.749 137.349 810.355 Q134.293 814.938 128.483 814.938 Q122.673 814.938 119.594 810.355 Q116.539 805.749 116.539 797.022 Q116.539 788.272 119.594 783.688 Q122.673 779.082 128.483 779.082 Z" fill="#000000" fill-rule="nonzero" fill-opacity="1" /><path clip-path="url(#clip200)" d="M148.645 808.387 L153.529 808.387 L153.529 814.267 L148.645 814.267 L148.645 808.387 Z" fill="#000000" fill-rule="nonzero" fill-opacity="1" /><path clip-path="url(#clip200)" d="M174.293 795.124 Q171.145 795.124 169.293 797.276 Q167.464 799.429 167.464 803.179 Q167.464 806.906 169.293 809.082 Q171.145 811.235 174.293 811.235 Q177.441 811.235 179.27 809.082 Q181.122 806.906 181.122 803.179 Q181.122 799.429 179.27 797.276 Q177.441 795.124 174.293 795.124 M183.575 780.471 L183.575 784.73 Q181.816 783.897 180.01 783.457 Q178.228 783.017 176.469 783.017 Q171.839 783.017 169.385 786.142 Q166.955 789.267 166.608 795.587 Q167.973 793.573 170.034 792.508 Q172.094 791.42 174.571 791.42 Q179.779 791.42 182.788 794.591 Q185.821 797.739 185.821 803.179 Q185.821 808.503 182.672 811.721 Q179.524 814.938 174.293 814.938 Q168.297 814.938 165.126 810.355 Q161.955 805.749 161.955 797.022 Q161.955 788.827 165.844 783.966 Q169.733 779.082 176.284 779.082 Q178.043 779.082 179.825 779.429 Q181.631 779.776 183.575 780.471 Z" fill="#000000" fill-rule="nonzero" fill-opacity="1" /><path clip-path="url(#clip200)" d="M128.738 448.188 Q125.126 448.188 123.298 451.753 Q121.492 455.295 121.492 462.424 Q121.492 469.531 123.298 473.096 Q125.126 476.637 128.738 476.637 Q132.372 476.637 134.177 473.096 Q136.006 469.531 136.006 462.424 Q136.006 455.295 134.177 451.753 Q132.372 448.188 128.738 448.188 M128.738 444.485 Q134.548 444.485 137.603 449.091 Q140.682 453.674 140.682 462.424 Q140.682 471.151 137.603 475.758 Q134.548 480.341 128.738 480.341 Q122.927 480.341 119.849 475.758 Q116.793 471.151 116.793 462.424 Q116.793 453.674 119.849 449.091 Q122.927 444.485 128.738 444.485 Z" fill="#000000" fill-rule="nonzero" fill-opacity="1" /><path clip-path="url(#clip200)" d="M148.899 473.79 L153.784 473.79 L153.784 479.67 L148.899 479.67 L148.899 473.79 Z" fill="#000000" fill-rule="nonzero" fill-opacity="1" /><path clip-path="url(#clip200)" d="M173.969 463.258 Q170.635 463.258 168.714 465.04 Q166.816 466.822 166.816 469.947 Q166.816 473.072 168.714 474.855 Q170.635 476.637 173.969 476.637 Q177.302 476.637 179.223 474.855 Q181.145 473.049 181.145 469.947 Q181.145 466.822 179.223 465.04 Q177.325 463.258 173.969 463.258 M169.293 461.267 Q166.284 460.526 164.594 458.466 Q162.927 456.406 162.927 453.443 Q162.927 449.299 165.867 446.892 Q168.83 444.485 173.969 444.485 Q179.131 444.485 182.071 446.892 Q185.01 449.299 185.01 453.443 Q185.01 456.406 183.321 458.466 Q181.654 460.526 178.668 461.267 Q182.047 462.054 183.922 464.346 Q185.821 466.637 185.821 469.947 Q185.821 474.971 182.742 477.656 Q179.686 480.341 173.969 480.341 Q168.251 480.341 165.173 477.656 Q162.117 474.971 162.117 469.947 Q162.117 466.637 164.015 464.346 Q165.913 462.054 169.293 461.267 M167.58 453.883 Q167.58 456.568 169.247 458.072 Q170.936 459.577 173.969 459.577 Q176.978 459.577 178.668 458.072 Q180.381 456.568 180.381 453.883 Q180.381 451.197 178.668 449.693 Q176.978 448.188 173.969 448.188 Q170.936 448.188 169.247 449.693 Q167.58 451.197 167.58 453.883 Z" fill="#000000" fill-rule="nonzero" fill-opacity="1" /><path clip-path="url(#clip200)" d="M119.455 141.137 L127.094 141.137 L127.094 114.771 L118.784 116.438 L118.784 112.179 L127.048 110.512 L131.724 110.512 L131.724 141.137 L139.362 141.137 L139.362 145.072 L119.455 145.072 L119.455 141.137 Z" fill="#000000" fill-rule="nonzero" fill-opacity="1" /><path clip-path="url(#clip200)" d="M148.807 139.193 L153.691 139.193 L153.691 145.072 L148.807 145.072 L148.807 139.193 Z" fill="#000000" fill-rule="nonzero" fill-opacity="1" /><path clip-path="url(#clip200)" d="M173.876 113.591 Q170.265 113.591 168.436 117.156 Q166.631 120.697 166.631 127.827 Q166.631 134.933 168.436 138.498 Q170.265 142.04 173.876 142.04 Q177.51 142.04 179.316 138.498 Q181.145 134.933 181.145 127.827 Q181.145 120.697 179.316 117.156 Q177.51 113.591 173.876 113.591 M173.876 109.887 Q179.686 109.887 182.742 114.494 Q185.821 119.077 185.821 127.827 Q185.821 136.554 182.742 141.16 Q179.686 145.743 173.876 145.743 Q168.066 145.743 164.987 141.16 Q161.932 136.554 161.932 127.827 Q161.932 119.077 164.987 114.494 Q168.066 109.887 173.876 109.887 Z" fill="#000000" fill-rule="nonzero" fill-opacity="1" /><path clip-path="url(#clip200)" d="M15.678 1211.29 L21.9483 1211.29 Q20.1977 1214.95 19.3383 1218.2 Q18.479 1221.44 18.479 1224.47 Q18.479 1229.72 20.516 1232.58 Q22.553 1235.42 26.3088 1235.42 Q29.4598 1235.42 31.0831 1233.54 Q32.6745 1231.63 33.6612 1226.35 L34.4569 1222.46 Q35.8255 1215.27 39.2948 1211.86 Q42.7323 1208.43 48.5251 1208.43 Q55.4319 1208.43 58.9967 1213.07 Q62.5615 1217.69 62.5615 1226.63 Q62.5615 1230.01 61.7976 1233.83 Q61.0337 1237.61 59.5378 1241.69 L52.9174 1241.69 Q55.1136 1237.77 56.2276 1234.02 Q57.3416 1230.26 57.3416 1226.63 Q57.3416 1221.13 55.1773 1218.13 Q53.0129 1215.14 49.0025 1215.14 Q45.5014 1215.14 43.528 1217.31 Q41.5546 1219.44 40.568 1224.34 L39.8041 1228.26 Q38.3718 1235.45 35.3162 1238.66 Q32.2607 1241.88 26.818 1241.88 Q20.516 1241.88 16.8875 1237.45 Q13.2591 1233 13.2591 1225.2 Q13.2591 1221.86 13.8638 1218.39 Q14.4686 1214.92 15.678 1211.29 Z" fill="#000000" fill-rule="nonzero" fill-opacity="1" /><path clip-path="url(#clip200)" d="M15.869 1192.86 L25.9905 1192.86 L25.9905 1180.8 L30.542 1180.8 L30.542 1192.86 L49.8937 1192.86 Q54.2542 1192.86 55.4955 1191.68 Q56.7368 1190.48 56.7368 1186.81 L56.7368 1180.8 L61.6384 1180.8 L61.6384 1186.81 Q61.6384 1193.59 59.124 1196.17 Q56.5777 1198.75 49.8937 1198.75 L30.542 1198.75 L30.542 1203.05 L25.9905 1203.05 L25.9905 1198.75 L15.869 1198.75 L15.869 1192.86 Z" fill="#000000" fill-rule="nonzero" fill-opacity="1" /><path clip-path="url(#clip200)" d="M43.719 1156.9 Q43.719 1163.99 45.3422 1166.73 Q46.9655 1169.47 50.8804 1169.47 Q53.9996 1169.47 55.8457 1167.43 Q57.6599 1165.36 57.6599 1161.83 Q57.6599 1156.96 54.2224 1154.03 Q50.7531 1151.07 45.0239 1151.07 L43.719 1151.07 L43.719 1156.9 M41.3 1145.22 L61.6384 1145.22 L61.6384 1151.07 L56.2276 1151.07 Q59.4741 1153.08 61.0337 1156.07 Q62.5615 1159.06 62.5615 1163.39 Q62.5615 1168.86 59.5059 1172.11 Q56.4186 1175.32 51.2623 1175.32 Q45.2467 1175.32 42.1912 1171.31 Q39.1357 1167.27 39.1357 1159.28 L39.1357 1151.07 L38.5628 1151.07 Q34.5205 1151.07 32.3244 1153.75 Q30.0964 1156.39 30.0964 1161.19 Q30.0964 1164.25 30.8284 1167.14 Q31.5605 1170.04 33.0246 1172.71 L27.6137 1172.71 Q26.3724 1169.5 25.7677 1166.48 Q25.1311 1163.45 25.1311 1160.59 Q25.1311 1152.85 29.1415 1149.03 Q33.1519 1145.22 41.3 1145.22 Z" fill="#000000" fill-rule="nonzero" fill-opacity="1" /><path clip-path="url(#clip200)" d="M27.0408 1110.43 L32.579 1110.43 Q31.3059 1112.91 30.6693 1115.58 Q30.0327 1118.26 30.0327 1121.12 Q30.0327 1125.48 31.3695 1127.68 Q32.7063 1129.84 35.3799 1129.84 Q37.4169 1129.84 38.5946 1128.28 Q39.7404 1126.72 40.7908 1122.01 L41.2364 1120.01 Q42.5732 1113.77 45.0239 1111.16 Q47.4429 1108.52 51.8034 1108.52 Q56.7687 1108.52 59.6651 1112.46 Q62.5615 1116.38 62.5615 1123.25 Q62.5615 1126.12 61.9886 1129.24 Q61.4475 1132.32 60.3335 1135.76 L54.2861 1135.76 Q55.973 1132.52 56.8323 1129.36 Q57.6599 1126.21 57.6599 1123.13 Q57.6599 1118.99 56.2594 1116.76 Q54.8271 1114.53 52.249 1114.53 Q49.8619 1114.53 48.5887 1116.16 Q47.3156 1117.75 46.1379 1123.19 L45.6605 1125.23 Q44.5147 1130.67 42.1594 1133.09 Q39.7722 1135.51 35.6345 1135.51 Q30.6056 1135.51 27.8684 1131.94 Q25.1311 1128.38 25.1311 1121.82 Q25.1311 1118.57 25.6085 1115.71 Q26.086 1112.85 27.0408 1110.43 Z" fill="#000000" fill-rule="nonzero" fill-opacity="1" /><path clip-path="url(#clip200)" d="M25.9905 1099.19 L25.9905 1093.33 L61.6384 1093.33 L61.6384 1099.19 L25.9905 1099.19 M12.1132 1099.19 L12.1132 1093.33 L19.5293 1093.33 L19.5293 1099.19 L12.1132 1099.19 Z" fill="#000000" fill-rule="nonzero" fill-opacity="1" /><path clip-path="url(#clip200)" d="M27.0408 1058.35 L32.579 1058.35 Q31.3059 1060.84 30.6693 1063.51 Q30.0327 1066.18 30.0327 1069.05 Q30.0327 1073.41 31.3695 1075.61 Q32.7063 1077.77 35.3799 1077.77 Q37.4169 1077.77 38.5946 1076.21 Q39.7404 1074.65 40.7908 1069.94 L41.2364 1067.94 Q42.5732 1061.7 45.0239 1059.09 Q47.4429 1056.45 51.8034 1056.45 Q56.7687 1056.45 59.6651 1060.39 Q62.5615 1064.31 62.5615 1071.18 Q62.5615 1074.05 61.9886 1077.17 Q61.4475 1080.25 60.3335 1083.69 L54.2861 1083.69 Q55.973 1080.44 56.8323 1077.29 Q57.6599 1074.14 57.6599 1071.05 Q57.6599 1066.92 56.2594 1064.69 Q54.8271 1062.46 52.249 1062.46 Q49.8619 1062.46 48.5887 1064.08 Q47.3156 1065.68 46.1379 1071.12 L45.6605 1073.16 Q44.5147 1078.6 42.1594 1081.02 Q39.7722 1083.44 35.6345 1083.44 Q30.6056 1083.44 27.8684 1079.87 Q25.1311 1076.31 25.1311 1069.75 Q25.1311 1066.5 25.6085 1063.64 Q26.086 1060.77 27.0408 1058.35 Z" fill="#000000" fill-rule="nonzero" fill-opacity="1" /><path clip-path="url(#clip200)" d="M56.2912 1020.73 L75.1974 1020.73 L75.1974 1026.62 L25.9905 1026.62 L25.9905 1020.73 L31.4013 1020.73 Q28.2185 1018.89 26.6907 1016.09 Q25.1311 1013.25 25.1311 1009.34 Q25.1311 1002.85 30.2873 998.804 Q35.4436 994.73 43.8463 994.73 Q52.249 994.73 57.4052 998.804 Q62.5615 1002.85 62.5615 1009.34 Q62.5615 1013.25 61.0337 1016.09 Q59.4741 1018.89 56.2912 1020.73 M43.8463 1000.81 Q37.3851 1000.81 33.7248 1003.48 Q30.0327 1006.12 30.0327 1010.77 Q30.0327 1015.42 33.7248 1018.09 Q37.3851 1020.73 43.8463 1020.73 Q50.3075 1020.73 53.9996 1018.09 Q57.6599 1015.42 57.6599 1010.77 Q57.6599 1006.12 53.9996 1003.48 Q50.3075 1000.81 43.8463 1000.81 Z" fill="#000000" fill-rule="nonzero" fill-opacity="1" /><path clip-path="url(#clip200)" d="M31.465 964.365 Q30.8921 965.352 30.6375 966.53 Q30.351 967.675 30.351 969.076 Q30.351 974.041 33.5975 976.715 Q36.8122 979.357 42.8596 979.357 L61.6384 979.357 L61.6384 985.245 L25.9905 985.245 L25.9905 979.357 L31.5287 979.357 Q28.2821 977.51 26.7225 974.55 Q25.1311 971.59 25.1311 967.357 Q25.1311 966.752 25.2266 966.02 Q25.2903 965.288 25.4494 964.397 L31.465 964.365 Z" fill="#000000" fill-rule="nonzero" fill-opacity="1" /><path clip-path="url(#clip200)" d="M30.0964 945.841 Q30.0964 950.552 33.7885 953.289 Q37.4488 956.026 43.8463 956.026 Q50.2438 956.026 53.9359 953.321 Q57.5962 950.584 57.5962 945.841 Q57.5962 941.162 53.9041 938.425 Q50.212 935.688 43.8463 935.688 Q37.5124 935.688 33.8203 938.425 Q30.0964 941.162 30.0964 945.841 M25.1311 945.841 Q25.1311 938.202 30.0964 933.842 Q35.0616 929.481 43.8463 929.481 Q52.5991 929.481 57.5962 933.842 Q62.5615 938.202 62.5615 945.841 Q62.5615 953.512 57.5962 957.872 Q52.5991 962.201 43.8463 962.201 Q35.0616 962.201 30.0964 957.872 Q25.1311 953.512 25.1311 945.841 Z" fill="#000000" fill-rule="nonzero" fill-opacity="1" /><path clip-path="url(#clip200)" d="M43.8463 894.183 Q37.3851 894.183 33.7248 896.857 Q30.0327 899.499 30.0327 904.146 Q30.0327 908.793 33.7248 911.466 Q37.3851 914.108 43.8463 914.108 Q50.3075 914.108 53.9996 911.466 Q57.6599 908.793 57.6599 904.146 Q57.6599 899.499 53.9996 896.857 Q50.3075 894.183 43.8463 894.183 M31.4013 914.108 Q28.2185 912.262 26.6907 909.461 Q25.1311 906.628 25.1311 902.713 Q25.1311 896.22 30.2873 892.178 Q35.4436 888.104 43.8463 888.104 Q52.249 888.104 57.4052 892.178 Q62.5615 896.22 62.5615 902.713 Q62.5615 906.628 61.0337 909.461 Q59.4741 912.262 56.2912 914.108 L61.6384 914.108 L61.6384 919.996 L12.1132 919.996 L12.1132 914.108 L31.4013 914.108 Z" fill="#000000" fill-rule="nonzero" fill-opacity="1" /><path clip-path="url(#clip200)" d="M43.719 862.196 Q43.719 869.293 45.3422 872.031 Q46.9655 874.768 50.8804 874.768 Q53.9996 874.768 55.8457 872.731 Q57.6599 870.662 57.6599 867.129 Q57.6599 862.259 54.2224 859.331 Q50.7531 856.371 45.0239 856.371 L43.719 856.371 L43.719 862.196 M41.3 850.515 L61.6384 850.515 L61.6384 856.371 L56.2276 856.371 Q59.4741 858.376 61.0337 861.368 Q62.5615 864.36 62.5615 868.689 Q62.5615 874.163 59.5059 877.41 Q56.4186 880.624 51.2623 880.624 Q45.2467 880.624 42.1912 876.614 Q39.1357 872.572 39.1357 864.583 L39.1357 856.371 L38.5628 856.371 Q34.5205 856.371 32.3244 859.045 Q30.0964 861.686 30.0964 866.493 Q30.0964 869.548 30.8284 872.444 Q31.5605 875.341 33.0246 878.014 L27.6137 878.014 Q26.3724 874.8 25.7677 871.776 Q25.1311 868.752 25.1311 865.888 Q25.1311 858.153 29.1415 854.334 Q33.1519 850.515 41.3 850.515 Z" fill="#000000" fill-rule="nonzero" fill-opacity="1" /><path clip-path="url(#clip200)" d="M43.8463 812.861 Q37.3851 812.861 33.7248 815.535 Q30.0327 818.177 30.0327 822.824 Q30.0327 827.471 33.7248 830.144 Q37.3851 832.786 43.8463 832.786 Q50.3075 832.786 53.9996 830.144 Q57.6599 827.471 57.6599 822.824 Q57.6599 818.177 53.9996 815.535 Q50.3075 812.861 43.8463 812.861 M31.4013 832.786 Q28.2185 830.94 26.6907 828.139 Q25.1311 825.306 25.1311 821.392 Q25.1311 814.898 30.2873 810.856 Q35.4436 806.782 43.8463 806.782 Q52.249 806.782 57.4052 810.856 Q62.5615 814.898 62.5615 821.392 Q62.5615 825.306 61.0337 828.139 Q59.4741 830.94 56.2912 832.786 L61.6384 832.786 L61.6384 838.674 L12.1132 838.674 L12.1132 832.786 L31.4013 832.786 Z" fill="#000000" fill-rule="nonzero" fill-opacity="1" /><path clip-path="url(#clip200)" d="M25.9905 797.075 L25.9905 791.218 L61.6384 791.218 L61.6384 797.075 L25.9905 797.075 M12.1132 797.075 L12.1132 791.218 L19.5293 791.218 L19.5293 797.075 L12.1132 797.075 Z" fill="#000000" fill-rule="nonzero" fill-opacity="1" /><path clip-path="url(#clip200)" d="M12.1132 778.964 L12.1132 773.108 L61.6384 773.108 L61.6384 778.964 L12.1132 778.964 Z" fill="#000000" fill-rule="nonzero" fill-opacity="1" /><path clip-path="url(#clip200)" d="M25.9905 760.854 L25.9905 754.997 L61.6384 754.997 L61.6384 760.854 L25.9905 760.854 M12.1132 760.854 L12.1132 754.997 L19.5293 754.997 L19.5293 760.854 L12.1132 760.854 Z" fill="#000000" fill-rule="nonzero" fill-opacity="1" /><path clip-path="url(#clip200)" d="M15.869 736.95 L25.9905 736.95 L25.9905 724.887 L30.542 724.887 L30.542 736.95 L49.8937 736.95 Q54.2542 736.95 55.4955 735.773 Q56.7368 734.563 56.7368 730.903 L56.7368 724.887 L61.6384 724.887 L61.6384 730.903 Q61.6384 737.682 59.124 740.261 Q56.5777 742.839 49.8937 742.839 L30.542 742.839 L30.542 747.136 L25.9905 747.136 L25.9905 742.839 L15.869 742.839 L15.869 736.95 Z" fill="#000000" fill-rule="nonzero" fill-opacity="1" /><path clip-path="url(#clip200)" d="M64.9486 702.353 Q71.3143 704.835 73.2559 707.191 Q75.1974 709.546 75.1974 713.493 L75.1974 718.172 L70.2958 718.172 L70.2958 714.734 Q70.2958 712.315 69.15 710.978 Q68.0041 709.642 63.7391 708.018 L61.0655 706.968 L25.9905 721.386 L25.9905 715.18 L53.8723 704.04 L25.9905 692.9 L25.9905 686.693 L64.9486 702.353 Z" fill="#000000" fill-rule="nonzero" fill-opacity="1" /><path clip-path="url(#clip200)" d="M1257.11 14.0809 L1257.11 22.0612 Q1252.45 19.8332 1248.32 18.7395 Q1244.19 17.6457 1240.34 17.6457 Q1233.66 17.6457 1230.01 20.2383 Q1226.41 22.8309 1226.41 27.611 Q1226.41 31.6214 1228.8 33.6873 Q1231.23 35.7128 1237.95 36.9686 L1242.89 37.9813 Q1252.05 39.7232 1256.38 44.1387 Q1260.76 48.5136 1260.76 55.8863 Q1260.76 64.6767 1254.84 69.2137 Q1248.97 73.7508 1237.59 73.7508 Q1233.29 73.7508 1228.43 72.7785 Q1223.61 71.8063 1218.43 69.9024 L1218.43 61.4765 Q1223.41 64.2716 1228.19 65.6895 Q1232.97 67.1073 1237.59 67.1073 Q1244.6 67.1073 1248.4 64.3527 Q1252.21 61.598 1252.21 56.4939 Q1252.21 52.0379 1249.46 49.5264 Q1246.74 47.0148 1240.5 45.759 L1235.52 44.7868 Q1226.37 42.9639 1222.27 39.075 Q1218.18 35.1862 1218.18 28.2591 Q1218.18 20.2383 1223.81 15.6203 Q1229.49 11.0023 1239.41 11.0023 Q1243.66 11.0023 1248.08 11.7719 Q1252.49 12.5416 1257.11 14.0809 Z" fill="#000000" fill-rule="nonzero" fill-opacity="1" /><path clip-path="url(#clip200)" d="M1280.57 14.324 L1280.57 27.2059 L1295.92 27.2059 L1295.92 32.9987 L1280.57 32.9987 L1280.57 57.6282 Q1280.57 63.1779 1282.07 64.7578 Q1283.61 66.3376 1288.26 66.3376 L1295.92 66.3376 L1295.92 72.576 L1288.26 72.576 Q1279.64 72.576 1276.35 69.3758 Q1273.07 66.1351 1273.07 57.6282 L1273.07 32.9987 L1267.6 32.9987 L1267.6 27.2059 L1273.07 27.2059 L1273.07 14.324 L1280.57 14.324 Z" fill="#000000" fill-rule="nonzero" fill-opacity="1" /><path clip-path="url(#clip200)" d="M1326.34 49.7694 Q1317.31 49.7694 1313.83 51.8354 Q1310.34 53.9013 1310.34 58.8839 Q1310.34 62.8538 1312.93 65.2034 Q1315.57 67.5124 1320.06 67.5124 Q1326.26 67.5124 1329.99 63.1374 Q1333.76 58.7219 1333.76 51.4303 L1333.76 49.7694 L1326.34 49.7694 M1341.21 46.6907 L1341.21 72.576 L1333.76 72.576 L1333.76 65.6895 Q1331.2 69.8214 1327.4 71.8063 Q1323.59 73.7508 1318.08 73.7508 Q1311.11 73.7508 1306.98 69.8619 Q1302.89 65.9325 1302.89 59.3701 Q1302.89 51.7138 1307.99 47.825 Q1313.14 43.9361 1323.3 43.9361 L1333.76 43.9361 L1333.76 43.2069 Q1333.76 38.0623 1330.35 35.2672 Q1326.99 32.4315 1320.87 32.4315 Q1316.98 32.4315 1313.3 33.3632 Q1309.61 34.295 1306.21 36.1584 L1306.21 29.2718 Q1310.3 27.692 1314.15 26.9223 Q1318 26.1121 1321.64 26.1121 Q1331.49 26.1121 1336.35 31.2163 Q1341.21 36.3204 1341.21 46.6907 Z" fill="#000000" fill-rule="nonzero" fill-opacity="1" /><path clip-path="url(#clip200)" d="M1385.49 28.5427 L1385.49 35.5912 Q1382.33 33.9709 1378.92 33.1607 Q1375.52 32.3505 1371.87 32.3505 Q1366.32 32.3505 1363.53 34.0519 Q1360.78 35.7533 1360.78 39.156 Q1360.78 41.7486 1362.76 43.2475 Q1364.74 44.7058 1370.74 46.0426 L1373.29 46.6097 Q1381.23 48.3111 1384.55 51.4303 Q1387.92 54.509 1387.92 60.0587 Q1387.92 66.3781 1382.89 70.0644 Q1377.91 73.7508 1369.16 73.7508 Q1365.51 73.7508 1361.54 73.0216 Q1357.62 72.3329 1353.24 70.9151 L1353.24 63.2184 Q1357.37 65.3654 1361.38 66.4591 Q1365.39 67.5124 1369.32 67.5124 Q1374.59 67.5124 1377.42 65.73 Q1380.26 63.9071 1380.26 60.6258 Q1380.26 57.5877 1378.19 55.9673 Q1376.17 54.3469 1369.24 52.8481 L1366.65 52.2405 Q1359.72 50.7821 1356.64 47.7845 Q1353.56 44.7463 1353.56 39.4801 Q1353.56 33.0797 1358.1 29.5959 Q1362.64 26.1121 1370.98 26.1121 Q1375.12 26.1121 1378.76 26.7198 Q1382.41 27.3274 1385.49 28.5427 Z" fill="#000000" fill-rule="nonzero" fill-opacity="1" /><path clip-path="url(#clip200)" d="M1399.79 27.2059 L1407.24 27.2059 L1407.24 72.576 L1399.79 72.576 L1399.79 27.2059 M1399.79 9.54393 L1407.24 9.54393 L1407.24 18.9825 L1399.79 18.9825 L1399.79 9.54393 Z" fill="#000000" fill-rule="nonzero" fill-opacity="1" /><path clip-path="url(#clip200)" d="M1451.76 28.5427 L1451.76 35.5912 Q1448.6 33.9709 1445.2 33.1607 Q1441.79 32.3505 1438.15 32.3505 Q1432.6 32.3505 1429.8 34.0519 Q1427.05 35.7533 1427.05 39.156 Q1427.05 41.7486 1429.03 43.2475 Q1431.02 44.7058 1437.01 46.0426 L1439.57 46.6097 Q1447.5 48.3111 1450.83 51.4303 Q1454.19 54.509 1454.19 60.0587 Q1454.19 66.3781 1449.17 70.0644 Q1444.18 73.7508 1435.43 73.7508 Q1431.79 73.7508 1427.82 73.0216 Q1423.89 72.3329 1419.51 70.9151 L1419.51 63.2184 Q1423.65 65.3654 1427.66 66.4591 Q1431.67 67.5124 1435.6 67.5124 Q1440.86 67.5124 1443.7 65.73 Q1446.53 63.9071 1446.53 60.6258 Q1446.53 57.5877 1444.47 55.9673 Q1442.44 54.3469 1435.51 52.8481 L1432.92 52.2405 Q1425.99 50.7821 1422.92 47.7845 Q1419.84 44.7463 1419.84 39.4801 Q1419.84 33.0797 1424.37 29.5959 Q1428.91 26.1121 1437.26 26.1121 Q1441.39 26.1121 1445.03 26.7198 Q1448.68 27.3274 1451.76 28.5427 Z" fill="#000000" fill-rule="nonzero" fill-opacity="1" /><path clip-path="url(#clip200)" d="M1518.72 34.1734 Q1517.46 33.4443 1515.97 33.1202 Q1514.51 32.7556 1512.72 32.7556 Q1506.41 32.7556 1503 36.8875 Q1499.64 40.9789 1499.64 48.6757 L1499.64 72.576 L1492.15 72.576 L1492.15 27.2059 L1499.64 27.2059 L1499.64 34.2544 Q1501.99 30.1225 1505.76 28.1376 Q1509.52 26.1121 1514.91 26.1121 Q1515.68 26.1121 1516.61 26.2337 Q1517.55 26.3147 1518.68 26.5172 L1518.72 34.1734 Z" fill="#000000" fill-rule="nonzero" fill-opacity="1" /><path clip-path="url(#clip200)" d="M1547.16 49.7694 Q1538.12 49.7694 1534.64 51.8354 Q1531.16 53.9013 1531.16 58.8839 Q1531.16 62.8538 1533.75 65.2034 Q1536.38 67.5124 1540.88 67.5124 Q1547.08 67.5124 1550.8 63.1374 Q1554.57 58.7219 1554.57 51.4303 L1554.57 49.7694 L1547.16 49.7694 M1562.02 46.6907 L1562.02 72.576 L1554.57 72.576 L1554.57 65.6895 Q1552.02 69.8214 1548.21 71.8063 Q1544.4 73.7508 1538.89 73.7508 Q1531.93 73.7508 1527.79 69.8619 Q1523.7 65.9325 1523.7 59.3701 Q1523.7 51.7138 1528.81 47.825 Q1533.95 43.9361 1544.12 43.9361 L1554.57 43.9361 L1554.57 43.2069 Q1554.57 38.0623 1551.17 35.2672 Q1547.81 32.4315 1541.69 32.4315 Q1537.8 32.4315 1534.11 33.3632 Q1530.43 34.295 1527.02 36.1584 L1527.02 29.2718 Q1531.12 27.692 1534.96 26.9223 Q1538.81 26.1121 1542.46 26.1121 Q1552.3 26.1121 1557.16 31.2163 Q1562.02 36.3204 1562.02 46.6907 Z" fill="#000000" fill-rule="nonzero" fill-opacity="1" /><path clip-path="url(#clip200)" d="M1584.75 14.324 L1584.75 27.2059 L1600.1 27.2059 L1600.1 32.9987 L1584.75 32.9987 L1584.75 57.6282 Q1584.75 63.1779 1586.25 64.7578 Q1587.79 66.3376 1592.45 66.3376 L1600.1 66.3376 L1600.1 72.576 L1592.45 72.576 Q1583.82 72.576 1580.54 69.3758 Q1577.26 66.1351 1577.26 57.6282 L1577.26 32.9987 L1571.79 32.9987 L1571.79 27.2059 L1577.26 27.2059 L1577.26 14.324 L1584.75 14.324 Z" fill="#000000" fill-rule="nonzero" fill-opacity="1" /><path clip-path="url(#clip200)" d="M1648.71 48.0275 L1648.71 51.6733 L1614.44 51.6733 Q1614.93 59.3701 1619.06 63.421 Q1623.23 67.4314 1630.65 67.4314 Q1634.94 67.4314 1638.95 66.3781 Q1643 65.3249 1646.97 63.2184 L1646.97 70.267 Q1642.96 71.9684 1638.75 72.8596 Q1634.54 73.7508 1630.2 73.7508 Q1619.34 73.7508 1612.98 67.4314 Q1606.66 61.1119 1606.66 50.3365 Q1606.66 39.1965 1612.66 32.6746 Q1618.7 26.1121 1628.9 26.1121 Q1638.06 26.1121 1643.37 32.0264 Q1648.71 37.9003 1648.71 48.0275 M1641.26 45.84 Q1641.18 39.7232 1637.82 36.0774 Q1634.49 32.4315 1628.99 32.4315 Q1622.75 32.4315 1618.98 35.9558 Q1615.25 39.4801 1614.69 45.8805 L1641.26 45.84 Z" fill="#000000" fill-rule="nonzero" fill-opacity="1" /><path clip-path="url(#clip201)" d="M358.949 685.455 L358.949 1800.78 L717.115 1800.78 L717.115 685.455 L358.949 685.455 L358.949 685.455  Z" fill="#daa520" fill-rule="evenodd" fill-opacity="0.7"/>
<polyline clip-path="url(#clip201)" style="stroke:#000000; stroke-linecap:round; stroke-linejoin:round; stroke-width:4; stroke-opacity:0.7; fill:none" points="358.949,685.455 358.949,1800.78 717.115,1800.78 717.115,685.455 358.949,685.455 "/>
<path clip-path="url(#clip201)" d="M806.657 1131.58 L806.657 1800.78 L1164.82 1800.78 L1164.82 1131.58 L806.657 1131.58 L806.657 1131.58  Z" fill="#daa520" fill-rule="evenodd" fill-opacity="0.7"/>
<polyline clip-path="url(#clip201)" style="stroke:#000000; stroke-linecap:round; stroke-linejoin:round; stroke-width:4; stroke-opacity:0.7; fill:none" points="806.657,1131.58 806.657,1800.78 1164.82,1800.78 1164.82,1131.58 806.657,1131.58 "/>
<path clip-path="url(#clip201)" d="M1254.36 771.249 L1254.36 1800.78 L1612.53 1800.78 L1612.53 771.249 L1254.36 771.249 L1254.36 771.249  Z" fill="#daa520" fill-rule="evenodd" fill-opacity="0.7"/>
<polyline clip-path="url(#clip201)" style="stroke:#000000; stroke-linecap:round; stroke-linejoin:round; stroke-width:4; stroke-opacity:0.7; fill:none" points="1254.36,771.249 1254.36,1800.78 1612.53,1800.78 1612.53,771.249 1254.36,771.249 "/>
<path clip-path="url(#clip201)" d="M1702.07 816.669 L1702.07 1800.78 L2060.24 1800.78 L2060.24 816.669 L1702.07 816.669 L1702.07 816.669  Z" fill="#daa520" fill-rule="evenodd" fill-opacity="0.7"/>
<polyline clip-path="url(#clip201)" style="stroke:#000000; stroke-linecap:round; stroke-linejoin:round; stroke-width:4; stroke-opacity:0.7; fill:none" points="1702.07,816.669 1702.07,1800.78 2060.24,1800.78 2060.24,816.669 1702.07,816.669 "/>
<path clip-path="url(#clip201)" d="M2149.78 366.79 L2149.78 1800.78 L2507.95 1800.78 L2507.95 366.79 L2149.78 366.79 L2149.78 366.79  Z" fill="#daa520" fill-rule="evenodd" fill-opacity="0.7"/>
<polyline clip-path="url(#clip201)" style="stroke:#000000; stroke-linecap:round; stroke-linejoin:round; stroke-width:4; stroke-opacity:0.7; fill:none" points="2149.78,366.79 2149.78,1800.78 2507.95,1800.78 2507.95,366.79 2149.78,366.79 "/>
<circle clip-path="url(#clip201)" style="fill:#daa520; stroke:none; fill-opacity:0" cx="538.032" cy="685.455" r="2"/>
<circle clip-path="url(#clip201)" style="fill:#daa520; stroke:none; fill-opacity:0" cx="985.74" cy="1131.58" r="2"/>
<circle clip-path="url(#clip201)" style="fill:#daa520; stroke:none; fill-opacity:0" cx="1433.45" cy="771.249" r="2"/>
<circle clip-path="url(#clip201)" style="fill:#daa520; stroke:none; fill-opacity:0" cx="1881.16" cy="816.669" r="2"/>
<circle clip-path="url(#clip201)" style="fill:#daa520; stroke:none; fill-opacity:0" cx="2328.86" cy="366.79" r="2"/>
</svg>
