<?xml version="1.0" encoding="utf-8"?>
<svg xmlns="http://www.w3.org/2000/svg" xmlns:xlink="http://www.w3.org/1999/xlink" width="672" height="480" viewBox="0 0 2688 1920">
<defs>
  <clipPath id="clip140">
    <rect x="0" y="0" width="2688" height="1920"/>
  </clipPath>
</defs>
<path clip-path="url(#clip140)" d="M0 1920 L2688 1920 L2688 -4.26326e-14 L0 -4.26326e-14  Z" fill="#ffffff" fill-rule="evenodd" fill-opacity="1"/>
<defs>
  <clipPath id="clip141">
    <rect x="226" y="127" width="2416" height="1674"/>
  </clipPath>
</defs>
<path clip-path="url(#clip140)" d="M226.141 1800.78 L2640.76 1800.78 L2640.76 127.792 L226.141 127.792  Z" fill="#ffffff" fill-rule="evenodd" fill-opacity="1"/>
<polyline clip-path="url(#clip141)" style="stroke:#000000; stroke-linecap:round; stroke-linejoin:round; stroke-width:2; stroke-opacity:0.1; fill:none" points="538.032,1800.78 538.032,127.792 "/>
<polyline clip-path="url(#clip141)" style="stroke:#000000; stroke-linecap:round; stroke-linejoin:round; stroke-width:2; stroke-opacity:0.1; fill:none" points="985.74,1800.78 985.74,127.792 "/>
<polyline clip-path="url(#clip141)" style="stroke:#000000; stroke-linecap:round; stroke-linejoin:round; stroke-width:2; stroke-opacity:0.1; fill:none" points="1433.45,1800.78 1433.45,127.792 "/>
<polyline clip-path="url(#clip141)" style="stroke:#000000; stroke-linecap:round; stroke-linejoin:round; stroke-width:2; stroke-opacity:0.1; fill:none" points="1881.16,1800.78 1881.16,127.792 "/>
<polyline clip-path="url(#clip141)" style="stroke:#000000; stroke-linecap:round; stroke-linejoin:round; stroke-width:2; stroke-opacity:0.1; fill:none" points="2328.86,1800.78 2328.86,127.792 "/>
<polyline clip-path="url(#clip141)" style="stroke:#000000; stroke-linecap:round; stroke-linejoin:round; stroke-width:2; stroke-opacity:0.1; fill:none" points="226.141,1800.78 2640.76,1800.78 "/>
<polyline clip-path="url(#clip141)" style="stroke:#000000; stroke-linecap:round; stroke-linejoin:round; stroke-width:2; stroke-opacity:0.1; fill:none" points="226.141,1466.18 2640.76,1466.18 "/>
<polyline clip-path="url(#clip141)" style="stroke:#000000; stroke-linecap:round; stroke-linejoin:round; stroke-width:2; stroke-opacity:0.1; fill:none" points="226.141,1131.58 2640.76,1131.58 "/>
<polyline clip-path="url(#clip141)" style="stroke:#000000; stroke-linecap:round; stroke-linejoin:round; stroke-width:2; stroke-opacity:0.1; fill:none" points="226.141,796.987 2640.76,796.987 "/>
<polyline clip-path="url(#clip141)" style="stroke:#000000; stroke-linecap:round; stroke-linejoin:round; stroke-width:2; stroke-opacity:0.1; fill:none" points="226.141,462.39 2640.76,462.39 "/>
<polyline clip-path="url(#clip141)" style="stroke:#000000; stroke-linecap:round; stroke-linejoin:round; stroke-width:2; stroke-opacity:0.1; fill:none" points="226.141,127.792 2640.76,127.792 "/>
<polyline clip-path="url(#clip140)" style="stroke:#000000; stroke-linecap:round; stroke-linejoin:round; stroke-width:4; stroke-opacity:1; fill:none" points="226.141,1800.78 2640.76,1800.78 "/>
<polyline clip-path="url(#clip140)" style="stroke:#000000; stroke-linecap:round; stroke-linejoin:round; stroke-width:4; stroke-opacity:1; fill:none" points="538.032,1800.78 538.032,1781.88 "/>
<polyline clip-path="url(#clip140)" style="stroke:#000000; stroke-linecap:round; stroke-linejoin:round; stroke-width:4; stroke-opacity:1; fill:none" points="985.74,1800.78 985.74,1781.88 "/>
<polyline clip-path="url(#clip140)" style="stroke:#000000; stroke-linecap:round; stroke-linejoin:round; stroke-width:4; stroke-opacity:1; fill:none" points="1433.45,1800.78 1433.45,1781.88 "/>
<polyline clip-path="url(#clip140)" style="stroke:#000000; stroke-linecap:round; stroke-linejoin:round; stroke-width:4; stroke-opacity:1; fill:none" points="1881.16,1800.78 1881.16,1781.88 "/>
<polyline clip-path="url(#clip140)" style="stroke:#000000; stroke-linecap:round; stroke-linejoin:round; stroke-width:4; stroke-opacity:1; fill:none" points="2328.86,1800.78 2328.86,1781.88 "/>
<path clip-path="url(#clip140)" d="M431.077 1840.32 L431.077 1844.35 Q429.271 1843.42 427.327 1842.96 Q425.382 1842.5 423.299 1842.5 Q420.127 1842.5 418.53 1843.47 Q416.956 1844.44 416.956 1846.39 Q416.956 1847.87 418.09 1848.72 Q419.225 1849.56 422.651 1850.32 L424.109 1850.65 Q428.646 1851.62 430.544 1853.4 Q432.465 1855.16 432.465 1858.33 Q432.465 1861.94 429.595 1864.05 Q426.748 1866.15 421.748 1866.15 Q419.665 1866.15 417.396 1865.74 Q415.151 1865.34 412.651 1864.53 L412.651 1860.14 Q415.012 1861.36 417.303 1861.99 Q419.595 1862.59 421.84 1862.59 Q424.85 1862.59 426.47 1861.57 Q428.09 1860.53 428.09 1858.65 Q428.09 1856.92 426.91 1855.99 Q425.752 1855.07 421.794 1854.21 L420.313 1853.86 Q416.354 1853.03 414.595 1851.32 Q412.836 1849.58 412.836 1846.57 Q412.836 1842.91 415.428 1840.92 Q418.021 1838.93 422.79 1838.93 Q425.151 1838.93 427.234 1839.28 Q429.317 1839.63 431.077 1840.32 Z" fill="#000000" fill-rule="nonzero" fill-opacity="1" /><path clip-path="url(#clip140)" d="M461.424 1851.46 L461.424 1853.54 L441.84 1853.54 Q442.118 1857.94 444.479 1860.25 Q446.863 1862.54 451.1 1862.54 Q453.553 1862.54 455.845 1861.94 Q458.16 1861.34 460.428 1860.14 L460.428 1864.16 Q458.137 1865.14 455.729 1865.65 Q453.322 1866.15 450.845 1866.15 Q444.641 1866.15 441.007 1862.54 Q437.396 1858.93 437.396 1852.78 Q437.396 1846.41 440.822 1842.68 Q444.271 1838.93 450.104 1838.93 Q455.336 1838.93 458.368 1842.31 Q461.424 1845.67 461.424 1851.46 M457.164 1850.21 Q457.118 1846.71 455.197 1844.63 Q453.299 1842.54 450.15 1842.54 Q446.586 1842.54 444.433 1844.56 Q442.303 1846.57 441.979 1850.23 L457.164 1850.21 Z" fill="#000000" fill-rule="nonzero" fill-opacity="1" /><path clip-path="url(#clip140)" d="M490.59 1851.46 L490.59 1853.54 L471.007 1853.54 Q471.285 1857.94 473.646 1860.25 Q476.03 1862.54 480.266 1862.54 Q482.72 1862.54 485.011 1861.94 Q487.326 1861.34 489.595 1860.14 L489.595 1864.16 Q487.303 1865.14 484.896 1865.65 Q482.488 1866.15 480.011 1866.15 Q473.808 1866.15 470.174 1862.54 Q466.562 1858.93 466.562 1852.78 Q466.562 1846.41 469.988 1842.68 Q473.437 1838.93 479.271 1838.93 Q484.502 1838.93 487.535 1842.31 Q490.59 1845.67 490.59 1851.46 M486.331 1850.21 Q486.285 1846.71 484.363 1844.63 Q482.465 1842.54 479.317 1842.54 Q475.752 1842.54 473.599 1844.56 Q471.47 1846.57 471.146 1850.23 L486.331 1850.21 Z" fill="#000000" fill-rule="nonzero" fill-opacity="1" /><path clip-path="url(#clip140)" d="M514.641 1843.49 L514.641 1829.46 L518.9 1829.46 L518.9 1865.48 L514.641 1865.48 L514.641 1861.59 Q513.298 1863.91 511.238 1865.04 Q509.201 1866.15 506.331 1866.15 Q501.632 1866.15 498.669 1862.4 Q495.729 1858.65 495.729 1852.54 Q495.729 1846.43 498.669 1842.68 Q501.632 1838.93 506.331 1838.93 Q509.201 1838.93 511.238 1840.07 Q513.298 1841.18 514.641 1843.49 M500.127 1852.54 Q500.127 1857.24 502.048 1859.93 Q503.993 1862.59 507.372 1862.59 Q510.752 1862.59 512.696 1859.93 Q514.641 1857.24 514.641 1852.54 Q514.641 1847.84 512.696 1845.18 Q510.752 1842.5 507.372 1842.5 Q503.993 1842.5 502.048 1845.18 Q500.127 1847.84 500.127 1852.54 Z" fill="#000000" fill-rule="nonzero" fill-opacity="1" /><path clip-path="url(#clip140)" d="M547.372 1873.35 L547.372 1876.66 L522.743 1876.66 L522.743 1873.35 L547.372 1873.35 Z" fill="#000000" fill-rule="nonzero" fill-opacity="1" /><path clip-path="url(#clip140)" d="M569.988 1852.54 Q569.988 1847.84 568.043 1845.18 Q566.122 1842.5 562.742 1842.5 Q559.363 1842.5 557.418 1845.18 Q555.497 1847.84 555.497 1852.54 Q555.497 1857.24 557.418 1859.93 Q559.363 1862.59 562.742 1862.59 Q566.122 1862.59 568.043 1859.93 Q569.988 1857.24 569.988 1852.54 M555.497 1843.49 Q556.84 1841.18 558.877 1840.07 Q560.937 1838.93 563.784 1838.93 Q568.506 1838.93 571.446 1842.68 Q574.409 1846.43 574.409 1852.54 Q574.409 1858.65 571.446 1862.4 Q568.506 1866.15 563.784 1866.15 Q560.937 1866.15 558.877 1865.04 Q556.84 1863.91 555.497 1861.59 L555.497 1865.48 L551.215 1865.48 L551.215 1829.46 L555.497 1829.46 L555.497 1843.49 Z" fill="#000000" fill-rule="nonzero" fill-opacity="1" /><path clip-path="url(#clip140)" d="M593.252 1852.45 Q588.09 1852.45 586.099 1853.63 Q584.108 1854.81 584.108 1857.66 Q584.108 1859.93 585.59 1861.27 Q587.094 1862.59 589.664 1862.59 Q593.205 1862.59 595.335 1860.09 Q597.488 1857.57 597.488 1853.4 L597.488 1852.45 L593.252 1852.45 M601.747 1850.69 L601.747 1865.48 L597.488 1865.48 L597.488 1861.55 Q596.029 1863.91 593.853 1865.04 Q591.677 1866.15 588.529 1866.15 Q584.548 1866.15 582.187 1863.93 Q579.849 1861.69 579.849 1857.94 Q579.849 1853.56 582.766 1851.34 Q585.705 1849.12 591.515 1849.12 L597.488 1849.12 L597.488 1848.7 Q597.488 1845.76 595.543 1844.16 Q593.622 1842.54 590.127 1842.54 Q587.904 1842.54 585.798 1843.08 Q583.691 1843.61 581.747 1844.67 L581.747 1840.74 Q584.085 1839.84 586.284 1839.4 Q588.483 1838.93 590.566 1838.93 Q596.191 1838.93 598.969 1841.85 Q601.747 1844.77 601.747 1850.69 Z" fill="#000000" fill-rule="nonzero" fill-opacity="1" /><path clip-path="url(#clip140)" d="M632.071 1849.84 L632.071 1865.48 L627.812 1865.48 L627.812 1849.97 Q627.812 1846.29 626.376 1844.46 Q624.941 1842.64 622.071 1842.64 Q618.622 1842.64 616.631 1844.84 Q614.64 1847.03 614.64 1850.83 L614.64 1865.48 L610.358 1865.48 L610.358 1839.56 L614.64 1839.56 L614.64 1843.59 Q616.168 1841.25 618.228 1840.09 Q620.312 1838.93 623.02 1838.93 Q627.487 1838.93 629.779 1841.71 Q632.071 1844.46 632.071 1849.84 Z" fill="#000000" fill-rule="nonzero" fill-opacity="1" /><path clip-path="url(#clip140)" d="M640.404 1829.46 L644.686 1829.46 L644.686 1850.74 L657.395 1839.56 L662.835 1839.56 L649.085 1851.69 L663.413 1865.48 L657.858 1865.48 L644.686 1852.82 L644.686 1865.48 L640.404 1865.48 L640.404 1829.46 Z" fill="#000000" fill-rule="nonzero" fill-opacity="1" /><path clip-path="url(#clip140)" d="M907.801 1840.32 L907.801 1844.35 Q905.995 1843.42 904.051 1842.96 Q902.106 1842.5 900.023 1842.5 Q896.852 1842.5 895.254 1843.47 Q893.68 1844.44 893.68 1846.39 Q893.68 1847.87 894.815 1848.72 Q895.949 1849.56 899.375 1850.32 L900.833 1850.65 Q905.37 1851.62 907.268 1853.4 Q909.19 1855.16 909.19 1858.33 Q909.19 1861.94 906.319 1864.05 Q903.472 1866.15 898.472 1866.15 Q896.389 1866.15 894.12 1865.74 Q891.875 1865.34 889.375 1864.53 L889.375 1860.14 Q891.736 1861.36 894.028 1861.99 Q896.319 1862.59 898.565 1862.59 Q901.574 1862.59 903.194 1861.57 Q904.815 1860.53 904.815 1858.65 Q904.815 1856.92 903.634 1855.99 Q902.477 1855.07 898.518 1854.21 L897.037 1853.86 Q893.079 1853.03 891.319 1851.32 Q889.56 1849.58 889.56 1846.57 Q889.56 1842.91 892.153 1840.92 Q894.745 1838.93 899.514 1838.93 Q901.875 1838.93 903.958 1839.28 Q906.041 1839.63 907.801 1840.32 Z" fill="#000000" fill-rule="nonzero" fill-opacity="1" /><path clip-path="url(#clip140)" d="M938.148 1851.46 L938.148 1853.54 L918.565 1853.54 Q918.842 1857.94 921.203 1860.25 Q923.588 1862.54 927.824 1862.54 Q930.277 1862.54 932.569 1861.94 Q934.884 1861.34 937.152 1860.14 L937.152 1864.16 Q934.861 1865.14 932.453 1865.65 Q930.046 1866.15 927.569 1866.15 Q921.365 1866.15 917.731 1862.54 Q914.12 1858.93 914.12 1852.78 Q914.12 1846.41 917.546 1842.68 Q920.995 1838.93 926.828 1838.93 Q932.06 1838.93 935.092 1842.31 Q938.148 1845.67 938.148 1851.46 M933.889 1850.21 Q933.842 1846.71 931.921 1844.63 Q930.023 1842.54 926.875 1842.54 Q923.31 1842.54 921.157 1844.56 Q919.027 1846.57 918.703 1850.23 L933.889 1850.21 Z" fill="#000000" fill-rule="nonzero" fill-opacity="1" /><path clip-path="url(#clip140)" d="M967.314 1851.46 L967.314 1853.54 L947.731 1853.54 Q948.009 1857.94 950.37 1860.25 Q952.754 1862.54 956.99 1862.54 Q959.444 1862.54 961.736 1861.94 Q964.05 1861.34 966.319 1860.14 L966.319 1864.16 Q964.027 1865.14 961.62 1865.65 Q959.212 1866.15 956.736 1866.15 Q950.532 1866.15 946.898 1862.54 Q943.287 1858.93 943.287 1852.78 Q943.287 1846.41 946.713 1842.68 Q950.162 1838.93 955.995 1838.93 Q961.226 1838.93 964.259 1842.31 Q967.314 1845.67 967.314 1851.46 M963.055 1850.21 Q963.009 1846.71 961.087 1844.63 Q959.189 1842.54 956.041 1842.54 Q952.476 1842.54 950.324 1844.56 Q948.194 1846.57 947.87 1850.23 L963.055 1850.21 Z" fill="#000000" fill-rule="nonzero" fill-opacity="1" /><path clip-path="url(#clip140)" d="M991.365 1843.49 L991.365 1829.46 L995.624 1829.46 L995.624 1865.48 L991.365 1865.48 L991.365 1861.59 Q990.022 1863.91 987.962 1865.04 Q985.925 1866.15 983.055 1866.15 Q978.356 1866.15 975.393 1862.4 Q972.453 1858.65 972.453 1852.54 Q972.453 1846.43 975.393 1842.68 Q978.356 1838.93 983.055 1838.93 Q985.925 1838.93 987.962 1840.07 Q990.022 1841.18 991.365 1843.49 M976.851 1852.54 Q976.851 1857.24 978.773 1859.93 Q980.717 1862.59 984.097 1862.59 Q987.476 1862.59 989.421 1859.93 Q991.365 1857.24 991.365 1852.54 Q991.365 1847.84 989.421 1845.18 Q987.476 1842.5 984.097 1842.5 Q980.717 1842.5 978.773 1845.18 Q976.851 1847.84 976.851 1852.54 Z" fill="#000000" fill-rule="nonzero" fill-opacity="1" /><path clip-path="url(#clip140)" d="M1004.4 1829.46 L1008.66 1829.46 L1008.66 1865.48 L1004.4 1865.48 L1004.4 1829.46 Z" fill="#000000" fill-rule="nonzero" fill-opacity="1" /><path clip-path="url(#clip140)" d="M1017.57 1839.56 L1021.83 1839.56 L1021.83 1865.48 L1017.57 1865.48 L1017.57 1839.56 M1017.57 1829.46 L1021.83 1829.46 L1021.83 1834.86 L1017.57 1834.86 L1017.57 1829.46 Z" fill="#000000" fill-rule="nonzero" fill-opacity="1" /><path clip-path="url(#clip140)" d="M1052.29 1849.84 L1052.29 1865.48 L1048.03 1865.48 L1048.03 1849.97 Q1048.03 1846.29 1046.6 1844.46 Q1045.16 1842.64 1042.29 1842.64 Q1038.84 1842.64 1036.85 1844.84 Q1034.86 1847.03 1034.86 1850.83 L1034.86 1865.48 L1030.58 1865.48 L1030.58 1839.56 L1034.86 1839.56 L1034.86 1843.59 Q1036.39 1841.25 1038.45 1840.09 Q1040.53 1838.93 1043.24 1838.93 Q1047.71 1838.93 1050 1841.71 Q1052.29 1844.46 1052.29 1849.84 Z" fill="#000000" fill-rule="nonzero" fill-opacity="1" /><path clip-path="url(#clip140)" d="M1077.85 1852.22 Q1077.85 1847.59 1075.92 1845.04 Q1074.03 1842.5 1070.58 1842.5 Q1067.15 1842.5 1065.23 1845.04 Q1063.33 1847.59 1063.33 1852.22 Q1063.33 1856.83 1065.23 1859.37 Q1067.15 1861.92 1070.58 1861.92 Q1074.03 1861.92 1075.92 1859.37 Q1077.85 1856.83 1077.85 1852.22 M1082.11 1862.27 Q1082.11 1868.89 1079.17 1872.1 Q1076.23 1875.34 1070.16 1875.34 Q1067.92 1875.34 1065.92 1875 Q1063.93 1874.67 1062.06 1873.98 L1062.06 1869.84 Q1063.93 1870.85 1065.76 1871.34 Q1067.59 1871.83 1069.49 1871.83 Q1073.68 1871.83 1075.76 1869.63 Q1077.85 1867.45 1077.85 1863.03 L1077.85 1860.92 Q1076.53 1863.21 1074.47 1864.35 Q1072.41 1865.48 1069.54 1865.48 Q1064.77 1865.48 1061.85 1861.85 Q1058.93 1858.21 1058.93 1852.22 Q1058.93 1846.2 1061.85 1842.57 Q1064.77 1838.93 1069.54 1838.93 Q1072.41 1838.93 1074.47 1840.07 Q1076.53 1841.2 1077.85 1843.49 L1077.85 1839.56 L1082.11 1839.56 L1082.11 1862.27 Z" fill="#000000" fill-rule="nonzero" fill-opacity="1" /><path clip-path="url(#clip140)" d="M1392.24 1840.32 L1392.24 1844.35 Q1390.44 1843.42 1388.49 1842.96 Q1386.55 1842.5 1384.47 1842.5 Q1381.3 1842.5 1379.7 1843.47 Q1378.12 1844.44 1378.12 1846.39 Q1378.12 1847.87 1379.26 1848.72 Q1380.39 1849.56 1383.82 1850.32 L1385.28 1850.65 Q1389.81 1851.62 1391.71 1853.4 Q1393.63 1855.16 1393.63 1858.33 Q1393.63 1861.94 1390.76 1864.05 Q1387.92 1866.15 1382.92 1866.15 Q1380.83 1866.15 1378.56 1865.74 Q1376.32 1865.34 1373.82 1864.53 L1373.82 1860.14 Q1376.18 1861.36 1378.47 1861.99 Q1380.76 1862.59 1383.01 1862.59 Q1386.02 1862.59 1387.64 1861.57 Q1389.26 1860.53 1389.26 1858.65 Q1389.26 1856.92 1388.08 1855.99 Q1386.92 1855.07 1382.96 1854.21 L1381.48 1853.86 Q1377.52 1853.03 1375.76 1851.32 Q1374 1849.58 1374 1846.57 Q1374 1842.91 1376.6 1840.92 Q1379.19 1838.93 1383.96 1838.93 Q1386.32 1838.93 1388.4 1839.28 Q1390.49 1839.63 1392.24 1840.32 Z" fill="#000000" fill-rule="nonzero" fill-opacity="1" /><path clip-path="url(#clip140)" d="M1420.6 1844.53 Q1422.2 1841.66 1424.42 1840.3 Q1426.64 1838.93 1429.65 1838.93 Q1433.7 1838.93 1435.9 1841.78 Q1438.1 1844.6 1438.1 1849.84 L1438.1 1865.48 L1433.82 1865.48 L1433.82 1849.97 Q1433.82 1846.25 1432.5 1844.44 Q1431.18 1842.64 1428.47 1842.64 Q1425.16 1842.64 1423.24 1844.84 Q1421.32 1847.03 1421.32 1850.83 L1421.32 1865.48 L1417.04 1865.48 L1417.04 1849.97 Q1417.04 1846.22 1415.72 1844.44 Q1414.4 1842.64 1411.64 1842.64 Q1408.38 1842.64 1406.46 1844.86 Q1404.54 1847.06 1404.54 1850.83 L1404.54 1865.48 L1400.25 1865.48 L1400.25 1839.56 L1404.54 1839.56 L1404.54 1843.59 Q1405.99 1841.2 1408.03 1840.07 Q1410.07 1838.93 1412.87 1838.93 Q1415.69 1838.93 1417.66 1840.37 Q1419.65 1841.8 1420.6 1844.53 Z" fill="#000000" fill-rule="nonzero" fill-opacity="1" /><path clip-path="url(#clip140)" d="M1458.38 1852.45 Q1453.22 1852.45 1451.23 1853.63 Q1449.24 1854.81 1449.24 1857.66 Q1449.24 1859.93 1450.72 1861.27 Q1452.22 1862.59 1454.79 1862.59 Q1458.33 1862.59 1460.46 1860.09 Q1462.61 1857.57 1462.61 1853.4 L1462.61 1852.45 L1458.38 1852.45 M1466.87 1850.69 L1466.87 1865.48 L1462.61 1865.48 L1462.61 1861.55 Q1461.16 1863.91 1458.98 1865.04 Q1456.8 1866.15 1453.66 1866.15 Q1449.67 1866.15 1447.31 1863.93 Q1444.98 1861.69 1444.98 1857.94 Q1444.98 1853.56 1447.89 1851.34 Q1450.83 1849.12 1456.64 1849.12 L1462.61 1849.12 L1462.61 1848.7 Q1462.61 1845.76 1460.67 1844.16 Q1458.75 1842.54 1455.25 1842.54 Q1453.03 1842.54 1450.92 1843.08 Q1448.82 1843.61 1446.87 1844.67 L1446.87 1840.74 Q1449.21 1839.84 1451.41 1839.4 Q1453.61 1838.93 1455.69 1838.93 Q1461.32 1838.93 1464.1 1841.85 Q1466.87 1844.77 1466.87 1850.69 Z" fill="#000000" fill-rule="nonzero" fill-opacity="1" /><path clip-path="url(#clip140)" d="M1475.65 1829.46 L1479.91 1829.46 L1479.91 1865.48 L1475.65 1865.48 L1475.65 1829.46 Z" fill="#000000" fill-rule="nonzero" fill-opacity="1" /><path clip-path="url(#clip140)" d="M1488.82 1829.46 L1493.08 1829.46 L1493.08 1865.48 L1488.82 1865.48 L1488.82 1829.46 Z" fill="#000000" fill-rule="nonzero" fill-opacity="1" /><path clip-path="url(#clip140)" d="M1824.58 1829.46 L1828.84 1829.46 L1828.84 1865.48 L1824.58 1865.48 L1824.58 1829.46 Z" fill="#000000" fill-rule="nonzero" fill-opacity="1" /><path clip-path="url(#clip140)" d="M1849.54 1852.45 Q1844.37 1852.45 1842.38 1853.63 Q1840.39 1854.81 1840.39 1857.66 Q1840.39 1859.93 1841.87 1861.27 Q1843.38 1862.59 1845.95 1862.59 Q1849.49 1862.59 1851.62 1860.09 Q1853.77 1857.57 1853.77 1853.4 L1853.77 1852.45 L1849.54 1852.45 M1858.03 1850.69 L1858.03 1865.48 L1853.77 1865.48 L1853.77 1861.55 Q1852.31 1863.91 1850.14 1865.04 Q1847.96 1866.15 1844.81 1866.15 Q1840.83 1866.15 1838.47 1863.93 Q1836.13 1861.69 1836.13 1857.94 Q1836.13 1853.56 1839.05 1851.34 Q1841.99 1849.12 1847.8 1849.12 L1853.77 1849.12 L1853.77 1848.7 Q1853.77 1845.76 1851.83 1844.16 Q1849.91 1842.54 1846.41 1842.54 Q1844.19 1842.54 1842.08 1843.08 Q1839.98 1843.61 1838.03 1844.67 L1838.03 1840.74 Q1840.37 1839.84 1842.57 1839.4 Q1844.77 1838.93 1846.85 1838.93 Q1852.48 1838.93 1855.25 1841.85 Q1858.03 1844.77 1858.03 1850.69 Z" fill="#000000" fill-rule="nonzero" fill-opacity="1" /><path clip-path="url(#clip140)" d="M1881.83 1843.54 Q1881.11 1843.12 1880.25 1842.94 Q1879.42 1842.73 1878.4 1842.73 Q1874.79 1842.73 1872.85 1845.09 Q1870.92 1847.43 1870.92 1851.83 L1870.92 1865.48 L1866.64 1865.48 L1866.64 1839.56 L1870.92 1839.56 L1870.92 1843.59 Q1872.27 1841.22 1874.42 1840.09 Q1876.57 1838.93 1879.65 1838.93 Q1880.09 1838.93 1880.62 1839 Q1881.16 1839.05 1881.8 1839.16 L1881.83 1843.54 Z" fill="#000000" fill-rule="nonzero" fill-opacity="1" /><path clip-path="url(#clip140)" d="M1902.52 1852.22 Q1902.52 1847.59 1900.6 1845.04 Q1898.7 1842.5 1895.25 1842.5 Q1891.83 1842.5 1889.91 1845.04 Q1888.01 1847.59 1888.01 1852.22 Q1888.01 1856.83 1889.91 1859.37 Q1891.83 1861.92 1895.25 1861.92 Q1898.7 1861.92 1900.6 1859.37 Q1902.52 1856.83 1902.52 1852.22 M1906.78 1862.27 Q1906.78 1868.89 1903.84 1872.1 Q1900.9 1875.34 1894.84 1875.34 Q1892.59 1875.34 1890.6 1875 Q1888.61 1874.67 1886.74 1873.98 L1886.74 1869.84 Q1888.61 1870.85 1890.44 1871.34 Q1892.27 1871.83 1894.17 1871.83 Q1898.36 1871.83 1900.44 1869.63 Q1902.52 1867.45 1902.52 1863.03 L1902.52 1860.92 Q1901.2 1863.21 1899.14 1864.35 Q1897.08 1865.48 1894.21 1865.48 Q1889.44 1865.48 1886.53 1861.85 Q1883.61 1858.21 1883.61 1852.22 Q1883.61 1846.2 1886.53 1842.57 Q1889.44 1838.93 1894.21 1838.93 Q1897.08 1838.93 1899.14 1840.07 Q1901.2 1841.2 1902.52 1843.49 L1902.52 1839.56 L1906.78 1839.56 L1906.78 1862.27 Z" fill="#000000" fill-rule="nonzero" fill-opacity="1" /><path clip-path="url(#clip140)" d="M1937.73 1851.46 L1937.73 1853.54 L1918.15 1853.54 Q1918.42 1857.94 1920.79 1860.25 Q1923.17 1862.54 1927.41 1862.54 Q1929.86 1862.54 1932.15 1861.94 Q1934.47 1861.34 1936.73 1860.14 L1936.73 1864.16 Q1934.44 1865.14 1932.04 1865.65 Q1929.63 1866.15 1927.15 1866.15 Q1920.95 1866.15 1917.31 1862.54 Q1913.7 1858.93 1913.7 1852.78 Q1913.7 1846.41 1917.13 1842.68 Q1920.58 1838.93 1926.41 1838.93 Q1931.64 1838.93 1934.67 1842.31 Q1937.73 1845.67 1937.73 1851.46 M1933.47 1850.21 Q1933.42 1846.71 1931.5 1844.63 Q1929.61 1842.54 1926.46 1842.54 Q1922.89 1842.54 1920.74 1844.56 Q1918.61 1846.57 1918.29 1850.23 L1933.47 1850.21 Z" fill="#000000" fill-rule="nonzero" fill-opacity="1" /><path clip-path="url(#clip140)" d="M2238.26 1829.46 L2238.26 1833.01 L2234.19 1833.01 Q2231.9 1833.01 2230.99 1833.93 Q2230.12 1834.86 2230.12 1837.27 L2230.12 1839.56 L2237.13 1839.56 L2237.13 1842.87 L2230.12 1842.87 L2230.12 1865.48 L2225.83 1865.48 L2225.83 1842.87 L2221.76 1842.87 L2221.76 1839.56 L2225.83 1839.56 L2225.83 1837.75 Q2225.83 1833.42 2227.85 1831.46 Q2229.86 1829.46 2234.24 1829.46 L2238.26 1829.46 Z" fill="#000000" fill-rule="nonzero" fill-opacity="1" /><path clip-path="url(#clip140)" d="M2241.83 1829.46 L2246.09 1829.46 L2246.09 1865.48 L2241.83 1865.48 L2241.83 1829.46 Z" fill="#000000" fill-rule="nonzero" fill-opacity="1" /><path clip-path="url(#clip140)" d="M2265.05 1842.54 Q2261.62 1842.54 2259.63 1845.23 Q2257.64 1847.89 2257.64 1852.54 Q2257.64 1857.2 2259.61 1859.88 Q2261.6 1862.54 2265.05 1862.54 Q2268.45 1862.54 2270.44 1859.86 Q2272.43 1857.17 2272.43 1852.54 Q2272.43 1847.94 2270.44 1845.25 Q2268.45 1842.54 2265.05 1842.54 M2265.05 1838.93 Q2270.6 1838.93 2273.77 1842.54 Q2276.94 1846.15 2276.94 1852.54 Q2276.94 1858.91 2273.77 1862.54 Q2270.6 1866.15 2265.05 1866.15 Q2259.47 1866.15 2256.3 1862.54 Q2253.15 1858.91 2253.15 1852.54 Q2253.15 1846.15 2256.3 1842.54 Q2259.47 1838.93 2265.05 1838.93 Z" fill="#000000" fill-rule="nonzero" fill-opacity="1" /><path clip-path="url(#clip140)" d="M2281.53 1839.56 L2285.79 1839.56 L2291.11 1859.79 L2296.41 1839.56 L2301.43 1839.56 L2306.76 1859.79 L2312.06 1839.56 L2316.32 1839.56 L2309.54 1865.48 L2304.51 1865.48 L2298.93 1844.23 L2293.33 1865.48 L2288.31 1865.48 L2281.53 1839.56 Z" fill="#000000" fill-rule="nonzero" fill-opacity="1" /><path clip-path="url(#clip140)" d="M2344.95 1851.46 L2344.95 1853.54 L2325.37 1853.54 Q2325.65 1857.94 2328.01 1860.25 Q2330.39 1862.54 2334.63 1862.54 Q2337.08 1862.54 2339.37 1861.94 Q2341.69 1861.34 2343.96 1860.14 L2343.96 1864.16 Q2341.67 1865.14 2339.26 1865.65 Q2336.85 1866.15 2334.37 1866.15 Q2328.17 1866.15 2324.54 1862.54 Q2320.92 1858.93 2320.92 1852.78 Q2320.92 1846.41 2324.35 1842.68 Q2327.8 1838.93 2333.63 1838.93 Q2338.86 1838.93 2341.9 1842.31 Q2344.95 1845.67 2344.95 1851.46 M2340.69 1850.21 Q2340.65 1846.71 2338.73 1844.63 Q2336.83 1842.54 2333.68 1842.54 Q2330.11 1842.54 2327.96 1844.56 Q2325.83 1846.57 2325.51 1850.23 L2340.69 1850.21 Z" fill="#000000" fill-rule="nonzero" fill-opacity="1" /><path clip-path="url(#clip140)" d="M2366.97 1843.54 Q2366.25 1843.12 2365.39 1842.94 Q2364.56 1842.73 2363.54 1842.73 Q2359.93 1842.73 2357.98 1845.09 Q2356.06 1847.43 2356.06 1851.83 L2356.06 1865.48 L2351.78 1865.48 L2351.78 1839.56 L2356.06 1839.56 L2356.06 1843.59 Q2357.41 1841.22 2359.56 1840.09 Q2361.71 1838.93 2364.79 1838.93 Q2365.23 1838.93 2365.76 1839 Q2366.29 1839.05 2366.94 1839.16 L2366.97 1843.54 Z" fill="#000000" fill-rule="nonzero" fill-opacity="1" /><path clip-path="url(#clip140)" d="M2371.43 1839.56 L2375.69 1839.56 L2375.69 1865.48 L2371.43 1865.48 L2371.43 1839.56 M2371.43 1829.46 L2375.69 1829.46 L2375.69 1834.86 L2371.43 1834.86 L2371.43 1829.46 Z" fill="#000000" fill-rule="nonzero" fill-opacity="1" /><path clip-path="url(#clip140)" d="M2406.16 1849.84 L2406.16 1865.48 L2401.9 1865.48 L2401.9 1849.97 Q2401.9 1846.29 2400.46 1844.46 Q2399.03 1842.64 2396.16 1842.64 Q2392.71 1842.64 2390.72 1844.84 Q2388.73 1847.03 2388.73 1850.83 L2388.73 1865.48 L2384.44 1865.48 L2384.44 1839.56 L2388.73 1839.56 L2388.73 1843.59 Q2390.25 1841.25 2392.31 1840.09 Q2394.4 1838.93 2397.1 1838.93 Q2401.57 1838.93 2403.86 1841.71 Q2406.16 1844.46 2406.16 1849.84 Z" fill="#000000" fill-rule="nonzero" fill-opacity="1" /><path clip-path="url(#clip140)" d="M2431.71 1852.22 Q2431.71 1847.59 2429.79 1845.04 Q2427.89 1842.5 2424.44 1842.5 Q2421.02 1842.5 2419.1 1845.04 Q2417.2 1847.59 2417.2 1852.22 Q2417.2 1856.83 2419.1 1859.37 Q2421.02 1861.92 2424.44 1861.92 Q2427.89 1861.92 2429.79 1859.37 Q2431.71 1856.83 2431.71 1852.22 M2435.97 1862.27 Q2435.97 1868.89 2433.03 1872.1 Q2430.09 1875.34 2424.03 1875.34 Q2421.78 1875.34 2419.79 1875 Q2417.8 1874.67 2415.92 1873.98 L2415.92 1869.84 Q2417.8 1870.85 2419.63 1871.34 Q2421.46 1871.83 2423.35 1871.83 Q2427.54 1871.83 2429.63 1869.63 Q2431.71 1867.45 2431.71 1863.03 L2431.71 1860.92 Q2430.39 1863.21 2428.33 1864.35 Q2426.27 1865.48 2423.4 1865.48 Q2418.63 1865.48 2415.72 1861.85 Q2412.8 1858.21 2412.8 1852.22 Q2412.8 1846.2 2415.72 1842.57 Q2418.63 1838.93 2423.4 1838.93 Q2426.27 1838.93 2428.33 1840.07 Q2430.39 1841.2 2431.71 1843.49 L2431.71 1839.56 L2435.97 1839.56 L2435.97 1862.27 Z" fill="#000000" fill-rule="nonzero" fill-opacity="1" /><polyline clip-path="url(#clip140)" style="stroke:#000000; stroke-linecap:round; stroke-linejoin:round; stroke-width:4; stroke-opacity:1; fill:none" points="226.141,1800.78 226.141,127.792 "/>
<polyline clip-path="url(#clip140)" style="stroke:#000000; stroke-linecap:round; stroke-linejoin:round; stroke-width:4; stroke-opacity:1; fill:none" points="226.141,1800.78 245.038,1800.78 "/>
<polyline clip-path="url(#clip140)" style="stroke:#000000; stroke-linecap:round; stroke-linejoin:round; stroke-width:4; stroke-opacity:1; fill:none" points="226.141,1466.18 245.038,1466.18 "/>
<polyline clip-path="url(#clip140)" style="stroke:#000000; stroke-linecap:round; stroke-linejoin:round; stroke-width:4; stroke-opacity:1; fill:none" points="226.141,1131.58 245.038,1131.58 "/>
<polyline clip-path="url(#clip140)" style="stroke:#000000; stroke-linecap:round; stroke-linejoin:round; stroke-width:4; stroke-opacity:1; fill:none" points="226.141,796.987 245.038,796.987 "/>
<polyline clip-path="url(#clip140)" style="stroke:#000000; stroke-linecap:round; stroke-linejoin:round; stroke-width:4; stroke-opacity:1; fill:none" points="226.141,462.39 245.038,462.39 "/>
<polyline clip-path="url(#clip140)" style="stroke:#000000; stroke-linecap:round; stroke-linejoin:round; stroke-width:4; stroke-opacity:1; fill:none" points="226.141,127.792 245.038,127.792 "/>
<path clip-path="url(#clip140)" d="M128.645 1786.58 Q125.034 1786.58 123.205 1790.14 Q121.4 1793.68 121.4 1800.81 Q121.4 1807.92 123.205 1811.49 Q125.034 1815.03 128.645 1815.03 Q132.279 1815.03 134.085 1811.49 Q135.913 1807.92 135.913 1800.81 Q135.913 1793.68 134.085 1790.14 Q132.279 1786.58 128.645 1786.58 M128.645 1782.87 Q134.455 1782.87 137.511 1787.48 Q140.589 1792.06 140.589 1800.81 Q140.589 1809.54 137.511 1814.15 Q134.455 1818.73 128.645 1818.73 Q122.835 1818.73 119.756 1814.15 Q116.701 1809.54 116.701 1800.81 Q116.701 1792.06 119.756 1787.48 Q122.835 1782.87 128.645 1782.87 Z" fill="#000000" fill-rule="nonzero" fill-opacity="1" /><path clip-path="url(#clip140)" d="M148.807 1812.18 L153.691 1812.18 L153.691 1818.06 L148.807 1818.06 L148.807 1812.18 Z" fill="#000000" fill-rule="nonzero" fill-opacity="1" /><path clip-path="url(#clip140)" d="M173.876 1786.58 Q170.265 1786.58 168.436 1790.14 Q166.631 1793.68 166.631 1800.81 Q166.631 1807.92 168.436 1811.49 Q170.265 1815.03 173.876 1815.03 Q177.51 1815.03 179.316 1811.49 Q181.145 1807.92 181.145 1800.81 Q181.145 1793.68 179.316 1790.14 Q177.51 1786.58 173.876 1786.58 M173.876 1782.87 Q179.686 1782.87 182.742 1787.48 Q185.821 1792.06 185.821 1800.81 Q185.821 1809.54 182.742 1814.15 Q179.686 1818.73 173.876 1818.73 Q168.066 1818.73 164.987 1814.15 Q161.932 1809.54 161.932 1800.81 Q161.932 1792.06 164.987 1787.48 Q168.066 1782.87 173.876 1782.87 Z" fill="#000000" fill-rule="nonzero" fill-opacity="1" /><path clip-path="url(#clip140)" d="M130.242 1451.98 Q126.631 1451.98 124.802 1455.55 Q122.997 1459.09 122.997 1466.22 Q122.997 1473.32 124.802 1476.89 Q126.631 1480.43 130.242 1480.43 Q133.876 1480.43 135.682 1476.89 Q137.511 1473.32 137.511 1466.22 Q137.511 1459.09 135.682 1455.55 Q133.876 1451.98 130.242 1451.98 M130.242 1448.28 Q136.052 1448.28 139.108 1452.88 Q142.187 1457.47 142.187 1466.22 Q142.187 1474.94 139.108 1479.55 Q136.052 1484.13 130.242 1484.13 Q124.432 1484.13 121.353 1479.55 Q118.298 1474.94 118.298 1466.22 Q118.298 1457.47 121.353 1452.88 Q124.432 1448.28 130.242 1448.28 Z" fill="#000000" fill-rule="nonzero" fill-opacity="1" /><path clip-path="url(#clip140)" d="M150.404 1477.58 L155.288 1477.58 L155.288 1483.46 L150.404 1483.46 L150.404 1477.58 Z" fill="#000000" fill-rule="nonzero" fill-opacity="1" /><path clip-path="url(#clip140)" d="M169.501 1479.53 L185.821 1479.53 L185.821 1483.46 L163.876 1483.46 L163.876 1479.53 Q166.538 1476.77 171.122 1472.14 Q175.728 1467.49 176.909 1466.15 Q179.154 1463.62 180.034 1461.89 Q180.936 1460.13 180.936 1458.44 Q180.936 1455.68 178.992 1453.95 Q177.071 1452.21 173.969 1452.21 Q171.77 1452.21 169.316 1452.98 Q166.885 1453.74 164.108 1455.29 L164.108 1450.57 Q166.932 1449.43 169.385 1448.86 Q171.839 1448.28 173.876 1448.28 Q179.247 1448.28 182.441 1450.96 Q185.635 1453.65 185.635 1458.14 Q185.635 1460.27 184.825 1462.19 Q184.038 1464.09 181.932 1466.68 Q181.353 1467.35 178.251 1470.57 Q175.149 1473.76 169.501 1479.53 Z" fill="#000000" fill-rule="nonzero" fill-opacity="1" /><path clip-path="url(#clip140)" d="M128.159 1117.38 Q124.548 1117.38 122.719 1120.95 Q120.913 1124.49 120.913 1131.62 Q120.913 1138.73 122.719 1142.29 Q124.548 1145.83 128.159 1145.83 Q131.793 1145.83 133.599 1142.29 Q135.427 1138.73 135.427 1131.62 Q135.427 1124.49 133.599 1120.95 Q131.793 1117.38 128.159 1117.38 M128.159 1113.68 Q133.969 1113.68 137.025 1118.29 Q140.103 1122.87 140.103 1131.62 Q140.103 1140.35 137.025 1144.95 Q133.969 1149.54 128.159 1149.54 Q122.349 1149.54 119.27 1144.95 Q116.214 1140.35 116.214 1131.62 Q116.214 1122.87 119.27 1118.29 Q122.349 1113.68 128.159 1113.68 Z" fill="#000000" fill-rule="nonzero" fill-opacity="1" /><path clip-path="url(#clip140)" d="M148.321 1142.98 L153.205 1142.98 L153.205 1148.86 L148.321 1148.86 L148.321 1142.98 Z" fill="#000000" fill-rule="nonzero" fill-opacity="1" /><path clip-path="url(#clip140)" d="M176.237 1118.38 L164.432 1136.83 L176.237 1136.83 L176.237 1118.38 M175.01 1114.3 L180.89 1114.3 L180.89 1136.83 L185.821 1136.83 L185.821 1140.72 L180.89 1140.72 L180.89 1148.86 L176.237 1148.86 L176.237 1140.72 L160.636 1140.72 L160.636 1136.2 L175.01 1114.3 Z" fill="#000000" fill-rule="nonzero" fill-opacity="1" /><path clip-path="url(#clip140)" d="M128.483 782.786 Q124.872 782.786 123.043 786.35 Q121.238 789.892 121.238 797.022 Q121.238 804.128 123.043 807.693 Q124.872 811.235 128.483 811.235 Q132.117 811.235 133.923 807.693 Q135.751 804.128 135.751 797.022 Q135.751 789.892 133.923 786.35 Q132.117 782.786 128.483 782.786 M128.483 779.082 Q134.293 779.082 137.349 783.688 Q140.427 788.272 140.427 797.022 Q140.427 805.749 137.349 810.355 Q134.293 814.938 128.483 814.938 Q122.673 814.938 119.594 810.355 Q116.539 805.749 116.539 797.022 Q116.539 788.272 119.594 783.688 Q122.673 779.082 128.483 779.082 Z" fill="#000000" fill-rule="nonzero" fill-opacity="1" /><path clip-path="url(#clip140)" d="M148.645 808.387 L153.529 808.387 L153.529 814.267 L148.645 814.267 L148.645 808.387 Z" fill="#000000" fill-rule="nonzero" fill-opacity="1" /><path clip-path="url(#clip140)" d="M174.293 795.124 Q171.145 795.124 169.293 797.276 Q167.464 799.429 167.464 803.179 Q167.464 806.906 169.293 809.082 Q171.145 811.235 174.293 811.235 Q177.441 811.235 179.27 809.082 Q181.122 806.906 181.122 803.179 Q181.122 799.429 179.27 797.276 Q177.441 795.124 174.293 795.124 M183.575 780.471 L183.575 784.73 Q181.816 783.897 180.01 783.457 Q178.228 783.017 176.469 783.017 Q171.839 783.017 169.385 786.142 Q166.955 789.267 166.608 795.587 Q167.973 793.573 170.034 792.508 Q172.094 791.42 174.571 791.42 Q179.779 791.42 182.788 794.591 Q185.821 797.739 185.821 803.179 Q185.821 808.503 182.672 811.721 Q179.524 814.938 174.293 814.938 Q168.297 814.938 165.126 810.355 Q161.955 805.749 161.955 797.022 Q161.955 788.827 165.844 783.966 Q169.733 779.082 176.284 779.082 Q178.043 779.082 179.825 779.429 Q181.631 779.776 183.575 780.471 Z" fill="#000000" fill-rule="nonzero" fill-opacity="1" /><path clip-path="url(#clip140)" d="M128.738 448.188 Q125.126 448.188 123.298 451.753 Q121.492 455.295 121.492 462.424 Q121.492 469.531 123.298 473.096 Q125.126 476.637 128.738 476.637 Q132.372 476.637 134.177 473.096 Q136.006 469.531 136.006 462.424 Q136.006 455.295 134.177 451.753 Q132.372 448.188 128.738 448.188 M128.738 444.485 Q134.548 444.485 137.603 449.091 Q140.682 453.674 140.682 462.424 Q140.682 471.151 137.603 475.758 Q134.548 480.341 128.738 480.341 Q122.927 480.341 119.849 475.758 Q116.793 471.151 116.793 462.424 Q116.793 453.674 119.849 449.091 Q122.927 444.485 128.738 444.485 Z" fill="#000000" fill-rule="nonzero" fill-opacity="1" /><path clip-path="url(#clip140)" d="M148.899 473.79 L153.784 473.79 L153.784 479.67 L148.899 479.67 L148.899 473.79 Z" fill="#000000" fill-rule="nonzero" fill-opacity="1" /><path clip-path="url(#clip140)" d="M173.969 463.258 Q170.635 463.258 168.714 465.04 Q166.816 466.822 166.816 469.947 Q166.816 473.072 168.714 474.855 Q170.635 476.637 173.969 476.637 Q177.302 476.637 179.223 474.855 Q181.145 473.049 181.145 469.947 Q181.145 466.822 179.223 465.04 Q177.325 463.258 173.969 463.258 M169.293 461.267 Q166.284 460.526 164.594 458.466 Q162.927 456.406 162.927 453.443 Q162.927 449.299 165.867 446.892 Q168.83 444.485 173.969 444.485 Q179.131 444.485 182.071 446.892 Q185.01 449.299 185.01 453.443 Q185.01 456.406 183.321 458.466 Q181.654 460.526 178.668 461.267 Q182.047 462.054 183.922 464.346 Q185.821 466.637 185.821 469.947 Q185.821 474.971 182.742 477.656 Q179.686 480.341 173.969 480.341 Q168.251 480.341 165.173 477.656 Q162.117 474.971 162.117 469.947 Q162.117 466.637 164.015 464.346 Q165.913 462.054 169.293 461.267 M167.58 453.883 Q167.58 456.568 169.247 458.072 Q170.936 459.577 173.969 459.577 Q176.978 459.577 178.668 458.072 Q180.381 456.568 180.381 453.883 Q180.381 451.197 178.668 449.693 Q176.978 448.188 173.969 448.188 Q170.936 448.188 169.247 449.693 Q167.58 451.197 167.58 453.883 Z" fill="#000000" fill-rule="nonzero" fill-opacity="1" /><path clip-path="url(#clip140)" d="M119.455 141.137 L127.094 141.137 L127.094 114.771 L118.784 116.438 L118.784 112.179 L127.048 110.512 L131.724 110.512 L131.724 141.137 L139.362 141.137 L139.362 145.072 L119.455 145.072 L119.455 141.137 Z" fill="#000000" fill-rule="nonzero" fill-opacity="1" /><path clip-path="url(#clip140)" d="M148.807 139.193 L153.691 139.193 L153.691 145.072 L148.807 145.072 L148.807 139.193 Z" fill="#000000" fill-rule="nonzero" fill-opacity="1" /><path clip-path="url(#clip140)" d="M173.876 113.591 Q170.265 113.591 168.436 117.156 Q166.631 120.697 166.631 127.827 Q166.631 134.933 168.436 138.498 Q170.265 142.04 173.876 142.04 Q177.51 142.04 179.316 138.498 Q181.145 134.933 181.145 127.827 Q181.145 120.697 179.316 117.156 Q177.51 113.591 173.876 113.591 M173.876 109.887 Q179.686 109.887 182.742 114.494 Q185.821 119.077 185.821 127.827 Q185.821 136.554 182.742 141.16 Q179.686 145.743 173.876 145.743 Q168.066 145.743 164.987 141.16 Q161.932 136.554 161.932 127.827 Q161.932 119.077 164.987 114.494 Q168.066 109.887 173.876 109.887 Z" fill="#000000" fill-rule="nonzero" fill-opacity="1" /><path clip-path="url(#clip140)" d="M15.678 1246.24 L21.9483 1246.24 Q20.1977 1249.9 19.3383 1253.15 Q18.479 1256.39 18.479 1259.42 Q18.479 1264.67 20.516 1267.53 Q22.553 1270.36 26.3088 1270.36 Q29.4598 1270.36 31.0831 1268.49 Q32.6745 1266.58 33.6612 1261.29 L34.4569 1257.41 Q35.8255 1250.22 39.2948 1246.81 Q42.7323 1243.37 48.5251 1243.37 Q55.4319 1243.37 58.9967 1248.02 Q62.5615 1252.64 62.5615 1261.58 Q62.5615 1264.95 61.7976 1268.77 Q61.0337 1272.56 59.5378 1276.64 L52.9174 1276.64 Q55.1136 1272.72 56.2276 1268.96 Q57.3416 1265.21 57.3416 1261.58 Q57.3416 1256.07 55.1773 1253.08 Q53.0129 1250.09 49.0025 1250.09 Q45.5014 1250.09 43.528 1252.25 Q41.5546 1254.39 40.568 1259.29 L39.8041 1263.2 Q38.3718 1270.4 35.3162 1273.61 Q32.2607 1276.83 26.818 1276.83 Q20.516 1276.83 16.8875 1272.4 Q13.2591 1267.95 13.2591 1260.15 Q13.2591 1256.81 13.8638 1253.34 Q14.4686 1249.87 15.678 1246.24 Z" fill="#000000" fill-rule="nonzero" fill-opacity="1" /><path clip-path="url(#clip140)" d="M47.5702 1234.21 L25.9905 1234.21 L25.9905 1228.35 L47.3474 1228.35 Q52.4082 1228.35 54.9545 1226.38 Q57.4689 1224.4 57.4689 1220.46 Q57.4689 1215.72 54.4452 1212.98 Q51.4215 1210.21 46.2016 1210.21 L25.9905 1210.21 L25.9905 1204.35 L61.6384 1204.35 L61.6384 1210.21 L56.1639 1210.21 Q59.4104 1212.34 61.0019 1215.17 Q62.5615 1217.98 62.5615 1221.7 Q62.5615 1227.84 58.742 1231.02 Q54.9226 1234.21 47.5702 1234.21 M25.1311 1219.47 L25.1311 1219.47 Z" fill="#000000" fill-rule="nonzero" fill-opacity="1" /><path clip-path="url(#clip140)" d="M31.465 1171.63 Q30.8921 1172.62 30.6375 1173.8 Q30.351 1174.94 30.351 1176.34 Q30.351 1181.31 33.5975 1183.98 Q36.8122 1186.62 42.8596 1186.62 L61.6384 1186.62 L61.6384 1192.51 L25.9905 1192.51 L25.9905 1186.62 L31.5287 1186.62 Q28.2821 1184.78 26.7225 1181.82 Q25.1311 1178.86 25.1311 1174.62 Q25.1311 1174.02 25.2266 1173.29 Q25.2903 1172.56 25.4494 1171.66 L31.465 1171.63 Z" fill="#000000" fill-rule="nonzero" fill-opacity="1" /><path clip-path="url(#clip140)" d="M25.9905 1169.69 L25.9905 1163.48 L55.9093 1152.34 L25.9905 1141.2 L25.9905 1135 L61.6384 1148.37 L61.6384 1156.32 L25.9905 1169.69 Z" fill="#000000" fill-rule="nonzero" fill-opacity="1" /><path clip-path="url(#clip140)" d="M25.9905 1126.91 L25.9905 1121.06 L61.6384 1121.06 L61.6384 1126.91 L25.9905 1126.91 M12.1132 1126.91 L12.1132 1121.06 L19.5293 1121.06 L19.5293 1126.91 L12.1132 1126.91 Z" fill="#000000" fill-rule="nonzero" fill-opacity="1" /><path clip-path="url(#clip140)" d="M25.9905 1113 L25.9905 1106.8 L55.9093 1095.66 L25.9905 1084.52 L25.9905 1078.31 L61.6384 1091.68 L61.6384 1099.64 L25.9905 1113 Z" fill="#000000" fill-rule="nonzero" fill-opacity="1" /><path clip-path="url(#clip140)" d="M43.719 1054.03 Q43.719 1061.12 45.3422 1063.86 Q46.9655 1066.6 50.8804 1066.6 Q53.9996 1066.6 55.8457 1064.56 Q57.6599 1062.49 57.6599 1058.96 Q57.6599 1054.09 54.2224 1051.16 Q50.7531 1048.2 45.0239 1048.2 L43.719 1048.2 L43.719 1054.03 M41.3 1042.35 L61.6384 1042.35 L61.6384 1048.2 L56.2276 1048.2 Q59.4741 1050.21 61.0337 1053.2 Q62.5615 1056.19 62.5615 1060.52 Q62.5615 1065.99 59.5059 1069.24 Q56.4186 1072.45 51.2623 1072.45 Q45.2467 1072.45 42.1912 1068.44 Q39.1357 1064.4 39.1357 1056.41 L39.1357 1048.2 L38.5628 1048.2 Q34.5205 1048.2 32.3244 1050.88 Q30.0964 1053.52 30.0964 1058.32 Q30.0964 1061.38 30.8284 1064.28 Q31.5605 1067.17 33.0246 1069.85 L27.6137 1069.85 Q26.3724 1066.63 25.7677 1063.61 Q25.1311 1060.58 25.1311 1057.72 Q25.1311 1049.98 29.1415 1046.16 Q33.1519 1042.35 41.3 1042.35 Z" fill="#000000" fill-rule="nonzero" fill-opacity="1" /><path clip-path="url(#clip140)" d="M12.1132 1030.28 L12.1132 1024.43 L61.6384 1024.43 L61.6384 1030.28 L12.1132 1030.28 Z" fill="#000000" fill-rule="nonzero" fill-opacity="1" /><path clip-path="url(#clip140)" d="M56.2912 985.786 L75.1974 985.786 L75.1974 991.674 L25.9905 991.674 L25.9905 985.786 L31.4013 985.786 Q28.2185 983.94 26.6907 981.139 Q25.1311 978.306 25.1311 974.391 Q25.1311 967.898 30.2873 963.856 Q35.4436 959.782 43.8463 959.782 Q52.249 959.782 57.4052 963.856 Q62.5615 967.898 62.5615 974.391 Q62.5615 978.306 61.0337 981.139 Q59.4741 983.94 56.2912 985.786 M43.8463 965.861 Q37.3851 965.861 33.7248 968.535 Q30.0327 971.177 30.0327 975.824 Q30.0327 980.471 33.7248 983.144 Q37.3851 985.786 43.8463 985.786 Q50.3075 985.786 53.9996 983.144 Q57.6599 980.471 57.6599 975.824 Q57.6599 971.177 53.9996 968.535 Q50.3075 965.861 43.8463 965.861 Z" fill="#000000" fill-rule="nonzero" fill-opacity="1" /><path clip-path="url(#clip140)" d="M31.465 929.418 Q30.8921 930.404 30.6375 931.582 Q30.351 932.728 30.351 934.128 Q30.351 939.093 33.5975 941.767 Q36.8122 944.409 42.8596 944.409 L61.6384 944.409 L61.6384 950.297 L25.9905 950.297 L25.9905 944.409 L31.5287 944.409 Q28.2821 942.563 26.7225 939.603 Q25.1311 936.643 25.1311 932.409 Q25.1311 931.805 25.2266 931.073 Q25.2903 930.341 25.4494 929.449 L31.465 929.418 Z" fill="#000000" fill-rule="nonzero" fill-opacity="1" /><path clip-path="url(#clip140)" d="M30.0964 910.893 Q30.0964 915.604 33.7885 918.341 Q37.4488 921.078 43.8463 921.078 Q50.2438 921.078 53.9359 918.373 Q57.5962 915.636 57.5962 910.893 Q57.5962 906.215 53.9041 903.477 Q50.212 900.74 43.8463 900.74 Q37.5124 900.74 33.8203 903.477 Q30.0964 906.215 30.0964 910.893 M25.1311 910.893 Q25.1311 903.255 30.0964 898.894 Q35.0616 894.533 43.8463 894.533 Q52.5991 894.533 57.5962 898.894 Q62.5615 903.255 62.5615 910.893 Q62.5615 918.564 57.5962 922.925 Q52.5991 927.253 43.8463 927.253 Q35.0616 927.253 30.0964 922.925 Q25.1311 918.564 25.1311 910.893 Z" fill="#000000" fill-rule="nonzero" fill-opacity="1" /><path clip-path="url(#clip140)" d="M43.8463 859.236 Q37.3851 859.236 33.7248 861.909 Q30.0327 864.551 30.0327 869.198 Q30.0327 873.845 33.7248 876.519 Q37.3851 879.16 43.8463 879.16 Q50.3075 879.16 53.9996 876.519 Q57.6599 873.845 57.6599 869.198 Q57.6599 864.551 53.9996 861.909 Q50.3075 859.236 43.8463 859.236 M31.4013 879.16 Q28.2185 877.314 26.6907 874.513 Q25.1311 871.681 25.1311 867.766 Q25.1311 861.273 30.2873 857.23 Q35.4436 853.156 43.8463 853.156 Q52.249 853.156 57.4052 857.23 Q62.5615 861.273 62.5615 867.766 Q62.5615 871.681 61.0337 874.513 Q59.4741 877.314 56.2912 879.16 L61.6384 879.16 L61.6384 885.049 L12.1132 885.049 L12.1132 879.16 L31.4013 879.16 Z" fill="#000000" fill-rule="nonzero" fill-opacity="1" /><path clip-path="url(#clip140)" d="M43.719 827.248 Q43.719 834.346 45.3422 837.083 Q46.9655 839.82 50.8804 839.82 Q53.9996 839.82 55.8457 837.783 Q57.6599 835.714 57.6599 832.181 Q57.6599 827.312 54.2224 824.383 Q50.7531 821.423 45.0239 821.423 L43.719 821.423 L43.719 827.248 M41.3 815.567 L61.6384 815.567 L61.6384 821.423 L56.2276 821.423 Q59.4741 823.429 61.0337 826.42 Q62.5615 829.412 62.5615 833.741 Q62.5615 839.215 59.5059 842.462 Q56.4186 845.677 51.2623 845.677 Q45.2467 845.677 42.1912 841.666 Q39.1357 837.624 39.1357 829.635 L39.1357 821.423 L38.5628 821.423 Q34.5205 821.423 32.3244 824.097 Q30.0964 826.739 30.0964 831.545 Q30.0964 834.6 30.8284 837.497 Q31.5605 840.393 33.0246 843.067 L27.6137 843.067 Q26.3724 839.852 25.7677 836.828 Q25.1311 833.805 25.1311 830.94 Q25.1311 823.206 29.1415 819.386 Q33.1519 815.567 41.3 815.567 Z" fill="#000000" fill-rule="nonzero" fill-opacity="1" /><path clip-path="url(#clip140)" d="M43.8463 777.914 Q37.3851 777.914 33.7248 780.587 Q30.0327 783.229 30.0327 787.876 Q30.0327 792.523 33.7248 795.197 Q37.3851 797.838 43.8463 797.838 Q50.3075 797.838 53.9996 795.197 Q57.6599 792.523 57.6599 787.876 Q57.6599 783.229 53.9996 780.587 Q50.3075 777.914 43.8463 777.914 M31.4013 797.838 Q28.2185 795.992 26.6907 793.191 Q25.1311 790.359 25.1311 786.444 Q25.1311 779.951 30.2873 775.909 Q35.4436 771.834 43.8463 771.834 Q52.249 771.834 57.4052 775.909 Q62.5615 779.951 62.5615 786.444 Q62.5615 790.359 61.0337 793.191 Q59.4741 795.992 56.2912 797.838 L61.6384 797.838 L61.6384 803.727 L12.1132 803.727 L12.1132 797.838 L31.4013 797.838 Z" fill="#000000" fill-rule="nonzero" fill-opacity="1" /><path clip-path="url(#clip140)" d="M25.9905 762.127 L25.9905 756.27 L61.6384 756.27 L61.6384 762.127 L25.9905 762.127 M12.1132 762.127 L12.1132 756.27 L19.5293 756.27 L19.5293 762.127 L12.1132 762.127 Z" fill="#000000" fill-rule="nonzero" fill-opacity="1" /><path clip-path="url(#clip140)" d="M12.1132 744.016 L12.1132 738.16 L61.6384 738.16 L61.6384 744.016 L12.1132 744.016 Z" fill="#000000" fill-rule="nonzero" fill-opacity="1" /><path clip-path="url(#clip140)" d="M25.9905 725.906 L25.9905 720.049 L61.6384 720.049 L61.6384 725.906 L25.9905 725.906 M12.1132 725.906 L12.1132 720.049 L19.5293 720.049 L19.5293 725.906 L12.1132 725.906 Z" fill="#000000" fill-rule="nonzero" fill-opacity="1" /><path clip-path="url(#clip140)" d="M15.869 702.003 L25.9905 702.003 L25.9905 689.94 L30.542 689.94 L30.542 702.003 L49.8937 702.003 Q54.2542 702.003 55.4955 700.825 Q56.7368 699.616 56.7368 695.955 L56.7368 689.94 L61.6384 689.94 L61.6384 695.955 Q61.6384 702.735 59.124 705.313 Q56.5777 707.891 49.8937 707.891 L30.542 707.891 L30.542 712.188 L25.9905 712.188 L25.9905 707.891 L15.869 707.891 L15.869 702.003 Z" fill="#000000" fill-rule="nonzero" fill-opacity="1" /><path clip-path="url(#clip140)" d="M64.9486 667.405 Q71.3143 669.888 73.2559 672.243 Q75.1974 674.598 75.1974 678.545 L75.1974 683.224 L70.2958 683.224 L70.2958 679.786 Q70.2958 677.367 69.15 676.031 Q68.0041 674.694 63.7391 673.071 L61.0655 672.02 L25.9905 686.439 L25.9905 680.232 L53.8723 669.092 L25.9905 657.952 L25.9905 651.745 L64.9486 667.405 Z" fill="#000000" fill-rule="nonzero" fill-opacity="1" /><path clip-path="url(#clip140)" d="M1011.73 14.0809 L1011.73 22.0612 Q1007.07 19.8332 1002.94 18.7395 Q998.806 17.6457 994.958 17.6457 Q988.274 17.6457 984.628 20.2383 Q981.023 22.8309 981.023 27.611 Q981.023 31.6214 983.413 33.6873 Q985.844 35.7128 992.568 36.9686 L997.51 37.9813 Q1006.67 39.7232 1011 44.1387 Q1015.37 48.5136 1015.37 55.8863 Q1015.37 64.6767 1009.46 69.2137 Q1003.59 73.7508 992.203 73.7508 Q987.91 73.7508 983.048 72.7785 Q978.228 71.8063 973.043 69.9024 L973.043 61.4765 Q978.025 64.2716 982.805 65.6895 Q987.585 67.1073 992.203 67.1073 Q999.212 67.1073 1003.02 64.3527 Q1006.83 61.598 1006.83 56.4939 Q1006.83 52.0379 1004.07 49.5264 Q1001.36 47.0148 995.12 45.759 L990.138 44.7868 Q980.982 42.9639 976.891 39.075 Q972.8 35.1862 972.8 28.2591 Q972.8 20.2383 978.43 15.6203 Q984.102 11.0023 994.026 11.0023 Q998.28 11.0023 1002.7 11.7719 Q1007.11 12.5416 1011.73 14.0809 Z" fill="#000000" fill-rule="nonzero" fill-opacity="1" /><path clip-path="url(#clip140)" d="M1035.18 14.324 L1035.18 27.2059 L1050.54 27.2059 L1050.54 32.9987 L1035.18 32.9987 L1035.18 57.6282 Q1035.18 63.1779 1036.68 64.7578 Q1038.22 66.3376 1042.88 66.3376 L1050.54 66.3376 L1050.54 72.576 L1042.88 72.576 Q1034.25 72.576 1030.97 69.3758 Q1027.69 66.1351 1027.69 57.6282 L1027.69 32.9987 L1022.22 32.9987 L1022.22 27.2059 L1027.69 27.2059 L1027.69 14.324 L1035.18 14.324 Z" fill="#000000" fill-rule="nonzero" fill-opacity="1" /><path clip-path="url(#clip140)" d="M1080.96 49.7694 Q1071.93 49.7694 1068.44 51.8354 Q1064.96 53.9013 1064.96 58.8839 Q1064.96 62.8538 1067.55 65.2034 Q1070.18 67.5124 1074.68 67.5124 Q1080.88 67.5124 1084.6 63.1374 Q1088.37 58.7219 1088.37 51.4303 L1088.37 49.7694 L1080.96 49.7694 M1095.83 46.6907 L1095.83 72.576 L1088.37 72.576 L1088.37 65.6895 Q1085.82 69.8214 1082.01 71.8063 Q1078.2 73.7508 1072.69 73.7508 Q1065.73 73.7508 1061.6 69.8619 Q1057.5 65.9325 1057.5 59.3701 Q1057.5 51.7138 1062.61 47.825 Q1067.75 43.9361 1077.92 43.9361 L1088.37 43.9361 L1088.37 43.2069 Q1088.37 38.0623 1084.97 35.2672 Q1081.61 32.4315 1075.49 32.4315 Q1071.6 32.4315 1067.91 33.3632 Q1064.23 34.295 1060.83 36.1584 L1060.83 29.2718 Q1064.92 27.692 1068.77 26.9223 Q1072.61 26.1121 1076.26 26.1121 Q1086.1 26.1121 1090.96 31.2163 Q1095.83 36.3204 1095.83 46.6907 Z" fill="#000000" fill-rule="nonzero" fill-opacity="1" /><path clip-path="url(#clip140)" d="M1141.03 49.3643 Q1141.03 41.2625 1137.67 36.8065 Q1134.35 32.3505 1128.31 32.3505 Q1122.32 32.3505 1118.96 36.8065 Q1115.63 41.2625 1115.63 49.3643 Q1115.63 57.4256 1118.96 61.8816 Q1122.32 66.3376 1128.31 66.3376 Q1134.35 66.3376 1137.67 61.8816 Q1141.03 57.4256 1141.03 49.3643 M1148.49 66.9452 Q1148.49 78.5308 1143.34 84.1616 Q1138.2 89.8329 1127.58 89.8329 Q1123.66 89.8329 1120.17 89.2252 Q1116.69 88.6581 1113.41 87.4428 L1113.41 80.1917 Q1116.69 81.9741 1119.89 82.8248 Q1123.09 83.6755 1126.41 83.6755 Q1133.74 83.6755 1137.39 79.8271 Q1141.03 76.0193 1141.03 68.282 L1141.03 64.5957 Q1138.72 68.6061 1135.12 70.5911 Q1131.51 72.576 1126.49 72.576 Q1118.15 72.576 1113.04 66.2161 Q1107.94 59.8562 1107.94 49.3643 Q1107.94 38.832 1113.04 32.472 Q1118.15 26.1121 1126.49 26.1121 Q1131.51 26.1121 1135.12 28.0971 Q1138.72 30.082 1141.03 34.0924 L1141.03 27.2059 L1148.49 27.2059 L1148.49 66.9452 Z" fill="#000000" fill-rule="nonzero" fill-opacity="1" /><path clip-path="url(#clip140)" d="M1202.65 48.0275 L1202.65 51.6733 L1168.38 51.6733 Q1168.86 59.3701 1173 63.421 Q1177.17 67.4314 1184.58 67.4314 Q1188.87 67.4314 1192.89 66.3781 Q1196.94 65.3249 1200.91 63.2184 L1200.91 70.267 Q1196.9 71.9684 1192.68 72.8596 Q1188.47 73.7508 1184.14 73.7508 Q1173.28 73.7508 1166.92 67.4314 Q1160.6 61.1119 1160.6 50.3365 Q1160.6 39.1965 1166.59 32.6746 Q1172.63 26.1121 1182.84 26.1121 Q1191.99 26.1121 1197.3 32.0264 Q1202.65 37.9003 1202.65 48.0275 M1195.19 45.84 Q1195.11 39.7232 1191.75 36.0774 Q1188.43 32.4315 1182.92 32.4315 Q1176.68 32.4315 1172.91 35.9558 Q1169.19 39.4801 1168.62 45.8805 L1195.19 45.84 Z" fill="#000000" fill-rule="nonzero" fill-opacity="1" /><path clip-path="url(#clip140)" d="M1211.11 46.5287 L1232.95 46.5287 L1232.95 53.1722 L1211.11 53.1722 L1211.11 46.5287 Z" fill="#000000" fill-rule="nonzero" fill-opacity="1" /><path clip-path="url(#clip140)" d="M1273.74 28.5427 L1273.74 35.5912 Q1270.58 33.9709 1267.18 33.1607 Q1263.78 32.3505 1260.13 32.3505 Q1254.58 32.3505 1251.79 34.0519 Q1249.03 35.7533 1249.03 39.156 Q1249.03 41.7486 1251.02 43.2475 Q1253 44.7058 1259 46.0426 L1261.55 46.6097 Q1269.49 48.3111 1272.81 51.4303 Q1276.17 54.509 1276.17 60.0587 Q1276.17 66.3781 1271.15 70.0644 Q1266.17 73.7508 1257.42 73.7508 Q1253.77 73.7508 1249.8 73.0216 Q1245.87 72.3329 1241.5 70.9151 L1241.5 63.2184 Q1245.63 65.3654 1249.64 66.4591 Q1253.65 67.5124 1257.58 67.5124 Q1262.84 67.5124 1265.68 65.73 Q1268.52 63.9071 1268.52 60.6258 Q1268.52 57.5877 1266.45 55.9673 Q1264.42 54.3469 1257.5 52.8481 L1254.9 52.2405 Q1247.98 50.7821 1244.9 47.7845 Q1241.82 44.7463 1241.82 39.4801 Q1241.82 33.0797 1246.36 29.5959 Q1250.89 26.1121 1259.24 26.1121 Q1263.37 26.1121 1267.02 26.7198 Q1270.66 27.3274 1273.74 28.5427 Z" fill="#000000" fill-rule="nonzero" fill-opacity="1" /><path clip-path="url(#clip140)" d="M1295.25 65.7705 L1295.25 89.8329 L1287.76 89.8329 L1287.76 27.2059 L1295.25 27.2059 L1295.25 34.0924 Q1297.6 30.0415 1301.17 28.0971 Q1304.77 26.1121 1309.75 26.1121 Q1318.02 26.1121 1323.16 32.6746 Q1328.35 39.2371 1328.35 49.9314 Q1328.35 60.6258 1323.16 67.1883 Q1318.02 73.7508 1309.75 73.7508 Q1304.77 73.7508 1301.17 71.8063 Q1297.6 69.8214 1295.25 65.7705 M1320.61 49.9314 Q1320.61 41.7081 1317.21 37.0496 Q1313.85 32.3505 1307.93 32.3505 Q1302.02 32.3505 1298.61 37.0496 Q1295.25 41.7081 1295.25 49.9314 Q1295.25 58.1548 1298.61 62.8538 Q1302.02 67.5124 1307.93 67.5124 Q1313.85 67.5124 1317.21 62.8538 Q1320.61 58.1548 1320.61 49.9314 Z" fill="#000000" fill-rule="nonzero" fill-opacity="1" /><path clip-path="url(#clip140)" d="M1379.51 48.0275 L1379.51 51.6733 L1345.24 51.6733 Q1345.73 59.3701 1349.86 63.421 Q1354.03 67.4314 1361.44 67.4314 Q1365.74 67.4314 1369.75 66.3781 Q1373.8 65.3249 1377.77 63.2184 L1377.77 70.267 Q1373.76 71.9684 1369.55 72.8596 Q1365.33 73.7508 1361 73.7508 Q1350.14 73.7508 1343.78 67.4314 Q1337.46 61.1119 1337.46 50.3365 Q1337.46 39.1965 1343.46 32.6746 Q1349.49 26.1121 1359.7 26.1121 Q1368.86 26.1121 1374.16 32.0264 Q1379.51 37.9003 1379.51 48.0275 M1372.06 45.84 Q1371.98 39.7232 1368.61 36.0774 Q1365.29 32.4315 1359.78 32.4315 Q1353.54 32.4315 1349.78 35.9558 Q1346.05 39.4801 1345.48 45.8805 L1372.06 45.84 Z" fill="#000000" fill-rule="nonzero" fill-opacity="1" /><path clip-path="url(#clip140)" d="M1424.39 28.9478 L1424.39 35.9153 Q1421.23 34.1734 1418.03 33.3227 Q1414.87 32.4315 1411.63 32.4315 Q1404.38 32.4315 1400.37 37.0496 Q1396.36 41.6271 1396.36 49.9314 Q1396.36 58.2358 1400.37 62.8538 Q1404.38 67.4314 1411.63 67.4314 Q1414.87 67.4314 1418.03 66.5807 Q1421.23 65.6895 1424.39 63.9476 L1424.39 70.8341 Q1421.28 72.2924 1417.91 73.0216 Q1414.59 73.7508 1410.82 73.7508 Q1400.58 73.7508 1394.54 67.3098 Q1388.5 60.8689 1388.5 49.9314 Q1388.5 38.832 1394.58 32.472 Q1400.7 26.1121 1411.31 26.1121 Q1414.75 26.1121 1418.03 26.8413 Q1421.32 27.5299 1424.39 28.9478 Z" fill="#000000" fill-rule="nonzero" fill-opacity="1" /><path clip-path="url(#clip140)" d="M1437.36 27.2059 L1444.81 27.2059 L1444.81 72.576 L1437.36 72.576 L1437.36 27.2059 M1437.36 9.54393 L1444.81 9.54393 L1444.81 18.9825 L1437.36 18.9825 L1437.36 9.54393 Z" fill="#000000" fill-rule="nonzero" fill-opacity="1" /><path clip-path="url(#clip140)" d="M1483.38 9.54393 L1483.38 15.7418 L1476.25 15.7418 Q1472.24 15.7418 1470.66 17.3622 Q1469.12 18.9825 1469.12 23.1955 L1469.12 27.2059 L1481.39 27.2059 L1481.39 32.9987 L1469.12 32.9987 L1469.12 72.576 L1461.62 72.576 L1461.62 32.9987 L1454.49 32.9987 L1454.49 27.2059 L1461.62 27.2059 L1461.62 24.0462 Q1461.62 16.471 1465.15 13.0277 Q1468.67 9.54393 1476.33 9.54393 L1483.38 9.54393 Z" fill="#000000" fill-rule="nonzero" fill-opacity="1" /><path clip-path="url(#clip140)" d="M1489.61 27.2059 L1497.07 27.2059 L1497.07 72.576 L1489.61 72.576 L1489.61 27.2059 M1489.61 9.54393 L1497.07 9.54393 L1497.07 18.9825 L1489.61 18.9825 L1489.61 9.54393 Z" fill="#000000" fill-rule="nonzero" fill-opacity="1" /><path clip-path="url(#clip140)" d="M1545.31 28.9478 L1545.31 35.9153 Q1542.15 34.1734 1538.95 33.3227 Q1535.79 32.4315 1532.55 32.4315 Q1525.3 32.4315 1521.29 37.0496 Q1517.28 41.6271 1517.28 49.9314 Q1517.28 58.2358 1521.29 62.8538 Q1525.3 67.4314 1532.55 67.4314 Q1535.79 67.4314 1538.95 66.5807 Q1542.15 65.6895 1545.31 63.9476 L1545.31 70.8341 Q1542.19 72.2924 1538.83 73.0216 Q1535.51 73.7508 1531.74 73.7508 Q1521.49 73.7508 1515.46 67.3098 Q1509.42 60.8689 1509.42 49.9314 Q1509.42 38.832 1515.5 32.472 Q1521.62 26.1121 1532.23 26.1121 Q1535.67 26.1121 1538.95 26.8413 Q1542.24 27.5299 1545.31 28.9478 Z" fill="#000000" fill-rule="nonzero" fill-opacity="1" /><path clip-path="url(#clip140)" d="M1613.57 28.5427 L1613.57 35.5912 Q1610.41 33.9709 1607.01 33.1607 Q1603.61 32.3505 1599.96 32.3505 Q1594.41 32.3505 1591.62 34.0519 Q1588.86 35.7533 1588.86 39.156 Q1588.86 41.7486 1590.85 43.2475 Q1592.83 44.7058 1598.83 46.0426 L1601.38 46.6097 Q1609.32 48.3111 1612.64 51.4303 Q1616 54.509 1616 60.0587 Q1616 66.3781 1610.98 70.0644 Q1606 73.7508 1597.25 73.7508 Q1593.6 73.7508 1589.63 73.0216 Q1585.7 72.3329 1581.33 70.9151 L1581.33 63.2184 Q1585.46 65.3654 1589.47 66.4591 Q1593.48 67.5124 1597.41 67.5124 Q1602.67 67.5124 1605.51 65.73 Q1608.35 63.9071 1608.35 60.6258 Q1608.35 57.5877 1606.28 55.9673 Q1604.25 54.3469 1597.33 52.8481 L1594.73 52.2405 Q1587.81 50.7821 1584.73 47.7845 Q1581.65 44.7463 1581.65 39.4801 Q1581.65 33.0797 1586.19 29.5959 Q1590.72 26.1121 1599.07 26.1121 Q1603.2 26.1121 1606.85 26.7198 Q1610.49 27.3274 1613.57 28.5427 Z" fill="#000000" fill-rule="nonzero" fill-opacity="1" /><path clip-path="url(#clip140)" d="M1627.1 54.671 L1627.1 27.2059 L1634.56 27.2059 L1634.56 54.3874 Q1634.56 60.8284 1637.07 64.0691 Q1639.58 67.2693 1644.6 67.2693 Q1650.64 67.2693 1654.12 63.421 Q1657.65 59.5726 1657.65 52.9291 L1657.65 27.2059 L1665.1 27.2059 L1665.1 72.576 L1657.65 72.576 L1657.65 65.6084 Q1654.93 69.7404 1651.33 71.7658 Q1647.76 73.7508 1643.02 73.7508 Q1635.2 73.7508 1631.15 68.8897 Q1627.1 64.0286 1627.1 54.671 M1645.86 26.1121 L1645.86 26.1121 Z" fill="#000000" fill-rule="nonzero" fill-opacity="1" /><path clip-path="url(#clip140)" d="M1706.74 34.1734 Q1705.49 33.4443 1703.99 33.1202 Q1702.53 32.7556 1700.75 32.7556 Q1694.43 32.7556 1691.02 36.8875 Q1687.66 40.9789 1687.66 48.6757 L1687.66 72.576 L1680.17 72.576 L1680.17 27.2059 L1687.66 27.2059 L1687.66 34.2544 Q1690.01 30.1225 1693.78 28.1376 Q1697.55 26.1121 1702.93 26.1121 Q1703.7 26.1121 1704.64 26.2337 Q1705.57 26.3147 1706.7 26.5172 L1706.74 34.1734 Z" fill="#000000" fill-rule="nonzero" fill-opacity="1" /><path clip-path="url(#clip140)" d="M1709.21 27.2059 L1717.11 27.2059 L1731.29 65.2844 L1745.47 27.2059 L1753.37 27.2059 L1736.35 72.576 L1726.23 72.576 L1709.21 27.2059 Z" fill="#000000" fill-rule="nonzero" fill-opacity="1" /><path clip-path="url(#clip140)" d="M1763.66 27.2059 L1771.11 27.2059 L1771.11 72.576 L1763.66 72.576 L1763.66 27.2059 M1763.66 9.54393 L1771.11 9.54393 L1771.11 18.9825 L1763.66 18.9825 L1763.66 9.54393 Z" fill="#000000" fill-rule="nonzero" fill-opacity="1" /><path clip-path="url(#clip140)" d="M1781.36 27.2059 L1789.26 27.2059 L1803.44 65.2844 L1817.62 27.2059 L1825.51 27.2059 L1808.5 72.576 L1798.37 72.576 L1781.36 27.2059 Z" fill="#000000" fill-rule="nonzero" fill-opacity="1" /><path clip-path="url(#clip140)" d="M1856.42 49.7694 Q1847.39 49.7694 1843.91 51.8354 Q1840.42 53.9013 1840.42 58.8839 Q1840.42 62.8538 1843.01 65.2034 Q1845.65 67.5124 1850.14 67.5124 Q1856.34 67.5124 1860.07 63.1374 Q1863.84 58.7219 1863.84 51.4303 L1863.84 49.7694 L1856.42 49.7694 M1871.29 46.6907 L1871.29 72.576 L1863.84 72.576 L1863.84 65.6895 Q1861.28 69.8214 1857.48 71.8063 Q1853.67 73.7508 1848.16 73.7508 Q1841.19 73.7508 1837.06 69.8619 Q1832.97 65.9325 1832.97 59.3701 Q1832.97 51.7138 1838.07 47.825 Q1843.22 43.9361 1853.39 43.9361 L1863.84 43.9361 L1863.84 43.2069 Q1863.84 38.0623 1860.43 35.2672 Q1857.07 32.4315 1850.95 32.4315 Q1847.07 32.4315 1843.38 33.3632 Q1839.69 34.295 1836.29 36.1584 L1836.29 29.2718 Q1840.38 27.692 1844.23 26.9223 Q1848.08 26.1121 1851.72 26.1121 Q1861.57 26.1121 1866.43 31.2163 Q1871.29 36.3204 1871.29 46.6907 Z" fill="#000000" fill-rule="nonzero" fill-opacity="1" /><path clip-path="url(#clip140)" d="M1886.64 9.54393 L1894.1 9.54393 L1894.1 72.576 L1886.64 72.576 L1886.64 9.54393 Z" fill="#000000" fill-rule="nonzero" fill-opacity="1" /><path clip-path="url(#clip141)" d="M358.949 1549.83 L358.949 1800.78 L717.115 1800.78 L717.115 1549.83 L358.949 1549.83 L358.949 1549.83  Z" fill="#008080" fill-rule="evenodd" fill-opacity="0.7"/>
<polyline clip-path="url(#clip141)" style="stroke:#000000; stroke-linecap:round; stroke-linejoin:round; stroke-width:4; stroke-opacity:0.7; fill:none" points="358.949,1549.83 358.949,1800.78 717.115,1800.78 717.115,1549.83 358.949,1549.83 "/>
<path clip-path="url(#clip141)" d="M806.657 964.286 L806.657 1800.78 L1164.82 1800.78 L1164.82 964.286 L806.657 964.286 L806.657 964.286  Z" fill="#008080" fill-rule="evenodd" fill-opacity="0.7"/>
<polyline clip-path="url(#clip141)" style="stroke:#000000; stroke-linecap:round; stroke-linejoin:round; stroke-width:4; stroke-opacity:0.7; fill:none" points="806.657,964.286 806.657,1800.78 1164.82,1800.78 1164.82,964.286 806.657,964.286 "/>
<path clip-path="url(#clip141)" d="M1254.36 713.338 L1254.36 1800.78 L1612.53 1800.78 L1612.53 713.338 L1254.36 713.338 L1254.36 713.338  Z" fill="#008080" fill-rule="evenodd" fill-opacity="0.7"/>
<polyline clip-path="url(#clip141)" style="stroke:#000000; stroke-linecap:round; stroke-linejoin:round; stroke-width:4; stroke-opacity:0.7; fill:none" points="1254.36,713.338 1254.36,1800.78 1612.53,1800.78 1612.53,713.338 1254.36,713.338 "/>
<path clip-path="url(#clip141)" d="M1702.07 378.74 L1702.07 1800.78 L2060.24 1800.78 L2060.24 378.74 L1702.07 378.74 L1702.07 378.74  Z" fill="#008080" fill-rule="evenodd" fill-opacity="0.7"/>
<polyline clip-path="url(#clip141)" style="stroke:#000000; stroke-linecap:round; stroke-linejoin:round; stroke-width:4; stroke-opacity:0.7; fill:none" points="1702.07,378.74 1702.07,1800.78 2060.24,1800.78 2060.24,378.74 1702.07,378.74 "/>
<path clip-path="url(#clip141)" d="M2149.78 629.688 L2149.78 1800.78 L2507.95 1800.78 L2507.95 629.688 L2149.78 629.688 L2149.78 629.688  Z" fill="#008080" fill-rule="evenodd" fill-opacity="0.7"/>
<polyline clip-path="url(#clip141)" style="stroke:#000000; stroke-linecap:round; stroke-linejoin:round; stroke-width:4; stroke-opacity:0.7; fill:none" points="2149.78,629.688 2149.78,1800.78 2507.95,1800.78 2507.95,629.688 2149.78,629.688 "/>
<circle clip-path="url(#clip141)" style="fill:#008080; stroke:none; fill-opacity:0" cx="538.032" cy="1549.83" r="2"/>
<circle clip-path="url(#clip141)" style="fill:#008080; stroke:none; fill-opacity:0" cx="985.74" cy="964.286" r="2"/>
<circle clip-path="url(#clip141)" style="fill:#008080; stroke:none; fill-opacity:0" cx="1433.45" cy="713.338" r="2"/>
<circle clip-path="url(#clip141)" style="fill:#008080; stroke:none; fill-opacity:0" cx="1881.16" cy="378.74" r="2"/>
<circle clip-path="url(#clip141)" style="fill:#008080; stroke:none; fill-opacity:0" cx="2328.86" cy="629.688" r="2"/>
</svg>
