<?xml version="1.0" encoding="utf-8"?>
<svg xmlns="http://www.w3.org/2000/svg" xmlns:xlink="http://www.w3.org/1999/xlink" width="700" height="400" viewBox="0 0 2800 1600">
<defs>
  <clipPath id="clip320">
    <rect x="0" y="0" width="2800" height="1600"/>
  </clipPath>
</defs>
<path clip-path="url(#clip320)" d="M0 1600 L2800 1600 L2800 8.88178e-14 L0 8.88178e-14  Z" fill="#ffffff" fill-rule="evenodd" fill-opacity="1"/>
<defs>
  <clipPath id="clip321">
    <rect x="217" y="114" width="2537" height="1321"/>
  </clipPath>
</defs>
<path clip-path="url(#clip320)" d="M217.078 1434.91 L2752.76 1434.91 L2752.76 114.832 L217.078 114.832  Z" fill="#ffffff" fill-rule="evenodd" fill-opacity="1"/>
<polyline clip-path="url(#clip321)" style="stroke:#000000; stroke-linecap:round; stroke-linejoin:round; stroke-width:2; stroke-opacity:0.1; fill:none" points="586.063,1434.91 586.063,114.832 "/>
<polyline clip-path="url(#clip321)" style="stroke:#000000; stroke-linecap:round; stroke-linejoin:round; stroke-width:2; stroke-opacity:0.1; fill:none" points="1185.3,1434.91 1185.3,114.832 "/>
<polyline clip-path="url(#clip321)" style="stroke:#000000; stroke-linecap:round; stroke-linejoin:round; stroke-width:2; stroke-opacity:0.1; fill:none" points="1784.53,1434.91 1784.53,114.832 "/>
<polyline clip-path="url(#clip321)" style="stroke:#000000; stroke-linecap:round; stroke-linejoin:round; stroke-width:2; stroke-opacity:0.1; fill:none" points="2383.77,1434.91 2383.77,114.832 "/>
<polyline clip-path="url(#clip321)" style="stroke:#000000; stroke-linecap:round; stroke-linejoin:round; stroke-width:2; stroke-opacity:0.1; fill:none" points="217.078,1434.91 2752.76,1434.91 "/>
<polyline clip-path="url(#clip321)" style="stroke:#000000; stroke-linecap:round; stroke-linejoin:round; stroke-width:2; stroke-opacity:0.1; fill:none" points="217.078,1170.89 2752.76,1170.89 "/>
<polyline clip-path="url(#clip321)" style="stroke:#000000; stroke-linecap:round; stroke-linejoin:round; stroke-width:2; stroke-opacity:0.1; fill:none" points="217.078,906.876 2752.76,906.876 "/>
<polyline clip-path="url(#clip321)" style="stroke:#000000; stroke-linecap:round; stroke-linejoin:round; stroke-width:2; stroke-opacity:0.1; fill:none" points="217.078,642.861 2752.76,642.861 "/>
<polyline clip-path="url(#clip321)" style="stroke:#000000; stroke-linecap:round; stroke-linejoin:round; stroke-width:2; stroke-opacity:0.1; fill:none" points="217.078,378.847 2752.76,378.847 "/>
<polyline clip-path="url(#clip321)" style="stroke:#000000; stroke-linecap:round; stroke-linejoin:round; stroke-width:2; stroke-opacity:0.1; fill:none" points="217.078,114.832 2752.76,114.832 "/>
<polyline clip-path="url(#clip320)" style="stroke:#000000; stroke-linecap:round; stroke-linejoin:round; stroke-width:4; stroke-opacity:1; fill:none" points="217.078,1434.91 2752.76,1434.91 "/>
<polyline clip-path="url(#clip320)" style="stroke:#000000; stroke-linecap:round; stroke-linejoin:round; stroke-width:4; stroke-opacity:1; fill:none" points="586.063,1434.91 586.063,1416.01 "/>
<polyline clip-path="url(#clip320)" style="stroke:#000000; stroke-linecap:round; stroke-linejoin:round; stroke-width:4; stroke-opacity:1; fill:none" points="1185.3,1434.91 1185.3,1416.01 "/>
<polyline clip-path="url(#clip320)" style="stroke:#000000; stroke-linecap:round; stroke-linejoin:round; stroke-width:4; stroke-opacity:1; fill:none" points="1784.53,1434.91 1784.53,1416.01 "/>
<polyline clip-path="url(#clip320)" style="stroke:#000000; stroke-linecap:round; stroke-linejoin:round; stroke-width:4; stroke-opacity:1; fill:none" points="2383.77,1434.91 2383.77,1416.01 "/>
<path clip-path="url(#clip320)" d="M521.908 1470.55 L515.566 1487.75 L528.274 1487.75 L521.908 1470.55 M519.269 1465.95 L524.57 1465.95 L537.742 1500.51 L532.881 1500.51 L529.732 1491.64 L514.154 1491.64 L511.006 1500.51 L506.075 1500.51 L519.269 1465.95 Z" fill="#000000" fill-rule="nonzero" fill-opacity="1" /><path clip-path="url(#clip320)" d="M564.154 1484.86 L564.154 1500.51 L559.894 1500.51 L559.894 1485 Q559.894 1481.32 558.459 1479.49 Q557.024 1477.66 554.154 1477.66 Q550.705 1477.66 548.714 1479.86 Q546.723 1482.06 546.723 1485.85 L546.723 1500.51 L542.441 1500.51 L542.441 1474.58 L546.723 1474.58 L546.723 1478.61 Q548.251 1476.27 550.311 1475.11 Q552.394 1473.95 555.103 1473.95 Q559.57 1473.95 561.862 1476.73 Q564.154 1479.49 564.154 1484.86 Z" fill="#000000" fill-rule="nonzero" fill-opacity="1" /><path clip-path="url(#clip320)" d="M594.2 1484.86 L594.2 1500.51 L589.94 1500.51 L589.94 1485 Q589.94 1481.32 588.505 1479.49 Q587.07 1477.66 584.2 1477.66 Q580.751 1477.66 578.76 1479.86 Q576.769 1482.06 576.769 1485.85 L576.769 1500.51 L572.487 1500.51 L572.487 1474.58 L576.769 1474.58 L576.769 1478.61 Q578.297 1476.27 580.357 1475.11 Q582.44 1473.95 585.149 1473.95 Q589.616 1473.95 591.908 1476.73 Q594.2 1479.49 594.2 1484.86 Z" fill="#000000" fill-rule="nonzero" fill-opacity="1" /><path clip-path="url(#clip320)" d="M602.255 1490.27 L602.255 1474.58 L606.514 1474.58 L606.514 1490.11 Q606.514 1493.79 607.95 1495.64 Q609.385 1497.47 612.255 1497.47 Q615.704 1497.47 617.695 1495.27 Q619.709 1493.08 619.709 1489.28 L619.709 1474.58 L623.968 1474.58 L623.968 1500.51 L619.709 1500.51 L619.709 1496.52 Q618.158 1498.89 616.098 1500.04 Q614.061 1501.18 611.352 1501.18 Q606.885 1501.18 604.57 1498.4 Q602.255 1495.62 602.255 1490.27 M612.973 1473.95 L612.973 1473.95 Z" fill="#000000" fill-rule="nonzero" fill-opacity="1" /><path clip-path="url(#clip320)" d="M644.523 1487.47 Q639.361 1487.47 637.371 1488.65 Q635.38 1489.83 635.38 1492.68 Q635.38 1494.95 636.861 1496.29 Q638.366 1497.61 640.936 1497.61 Q644.477 1497.61 646.607 1495.11 Q648.76 1492.59 648.76 1488.42 L648.76 1487.47 L644.523 1487.47 M653.019 1485.71 L653.019 1500.51 L648.76 1500.51 L648.76 1496.57 Q647.301 1498.93 645.125 1500.07 Q642.949 1501.18 639.801 1501.18 Q635.82 1501.18 633.459 1498.95 Q631.121 1496.71 631.121 1492.96 Q631.121 1488.58 634.037 1486.36 Q636.977 1484.14 642.787 1484.14 L648.76 1484.14 L648.76 1483.72 Q648.76 1480.78 646.815 1479.19 Q644.894 1477.57 641.398 1477.57 Q639.176 1477.57 637.07 1478.1 Q634.963 1478.63 633.019 1479.7 L633.019 1475.76 Q635.357 1474.86 637.556 1474.42 Q639.755 1473.95 641.838 1473.95 Q647.463 1473.95 650.241 1476.87 Q653.019 1479.79 653.019 1485.71 Z" fill="#000000" fill-rule="nonzero" fill-opacity="1" /><path clip-path="url(#clip320)" d="M661.792 1464.49 L666.051 1464.49 L666.051 1500.51 L661.792 1500.51 L661.792 1464.49 Z" fill="#000000" fill-rule="nonzero" fill-opacity="1" /><path clip-path="url(#clip320)" d="M1022.08 1469.79 L1022.08 1482.77 L1027.96 1482.77 Q1031.23 1482.77 1033.01 1481.08 Q1034.79 1479.39 1034.79 1476.27 Q1034.79 1473.17 1033.01 1471.48 Q1031.23 1469.79 1027.96 1469.79 L1022.08 1469.79 M1017.41 1465.95 L1027.96 1465.95 Q1033.77 1465.95 1036.73 1468.58 Q1039.72 1471.2 1039.72 1476.27 Q1039.72 1481.39 1036.73 1484 Q1033.77 1486.62 1027.96 1486.62 L1022.08 1486.62 L1022.08 1500.51 L1017.41 1500.51 L1017.41 1465.95 Z" fill="#000000" fill-rule="nonzero" fill-opacity="1" /><path clip-path="url(#clip320)" d="M1066.29 1486.48 L1066.29 1488.56 L1046.71 1488.56 Q1046.99 1492.96 1049.35 1495.27 Q1051.73 1497.57 1055.97 1497.57 Q1058.42 1497.57 1060.72 1496.96 Q1063.03 1496.36 1065.3 1495.16 L1065.3 1499.19 Q1063.01 1500.16 1060.6 1500.67 Q1058.19 1501.18 1055.72 1501.18 Q1049.51 1501.18 1045.88 1497.57 Q1042.27 1493.95 1042.27 1487.8 Q1042.27 1481.43 1045.69 1477.7 Q1049.14 1473.95 1054.98 1473.95 Q1060.21 1473.95 1063.24 1477.33 Q1066.29 1480.69 1066.29 1486.48 M1062.04 1485.23 Q1061.99 1481.73 1060.07 1479.65 Q1058.17 1477.57 1055.02 1477.57 Q1051.46 1477.57 1049.3 1479.58 Q1047.17 1481.59 1046.85 1485.25 L1062.04 1485.23 Z" fill="#000000" fill-rule="nonzero" fill-opacity="1" /><path clip-path="url(#clip320)" d="M1088.31 1478.56 Q1087.59 1478.14 1086.73 1477.96 Q1085.9 1477.75 1084.88 1477.75 Q1081.27 1477.75 1079.33 1480.11 Q1077.41 1482.45 1077.41 1486.85 L1077.41 1500.51 L1073.12 1500.51 L1073.12 1474.58 L1077.41 1474.58 L1077.41 1478.61 Q1078.75 1476.25 1080.9 1475.11 Q1083.05 1473.95 1086.13 1473.95 Q1086.57 1473.95 1087.1 1474.02 Q1087.64 1474.07 1088.29 1474.19 L1088.31 1478.56 Z" fill="#000000" fill-rule="nonzero" fill-opacity="1" /><path clip-path="url(#clip320)" d="M1113.91 1486.48 L1113.91 1488.56 L1094.33 1488.56 Q1094.6 1492.96 1096.97 1495.27 Q1099.35 1497.57 1103.59 1497.57 Q1106.04 1497.57 1108.33 1496.96 Q1110.65 1496.36 1112.92 1495.16 L1112.92 1499.19 Q1110.62 1500.16 1108.22 1500.67 Q1105.81 1501.18 1103.33 1501.18 Q1097.13 1501.18 1093.49 1497.57 Q1089.88 1493.95 1089.88 1487.8 Q1089.88 1481.43 1093.31 1477.7 Q1096.76 1473.95 1102.59 1473.95 Q1107.82 1473.95 1110.85 1477.33 Q1113.91 1480.69 1113.91 1486.48 M1109.65 1485.23 Q1109.6 1481.73 1107.68 1479.65 Q1105.79 1477.57 1102.64 1477.57 Q1099.07 1477.57 1096.92 1479.58 Q1094.79 1481.59 1094.47 1485.25 L1109.65 1485.23 Z" fill="#000000" fill-rule="nonzero" fill-opacity="1" /><path clip-path="url(#clip320)" d="M1142.45 1484.86 L1142.45 1500.51 L1138.19 1500.51 L1138.19 1485 Q1138.19 1481.32 1136.76 1479.49 Q1135.32 1477.66 1132.45 1477.66 Q1129 1477.66 1127.01 1479.86 Q1125.02 1482.06 1125.02 1485.85 L1125.02 1500.51 L1120.74 1500.51 L1120.74 1474.58 L1125.02 1474.58 L1125.02 1478.61 Q1126.55 1476.27 1128.61 1475.11 Q1130.69 1473.95 1133.4 1473.95 Q1137.87 1473.95 1140.16 1476.73 Q1142.45 1479.49 1142.45 1484.86 Z" fill="#000000" fill-rule="nonzero" fill-opacity="1" /><path clip-path="url(#clip320)" d="M1172.5 1484.86 L1172.5 1500.51 L1168.24 1500.51 L1168.24 1485 Q1168.24 1481.32 1166.8 1479.49 Q1165.37 1477.66 1162.5 1477.66 Q1159.05 1477.66 1157.06 1479.86 Q1155.07 1482.06 1155.07 1485.85 L1155.07 1500.51 L1150.79 1500.51 L1150.79 1474.58 L1155.07 1474.58 L1155.07 1478.61 Q1156.6 1476.27 1158.66 1475.11 Q1160.74 1473.95 1163.45 1473.95 Q1167.91 1473.95 1170.21 1476.73 Q1172.5 1479.49 1172.5 1484.86 Z" fill="#000000" fill-rule="nonzero" fill-opacity="1" /><path clip-path="url(#clip320)" d="M1180.99 1474.58 L1185.25 1474.58 L1185.25 1500.51 L1180.99 1500.51 L1180.99 1474.58 M1180.99 1464.49 L1185.25 1464.49 L1185.25 1469.88 L1180.99 1469.88 L1180.99 1464.49 Z" fill="#000000" fill-rule="nonzero" fill-opacity="1" /><path clip-path="url(#clip320)" d="M1205.95 1487.47 Q1200.78 1487.47 1198.79 1488.65 Q1196.8 1489.83 1196.8 1492.68 Q1196.8 1494.95 1198.28 1496.29 Q1199.79 1497.61 1202.36 1497.61 Q1205.9 1497.61 1208.03 1495.11 Q1210.18 1492.59 1210.18 1488.42 L1210.18 1487.47 L1205.95 1487.47 M1214.44 1485.71 L1214.44 1500.51 L1210.18 1500.51 L1210.18 1496.57 Q1208.72 1498.93 1206.55 1500.07 Q1204.37 1501.18 1201.22 1501.18 Q1197.24 1501.18 1194.88 1498.95 Q1192.54 1496.71 1192.54 1492.96 Q1192.54 1488.58 1195.46 1486.36 Q1198.4 1484.14 1204.21 1484.14 L1210.18 1484.14 L1210.18 1483.72 Q1210.18 1480.78 1208.24 1479.19 Q1206.32 1477.57 1202.82 1477.57 Q1200.6 1477.57 1198.49 1478.1 Q1196.39 1478.63 1194.44 1479.7 L1194.44 1475.76 Q1196.78 1474.86 1198.98 1474.42 Q1201.18 1473.95 1203.26 1473.95 Q1208.89 1473.95 1211.66 1476.87 Q1214.44 1479.79 1214.44 1485.71 Z" fill="#000000" fill-rule="nonzero" fill-opacity="1" /><path clip-path="url(#clip320)" d="M1223.22 1464.49 L1227.47 1464.49 L1227.47 1500.51 L1223.22 1500.51 L1223.22 1464.49 Z" fill="#000000" fill-rule="nonzero" fill-opacity="1" /><path clip-path="url(#clip320)" d="M1273.01 1484.86 L1273.01 1500.51 L1268.75 1500.51 L1268.75 1485 Q1268.75 1481.32 1267.31 1479.49 Q1265.88 1477.66 1263.01 1477.66 Q1259.56 1477.66 1257.57 1479.86 Q1255.58 1482.06 1255.58 1485.85 L1255.58 1500.51 L1251.29 1500.51 L1251.29 1464.49 L1255.58 1464.49 L1255.58 1478.61 Q1257.1 1476.27 1259.16 1475.11 Q1261.25 1473.95 1263.96 1473.95 Q1268.42 1473.95 1270.72 1476.73 Q1273.01 1479.49 1273.01 1484.86 Z" fill="#000000" fill-rule="nonzero" fill-opacity="1" /><path clip-path="url(#clip320)" d="M1303.68 1486.48 L1303.68 1488.56 L1284.09 1488.56 Q1284.37 1492.96 1286.73 1495.27 Q1289.12 1497.57 1293.35 1497.57 Q1295.81 1497.57 1298.1 1496.96 Q1300.41 1496.36 1302.68 1495.16 L1302.68 1499.19 Q1300.39 1500.16 1297.98 1500.67 Q1295.58 1501.18 1293.1 1501.18 Q1286.9 1501.18 1283.26 1497.57 Q1279.65 1493.95 1279.65 1487.8 Q1279.65 1481.43 1283.08 1477.7 Q1286.53 1473.95 1292.36 1473.95 Q1297.59 1473.95 1300.62 1477.33 Q1303.68 1480.69 1303.68 1486.48 M1299.42 1485.23 Q1299.37 1481.73 1297.45 1479.65 Q1295.55 1477.57 1292.4 1477.57 Q1288.84 1477.57 1286.69 1479.58 Q1284.56 1481.59 1284.23 1485.25 L1299.42 1485.23 Z" fill="#000000" fill-rule="nonzero" fill-opacity="1" /><path clip-path="url(#clip320)" d="M1325.69 1478.56 Q1324.97 1478.14 1324.12 1477.96 Q1323.28 1477.75 1322.27 1477.75 Q1318.65 1477.75 1316.71 1480.11 Q1314.79 1482.45 1314.79 1486.85 L1314.79 1500.51 L1310.51 1500.51 L1310.51 1474.58 L1314.79 1474.58 L1314.79 1478.61 Q1316.13 1476.25 1318.28 1475.11 Q1320.44 1473.95 1323.52 1473.95 Q1323.96 1473.95 1324.49 1474.02 Q1325.02 1474.07 1325.67 1474.19 L1325.69 1478.56 Z" fill="#000000" fill-rule="nonzero" fill-opacity="1" /><path clip-path="url(#clip320)" d="M1348.77 1487.57 Q1348.77 1482.87 1346.83 1480.2 Q1344.9 1477.52 1341.52 1477.52 Q1338.15 1477.52 1336.2 1480.2 Q1334.28 1482.87 1334.28 1487.57 Q1334.28 1492.26 1336.2 1494.95 Q1338.15 1497.61 1341.52 1497.61 Q1344.9 1497.61 1346.83 1494.95 Q1348.77 1492.26 1348.77 1487.57 M1334.28 1478.51 Q1335.62 1476.2 1337.66 1475.09 Q1339.72 1473.95 1342.57 1473.95 Q1347.29 1473.95 1350.23 1477.7 Q1353.19 1481.45 1353.19 1487.57 Q1353.19 1493.68 1350.23 1497.43 Q1347.29 1501.18 1342.57 1501.18 Q1339.72 1501.18 1337.66 1500.07 Q1335.62 1498.93 1334.28 1496.62 L1334.28 1500.51 L1330 1500.51 L1330 1464.49 L1334.28 1464.49 L1334.28 1478.51 Z" fill="#000000" fill-rule="nonzero" fill-opacity="1" /><path clip-path="url(#clip320)" d="M1736.34 1465.95 L1765.58 1465.95 L1765.58 1469.88 L1753.31 1469.88 L1753.31 1500.51 L1748.61 1500.51 L1748.61 1469.88 L1736.34 1469.88 L1736.34 1465.95 Z" fill="#000000" fill-rule="nonzero" fill-opacity="1" /><path clip-path="url(#clip320)" d="M1777.96 1478.56 Q1777.24 1478.14 1776.39 1477.96 Q1775.55 1477.75 1774.53 1477.75 Q1770.92 1477.75 1768.98 1480.11 Q1767.06 1482.45 1767.06 1486.85 L1767.06 1500.51 L1762.78 1500.51 L1762.78 1474.58 L1767.06 1474.58 L1767.06 1478.61 Q1768.4 1476.25 1770.55 1475.11 Q1772.71 1473.95 1775.78 1473.95 Q1776.22 1473.95 1776.76 1474.02 Q1777.29 1474.07 1777.94 1474.19 L1777.96 1478.56 Z" fill="#000000" fill-rule="nonzero" fill-opacity="1" /><path clip-path="url(#clip320)" d="M1803.56 1486.48 L1803.56 1488.56 L1783.98 1488.56 Q1784.26 1492.96 1786.62 1495.27 Q1789 1497.57 1793.24 1497.57 Q1795.69 1497.57 1797.98 1496.96 Q1800.3 1496.36 1802.57 1495.16 L1802.57 1499.19 Q1800.28 1500.16 1797.87 1500.67 Q1795.46 1501.18 1792.98 1501.18 Q1786.78 1501.18 1783.15 1497.57 Q1779.53 1493.95 1779.53 1487.8 Q1779.53 1481.43 1782.96 1477.7 Q1786.41 1473.95 1792.24 1473.95 Q1797.47 1473.95 1800.51 1477.33 Q1803.56 1480.69 1803.56 1486.48 M1799.3 1485.23 Q1799.26 1481.73 1797.34 1479.65 Q1795.44 1477.57 1792.29 1477.57 Q1788.72 1477.57 1786.57 1479.58 Q1784.44 1481.59 1784.12 1485.25 L1799.3 1485.23 Z" fill="#000000" fill-rule="nonzero" fill-opacity="1" /><path clip-path="url(#clip320)" d="M1832.73 1486.48 L1832.73 1488.56 L1813.15 1488.56 Q1813.42 1492.96 1815.78 1495.27 Q1818.17 1497.57 1822.4 1497.57 Q1824.86 1497.57 1827.15 1496.96 Q1829.47 1496.36 1831.73 1495.16 L1831.73 1499.19 Q1829.44 1500.16 1827.03 1500.67 Q1824.63 1501.18 1822.15 1501.18 Q1815.95 1501.18 1812.31 1497.57 Q1808.7 1493.95 1808.7 1487.8 Q1808.7 1481.43 1812.13 1477.7 Q1815.58 1473.95 1821.41 1473.95 Q1826.64 1473.95 1829.67 1477.33 Q1832.73 1480.69 1832.73 1486.48 M1828.47 1485.23 Q1828.42 1481.73 1826.5 1479.65 Q1824.6 1477.57 1821.46 1477.57 Q1817.89 1477.57 1815.74 1479.58 Q1813.61 1481.59 1813.28 1485.25 L1828.47 1485.23 Z" fill="#000000" fill-rule="nonzero" fill-opacity="1" /><path clip-path="url(#clip320)" d="M2353.28 1468.61 L2353.28 1473.54 Q2350.92 1471.34 2348.24 1470.25 Q2345.58 1469.16 2342.57 1469.16 Q2336.64 1469.16 2333.49 1472.8 Q2330.34 1476.41 2330.34 1483.26 Q2330.34 1490.09 2333.49 1493.72 Q2336.64 1497.33 2342.57 1497.33 Q2345.58 1497.33 2348.24 1496.25 Q2350.92 1495.16 2353.28 1492.96 L2353.28 1497.84 Q2350.83 1499.51 2348.08 1500.34 Q2345.34 1501.18 2342.29 1501.18 Q2334.44 1501.18 2329.93 1496.39 Q2325.41 1491.57 2325.41 1483.26 Q2325.41 1474.93 2329.93 1470.14 Q2334.44 1465.32 2342.29 1465.32 Q2345.39 1465.32 2348.12 1466.15 Q2350.88 1466.96 2353.28 1468.61 Z" fill="#000000" fill-rule="nonzero" fill-opacity="1" /><path clip-path="url(#clip320)" d="M2370.37 1477.57 Q2366.94 1477.57 2364.95 1480.25 Q2362.96 1482.91 2362.96 1487.57 Q2362.96 1492.22 2364.93 1494.9 Q2366.92 1497.57 2370.37 1497.57 Q2373.77 1497.57 2375.76 1494.88 Q2377.75 1492.2 2377.75 1487.57 Q2377.75 1482.96 2375.76 1480.27 Q2373.77 1477.57 2370.37 1477.57 M2370.37 1473.95 Q2375.92 1473.95 2379.09 1477.57 Q2382.27 1481.18 2382.27 1487.57 Q2382.27 1493.93 2379.09 1497.57 Q2375.92 1501.18 2370.37 1501.18 Q2364.79 1501.18 2361.62 1497.57 Q2358.47 1493.93 2358.47 1487.57 Q2358.47 1481.18 2361.62 1477.57 Q2364.79 1473.95 2370.37 1473.95 Z" fill="#000000" fill-rule="nonzero" fill-opacity="1" /><path clip-path="url(#clip320)" d="M2404.35 1478.56 Q2403.63 1478.14 2402.78 1477.96 Q2401.94 1477.75 2400.92 1477.75 Q2397.31 1477.75 2395.37 1480.11 Q2393.45 1482.45 2393.45 1486.85 L2393.45 1500.51 L2389.16 1500.51 L2389.16 1474.58 L2393.45 1474.58 L2393.45 1478.61 Q2394.79 1476.25 2396.94 1475.11 Q2399.09 1473.95 2402.17 1473.95 Q2402.61 1473.95 2403.15 1474.02 Q2403.68 1474.07 2404.33 1474.19 L2404.35 1478.56 Z" fill="#000000" fill-rule="nonzero" fill-opacity="1" /><path clip-path="url(#clip320)" d="M2420.6 1487.47 Q2415.44 1487.47 2413.45 1488.65 Q2411.46 1489.83 2411.46 1492.68 Q2411.46 1494.95 2412.94 1496.29 Q2414.44 1497.61 2417.01 1497.61 Q2420.55 1497.61 2422.68 1495.11 Q2424.84 1492.59 2424.84 1488.42 L2424.84 1487.47 L2420.6 1487.47 M2429.09 1485.71 L2429.09 1500.51 L2424.84 1500.51 L2424.84 1496.57 Q2423.38 1498.93 2421.2 1500.07 Q2419.02 1501.18 2415.88 1501.18 Q2411.9 1501.18 2409.53 1498.95 Q2407.2 1496.71 2407.2 1492.96 Q2407.2 1488.58 2410.11 1486.36 Q2413.05 1484.14 2418.86 1484.14 L2424.84 1484.14 L2424.84 1483.72 Q2424.84 1480.78 2422.89 1479.19 Q2420.97 1477.57 2417.47 1477.57 Q2415.25 1477.57 2413.15 1478.1 Q2411.04 1478.63 2409.09 1479.7 L2409.09 1475.76 Q2411.43 1474.86 2413.63 1474.42 Q2415.83 1473.95 2417.91 1473.95 Q2423.54 1473.95 2426.32 1476.87 Q2429.09 1479.79 2429.09 1485.71 Z" fill="#000000" fill-rule="nonzero" fill-opacity="1" /><path clip-path="url(#clip320)" d="M2437.87 1464.49 L2442.13 1464.49 L2442.13 1500.51 L2437.87 1500.51 L2437.87 1464.49 Z" fill="#000000" fill-rule="nonzero" fill-opacity="1" /><path clip-path="url(#clip320)" d="M1393.81 1539.81 L1393.81 1546.08 Q1390.15 1544.33 1386.9 1543.47 Q1383.65 1542.61 1380.63 1542.61 Q1375.38 1542.61 1372.51 1544.65 Q1369.68 1546.68 1369.68 1550.44 Q1369.68 1553.59 1371.56 1555.21 Q1373.47 1556.81 1378.75 1557.79 L1382.64 1558.59 Q1389.83 1559.96 1393.23 1563.43 Q1396.67 1566.86 1396.67 1572.66 Q1396.67 1579.56 1392.03 1583.13 Q1387.41 1586.69 1378.47 1586.69 Q1375.09 1586.69 1371.27 1585.93 Q1367.49 1585.16 1363.41 1583.67 L1363.41 1577.05 Q1367.33 1579.24 1371.08 1580.36 Q1374.84 1581.47 1378.47 1581.47 Q1383.97 1581.47 1386.96 1579.31 Q1389.96 1577.14 1389.96 1573.13 Q1389.96 1569.63 1387.79 1567.66 Q1385.66 1565.69 1380.76 1564.7 L1376.84 1563.94 Q1369.65 1562.5 1366.44 1559.45 Q1363.22 1556.39 1363.22 1550.95 Q1363.22 1544.65 1367.64 1541.02 Q1372.1 1537.39 1379.9 1537.39 Q1383.24 1537.39 1386.71 1537.99 Q1390.18 1538.6 1393.81 1539.81 Z" fill="#000000" fill-rule="nonzero" fill-opacity="1" /><path clip-path="url(#clip320)" d="M1412.11 1580.42 L1412.11 1599.33 L1406.22 1599.33 L1406.22 1550.12 L1412.11 1550.12 L1412.11 1555.53 Q1413.96 1552.35 1416.76 1550.82 Q1419.59 1549.26 1423.5 1549.26 Q1430 1549.26 1434.04 1554.42 Q1438.11 1559.57 1438.11 1567.98 Q1438.11 1576.38 1434.04 1581.54 Q1430 1586.69 1423.5 1586.69 Q1419.59 1586.69 1416.76 1585.16 Q1413.96 1583.61 1412.11 1580.42 M1432.03 1567.98 Q1432.03 1561.52 1429.36 1557.86 Q1426.72 1554.16 1422.07 1554.16 Q1417.42 1554.16 1414.75 1557.86 Q1412.11 1561.52 1412.11 1567.98 Q1412.11 1574.44 1414.75 1578.13 Q1417.42 1581.79 1422.07 1581.79 Q1426.72 1581.79 1429.36 1578.13 Q1432.03 1574.44 1432.03 1567.98 Z" fill="#000000" fill-rule="nonzero" fill-opacity="1" /><path clip-path="url(#clip320)" d="M1478.31 1566.48 L1478.31 1569.35 L1451.39 1569.35 Q1451.77 1575.39 1455.01 1578.58 Q1458.29 1581.73 1464.12 1581.73 Q1467.49 1581.73 1470.64 1580.9 Q1473.82 1580.07 1476.94 1578.42 L1476.94 1583.96 Q1473.79 1585.29 1470.48 1585.99 Q1467.17 1586.69 1463.77 1586.69 Q1455.24 1586.69 1450.24 1581.73 Q1445.27 1576.76 1445.27 1568.3 Q1445.27 1559.54 1449.98 1554.42 Q1454.73 1549.26 1462.75 1549.26 Q1469.94 1549.26 1474.11 1553.91 Q1478.31 1558.52 1478.31 1566.48 M1472.46 1564.76 Q1472.39 1559.96 1469.75 1557.09 Q1467.14 1554.23 1462.81 1554.23 Q1457.91 1554.23 1454.95 1557 Q1452.02 1559.77 1451.58 1564.79 L1472.46 1564.76 Z" fill="#000000" fill-rule="nonzero" fill-opacity="1" /><path clip-path="url(#clip320)" d="M1513.58 1551.49 L1513.58 1556.96 Q1511.1 1555.6 1508.58 1554.93 Q1506.1 1554.23 1503.55 1554.23 Q1497.86 1554.23 1494.7 1557.86 Q1491.55 1561.45 1491.55 1567.98 Q1491.55 1574.5 1494.7 1578.13 Q1497.86 1581.73 1503.55 1581.73 Q1506.1 1581.73 1508.58 1581.06 Q1511.1 1580.36 1513.58 1578.99 L1513.58 1584.4 Q1511.13 1585.55 1508.49 1586.12 Q1505.88 1586.69 1502.92 1586.69 Q1494.86 1586.69 1490.12 1581.63 Q1485.38 1576.57 1485.38 1567.98 Q1485.38 1559.26 1490.15 1554.26 Q1494.96 1549.26 1503.3 1549.26 Q1506 1549.26 1508.58 1549.84 Q1511.16 1550.38 1513.58 1551.49 Z" fill="#000000" fill-rule="nonzero" fill-opacity="1" /><path clip-path="url(#clip320)" d="M1523.76 1550.12 L1529.62 1550.12 L1529.62 1585.77 L1523.76 1585.77 L1523.76 1550.12 M1523.76 1536.24 L1529.62 1536.24 L1529.62 1543.66 L1523.76 1543.66 L1523.76 1536.24 Z" fill="#000000" fill-rule="nonzero" fill-opacity="1" /><path clip-path="url(#clip320)" d="M1572.37 1566.48 L1572.37 1569.35 L1545.44 1569.35 Q1545.82 1575.39 1549.07 1578.58 Q1552.35 1581.73 1558.17 1581.73 Q1561.54 1581.73 1564.7 1580.9 Q1567.88 1580.07 1571 1578.42 L1571 1583.96 Q1567.85 1585.29 1564.54 1585.99 Q1561.23 1586.69 1557.82 1586.69 Q1549.29 1586.69 1544.29 1581.73 Q1539.33 1576.76 1539.33 1568.3 Q1539.33 1559.54 1544.04 1554.42 Q1548.78 1549.26 1556.8 1549.26 Q1563.99 1549.26 1568.16 1553.91 Q1572.37 1558.52 1572.37 1566.48 M1566.51 1564.76 Q1566.45 1559.96 1563.8 1557.09 Q1561.19 1554.23 1556.87 1554.23 Q1551.96 1554.23 1549 1557 Q1546.08 1559.77 1545.63 1564.79 L1566.51 1564.76 Z" fill="#000000" fill-rule="nonzero" fill-opacity="1" /><path clip-path="url(#clip320)" d="M1604.7 1551.17 L1604.7 1556.71 Q1602.22 1555.44 1599.55 1554.8 Q1596.87 1554.16 1594.01 1554.16 Q1589.65 1554.16 1587.45 1555.5 Q1585.29 1556.84 1585.29 1559.51 Q1585.29 1561.55 1586.85 1562.73 Q1588.41 1563.87 1593.12 1564.92 L1595.12 1565.37 Q1601.36 1566.7 1603.97 1569.16 Q1606.61 1571.57 1606.61 1575.93 Q1606.61 1580.9 1602.67 1583.8 Q1598.75 1586.69 1591.88 1586.69 Q1589.01 1586.69 1585.89 1586.12 Q1582.81 1585.58 1579.37 1584.46 L1579.37 1578.42 Q1582.61 1580.1 1585.77 1580.96 Q1588.92 1581.79 1592 1581.79 Q1596.14 1581.79 1598.37 1580.39 Q1600.6 1578.96 1600.6 1576.38 Q1600.6 1573.99 1598.97 1572.72 Q1597.38 1571.45 1591.94 1570.27 L1589.9 1569.79 Q1584.46 1568.65 1582.04 1566.29 Q1579.62 1563.9 1579.62 1559.77 Q1579.62 1554.74 1583.19 1552 Q1586.75 1549.26 1593.31 1549.26 Q1596.56 1549.26 1599.42 1549.74 Q1602.28 1550.22 1604.7 1551.17 Z" fill="#000000" fill-rule="nonzero" fill-opacity="1" /><polyline clip-path="url(#clip320)" style="stroke:#000000; stroke-linecap:round; stroke-linejoin:round; stroke-width:4; stroke-opacity:1; fill:none" points="217.078,1434.91 217.078,114.832 "/>
<polyline clip-path="url(#clip320)" style="stroke:#000000; stroke-linecap:round; stroke-linejoin:round; stroke-width:4; stroke-opacity:1; fill:none" points="217.078,1434.91 235.975,1434.91 "/>
<polyline clip-path="url(#clip320)" style="stroke:#000000; stroke-linecap:round; stroke-linejoin:round; stroke-width:4; stroke-opacity:1; fill:none" points="217.078,1170.89 235.975,1170.89 "/>
<polyline clip-path="url(#clip320)" style="stroke:#000000; stroke-linecap:round; stroke-linejoin:round; stroke-width:4; stroke-opacity:1; fill:none" points="217.078,906.876 235.975,906.876 "/>
<polyline clip-path="url(#clip320)" style="stroke:#000000; stroke-linecap:round; stroke-linejoin:round; stroke-width:4; stroke-opacity:1; fill:none" points="217.078,642.861 235.975,642.861 "/>
<polyline clip-path="url(#clip320)" style="stroke:#000000; stroke-linecap:round; stroke-linejoin:round; stroke-width:4; stroke-opacity:1; fill:none" points="217.078,378.847 235.975,378.847 "/>
<polyline clip-path="url(#clip320)" style="stroke:#000000; stroke-linecap:round; stroke-linejoin:round; stroke-width:4; stroke-opacity:1; fill:none" points="217.078,114.832 235.975,114.832 "/>
<path clip-path="url(#clip320)" d="M117.902 1420.7 Q114.291 1420.7 112.462 1424.27 Q110.657 1427.81 110.657 1434.94 Q110.657 1442.05 112.462 1445.61 Q114.291 1449.15 117.902 1449.15 Q121.536 1449.15 123.342 1445.61 Q125.171 1442.05 125.171 1434.94 Q125.171 1427.81 123.342 1424.27 Q121.536 1420.7 117.902 1420.7 M117.902 1417 Q123.712 1417 126.768 1421.61 Q129.846 1426.19 129.846 1434.94 Q129.846 1443.67 126.768 1448.27 Q123.712 1452.86 117.902 1452.86 Q112.092 1452.86 109.013 1448.27 Q105.958 1443.67 105.958 1434.94 Q105.958 1426.19 109.013 1421.61 Q112.092 1417 117.902 1417 Z" fill="#000000" fill-rule="nonzero" fill-opacity="1" /><path clip-path="url(#clip320)" d="M138.064 1446.31 L142.948 1446.31 L142.948 1452.19 L138.064 1452.19 L138.064 1446.31 Z" fill="#000000" fill-rule="nonzero" fill-opacity="1" /><path clip-path="url(#clip320)" d="M163.133 1420.7 Q159.522 1420.7 157.694 1424.27 Q155.888 1427.81 155.888 1434.94 Q155.888 1442.05 157.694 1445.61 Q159.522 1449.15 163.133 1449.15 Q166.768 1449.15 168.573 1445.61 Q170.402 1442.05 170.402 1434.94 Q170.402 1427.81 168.573 1424.27 Q166.768 1420.7 163.133 1420.7 M163.133 1417 Q168.943 1417 171.999 1421.61 Q175.078 1426.19 175.078 1434.94 Q175.078 1443.67 171.999 1448.27 Q168.943 1452.86 163.133 1452.86 Q157.323 1452.86 154.244 1448.27 Q151.189 1443.67 151.189 1434.94 Q151.189 1426.19 154.244 1421.61 Q157.323 1417 163.133 1417 Z" fill="#000000" fill-rule="nonzero" fill-opacity="1" /><path clip-path="url(#clip320)" d="M119.499 1156.69 Q115.888 1156.69 114.06 1160.25 Q112.254 1163.8 112.254 1170.93 Q112.254 1178.03 114.06 1181.6 Q115.888 1185.14 119.499 1185.14 Q123.134 1185.14 124.939 1181.6 Q126.768 1178.03 126.768 1170.93 Q126.768 1163.8 124.939 1160.25 Q123.134 1156.69 119.499 1156.69 M119.499 1152.99 Q125.309 1152.99 128.365 1157.59 Q131.444 1162.18 131.444 1170.93 Q131.444 1179.65 128.365 1184.26 Q125.309 1188.84 119.499 1188.84 Q113.689 1188.84 110.61 1184.26 Q107.555 1179.65 107.555 1170.93 Q107.555 1162.18 110.61 1157.59 Q113.689 1152.99 119.499 1152.99 Z" fill="#000000" fill-rule="nonzero" fill-opacity="1" /><path clip-path="url(#clip320)" d="M139.661 1182.29 L144.545 1182.29 L144.545 1188.17 L139.661 1188.17 L139.661 1182.29 Z" fill="#000000" fill-rule="nonzero" fill-opacity="1" /><path clip-path="url(#clip320)" d="M158.758 1184.24 L175.078 1184.24 L175.078 1188.17 L153.133 1188.17 L153.133 1184.24 Q155.795 1181.48 160.379 1176.85 Q164.985 1172.2 166.166 1170.86 Q168.411 1168.33 169.291 1166.6 Q170.193 1164.84 170.193 1163.15 Q170.193 1160.39 168.249 1158.66 Q166.328 1156.92 163.226 1156.92 Q161.027 1156.92 158.573 1157.68 Q156.143 1158.45 153.365 1160 L153.365 1155.28 Q156.189 1154.14 158.643 1153.56 Q161.096 1152.99 163.133 1152.99 Q168.504 1152.99 171.698 1155.67 Q174.893 1158.36 174.893 1162.85 Q174.893 1164.98 174.082 1166.9 Q173.295 1168.8 171.189 1171.39 Q170.61 1172.06 167.508 1175.28 Q164.406 1178.47 158.758 1184.24 Z" fill="#000000" fill-rule="nonzero" fill-opacity="1" /><path clip-path="url(#clip320)" d="M117.416 892.675 Q113.805 892.675 111.976 896.24 Q110.171 899.781 110.171 906.911 Q110.171 914.017 111.976 917.582 Q113.805 921.124 117.416 921.124 Q121.05 921.124 122.856 917.582 Q124.684 914.017 124.684 906.911 Q124.684 899.781 122.856 896.24 Q121.05 892.675 117.416 892.675 M117.416 888.971 Q123.226 888.971 126.282 893.578 Q129.36 898.161 129.36 906.911 Q129.36 915.638 126.282 920.244 Q123.226 924.827 117.416 924.827 Q111.606 924.827 108.527 920.244 Q105.472 915.638 105.472 906.911 Q105.472 898.161 108.527 893.578 Q111.606 888.971 117.416 888.971 Z" fill="#000000" fill-rule="nonzero" fill-opacity="1" /><path clip-path="url(#clip320)" d="M137.578 918.277 L142.462 918.277 L142.462 924.156 L137.578 924.156 L137.578 918.277 Z" fill="#000000" fill-rule="nonzero" fill-opacity="1" /><path clip-path="url(#clip320)" d="M165.494 893.67 L153.689 912.119 L165.494 912.119 L165.494 893.67 M164.268 889.596 L170.147 889.596 L170.147 912.119 L175.078 912.119 L175.078 916.008 L170.147 916.008 L170.147 924.156 L165.494 924.156 L165.494 916.008 L149.893 916.008 L149.893 911.494 L164.268 889.596 Z" fill="#000000" fill-rule="nonzero" fill-opacity="1" /><path clip-path="url(#clip320)" d="M117.74 628.66 Q114.129 628.66 112.3 632.225 Q110.495 635.767 110.495 642.896 Q110.495 650.003 112.3 653.567 Q114.129 657.109 117.74 657.109 Q121.374 657.109 123.18 653.567 Q125.009 650.003 125.009 642.896 Q125.009 635.767 123.18 632.225 Q121.374 628.66 117.74 628.66 M117.74 624.957 Q123.55 624.957 126.606 629.563 Q129.684 634.146 129.684 642.896 Q129.684 651.623 126.606 656.229 Q123.55 660.813 117.74 660.813 Q111.93 660.813 108.851 656.229 Q105.796 651.623 105.796 642.896 Q105.796 634.146 108.851 629.563 Q111.93 624.957 117.74 624.957 Z" fill="#000000" fill-rule="nonzero" fill-opacity="1" /><path clip-path="url(#clip320)" d="M137.902 654.262 L142.786 654.262 L142.786 660.141 L137.902 660.141 L137.902 654.262 Z" fill="#000000" fill-rule="nonzero" fill-opacity="1" /><path clip-path="url(#clip320)" d="M163.55 640.998 Q160.402 640.998 158.55 643.151 Q156.721 645.304 156.721 649.054 Q156.721 652.78 158.55 654.956 Q160.402 657.109 163.55 657.109 Q166.698 657.109 168.527 654.956 Q170.379 652.78 170.379 649.054 Q170.379 645.304 168.527 643.151 Q166.698 640.998 163.55 640.998 M172.832 626.345 L172.832 630.605 Q171.073 629.771 169.268 629.331 Q167.485 628.892 165.726 628.892 Q161.096 628.892 158.643 632.017 Q156.212 635.142 155.865 641.461 Q157.231 639.447 159.291 638.382 Q161.351 637.294 163.828 637.294 Q169.036 637.294 172.045 640.466 Q175.078 643.614 175.078 649.054 Q175.078 654.378 171.93 657.595 Q168.781 660.813 163.55 660.813 Q157.555 660.813 154.383 656.229 Q151.212 651.623 151.212 642.896 Q151.212 634.702 155.101 629.841 Q158.99 624.957 165.541 624.957 Q167.3 624.957 169.082 625.304 Q170.888 625.651 172.832 626.345 Z" fill="#000000" fill-rule="nonzero" fill-opacity="1" /><path clip-path="url(#clip320)" d="M117.995 364.645 Q114.384 364.645 112.555 368.21 Q110.749 371.752 110.749 378.882 Q110.749 385.988 112.555 389.553 Q114.384 393.094 117.995 393.094 Q121.629 393.094 123.434 389.553 Q125.263 385.988 125.263 378.882 Q125.263 371.752 123.434 368.21 Q121.629 364.645 117.995 364.645 M117.995 360.942 Q123.805 360.942 126.86 365.548 Q129.939 370.132 129.939 378.882 Q129.939 387.608 126.86 392.215 Q123.805 396.798 117.995 396.798 Q112.185 396.798 109.106 392.215 Q106.05 387.608 106.05 378.882 Q106.05 370.132 109.106 365.548 Q112.185 360.942 117.995 360.942 Z" fill="#000000" fill-rule="nonzero" fill-opacity="1" /><path clip-path="url(#clip320)" d="M138.157 390.247 L143.041 390.247 L143.041 396.127 L138.157 396.127 L138.157 390.247 Z" fill="#000000" fill-rule="nonzero" fill-opacity="1" /><path clip-path="url(#clip320)" d="M163.226 379.715 Q159.893 379.715 157.971 381.497 Q156.073 383.28 156.073 386.405 Q156.073 389.53 157.971 391.312 Q159.893 393.094 163.226 393.094 Q166.559 393.094 168.481 391.312 Q170.402 389.506 170.402 386.405 Q170.402 383.28 168.481 381.497 Q166.582 379.715 163.226 379.715 M158.55 377.724 Q155.541 376.983 153.851 374.923 Q152.184 372.863 152.184 369.9 Q152.184 365.757 155.124 363.349 Q158.087 360.942 163.226 360.942 Q168.388 360.942 171.328 363.349 Q174.268 365.757 174.268 369.9 Q174.268 372.863 172.578 374.923 Q170.911 376.983 167.925 377.724 Q171.305 378.511 173.18 380.803 Q175.078 383.094 175.078 386.405 Q175.078 391.428 171.999 394.113 Q168.943 396.798 163.226 396.798 Q157.508 396.798 154.43 394.113 Q151.374 391.428 151.374 386.405 Q151.374 383.094 153.272 380.803 Q155.17 378.511 158.55 377.724 M156.837 370.34 Q156.837 373.025 158.504 374.53 Q160.194 376.034 163.226 376.034 Q166.235 376.034 167.925 374.53 Q169.638 373.025 169.638 370.34 Q169.638 367.655 167.925 366.15 Q166.235 364.645 163.226 364.645 Q160.194 364.645 158.504 366.15 Q156.837 367.655 156.837 370.34 Z" fill="#000000" fill-rule="nonzero" fill-opacity="1" /><path clip-path="url(#clip320)" d="M108.712 128.177 L116.351 128.177 L116.351 101.811 L108.041 103.478 L108.041 99.2188 L116.305 97.5521 L120.981 97.5521 L120.981 128.177 L128.62 128.177 L128.62 132.112 L108.712 132.112 L108.712 128.177 Z" fill="#000000" fill-rule="nonzero" fill-opacity="1" /><path clip-path="url(#clip320)" d="M138.064 126.233 L142.948 126.233 L142.948 132.112 L138.064 132.112 L138.064 126.233 Z" fill="#000000" fill-rule="nonzero" fill-opacity="1" /><path clip-path="url(#clip320)" d="M163.133 100.631 Q159.522 100.631 157.694 104.196 Q155.888 107.737 155.888 114.867 Q155.888 121.973 157.694 125.538 Q159.522 129.08 163.133 129.08 Q166.768 129.08 168.573 125.538 Q170.402 121.973 170.402 114.867 Q170.402 107.737 168.573 104.196 Q166.768 100.631 163.133 100.631 M163.133 96.9271 Q168.943 96.9271 171.999 101.534 Q175.078 106.117 175.078 114.867 Q175.078 123.594 171.999 128.2 Q168.943 132.783 163.133 132.783 Q157.323 132.783 154.244 128.2 Q151.189 123.594 151.189 114.867 Q151.189 106.117 154.244 101.534 Q157.323 96.9271 163.133 96.9271 Z" fill="#000000" fill-rule="nonzero" fill-opacity="1" /><path clip-path="url(#clip320)" d="M1.69559 1105.69 L1.69559 1099.2 L41.8632 1089.21 L1.69559 1079.25 L1.69559 1072.02 L41.8632 1062.03 L1.69559 1052.06 L1.69559 1045.54 L49.2156 1057.47 L49.2156 1065.56 L7.96581 1075.58 L49.2156 1085.71 L49.2156 1093.79 L1.69559 1105.69 Z" fill="#000000" fill-rule="nonzero" fill-opacity="1" /><path clip-path="url(#clip320)" d="M29.9275 1010.59 L32.7921 1010.59 L32.7921 1037.52 Q38.8395 1037.14 42.0223 1033.89 Q45.1734 1030.61 45.1734 1024.79 Q45.1734 1021.41 44.3458 1018.26 Q43.5183 1015.08 41.8632 1011.96 L47.4014 1011.96 Q48.7382 1015.11 49.4384 1018.42 Q50.1386 1021.73 50.1386 1025.14 Q50.1386 1033.67 45.1734 1038.66 Q40.2081 1043.63 31.7417 1043.63 Q22.9889 1043.63 17.8645 1038.92 Q12.7083 1034.18 12.7083 1026.16 Q12.7083 1018.96 17.3552 1014.79 Q21.9704 1010.59 29.9275 1010.59 M28.2088 1016.45 Q23.4026 1016.51 20.5381 1019.15 Q17.6735 1021.76 17.6735 1026.09 Q17.6735 1030.99 20.4426 1033.95 Q23.2117 1036.88 28.2406 1037.33 L28.2088 1016.45 Z" fill="#000000" fill-rule="nonzero" fill-opacity="1" /><path clip-path="url(#clip320)" d="M13.5676 1000.98 L13.5676 995.122 L49.2156 995.122 L49.2156 1000.98 L13.5676 1000.98 M-0.309612 1000.98 L-0.309612 995.122 L7.10644 995.122 L7.10644 1000.98 L-0.309612 1000.98 Z" fill="#000000" fill-rule="nonzero" fill-opacity="1" /><path clip-path="url(#clip320)" d="M30.9778 959.411 Q24.6121 959.411 21.111 962.052 Q17.6099 964.662 17.6099 969.405 Q17.6099 974.115 21.111 976.757 Q24.6121 979.367 30.9778 979.367 Q37.3117 979.367 40.8129 976.757 Q44.314 974.115 44.314 969.405 Q44.314 964.662 40.8129 962.052 Q37.3117 959.411 30.9778 959.411 M44.7914 953.554 Q53.8944 953.554 58.3185 957.596 Q62.7745 961.639 62.7745 969.978 Q62.7745 973.065 62.2971 975.802 Q61.8515 978.54 60.8967 981.118 L55.1994 981.118 Q56.5998 978.54 57.2682 976.025 Q57.9366 973.511 57.9366 970.901 Q57.9366 965.14 54.9129 962.275 Q51.921 959.411 45.8418 959.411 L42.9454 959.411 Q46.0964 961.225 47.656 964.058 Q49.2156 966.89 49.2156 970.837 Q49.2156 977.394 44.2185 981.404 Q39.2214 985.415 30.9778 985.415 Q22.7024 985.415 17.7053 981.404 Q12.7083 977.394 12.7083 970.837 Q12.7083 966.89 14.2679 964.058 Q15.8275 961.225 18.9785 959.411 L13.5676 959.411 L13.5676 953.554 L44.7914 953.554 Z" fill="#000000" fill-rule="nonzero" fill-opacity="1" /><path clip-path="url(#clip320)" d="M27.6995 911.859 L49.2156 911.859 L49.2156 917.715 L27.8905 917.715 Q22.8297 917.715 20.3153 919.689 Q17.8008 921.662 17.8008 925.609 Q17.8008 930.351 20.8245 933.088 Q23.8482 935.826 29.0681 935.826 L49.2156 935.826 L49.2156 941.714 L-0.309612 941.714 L-0.309612 935.826 L19.1058 935.826 Q15.8911 933.725 14.2997 930.892 Q12.7083 928.028 12.7083 924.304 Q12.7083 918.161 16.5277 915.01 Q20.3153 911.859 27.6995 911.859 Z" fill="#000000" fill-rule="nonzero" fill-opacity="1" /><path clip-path="url(#clip320)" d="M3.44616 894.385 L13.5676 894.385 L13.5676 882.322 L18.1191 882.322 L18.1191 894.385 L37.4709 894.385 Q41.8314 894.385 43.0727 893.207 Q44.314 891.998 44.314 888.338 L44.314 882.322 L49.2156 882.322 L49.2156 888.338 Q49.2156 895.117 46.7011 897.695 Q44.1548 900.273 37.4709 900.273 L18.1191 900.273 L18.1191 904.57 L13.5676 904.57 L13.5676 900.273 L3.44616 900.273 L3.44616 894.385 Z" fill="#000000" fill-rule="nonzero" fill-opacity="1" /><path clip-path="url(#clip320)" d="M29.9275 844.128 L32.7921 844.128 L32.7921 871.055 Q38.8395 870.673 42.0223 867.426 Q45.1734 864.148 45.1734 858.323 Q45.1734 854.949 44.3458 851.798 Q43.5183 848.616 41.8632 845.496 L47.4014 845.496 Q48.7382 848.647 49.4384 851.958 Q50.1386 855.268 50.1386 858.673 Q50.1386 867.203 45.1734 872.2 Q40.2081 877.166 31.7417 877.166 Q22.9889 877.166 17.8645 872.455 Q12.7083 867.713 12.7083 859.692 Q12.7083 852.499 17.3552 848.329 Q21.9704 844.128 29.9275 844.128 M28.2088 849.984 Q23.4026 850.048 20.5381 852.69 Q17.6735 855.3 17.6735 859.628 Q17.6735 864.53 20.4426 867.49 Q23.2117 870.418 28.2406 870.864 L28.2088 849.984 Z" fill="#000000" fill-rule="nonzero" fill-opacity="1" /><path clip-path="url(#clip320)" d="M18.9785 811.058 L-0.309612 811.058 L-0.309612 805.201 L49.2156 805.201 L49.2156 811.058 L43.8684 811.058 Q47.0512 812.904 48.6108 815.737 Q50.1386 818.538 50.1386 822.484 Q50.1386 828.946 44.9824 833.02 Q39.8262 837.062 31.4234 837.062 Q23.0207 837.062 17.8645 833.02 Q12.7083 828.946 12.7083 822.484 Q12.7083 818.538 14.2679 815.737 Q15.7956 812.904 18.9785 811.058 M31.4234 831.014 Q37.8846 831.014 41.5767 828.373 Q45.237 825.699 45.237 821.052 Q45.237 816.405 41.5767 813.731 Q37.8846 811.058 31.4234 811.058 Q24.9622 811.058 21.302 813.731 Q17.6099 816.405 17.6099 821.052 Q17.6099 825.699 21.302 828.373 Q24.9622 831.014 31.4234 831.014 Z" fill="#000000" fill-rule="nonzero" fill-opacity="1" /><path clip-path="url(#clip320)" d="M20.4108 744.664 Q16.464 742.467 14.5861 739.412 Q12.7083 736.356 12.7083 732.219 Q12.7083 726.649 16.6232 723.625 Q20.5062 720.601 27.6995 720.601 L49.2156 720.601 L49.2156 726.489 L27.8905 726.489 Q22.7661 726.489 20.2834 728.304 Q17.8008 730.118 17.8008 733.842 Q17.8008 738.393 20.8245 741.035 Q23.8482 743.677 29.0681 743.677 L49.2156 743.677 L49.2156 749.565 L27.8905 749.565 Q22.7342 749.565 20.2834 751.379 Q17.8008 753.194 17.8008 756.981 Q17.8008 761.469 20.8564 764.111 Q23.8801 766.753 29.0681 766.753 L49.2156 766.753 L49.2156 772.641 L13.5676 772.641 L13.5676 766.753 L19.1058 766.753 Q15.8275 764.747 14.2679 761.946 Q12.7083 759.146 12.7083 755.294 Q12.7083 751.411 14.6816 748.706 Q16.655 745.969 20.4108 744.664 Z" fill="#000000" fill-rule="nonzero" fill-opacity="1" /><path clip-path="url(#clip320)" d="M29.9275 678.428 L32.7921 678.428 L32.7921 705.355 Q38.8395 704.973 42.0223 701.727 Q45.1734 698.449 45.1734 692.624 Q45.1734 689.25 44.3458 686.099 Q43.5183 682.916 41.8632 679.797 L47.4014 679.797 Q48.7382 682.948 49.4384 686.258 Q50.1386 689.568 50.1386 692.974 Q50.1386 701.504 45.1734 706.501 Q40.2081 711.466 31.7417 711.466 Q22.9889 711.466 17.8645 706.756 Q12.7083 702.013 12.7083 693.993 Q12.7083 686.799 17.3552 682.63 Q21.9704 678.428 29.9275 678.428 M28.2088 684.285 Q23.4026 684.348 20.5381 686.99 Q17.6735 689.6 17.6735 693.929 Q17.6735 698.83 20.4426 701.791 Q23.2117 704.719 28.2406 705.164 L28.2088 684.285 Z" fill="#000000" fill-rule="nonzero" fill-opacity="1" /><path clip-path="url(#clip320)" d="M31.2961 652.615 Q31.2961 659.713 32.9194 662.45 Q34.5426 665.188 38.4575 665.188 Q41.5767 665.188 43.4228 663.151 Q45.237 661.082 45.237 657.549 Q45.237 652.679 41.7995 649.751 Q38.3302 646.791 32.6011 646.791 L31.2961 646.791 L31.2961 652.615 M28.8772 640.934 L49.2156 640.934 L49.2156 646.791 L43.8047 646.791 Q47.0512 648.796 48.6108 651.788 Q50.1386 654.78 50.1386 659.108 Q50.1386 664.583 47.0831 667.829 Q43.9957 671.044 38.8395 671.044 Q32.8239 671.044 29.7684 667.034 Q26.7128 662.992 26.7128 655.003 L26.7128 646.791 L26.1399 646.791 Q22.0977 646.791 19.9015 649.464 Q17.6735 652.106 17.6735 656.912 Q17.6735 659.968 18.4056 662.864 Q19.1376 665.761 20.6017 668.434 L15.1909 668.434 Q13.9496 665.22 13.3448 662.196 Q12.7083 659.172 12.7083 656.308 Q12.7083 648.573 16.7187 644.754 Q20.729 640.934 28.8772 640.934 Z" fill="#000000" fill-rule="nonzero" fill-opacity="1" /><path clip-path="url(#clip320)" d="M27.6995 599.239 L49.2156 599.239 L49.2156 605.095 L27.8905 605.095 Q22.8297 605.095 20.3153 607.069 Q17.8008 609.042 17.8008 612.989 Q17.8008 617.731 20.8245 620.469 Q23.8482 623.206 29.0681 623.206 L49.2156 623.206 L49.2156 629.094 L13.5676 629.094 L13.5676 623.206 L19.1058 623.206 Q15.8911 621.105 14.2997 618.272 Q12.7083 615.408 12.7083 611.684 Q12.7083 605.541 16.5277 602.39 Q20.3153 599.239 27.6995 599.239 Z" fill="#000000" fill-rule="nonzero" fill-opacity="1" /><path clip-path="url(#clip320)" d="M19.0421 546.181 Q18.4692 547.168 18.2146 548.345 Q17.9281 549.491 17.9281 550.891 Q17.9281 555.857 21.1746 558.53 Q24.3893 561.172 30.4368 561.172 L49.2156 561.172 L49.2156 567.06 L13.5676 567.06 L13.5676 561.172 L19.1058 561.172 Q15.8593 559.326 14.2997 556.366 Q12.7083 553.406 12.7083 549.173 Q12.7083 548.568 12.8037 547.836 Q12.8674 547.104 13.0265 546.213 L19.0421 546.181 Z" fill="#000000" fill-rule="nonzero" fill-opacity="1" /><path clip-path="url(#clip320)" d="M31.2961 523.837 Q31.2961 530.935 32.9194 533.672 Q34.5426 536.409 38.4575 536.409 Q41.5767 536.409 43.4228 534.372 Q45.237 532.304 45.237 528.771 Q45.237 523.901 41.7995 520.973 Q38.3302 518.013 32.6011 518.013 L31.2961 518.013 L31.2961 523.837 M28.8772 512.156 L49.2156 512.156 L49.2156 518.013 L43.8047 518.013 Q47.0512 520.018 48.6108 523.01 Q50.1386 526.002 50.1386 530.33 Q50.1386 535.805 47.0831 539.051 Q43.9957 542.266 38.8395 542.266 Q32.8239 542.266 29.7684 538.256 Q26.7128 534.213 26.7128 526.224 L26.7128 518.013 L26.1399 518.013 Q22.0977 518.013 19.9015 520.686 Q17.6735 523.328 17.6735 528.134 Q17.6735 531.19 18.4056 534.086 Q19.1376 536.982 20.6017 539.656 L15.1909 539.656 Q13.9496 536.441 13.3448 533.418 Q12.7083 530.394 12.7083 527.529 Q12.7083 519.795 16.7187 515.976 Q20.729 512.156 28.8772 512.156 Z" fill="#000000" fill-rule="nonzero" fill-opacity="1" /><path clip-path="url(#clip320)" d="M3.44616 494.3 L13.5676 494.3 L13.5676 482.237 L18.1191 482.237 L18.1191 494.3 L37.4709 494.3 Q41.8314 494.3 43.0727 493.123 Q44.314 491.913 44.314 488.253 L44.314 482.237 L49.2156 482.237 L49.2156 488.253 Q49.2156 495.032 46.7011 497.61 Q44.1548 500.189 37.4709 500.189 L18.1191 500.189 L18.1191 504.485 L13.5676 504.485 L13.5676 500.189 L3.44616 500.189 L3.44616 494.3 Z" fill="#000000" fill-rule="nonzero" fill-opacity="1" /><path clip-path="url(#clip320)" d="M29.9275 444.043 L32.7921 444.043 L32.7921 470.97 Q38.8395 470.588 42.0223 467.342 Q45.1734 464.063 45.1734 458.239 Q45.1734 454.865 44.3458 451.714 Q43.5183 448.531 41.8632 445.412 L47.4014 445.412 Q48.7382 448.563 49.4384 451.873 Q50.1386 455.183 50.1386 458.589 Q50.1386 467.119 45.1734 472.116 Q40.2081 477.081 31.7417 477.081 Q22.9889 477.081 17.8645 472.37 Q12.7083 467.628 12.7083 459.607 Q12.7083 452.414 17.3552 448.244 Q21.9704 444.043 29.9275 444.043 M28.2088 449.9 Q23.4026 449.963 20.5381 452.605 Q17.6735 455.215 17.6735 459.544 Q17.6735 464.445 20.4426 467.405 Q23.2117 470.333 28.2406 470.779 L28.2088 449.9 Z" fill="#000000" fill-rule="nonzero" fill-opacity="1" /><path clip-path="url(#clip320)" d="M742.406 72.576 L719.316 12.096 L727.864 12.096 L747.024 63.0159 L766.226 12.096 L774.733 12.096 L751.683 72.576 L742.406 72.576 Z" fill="#000000" fill-rule="nonzero" fill-opacity="1" /><path clip-path="url(#clip320)" d="M781.417 27.2059 L788.87 27.2059 L788.87 72.576 L781.417 72.576 L781.417 27.2059 M781.417 9.54393 L788.87 9.54393 L788.87 18.9825 L781.417 18.9825 L781.417 9.54393 Z" fill="#000000" fill-rule="nonzero" fill-opacity="1" /><path clip-path="url(#clip320)" d="M811.839 14.324 L811.839 27.2059 L827.192 27.2059 L827.192 32.9987 L811.839 32.9987 L811.839 57.6282 Q811.839 63.1779 813.338 64.7578 Q814.877 66.3376 819.536 66.3376 L827.192 66.3376 L827.192 72.576 L819.536 72.576 Q810.907 72.576 807.626 69.3758 Q804.345 66.1351 804.345 57.6282 L804.345 32.9987 L798.876 32.9987 L798.876 27.2059 L804.345 27.2059 L804.345 14.324 L811.839 14.324 Z" fill="#000000" fill-rule="nonzero" fill-opacity="1" /><path clip-path="url(#clip320)" d="M857.614 49.7694 Q848.581 49.7694 845.097 51.8354 Q841.613 53.9013 841.613 58.8839 Q841.613 62.8538 844.206 65.2034 Q846.839 67.5124 851.335 67.5124 Q857.533 67.5124 861.26 63.1374 Q865.027 58.7219 865.027 51.4303 L865.027 49.7694 L857.614 49.7694 M872.481 46.6907 L872.481 72.576 L865.027 72.576 L865.027 65.6895 Q862.475 69.8214 858.667 71.8063 Q854.859 73.7508 849.35 73.7508 Q842.383 73.7508 838.251 69.8619 Q834.159 65.9325 834.159 59.3701 Q834.159 51.7138 839.263 47.825 Q844.408 43.9361 854.576 43.9361 L865.027 43.9361 L865.027 43.2069 Q865.027 38.0623 861.624 35.2672 Q858.262 32.4315 852.145 32.4315 Q848.256 32.4315 844.57 33.3632 Q840.884 34.295 837.481 36.1584 L837.481 29.2718 Q841.572 27.692 845.421 26.9223 Q849.269 26.1121 852.915 26.1121 Q862.759 26.1121 867.62 31.2163 Q872.481 36.3204 872.481 46.6907 Z" fill="#000000" fill-rule="nonzero" fill-opacity="1" /><path clip-path="url(#clip320)" d="M887.834 9.54393 L895.287 9.54393 L895.287 72.576 L887.834 72.576 L887.834 9.54393 Z" fill="#000000" fill-rule="nonzero" fill-opacity="1" /><path clip-path="url(#clip320)" d="M963.545 34.1734 Q962.289 33.4443 960.791 33.1202 Q959.332 32.7556 957.55 32.7556 Q951.23 32.7556 947.828 36.8875 Q944.465 40.9789 944.465 48.6757 L944.465 72.576 L936.971 72.576 L936.971 27.2059 L944.465 27.2059 L944.465 34.2544 Q946.815 30.1225 950.582 28.1376 Q954.35 26.1121 959.737 26.1121 Q960.507 26.1121 961.439 26.2337 Q962.37 26.3147 963.505 26.5172 L963.545 34.1734 Z" fill="#000000" fill-rule="nonzero" fill-opacity="1" /><path clip-path="url(#clip320)" d="M991.983 49.7694 Q982.949 49.7694 979.465 51.8354 Q975.981 53.9013 975.981 58.8839 Q975.981 62.8538 978.574 65.2034 Q981.207 67.5124 985.704 67.5124 Q991.902 67.5124 995.628 63.1374 Q999.396 58.7219 999.396 51.4303 L999.396 49.7694 L991.983 49.7694 M1006.85 46.6907 L1006.85 72.576 L999.396 72.576 L999.396 65.6895 Q996.844 69.8214 993.036 71.8063 Q989.228 73.7508 983.719 73.7508 Q976.751 73.7508 972.619 69.8619 Q968.528 65.9325 968.528 59.3701 Q968.528 51.7138 973.632 47.825 Q978.777 43.9361 988.944 43.9361 L999.396 43.9361 L999.396 43.2069 Q999.396 38.0623 995.993 35.2672 Q992.631 32.4315 986.514 32.4315 Q982.625 32.4315 978.939 33.3632 Q975.252 34.295 971.85 36.1584 L971.85 29.2718 Q975.941 27.692 979.789 26.9223 Q983.638 26.1121 987.283 26.1121 Q997.127 26.1121 1001.99 31.2163 Q1006.85 36.3204 1006.85 46.6907 Z" fill="#000000" fill-rule="nonzero" fill-opacity="1" /><path clip-path="url(#clip320)" d="M1029.57 14.324 L1029.57 27.2059 L1044.93 27.2059 L1044.93 32.9987 L1029.57 32.9987 L1029.57 57.6282 Q1029.57 63.1779 1031.07 64.7578 Q1032.61 66.3376 1037.27 66.3376 L1044.93 66.3376 L1044.93 72.576 L1037.27 72.576 Q1028.64 72.576 1025.36 69.3758 Q1022.08 66.1351 1022.08 57.6282 L1022.08 32.9987 L1016.61 32.9987 L1016.61 27.2059 L1022.08 27.2059 L1022.08 14.324 L1029.57 14.324 Z" fill="#000000" fill-rule="nonzero" fill-opacity="1" /><path clip-path="url(#clip320)" d="M1093.54 48.0275 L1093.54 51.6733 L1059.27 51.6733 Q1059.75 59.3701 1063.89 63.421 Q1068.06 67.4314 1075.47 67.4314 Q1079.77 67.4314 1083.78 66.3781 Q1087.83 65.3249 1091.8 63.2184 L1091.8 70.267 Q1087.79 71.9684 1083.57 72.8596 Q1079.36 73.7508 1075.03 73.7508 Q1064.17 73.7508 1057.81 67.4314 Q1051.49 61.1119 1051.49 50.3365 Q1051.49 39.1965 1057.49 32.6746 Q1063.52 26.1121 1073.73 26.1121 Q1082.88 26.1121 1088.19 32.0264 Q1093.54 37.9003 1093.54 48.0275 M1086.09 45.84 Q1086 39.7232 1082.64 36.0774 Q1079.32 32.4315 1073.81 32.4315 Q1067.57 32.4315 1063.81 35.9558 Q1060.08 39.4801 1059.51 45.8805 L1086.09 45.84 Z" fill="#000000" fill-rule="nonzero" fill-opacity="1" /><path clip-path="url(#clip320)" d="M1139.35 65.7705 L1139.35 89.8329 L1131.86 89.8329 L1131.86 27.2059 L1139.35 27.2059 L1139.35 34.0924 Q1141.7 30.0415 1145.27 28.0971 Q1148.87 26.1121 1153.86 26.1121 Q1162.12 26.1121 1167.27 32.6746 Q1172.45 39.2371 1172.45 49.9314 Q1172.45 60.6258 1167.27 67.1883 Q1162.12 73.7508 1153.86 73.7508 Q1148.87 73.7508 1145.27 71.8063 Q1141.7 69.8214 1139.35 65.7705 M1164.71 49.9314 Q1164.71 41.7081 1161.31 37.0496 Q1157.95 32.3505 1152.03 32.3505 Q1146.12 32.3505 1142.72 37.0496 Q1139.35 41.7081 1139.35 49.9314 Q1139.35 58.1548 1142.72 62.8538 Q1146.12 67.5124 1152.03 67.5124 Q1157.95 67.5124 1161.31 62.8538 Q1164.71 58.1548 1164.71 49.9314 Z" fill="#000000" fill-rule="nonzero" fill-opacity="1" /><path clip-path="url(#clip320)" d="M1211.1 34.1734 Q1209.84 33.4443 1208.34 33.1202 Q1206.88 32.7556 1205.1 32.7556 Q1198.78 32.7556 1195.38 36.8875 Q1192.02 40.9789 1192.02 48.6757 L1192.02 72.576 L1184.52 72.576 L1184.52 27.2059 L1192.02 27.2059 L1192.02 34.2544 Q1194.37 30.1225 1198.13 28.1376 Q1201.9 26.1121 1207.29 26.1121 Q1208.06 26.1121 1208.99 26.2337 Q1209.92 26.3147 1211.06 26.5172 L1211.1 34.1734 Z" fill="#000000" fill-rule="nonzero" fill-opacity="1" /><path clip-path="url(#clip320)" d="M1234.67 32.4315 Q1228.68 32.4315 1225.19 37.1306 Q1221.71 41.7891 1221.71 49.9314 Q1221.71 58.0738 1225.15 62.7728 Q1228.64 67.4314 1234.67 67.4314 Q1240.63 67.4314 1244.11 62.7323 Q1247.59 58.0333 1247.59 49.9314 Q1247.59 41.8701 1244.11 37.1711 Q1240.63 32.4315 1234.67 32.4315 M1234.67 26.1121 Q1244.39 26.1121 1249.94 32.4315 Q1255.49 38.7509 1255.49 49.9314 Q1255.49 61.0714 1249.94 67.4314 Q1244.39 73.7508 1234.67 73.7508 Q1224.91 73.7508 1219.36 67.4314 Q1213.85 61.0714 1213.85 49.9314 Q1213.85 38.7509 1219.36 32.4315 Q1224.91 26.1121 1234.67 26.1121 Z" fill="#000000" fill-rule="nonzero" fill-opacity="1" /><path clip-path="url(#clip320)" d="M1290.82 9.54393 L1290.82 15.7418 L1283.69 15.7418 Q1279.68 15.7418 1278.1 17.3622 Q1276.56 18.9825 1276.56 23.1955 L1276.56 27.2059 L1288.83 27.2059 L1288.83 32.9987 L1276.56 32.9987 L1276.56 72.576 L1269.06 72.576 L1269.06 32.9987 L1261.93 32.9987 L1261.93 27.2059 L1269.06 27.2059 L1269.06 24.0462 Q1269.06 16.471 1272.59 13.0277 Q1276.11 9.54393 1283.77 9.54393 L1290.82 9.54393 Z" fill="#000000" fill-rule="nonzero" fill-opacity="1" /><path clip-path="url(#clip320)" d="M1297.06 27.2059 L1304.51 27.2059 L1304.51 72.576 L1297.06 72.576 L1297.06 27.2059 M1297.06 9.54393 L1304.51 9.54393 L1304.51 18.9825 L1297.06 18.9825 L1297.06 9.54393 Z" fill="#000000" fill-rule="nonzero" fill-opacity="1" /><path clip-path="url(#clip320)" d="M1320.11 9.54393 L1327.56 9.54393 L1327.56 72.576 L1320.11 72.576 L1320.11 9.54393 Z" fill="#000000" fill-rule="nonzero" fill-opacity="1" /><path clip-path="url(#clip320)" d="M1381.96 48.0275 L1381.96 51.6733 L1347.69 51.6733 Q1348.18 59.3701 1352.31 63.421 Q1356.48 67.4314 1363.9 67.4314 Q1368.19 67.4314 1372.2 66.3781 Q1376.25 65.3249 1380.22 63.2184 L1380.22 70.267 Q1376.21 71.9684 1372 72.8596 Q1367.78 73.7508 1363.45 73.7508 Q1352.59 73.7508 1346.23 67.4314 Q1339.91 61.1119 1339.91 50.3365 Q1339.91 39.1965 1345.91 32.6746 Q1351.95 26.1121 1362.15 26.1121 Q1371.31 26.1121 1376.62 32.0264 Q1381.96 37.9003 1381.96 48.0275 M1374.51 45.84 Q1374.43 39.7232 1371.07 36.0774 Q1367.74 32.4315 1362.24 32.4315 Q1356 32.4315 1352.23 35.9558 Q1348.5 39.4801 1347.94 45.8805 L1374.51 45.84 Z" fill="#000000" fill-rule="nonzero" fill-opacity="1" /><path clip-path="url(#clip320)" d="M1423.12 28.5427 L1423.12 35.5912 Q1419.96 33.9709 1416.56 33.1607 Q1413.16 32.3505 1409.51 32.3505 Q1403.96 32.3505 1401.16 34.0519 Q1398.41 35.7533 1398.41 39.156 Q1398.41 41.7486 1400.39 43.2475 Q1402.38 44.7058 1408.37 46.0426 L1410.93 46.6097 Q1418.87 48.3111 1422.19 51.4303 Q1425.55 54.509 1425.55 60.0587 Q1425.55 66.3781 1420.53 70.0644 Q1415.55 73.7508 1406.8 73.7508 Q1403.15 73.7508 1399.18 73.0216 Q1395.25 72.3329 1390.88 70.9151 L1390.88 63.2184 Q1395.01 65.3654 1399.02 66.4591 Q1403.03 67.5124 1406.96 67.5124 Q1412.22 67.5124 1415.06 65.73 Q1417.89 63.9071 1417.89 60.6258 Q1417.89 57.5877 1415.83 55.9673 Q1413.8 54.3469 1406.88 52.8481 L1404.28 52.2405 Q1397.36 50.7821 1394.28 47.7845 Q1391.2 44.7463 1391.2 39.4801 Q1391.2 33.0797 1395.74 29.5959 Q1400.27 26.1121 1408.62 26.1121 Q1412.75 26.1121 1416.4 26.7198 Q1420.04 27.3274 1423.12 28.5427 Z" fill="#000000" fill-rule="nonzero" fill-opacity="1" /><path clip-path="url(#clip320)" d="M1484.41 49.7694 Q1475.38 49.7694 1471.89 51.8354 Q1468.41 53.9013 1468.41 58.8839 Q1468.41 62.8538 1471 65.2034 Q1473.64 67.5124 1478.13 67.5124 Q1484.33 67.5124 1488.06 63.1374 Q1491.82 58.7219 1491.82 51.4303 L1491.82 49.7694 L1484.41 49.7694 M1499.28 46.6907 L1499.28 72.576 L1491.82 72.576 L1491.82 65.6895 Q1489.27 69.8214 1485.46 71.8063 Q1481.66 73.7508 1476.15 73.7508 Q1469.18 73.7508 1465.05 69.8619 Q1460.96 65.9325 1460.96 59.3701 Q1460.96 51.7138 1466.06 47.825 Q1471.2 43.9361 1481.37 43.9361 L1491.82 43.9361 L1491.82 43.2069 Q1491.82 38.0623 1488.42 35.2672 Q1485.06 32.4315 1478.94 32.4315 Q1475.05 32.4315 1471.37 33.3632 Q1467.68 34.295 1464.28 36.1584 L1464.28 29.2718 Q1468.37 27.692 1472.22 26.9223 Q1476.07 26.1121 1479.71 26.1121 Q1489.56 26.1121 1494.42 31.2163 Q1499.28 36.3204 1499.28 46.6907 Z" fill="#000000" fill-rule="nonzero" fill-opacity="1" /><path clip-path="url(#clip320)" d="M1547.28 28.9478 L1547.28 35.9153 Q1544.12 34.1734 1540.92 33.3227 Q1537.76 32.4315 1534.52 32.4315 Q1527.27 32.4315 1523.26 37.0496 Q1519.25 41.6271 1519.25 49.9314 Q1519.25 58.2358 1523.26 62.8538 Q1527.27 67.4314 1534.52 67.4314 Q1537.76 67.4314 1540.92 66.5807 Q1544.12 65.6895 1547.28 63.9476 L1547.28 70.8341 Q1544.16 72.2924 1540.8 73.0216 Q1537.48 73.7508 1533.71 73.7508 Q1523.46 73.7508 1517.43 67.3098 Q1511.39 60.8689 1511.39 49.9314 Q1511.39 38.832 1517.47 32.472 Q1523.58 26.1121 1534.2 26.1121 Q1537.64 26.1121 1540.92 26.8413 Q1544.2 27.5299 1547.28 28.9478 Z" fill="#000000" fill-rule="nonzero" fill-opacity="1" /><path clip-path="url(#clip320)" d="M1586.53 34.1734 Q1585.28 33.4443 1583.78 33.1202 Q1582.32 32.7556 1580.54 32.7556 Q1574.22 32.7556 1570.82 36.8875 Q1567.45 40.9789 1567.45 48.6757 L1567.45 72.576 L1559.96 72.576 L1559.96 27.2059 L1567.45 27.2059 L1567.45 34.2544 Q1569.8 30.1225 1573.57 28.1376 Q1577.34 26.1121 1582.73 26.1121 Q1583.5 26.1121 1584.43 26.2337 Q1585.36 26.3147 1586.49 26.5172 L1586.53 34.1734 Z" fill="#000000" fill-rule="nonzero" fill-opacity="1" /><path clip-path="url(#clip320)" d="M1610.11 32.4315 Q1604.11 32.4315 1600.63 37.1306 Q1597.15 41.7891 1597.15 49.9314 Q1597.15 58.0738 1600.59 62.7728 Q1604.07 67.4314 1610.11 67.4314 Q1616.06 67.4314 1619.55 62.7323 Q1623.03 58.0333 1623.03 49.9314 Q1623.03 41.8701 1619.55 37.1711 Q1616.06 32.4315 1610.11 32.4315 M1610.11 26.1121 Q1619.83 26.1121 1625.38 32.4315 Q1630.93 38.7509 1630.93 49.9314 Q1630.93 61.0714 1625.38 67.4314 Q1619.83 73.7508 1610.11 73.7508 Q1600.35 73.7508 1594.8 67.4314 Q1589.29 61.0714 1589.29 49.9314 Q1589.29 38.7509 1594.8 32.4315 Q1600.35 26.1121 1610.11 26.1121 Z" fill="#000000" fill-rule="nonzero" fill-opacity="1" /><path clip-path="url(#clip320)" d="M1672.21 28.5427 L1672.21 35.5912 Q1669.05 33.9709 1665.65 33.1607 Q1662.25 32.3505 1658.6 32.3505 Q1653.05 32.3505 1650.25 34.0519 Q1647.5 35.7533 1647.5 39.156 Q1647.5 41.7486 1649.48 43.2475 Q1651.47 44.7058 1657.47 46.0426 L1660.02 46.6097 Q1667.96 48.3111 1671.28 51.4303 Q1674.64 54.509 1674.64 60.0587 Q1674.64 66.3781 1669.62 70.0644 Q1664.64 73.7508 1655.89 73.7508 Q1652.24 73.7508 1648.27 73.0216 Q1644.34 72.3329 1639.97 70.9151 L1639.97 63.2184 Q1644.1 65.3654 1648.11 66.4591 Q1652.12 67.5124 1656.05 67.5124 Q1661.31 67.5124 1664.15 65.73 Q1666.98 63.9071 1666.98 60.6258 Q1666.98 57.5877 1664.92 55.9673 Q1662.89 54.3469 1655.97 52.8481 L1653.37 52.2405 Q1646.45 50.7821 1643.37 47.7845 Q1640.29 44.7463 1640.29 39.4801 Q1640.29 33.0797 1644.83 29.5959 Q1649.36 26.1121 1657.71 26.1121 Q1661.84 26.1121 1665.49 26.7198 Q1669.13 27.3274 1672.21 28.5427 Z" fill="#000000" fill-rule="nonzero" fill-opacity="1" /><path clip-path="url(#clip320)" d="M1715.43 28.5427 L1715.43 35.5912 Q1712.27 33.9709 1708.87 33.1607 Q1705.47 32.3505 1701.82 32.3505 Q1696.27 32.3505 1693.48 34.0519 Q1690.72 35.7533 1690.72 39.156 Q1690.72 41.7486 1692.71 43.2475 Q1694.69 44.7058 1700.69 46.0426 L1703.24 46.6097 Q1711.18 48.3111 1714.5 51.4303 Q1717.86 54.509 1717.86 60.0587 Q1717.86 66.3781 1712.84 70.0644 Q1707.86 73.7508 1699.11 73.7508 Q1695.46 73.7508 1691.49 73.0216 Q1687.56 72.3329 1683.19 70.9151 L1683.19 63.2184 Q1687.32 65.3654 1691.33 66.4591 Q1695.34 67.5124 1699.27 67.5124 Q1704.54 67.5124 1707.37 65.73 Q1710.21 63.9071 1710.21 60.6258 Q1710.21 57.5877 1708.14 55.9673 Q1706.12 54.3469 1699.19 52.8481 L1696.6 52.2405 Q1689.67 50.7821 1686.59 47.7845 Q1683.51 44.7463 1683.51 39.4801 Q1683.51 33.0797 1688.05 29.5959 Q1692.59 26.1121 1700.93 26.1121 Q1705.06 26.1121 1708.71 26.7198 Q1712.35 27.3274 1715.43 28.5427 Z" fill="#000000" fill-rule="nonzero" fill-opacity="1" /><path clip-path="url(#clip320)" d="M1756.1 9.54393 L1763.56 9.54393 L1763.56 72.576 L1756.1 72.576 L1756.1 9.54393 Z" fill="#000000" fill-rule="nonzero" fill-opacity="1" /><path clip-path="url(#clip320)" d="M1779.15 27.2059 L1786.61 27.2059 L1786.61 72.576 L1779.15 72.576 L1779.15 27.2059 M1779.15 9.54393 L1786.61 9.54393 L1786.61 18.9825 L1779.15 18.9825 L1779.15 9.54393 Z" fill="#000000" fill-rule="nonzero" fill-opacity="1" /><path clip-path="url(#clip320)" d="M1825.17 9.54393 L1825.17 15.7418 L1818.04 15.7418 Q1814.03 15.7418 1812.45 17.3622 Q1810.91 18.9825 1810.91 23.1955 L1810.91 27.2059 L1823.19 27.2059 L1823.19 32.9987 L1810.91 32.9987 L1810.91 72.576 L1803.42 72.576 L1803.42 32.9987 L1796.29 32.9987 L1796.29 27.2059 L1803.42 27.2059 L1803.42 24.0462 Q1803.42 16.471 1806.94 13.0277 Q1810.47 9.54393 1818.12 9.54393 L1825.17 9.54393 Z" fill="#000000" fill-rule="nonzero" fill-opacity="1" /><path clip-path="url(#clip320)" d="M1870.22 48.0275 L1870.22 51.6733 L1835.95 51.6733 Q1836.43 59.3701 1840.57 63.421 Q1844.74 67.4314 1852.15 67.4314 Q1856.45 67.4314 1860.46 66.3781 Q1864.51 65.3249 1868.48 63.2184 L1868.48 70.267 Q1864.47 71.9684 1860.25 72.8596 Q1856.04 73.7508 1851.71 73.7508 Q1840.85 73.7508 1834.49 67.4314 Q1828.17 61.1119 1828.17 50.3365 Q1828.17 39.1965 1834.17 32.6746 Q1840.2 26.1121 1850.41 26.1121 Q1859.56 26.1121 1864.87 32.0264 Q1870.22 37.9003 1870.22 48.0275 M1862.76 45.84 Q1862.68 39.7232 1859.32 36.0774 Q1856 32.4315 1850.49 32.4315 Q1844.25 32.4315 1840.48 35.9558 Q1836.76 39.4801 1836.19 45.8805 L1862.76 45.84 Z" fill="#000000" fill-rule="nonzero" fill-opacity="1" /><path clip-path="url(#clip320)" d="M1946.54 45.1919 L1946.54 72.576 L1939.08 72.576 L1939.08 45.4349 Q1939.08 38.994 1936.57 35.7938 Q1934.06 32.5936 1929.04 32.5936 Q1923 32.5936 1919.52 36.4419 Q1916.03 40.2903 1916.03 46.9338 L1916.03 72.576 L1908.54 72.576 L1908.54 9.54393 L1916.03 9.54393 L1916.03 34.2544 Q1918.71 30.163 1922.31 28.1376 Q1925.96 26.1121 1930.7 26.1121 Q1938.52 26.1121 1942.53 30.9732 Q1946.54 35.7938 1946.54 45.1919 Z" fill="#000000" fill-rule="nonzero" fill-opacity="1" /><path clip-path="url(#clip320)" d="M1961.4 27.2059 L1968.86 27.2059 L1968.86 72.576 L1961.4 72.576 L1961.4 27.2059 M1961.4 9.54393 L1968.86 9.54393 L1968.86 18.9825 L1961.4 18.9825 L1961.4 9.54393 Z" fill="#000000" fill-rule="nonzero" fill-opacity="1" /><path clip-path="url(#clip320)" d="M2013.38 28.5427 L2013.38 35.5912 Q2010.22 33.9709 2006.82 33.1607 Q2003.41 32.3505 1999.77 32.3505 Q1994.22 32.3505 1991.42 34.0519 Q1988.67 35.7533 1988.67 39.156 Q1988.67 41.7486 1990.65 43.2475 Q1992.64 44.7058 1998.63 46.0426 L2001.18 46.6097 Q2009.12 48.3111 2012.45 51.4303 Q2015.81 54.509 2015.81 60.0587 Q2015.81 66.3781 2010.78 70.0644 Q2005.8 73.7508 1997.05 73.7508 Q1993.41 73.7508 1989.44 73.0216 Q1985.51 72.3329 1981.13 70.9151 L1981.13 63.2184 Q1985.26 65.3654 1989.27 66.4591 Q1993.29 67.5124 1997.21 67.5124 Q2002.48 67.5124 2005.32 65.73 Q2008.15 63.9071 2008.15 60.6258 Q2008.15 57.5877 2006.09 55.9673 Q2004.06 54.3469 1997.13 52.8481 L1994.54 52.2405 Q1987.61 50.7821 1984.54 47.7845 Q1981.46 44.7463 1981.46 39.4801 Q1981.46 33.0797 1985.99 29.5959 Q1990.53 26.1121 1998.88 26.1121 Q2003.01 26.1121 2006.65 26.7198 Q2010.3 27.3274 2013.38 28.5427 Z" fill="#000000" fill-rule="nonzero" fill-opacity="1" /><path clip-path="url(#clip320)" d="M2035.05 14.324 L2035.05 27.2059 L2050.4 27.2059 L2050.4 32.9987 L2035.05 32.9987 L2035.05 57.6282 Q2035.05 63.1779 2036.55 64.7578 Q2038.09 66.3376 2042.75 66.3376 L2050.4 66.3376 L2050.4 72.576 L2042.75 72.576 Q2034.12 72.576 2030.84 69.3758 Q2027.56 66.1351 2027.56 57.6282 L2027.56 32.9987 L2022.09 32.9987 L2022.09 27.2059 L2027.56 27.2059 L2027.56 14.324 L2035.05 14.324 Z" fill="#000000" fill-rule="nonzero" fill-opacity="1" /><path clip-path="url(#clip320)" d="M2077.79 32.4315 Q2071.79 32.4315 2068.31 37.1306 Q2064.82 41.7891 2064.82 49.9314 Q2064.82 58.0738 2068.27 62.7728 Q2071.75 67.4314 2077.79 67.4314 Q2083.74 67.4314 2087.23 62.7323 Q2090.71 58.0333 2090.71 49.9314 Q2090.71 41.8701 2087.23 37.1711 Q2083.74 32.4315 2077.79 32.4315 M2077.79 26.1121 Q2087.51 26.1121 2093.06 32.4315 Q2098.61 38.7509 2098.61 49.9314 Q2098.61 61.0714 2093.06 67.4314 Q2087.51 73.7508 2077.79 73.7508 Q2068.02 73.7508 2062.47 67.4314 Q2056.97 61.0714 2056.97 49.9314 Q2056.97 38.7509 2062.47 32.4315 Q2068.02 26.1121 2077.79 26.1121 Z" fill="#000000" fill-rule="nonzero" fill-opacity="1" /><path clip-path="url(#clip320)" d="M2137.25 34.1734 Q2136 33.4443 2134.5 33.1202 Q2133.04 32.7556 2131.26 32.7556 Q2124.94 32.7556 2121.54 36.8875 Q2118.17 40.9789 2118.17 48.6757 L2118.17 72.576 L2110.68 72.576 L2110.68 27.2059 L2118.17 27.2059 L2118.17 34.2544 Q2120.52 30.1225 2124.29 28.1376 Q2128.06 26.1121 2133.45 26.1121 Q2134.22 26.1121 2135.15 26.2337 Q2136.08 26.3147 2137.21 26.5172 L2137.25 34.1734 Z" fill="#000000" fill-rule="nonzero" fill-opacity="1" /><path clip-path="url(#clip320)" d="M2145.07 27.2059 L2152.53 27.2059 L2152.53 72.576 L2145.07 72.576 L2145.07 27.2059 M2145.07 9.54393 L2152.53 9.54393 L2152.53 18.9825 L2145.07 18.9825 L2145.07 9.54393 Z" fill="#000000" fill-rule="nonzero" fill-opacity="1" /><path clip-path="url(#clip320)" d="M2206.93 48.0275 L2206.93 51.6733 L2172.66 51.6733 Q2173.15 59.3701 2177.28 63.421 Q2181.45 67.4314 2188.86 67.4314 Q2193.16 67.4314 2197.17 66.3781 Q2201.22 65.3249 2205.19 63.2184 L2205.19 70.267 Q2201.18 71.9684 2196.96 72.8596 Q2192.75 73.7508 2188.42 73.7508 Q2177.56 73.7508 2171.2 67.4314 Q2164.88 61.1119 2164.88 50.3365 Q2164.88 39.1965 2170.88 32.6746 Q2176.91 26.1121 2187.12 26.1121 Q2196.28 26.1121 2201.58 32.0264 Q2206.93 37.9003 2206.93 48.0275 M2199.48 45.84 Q2199.4 39.7232 2196.03 36.0774 Q2192.71 32.4315 2187.2 32.4315 Q2180.96 32.4315 2177.2 35.9558 Q2173.47 39.4801 2172.9 45.8805 L2199.48 45.84 Z" fill="#000000" fill-rule="nonzero" fill-opacity="1" /><path clip-path="url(#clip320)" d="M2248.09 28.5427 L2248.09 35.5912 Q2244.93 33.9709 2241.52 33.1607 Q2238.12 32.3505 2234.48 32.3505 Q2228.93 32.3505 2226.13 34.0519 Q2223.38 35.7533 2223.38 39.156 Q2223.38 41.7486 2225.36 43.2475 Q2227.35 44.7058 2233.34 46.0426 L2235.89 46.6097 Q2243.83 48.3111 2247.16 51.4303 Q2250.52 54.509 2250.52 60.0587 Q2250.52 66.3781 2245.49 70.0644 Q2240.51 73.7508 2231.76 73.7508 Q2228.12 73.7508 2224.15 73.0216 Q2220.22 72.3329 2215.84 70.9151 L2215.84 63.2184 Q2219.97 65.3654 2223.98 66.4591 Q2227.99 67.5124 2231.92 67.5124 Q2237.19 67.5124 2240.03 65.73 Q2242.86 63.9071 2242.86 60.6258 Q2242.86 57.5877 2240.8 55.9673 Q2238.77 54.3469 2231.84 52.8481 L2229.25 52.2405 Q2222.32 50.7821 2219.24 47.7845 Q2216.17 44.7463 2216.17 39.4801 Q2216.17 33.0797 2220.7 29.5959 Q2225.24 26.1121 2233.58 26.1121 Q2237.72 26.1121 2241.36 26.7198 Q2245.01 27.3274 2248.09 28.5427 Z" fill="#000000" fill-rule="nonzero" fill-opacity="1" /><path clip-path="url(#clip321)" d="M346.369 1434.91 L346.369 1434.91 L466.216 1434.91 L466.216 1434.91 L346.369 1434.91 L346.369 1434.91  Z" fill="#008080" fill-rule="evenodd" fill-opacity="0.7"/>
<polyline clip-path="url(#clip321)" style="stroke:#000000; stroke-linecap:round; stroke-linejoin:round; stroke-width:4; stroke-opacity:0.7; fill:none" points="346.369,1434.91 346.369,1434.91 466.216,1434.91 346.369,1434.91 "/>
<path clip-path="url(#clip321)" d="M945.605 452.424 L945.605 1434.91 L1065.45 1434.91 L1065.45 452.424 L945.605 452.424 L945.605 452.424  Z" fill="#008080" fill-rule="evenodd" fill-opacity="0.7"/>
<polyline clip-path="url(#clip321)" style="stroke:#000000; stroke-linecap:round; stroke-linejoin:round; stroke-width:4; stroke-opacity:0.7; fill:none" points="945.605,452.424 945.605,1434.91 1065.45,1434.91 1065.45,452.424 945.605,452.424 "/>
<path clip-path="url(#clip321)" d="M1544.84 141.234 L1544.84 1434.91 L1664.69 1434.91 L1664.69 141.234 L1544.84 141.234 L1544.84 141.234  Z" fill="#008080" fill-rule="evenodd" fill-opacity="0.7"/>
<polyline clip-path="url(#clip321)" style="stroke:#000000; stroke-linecap:round; stroke-linejoin:round; stroke-width:4; stroke-opacity:0.7; fill:none" points="1544.84,141.234 1544.84,1434.91 1664.69,1434.91 1664.69,141.234 1544.84,141.234 "/>
<path clip-path="url(#clip321)" d="M2144.08 220.438 L2144.08 1434.91 L2263.92 1434.91 L2263.92 220.438 L2144.08 220.438 L2144.08 220.438  Z" fill="#008080" fill-rule="evenodd" fill-opacity="0.7"/>
<polyline clip-path="url(#clip321)" style="stroke:#000000; stroke-linecap:round; stroke-linejoin:round; stroke-width:4; stroke-opacity:0.7; fill:none" points="2144.08,220.438 2144.08,1434.91 2263.92,1434.91 2263.92,220.438 2144.08,220.438 "/>
<circle clip-path="url(#clip321)" style="fill:#008080; stroke:none; fill-opacity:0" cx="406.292" cy="1434.91" r="2"/>
<circle clip-path="url(#clip321)" style="fill:#008080; stroke:none; fill-opacity:0" cx="1005.53" cy="452.424" r="2"/>
<circle clip-path="url(#clip321)" style="fill:#008080; stroke:none; fill-opacity:0" cx="1604.76" cy="141.234" r="2"/>
<circle clip-path="url(#clip321)" style="fill:#008080; stroke:none; fill-opacity:0" cx="2204" cy="220.438" r="2"/>
<path clip-path="url(#clip321)" d="M466.216 1434.91 L466.216 1434.91 L586.063 1434.91 L586.063 1434.91 L466.216 1434.91 L466.216 1434.91  Z" fill="#228b22" fill-rule="evenodd" fill-opacity="0.7"/>
<polyline clip-path="url(#clip321)" style="stroke:#000000; stroke-linecap:round; stroke-linejoin:round; stroke-width:4; stroke-opacity:0.7; fill:none" points="466.216,1434.91 466.216,1434.91 586.063,1434.91 466.216,1434.91 "/>
<path clip-path="url(#clip321)" d="M1065.45 1289.22 L1065.45 1434.91 L1185.3 1434.91 L1185.3 1289.22 L1065.45 1289.22 L1065.45 1289.22  Z" fill="#228b22" fill-rule="evenodd" fill-opacity="0.7"/>
<polyline clip-path="url(#clip321)" style="stroke:#000000; stroke-linecap:round; stroke-linejoin:round; stroke-width:4; stroke-opacity:0.7; fill:none" points="1065.45,1289.22 1065.45,1434.91 1185.3,1434.91 1185.3,1289.22 1065.45,1289.22 "/>
<path clip-path="url(#clip321)" d="M1664.69 1434.91 L1664.69 1434.91 L1784.53 1434.91 L1784.53 1434.91 L1664.69 1434.91 L1664.69 1434.91  Z" fill="#228b22" fill-rule="evenodd" fill-opacity="0.7"/>
<polyline clip-path="url(#clip321)" style="stroke:#000000; stroke-linecap:round; stroke-linejoin:round; stroke-width:4; stroke-opacity:0.7; fill:none" points="1664.69,1434.91 1664.69,1434.91 1784.53,1434.91 1664.69,1434.91 "/>
<path clip-path="url(#clip321)" d="M2263.92 1434.91 L2263.92 1434.91 L2383.77 1434.91 L2383.77 1434.91 L2263.92 1434.91 L2263.92 1434.91  Z" fill="#228b22" fill-rule="evenodd" fill-opacity="0.7"/>
<polyline clip-path="url(#clip321)" style="stroke:#000000; stroke-linecap:round; stroke-linejoin:round; stroke-width:4; stroke-opacity:0.7; fill:none" points="2263.92,1434.91 2263.92,1434.91 2383.77,1434.91 2263.92,1434.91 "/>
<circle clip-path="url(#clip321)" style="fill:#228b22; stroke:none; fill-opacity:0" cx="526.14" cy="1434.91" r="2"/>
<circle clip-path="url(#clip321)" style="fill:#228b22; stroke:none; fill-opacity:0" cx="1125.38" cy="1289.22" r="2"/>
<circle clip-path="url(#clip321)" style="fill:#228b22; stroke:none; fill-opacity:0" cx="1724.61" cy="1434.91" r="2"/>
<circle clip-path="url(#clip321)" style="fill:#228b22; stroke:none; fill-opacity:0" cx="2323.85" cy="1434.91" r="2"/>
<path clip-path="url(#clip321)" d="M586.063 1434.91 L586.063 1434.91 L705.91 1434.91 L705.91 1434.91 L586.063 1434.91 L586.063 1434.91  Z" fill="#daa520" fill-rule="evenodd" fill-opacity="0.7"/>
<polyline clip-path="url(#clip321)" style="stroke:#000000; stroke-linecap:round; stroke-linejoin:round; stroke-width:4; stroke-opacity:0.7; fill:none" points="586.063,1434.91 586.063,1434.91 705.91,1434.91 586.063,1434.91 "/>
<path clip-path="url(#clip321)" d="M1185.3 427.866 L1185.3 1434.91 L1305.15 1434.91 L1305.15 427.866 L1185.3 427.866 L1185.3 427.866  Z" fill="#daa520" fill-rule="evenodd" fill-opacity="0.7"/>
<polyline clip-path="url(#clip321)" style="stroke:#000000; stroke-linecap:round; stroke-linejoin:round; stroke-width:4; stroke-opacity:0.7; fill:none" points="1185.3,427.866 1185.3,1434.91 1305.15,1434.91 1305.15,427.866 1185.3,427.866 "/>
<path clip-path="url(#clip321)" d="M1784.53 114.832 L1784.53 1434.91 L1904.38 1434.91 L1904.38 114.832 L1784.53 114.832 L1784.53 114.832  Z" fill="#daa520" fill-rule="evenodd" fill-opacity="0.7"/>
<polyline clip-path="url(#clip321)" style="stroke:#000000; stroke-linecap:round; stroke-linejoin:round; stroke-width:4; stroke-opacity:0.7; fill:none" points="1784.53,114.832 1784.53,1434.91 1904.38,1434.91 1904.38,114.832 1784.53,114.832 "/>
<path clip-path="url(#clip321)" d="M2383.77 114.832 L2383.77 1434.91 L2503.62 1434.91 L2503.62 114.832 L2383.77 114.832 L2383.77 114.832  Z" fill="#daa520" fill-rule="evenodd" fill-opacity="0.7"/>
<polyline clip-path="url(#clip321)" style="stroke:#000000; stroke-linecap:round; stroke-linejoin:round; stroke-width:4; stroke-opacity:0.7; fill:none" points="2383.77,114.832 2383.77,1434.91 2503.62,1434.91 2503.62,114.832 2383.77,114.832 "/>
<circle clip-path="url(#clip321)" style="fill:#daa520; stroke:none; fill-opacity:0" cx="645.987" cy="1434.91" r="2"/>
<circle clip-path="url(#clip321)" style="fill:#daa520; stroke:none; fill-opacity:0" cx="1245.22" cy="427.866" r="2"/>
<circle clip-path="url(#clip321)" style="fill:#daa520; stroke:none; fill-opacity:0" cx="1844.46" cy="114.832" r="2"/>
<circle clip-path="url(#clip321)" style="fill:#daa520; stroke:none; fill-opacity:0" cx="2443.69" cy="114.832" r="2"/>
<path clip-path="url(#clip321)" d="M705.91 1434.91 L705.91 1434.91 L825.757 1434.91 L825.757 1434.91 L705.91 1434.91 L705.91 1434.91  Z" fill="#cd5c5c" fill-rule="evenodd" fill-opacity="0.7"/>
<polyline clip-path="url(#clip321)" style="stroke:#000000; stroke-linecap:round; stroke-linejoin:round; stroke-width:4; stroke-opacity:0.7; fill:none" points="705.91,1434.91 705.91,1434.91 825.757,1434.91 705.91,1434.91 "/>
<path clip-path="url(#clip321)" d="M1305.15 1267.56 L1305.15 1434.91 L1424.99 1434.91 L1424.99 1267.56 L1305.15 1267.56 L1305.15 1267.56  Z" fill="#cd5c5c" fill-rule="evenodd" fill-opacity="0.7"/>
<polyline clip-path="url(#clip321)" style="stroke:#000000; stroke-linecap:round; stroke-linejoin:round; stroke-width:4; stroke-opacity:0.7; fill:none" points="1305.15,1267.56 1305.15,1434.91 1424.99,1434.91 1424.99,1267.56 1305.15,1267.56 "/>
<path clip-path="url(#clip321)" d="M1904.38 1434.91 L1904.38 1434.91 L2024.23 1434.91 L2024.23 1434.91 L1904.38 1434.91 L1904.38 1434.91  Z" fill="#cd5c5c" fill-rule="evenodd" fill-opacity="0.7"/>
<polyline clip-path="url(#clip321)" style="stroke:#000000; stroke-linecap:round; stroke-linejoin:round; stroke-width:4; stroke-opacity:0.7; fill:none" points="1904.38,1434.91 1904.38,1434.91 2024.23,1434.91 1904.38,1434.91 "/>
<path clip-path="url(#clip321)" d="M2503.62 1434.91 L2503.62 1434.91 L2623.46 1434.91 L2623.46 1434.91 L2503.62 1434.91 L2503.62 1434.91  Z" fill="#cd5c5c" fill-rule="evenodd" fill-opacity="0.7"/>
<polyline clip-path="url(#clip321)" style="stroke:#000000; stroke-linecap:round; stroke-linejoin:round; stroke-width:4; stroke-opacity:0.7; fill:none" points="2503.62,1434.91 2503.62,1434.91 2623.46,1434.91 2503.62,1434.91 "/>
<circle clip-path="url(#clip321)" style="fill:#cd5c5c; stroke:none; fill-opacity:0" cx="765.834" cy="1434.91" r="2"/>
<circle clip-path="url(#clip321)" style="fill:#cd5c5c; stroke:none; fill-opacity:0" cx="1365.07" cy="1267.56" r="2"/>
<circle clip-path="url(#clip321)" style="fill:#cd5c5c; stroke:none; fill-opacity:0" cx="1964.31" cy="1434.91" r="2"/>
<circle clip-path="url(#clip321)" style="fill:#cd5c5c; stroke:none; fill-opacity:0" cx="2563.54" cy="1434.91" r="2"/>
<path clip-path="url(#clip320)" d="M2182.54 418.035 L2668.23 418.035 L2668.23 158.835 L2182.54 158.835  Z" fill="#ffffff" fill-rule="evenodd" fill-opacity="1"/>
<polyline clip-path="url(#clip320)" style="stroke:#000000; stroke-linecap:round; stroke-linejoin:round; stroke-width:4; stroke-opacity:1; fill:none" points="2182.54,418.035 2668.23,418.035 2668.23,158.835 2182.54,158.835 2182.54,418.035 "/>
<path clip-path="url(#clip320)" d="M2210.71 231.411 L2379.76 231.411 L2379.76 189.939 L2210.71 189.939 L2210.71 231.411  Z" fill="#008080" fill-rule="evenodd" fill-opacity="0.7"/>
<polyline clip-path="url(#clip320)" style="stroke:#000000; stroke-linecap:round; stroke-linejoin:round; stroke-width:4; stroke-opacity:1; fill:none" points="2210.71,231.411 2379.76,231.411 2379.76,189.939 2210.71,189.939 2210.71,231.411 "/>
<path clip-path="url(#clip320)" d="M2430.18 194.529 L2430.18 199.089 Q2427.51 197.816 2425.15 197.191 Q2422.79 196.566 2420.59 196.566 Q2416.77 196.566 2414.69 198.047 Q2412.63 199.529 2412.63 202.26 Q2412.63 204.552 2414 205.732 Q2415.38 206.89 2419.23 207.607 L2422.05 208.186 Q2427.28 209.182 2429.76 211.705 Q2432.26 214.205 2432.26 218.418 Q2432.26 223.441 2428.88 226.033 Q2425.52 228.626 2419.02 228.626 Q2416.56 228.626 2413.79 228.07 Q2411.03 227.515 2408.07 226.427 L2408.07 221.612 Q2410.92 223.209 2413.65 224.019 Q2416.38 224.83 2419.02 224.83 Q2423.02 224.83 2425.2 223.256 Q2427.38 221.681 2427.38 218.765 Q2427.38 216.219 2425.8 214.783 Q2424.25 213.348 2420.69 212.631 L2417.84 212.075 Q2412.61 211.033 2410.27 208.811 Q2407.93 206.589 2407.93 202.631 Q2407.93 198.047 2411.15 195.408 Q2414.39 192.77 2420.06 192.77 Q2422.49 192.77 2425.01 193.209 Q2427.54 193.649 2430.18 194.529 Z" fill="#000000" fill-rule="nonzero" fill-opacity="1" /><path clip-path="url(#clip320)" d="M2438.93 217.723 L2438.93 202.029 L2443.19 202.029 L2443.19 217.561 Q2443.19 221.242 2444.62 223.093 Q2446.06 224.922 2448.93 224.922 Q2452.37 224.922 2454.37 222.723 Q2456.38 220.524 2456.38 216.728 L2456.38 202.029 L2460.64 202.029 L2460.64 227.955 L2456.38 227.955 L2456.38 223.973 Q2454.83 226.334 2452.77 227.492 Q2450.73 228.626 2448.02 228.626 Q2443.56 228.626 2441.24 225.848 Q2438.93 223.07 2438.93 217.723 M2449.64 201.404 L2449.64 201.404 Z" fill="#000000" fill-rule="nonzero" fill-opacity="1" /><path clip-path="url(#clip320)" d="M2484.43 206.01 Q2483.72 205.594 2482.86 205.408 Q2482.03 205.2 2481.01 205.2 Q2477.4 205.2 2475.45 207.561 Q2473.53 209.899 2473.53 214.297 L2473.53 227.955 L2469.25 227.955 L2469.25 202.029 L2473.53 202.029 L2473.53 206.057 Q2474.87 203.695 2477.03 202.561 Q2479.18 201.404 2482.26 201.404 Q2482.7 201.404 2483.23 201.473 Q2483.76 201.52 2484.41 201.635 L2484.43 206.01 Z" fill="#000000" fill-rule="nonzero" fill-opacity="1" /><path clip-path="url(#clip320)" d="M2485.85 202.029 L2490.36 202.029 L2498.46 223.788 L2506.56 202.029 L2511.08 202.029 L2501.36 227.955 L2495.57 227.955 L2485.85 202.029 Z" fill="#000000" fill-rule="nonzero" fill-opacity="1" /><path clip-path="url(#clip320)" d="M2516.96 202.029 L2521.22 202.029 L2521.22 227.955 L2516.96 227.955 L2516.96 202.029 M2516.96 191.936 L2521.22 191.936 L2521.22 197.33 L2516.96 197.33 L2516.96 191.936 Z" fill="#000000" fill-rule="nonzero" fill-opacity="1" /><path clip-path="url(#clip320)" d="M2527.07 202.029 L2531.59 202.029 L2539.69 223.788 L2547.79 202.029 L2552.3 202.029 L2542.58 227.955 L2536.8 227.955 L2527.07 202.029 Z" fill="#000000" fill-rule="nonzero" fill-opacity="1" /><path clip-path="url(#clip320)" d="M2569.97 214.922 Q2564.8 214.922 2562.81 216.103 Q2560.82 217.283 2560.82 220.131 Q2560.82 222.399 2562.3 223.742 Q2563.81 225.061 2566.38 225.061 Q2569.92 225.061 2572.05 222.561 Q2574.2 220.038 2574.2 215.871 L2574.2 214.922 L2569.97 214.922 M2578.46 213.163 L2578.46 227.955 L2574.2 227.955 L2574.2 224.019 Q2572.74 226.381 2570.57 227.515 Q2568.39 228.626 2565.24 228.626 Q2561.26 228.626 2558.9 226.404 Q2556.56 224.158 2556.56 220.408 Q2556.56 216.033 2559.48 213.811 Q2562.42 211.589 2568.23 211.589 L2574.2 211.589 L2574.2 211.172 Q2574.2 208.232 2572.26 206.635 Q2570.34 205.015 2566.84 205.015 Q2564.62 205.015 2562.51 205.547 Q2560.41 206.08 2558.46 207.145 L2558.46 203.209 Q2560.8 202.307 2563 201.867 Q2565.2 201.404 2567.28 201.404 Q2572.91 201.404 2575.68 204.32 Q2578.46 207.237 2578.46 213.163 Z" fill="#000000" fill-rule="nonzero" fill-opacity="1" /><path clip-path="url(#clip320)" d="M2587.24 191.936 L2591.49 191.936 L2591.49 227.955 L2587.24 227.955 L2587.24 191.936 Z" fill="#000000" fill-rule="nonzero" fill-opacity="1" /><path clip-path="url(#clip320)" d="M2210.71 283.251 L2379.76 283.251 L2379.76 241.779 L2210.71 241.779 L2210.71 283.251  Z" fill="#228b22" fill-rule="evenodd" fill-opacity="0.7"/>
<polyline clip-path="url(#clip320)" style="stroke:#000000; stroke-linecap:round; stroke-linejoin:round; stroke-width:4; stroke-opacity:1; fill:none" points="2210.71,283.251 2379.76,283.251 2379.76,241.779 2210.71,241.779 2210.71,283.251 "/>
<path clip-path="url(#clip320)" d="M2433.49 274.864 L2433.49 265.582 L2425.85 265.582 L2425.85 261.739 L2438.12 261.739 L2438.12 276.577 Q2435.41 278.498 2432.14 279.494 Q2428.88 280.466 2425.18 280.466 Q2417.07 280.466 2412.49 275.744 Q2407.93 270.998 2407.93 262.549 Q2407.93 254.077 2412.49 249.355 Q2417.07 244.61 2425.18 244.61 Q2428.56 244.61 2431.59 245.443 Q2434.64 246.276 2437.21 247.897 L2437.21 252.873 Q2434.62 250.674 2431.7 249.563 Q2428.79 248.452 2425.57 248.452 Q2419.23 248.452 2416.03 251.994 Q2412.86 255.535 2412.86 262.549 Q2412.86 269.54 2416.03 273.082 Q2419.23 276.623 2425.57 276.623 Q2428.05 276.623 2429.99 276.207 Q2431.94 275.767 2433.49 274.864 Z" fill="#000000" fill-rule="nonzero" fill-opacity="1" /><path clip-path="url(#clip320)" d="M2461.5 257.85 Q2460.78 257.434 2459.92 257.248 Q2459.09 257.04 2458.07 257.04 Q2454.46 257.04 2452.51 259.401 Q2450.59 261.739 2450.59 266.137 L2450.59 279.795 L2446.31 279.795 L2446.31 253.869 L2450.59 253.869 L2450.59 257.897 Q2451.94 255.535 2454.09 254.401 Q2456.24 253.244 2459.32 253.244 Q2459.76 253.244 2460.29 253.313 Q2460.82 253.36 2461.47 253.475 L2461.5 257.85 Z" fill="#000000" fill-rule="nonzero" fill-opacity="1" /><path clip-path="url(#clip320)" d="M2474.97 256.855 Q2471.54 256.855 2469.55 259.54 Q2467.56 262.202 2467.56 266.855 Q2467.56 271.508 2469.53 274.193 Q2471.52 276.855 2474.97 276.855 Q2478.37 276.855 2480.36 274.17 Q2482.35 271.484 2482.35 266.855 Q2482.35 262.248 2480.36 259.563 Q2478.37 256.855 2474.97 256.855 M2474.97 253.244 Q2480.52 253.244 2483.69 256.855 Q2486.87 260.466 2486.87 266.855 Q2486.87 273.221 2483.69 276.855 Q2480.52 280.466 2474.97 280.466 Q2469.39 280.466 2466.22 276.855 Q2463.07 273.221 2463.07 266.855 Q2463.07 260.466 2466.22 256.855 Q2469.39 253.244 2474.97 253.244 Z" fill="#000000" fill-rule="nonzero" fill-opacity="1" /><path clip-path="url(#clip320)" d="M2491.45 253.869 L2495.71 253.869 L2501.03 274.1 L2506.33 253.869 L2511.36 253.869 L2516.68 274.1 L2521.98 253.869 L2526.24 253.869 L2519.46 279.795 L2514.43 279.795 L2508.86 258.545 L2503.25 279.795 L2498.23 279.795 L2491.45 253.869 Z" fill="#000000" fill-rule="nonzero" fill-opacity="1" /><path clip-path="url(#clip320)" d="M2536.91 246.508 L2536.91 253.869 L2545.68 253.869 L2545.68 257.179 L2536.91 257.179 L2536.91 271.253 Q2536.91 274.424 2537.77 275.327 Q2538.65 276.23 2541.31 276.23 L2545.68 276.23 L2545.68 279.795 L2541.31 279.795 Q2536.38 279.795 2534.5 277.966 Q2532.63 276.114 2532.63 271.253 L2532.63 257.179 L2529.5 257.179 L2529.5 253.869 L2532.63 253.869 L2532.63 246.508 L2536.91 246.508 Z" fill="#000000" fill-rule="nonzero" fill-opacity="1" /><path clip-path="url(#clip320)" d="M2572.84 264.147 L2572.84 279.795 L2568.58 279.795 L2568.58 264.285 Q2568.58 260.605 2567.14 258.776 Q2565.71 256.947 2562.84 256.947 Q2559.39 256.947 2557.4 259.147 Q2555.41 261.346 2555.41 265.142 L2555.41 279.795 L2551.12 279.795 L2551.12 243.776 L2555.41 243.776 L2555.41 257.897 Q2556.93 255.559 2558.99 254.401 Q2561.08 253.244 2563.79 253.244 Q2568.25 253.244 2570.55 256.022 Q2572.84 258.776 2572.84 264.147 Z" fill="#000000" fill-rule="nonzero" fill-opacity="1" /><path clip-path="url(#clip320)" d="M2210.71 335.091 L2379.76 335.091 L2379.76 293.619 L2210.71 293.619 L2210.71 335.091  Z" fill="#daa520" fill-rule="evenodd" fill-opacity="0.7"/>
<polyline clip-path="url(#clip320)" style="stroke:#000000; stroke-linecap:round; stroke-linejoin:round; stroke-width:4; stroke-opacity:1; fill:none" points="2210.71,335.091 2379.76,335.091 2379.76,293.619 2210.71,293.619 2210.71,335.091 "/>
<path clip-path="url(#clip320)" d="M2430.18 298.209 L2430.18 302.769 Q2427.51 301.496 2425.15 300.871 Q2422.79 300.246 2420.59 300.246 Q2416.77 300.246 2414.69 301.727 Q2412.63 303.209 2412.63 305.94 Q2412.63 308.232 2414 309.412 Q2415.38 310.57 2419.23 311.287 L2422.05 311.866 Q2427.28 312.862 2429.76 315.385 Q2432.26 317.885 2432.26 322.098 Q2432.26 327.121 2428.88 329.713 Q2425.52 332.306 2419.02 332.306 Q2416.56 332.306 2413.79 331.75 Q2411.03 331.195 2408.07 330.107 L2408.07 325.292 Q2410.92 326.889 2413.65 327.699 Q2416.38 328.51 2419.02 328.51 Q2423.02 328.51 2425.2 326.936 Q2427.38 325.361 2427.38 322.445 Q2427.38 319.899 2425.8 318.463 Q2424.25 317.028 2420.69 316.311 L2417.84 315.755 Q2412.61 314.713 2410.27 312.491 Q2407.93 310.269 2407.93 306.311 Q2407.93 301.727 2411.15 299.088 Q2414.39 296.45 2420.06 296.45 Q2422.49 296.45 2425.01 296.889 Q2427.54 297.329 2430.18 298.209 Z" fill="#000000" fill-rule="nonzero" fill-opacity="1" /><path clip-path="url(#clip320)" d="M2443.58 298.348 L2443.58 305.709 L2452.35 305.709 L2452.35 309.019 L2443.58 309.019 L2443.58 323.093 Q2443.58 326.264 2444.44 327.167 Q2445.31 328.07 2447.98 328.07 L2452.35 328.07 L2452.35 331.635 L2447.98 331.635 Q2443.05 331.635 2441.17 329.806 Q2439.3 327.954 2439.3 323.093 L2439.3 309.019 L2436.17 309.019 L2436.17 305.709 L2439.3 305.709 L2439.3 298.348 L2443.58 298.348 Z" fill="#000000" fill-rule="nonzero" fill-opacity="1" /><path clip-path="url(#clip320)" d="M2469.74 318.602 Q2464.57 318.602 2462.58 319.783 Q2460.59 320.963 2460.59 323.811 Q2460.59 326.079 2462.07 327.422 Q2463.58 328.741 2466.15 328.741 Q2469.69 328.741 2471.82 326.241 Q2473.97 323.718 2473.97 319.551 L2473.97 318.602 L2469.74 318.602 M2478.23 316.843 L2478.23 331.635 L2473.97 331.635 L2473.97 327.699 Q2472.51 330.061 2470.34 331.195 Q2468.16 332.306 2465.01 332.306 Q2461.03 332.306 2458.67 330.084 Q2456.33 327.838 2456.33 324.088 Q2456.33 319.713 2459.25 317.491 Q2462.19 315.269 2468 315.269 L2473.97 315.269 L2473.97 314.852 Q2473.97 311.912 2472.03 310.315 Q2470.11 308.695 2466.61 308.695 Q2464.39 308.695 2462.28 309.227 Q2460.18 309.76 2458.23 310.825 L2458.23 306.889 Q2460.57 305.987 2462.77 305.547 Q2464.97 305.084 2467.05 305.084 Q2472.68 305.084 2475.45 308 Q2478.23 310.917 2478.23 316.843 Z" fill="#000000" fill-rule="nonzero" fill-opacity="1" /><path clip-path="url(#clip320)" d="M2503.53 306.473 L2503.53 310.5 Q2501.73 309.575 2499.78 309.112 Q2497.84 308.649 2495.75 308.649 Q2492.58 308.649 2490.99 309.621 Q2489.41 310.593 2489.41 312.537 Q2489.41 314.019 2490.55 314.875 Q2491.68 315.709 2495.11 316.473 L2496.56 316.797 Q2501.1 317.769 2503 319.551 Q2504.92 321.311 2504.92 324.482 Q2504.92 328.093 2502.05 330.199 Q2499.2 332.306 2494.2 332.306 Q2492.12 332.306 2489.85 331.889 Q2487.61 331.496 2485.11 330.686 L2485.11 326.287 Q2487.47 327.514 2489.76 328.139 Q2492.05 328.741 2494.3 328.741 Q2497.31 328.741 2498.93 327.723 Q2500.55 326.681 2500.55 324.806 Q2500.55 323.07 2499.37 322.144 Q2498.21 321.218 2494.25 320.361 L2492.77 320.014 Q2488.81 319.181 2487.05 317.468 Q2485.29 315.732 2485.29 312.723 Q2485.29 309.065 2487.88 307.075 Q2490.48 305.084 2495.25 305.084 Q2497.61 305.084 2499.69 305.431 Q2501.77 305.778 2503.53 306.473 Z" fill="#000000" fill-rule="nonzero" fill-opacity="1" /><path clip-path="url(#clip320)" d="M2511.7 305.709 L2515.96 305.709 L2515.96 331.635 L2511.7 331.635 L2511.7 305.709 M2511.7 295.616 L2515.96 295.616 L2515.96 301.01 L2511.7 301.01 L2511.7 295.616 Z" fill="#000000" fill-rule="nonzero" fill-opacity="1" /><path clip-path="url(#clip320)" d="M2541.4 306.473 L2541.4 310.5 Q2539.6 309.575 2537.65 309.112 Q2535.71 308.649 2533.62 308.649 Q2530.45 308.649 2528.86 309.621 Q2527.28 310.593 2527.28 312.537 Q2527.28 314.019 2528.42 314.875 Q2529.55 315.709 2532.98 316.473 L2534.43 316.797 Q2538.97 317.769 2540.87 319.551 Q2542.79 321.311 2542.79 324.482 Q2542.79 328.093 2539.92 330.199 Q2537.07 332.306 2532.07 332.306 Q2529.99 332.306 2527.72 331.889 Q2525.48 331.496 2522.98 330.686 L2522.98 326.287 Q2525.34 327.514 2527.63 328.139 Q2529.92 328.741 2532.17 328.741 Q2535.18 328.741 2536.8 327.723 Q2538.42 326.681 2538.42 324.806 Q2538.42 323.07 2537.24 322.144 Q2536.08 321.218 2532.12 320.361 L2530.64 320.014 Q2526.68 319.181 2524.92 317.468 Q2523.16 315.732 2523.16 312.723 Q2523.16 309.065 2525.75 307.075 Q2528.35 305.084 2533.12 305.084 Q2535.48 305.084 2537.56 305.431 Q2539.64 305.778 2541.4 306.473 Z" fill="#000000" fill-rule="nonzero" fill-opacity="1" /><path clip-path="url(#clip320)" d="M2210.71 386.931 L2379.76 386.931 L2379.76 345.459 L2210.71 345.459 L2210.71 386.931  Z" fill="#cd5c5c" fill-rule="evenodd" fill-opacity="0.7"/>
<polyline clip-path="url(#clip320)" style="stroke:#000000; stroke-linecap:round; stroke-linejoin:round; stroke-width:4; stroke-opacity:1; fill:none" points="2210.71,386.931 2379.76,386.931 2379.76,345.459 2210.71,345.459 2210.71,386.931 "/>
<path clip-path="url(#clip320)" d="M2430.18 350.049 L2430.18 354.609 Q2427.51 353.336 2425.15 352.711 Q2422.79 352.086 2420.59 352.086 Q2416.77 352.086 2414.69 353.567 Q2412.63 355.049 2412.63 357.78 Q2412.63 360.072 2414 361.252 Q2415.38 362.41 2419.23 363.127 L2422.05 363.706 Q2427.28 364.702 2429.76 367.225 Q2432.26 369.725 2432.26 373.938 Q2432.26 378.961 2428.88 381.553 Q2425.52 384.146 2419.02 384.146 Q2416.56 384.146 2413.79 383.59 Q2411.03 383.035 2408.07 381.947 L2408.07 377.132 Q2410.92 378.729 2413.65 379.539 Q2416.38 380.35 2419.02 380.35 Q2423.02 380.35 2425.2 378.776 Q2427.38 377.201 2427.38 374.285 Q2427.38 371.739 2425.8 370.303 Q2424.25 368.868 2420.69 368.151 L2417.84 367.595 Q2412.61 366.553 2410.27 364.331 Q2407.93 362.109 2407.93 358.151 Q2407.93 353.567 2411.15 350.928 Q2414.39 348.29 2420.06 348.29 Q2422.49 348.29 2425.01 348.729 Q2427.54 349.169 2430.18 350.049 Z" fill="#000000" fill-rule="nonzero" fill-opacity="1" /><path clip-path="url(#clip320)" d="M2460.92 367.827 L2460.92 383.475 L2456.66 383.475 L2456.66 367.965 Q2456.66 364.285 2455.22 362.456 Q2453.79 360.627 2450.92 360.627 Q2447.47 360.627 2445.48 362.827 Q2443.49 365.026 2443.49 368.822 L2443.49 383.475 L2439.2 383.475 L2439.2 347.456 L2443.49 347.456 L2443.49 361.577 Q2445.01 359.239 2447.07 358.081 Q2449.16 356.924 2451.87 356.924 Q2456.33 356.924 2458.62 359.702 Q2460.92 362.456 2460.92 367.827 Z" fill="#000000" fill-rule="nonzero" fill-opacity="1" /><path clip-path="url(#clip320)" d="M2484.43 361.53 Q2483.72 361.114 2482.86 360.928 Q2482.03 360.72 2481.01 360.72 Q2477.4 360.72 2475.45 363.081 Q2473.53 365.419 2473.53 369.817 L2473.53 383.475 L2469.25 383.475 L2469.25 357.549 L2473.53 357.549 L2473.53 361.577 Q2474.87 359.215 2477.03 358.081 Q2479.18 356.924 2482.26 356.924 Q2482.7 356.924 2483.23 356.993 Q2483.76 357.04 2484.41 357.155 L2484.43 361.53 Z" fill="#000000" fill-rule="nonzero" fill-opacity="1" /><path clip-path="url(#clip320)" d="M2488.9 357.549 L2493.16 357.549 L2493.16 383.475 L2488.9 383.475 L2488.9 357.549 M2488.9 347.456 L2493.16 347.456 L2493.16 352.85 L2488.9 352.85 L2488.9 347.456 Z" fill="#000000" fill-rule="nonzero" fill-opacity="1" /><path clip-path="url(#clip320)" d="M2523.62 367.827 L2523.62 383.475 L2519.37 383.475 L2519.37 367.965 Q2519.37 364.285 2517.93 362.456 Q2516.49 360.627 2513.62 360.627 Q2510.18 360.627 2508.18 362.827 Q2506.19 365.026 2506.19 368.822 L2506.19 383.475 L2501.91 383.475 L2501.91 357.549 L2506.19 357.549 L2506.19 361.577 Q2507.72 359.239 2509.78 358.081 Q2511.87 356.924 2514.57 356.924 Q2519.04 356.924 2521.33 359.702 Q2523.62 362.456 2523.62 367.827 Z" fill="#000000" fill-rule="nonzero" fill-opacity="1" /><path clip-path="url(#clip320)" d="M2531.96 347.456 L2536.24 347.456 L2536.24 368.729 L2548.95 357.549 L2554.39 357.549 L2540.64 369.678 L2554.97 383.475 L2549.41 383.475 L2536.24 370.813 L2536.24 383.475 L2531.96 383.475 L2531.96 347.456 Z" fill="#000000" fill-rule="nonzero" fill-opacity="1" /><path clip-path="url(#clip320)" d="M2570.52 370.442 Q2565.36 370.442 2563.37 371.623 Q2561.38 372.803 2561.38 375.651 Q2561.38 377.919 2562.86 379.262 Q2564.37 380.581 2566.93 380.581 Q2570.48 380.581 2572.61 378.081 Q2574.76 375.558 2574.76 371.391 L2574.76 370.442 L2570.52 370.442 M2579.02 368.683 L2579.02 383.475 L2574.76 383.475 L2574.76 379.539 Q2573.3 381.901 2571.12 383.035 Q2568.95 384.146 2565.8 384.146 Q2561.82 384.146 2559.46 381.924 Q2557.12 379.678 2557.12 375.928 Q2557.12 371.553 2560.04 369.331 Q2562.98 367.109 2568.79 367.109 L2574.76 367.109 L2574.76 366.692 Q2574.76 363.752 2572.81 362.155 Q2570.89 360.535 2567.4 360.535 Q2565.18 360.535 2563.07 361.067 Q2560.96 361.6 2559.02 362.665 L2559.02 358.729 Q2561.36 357.827 2563.55 357.387 Q2565.75 356.924 2567.84 356.924 Q2573.46 356.924 2576.24 359.84 Q2579.02 362.757 2579.02 368.683 Z" fill="#000000" fill-rule="nonzero" fill-opacity="1" /><path clip-path="url(#clip320)" d="M2604.85 370.211 Q2604.85 365.581 2602.93 363.035 Q2601.03 360.489 2597.58 360.489 Q2594.16 360.489 2592.24 363.035 Q2590.34 365.581 2590.34 370.211 Q2590.34 374.817 2592.24 377.363 Q2594.16 379.91 2597.58 379.91 Q2601.03 379.91 2602.93 377.363 Q2604.85 374.817 2604.85 370.211 M2609.11 380.257 Q2609.11 386.877 2606.17 390.095 Q2603.23 393.336 2597.17 393.336 Q2594.92 393.336 2592.93 392.988 Q2590.94 392.664 2589.06 391.97 L2589.06 387.826 Q2590.94 388.845 2592.77 389.331 Q2594.6 389.817 2596.49 389.817 Q2600.68 389.817 2602.77 387.618 Q2604.85 385.442 2604.85 381.021 L2604.85 378.914 Q2603.53 381.206 2601.47 382.34 Q2599.41 383.475 2596.54 383.475 Q2591.77 383.475 2588.86 379.84 Q2585.94 376.206 2585.94 370.211 Q2585.94 364.192 2588.86 360.558 Q2591.77 356.924 2596.54 356.924 Q2599.41 356.924 2601.47 358.058 Q2603.53 359.192 2604.85 361.484 L2604.85 357.549 L2609.11 357.549 L2609.11 380.257 Z" fill="#000000" fill-rule="nonzero" fill-opacity="1" /><path clip-path="url(#clip320)" d="M2640.06 369.447 L2640.06 371.53 L2620.48 371.53 Q2620.75 375.928 2623.11 378.243 Q2625.5 380.535 2629.74 380.535 Q2632.19 380.535 2634.48 379.933 Q2636.8 379.331 2639.06 378.127 L2639.06 382.155 Q2636.77 383.127 2634.36 383.637 Q2631.96 384.146 2629.48 384.146 Q2623.28 384.146 2619.64 380.535 Q2616.03 376.924 2616.03 370.766 Q2616.03 364.401 2619.46 360.674 Q2622.91 356.924 2628.74 356.924 Q2633.97 356.924 2637 360.303 Q2640.06 363.66 2640.06 369.447 M2635.8 368.197 Q2635.75 364.702 2633.83 362.618 Q2631.93 360.535 2628.79 360.535 Q2625.22 360.535 2623.07 362.549 Q2620.94 364.563 2620.61 368.22 L2635.8 368.197 Z" fill="#000000" fill-rule="nonzero" fill-opacity="1" /></svg>
