<?xml version="1.0" encoding="utf-8"?>
<svg xmlns="http://www.w3.org/2000/svg" xmlns:xlink="http://www.w3.org/1999/xlink" width="672" height="480" viewBox="0 0 2688 1920">
<defs>
  <clipPath id="clip290">
    <rect x="0" y="0" width="2688" height="1920"/>
  </clipPath>
</defs>
<path clip-path="url(#clip290)" d="M0 1920 L2688 1920 L2688 -4.26326e-14 L0 -4.26326e-14  Z" fill="#ffffff" fill-rule="evenodd" fill-opacity="1"/>
<defs>
  <clipPath id="clip291">
    <rect x="226" y="127" width="2416" height="1607"/>
  </clipPath>
</defs>
<path clip-path="url(#clip290)" d="M226.141 1734.12 L2640.76 1734.12 L2640.76 127.792 L226.141 127.792  Z" fill="#ffffff" fill-rule="evenodd" fill-opacity="1"/>
<polyline clip-path="url(#clip291)" style="stroke:#000000; stroke-linecap:round; stroke-linejoin:round; stroke-width:2; stroke-opacity:0.1; fill:none" points="531.651,1734.12 531.651,127.792 "/>
<polyline clip-path="url(#clip291)" style="stroke:#000000; stroke-linecap:round; stroke-linejoin:round; stroke-width:2; stroke-opacity:0.1; fill:none" points="982.55,1734.12 982.55,127.792 "/>
<polyline clip-path="url(#clip291)" style="stroke:#000000; stroke-linecap:round; stroke-linejoin:round; stroke-width:2; stroke-opacity:0.1; fill:none" points="1433.45,1734.12 1433.45,127.792 "/>
<polyline clip-path="url(#clip291)" style="stroke:#000000; stroke-linecap:round; stroke-linejoin:round; stroke-width:2; stroke-opacity:0.1; fill:none" points="1884.35,1734.12 1884.35,127.792 "/>
<polyline clip-path="url(#clip291)" style="stroke:#000000; stroke-linecap:round; stroke-linejoin:round; stroke-width:2; stroke-opacity:0.1; fill:none" points="2335.25,1734.12 2335.25,127.792 "/>
<polyline clip-path="url(#clip291)" style="stroke:#000000; stroke-linecap:round; stroke-linejoin:round; stroke-width:2; stroke-opacity:0.1; fill:none" points="226.141,1734.12 2640.76,1734.12 "/>
<polyline clip-path="url(#clip291)" style="stroke:#000000; stroke-linecap:round; stroke-linejoin:round; stroke-width:2; stroke-opacity:0.1; fill:none" points="226.141,1359.31 2640.76,1359.31 "/>
<polyline clip-path="url(#clip291)" style="stroke:#000000; stroke-linecap:round; stroke-linejoin:round; stroke-width:2; stroke-opacity:0.1; fill:none" points="226.141,984.499 2640.76,984.499 "/>
<polyline clip-path="url(#clip291)" style="stroke:#000000; stroke-linecap:round; stroke-linejoin:round; stroke-width:2; stroke-opacity:0.1; fill:none" points="226.141,609.69 2640.76,609.69 "/>
<polyline clip-path="url(#clip291)" style="stroke:#000000; stroke-linecap:round; stroke-linejoin:round; stroke-width:2; stroke-opacity:0.1; fill:none" points="226.141,234.88 2640.76,234.88 "/>
<polyline clip-path="url(#clip290)" style="stroke:#000000; stroke-linecap:round; stroke-linejoin:round; stroke-width:4; stroke-opacity:1; fill:none" points="226.141,1734.12 2640.76,1734.12 "/>
<polyline clip-path="url(#clip290)" style="stroke:#000000; stroke-linecap:round; stroke-linejoin:round; stroke-width:4; stroke-opacity:1; fill:none" points="531.651,1734.12 531.651,1715.22 "/>
<polyline clip-path="url(#clip290)" style="stroke:#000000; stroke-linecap:round; stroke-linejoin:round; stroke-width:4; stroke-opacity:1; fill:none" points="982.55,1734.12 982.55,1715.22 "/>
<polyline clip-path="url(#clip290)" style="stroke:#000000; stroke-linecap:round; stroke-linejoin:round; stroke-width:4; stroke-opacity:1; fill:none" points="1433.45,1734.12 1433.45,1715.22 "/>
<polyline clip-path="url(#clip290)" style="stroke:#000000; stroke-linecap:round; stroke-linejoin:round; stroke-width:4; stroke-opacity:1; fill:none" points="1884.35,1734.12 1884.35,1715.22 "/>
<polyline clip-path="url(#clip290)" style="stroke:#000000; stroke-linecap:round; stroke-linejoin:round; stroke-width:4; stroke-opacity:1; fill:none" points="2335.25,1734.12 2335.25,1715.22 "/>
<path clip-path="url(#clip290)" d="M424.696 1773.66 L424.696 1777.69 Q422.89 1776.76 420.946 1776.3 Q419.001 1775.83 416.918 1775.83 Q413.747 1775.83 412.15 1776.81 Q410.576 1777.78 410.576 1779.72 Q410.576 1781.21 411.71 1782.06 Q412.844 1782.9 416.27 1783.66 L417.728 1783.98 Q422.265 1784.96 424.163 1786.74 Q426.085 1788.5 426.085 1791.67 Q426.085 1795.28 423.214 1797.39 Q420.367 1799.49 415.367 1799.49 Q413.284 1799.49 411.015 1799.08 Q408.77 1798.68 406.27 1797.87 L406.27 1793.47 Q408.631 1794.7 410.923 1795.33 Q413.214 1795.93 415.46 1795.93 Q418.469 1795.93 420.089 1794.91 Q421.71 1793.87 421.71 1791.99 Q421.71 1790.26 420.529 1789.33 Q419.372 1788.4 415.414 1787.55 L413.932 1787.2 Q409.974 1786.37 408.214 1784.65 Q406.455 1782.92 406.455 1779.91 Q406.455 1776.25 409.048 1774.26 Q411.64 1772.27 416.409 1772.27 Q418.77 1772.27 420.853 1772.62 Q422.937 1772.96 424.696 1773.66 Z" fill="#000000" fill-rule="nonzero" fill-opacity="1" /><path clip-path="url(#clip290)" d="M455.043 1784.79 L455.043 1786.88 L435.46 1786.88 Q435.737 1791.27 438.099 1793.59 Q440.483 1795.88 444.719 1795.88 Q447.173 1795.88 449.464 1795.28 Q451.779 1794.68 454.048 1793.47 L454.048 1797.5 Q451.756 1798.47 449.349 1798.98 Q446.941 1799.49 444.464 1799.49 Q438.261 1799.49 434.626 1795.88 Q431.015 1792.27 431.015 1786.11 Q431.015 1779.75 434.441 1776.02 Q437.89 1772.27 443.724 1772.27 Q448.955 1772.27 451.987 1775.65 Q455.043 1779.01 455.043 1784.79 M450.784 1783.54 Q450.737 1780.05 448.816 1777.96 Q446.918 1775.88 443.77 1775.88 Q440.205 1775.88 438.052 1777.9 Q435.923 1779.91 435.599 1783.57 L450.784 1783.54 Z" fill="#000000" fill-rule="nonzero" fill-opacity="1" /><path clip-path="url(#clip290)" d="M484.209 1784.79 L484.209 1786.88 L464.626 1786.88 Q464.904 1791.27 467.265 1793.59 Q469.649 1795.88 473.885 1795.88 Q476.339 1795.88 478.631 1795.28 Q480.946 1794.68 483.214 1793.47 L483.214 1797.5 Q480.922 1798.47 478.515 1798.98 Q476.108 1799.49 473.631 1799.49 Q467.427 1799.49 463.793 1795.88 Q460.182 1792.27 460.182 1786.11 Q460.182 1779.75 463.608 1776.02 Q467.057 1772.27 472.89 1772.27 Q478.122 1772.27 481.154 1775.65 Q484.209 1779.01 484.209 1784.79 M479.95 1783.54 Q479.904 1780.05 477.983 1777.96 Q476.084 1775.88 472.936 1775.88 Q469.372 1775.88 467.219 1777.9 Q465.089 1779.91 464.765 1783.57 L479.95 1783.54 Z" fill="#000000" fill-rule="nonzero" fill-opacity="1" /><path clip-path="url(#clip290)" d="M508.26 1776.83 L508.26 1762.8 L512.519 1762.8 L512.519 1798.82 L508.26 1798.82 L508.26 1794.93 Q506.918 1797.25 504.857 1798.38 Q502.82 1799.49 499.95 1799.49 Q495.251 1799.49 492.288 1795.74 Q489.348 1791.99 489.348 1785.88 Q489.348 1779.77 492.288 1776.02 Q495.251 1772.27 499.95 1772.27 Q502.82 1772.27 504.857 1773.4 Q506.918 1774.52 508.26 1776.83 M493.746 1785.88 Q493.746 1790.58 495.668 1793.27 Q497.612 1795.93 500.992 1795.93 Q504.371 1795.93 506.316 1793.27 Q508.26 1790.58 508.26 1785.88 Q508.26 1781.18 506.316 1778.52 Q504.371 1775.83 500.992 1775.83 Q497.612 1775.83 495.668 1778.52 Q493.746 1781.18 493.746 1785.88 Z" fill="#000000" fill-rule="nonzero" fill-opacity="1" /><path clip-path="url(#clip290)" d="M540.992 1806.69 L540.992 1810 L516.362 1810 L516.362 1806.69 L540.992 1806.69 Z" fill="#000000" fill-rule="nonzero" fill-opacity="1" /><path clip-path="url(#clip290)" d="M563.607 1785.88 Q563.607 1781.18 561.663 1778.52 Q559.741 1775.83 556.362 1775.83 Q552.982 1775.83 551.038 1778.52 Q549.116 1781.18 549.116 1785.88 Q549.116 1790.58 551.038 1793.27 Q552.982 1795.93 556.362 1795.93 Q559.741 1795.93 561.663 1793.27 Q563.607 1790.58 563.607 1785.88 M549.116 1776.83 Q550.459 1774.52 552.496 1773.4 Q554.556 1772.27 557.403 1772.27 Q562.126 1772.27 565.065 1776.02 Q568.028 1779.77 568.028 1785.88 Q568.028 1791.99 565.065 1795.74 Q562.126 1799.49 557.403 1799.49 Q554.556 1799.49 552.496 1798.38 Q550.459 1797.25 549.116 1794.93 L549.116 1798.82 L544.834 1798.82 L544.834 1762.8 L549.116 1762.8 L549.116 1776.83 Z" fill="#000000" fill-rule="nonzero" fill-opacity="1" /><path clip-path="url(#clip290)" d="M586.871 1785.79 Q581.709 1785.79 579.718 1786.97 Q577.727 1788.15 577.727 1791 Q577.727 1793.27 579.209 1794.61 Q580.714 1795.93 583.283 1795.93 Q586.825 1795.93 588.954 1793.43 Q591.107 1790.9 591.107 1786.74 L591.107 1785.79 L586.871 1785.79 M595.366 1784.03 L595.366 1798.82 L591.107 1798.82 L591.107 1794.89 Q589.649 1797.25 587.473 1798.38 Q585.297 1799.49 582.149 1799.49 Q578.167 1799.49 575.806 1797.27 Q573.468 1795.02 573.468 1791.27 Q573.468 1786.9 576.385 1784.68 Q579.325 1782.46 585.135 1782.46 L591.107 1782.46 L591.107 1782.04 Q591.107 1779.1 589.163 1777.5 Q587.241 1775.88 583.746 1775.88 Q581.524 1775.88 579.417 1776.41 Q577.311 1776.95 575.366 1778.01 L575.366 1774.08 Q577.704 1773.17 579.903 1772.73 Q582.102 1772.27 584.186 1772.27 Q589.811 1772.27 592.588 1775.19 Q595.366 1778.1 595.366 1784.03 Z" fill="#000000" fill-rule="nonzero" fill-opacity="1" /><path clip-path="url(#clip290)" d="M625.69 1783.17 L625.69 1798.82 L621.431 1798.82 L621.431 1783.31 Q621.431 1779.63 619.996 1777.8 Q618.561 1775.97 615.69 1775.97 Q612.241 1775.97 610.25 1778.17 Q608.26 1780.37 608.26 1784.17 L608.26 1798.82 L603.977 1798.82 L603.977 1772.9 L608.26 1772.9 L608.26 1776.92 Q609.787 1774.59 611.848 1773.43 Q613.931 1772.27 616.639 1772.27 Q621.107 1772.27 623.399 1775.05 Q625.69 1777.8 625.69 1783.17 Z" fill="#000000" fill-rule="nonzero" fill-opacity="1" /><path clip-path="url(#clip290)" d="M634.023 1762.8 L638.306 1762.8 L638.306 1784.08 L651.014 1772.9 L656.454 1772.9 L642.704 1785.02 L657.033 1798.82 L651.477 1798.82 L638.306 1786.16 L638.306 1798.82 L634.023 1798.82 L634.023 1762.8 Z" fill="#000000" fill-rule="nonzero" fill-opacity="1" /><path clip-path="url(#clip290)" d="M904.61 1773.66 L904.61 1777.69 Q902.805 1776.76 900.86 1776.3 Q898.916 1775.83 896.833 1775.83 Q893.661 1775.83 892.064 1776.81 Q890.49 1777.78 890.49 1779.72 Q890.49 1781.21 891.624 1782.06 Q892.759 1782.9 896.184 1783.66 L897.643 1783.98 Q902.18 1784.96 904.078 1786.74 Q905.999 1788.5 905.999 1791.67 Q905.999 1795.28 903.129 1797.39 Q900.282 1799.49 895.282 1799.49 Q893.198 1799.49 890.93 1799.08 Q888.685 1798.68 886.185 1797.87 L886.185 1793.47 Q888.546 1794.7 890.837 1795.33 Q893.129 1795.93 895.374 1795.93 Q898.384 1795.93 900.004 1794.91 Q901.624 1793.87 901.624 1791.99 Q901.624 1790.26 900.444 1789.33 Q899.286 1788.4 895.328 1787.55 L893.847 1787.2 Q889.888 1786.37 888.129 1784.65 Q886.37 1782.92 886.37 1779.91 Q886.37 1776.25 888.962 1774.26 Q891.555 1772.27 896.323 1772.27 Q898.684 1772.27 900.768 1772.62 Q902.851 1772.96 904.61 1773.66 Z" fill="#000000" fill-rule="nonzero" fill-opacity="1" /><path clip-path="url(#clip290)" d="M934.957 1784.79 L934.957 1786.88 L915.374 1786.88 Q915.652 1791.27 918.013 1793.59 Q920.397 1795.88 924.633 1795.88 Q927.087 1795.88 929.379 1795.28 Q931.694 1794.68 933.962 1793.47 L933.962 1797.5 Q931.67 1798.47 929.263 1798.98 Q926.856 1799.49 924.379 1799.49 Q918.175 1799.49 914.541 1795.88 Q910.93 1792.27 910.93 1786.11 Q910.93 1779.75 914.356 1776.02 Q917.805 1772.27 923.638 1772.27 Q928.87 1772.27 931.902 1775.65 Q934.957 1779.01 934.957 1784.79 M930.698 1783.54 Q930.652 1780.05 928.731 1777.96 Q926.832 1775.88 923.684 1775.88 Q920.12 1775.88 917.967 1777.9 Q915.837 1779.91 915.513 1783.57 L930.698 1783.54 Z" fill="#000000" fill-rule="nonzero" fill-opacity="1" /><path clip-path="url(#clip290)" d="M964.124 1784.79 L964.124 1786.88 L944.541 1786.88 Q944.818 1791.27 947.18 1793.59 Q949.564 1795.88 953.8 1795.88 Q956.254 1795.88 958.545 1795.28 Q960.86 1794.68 963.129 1793.47 L963.129 1797.5 Q960.837 1798.47 958.43 1798.98 Q956.022 1799.49 953.545 1799.49 Q947.342 1799.49 943.707 1795.88 Q940.096 1792.27 940.096 1786.11 Q940.096 1779.75 943.522 1776.02 Q946.971 1772.27 952.805 1772.27 Q958.036 1772.27 961.068 1775.65 Q964.124 1779.01 964.124 1784.79 M959.865 1783.54 Q959.818 1780.05 957.897 1777.96 Q955.999 1775.88 952.851 1775.88 Q949.286 1775.88 947.133 1777.9 Q945.004 1779.91 944.68 1783.57 L959.865 1783.54 Z" fill="#000000" fill-rule="nonzero" fill-opacity="1" /><path clip-path="url(#clip290)" d="M988.175 1776.83 L988.175 1762.8 L992.434 1762.8 L992.434 1798.82 L988.175 1798.82 L988.175 1794.93 Q986.832 1797.25 984.772 1798.38 Q982.735 1799.49 979.865 1799.49 Q975.166 1799.49 972.203 1795.74 Q969.263 1791.99 969.263 1785.88 Q969.263 1779.77 972.203 1776.02 Q975.166 1772.27 979.865 1772.27 Q982.735 1772.27 984.772 1773.4 Q986.832 1774.52 988.175 1776.83 M973.661 1785.88 Q973.661 1790.58 975.582 1793.27 Q977.527 1795.93 980.906 1795.93 Q984.286 1795.93 986.23 1793.27 Q988.175 1790.58 988.175 1785.88 Q988.175 1781.18 986.23 1778.52 Q984.286 1775.83 980.906 1775.83 Q977.527 1775.83 975.582 1778.52 Q973.661 1781.18 973.661 1785.88 Z" fill="#000000" fill-rule="nonzero" fill-opacity="1" /><path clip-path="url(#clip290)" d="M1001.21 1762.8 L1005.47 1762.8 L1005.47 1798.82 L1001.21 1798.82 L1001.21 1762.8 Z" fill="#000000" fill-rule="nonzero" fill-opacity="1" /><path clip-path="url(#clip290)" d="M1014.38 1772.9 L1018.64 1772.9 L1018.64 1798.82 L1014.38 1798.82 L1014.38 1772.9 M1014.38 1762.8 L1018.64 1762.8 L1018.64 1768.2 L1014.38 1768.2 L1014.38 1762.8 Z" fill="#000000" fill-rule="nonzero" fill-opacity="1" /><path clip-path="url(#clip290)" d="M1049.1 1783.17 L1049.1 1798.82 L1044.84 1798.82 L1044.84 1783.31 Q1044.84 1779.63 1043.41 1777.8 Q1041.97 1775.97 1039.1 1775.97 Q1035.65 1775.97 1033.66 1778.17 Q1031.67 1780.37 1031.67 1784.17 L1031.67 1798.82 L1027.39 1798.82 L1027.39 1772.9 L1031.67 1772.9 L1031.67 1776.92 Q1033.2 1774.59 1035.26 1773.43 Q1037.34 1772.27 1040.05 1772.27 Q1044.52 1772.27 1046.81 1775.05 Q1049.1 1777.8 1049.1 1783.17 Z" fill="#000000" fill-rule="nonzero" fill-opacity="1" /><path clip-path="url(#clip290)" d="M1074.66 1785.56 Q1074.66 1780.93 1072.73 1778.38 Q1070.84 1775.83 1067.39 1775.83 Q1063.96 1775.83 1062.04 1778.38 Q1060.14 1780.93 1060.14 1785.56 Q1060.14 1790.16 1062.04 1792.71 Q1063.96 1795.26 1067.39 1795.26 Q1070.84 1795.26 1072.73 1792.71 Q1074.66 1790.16 1074.66 1785.56 M1078.91 1795.6 Q1078.91 1802.22 1075.98 1805.44 Q1073.04 1808.68 1066.97 1808.68 Q1064.73 1808.68 1062.73 1808.33 Q1060.74 1808.01 1058.87 1807.32 L1058.87 1803.17 Q1060.74 1804.19 1062.57 1804.68 Q1064.4 1805.16 1066.3 1805.16 Q1070.49 1805.16 1072.57 1802.96 Q1074.66 1800.79 1074.66 1796.37 L1074.66 1794.26 Q1073.34 1796.55 1071.28 1797.69 Q1069.22 1798.82 1066.35 1798.82 Q1061.58 1798.82 1058.66 1795.19 Q1055.74 1791.55 1055.74 1785.56 Q1055.74 1779.54 1058.66 1775.9 Q1061.58 1772.27 1066.35 1772.27 Q1069.22 1772.27 1071.28 1773.4 Q1073.34 1774.54 1074.66 1776.83 L1074.66 1772.9 L1078.91 1772.9 L1078.91 1795.6 Z" fill="#000000" fill-rule="nonzero" fill-opacity="1" /><path clip-path="url(#clip290)" d="M1392.24 1773.66 L1392.24 1777.69 Q1390.44 1776.76 1388.49 1776.3 Q1386.55 1775.83 1384.47 1775.83 Q1381.3 1775.83 1379.7 1776.81 Q1378.12 1777.78 1378.12 1779.72 Q1378.12 1781.21 1379.26 1782.06 Q1380.39 1782.9 1383.82 1783.66 L1385.28 1783.98 Q1389.81 1784.96 1391.71 1786.74 Q1393.63 1788.5 1393.63 1791.67 Q1393.63 1795.28 1390.76 1797.39 Q1387.92 1799.49 1382.92 1799.49 Q1380.83 1799.49 1378.56 1799.08 Q1376.32 1798.68 1373.82 1797.87 L1373.82 1793.47 Q1376.18 1794.7 1378.47 1795.33 Q1380.76 1795.93 1383.01 1795.93 Q1386.02 1795.93 1387.64 1794.91 Q1389.26 1793.87 1389.26 1791.99 Q1389.26 1790.26 1388.08 1789.33 Q1386.92 1788.4 1382.96 1787.55 L1381.48 1787.2 Q1377.52 1786.37 1375.76 1784.65 Q1374 1782.92 1374 1779.91 Q1374 1776.25 1376.6 1774.26 Q1379.19 1772.27 1383.96 1772.27 Q1386.32 1772.27 1388.4 1772.62 Q1390.49 1772.96 1392.24 1773.66 Z" fill="#000000" fill-rule="nonzero" fill-opacity="1" /><path clip-path="url(#clip290)" d="M1420.6 1777.87 Q1422.2 1775 1424.42 1773.64 Q1426.64 1772.27 1429.65 1772.27 Q1433.7 1772.27 1435.9 1775.12 Q1438.1 1777.94 1438.1 1783.17 L1438.1 1798.82 L1433.82 1798.82 L1433.82 1783.31 Q1433.82 1779.58 1432.5 1777.78 Q1431.18 1775.97 1428.47 1775.97 Q1425.16 1775.97 1423.24 1778.17 Q1421.32 1780.37 1421.32 1784.17 L1421.32 1798.82 L1417.04 1798.82 L1417.04 1783.31 Q1417.04 1779.56 1415.72 1777.78 Q1414.4 1775.97 1411.64 1775.97 Q1408.38 1775.97 1406.46 1778.2 Q1404.54 1780.4 1404.54 1784.17 L1404.54 1798.82 L1400.25 1798.82 L1400.25 1772.9 L1404.54 1772.9 L1404.54 1776.92 Q1405.99 1774.54 1408.03 1773.4 Q1410.07 1772.27 1412.87 1772.27 Q1415.69 1772.27 1417.66 1773.71 Q1419.65 1775.14 1420.6 1777.87 Z" fill="#000000" fill-rule="nonzero" fill-opacity="1" /><path clip-path="url(#clip290)" d="M1458.38 1785.79 Q1453.22 1785.79 1451.23 1786.97 Q1449.24 1788.15 1449.24 1791 Q1449.24 1793.27 1450.72 1794.61 Q1452.22 1795.93 1454.79 1795.93 Q1458.33 1795.93 1460.46 1793.43 Q1462.61 1790.9 1462.61 1786.74 L1462.61 1785.79 L1458.38 1785.79 M1466.87 1784.03 L1466.87 1798.82 L1462.61 1798.82 L1462.61 1794.89 Q1461.16 1797.25 1458.98 1798.38 Q1456.8 1799.49 1453.66 1799.49 Q1449.67 1799.49 1447.31 1797.27 Q1444.98 1795.02 1444.98 1791.27 Q1444.98 1786.9 1447.89 1784.68 Q1450.83 1782.46 1456.64 1782.46 L1462.61 1782.46 L1462.61 1782.04 Q1462.61 1779.1 1460.67 1777.5 Q1458.75 1775.88 1455.25 1775.88 Q1453.03 1775.88 1450.92 1776.41 Q1448.82 1776.95 1446.87 1778.01 L1446.87 1774.08 Q1449.21 1773.17 1451.41 1772.73 Q1453.61 1772.27 1455.69 1772.27 Q1461.32 1772.27 1464.1 1775.19 Q1466.87 1778.1 1466.87 1784.03 Z" fill="#000000" fill-rule="nonzero" fill-opacity="1" /><path clip-path="url(#clip290)" d="M1475.65 1762.8 L1479.91 1762.8 L1479.91 1798.82 L1475.65 1798.82 L1475.65 1762.8 Z" fill="#000000" fill-rule="nonzero" fill-opacity="1" /><path clip-path="url(#clip290)" d="M1488.82 1762.8 L1493.08 1762.8 L1493.08 1798.82 L1488.82 1798.82 L1488.82 1762.8 Z" fill="#000000" fill-rule="nonzero" fill-opacity="1" /><path clip-path="url(#clip290)" d="M1827.77 1762.8 L1832.03 1762.8 L1832.03 1798.82 L1827.77 1798.82 L1827.77 1762.8 Z" fill="#000000" fill-rule="nonzero" fill-opacity="1" /><path clip-path="url(#clip290)" d="M1852.73 1785.79 Q1847.56 1785.79 1845.57 1786.97 Q1843.58 1788.15 1843.58 1791 Q1843.58 1793.27 1845.06 1794.61 Q1846.57 1795.93 1849.14 1795.93 Q1852.68 1795.93 1854.81 1793.43 Q1856.96 1790.9 1856.96 1786.74 L1856.96 1785.79 L1852.73 1785.79 M1861.22 1784.03 L1861.22 1798.82 L1856.96 1798.82 L1856.96 1794.89 Q1855.5 1797.25 1853.33 1798.38 Q1851.15 1799.49 1848 1799.49 Q1844.02 1799.49 1841.66 1797.27 Q1839.32 1795.02 1839.32 1791.27 Q1839.32 1786.9 1842.24 1784.68 Q1845.18 1782.46 1850.99 1782.46 L1856.96 1782.46 L1856.96 1782.04 Q1856.96 1779.1 1855.02 1777.5 Q1853.1 1775.88 1849.6 1775.88 Q1847.38 1775.88 1845.27 1776.41 Q1843.17 1776.95 1841.22 1778.01 L1841.22 1774.08 Q1843.56 1773.17 1845.76 1772.73 Q1847.96 1772.27 1850.04 1772.27 Q1855.67 1772.27 1858.44 1775.19 Q1861.22 1778.1 1861.22 1784.03 Z" fill="#000000" fill-rule="nonzero" fill-opacity="1" /><path clip-path="url(#clip290)" d="M1885.02 1776.88 Q1884.3 1776.46 1883.44 1776.27 Q1882.61 1776.07 1881.59 1776.07 Q1877.98 1776.07 1876.04 1778.43 Q1874.12 1780.77 1874.12 1785.16 L1874.12 1798.82 L1869.83 1798.82 L1869.83 1772.9 L1874.12 1772.9 L1874.12 1776.92 Q1875.46 1774.56 1877.61 1773.43 Q1879.76 1772.27 1882.84 1772.27 Q1883.28 1772.27 1883.81 1772.34 Q1884.35 1772.39 1884.99 1772.5 L1885.02 1776.88 Z" fill="#000000" fill-rule="nonzero" fill-opacity="1" /><path clip-path="url(#clip290)" d="M1905.71 1785.56 Q1905.71 1780.93 1903.79 1778.38 Q1901.89 1775.83 1898.44 1775.83 Q1895.02 1775.83 1893.1 1778.38 Q1891.2 1780.93 1891.2 1785.56 Q1891.2 1790.16 1893.1 1792.71 Q1895.02 1795.26 1898.44 1795.26 Q1901.89 1795.26 1903.79 1792.71 Q1905.71 1790.16 1905.71 1785.56 M1909.97 1795.6 Q1909.97 1802.22 1907.03 1805.44 Q1904.09 1808.68 1898.03 1808.68 Q1895.78 1808.68 1893.79 1808.33 Q1891.8 1808.01 1889.93 1807.32 L1889.93 1803.17 Q1891.8 1804.19 1893.63 1804.68 Q1895.46 1805.16 1897.36 1805.16 Q1901.55 1805.16 1903.63 1802.96 Q1905.71 1800.79 1905.71 1796.37 L1905.71 1794.26 Q1904.39 1796.55 1902.33 1797.69 Q1900.27 1798.82 1897.4 1798.82 Q1892.63 1798.82 1889.72 1795.19 Q1886.8 1791.55 1886.8 1785.56 Q1886.8 1779.54 1889.72 1775.9 Q1892.63 1772.27 1897.4 1772.27 Q1900.27 1772.27 1902.33 1773.4 Q1904.39 1774.54 1905.71 1776.83 L1905.71 1772.9 L1909.97 1772.9 L1909.97 1795.6 Z" fill="#000000" fill-rule="nonzero" fill-opacity="1" /><path clip-path="url(#clip290)" d="M1940.92 1784.79 L1940.92 1786.88 L1921.34 1786.88 Q1921.62 1791.27 1923.98 1793.59 Q1926.36 1795.88 1930.6 1795.88 Q1933.05 1795.88 1935.34 1795.28 Q1937.66 1794.68 1939.93 1793.47 L1939.93 1797.5 Q1937.63 1798.47 1935.23 1798.98 Q1932.82 1799.49 1930.34 1799.49 Q1924.14 1799.49 1920.5 1795.88 Q1916.89 1792.27 1916.89 1786.11 Q1916.89 1779.75 1920.32 1776.02 Q1923.77 1772.27 1929.6 1772.27 Q1934.83 1772.27 1937.86 1775.65 Q1940.92 1779.01 1940.92 1784.79 M1936.66 1783.54 Q1936.61 1780.05 1934.69 1777.96 Q1932.8 1775.88 1929.65 1775.88 Q1926.08 1775.88 1923.93 1777.9 Q1921.8 1779.91 1921.48 1783.57 L1936.66 1783.54 Z" fill="#000000" fill-rule="nonzero" fill-opacity="1" /><path clip-path="url(#clip290)" d="M2244.64 1762.8 L2244.64 1766.34 L2240.57 1766.34 Q2238.28 1766.34 2237.38 1767.27 Q2236.5 1768.2 2236.5 1770.6 L2236.5 1772.9 L2243.51 1772.9 L2243.51 1776.21 L2236.5 1776.21 L2236.5 1798.82 L2232.21 1798.82 L2232.21 1776.21 L2228.14 1776.21 L2228.14 1772.9 L2232.21 1772.9 L2232.21 1771.09 Q2232.21 1766.76 2234.23 1764.79 Q2236.24 1762.8 2240.62 1762.8 L2244.64 1762.8 Z" fill="#000000" fill-rule="nonzero" fill-opacity="1" /><path clip-path="url(#clip290)" d="M2248.21 1762.8 L2252.47 1762.8 L2252.47 1798.82 L2248.21 1798.82 L2248.21 1762.8 Z" fill="#000000" fill-rule="nonzero" fill-opacity="1" /><path clip-path="url(#clip290)" d="M2271.43 1775.88 Q2268 1775.88 2266.01 1778.57 Q2264.02 1781.23 2264.02 1785.88 Q2264.02 1790.53 2265.99 1793.22 Q2267.98 1795.88 2271.43 1795.88 Q2274.83 1795.88 2276.82 1793.2 Q2278.81 1790.51 2278.81 1785.88 Q2278.81 1781.27 2276.82 1778.59 Q2274.83 1775.88 2271.43 1775.88 M2271.43 1772.27 Q2276.98 1772.27 2280.15 1775.88 Q2283.32 1779.49 2283.32 1785.88 Q2283.32 1792.25 2280.15 1795.88 Q2276.98 1799.49 2271.43 1799.49 Q2265.85 1799.49 2262.68 1795.88 Q2259.53 1792.25 2259.53 1785.88 Q2259.53 1779.49 2262.68 1775.88 Q2265.85 1772.27 2271.43 1772.27 Z" fill="#000000" fill-rule="nonzero" fill-opacity="1" /><path clip-path="url(#clip290)" d="M2287.91 1772.9 L2292.17 1772.9 L2297.49 1793.13 L2302.79 1772.9 L2307.81 1772.9 L2313.14 1793.13 L2318.44 1772.9 L2322.7 1772.9 L2315.92 1798.82 L2310.89 1798.82 L2305.31 1777.57 L2299.71 1798.82 L2294.69 1798.82 L2287.91 1772.9 Z" fill="#000000" fill-rule="nonzero" fill-opacity="1" /><path clip-path="url(#clip290)" d="M2351.33 1784.79 L2351.33 1786.88 L2331.75 1786.88 Q2332.03 1791.27 2334.39 1793.59 Q2336.77 1795.88 2341.01 1795.88 Q2343.46 1795.88 2345.75 1795.28 Q2348.07 1794.68 2350.34 1793.47 L2350.34 1797.5 Q2348.05 1798.47 2345.64 1798.98 Q2343.23 1799.49 2340.75 1799.49 Q2334.55 1799.49 2330.92 1795.88 Q2327.31 1792.27 2327.31 1786.11 Q2327.31 1779.75 2330.73 1776.02 Q2334.18 1772.27 2340.01 1772.27 Q2345.25 1772.27 2348.28 1775.65 Q2351.33 1779.01 2351.33 1784.79 M2347.07 1783.54 Q2347.03 1780.05 2345.11 1777.96 Q2343.21 1775.88 2340.06 1775.88 Q2336.5 1775.88 2334.34 1777.9 Q2332.21 1779.91 2331.89 1783.57 L2347.07 1783.54 Z" fill="#000000" fill-rule="nonzero" fill-opacity="1" /><path clip-path="url(#clip290)" d="M2373.35 1776.88 Q2372.63 1776.46 2371.77 1776.27 Q2370.94 1776.07 2369.92 1776.07 Q2366.31 1776.07 2364.37 1778.43 Q2362.44 1780.77 2362.44 1785.16 L2362.44 1798.82 L2358.16 1798.82 L2358.16 1772.9 L2362.44 1772.9 L2362.44 1776.92 Q2363.79 1774.56 2365.94 1773.43 Q2368.09 1772.27 2371.17 1772.27 Q2371.61 1772.27 2372.14 1772.34 Q2372.68 1772.39 2373.32 1772.5 L2373.35 1776.88 Z" fill="#000000" fill-rule="nonzero" fill-opacity="1" /><path clip-path="url(#clip290)" d="M2377.81 1772.9 L2382.07 1772.9 L2382.07 1798.82 L2377.81 1798.82 L2377.81 1772.9 M2377.81 1762.8 L2382.07 1762.8 L2382.07 1768.2 L2377.81 1768.2 L2377.81 1762.8 Z" fill="#000000" fill-rule="nonzero" fill-opacity="1" /><path clip-path="url(#clip290)" d="M2412.54 1783.17 L2412.54 1798.82 L2408.28 1798.82 L2408.28 1783.31 Q2408.28 1779.63 2406.84 1777.8 Q2405.41 1775.97 2402.54 1775.97 Q2399.09 1775.97 2397.1 1778.17 Q2395.11 1780.37 2395.11 1784.17 L2395.11 1798.82 L2390.82 1798.82 L2390.82 1772.9 L2395.11 1772.9 L2395.11 1776.92 Q2396.63 1774.59 2398.69 1773.43 Q2400.78 1772.27 2403.49 1772.27 Q2407.95 1772.27 2410.24 1775.05 Q2412.54 1777.8 2412.54 1783.17 Z" fill="#000000" fill-rule="nonzero" fill-opacity="1" /><path clip-path="url(#clip290)" d="M2438.09 1785.56 Q2438.09 1780.93 2436.17 1778.38 Q2434.27 1775.83 2430.82 1775.83 Q2427.4 1775.83 2425.48 1778.38 Q2423.58 1780.93 2423.58 1785.56 Q2423.58 1790.16 2425.48 1792.71 Q2427.4 1795.26 2430.82 1795.26 Q2434.27 1795.26 2436.17 1792.71 Q2438.09 1790.16 2438.09 1785.56 M2442.35 1795.6 Q2442.35 1802.22 2439.41 1805.44 Q2436.47 1808.68 2430.41 1808.68 Q2428.16 1808.68 2426.17 1808.33 Q2424.18 1808.01 2422.3 1807.32 L2422.3 1803.17 Q2424.18 1804.19 2426.01 1804.68 Q2427.84 1805.16 2429.74 1805.16 Q2433.93 1805.16 2436.01 1802.96 Q2438.09 1800.79 2438.09 1796.37 L2438.09 1794.26 Q2436.77 1796.55 2434.71 1797.69 Q2432.65 1798.82 2429.78 1798.82 Q2425.01 1798.82 2422.1 1795.19 Q2419.18 1791.55 2419.18 1785.56 Q2419.18 1779.54 2422.1 1775.9 Q2425.01 1772.27 2429.78 1772.27 Q2432.65 1772.27 2434.71 1773.4 Q2436.77 1774.54 2438.09 1776.83 L2438.09 1772.9 L2442.35 1772.9 L2442.35 1795.6 Z" fill="#000000" fill-rule="nonzero" fill-opacity="1" /><path clip-path="url(#clip290)" d="M1373.74 1837.34 L1373.74 1843.61 Q1370.08 1841.86 1366.83 1841 Q1363.58 1840.14 1360.56 1840.14 Q1355.31 1840.14 1352.44 1842.18 Q1349.61 1844.22 1349.61 1847.97 Q1349.61 1851.12 1351.49 1852.75 Q1353.4 1854.34 1358.68 1855.32 L1362.57 1856.12 Q1369.76 1857.49 1373.16 1860.96 Q1376.6 1864.39 1376.6 1870.19 Q1376.6 1877.09 1371.96 1880.66 Q1367.34 1884.22 1358.4 1884.22 Q1355.02 1884.22 1351.2 1883.46 Q1347.42 1882.7 1343.34 1881.2 L1343.34 1874.58 Q1347.26 1876.78 1351.01 1877.89 Q1354.77 1879 1358.4 1879 Q1363.9 1879 1366.89 1876.84 Q1369.89 1874.68 1369.89 1870.67 Q1369.89 1867.16 1367.72 1865.19 Q1365.59 1863.22 1360.69 1862.23 L1356.77 1861.47 Q1349.58 1860.03 1346.37 1856.98 Q1343.15 1853.92 1343.15 1848.48 Q1343.15 1842.18 1347.57 1838.55 Q1352.03 1834.92 1359.83 1834.92 Q1363.17 1834.92 1366.64 1835.53 Q1370.11 1836.13 1373.74 1837.34 Z" fill="#000000" fill-rule="nonzero" fill-opacity="1" /><path clip-path="url(#clip290)" d="M1392.17 1837.53 L1392.17 1847.65 L1404.23 1847.65 L1404.23 1852.2 L1392.17 1852.2 L1392.17 1871.56 Q1392.17 1875.92 1393.34 1877.16 Q1394.55 1878.4 1398.21 1878.4 L1404.23 1878.4 L1404.23 1883.3 L1398.21 1883.3 Q1391.43 1883.3 1388.86 1880.79 Q1386.28 1878.24 1386.28 1871.56 L1386.28 1852.2 L1381.98 1852.2 L1381.98 1847.65 L1386.28 1847.65 L1386.28 1837.53 L1392.17 1837.53 Z" fill="#000000" fill-rule="nonzero" fill-opacity="1" /><path clip-path="url(#clip290)" d="M1428.13 1865.38 Q1421.04 1865.38 1418.3 1867 Q1415.56 1868.63 1415.56 1872.54 Q1415.56 1875.66 1417.6 1877.51 Q1419.67 1879.32 1423.2 1879.32 Q1428.07 1879.32 1431 1875.88 Q1433.96 1872.42 1433.96 1866.69 L1433.96 1865.38 L1428.13 1865.38 M1439.81 1862.96 L1439.81 1883.3 L1433.96 1883.3 L1433.96 1877.89 Q1431.95 1881.14 1428.96 1882.7 Q1425.97 1884.22 1421.64 1884.22 Q1416.17 1884.22 1412.92 1881.17 Q1409.7 1878.08 1409.7 1872.92 Q1409.7 1866.91 1413.71 1863.85 Q1417.76 1860.8 1425.75 1860.8 L1433.96 1860.8 L1433.96 1860.23 Q1433.96 1856.18 1431.28 1853.99 Q1428.64 1851.76 1423.84 1851.76 Q1420.78 1851.76 1417.88 1852.49 Q1414.99 1853.22 1412.31 1854.69 L1412.31 1849.28 Q1415.53 1848.03 1418.55 1847.43 Q1421.58 1846.79 1424.44 1846.79 Q1432.18 1846.79 1435.99 1850.8 Q1439.81 1854.81 1439.81 1862.96 Z" fill="#000000" fill-rule="nonzero" fill-opacity="1" /><path clip-path="url(#clip290)" d="M1475.33 1865.06 Q1475.33 1858.7 1472.69 1855.2 Q1470.08 1851.7 1465.34 1851.7 Q1460.63 1851.7 1457.99 1855.2 Q1455.38 1858.7 1455.38 1865.06 Q1455.38 1871.4 1457.99 1874.9 Q1460.63 1878.4 1465.34 1878.4 Q1470.08 1878.4 1472.69 1874.9 Q1475.33 1871.4 1475.33 1865.06 M1481.19 1878.88 Q1481.19 1887.98 1477.15 1892.4 Q1473.11 1896.86 1464.77 1896.86 Q1461.68 1896.86 1458.94 1896.38 Q1456.21 1895.94 1453.63 1894.98 L1453.63 1889.28 Q1456.21 1890.69 1458.72 1891.35 Q1461.23 1892.02 1463.84 1892.02 Q1469.61 1892.02 1472.47 1889 Q1475.33 1886.01 1475.33 1879.93 L1475.33 1877.03 Q1473.52 1880.18 1470.69 1881.74 Q1467.85 1883.3 1463.91 1883.3 Q1457.35 1883.3 1453.34 1878.3 Q1449.33 1873.31 1449.33 1865.06 Q1449.33 1856.79 1453.34 1851.79 Q1457.35 1846.79 1463.91 1846.79 Q1467.85 1846.79 1470.69 1848.35 Q1473.52 1849.91 1475.33 1853.06 L1475.33 1847.65 L1481.19 1847.65 L1481.19 1878.88 Z" fill="#000000" fill-rule="nonzero" fill-opacity="1" /><path clip-path="url(#clip290)" d="M1523.75 1864.01 L1523.75 1866.88 L1496.82 1866.88 Q1497.2 1872.92 1500.45 1876.11 Q1503.73 1879.26 1509.55 1879.26 Q1512.92 1879.26 1516.08 1878.43 Q1519.26 1877.6 1522.38 1875.95 L1522.38 1881.49 Q1519.23 1882.82 1515.92 1883.52 Q1512.61 1884.22 1509.2 1884.22 Q1500.67 1884.22 1495.67 1879.26 Q1490.71 1874.29 1490.71 1865.83 Q1490.71 1857.07 1495.42 1851.95 Q1500.16 1846.79 1508.18 1846.79 Q1515.37 1846.79 1519.54 1851.44 Q1523.75 1856.06 1523.75 1864.01 M1517.89 1862.29 Q1517.83 1857.49 1515.18 1854.62 Q1512.57 1851.76 1508.25 1851.76 Q1503.34 1851.76 1500.38 1854.53 Q1497.46 1857.3 1497.01 1862.33 L1517.89 1862.29 Z" fill="#000000" fill-rule="nonzero" fill-opacity="1" /><polyline clip-path="url(#clip290)" style="stroke:#000000; stroke-linecap:round; stroke-linejoin:round; stroke-width:4; stroke-opacity:1; fill:none" points="226.141,1734.12 226.141,127.792 "/>
<polyline clip-path="url(#clip290)" style="stroke:#000000; stroke-linecap:round; stroke-linejoin:round; stroke-width:4; stroke-opacity:1; fill:none" points="226.141,1734.12 245.038,1734.12 "/>
<polyline clip-path="url(#clip290)" style="stroke:#000000; stroke-linecap:round; stroke-linejoin:round; stroke-width:4; stroke-opacity:1; fill:none" points="226.141,1359.31 245.038,1359.31 "/>
<polyline clip-path="url(#clip290)" style="stroke:#000000; stroke-linecap:round; stroke-linejoin:round; stroke-width:4; stroke-opacity:1; fill:none" points="226.141,984.499 245.038,984.499 "/>
<polyline clip-path="url(#clip290)" style="stroke:#000000; stroke-linecap:round; stroke-linejoin:round; stroke-width:4; stroke-opacity:1; fill:none" points="226.141,609.69 245.038,609.69 "/>
<polyline clip-path="url(#clip290)" style="stroke:#000000; stroke-linecap:round; stroke-linejoin:round; stroke-width:4; stroke-opacity:1; fill:none" points="226.141,234.88 245.038,234.88 "/>
<path clip-path="url(#clip290)" d="M128.645 1719.92 Q125.034 1719.92 123.205 1723.48 Q121.4 1727.02 121.4 1734.15 Q121.4 1741.26 123.205 1744.82 Q125.034 1748.36 128.645 1748.36 Q132.279 1748.36 134.085 1744.82 Q135.913 1741.26 135.913 1734.15 Q135.913 1727.02 134.085 1723.48 Q132.279 1719.92 128.645 1719.92 M128.645 1716.21 Q134.455 1716.21 137.511 1720.82 Q140.589 1725.4 140.589 1734.15 Q140.589 1742.88 137.511 1747.48 Q134.455 1752.07 128.645 1752.07 Q122.835 1752.07 119.756 1747.48 Q116.701 1742.88 116.701 1734.15 Q116.701 1725.4 119.756 1720.82 Q122.835 1716.21 128.645 1716.21 Z" fill="#000000" fill-rule="nonzero" fill-opacity="1" /><path clip-path="url(#clip290)" d="M148.807 1745.52 L153.691 1745.52 L153.691 1751.4 L148.807 1751.4 L148.807 1745.52 Z" fill="#000000" fill-rule="nonzero" fill-opacity="1" /><path clip-path="url(#clip290)" d="M173.876 1719.92 Q170.265 1719.92 168.436 1723.48 Q166.631 1727.02 166.631 1734.15 Q166.631 1741.26 168.436 1744.82 Q170.265 1748.36 173.876 1748.36 Q177.51 1748.36 179.316 1744.82 Q181.145 1741.26 181.145 1734.15 Q181.145 1727.02 179.316 1723.48 Q177.51 1719.92 173.876 1719.92 M173.876 1716.21 Q179.686 1716.21 182.742 1720.82 Q185.821 1725.4 185.821 1734.15 Q185.821 1742.88 182.742 1747.48 Q179.686 1752.07 173.876 1752.07 Q168.066 1752.07 164.987 1747.48 Q161.932 1742.88 161.932 1734.15 Q161.932 1725.4 164.987 1720.82 Q168.066 1716.21 173.876 1716.21 Z" fill="#000000" fill-rule="nonzero" fill-opacity="1" /><path clip-path="url(#clip290)" d="M130.242 1345.11 Q126.631 1345.11 124.802 1348.67 Q122.997 1352.21 122.997 1359.34 Q122.997 1366.45 124.802 1370.01 Q126.631 1373.56 130.242 1373.56 Q133.876 1373.56 135.682 1370.01 Q137.511 1366.45 137.511 1359.34 Q137.511 1352.21 135.682 1348.67 Q133.876 1345.11 130.242 1345.11 M130.242 1341.4 Q136.052 1341.4 139.108 1346.01 Q142.187 1350.59 142.187 1359.34 Q142.187 1368.07 139.108 1372.68 Q136.052 1377.26 130.242 1377.26 Q124.432 1377.26 121.353 1372.68 Q118.298 1368.07 118.298 1359.34 Q118.298 1350.59 121.353 1346.01 Q124.432 1341.4 130.242 1341.4 Z" fill="#000000" fill-rule="nonzero" fill-opacity="1" /><path clip-path="url(#clip290)" d="M150.404 1370.71 L155.288 1370.71 L155.288 1376.59 L150.404 1376.59 L150.404 1370.71 Z" fill="#000000" fill-rule="nonzero" fill-opacity="1" /><path clip-path="url(#clip290)" d="M169.501 1372.65 L185.821 1372.65 L185.821 1376.59 L163.876 1376.59 L163.876 1372.65 Q166.538 1369.9 171.122 1365.27 Q175.728 1360.62 176.909 1359.27 Q179.154 1356.75 180.034 1355.01 Q180.936 1353.25 180.936 1351.56 Q180.936 1348.81 178.992 1347.07 Q177.071 1345.34 173.969 1345.34 Q171.77 1345.34 169.316 1346.1 Q166.885 1346.87 164.108 1348.42 L164.108 1343.69 Q166.932 1342.56 169.385 1341.98 Q171.839 1341.4 173.876 1341.4 Q179.247 1341.4 182.441 1344.09 Q185.635 1346.77 185.635 1351.26 Q185.635 1353.39 184.825 1355.31 Q184.038 1357.21 181.932 1359.81 Q181.353 1360.48 178.251 1363.69 Q175.149 1366.89 169.501 1372.65 Z" fill="#000000" fill-rule="nonzero" fill-opacity="1" /><path clip-path="url(#clip290)" d="M128.159 970.297 Q124.548 970.297 122.719 973.862 Q120.913 977.404 120.913 984.533 Q120.913 991.64 122.719 995.205 Q124.548 998.746 128.159 998.746 Q131.793 998.746 133.599 995.205 Q135.427 991.64 135.427 984.533 Q135.427 977.404 133.599 973.862 Q131.793 970.297 128.159 970.297 M128.159 966.594 Q133.969 966.594 137.025 971.2 Q140.103 975.783 140.103 984.533 Q140.103 993.26 137.025 997.867 Q133.969 1002.45 128.159 1002.45 Q122.349 1002.45 119.27 997.867 Q116.214 993.26 116.214 984.533 Q116.214 975.783 119.27 971.2 Q122.349 966.594 128.159 966.594 Z" fill="#000000" fill-rule="nonzero" fill-opacity="1" /><path clip-path="url(#clip290)" d="M148.321 995.899 L153.205 995.899 L153.205 1001.78 L148.321 1001.78 L148.321 995.899 Z" fill="#000000" fill-rule="nonzero" fill-opacity="1" /><path clip-path="url(#clip290)" d="M176.237 971.293 L164.432 989.742 L176.237 989.742 L176.237 971.293 M175.01 967.219 L180.89 967.219 L180.89 989.742 L185.821 989.742 L185.821 993.631 L180.89 993.631 L180.89 1001.78 L176.237 1001.78 L176.237 993.631 L160.636 993.631 L160.636 989.117 L175.01 967.219 Z" fill="#000000" fill-rule="nonzero" fill-opacity="1" /><path clip-path="url(#clip290)" d="M128.483 595.488 Q124.872 595.488 123.043 599.053 Q121.238 602.595 121.238 609.724 Q121.238 616.831 123.043 620.396 Q124.872 623.937 128.483 623.937 Q132.117 623.937 133.923 620.396 Q135.751 616.831 135.751 609.724 Q135.751 602.595 133.923 599.053 Q132.117 595.488 128.483 595.488 M128.483 591.785 Q134.293 591.785 137.349 596.391 Q140.427 600.974 140.427 609.724 Q140.427 618.451 137.349 623.058 Q134.293 627.641 128.483 627.641 Q122.673 627.641 119.594 623.058 Q116.539 618.451 116.539 609.724 Q116.539 600.974 119.594 596.391 Q122.673 591.785 128.483 591.785 Z" fill="#000000" fill-rule="nonzero" fill-opacity="1" /><path clip-path="url(#clip290)" d="M148.645 621.09 L153.529 621.09 L153.529 626.97 L148.645 626.97 L148.645 621.09 Z" fill="#000000" fill-rule="nonzero" fill-opacity="1" /><path clip-path="url(#clip290)" d="M174.293 607.826 Q171.145 607.826 169.293 609.979 Q167.464 612.132 167.464 615.882 Q167.464 619.609 169.293 621.784 Q171.145 623.937 174.293 623.937 Q177.441 623.937 179.27 621.784 Q181.122 619.609 181.122 615.882 Q181.122 612.132 179.27 609.979 Q177.441 607.826 174.293 607.826 M183.575 593.173 L183.575 597.433 Q181.816 596.599 180.01 596.16 Q178.228 595.72 176.469 595.72 Q171.839 595.72 169.385 598.845 Q166.955 601.97 166.608 608.289 Q167.973 606.275 170.034 605.21 Q172.094 604.122 174.571 604.122 Q179.779 604.122 182.788 607.294 Q185.821 610.442 185.821 615.882 Q185.821 621.206 182.672 624.423 Q179.524 627.641 174.293 627.641 Q168.297 627.641 165.126 623.058 Q161.955 618.451 161.955 609.724 Q161.955 601.53 165.844 596.669 Q169.733 591.785 176.284 591.785 Q178.043 591.785 179.825 592.132 Q181.631 592.479 183.575 593.173 Z" fill="#000000" fill-rule="nonzero" fill-opacity="1" /><path clip-path="url(#clip290)" d="M128.738 220.679 Q125.126 220.679 123.298 224.244 Q121.492 227.786 121.492 234.915 Q121.492 242.022 123.298 245.586 Q125.126 249.128 128.738 249.128 Q132.372 249.128 134.177 245.586 Q136.006 242.022 136.006 234.915 Q136.006 227.786 134.177 224.244 Q132.372 220.679 128.738 220.679 M128.738 216.975 Q134.548 216.975 137.603 221.582 Q140.682 226.165 140.682 234.915 Q140.682 243.642 137.603 248.248 Q134.548 252.832 128.738 252.832 Q122.927 252.832 119.849 248.248 Q116.793 243.642 116.793 234.915 Q116.793 226.165 119.849 221.582 Q122.927 216.975 128.738 216.975 Z" fill="#000000" fill-rule="nonzero" fill-opacity="1" /><path clip-path="url(#clip290)" d="M148.899 246.281 L153.784 246.281 L153.784 252.16 L148.899 252.16 L148.899 246.281 Z" fill="#000000" fill-rule="nonzero" fill-opacity="1" /><path clip-path="url(#clip290)" d="M173.969 235.749 Q170.635 235.749 168.714 237.531 Q166.816 239.313 166.816 242.438 Q166.816 245.563 168.714 247.346 Q170.635 249.128 173.969 249.128 Q177.302 249.128 179.223 247.346 Q181.145 245.54 181.145 242.438 Q181.145 239.313 179.223 237.531 Q177.325 235.749 173.969 235.749 M169.293 233.758 Q166.284 233.017 164.594 230.957 Q162.927 228.897 162.927 225.934 Q162.927 221.79 165.867 219.383 Q168.83 216.975 173.969 216.975 Q179.131 216.975 182.071 219.383 Q185.01 221.79 185.01 225.934 Q185.01 228.897 183.321 230.957 Q181.654 233.017 178.668 233.758 Q182.047 234.545 183.922 236.836 Q185.821 239.128 185.821 242.438 Q185.821 247.461 182.742 250.147 Q179.686 252.832 173.969 252.832 Q168.251 252.832 165.173 250.147 Q162.117 247.461 162.117 242.438 Q162.117 239.128 164.015 236.836 Q165.913 234.545 169.293 233.758 M167.58 226.374 Q167.58 229.059 169.247 230.563 Q170.936 232.068 173.969 232.068 Q176.978 232.068 178.668 230.563 Q180.381 229.059 180.381 226.374 Q180.381 223.688 178.668 222.184 Q176.978 220.679 173.969 220.679 Q170.936 220.679 169.247 222.184 Q167.58 223.688 167.58 226.374 Z" fill="#000000" fill-rule="nonzero" fill-opacity="1" /><path clip-path="url(#clip290)" d="M19.402 1092.64 L37.2578 1092.64 L37.2578 1084.56 Q37.2578 1080.07 34.9343 1077.62 Q32.6108 1075.17 28.314 1075.17 Q24.0489 1075.17 21.7255 1077.62 Q19.402 1080.07 19.402 1084.56 L19.402 1092.64 M14.1184 1099.07 L14.1184 1084.56 Q14.1184 1076.57 17.7469 1072.5 Q21.3435 1068.39 28.314 1068.39 Q35.3481 1068.39 38.9447 1072.5 Q42.5413 1076.57 42.5413 1084.56 L42.5413 1092.64 L61.6384 1092.64 L61.6384 1099.07 L14.1184 1099.07 Z" fill="#000000" fill-rule="nonzero" fill-opacity="1" /><path clip-path="url(#clip290)" d="M31.465 1040.51 Q30.8921 1041.5 30.6375 1042.67 Q30.351 1043.82 30.351 1045.22 Q30.351 1050.18 33.5975 1052.86 Q36.8122 1055.5 42.8596 1055.5 L61.6384 1055.5 L61.6384 1061.39 L25.9905 1061.39 L25.9905 1055.5 L31.5287 1055.5 Q28.2821 1053.65 26.7225 1050.69 Q25.1311 1047.73 25.1311 1043.5 Q25.1311 1042.9 25.2266 1042.16 Q25.2903 1041.43 25.4494 1040.54 L31.465 1040.51 Z" fill="#000000" fill-rule="nonzero" fill-opacity="1" /><path clip-path="url(#clip290)" d="M30.0964 1021.98 Q30.0964 1026.69 33.7885 1029.43 Q37.4488 1032.17 43.8463 1032.17 Q50.2438 1032.17 53.9359 1029.46 Q57.5962 1026.73 57.5962 1021.98 Q57.5962 1017.31 53.9041 1014.57 Q50.212 1011.83 43.8463 1011.83 Q37.5124 1011.83 33.8203 1014.57 Q30.0964 1017.31 30.0964 1021.98 M25.1311 1021.98 Q25.1311 1014.35 30.0964 1009.98 Q35.0616 1005.62 43.8463 1005.62 Q52.5991 1005.62 57.5962 1009.98 Q62.5615 1014.35 62.5615 1021.98 Q62.5615 1029.65 57.5962 1034.02 Q52.5991 1038.34 43.8463 1038.34 Q35.0616 1038.34 30.0964 1034.02 Q25.1311 1029.65 25.1311 1021.98 Z" fill="#000000" fill-rule="nonzero" fill-opacity="1" /><path clip-path="url(#clip290)" d="M43.8463 970.326 Q37.3851 970.326 33.7248 973 Q30.0327 975.642 30.0327 980.289 Q30.0327 984.936 33.7248 987.609 Q37.3851 990.251 43.8463 990.251 Q50.3075 990.251 53.9996 987.609 Q57.6599 984.936 57.6599 980.289 Q57.6599 975.642 53.9996 973 Q50.3075 970.326 43.8463 970.326 M31.4013 990.251 Q28.2185 988.405 26.6907 985.604 Q25.1311 982.771 25.1311 978.856 Q25.1311 972.363 30.2873 968.321 Q35.4436 964.247 43.8463 964.247 Q52.249 964.247 57.4052 968.321 Q62.5615 972.363 62.5615 978.856 Q62.5615 982.771 61.0337 985.604 Q59.4741 988.405 56.2912 990.251 L61.6384 990.251 L61.6384 996.139 L12.1132 996.139 L12.1132 990.251 L31.4013 990.251 Z" fill="#000000" fill-rule="nonzero" fill-opacity="1" /><path clip-path="url(#clip290)" d="M43.719 938.339 Q43.719 945.437 45.3422 948.174 Q46.9655 950.911 50.8804 950.911 Q53.9996 950.911 55.8457 948.874 Q57.6599 946.805 57.6599 943.272 Q57.6599 938.402 54.2224 935.474 Q50.7531 932.514 45.0239 932.514 L43.719 932.514 L43.719 938.339 M41.3 926.658 L61.6384 926.658 L61.6384 932.514 L56.2276 932.514 Q59.4741 934.519 61.0337 937.511 Q62.5615 940.503 62.5615 944.832 Q62.5615 950.306 59.5059 953.553 Q56.4186 956.767 51.2623 956.767 Q45.2467 956.767 42.1912 952.757 Q39.1357 948.715 39.1357 940.726 L39.1357 932.514 L38.5628 932.514 Q34.5205 932.514 32.3244 935.188 Q30.0964 937.83 30.0964 942.636 Q30.0964 945.691 30.8284 948.588 Q31.5605 951.484 33.0246 954.158 L27.6137 954.158 Q26.3724 950.943 25.7677 947.919 Q25.1311 944.895 25.1311 942.031 Q25.1311 934.297 29.1415 930.477 Q33.1519 926.658 41.3 926.658 Z" fill="#000000" fill-rule="nonzero" fill-opacity="1" /><path clip-path="url(#clip290)" d="M43.8463 889.005 Q37.3851 889.005 33.7248 891.678 Q30.0327 894.32 30.0327 898.967 Q30.0327 903.614 33.7248 906.287 Q37.3851 908.929 43.8463 908.929 Q50.3075 908.929 53.9996 906.287 Q57.6599 903.614 57.6599 898.967 Q57.6599 894.32 53.9996 891.678 Q50.3075 889.005 43.8463 889.005 M31.4013 908.929 Q28.2185 907.083 26.6907 904.282 Q25.1311 901.45 25.1311 897.535 Q25.1311 891.042 30.2873 886.999 Q35.4436 882.925 43.8463 882.925 Q52.249 882.925 57.4052 886.999 Q62.5615 891.042 62.5615 897.535 Q62.5615 901.45 61.0337 904.282 Q59.4741 907.083 56.2912 908.929 L61.6384 908.929 L61.6384 914.817 L12.1132 914.817 L12.1132 908.929 L31.4013 908.929 Z" fill="#000000" fill-rule="nonzero" fill-opacity="1" /><path clip-path="url(#clip290)" d="M25.9905 873.218 L25.9905 867.361 L61.6384 867.361 L61.6384 873.218 L25.9905 873.218 M12.1132 873.218 L12.1132 867.361 L19.5293 867.361 L19.5293 873.218 L12.1132 873.218 Z" fill="#000000" fill-rule="nonzero" fill-opacity="1" /><path clip-path="url(#clip290)" d="M12.1132 855.107 L12.1132 849.251 L61.6384 849.251 L61.6384 855.107 L12.1132 855.107 Z" fill="#000000" fill-rule="nonzero" fill-opacity="1" /><path clip-path="url(#clip290)" d="M25.9905 836.997 L25.9905 831.14 L61.6384 831.14 L61.6384 836.997 L25.9905 836.997 M12.1132 836.997 L12.1132 831.14 L19.5293 831.14 L19.5293 836.997 L12.1132 836.997 Z" fill="#000000" fill-rule="nonzero" fill-opacity="1" /><path clip-path="url(#clip290)" d="M15.869 813.093 L25.9905 813.093 L25.9905 801.03 L30.542 801.03 L30.542 813.093 L49.8937 813.093 Q54.2542 813.093 55.4955 811.916 Q56.7368 810.706 56.7368 807.046 L56.7368 801.03 L61.6384 801.03 L61.6384 807.046 Q61.6384 813.826 59.124 816.404 Q56.5777 818.982 49.8937 818.982 L30.542 818.982 L30.542 823.279 L25.9905 823.279 L25.9905 818.982 L15.869 818.982 L15.869 813.093 Z" fill="#000000" fill-rule="nonzero" fill-opacity="1" /><path clip-path="url(#clip290)" d="M64.9486 778.496 Q71.3143 780.979 73.2559 783.334 Q75.1974 785.689 75.1974 789.636 L75.1974 794.315 L70.2958 794.315 L70.2958 790.877 Q70.2958 788.458 69.15 787.121 Q68.0041 785.785 63.7391 784.161 L61.0655 783.111 L25.9905 797.529 L25.9905 791.323 L53.8723 780.183 L25.9905 769.043 L25.9905 762.836 L64.9486 778.496 Z" fill="#000000" fill-rule="nonzero" fill-opacity="1" /><path clip-path="url(#clip290)" d="M952.808 72.576 L929.718 12.096 L938.266 12.096 L957.426 63.0159 L976.628 12.096 L985.135 12.096 L962.085 72.576 L952.808 72.576 Z" fill="#000000" fill-rule="nonzero" fill-opacity="1" /><path clip-path="url(#clip290)" d="M991.819 27.2059 L999.272 27.2059 L999.272 72.576 L991.819 72.576 L991.819 27.2059 M991.819 9.54393 L999.272 9.54393 L999.272 18.9825 L991.819 18.9825 L991.819 9.54393 Z" fill="#000000" fill-rule="nonzero" fill-opacity="1" /><path clip-path="url(#clip290)" d="M1022.24 14.324 L1022.24 27.2059 L1037.59 27.2059 L1037.59 32.9987 L1022.24 32.9987 L1022.24 57.6282 Q1022.24 63.1779 1023.74 64.7578 Q1025.28 66.3376 1029.94 66.3376 L1037.59 66.3376 L1037.59 72.576 L1029.94 72.576 Q1021.31 72.576 1018.03 69.3758 Q1014.75 66.1351 1014.75 57.6282 L1014.75 32.9987 L1009.28 32.9987 L1009.28 27.2059 L1014.75 27.2059 L1014.75 14.324 L1022.24 14.324 Z" fill="#000000" fill-rule="nonzero" fill-opacity="1" /><path clip-path="url(#clip290)" d="M1068.02 49.7694 Q1058.98 49.7694 1055.5 51.8354 Q1052.02 53.9013 1052.02 58.8839 Q1052.02 62.8538 1054.61 65.2034 Q1057.24 67.5124 1061.74 67.5124 Q1067.94 67.5124 1071.66 63.1374 Q1075.43 58.7219 1075.43 51.4303 L1075.43 49.7694 L1068.02 49.7694 M1082.88 46.6907 L1082.88 72.576 L1075.43 72.576 L1075.43 65.6895 Q1072.88 69.8214 1069.07 71.8063 Q1065.26 73.7508 1059.75 73.7508 Q1052.78 73.7508 1048.65 69.8619 Q1044.56 65.9325 1044.56 59.3701 Q1044.56 51.7138 1049.67 47.825 Q1054.81 43.9361 1064.98 43.9361 L1075.43 43.9361 L1075.43 43.2069 Q1075.43 38.0623 1072.03 35.2672 Q1068.66 32.4315 1062.55 32.4315 Q1058.66 32.4315 1054.97 33.3632 Q1051.29 34.295 1047.88 36.1584 L1047.88 29.2718 Q1051.97 27.692 1055.82 26.9223 Q1059.67 26.1121 1063.32 26.1121 Q1073.16 26.1121 1078.02 31.2163 Q1082.88 36.3204 1082.88 46.6907 Z" fill="#000000" fill-rule="nonzero" fill-opacity="1" /><path clip-path="url(#clip290)" d="M1098.24 9.54393 L1105.69 9.54393 L1105.69 72.576 L1098.24 72.576 L1098.24 9.54393 Z" fill="#000000" fill-rule="nonzero" fill-opacity="1" /><path clip-path="url(#clip290)" d="M1173.95 34.1734 Q1172.69 33.4443 1171.19 33.1202 Q1169.73 32.7556 1167.95 32.7556 Q1161.63 32.7556 1158.23 36.8875 Q1154.87 40.9789 1154.87 48.6757 L1154.87 72.576 L1147.37 72.576 L1147.37 27.2059 L1154.87 27.2059 L1154.87 34.2544 Q1157.22 30.1225 1160.98 28.1376 Q1164.75 26.1121 1170.14 26.1121 Q1170.91 26.1121 1171.84 26.2337 Q1172.77 26.3147 1173.91 26.5172 L1173.95 34.1734 Z" fill="#000000" fill-rule="nonzero" fill-opacity="1" /><path clip-path="url(#clip290)" d="M1202.38 49.7694 Q1193.35 49.7694 1189.87 51.8354 Q1186.38 53.9013 1186.38 58.8839 Q1186.38 62.8538 1188.98 65.2034 Q1191.61 67.5124 1196.11 67.5124 Q1202.3 67.5124 1206.03 63.1374 Q1209.8 58.7219 1209.8 51.4303 L1209.8 49.7694 L1202.38 49.7694 M1217.25 46.6907 L1217.25 72.576 L1209.8 72.576 L1209.8 65.6895 Q1207.25 69.8214 1203.44 71.8063 Q1199.63 73.7508 1194.12 73.7508 Q1187.15 73.7508 1183.02 69.8619 Q1178.93 65.9325 1178.93 59.3701 Q1178.93 51.7138 1184.03 47.825 Q1189.18 43.9361 1199.35 43.9361 L1209.8 43.9361 L1209.8 43.2069 Q1209.8 38.0623 1206.4 35.2672 Q1203.03 32.4315 1196.92 32.4315 Q1193.03 32.4315 1189.34 33.3632 Q1185.65 34.295 1182.25 36.1584 L1182.25 29.2718 Q1186.34 27.692 1190.19 26.9223 Q1194.04 26.1121 1197.69 26.1121 Q1207.53 26.1121 1212.39 31.2163 Q1217.25 36.3204 1217.25 46.6907 Z" fill="#000000" fill-rule="nonzero" fill-opacity="1" /><path clip-path="url(#clip290)" d="M1239.98 14.324 L1239.98 27.2059 L1255.33 27.2059 L1255.33 32.9987 L1239.98 32.9987 L1239.98 57.6282 Q1239.98 63.1779 1241.48 64.7578 Q1243.02 66.3376 1247.67 66.3376 L1255.33 66.3376 L1255.33 72.576 L1247.67 72.576 Q1239.05 72.576 1235.76 69.3758 Q1232.48 66.1351 1232.48 57.6282 L1232.48 32.9987 L1227.01 32.9987 L1227.01 27.2059 L1232.48 27.2059 L1232.48 14.324 L1239.98 14.324 Z" fill="#000000" fill-rule="nonzero" fill-opacity="1" /><path clip-path="url(#clip290)" d="M1303.94 48.0275 L1303.94 51.6733 L1269.67 51.6733 Q1270.16 59.3701 1274.29 63.421 Q1278.46 67.4314 1285.87 67.4314 Q1290.17 67.4314 1294.18 66.3781 Q1298.23 65.3249 1302.2 63.2184 L1302.2 70.267 Q1298.19 71.9684 1293.98 72.8596 Q1289.76 73.7508 1285.43 73.7508 Q1274.57 73.7508 1268.21 67.4314 Q1261.89 61.1119 1261.89 50.3365 Q1261.89 39.1965 1267.89 32.6746 Q1273.92 26.1121 1284.13 26.1121 Q1293.29 26.1121 1298.59 32.0264 Q1303.94 37.9003 1303.94 48.0275 M1296.49 45.84 Q1296.41 39.7232 1293.04 36.0774 Q1289.72 32.4315 1284.21 32.4315 Q1277.97 32.4315 1274.21 35.9558 Q1270.48 39.4801 1269.91 45.8805 L1296.49 45.84 Z" fill="#000000" fill-rule="nonzero" fill-opacity="1" /><path clip-path="url(#clip290)" d="M1372.4 34.0924 L1372.4 9.54393 L1379.85 9.54393 L1379.85 72.576 L1372.4 72.576 L1372.4 65.7705 Q1370.05 69.8214 1366.45 71.8063 Q1362.88 73.7508 1357.86 73.7508 Q1349.64 73.7508 1344.45 67.1883 Q1339.31 60.6258 1339.31 49.9314 Q1339.31 39.2371 1344.45 32.6746 Q1349.64 26.1121 1357.86 26.1121 Q1362.88 26.1121 1366.45 28.0971 Q1370.05 30.0415 1372.4 34.0924 M1347 49.9314 Q1347 58.1548 1350.36 62.8538 Q1353.77 67.5124 1359.68 67.5124 Q1365.6 67.5124 1369 62.8538 Q1372.4 58.1548 1372.4 49.9314 Q1372.4 41.7081 1369 37.0496 Q1365.6 32.3505 1359.68 32.3505 Q1353.77 32.3505 1350.36 37.0496 Q1347 41.7081 1347 49.9314 Z" fill="#000000" fill-rule="nonzero" fill-opacity="1" /><path clip-path="url(#clip290)" d="M1434.02 48.0275 L1434.02 51.6733 L1399.74 51.6733 Q1400.23 59.3701 1404.36 63.421 Q1408.54 67.4314 1415.95 67.4314 Q1420.24 67.4314 1424.25 66.3781 Q1428.3 65.3249 1432.27 63.2184 L1432.27 70.267 Q1428.26 71.9684 1424.05 72.8596 Q1419.84 73.7508 1415.5 73.7508 Q1404.65 73.7508 1398.29 67.4314 Q1391.97 61.1119 1391.97 50.3365 Q1391.97 39.1965 1397.96 32.6746 Q1404 26.1121 1414.21 26.1121 Q1423.36 26.1121 1428.67 32.0264 Q1434.02 37.9003 1434.02 48.0275 M1426.56 45.84 Q1426.48 39.7232 1423.12 36.0774 Q1419.8 32.4315 1414.29 32.4315 Q1408.05 32.4315 1404.28 35.9558 Q1400.55 39.4801 1399.99 45.8805 L1426.56 45.84 Z" fill="#000000" fill-rule="nonzero" fill-opacity="1" /><path clip-path="url(#clip290)" d="M1478.9 28.9478 L1478.9 35.9153 Q1475.74 34.1734 1472.54 33.3227 Q1469.38 32.4315 1466.14 32.4315 Q1458.89 32.4315 1454.88 37.0496 Q1450.87 41.6271 1450.87 49.9314 Q1450.87 58.2358 1454.88 62.8538 Q1458.89 67.4314 1466.14 67.4314 Q1469.38 67.4314 1472.54 66.5807 Q1475.74 65.6895 1478.9 63.9476 L1478.9 70.8341 Q1475.78 72.2924 1472.42 73.0216 Q1469.1 73.7508 1465.33 73.7508 Q1455.08 73.7508 1449.04 67.3098 Q1443.01 60.8689 1443.01 49.9314 Q1443.01 38.832 1449.08 32.472 Q1455.2 26.1121 1465.81 26.1121 Q1469.26 26.1121 1472.54 26.8413 Q1475.82 27.5299 1478.9 28.9478 Z" fill="#000000" fill-rule="nonzero" fill-opacity="1" /><path clip-path="url(#clip290)" d="M1509.44 32.4315 Q1503.45 32.4315 1499.96 37.1306 Q1496.48 41.7891 1496.48 49.9314 Q1496.48 58.0738 1499.92 62.7728 Q1503.41 67.4314 1509.44 67.4314 Q1515.4 67.4314 1518.88 62.7323 Q1522.37 58.0333 1522.37 49.9314 Q1522.37 41.8701 1518.88 37.1711 Q1515.4 32.4315 1509.44 32.4315 M1509.44 26.1121 Q1519.17 26.1121 1524.72 32.4315 Q1530.26 38.7509 1530.26 49.9314 Q1530.26 61.0714 1524.72 67.4314 Q1519.17 73.7508 1509.44 73.7508 Q1499.68 73.7508 1494.13 67.4314 Q1488.62 61.0714 1488.62 49.9314 Q1488.62 38.7509 1494.13 32.4315 Q1499.68 26.1121 1509.44 26.1121 Z" fill="#000000" fill-rule="nonzero" fill-opacity="1" /><path clip-path="url(#clip290)" d="M1577.94 35.9153 Q1580.74 30.8922 1584.63 28.5022 Q1588.52 26.1121 1593.78 26.1121 Q1600.87 26.1121 1604.72 31.0947 Q1608.57 36.0368 1608.57 45.1919 L1608.57 72.576 L1601.07 72.576 L1601.07 45.4349 Q1601.07 38.913 1598.77 35.7533 Q1596.46 32.5936 1591.72 32.5936 Q1585.92 32.5936 1582.56 36.4419 Q1579.2 40.2903 1579.2 46.9338 L1579.2 72.576 L1571.71 72.576 L1571.71 45.4349 Q1571.71 38.8725 1569.4 35.7533 Q1567.09 32.5936 1562.27 32.5936 Q1556.56 32.5936 1553.19 36.4824 Q1549.83 40.3308 1549.83 46.9338 L1549.83 72.576 L1542.34 72.576 L1542.34 27.2059 L1549.83 27.2059 L1549.83 34.2544 Q1552.38 30.082 1555.95 28.0971 Q1559.51 26.1121 1564.41 26.1121 Q1569.36 26.1121 1572.8 28.6237 Q1576.28 31.1352 1577.94 35.9153 Z" fill="#000000" fill-rule="nonzero" fill-opacity="1" /><path clip-path="url(#clip290)" d="M1630.65 65.7705 L1630.65 89.8329 L1623.15 89.8329 L1623.15 27.2059 L1630.65 27.2059 L1630.65 34.0924 Q1633 30.0415 1636.56 28.0971 Q1640.17 26.1121 1645.15 26.1121 Q1653.41 26.1121 1658.56 32.6746 Q1663.74 39.2371 1663.74 49.9314 Q1663.74 60.6258 1658.56 67.1883 Q1653.41 73.7508 1645.15 73.7508 Q1640.17 73.7508 1636.56 71.8063 Q1633 69.8214 1630.65 65.7705 M1656 49.9314 Q1656 41.7081 1652.6 37.0496 Q1649.24 32.3505 1643.33 32.3505 Q1637.41 32.3505 1634.01 37.0496 Q1630.65 41.7081 1630.65 49.9314 Q1630.65 58.1548 1634.01 62.8538 Q1637.41 67.5124 1643.33 67.5124 Q1649.24 67.5124 1652.6 62.8538 Q1656 58.1548 1656 49.9314 Z" fill="#000000" fill-rule="nonzero" fill-opacity="1" /><path clip-path="url(#clip290)" d="M1693.68 32.4315 Q1687.68 32.4315 1684.2 37.1306 Q1680.72 41.7891 1680.72 49.9314 Q1680.72 58.0738 1684.16 62.7728 Q1687.64 67.4314 1693.68 67.4314 Q1699.63 67.4314 1703.12 62.7323 Q1706.6 58.0333 1706.6 49.9314 Q1706.6 41.8701 1703.12 37.1711 Q1699.63 32.4315 1693.68 32.4315 M1693.68 26.1121 Q1703.4 26.1121 1708.95 32.4315 Q1714.5 38.7509 1714.5 49.9314 Q1714.5 61.0714 1708.95 67.4314 Q1703.4 73.7508 1693.68 73.7508 Q1683.92 73.7508 1678.37 67.4314 Q1672.86 61.0714 1672.86 49.9314 Q1672.86 38.7509 1678.37 32.4315 Q1683.92 26.1121 1693.68 26.1121 Z" fill="#000000" fill-rule="nonzero" fill-opacity="1" /><path clip-path="url(#clip290)" d="M1755.78 28.5427 L1755.78 35.5912 Q1752.62 33.9709 1749.22 33.1607 Q1745.81 32.3505 1742.17 32.3505 Q1736.62 32.3505 1733.82 34.0519 Q1731.07 35.7533 1731.07 39.156 Q1731.07 41.7486 1733.05 43.2475 Q1735.04 44.7058 1741.03 46.0426 L1743.59 46.6097 Q1751.53 48.3111 1754.85 51.4303 Q1758.21 54.509 1758.21 60.0587 Q1758.21 66.3781 1753.19 70.0644 Q1748.2 73.7508 1739.45 73.7508 Q1735.81 73.7508 1731.84 73.0216 Q1727.91 72.3329 1723.53 70.9151 L1723.53 63.2184 Q1727.67 65.3654 1731.68 66.4591 Q1735.69 67.5124 1739.62 67.5124 Q1744.88 67.5124 1747.72 65.73 Q1750.55 63.9071 1750.55 60.6258 Q1750.55 57.5877 1748.49 55.9673 Q1746.46 54.3469 1739.53 52.8481 L1736.94 52.2405 Q1730.01 50.7821 1726.94 47.7845 Q1723.86 44.7463 1723.86 39.4801 Q1723.86 33.0797 1728.39 29.5959 Q1732.93 26.1121 1741.28 26.1121 Q1745.41 26.1121 1749.05 26.7198 Q1752.7 27.3274 1755.78 28.5427 Z" fill="#000000" fill-rule="nonzero" fill-opacity="1" /><path clip-path="url(#clip290)" d="M1770.08 27.2059 L1777.53 27.2059 L1777.53 72.576 L1770.08 72.576 L1770.08 27.2059 M1770.08 9.54393 L1777.53 9.54393 L1777.53 18.9825 L1770.08 18.9825 L1770.08 9.54393 Z" fill="#000000" fill-rule="nonzero" fill-opacity="1" /><path clip-path="url(#clip290)" d="M1800.5 14.324 L1800.5 27.2059 L1815.85 27.2059 L1815.85 32.9987 L1800.5 32.9987 L1800.5 57.6282 Q1800.5 63.1779 1802 64.7578 Q1803.54 66.3376 1808.2 66.3376 L1815.85 66.3376 L1815.85 72.576 L1808.2 72.576 Q1799.57 72.576 1796.29 69.3758 Q1793.01 66.1351 1793.01 57.6282 L1793.01 32.9987 L1787.54 32.9987 L1787.54 27.2059 L1793.01 27.2059 L1793.01 14.324 L1800.5 14.324 Z" fill="#000000" fill-rule="nonzero" fill-opacity="1" /><path clip-path="url(#clip290)" d="M1825.66 27.2059 L1833.11 27.2059 L1833.11 72.576 L1825.66 72.576 L1825.66 27.2059 M1825.66 9.54393 L1833.11 9.54393 L1833.11 18.9825 L1825.66 18.9825 L1825.66 9.54393 Z" fill="#000000" fill-rule="nonzero" fill-opacity="1" /><path clip-path="url(#clip290)" d="M1866.29 32.4315 Q1860.29 32.4315 1856.81 37.1306 Q1853.32 41.7891 1853.32 49.9314 Q1853.32 58.0738 1856.77 62.7728 Q1860.25 67.4314 1866.29 67.4314 Q1872.24 67.4314 1875.73 62.7323 Q1879.21 58.0333 1879.21 49.9314 Q1879.21 41.8701 1875.73 37.1711 Q1872.24 32.4315 1866.29 32.4315 M1866.29 26.1121 Q1876.01 26.1121 1881.56 32.4315 Q1887.11 38.7509 1887.11 49.9314 Q1887.11 61.0714 1881.56 67.4314 Q1876.01 73.7508 1866.29 73.7508 Q1856.52 73.7508 1850.97 67.4314 Q1845.47 61.0714 1845.47 49.9314 Q1845.47 38.7509 1850.97 32.4315 Q1856.52 26.1121 1866.29 26.1121 Z" fill="#000000" fill-rule="nonzero" fill-opacity="1" /><path clip-path="url(#clip290)" d="M1937.18 45.1919 L1937.18 72.576 L1929.72 72.576 L1929.72 45.4349 Q1929.72 38.994 1927.21 35.7938 Q1924.7 32.5936 1919.68 32.5936 Q1913.64 32.5936 1910.16 36.4419 Q1906.67 40.2903 1906.67 46.9338 L1906.67 72.576 L1899.18 72.576 L1899.18 27.2059 L1906.67 27.2059 L1906.67 34.2544 Q1909.35 30.163 1912.95 28.1376 Q1916.6 26.1121 1921.34 26.1121 Q1929.16 26.1121 1933.17 30.9732 Q1937.18 35.7938 1937.18 45.1919 Z" fill="#000000" fill-rule="nonzero" fill-opacity="1" /><path clip-path="url(#clip291)" d="M351.292 1453.01 L351.292 1734.12 L441.472 1734.12 L441.472 1453.01 L351.292 1453.01 L351.292 1453.01  Z" fill="#008080" fill-rule="evenodd" fill-opacity="0.7"/>
<polyline clip-path="url(#clip291)" style="stroke:#000000; stroke-linecap:round; stroke-linejoin:round; stroke-width:4; stroke-opacity:0.7; fill:none" points="351.292,1453.01 351.292,1734.12 441.472,1734.12 441.472,1453.01 351.292,1453.01 "/>
<path clip-path="url(#clip291)" d="M802.19 797.094 L802.19 1734.12 L892.37 1734.12 L892.37 797.094 L802.19 797.094 L802.19 797.094  Z" fill="#008080" fill-rule="evenodd" fill-opacity="0.7"/>
<polyline clip-path="url(#clip291)" style="stroke:#000000; stroke-linecap:round; stroke-linejoin:round; stroke-width:4; stroke-opacity:0.7; fill:none" points="802.19,797.094 802.19,1734.12 892.37,1734.12 892.37,797.094 802.19,797.094 "/>
<path clip-path="url(#clip291)" d="M1253.09 515.987 L1253.09 1734.12 L1343.27 1734.12 L1343.27 515.987 L1253.09 515.987 L1253.09 515.987  Z" fill="#008080" fill-rule="evenodd" fill-opacity="0.7"/>
<polyline clip-path="url(#clip291)" style="stroke:#000000; stroke-linecap:round; stroke-linejoin:round; stroke-width:4; stroke-opacity:0.7; fill:none" points="1253.09,515.987 1253.09,1734.12 1343.27,1734.12 1343.27,515.987 1253.09,515.987 "/>
<path clip-path="url(#clip291)" d="M1703.99 141.178 L1703.99 1734.12 L1794.17 1734.12 L1794.17 141.178 L1703.99 141.178 L1703.99 141.178  Z" fill="#008080" fill-rule="evenodd" fill-opacity="0.7"/>
<polyline clip-path="url(#clip291)" style="stroke:#000000; stroke-linecap:round; stroke-linejoin:round; stroke-width:4; stroke-opacity:0.7; fill:none" points="1703.99,141.178 1703.99,1734.12 1794.17,1734.12 1794.17,141.178 1703.99,141.178 "/>
<path clip-path="url(#clip291)" d="M2154.89 422.285 L2154.89 1734.12 L2245.07 1734.12 L2245.07 422.285 L2154.89 422.285 L2154.89 422.285  Z" fill="#008080" fill-rule="evenodd" fill-opacity="0.7"/>
<polyline clip-path="url(#clip291)" style="stroke:#000000; stroke-linecap:round; stroke-linejoin:round; stroke-width:4; stroke-opacity:0.7; fill:none" points="2154.89,422.285 2154.89,1734.12 2245.07,1734.12 2245.07,422.285 2154.89,422.285 "/>
<circle clip-path="url(#clip291)" style="fill:#008080; stroke:none; fill-opacity:0" cx="396.382" cy="1453.01" r="2"/>
<circle clip-path="url(#clip291)" style="fill:#008080; stroke:none; fill-opacity:0" cx="847.28" cy="797.094" r="2"/>
<circle clip-path="url(#clip291)" style="fill:#008080; stroke:none; fill-opacity:0" cx="1298.18" cy="515.987" r="2"/>
<circle clip-path="url(#clip291)" style="fill:#008080; stroke:none; fill-opacity:0" cx="1749.08" cy="141.178" r="2"/>
<circle clip-path="url(#clip291)" style="fill:#008080; stroke:none; fill-opacity:0" cx="2199.98" cy="422.285" r="2"/>
<path clip-path="url(#clip291)" d="M441.472 1734.12 L441.472 1734.12 L531.651 1734.12 L531.651 1734.12 L441.472 1734.12 L441.472 1734.12  Z" fill="#228b22" fill-rule="evenodd" fill-opacity="0.7"/>
<polyline clip-path="url(#clip291)" style="stroke:#000000; stroke-linecap:round; stroke-linejoin:round; stroke-width:4; stroke-opacity:0.7; fill:none" points="441.472,1734.12 441.472,1734.12 531.651,1734.12 441.472,1734.12 "/>
<path clip-path="url(#clip291)" d="M892.37 1734.12 L892.37 1734.12 L982.55 1734.12 L982.55 1734.12 L892.37 1734.12 L892.37 1734.12  Z" fill="#228b22" fill-rule="evenodd" fill-opacity="0.7"/>
<polyline clip-path="url(#clip291)" style="stroke:#000000; stroke-linecap:round; stroke-linejoin:round; stroke-width:4; stroke-opacity:0.7; fill:none" points="892.37,1734.12 892.37,1734.12 982.55,1734.12 892.37,1734.12 "/>
<path clip-path="url(#clip291)" d="M1343.27 1734.12 L1343.27 1734.12 L1433.45 1734.12 L1433.45 1734.12 L1343.27 1734.12 L1343.27 1734.12  Z" fill="#228b22" fill-rule="evenodd" fill-opacity="0.7"/>
<polyline clip-path="url(#clip291)" style="stroke:#000000; stroke-linecap:round; stroke-linejoin:round; stroke-width:4; stroke-opacity:0.7; fill:none" points="1343.27,1734.12 1343.27,1734.12 1433.45,1734.12 1343.27,1734.12 "/>
<path clip-path="url(#clip291)" d="M1794.17 1623.88 L1794.17 1734.12 L1884.35 1734.12 L1884.35 1623.88 L1794.17 1623.88 L1794.17 1623.88  Z" fill="#228b22" fill-rule="evenodd" fill-opacity="0.7"/>
<polyline clip-path="url(#clip291)" style="stroke:#000000; stroke-linecap:round; stroke-linejoin:round; stroke-width:4; stroke-opacity:0.7; fill:none" points="1794.17,1623.88 1794.17,1734.12 1884.35,1734.12 1884.35,1623.88 1794.17,1623.88 "/>
<path clip-path="url(#clip291)" d="M2245.07 1466.4 L2245.07 1734.12 L2335.25 1734.12 L2335.25 1466.4 L2245.07 1466.4 L2245.07 1466.4  Z" fill="#228b22" fill-rule="evenodd" fill-opacity="0.7"/>
<polyline clip-path="url(#clip291)" style="stroke:#000000; stroke-linecap:round; stroke-linejoin:round; stroke-width:4; stroke-opacity:0.7; fill:none" points="2245.07,1466.4 2245.07,1734.12 2335.25,1734.12 2335.25,1466.4 2245.07,1466.4 "/>
<circle clip-path="url(#clip291)" style="fill:#228b22; stroke:none; fill-opacity:0" cx="486.561" cy="1734.12" r="2"/>
<circle clip-path="url(#clip291)" style="fill:#228b22; stroke:none; fill-opacity:0" cx="937.46" cy="1734.12" r="2"/>
<circle clip-path="url(#clip291)" style="fill:#228b22; stroke:none; fill-opacity:0" cx="1388.36" cy="1734.12" r="2"/>
<circle clip-path="url(#clip291)" style="fill:#228b22; stroke:none; fill-opacity:0" cx="1839.26" cy="1623.88" r="2"/>
<circle clip-path="url(#clip291)" style="fill:#228b22; stroke:none; fill-opacity:0" cx="2290.16" cy="1466.4" r="2"/>
<path clip-path="url(#clip291)" d="M531.651 484.753 L531.651 1734.12 L621.831 1734.12 L621.831 484.753 L531.651 484.753 L531.651 484.753  Z" fill="#daa520" fill-rule="evenodd" fill-opacity="0.7"/>
<polyline clip-path="url(#clip291)" style="stroke:#000000; stroke-linecap:round; stroke-linejoin:round; stroke-width:4; stroke-opacity:0.7; fill:none" points="531.651,484.753 531.651,1734.12 621.831,1734.12 621.831,484.753 531.651,484.753 "/>
<path clip-path="url(#clip291)" d="M982.55 984.499 L982.55 1734.12 L1072.73 1734.12 L1072.73 984.499 L982.55 984.499 L982.55 984.499  Z" fill="#daa520" fill-rule="evenodd" fill-opacity="0.7"/>
<polyline clip-path="url(#clip291)" style="stroke:#000000; stroke-linecap:round; stroke-linejoin:round; stroke-width:4; stroke-opacity:0.7; fill:none" points="982.55,984.499 982.55,1734.12 1072.73,1734.12 1072.73,984.499 982.55,984.499 "/>
<path clip-path="url(#clip291)" d="M1433.45 580.858 L1433.45 1734.12 L1523.63 1734.12 L1523.63 580.858 L1433.45 580.858 L1433.45 580.858  Z" fill="#daa520" fill-rule="evenodd" fill-opacity="0.7"/>
<polyline clip-path="url(#clip291)" style="stroke:#000000; stroke-linecap:round; stroke-linejoin:round; stroke-width:4; stroke-opacity:0.7; fill:none" points="1433.45,580.858 1433.45,1734.12 1523.63,1734.12 1523.63,580.858 1433.45,580.858 "/>
<path clip-path="url(#clip291)" d="M1884.35 631.737 L1884.35 1734.12 L1974.53 1734.12 L1974.53 631.737 L1884.35 631.737 L1884.35 631.737  Z" fill="#daa520" fill-rule="evenodd" fill-opacity="0.7"/>
<polyline clip-path="url(#clip291)" style="stroke:#000000; stroke-linecap:round; stroke-linejoin:round; stroke-width:4; stroke-opacity:0.7; fill:none" points="1884.35,631.737 1884.35,1734.12 1974.53,1734.12 1974.53,631.737 1884.35,631.737 "/>
<path clip-path="url(#clip291)" d="M2335.25 127.792 L2335.25 1734.12 L2425.42 1734.12 L2425.42 127.792 L2335.25 127.792 L2335.25 127.792  Z" fill="#daa520" fill-rule="evenodd" fill-opacity="0.7"/>
<polyline clip-path="url(#clip291)" style="stroke:#000000; stroke-linecap:round; stroke-linejoin:round; stroke-width:4; stroke-opacity:0.7; fill:none" points="2335.25,127.792 2335.25,1734.12 2425.42,1734.12 2425.42,127.792 2335.25,127.792 "/>
<circle clip-path="url(#clip291)" style="fill:#daa520; stroke:none; fill-opacity:0" cx="576.741" cy="484.753" r="2"/>
<circle clip-path="url(#clip291)" style="fill:#daa520; stroke:none; fill-opacity:0" cx="1027.64" cy="984.499" r="2"/>
<circle clip-path="url(#clip291)" style="fill:#daa520; stroke:none; fill-opacity:0" cx="1478.54" cy="580.858" r="2"/>
<circle clip-path="url(#clip291)" style="fill:#daa520; stroke:none; fill-opacity:0" cx="1929.44" cy="631.737" r="2"/>
<circle clip-path="url(#clip291)" style="fill:#daa520; stroke:none; fill-opacity:0" cx="2380.33" cy="127.792" r="2"/>
<path clip-path="url(#clip291)" d="M621.831 1109.44 L621.831 1734.12 L712.011 1734.12 L712.011 1109.44 L621.831 1109.44 L621.831 1109.44  Z" fill="#cd5c5c" fill-rule="evenodd" fill-opacity="0.7"/>
<polyline clip-path="url(#clip291)" style="stroke:#000000; stroke-linecap:round; stroke-linejoin:round; stroke-width:4; stroke-opacity:0.7; fill:none" points="621.831,1109.44 621.831,1734.12 712.011,1734.12 712.011,1109.44 621.831,1109.44 "/>
<path clip-path="url(#clip291)" d="M1072.73 609.69 L1072.73 1734.12 L1162.91 1734.12 L1162.91 609.69 L1072.73 609.69 L1072.73 609.69  Z" fill="#cd5c5c" fill-rule="evenodd" fill-opacity="0.7"/>
<polyline clip-path="url(#clip291)" style="stroke:#000000; stroke-linecap:round; stroke-linejoin:round; stroke-width:4; stroke-opacity:0.7; fill:none" points="1072.73,609.69 1072.73,1734.12 1162.91,1734.12 1162.91,609.69 1072.73,609.69 "/>
<path clip-path="url(#clip291)" d="M1523.63 1013.33 L1523.63 1734.12 L1613.81 1734.12 L1613.81 1013.33 L1523.63 1013.33 L1523.63 1013.33  Z" fill="#cd5c5c" fill-rule="evenodd" fill-opacity="0.7"/>
<polyline clip-path="url(#clip291)" style="stroke:#000000; stroke-linecap:round; stroke-linejoin:round; stroke-width:4; stroke-opacity:0.7; fill:none" points="1523.63,1013.33 1523.63,1734.12 1613.81,1734.12 1613.81,1013.33 1523.63,1013.33 "/>
<path clip-path="url(#clip291)" d="M1974.53 1072.69 L1974.53 1734.12 L2064.71 1734.12 L2064.71 1072.69 L1974.53 1072.69 L1974.53 1072.69  Z" fill="#cd5c5c" fill-rule="evenodd" fill-opacity="0.7"/>
<polyline clip-path="url(#clip291)" style="stroke:#000000; stroke-linecap:round; stroke-linejoin:round; stroke-width:4; stroke-opacity:0.7; fill:none" points="1974.53,1072.69 1974.53,1734.12 2064.71,1734.12 2064.71,1072.69 1974.53,1072.69 "/>
<path clip-path="url(#clip291)" d="M2425.42 1734.12 L2425.42 1734.12 L2515.6 1734.12 L2515.6 1734.12 L2425.42 1734.12 L2425.42 1734.12  Z" fill="#cd5c5c" fill-rule="evenodd" fill-opacity="0.7"/>
<polyline clip-path="url(#clip291)" style="stroke:#000000; stroke-linecap:round; stroke-linejoin:round; stroke-width:4; stroke-opacity:0.7; fill:none" points="2425.42,1734.12 2425.42,1734.12 2515.6,1734.12 2425.42,1734.12 "/>
<circle clip-path="url(#clip291)" style="fill:#cd5c5c; stroke:none; fill-opacity:0" cx="666.921" cy="1109.44" r="2"/>
<circle clip-path="url(#clip291)" style="fill:#cd5c5c; stroke:none; fill-opacity:0" cx="1117.82" cy="609.69" r="2"/>
<circle clip-path="url(#clip291)" style="fill:#cd5c5c; stroke:none; fill-opacity:0" cx="1568.72" cy="1013.33" r="2"/>
<circle clip-path="url(#clip291)" style="fill:#cd5c5c; stroke:none; fill-opacity:0" cx="2019.62" cy="1072.69" r="2"/>
<circle clip-path="url(#clip291)" style="fill:#cd5c5c; stroke:none; fill-opacity:0" cx="2470.51" cy="1734.12" r="2"/>
<path clip-path="url(#clip290)" d="M2086.68 440.536 L2560.27 440.536 L2560.27 181.336 L2086.68 181.336  Z" fill="#ffffff" fill-rule="evenodd" fill-opacity="1"/>
<polyline clip-path="url(#clip290)" style="stroke:#000000; stroke-linecap:round; stroke-linejoin:round; stroke-width:4; stroke-opacity:1; fill:none" points="2086.68,440.536 2560.27,440.536 2560.27,181.336 2086.68,181.336 2086.68,440.536 "/>
<path clip-path="url(#clip290)" d="M2113.51 253.912 L2274.48 253.912 L2274.48 212.44 L2113.51 212.44 L2113.51 253.912  Z" fill="#008080" fill-rule="evenodd" fill-opacity="0.7"/>
<polyline clip-path="url(#clip290)" style="stroke:#000000; stroke-linecap:round; stroke-linejoin:round; stroke-width:4; stroke-opacity:1; fill:none" points="2113.51,253.912 2274.48,253.912 2274.48,212.44 2113.51,212.44 2113.51,253.912 "/>
<path clip-path="url(#clip290)" d="M2323.56 217.031 L2323.56 221.591 Q2320.89 220.318 2318.53 219.693 Q2316.17 219.068 2313.97 219.068 Q2310.15 219.068 2308.07 220.549 Q2306.01 222.031 2306.01 224.762 Q2306.01 227.054 2307.38 228.234 Q2308.76 229.392 2312.61 230.109 L2315.43 230.688 Q2320.66 231.683 2323.14 234.206 Q2325.64 236.706 2325.64 240.919 Q2325.64 245.942 2322.26 248.535 Q2318.9 251.128 2312.4 251.128 Q2309.95 251.128 2307.17 250.572 Q2304.41 250.016 2301.45 248.929 L2301.45 244.114 Q2304.3 245.711 2307.03 246.521 Q2309.76 247.331 2312.4 247.331 Q2316.4 247.331 2318.58 245.757 Q2320.76 244.183 2320.76 241.267 Q2320.76 238.72 2319.18 237.285 Q2317.63 235.85 2314.07 235.132 L2311.22 234.577 Q2305.99 233.535 2303.65 231.313 Q2301.31 229.091 2301.31 225.132 Q2301.31 220.549 2304.53 217.91 Q2307.77 215.271 2313.44 215.271 Q2315.87 215.271 2318.39 215.711 Q2320.92 216.151 2323.56 217.031 Z" fill="#000000" fill-rule="nonzero" fill-opacity="1" /><path clip-path="url(#clip290)" d="M2332.31 240.225 L2332.31 224.531 L2336.57 224.531 L2336.57 240.063 Q2336.57 243.743 2338 245.595 Q2339.44 247.424 2342.31 247.424 Q2345.76 247.424 2347.75 245.225 Q2349.76 243.026 2349.76 239.229 L2349.76 224.531 L2354.02 224.531 L2354.02 250.456 L2349.76 250.456 L2349.76 246.475 Q2348.21 248.836 2346.15 249.993 Q2344.11 251.128 2341.4 251.128 Q2336.94 251.128 2334.62 248.35 Q2332.31 245.572 2332.31 240.225 M2343.02 223.906 L2343.02 223.906 Z" fill="#000000" fill-rule="nonzero" fill-opacity="1" /><path clip-path="url(#clip290)" d="M2377.82 228.512 Q2377.1 228.095 2376.24 227.91 Q2375.41 227.702 2374.39 227.702 Q2370.78 227.702 2368.83 230.063 Q2366.91 232.401 2366.91 236.799 L2366.91 250.456 L2362.63 250.456 L2362.63 224.531 L2366.91 224.531 L2366.91 228.558 Q2368.26 226.197 2370.41 225.063 Q2372.56 223.906 2375.64 223.906 Q2376.08 223.906 2376.61 223.975 Q2377.14 224.021 2377.79 224.137 L2377.82 228.512 Z" fill="#000000" fill-rule="nonzero" fill-opacity="1" /><path clip-path="url(#clip290)" d="M2379.23 224.531 L2383.74 224.531 L2391.84 246.29 L2399.95 224.531 L2404.46 224.531 L2394.74 250.456 L2388.95 250.456 L2379.23 224.531 Z" fill="#000000" fill-rule="nonzero" fill-opacity="1" /><path clip-path="url(#clip290)" d="M2410.34 224.531 L2414.6 224.531 L2414.6 250.456 L2410.34 250.456 L2410.34 224.531 M2410.34 214.438 L2414.6 214.438 L2414.6 219.831 L2410.34 219.831 L2410.34 214.438 Z" fill="#000000" fill-rule="nonzero" fill-opacity="1" /><path clip-path="url(#clip290)" d="M2420.45 224.531 L2424.97 224.531 L2433.07 246.29 L2441.17 224.531 L2445.69 224.531 L2435.96 250.456 L2430.18 250.456 L2420.45 224.531 Z" fill="#000000" fill-rule="nonzero" fill-opacity="1" /><path clip-path="url(#clip290)" d="M2463.35 237.424 Q2458.19 237.424 2456.19 238.604 Q2454.2 239.785 2454.2 242.632 Q2454.2 244.901 2455.69 246.243 Q2457.19 247.563 2459.76 247.563 Q2463.3 247.563 2465.43 245.063 Q2467.58 242.54 2467.58 238.373 L2467.58 237.424 L2463.35 237.424 M2471.84 235.665 L2471.84 250.456 L2467.58 250.456 L2467.58 246.521 Q2466.13 248.882 2463.95 250.016 Q2461.77 251.128 2458.63 251.128 Q2454.64 251.128 2452.28 248.905 Q2449.94 246.66 2449.94 242.91 Q2449.94 238.535 2452.86 236.313 Q2455.8 234.091 2461.61 234.091 L2467.58 234.091 L2467.58 233.674 Q2467.58 230.734 2465.64 229.137 Q2463.72 227.517 2460.22 227.517 Q2458 227.517 2455.89 228.049 Q2453.79 228.581 2451.84 229.646 L2451.84 225.711 Q2454.18 224.808 2456.38 224.368 Q2458.58 223.906 2460.66 223.906 Q2466.29 223.906 2469.07 226.822 Q2471.84 229.739 2471.84 235.665 Z" fill="#000000" fill-rule="nonzero" fill-opacity="1" /><path clip-path="url(#clip290)" d="M2480.62 214.438 L2484.88 214.438 L2484.88 250.456 L2480.62 250.456 L2480.62 214.438 Z" fill="#000000" fill-rule="nonzero" fill-opacity="1" /><path clip-path="url(#clip290)" d="M2113.51 305.752 L2274.48 305.752 L2274.48 264.28 L2113.51 264.28 L2113.51 305.752  Z" fill="#228b22" fill-rule="evenodd" fill-opacity="0.7"/>
<polyline clip-path="url(#clip290)" style="stroke:#000000; stroke-linecap:round; stroke-linejoin:round; stroke-width:4; stroke-opacity:1; fill:none" points="2113.51,305.752 2274.48,305.752 2274.48,264.28 2113.51,264.28 2113.51,305.752 "/>
<path clip-path="url(#clip290)" d="M2326.87 297.366 L2326.87 288.083 L2319.23 288.083 L2319.23 284.241 L2331.5 284.241 L2331.5 299.079 Q2328.79 301 2325.52 301.995 Q2322.26 302.968 2318.56 302.968 Q2310.45 302.968 2305.87 298.245 Q2301.31 293.5 2301.31 285.051 Q2301.31 276.579 2305.87 271.857 Q2310.45 267.111 2318.56 267.111 Q2321.94 267.111 2324.97 267.945 Q2328.02 268.778 2330.59 270.398 L2330.59 275.375 Q2328 273.176 2325.08 272.065 Q2322.17 270.954 2318.95 270.954 Q2312.61 270.954 2309.41 274.496 Q2306.24 278.037 2306.24 285.051 Q2306.24 292.042 2309.41 295.583 Q2312.61 299.125 2318.95 299.125 Q2321.43 299.125 2323.37 298.708 Q2325.32 298.269 2326.87 297.366 Z" fill="#000000" fill-rule="nonzero" fill-opacity="1" /><path clip-path="url(#clip290)" d="M2354.88 280.352 Q2354.16 279.935 2353.3 279.75 Q2352.47 279.542 2351.45 279.542 Q2347.84 279.542 2345.89 281.903 Q2343.97 284.241 2343.97 288.639 L2343.97 302.296 L2339.69 302.296 L2339.69 276.371 L2343.97 276.371 L2343.97 280.398 Q2345.32 278.037 2347.47 276.903 Q2349.62 275.746 2352.7 275.746 Q2353.14 275.746 2353.67 275.815 Q2354.2 275.861 2354.85 275.977 L2354.88 280.352 Z" fill="#000000" fill-rule="nonzero" fill-opacity="1" /><path clip-path="url(#clip290)" d="M2368.35 279.357 Q2364.92 279.357 2362.93 282.042 Q2360.94 284.704 2360.94 289.357 Q2360.94 294.009 2362.91 296.694 Q2364.9 299.356 2368.35 299.356 Q2371.75 299.356 2373.74 296.671 Q2375.73 293.986 2375.73 289.357 Q2375.73 284.75 2373.74 282.065 Q2371.75 279.357 2368.35 279.357 M2368.35 275.746 Q2373.9 275.746 2377.07 279.357 Q2380.25 282.968 2380.25 289.357 Q2380.25 295.722 2377.07 299.356 Q2373.9 302.968 2368.35 302.968 Q2362.77 302.968 2359.6 299.356 Q2356.45 295.722 2356.45 289.357 Q2356.45 282.968 2359.6 279.357 Q2362.77 275.746 2368.35 275.746 Z" fill="#000000" fill-rule="nonzero" fill-opacity="1" /><path clip-path="url(#clip290)" d="M2384.83 276.371 L2389.09 276.371 L2394.41 296.602 L2399.71 276.371 L2404.74 276.371 L2410.06 296.602 L2415.36 276.371 L2419.62 276.371 L2412.84 302.296 L2407.82 302.296 L2402.24 281.046 L2396.63 302.296 L2391.61 302.296 L2384.83 276.371 Z" fill="#000000" fill-rule="nonzero" fill-opacity="1" /><path clip-path="url(#clip290)" d="M2430.29 269.009 L2430.29 276.371 L2439.07 276.371 L2439.07 279.681 L2430.29 279.681 L2430.29 293.755 Q2430.29 296.926 2431.15 297.829 Q2432.03 298.731 2434.69 298.731 L2439.07 298.731 L2439.07 302.296 L2434.69 302.296 Q2429.76 302.296 2427.88 300.468 Q2426.01 298.616 2426.01 293.755 L2426.01 279.681 L2422.88 279.681 L2422.88 276.371 L2426.01 276.371 L2426.01 269.009 L2430.29 269.009 Z" fill="#000000" fill-rule="nonzero" fill-opacity="1" /><path clip-path="url(#clip290)" d="M2466.22 286.648 L2466.22 302.296 L2461.96 302.296 L2461.96 286.787 Q2461.96 283.107 2460.52 281.278 Q2459.09 279.449 2456.22 279.449 Q2452.77 279.449 2450.78 281.648 Q2448.79 283.847 2448.79 287.644 L2448.79 302.296 L2444.5 302.296 L2444.5 266.278 L2448.79 266.278 L2448.79 280.398 Q2450.32 278.06 2452.38 276.903 Q2454.46 275.746 2457.17 275.746 Q2461.63 275.746 2463.93 278.523 Q2466.22 281.278 2466.22 286.648 Z" fill="#000000" fill-rule="nonzero" fill-opacity="1" /><path clip-path="url(#clip290)" d="M2113.51 357.592 L2274.48 357.592 L2274.48 316.12 L2113.51 316.12 L2113.51 357.592  Z" fill="#daa520" fill-rule="evenodd" fill-opacity="0.7"/>
<polyline clip-path="url(#clip290)" style="stroke:#000000; stroke-linecap:round; stroke-linejoin:round; stroke-width:4; stroke-opacity:1; fill:none" points="2113.51,357.592 2274.48,357.592 2274.48,316.12 2113.51,316.12 2113.51,357.592 "/>
<path clip-path="url(#clip290)" d="M2323.56 320.711 L2323.56 325.271 Q2320.89 323.998 2318.53 323.373 Q2316.17 322.748 2313.97 322.748 Q2310.15 322.748 2308.07 324.229 Q2306.01 325.711 2306.01 328.442 Q2306.01 330.734 2307.38 331.914 Q2308.76 333.072 2312.61 333.789 L2315.43 334.368 Q2320.66 335.363 2323.14 337.886 Q2325.64 340.386 2325.64 344.599 Q2325.64 349.622 2322.26 352.215 Q2318.9 354.808 2312.4 354.808 Q2309.95 354.808 2307.17 354.252 Q2304.41 353.696 2301.45 352.609 L2301.45 347.794 Q2304.3 349.391 2307.03 350.201 Q2309.76 351.011 2312.4 351.011 Q2316.4 351.011 2318.58 349.437 Q2320.76 347.863 2320.76 344.947 Q2320.76 342.4 2319.18 340.965 Q2317.63 339.53 2314.07 338.812 L2311.22 338.257 Q2305.99 337.215 2303.65 334.993 Q2301.31 332.771 2301.31 328.812 Q2301.31 324.229 2304.53 321.59 Q2307.77 318.951 2313.44 318.951 Q2315.87 318.951 2318.39 319.391 Q2320.92 319.831 2323.56 320.711 Z" fill="#000000" fill-rule="nonzero" fill-opacity="1" /><path clip-path="url(#clip290)" d="M2336.96 320.849 L2336.96 328.211 L2345.73 328.211 L2345.73 331.521 L2336.96 331.521 L2336.96 345.595 Q2336.96 348.766 2337.82 349.669 Q2338.7 350.571 2341.36 350.571 L2345.73 350.571 L2345.73 354.136 L2341.36 354.136 Q2336.43 354.136 2334.55 352.308 Q2332.68 350.456 2332.68 345.595 L2332.68 331.521 L2329.55 331.521 L2329.55 328.211 L2332.68 328.211 L2332.68 320.849 L2336.96 320.849 Z" fill="#000000" fill-rule="nonzero" fill-opacity="1" /><path clip-path="url(#clip290)" d="M2363.12 341.104 Q2357.95 341.104 2355.96 342.284 Q2353.97 343.465 2353.97 346.312 Q2353.97 348.581 2355.45 349.923 Q2356.96 351.243 2359.53 351.243 Q2363.07 351.243 2365.2 348.743 Q2367.35 346.22 2367.35 342.053 L2367.35 341.104 L2363.12 341.104 M2371.61 339.345 L2371.61 354.136 L2367.35 354.136 L2367.35 350.201 Q2365.89 352.562 2363.72 353.696 Q2361.54 354.808 2358.39 354.808 Q2354.41 354.808 2352.05 352.585 Q2349.71 350.34 2349.71 346.59 Q2349.71 342.215 2352.63 339.993 Q2355.57 337.771 2361.38 337.771 L2367.35 337.771 L2367.35 337.354 Q2367.35 334.414 2365.41 332.817 Q2363.49 331.197 2359.99 331.197 Q2357.77 331.197 2355.66 331.729 Q2353.56 332.261 2351.61 333.326 L2351.61 329.391 Q2353.95 328.488 2356.15 328.048 Q2358.35 327.586 2360.43 327.586 Q2366.06 327.586 2368.83 330.502 Q2371.61 333.419 2371.61 339.345 Z" fill="#000000" fill-rule="nonzero" fill-opacity="1" /><path clip-path="url(#clip290)" d="M2396.91 328.974 L2396.91 333.002 Q2395.11 332.076 2393.16 331.613 Q2391.22 331.15 2389.13 331.15 Q2385.96 331.15 2384.37 332.123 Q2382.79 333.095 2382.79 335.039 Q2382.79 336.521 2383.93 337.377 Q2385.06 338.21 2388.49 338.974 L2389.95 339.298 Q2394.48 340.271 2396.38 342.053 Q2398.3 343.812 2398.3 346.984 Q2398.3 350.595 2395.43 352.701 Q2392.58 354.808 2387.58 354.808 Q2385.5 354.808 2383.23 354.391 Q2380.99 353.997 2378.49 353.187 L2378.49 348.789 Q2380.85 350.016 2383.14 350.641 Q2385.43 351.243 2387.68 351.243 Q2390.69 351.243 2392.31 350.224 Q2393.93 349.183 2393.93 347.308 Q2393.93 345.572 2392.75 344.646 Q2391.59 343.72 2387.63 342.863 L2386.15 342.516 Q2382.19 341.683 2380.43 339.97 Q2378.67 338.234 2378.67 335.224 Q2378.67 331.567 2381.26 329.576 Q2383.86 327.586 2388.63 327.586 Q2390.99 327.586 2393.07 327.933 Q2395.15 328.28 2396.91 328.974 Z" fill="#000000" fill-rule="nonzero" fill-opacity="1" /><path clip-path="url(#clip290)" d="M2405.08 328.211 L2409.34 328.211 L2409.34 354.136 L2405.08 354.136 L2405.08 328.211 M2405.08 318.118 L2409.34 318.118 L2409.34 323.511 L2405.08 323.511 L2405.08 318.118 Z" fill="#000000" fill-rule="nonzero" fill-opacity="1" /><path clip-path="url(#clip290)" d="M2434.78 328.974 L2434.78 333.002 Q2432.98 332.076 2431.03 331.613 Q2429.09 331.15 2427.01 331.15 Q2423.83 331.15 2422.24 332.123 Q2420.66 333.095 2420.66 335.039 Q2420.66 336.521 2421.8 337.377 Q2422.93 338.21 2426.36 338.974 L2427.82 339.298 Q2432.35 340.271 2434.25 342.053 Q2436.17 343.812 2436.17 346.984 Q2436.17 350.595 2433.3 352.701 Q2430.45 354.808 2425.45 354.808 Q2423.37 354.808 2421.1 354.391 Q2418.86 353.997 2416.36 353.187 L2416.36 348.789 Q2418.72 350.016 2421.01 350.641 Q2423.3 351.243 2425.55 351.243 Q2428.56 351.243 2430.18 350.224 Q2431.8 349.183 2431.8 347.308 Q2431.8 345.572 2430.62 344.646 Q2429.46 343.72 2425.5 342.863 L2424.02 342.516 Q2420.06 341.683 2418.3 339.97 Q2416.54 338.234 2416.54 335.224 Q2416.54 331.567 2419.13 329.576 Q2421.73 327.586 2426.5 327.586 Q2428.86 327.586 2430.94 327.933 Q2433.02 328.28 2434.78 328.974 Z" fill="#000000" fill-rule="nonzero" fill-opacity="1" /><path clip-path="url(#clip290)" d="M2113.51 409.432 L2274.48 409.432 L2274.48 367.96 L2113.51 367.96 L2113.51 409.432  Z" fill="#cd5c5c" fill-rule="evenodd" fill-opacity="0.7"/>
<polyline clip-path="url(#clip290)" style="stroke:#000000; stroke-linecap:round; stroke-linejoin:round; stroke-width:4; stroke-opacity:1; fill:none" points="2113.51,409.432 2274.48,409.432 2274.48,367.96 2113.51,367.96 2113.51,409.432 "/>
<path clip-path="url(#clip290)" d="M2323.56 372.551 L2323.56 377.111 Q2320.89 375.838 2318.53 375.213 Q2316.17 374.588 2313.97 374.588 Q2310.15 374.588 2308.07 376.069 Q2306.01 377.551 2306.01 380.282 Q2306.01 382.574 2307.38 383.754 Q2308.76 384.912 2312.61 385.629 L2315.43 386.208 Q2320.66 387.203 2323.14 389.726 Q2325.64 392.226 2325.64 396.439 Q2325.64 401.462 2322.26 404.055 Q2318.9 406.648 2312.4 406.648 Q2309.95 406.648 2307.17 406.092 Q2304.41 405.536 2301.45 404.449 L2301.45 399.634 Q2304.3 401.231 2307.03 402.041 Q2309.76 402.851 2312.4 402.851 Q2316.4 402.851 2318.58 401.277 Q2320.76 399.703 2320.76 396.787 Q2320.76 394.24 2319.18 392.805 Q2317.63 391.37 2314.07 390.652 L2311.22 390.097 Q2305.99 389.055 2303.65 386.833 Q2301.31 384.611 2301.31 380.652 Q2301.31 376.069 2304.53 373.43 Q2307.77 370.791 2313.44 370.791 Q2315.87 370.791 2318.39 371.231 Q2320.92 371.671 2323.56 372.551 Z" fill="#000000" fill-rule="nonzero" fill-opacity="1" /><path clip-path="url(#clip290)" d="M2354.3 390.328 L2354.3 405.976 L2350.04 405.976 L2350.04 390.467 Q2350.04 386.787 2348.6 384.958 Q2347.17 383.129 2344.3 383.129 Q2340.85 383.129 2338.86 385.328 Q2336.87 387.527 2336.87 391.324 L2336.87 405.976 L2332.58 405.976 L2332.58 369.958 L2336.87 369.958 L2336.87 384.078 Q2338.39 381.74 2340.45 380.583 Q2342.54 379.426 2345.25 379.426 Q2349.71 379.426 2352.01 382.203 Q2354.3 384.958 2354.3 390.328 Z" fill="#000000" fill-rule="nonzero" fill-opacity="1" /><path clip-path="url(#clip290)" d="M2377.82 384.032 Q2377.1 383.615 2376.24 383.43 Q2375.41 383.222 2374.39 383.222 Q2370.78 383.222 2368.83 385.583 Q2366.91 387.921 2366.91 392.319 L2366.91 405.976 L2362.63 405.976 L2362.63 380.051 L2366.91 380.051 L2366.91 384.078 Q2368.26 381.717 2370.41 380.583 Q2372.56 379.426 2375.64 379.426 Q2376.08 379.426 2376.61 379.495 Q2377.14 379.541 2377.79 379.657 L2377.82 384.032 Z" fill="#000000" fill-rule="nonzero" fill-opacity="1" /><path clip-path="url(#clip290)" d="M2382.28 380.051 L2386.54 380.051 L2386.54 405.976 L2382.28 405.976 L2382.28 380.051 M2382.28 369.958 L2386.54 369.958 L2386.54 375.351 L2382.28 375.351 L2382.28 369.958 Z" fill="#000000" fill-rule="nonzero" fill-opacity="1" /><path clip-path="url(#clip290)" d="M2417.01 390.328 L2417.01 405.976 L2412.75 405.976 L2412.75 390.467 Q2412.75 386.787 2411.31 384.958 Q2409.88 383.129 2407.01 383.129 Q2403.56 383.129 2401.57 385.328 Q2399.57 387.527 2399.57 391.324 L2399.57 405.976 L2395.29 405.976 L2395.29 380.051 L2399.57 380.051 L2399.57 384.078 Q2401.1 381.74 2403.16 380.583 Q2405.25 379.426 2407.95 379.426 Q2412.42 379.426 2414.71 382.203 Q2417.01 384.958 2417.01 390.328 Z" fill="#000000" fill-rule="nonzero" fill-opacity="1" /><path clip-path="url(#clip290)" d="M2425.34 369.958 L2429.62 369.958 L2429.62 391.231 L2442.33 380.051 L2447.77 380.051 L2434.02 392.18 L2448.35 405.976 L2442.79 405.976 L2429.62 393.314 L2429.62 405.976 L2425.34 405.976 L2425.34 369.958 Z" fill="#000000" fill-rule="nonzero" fill-opacity="1" /><path clip-path="url(#clip290)" d="M2463.9 392.944 Q2458.74 392.944 2456.75 394.124 Q2454.76 395.305 2454.76 398.152 Q2454.76 400.421 2456.24 401.763 Q2457.75 403.083 2460.32 403.083 Q2463.86 403.083 2465.99 400.583 Q2468.14 398.06 2468.14 393.893 L2468.14 392.944 L2463.9 392.944 M2472.4 391.185 L2472.4 405.976 L2468.14 405.976 L2468.14 402.041 Q2466.68 404.402 2464.5 405.536 Q2462.33 406.648 2459.18 406.648 Q2455.2 406.648 2452.84 404.425 Q2450.5 402.18 2450.5 398.43 Q2450.5 394.055 2453.42 391.833 Q2456.36 389.611 2462.17 389.611 L2468.14 389.611 L2468.14 389.194 Q2468.14 386.254 2466.19 384.657 Q2464.27 383.037 2460.78 383.037 Q2458.56 383.037 2456.45 383.569 Q2454.34 384.101 2452.4 385.166 L2452.4 381.231 Q2454.74 380.328 2456.94 379.888 Q2459.13 379.426 2461.22 379.426 Q2466.84 379.426 2469.62 382.342 Q2472.4 385.259 2472.4 391.185 Z" fill="#000000" fill-rule="nonzero" fill-opacity="1" /><path clip-path="url(#clip290)" d="M2498.23 392.712 Q2498.23 388.083 2496.31 385.537 Q2494.41 382.99 2490.96 382.99 Q2487.54 382.99 2485.62 385.537 Q2483.72 388.083 2483.72 392.712 Q2483.72 397.319 2485.62 399.865 Q2487.54 402.411 2490.96 402.411 Q2494.41 402.411 2496.31 399.865 Q2498.23 397.319 2498.23 392.712 M2502.49 402.759 Q2502.49 409.379 2499.55 412.597 Q2496.61 415.837 2490.55 415.837 Q2488.3 415.837 2486.31 415.49 Q2484.32 415.166 2482.44 414.472 L2482.44 410.328 Q2484.32 411.347 2486.15 411.833 Q2487.98 412.319 2489.88 412.319 Q2494.06 412.319 2496.15 410.12 Q2498.23 407.944 2498.23 403.523 L2498.23 401.416 Q2496.91 403.708 2494.85 404.842 Q2492.79 405.976 2489.92 405.976 Q2485.15 405.976 2482.24 402.342 Q2479.32 398.708 2479.32 392.712 Q2479.32 386.694 2482.24 383.06 Q2485.15 379.426 2489.92 379.426 Q2492.79 379.426 2494.85 380.56 Q2496.91 381.694 2498.23 383.986 L2498.23 380.051 L2502.49 380.051 L2502.49 402.759 Z" fill="#000000" fill-rule="nonzero" fill-opacity="1" /><path clip-path="url(#clip290)" d="M2533.44 391.949 L2533.44 394.032 L2513.86 394.032 Q2514.13 398.43 2516.5 400.745 Q2518.88 403.036 2523.12 403.036 Q2525.57 403.036 2527.86 402.435 Q2530.18 401.833 2532.44 400.629 L2532.44 404.657 Q2530.15 405.629 2527.75 406.138 Q2525.34 406.648 2522.86 406.648 Q2516.66 406.648 2513.02 403.036 Q2509.41 399.425 2509.41 393.268 Q2509.41 386.902 2512.84 383.175 Q2516.29 379.426 2522.12 379.426 Q2527.35 379.426 2530.38 382.805 Q2533.44 386.162 2533.44 391.949 M2529.18 390.699 Q2529.13 387.203 2527.21 385.12 Q2525.31 383.037 2522.17 383.037 Q2518.6 383.037 2516.45 385.05 Q2514.32 387.064 2514 390.722 L2529.18 390.699 Z" fill="#000000" fill-rule="nonzero" fill-opacity="1" /></svg>
