<?xml version="1.0" encoding="utf-8"?>
<svg xmlns="http://www.w3.org/2000/svg" xmlns:xlink="http://www.w3.org/1999/xlink" width="672" height="480" viewBox="0 0 2688 1920">
<defs>
  <clipPath id="clip230">
    <rect x="0" y="0" width="2688" height="1920"/>
  </clipPath>
</defs>
<path clip-path="url(#clip230)" d="M0 1920 L2688 1920 L2688 -4.26326e-14 L0 -4.26326e-14  Z" fill="#ffffff" fill-rule="evenodd" fill-opacity="1"/>
<defs>
  <clipPath id="clip231">
    <rect x="226" y="127" width="2416" height="1674"/>
  </clipPath>
</defs>
<path clip-path="url(#clip230)" d="M226.141 1800.78 L2640.76 1800.78 L2640.76 127.792 L226.141 127.792  Z" fill="#ffffff" fill-rule="evenodd" fill-opacity="1"/>
<polyline clip-path="url(#clip231)" style="stroke:#000000; stroke-linecap:round; stroke-linejoin:round; stroke-width:2; stroke-opacity:0.1; fill:none" points="538.032,1800.78 538.032,127.792 "/>
<polyline clip-path="url(#clip231)" style="stroke:#000000; stroke-linecap:round; stroke-linejoin:round; stroke-width:2; stroke-opacity:0.1; fill:none" points="985.74,1800.78 985.74,127.792 "/>
<polyline clip-path="url(#clip231)" style="stroke:#000000; stroke-linecap:round; stroke-linejoin:round; stroke-width:2; stroke-opacity:0.1; fill:none" points="1433.45,1800.78 1433.45,127.792 "/>
<polyline clip-path="url(#clip231)" style="stroke:#000000; stroke-linecap:round; stroke-linejoin:round; stroke-width:2; stroke-opacity:0.1; fill:none" points="1881.16,1800.78 1881.16,127.792 "/>
<polyline clip-path="url(#clip231)" style="stroke:#000000; stroke-linecap:round; stroke-linejoin:round; stroke-width:2; stroke-opacity:0.1; fill:none" points="2328.86,1800.78 2328.86,127.792 "/>
<polyline clip-path="url(#clip231)" style="stroke:#000000; stroke-linecap:round; stroke-linejoin:round; stroke-width:2; stroke-opacity:0.1; fill:none" points="226.141,1800.78 2640.76,1800.78 "/>
<polyline clip-path="url(#clip231)" style="stroke:#000000; stroke-linecap:round; stroke-linejoin:round; stroke-width:2; stroke-opacity:0.1; fill:none" points="226.141,1466.18 2640.76,1466.18 "/>
<polyline clip-path="url(#clip231)" style="stroke:#000000; stroke-linecap:round; stroke-linejoin:round; stroke-width:2; stroke-opacity:0.1; fill:none" points="226.141,1131.58 2640.76,1131.58 "/>
<polyline clip-path="url(#clip231)" style="stroke:#000000; stroke-linecap:round; stroke-linejoin:round; stroke-width:2; stroke-opacity:0.1; fill:none" points="226.141,796.987 2640.76,796.987 "/>
<polyline clip-path="url(#clip231)" style="stroke:#000000; stroke-linecap:round; stroke-linejoin:round; stroke-width:2; stroke-opacity:0.1; fill:none" points="226.141,462.39 2640.76,462.39 "/>
<polyline clip-path="url(#clip231)" style="stroke:#000000; stroke-linecap:round; stroke-linejoin:round; stroke-width:2; stroke-opacity:0.1; fill:none" points="226.141,127.792 2640.76,127.792 "/>
<polyline clip-path="url(#clip230)" style="stroke:#000000; stroke-linecap:round; stroke-linejoin:round; stroke-width:4; stroke-opacity:1; fill:none" points="226.141,1800.78 2640.76,1800.78 "/>
<polyline clip-path="url(#clip230)" style="stroke:#000000; stroke-linecap:round; stroke-linejoin:round; stroke-width:4; stroke-opacity:1; fill:none" points="538.032,1800.78 538.032,1781.88 "/>
<polyline clip-path="url(#clip230)" style="stroke:#000000; stroke-linecap:round; stroke-linejoin:round; stroke-width:4; stroke-opacity:1; fill:none" points="985.74,1800.78 985.74,1781.88 "/>
<polyline clip-path="url(#clip230)" style="stroke:#000000; stroke-linecap:round; stroke-linejoin:round; stroke-width:4; stroke-opacity:1; fill:none" points="1433.45,1800.78 1433.45,1781.88 "/>
<polyline clip-path="url(#clip230)" style="stroke:#000000; stroke-linecap:round; stroke-linejoin:round; stroke-width:4; stroke-opacity:1; fill:none" points="1881.16,1800.78 1881.16,1781.88 "/>
<polyline clip-path="url(#clip230)" style="stroke:#000000; stroke-linecap:round; stroke-linejoin:round; stroke-width:4; stroke-opacity:1; fill:none" points="2328.86,1800.78 2328.86,1781.88 "/>
<path clip-path="url(#clip230)" d="M431.077 1840.32 L431.077 1844.35 Q429.271 1843.42 427.327 1842.96 Q425.382 1842.5 423.299 1842.5 Q420.127 1842.5 418.53 1843.47 Q416.956 1844.44 416.956 1846.39 Q416.956 1847.87 418.09 1848.72 Q419.225 1849.56 422.651 1850.32 L424.109 1850.65 Q428.646 1851.62 430.544 1853.4 Q432.465 1855.16 432.465 1858.33 Q432.465 1861.94 429.595 1864.05 Q426.748 1866.15 421.748 1866.15 Q419.665 1866.15 417.396 1865.74 Q415.151 1865.34 412.651 1864.53 L412.651 1860.14 Q415.012 1861.36 417.303 1861.99 Q419.595 1862.59 421.84 1862.59 Q424.85 1862.59 426.47 1861.57 Q428.09 1860.53 428.09 1858.65 Q428.09 1856.92 426.91 1855.99 Q425.752 1855.07 421.794 1854.21 L420.313 1853.86 Q416.354 1853.03 414.595 1851.32 Q412.836 1849.58 412.836 1846.57 Q412.836 1842.91 415.428 1840.92 Q418.021 1838.93 422.79 1838.93 Q425.151 1838.93 427.234 1839.28 Q429.317 1839.63 431.077 1840.32 Z" fill="#000000" fill-rule="nonzero" fill-opacity="1" /><path clip-path="url(#clip230)" d="M461.424 1851.46 L461.424 1853.54 L441.84 1853.54 Q442.118 1857.94 444.479 1860.25 Q446.863 1862.54 451.1 1862.54 Q453.553 1862.54 455.845 1861.94 Q458.16 1861.34 460.428 1860.14 L460.428 1864.16 Q458.137 1865.14 455.729 1865.65 Q453.322 1866.15 450.845 1866.15 Q444.641 1866.15 441.007 1862.54 Q437.396 1858.93 437.396 1852.78 Q437.396 1846.41 440.822 1842.68 Q444.271 1838.93 450.104 1838.93 Q455.336 1838.93 458.368 1842.31 Q461.424 1845.67 461.424 1851.46 M457.164 1850.21 Q457.118 1846.71 455.197 1844.63 Q453.299 1842.54 450.15 1842.54 Q446.586 1842.54 444.433 1844.56 Q442.303 1846.57 441.979 1850.23 L457.164 1850.21 Z" fill="#000000" fill-rule="nonzero" fill-opacity="1" /><path clip-path="url(#clip230)" d="M490.59 1851.46 L490.59 1853.54 L471.007 1853.54 Q471.285 1857.94 473.646 1860.25 Q476.03 1862.54 480.266 1862.54 Q482.72 1862.54 485.011 1861.94 Q487.326 1861.34 489.595 1860.14 L489.595 1864.16 Q487.303 1865.14 484.896 1865.65 Q482.488 1866.15 480.011 1866.15 Q473.808 1866.15 470.174 1862.54 Q466.562 1858.93 466.562 1852.78 Q466.562 1846.41 469.988 1842.68 Q473.437 1838.93 479.271 1838.93 Q484.502 1838.93 487.535 1842.31 Q490.59 1845.67 490.59 1851.46 M486.331 1850.21 Q486.285 1846.71 484.363 1844.63 Q482.465 1842.54 479.317 1842.54 Q475.752 1842.54 473.599 1844.56 Q471.47 1846.57 471.146 1850.23 L486.331 1850.21 Z" fill="#000000" fill-rule="nonzero" fill-opacity="1" /><path clip-path="url(#clip230)" d="M514.641 1843.49 L514.641 1829.46 L518.9 1829.46 L518.9 1865.48 L514.641 1865.48 L514.641 1861.59 Q513.298 1863.91 511.238 1865.04 Q509.201 1866.15 506.331 1866.15 Q501.632 1866.15 498.669 1862.4 Q495.729 1858.65 495.729 1852.54 Q495.729 1846.43 498.669 1842.68 Q501.632 1838.93 506.331 1838.93 Q509.201 1838.93 511.238 1840.07 Q513.298 1841.18 514.641 1843.49 M500.127 1852.54 Q500.127 1857.24 502.048 1859.93 Q503.993 1862.59 507.372 1862.59 Q510.752 1862.59 512.696 1859.93 Q514.641 1857.24 514.641 1852.54 Q514.641 1847.84 512.696 1845.18 Q510.752 1842.5 507.372 1842.5 Q503.993 1842.5 502.048 1845.18 Q500.127 1847.84 500.127 1852.54 Z" fill="#000000" fill-rule="nonzero" fill-opacity="1" /><path clip-path="url(#clip230)" d="M547.372 1873.35 L547.372 1876.66 L522.743 1876.66 L522.743 1873.35 L547.372 1873.35 Z" fill="#000000" fill-rule="nonzero" fill-opacity="1" /><path clip-path="url(#clip230)" d="M569.988 1852.54 Q569.988 1847.84 568.043 1845.18 Q566.122 1842.5 562.742 1842.5 Q559.363 1842.5 557.418 1845.18 Q555.497 1847.84 555.497 1852.54 Q555.497 1857.24 557.418 1859.93 Q559.363 1862.59 562.742 1862.59 Q566.122 1862.59 568.043 1859.93 Q569.988 1857.24 569.988 1852.54 M555.497 1843.49 Q556.84 1841.18 558.877 1840.07 Q560.937 1838.93 563.784 1838.93 Q568.506 1838.93 571.446 1842.68 Q574.409 1846.43 574.409 1852.54 Q574.409 1858.65 571.446 1862.4 Q568.506 1866.15 563.784 1866.15 Q560.937 1866.15 558.877 1865.04 Q556.84 1863.91 555.497 1861.59 L555.497 1865.48 L551.215 1865.48 L551.215 1829.46 L555.497 1829.46 L555.497 1843.49 Z" fill="#000000" fill-rule="nonzero" fill-opacity="1" /><path clip-path="url(#clip230)" d="M593.252 1852.45 Q588.09 1852.45 586.099 1853.63 Q584.108 1854.81 584.108 1857.66 Q584.108 1859.93 585.59 1861.27 Q587.094 1862.59 589.664 1862.59 Q593.205 1862.59 595.335 1860.09 Q597.488 1857.57 597.488 1853.4 L597.488 1852.45 L593.252 1852.45 M601.747 1850.69 L601.747 1865.48 L597.488 1865.48 L597.488 1861.55 Q596.029 1863.91 593.853 1865.04 Q591.677 1866.15 588.529 1866.15 Q584.548 1866.15 582.187 1863.93 Q579.849 1861.69 579.849 1857.94 Q579.849 1853.56 582.766 1851.34 Q585.705 1849.12 591.515 1849.12 L597.488 1849.12 L597.488 1848.7 Q597.488 1845.76 595.543 1844.16 Q593.622 1842.54 590.127 1842.54 Q587.904 1842.54 585.798 1843.08 Q583.691 1843.61 581.747 1844.67 L581.747 1840.74 Q584.085 1839.84 586.284 1839.4 Q588.483 1838.93 590.566 1838.93 Q596.191 1838.93 598.969 1841.85 Q601.747 1844.77 601.747 1850.69 Z" fill="#000000" fill-rule="nonzero" fill-opacity="1" /><path clip-path="url(#clip230)" d="M632.071 1849.84 L632.071 1865.48 L627.812 1865.48 L627.812 1849.97 Q627.812 1846.29 626.376 1844.46 Q624.941 1842.64 622.071 1842.64 Q618.622 1842.64 616.631 1844.84 Q614.64 1847.03 614.64 1850.83 L614.64 1865.48 L610.358 1865.48 L610.358 1839.56 L614.64 1839.56 L614.64 1843.59 Q616.168 1841.25 618.228 1840.09 Q620.312 1838.93 623.02 1838.93 Q627.487 1838.93 629.779 1841.71 Q632.071 1844.46 632.071 1849.84 Z" fill="#000000" fill-rule="nonzero" fill-opacity="1" /><path clip-path="url(#clip230)" d="M640.404 1829.46 L644.686 1829.46 L644.686 1850.74 L657.395 1839.56 L662.835 1839.56 L649.085 1851.69 L663.413 1865.48 L657.858 1865.48 L644.686 1852.82 L644.686 1865.48 L640.404 1865.48 L640.404 1829.46 Z" fill="#000000" fill-rule="nonzero" fill-opacity="1" /><path clip-path="url(#clip230)" d="M907.801 1840.32 L907.801 1844.35 Q905.995 1843.42 904.051 1842.96 Q902.106 1842.5 900.023 1842.5 Q896.852 1842.5 895.254 1843.47 Q893.68 1844.44 893.68 1846.39 Q893.68 1847.87 894.815 1848.72 Q895.949 1849.56 899.375 1850.32 L900.833 1850.65 Q905.37 1851.62 907.268 1853.4 Q909.19 1855.16 909.19 1858.33 Q909.19 1861.94 906.319 1864.05 Q903.472 1866.15 898.472 1866.15 Q896.389 1866.15 894.12 1865.74 Q891.875 1865.34 889.375 1864.53 L889.375 1860.14 Q891.736 1861.36 894.028 1861.99 Q896.319 1862.59 898.565 1862.59 Q901.574 1862.59 903.194 1861.57 Q904.815 1860.53 904.815 1858.65 Q904.815 1856.92 903.634 1855.99 Q902.477 1855.07 898.518 1854.21 L897.037 1853.86 Q893.079 1853.03 891.319 1851.32 Q889.56 1849.58 889.56 1846.57 Q889.56 1842.91 892.153 1840.92 Q894.745 1838.93 899.514 1838.93 Q901.875 1838.93 903.958 1839.28 Q906.041 1839.63 907.801 1840.32 Z" fill="#000000" fill-rule="nonzero" fill-opacity="1" /><path clip-path="url(#clip230)" d="M938.148 1851.46 L938.148 1853.54 L918.565 1853.54 Q918.842 1857.94 921.203 1860.25 Q923.588 1862.54 927.824 1862.54 Q930.277 1862.54 932.569 1861.94 Q934.884 1861.34 937.152 1860.14 L937.152 1864.16 Q934.861 1865.14 932.453 1865.65 Q930.046 1866.15 927.569 1866.15 Q921.365 1866.15 917.731 1862.54 Q914.12 1858.93 914.12 1852.78 Q914.12 1846.41 917.546 1842.68 Q920.995 1838.93 926.828 1838.93 Q932.06 1838.93 935.092 1842.31 Q938.148 1845.67 938.148 1851.46 M933.889 1850.21 Q933.842 1846.71 931.921 1844.63 Q930.023 1842.54 926.875 1842.54 Q923.31 1842.54 921.157 1844.56 Q919.027 1846.57 918.703 1850.23 L933.889 1850.21 Z" fill="#000000" fill-rule="nonzero" fill-opacity="1" /><path clip-path="url(#clip230)" d="M967.314 1851.46 L967.314 1853.54 L947.731 1853.54 Q948.009 1857.94 950.37 1860.25 Q952.754 1862.54 956.99 1862.54 Q959.444 1862.54 961.736 1861.94 Q964.05 1861.34 966.319 1860.14 L966.319 1864.16 Q964.027 1865.14 961.62 1865.65 Q959.212 1866.15 956.736 1866.15 Q950.532 1866.15 946.898 1862.54 Q943.287 1858.93 943.287 1852.78 Q943.287 1846.41 946.713 1842.68 Q950.162 1838.93 955.995 1838.93 Q961.226 1838.93 964.259 1842.31 Q967.314 1845.67 967.314 1851.46 M963.055 1850.21 Q963.009 1846.71 961.087 1844.63 Q959.189 1842.54 956.041 1842.54 Q952.476 1842.54 950.324 1844.56 Q948.194 1846.57 947.87 1850.23 L963.055 1850.21 Z" fill="#000000" fill-rule="nonzero" fill-opacity="1" /><path clip-path="url(#clip230)" d="M991.365 1843.49 L991.365 1829.46 L995.624 1829.46 L995.624 1865.48 L991.365 1865.48 L991.365 1861.59 Q990.022 1863.91 987.962 1865.04 Q985.925 1866.15 983.055 1866.15 Q978.356 1866.15 975.393 1862.4 Q972.453 1858.65 972.453 1852.54 Q972.453 1846.43 975.393 1842.68 Q978.356 1838.93 983.055 1838.93 Q985.925 1838.93 987.962 1840.07 Q990.022 1841.18 991.365 1843.49 M976.851 1852.54 Q976.851 1857.24 978.773 1859.93 Q980.717 1862.59 984.097 1862.59 Q987.476 1862.59 989.421 1859.93 Q991.365 1857.24 991.365 1852.54 Q991.365 1847.84 989.421 1845.18 Q987.476 1842.5 984.097 1842.5 Q980.717 1842.5 978.773 1845.18 Q976.851 1847.84 976.851 1852.54 Z" fill="#000000" fill-rule="nonzero" fill-opacity="1" /><path clip-path="url(#clip230)" d="M1004.4 1829.46 L1008.66 1829.46 L1008.66 1865.48 L1004.4 1865.48 L1004.4 1829.46 Z" fill="#000000" fill-rule="nonzero" fill-opacity="1" /><path clip-path="url(#clip230)" d="M1017.57 1839.56 L1021.83 1839.56 L1021.83 1865.48 L1017.57 1865.48 L1017.57 1839.56 M1017.57 1829.46 L1021.83 1829.46 L1021.83 1834.86 L1017.57 1834.86 L1017.57 1829.46 Z" fill="#000000" fill-rule="nonzero" fill-opacity="1" /><path clip-path="url(#clip230)" d="M1052.29 1849.84 L1052.29 1865.48 L1048.03 1865.48 L1048.03 1849.97 Q1048.03 1846.29 1046.6 1844.46 Q1045.16 1842.64 1042.29 1842.64 Q1038.84 1842.64 1036.85 1844.84 Q1034.86 1847.03 1034.86 1850.83 L1034.86 1865.48 L1030.58 1865.48 L1030.58 1839.56 L1034.86 1839.56 L1034.86 1843.59 Q1036.39 1841.25 1038.45 1840.09 Q1040.53 1838.93 1043.24 1838.93 Q1047.71 1838.93 1050 1841.71 Q1052.29 1844.46 1052.29 1849.84 Z" fill="#000000" fill-rule="nonzero" fill-opacity="1" /><path clip-path="url(#clip230)" d="M1077.85 1852.22 Q1077.85 1847.59 1075.92 1845.04 Q1074.03 1842.5 1070.58 1842.5 Q1067.15 1842.5 1065.23 1845.04 Q1063.33 1847.59 1063.33 1852.22 Q1063.33 1856.83 1065.23 1859.37 Q1067.15 1861.92 1070.58 1861.92 Q1074.03 1861.92 1075.92 1859.37 Q1077.85 1856.83 1077.85 1852.22 M1082.11 1862.27 Q1082.11 1868.89 1079.17 1872.1 Q1076.23 1875.34 1070.16 1875.34 Q1067.92 1875.34 1065.92 1875 Q1063.93 1874.67 1062.06 1873.98 L1062.06 1869.84 Q1063.93 1870.85 1065.76 1871.34 Q1067.59 1871.83 1069.49 1871.83 Q1073.68 1871.83 1075.76 1869.63 Q1077.85 1867.45 1077.85 1863.03 L1077.85 1860.92 Q1076.53 1863.21 1074.47 1864.35 Q1072.41 1865.48 1069.54 1865.48 Q1064.77 1865.48 1061.85 1861.85 Q1058.93 1858.21 1058.93 1852.22 Q1058.93 1846.2 1061.85 1842.57 Q1064.77 1838.93 1069.54 1838.93 Q1072.41 1838.93 1074.47 1840.07 Q1076.53 1841.2 1077.85 1843.49 L1077.85 1839.56 L1082.11 1839.56 L1082.11 1862.27 Z" fill="#000000" fill-rule="nonzero" fill-opacity="1" /><path clip-path="url(#clip230)" d="M1392.24 1840.32 L1392.24 1844.35 Q1390.44 1843.42 1388.49 1842.96 Q1386.55 1842.5 1384.47 1842.5 Q1381.3 1842.5 1379.7 1843.47 Q1378.12 1844.44 1378.12 1846.39 Q1378.12 1847.87 1379.26 1848.72 Q1380.39 1849.56 1383.82 1850.32 L1385.28 1850.65 Q1389.81 1851.62 1391.71 1853.4 Q1393.63 1855.16 1393.63 1858.33 Q1393.63 1861.94 1390.76 1864.05 Q1387.92 1866.15 1382.92 1866.15 Q1380.83 1866.15 1378.56 1865.74 Q1376.32 1865.34 1373.82 1864.53 L1373.82 1860.14 Q1376.18 1861.36 1378.47 1861.99 Q1380.76 1862.59 1383.01 1862.59 Q1386.02 1862.59 1387.64 1861.57 Q1389.26 1860.53 1389.26 1858.65 Q1389.26 1856.92 1388.08 1855.99 Q1386.92 1855.07 1382.96 1854.21 L1381.48 1853.86 Q1377.52 1853.03 1375.76 1851.32 Q1374 1849.58 1374 1846.57 Q1374 1842.91 1376.6 1840.92 Q1379.19 1838.93 1383.96 1838.93 Q1386.32 1838.93 1388.4 1839.28 Q1390.49 1839.63 1392.24 1840.32 Z" fill="#000000" fill-rule="nonzero" fill-opacity="1" /><path clip-path="url(#clip230)" d="M1420.6 1844.53 Q1422.2 1841.66 1424.42 1840.3 Q1426.64 1838.93 1429.65 1838.93 Q1433.7 1838.93 1435.9 1841.78 Q1438.1 1844.6 1438.1 1849.84 L1438.1 1865.48 L1433.82 1865.48 L1433.82 1849.97 Q1433.82 1846.25 1432.5 1844.44 Q1431.18 1842.64 1428.47 1842.64 Q1425.16 1842.64 1423.24 1844.84 Q1421.32 1847.03 1421.32 1850.83 L1421.32 1865.48 L1417.04 1865.48 L1417.04 1849.97 Q1417.04 1846.22 1415.72 1844.44 Q1414.4 1842.64 1411.64 1842.64 Q1408.38 1842.64 1406.46 1844.86 Q1404.54 1847.06 1404.54 1850.83 L1404.54 1865.48 L1400.25 1865.48 L1400.25 1839.56 L1404.54 1839.56 L1404.54 1843.59 Q1405.99 1841.2 1408.03 1840.07 Q1410.07 1838.93 1412.87 1838.93 Q1415.69 1838.93 1417.66 1840.37 Q1419.65 1841.8 1420.6 1844.53 Z" fill="#000000" fill-rule="nonzero" fill-opacity="1" /><path clip-path="url(#clip230)" d="M1458.38 1852.45 Q1453.22 1852.45 1451.23 1853.63 Q1449.24 1854.81 1449.24 1857.66 Q1449.24 1859.93 1450.72 1861.27 Q1452.22 1862.59 1454.79 1862.59 Q1458.33 1862.59 1460.46 1860.09 Q1462.61 1857.57 1462.61 1853.4 L1462.61 1852.45 L1458.38 1852.45 M1466.87 1850.69 L1466.87 1865.48 L1462.61 1865.48 L1462.61 1861.55 Q1461.16 1863.91 1458.98 1865.04 Q1456.8 1866.15 1453.66 1866.15 Q1449.67 1866.15 1447.31 1863.93 Q1444.98 1861.69 1444.98 1857.94 Q1444.98 1853.56 1447.89 1851.34 Q1450.83 1849.12 1456.64 1849.12 L1462.61 1849.12 L1462.61 1848.7 Q1462.61 1845.76 1460.67 1844.16 Q1458.75 1842.54 1455.25 1842.54 Q1453.03 1842.54 1450.92 1843.08 Q1448.82 1843.61 1446.87 1844.67 L1446.87 1840.74 Q1449.21 1839.84 1451.41 1839.4 Q1453.61 1838.93 1455.69 1838.93 Q1461.32 1838.93 1464.1 1841.85 Q1466.87 1844.77 1466.87 1850.69 Z" fill="#000000" fill-rule="nonzero" fill-opacity="1" /><path clip-path="url(#clip230)" d="M1475.65 1829.46 L1479.91 1829.46 L1479.91 1865.48 L1475.65 1865.48 L1475.65 1829.46 Z" fill="#000000" fill-rule="nonzero" fill-opacity="1" /><path clip-path="url(#clip230)" d="M1488.82 1829.46 L1493.08 1829.46 L1493.08 1865.48 L1488.82 1865.48 L1488.82 1829.46 Z" fill="#000000" fill-rule="nonzero" fill-opacity="1" /><path clip-path="url(#clip230)" d="M1824.58 1829.46 L1828.84 1829.46 L1828.84 1865.48 L1824.58 1865.48 L1824.58 1829.46 Z" fill="#000000" fill-rule="nonzero" fill-opacity="1" /><path clip-path="url(#clip230)" d="M1849.54 1852.45 Q1844.37 1852.45 1842.38 1853.63 Q1840.39 1854.81 1840.39 1857.66 Q1840.39 1859.93 1841.87 1861.27 Q1843.38 1862.59 1845.95 1862.59 Q1849.49 1862.59 1851.62 1860.09 Q1853.77 1857.57 1853.77 1853.4 L1853.77 1852.45 L1849.54 1852.45 M1858.03 1850.69 L1858.03 1865.48 L1853.77 1865.48 L1853.77 1861.55 Q1852.31 1863.91 1850.14 1865.04 Q1847.96 1866.15 1844.81 1866.15 Q1840.83 1866.15 1838.47 1863.93 Q1836.13 1861.69 1836.13 1857.94 Q1836.13 1853.56 1839.05 1851.34 Q1841.99 1849.12 1847.8 1849.12 L1853.77 1849.12 L1853.77 1848.7 Q1853.77 1845.76 1851.83 1844.16 Q1849.91 1842.54 1846.41 1842.54 Q1844.19 1842.54 1842.08 1843.08 Q1839.98 1843.61 1838.03 1844.67 L1838.03 1840.74 Q1840.37 1839.84 1842.57 1839.4 Q1844.77 1838.93 1846.85 1838.93 Q1852.48 1838.93 1855.25 1841.85 Q1858.03 1844.77 1858.03 1850.69 Z" fill="#000000" fill-rule="nonzero" fill-opacity="1" /><path clip-path="url(#clip230)" d="M1881.83 1843.54 Q1881.11 1843.12 1880.25 1842.94 Q1879.42 1842.73 1878.4 1842.73 Q1874.79 1842.73 1872.85 1845.09 Q1870.92 1847.43 1870.92 1851.83 L1870.92 1865.48 L1866.64 1865.48 L1866.64 1839.56 L1870.92 1839.56 L1870.92 1843.59 Q1872.27 1841.22 1874.42 1840.09 Q1876.57 1838.93 1879.65 1838.93 Q1880.09 1838.93 1880.62 1839 Q1881.16 1839.05 1881.8 1839.16 L1881.83 1843.54 Z" fill="#000000" fill-rule="nonzero" fill-opacity="1" /><path clip-path="url(#clip230)" d="M1902.52 1852.22 Q1902.52 1847.59 1900.6 1845.04 Q1898.7 1842.5 1895.25 1842.5 Q1891.83 1842.5 1889.91 1845.04 Q1888.01 1847.59 1888.01 1852.22 Q1888.01 1856.83 1889.91 1859.37 Q1891.83 1861.92 1895.25 1861.92 Q1898.7 1861.92 1900.6 1859.37 Q1902.52 1856.83 1902.52 1852.22 M1906.78 1862.27 Q1906.78 1868.89 1903.84 1872.1 Q1900.9 1875.34 1894.84 1875.34 Q1892.59 1875.34 1890.6 1875 Q1888.61 1874.67 1886.74 1873.98 L1886.74 1869.84 Q1888.61 1870.85 1890.44 1871.34 Q1892.27 1871.83 1894.17 1871.83 Q1898.36 1871.83 1900.44 1869.63 Q1902.52 1867.45 1902.52 1863.03 L1902.52 1860.92 Q1901.2 1863.21 1899.14 1864.35 Q1897.08 1865.48 1894.21 1865.48 Q1889.44 1865.48 1886.53 1861.85 Q1883.61 1858.21 1883.61 1852.22 Q1883.61 1846.2 1886.53 1842.57 Q1889.44 1838.93 1894.21 1838.93 Q1897.08 1838.93 1899.14 1840.07 Q1901.2 1841.2 1902.52 1843.49 L1902.52 1839.56 L1906.78 1839.56 L1906.78 1862.27 Z" fill="#000000" fill-rule="nonzero" fill-opacity="1" /><path clip-path="url(#clip230)" d="M1937.73 1851.46 L1937.73 1853.54 L1918.15 1853.54 Q1918.42 1857.94 1920.79 1860.25 Q1923.17 1862.54 1927.41 1862.54 Q1929.86 1862.54 1932.15 1861.94 Q1934.47 1861.34 1936.73 1860.14 L1936.73 1864.16 Q1934.44 1865.14 1932.04 1865.65 Q1929.63 1866.15 1927.15 1866.15 Q1920.95 1866.15 1917.31 1862.54 Q1913.7 1858.93 1913.7 1852.78 Q1913.7 1846.41 1917.13 1842.68 Q1920.58 1838.93 1926.41 1838.93 Q1931.64 1838.93 1934.67 1842.31 Q1937.73 1845.67 1937.73 1851.46 M1933.47 1850.21 Q1933.42 1846.71 1931.5 1844.63 Q1929.61 1842.54 1926.46 1842.54 Q1922.89 1842.54 1920.74 1844.56 Q1918.61 1846.57 1918.29 1850.23 L1933.47 1850.21 Z" fill="#000000" fill-rule="nonzero" fill-opacity="1" /><path clip-path="url(#clip230)" d="M2238.26 1829.46 L2238.26 1833.01 L2234.19 1833.01 Q2231.9 1833.01 2230.99 1833.93 Q2230.12 1834.86 2230.12 1837.27 L2230.12 1839.56 L2237.13 1839.56 L2237.13 1842.87 L2230.12 1842.87 L2230.12 1865.48 L2225.83 1865.48 L2225.83 1842.87 L2221.76 1842.87 L2221.76 1839.56 L2225.83 1839.56 L2225.83 1837.75 Q2225.83 1833.42 2227.85 1831.46 Q2229.86 1829.46 2234.24 1829.46 L2238.26 1829.46 Z" fill="#000000" fill-rule="nonzero" fill-opacity="1" /><path clip-path="url(#clip230)" d="M2241.83 1829.46 L2246.09 1829.46 L2246.09 1865.48 L2241.83 1865.48 L2241.83 1829.46 Z" fill="#000000" fill-rule="nonzero" fill-opacity="1" /><path clip-path="url(#clip230)" d="M2265.05 1842.54 Q2261.62 1842.54 2259.63 1845.23 Q2257.64 1847.89 2257.64 1852.54 Q2257.64 1857.2 2259.61 1859.88 Q2261.6 1862.54 2265.05 1862.54 Q2268.45 1862.54 2270.44 1859.86 Q2272.43 1857.17 2272.43 1852.54 Q2272.43 1847.94 2270.44 1845.25 Q2268.45 1842.54 2265.05 1842.54 M2265.05 1838.93 Q2270.6 1838.93 2273.77 1842.54 Q2276.94 1846.15 2276.94 1852.54 Q2276.94 1858.91 2273.77 1862.54 Q2270.6 1866.15 2265.05 1866.15 Q2259.47 1866.15 2256.3 1862.54 Q2253.15 1858.91 2253.15 1852.54 Q2253.15 1846.15 2256.3 1842.54 Q2259.47 1838.93 2265.05 1838.93 Z" fill="#000000" fill-rule="nonzero" fill-opacity="1" /><path clip-path="url(#clip230)" d="M2281.53 1839.56 L2285.79 1839.56 L2291.11 1859.79 L2296.41 1839.56 L2301.43 1839.56 L2306.76 1859.79 L2312.06 1839.56 L2316.32 1839.56 L2309.54 1865.48 L2304.51 1865.48 L2298.93 1844.23 L2293.33 1865.48 L2288.31 1865.48 L2281.53 1839.56 Z" fill="#000000" fill-rule="nonzero" fill-opacity="1" /><path clip-path="url(#clip230)" d="M2344.95 1851.46 L2344.95 1853.54 L2325.37 1853.54 Q2325.65 1857.94 2328.01 1860.25 Q2330.39 1862.54 2334.63 1862.54 Q2337.08 1862.54 2339.37 1861.94 Q2341.69 1861.34 2343.96 1860.14 L2343.96 1864.16 Q2341.67 1865.14 2339.26 1865.65 Q2336.85 1866.15 2334.37 1866.15 Q2328.17 1866.15 2324.54 1862.54 Q2320.92 1858.93 2320.92 1852.78 Q2320.92 1846.41 2324.35 1842.68 Q2327.8 1838.93 2333.63 1838.93 Q2338.86 1838.93 2341.9 1842.31 Q2344.95 1845.67 2344.95 1851.46 M2340.69 1850.21 Q2340.65 1846.71 2338.73 1844.63 Q2336.83 1842.54 2333.68 1842.54 Q2330.11 1842.54 2327.96 1844.56 Q2325.83 1846.57 2325.51 1850.23 L2340.69 1850.21 Z" fill="#000000" fill-rule="nonzero" fill-opacity="1" /><path clip-path="url(#clip230)" d="M2366.97 1843.54 Q2366.25 1843.12 2365.39 1842.94 Q2364.56 1842.73 2363.54 1842.73 Q2359.93 1842.73 2357.98 1845.09 Q2356.06 1847.43 2356.06 1851.83 L2356.06 1865.48 L2351.78 1865.48 L2351.78 1839.56 L2356.06 1839.56 L2356.06 1843.59 Q2357.41 1841.22 2359.56 1840.09 Q2361.71 1838.93 2364.79 1838.93 Q2365.23 1838.93 2365.76 1839 Q2366.29 1839.05 2366.94 1839.16 L2366.97 1843.54 Z" fill="#000000" fill-rule="nonzero" fill-opacity="1" /><path clip-path="url(#clip230)" d="M2371.43 1839.56 L2375.69 1839.56 L2375.69 1865.48 L2371.43 1865.48 L2371.43 1839.56 M2371.43 1829.46 L2375.69 1829.46 L2375.69 1834.86 L2371.43 1834.86 L2371.43 1829.46 Z" fill="#000000" fill-rule="nonzero" fill-opacity="1" /><path clip-path="url(#clip230)" d="M2406.16 1849.84 L2406.16 1865.48 L2401.9 1865.48 L2401.9 1849.97 Q2401.9 1846.29 2400.46 1844.46 Q2399.03 1842.64 2396.16 1842.64 Q2392.71 1842.64 2390.72 1844.84 Q2388.73 1847.03 2388.73 1850.83 L2388.73 1865.48 L2384.44 1865.48 L2384.44 1839.56 L2388.73 1839.56 L2388.73 1843.59 Q2390.25 1841.25 2392.31 1840.09 Q2394.4 1838.93 2397.1 1838.93 Q2401.57 1838.93 2403.86 1841.71 Q2406.16 1844.46 2406.16 1849.84 Z" fill="#000000" fill-rule="nonzero" fill-opacity="1" /><path clip-path="url(#clip230)" d="M2431.71 1852.22 Q2431.71 1847.59 2429.79 1845.04 Q2427.89 1842.5 2424.44 1842.5 Q2421.02 1842.5 2419.1 1845.04 Q2417.2 1847.59 2417.2 1852.22 Q2417.2 1856.83 2419.1 1859.37 Q2421.02 1861.92 2424.44 1861.92 Q2427.89 1861.92 2429.79 1859.37 Q2431.71 1856.83 2431.71 1852.22 M2435.97 1862.27 Q2435.97 1868.89 2433.03 1872.1 Q2430.09 1875.34 2424.03 1875.34 Q2421.78 1875.34 2419.79 1875 Q2417.8 1874.67 2415.92 1873.98 L2415.92 1869.84 Q2417.8 1870.85 2419.63 1871.34 Q2421.46 1871.83 2423.35 1871.83 Q2427.54 1871.83 2429.63 1869.63 Q2431.71 1867.45 2431.71 1863.03 L2431.71 1860.92 Q2430.39 1863.21 2428.33 1864.35 Q2426.27 1865.48 2423.4 1865.48 Q2418.63 1865.48 2415.72 1861.85 Q2412.8 1858.21 2412.8 1852.22 Q2412.8 1846.2 2415.72 1842.57 Q2418.63 1838.93 2423.4 1838.93 Q2426.27 1838.93 2428.33 1840.07 Q2430.39 1841.2 2431.71 1843.49 L2431.71 1839.56 L2435.97 1839.56 L2435.97 1862.27 Z" fill="#000000" fill-rule="nonzero" fill-opacity="1" /><polyline clip-path="url(#clip230)" style="stroke:#000000; stroke-linecap:round; stroke-linejoin:round; stroke-width:4; stroke-opacity:1; fill:none" points="226.141,1800.78 226.141,127.792 "/>
<polyline clip-path="url(#clip230)" style="stroke:#000000; stroke-linecap:round; stroke-linejoin:round; stroke-width:4; stroke-opacity:1; fill:none" points="226.141,1800.78 245.038,1800.78 "/>
<polyline clip-path="url(#clip230)" style="stroke:#000000; stroke-linecap:round; stroke-linejoin:round; stroke-width:4; stroke-opacity:1; fill:none" points="226.141,1466.18 245.038,1466.18 "/>
<polyline clip-path="url(#clip230)" style="stroke:#000000; stroke-linecap:round; stroke-linejoin:round; stroke-width:4; stroke-opacity:1; fill:none" points="226.141,1131.58 245.038,1131.58 "/>
<polyline clip-path="url(#clip230)" style="stroke:#000000; stroke-linecap:round; stroke-linejoin:round; stroke-width:4; stroke-opacity:1; fill:none" points="226.141,796.987 245.038,796.987 "/>
<polyline clip-path="url(#clip230)" style="stroke:#000000; stroke-linecap:round; stroke-linejoin:round; stroke-width:4; stroke-opacity:1; fill:none" points="226.141,462.39 245.038,462.39 "/>
<polyline clip-path="url(#clip230)" style="stroke:#000000; stroke-linecap:round; stroke-linejoin:round; stroke-width:4; stroke-opacity:1; fill:none" points="226.141,127.792 245.038,127.792 "/>
<path clip-path="url(#clip230)" d="M128.645 1786.58 Q125.034 1786.58 123.205 1790.14 Q121.4 1793.68 121.4 1800.81 Q121.4 1807.92 123.205 1811.49 Q125.034 1815.03 128.645 1815.03 Q132.279 1815.03 134.085 1811.49 Q135.913 1807.92 135.913 1800.81 Q135.913 1793.68 134.085 1790.14 Q132.279 1786.58 128.645 1786.58 M128.645 1782.87 Q134.455 1782.87 137.511 1787.48 Q140.589 1792.06 140.589 1800.81 Q140.589 1809.54 137.511 1814.15 Q134.455 1818.73 128.645 1818.73 Q122.835 1818.73 119.756 1814.15 Q116.701 1809.54 116.701 1800.81 Q116.701 1792.06 119.756 1787.48 Q122.835 1782.87 128.645 1782.87 Z" fill="#000000" fill-rule="nonzero" fill-opacity="1" /><path clip-path="url(#clip230)" d="M148.807 1812.18 L153.691 1812.18 L153.691 1818.06 L148.807 1818.06 L148.807 1812.18 Z" fill="#000000" fill-rule="nonzero" fill-opacity="1" /><path clip-path="url(#clip230)" d="M173.876 1786.58 Q170.265 1786.58 168.436 1790.14 Q166.631 1793.68 166.631 1800.81 Q166.631 1807.92 168.436 1811.49 Q170.265 1815.03 173.876 1815.03 Q177.51 1815.03 179.316 1811.49 Q181.145 1807.92 181.145 1800.81 Q181.145 1793.68 179.316 1790.14 Q177.51 1786.58 173.876 1786.58 M173.876 1782.87 Q179.686 1782.87 182.742 1787.48 Q185.821 1792.06 185.821 1800.81 Q185.821 1809.54 182.742 1814.15 Q179.686 1818.73 173.876 1818.73 Q168.066 1818.73 164.987 1814.15 Q161.932 1809.54 161.932 1800.81 Q161.932 1792.06 164.987 1787.48 Q168.066 1782.87 173.876 1782.87 Z" fill="#000000" fill-rule="nonzero" fill-opacity="1" /><path clip-path="url(#clip230)" d="M130.242 1451.98 Q126.631 1451.98 124.802 1455.55 Q122.997 1459.09 122.997 1466.22 Q122.997 1473.32 124.802 1476.89 Q126.631 1480.43 130.242 1480.43 Q133.876 1480.43 135.682 1476.89 Q137.511 1473.32 137.511 1466.22 Q137.511 1459.09 135.682 1455.55 Q133.876 1451.98 130.242 1451.98 M130.242 1448.28 Q136.052 1448.28 139.108 1452.88 Q142.187 1457.47 142.187 1466.22 Q142.187 1474.94 139.108 1479.55 Q136.052 1484.13 130.242 1484.13 Q124.432 1484.13 121.353 1479.55 Q118.298 1474.94 118.298 1466.22 Q118.298 1457.47 121.353 1452.88 Q124.432 1448.28 130.242 1448.28 Z" fill="#000000" fill-rule="nonzero" fill-opacity="1" /><path clip-path="url(#clip230)" d="M150.404 1477.58 L155.288 1477.58 L155.288 1483.46 L150.404 1483.46 L150.404 1477.58 Z" fill="#000000" fill-rule="nonzero" fill-opacity="1" /><path clip-path="url(#clip230)" d="M169.501 1479.53 L185.821 1479.53 L185.821 1483.46 L163.876 1483.46 L163.876 1479.53 Q166.538 1476.77 171.122 1472.14 Q175.728 1467.49 176.909 1466.15 Q179.154 1463.62 180.034 1461.89 Q180.936 1460.13 180.936 1458.44 Q180.936 1455.68 178.992 1453.95 Q177.071 1452.21 173.969 1452.21 Q171.77 1452.21 169.316 1452.98 Q166.885 1453.74 164.108 1455.29 L164.108 1450.57 Q166.932 1449.43 169.385 1448.86 Q171.839 1448.28 173.876 1448.28 Q179.247 1448.28 182.441 1450.96 Q185.635 1453.65 185.635 1458.14 Q185.635 1460.27 184.825 1462.19 Q184.038 1464.09 181.932 1466.68 Q181.353 1467.35 178.251 1470.57 Q175.149 1473.76 169.501 1479.53 Z" fill="#000000" fill-rule="nonzero" fill-opacity="1" /><path clip-path="url(#clip230)" d="M128.159 1117.38 Q124.548 1117.38 122.719 1120.95 Q120.913 1124.49 120.913 1131.62 Q120.913 1138.73 122.719 1142.29 Q124.548 1145.83 128.159 1145.83 Q131.793 1145.83 133.599 1142.29 Q135.427 1138.73 135.427 1131.62 Q135.427 1124.49 133.599 1120.95 Q131.793 1117.38 128.159 1117.38 M128.159 1113.68 Q133.969 1113.68 137.025 1118.29 Q140.103 1122.87 140.103 1131.62 Q140.103 1140.35 137.025 1144.95 Q133.969 1149.54 128.159 1149.54 Q122.349 1149.54 119.27 1144.95 Q116.214 1140.35 116.214 1131.62 Q116.214 1122.87 119.27 1118.29 Q122.349 1113.68 128.159 1113.68 Z" fill="#000000" fill-rule="nonzero" fill-opacity="1" /><path clip-path="url(#clip230)" d="M148.321 1142.98 L153.205 1142.98 L153.205 1148.86 L148.321 1148.86 L148.321 1142.98 Z" fill="#000000" fill-rule="nonzero" fill-opacity="1" /><path clip-path="url(#clip230)" d="M176.237 1118.38 L164.432 1136.83 L176.237 1136.83 L176.237 1118.38 M175.01 1114.3 L180.89 1114.3 L180.89 1136.83 L185.821 1136.83 L185.821 1140.72 L180.89 1140.72 L180.89 1148.86 L176.237 1148.86 L176.237 1140.72 L160.636 1140.72 L160.636 1136.2 L175.01 1114.3 Z" fill="#000000" fill-rule="nonzero" fill-opacity="1" /><path clip-path="url(#clip230)" d="M128.483 782.786 Q124.872 782.786 123.043 786.35 Q121.238 789.892 121.238 797.022 Q121.238 804.128 123.043 807.693 Q124.872 811.235 128.483 811.235 Q132.117 811.235 133.923 807.693 Q135.751 804.128 135.751 797.022 Q135.751 789.892 133.923 786.35 Q132.117 782.786 128.483 782.786 M128.483 779.082 Q134.293 779.082 137.349 783.688 Q140.427 788.272 140.427 797.022 Q140.427 805.749 137.349 810.355 Q134.293 814.938 128.483 814.938 Q122.673 814.938 119.594 810.355 Q116.539 805.749 116.539 797.022 Q116.539 788.272 119.594 783.688 Q122.673 779.082 128.483 779.082 Z" fill="#000000" fill-rule="nonzero" fill-opacity="1" /><path clip-path="url(#clip230)" d="M148.645 808.387 L153.529 808.387 L153.529 814.267 L148.645 814.267 L148.645 808.387 Z" fill="#000000" fill-rule="nonzero" fill-opacity="1" /><path clip-path="url(#clip230)" d="M174.293 795.124 Q171.145 795.124 169.293 797.276 Q167.464 799.429 167.464 803.179 Q167.464 806.906 169.293 809.082 Q171.145 811.235 174.293 811.235 Q177.441 811.235 179.27 809.082 Q181.122 806.906 181.122 803.179 Q181.122 799.429 179.27 797.276 Q177.441 795.124 174.293 795.124 M183.575 780.471 L183.575 784.73 Q181.816 783.897 180.01 783.457 Q178.228 783.017 176.469 783.017 Q171.839 783.017 169.385 786.142 Q166.955 789.267 166.608 795.587 Q167.973 793.573 170.034 792.508 Q172.094 791.42 174.571 791.42 Q179.779 791.42 182.788 794.591 Q185.821 797.739 185.821 803.179 Q185.821 808.503 182.672 811.721 Q179.524 814.938 174.293 814.938 Q168.297 814.938 165.126 810.355 Q161.955 805.749 161.955 797.022 Q161.955 788.827 165.844 783.966 Q169.733 779.082 176.284 779.082 Q178.043 779.082 179.825 779.429 Q181.631 779.776 183.575 780.471 Z" fill="#000000" fill-rule="nonzero" fill-opacity="1" /><path clip-path="url(#clip230)" d="M128.738 448.188 Q125.126 448.188 123.298 451.753 Q121.492 455.295 121.492 462.424 Q121.492 469.531 123.298 473.096 Q125.126 476.637 128.738 476.637 Q132.372 476.637 134.177 473.096 Q136.006 469.531 136.006 462.424 Q136.006 455.295 134.177 451.753 Q132.372 448.188 128.738 448.188 M128.738 444.485 Q134.548 444.485 137.603 449.091 Q140.682 453.674 140.682 462.424 Q140.682 471.151 137.603 475.758 Q134.548 480.341 128.738 480.341 Q122.927 480.341 119.849 475.758 Q116.793 471.151 116.793 462.424 Q116.793 453.674 119.849 449.091 Q122.927 444.485 128.738 444.485 Z" fill="#000000" fill-rule="nonzero" fill-opacity="1" /><path clip-path="url(#clip230)" d="M148.899 473.79 L153.784 473.79 L153.784 479.67 L148.899 479.67 L148.899 473.79 Z" fill="#000000" fill-rule="nonzero" fill-opacity="1" /><path clip-path="url(#clip230)" d="M173.969 463.258 Q170.635 463.258 168.714 465.04 Q166.816 466.822 166.816 469.947 Q166.816 473.072 168.714 474.855 Q170.635 476.637 173.969 476.637 Q177.302 476.637 179.223 474.855 Q181.145 473.049 181.145 469.947 Q181.145 466.822 179.223 465.04 Q177.325 463.258 173.969 463.258 M169.293 461.267 Q166.284 460.526 164.594 458.466 Q162.927 456.406 162.927 453.443 Q162.927 449.299 165.867 446.892 Q168.83 444.485 173.969 444.485 Q179.131 444.485 182.071 446.892 Q185.01 449.299 185.01 453.443 Q185.01 456.406 183.321 458.466 Q181.654 460.526 178.668 461.267 Q182.047 462.054 183.922 464.346 Q185.821 466.637 185.821 469.947 Q185.821 474.971 182.742 477.656 Q179.686 480.341 173.969 480.341 Q168.251 480.341 165.173 477.656 Q162.117 474.971 162.117 469.947 Q162.117 466.637 164.015 464.346 Q165.913 462.054 169.293 461.267 M167.58 453.883 Q167.58 456.568 169.247 458.072 Q170.936 459.577 173.969 459.577 Q176.978 459.577 178.668 458.072 Q180.381 456.568 180.381 453.883 Q180.381 451.197 178.668 449.693 Q176.978 448.188 173.969 448.188 Q170.936 448.188 169.247 449.693 Q167.58 451.197 167.58 453.883 Z" fill="#000000" fill-rule="nonzero" fill-opacity="1" /><path clip-path="url(#clip230)" d="M119.455 141.137 L127.094 141.137 L127.094 114.771 L118.784 116.438 L118.784 112.179 L127.048 110.512 L131.724 110.512 L131.724 141.137 L139.362 141.137 L139.362 145.072 L119.455 145.072 L119.455 141.137 Z" fill="#000000" fill-rule="nonzero" fill-opacity="1" /><path clip-path="url(#clip230)" d="M148.807 139.193 L153.691 139.193 L153.691 145.072 L148.807 145.072 L148.807 139.193 Z" fill="#000000" fill-rule="nonzero" fill-opacity="1" /><path clip-path="url(#clip230)" d="M173.876 113.591 Q170.265 113.591 168.436 117.156 Q166.631 120.697 166.631 127.827 Q166.631 134.933 168.436 138.498 Q170.265 142.04 173.876 142.04 Q177.51 142.04 179.316 138.498 Q181.145 134.933 181.145 127.827 Q181.145 120.697 179.316 117.156 Q177.51 113.591 173.876 113.591 M173.876 109.887 Q179.686 109.887 182.742 114.494 Q185.821 119.077 185.821 127.827 Q185.821 136.554 182.742 141.16 Q179.686 145.743 173.876 145.743 Q168.066 145.743 164.987 141.16 Q161.932 136.554 161.932 127.827 Q161.932 119.077 164.987 114.494 Q168.066 109.887 173.876 109.887 Z" fill="#000000" fill-rule="nonzero" fill-opacity="1" /><path clip-path="url(#clip230)" d="M15.678 1278.31 L21.9483 1278.31 Q20.1977 1281.97 19.3383 1285.21 Q18.479 1288.46 18.479 1291.48 Q18.479 1296.73 20.516 1299.6 Q22.553 1302.43 26.3088 1302.43 Q29.4598 1302.43 31.0831 1300.55 Q32.6745 1298.64 33.6612 1293.36 L34.4569 1289.48 Q35.8255 1282.28 39.2948 1278.88 Q42.7323 1275.44 48.5251 1275.44 Q55.4319 1275.44 58.9967 1280.09 Q62.5615 1284.7 62.5615 1293.65 Q62.5615 1297.02 61.7976 1300.84 Q61.0337 1304.63 59.5378 1308.7 L52.9174 1308.7 Q55.1136 1304.79 56.2276 1301.03 Q57.3416 1297.28 57.3416 1293.65 Q57.3416 1288.14 55.1773 1285.15 Q53.0129 1282.16 49.0025 1282.16 Q45.5014 1282.16 43.528 1284.32 Q41.5546 1286.45 40.568 1291.36 L39.8041 1295.27 Q38.3718 1302.46 35.3162 1305.68 Q32.2607 1308.89 26.818 1308.89 Q20.516 1308.89 16.8875 1304.47 Q13.2591 1300.01 13.2591 1292.22 Q13.2591 1288.87 13.8638 1285.4 Q14.4686 1281.93 15.678 1278.31 Z" fill="#000000" fill-rule="nonzero" fill-opacity="1" /><path clip-path="url(#clip230)" d="M40.1224 1236.04 L61.6384 1236.04 L61.6384 1241.89 L40.3133 1241.89 Q35.2526 1241.89 32.7381 1243.87 Q30.2237 1245.84 30.2237 1249.79 Q30.2237 1254.53 33.2474 1257.27 Q36.2711 1260 41.491 1260 L61.6384 1260 L61.6384 1265.89 L12.1132 1265.89 L12.1132 1260 L31.5287 1260 Q28.314 1257.9 26.7225 1255.07 Q25.1311 1252.21 25.1311 1248.48 Q25.1311 1242.34 28.9505 1239.19 Q32.7381 1236.04 40.1224 1236.04 Z" fill="#000000" fill-rule="nonzero" fill-opacity="1" /><path clip-path="url(#clip230)" d="M31.465 1203.7 Q30.8921 1204.69 30.6375 1205.86 Q30.351 1207.01 30.351 1208.41 Q30.351 1213.38 33.5975 1216.05 Q36.8122 1218.69 42.8596 1218.69 L61.6384 1218.69 L61.6384 1224.58 L25.9905 1224.58 L25.9905 1218.69 L31.5287 1218.69 Q28.2821 1216.85 26.7225 1213.89 Q25.1311 1210.93 25.1311 1206.69 Q25.1311 1206.09 25.2266 1205.36 Q25.2903 1204.62 25.4494 1203.73 L31.465 1203.7 Z" fill="#000000" fill-rule="nonzero" fill-opacity="1" /><path clip-path="url(#clip230)" d="M25.9905 1197.56 L25.9905 1191.7 L61.6384 1191.7 L61.6384 1197.56 L25.9905 1197.56 M12.1132 1197.56 L12.1132 1191.7 L19.5293 1191.7 L19.5293 1197.56 L12.1132 1197.56 Z" fill="#000000" fill-rule="nonzero" fill-opacity="1" /><path clip-path="url(#clip230)" d="M40.1224 1149.81 L61.6384 1149.81 L61.6384 1155.67 L40.3133 1155.67 Q35.2526 1155.67 32.7381 1157.64 Q30.2237 1159.62 30.2237 1163.56 Q30.2237 1168.31 33.2474 1171.04 Q36.2711 1173.78 41.491 1173.78 L61.6384 1173.78 L61.6384 1179.67 L25.9905 1179.67 L25.9905 1173.78 L31.5287 1173.78 Q28.314 1171.68 26.7225 1168.85 Q25.1311 1165.98 25.1311 1162.26 Q25.1311 1156.12 28.9505 1152.97 Q32.7381 1149.81 40.1224 1149.81 Z" fill="#000000" fill-rule="nonzero" fill-opacity="1" /><path clip-path="url(#clip230)" d="M12.1132 1138.36 L12.1132 1132.47 L41.3637 1132.47 L25.9905 1114.99 L25.9905 1107.51 L42.6686 1126.42 L61.6384 1106.72 L61.6384 1114.36 L44.2282 1132.47 L61.6384 1132.47 L61.6384 1138.36 L12.1132 1138.36 Z" fill="#000000" fill-rule="nonzero" fill-opacity="1" /><path clip-path="url(#clip230)" d="M43.719 1085.33 Q43.719 1092.43 45.3422 1095.16 Q46.9655 1097.9 50.8804 1097.9 Q53.9996 1097.9 55.8457 1095.86 Q57.6599 1093.8 57.6599 1090.26 Q57.6599 1085.39 54.2224 1082.47 Q50.7531 1079.51 45.0239 1079.51 L43.719 1079.51 L43.719 1085.33 M41.3 1073.65 L61.6384 1073.65 L61.6384 1079.51 L56.2276 1079.51 Q59.4741 1081.51 61.0337 1084.5 Q62.5615 1087.49 62.5615 1091.82 Q62.5615 1097.3 59.5059 1100.54 Q56.4186 1103.76 51.2623 1103.76 Q45.2467 1103.76 42.1912 1099.75 Q39.1357 1095.71 39.1357 1087.72 L39.1357 1079.51 L38.5628 1079.51 Q34.5205 1079.51 32.3244 1082.18 Q30.0964 1084.82 30.0964 1089.63 Q30.0964 1092.68 30.8284 1095.58 Q31.5605 1098.47 33.0246 1101.15 L27.6137 1101.15 Q26.3724 1097.93 25.7677 1094.91 Q25.1311 1091.89 25.1311 1089.02 Q25.1311 1081.29 29.1415 1077.47 Q33.1519 1073.65 41.3 1073.65 Z" fill="#000000" fill-rule="nonzero" fill-opacity="1" /><path clip-path="url(#clip230)" d="M43.4007 1038.13 Q37.035 1038.13 33.5338 1040.77 Q30.0327 1043.38 30.0327 1048.12 Q30.0327 1052.83 33.5338 1055.47 Q37.035 1058.08 43.4007 1058.08 Q49.7346 1058.08 53.2357 1055.47 Q56.7368 1052.83 56.7368 1048.12 Q56.7368 1043.38 53.2357 1040.77 Q49.7346 1038.13 43.4007 1038.13 M57.2143 1032.27 Q66.3172 1032.27 70.7414 1036.31 Q75.1974 1040.36 75.1974 1048.69 Q75.1974 1051.78 74.72 1054.52 Q74.2744 1057.26 73.3195 1059.83 L67.6222 1059.83 Q69.0227 1057.26 69.6911 1054.74 Q70.3595 1052.23 70.3595 1049.62 Q70.3595 1043.86 67.3358 1040.99 Q64.3439 1038.13 58.2646 1038.13 L55.3682 1038.13 Q58.5192 1039.94 60.0788 1042.77 Q61.6384 1045.61 61.6384 1049.55 Q61.6384 1056.11 56.6414 1060.12 Q51.6443 1064.13 43.4007 1064.13 Q35.1253 1064.13 30.1282 1060.12 Q25.1311 1056.11 25.1311 1049.55 Q25.1311 1045.61 26.6907 1042.77 Q28.2503 1039.94 31.4013 1038.13 L25.9905 1038.13 L25.9905 1032.27 L57.2143 1032.27 Z" fill="#000000" fill-rule="nonzero" fill-opacity="1" /><path clip-path="url(#clip230)" d="M42.3504 989.717 L45.2149 989.717 L45.2149 1016.64 Q51.2623 1016.26 54.4452 1013.02 Q57.5962 1009.74 57.5962 1003.91 Q57.5962 1000.54 56.7687 997.387 Q55.9411 994.205 54.2861 991.085 L59.8242 991.085 Q61.161 994.236 61.8612 997.547 Q62.5615 1000.86 62.5615 1004.26 Q62.5615 1012.79 57.5962 1017.79 Q52.631 1022.75 44.1646 1022.75 Q35.4117 1022.75 30.2873 1018.04 Q25.1311 1013.3 25.1311 1005.28 Q25.1311 998.088 29.7781 993.918 Q34.3932 989.717 42.3504 989.717 M40.6316 995.573 Q35.8255 995.637 32.9609 998.279 Q30.0964 1000.89 30.0964 1005.22 Q30.0964 1010.12 32.8654 1013.08 Q35.6345 1016.01 40.6634 1016.45 L40.6316 995.573 Z" fill="#000000" fill-rule="nonzero" fill-opacity="1" /><path clip-path="url(#clip230)" d="M56.2912 953.719 L75.1974 953.719 L75.1974 959.607 L25.9905 959.607 L25.9905 953.719 L31.4013 953.719 Q28.2185 951.873 26.6907 949.072 Q25.1311 946.239 25.1311 942.324 Q25.1311 935.831 30.2873 931.789 Q35.4436 927.715 43.8463 927.715 Q52.249 927.715 57.4052 931.789 Q62.5615 935.831 62.5615 942.324 Q62.5615 946.239 61.0337 949.072 Q59.4741 951.873 56.2912 953.719 M43.8463 933.794 Q37.3851 933.794 33.7248 936.468 Q30.0327 939.109 30.0327 943.756 Q30.0327 948.403 33.7248 951.077 Q37.3851 953.719 43.8463 953.719 Q50.3075 953.719 53.9996 951.077 Q57.6599 948.403 57.6599 943.756 Q57.6599 939.109 53.9996 936.468 Q50.3075 933.794 43.8463 933.794 Z" fill="#000000" fill-rule="nonzero" fill-opacity="1" /><path clip-path="url(#clip230)" d="M31.465 897.35 Q30.8921 898.337 30.6375 899.515 Q30.351 900.66 30.351 902.061 Q30.351 907.026 33.5975 909.7 Q36.8122 912.342 42.8596 912.342 L61.6384 912.342 L61.6384 918.23 L25.9905 918.23 L25.9905 912.342 L31.5287 912.342 Q28.2821 910.495 26.7225 907.535 Q25.1311 904.575 25.1311 900.342 Q25.1311 899.737 25.2266 899.005 Q25.2903 898.273 25.4494 897.382 L31.465 897.35 Z" fill="#000000" fill-rule="nonzero" fill-opacity="1" /><path clip-path="url(#clip230)" d="M30.0964 878.826 Q30.0964 883.537 33.7885 886.274 Q37.4488 889.011 43.8463 889.011 Q50.2438 889.011 53.9359 886.306 Q57.5962 883.569 57.5962 878.826 Q57.5962 874.147 53.9041 871.41 Q50.212 868.673 43.8463 868.673 Q37.5124 868.673 33.8203 871.41 Q30.0964 874.147 30.0964 878.826 M25.1311 878.826 Q25.1311 871.187 30.0964 866.827 Q35.0616 862.466 43.8463 862.466 Q52.5991 862.466 57.5962 866.827 Q62.5615 871.187 62.5615 878.826 Q62.5615 886.497 57.5962 890.857 Q52.5991 895.186 43.8463 895.186 Q35.0616 895.186 30.0964 890.857 Q25.1311 886.497 25.1311 878.826 Z" fill="#000000" fill-rule="nonzero" fill-opacity="1" /><path clip-path="url(#clip230)" d="M43.8463 827.168 Q37.3851 827.168 33.7248 829.842 Q30.0327 832.484 30.0327 837.131 Q30.0327 841.778 33.7248 844.451 Q37.3851 847.093 43.8463 847.093 Q50.3075 847.093 53.9996 844.451 Q57.6599 841.778 57.6599 837.131 Q57.6599 832.484 53.9996 829.842 Q50.3075 827.168 43.8463 827.168 M31.4013 847.093 Q28.2185 845.247 26.6907 842.446 Q25.1311 839.613 25.1311 835.698 Q25.1311 829.205 30.2873 825.163 Q35.4436 821.089 43.8463 821.089 Q52.249 821.089 57.4052 825.163 Q62.5615 829.205 62.5615 835.698 Q62.5615 839.613 61.0337 842.446 Q59.4741 845.247 56.2912 847.093 L61.6384 847.093 L61.6384 852.981 L12.1132 852.981 L12.1132 847.093 L31.4013 847.093 Z" fill="#000000" fill-rule="nonzero" fill-opacity="1" /><path clip-path="url(#clip230)" d="M43.719 795.181 Q43.719 802.278 45.3422 805.016 Q46.9655 807.753 50.8804 807.753 Q53.9996 807.753 55.8457 805.716 Q57.6599 803.647 57.6599 800.114 Q57.6599 795.244 54.2224 792.316 Q50.7531 789.356 45.0239 789.356 L43.719 789.356 L43.719 795.181 M41.3 783.5 L61.6384 783.5 L61.6384 789.356 L56.2276 789.356 Q59.4741 791.361 61.0337 794.353 Q62.5615 797.345 62.5615 801.674 Q62.5615 807.148 59.5059 810.395 Q56.4186 813.609 51.2623 813.609 Q45.2467 813.609 42.1912 809.599 Q39.1357 805.557 39.1357 797.568 L39.1357 789.356 L38.5628 789.356 Q34.5205 789.356 32.3244 792.03 Q30.0964 794.671 30.0964 799.478 Q30.0964 802.533 30.8284 805.43 Q31.5605 808.326 33.0246 810.999 L27.6137 810.999 Q26.3724 807.785 25.7677 804.761 Q25.1311 801.737 25.1311 798.873 Q25.1311 791.138 29.1415 787.319 Q33.1519 783.5 41.3 783.5 Z" fill="#000000" fill-rule="nonzero" fill-opacity="1" /><path clip-path="url(#clip230)" d="M43.8463 745.846 Q37.3851 745.846 33.7248 748.52 Q30.0327 751.162 30.0327 755.809 Q30.0327 760.456 33.7248 763.129 Q37.3851 765.771 43.8463 765.771 Q50.3075 765.771 53.9996 763.129 Q57.6599 760.456 57.6599 755.809 Q57.6599 751.162 53.9996 748.52 Q50.3075 745.846 43.8463 745.846 M31.4013 765.771 Q28.2185 763.925 26.6907 761.124 Q25.1311 758.291 25.1311 754.377 Q25.1311 747.884 30.2873 743.841 Q35.4436 739.767 43.8463 739.767 Q52.249 739.767 57.4052 743.841 Q62.5615 747.884 62.5615 754.377 Q62.5615 758.291 61.0337 761.124 Q59.4741 763.925 56.2912 765.771 L61.6384 765.771 L61.6384 771.659 L12.1132 771.659 L12.1132 765.771 L31.4013 765.771 Z" fill="#000000" fill-rule="nonzero" fill-opacity="1" /><path clip-path="url(#clip230)" d="M25.9905 730.06 L25.9905 724.203 L61.6384 724.203 L61.6384 730.06 L25.9905 730.06 M12.1132 730.06 L12.1132 724.203 L19.5293 724.203 L19.5293 730.06 L12.1132 730.06 Z" fill="#000000" fill-rule="nonzero" fill-opacity="1" /><path clip-path="url(#clip230)" d="M12.1132 711.949 L12.1132 706.093 L61.6384 706.093 L61.6384 711.949 L12.1132 711.949 Z" fill="#000000" fill-rule="nonzero" fill-opacity="1" /><path clip-path="url(#clip230)" d="M25.9905 693.839 L25.9905 687.982 L61.6384 687.982 L61.6384 693.839 L25.9905 693.839 M12.1132 693.839 L12.1132 687.982 L19.5293 687.982 L19.5293 693.839 L12.1132 693.839 Z" fill="#000000" fill-rule="nonzero" fill-opacity="1" /><path clip-path="url(#clip230)" d="M15.869 669.935 L25.9905 669.935 L25.9905 657.872 L30.542 657.872 L30.542 669.935 L49.8937 669.935 Q54.2542 669.935 55.4955 668.758 Q56.7368 667.548 56.7368 663.888 L56.7368 657.872 L61.6384 657.872 L61.6384 663.888 Q61.6384 670.667 59.124 673.246 Q56.5777 675.824 49.8937 675.824 L30.542 675.824 L30.542 680.121 L25.9905 680.121 L25.9905 675.824 L15.869 675.824 L15.869 669.935 Z" fill="#000000" fill-rule="nonzero" fill-opacity="1" /><path clip-path="url(#clip230)" d="M64.9486 635.338 Q71.3143 637.82 73.2559 640.176 Q75.1974 642.531 75.1974 646.478 L75.1974 651.157 L70.2958 651.157 L70.2958 647.719 Q70.2958 645.3 69.15 643.963 Q68.0041 642.627 63.7391 641.003 L61.0655 639.953 L25.9905 654.371 L25.9905 648.165 L53.8723 637.025 L25.9905 625.885 L25.9905 619.678 L64.9486 635.338 Z" fill="#000000" fill-rule="nonzero" fill-opacity="1" /><path clip-path="url(#clip230)" d="M1086.29 44.2197 Q1088.92 45.1109 1091.39 48.0275 Q1093.9 50.9442 1096.41 56.0483 L1104.72 72.576 L1095.93 72.576 L1088.19 57.061 Q1085.19 50.9847 1082.36 48.9997 Q1079.56 47.0148 1074.7 47.0148 L1065.79 47.0148 L1065.79 72.576 L1057.61 72.576 L1057.61 12.096 L1076.08 12.096 Q1086.45 12.096 1091.55 16.4305 Q1096.66 20.7649 1096.66 29.5149 Q1096.66 35.2267 1093.98 38.994 Q1091.35 42.7613 1086.29 44.2197 M1065.79 18.8205 L1065.79 40.2903 L1076.08 40.2903 Q1081.99 40.2903 1084.99 37.5762 Q1088.03 34.8216 1088.03 29.5149 Q1088.03 24.2082 1084.99 21.5346 Q1081.99 18.8205 1076.08 18.8205 L1065.79 18.8205 Z" fill="#000000" fill-rule="nonzero" fill-opacity="1" /><path clip-path="url(#clip230)" d="M1150.01 48.0275 L1150.01 51.6733 L1115.74 51.6733 Q1116.22 59.3701 1120.35 63.421 Q1124.53 67.4314 1131.94 67.4314 Q1136.23 67.4314 1140.24 66.3781 Q1144.29 65.3249 1148.26 63.2184 L1148.26 70.267 Q1144.25 71.9684 1140.04 72.8596 Q1135.83 73.7508 1131.49 73.7508 Q1120.64 73.7508 1114.28 67.4314 Q1107.96 61.1119 1107.96 50.3365 Q1107.96 39.1965 1113.95 32.6746 Q1119.99 26.1121 1130.2 26.1121 Q1139.35 26.1121 1144.66 32.0264 Q1150.01 37.9003 1150.01 48.0275 M1142.55 45.84 Q1142.47 39.7232 1139.11 36.0774 Q1135.79 32.4315 1130.28 32.4315 Q1124.04 32.4315 1120.27 35.9558 Q1116.55 39.4801 1115.98 45.8805 L1142.55 45.84 Z" fill="#000000" fill-rule="nonzero" fill-opacity="1" /><path clip-path="url(#clip230)" d="M1169.61 14.324 L1169.61 27.2059 L1184.97 27.2059 L1184.97 32.9987 L1169.61 32.9987 L1169.61 57.6282 Q1169.61 63.1779 1171.11 64.7578 Q1172.65 66.3376 1177.31 66.3376 L1184.97 66.3376 L1184.97 72.576 L1177.31 72.576 Q1168.68 72.576 1165.4 69.3758 Q1162.12 66.1351 1162.12 57.6282 L1162.12 32.9987 L1156.65 32.9987 L1156.65 27.2059 L1162.12 27.2059 L1162.12 14.324 L1169.61 14.324 Z" fill="#000000" fill-rule="nonzero" fill-opacity="1" /><path clip-path="url(#clip230)" d="M1221.06 34.1734 Q1219.8 33.4443 1218.3 33.1202 Q1216.85 32.7556 1215.06 32.7556 Q1208.74 32.7556 1205.34 36.8875 Q1201.98 40.9789 1201.98 48.6757 L1201.98 72.576 L1194.49 72.576 L1194.49 27.2059 L1201.98 27.2059 L1201.98 34.2544 Q1204.33 30.1225 1208.1 28.1376 Q1211.86 26.1121 1217.25 26.1121 Q1218.02 26.1121 1218.95 26.2337 Q1219.88 26.3147 1221.02 26.5172 L1221.06 34.1734 Z" fill="#000000" fill-rule="nonzero" fill-opacity="1" /><path clip-path="url(#clip230)" d="M1244.64 32.4315 Q1238.64 32.4315 1235.16 37.1306 Q1231.67 41.7891 1231.67 49.9314 Q1231.67 58.0738 1235.12 62.7728 Q1238.6 67.4314 1244.64 67.4314 Q1250.59 67.4314 1254.07 62.7323 Q1257.56 58.0333 1257.56 49.9314 Q1257.56 41.8701 1254.07 37.1711 Q1250.59 32.4315 1244.64 32.4315 M1244.64 26.1121 Q1254.36 26.1121 1259.91 32.4315 Q1265.46 38.7509 1265.46 49.9314 Q1265.46 61.0714 1259.91 67.4314 Q1254.36 73.7508 1244.64 73.7508 Q1234.87 73.7508 1229.32 67.4314 Q1223.81 61.0714 1223.81 49.9314 Q1223.81 38.7509 1229.32 32.4315 Q1234.87 26.1121 1244.64 26.1121 Z" fill="#000000" fill-rule="nonzero" fill-opacity="1" /><path clip-path="url(#clip230)" d="M1307.67 49.3643 Q1307.67 41.2625 1304.31 36.8065 Q1300.98 32.3505 1294.95 32.3505 Q1288.95 32.3505 1285.59 36.8065 Q1282.27 41.2625 1282.27 49.3643 Q1282.27 57.4256 1285.59 61.8816 Q1288.95 66.3376 1294.95 66.3376 Q1300.98 66.3376 1304.31 61.8816 Q1307.67 57.4256 1307.67 49.3643 M1315.12 66.9452 Q1315.12 78.5308 1309.98 84.1616 Q1304.83 89.8329 1294.22 89.8329 Q1290.29 89.8329 1286.81 89.2252 Q1283.32 88.6581 1280.04 87.4428 L1280.04 80.1917 Q1283.32 81.9741 1286.52 82.8248 Q1289.72 83.6755 1293.04 83.6755 Q1300.38 83.6755 1304.02 79.8271 Q1307.67 76.0193 1307.67 68.282 L1307.67 64.5957 Q1305.36 68.6061 1301.75 70.5911 Q1298.15 72.576 1293.12 72.576 Q1284.78 72.576 1279.68 66.2161 Q1274.57 59.8562 1274.57 49.3643 Q1274.57 38.832 1279.68 32.472 Q1284.78 26.1121 1293.12 26.1121 Q1298.15 26.1121 1301.75 28.0971 Q1305.36 30.082 1307.67 34.0924 L1307.67 27.2059 L1315.12 27.2059 L1315.12 66.9452 Z" fill="#000000" fill-rule="nonzero" fill-opacity="1" /><path clip-path="url(#clip230)" d="M1356.76 34.1734 Q1355.51 33.4443 1354.01 33.1202 Q1352.55 32.7556 1350.77 32.7556 Q1344.45 32.7556 1341.05 36.8875 Q1337.68 40.9789 1337.68 48.6757 L1337.68 72.576 L1330.19 72.576 L1330.19 27.2059 L1337.68 27.2059 L1337.68 34.2544 Q1340.03 30.1225 1343.8 28.1376 Q1347.57 26.1121 1352.96 26.1121 Q1353.73 26.1121 1354.66 26.2337 Q1355.59 26.3147 1356.72 26.5172 L1356.76 34.1734 Z" fill="#000000" fill-rule="nonzero" fill-opacity="1" /><path clip-path="url(#clip230)" d="M1401.57 48.0275 L1401.57 51.6733 L1367.3 51.6733 Q1367.78 59.3701 1371.91 63.421 Q1376.09 67.4314 1383.5 67.4314 Q1387.79 67.4314 1391.8 66.3781 Q1395.86 65.3249 1399.83 63.2184 L1399.83 70.267 Q1395.82 71.9684 1391.6 72.8596 Q1387.39 73.7508 1383.05 73.7508 Q1372.2 73.7508 1365.84 67.4314 Q1359.52 61.1119 1359.52 50.3365 Q1359.52 39.1965 1365.51 32.6746 Q1371.55 26.1121 1381.76 26.1121 Q1390.91 26.1121 1396.22 32.0264 Q1401.57 37.9003 1401.57 48.0275 M1394.11 45.84 Q1394.03 39.7232 1390.67 36.0774 Q1387.35 32.4315 1381.84 32.4315 Q1375.6 32.4315 1371.83 35.9558 Q1368.11 39.4801 1367.54 45.8805 L1394.11 45.84 Z" fill="#000000" fill-rule="nonzero" fill-opacity="1" /><path clip-path="url(#clip230)" d="M1442.72 28.5427 L1442.72 35.5912 Q1439.57 33.9709 1436.16 33.1607 Q1432.76 32.3505 1429.11 32.3505 Q1423.56 32.3505 1420.77 34.0519 Q1418.01 35.7533 1418.01 39.156 Q1418.01 41.7486 1420 43.2475 Q1421.98 44.7058 1427.98 46.0426 L1430.53 46.6097 Q1438.47 48.3111 1441.79 51.4303 Q1445.16 54.509 1445.16 60.0587 Q1445.16 66.3781 1440.13 70.0644 Q1435.15 73.7508 1426.4 73.7508 Q1422.75 73.7508 1418.78 73.0216 Q1414.85 72.3329 1410.48 70.9151 L1410.48 63.2184 Q1414.61 65.3654 1418.62 66.4591 Q1422.63 67.5124 1426.56 67.5124 Q1431.83 67.5124 1434.66 65.73 Q1437.5 63.9071 1437.5 60.6258 Q1437.5 57.5877 1435.43 55.9673 Q1433.41 54.3469 1426.48 52.8481 L1423.89 52.2405 Q1416.96 50.7821 1413.88 47.7845 Q1410.8 44.7463 1410.8 39.4801 Q1410.8 33.0797 1415.34 29.5959 Q1419.88 26.1121 1428.22 26.1121 Q1432.35 26.1121 1436 26.7198 Q1439.65 27.3274 1442.72 28.5427 Z" fill="#000000" fill-rule="nonzero" fill-opacity="1" /><path clip-path="url(#clip230)" d="M1485.95 28.5427 L1485.95 35.5912 Q1482.79 33.9709 1479.39 33.1607 Q1475.98 32.3505 1472.34 32.3505 Q1466.79 32.3505 1463.99 34.0519 Q1461.24 35.7533 1461.24 39.156 Q1461.24 41.7486 1463.22 43.2475 Q1465.21 44.7058 1471.2 46.0426 L1473.75 46.6097 Q1481.69 48.3111 1485.02 51.4303 Q1488.38 54.509 1488.38 60.0587 Q1488.38 66.3781 1483.36 70.0644 Q1478.37 73.7508 1469.62 73.7508 Q1465.98 73.7508 1462.01 73.0216 Q1458.08 72.3329 1453.7 70.9151 L1453.7 63.2184 Q1457.83 65.3654 1461.85 66.4591 Q1465.86 67.5124 1469.78 67.5124 Q1475.05 67.5124 1477.89 65.73 Q1480.72 63.9071 1480.72 60.6258 Q1480.72 57.5877 1478.66 55.9673 Q1476.63 54.3469 1469.7 52.8481 L1467.11 52.2405 Q1460.18 50.7821 1457.11 47.7845 Q1454.03 44.7463 1454.03 39.4801 Q1454.03 33.0797 1458.56 29.5959 Q1463.1 26.1121 1471.45 26.1121 Q1475.58 26.1121 1479.22 26.7198 Q1482.87 27.3274 1485.95 28.5427 Z" fill="#000000" fill-rule="nonzero" fill-opacity="1" /><path clip-path="url(#clip230)" d="M1500.25 27.2059 L1507.7 27.2059 L1507.7 72.576 L1500.25 72.576 L1500.25 27.2059 M1500.25 9.54393 L1507.7 9.54393 L1507.7 18.9825 L1500.25 18.9825 L1500.25 9.54393 Z" fill="#000000" fill-rule="nonzero" fill-opacity="1" /><path clip-path="url(#clip230)" d="M1540.88 32.4315 Q1534.88 32.4315 1531.4 37.1306 Q1527.92 41.7891 1527.92 49.9314 Q1527.92 58.0738 1531.36 62.7728 Q1534.84 67.4314 1540.88 67.4314 Q1546.83 67.4314 1550.32 62.7323 Q1553.8 58.0333 1553.8 49.9314 Q1553.8 41.8701 1550.32 37.1711 Q1546.83 32.4315 1540.88 32.4315 M1540.88 26.1121 Q1550.6 26.1121 1556.15 32.4315 Q1561.7 38.7509 1561.7 49.9314 Q1561.7 61.0714 1556.15 67.4314 Q1550.6 73.7508 1540.88 73.7508 Q1531.12 73.7508 1525.57 67.4314 Q1520.06 61.0714 1520.06 49.9314 Q1520.06 38.7509 1525.57 32.4315 Q1531.12 26.1121 1540.88 26.1121 Z" fill="#000000" fill-rule="nonzero" fill-opacity="1" /><path clip-path="url(#clip230)" d="M1611.77 45.1919 L1611.77 72.576 L1604.32 72.576 L1604.32 45.4349 Q1604.32 38.994 1601.8 35.7938 Q1599.29 32.5936 1594.27 32.5936 Q1588.23 32.5936 1584.75 36.4419 Q1581.27 40.2903 1581.27 46.9338 L1581.27 72.576 L1573.77 72.576 L1573.77 27.2059 L1581.27 27.2059 L1581.27 34.2544 Q1583.94 30.163 1587.54 28.1376 Q1591.19 26.1121 1595.93 26.1121 Q1603.75 26.1121 1607.76 30.9732 Q1611.77 35.7938 1611.77 45.1919 Z" fill="#000000" fill-rule="nonzero" fill-opacity="1" /><path clip-path="url(#clip230)" d="M1679.3 34.1734 Q1678.04 33.4443 1676.54 33.1202 Q1675.08 32.7556 1673.3 32.7556 Q1666.98 32.7556 1663.58 36.8875 Q1660.22 40.9789 1660.22 48.6757 L1660.22 72.576 L1652.72 72.576 L1652.72 27.2059 L1660.22 27.2059 L1660.22 34.2544 Q1662.57 30.1225 1666.33 28.1376 Q1670.1 26.1121 1675.49 26.1121 Q1676.26 26.1121 1677.19 26.2337 Q1678.12 26.3147 1679.26 26.5172 L1679.3 34.1734 Z" fill="#000000" fill-rule="nonzero" fill-opacity="1" /><path clip-path="url(#clip230)" d="M1707.73 49.7694 Q1698.7 49.7694 1695.22 51.8354 Q1691.73 53.9013 1691.73 58.8839 Q1691.73 62.8538 1694.33 65.2034 Q1696.96 67.5124 1701.46 67.5124 Q1707.65 67.5124 1711.38 63.1374 Q1715.15 58.7219 1715.15 51.4303 L1715.15 49.7694 L1707.73 49.7694 M1722.6 46.6907 L1722.6 72.576 L1715.15 72.576 L1715.15 65.6895 Q1712.6 69.8214 1708.79 71.8063 Q1704.98 73.7508 1699.47 73.7508 Q1692.5 73.7508 1688.37 69.8619 Q1684.28 65.9325 1684.28 59.3701 Q1684.28 51.7138 1689.38 47.825 Q1694.53 43.9361 1704.7 43.9361 L1715.15 43.9361 L1715.15 43.2069 Q1715.15 38.0623 1711.75 35.2672 Q1708.38 32.4315 1702.27 32.4315 Q1698.38 32.4315 1694.69 33.3632 Q1691 34.295 1687.6 36.1584 L1687.6 29.2718 Q1691.69 27.692 1695.54 26.9223 Q1699.39 26.1121 1703.04 26.1121 Q1712.88 26.1121 1717.74 31.2163 Q1722.6 36.3204 1722.6 46.6907 Z" fill="#000000" fill-rule="nonzero" fill-opacity="1" /><path clip-path="url(#clip230)" d="M1745.33 14.324 L1745.33 27.2059 L1760.68 27.2059 L1760.68 32.9987 L1745.33 32.9987 L1745.33 57.6282 Q1745.33 63.1779 1746.83 64.7578 Q1748.37 66.3376 1753.02 66.3376 L1760.68 66.3376 L1760.68 72.576 L1753.02 72.576 Q1744.4 72.576 1741.11 69.3758 Q1737.83 66.1351 1737.83 57.6282 L1737.83 32.9987 L1732.36 32.9987 L1732.36 27.2059 L1737.83 27.2059 L1737.83 14.324 L1745.33 14.324 Z" fill="#000000" fill-rule="nonzero" fill-opacity="1" /><path clip-path="url(#clip230)" d="M1809.29 48.0275 L1809.29 51.6733 L1775.02 51.6733 Q1775.51 59.3701 1779.64 63.421 Q1783.81 67.4314 1791.22 67.4314 Q1795.52 67.4314 1799.53 66.3781 Q1803.58 65.3249 1807.55 63.2184 L1807.55 70.267 Q1803.54 71.9684 1799.33 72.8596 Q1795.11 73.7508 1790.78 73.7508 Q1779.92 73.7508 1773.56 67.4314 Q1767.24 61.1119 1767.24 50.3365 Q1767.24 39.1965 1773.24 32.6746 Q1779.27 26.1121 1789.48 26.1121 Q1798.64 26.1121 1803.94 32.0264 Q1809.29 37.9003 1809.29 48.0275 M1801.84 45.84 Q1801.76 39.7232 1798.39 36.0774 Q1795.07 32.4315 1789.56 32.4315 Q1783.32 32.4315 1779.56 35.9558 Q1775.83 39.4801 1775.26 45.8805 L1801.84 45.84 Z" fill="#000000" fill-rule="nonzero" fill-opacity="1" /><path clip-path="url(#clip231)" d="M358.949 1243.12 L358.949 1800.78 L717.115 1800.78 L717.115 1243.12 L358.949 1243.12 L358.949 1243.12  Z" fill="#cd5c5c" fill-rule="evenodd" fill-opacity="0.7"/>
<polyline clip-path="url(#clip231)" style="stroke:#000000; stroke-linecap:round; stroke-linejoin:round; stroke-width:4; stroke-opacity:0.7; fill:none" points="358.949,1243.12 358.949,1800.78 717.115,1800.78 717.115,1243.12 358.949,1243.12 "/>
<path clip-path="url(#clip231)" d="M806.657 796.987 L806.657 1800.78 L1164.82 1800.78 L1164.82 796.987 L806.657 796.987 L806.657 796.987  Z" fill="#cd5c5c" fill-rule="evenodd" fill-opacity="0.7"/>
<polyline clip-path="url(#clip231)" style="stroke:#000000; stroke-linecap:round; stroke-linejoin:round; stroke-width:4; stroke-opacity:0.7; fill:none" points="806.657,796.987 806.657,1800.78 1164.82,1800.78 1164.82,796.987 806.657,796.987 "/>
<path clip-path="url(#clip231)" d="M1254.36 1157.32 L1254.36 1800.78 L1612.53 1800.78 L1612.53 1157.32 L1254.36 1157.32 L1254.36 1157.32  Z" fill="#cd5c5c" fill-rule="evenodd" fill-opacity="0.7"/>
<polyline clip-path="url(#clip231)" style="stroke:#000000; stroke-linecap:round; stroke-linejoin:round; stroke-width:4; stroke-opacity:0.7; fill:none" points="1254.36,1157.32 1254.36,1800.78 1612.53,1800.78 1612.53,1157.32 1254.36,1157.32 "/>
<path clip-path="url(#clip231)" d="M1702.07 1210.31 L1702.07 1800.78 L2060.24 1800.78 L2060.24 1210.31 L1702.07 1210.31 L1702.07 1210.31  Z" fill="#cd5c5c" fill-rule="evenodd" fill-opacity="0.7"/>
<polyline clip-path="url(#clip231)" style="stroke:#000000; stroke-linecap:round; stroke-linejoin:round; stroke-width:4; stroke-opacity:0.7; fill:none" points="1702.07,1210.31 1702.07,1800.78 2060.24,1800.78 2060.24,1210.31 1702.07,1210.31 "/>
<path clip-path="url(#clip231)" d="M2149.78 1800.78 L2149.78 1800.78 L2507.95 1800.78 L2507.95 1800.78 L2149.78 1800.78 L2149.78 1800.78  Z" fill="#cd5c5c" fill-rule="evenodd" fill-opacity="0.7"/>
<polyline clip-path="url(#clip231)" style="stroke:#000000; stroke-linecap:round; stroke-linejoin:round; stroke-width:4; stroke-opacity:0.7; fill:none" points="2149.78,1800.78 2149.78,1800.78 2507.95,1800.78 2149.78,1800.78 "/>
<circle clip-path="url(#clip231)" style="fill:#cd5c5c; stroke:none; fill-opacity:0" cx="538.032" cy="1243.12" r="2"/>
<circle clip-path="url(#clip231)" style="fill:#cd5c5c; stroke:none; fill-opacity:0" cx="985.74" cy="796.987" r="2"/>
<circle clip-path="url(#clip231)" style="fill:#cd5c5c; stroke:none; fill-opacity:0" cx="1433.45" cy="1157.32" r="2"/>
<circle clip-path="url(#clip231)" style="fill:#cd5c5c; stroke:none; fill-opacity:0" cx="1881.16" cy="1210.31" r="2"/>
<circle clip-path="url(#clip231)" style="fill:#cd5c5c; stroke:none; fill-opacity:0" cx="2328.86" cy="1800.78" r="2"/>
</svg>
