<?xml version="1.0" encoding="utf-8"?>
<svg xmlns="http://www.w3.org/2000/svg" xmlns:xlink="http://www.w3.org/1999/xlink" width="672" height="480" viewBox="0 0 2688 1920">
<defs>
  <clipPath id="clip260">
    <rect x="0" y="0" width="2688" height="1920"/>
  </clipPath>
</defs>
<path clip-path="url(#clip260)" d="M0 1920 L2688 1920 L2688 -4.26326e-14 L0 -4.26326e-14  Z" fill="#ffffff" fill-rule="evenodd" fill-opacity="1"/>
<defs>
  <clipPath id="clip261">
    <rect x="240" y="127" width="2401" height="1674"/>
  </clipPath>
</defs>
<path clip-path="url(#clip260)" d="M240.4 1800.78 L2640.76 1800.78 L2640.76 127.792 L240.4 127.792  Z" fill="#ffffff" fill-rule="evenodd" fill-opacity="1"/>
<polyline clip-path="url(#clip261)" style="stroke:#000000; stroke-linecap:round; stroke-linejoin:round; stroke-width:2; stroke-opacity:0.1; fill:none" points="550.449,1800.78 550.449,127.792 "/>
<polyline clip-path="url(#clip261)" style="stroke:#000000; stroke-linecap:round; stroke-linejoin:round; stroke-width:2; stroke-opacity:0.1; fill:none" points="995.514,1800.78 995.514,127.792 "/>
<polyline clip-path="url(#clip261)" style="stroke:#000000; stroke-linecap:round; stroke-linejoin:round; stroke-width:2; stroke-opacity:0.1; fill:none" points="1440.58,1800.78 1440.58,127.792 "/>
<polyline clip-path="url(#clip261)" style="stroke:#000000; stroke-linecap:round; stroke-linejoin:round; stroke-width:2; stroke-opacity:0.1; fill:none" points="1885.64,1800.78 1885.64,127.792 "/>
<polyline clip-path="url(#clip261)" style="stroke:#000000; stroke-linecap:round; stroke-linejoin:round; stroke-width:2; stroke-opacity:0.1; fill:none" points="2330.71,1800.78 2330.71,127.792 "/>
<polyline clip-path="url(#clip261)" style="stroke:#000000; stroke-linecap:round; stroke-linejoin:round; stroke-width:2; stroke-opacity:0.1; fill:none" points="240.4,1800.78 2640.76,1800.78 "/>
<polyline clip-path="url(#clip261)" style="stroke:#000000; stroke-linecap:round; stroke-linejoin:round; stroke-width:2; stroke-opacity:0.1; fill:none" points="240.4,1508.01 2640.76,1508.01 "/>
<polyline clip-path="url(#clip261)" style="stroke:#000000; stroke-linecap:round; stroke-linejoin:round; stroke-width:2; stroke-opacity:0.1; fill:none" points="240.4,1215.23 2640.76,1215.23 "/>
<polyline clip-path="url(#clip261)" style="stroke:#000000; stroke-linecap:round; stroke-linejoin:round; stroke-width:2; stroke-opacity:0.1; fill:none" points="240.4,922.461 2640.76,922.461 "/>
<polyline clip-path="url(#clip261)" style="stroke:#000000; stroke-linecap:round; stroke-linejoin:round; stroke-width:2; stroke-opacity:0.1; fill:none" points="240.4,629.688 2640.76,629.688 "/>
<polyline clip-path="url(#clip261)" style="stroke:#000000; stroke-linecap:round; stroke-linejoin:round; stroke-width:2; stroke-opacity:0.1; fill:none" points="240.4,336.916 2640.76,336.916 "/>
<polyline clip-path="url(#clip260)" style="stroke:#000000; stroke-linecap:round; stroke-linejoin:round; stroke-width:4; stroke-opacity:1; fill:none" points="240.4,1800.78 2640.76,1800.78 "/>
<polyline clip-path="url(#clip260)" style="stroke:#000000; stroke-linecap:round; stroke-linejoin:round; stroke-width:4; stroke-opacity:1; fill:none" points="550.449,1800.78 550.449,1781.88 "/>
<polyline clip-path="url(#clip260)" style="stroke:#000000; stroke-linecap:round; stroke-linejoin:round; stroke-width:4; stroke-opacity:1; fill:none" points="995.514,1800.78 995.514,1781.88 "/>
<polyline clip-path="url(#clip260)" style="stroke:#000000; stroke-linecap:round; stroke-linejoin:round; stroke-width:4; stroke-opacity:1; fill:none" points="1440.58,1800.78 1440.58,1781.88 "/>
<polyline clip-path="url(#clip260)" style="stroke:#000000; stroke-linecap:round; stroke-linejoin:round; stroke-width:4; stroke-opacity:1; fill:none" points="1885.64,1800.78 1885.64,1781.88 "/>
<polyline clip-path="url(#clip260)" style="stroke:#000000; stroke-linecap:round; stroke-linejoin:round; stroke-width:4; stroke-opacity:1; fill:none" points="2330.71,1800.78 2330.71,1781.88 "/>
<path clip-path="url(#clip260)" d="M443.494 1840.32 L443.494 1844.35 Q441.688 1843.42 439.744 1842.96 Q437.799 1842.5 435.716 1842.5 Q432.545 1842.5 430.948 1843.47 Q429.374 1844.44 429.374 1846.39 Q429.374 1847.87 430.508 1848.72 Q431.642 1849.56 435.068 1850.32 L436.526 1850.65 Q441.063 1851.62 442.961 1853.4 Q444.883 1855.16 444.883 1858.33 Q444.883 1861.94 442.012 1864.05 Q439.165 1866.15 434.165 1866.15 Q432.082 1866.15 429.813 1865.74 Q427.568 1865.34 425.068 1864.53 L425.068 1860.14 Q427.429 1861.36 429.721 1861.99 Q432.012 1862.59 434.258 1862.59 Q437.267 1862.59 438.887 1861.57 Q440.508 1860.53 440.508 1858.65 Q440.508 1856.92 439.327 1855.99 Q438.17 1855.07 434.211 1854.21 L432.73 1853.86 Q428.772 1853.03 427.012 1851.32 Q425.253 1849.58 425.253 1846.57 Q425.253 1842.91 427.846 1840.92 Q430.438 1838.93 435.207 1838.93 Q437.568 1838.93 439.651 1839.28 Q441.735 1839.63 443.494 1840.32 Z" fill="#000000" fill-rule="nonzero" fill-opacity="1" /><path clip-path="url(#clip260)" d="M473.841 1851.46 L473.841 1853.54 L454.258 1853.54 Q454.535 1857.94 456.897 1860.25 Q459.281 1862.54 463.517 1862.54 Q465.971 1862.54 468.262 1861.94 Q470.577 1861.34 472.846 1860.14 L472.846 1864.16 Q470.554 1865.14 468.147 1865.65 Q465.739 1866.15 463.262 1866.15 Q457.059 1866.15 453.424 1862.54 Q449.813 1858.93 449.813 1852.78 Q449.813 1846.41 453.239 1842.68 Q456.688 1838.93 462.522 1838.93 Q467.753 1838.93 470.785 1842.31 Q473.841 1845.67 473.841 1851.46 M469.582 1850.21 Q469.535 1846.71 467.614 1844.63 Q465.716 1842.54 462.568 1842.54 Q459.003 1842.54 456.85 1844.56 Q454.721 1846.57 454.397 1850.23 L469.582 1850.21 Z" fill="#000000" fill-rule="nonzero" fill-opacity="1" /><path clip-path="url(#clip260)" d="M503.007 1851.46 L503.007 1853.54 L483.424 1853.54 Q483.702 1857.94 486.063 1860.25 Q488.447 1862.54 492.683 1862.54 Q495.137 1862.54 497.429 1861.94 Q499.744 1861.34 502.012 1860.14 L502.012 1864.16 Q499.72 1865.14 497.313 1865.65 Q494.906 1866.15 492.429 1866.15 Q486.225 1866.15 482.591 1862.54 Q478.98 1858.93 478.98 1852.78 Q478.98 1846.41 482.406 1842.68 Q485.855 1838.93 491.688 1838.93 Q496.919 1838.93 499.952 1842.31 Q503.007 1845.67 503.007 1851.46 M498.748 1850.21 Q498.702 1846.71 496.781 1844.63 Q494.882 1842.54 491.734 1842.54 Q488.17 1842.54 486.017 1844.56 Q483.887 1846.57 483.563 1850.23 L498.748 1850.21 Z" fill="#000000" fill-rule="nonzero" fill-opacity="1" /><path clip-path="url(#clip260)" d="M527.058 1843.49 L527.058 1829.46 L531.317 1829.46 L531.317 1865.48 L527.058 1865.48 L527.058 1861.59 Q525.716 1863.91 523.655 1865.04 Q521.618 1866.15 518.748 1866.15 Q514.049 1866.15 511.086 1862.4 Q508.146 1858.65 508.146 1852.54 Q508.146 1846.43 511.086 1842.68 Q514.049 1838.93 518.748 1838.93 Q521.618 1838.93 523.655 1840.07 Q525.716 1841.18 527.058 1843.49 M512.544 1852.54 Q512.544 1857.24 514.466 1859.93 Q516.41 1862.59 519.79 1862.59 Q523.169 1862.59 525.114 1859.93 Q527.058 1857.24 527.058 1852.54 Q527.058 1847.84 525.114 1845.18 Q523.169 1842.5 519.79 1842.5 Q516.41 1842.5 514.466 1845.18 Q512.544 1847.84 512.544 1852.54 Z" fill="#000000" fill-rule="nonzero" fill-opacity="1" /><path clip-path="url(#clip260)" d="M559.79 1873.35 L559.79 1876.66 L535.16 1876.66 L535.16 1873.35 L559.79 1873.35 Z" fill="#000000" fill-rule="nonzero" fill-opacity="1" /><path clip-path="url(#clip260)" d="M582.405 1852.54 Q582.405 1847.84 580.461 1845.18 Q578.539 1842.5 575.16 1842.5 Q571.78 1842.5 569.836 1845.18 Q567.914 1847.84 567.914 1852.54 Q567.914 1857.24 569.836 1859.93 Q571.78 1862.59 575.16 1862.59 Q578.539 1862.59 580.461 1859.93 Q582.405 1857.24 582.405 1852.54 M567.914 1843.49 Q569.257 1841.18 571.294 1840.07 Q573.354 1838.93 576.201 1838.93 Q580.924 1838.93 583.863 1842.68 Q586.826 1846.43 586.826 1852.54 Q586.826 1858.65 583.863 1862.4 Q580.924 1866.15 576.201 1866.15 Q573.354 1866.15 571.294 1865.04 Q569.257 1863.91 567.914 1861.59 L567.914 1865.48 L563.632 1865.48 L563.632 1829.46 L567.914 1829.46 L567.914 1843.49 Z" fill="#000000" fill-rule="nonzero" fill-opacity="1" /><path clip-path="url(#clip260)" d="M605.669 1852.45 Q600.507 1852.45 598.516 1853.63 Q596.525 1854.81 596.525 1857.66 Q596.525 1859.93 598.007 1861.27 Q599.512 1862.59 602.081 1862.59 Q605.623 1862.59 607.752 1860.09 Q609.905 1857.57 609.905 1853.4 L609.905 1852.45 L605.669 1852.45 M614.164 1850.69 L614.164 1865.48 L609.905 1865.48 L609.905 1861.55 Q608.447 1863.91 606.271 1865.04 Q604.095 1866.15 600.947 1866.15 Q596.965 1866.15 594.604 1863.93 Q592.266 1861.69 592.266 1857.94 Q592.266 1853.56 595.183 1851.34 Q598.123 1849.12 603.933 1849.12 L609.905 1849.12 L609.905 1848.7 Q609.905 1845.76 607.961 1844.16 Q606.039 1842.54 602.544 1842.54 Q600.322 1842.54 598.215 1843.08 Q596.109 1843.61 594.164 1844.67 L594.164 1840.74 Q596.502 1839.84 598.701 1839.4 Q600.9 1838.93 602.984 1838.93 Q608.609 1838.93 611.386 1841.85 Q614.164 1844.77 614.164 1850.69 Z" fill="#000000" fill-rule="nonzero" fill-opacity="1" /><path clip-path="url(#clip260)" d="M644.488 1849.84 L644.488 1865.48 L640.229 1865.48 L640.229 1849.97 Q640.229 1846.29 638.794 1844.46 Q637.359 1842.64 634.488 1842.64 Q631.039 1842.64 629.048 1844.84 Q627.058 1847.03 627.058 1850.83 L627.058 1865.48 L622.775 1865.48 L622.775 1839.56 L627.058 1839.56 L627.058 1843.59 Q628.585 1841.25 630.646 1840.09 Q632.729 1838.93 635.437 1838.93 Q639.905 1838.93 642.196 1841.71 Q644.488 1844.46 644.488 1849.84 Z" fill="#000000" fill-rule="nonzero" fill-opacity="1" /><path clip-path="url(#clip260)" d="M652.821 1829.46 L657.104 1829.46 L657.104 1850.74 L669.812 1839.56 L675.252 1839.56 L661.502 1851.69 L675.831 1865.48 L670.275 1865.48 L657.104 1852.82 L657.104 1865.48 L652.821 1865.48 L652.821 1829.46 Z" fill="#000000" fill-rule="nonzero" fill-opacity="1" /><path clip-path="url(#clip260)" d="M917.574 1840.32 L917.574 1844.35 Q915.769 1843.42 913.824 1842.96 Q911.88 1842.5 909.796 1842.5 Q906.625 1842.5 905.028 1843.47 Q903.454 1844.44 903.454 1846.39 Q903.454 1847.87 904.588 1848.72 Q905.722 1849.56 909.148 1850.32 L910.607 1850.65 Q915.144 1851.62 917.042 1853.4 Q918.963 1855.16 918.963 1858.33 Q918.963 1861.94 916.093 1864.05 Q913.245 1866.15 908.246 1866.15 Q906.162 1866.15 903.894 1865.74 Q901.648 1865.34 899.148 1864.53 L899.148 1860.14 Q901.509 1861.36 903.801 1861.99 Q906.093 1862.59 908.338 1862.59 Q911.347 1862.59 912.968 1861.57 Q914.588 1860.53 914.588 1858.65 Q914.588 1856.92 913.408 1855.99 Q912.25 1855.07 908.292 1854.21 L906.81 1853.86 Q902.852 1853.03 901.093 1851.32 Q899.334 1849.58 899.334 1846.57 Q899.334 1842.91 901.926 1840.92 Q904.519 1838.93 909.287 1838.93 Q911.648 1838.93 913.732 1839.28 Q915.815 1839.63 917.574 1840.32 Z" fill="#000000" fill-rule="nonzero" fill-opacity="1" /><path clip-path="url(#clip260)" d="M947.921 1851.46 L947.921 1853.54 L928.338 1853.54 Q928.616 1857.94 930.977 1860.25 Q933.361 1862.54 937.597 1862.54 Q940.051 1862.54 942.343 1861.94 Q944.657 1861.34 946.926 1860.14 L946.926 1864.16 Q944.634 1865.14 942.227 1865.65 Q939.819 1866.15 937.343 1866.15 Q931.139 1866.15 927.505 1862.54 Q923.894 1858.93 923.894 1852.78 Q923.894 1846.41 927.319 1842.68 Q930.769 1838.93 936.602 1838.93 Q941.833 1838.93 944.866 1842.31 Q947.921 1845.67 947.921 1851.46 M943.662 1850.21 Q943.616 1846.71 941.694 1844.63 Q939.796 1842.54 936.648 1842.54 Q933.083 1842.54 930.931 1844.56 Q928.801 1846.57 928.477 1850.23 L943.662 1850.21 Z" fill="#000000" fill-rule="nonzero" fill-opacity="1" /><path clip-path="url(#clip260)" d="M977.088 1851.46 L977.088 1853.54 L957.505 1853.54 Q957.782 1857.94 960.143 1860.25 Q962.528 1862.54 966.764 1862.54 Q969.217 1862.54 971.509 1861.94 Q973.824 1861.34 976.092 1860.14 L976.092 1864.16 Q973.801 1865.14 971.393 1865.65 Q968.986 1866.15 966.509 1866.15 Q960.305 1866.15 956.671 1862.54 Q953.06 1858.93 953.06 1852.78 Q953.06 1846.41 956.486 1842.68 Q959.935 1838.93 965.768 1838.93 Q971 1838.93 974.032 1842.31 Q977.088 1845.67 977.088 1851.46 M972.828 1850.21 Q972.782 1846.71 970.861 1844.63 Q968.963 1842.54 965.815 1842.54 Q962.25 1842.54 960.097 1844.56 Q957.967 1846.57 957.643 1850.23 L972.828 1850.21 Z" fill="#000000" fill-rule="nonzero" fill-opacity="1" /><path clip-path="url(#clip260)" d="M1001.14 1843.49 L1001.14 1829.46 L1005.4 1829.46 L1005.4 1865.48 L1001.14 1865.48 L1001.14 1861.59 Q999.796 1863.91 997.736 1865.04 Q995.699 1866.15 992.828 1866.15 Q988.129 1866.15 985.166 1862.4 Q982.227 1858.65 982.227 1852.54 Q982.227 1846.43 985.166 1842.68 Q988.129 1838.93 992.828 1838.93 Q995.699 1838.93 997.736 1840.07 Q999.796 1841.18 1001.14 1843.49 M986.625 1852.54 Q986.625 1857.24 988.546 1859.93 Q990.49 1862.59 993.87 1862.59 Q997.25 1862.59 999.194 1859.93 Q1001.14 1857.24 1001.14 1852.54 Q1001.14 1847.84 999.194 1845.18 Q997.25 1842.5 993.87 1842.5 Q990.49 1842.5 988.546 1845.18 Q986.625 1847.84 986.625 1852.54 Z" fill="#000000" fill-rule="nonzero" fill-opacity="1" /><path clip-path="url(#clip260)" d="M1014.17 1829.46 L1018.43 1829.46 L1018.43 1865.48 L1014.17 1865.48 L1014.17 1829.46 Z" fill="#000000" fill-rule="nonzero" fill-opacity="1" /><path clip-path="url(#clip260)" d="M1027.34 1839.56 L1031.6 1839.56 L1031.6 1865.48 L1027.34 1865.48 L1027.34 1839.56 M1027.34 1829.46 L1031.6 1829.46 L1031.6 1834.86 L1027.34 1834.86 L1027.34 1829.46 Z" fill="#000000" fill-rule="nonzero" fill-opacity="1" /><path clip-path="url(#clip260)" d="M1062.06 1849.84 L1062.06 1865.48 L1057.8 1865.48 L1057.8 1849.97 Q1057.8 1846.29 1056.37 1844.46 Q1054.93 1842.64 1052.06 1842.64 Q1048.62 1842.64 1046.62 1844.84 Q1044.63 1847.03 1044.63 1850.83 L1044.63 1865.48 L1040.35 1865.48 L1040.35 1839.56 L1044.63 1839.56 L1044.63 1843.59 Q1046.16 1841.25 1048.22 1840.09 Q1050.3 1838.93 1053.01 1838.93 Q1057.48 1838.93 1059.77 1841.71 Q1062.06 1844.46 1062.06 1849.84 Z" fill="#000000" fill-rule="nonzero" fill-opacity="1" /><path clip-path="url(#clip260)" d="M1087.62 1852.22 Q1087.62 1847.59 1085.7 1845.04 Q1083.8 1842.5 1080.35 1842.5 Q1076.93 1842.5 1075 1845.04 Q1073.11 1847.59 1073.11 1852.22 Q1073.11 1856.83 1075 1859.37 Q1076.93 1861.92 1080.35 1861.92 Q1083.8 1861.92 1085.7 1859.37 Q1087.62 1856.83 1087.62 1852.22 M1091.88 1862.27 Q1091.88 1868.89 1088.94 1872.1 Q1086 1875.34 1079.93 1875.34 Q1077.69 1875.34 1075.7 1875 Q1073.71 1874.67 1071.83 1873.98 L1071.83 1869.84 Q1073.71 1870.85 1075.54 1871.34 Q1077.36 1871.83 1079.26 1871.83 Q1083.45 1871.83 1085.54 1869.63 Q1087.62 1867.45 1087.62 1863.03 L1087.62 1860.92 Q1086.3 1863.21 1084.24 1864.35 Q1082.18 1865.48 1079.31 1865.48 Q1074.54 1865.48 1071.62 1861.85 Q1068.71 1858.21 1068.71 1852.22 Q1068.71 1846.2 1071.62 1842.57 Q1074.54 1838.93 1079.31 1838.93 Q1082.18 1838.93 1084.24 1840.07 Q1086.3 1841.2 1087.62 1843.49 L1087.62 1839.56 L1091.88 1839.56 L1091.88 1862.27 Z" fill="#000000" fill-rule="nonzero" fill-opacity="1" /><path clip-path="url(#clip260)" d="M1399.37 1840.32 L1399.37 1844.35 Q1397.57 1843.42 1395.62 1842.96 Q1393.68 1842.5 1391.6 1842.5 Q1388.43 1842.5 1386.83 1843.47 Q1385.25 1844.44 1385.25 1846.39 Q1385.25 1847.87 1386.39 1848.72 Q1387.52 1849.56 1390.95 1850.32 L1392.41 1850.65 Q1396.94 1851.62 1398.84 1853.4 Q1400.76 1855.16 1400.76 1858.33 Q1400.76 1861.94 1397.89 1864.05 Q1395.05 1866.15 1390.05 1866.15 Q1387.96 1866.15 1385.69 1865.74 Q1383.45 1865.34 1380.95 1864.53 L1380.95 1860.14 Q1383.31 1861.36 1385.6 1861.99 Q1387.89 1862.59 1390.14 1862.59 Q1393.15 1862.59 1394.77 1861.57 Q1396.39 1860.53 1396.39 1858.65 Q1396.39 1856.92 1395.21 1855.99 Q1394.05 1855.07 1390.09 1854.21 L1388.61 1853.86 Q1384.65 1853.03 1382.89 1851.32 Q1381.13 1849.58 1381.13 1846.57 Q1381.13 1842.91 1383.73 1840.92 Q1386.32 1838.93 1391.09 1838.93 Q1393.45 1838.93 1395.53 1839.28 Q1397.62 1839.63 1399.37 1840.32 Z" fill="#000000" fill-rule="nonzero" fill-opacity="1" /><path clip-path="url(#clip260)" d="M1427.73 1844.53 Q1429.33 1841.66 1431.55 1840.3 Q1433.77 1838.93 1436.78 1838.93 Q1440.83 1838.93 1443.03 1841.78 Q1445.23 1844.6 1445.23 1849.84 L1445.23 1865.48 L1440.95 1865.48 L1440.95 1849.97 Q1440.95 1846.25 1439.63 1844.44 Q1438.31 1842.64 1435.6 1842.64 Q1432.29 1842.64 1430.37 1844.84 Q1428.45 1847.03 1428.45 1850.83 L1428.45 1865.48 L1424.17 1865.48 L1424.17 1849.97 Q1424.17 1846.22 1422.85 1844.44 Q1421.53 1842.64 1418.77 1842.64 Q1415.51 1842.64 1413.59 1844.86 Q1411.67 1847.06 1411.67 1850.83 L1411.67 1865.48 L1407.38 1865.48 L1407.38 1839.56 L1411.67 1839.56 L1411.67 1843.59 Q1413.12 1841.2 1415.16 1840.07 Q1417.2 1838.93 1420 1838.93 Q1422.82 1838.93 1424.79 1840.37 Q1426.78 1841.8 1427.73 1844.53 Z" fill="#000000" fill-rule="nonzero" fill-opacity="1" /><path clip-path="url(#clip260)" d="M1465.51 1852.45 Q1460.35 1852.45 1458.36 1853.63 Q1456.36 1854.81 1456.36 1857.66 Q1456.36 1859.93 1457.85 1861.27 Q1459.35 1862.59 1461.92 1862.59 Q1465.46 1862.59 1467.59 1860.09 Q1469.74 1857.57 1469.74 1853.4 L1469.74 1852.45 L1465.51 1852.45 M1474 1850.69 L1474 1865.48 L1469.74 1865.48 L1469.74 1861.55 Q1468.29 1863.91 1466.11 1865.04 Q1463.93 1866.15 1460.79 1866.15 Q1456.8 1866.15 1454.44 1863.93 Q1452.11 1861.69 1452.11 1857.94 Q1452.11 1853.56 1455.02 1851.34 Q1457.96 1849.12 1463.77 1849.12 L1469.74 1849.12 L1469.74 1848.7 Q1469.74 1845.76 1467.8 1844.16 Q1465.88 1842.54 1462.38 1842.54 Q1460.16 1842.54 1458.05 1843.08 Q1455.95 1843.61 1454 1844.67 L1454 1840.74 Q1456.34 1839.84 1458.54 1839.4 Q1460.74 1838.93 1462.82 1838.93 Q1468.45 1838.93 1471.23 1841.85 Q1474 1844.77 1474 1850.69 Z" fill="#000000" fill-rule="nonzero" fill-opacity="1" /><path clip-path="url(#clip260)" d="M1482.78 1829.46 L1487.04 1829.46 L1487.04 1865.48 L1482.78 1865.48 L1482.78 1829.46 Z" fill="#000000" fill-rule="nonzero" fill-opacity="1" /><path clip-path="url(#clip260)" d="M1495.95 1829.46 L1500.21 1829.46 L1500.21 1865.48 L1495.95 1865.48 L1495.95 1829.46 Z" fill="#000000" fill-rule="nonzero" fill-opacity="1" /><path clip-path="url(#clip260)" d="M1829.07 1829.46 L1833.33 1829.46 L1833.33 1865.48 L1829.07 1865.48 L1829.07 1829.46 Z" fill="#000000" fill-rule="nonzero" fill-opacity="1" /><path clip-path="url(#clip260)" d="M1854.02 1852.45 Q1848.86 1852.45 1846.87 1853.63 Q1844.88 1854.81 1844.88 1857.66 Q1844.88 1859.93 1846.36 1861.27 Q1847.86 1862.59 1850.43 1862.59 Q1853.98 1862.59 1856.11 1860.09 Q1858.26 1857.57 1858.26 1853.4 L1858.26 1852.45 L1854.02 1852.45 M1862.52 1850.69 L1862.52 1865.48 L1858.26 1865.48 L1858.26 1861.55 Q1856.8 1863.91 1854.62 1865.04 Q1852.45 1866.15 1849.3 1866.15 Q1845.32 1866.15 1842.96 1863.93 Q1840.62 1861.69 1840.62 1857.94 Q1840.62 1853.56 1843.54 1851.34 Q1846.48 1849.12 1852.29 1849.12 L1858.26 1849.12 L1858.26 1848.7 Q1858.26 1845.76 1856.31 1844.16 Q1854.39 1842.54 1850.9 1842.54 Q1848.67 1842.54 1846.57 1843.08 Q1844.46 1843.61 1842.52 1844.67 L1842.52 1840.74 Q1844.86 1839.84 1847.05 1839.4 Q1849.25 1838.93 1851.34 1838.93 Q1856.96 1838.93 1859.74 1841.85 Q1862.52 1844.77 1862.52 1850.69 Z" fill="#000000" fill-rule="nonzero" fill-opacity="1" /><path clip-path="url(#clip260)" d="M1886.31 1843.54 Q1885.6 1843.12 1884.74 1842.94 Q1883.91 1842.73 1882.89 1842.73 Q1879.28 1842.73 1877.33 1845.09 Q1875.41 1847.43 1875.41 1851.83 L1875.41 1865.48 L1871.13 1865.48 L1871.13 1839.56 L1875.41 1839.56 L1875.41 1843.59 Q1876.75 1841.22 1878.91 1840.09 Q1881.06 1838.93 1884.14 1838.93 Q1884.58 1838.93 1885.11 1839 Q1885.64 1839.05 1886.29 1839.16 L1886.31 1843.54 Z" fill="#000000" fill-rule="nonzero" fill-opacity="1" /><path clip-path="url(#clip260)" d="M1907.01 1852.22 Q1907.01 1847.59 1905.09 1845.04 Q1903.19 1842.5 1899.74 1842.5 Q1896.31 1842.5 1894.39 1845.04 Q1892.49 1847.59 1892.49 1852.22 Q1892.49 1856.83 1894.39 1859.37 Q1896.31 1861.92 1899.74 1861.92 Q1903.19 1861.92 1905.09 1859.37 Q1907.01 1856.83 1907.01 1852.22 M1911.27 1862.27 Q1911.27 1868.89 1908.33 1872.1 Q1905.39 1875.34 1899.32 1875.34 Q1897.08 1875.34 1895.09 1875 Q1893.1 1874.67 1891.22 1873.98 L1891.22 1869.84 Q1893.1 1870.85 1894.92 1871.34 Q1896.75 1871.83 1898.65 1871.83 Q1902.84 1871.83 1904.92 1869.63 Q1907.01 1867.45 1907.01 1863.03 L1907.01 1860.92 Q1905.69 1863.21 1903.63 1864.35 Q1901.57 1865.48 1898.7 1865.48 Q1893.93 1865.48 1891.01 1861.85 Q1888.1 1858.21 1888.1 1852.22 Q1888.1 1846.2 1891.01 1842.57 Q1893.93 1838.93 1898.7 1838.93 Q1901.57 1838.93 1903.63 1840.07 Q1905.69 1841.2 1907.01 1843.49 L1907.01 1839.56 L1911.27 1839.56 L1911.27 1862.27 Z" fill="#000000" fill-rule="nonzero" fill-opacity="1" /><path clip-path="url(#clip260)" d="M1942.22 1851.46 L1942.22 1853.54 L1922.63 1853.54 Q1922.91 1857.94 1925.27 1860.25 Q1927.66 1862.54 1931.89 1862.54 Q1934.35 1862.54 1936.64 1861.94 Q1938.95 1861.34 1941.22 1860.14 L1941.22 1864.16 Q1938.93 1865.14 1936.52 1865.65 Q1934.11 1866.15 1931.64 1866.15 Q1925.43 1866.15 1921.8 1862.54 Q1918.19 1858.93 1918.19 1852.78 Q1918.19 1846.41 1921.61 1842.68 Q1925.06 1838.93 1930.9 1838.93 Q1936.13 1838.93 1939.16 1842.31 Q1942.22 1845.67 1942.22 1851.46 M1937.96 1850.21 Q1937.91 1846.71 1935.99 1844.63 Q1934.09 1842.54 1930.94 1842.54 Q1927.38 1842.54 1925.23 1844.56 Q1923.1 1846.57 1922.77 1850.23 L1937.96 1850.21 Z" fill="#000000" fill-rule="nonzero" fill-opacity="1" /><path clip-path="url(#clip260)" d="M2240.1 1829.46 L2240.1 1833.01 L2236.03 1833.01 Q2233.74 1833.01 2232.84 1833.93 Q2231.96 1834.86 2231.96 1837.27 L2231.96 1839.56 L2238.97 1839.56 L2238.97 1842.87 L2231.96 1842.87 L2231.96 1865.48 L2227.67 1865.48 L2227.67 1842.87 L2223.6 1842.87 L2223.6 1839.56 L2227.67 1839.56 L2227.67 1837.75 Q2227.67 1833.42 2229.69 1831.46 Q2231.7 1829.46 2236.08 1829.46 L2240.1 1829.46 Z" fill="#000000" fill-rule="nonzero" fill-opacity="1" /><path clip-path="url(#clip260)" d="M2243.67 1829.46 L2247.93 1829.46 L2247.93 1865.48 L2243.67 1865.48 L2243.67 1829.46 Z" fill="#000000" fill-rule="nonzero" fill-opacity="1" /><path clip-path="url(#clip260)" d="M2266.89 1842.54 Q2263.46 1842.54 2261.47 1845.23 Q2259.48 1847.89 2259.48 1852.54 Q2259.48 1857.2 2261.45 1859.88 Q2263.44 1862.54 2266.89 1862.54 Q2270.29 1862.54 2272.28 1859.86 Q2274.27 1857.17 2274.27 1852.54 Q2274.27 1847.94 2272.28 1845.25 Q2270.29 1842.54 2266.89 1842.54 M2266.89 1838.93 Q2272.44 1838.93 2275.61 1842.54 Q2278.79 1846.15 2278.79 1852.54 Q2278.79 1858.91 2275.61 1862.54 Q2272.44 1866.15 2266.89 1866.15 Q2261.31 1866.15 2258.14 1862.54 Q2254.99 1858.91 2254.99 1852.54 Q2254.99 1846.15 2258.14 1842.54 Q2261.31 1838.93 2266.89 1838.93 Z" fill="#000000" fill-rule="nonzero" fill-opacity="1" /><path clip-path="url(#clip260)" d="M2283.37 1839.56 L2287.63 1839.56 L2292.95 1859.79 L2298.25 1839.56 L2303.28 1839.56 L2308.6 1859.79 L2313.9 1839.56 L2318.16 1839.56 L2311.38 1865.48 L2306.35 1865.48 L2300.78 1844.23 L2295.17 1865.48 L2290.15 1865.48 L2283.37 1839.56 Z" fill="#000000" fill-rule="nonzero" fill-opacity="1" /><path clip-path="url(#clip260)" d="M2346.79 1851.46 L2346.79 1853.54 L2327.21 1853.54 Q2327.49 1857.94 2329.85 1860.25 Q2332.23 1862.54 2336.47 1862.54 Q2338.92 1862.54 2341.22 1861.94 Q2343.53 1861.34 2345.8 1860.14 L2345.8 1864.16 Q2343.51 1865.14 2341.1 1865.65 Q2338.69 1866.15 2336.22 1866.15 Q2330.01 1866.15 2326.38 1862.54 Q2322.77 1858.93 2322.77 1852.78 Q2322.77 1846.41 2326.19 1842.68 Q2329.64 1838.93 2335.47 1838.93 Q2340.71 1838.93 2343.74 1842.31 Q2346.79 1845.67 2346.79 1851.46 M2342.53 1850.21 Q2342.49 1846.71 2340.57 1844.63 Q2338.67 1842.54 2335.52 1842.54 Q2331.96 1842.54 2329.8 1844.56 Q2327.67 1846.57 2327.35 1850.23 L2342.53 1850.21 Z" fill="#000000" fill-rule="nonzero" fill-opacity="1" /><path clip-path="url(#clip260)" d="M2368.81 1843.54 Q2368.09 1843.12 2367.23 1842.94 Q2366.4 1842.73 2365.38 1842.73 Q2361.77 1842.73 2359.83 1845.09 Q2357.91 1847.43 2357.91 1851.83 L2357.91 1865.48 L2353.62 1865.48 L2353.62 1839.56 L2357.91 1839.56 L2357.91 1843.59 Q2359.25 1841.22 2361.4 1840.09 Q2363.55 1838.93 2366.63 1838.93 Q2367.07 1838.93 2367.6 1839 Q2368.14 1839.05 2368.78 1839.16 L2368.81 1843.54 Z" fill="#000000" fill-rule="nonzero" fill-opacity="1" /><path clip-path="url(#clip260)" d="M2373.28 1839.56 L2377.53 1839.56 L2377.53 1865.48 L2373.28 1865.48 L2373.28 1839.56 M2373.28 1829.46 L2377.53 1829.46 L2377.53 1834.86 L2373.28 1834.86 L2373.28 1829.46 Z" fill="#000000" fill-rule="nonzero" fill-opacity="1" /><path clip-path="url(#clip260)" d="M2408 1849.84 L2408 1865.48 L2403.74 1865.48 L2403.74 1849.97 Q2403.74 1846.29 2402.3 1844.46 Q2400.87 1842.64 2398 1842.64 Q2394.55 1842.64 2392.56 1844.84 Q2390.57 1847.03 2390.57 1850.83 L2390.57 1865.48 L2386.28 1865.48 L2386.28 1839.56 L2390.57 1839.56 L2390.57 1843.59 Q2392.09 1841.25 2394.16 1840.09 Q2396.24 1838.93 2398.95 1838.93 Q2403.41 1838.93 2405.71 1841.71 Q2408 1844.46 2408 1849.84 Z" fill="#000000" fill-rule="nonzero" fill-opacity="1" /><path clip-path="url(#clip260)" d="M2433.55 1852.22 Q2433.55 1847.59 2431.63 1845.04 Q2429.73 1842.5 2426.28 1842.5 Q2422.86 1842.5 2420.94 1845.04 Q2419.04 1847.59 2419.04 1852.22 Q2419.04 1856.83 2420.94 1859.37 Q2422.86 1861.92 2426.28 1861.92 Q2429.73 1861.92 2431.63 1859.37 Q2433.55 1856.83 2433.55 1852.22 M2437.81 1862.27 Q2437.81 1868.89 2434.87 1872.1 Q2431.93 1875.34 2425.87 1875.34 Q2423.62 1875.34 2421.63 1875 Q2419.64 1874.67 2417.77 1873.98 L2417.77 1869.84 Q2419.64 1870.85 2421.47 1871.34 Q2423.3 1871.83 2425.2 1871.83 Q2429.39 1871.83 2431.47 1869.63 Q2433.55 1867.45 2433.55 1863.03 L2433.55 1860.92 Q2432.23 1863.21 2430.17 1864.35 Q2428.11 1865.48 2425.24 1865.48 Q2420.47 1865.48 2417.56 1861.85 Q2414.64 1858.21 2414.64 1852.22 Q2414.64 1846.2 2417.56 1842.57 Q2420.47 1838.93 2425.24 1838.93 Q2428.11 1838.93 2430.17 1840.07 Q2432.23 1841.2 2433.55 1843.49 L2433.55 1839.56 L2437.81 1839.56 L2437.81 1862.27 Z" fill="#000000" fill-rule="nonzero" fill-opacity="1" /><polyline clip-path="url(#clip260)" style="stroke:#000000; stroke-linecap:round; stroke-linejoin:round; stroke-width:4; stroke-opacity:1; fill:none" points="240.4,1800.78 240.4,127.792 "/>
<polyline clip-path="url(#clip260)" style="stroke:#000000; stroke-linecap:round; stroke-linejoin:round; stroke-width:4; stroke-opacity:1; fill:none" points="240.4,1800.78 259.297,1800.78 "/>
<polyline clip-path="url(#clip260)" style="stroke:#000000; stroke-linecap:round; stroke-linejoin:round; stroke-width:4; stroke-opacity:1; fill:none" points="240.4,1508.01 259.297,1508.01 "/>
<polyline clip-path="url(#clip260)" style="stroke:#000000; stroke-linecap:round; stroke-linejoin:round; stroke-width:4; stroke-opacity:1; fill:none" points="240.4,1215.23 259.297,1215.23 "/>
<polyline clip-path="url(#clip260)" style="stroke:#000000; stroke-linecap:round; stroke-linejoin:round; stroke-width:4; stroke-opacity:1; fill:none" points="240.4,922.461 259.297,922.461 "/>
<polyline clip-path="url(#clip260)" style="stroke:#000000; stroke-linecap:round; stroke-linejoin:round; stroke-width:4; stroke-opacity:1; fill:none" points="240.4,629.688 259.297,629.688 "/>
<polyline clip-path="url(#clip260)" style="stroke:#000000; stroke-linecap:round; stroke-linejoin:round; stroke-width:4; stroke-opacity:1; fill:none" points="240.4,336.916 259.297,336.916 "/>
<path clip-path="url(#clip260)" d="M188.135 1786.58 Q184.524 1786.58 182.696 1790.14 Q180.89 1793.68 180.89 1800.81 Q180.89 1807.92 182.696 1811.49 Q184.524 1815.03 188.135 1815.03 Q191.77 1815.03 193.575 1811.49 Q195.404 1807.92 195.404 1800.81 Q195.404 1793.68 193.575 1790.14 Q191.77 1786.58 188.135 1786.58 M188.135 1782.87 Q193.946 1782.87 197.001 1787.48 Q200.08 1792.06 200.08 1800.81 Q200.08 1809.54 197.001 1814.15 Q193.946 1818.73 188.135 1818.73 Q182.325 1818.73 179.247 1814.15 Q176.191 1809.54 176.191 1800.81 Q176.191 1792.06 179.247 1787.48 Q182.325 1782.87 188.135 1782.87 Z" fill="#000000" fill-rule="nonzero" fill-opacity="1" /><path clip-path="url(#clip260)" d="M148.02 1490.73 L166.376 1490.73 L166.376 1494.66 L152.302 1494.66 L152.302 1503.13 Q153.321 1502.79 154.339 1502.62 Q155.358 1502.44 156.376 1502.44 Q162.163 1502.44 165.543 1505.61 Q168.922 1508.78 168.922 1514.2 Q168.922 1519.78 165.45 1522.88 Q161.978 1525.96 155.659 1525.96 Q153.483 1525.96 151.214 1525.59 Q148.969 1525.22 146.562 1524.48 L146.562 1519.78 Q148.645 1520.91 150.867 1521.47 Q153.089 1522.02 155.566 1522.02 Q159.571 1522.02 161.909 1519.92 Q164.247 1517.81 164.247 1514.2 Q164.247 1510.59 161.909 1508.48 Q159.571 1506.37 155.566 1506.37 Q153.691 1506.37 151.816 1506.79 Q149.964 1507.21 148.02 1508.09 L148.02 1490.73 Z" fill="#000000" fill-rule="nonzero" fill-opacity="1" /><path clip-path="url(#clip260)" d="M188.135 1493.81 Q184.524 1493.81 182.696 1497.37 Q180.89 1500.91 180.89 1508.04 Q180.89 1515.15 182.696 1518.71 Q184.524 1522.25 188.135 1522.25 Q191.77 1522.25 193.575 1518.71 Q195.404 1515.15 195.404 1508.04 Q195.404 1500.91 193.575 1497.37 Q191.77 1493.81 188.135 1493.81 M188.135 1490.1 Q193.946 1490.1 197.001 1494.71 Q200.08 1499.29 200.08 1508.04 Q200.08 1516.77 197.001 1521.37 Q193.946 1525.96 188.135 1525.96 Q182.325 1525.96 179.247 1521.37 Q176.191 1516.77 176.191 1508.04 Q176.191 1499.29 179.247 1494.71 Q182.325 1490.1 188.135 1490.1 Z" fill="#000000" fill-rule="nonzero" fill-opacity="1" /><path clip-path="url(#clip260)" d="M118.622 1228.58 L126.261 1228.58 L126.261 1202.21 L117.951 1203.88 L117.951 1199.62 L126.214 1197.95 L130.89 1197.95 L130.89 1228.58 L138.529 1228.58 L138.529 1232.51 L118.622 1232.51 L118.622 1228.58 Z" fill="#000000" fill-rule="nonzero" fill-opacity="1" /><path clip-path="url(#clip260)" d="M157.973 1201.03 Q154.362 1201.03 152.534 1204.6 Q150.728 1208.14 150.728 1215.27 Q150.728 1222.37 152.534 1225.94 Q154.362 1229.48 157.973 1229.48 Q161.608 1229.48 163.413 1225.94 Q165.242 1222.37 165.242 1215.27 Q165.242 1208.14 163.413 1204.6 Q161.608 1201.03 157.973 1201.03 M157.973 1197.33 Q163.784 1197.33 166.839 1201.94 Q169.918 1206.52 169.918 1215.27 Q169.918 1224 166.839 1228.6 Q163.784 1233.19 157.973 1233.19 Q152.163 1233.19 149.085 1228.6 Q146.029 1224 146.029 1215.27 Q146.029 1206.52 149.085 1201.94 Q152.163 1197.33 157.973 1197.33 Z" fill="#000000" fill-rule="nonzero" fill-opacity="1" /><path clip-path="url(#clip260)" d="M188.135 1201.03 Q184.524 1201.03 182.696 1204.6 Q180.89 1208.14 180.89 1215.27 Q180.89 1222.37 182.696 1225.94 Q184.524 1229.48 188.135 1229.48 Q191.77 1229.48 193.575 1225.94 Q195.404 1222.37 195.404 1215.27 Q195.404 1208.14 193.575 1204.6 Q191.77 1201.03 188.135 1201.03 M188.135 1197.33 Q193.946 1197.33 197.001 1201.94 Q200.08 1206.52 200.08 1215.27 Q200.08 1224 197.001 1228.6 Q193.946 1233.19 188.135 1233.19 Q182.325 1233.19 179.247 1228.6 Q176.191 1224 176.191 1215.27 Q176.191 1206.52 179.247 1201.94 Q182.325 1197.33 188.135 1197.33 Z" fill="#000000" fill-rule="nonzero" fill-opacity="1" /><path clip-path="url(#clip260)" d="M118.622 935.806 L126.261 935.806 L126.261 909.44 L117.951 911.107 L117.951 906.848 L126.214 905.181 L130.89 905.181 L130.89 935.806 L138.529 935.806 L138.529 939.741 L118.622 939.741 L118.622 935.806 Z" fill="#000000" fill-rule="nonzero" fill-opacity="1" /><path clip-path="url(#clip260)" d="M148.02 905.181 L166.376 905.181 L166.376 909.116 L152.302 909.116 L152.302 917.588 Q153.321 917.241 154.339 917.079 Q155.358 916.894 156.376 916.894 Q162.163 916.894 165.543 920.065 Q168.922 923.236 168.922 928.653 Q168.922 934.232 165.45 937.334 Q161.978 940.412 155.659 940.412 Q153.483 940.412 151.214 940.042 Q148.969 939.672 146.562 938.931 L146.562 934.232 Q148.645 935.366 150.867 935.922 Q153.089 936.477 155.566 936.477 Q159.571 936.477 161.909 934.371 Q164.247 932.264 164.247 928.653 Q164.247 925.042 161.909 922.936 Q159.571 920.829 155.566 920.829 Q153.691 920.829 151.816 921.246 Q149.964 921.662 148.02 922.542 L148.02 905.181 Z" fill="#000000" fill-rule="nonzero" fill-opacity="1" /><path clip-path="url(#clip260)" d="M188.135 908.26 Q184.524 908.26 182.696 911.825 Q180.89 915.366 180.89 922.496 Q180.89 929.602 182.696 933.167 Q184.524 936.709 188.135 936.709 Q191.77 936.709 193.575 933.167 Q195.404 929.602 195.404 922.496 Q195.404 915.366 193.575 911.825 Q191.77 908.26 188.135 908.26 M188.135 904.556 Q193.946 904.556 197.001 909.162 Q200.08 913.746 200.08 922.496 Q200.08 931.223 197.001 935.829 Q193.946 940.412 188.135 940.412 Q182.325 940.412 179.247 935.829 Q176.191 931.223 176.191 922.496 Q176.191 913.746 179.247 909.162 Q182.325 904.556 188.135 904.556 Z" fill="#000000" fill-rule="nonzero" fill-opacity="1" /><path clip-path="url(#clip260)" d="M121.839 643.033 L138.159 643.033 L138.159 646.968 L116.214 646.968 L116.214 643.033 Q118.876 640.278 123.46 635.649 Q128.066 630.996 129.247 629.654 Q131.492 627.13 132.372 625.394 Q133.275 623.635 133.275 621.945 Q133.275 619.191 131.33 617.455 Q129.409 615.718 126.307 615.718 Q124.108 615.718 121.654 616.482 Q119.224 617.246 116.446 618.797 L116.446 614.075 Q119.27 612.941 121.724 612.362 Q124.177 611.783 126.214 611.783 Q131.585 611.783 134.779 614.468 Q137.974 617.154 137.974 621.644 Q137.974 623.774 137.163 625.695 Q136.376 627.593 134.27 630.186 Q133.691 630.857 130.589 634.075 Q127.488 637.269 121.839 643.033 Z" fill="#000000" fill-rule="nonzero" fill-opacity="1" /><path clip-path="url(#clip260)" d="M157.973 615.487 Q154.362 615.487 152.534 619.052 Q150.728 622.593 150.728 629.723 Q150.728 636.829 152.534 640.394 Q154.362 643.936 157.973 643.936 Q161.608 643.936 163.413 640.394 Q165.242 636.829 165.242 629.723 Q165.242 622.593 163.413 619.052 Q161.608 615.487 157.973 615.487 M157.973 611.783 Q163.784 611.783 166.839 616.39 Q169.918 620.973 169.918 629.723 Q169.918 638.45 166.839 643.056 Q163.784 647.64 157.973 647.64 Q152.163 647.64 149.085 643.056 Q146.029 638.45 146.029 629.723 Q146.029 620.973 149.085 616.39 Q152.163 611.783 157.973 611.783 Z" fill="#000000" fill-rule="nonzero" fill-opacity="1" /><path clip-path="url(#clip260)" d="M188.135 615.487 Q184.524 615.487 182.696 619.052 Q180.89 622.593 180.89 629.723 Q180.89 636.829 182.696 640.394 Q184.524 643.936 188.135 643.936 Q191.77 643.936 193.575 640.394 Q195.404 636.829 195.404 629.723 Q195.404 622.593 193.575 619.052 Q191.77 615.487 188.135 615.487 M188.135 611.783 Q193.946 611.783 197.001 616.39 Q200.08 620.973 200.08 629.723 Q200.08 638.45 197.001 643.056 Q193.946 647.64 188.135 647.64 Q182.325 647.64 179.247 643.056 Q176.191 638.45 176.191 629.723 Q176.191 620.973 179.247 616.39 Q182.325 611.783 188.135 611.783 Z" fill="#000000" fill-rule="nonzero" fill-opacity="1" /><path clip-path="url(#clip260)" d="M121.839 350.26 L138.159 350.26 L138.159 354.196 L116.214 354.196 L116.214 350.26 Q118.876 347.506 123.46 342.876 Q128.066 338.223 129.247 336.881 Q131.492 334.358 132.372 332.622 Q133.275 330.862 133.275 329.173 Q133.275 326.418 131.33 324.682 Q129.409 322.946 126.307 322.946 Q124.108 322.946 121.654 323.71 Q119.224 324.473 116.446 326.024 L116.446 321.302 Q119.27 320.168 121.724 319.589 Q124.177 319.011 126.214 319.011 Q131.585 319.011 134.779 321.696 Q137.974 324.381 137.974 328.872 Q137.974 331.001 137.163 332.922 Q136.376 334.821 134.27 337.413 Q133.691 338.084 130.589 341.302 Q127.488 344.497 121.839 350.26 Z" fill="#000000" fill-rule="nonzero" fill-opacity="1" /><path clip-path="url(#clip260)" d="M148.02 319.636 L166.376 319.636 L166.376 323.571 L152.302 323.571 L152.302 332.043 Q153.321 331.696 154.339 331.534 Q155.358 331.348 156.376 331.348 Q162.163 331.348 165.543 334.52 Q168.922 337.691 168.922 343.108 Q168.922 348.686 165.45 351.788 Q161.978 354.867 155.659 354.867 Q153.483 354.867 151.214 354.496 Q148.969 354.126 146.562 353.385 L146.562 348.686 Q148.645 349.821 150.867 350.376 Q153.089 350.932 155.566 350.932 Q159.571 350.932 161.909 348.825 Q164.247 346.719 164.247 343.108 Q164.247 339.497 161.909 337.39 Q159.571 335.284 155.566 335.284 Q153.691 335.284 151.816 335.7 Q149.964 336.117 148.02 336.997 L148.02 319.636 Z" fill="#000000" fill-rule="nonzero" fill-opacity="1" /><path clip-path="url(#clip260)" d="M188.135 322.714 Q184.524 322.714 182.696 326.279 Q180.89 329.821 180.89 336.95 Q180.89 344.057 182.696 347.621 Q184.524 351.163 188.135 351.163 Q191.77 351.163 193.575 347.621 Q195.404 344.057 195.404 336.95 Q195.404 329.821 193.575 326.279 Q191.77 322.714 188.135 322.714 M188.135 319.011 Q193.946 319.011 197.001 323.617 Q200.08 328.2 200.08 336.95 Q200.08 345.677 197.001 350.284 Q193.946 354.867 188.135 354.867 Q182.325 354.867 179.247 350.284 Q176.191 345.677 176.191 336.95 Q176.191 328.2 179.247 323.617 Q182.325 319.011 188.135 319.011 Z" fill="#000000" fill-rule="nonzero" fill-opacity="1" /><path clip-path="url(#clip260)" d="M19.402 1332 L37.2578 1332 L37.2578 1323.92 Q37.2578 1319.43 34.9343 1316.98 Q32.6108 1314.53 28.314 1314.53 Q24.0489 1314.53 21.7255 1316.98 Q19.402 1319.43 19.402 1323.92 L19.402 1332 M14.1184 1338.43 L14.1184 1323.92 Q14.1184 1315.93 17.7469 1311.85 Q21.3435 1307.75 28.314 1307.75 Q35.3481 1307.75 38.9447 1311.85 Q42.5413 1315.93 42.5413 1323.92 L42.5413 1332 L61.6384 1332 L61.6384 1338.43 L14.1184 1338.43 Z" fill="#000000" fill-rule="nonzero" fill-opacity="1" /><path clip-path="url(#clip260)" d="M42.3504 1271.21 L45.2149 1271.21 L45.2149 1298.14 Q51.2623 1297.75 54.4452 1294.51 Q57.5962 1291.23 57.5962 1285.4 Q57.5962 1282.03 56.7687 1278.88 Q55.9411 1275.7 54.2861 1272.58 L59.8242 1272.58 Q61.161 1275.73 61.8612 1279.04 Q62.5615 1282.35 62.5615 1285.75 Q62.5615 1294.28 57.5962 1299.28 Q52.631 1304.25 44.1646 1304.25 Q35.4117 1304.25 30.2873 1299.54 Q25.1311 1294.79 25.1311 1286.77 Q25.1311 1279.58 29.7781 1275.41 Q34.3932 1271.21 42.3504 1271.21 M40.6316 1277.06 Q35.8255 1277.13 32.9609 1279.77 Q30.0964 1282.38 30.0964 1286.71 Q30.0964 1291.61 32.8654 1294.57 Q35.6345 1297.5 40.6634 1297.94 L40.6316 1277.06 Z" fill="#000000" fill-rule="nonzero" fill-opacity="1" /><path clip-path="url(#clip260)" d="M31.465 1240.94 Q30.8921 1241.93 30.6375 1243.1 Q30.351 1244.25 30.351 1245.65 Q30.351 1250.62 33.5975 1253.29 Q36.8122 1255.93 42.8596 1255.93 L61.6384 1255.93 L61.6384 1261.82 L25.9905 1261.82 L25.9905 1255.93 L31.5287 1255.93 Q28.2821 1254.08 26.7225 1251.12 Q25.1311 1248.16 25.1311 1243.93 Q25.1311 1243.33 25.2266 1242.59 Q25.2903 1241.86 25.4494 1240.97 L31.465 1240.94 Z" fill="#000000" fill-rule="nonzero" fill-opacity="1" /><path clip-path="url(#clip260)" d="M41.1727 1241.93 L41.1727 1224.77 L46.3926 1224.77 L46.3926 1241.93 L41.1727 1241.93 Z" fill="#000000" fill-rule="nonzero" fill-opacity="1" /><path clip-path="url(#clip260)" d="M27.3591 1189.79 L32.8336 1189.79 Q31.465 1192.27 30.7966 1194.79 Q30.0964 1197.27 30.0964 1199.82 Q30.0964 1205.51 33.7248 1208.67 Q37.3214 1211.82 43.8463 1211.82 Q50.3711 1211.82 53.9996 1208.67 Q57.5962 1205.51 57.5962 1199.82 Q57.5962 1197.27 56.9278 1194.79 Q56.2276 1192.27 54.859 1189.79 L60.2698 1189.79 Q61.4156 1192.24 61.9886 1194.88 Q62.5615 1197.49 62.5615 1200.45 Q62.5615 1208.51 57.5007 1213.25 Q52.44 1217.99 43.8463 1217.99 Q35.1253 1217.99 30.1282 1213.22 Q25.1311 1208.41 25.1311 1200.07 Q25.1311 1197.37 25.704 1194.79 Q26.2451 1192.21 27.3591 1189.79 Z" fill="#000000" fill-rule="nonzero" fill-opacity="1" /><path clip-path="url(#clip260)" d="M43.719 1163.41 Q43.719 1170.5 45.3422 1173.24 Q46.9655 1175.98 50.8804 1175.98 Q53.9996 1175.98 55.8457 1173.94 Q57.6599 1171.87 57.6599 1168.34 Q57.6599 1163.47 54.2224 1160.54 Q50.7531 1157.58 45.0239 1157.58 L43.719 1157.58 L43.719 1163.41 M41.3 1151.72 L61.6384 1151.72 L61.6384 1157.58 L56.2276 1157.58 Q59.4741 1159.59 61.0337 1162.58 Q62.5615 1165.57 62.5615 1169.9 Q62.5615 1175.37 59.5059 1178.62 Q56.4186 1181.83 51.2623 1181.83 Q45.2467 1181.83 42.1912 1177.82 Q39.1357 1173.78 39.1357 1165.79 L39.1357 1157.58 L38.5628 1157.58 Q34.5205 1157.58 32.3244 1160.25 Q30.0964 1162.9 30.0964 1167.7 Q30.0964 1170.76 30.8284 1173.65 Q31.5605 1176.55 33.0246 1179.22 L27.6137 1179.22 Q26.3724 1176.01 25.7677 1172.99 Q25.1311 1169.96 25.1311 1167.1 Q25.1311 1159.36 29.1415 1155.54 Q33.1519 1151.72 41.3 1151.72 Z" fill="#000000" fill-rule="nonzero" fill-opacity="1" /><path clip-path="url(#clip260)" d="M56.2912 1134 L75.1974 1134 L75.1974 1139.88 L25.9905 1139.88 L25.9905 1134 L31.4013 1134 Q28.2185 1132.15 26.6907 1129.35 Q25.1311 1126.52 25.1311 1122.6 Q25.1311 1116.11 30.2873 1112.07 Q35.4436 1107.99 43.8463 1107.99 Q52.249 1107.99 57.4052 1112.07 Q62.5615 1116.11 62.5615 1122.6 Q62.5615 1126.52 61.0337 1129.35 Q59.4741 1132.15 56.2912 1134 M43.8463 1114.07 Q37.3851 1114.07 33.7248 1116.74 Q30.0327 1119.39 30.0327 1124.03 Q30.0327 1128.68 33.7248 1131.35 Q37.3851 1134 43.8463 1134 Q50.3075 1134 53.9996 1131.35 Q57.6599 1128.68 57.6599 1124.03 Q57.6599 1119.39 53.9996 1116.74 Q50.3075 1114.07 43.8463 1114.07 Z" fill="#000000" fill-rule="nonzero" fill-opacity="1" /><path clip-path="url(#clip260)" d="M25.9905 1098.28 L25.9905 1092.43 L61.6384 1092.43 L61.6384 1098.28 L25.9905 1098.28 M12.1132 1098.28 L12.1132 1092.43 L19.5293 1092.43 L19.5293 1098.28 L12.1132 1098.28 Z" fill="#000000" fill-rule="nonzero" fill-opacity="1" /><path clip-path="url(#clip260)" d="M15.869 1074.38 L25.9905 1074.38 L25.9905 1062.32 L30.542 1062.32 L30.542 1074.38 L49.8937 1074.38 Q54.2542 1074.38 55.4955 1073.2 Q56.7368 1071.99 56.7368 1068.33 L56.7368 1062.32 L61.6384 1062.32 L61.6384 1068.33 Q61.6384 1075.11 59.124 1077.69 Q56.5777 1080.27 49.8937 1080.27 L30.542 1080.27 L30.542 1084.57 L25.9905 1084.57 L25.9905 1080.27 L15.869 1080.27 L15.869 1074.38 Z" fill="#000000" fill-rule="nonzero" fill-opacity="1" /><path clip-path="url(#clip260)" d="M43.719 1038.41 Q43.719 1045.51 45.3422 1048.25 Q46.9655 1050.99 50.8804 1050.99 Q53.9996 1050.99 55.8457 1048.95 Q57.6599 1046.88 57.6599 1043.35 Q57.6599 1038.48 54.2224 1035.55 Q50.7531 1032.59 45.0239 1032.59 L43.719 1032.59 L43.719 1038.41 M41.3 1026.73 L61.6384 1026.73 L61.6384 1032.59 L56.2276 1032.59 Q59.4741 1034.59 61.0337 1037.59 Q62.5615 1040.58 62.5615 1044.91 Q62.5615 1050.38 59.5059 1053.63 Q56.4186 1056.84 51.2623 1056.84 Q45.2467 1056.84 42.1912 1052.83 Q39.1357 1048.79 39.1357 1040.8 L39.1357 1032.59 L38.5628 1032.59 Q34.5205 1032.59 32.3244 1035.26 Q30.0964 1037.91 30.0964 1042.71 Q30.0964 1045.77 30.8284 1048.66 Q31.5605 1051.56 33.0246 1054.23 L27.6137 1054.23 Q26.3724 1051.02 25.7677 1047.99 Q25.1311 1044.97 25.1311 1042.11 Q25.1311 1034.37 29.1415 1030.55 Q33.1519 1026.73 41.3 1026.73 Z" fill="#000000" fill-rule="nonzero" fill-opacity="1" /><path clip-path="url(#clip260)" d="M31.465 973.293 Q30.8921 974.28 30.6375 975.458 Q30.351 976.603 30.351 978.004 Q30.351 982.969 33.5975 985.643 Q36.8122 988.284 42.8596 988.284 L61.6384 988.284 L61.6384 994.173 L25.9905 994.173 L25.9905 988.284 L31.5287 988.284 Q28.2821 986.438 26.7225 983.478 Q25.1311 980.518 25.1311 976.285 Q25.1311 975.68 25.2266 974.948 Q25.2903 974.216 25.4494 973.325 L31.465 973.293 Z" fill="#000000" fill-rule="nonzero" fill-opacity="1" /><path clip-path="url(#clip260)" d="M42.3504 938.091 L45.2149 938.091 L45.2149 965.018 Q51.2623 964.636 54.4452 961.389 Q57.5962 958.111 57.5962 952.286 Q57.5962 948.913 56.7687 945.762 Q55.9411 942.579 54.2861 939.459 L59.8242 939.459 Q61.161 942.61 61.8612 945.921 Q62.5615 949.231 62.5615 952.636 Q62.5615 961.167 57.5962 966.164 Q52.631 971.129 44.1646 971.129 Q35.4117 971.129 30.2873 966.418 Q25.1311 961.676 25.1311 953.655 Q25.1311 946.462 29.7781 942.292 Q34.3932 938.091 42.3504 938.091 M40.6316 943.947 Q35.8255 944.011 32.9609 946.653 Q30.0964 949.263 30.0964 953.591 Q30.0964 958.493 32.8654 961.453 Q35.6345 964.381 40.6634 964.827 L40.6316 943.947 Z" fill="#000000" fill-rule="nonzero" fill-opacity="1" /><path clip-path="url(#clip260)" d="M56.2912 922.813 L75.1974 922.813 L75.1974 928.701 L25.9905 928.701 L25.9905 922.813 L31.4013 922.813 Q28.2185 920.967 26.6907 918.166 Q25.1311 915.333 25.1311 911.419 Q25.1311 904.925 30.2873 900.883 Q35.4436 896.809 43.8463 896.809 Q52.249 896.809 57.4052 900.883 Q62.5615 904.925 62.5615 911.419 Q62.5615 915.333 61.0337 918.166 Q59.4741 920.967 56.2912 922.813 M43.8463 902.888 Q37.3851 902.888 33.7248 905.562 Q30.0327 908.204 30.0327 912.851 Q30.0327 917.498 33.7248 920.171 Q37.3851 922.813 43.8463 922.813 Q50.3075 922.813 53.9996 920.171 Q57.6599 917.498 57.6599 912.851 Q57.6599 908.204 53.9996 905.562 Q50.3075 902.888 43.8463 902.888 Z" fill="#000000" fill-rule="nonzero" fill-opacity="1" /><path clip-path="url(#clip260)" d="M31.465 866.445 Q30.8921 867.431 30.6375 868.609 Q30.351 869.755 30.351 871.155 Q30.351 876.121 33.5975 878.794 Q36.8122 881.436 42.8596 881.436 L61.6384 881.436 L61.6384 887.324 L25.9905 887.324 L25.9905 881.436 L31.5287 881.436 Q28.2821 879.59 26.7225 876.63 Q25.1311 873.67 25.1311 869.437 Q25.1311 868.832 25.2266 868.1 Q25.2903 867.368 25.4494 866.477 L31.465 866.445 Z" fill="#000000" fill-rule="nonzero" fill-opacity="1" /><path clip-path="url(#clip260)" d="M30.0964 847.921 Q30.0964 852.631 33.7885 855.368 Q37.4488 858.106 43.8463 858.106 Q50.2438 858.106 53.9359 855.4 Q57.5962 852.663 57.5962 847.921 Q57.5962 843.242 53.9041 840.505 Q50.212 837.767 43.8463 837.767 Q37.5124 837.767 33.8203 840.505 Q30.0964 843.242 30.0964 847.921 M25.1311 847.921 Q25.1311 840.282 30.0964 835.921 Q35.0616 831.561 43.8463 831.561 Q52.5991 831.561 57.5962 835.921 Q62.5615 840.282 62.5615 847.921 Q62.5615 855.591 57.5962 859.952 Q52.5991 864.28 43.8463 864.28 Q35.0616 864.28 30.0964 859.952 Q25.1311 855.591 25.1311 847.921 Z" fill="#000000" fill-rule="nonzero" fill-opacity="1" /><path clip-path="url(#clip260)" d="M31.4013 798.395 L12.1132 798.395 L12.1132 792.539 L61.6384 792.539 L61.6384 798.395 L56.2912 798.395 Q59.4741 800.241 61.0337 803.074 Q62.5615 805.875 62.5615 809.822 Q62.5615 816.283 57.4052 820.357 Q52.249 824.399 43.8463 824.399 Q35.4436 824.399 30.2873 820.357 Q25.1311 816.283 25.1311 809.822 Q25.1311 805.875 26.6907 803.074 Q28.2185 800.241 31.4013 798.395 M43.8463 818.352 Q50.3075 818.352 53.9996 815.71 Q57.6599 813.037 57.6599 808.39 Q57.6599 803.743 53.9996 801.069 Q50.3075 798.395 43.8463 798.395 Q37.3851 798.395 33.7248 801.069 Q30.0327 803.743 30.0327 808.39 Q30.0327 813.037 33.7248 815.71 Q37.3851 818.352 43.8463 818.352 Z" fill="#000000" fill-rule="nonzero" fill-opacity="1" /><path clip-path="url(#clip260)" d="M47.5702 781.081 L25.9905 781.081 L25.9905 775.224 L47.3474 775.224 Q52.4082 775.224 54.9545 773.251 Q57.4689 771.277 57.4689 767.331 Q57.4689 762.588 54.4452 759.851 Q51.4215 757.082 46.2016 757.082 L25.9905 757.082 L25.9905 751.226 L61.6384 751.226 L61.6384 757.082 L56.1639 757.082 Q59.4104 759.214 61.0019 762.047 Q62.5615 764.848 62.5615 768.572 Q62.5615 774.715 58.742 777.898 Q54.9226 781.081 47.5702 781.081 M25.1311 766.344 L25.1311 766.344 Z" fill="#000000" fill-rule="nonzero" fill-opacity="1" /><path clip-path="url(#clip260)" d="M27.3591 713.509 L32.8336 713.509 Q31.465 715.991 30.7966 718.506 Q30.0964 720.988 30.0964 723.535 Q30.0964 729.232 33.7248 732.383 Q37.3214 735.534 43.8463 735.534 Q50.3711 735.534 53.9996 732.383 Q57.5962 729.232 57.5962 723.535 Q57.5962 720.988 56.9278 718.506 Q56.2276 715.991 54.859 713.509 L60.2698 713.509 Q61.4156 715.959 61.9886 718.601 Q62.5615 721.211 62.5615 724.171 Q62.5615 732.224 57.5007 736.966 Q52.44 741.709 43.8463 741.709 Q35.1253 741.709 30.1282 736.935 Q25.1311 732.128 25.1311 723.789 Q25.1311 721.084 25.704 718.506 Q26.2451 715.928 27.3591 713.509 Z" fill="#000000" fill-rule="nonzero" fill-opacity="1" /><path clip-path="url(#clip260)" d="M15.869 697.531 L25.9905 697.531 L25.9905 685.468 L30.542 685.468 L30.542 697.531 L49.8937 697.531 Q54.2542 697.531 55.4955 696.353 Q56.7368 695.144 56.7368 691.483 L56.7368 685.468 L61.6384 685.468 L61.6384 691.483 Q61.6384 698.263 59.124 700.841 Q56.5777 703.419 49.8937 703.419 L30.542 703.419 L30.542 707.716 L25.9905 707.716 L25.9905 703.419 L15.869 703.419 L15.869 697.531 Z" fill="#000000" fill-rule="nonzero" fill-opacity="1" /><path clip-path="url(#clip260)" d="M25.9905 677.765 L25.9905 671.909 L61.6384 671.909 L61.6384 677.765 L25.9905 677.765 M12.1132 677.765 L12.1132 671.909 L19.5293 671.909 L19.5293 677.765 L12.1132 677.765 Z" fill="#000000" fill-rule="nonzero" fill-opacity="1" /><path clip-path="url(#clip260)" d="M30.0964 645.841 Q30.0964 650.552 33.7885 653.289 Q37.4488 656.026 43.8463 656.026 Q50.2438 656.026 53.9359 653.321 Q57.5962 650.584 57.5962 645.841 Q57.5962 641.162 53.9041 638.425 Q50.212 635.688 43.8463 635.688 Q37.5124 635.688 33.8203 638.425 Q30.0964 641.162 30.0964 645.841 M25.1311 645.841 Q25.1311 638.202 30.0964 633.842 Q35.0616 629.481 43.8463 629.481 Q52.5991 629.481 57.5962 633.842 Q62.5615 638.202 62.5615 645.841 Q62.5615 653.512 57.5962 657.872 Q52.5991 662.201 43.8463 662.201 Q35.0616 662.201 30.0964 657.872 Q25.1311 653.512 25.1311 645.841 Z" fill="#000000" fill-rule="nonzero" fill-opacity="1" /><path clip-path="url(#clip260)" d="M40.1224 590.141 L61.6384 590.141 L61.6384 595.998 L40.3133 595.998 Q35.2526 595.998 32.7381 597.971 Q30.2237 599.944 30.2237 603.891 Q30.2237 608.634 33.2474 611.371 Q36.2711 614.108 41.491 614.108 L61.6384 614.108 L61.6384 619.996 L25.9905 619.996 L25.9905 614.108 L31.5287 614.108 Q28.314 612.008 26.7225 609.175 Q25.1311 606.31 25.1311 602.586 Q25.1311 596.443 28.9505 593.292 Q32.7381 590.141 40.1224 590.141 Z" fill="#000000" fill-rule="nonzero" fill-opacity="1" /><path clip-path="url(#clip260)" d="M883.963 16.7545 L883.963 25.383 Q879.831 21.5346 875.132 19.6307 Q870.474 17.7268 865.208 17.7268 Q854.837 17.7268 849.328 24.0867 Q843.819 30.4061 843.819 42.3968 Q843.819 54.3469 849.328 60.7069 Q854.837 67.0263 865.208 67.0263 Q870.474 67.0263 875.132 65.1223 Q879.831 63.2184 883.963 59.3701 L883.963 67.9175 Q879.669 70.8341 874.849 72.2924 Q870.069 73.7508 864.722 73.7508 Q850.989 73.7508 843.09 65.3654 Q835.19 56.9395 835.19 42.3968 Q835.19 27.8135 843.09 19.4281 Q850.989 11.0023 864.722 11.0023 Q870.15 11.0023 874.93 12.4606 Q879.75 13.8784 883.963 16.7545 Z" fill="#000000" fill-rule="nonzero" fill-opacity="1" /><path clip-path="url(#clip260)" d="M913.859 32.4315 Q907.864 32.4315 904.38 37.1306 Q900.896 41.7891 900.896 49.9314 Q900.896 58.0738 904.339 62.7728 Q907.823 67.4314 913.859 67.4314 Q919.814 67.4314 923.298 62.7323 Q926.781 58.0333 926.781 49.9314 Q926.781 41.8701 923.298 37.1711 Q919.814 32.4315 913.859 32.4315 M913.859 26.1121 Q923.581 26.1121 929.131 32.4315 Q934.681 38.7509 934.681 49.9314 Q934.681 61.0714 929.131 67.4314 Q923.581 73.7508 913.859 73.7508 Q904.096 73.7508 898.547 67.4314 Q893.037 61.0714 893.037 49.9314 Q893.037 38.7509 898.547 32.4315 Q904.096 26.1121 913.859 26.1121 Z" fill="#000000" fill-rule="nonzero" fill-opacity="1" /><path clip-path="url(#clip260)" d="M984.75 45.1919 L984.75 72.576 L977.296 72.576 L977.296 45.4349 Q977.296 38.994 974.785 35.7938 Q972.273 32.5936 967.25 32.5936 Q961.214 32.5936 957.73 36.4419 Q954.247 40.2903 954.247 46.9338 L954.247 72.576 L946.752 72.576 L946.752 27.2059 L954.247 27.2059 L954.247 34.2544 Q956.92 30.163 960.525 28.1376 Q964.171 26.1121 968.911 26.1121 Q976.729 26.1121 980.739 30.9732 Q984.75 35.7938 984.75 45.1919 Z" fill="#000000" fill-rule="nonzero" fill-opacity="1" /><path clip-path="url(#clip260)" d="M1029.47 34.0924 L1029.47 9.54393 L1036.93 9.54393 L1036.93 72.576 L1029.47 72.576 L1029.47 65.7705 Q1027.12 69.8214 1023.52 71.8063 Q1019.95 73.7508 1014.93 73.7508 Q1006.71 73.7508 1001.52 67.1883 Q996.376 60.6258 996.376 49.9314 Q996.376 39.2371 1001.52 32.6746 Q1006.71 26.1121 1014.93 26.1121 Q1019.95 26.1121 1023.52 28.0971 Q1027.12 30.0415 1029.47 34.0924 M1004.07 49.9314 Q1004.07 58.1548 1007.43 62.8538 Q1010.84 67.5124 1016.75 67.5124 Q1022.67 67.5124 1026.07 62.8538 Q1029.47 58.1548 1029.47 49.9314 Q1029.47 41.7081 1026.07 37.0496 Q1022.67 32.3505 1016.75 32.3505 Q1010.84 32.3505 1007.43 37.0496 Q1004.07 41.7081 1004.07 49.9314 Z" fill="#000000" fill-rule="nonzero" fill-opacity="1" /><path clip-path="url(#clip260)" d="M1052.28 27.2059 L1059.73 27.2059 L1059.73 72.576 L1052.28 72.576 L1052.28 27.2059 M1052.28 9.54393 L1059.73 9.54393 L1059.73 18.9825 L1052.28 18.9825 L1052.28 9.54393 Z" fill="#000000" fill-rule="nonzero" fill-opacity="1" /><path clip-path="url(#clip260)" d="M1082.7 14.324 L1082.7 27.2059 L1098.05 27.2059 L1098.05 32.9987 L1082.7 32.9987 L1082.7 57.6282 Q1082.7 63.1779 1084.2 64.7578 Q1085.74 66.3376 1090.4 66.3376 L1098.05 66.3376 L1098.05 72.576 L1090.4 72.576 Q1081.77 72.576 1078.49 69.3758 Q1075.21 66.1351 1075.21 57.6282 L1075.21 32.9987 L1069.74 32.9987 L1069.74 27.2059 L1075.21 27.2059 L1075.21 14.324 L1082.7 14.324 Z" fill="#000000" fill-rule="nonzero" fill-opacity="1" /><path clip-path="url(#clip260)" d="M1107.86 27.2059 L1115.31 27.2059 L1115.31 72.576 L1107.86 72.576 L1107.86 27.2059 M1107.86 9.54393 L1115.31 9.54393 L1115.31 18.9825 L1107.86 18.9825 L1107.86 9.54393 Z" fill="#000000" fill-rule="nonzero" fill-opacity="1" /><path clip-path="url(#clip260)" d="M1148.49 32.4315 Q1142.49 32.4315 1139.01 37.1306 Q1135.52 41.7891 1135.52 49.9314 Q1135.52 58.0738 1138.97 62.7728 Q1142.45 67.4314 1148.49 67.4314 Q1154.44 67.4314 1157.93 62.7323 Q1161.41 58.0333 1161.41 49.9314 Q1161.41 41.8701 1157.93 37.1711 Q1154.44 32.4315 1148.49 32.4315 M1148.49 26.1121 Q1158.21 26.1121 1163.76 32.4315 Q1169.31 38.7509 1169.31 49.9314 Q1169.31 61.0714 1163.76 67.4314 Q1158.21 73.7508 1148.49 73.7508 Q1138.72 73.7508 1133.17 67.4314 Q1127.67 61.0714 1127.67 49.9314 Q1127.67 38.7509 1133.17 32.4315 Q1138.72 26.1121 1148.49 26.1121 Z" fill="#000000" fill-rule="nonzero" fill-opacity="1" /><path clip-path="url(#clip260)" d="M1219.38 45.1919 L1219.38 72.576 L1211.92 72.576 L1211.92 45.4349 Q1211.92 38.994 1209.41 35.7938 Q1206.9 32.5936 1201.88 32.5936 Q1195.84 32.5936 1192.36 36.4419 Q1188.87 40.2903 1188.87 46.9338 L1188.87 72.576 L1181.38 72.576 L1181.38 27.2059 L1188.87 27.2059 L1188.87 34.2544 Q1191.55 30.163 1195.15 28.1376 Q1198.8 26.1121 1203.54 26.1121 Q1211.36 26.1121 1215.37 30.9732 Q1219.38 35.7938 1219.38 45.1919 Z" fill="#000000" fill-rule="nonzero" fill-opacity="1" /><path clip-path="url(#clip260)" d="M1254.86 49.7694 Q1245.83 49.7694 1242.35 51.8354 Q1238.86 53.9013 1238.86 58.8839 Q1238.86 62.8538 1241.46 65.2034 Q1244.09 67.5124 1248.59 67.5124 Q1254.78 67.5124 1258.51 63.1374 Q1262.28 58.7219 1262.28 51.4303 L1262.28 49.7694 L1254.86 49.7694 M1269.73 46.6907 L1269.73 72.576 L1262.28 72.576 L1262.28 65.6895 Q1259.73 69.8214 1255.92 71.8063 Q1252.11 73.7508 1246.6 73.7508 Q1239.63 73.7508 1235.5 69.8619 Q1231.41 65.9325 1231.41 59.3701 Q1231.41 51.7138 1236.51 47.825 Q1241.66 43.9361 1251.83 43.9361 L1262.28 43.9361 L1262.28 43.2069 Q1262.28 38.0623 1258.87 35.2672 Q1255.51 32.4315 1249.4 32.4315 Q1245.51 32.4315 1241.82 33.3632 Q1238.13 34.295 1234.73 36.1584 L1234.73 29.2718 Q1238.82 27.692 1242.67 26.9223 Q1246.52 26.1121 1250.17 26.1121 Q1260.01 26.1121 1264.87 31.2163 Q1269.73 36.3204 1269.73 46.6907 Z" fill="#000000" fill-rule="nonzero" fill-opacity="1" /><path clip-path="url(#clip260)" d="M1285.08 9.54393 L1292.54 9.54393 L1292.54 72.576 L1285.08 72.576 L1285.08 9.54393 Z" fill="#000000" fill-rule="nonzero" fill-opacity="1" /><path clip-path="url(#clip260)" d="M1360.8 34.1734 Q1359.54 33.4443 1358.04 33.1202 Q1356.58 32.7556 1354.8 32.7556 Q1348.48 32.7556 1345.08 36.8875 Q1341.72 40.9789 1341.72 48.6757 L1341.72 72.576 L1334.22 72.576 L1334.22 27.2059 L1341.72 27.2059 L1341.72 34.2544 Q1344.07 30.1225 1347.83 28.1376 Q1351.6 26.1121 1356.99 26.1121 Q1357.76 26.1121 1358.69 26.2337 Q1359.62 26.3147 1360.75 26.5172 L1360.8 34.1734 Z" fill="#000000" fill-rule="nonzero" fill-opacity="1" /><path clip-path="url(#clip260)" d="M1405.6 48.0275 L1405.6 51.6733 L1371.33 51.6733 Q1371.81 59.3701 1375.95 63.421 Q1380.12 67.4314 1387.53 67.4314 Q1391.83 67.4314 1395.84 66.3781 Q1399.89 65.3249 1403.86 63.2184 L1403.86 70.267 Q1399.85 71.9684 1395.63 72.8596 Q1391.42 73.7508 1387.09 73.7508 Q1376.23 73.7508 1369.87 67.4314 Q1363.55 61.1119 1363.55 50.3365 Q1363.55 39.1965 1369.55 32.6746 Q1375.58 26.1121 1385.79 26.1121 Q1394.94 26.1121 1400.25 32.0264 Q1405.6 37.9003 1405.6 48.0275 M1398.14 45.84 Q1398.06 39.7232 1394.7 36.0774 Q1391.38 32.4315 1385.87 32.4315 Q1379.63 32.4315 1375.86 35.9558 Q1372.14 39.4801 1371.57 45.8805 L1398.14 45.84 Z" fill="#000000" fill-rule="nonzero" fill-opacity="1" /><path clip-path="url(#clip260)" d="M1425.04 65.7705 L1425.04 89.8329 L1417.55 89.8329 L1417.55 27.2059 L1425.04 27.2059 L1425.04 34.0924 Q1427.39 30.0415 1430.96 28.0971 Q1434.56 26.1121 1439.54 26.1121 Q1447.81 26.1121 1452.95 32.6746 Q1458.14 39.2371 1458.14 49.9314 Q1458.14 60.6258 1452.95 67.1883 Q1447.81 73.7508 1439.54 73.7508 Q1434.56 73.7508 1430.96 71.8063 Q1427.39 69.8214 1425.04 65.7705 M1450.4 49.9314 Q1450.4 41.7081 1447 37.0496 Q1443.64 32.3505 1437.72 32.3505 Q1431.81 32.3505 1428.4 37.0496 Q1425.04 41.7081 1425.04 49.9314 Q1425.04 58.1548 1428.4 62.8538 Q1431.81 67.5124 1437.72 67.5124 Q1443.64 67.5124 1447 62.8538 Q1450.4 58.1548 1450.4 49.9314 Z" fill="#000000" fill-rule="nonzero" fill-opacity="1" /><path clip-path="url(#clip260)" d="M1496.78 34.1734 Q1495.53 33.4443 1494.03 33.1202 Q1492.57 32.7556 1490.79 32.7556 Q1484.47 32.7556 1481.07 36.8875 Q1477.7 40.9789 1477.7 48.6757 L1477.7 72.576 L1470.21 72.576 L1470.21 27.2059 L1477.7 27.2059 L1477.7 34.2544 Q1480.05 30.1225 1483.82 28.1376 Q1487.59 26.1121 1492.98 26.1121 Q1493.75 26.1121 1494.68 26.2337 Q1495.61 26.3147 1496.74 26.5172 L1496.78 34.1734 Z" fill="#000000" fill-rule="nonzero" fill-opacity="1" /><path clip-path="url(#clip260)" d="M1520.36 32.4315 Q1514.37 32.4315 1510.88 37.1306 Q1507.4 41.7891 1507.4 49.9314 Q1507.4 58.0738 1510.84 62.7728 Q1514.32 67.4314 1520.36 67.4314 Q1526.32 67.4314 1529.8 62.7323 Q1533.28 58.0333 1533.28 49.9314 Q1533.28 41.8701 1529.8 37.1711 Q1526.32 32.4315 1520.36 32.4315 M1520.36 26.1121 Q1530.08 26.1121 1535.63 32.4315 Q1541.18 38.7509 1541.18 49.9314 Q1541.18 61.0714 1535.63 67.4314 Q1530.08 73.7508 1520.36 73.7508 Q1510.6 73.7508 1505.05 67.4314 Q1499.54 61.0714 1499.54 49.9314 Q1499.54 38.7509 1505.05 32.4315 Q1510.6 26.1121 1520.36 26.1121 Z" fill="#000000" fill-rule="nonzero" fill-opacity="1" /><path clip-path="url(#clip260)" d="M1583.39 34.0924 L1583.39 9.54393 L1590.85 9.54393 L1590.85 72.576 L1583.39 72.576 L1583.39 65.7705 Q1581.04 69.8214 1577.44 71.8063 Q1573.87 73.7508 1568.85 73.7508 Q1560.63 73.7508 1555.44 67.1883 Q1550.3 60.6258 1550.3 49.9314 Q1550.3 39.2371 1555.44 32.6746 Q1560.63 26.1121 1568.85 26.1121 Q1573.87 26.1121 1577.44 28.0971 Q1581.04 30.0415 1583.39 34.0924 M1557.99 49.9314 Q1557.99 58.1548 1561.36 62.8538 Q1564.76 67.5124 1570.67 67.5124 Q1576.59 67.5124 1579.99 62.8538 Q1583.39 58.1548 1583.39 49.9314 Q1583.39 41.7081 1579.99 37.0496 Q1576.59 32.3505 1570.67 32.3505 Q1564.76 32.3505 1561.36 37.0496 Q1557.99 41.7081 1557.99 49.9314 Z" fill="#000000" fill-rule="nonzero" fill-opacity="1" /><path clip-path="url(#clip260)" d="M1605.43 54.671 L1605.43 27.2059 L1612.88 27.2059 L1612.88 54.3874 Q1612.88 60.8284 1615.39 64.0691 Q1617.91 67.2693 1622.93 67.2693 Q1628.97 67.2693 1632.45 63.421 Q1635.97 59.5726 1635.97 52.9291 L1635.97 27.2059 L1643.43 27.2059 L1643.43 72.576 L1635.97 72.576 L1635.97 65.6084 Q1633.26 69.7404 1629.65 71.7658 Q1626.09 73.7508 1621.35 73.7508 Q1613.53 73.7508 1609.48 68.8897 Q1605.43 64.0286 1605.43 54.671 M1624.19 26.1121 L1624.19 26.1121 Z" fill="#000000" fill-rule="nonzero" fill-opacity="1" /><path clip-path="url(#clip260)" d="M1691.43 28.9478 L1691.43 35.9153 Q1688.27 34.1734 1685.07 33.3227 Q1681.91 32.4315 1678.67 32.4315 Q1671.42 32.4315 1667.41 37.0496 Q1663.4 41.6271 1663.4 49.9314 Q1663.4 58.2358 1667.41 62.8538 Q1671.42 67.4314 1678.67 67.4314 Q1681.91 67.4314 1685.07 66.5807 Q1688.27 65.6895 1691.43 63.9476 L1691.43 70.8341 Q1688.31 72.2924 1684.95 73.0216 Q1681.63 73.7508 1677.86 73.7508 Q1667.61 73.7508 1661.57 67.3098 Q1655.54 60.8689 1655.54 49.9314 Q1655.54 38.832 1661.62 32.472 Q1667.73 26.1121 1678.35 26.1121 Q1681.79 26.1121 1685.07 26.8413 Q1688.35 27.5299 1691.43 28.9478 Z" fill="#000000" fill-rule="nonzero" fill-opacity="1" /><path clip-path="url(#clip260)" d="M1711.77 14.324 L1711.77 27.2059 L1727.12 27.2059 L1727.12 32.9987 L1711.77 32.9987 L1711.77 57.6282 Q1711.77 63.1779 1713.26 64.7578 Q1714.8 66.3376 1719.46 66.3376 L1727.12 66.3376 L1727.12 72.576 L1719.46 72.576 Q1710.83 72.576 1707.55 69.3758 Q1704.27 66.1351 1704.27 57.6282 L1704.27 32.9987 L1698.8 32.9987 L1698.8 27.2059 L1704.27 27.2059 L1704.27 14.324 L1711.77 14.324 Z" fill="#000000" fill-rule="nonzero" fill-opacity="1" /><path clip-path="url(#clip260)" d="M1736.92 27.2059 L1744.38 27.2059 L1744.38 72.576 L1736.92 72.576 L1736.92 27.2059 M1736.92 9.54393 L1744.38 9.54393 L1744.38 18.9825 L1736.92 18.9825 L1736.92 9.54393 Z" fill="#000000" fill-rule="nonzero" fill-opacity="1" /><path clip-path="url(#clip260)" d="M1777.55 32.4315 Q1771.56 32.4315 1768.07 37.1306 Q1764.59 41.7891 1764.59 49.9314 Q1764.59 58.0738 1768.03 62.7728 Q1771.52 67.4314 1777.55 67.4314 Q1783.51 67.4314 1786.99 62.7323 Q1790.47 58.0333 1790.47 49.9314 Q1790.47 41.8701 1786.99 37.1711 Q1783.51 32.4315 1777.55 32.4315 M1777.55 26.1121 Q1787.27 26.1121 1792.82 32.4315 Q1798.37 38.7509 1798.37 49.9314 Q1798.37 61.0714 1792.82 67.4314 Q1787.27 73.7508 1777.55 73.7508 Q1767.79 73.7508 1762.24 67.4314 Q1756.73 61.0714 1756.73 49.9314 Q1756.73 38.7509 1762.24 32.4315 Q1767.79 26.1121 1777.55 26.1121 Z" fill="#000000" fill-rule="nonzero" fill-opacity="1" /><path clip-path="url(#clip260)" d="M1848.44 45.1919 L1848.44 72.576 L1840.99 72.576 L1840.99 45.4349 Q1840.99 38.994 1838.48 35.7938 Q1835.97 32.5936 1830.94 32.5936 Q1824.91 32.5936 1821.42 36.4419 Q1817.94 40.2903 1817.94 46.9338 L1817.94 72.576 L1810.45 72.576 L1810.45 27.2059 L1817.94 27.2059 L1817.94 34.2544 Q1820.61 30.163 1824.22 28.1376 Q1827.86 26.1121 1832.6 26.1121 Q1840.42 26.1121 1844.43 30.9732 Q1848.44 35.7938 1848.44 45.1919 Z" fill="#000000" fill-rule="nonzero" fill-opacity="1" /><path clip-path="url(#clip260)" d="M1915.97 34.1734 Q1914.72 33.4443 1913.22 33.1202 Q1911.76 32.7556 1909.98 32.7556 Q1903.66 32.7556 1900.25 36.8875 Q1896.89 40.9789 1896.89 48.6757 L1896.89 72.576 L1889.4 72.576 L1889.4 27.2059 L1896.89 27.2059 L1896.89 34.2544 Q1899.24 30.1225 1903.01 28.1376 Q1906.78 26.1121 1912.16 26.1121 Q1912.93 26.1121 1913.87 26.2337 Q1914.8 26.3147 1915.93 26.5172 L1915.97 34.1734 Z" fill="#000000" fill-rule="nonzero" fill-opacity="1" /><path clip-path="url(#clip260)" d="M1944.41 49.7694 Q1935.38 49.7694 1931.89 51.8354 Q1928.41 53.9013 1928.41 58.8839 Q1928.41 62.8538 1931 65.2034 Q1933.63 67.5124 1938.13 67.5124 Q1944.33 67.5124 1948.05 63.1374 Q1951.82 58.7219 1951.82 51.4303 L1951.82 49.7694 L1944.41 49.7694 M1959.28 46.6907 L1959.28 72.576 L1951.82 72.576 L1951.82 65.6895 Q1949.27 69.8214 1945.46 71.8063 Q1941.65 73.7508 1936.15 73.7508 Q1929.18 73.7508 1925.05 69.8619 Q1920.95 65.9325 1920.95 59.3701 Q1920.95 51.7138 1926.06 47.825 Q1931.2 43.9361 1941.37 43.9361 L1951.82 43.9361 L1951.82 43.2069 Q1951.82 38.0623 1948.42 35.2672 Q1945.06 32.4315 1938.94 32.4315 Q1935.05 32.4315 1931.37 33.3632 Q1927.68 34.295 1924.28 36.1584 L1924.28 29.2718 Q1928.37 27.692 1932.22 26.9223 Q1936.06 26.1121 1939.71 26.1121 Q1949.55 26.1121 1954.41 31.2163 Q1959.28 36.3204 1959.28 46.6907 Z" fill="#000000" fill-rule="nonzero" fill-opacity="1" /><path clip-path="url(#clip260)" d="M1982 14.324 L1982 27.2059 L1997.35 27.2059 L1997.35 32.9987 L1982 32.9987 L1982 57.6282 Q1982 63.1779 1983.5 64.7578 Q1985.04 66.3376 1989.7 66.3376 L1997.35 66.3376 L1997.35 72.576 L1989.7 72.576 Q1981.07 72.576 1977.79 69.3758 Q1974.51 66.1351 1974.51 57.6282 L1974.51 32.9987 L1969.04 32.9987 L1969.04 27.2059 L1974.51 27.2059 L1974.51 14.324 L1982 14.324 Z" fill="#000000" fill-rule="nonzero" fill-opacity="1" /><path clip-path="url(#clip260)" d="M2045.97 48.0275 L2045.97 51.6733 L2011.69 51.6733 Q2012.18 59.3701 2016.31 63.421 Q2020.49 67.4314 2027.9 67.4314 Q2032.19 67.4314 2036.2 66.3781 Q2040.25 65.3249 2044.22 63.2184 L2044.22 70.267 Q2040.21 71.9684 2036 72.8596 Q2031.79 73.7508 2027.45 73.7508 Q2016.6 73.7508 2010.24 67.4314 Q2003.92 61.1119 2003.92 50.3365 Q2003.92 39.1965 2009.91 32.6746 Q2015.95 26.1121 2026.16 26.1121 Q2035.31 26.1121 2040.62 32.0264 Q2045.97 37.9003 2045.97 48.0275 M2038.51 45.84 Q2038.43 39.7232 2035.07 36.0774 Q2031.75 32.4315 2026.24 32.4315 Q2020 32.4315 2016.23 35.9558 Q2012.5 39.4801 2011.94 45.8805 L2038.51 45.84 Z" fill="#000000" fill-rule="nonzero" fill-opacity="1" /><path clip-path="url(#clip261)" d="M372.424 1800.78 L372.424 1800.78 L728.475 1800.78 L728.475 1800.78 L372.424 1800.78 L372.424 1800.78  Z" fill="#da70d6" fill-rule="evenodd" fill-opacity="0.7"/>
<polyline clip-path="url(#clip261)" style="stroke:#000000; stroke-linecap:round; stroke-linejoin:round; stroke-width:4; stroke-opacity:0.7; fill:none" points="372.424,1800.78 372.424,1800.78 728.475,1800.78 372.424,1800.78 "/>
<path clip-path="url(#clip261)" d="M817.488 1800.78 L817.488 1800.78 L1173.54 1800.78 L1173.54 1800.78 L817.488 1800.78 L817.488 1800.78  Z" fill="#da70d6" fill-rule="evenodd" fill-opacity="0.7"/>
<polyline clip-path="url(#clip261)" style="stroke:#000000; stroke-linecap:round; stroke-linejoin:round; stroke-width:4; stroke-opacity:0.7; fill:none" points="817.488,1800.78 817.488,1800.78 1173.54,1800.78 817.488,1800.78 "/>
<path clip-path="url(#clip261)" d="M1262.55 1800.78 L1262.55 1800.78 L1618.6 1800.78 L1618.6 1800.78 L1262.55 1800.78 L1262.55 1800.78  Z" fill="#da70d6" fill-rule="evenodd" fill-opacity="0.7"/>
<polyline clip-path="url(#clip261)" style="stroke:#000000; stroke-linecap:round; stroke-linejoin:round; stroke-width:4; stroke-opacity:0.7; fill:none" points="1262.55,1800.78 1262.55,1800.78 1618.6,1800.78 1262.55,1800.78 "/>
<path clip-path="url(#clip261)" d="M1707.62 1800.78 L1707.62 1800.78 L2063.67 1800.78 L2063.67 1800.78 L1707.62 1800.78 L1707.62 1800.78  Z" fill="#da70d6" fill-rule="evenodd" fill-opacity="0.7"/>
<polyline clip-path="url(#clip261)" style="stroke:#000000; stroke-linecap:round; stroke-linejoin:round; stroke-width:4; stroke-opacity:0.7; fill:none" points="1707.62,1800.78 1707.62,1800.78 2063.67,1800.78 1707.62,1800.78 "/>
<path clip-path="url(#clip261)" d="M2152.68 127.792 L2152.68 1800.78 L2508.73 1800.78 L2508.73 127.792 L2152.68 127.792 L2152.68 127.792  Z" fill="#da70d6" fill-rule="evenodd" fill-opacity="0.7"/>
<polyline clip-path="url(#clip261)" style="stroke:#000000; stroke-linecap:round; stroke-linejoin:round; stroke-width:4; stroke-opacity:0.7; fill:none" points="2152.68,127.792 2152.68,1800.78 2508.73,1800.78 2508.73,127.792 2152.68,127.792 "/>
<circle clip-path="url(#clip261)" style="fill:#da70d6; stroke:none; fill-opacity:0" cx="550.449" cy="1800.78" r="2"/>
<circle clip-path="url(#clip261)" style="fill:#da70d6; stroke:none; fill-opacity:0" cx="995.514" cy="1800.78" r="2"/>
<circle clip-path="url(#clip261)" style="fill:#da70d6; stroke:none; fill-opacity:0" cx="1440.58" cy="1800.78" r="2"/>
<circle clip-path="url(#clip261)" style="fill:#da70d6; stroke:none; fill-opacity:0" cx="1885.64" cy="1800.78" r="2"/>
<circle clip-path="url(#clip261)" style="fill:#da70d6; stroke:none; fill-opacity:0" cx="2330.71" cy="127.792" r="2"/>
</svg>
