<?xml version="1.0" encoding="utf-8"?>
<svg xmlns="http://www.w3.org/2000/svg" xmlns:xlink="http://www.w3.org/1999/xlink" width="672" height="480" viewBox="0 0 2688 1920">
<defs>
  <clipPath id="clip220">
    <rect x="0" y="0" width="2688" height="1920"/>
  </clipPath>
</defs>
<path clip-path="url(#clip220)" d="M0 1920 L2688 1920 L2688 -4.26326e-14 L0 -4.26326e-14  Z" fill="#ffffff" fill-rule="evenodd" fill-opacity="1"/>
<defs>
  <clipPath id="clip221">
    <rect x="210" y="127" width="2432" height="1607"/>
  </clipPath>
</defs>
<path clip-path="url(#clip220)" d="M210.238 1734.12 L2640.76 1734.12 L2640.76 127.792 L210.238 127.792  Z" fill="#ffffff" fill-rule="evenodd" fill-opacity="1"/>
<polyline clip-path="url(#clip221)" style="stroke:#000000; stroke-linecap:round; stroke-linejoin:round; stroke-width:2; stroke-opacity:0.1; fill:none" points="279.026,1734.12 279.026,127.792 "/>
<polyline clip-path="url(#clip221)" style="stroke:#000000; stroke-linecap:round; stroke-linejoin:round; stroke-width:2; stroke-opacity:0.1; fill:none" points="852.261,1734.12 852.261,127.792 "/>
<polyline clip-path="url(#clip221)" style="stroke:#000000; stroke-linecap:round; stroke-linejoin:round; stroke-width:2; stroke-opacity:0.1; fill:none" points="1425.5,1734.12 1425.5,127.792 "/>
<polyline clip-path="url(#clip221)" style="stroke:#000000; stroke-linecap:round; stroke-linejoin:round; stroke-width:2; stroke-opacity:0.1; fill:none" points="1998.73,1734.12 1998.73,127.792 "/>
<polyline clip-path="url(#clip221)" style="stroke:#000000; stroke-linecap:round; stroke-linejoin:round; stroke-width:2; stroke-opacity:0.1; fill:none" points="2571.97,1734.12 2571.97,127.792 "/>
<polyline clip-path="url(#clip221)" style="stroke:#000000; stroke-linecap:round; stroke-linejoin:round; stroke-width:2; stroke-opacity:0.1; fill:none" points="210.238,1567.65 2640.76,1567.65 "/>
<polyline clip-path="url(#clip221)" style="stroke:#000000; stroke-linecap:round; stroke-linejoin:round; stroke-width:2; stroke-opacity:0.1; fill:none" points="210.238,1346.26 2640.76,1346.26 "/>
<polyline clip-path="url(#clip221)" style="stroke:#000000; stroke-linecap:round; stroke-linejoin:round; stroke-width:2; stroke-opacity:0.1; fill:none" points="210.238,1124.86 2640.76,1124.86 "/>
<polyline clip-path="url(#clip221)" style="stroke:#000000; stroke-linecap:round; stroke-linejoin:round; stroke-width:2; stroke-opacity:0.1; fill:none" points="210.238,903.472 2640.76,903.472 "/>
<polyline clip-path="url(#clip221)" style="stroke:#000000; stroke-linecap:round; stroke-linejoin:round; stroke-width:2; stroke-opacity:0.1; fill:none" points="210.238,682.08 2640.76,682.08 "/>
<polyline clip-path="url(#clip221)" style="stroke:#000000; stroke-linecap:round; stroke-linejoin:round; stroke-width:2; stroke-opacity:0.1; fill:none" points="210.238,460.687 2640.76,460.687 "/>
<polyline clip-path="url(#clip221)" style="stroke:#000000; stroke-linecap:round; stroke-linejoin:round; stroke-width:2; stroke-opacity:0.1; fill:none" points="210.238,239.295 2640.76,239.295 "/>
<polyline clip-path="url(#clip220)" style="stroke:#000000; stroke-linecap:round; stroke-linejoin:round; stroke-width:4; stroke-opacity:1; fill:none" points="210.238,1734.12 2640.76,1734.12 "/>
<polyline clip-path="url(#clip220)" style="stroke:#000000; stroke-linecap:round; stroke-linejoin:round; stroke-width:4; stroke-opacity:1; fill:none" points="279.026,1734.12 279.026,1715.22 "/>
<polyline clip-path="url(#clip220)" style="stroke:#000000; stroke-linecap:round; stroke-linejoin:round; stroke-width:4; stroke-opacity:1; fill:none" points="852.261,1734.12 852.261,1715.22 "/>
<polyline clip-path="url(#clip220)" style="stroke:#000000; stroke-linecap:round; stroke-linejoin:round; stroke-width:4; stroke-opacity:1; fill:none" points="1425.5,1734.12 1425.5,1715.22 "/>
<polyline clip-path="url(#clip220)" style="stroke:#000000; stroke-linecap:round; stroke-linejoin:round; stroke-width:4; stroke-opacity:1; fill:none" points="1998.73,1734.12 1998.73,1715.22 "/>
<polyline clip-path="url(#clip220)" style="stroke:#000000; stroke-linecap:round; stroke-linejoin:round; stroke-width:4; stroke-opacity:1; fill:none" points="2571.97,1734.12 2571.97,1715.22 "/>
<path clip-path="url(#clip220)" d="M279.026 1767.34 Q275.415 1767.34 273.586 1770.9 Q271.781 1774.45 271.781 1781.58 Q271.781 1788.68 273.586 1792.25 Q275.415 1795.79 279.026 1795.79 Q282.66 1795.79 284.466 1792.25 Q286.295 1788.68 286.295 1781.58 Q286.295 1774.45 284.466 1770.9 Q282.66 1767.34 279.026 1767.34 M279.026 1763.64 Q284.836 1763.64 287.892 1768.24 Q290.97 1772.83 290.97 1781.58 Q290.97 1790.3 287.892 1794.91 Q284.836 1799.49 279.026 1799.49 Q273.216 1799.49 270.137 1794.91 Q267.082 1790.3 267.082 1781.58 Q267.082 1772.83 270.137 1768.24 Q273.216 1763.64 279.026 1763.64 Z" fill="#000000" fill-rule="nonzero" fill-opacity="1" /><path clip-path="url(#clip220)" d="M826.961 1764.26 L845.317 1764.26 L845.317 1768.2 L831.243 1768.2 L831.243 1776.67 Q832.262 1776.32 833.28 1776.16 Q834.299 1775.97 835.317 1775.97 Q841.104 1775.97 844.484 1779.15 Q847.863 1782.32 847.863 1787.73 Q847.863 1793.31 844.391 1796.41 Q840.919 1799.49 834.6 1799.49 Q832.424 1799.49 830.155 1799.12 Q827.91 1798.75 825.502 1798.01 L825.502 1793.31 Q827.586 1794.45 829.808 1795 Q832.03 1795.56 834.507 1795.56 Q838.512 1795.56 840.85 1793.45 Q843.187 1791.34 843.187 1787.73 Q843.187 1784.12 840.85 1782.02 Q838.512 1779.91 834.507 1779.91 Q832.632 1779.91 830.757 1780.33 Q828.905 1780.74 826.961 1781.62 L826.961 1764.26 Z" fill="#000000" fill-rule="nonzero" fill-opacity="1" /><path clip-path="url(#clip220)" d="M867.076 1767.34 Q863.465 1767.34 861.636 1770.9 Q859.831 1774.45 859.831 1781.58 Q859.831 1788.68 861.636 1792.25 Q863.465 1795.79 867.076 1795.79 Q870.71 1795.79 872.516 1792.25 Q874.345 1788.68 874.345 1781.58 Q874.345 1774.45 872.516 1770.9 Q870.71 1767.34 867.076 1767.34 M867.076 1763.64 Q872.886 1763.64 875.942 1768.24 Q879.021 1772.83 879.021 1781.58 Q879.021 1790.3 875.942 1794.91 Q872.886 1799.49 867.076 1799.49 Q861.266 1799.49 858.187 1794.91 Q855.132 1790.3 855.132 1781.58 Q855.132 1772.83 858.187 1768.24 Q861.266 1763.64 867.076 1763.64 Z" fill="#000000" fill-rule="nonzero" fill-opacity="1" /><path clip-path="url(#clip220)" d="M1385.1 1794.89 L1392.74 1794.89 L1392.74 1768.52 L1384.43 1770.19 L1384.43 1765.93 L1392.7 1764.26 L1397.37 1764.26 L1397.37 1794.89 L1405.01 1794.89 L1405.01 1798.82 L1385.1 1798.82 L1385.1 1794.89 Z" fill="#000000" fill-rule="nonzero" fill-opacity="1" /><path clip-path="url(#clip220)" d="M1424.46 1767.34 Q1420.84 1767.34 1419.02 1770.9 Q1417.21 1774.45 1417.21 1781.58 Q1417.21 1788.68 1419.02 1792.25 Q1420.84 1795.79 1424.46 1795.79 Q1428.09 1795.79 1429.9 1792.25 Q1431.72 1788.68 1431.72 1781.58 Q1431.72 1774.45 1429.9 1770.9 Q1428.09 1767.34 1424.46 1767.34 M1424.46 1763.64 Q1430.27 1763.64 1433.32 1768.24 Q1436.4 1772.83 1436.4 1781.58 Q1436.4 1790.3 1433.32 1794.91 Q1430.27 1799.49 1424.46 1799.49 Q1418.65 1799.49 1415.57 1794.91 Q1412.51 1790.3 1412.51 1781.58 Q1412.51 1772.83 1415.57 1768.24 Q1418.65 1763.64 1424.46 1763.64 Z" fill="#000000" fill-rule="nonzero" fill-opacity="1" /><path clip-path="url(#clip220)" d="M1454.62 1767.34 Q1451.01 1767.34 1449.18 1770.9 Q1447.37 1774.45 1447.37 1781.58 Q1447.37 1788.68 1449.18 1792.25 Q1451.01 1795.79 1454.62 1795.79 Q1458.25 1795.79 1460.06 1792.25 Q1461.89 1788.68 1461.89 1781.58 Q1461.89 1774.45 1460.06 1770.9 Q1458.25 1767.34 1454.62 1767.34 M1454.62 1763.64 Q1460.43 1763.64 1463.48 1768.24 Q1466.56 1772.83 1466.56 1781.58 Q1466.56 1790.3 1463.48 1794.91 Q1460.43 1799.49 1454.62 1799.49 Q1448.81 1799.49 1445.73 1794.91 Q1442.67 1790.3 1442.67 1781.58 Q1442.67 1772.83 1445.73 1768.24 Q1448.81 1763.64 1454.62 1763.64 Z" fill="#000000" fill-rule="nonzero" fill-opacity="1" /><path clip-path="url(#clip220)" d="M1958.34 1794.89 L1965.98 1794.89 L1965.98 1768.52 L1957.67 1770.19 L1957.67 1765.93 L1965.93 1764.26 L1970.61 1764.26 L1970.61 1794.89 L1978.25 1794.89 L1978.25 1798.82 L1958.34 1798.82 L1958.34 1794.89 Z" fill="#000000" fill-rule="nonzero" fill-opacity="1" /><path clip-path="url(#clip220)" d="M1987.74 1764.26 L2006.09 1764.26 L2006.09 1768.2 L1992.02 1768.2 L1992.02 1776.67 Q1993.04 1776.32 1994.06 1776.16 Q1995.07 1775.97 1996.09 1775.97 Q2001.88 1775.97 2005.26 1779.15 Q2008.64 1782.32 2008.64 1787.73 Q2008.64 1793.31 2005.17 1796.41 Q2001.7 1799.49 1995.38 1799.49 Q1993.2 1799.49 1990.93 1799.12 Q1988.69 1798.75 1986.28 1798.01 L1986.28 1793.31 Q1988.36 1794.45 1990.58 1795 Q1992.81 1795.56 1995.28 1795.56 Q1999.29 1795.56 2001.63 1793.45 Q2003.96 1791.34 2003.96 1787.73 Q2003.96 1784.12 2001.63 1782.02 Q1999.29 1779.91 1995.28 1779.91 Q1993.41 1779.91 1991.53 1780.33 Q1989.68 1780.74 1987.74 1781.62 L1987.74 1764.26 Z" fill="#000000" fill-rule="nonzero" fill-opacity="1" /><path clip-path="url(#clip220)" d="M2027.85 1767.34 Q2024.24 1767.34 2022.41 1770.9 Q2020.61 1774.45 2020.61 1781.58 Q2020.61 1788.68 2022.41 1792.25 Q2024.24 1795.79 2027.85 1795.79 Q2031.49 1795.79 2033.29 1792.25 Q2035.12 1788.68 2035.12 1781.58 Q2035.12 1774.45 2033.29 1770.9 Q2031.49 1767.34 2027.85 1767.34 M2027.85 1763.64 Q2033.66 1763.64 2036.72 1768.24 Q2039.8 1772.83 2039.8 1781.58 Q2039.8 1790.3 2036.72 1794.91 Q2033.66 1799.49 2027.85 1799.49 Q2022.04 1799.49 2018.96 1794.91 Q2015.91 1790.3 2015.91 1781.58 Q2015.91 1772.83 2018.96 1768.24 Q2022.04 1763.64 2027.85 1763.64 Z" fill="#000000" fill-rule="nonzero" fill-opacity="1" /><path clip-path="url(#clip220)" d="M2535.66 1794.89 L2551.98 1794.89 L2551.98 1798.82 L2530.04 1798.82 L2530.04 1794.89 Q2532.7 1792.13 2537.28 1787.5 Q2541.89 1782.85 2543.07 1781.51 Q2545.31 1778.98 2546.19 1777.25 Q2547.1 1775.49 2547.1 1773.8 Q2547.1 1771.04 2545.15 1769.31 Q2543.23 1767.57 2540.13 1767.57 Q2537.93 1767.57 2535.47 1768.34 Q2533.04 1769.1 2530.27 1770.65 L2530.27 1765.93 Q2533.09 1764.79 2535.54 1764.21 Q2538 1763.64 2540.03 1763.64 Q2545.41 1763.64 2548.6 1766.32 Q2551.79 1769.01 2551.79 1773.5 Q2551.79 1775.63 2550.98 1777.55 Q2550.2 1779.45 2548.09 1782.04 Q2547.51 1782.71 2544.41 1785.93 Q2541.31 1789.12 2535.66 1794.89 Z" fill="#000000" fill-rule="nonzero" fill-opacity="1" /><path clip-path="url(#clip220)" d="M2571.79 1767.34 Q2568.18 1767.34 2566.35 1770.9 Q2564.55 1774.45 2564.55 1781.58 Q2564.55 1788.68 2566.35 1792.25 Q2568.18 1795.79 2571.79 1795.79 Q2575.43 1795.79 2577.23 1792.25 Q2579.06 1788.68 2579.06 1781.58 Q2579.06 1774.45 2577.23 1770.9 Q2575.43 1767.34 2571.79 1767.34 M2571.79 1763.64 Q2577.6 1763.64 2580.66 1768.24 Q2583.74 1772.83 2583.74 1781.58 Q2583.74 1790.3 2580.66 1794.91 Q2577.6 1799.49 2571.79 1799.49 Q2565.98 1799.49 2562.91 1794.91 Q2559.85 1790.3 2559.85 1781.58 Q2559.85 1772.83 2562.91 1768.24 Q2565.98 1763.64 2571.79 1763.64 Z" fill="#000000" fill-rule="nonzero" fill-opacity="1" /><path clip-path="url(#clip220)" d="M2601.96 1767.34 Q2598.34 1767.34 2596.52 1770.9 Q2594.71 1774.45 2594.71 1781.58 Q2594.71 1788.68 2596.52 1792.25 Q2598.34 1795.79 2601.96 1795.79 Q2605.59 1795.79 2607.4 1792.25 Q2609.22 1788.68 2609.22 1781.58 Q2609.22 1774.45 2607.4 1770.9 Q2605.59 1767.34 2601.96 1767.34 M2601.96 1763.64 Q2607.77 1763.64 2610.82 1768.24 Q2613.9 1772.83 2613.9 1781.58 Q2613.9 1790.3 2610.82 1794.91 Q2607.77 1799.49 2601.96 1799.49 Q2596.15 1799.49 2593.07 1794.91 Q2590.01 1790.3 2590.01 1781.58 Q2590.01 1772.83 2593.07 1768.24 Q2596.15 1763.64 2601.96 1763.64 Z" fill="#000000" fill-rule="nonzero" fill-opacity="1" /><path clip-path="url(#clip220)" d="M1266.56 1835.78 L1306.76 1835.78 L1306.76 1841.19 L1289.89 1841.19 L1289.89 1883.3 L1283.43 1883.3 L1283.43 1841.19 L1266.56 1841.19 L1266.56 1835.78 Z" fill="#000000" fill-rule="nonzero" fill-opacity="1" /><path clip-path="url(#clip220)" d="M1310.71 1847.65 L1316.56 1847.65 L1316.56 1883.3 L1310.71 1883.3 L1310.71 1847.65 M1310.71 1833.78 L1316.56 1833.78 L1316.56 1841.19 L1310.71 1841.19 L1310.71 1833.78 Z" fill="#000000" fill-rule="nonzero" fill-opacity="1" /><path clip-path="url(#clip220)" d="M1356.57 1854.5 Q1358.77 1850.55 1361.82 1848.67 Q1364.88 1846.79 1369.02 1846.79 Q1374.59 1846.79 1377.61 1850.71 Q1380.63 1854.59 1380.63 1861.78 L1380.63 1883.3 L1374.75 1883.3 L1374.75 1861.98 Q1374.75 1856.85 1372.93 1854.37 Q1371.12 1851.89 1367.39 1851.89 Q1362.84 1851.89 1360.2 1854.91 Q1357.56 1857.93 1357.56 1863.15 L1357.56 1883.3 L1351.67 1883.3 L1351.67 1861.98 Q1351.67 1856.82 1349.86 1854.37 Q1348.04 1851.89 1344.25 1851.89 Q1339.77 1851.89 1337.12 1854.94 Q1334.48 1857.97 1334.48 1863.15 L1334.48 1883.3 L1328.59 1883.3 L1328.59 1847.65 L1334.48 1847.65 L1334.48 1853.19 Q1336.49 1849.91 1339.29 1848.35 Q1342.09 1846.79 1345.94 1846.79 Q1349.82 1846.79 1352.53 1848.77 Q1355.27 1850.74 1356.57 1854.5 Z" fill="#000000" fill-rule="nonzero" fill-opacity="1" /><path clip-path="url(#clip220)" d="M1422.81 1864.01 L1422.81 1866.88 L1395.88 1866.88 Q1396.26 1872.92 1399.51 1876.11 Q1402.79 1879.26 1408.61 1879.26 Q1411.99 1879.26 1415.14 1878.43 Q1418.32 1877.6 1421.44 1875.95 L1421.44 1881.49 Q1418.29 1882.82 1414.98 1883.52 Q1411.67 1884.22 1408.26 1884.22 Q1399.73 1884.22 1394.73 1879.26 Q1389.77 1874.29 1389.77 1865.83 Q1389.77 1857.07 1394.48 1851.95 Q1399.22 1846.79 1407.24 1846.79 Q1414.44 1846.79 1418.61 1851.44 Q1422.81 1856.06 1422.81 1864.01 M1416.95 1862.29 Q1416.89 1857.49 1414.25 1854.62 Q1411.64 1851.76 1407.31 1851.76 Q1402.41 1851.76 1399.45 1854.53 Q1396.52 1857.3 1396.07 1862.33 L1416.95 1862.29 Z" fill="#000000" fill-rule="nonzero" fill-opacity="1" /><path clip-path="url(#clip220)" d="M1475.87 1848.7 L1475.87 1854.24 Q1473.38 1852.97 1470.71 1852.33 Q1468.04 1851.7 1465.17 1851.7 Q1460.81 1851.7 1458.61 1853.03 Q1456.45 1854.37 1456.45 1857.04 Q1456.45 1859.08 1458.01 1860.26 Q1459.57 1861.4 1464.28 1862.45 L1466.29 1862.9 Q1472.52 1864.24 1475.13 1866.69 Q1477.78 1869.11 1477.78 1873.47 Q1477.78 1878.43 1473.83 1881.33 Q1469.91 1884.22 1463.04 1884.22 Q1460.17 1884.22 1457.05 1883.65 Q1453.97 1883.11 1450.53 1882 L1450.53 1875.95 Q1453.78 1877.64 1456.93 1878.49 Q1460.08 1879.32 1463.17 1879.32 Q1467.3 1879.32 1469.53 1877.92 Q1471.76 1876.49 1471.76 1873.91 Q1471.76 1871.52 1470.14 1870.25 Q1468.54 1868.98 1463.1 1867.8 L1461.07 1867.32 Q1455.62 1866.18 1453.2 1863.82 Q1450.78 1861.43 1450.78 1857.3 Q1450.78 1852.27 1454.35 1849.53 Q1457.91 1846.79 1464.47 1846.79 Q1467.72 1846.79 1470.58 1847.27 Q1473.45 1847.75 1475.87 1848.7 Z" fill="#000000" fill-rule="nonzero" fill-opacity="1" /><path clip-path="url(#clip220)" d="M1492.89 1837.53 L1492.89 1847.65 L1504.96 1847.65 L1504.96 1852.2 L1492.89 1852.2 L1492.89 1871.56 Q1492.89 1875.92 1494.07 1877.16 Q1495.28 1878.4 1498.94 1878.4 L1504.96 1878.4 L1504.96 1883.3 L1498.94 1883.3 Q1492.16 1883.3 1489.58 1880.79 Q1487.01 1878.24 1487.01 1871.56 L1487.01 1852.2 L1482.71 1852.2 L1482.71 1847.65 L1487.01 1847.65 L1487.01 1837.53 L1492.89 1837.53 Z" fill="#000000" fill-rule="nonzero" fill-opacity="1" /><path clip-path="url(#clip220)" d="M1543.15 1864.01 L1543.15 1866.88 L1516.22 1866.88 Q1516.61 1872.92 1519.85 1876.11 Q1523.13 1879.26 1528.96 1879.26 Q1532.33 1879.26 1535.48 1878.43 Q1538.66 1877.6 1541.78 1875.95 L1541.78 1881.49 Q1538.63 1882.82 1535.32 1883.52 Q1532.01 1884.22 1528.61 1884.22 Q1520.08 1884.22 1515.08 1879.26 Q1510.11 1874.29 1510.11 1865.83 Q1510.11 1857.07 1514.82 1851.95 Q1519.57 1846.79 1527.59 1846.79 Q1534.78 1846.79 1538.95 1851.44 Q1543.15 1856.06 1543.15 1864.01 M1537.29 1862.29 Q1537.23 1857.49 1534.59 1854.62 Q1531.98 1851.76 1527.65 1851.76 Q1522.75 1851.76 1519.79 1854.53 Q1516.86 1857.3 1516.42 1862.33 L1537.29 1862.29 Z" fill="#000000" fill-rule="nonzero" fill-opacity="1" /><path clip-path="url(#clip220)" d="M1558.43 1877.95 L1558.43 1896.86 L1552.54 1896.86 L1552.54 1847.65 L1558.43 1847.65 L1558.43 1853.06 Q1560.27 1849.88 1563.08 1848.35 Q1565.91 1846.79 1569.82 1846.79 Q1576.32 1846.79 1580.36 1851.95 Q1584.43 1857.11 1584.43 1865.51 Q1584.43 1873.91 1580.36 1879.07 Q1576.32 1884.22 1569.82 1884.22 Q1565.91 1884.22 1563.08 1882.7 Q1560.27 1881.14 1558.43 1877.95 M1578.35 1865.51 Q1578.35 1859.05 1575.68 1855.39 Q1573.04 1851.7 1568.39 1851.7 Q1563.74 1851.7 1561.07 1855.39 Q1558.43 1859.05 1558.43 1865.51 Q1558.43 1871.97 1561.07 1875.66 Q1563.74 1879.32 1568.39 1879.32 Q1573.04 1879.32 1575.68 1875.66 Q1578.35 1871.97 1578.35 1865.51 Z" fill="#000000" fill-rule="nonzero" fill-opacity="1" /><polyline clip-path="url(#clip220)" style="stroke:#000000; stroke-linecap:round; stroke-linejoin:round; stroke-width:4; stroke-opacity:1; fill:none" points="210.238,1734.12 210.238,127.792 "/>
<polyline clip-path="url(#clip220)" style="stroke:#000000; stroke-linecap:round; stroke-linejoin:round; stroke-width:4; stroke-opacity:1; fill:none" points="210.238,1567.65 229.135,1567.65 "/>
<polyline clip-path="url(#clip220)" style="stroke:#000000; stroke-linecap:round; stroke-linejoin:round; stroke-width:4; stroke-opacity:1; fill:none" points="210.238,1346.26 229.135,1346.26 "/>
<polyline clip-path="url(#clip220)" style="stroke:#000000; stroke-linecap:round; stroke-linejoin:round; stroke-width:4; stroke-opacity:1; fill:none" points="210.238,1124.86 229.135,1124.86 "/>
<polyline clip-path="url(#clip220)" style="stroke:#000000; stroke-linecap:round; stroke-linejoin:round; stroke-width:4; stroke-opacity:1; fill:none" points="210.238,903.472 229.135,903.472 "/>
<polyline clip-path="url(#clip220)" style="stroke:#000000; stroke-linecap:round; stroke-linejoin:round; stroke-width:4; stroke-opacity:1; fill:none" points="210.238,682.08 229.135,682.08 "/>
<polyline clip-path="url(#clip220)" style="stroke:#000000; stroke-linecap:round; stroke-linejoin:round; stroke-width:4; stroke-opacity:1; fill:none" points="210.238,460.687 229.135,460.687 "/>
<polyline clip-path="url(#clip220)" style="stroke:#000000; stroke-linecap:round; stroke-linejoin:round; stroke-width:4; stroke-opacity:1; fill:none" points="210.238,239.295 229.135,239.295 "/>
<path clip-path="url(#clip220)" d="M149.015 1550.37 L167.372 1550.37 L167.372 1554.3 L153.298 1554.3 L153.298 1562.78 Q154.316 1562.43 155.335 1562.27 Q156.353 1562.08 157.372 1562.08 Q163.159 1562.08 166.538 1565.25 Q169.918 1568.42 169.918 1573.84 Q169.918 1579.42 166.446 1582.52 Q162.973 1585.6 156.654 1585.6 Q154.478 1585.6 152.21 1585.23 Q149.964 1584.86 147.557 1584.12 L147.557 1579.42 Q149.64 1580.55 151.862 1581.11 Q154.085 1581.67 156.561 1581.67 Q160.566 1581.67 162.904 1579.56 Q165.242 1577.45 165.242 1573.84 Q165.242 1570.23 162.904 1568.12 Q160.566 1566.02 156.561 1566.02 Q154.686 1566.02 152.811 1566.43 Q150.96 1566.85 149.015 1567.73 L149.015 1550.37 Z" fill="#000000" fill-rule="nonzero" fill-opacity="1" /><path clip-path="url(#clip220)" d="M118.622 1359.6 L126.261 1359.6 L126.261 1333.24 L117.951 1334.9 L117.951 1330.64 L126.214 1328.98 L130.89 1328.98 L130.89 1359.6 L138.529 1359.6 L138.529 1363.54 L118.622 1363.54 L118.622 1359.6 Z" fill="#000000" fill-rule="nonzero" fill-opacity="1" /><path clip-path="url(#clip220)" d="M157.973 1332.06 Q154.362 1332.06 152.534 1335.62 Q150.728 1339.16 150.728 1346.29 Q150.728 1353.4 152.534 1356.96 Q154.362 1360.5 157.973 1360.5 Q161.608 1360.5 163.413 1356.96 Q165.242 1353.4 165.242 1346.29 Q165.242 1339.16 163.413 1335.62 Q161.608 1332.06 157.973 1332.06 M157.973 1328.35 Q163.784 1328.35 166.839 1332.96 Q169.918 1337.54 169.918 1346.29 Q169.918 1355.02 166.839 1359.63 Q163.784 1364.21 157.973 1364.21 Q152.163 1364.21 149.085 1359.63 Q146.029 1355.02 146.029 1346.29 Q146.029 1337.54 149.085 1332.96 Q152.163 1328.35 157.973 1328.35 Z" fill="#000000" fill-rule="nonzero" fill-opacity="1" /><path clip-path="url(#clip220)" d="M119.617 1138.21 L127.256 1138.21 L127.256 1111.84 L118.946 1113.51 L118.946 1109.25 L127.21 1107.58 L131.886 1107.58 L131.886 1138.21 L139.525 1138.21 L139.525 1142.14 L119.617 1142.14 L119.617 1138.21 Z" fill="#000000" fill-rule="nonzero" fill-opacity="1" /><path clip-path="url(#clip220)" d="M149.015 1107.58 L167.372 1107.58 L167.372 1111.52 L153.298 1111.52 L153.298 1119.99 Q154.316 1119.64 155.335 1119.48 Q156.353 1119.3 157.372 1119.3 Q163.159 1119.3 166.538 1122.47 Q169.918 1125.64 169.918 1131.06 Q169.918 1136.64 166.446 1139.74 Q162.973 1142.82 156.654 1142.82 Q154.478 1142.82 152.21 1142.45 Q149.964 1142.08 147.557 1141.33 L147.557 1136.64 Q149.64 1137.77 151.862 1138.33 Q154.085 1138.88 156.561 1138.88 Q160.566 1138.88 162.904 1136.77 Q165.242 1134.67 165.242 1131.06 Q165.242 1127.45 162.904 1125.34 Q160.566 1123.23 156.561 1123.23 Q154.686 1123.23 152.811 1123.65 Q150.96 1124.07 149.015 1124.95 L149.015 1107.58 Z" fill="#000000" fill-rule="nonzero" fill-opacity="1" /><path clip-path="url(#clip220)" d="M121.839 916.817 L138.159 916.817 L138.159 920.752 L116.214 920.752 L116.214 916.817 Q118.876 914.062 123.46 909.433 Q128.066 904.78 129.247 903.437 Q131.492 900.914 132.372 899.178 Q133.275 897.419 133.275 895.729 Q133.275 892.975 131.33 891.238 Q129.409 889.502 126.307 889.502 Q124.108 889.502 121.654 890.266 Q119.224 891.03 116.446 892.581 L116.446 887.859 Q119.27 886.725 121.724 886.146 Q124.177 885.567 126.214 885.567 Q131.585 885.567 134.779 888.252 Q137.974 890.938 137.974 895.428 Q137.974 897.558 137.163 899.479 Q136.376 901.377 134.27 903.97 Q133.691 904.641 130.589 907.859 Q127.488 911.053 121.839 916.817 Z" fill="#000000" fill-rule="nonzero" fill-opacity="1" /><path clip-path="url(#clip220)" d="M157.973 889.271 Q154.362 889.271 152.534 892.836 Q150.728 896.377 150.728 903.507 Q150.728 910.613 152.534 914.178 Q154.362 917.72 157.973 917.72 Q161.608 917.72 163.413 914.178 Q165.242 910.613 165.242 903.507 Q165.242 896.377 163.413 892.836 Q161.608 889.271 157.973 889.271 M157.973 885.567 Q163.784 885.567 166.839 890.174 Q169.918 894.757 169.918 903.507 Q169.918 912.234 166.839 916.84 Q163.784 921.424 157.973 921.424 Q152.163 921.424 149.085 916.84 Q146.029 912.234 146.029 903.507 Q146.029 894.757 149.085 890.174 Q152.163 885.567 157.973 885.567 Z" fill="#000000" fill-rule="nonzero" fill-opacity="1" /><path clip-path="url(#clip220)" d="M122.835 695.425 L139.154 695.425 L139.154 699.36 L117.21 699.36 L117.21 695.425 Q119.872 692.67 124.455 688.04 Q129.062 683.388 130.242 682.045 Q132.488 679.522 133.367 677.786 Q134.27 676.027 134.27 674.337 Q134.27 671.582 132.325 669.846 Q130.404 668.11 127.302 668.11 Q125.103 668.11 122.65 668.874 Q120.219 669.638 117.441 671.189 L117.441 666.466 Q120.265 665.332 122.719 664.754 Q125.173 664.175 127.21 664.175 Q132.58 664.175 135.775 666.86 Q138.969 669.545 138.969 674.036 Q138.969 676.165 138.159 678.087 Q137.372 679.985 135.265 682.577 Q134.687 683.249 131.585 686.466 Q128.483 689.661 122.835 695.425 Z" fill="#000000" fill-rule="nonzero" fill-opacity="1" /><path clip-path="url(#clip220)" d="M149.015 664.8 L167.372 664.8 L167.372 668.735 L153.298 668.735 L153.298 677.207 Q154.316 676.86 155.335 676.698 Q156.353 676.513 157.372 676.513 Q163.159 676.513 166.538 679.684 Q169.918 682.855 169.918 688.272 Q169.918 693.851 166.446 696.952 Q162.973 700.031 156.654 700.031 Q154.478 700.031 152.21 699.661 Q149.964 699.29 147.557 698.55 L147.557 693.851 Q149.64 694.985 151.862 695.54 Q154.085 696.096 156.561 696.096 Q160.566 696.096 162.904 693.989 Q165.242 691.883 165.242 688.272 Q165.242 684.661 162.904 682.554 Q160.566 680.448 156.561 680.448 Q154.686 680.448 152.811 680.865 Q150.96 681.281 149.015 682.161 L149.015 664.8 Z" fill="#000000" fill-rule="nonzero" fill-opacity="1" /><path clip-path="url(#clip220)" d="M131.978 459.333 Q135.335 460.051 137.21 462.319 Q139.108 464.588 139.108 467.921 Q139.108 473.037 135.589 475.838 Q132.071 478.639 125.589 478.639 Q123.413 478.639 121.099 478.199 Q118.807 477.782 116.353 476.926 L116.353 472.412 Q118.298 473.546 120.613 474.125 Q122.927 474.704 125.451 474.704 Q129.849 474.704 132.14 472.967 Q134.455 471.231 134.455 467.921 Q134.455 464.866 132.302 463.153 Q130.173 461.417 126.353 461.417 L122.326 461.417 L122.326 457.574 L126.538 457.574 Q129.988 457.574 131.816 456.208 Q133.645 454.819 133.645 452.227 Q133.645 449.565 131.747 448.153 Q129.872 446.718 126.353 446.718 Q124.432 446.718 122.233 447.134 Q120.034 447.551 117.395 448.431 L117.395 444.264 Q120.057 443.523 122.372 443.153 Q124.71 442.782 126.77 442.782 Q132.094 442.782 135.196 445.213 Q138.298 447.62 138.298 451.741 Q138.298 454.611 136.654 456.602 Q135.011 458.569 131.978 459.333 Z" fill="#000000" fill-rule="nonzero" fill-opacity="1" /><path clip-path="url(#clip220)" d="M157.973 446.486 Q154.362 446.486 152.534 450.051 Q150.728 453.593 150.728 460.722 Q150.728 467.829 152.534 471.393 Q154.362 474.935 157.973 474.935 Q161.608 474.935 163.413 471.393 Q165.242 467.829 165.242 460.722 Q165.242 453.593 163.413 450.051 Q161.608 446.486 157.973 446.486 M157.973 442.782 Q163.784 442.782 166.839 447.389 Q169.918 451.972 169.918 460.722 Q169.918 469.449 166.839 474.055 Q163.784 478.639 157.973 478.639 Q152.163 478.639 149.085 474.055 Q146.029 469.449 146.029 460.722 Q146.029 451.972 149.085 447.389 Q152.163 442.782 157.973 442.782 Z" fill="#000000" fill-rule="nonzero" fill-opacity="1" /><path clip-path="url(#clip220)" d="M132.974 237.941 Q136.33 238.658 138.205 240.927 Q140.103 243.195 140.103 246.529 Q140.103 251.644 136.585 254.445 Q133.066 257.246 126.585 257.246 Q124.409 257.246 122.094 256.806 Q119.802 256.39 117.349 255.533 L117.349 251.019 Q119.293 252.154 121.608 252.732 Q123.923 253.311 126.446 253.311 Q130.844 253.311 133.136 251.575 Q135.45 249.839 135.45 246.529 Q135.45 243.473 133.298 241.76 Q131.168 240.024 127.349 240.024 L123.321 240.024 L123.321 236.182 L127.534 236.182 Q130.983 236.182 132.812 234.816 Q134.64 233.427 134.64 230.834 Q134.64 228.172 132.742 226.76 Q130.867 225.325 127.349 225.325 Q125.427 225.325 123.228 225.742 Q121.029 226.158 118.39 227.038 L118.39 222.871 Q121.052 222.131 123.367 221.76 Q125.705 221.39 127.765 221.39 Q133.089 221.39 136.191 223.821 Q139.293 226.228 139.293 230.348 Q139.293 233.219 137.65 235.209 Q136.006 237.177 132.974 237.941 Z" fill="#000000" fill-rule="nonzero" fill-opacity="1" /><path clip-path="url(#clip220)" d="M149.015 222.015 L167.372 222.015 L167.372 225.95 L153.298 225.95 L153.298 234.422 Q154.316 234.075 155.335 233.913 Q156.353 233.728 157.372 233.728 Q163.159 233.728 166.538 236.899 Q169.918 240.07 169.918 245.487 Q169.918 251.066 166.446 254.168 Q162.973 257.246 156.654 257.246 Q154.478 257.246 152.21 256.876 Q149.964 256.506 147.557 255.765 L147.557 251.066 Q149.64 252.2 151.862 252.756 Q154.085 253.311 156.561 253.311 Q160.566 253.311 162.904 251.205 Q165.242 249.098 165.242 245.487 Q165.242 241.876 162.904 239.769 Q160.566 237.663 156.561 237.663 Q154.686 237.663 152.811 238.08 Q150.96 238.496 149.015 239.376 L149.015 222.015 Z" fill="#000000" fill-rule="nonzero" fill-opacity="1" /><path clip-path="url(#clip220)" d="M12.1132 1073.85 L12.1132 1067.99 L61.6384 1067.99 L61.6384 1073.85 L12.1132 1073.85 Z" fill="#000000" fill-rule="nonzero" fill-opacity="1" /><path clip-path="url(#clip220)" d="M30.0964 1041.92 Q30.0964 1046.64 33.7885 1049.37 Q37.4488 1052.11 43.8463 1052.11 Q50.2438 1052.11 53.9359 1049.4 Q57.5962 1046.67 57.5962 1041.92 Q57.5962 1037.25 53.9041 1034.51 Q50.212 1031.77 43.8463 1031.77 Q37.5124 1031.77 33.8203 1034.51 Q30.0964 1037.25 30.0964 1041.92 M25.1311 1041.92 Q25.1311 1034.29 30.0964 1029.93 Q35.0616 1025.56 43.8463 1025.56 Q52.5991 1025.56 57.5962 1029.93 Q62.5615 1034.29 62.5615 1041.92 Q62.5615 1049.6 57.5962 1053.96 Q52.5991 1058.28 43.8463 1058.28 Q35.0616 1058.28 30.0964 1053.96 Q25.1311 1049.6 25.1311 1041.92 Z" fill="#000000" fill-rule="nonzero" fill-opacity="1" /><path clip-path="url(#clip220)" d="M43.4007 992.4 Q37.035 992.4 33.5338 995.041 Q30.0327 997.651 30.0327 1002.39 Q30.0327 1007.1 33.5338 1009.75 Q37.035 1012.36 43.4007 1012.36 Q49.7346 1012.36 53.2357 1009.75 Q56.7368 1007.1 56.7368 1002.39 Q56.7368 997.651 53.2357 995.041 Q49.7346 992.4 43.4007 992.4 M57.2143 986.543 Q66.3172 986.543 70.7414 990.585 Q75.1974 994.628 75.1974 1002.97 Q75.1974 1006.05 74.72 1008.79 Q74.2744 1011.53 73.3195 1014.11 L67.6222 1014.11 Q69.0227 1011.53 69.6911 1009.01 Q70.3595 1006.5 70.3595 1003.89 Q70.3595 998.129 67.3358 995.264 Q64.3439 992.4 58.2646 992.4 L55.3682 992.4 Q58.5192 994.214 60.0788 997.047 Q61.6384 999.879 61.6384 1003.83 Q61.6384 1010.38 56.6414 1014.39 Q51.6443 1018.4 43.4007 1018.4 Q35.1253 1018.4 30.1282 1014.39 Q25.1311 1010.38 25.1311 1003.83 Q25.1311 999.879 26.6907 997.047 Q28.2503 994.214 31.4013 992.4 L25.9905 992.4 L25.9905 986.543 L57.2143 986.543 Z" fill="#000000" fill-rule="nonzero" fill-opacity="1" /><path clip-path="url(#clip220)" d="M58.1373 975.658 L58.1373 969.165 L38.6901 969.165 L39.995 976.262 L36.3029 976.262 L35.0616 968.942 L35.0616 964.581 L58.1373 964.581 L58.1373 958.057 L61.6384 958.057 L61.6384 975.658 L58.1373 975.658 Z" fill="#000000" fill-rule="nonzero" fill-opacity="1" /><path clip-path="url(#clip220)" d="M40.0905 936.349 Q37.3533 937.941 37.3533 941.156 Q37.3533 944.37 40.0905 945.962 Q42.8278 947.585 48.3023 947.585 Q53.8086 947.585 56.5459 945.962 Q59.2831 944.37 59.2831 941.156 Q59.2831 937.941 56.5459 936.349 Q53.8086 934.726 48.3023 934.726 Q42.8278 934.726 40.0905 936.349 M34.5205 941.156 Q34.5205 936.031 38.0535 933.326 Q41.5865 930.62 48.3023 930.62 Q55.0499 930.62 58.5829 933.326 Q62.1159 936.031 62.1159 941.156 Q62.1159 946.312 58.5829 949.017 Q55.0499 951.723 48.3023 951.723 Q41.5865 951.723 38.0535 949.017 Q34.5205 946.312 34.5205 941.156 Z" fill="#000000" fill-rule="nonzero" fill-opacity="1" /><path clip-path="url(#clip220)" d="M14.1184 901.243 L14.1184 892.585 L53.8723 871.515 L14.1184 871.515 L14.1184 865.276 L61.6384 865.276 L61.6384 873.934 L21.8846 895.004 L61.6384 895.004 L61.6384 901.243 L14.1184 901.243 Z" fill="#000000" fill-rule="nonzero" fill-opacity="1" /><path clip-path="url(#clip220)" d="M12.1769 838.668 Q19.4975 842.933 26.6589 845.002 Q33.8203 847.07 41.1727 847.07 Q48.5251 847.07 55.7502 845.002 Q62.9434 842.901 70.2321 838.668 L70.2321 843.76 Q62.7524 848.535 55.5274 850.922 Q48.3023 853.277 41.1727 853.277 Q34.0749 853.277 26.8817 850.922 Q19.6884 848.566 12.1769 843.76 L12.1769 838.668 Z" fill="#000000" fill-rule="nonzero" fill-opacity="1" /><path clip-path="url(#clip220)" d="M15.869 821.512 L25.9905 821.512 L25.9905 809.449 L30.542 809.449 L30.542 821.512 L49.8937 821.512 Q54.2542 821.512 55.4955 820.334 Q56.7368 819.125 56.7368 815.465 L56.7368 809.449 L61.6384 809.449 L61.6384 815.465 Q61.6384 822.244 59.124 824.822 Q56.5777 827.4 49.8937 827.4 L30.542 827.4 L30.542 831.697 L25.9905 831.697 L25.9905 827.4 L15.869 827.4 L15.869 821.512 Z" fill="#000000" fill-rule="nonzero" fill-opacity="1" /><path clip-path="url(#clip220)" d="M12.1769 802.67 L12.1769 797.577 Q19.6884 792.803 26.8817 790.447 Q34.0749 788.06 41.1727 788.06 Q48.3023 788.06 55.5274 790.447 Q62.7524 792.803 70.2321 797.577 L70.2321 802.67 Q62.9434 798.436 55.7502 796.368 Q48.5251 794.267 41.1727 794.267 Q33.8203 794.267 26.6589 796.368 Q19.4975 798.436 12.1769 802.67 Z" fill="#000000" fill-rule="nonzero" fill-opacity="1" /><path clip-path="url(#clip220)" d="M557.55 18.8205 L557.55 41.5461 L567.839 41.5461 Q573.551 41.5461 576.67 38.5889 Q579.79 35.6318 579.79 30.163 Q579.79 24.7348 576.67 21.7777 Q573.551 18.8205 567.839 18.8205 L557.55 18.8205 M549.367 12.096 L567.839 12.096 Q578.007 12.096 583.192 16.714 Q588.418 21.2916 588.418 30.163 Q588.418 39.1155 583.192 43.6931 Q578.007 48.2706 567.839 48.2706 L557.55 48.2706 L557.55 72.576 L549.367 72.576 L549.367 12.096 Z" fill="#000000" fill-rule="nonzero" fill-opacity="1" /><path clip-path="url(#clip220)" d="M615.964 49.7694 Q606.931 49.7694 603.447 51.8354 Q599.963 53.9013 599.963 58.8839 Q599.963 62.8538 602.556 65.2034 Q605.189 67.5124 609.685 67.5124 Q615.883 67.5124 619.61 63.1374 Q623.377 58.7219 623.377 51.4303 L623.377 49.7694 L615.964 49.7694 M630.831 46.6907 L630.831 72.576 L623.377 72.576 L623.377 65.6895 Q620.825 69.8214 617.017 71.8063 Q613.21 73.7508 607.7 73.7508 Q600.733 73.7508 596.601 69.8619 Q592.509 65.9325 592.509 59.3701 Q592.509 51.7138 597.614 47.825 Q602.758 43.9361 612.926 43.9361 L623.377 43.9361 L623.377 43.2069 Q623.377 38.0623 619.975 35.2672 Q616.612 32.4315 610.495 32.4315 Q606.607 32.4315 602.92 33.3632 Q599.234 34.295 595.831 36.1584 L595.831 29.2718 Q599.923 27.692 603.771 26.9223 Q607.619 26.1121 611.265 26.1121 Q621.109 26.1121 625.97 31.2163 Q630.831 36.3204 630.831 46.6907 Z" fill="#000000" fill-rule="nonzero" fill-opacity="1" /><path clip-path="url(#clip220)" d="M672.474 34.1734 Q671.219 33.4443 669.72 33.1202 Q668.261 32.7556 666.479 32.7556 Q660.16 32.7556 656.757 36.8875 Q653.395 40.9789 653.395 48.6757 L653.395 72.576 L645.9 72.576 L645.9 27.2059 L653.395 27.2059 L653.395 34.2544 Q655.744 30.1225 659.511 28.1376 Q663.279 26.1121 668.666 26.1121 Q669.436 26.1121 670.368 26.2337 Q671.3 26.3147 672.434 26.5172 L672.474 34.1734 Z" fill="#000000" fill-rule="nonzero" fill-opacity="1" /><path clip-path="url(#clip220)" d="M700.912 49.7694 Q691.878 49.7694 688.394 51.8354 Q684.911 53.9013 684.911 58.8839 Q684.911 62.8538 687.503 65.2034 Q690.136 67.5124 694.633 67.5124 Q700.831 67.5124 704.557 63.1374 Q708.325 58.7219 708.325 51.4303 L708.325 49.7694 L700.912 49.7694 M715.778 46.6907 L715.778 72.576 L708.325 72.576 L708.325 65.6895 Q705.773 69.8214 701.965 71.8063 Q698.157 73.7508 692.648 73.7508 Q685.68 73.7508 681.548 69.8619 Q677.457 65.9325 677.457 59.3701 Q677.457 51.7138 682.561 47.825 Q687.706 43.9361 697.873 43.9361 L708.325 43.9361 L708.325 43.2069 Q708.325 38.0623 704.922 35.2672 Q701.56 32.4315 695.443 32.4315 Q691.554 32.4315 687.868 33.3632 Q684.181 34.295 680.779 36.1584 L680.779 29.2718 Q684.87 27.692 688.718 26.9223 Q692.567 26.1121 696.213 26.1121 Q706.056 26.1121 710.917 31.2163 Q715.778 36.3204 715.778 46.6907 Z" fill="#000000" fill-rule="nonzero" fill-opacity="1" /><path clip-path="url(#clip220)" d="M766.455 35.9153 Q769.25 30.8922 773.139 28.5022 Q777.028 26.1121 782.294 26.1121 Q789.383 26.1121 793.232 31.0947 Q797.08 36.0368 797.08 45.1919 L797.08 72.576 L789.586 72.576 L789.586 45.4349 Q789.586 38.913 787.277 35.7533 Q784.968 32.5936 780.228 32.5936 Q774.436 32.5936 771.073 36.4419 Q767.711 40.2903 767.711 46.9338 L767.711 72.576 L760.217 72.576 L760.217 45.4349 Q760.217 38.8725 757.908 35.7533 Q755.599 32.5936 750.778 32.5936 Q745.067 32.5936 741.704 36.4824 Q738.342 40.3308 738.342 46.9338 L738.342 72.576 L730.848 72.576 L730.848 27.2059 L738.342 27.2059 L738.342 34.2544 Q740.894 30.082 744.459 28.0971 Q748.024 26.1121 752.925 26.1121 Q757.867 26.1121 761.311 28.6237 Q764.794 31.1352 766.455 35.9153 Z" fill="#000000" fill-rule="nonzero" fill-opacity="1" /><path clip-path="url(#clip220)" d="M850.755 48.0275 L850.755 51.6733 L816.484 51.6733 Q816.97 59.3701 821.102 63.421 Q825.274 67.4314 832.688 67.4314 Q836.982 67.4314 840.992 66.3781 Q845.043 65.3249 849.013 63.2184 L849.013 70.267 Q845.002 71.9684 840.789 72.8596 Q836.576 73.7508 832.242 73.7508 Q821.386 73.7508 815.026 67.4314 Q808.706 61.1119 808.706 50.3365 Q808.706 39.1965 814.702 32.6746 Q820.737 26.1121 830.946 26.1121 Q840.101 26.1121 845.407 32.0264 Q850.755 37.9003 850.755 48.0275 M843.301 45.84 Q843.22 39.7232 839.858 36.0774 Q836.536 32.4315 831.027 32.4315 Q824.788 32.4315 821.021 35.9558 Q817.294 39.4801 816.727 45.8805 L843.301 45.84 Z" fill="#000000" fill-rule="nonzero" fill-opacity="1" /><path clip-path="url(#clip220)" d="M870.361 14.324 L870.361 27.2059 L885.714 27.2059 L885.714 32.9987 L870.361 32.9987 L870.361 57.6282 Q870.361 63.1779 871.86 64.7578 Q873.399 66.3376 878.058 66.3376 L885.714 66.3376 L885.714 72.576 L878.058 72.576 Q869.429 72.576 866.148 69.3758 Q862.867 66.1351 862.867 57.6282 L862.867 32.9987 L857.398 32.9987 L857.398 27.2059 L862.867 27.2059 L862.867 14.324 L870.361 14.324 Z" fill="#000000" fill-rule="nonzero" fill-opacity="1" /><path clip-path="url(#clip220)" d="M934.325 48.0275 L934.325 51.6733 L900.054 51.6733 Q900.54 59.3701 904.672 63.421 Q908.845 67.4314 916.258 67.4314 Q920.552 67.4314 924.562 66.3781 Q928.613 65.3249 932.583 63.2184 L932.583 70.267 Q928.572 71.9684 924.36 72.8596 Q920.147 73.7508 915.812 73.7508 Q904.956 73.7508 898.596 67.4314 Q892.276 61.1119 892.276 50.3365 Q892.276 39.1965 898.272 32.6746 Q904.308 26.1121 914.516 26.1121 Q923.671 26.1121 928.978 32.0264 Q934.325 37.9003 934.325 48.0275 M926.871 45.84 Q926.79 39.7232 923.428 36.0774 Q920.106 32.4315 914.597 32.4315 Q908.358 32.4315 904.591 35.9558 Q900.864 39.4801 900.297 45.8805 L926.871 45.84 Z" fill="#000000" fill-rule="nonzero" fill-opacity="1" /><path clip-path="url(#clip220)" d="M972.849 34.1734 Q971.593 33.4443 970.094 33.1202 Q968.636 32.7556 966.854 32.7556 Q960.534 32.7556 957.131 36.8875 Q953.769 40.9789 953.769 48.6757 L953.769 72.576 L946.275 72.576 L946.275 27.2059 L953.769 27.2059 L953.769 34.2544 Q956.119 30.1225 959.886 28.1376 Q963.653 26.1121 969.041 26.1121 Q969.811 26.1121 970.742 26.2337 Q971.674 26.3147 972.808 26.5172 L972.849 34.1734 Z" fill="#000000" fill-rule="nonzero" fill-opacity="1" /><path clip-path="url(#clip220)" d="M971.593 46.5287 L993.427 46.5287 L993.427 53.1722 L971.593 53.1722 L971.593 46.5287 Z" fill="#000000" fill-rule="nonzero" fill-opacity="1" /><path clip-path="url(#clip220)" d="M1031.59 34.1734 Q1030.33 33.4443 1028.83 33.1202 Q1027.37 32.7556 1025.59 32.7556 Q1019.27 32.7556 1015.87 36.8875 Q1012.51 40.9789 1012.51 48.6757 L1012.51 72.576 L1005.01 72.576 L1005.01 27.2059 L1012.51 27.2059 L1012.51 34.2544 Q1014.86 30.1225 1018.62 28.1376 Q1022.39 26.1121 1027.78 26.1121 Q1028.55 26.1121 1029.48 26.2337 Q1030.41 26.3147 1031.55 26.5172 L1031.59 34.1734 Z" fill="#000000" fill-rule="nonzero" fill-opacity="1" /><path clip-path="url(#clip220)" d="M1076.39 48.0275 L1076.39 51.6733 L1042.12 51.6733 Q1042.61 59.3701 1046.74 63.421 Q1050.91 67.4314 1058.32 67.4314 Q1062.62 67.4314 1066.63 66.3781 Q1070.68 65.3249 1074.65 63.2184 L1074.65 70.267 Q1070.64 71.9684 1066.42 72.8596 Q1062.21 73.7508 1057.88 73.7508 Q1047.02 73.7508 1040.66 67.4314 Q1034.34 61.1119 1034.34 50.3365 Q1034.34 39.1965 1040.34 32.6746 Q1046.37 26.1121 1056.58 26.1121 Q1065.74 26.1121 1071.04 32.0264 Q1076.39 37.9003 1076.39 48.0275 M1068.94 45.84 Q1068.86 39.7232 1065.49 36.0774 Q1062.17 32.4315 1056.66 32.4315 Q1050.42 32.4315 1046.66 35.9558 Q1042.93 39.4801 1042.36 45.8805 L1068.94 45.84 Z" fill="#000000" fill-rule="nonzero" fill-opacity="1" /><path clip-path="url(#clip220)" d="M1117.55 28.5427 L1117.55 35.5912 Q1114.39 33.9709 1110.98 33.1607 Q1107.58 32.3505 1103.94 32.3505 Q1098.39 32.3505 1095.59 34.0519 Q1092.84 35.7533 1092.84 39.156 Q1092.84 41.7486 1094.82 43.2475 Q1096.81 44.7058 1102.8 46.0426 L1105.35 46.6097 Q1113.29 48.3111 1116.62 51.4303 Q1119.98 54.509 1119.98 60.0587 Q1119.98 66.3781 1114.95 70.0644 Q1109.97 73.7508 1101.22 73.7508 Q1097.58 73.7508 1093.61 73.0216 Q1089.68 72.3329 1085.3 70.9151 L1085.3 63.2184 Q1089.43 65.3654 1093.44 66.4591 Q1097.45 67.5124 1101.38 67.5124 Q1106.65 67.5124 1109.49 65.73 Q1112.32 63.9071 1112.32 60.6258 Q1112.32 57.5877 1110.26 55.9673 Q1108.23 54.3469 1101.3 52.8481 L1098.71 52.2405 Q1091.78 50.7821 1088.7 47.7845 Q1085.63 44.7463 1085.63 39.4801 Q1085.63 33.0797 1090.16 29.5959 Q1094.7 26.1121 1103.04 26.1121 Q1107.18 26.1121 1110.82 26.7198 Q1114.47 27.3274 1117.55 28.5427 Z" fill="#000000" fill-rule="nonzero" fill-opacity="1" /><path clip-path="url(#clip220)" d="M1152.47 49.7694 Q1143.43 49.7694 1139.95 51.8354 Q1136.46 53.9013 1136.46 58.8839 Q1136.46 62.8538 1139.06 65.2034 Q1141.69 67.5124 1146.19 67.5124 Q1152.38 67.5124 1156.11 63.1374 Q1159.88 58.7219 1159.88 51.4303 L1159.88 49.7694 L1152.47 49.7694 M1167.33 46.6907 L1167.33 72.576 L1159.88 72.576 L1159.88 65.6895 Q1157.33 69.8214 1153.52 71.8063 Q1149.71 73.7508 1144.2 73.7508 Q1137.23 73.7508 1133.1 69.8619 Q1129.01 65.9325 1129.01 59.3701 Q1129.01 51.7138 1134.12 47.825 Q1139.26 43.9361 1149.43 43.9361 L1159.88 43.9361 L1159.88 43.2069 Q1159.88 38.0623 1156.48 35.2672 Q1153.11 32.4315 1147 32.4315 Q1143.11 32.4315 1139.42 33.3632 Q1135.74 34.295 1132.33 36.1584 L1132.33 29.2718 Q1136.42 27.692 1140.27 26.9223 Q1144.12 26.1121 1147.77 26.1121 Q1157.61 26.1121 1162.47 31.2163 Q1167.33 36.3204 1167.33 46.6907 Z" fill="#000000" fill-rule="nonzero" fill-opacity="1" /><path clip-path="url(#clip220)" d="M1218.01 35.9153 Q1220.8 30.8922 1224.69 28.5022 Q1228.58 26.1121 1233.85 26.1121 Q1240.94 26.1121 1244.79 31.0947 Q1248.63 36.0368 1248.63 45.1919 L1248.63 72.576 L1241.14 72.576 L1241.14 45.4349 Q1241.14 38.913 1238.83 35.7533 Q1236.52 32.5936 1231.78 32.5936 Q1225.99 32.5936 1222.63 36.4419 Q1219.27 40.2903 1219.27 46.9338 L1219.27 72.576 L1211.77 72.576 L1211.77 45.4349 Q1211.77 38.8725 1209.46 35.7533 Q1207.15 32.5936 1202.33 32.5936 Q1196.62 32.5936 1193.26 36.4824 Q1189.9 40.3308 1189.9 46.9338 L1189.9 72.576 L1182.4 72.576 L1182.4 27.2059 L1189.9 27.2059 L1189.9 34.2544 Q1192.45 30.082 1196.01 28.0971 Q1199.58 26.1121 1204.48 26.1121 Q1209.42 26.1121 1212.86 28.6237 Q1216.35 31.1352 1218.01 35.9153 Z" fill="#000000" fill-rule="nonzero" fill-opacity="1" /><path clip-path="url(#clip220)" d="M1270.71 65.7705 L1270.71 89.8329 L1263.22 89.8329 L1263.22 27.2059 L1270.71 27.2059 L1270.71 34.0924 Q1273.06 30.0415 1276.63 28.0971 Q1280.23 26.1121 1285.21 26.1121 Q1293.48 26.1121 1298.62 32.6746 Q1303.81 39.2371 1303.81 49.9314 Q1303.81 60.6258 1298.62 67.1883 Q1293.48 73.7508 1285.21 73.7508 Q1280.23 73.7508 1276.63 71.8063 Q1273.06 69.8214 1270.71 65.7705 M1296.07 49.9314 Q1296.07 41.7081 1292.67 37.0496 Q1289.31 32.3505 1283.39 32.3505 Q1277.48 32.3505 1274.07 37.0496 Q1270.71 41.7081 1270.71 49.9314 Q1270.71 58.1548 1274.07 62.8538 Q1277.48 67.5124 1283.39 67.5124 Q1289.31 67.5124 1292.67 62.8538 Q1296.07 58.1548 1296.07 49.9314 Z" fill="#000000" fill-rule="nonzero" fill-opacity="1" /><path clip-path="url(#clip220)" d="M1316.16 9.54393 L1323.62 9.54393 L1323.62 72.576 L1316.16 72.576 L1316.16 9.54393 Z" fill="#000000" fill-rule="nonzero" fill-opacity="1" /><path clip-path="url(#clip220)" d="M1378.02 48.0275 L1378.02 51.6733 L1343.75 51.6733 Q1344.24 59.3701 1348.37 63.421 Q1352.54 67.4314 1359.95 67.4314 Q1364.25 67.4314 1368.26 66.3781 Q1372.31 65.3249 1376.28 63.2184 L1376.28 70.267 Q1372.27 71.9684 1368.06 72.8596 Q1363.84 73.7508 1359.51 73.7508 Q1348.65 73.7508 1342.29 67.4314 Q1335.97 61.1119 1335.97 50.3365 Q1335.97 39.1965 1341.97 32.6746 Q1348 26.1121 1358.21 26.1121 Q1367.37 26.1121 1372.67 32.0264 Q1378.02 37.9003 1378.02 48.0275 M1370.57 45.84 Q1370.49 39.7232 1367.12 36.0774 Q1363.8 32.4315 1358.29 32.4315 Q1352.05 32.4315 1348.29 35.9558 Q1344.56 39.4801 1343.99 45.8805 L1370.57 45.84 Z" fill="#000000" fill-rule="nonzero" fill-opacity="1" /><path clip-path="url(#clip220)" d="M1420.11 34.0924 L1420.11 9.54393 L1427.56 9.54393 L1427.56 72.576 L1420.11 72.576 L1420.11 65.7705 Q1417.76 69.8214 1414.15 71.8063 Q1410.59 73.7508 1405.57 73.7508 Q1397.34 73.7508 1392.16 67.1883 Q1387.01 60.6258 1387.01 49.9314 Q1387.01 39.2371 1392.16 32.6746 Q1397.34 26.1121 1405.57 26.1121 Q1410.59 26.1121 1414.15 28.0971 Q1417.76 30.0415 1420.11 34.0924 M1394.71 49.9314 Q1394.71 58.1548 1398.07 62.8538 Q1401.48 67.5124 1407.39 67.5124 Q1413.3 67.5124 1416.71 62.8538 Q1420.11 58.1548 1420.11 49.9314 Q1420.11 41.7081 1416.71 37.0496 Q1413.3 32.3505 1407.39 32.3505 Q1401.48 32.3505 1398.07 37.0496 Q1394.71 41.7081 1394.71 49.9314 Z" fill="#000000" fill-rule="nonzero" fill-opacity="1" /><path clip-path="url(#clip220)" d="M1498.21 28.5427 L1498.21 35.5912 Q1495.05 33.9709 1491.65 33.1607 Q1488.25 32.3505 1484.6 32.3505 Q1479.05 32.3505 1476.25 34.0519 Q1473.5 35.7533 1473.5 39.156 Q1473.5 41.7486 1475.49 43.2475 Q1477.47 44.7058 1483.47 46.0426 L1486.02 46.6097 Q1493.96 48.3111 1497.28 51.4303 Q1500.64 54.509 1500.64 60.0587 Q1500.64 66.3781 1495.62 70.0644 Q1490.64 73.7508 1481.89 73.7508 Q1478.24 73.7508 1474.27 73.0216 Q1470.34 72.3329 1465.97 70.9151 L1465.97 63.2184 Q1470.1 65.3654 1474.11 66.4591 Q1478.12 67.5124 1482.05 67.5124 Q1487.31 67.5124 1490.15 65.73 Q1492.98 63.9071 1492.98 60.6258 Q1492.98 57.5877 1490.92 55.9673 Q1488.89 54.3469 1481.97 52.8481 L1479.37 52.2405 Q1472.45 50.7821 1469.37 47.7845 Q1466.29 44.7463 1466.29 39.4801 Q1466.29 33.0797 1470.83 29.5959 Q1475.36 26.1121 1483.71 26.1121 Q1487.84 26.1121 1491.49 26.7198 Q1495.13 27.3274 1498.21 28.5427 Z" fill="#000000" fill-rule="nonzero" fill-opacity="1" /><path clip-path="url(#clip220)" d="M1519.88 14.324 L1519.88 27.2059 L1535.24 27.2059 L1535.24 32.9987 L1519.88 32.9987 L1519.88 57.6282 Q1519.88 63.1779 1521.38 64.7578 Q1522.92 66.3376 1527.58 66.3376 L1535.24 66.3376 L1535.24 72.576 L1527.58 72.576 Q1518.95 72.576 1515.67 69.3758 Q1512.39 66.1351 1512.39 57.6282 L1512.39 32.9987 L1506.92 32.9987 L1506.92 27.2059 L1512.39 27.2059 L1512.39 14.324 L1519.88 14.324 Z" fill="#000000" fill-rule="nonzero" fill-opacity="1" /><path clip-path="url(#clip220)" d="M1562.62 32.4315 Q1556.62 32.4315 1553.14 37.1306 Q1549.66 41.7891 1549.66 49.9314 Q1549.66 58.0738 1553.1 62.7728 Q1556.58 67.4314 1562.62 67.4314 Q1568.57 67.4314 1572.06 62.7323 Q1575.54 58.0333 1575.54 49.9314 Q1575.54 41.8701 1572.06 37.1711 Q1568.57 32.4315 1562.62 32.4315 M1562.62 26.1121 Q1572.34 26.1121 1577.89 32.4315 Q1583.44 38.7509 1583.44 49.9314 Q1583.44 61.0714 1577.89 67.4314 Q1572.34 73.7508 1562.62 73.7508 Q1552.86 73.7508 1547.31 67.4314 Q1541.8 61.0714 1541.8 49.9314 Q1541.8 38.7509 1547.31 32.4315 Q1552.86 26.1121 1562.62 26.1121 Z" fill="#000000" fill-rule="nonzero" fill-opacity="1" /><path clip-path="url(#clip220)" d="M1628.45 28.9478 L1628.45 35.9153 Q1625.29 34.1734 1622.09 33.3227 Q1618.93 32.4315 1615.69 32.4315 Q1608.44 32.4315 1604.43 37.0496 Q1600.41 41.6271 1600.41 49.9314 Q1600.41 58.2358 1604.43 62.8538 Q1608.44 67.4314 1615.69 67.4314 Q1618.93 67.4314 1622.09 66.5807 Q1625.29 65.6895 1628.45 63.9476 L1628.45 70.8341 Q1625.33 72.2924 1621.97 73.0216 Q1618.64 73.7508 1614.88 73.7508 Q1604.63 73.7508 1598.59 67.3098 Q1592.56 60.8689 1592.56 49.9314 Q1592.56 38.832 1598.63 32.472 Q1604.75 26.1121 1615.36 26.1121 Q1618.81 26.1121 1622.09 26.8413 Q1625.37 27.5299 1628.45 28.9478 Z" fill="#000000" fill-rule="nonzero" fill-opacity="1" /><path clip-path="url(#clip220)" d="M1679.12 45.1919 L1679.12 72.576 L1671.67 72.576 L1671.67 45.4349 Q1671.67 38.994 1669.16 35.7938 Q1666.65 32.5936 1661.62 32.5936 Q1655.59 32.5936 1652.1 36.4419 Q1648.62 40.2903 1648.62 46.9338 L1648.62 72.576 L1641.13 72.576 L1641.13 9.54393 L1648.62 9.54393 L1648.62 34.2544 Q1651.29 30.163 1654.9 28.1376 Q1658.55 26.1121 1663.28 26.1121 Q1671.1 26.1121 1675.11 30.9732 Q1679.12 35.7938 1679.12 45.1919 Z" fill="#000000" fill-rule="nonzero" fill-opacity="1" /><path clip-path="url(#clip220)" d="M1714.61 49.7694 Q1705.58 49.7694 1702.09 51.8354 Q1698.61 53.9013 1698.61 58.8839 Q1698.61 62.8538 1701.2 65.2034 Q1703.83 67.5124 1708.33 67.5124 Q1714.53 67.5124 1718.26 63.1374 Q1722.02 58.7219 1722.02 51.4303 L1722.02 49.7694 L1714.61 49.7694 M1729.48 46.6907 L1729.48 72.576 L1722.02 72.576 L1722.02 65.6895 Q1719.47 69.8214 1715.66 71.8063 Q1711.86 73.7508 1706.35 73.7508 Q1699.38 73.7508 1695.25 69.8619 Q1691.16 65.9325 1691.16 59.3701 Q1691.16 51.7138 1696.26 47.825 Q1701.4 43.9361 1711.57 43.9361 L1722.02 43.9361 L1722.02 43.2069 Q1722.02 38.0623 1718.62 35.2672 Q1715.26 32.4315 1709.14 32.4315 Q1705.25 32.4315 1701.57 33.3632 Q1697.88 34.295 1694.48 36.1584 L1694.48 29.2718 Q1698.57 27.692 1702.42 26.9223 Q1706.27 26.1121 1709.91 26.1121 Q1719.75 26.1121 1724.62 31.2163 Q1729.48 36.3204 1729.48 46.6907 Z" fill="#000000" fill-rule="nonzero" fill-opacity="1" /><path clip-path="url(#clip220)" d="M1773.75 28.5427 L1773.75 35.5912 Q1770.59 33.9709 1767.19 33.1607 Q1763.79 32.3505 1760.14 32.3505 Q1754.59 32.3505 1751.8 34.0519 Q1749.04 35.7533 1749.04 39.156 Q1749.04 41.7486 1751.03 43.2475 Q1753.01 44.7058 1759.01 46.0426 L1761.56 46.6097 Q1769.5 48.3111 1772.82 51.4303 Q1776.18 54.509 1776.18 60.0587 Q1776.18 66.3781 1771.16 70.0644 Q1766.18 73.7508 1757.43 73.7508 Q1753.78 73.7508 1749.81 73.0216 Q1745.88 72.3329 1741.51 70.9151 L1741.51 63.2184 Q1745.64 65.3654 1749.65 66.4591 Q1753.66 67.5124 1757.59 67.5124 Q1762.86 67.5124 1765.69 65.73 Q1768.53 63.9071 1768.53 60.6258 Q1768.53 57.5877 1766.46 55.9673 Q1764.44 54.3469 1757.51 52.8481 L1754.92 52.2405 Q1747.99 50.7821 1744.91 47.7845 Q1741.83 44.7463 1741.83 39.4801 Q1741.83 33.0797 1746.37 29.5959 Q1750.91 26.1121 1759.25 26.1121 Q1763.38 26.1121 1767.03 26.7198 Q1770.67 27.3274 1773.75 28.5427 Z" fill="#000000" fill-rule="nonzero" fill-opacity="1" /><path clip-path="url(#clip220)" d="M1795.43 14.324 L1795.43 27.2059 L1810.78 27.2059 L1810.78 32.9987 L1795.43 32.9987 L1795.43 57.6282 Q1795.43 63.1779 1796.92 64.7578 Q1798.46 66.3376 1803.12 66.3376 L1810.78 66.3376 L1810.78 72.576 L1803.12 72.576 Q1794.49 72.576 1791.21 69.3758 Q1787.93 66.1351 1787.93 57.6282 L1787.93 32.9987 L1782.46 32.9987 L1782.46 27.2059 L1787.93 27.2059 L1787.93 14.324 L1795.43 14.324 Z" fill="#000000" fill-rule="nonzero" fill-opacity="1" /><path clip-path="url(#clip220)" d="M1820.58 27.2059 L1828.04 27.2059 L1828.04 72.576 L1820.58 72.576 L1820.58 27.2059 M1820.58 9.54393 L1828.04 9.54393 L1828.04 18.9825 L1820.58 18.9825 L1820.58 9.54393 Z" fill="#000000" fill-rule="nonzero" fill-opacity="1" /><path clip-path="url(#clip220)" d="M1876.28 28.9478 L1876.28 35.9153 Q1873.12 34.1734 1869.92 33.3227 Q1866.76 32.4315 1863.52 32.4315 Q1856.27 32.4315 1852.26 37.0496 Q1848.25 41.6271 1848.25 49.9314 Q1848.25 58.2358 1852.26 62.8538 Q1856.27 67.4314 1863.52 67.4314 Q1866.76 67.4314 1869.92 66.5807 Q1873.12 65.6895 1876.28 63.9476 L1876.28 70.8341 Q1873.16 72.2924 1869.8 73.0216 Q1866.48 73.7508 1862.71 73.7508 Q1852.46 73.7508 1846.43 67.3098 Q1840.39 60.8689 1840.39 49.9314 Q1840.39 38.832 1846.47 32.472 Q1852.58 26.1121 1863.2 26.1121 Q1866.64 26.1121 1869.92 26.8413 Q1873.2 27.5299 1876.28 28.9478 Z" fill="#000000" fill-rule="nonzero" fill-opacity="1" /><path clip-path="url(#clip220)" d="M1945.47 34.0924 L1945.47 9.54393 L1952.92 9.54393 L1952.92 72.576 L1945.47 72.576 L1945.47 65.7705 Q1943.12 69.8214 1939.52 71.8063 Q1935.95 73.7508 1930.93 73.7508 Q1922.7 73.7508 1917.52 67.1883 Q1912.38 60.6258 1912.38 49.9314 Q1912.38 39.2371 1917.52 32.6746 Q1922.7 26.1121 1930.93 26.1121 Q1935.95 26.1121 1939.52 28.0971 Q1943.12 30.0415 1945.47 34.0924 M1920.07 49.9314 Q1920.07 58.1548 1923.43 62.8538 Q1926.84 67.5124 1932.75 67.5124 Q1938.67 67.5124 1942.07 62.8538 Q1945.47 58.1548 1945.47 49.9314 Q1945.47 41.7081 1942.07 37.0496 Q1938.67 32.3505 1932.75 32.3505 Q1926.84 32.3505 1923.43 37.0496 Q1920.07 41.7081 1920.07 49.9314 Z" fill="#000000" fill-rule="nonzero" fill-opacity="1" /><path clip-path="url(#clip220)" d="M1987.15 76.7889 Q1984 84.8907 1981 87.3618 Q1978 89.8329 1972.98 89.8329 L1967.02 89.8329 L1967.02 83.5945 L1971.4 83.5945 Q1974.48 83.5945 1976.18 82.1361 Q1977.88 80.6778 1979.94 75.2496 L1981.28 71.8468 L1962.93 27.2059 L1970.83 27.2059 L1985.01 62.6918 L1999.19 27.2059 L2007.09 27.2059 L1987.15 76.7889 Z" fill="#000000" fill-rule="nonzero" fill-opacity="1" /><path clip-path="url(#clip220)" d="M2055.09 45.1919 L2055.09 72.576 L2047.63 72.576 L2047.63 45.4349 Q2047.63 38.994 2045.12 35.7938 Q2042.61 32.5936 2037.59 32.5936 Q2031.55 32.5936 2028.07 36.4419 Q2024.59 40.2903 2024.59 46.9338 L2024.59 72.576 L2017.09 72.576 L2017.09 27.2059 L2024.59 27.2059 L2024.59 34.2544 Q2027.26 30.163 2030.86 28.1376 Q2034.51 26.1121 2039.25 26.1121 Q2047.07 26.1121 2051.08 30.9732 Q2055.09 35.7938 2055.09 45.1919 Z" fill="#000000" fill-rule="nonzero" fill-opacity="1" /><path clip-path="url(#clip220)" d="M2090.57 49.7694 Q2081.54 49.7694 2078.06 51.8354 Q2074.57 53.9013 2074.57 58.8839 Q2074.57 62.8538 2077.17 65.2034 Q2079.8 67.5124 2084.3 67.5124 Q2090.49 67.5124 2094.22 63.1374 Q2097.99 58.7219 2097.99 51.4303 L2097.99 49.7694 L2090.57 49.7694 M2105.44 46.6907 L2105.44 72.576 L2097.99 72.576 L2097.99 65.6895 Q2095.44 69.8214 2091.63 71.8063 Q2087.82 73.7508 2082.31 73.7508 Q2075.34 73.7508 2071.21 69.8619 Q2067.12 65.9325 2067.12 59.3701 Q2067.12 51.7138 2072.22 47.825 Q2077.37 43.9361 2087.54 43.9361 L2097.99 43.9361 L2097.99 43.2069 Q2097.99 38.0623 2094.58 35.2672 Q2091.22 32.4315 2085.11 32.4315 Q2081.22 32.4315 2077.53 33.3632 Q2073.84 34.295 2070.44 36.1584 L2070.44 29.2718 Q2074.53 27.692 2078.38 26.9223 Q2082.23 26.1121 2085.88 26.1121 Q2095.72 26.1121 2100.58 31.2163 Q2105.44 36.3204 2105.44 46.6907 Z" fill="#000000" fill-rule="nonzero" fill-opacity="1" /><path clip-path="url(#clip220)" d="M2156.12 35.9153 Q2158.91 30.8922 2162.8 28.5022 Q2166.69 26.1121 2171.96 26.1121 Q2179.05 26.1121 2182.89 31.0947 Q2186.74 36.0368 2186.74 45.1919 L2186.74 72.576 L2179.25 72.576 L2179.25 45.4349 Q2179.25 38.913 2176.94 35.7533 Q2174.63 32.5936 2169.89 32.5936 Q2164.1 32.5936 2160.74 36.4419 Q2157.37 40.2903 2157.37 46.9338 L2157.37 72.576 L2149.88 72.576 L2149.88 45.4349 Q2149.88 38.8725 2147.57 35.7533 Q2145.26 32.5936 2140.44 32.5936 Q2134.73 32.5936 2131.37 36.4824 Q2128 40.3308 2128 46.9338 L2128 72.576 L2120.51 72.576 L2120.51 27.2059 L2128 27.2059 L2128 34.2544 Q2130.56 30.082 2134.12 28.0971 Q2137.69 26.1121 2142.59 26.1121 Q2147.53 26.1121 2150.97 28.6237 Q2154.46 31.1352 2156.12 35.9153 Z" fill="#000000" fill-rule="nonzero" fill-opacity="1" /><path clip-path="url(#clip220)" d="M2201.61 27.2059 L2209.06 27.2059 L2209.06 72.576 L2201.61 72.576 L2201.61 27.2059 M2201.61 9.54393 L2209.06 9.54393 L2209.06 18.9825 L2201.61 18.9825 L2201.61 9.54393 Z" fill="#000000" fill-rule="nonzero" fill-opacity="1" /><path clip-path="url(#clip220)" d="M2257.31 28.9478 L2257.31 35.9153 Q2254.15 34.1734 2250.95 33.3227 Q2247.79 32.4315 2244.55 32.4315 Q2237.3 32.4315 2233.29 37.0496 Q2229.28 41.6271 2229.28 49.9314 Q2229.28 58.2358 2233.29 62.8538 Q2237.3 67.4314 2244.55 67.4314 Q2247.79 67.4314 2250.95 66.5807 Q2254.15 65.6895 2257.31 63.9476 L2257.31 70.8341 Q2254.19 72.2924 2250.83 73.0216 Q2247.51 73.7508 2243.74 73.7508 Q2233.49 73.7508 2227.45 67.3098 Q2221.42 60.8689 2221.42 49.9314 Q2221.42 38.832 2227.49 32.472 Q2233.61 26.1121 2244.23 26.1121 Q2247.67 26.1121 2250.95 26.8413 Q2254.23 27.5299 2257.31 28.9478 Z" fill="#000000" fill-rule="nonzero" fill-opacity="1" /><path clip-path="url(#clip220)" d="M2299.2 28.5427 L2299.2 35.5912 Q2296.04 33.9709 2292.63 33.1607 Q2289.23 32.3505 2285.58 32.3505 Q2280.04 32.3505 2277.24 34.0519 Q2274.49 35.7533 2274.49 39.156 Q2274.49 41.7486 2276.47 43.2475 Q2278.46 44.7058 2284.45 46.0426 L2287 46.6097 Q2294.94 48.3111 2298.26 51.4303 Q2301.63 54.509 2301.63 60.0587 Q2301.63 66.3781 2296.6 70.0644 Q2291.62 73.7508 2282.87 73.7508 Q2279.22 73.7508 2275.26 73.0216 Q2271.33 72.3329 2266.95 70.9151 L2266.95 63.2184 Q2271.08 65.3654 2275.09 66.4591 Q2279.1 67.5124 2283.03 67.5124 Q2288.3 67.5124 2291.13 65.73 Q2293.97 63.9071 2293.97 60.6258 Q2293.97 57.5877 2291.9 55.9673 Q2289.88 54.3469 2282.95 52.8481 L2280.36 52.2405 Q2273.43 50.7821 2270.35 47.7845 Q2267.27 44.7463 2267.27 39.4801 Q2267.27 33.0797 2271.81 29.5959 Q2276.35 26.1121 2284.69 26.1121 Q2288.83 26.1121 2292.47 26.7198 Q2296.12 27.3274 2299.2 28.5427 Z" fill="#000000" fill-rule="nonzero" fill-opacity="1" /><polyline clip-path="url(#clip221)" style="stroke:#800080; stroke-linecap:round; stroke-linejoin:round; stroke-width:4; stroke-opacity:1; fill:none" points="279.026,1688.65 290.491,1666.39 301.956,1650.79 313.42,1650.57 324.885,1645.26 336.35,1637.58 347.814,1639.86 359.279,1627.08 370.744,1631.38 382.208,1626.93 393.673,1616.85 405.138,1610.78 416.603,1601.85 428.067,1589.18 439.532,1587.77 450.997,1573.7 462.461,1567.06 473.926,1555.63 485.391,1552.42 496.856,1548.12 508.32,1535.53 519.785,1531.96 531.25,1526.21 542.714,1511.9 554.179,1509.46 565.644,1494.51 577.109,1487.54 588.573,1481.11 600.038,1476 611.503,1467.45 622.967,1463.24 634.432,1453.23 645.897,1451.08 657.361,1433.04 668.826,1426.7 680.291,1422.27 691.756,1419.32 703.22,1408.27 714.685,1401.43 726.15,1387.14 737.614,1381.66 749.079,1374.98 760.544,1368.63 772.009,1361.46 783.473,1347.42 794.938,1350.04 806.403,1340.59 817.867,1329.55 829.332,1313.25 840.797,1305.25 852.261,1304.33 863.726,1299.76 875.191,1292.05 886.656,1278.78 898.12,1280.26 909.585,1275.67 921.05,1275.86 932.514,1263.4 943.979,1254.62 955.444,1242.31 966.909,1237.33 978.373,1243.13 989.838,1227.05 1001.3,1214.65 1012.77,1206.4 1024.23,1203.76 1035.7,1196.28 1047.16,1187.63 1058.63,1185.32 1070.09,1177.56 1081.56,1164.67 1093.02,1159.67 1104.49,1156.72 1115.95,1150.11 1127.41,1134.95 1138.88,1128.14 1150.34,1119.84 1161.81,1113.83 1173.27,1108.4 1184.74,1094.88 1196.2,1087.45 1207.67,1084.38 1219.13,1073.53 1230.6,1069.12 1242.06,1071.08 1253.53,1056.14 1264.99,1047.14 1276.46,1037.87 1287.92,1028.16 1299.39,1024.98 1310.85,1019.17 1322.31,1010.23 1333.78,996.157 1345.24,984.194 1356.71,972.624 1368.17,972.106 1379.64,961.24 1391.1,960.069 1402.57,950.996 1414.03,946.58 1425.5,936.068 1436.96,934.1 1448.43,932.419 1459.89,921.617 1471.36,915.691 1482.82,913.019 1494.29,896.075 1505.75,884.917 1517.21,883.812 1528.68,865.128 1540.14,853.876 1551.61,845.495 1563.07,844.104 1574.54,834.571 1586,827.976 1597.47,818.171 1608.93,817.822 1620.4,804.827 1631.86,802.86 1643.33,798.055 1654.79,785.225 1666.26,778.726 1677.72,770.446 1689.19,760.086 1700.65,749.77 1712.11,747.105 1723.58,742.558 1735.04,732.797 1746.51,721.743 1757.97,716.767 1769.44,709.352 1780.9,691.56 1792.37,681.162 1803.83,683.537 1815.3,674.08 1826.76,672.318 1838.23,660.574 1849.69,659.901 1861.16,652.036 1872.62,648.926 1884.09,634.571 1895.55,632.707 1907.01,621.187 1918.48,614.101 1929.94,610.587 1941.41,608.536 1952.87,598.804 1964.34,588.674 1975.8,583.072 1987.27,574.272 1998.73,561.892 2010.2,554.56 2021.66,543.527 2033.13,538.974 2044.59,531.088 2056.06,524.477 2067.52,515.933 2078.99,505.333 2090.45,500.336 2101.91,490.181 2113.38,478.471 2124.84,472.857 2136.31,462.776 2147.77,457.229 2159.24,455.327 2170.7,443.29 2182.17,432.093 2193.63,414.446 2205.1,410.167 2216.56,405.869 2228.03,390.22 2239.49,383.391 2250.96,369.557 2262.42,367.476 2273.89,353.883 2285.35,349.53 2296.81,350.632 2308.28,344.029 2319.74,328.097 2331.21,322.168 2342.67,318.1 2354.14,301.905 2365.6,295.862 2377.07,290.547 2388.53,286.142 2400,277.911 2411.46,267.436 2422.93,260.752 2434.39,254.588 2445.86,252.035 2457.32,240.098 2468.79,242.528 2480.25,241.208 2491.71,226.111 2503.18,214.24 2514.64,206.298 2526.11,207.601 2537.57,194.172 2549.04,189.834 2560.5,179.292 2571.97,173.254 "/>
<polyline clip-path="url(#clip221)" style="stroke:#ff0000; stroke-linecap:round; stroke-linejoin:round; stroke-width:8; stroke-opacity:1; fill:none" stroke-dasharray="32, 20" points="279.026,1688.65 290.491,1671.22 301.956,1667.75 313.42,1666.17 324.885,1665.61 336.35,1663.98 347.814,1661.23 359.279,1658.11 370.744,1655.23 382.208,1652.67 393.673,1650.26 405.138,1647.82 416.603,1645.3 428.067,1642.71 439.532,1640.13 450.997,1637.57 462.461,1635.03 473.926,1632.49 485.391,1629.94 496.856,1627.39 508.32,1624.84 519.785,1622.29 531.25,1619.74 542.714,1617.19 554.179,1614.64 565.644,1612.09 577.109,1609.54 588.573,1606.99 600.038,1604.44 611.503,1601.89 622.967,1599.34 634.432,1596.79 645.897,1594.24 657.361,1591.69 668.826,1589.14 680.291,1586.6 691.756,1584.05 703.22,1581.5 714.685,1578.95 726.15,1576.4 737.614,1573.85 749.079,1571.3 760.544,1568.75 772.009,1566.2 783.473,1563.65 794.938,1561.1 806.403,1558.55 817.867,1556 829.332,1553.45 840.797,1550.9 852.261,1548.35 863.726,1545.8 875.191,1543.25 886.656,1540.7 898.12,1538.15 909.585,1535.6 921.05,1533.05 932.514,1530.5 943.979,1527.96 955.444,1525.41 966.909,1522.86 978.373,1520.31 989.838,1517.76 1001.3,1515.21 1012.77,1512.66 1024.23,1510.11 1035.7,1507.56 1047.16,1505.01 1058.63,1502.46 1070.09,1499.91 1081.56,1497.36 1093.02,1494.81 1104.49,1492.26 1115.95,1489.71 1127.41,1487.16 1138.88,1484.61 1150.34,1482.06 1161.81,1479.51 1173.27,1476.96 1184.74,1474.41 1196.2,1471.86 1207.67,1469.32 1219.13,1466.77 1230.6,1464.22 1242.06,1461.67 1253.53,1459.12 1264.99,1456.57 1276.46,1454.02 1287.92,1451.47 1299.39,1448.92 1310.85,1446.37 1322.31,1443.82 1333.78,1441.27 1345.24,1438.72 1356.71,1436.17 1368.17,1433.62 1379.64,1431.07 1391.1,1428.52 1402.57,1425.97 1414.03,1423.42 1425.5,1420.87 1436.96,1418.32 1448.43,1415.77 1459.89,1413.22 1471.36,1410.68 1482.82,1408.13 1494.29,1405.58 1505.75,1403.03 1517.21,1400.48 1528.68,1397.93 1540.14,1395.38 1551.61,1392.83 1563.07,1390.28 1574.54,1387.73 1586,1385.18 1597.47,1382.63 1608.93,1380.08 1620.4,1377.53 1631.86,1374.98 1643.33,1372.43 1654.79,1369.88 1666.26,1367.33 1677.72,1364.78 1689.19,1362.23 1700.65,1359.68 1712.11,1357.13 1723.58,1354.58 1735.04,1352.03 1746.51,1349.49 1757.97,1346.94 1769.44,1344.39 1780.9,1341.84 1792.37,1339.29 1803.83,1336.74 1815.3,1334.19 1826.76,1331.64 1838.23,1329.09 1849.69,1326.54 1861.16,1323.99 1872.62,1321.44 1884.09,1318.89 1895.55,1316.34 1907.01,1313.79 1918.48,1311.24 1929.94,1308.69 1941.41,1306.14 1952.87,1303.59 1964.34,1301.04 1975.8,1298.49 1987.27,1295.94 1998.73,1293.39 2010.2,1290.85 2021.66,1288.3 2033.13,1285.75 2044.59,1283.2 2056.06,1280.65 2067.52,1278.1 2078.99,1275.55 2090.45,1273 2101.91,1270.45 2113.38,1267.9 2124.84,1265.35 2136.31,1262.8 2147.77,1260.25 2159.24,1257.7 2170.7,1255.15 2182.17,1252.6 2193.63,1250.05 2205.1,1247.5 2216.56,1244.95 2228.03,1242.4 2239.49,1239.85 2250.96,1237.3 2262.42,1234.75 2273.89,1232.21 2285.35,1229.66 2296.81,1227.11 2308.28,1224.56 2319.74,1222.01 2331.21,1219.46 2342.67,1216.91 2354.14,1214.36 2365.6,1211.81 2377.07,1209.26 2388.53,1206.71 2400,1204.16 2411.46,1201.61 2422.93,1199.06 2434.39,1196.51 2445.86,1193.96 2457.32,1191.41 2468.79,1188.86 2480.25,1186.31 2491.71,1183.76 2503.18,1181.21 2514.64,1178.66 2526.11,1176.11 2537.57,1173.57 2549.04,1171.02 2560.5,1168.47 2571.97,1165.92 "/>
<path clip-path="url(#clip220)" d="M291.255 336.856 L1037.13 336.856 L1037.13 181.336 L291.255 181.336  Z" fill="#ffffff" fill-rule="evenodd" fill-opacity="1"/>
<polyline clip-path="url(#clip220)" style="stroke:#000000; stroke-linecap:round; stroke-linejoin:round; stroke-width:4; stroke-opacity:1; fill:none" points="291.255,336.856 1037.13,336.856 1037.13,181.336 291.255,181.336 291.255,336.856 "/>
<polyline clip-path="url(#clip220)" style="stroke:#800080; stroke-linecap:round; stroke-linejoin:round; stroke-width:4; stroke-opacity:1; fill:none" points="318.261,233.176 480.295,233.176 "/>
<path clip-path="url(#clip220)" d="M511.977 219.739 L511.977 232.725 L517.857 232.725 Q521.121 232.725 522.903 231.035 Q524.685 229.345 524.685 226.22 Q524.685 223.118 522.903 221.429 Q521.121 219.739 517.857 219.739 L511.977 219.739 M507.301 215.896 L517.857 215.896 Q523.667 215.896 526.63 218.535 Q529.616 221.151 529.616 226.22 Q529.616 231.336 526.63 233.952 Q523.667 236.567 517.857 236.567 L511.977 236.567 L511.977 250.456 L507.301 250.456 L507.301 215.896 Z" fill="#000000" fill-rule="nonzero" fill-opacity="1" /><path clip-path="url(#clip220)" d="M545.357 237.424 Q540.195 237.424 538.204 238.604 Q536.213 239.785 536.213 242.632 Q536.213 244.901 537.695 246.243 Q539.199 247.563 541.769 247.563 Q545.31 247.563 547.44 245.063 Q549.593 242.54 549.593 238.373 L549.593 237.424 L545.357 237.424 M553.852 235.665 L553.852 250.456 L549.593 250.456 L549.593 246.521 Q548.134 248.882 545.958 250.016 Q543.782 251.128 540.634 251.128 Q536.653 251.128 534.292 248.905 Q531.954 246.66 531.954 242.91 Q531.954 238.535 534.87 236.313 Q537.81 234.091 543.62 234.091 L549.593 234.091 L549.593 233.674 Q549.593 230.734 547.648 229.137 Q545.727 227.517 542.232 227.517 Q540.009 227.517 537.903 228.049 Q535.796 228.581 533.852 229.646 L533.852 225.711 Q536.19 224.808 538.389 224.368 Q540.588 223.906 542.671 223.906 Q548.296 223.906 551.074 226.822 Q553.852 229.739 553.852 235.665 Z" fill="#000000" fill-rule="nonzero" fill-opacity="1" /><path clip-path="url(#clip220)" d="M577.648 228.512 Q576.93 228.095 576.074 227.91 Q575.241 227.702 574.222 227.702 Q570.611 227.702 568.667 230.063 Q566.745 232.401 566.745 236.799 L566.745 250.456 L562.463 250.456 L562.463 224.531 L566.745 224.531 L566.745 228.558 Q568.088 226.197 570.241 225.063 Q572.393 223.906 575.472 223.906 Q575.912 223.906 576.444 223.975 Q576.977 224.021 577.625 224.137 L577.648 228.512 Z" fill="#000000" fill-rule="nonzero" fill-opacity="1" /><path clip-path="url(#clip220)" d="M593.898 237.424 Q588.736 237.424 586.745 238.604 Q584.754 239.785 584.754 242.632 Q584.754 244.901 586.236 246.243 Q587.741 247.563 590.31 247.563 Q593.852 247.563 595.981 245.063 Q598.134 242.54 598.134 238.373 L598.134 237.424 L593.898 237.424 M602.393 235.665 L602.393 250.456 L598.134 250.456 L598.134 246.521 Q596.676 248.882 594.5 250.016 Q592.324 251.128 589.176 251.128 Q585.194 251.128 582.833 248.905 Q580.495 246.66 580.495 242.91 Q580.495 238.535 583.412 236.313 Q586.352 234.091 592.162 234.091 L598.134 234.091 L598.134 233.674 Q598.134 230.734 596.19 229.137 Q594.268 227.517 590.773 227.517 Q588.551 227.517 586.444 228.049 Q584.338 228.581 582.393 229.646 L582.393 225.711 Q584.731 224.808 586.93 224.368 Q589.129 223.906 591.213 223.906 Q596.838 223.906 599.615 226.822 Q602.393 229.739 602.393 235.665 Z" fill="#000000" fill-rule="nonzero" fill-opacity="1" /><path clip-path="url(#clip220)" d="M631.351 229.507 Q632.949 226.637 635.171 225.271 Q637.393 223.906 640.402 223.906 Q644.453 223.906 646.652 226.753 Q648.851 229.577 648.851 234.808 L648.851 250.456 L644.569 250.456 L644.569 234.947 Q644.569 231.22 643.25 229.415 Q641.93 227.609 639.222 227.609 Q635.912 227.609 633.99 229.808 Q632.069 232.007 632.069 235.804 L632.069 250.456 L627.787 250.456 L627.787 234.947 Q627.787 231.197 626.467 229.415 Q625.148 227.609 622.393 227.609 Q619.129 227.609 617.208 229.831 Q615.287 232.03 615.287 235.804 L615.287 250.456 L611.004 250.456 L611.004 224.531 L615.287 224.531 L615.287 228.558 Q616.745 226.174 618.782 225.04 Q620.819 223.906 623.62 223.906 Q626.444 223.906 628.412 225.341 Q630.402 226.776 631.351 229.507 Z" fill="#000000" fill-rule="nonzero" fill-opacity="1" /><path clip-path="url(#clip220)" d="M679.522 236.429 L679.522 238.512 L659.939 238.512 Q660.217 242.91 662.578 245.225 Q664.962 247.516 669.198 247.516 Q671.652 247.516 673.944 246.915 Q676.259 246.313 678.527 245.109 L678.527 249.137 Q676.235 250.109 673.828 250.618 Q671.421 251.128 668.944 251.128 Q662.74 251.128 659.106 247.516 Q655.495 243.905 655.495 237.748 Q655.495 231.382 658.921 227.655 Q662.37 223.906 668.203 223.906 Q673.435 223.906 676.467 227.285 Q679.522 230.642 679.522 236.429 M675.263 235.179 Q675.217 231.683 673.296 229.6 Q671.398 227.517 668.249 227.517 Q664.685 227.517 662.532 229.53 Q660.402 231.544 660.078 235.202 L675.263 235.179 Z" fill="#000000" fill-rule="nonzero" fill-opacity="1" /><path clip-path="url(#clip220)" d="M690.726 217.169 L690.726 224.531 L699.499 224.531 L699.499 227.841 L690.726 227.841 L690.726 241.915 Q690.726 245.086 691.583 245.989 Q692.462 246.891 695.124 246.891 L699.499 246.891 L699.499 250.456 L695.124 250.456 Q690.194 250.456 688.319 248.628 Q686.444 246.776 686.444 241.915 L686.444 227.841 L683.319 227.841 L683.319 224.531 L686.444 224.531 L686.444 217.169 L690.726 217.169 Z" fill="#000000" fill-rule="nonzero" fill-opacity="1" /><path clip-path="url(#clip220)" d="M727.277 236.429 L727.277 238.512 L707.694 238.512 Q707.971 242.91 710.332 245.225 Q712.717 247.516 716.953 247.516 Q719.407 247.516 721.698 246.915 Q724.013 246.313 726.281 245.109 L726.281 249.137 Q723.99 250.109 721.582 250.618 Q719.175 251.128 716.698 251.128 Q710.495 251.128 706.86 247.516 Q703.249 243.905 703.249 237.748 Q703.249 231.382 706.675 227.655 Q710.124 223.906 715.957 223.906 Q721.189 223.906 724.221 227.285 Q727.277 230.642 727.277 236.429 M723.018 235.179 Q722.971 231.683 721.05 229.6 Q719.152 227.517 716.004 227.517 Q712.439 227.517 710.286 229.53 Q708.157 231.544 707.833 235.202 L723.018 235.179 Z" fill="#000000" fill-rule="nonzero" fill-opacity="1" /><path clip-path="url(#clip220)" d="M749.291 228.512 Q748.573 228.095 747.717 227.91 Q746.883 227.702 745.865 227.702 Q742.254 227.702 740.309 230.063 Q738.388 232.401 738.388 236.799 L738.388 250.456 L734.106 250.456 L734.106 224.531 L738.388 224.531 L738.388 228.558 Q739.73 226.197 741.883 225.063 Q744.036 223.906 747.115 223.906 Q747.555 223.906 748.087 223.975 Q748.619 224.021 749.267 224.137 L749.291 228.512 Z" fill="#000000" fill-rule="nonzero" fill-opacity="1" /><path clip-path="url(#clip220)" d="M783.851 228.512 Q783.133 228.095 782.277 227.91 Q781.443 227.702 780.425 227.702 Q776.814 227.702 774.869 230.063 Q772.948 232.401 772.948 236.799 L772.948 250.456 L768.666 250.456 L768.666 224.531 L772.948 224.531 L772.948 228.558 Q774.29 226.197 776.443 225.063 Q778.596 223.906 781.675 223.906 Q782.115 223.906 782.647 223.975 Q783.179 224.021 783.827 224.137 L783.851 228.512 Z" fill="#000000" fill-rule="nonzero" fill-opacity="1" /><path clip-path="url(#clip220)" d="M809.452 236.429 L809.452 238.512 L789.869 238.512 Q790.147 242.91 792.508 245.225 Q794.892 247.516 799.128 247.516 Q801.582 247.516 803.874 246.915 Q806.188 246.313 808.457 245.109 L808.457 249.137 Q806.165 250.109 803.758 250.618 Q801.351 251.128 798.874 251.128 Q792.67 251.128 789.036 247.516 Q785.425 243.905 785.425 237.748 Q785.425 231.382 788.851 227.655 Q792.3 223.906 798.133 223.906 Q803.364 223.906 806.397 227.285 Q809.452 230.642 809.452 236.429 M805.193 235.179 Q805.147 231.683 803.226 229.6 Q801.327 227.517 798.179 227.517 Q794.614 227.517 792.462 229.53 Q790.332 231.544 790.008 235.202 L805.193 235.179 Z" fill="#000000" fill-rule="nonzero" fill-opacity="1" /><path clip-path="url(#clip220)" d="M832.971 225.294 L832.971 229.322 Q831.165 228.396 829.221 227.933 Q827.276 227.47 825.193 227.47 Q822.022 227.47 820.424 228.443 Q818.85 229.415 818.85 231.359 Q818.85 232.841 819.985 233.697 Q821.119 234.53 824.545 235.294 L826.003 235.618 Q830.54 236.591 832.438 238.373 Q834.36 240.132 834.36 243.304 Q834.36 246.915 831.489 249.021 Q828.642 251.128 823.642 251.128 Q821.559 251.128 819.29 250.711 Q817.045 250.317 814.545 249.507 L814.545 245.109 Q816.906 246.336 819.198 246.961 Q821.489 247.563 823.735 247.563 Q826.744 247.563 828.364 246.544 Q829.985 245.503 829.985 243.628 Q829.985 241.892 828.804 240.966 Q827.647 240.04 823.688 239.183 L822.207 238.836 Q818.249 238.003 816.489 236.29 Q814.73 234.554 814.73 231.544 Q814.73 227.887 817.323 225.896 Q819.915 223.906 824.684 223.906 Q827.045 223.906 829.128 224.253 Q831.211 224.6 832.971 225.294 Z" fill="#000000" fill-rule="nonzero" fill-opacity="1" /><path clip-path="url(#clip220)" d="M852.924 237.424 Q847.762 237.424 845.772 238.604 Q843.781 239.785 843.781 242.632 Q843.781 244.901 845.262 246.243 Q846.767 247.563 849.336 247.563 Q852.878 247.563 855.008 245.063 Q857.16 242.54 857.16 238.373 L857.16 237.424 L852.924 237.424 M861.42 235.665 L861.42 250.456 L857.16 250.456 L857.16 246.521 Q855.702 248.882 853.526 250.016 Q851.35 251.128 848.202 251.128 Q844.221 251.128 841.86 248.905 Q839.522 246.66 839.522 242.91 Q839.522 238.535 842.438 236.313 Q845.378 234.091 851.188 234.091 L857.16 234.091 L857.16 233.674 Q857.16 230.734 855.216 229.137 Q853.295 227.517 849.799 227.517 Q847.577 227.517 845.471 228.049 Q843.364 228.581 841.42 229.646 L841.42 225.711 Q843.758 224.808 845.957 224.368 Q848.156 223.906 850.239 223.906 Q855.864 223.906 858.642 226.822 Q861.42 229.739 861.42 235.665 Z" fill="#000000" fill-rule="nonzero" fill-opacity="1" /><path clip-path="url(#clip220)" d="M890.378 229.507 Q891.975 226.637 894.197 225.271 Q896.419 223.906 899.429 223.906 Q903.48 223.906 905.679 226.753 Q907.878 229.577 907.878 234.808 L907.878 250.456 L903.595 250.456 L903.595 234.947 Q903.595 231.22 902.276 229.415 Q900.956 227.609 898.248 227.609 Q894.938 227.609 893.017 229.808 Q891.095 232.007 891.095 235.804 L891.095 250.456 L886.813 250.456 L886.813 234.947 Q886.813 231.197 885.494 229.415 Q884.174 227.609 881.42 227.609 Q878.156 227.609 876.234 229.831 Q874.313 232.03 874.313 235.804 L874.313 250.456 L870.031 250.456 L870.031 224.531 L874.313 224.531 L874.313 228.558 Q875.771 226.174 877.808 225.04 Q879.845 223.906 882.646 223.906 Q885.47 223.906 887.438 225.341 Q889.429 226.776 890.378 229.507 Z" fill="#000000" fill-rule="nonzero" fill-opacity="1" /><path clip-path="url(#clip220)" d="M920.493 246.567 L920.493 260.317 L916.211 260.317 L916.211 224.531 L920.493 224.531 L920.493 228.466 Q921.836 226.151 923.873 225.04 Q925.933 223.906 928.78 223.906 Q933.503 223.906 936.442 227.655 Q939.405 231.405 939.405 237.517 Q939.405 243.628 936.442 247.378 Q933.503 251.128 928.78 251.128 Q925.933 251.128 923.873 250.016 Q921.836 248.882 920.493 246.567 M934.984 237.517 Q934.984 232.817 933.04 230.155 Q931.118 227.47 927.739 227.47 Q924.359 227.47 922.415 230.155 Q920.493 232.817 920.493 237.517 Q920.493 242.216 922.415 244.901 Q924.359 247.563 927.739 247.563 Q931.118 247.563 933.04 244.901 Q934.984 242.216 934.984 237.517 Z" fill="#000000" fill-rule="nonzero" fill-opacity="1" /><path clip-path="url(#clip220)" d="M946.465 214.438 L950.725 214.438 L950.725 250.456 L946.465 250.456 L946.465 214.438 Z" fill="#000000" fill-rule="nonzero" fill-opacity="1" /><path clip-path="url(#clip220)" d="M981.813 236.429 L981.813 238.512 L962.229 238.512 Q962.507 242.91 964.868 245.225 Q967.252 247.516 971.489 247.516 Q973.942 247.516 976.234 246.915 Q978.549 246.313 980.817 245.109 L980.817 249.137 Q978.526 250.109 976.118 250.618 Q973.711 251.128 971.234 251.128 Q965.03 251.128 961.396 247.516 Q957.785 243.905 957.785 237.748 Q957.785 231.382 961.211 227.655 Q964.66 223.906 970.493 223.906 Q975.725 223.906 978.757 227.285 Q981.813 230.642 981.813 236.429 M977.553 235.179 Q977.507 231.683 975.586 229.6 Q973.688 227.517 970.539 227.517 Q966.975 227.517 964.822 229.53 Q962.692 231.544 962.368 235.202 L977.553 235.179 Z" fill="#000000" fill-rule="nonzero" fill-opacity="1" /><path clip-path="url(#clip220)" d="M1005.86 228.466 L1005.86 214.438 L1010.12 214.438 L1010.12 250.456 L1005.86 250.456 L1005.86 246.567 Q1004.52 248.882 1002.46 250.016 Q1000.42 251.128 997.553 251.128 Q992.854 251.128 989.891 247.378 Q986.951 243.628 986.951 237.517 Q986.951 231.405 989.891 227.655 Q992.854 223.906 997.553 223.906 Q1000.42 223.906 1002.46 225.04 Q1004.52 226.151 1005.86 228.466 M991.35 237.517 Q991.35 242.216 993.271 244.901 Q995.215 247.563 998.595 247.563 Q1001.97 247.563 1003.92 244.901 Q1005.86 242.216 1005.86 237.517 Q1005.86 232.817 1003.92 230.155 Q1001.97 227.47 998.595 227.47 Q995.215 227.47 993.271 230.155 Q991.35 232.817 991.35 237.517 Z" fill="#000000" fill-rule="nonzero" fill-opacity="1" /><polyline clip-path="url(#clip220)" style="stroke:#ff0000; stroke-linecap:round; stroke-linejoin:round; stroke-width:8; stroke-opacity:1; fill:none" stroke-dasharray="32, 20" points="318.261,285.016 480.295,285.016 "/>
<path clip-path="url(#clip220)" d="M511.977 271.579 L511.977 298.454 L517.625 298.454 Q524.778 298.454 528.088 295.213 Q531.421 291.972 531.421 284.982 Q531.421 278.037 528.088 274.82 Q524.778 271.579 517.625 271.579 L511.977 271.579 M507.301 267.736 L516.908 267.736 Q526.954 267.736 531.653 271.926 Q536.352 276.093 536.352 284.982 Q536.352 293.917 531.63 298.106 Q526.908 302.296 516.908 302.296 L507.301 302.296 L507.301 267.736 Z" fill="#000000" fill-rule="nonzero" fill-opacity="1" /><path clip-path="url(#clip220)" d="M565.796 288.269 L565.796 290.352 L546.213 290.352 Q546.491 294.75 548.852 297.065 Q551.236 299.356 555.472 299.356 Q557.926 299.356 560.218 298.755 Q562.532 298.153 564.801 296.949 L564.801 300.977 Q562.509 301.949 560.102 302.458 Q557.694 302.968 555.218 302.968 Q549.014 302.968 545.38 299.356 Q541.769 295.745 541.769 289.588 Q541.769 283.222 545.194 279.495 Q548.644 275.746 554.477 275.746 Q559.708 275.746 562.741 279.125 Q565.796 282.482 565.796 288.269 M561.537 287.019 Q561.491 283.523 559.569 281.44 Q557.671 279.357 554.523 279.357 Q550.958 279.357 548.806 281.37 Q546.676 283.384 546.352 287.042 L561.537 287.019 Z" fill="#000000" fill-rule="nonzero" fill-opacity="1" /><path clip-path="url(#clip220)" d="M577 269.009 L577 276.371 L585.773 276.371 L585.773 279.681 L577 279.681 L577 293.755 Q577 296.926 577.856 297.829 Q578.736 298.731 581.398 298.731 L585.773 298.731 L585.773 302.296 L581.398 302.296 Q576.467 302.296 574.592 300.468 Q572.717 298.616 572.717 293.755 L572.717 279.681 L569.593 279.681 L569.593 276.371 L572.717 276.371 L572.717 269.009 L577 269.009 Z" fill="#000000" fill-rule="nonzero" fill-opacity="1" /><path clip-path="url(#clip220)" d="M613.551 288.269 L613.551 290.352 L593.967 290.352 Q594.245 294.75 596.606 297.065 Q598.99 299.356 603.227 299.356 Q605.68 299.356 607.972 298.755 Q610.287 298.153 612.555 296.949 L612.555 300.977 Q610.264 301.949 607.856 302.458 Q605.449 302.968 602.972 302.968 Q596.768 302.968 593.134 299.356 Q589.523 295.745 589.523 289.588 Q589.523 283.222 592.949 279.495 Q596.398 275.746 602.231 275.746 Q607.463 275.746 610.495 279.125 Q613.551 282.482 613.551 288.269 M609.291 287.019 Q609.245 283.523 607.324 281.44 Q605.426 279.357 602.278 279.357 Q598.713 279.357 596.56 281.37 Q594.43 283.384 594.106 287.042 L609.291 287.019 Z" fill="#000000" fill-rule="nonzero" fill-opacity="1" /><path clip-path="url(#clip220)" d="M635.564 280.352 Q634.847 279.935 633.99 279.75 Q633.157 279.542 632.138 279.542 Q628.527 279.542 626.583 281.903 Q624.662 284.241 624.662 288.639 L624.662 302.296 L620.379 302.296 L620.379 276.371 L624.662 276.371 L624.662 280.398 Q626.004 278.037 628.157 276.903 Q630.31 275.746 633.388 275.746 Q633.828 275.746 634.361 275.815 Q634.893 275.861 635.541 275.977 L635.564 280.352 Z" fill="#000000" fill-rule="nonzero" fill-opacity="1" /><path clip-path="url(#clip220)" d="M659.384 281.347 Q660.981 278.477 663.203 277.111 Q665.425 275.746 668.435 275.746 Q672.485 275.746 674.685 278.593 Q676.884 281.417 676.884 286.648 L676.884 302.296 L672.601 302.296 L672.601 286.787 Q672.601 283.06 671.282 281.255 Q669.962 279.449 667.254 279.449 Q663.944 279.449 662.023 281.648 Q660.101 283.847 660.101 287.644 L660.101 302.296 L655.819 302.296 L655.819 286.787 Q655.819 283.037 654.499 281.255 Q653.18 279.449 650.425 279.449 Q647.162 279.449 645.24 281.671 Q643.319 283.87 643.319 287.644 L643.319 302.296 L639.037 302.296 L639.037 276.371 L643.319 276.371 L643.319 280.398 Q644.777 278.014 646.814 276.88 Q648.851 275.746 651.652 275.746 Q654.476 275.746 656.444 277.181 Q658.435 278.616 659.384 281.347 Z" fill="#000000" fill-rule="nonzero" fill-opacity="1" /><path clip-path="url(#clip220)" d="M685.379 276.371 L689.638 276.371 L689.638 302.296 L685.379 302.296 L685.379 276.371 M685.379 266.278 L689.638 266.278 L689.638 271.671 L685.379 271.671 L685.379 266.278 Z" fill="#000000" fill-rule="nonzero" fill-opacity="1" /><path clip-path="url(#clip220)" d="M720.101 286.648 L720.101 302.296 L715.842 302.296 L715.842 286.787 Q715.842 283.107 714.407 281.278 Q712.971 279.449 710.101 279.449 Q706.652 279.449 704.661 281.648 Q702.67 283.847 702.67 287.644 L702.67 302.296 L698.388 302.296 L698.388 276.371 L702.67 276.371 L702.67 280.398 Q704.198 278.06 706.258 276.903 Q708.342 275.746 711.05 275.746 Q715.518 275.746 717.809 278.523 Q720.101 281.278 720.101 286.648 Z" fill="#000000" fill-rule="nonzero" fill-opacity="1" /><path clip-path="url(#clip220)" d="M728.596 276.371 L732.856 276.371 L732.856 302.296 L728.596 302.296 L728.596 276.371 M728.596 266.278 L732.856 266.278 L732.856 271.671 L728.596 271.671 L728.596 266.278 Z" fill="#000000" fill-rule="nonzero" fill-opacity="1" /><path clip-path="url(#clip220)" d="M758.295 277.134 L758.295 281.162 Q756.49 280.236 754.545 279.773 Q752.601 279.31 750.517 279.31 Q747.346 279.31 745.749 280.283 Q744.175 281.255 744.175 283.199 Q744.175 284.681 745.309 285.537 Q746.443 286.37 749.869 287.134 L751.328 287.458 Q755.865 288.431 757.763 290.213 Q759.684 291.972 759.684 295.144 Q759.684 298.755 756.814 300.861 Q753.967 302.968 748.967 302.968 Q746.883 302.968 744.615 302.551 Q742.369 302.157 739.869 301.347 L739.869 296.949 Q742.23 298.176 744.522 298.801 Q746.814 299.403 749.059 299.403 Q752.068 299.403 753.689 298.384 Q755.309 297.343 755.309 295.468 Q755.309 293.732 754.129 292.806 Q752.971 291.88 749.013 291.023 L747.531 290.676 Q743.573 289.843 741.814 288.13 Q740.055 286.394 740.055 283.384 Q740.055 279.727 742.647 277.736 Q745.24 275.746 750.008 275.746 Q752.369 275.746 754.453 276.093 Q756.536 276.44 758.295 277.134 Z" fill="#000000" fill-rule="nonzero" fill-opacity="1" /><path clip-path="url(#clip220)" d="M770.679 269.009 L770.679 276.371 L779.452 276.371 L779.452 279.681 L770.679 279.681 L770.679 293.755 Q770.679 296.926 771.536 297.829 Q772.415 298.731 775.078 298.731 L779.452 298.731 L779.452 302.296 L775.078 302.296 Q770.147 302.296 768.272 300.468 Q766.397 298.616 766.397 293.755 L766.397 279.681 L763.272 279.681 L763.272 276.371 L766.397 276.371 L766.397 269.009 L770.679 269.009 Z" fill="#000000" fill-rule="nonzero" fill-opacity="1" /><path clip-path="url(#clip220)" d="M785.054 276.371 L789.314 276.371 L789.314 302.296 L785.054 302.296 L785.054 276.371 M785.054 266.278 L789.314 266.278 L789.314 271.671 L785.054 271.671 L785.054 266.278 Z" fill="#000000" fill-rule="nonzero" fill-opacity="1" /><path clip-path="url(#clip220)" d="M816.883 277.366 L816.883 281.347 Q815.077 280.352 813.249 279.866 Q811.443 279.357 809.591 279.357 Q805.448 279.357 803.156 281.995 Q800.864 284.611 800.864 289.357 Q800.864 294.102 803.156 296.741 Q805.448 299.356 809.591 299.356 Q811.443 299.356 813.249 298.87 Q815.077 298.361 816.883 297.366 L816.883 301.301 Q815.1 302.134 813.179 302.551 Q811.281 302.968 809.128 302.968 Q803.272 302.968 799.823 299.287 Q796.374 295.607 796.374 289.357 Q796.374 283.014 799.846 279.38 Q803.341 275.746 809.406 275.746 Q811.374 275.746 813.249 276.162 Q815.124 276.556 816.883 277.366 Z" fill="#000000" fill-rule="nonzero" fill-opacity="1" /></svg>
