<?xml version="1.0" encoding="utf-8"?>
<svg xmlns="http://www.w3.org/2000/svg" xmlns:xlink="http://www.w3.org/1999/xlink" width="672" height="480" viewBox="0 0 2688 1920">
<defs>
  <clipPath id="clip310">
    <rect x="0" y="0" width="2688" height="1920"/>
  </clipPath>
</defs>
<path clip-path="url(#clip310)" d="M0 1920 L2688 1920 L2688 -4.26326e-14 L0 -4.26326e-14  Z" fill="#ffffff" fill-rule="evenodd" fill-opacity="1"/>
<defs>
  <clipPath id="clip311">
    <rect x="253" y="127" width="2388" height="1607"/>
  </clipPath>
</defs>
<path clip-path="url(#clip310)" d="M253.733 1734.12 L2640.76 1734.12 L2640.76 127.792 L253.733 127.792  Z" fill="#ffffff" fill-rule="evenodd" fill-opacity="1"/>
<polyline clip-path="url(#clip311)" style="stroke:#000000; stroke-linecap:round; stroke-linejoin:round; stroke-width:2; stroke-opacity:0.1; fill:none" points="321.29,1734.12 321.29,127.792 "/>
<polyline clip-path="url(#clip311)" style="stroke:#000000; stroke-linecap:round; stroke-linejoin:round; stroke-width:2; stroke-opacity:0.1; fill:none" points="771.672,1734.12 771.672,127.792 "/>
<polyline clip-path="url(#clip311)" style="stroke:#000000; stroke-linecap:round; stroke-linejoin:round; stroke-width:2; stroke-opacity:0.1; fill:none" points="1222.05,1734.12 1222.05,127.792 "/>
<polyline clip-path="url(#clip311)" style="stroke:#000000; stroke-linecap:round; stroke-linejoin:round; stroke-width:2; stroke-opacity:0.1; fill:none" points="1672.44,1734.12 1672.44,127.792 "/>
<polyline clip-path="url(#clip311)" style="stroke:#000000; stroke-linecap:round; stroke-linejoin:round; stroke-width:2; stroke-opacity:0.1; fill:none" points="2122.82,1734.12 2122.82,127.792 "/>
<polyline clip-path="url(#clip311)" style="stroke:#000000; stroke-linecap:round; stroke-linejoin:round; stroke-width:2; stroke-opacity:0.1; fill:none" points="2573.2,1734.12 2573.2,127.792 "/>
<polyline clip-path="url(#clip311)" style="stroke:#000000; stroke-linecap:round; stroke-linejoin:round; stroke-width:2; stroke-opacity:0.1; fill:none" points="253.733,1732.19 2640.76,1732.19 "/>
<polyline clip-path="url(#clip311)" style="stroke:#000000; stroke-linecap:round; stroke-linejoin:round; stroke-width:2; stroke-opacity:0.1; fill:none" points="253.733,1314 2640.76,1314 "/>
<polyline clip-path="url(#clip311)" style="stroke:#000000; stroke-linecap:round; stroke-linejoin:round; stroke-width:2; stroke-opacity:0.1; fill:none" points="253.733,895.801 2640.76,895.801 "/>
<polyline clip-path="url(#clip311)" style="stroke:#000000; stroke-linecap:round; stroke-linejoin:round; stroke-width:2; stroke-opacity:0.1; fill:none" points="253.733,477.605 2640.76,477.605 "/>
<polyline clip-path="url(#clip310)" style="stroke:#000000; stroke-linecap:round; stroke-linejoin:round; stroke-width:4; stroke-opacity:1; fill:none" points="253.733,1734.12 2640.76,1734.12 "/>
<polyline clip-path="url(#clip310)" style="stroke:#000000; stroke-linecap:round; stroke-linejoin:round; stroke-width:4; stroke-opacity:1; fill:none" points="321.29,1734.12 321.29,1715.22 "/>
<polyline clip-path="url(#clip310)" style="stroke:#000000; stroke-linecap:round; stroke-linejoin:round; stroke-width:4; stroke-opacity:1; fill:none" points="771.672,1734.12 771.672,1715.22 "/>
<polyline clip-path="url(#clip310)" style="stroke:#000000; stroke-linecap:round; stroke-linejoin:round; stroke-width:4; stroke-opacity:1; fill:none" points="1222.05,1734.12 1222.05,1715.22 "/>
<polyline clip-path="url(#clip310)" style="stroke:#000000; stroke-linecap:round; stroke-linejoin:round; stroke-width:4; stroke-opacity:1; fill:none" points="1672.44,1734.12 1672.44,1715.22 "/>
<polyline clip-path="url(#clip310)" style="stroke:#000000; stroke-linecap:round; stroke-linejoin:round; stroke-width:4; stroke-opacity:1; fill:none" points="2122.82,1734.12 2122.82,1715.22 "/>
<polyline clip-path="url(#clip310)" style="stroke:#000000; stroke-linecap:round; stroke-linejoin:round; stroke-width:4; stroke-opacity:1; fill:none" points="2573.2,1734.12 2573.2,1715.22 "/>
<path clip-path="url(#clip310)" d="M298.675 1767.34 Q295.064 1767.34 293.235 1770.9 Q291.429 1774.45 291.429 1781.58 Q291.429 1788.68 293.235 1792.25 Q295.064 1795.79 298.675 1795.79 Q302.309 1795.79 304.114 1792.25 Q305.943 1788.68 305.943 1781.58 Q305.943 1774.45 304.114 1770.9 Q302.309 1767.34 298.675 1767.34 M298.675 1763.64 Q304.485 1763.64 307.54 1768.24 Q310.619 1772.83 310.619 1781.58 Q310.619 1790.3 307.54 1794.91 Q304.485 1799.49 298.675 1799.49 Q292.864 1799.49 289.786 1794.91 Q286.73 1790.3 286.73 1781.58 Q286.73 1772.83 289.786 1768.24 Q292.864 1763.64 298.675 1763.64 Z" fill="#000000" fill-rule="nonzero" fill-opacity="1" /><path clip-path="url(#clip310)" d="M318.837 1792.94 L323.721 1792.94 L323.721 1798.82 L318.837 1798.82 L318.837 1792.94 Z" fill="#000000" fill-rule="nonzero" fill-opacity="1" /><path clip-path="url(#clip310)" d="M343.906 1767.34 Q340.295 1767.34 338.466 1770.9 Q336.661 1774.45 336.661 1781.58 Q336.661 1788.68 338.466 1792.25 Q340.295 1795.79 343.906 1795.79 Q347.54 1795.79 349.346 1792.25 Q351.174 1788.68 351.174 1781.58 Q351.174 1774.45 349.346 1770.9 Q347.54 1767.34 343.906 1767.34 M343.906 1763.64 Q349.716 1763.64 352.772 1768.24 Q355.85 1772.83 355.85 1781.58 Q355.85 1790.3 352.772 1794.91 Q349.716 1799.49 343.906 1799.49 Q338.096 1799.49 335.017 1794.91 Q331.961 1790.3 331.961 1781.58 Q331.961 1772.83 335.017 1768.24 Q338.096 1763.64 343.906 1763.64 Z" fill="#000000" fill-rule="nonzero" fill-opacity="1" /><path clip-path="url(#clip310)" d="M749.67 1767.34 Q746.059 1767.34 744.23 1770.9 Q742.424 1774.45 742.424 1781.58 Q742.424 1788.68 744.23 1792.25 Q746.059 1795.79 749.67 1795.79 Q753.304 1795.79 755.11 1792.25 Q756.938 1788.68 756.938 1781.58 Q756.938 1774.45 755.11 1770.9 Q753.304 1767.34 749.67 1767.34 M749.67 1763.64 Q755.48 1763.64 758.535 1768.24 Q761.614 1772.83 761.614 1781.58 Q761.614 1790.3 758.535 1794.91 Q755.48 1799.49 749.67 1799.49 Q743.86 1799.49 740.781 1794.91 Q737.725 1790.3 737.725 1781.58 Q737.725 1772.83 740.781 1768.24 Q743.86 1763.64 749.67 1763.64 Z" fill="#000000" fill-rule="nonzero" fill-opacity="1" /><path clip-path="url(#clip310)" d="M769.832 1792.94 L774.716 1792.94 L774.716 1798.82 L769.832 1798.82 L769.832 1792.94 Z" fill="#000000" fill-rule="nonzero" fill-opacity="1" /><path clip-path="url(#clip310)" d="M785.711 1794.89 L793.35 1794.89 L793.35 1768.52 L785.04 1770.19 L785.04 1765.93 L793.304 1764.26 L797.98 1764.26 L797.98 1794.89 L805.619 1794.89 L805.619 1798.82 L785.711 1798.82 L785.711 1794.89 Z" fill="#000000" fill-rule="nonzero" fill-opacity="1" /><path clip-path="url(#clip310)" d="M1200.24 1767.34 Q1196.63 1767.34 1194.8 1770.9 Q1192.99 1774.45 1192.99 1781.58 Q1192.99 1788.68 1194.8 1792.25 Q1196.63 1795.79 1200.24 1795.79 Q1203.87 1795.79 1205.68 1792.25 Q1207.51 1788.68 1207.51 1781.58 Q1207.51 1774.45 1205.68 1770.9 Q1203.87 1767.34 1200.24 1767.34 M1200.24 1763.64 Q1206.05 1763.64 1209.1 1768.24 Q1212.18 1772.83 1212.18 1781.58 Q1212.18 1790.3 1209.1 1794.91 Q1206.05 1799.49 1200.24 1799.49 Q1194.43 1799.49 1191.35 1794.91 Q1188.29 1790.3 1188.29 1781.58 Q1188.29 1772.83 1191.35 1768.24 Q1194.43 1763.64 1200.24 1763.64 Z" fill="#000000" fill-rule="nonzero" fill-opacity="1" /><path clip-path="url(#clip310)" d="M1220.4 1792.94 L1225.28 1792.94 L1225.28 1798.82 L1220.4 1798.82 L1220.4 1792.94 Z" fill="#000000" fill-rule="nonzero" fill-opacity="1" /><path clip-path="url(#clip310)" d="M1239.5 1794.89 L1255.82 1794.89 L1255.82 1798.82 L1233.87 1798.82 L1233.87 1794.89 Q1236.53 1792.13 1241.12 1787.5 Q1245.72 1782.85 1246.9 1781.51 Q1249.15 1778.98 1250.03 1777.25 Q1250.93 1775.49 1250.93 1773.8 Q1250.93 1771.04 1248.99 1769.31 Q1247.07 1767.57 1243.96 1767.57 Q1241.76 1767.57 1239.31 1768.34 Q1236.88 1769.1 1234.1 1770.65 L1234.1 1765.93 Q1236.93 1764.79 1239.38 1764.21 Q1241.83 1763.64 1243.87 1763.64 Q1249.24 1763.64 1252.44 1766.32 Q1255.63 1769.01 1255.63 1773.5 Q1255.63 1775.63 1254.82 1777.55 Q1254.03 1779.45 1251.93 1782.04 Q1251.35 1782.71 1248.25 1785.93 Q1245.14 1789.12 1239.5 1794.89 Z" fill="#000000" fill-rule="nonzero" fill-opacity="1" /><path clip-path="url(#clip310)" d="M1650.14 1767.34 Q1646.53 1767.34 1644.7 1770.9 Q1642.9 1774.45 1642.9 1781.58 Q1642.9 1788.68 1644.7 1792.25 Q1646.53 1795.79 1650.14 1795.79 Q1653.78 1795.79 1655.58 1792.25 Q1657.41 1788.68 1657.41 1781.58 Q1657.41 1774.45 1655.58 1770.9 Q1653.78 1767.34 1650.14 1767.34 M1650.14 1763.64 Q1655.95 1763.64 1659.01 1768.24 Q1662.09 1772.83 1662.09 1781.58 Q1662.09 1790.3 1659.01 1794.91 Q1655.95 1799.49 1650.14 1799.49 Q1644.33 1799.49 1641.25 1794.91 Q1638.2 1790.3 1638.2 1781.58 Q1638.2 1772.83 1641.25 1768.24 Q1644.33 1763.64 1650.14 1763.64 Z" fill="#000000" fill-rule="nonzero" fill-opacity="1" /><path clip-path="url(#clip310)" d="M1670.31 1792.94 L1675.19 1792.94 L1675.19 1798.82 L1670.31 1798.82 L1670.31 1792.94 Z" fill="#000000" fill-rule="nonzero" fill-opacity="1" /><path clip-path="url(#clip310)" d="M1699.54 1780.19 Q1702.9 1780.9 1704.77 1783.17 Q1706.67 1785.44 1706.67 1788.77 Q1706.67 1793.89 1703.15 1796.69 Q1699.63 1799.49 1693.15 1799.49 Q1690.98 1799.49 1688.66 1799.05 Q1686.37 1798.64 1683.92 1797.78 L1683.92 1793.27 Q1685.86 1794.4 1688.18 1794.98 Q1690.49 1795.56 1693.01 1795.56 Q1697.41 1795.56 1699.7 1793.82 Q1702.02 1792.08 1702.02 1788.77 Q1702.02 1785.72 1699.87 1784.01 Q1697.74 1782.27 1693.92 1782.27 L1689.89 1782.27 L1689.89 1778.43 L1694.1 1778.43 Q1697.55 1778.43 1699.38 1777.06 Q1701.21 1775.67 1701.21 1773.08 Q1701.21 1770.42 1699.31 1769.01 Q1697.44 1767.57 1693.92 1767.57 Q1692 1767.57 1689.8 1767.99 Q1687.6 1768.4 1684.96 1769.28 L1684.96 1765.12 Q1687.62 1764.38 1689.94 1764.01 Q1692.27 1763.64 1694.33 1763.64 Q1699.66 1763.64 1702.76 1766.07 Q1705.86 1768.47 1705.86 1772.59 Q1705.86 1775.46 1704.22 1777.46 Q1702.57 1779.42 1699.54 1780.19 Z" fill="#000000" fill-rule="nonzero" fill-opacity="1" /><path clip-path="url(#clip310)" d="M2099.96 1767.34 Q2096.35 1767.34 2094.52 1770.9 Q2092.71 1774.45 2092.71 1781.58 Q2092.71 1788.68 2094.52 1792.25 Q2096.35 1795.79 2099.96 1795.79 Q2103.59 1795.79 2105.4 1792.25 Q2107.23 1788.68 2107.23 1781.58 Q2107.23 1774.45 2105.4 1770.9 Q2103.59 1767.34 2099.96 1767.34 M2099.96 1763.64 Q2105.77 1763.64 2108.82 1768.24 Q2111.9 1772.83 2111.9 1781.58 Q2111.9 1790.3 2108.82 1794.91 Q2105.77 1799.49 2099.96 1799.49 Q2094.15 1799.49 2091.07 1794.91 Q2088.01 1790.3 2088.01 1781.58 Q2088.01 1772.83 2091.07 1768.24 Q2094.15 1763.64 2099.96 1763.64 Z" fill="#000000" fill-rule="nonzero" fill-opacity="1" /><path clip-path="url(#clip310)" d="M2120.12 1792.94 L2125 1792.94 L2125 1798.82 L2120.12 1798.82 L2120.12 1792.94 Z" fill="#000000" fill-rule="nonzero" fill-opacity="1" /><path clip-path="url(#clip310)" d="M2148.04 1768.34 L2136.23 1786.78 L2148.04 1786.78 L2148.04 1768.34 M2146.81 1764.26 L2152.69 1764.26 L2152.69 1786.78 L2157.62 1786.78 L2157.62 1790.67 L2152.69 1790.67 L2152.69 1798.82 L2148.04 1798.82 L2148.04 1790.67 L2132.43 1790.67 L2132.43 1786.16 L2146.81 1764.26 Z" fill="#000000" fill-rule="nonzero" fill-opacity="1" /><path clip-path="url(#clip310)" d="M2551.08 1767.34 Q2547.47 1767.34 2545.64 1770.9 Q2543.84 1774.45 2543.84 1781.58 Q2543.84 1788.68 2545.64 1792.25 Q2547.47 1795.79 2551.08 1795.79 Q2554.71 1795.79 2556.52 1792.25 Q2558.35 1788.68 2558.35 1781.58 Q2558.35 1774.45 2556.52 1770.9 Q2554.71 1767.34 2551.08 1767.34 M2551.08 1763.64 Q2556.89 1763.64 2559.95 1768.24 Q2563.03 1772.83 2563.03 1781.58 Q2563.03 1790.3 2559.95 1794.91 Q2556.89 1799.49 2551.08 1799.49 Q2545.27 1799.49 2542.19 1794.91 Q2539.14 1790.3 2539.14 1781.58 Q2539.14 1772.83 2542.19 1768.24 Q2545.27 1763.64 2551.08 1763.64 Z" fill="#000000" fill-rule="nonzero" fill-opacity="1" /><path clip-path="url(#clip310)" d="M2571.24 1792.94 L2576.13 1792.94 L2576.13 1798.82 L2571.24 1798.82 L2571.24 1792.94 Z" fill="#000000" fill-rule="nonzero" fill-opacity="1" /><path clip-path="url(#clip310)" d="M2586.36 1764.26 L2604.71 1764.26 L2604.71 1768.2 L2590.64 1768.2 L2590.64 1776.67 Q2591.66 1776.32 2592.68 1776.16 Q2593.7 1775.97 2594.71 1775.97 Q2600.5 1775.97 2603.88 1779.15 Q2607.26 1782.32 2607.26 1787.73 Q2607.26 1793.31 2603.79 1796.41 Q2600.32 1799.49 2594 1799.49 Q2591.82 1799.49 2589.55 1799.12 Q2587.31 1798.75 2584.9 1798.01 L2584.9 1793.31 Q2586.98 1794.45 2589.21 1795 Q2591.43 1795.56 2593.9 1795.56 Q2597.91 1795.56 2600.25 1793.45 Q2602.59 1791.34 2602.59 1787.73 Q2602.59 1784.12 2600.25 1782.02 Q2597.91 1779.91 2593.9 1779.91 Q2592.03 1779.91 2590.15 1780.33 Q2588.3 1780.74 2586.36 1781.62 L2586.36 1764.26 Z" fill="#000000" fill-rule="nonzero" fill-opacity="1" /><path clip-path="url(#clip310)" d="M888.638 1835.78 L918.684 1835.78 L918.684 1841.19 L895.067 1841.19 L895.067 1855.26 L917.697 1855.26 L917.697 1860.67 L895.067 1860.67 L895.067 1877.89 L919.257 1877.89 L919.257 1883.3 L888.638 1883.3 L888.638 1835.78 Z" fill="#000000" fill-rule="nonzero" fill-opacity="1" /><path clip-path="url(#clip310)" d="M959.202 1861.78 L959.202 1883.3 L953.345 1883.3 L953.345 1861.98 Q953.345 1856.92 951.372 1854.4 Q949.398 1851.89 945.452 1851.89 Q940.709 1851.89 937.972 1854.91 Q935.235 1857.93 935.235 1863.15 L935.235 1883.3 L929.346 1883.3 L929.346 1847.65 L935.235 1847.65 L935.235 1853.19 Q937.335 1849.98 940.168 1848.39 Q943.033 1846.79 946.757 1846.79 Q952.9 1846.79 956.051 1850.61 Q959.202 1854.4 959.202 1861.78 Z" fill="#000000" fill-rule="nonzero" fill-opacity="1" /><path clip-path="url(#clip310)" d="M966.681 1847.65 L972.888 1847.65 L984.028 1877.57 L995.168 1847.65 L1001.37 1847.65 L988.006 1883.3 L980.049 1883.3 L966.681 1847.65 Z" fill="#000000" fill-rule="nonzero" fill-opacity="1" /><path clip-path="url(#clip310)" d="M1009.46 1847.65 L1015.32 1847.65 L1015.32 1883.3 L1009.46 1883.3 L1009.46 1847.65 M1009.46 1833.78 L1015.32 1833.78 L1015.32 1841.19 L1009.46 1841.19 L1009.46 1833.78 Z" fill="#000000" fill-rule="nonzero" fill-opacity="1" /><path clip-path="url(#clip310)" d="M1048.23 1853.13 Q1047.24 1852.55 1046.06 1852.3 Q1044.92 1852.01 1043.52 1852.01 Q1038.55 1852.01 1035.88 1855.26 Q1033.23 1858.47 1033.23 1864.52 L1033.23 1883.3 L1027.35 1883.3 L1027.35 1847.65 L1033.23 1847.65 L1033.23 1853.19 Q1035.08 1849.94 1038.04 1848.39 Q1041 1846.79 1045.23 1846.79 Q1045.84 1846.79 1046.57 1846.89 Q1047.3 1846.95 1048.19 1847.11 L1048.23 1853.13 Z" fill="#000000" fill-rule="nonzero" fill-opacity="1" /><path clip-path="url(#clip310)" d="M1066.75 1851.76 Q1062.04 1851.76 1059.3 1855.45 Q1056.57 1859.11 1056.57 1865.51 Q1056.57 1871.91 1059.27 1875.6 Q1062.01 1879.26 1066.75 1879.26 Q1071.43 1879.26 1074.17 1875.57 Q1076.9 1871.87 1076.9 1865.51 Q1076.9 1859.17 1074.17 1855.48 Q1071.43 1851.76 1066.75 1851.76 M1066.75 1846.79 Q1074.39 1846.79 1078.75 1851.76 Q1083.11 1856.72 1083.11 1865.51 Q1083.11 1874.26 1078.75 1879.26 Q1074.39 1884.22 1066.75 1884.22 Q1059.08 1884.22 1054.72 1879.26 Q1050.39 1874.26 1050.39 1865.51 Q1050.39 1856.72 1054.72 1851.76 Q1059.08 1846.79 1066.75 1846.79 Z" fill="#000000" fill-rule="nonzero" fill-opacity="1" /><path clip-path="url(#clip310)" d="M1122.45 1861.78 L1122.45 1883.3 L1116.59 1883.3 L1116.59 1861.98 Q1116.59 1856.92 1114.62 1854.4 Q1112.65 1851.89 1108.7 1851.89 Q1103.96 1851.89 1101.22 1854.91 Q1098.48 1857.93 1098.48 1863.15 L1098.48 1883.3 L1092.6 1883.3 L1092.6 1847.65 L1098.48 1847.65 L1098.48 1853.19 Q1100.58 1849.98 1103.42 1848.39 Q1106.28 1846.79 1110.01 1846.79 Q1116.15 1846.79 1119.3 1850.61 Q1122.45 1854.4 1122.45 1861.78 Z" fill="#000000" fill-rule="nonzero" fill-opacity="1" /><path clip-path="url(#clip310)" d="M1161.89 1854.5 Q1164.08 1850.55 1167.14 1848.67 Q1170.19 1846.79 1174.33 1846.79 Q1179.9 1846.79 1182.92 1850.71 Q1185.95 1854.59 1185.95 1861.78 L1185.95 1883.3 L1180.06 1883.3 L1180.06 1861.98 Q1180.06 1856.85 1178.25 1854.37 Q1176.43 1851.89 1172.71 1851.89 Q1168.16 1851.89 1165.51 1854.91 Q1162.87 1857.93 1162.87 1863.15 L1162.87 1883.3 L1156.98 1883.3 L1156.98 1861.98 Q1156.98 1856.82 1155.17 1854.37 Q1153.36 1851.89 1149.57 1851.89 Q1145.08 1851.89 1142.44 1854.94 Q1139.8 1857.97 1139.8 1863.15 L1139.8 1883.3 L1133.91 1883.3 L1133.91 1847.65 L1139.8 1847.65 L1139.8 1853.19 Q1141.8 1849.91 1144.6 1848.35 Q1147.4 1846.79 1151.26 1846.79 Q1155.14 1846.79 1157.84 1848.77 Q1160.58 1850.74 1161.89 1854.5 Z" fill="#000000" fill-rule="nonzero" fill-opacity="1" /><path clip-path="url(#clip310)" d="M1228.12 1864.01 L1228.12 1866.88 L1201.19 1866.88 Q1201.58 1872.92 1204.82 1876.11 Q1208.1 1879.26 1213.93 1879.26 Q1217.3 1879.26 1220.45 1878.43 Q1223.63 1877.6 1226.75 1875.95 L1226.75 1881.49 Q1223.6 1882.82 1220.29 1883.52 Q1216.98 1884.22 1213.58 1884.22 Q1205.05 1884.22 1200.05 1879.26 Q1195.08 1874.29 1195.08 1865.83 Q1195.08 1857.07 1199.79 1851.95 Q1204.54 1846.79 1212.56 1846.79 Q1219.75 1846.79 1223.92 1851.44 Q1228.12 1856.06 1228.12 1864.01 M1222.26 1862.29 Q1222.2 1857.49 1219.56 1854.62 Q1216.95 1851.76 1212.62 1851.76 Q1207.72 1851.76 1204.76 1854.53 Q1201.83 1857.3 1201.38 1862.33 L1222.26 1862.29 Z" fill="#000000" fill-rule="nonzero" fill-opacity="1" /><path clip-path="url(#clip310)" d="M1267.37 1861.78 L1267.37 1883.3 L1261.51 1883.3 L1261.51 1861.98 Q1261.51 1856.92 1259.54 1854.4 Q1257.56 1851.89 1253.62 1851.89 Q1248.87 1851.89 1246.14 1854.91 Q1243.4 1857.93 1243.4 1863.15 L1243.4 1883.3 L1237.51 1883.3 L1237.51 1847.65 L1243.4 1847.65 L1243.4 1853.19 Q1245.5 1849.98 1248.33 1848.39 Q1251.2 1846.79 1254.92 1846.79 Q1261.06 1846.79 1264.21 1850.61 Q1267.37 1854.4 1267.37 1861.78 Z" fill="#000000" fill-rule="nonzero" fill-opacity="1" /><path clip-path="url(#clip310)" d="M1284.84 1837.53 L1284.84 1847.65 L1296.9 1847.65 L1296.9 1852.2 L1284.84 1852.2 L1284.84 1871.56 Q1284.84 1875.92 1286.02 1877.16 Q1287.23 1878.4 1290.89 1878.4 L1296.9 1878.4 L1296.9 1883.3 L1290.89 1883.3 Q1284.11 1883.3 1281.53 1880.79 Q1278.95 1878.24 1278.95 1871.56 L1278.95 1852.2 L1274.65 1852.2 L1274.65 1847.65 L1278.95 1847.65 L1278.95 1837.53 L1284.84 1837.53 Z" fill="#000000" fill-rule="nonzero" fill-opacity="1" /><path clip-path="url(#clip310)" d="M1320.81 1865.38 Q1313.71 1865.38 1310.97 1867 Q1308.23 1868.63 1308.23 1872.54 Q1308.23 1875.66 1310.27 1877.51 Q1312.34 1879.32 1315.87 1879.32 Q1320.74 1879.32 1323.67 1875.88 Q1326.63 1872.42 1326.63 1866.69 L1326.63 1865.38 L1320.81 1865.38 M1332.49 1862.96 L1332.49 1883.3 L1326.63 1883.3 L1326.63 1877.89 Q1324.63 1881.14 1321.63 1882.7 Q1318.64 1884.22 1314.31 1884.22 Q1308.84 1884.22 1305.59 1881.17 Q1302.38 1878.08 1302.38 1872.92 Q1302.38 1866.91 1306.39 1863.85 Q1310.43 1860.8 1318.42 1860.8 L1326.63 1860.8 L1326.63 1860.23 Q1326.63 1856.18 1323.96 1853.99 Q1321.31 1851.76 1316.51 1851.76 Q1313.45 1851.76 1310.56 1852.49 Q1307.66 1853.22 1304.99 1854.69 L1304.99 1849.28 Q1308.2 1848.03 1311.23 1847.43 Q1314.25 1846.79 1317.11 1846.79 Q1324.85 1846.79 1328.67 1850.8 Q1332.49 1854.81 1332.49 1862.96 Z" fill="#000000" fill-rule="nonzero" fill-opacity="1" /><path clip-path="url(#clip310)" d="M1344.55 1833.78 L1350.41 1833.78 L1350.41 1883.3 L1344.55 1883.3 L1344.55 1833.78 Z" fill="#000000" fill-rule="nonzero" fill-opacity="1" /><path clip-path="url(#clip310)" d="M1379.18 1847.65 L1385.39 1847.65 L1396.53 1877.57 L1407.67 1847.65 L1413.87 1847.65 L1400.5 1883.3 L1392.55 1883.3 L1379.18 1847.65 Z" fill="#000000" fill-rule="nonzero" fill-opacity="1" /><path clip-path="url(#clip310)" d="M1438.16 1865.38 Q1431.06 1865.38 1428.32 1867 Q1425.59 1868.63 1425.59 1872.54 Q1425.59 1875.66 1427.62 1877.51 Q1429.69 1879.32 1433.22 1879.32 Q1438.09 1879.32 1441.02 1875.88 Q1443.98 1872.42 1443.98 1866.69 L1443.98 1865.38 L1438.16 1865.38 M1449.84 1862.96 L1449.84 1883.3 L1443.98 1883.3 L1443.98 1877.89 Q1441.98 1881.14 1438.98 1882.7 Q1435.99 1884.22 1431.66 1884.22 Q1426.19 1884.22 1422.94 1881.17 Q1419.73 1878.08 1419.73 1872.92 Q1419.73 1866.91 1423.74 1863.85 Q1427.78 1860.8 1435.77 1860.8 L1443.98 1860.8 L1443.98 1860.23 Q1443.98 1856.18 1441.31 1853.99 Q1438.67 1851.76 1433.86 1851.76 Q1430.81 1851.76 1427.91 1852.49 Q1425.01 1853.22 1422.34 1854.69 L1422.34 1849.28 Q1425.55 1848.03 1428.58 1847.43 Q1431.6 1846.79 1434.47 1846.79 Q1442.2 1846.79 1446.02 1850.8 Q1449.84 1854.81 1449.84 1862.96 Z" fill="#000000" fill-rule="nonzero" fill-opacity="1" /><path clip-path="url(#clip310)" d="M1482.56 1853.13 Q1481.57 1852.55 1480.39 1852.3 Q1479.25 1852.01 1477.85 1852.01 Q1472.88 1852.01 1470.21 1855.26 Q1467.57 1858.47 1467.57 1864.52 L1467.57 1883.3 L1461.68 1883.3 L1461.68 1847.65 L1467.57 1847.65 L1467.57 1853.19 Q1469.41 1849.94 1472.37 1848.39 Q1475.33 1846.79 1479.57 1846.79 Q1480.17 1846.79 1480.9 1846.89 Q1481.64 1846.95 1482.53 1847.11 L1482.56 1853.13 Z" fill="#000000" fill-rule="nonzero" fill-opacity="1" /><path clip-path="url(#clip310)" d="M1488.7 1847.65 L1494.56 1847.65 L1494.56 1883.3 L1488.7 1883.3 L1488.7 1847.65 M1488.7 1833.78 L1494.56 1833.78 L1494.56 1841.19 L1488.7 1841.19 L1488.7 1833.78 Z" fill="#000000" fill-rule="nonzero" fill-opacity="1" /><path clip-path="url(#clip310)" d="M1523.01 1865.38 Q1515.91 1865.38 1513.18 1867 Q1510.44 1868.63 1510.44 1872.54 Q1510.44 1875.66 1512.48 1877.51 Q1514.55 1879.32 1518.08 1879.32 Q1522.95 1879.32 1525.88 1875.88 Q1528.84 1872.42 1528.84 1866.69 L1528.84 1865.38 L1523.01 1865.38 M1534.69 1862.96 L1534.69 1883.3 L1528.84 1883.3 L1528.84 1877.89 Q1526.83 1881.14 1523.84 1882.7 Q1520.85 1884.22 1516.52 1884.22 Q1511.04 1884.22 1507.8 1881.17 Q1504.58 1878.08 1504.58 1872.92 Q1504.58 1866.91 1508.59 1863.85 Q1512.64 1860.8 1520.63 1860.8 L1528.84 1860.8 L1528.84 1860.23 Q1528.84 1856.18 1526.16 1853.99 Q1523.52 1851.76 1518.72 1851.76 Q1515.66 1851.76 1512.76 1852.49 Q1509.87 1853.22 1507.19 1854.69 L1507.19 1849.28 Q1510.41 1848.03 1513.43 1847.43 Q1516.46 1846.79 1519.32 1846.79 Q1527.05 1846.79 1530.87 1850.8 Q1534.69 1854.81 1534.69 1862.96 Z" fill="#000000" fill-rule="nonzero" fill-opacity="1" /><path clip-path="url(#clip310)" d="M1552.55 1837.53 L1552.55 1847.65 L1564.61 1847.65 L1564.61 1852.2 L1552.55 1852.2 L1552.55 1871.56 Q1552.55 1875.92 1553.73 1877.16 Q1554.94 1878.4 1558.6 1878.4 L1564.61 1878.4 L1564.61 1883.3 L1558.6 1883.3 Q1551.82 1883.3 1549.24 1880.79 Q1546.66 1878.24 1546.66 1871.56 L1546.66 1852.2 L1542.36 1852.2 L1542.36 1847.65 L1546.66 1847.65 L1546.66 1837.53 L1552.55 1837.53 Z" fill="#000000" fill-rule="nonzero" fill-opacity="1" /><path clip-path="url(#clip310)" d="M1572.31 1847.65 L1578.17 1847.65 L1578.17 1883.3 L1572.31 1883.3 L1572.31 1847.65 M1572.31 1833.78 L1578.17 1833.78 L1578.17 1841.19 L1572.31 1841.19 L1572.31 1833.78 Z" fill="#000000" fill-rule="nonzero" fill-opacity="1" /><path clip-path="url(#clip310)" d="M1604.24 1851.76 Q1599.53 1851.76 1596.79 1855.45 Q1594.05 1859.11 1594.05 1865.51 Q1594.05 1871.91 1596.76 1875.6 Q1599.5 1879.26 1604.24 1879.26 Q1608.92 1879.26 1611.65 1875.57 Q1614.39 1871.87 1614.39 1865.51 Q1614.39 1859.17 1611.65 1855.48 Q1608.92 1851.76 1604.24 1851.76 M1604.24 1846.79 Q1611.88 1846.79 1616.24 1851.76 Q1620.6 1856.72 1620.6 1865.51 Q1620.6 1874.26 1616.24 1879.26 Q1611.88 1884.22 1604.24 1884.22 Q1596.57 1884.22 1592.21 1879.26 Q1587.88 1874.26 1587.88 1865.51 Q1587.88 1856.72 1592.21 1851.76 Q1596.57 1846.79 1604.24 1846.79 Z" fill="#000000" fill-rule="nonzero" fill-opacity="1" /><path clip-path="url(#clip310)" d="M1659.94 1861.78 L1659.94 1883.3 L1654.08 1883.3 L1654.08 1861.98 Q1654.08 1856.92 1652.11 1854.4 Q1650.14 1851.89 1646.19 1851.89 Q1641.45 1851.89 1638.71 1854.91 Q1635.97 1857.93 1635.97 1863.15 L1635.97 1883.3 L1630.08 1883.3 L1630.08 1847.65 L1635.97 1847.65 L1635.97 1853.19 Q1638.07 1849.98 1640.91 1848.39 Q1643.77 1846.79 1647.49 1846.79 Q1653.64 1846.79 1656.79 1850.61 Q1659.94 1854.4 1659.94 1861.78 Z" fill="#000000" fill-rule="nonzero" fill-opacity="1" /><path clip-path="url(#clip310)" d="M1706.41 1833.84 Q1702.14 1841.16 1700.07 1848.32 Q1698.01 1855.48 1698.01 1862.84 Q1698.01 1870.19 1700.07 1877.41 Q1702.18 1884.61 1706.41 1891.89 L1701.32 1891.89 Q1696.54 1884.41 1694.15 1877.19 Q1691.8 1869.96 1691.8 1862.84 Q1691.8 1855.74 1694.15 1848.54 Q1696.51 1841.35 1701.32 1833.84 L1706.41 1833.84 Z" fill="#000000" fill-rule="nonzero" fill-opacity="1" /><path clip-path="url(#clip310)" d="M1719.71 1877.89 L1730.22 1877.89 L1730.22 1841.64 L1718.79 1843.93 L1718.79 1838.07 L1730.15 1835.78 L1736.58 1835.78 L1736.58 1877.89 L1747.09 1877.89 L1747.09 1883.3 L1719.71 1883.3 L1719.71 1877.89 Z" fill="#000000" fill-rule="nonzero" fill-opacity="1" /><path clip-path="url(#clip310)" d="M1777 1862.84 L1794.16 1862.84 L1794.16 1868.06 L1777 1868.06 L1777 1862.84 Z" fill="#000000" fill-rule="nonzero" fill-opacity="1" /><path clip-path="url(#clip310)" d="M1846.93 1848.7 L1846.93 1854.24 Q1844.45 1852.97 1841.78 1852.33 Q1839.1 1851.7 1836.24 1851.7 Q1831.88 1851.7 1829.68 1853.03 Q1827.52 1854.37 1827.52 1857.04 Q1827.52 1859.08 1829.08 1860.26 Q1830.64 1861.4 1835.35 1862.45 L1837.35 1862.9 Q1843.59 1864.24 1846.2 1866.69 Q1848.84 1869.11 1848.84 1873.47 Q1848.84 1878.43 1844.89 1881.33 Q1840.98 1884.22 1834.1 1884.22 Q1831.24 1884.22 1828.12 1883.65 Q1825.03 1883.11 1821.6 1882 L1821.6 1875.95 Q1824.84 1877.64 1827.99 1878.49 Q1831.14 1879.32 1834.23 1879.32 Q1838.37 1879.32 1840.6 1877.92 Q1842.83 1876.49 1842.83 1873.91 Q1842.83 1871.52 1841.2 1870.25 Q1839.61 1868.98 1834.17 1867.8 L1832.13 1867.32 Q1826.69 1866.18 1824.27 1863.82 Q1821.85 1861.43 1821.85 1857.3 Q1821.85 1852.27 1825.42 1849.53 Q1828.98 1846.79 1835.54 1846.79 Q1838.78 1846.79 1841.65 1847.27 Q1844.51 1847.75 1846.93 1848.7 Z" fill="#000000" fill-rule="nonzero" fill-opacity="1" /><path clip-path="url(#clip310)" d="M1883.82 1849.02 L1883.82 1854.5 Q1881.34 1853.13 1878.82 1852.46 Q1876.34 1851.76 1873.79 1851.76 Q1868.1 1851.76 1864.95 1855.39 Q1861.8 1858.98 1861.8 1865.51 Q1861.8 1872.03 1864.95 1875.66 Q1868.1 1879.26 1873.79 1879.26 Q1876.34 1879.26 1878.82 1878.59 Q1881.34 1877.89 1883.82 1876.52 L1883.82 1881.93 Q1881.37 1883.08 1878.73 1883.65 Q1876.12 1884.22 1873.16 1884.22 Q1865.11 1884.22 1860.36 1879.16 Q1855.62 1874.1 1855.62 1865.51 Q1855.62 1856.79 1860.39 1851.79 Q1865.2 1846.79 1873.54 1846.79 Q1876.25 1846.79 1878.82 1847.37 Q1881.4 1847.91 1883.82 1849.02 Z" fill="#000000" fill-rule="nonzero" fill-opacity="1" /><path clip-path="url(#clip310)" d="M1910.21 1865.38 Q1903.11 1865.38 1900.37 1867 Q1897.63 1868.63 1897.63 1872.54 Q1897.63 1875.66 1899.67 1877.51 Q1901.74 1879.32 1905.27 1879.32 Q1910.14 1879.32 1913.07 1875.88 Q1916.03 1872.42 1916.03 1866.69 L1916.03 1865.38 L1910.21 1865.38 M1921.89 1862.96 L1921.89 1883.3 L1916.03 1883.3 L1916.03 1877.89 Q1914.03 1881.14 1911.03 1882.7 Q1908.04 1884.22 1903.71 1884.22 Q1898.24 1884.22 1894.99 1881.17 Q1891.78 1878.08 1891.78 1872.92 Q1891.78 1866.91 1895.79 1863.85 Q1899.83 1860.8 1907.82 1860.8 L1916.03 1860.8 L1916.03 1860.23 Q1916.03 1856.18 1913.36 1853.99 Q1910.72 1851.76 1905.91 1851.76 Q1902.85 1851.76 1899.96 1852.49 Q1897.06 1853.22 1894.39 1854.69 L1894.39 1849.28 Q1897.6 1848.03 1900.63 1847.43 Q1903.65 1846.79 1906.51 1846.79 Q1914.25 1846.79 1918.07 1850.8 Q1921.89 1854.81 1921.89 1862.96 Z" fill="#000000" fill-rule="nonzero" fill-opacity="1" /><path clip-path="url(#clip310)" d="M1933.95 1833.78 L1939.81 1833.78 L1939.81 1883.3 L1933.95 1883.3 L1933.95 1833.78 Z" fill="#000000" fill-rule="nonzero" fill-opacity="1" /><path clip-path="url(#clip310)" d="M1982.55 1864.01 L1982.55 1866.88 L1955.63 1866.88 Q1956.01 1872.92 1959.25 1876.11 Q1962.53 1879.26 1968.36 1879.26 Q1971.73 1879.26 1974.88 1878.43 Q1978.06 1877.6 1981.18 1875.95 L1981.18 1881.49 Q1978.03 1882.82 1974.72 1883.52 Q1971.41 1884.22 1968.01 1884.22 Q1959.48 1884.22 1954.48 1879.26 Q1949.51 1874.29 1949.51 1865.83 Q1949.51 1857.07 1954.23 1851.95 Q1958.97 1846.79 1966.99 1846.79 Q1974.18 1846.79 1978.35 1851.44 Q1982.55 1856.06 1982.55 1864.01 M1976.7 1862.29 Q1976.63 1857.49 1973.99 1854.62 Q1971.38 1851.76 1967.05 1851.76 Q1962.15 1851.76 1959.19 1854.53 Q1956.26 1857.3 1955.82 1862.33 L1976.7 1862.29 Z" fill="#000000" fill-rule="nonzero" fill-opacity="1" /><path clip-path="url(#clip310)" d="M1991.24 1833.84 L1996.33 1833.84 Q2001.11 1841.35 2003.46 1848.54 Q2005.85 1855.74 2005.85 1862.84 Q2005.85 1869.96 2003.46 1877.19 Q2001.11 1884.41 1996.33 1891.89 L1991.24 1891.89 Q1995.48 1884.61 1997.54 1877.41 Q1999.64 1870.19 1999.64 1862.84 Q1999.64 1855.48 1997.54 1848.32 Q1995.48 1841.16 1991.24 1833.84 Z" fill="#000000" fill-rule="nonzero" fill-opacity="1" /><polyline clip-path="url(#clip310)" style="stroke:#000000; stroke-linecap:round; stroke-linejoin:round; stroke-width:4; stroke-opacity:1; fill:none" points="253.733,1734.12 253.733,127.792 "/>
<polyline clip-path="url(#clip310)" style="stroke:#000000; stroke-linecap:round; stroke-linejoin:round; stroke-width:4; stroke-opacity:1; fill:none" points="253.733,1732.19 272.631,1732.19 "/>
<polyline clip-path="url(#clip310)" style="stroke:#000000; stroke-linecap:round; stroke-linejoin:round; stroke-width:4; stroke-opacity:1; fill:none" points="253.733,1314 272.631,1314 "/>
<polyline clip-path="url(#clip310)" style="stroke:#000000; stroke-linecap:round; stroke-linejoin:round; stroke-width:4; stroke-opacity:1; fill:none" points="253.733,895.801 272.631,895.801 "/>
<polyline clip-path="url(#clip310)" style="stroke:#000000; stroke-linecap:round; stroke-linejoin:round; stroke-width:4; stroke-opacity:1; fill:none" points="253.733,477.605 272.631,477.605 "/>
<path clip-path="url(#clip310)" d="M116.886 1745.54 L124.525 1745.54 L124.525 1719.17 L116.214 1720.84 L116.214 1716.58 L124.478 1714.91 L129.154 1714.91 L129.154 1745.54 L136.793 1745.54 L136.793 1749.47 L116.886 1749.47 L116.886 1745.54 Z" fill="#000000" fill-rule="nonzero" fill-opacity="1" /><path clip-path="url(#clip310)" d="M146.237 1743.59 L151.122 1743.59 L151.122 1749.47 L146.237 1749.47 L146.237 1743.59 Z" fill="#000000" fill-rule="nonzero" fill-opacity="1" /><path clip-path="url(#clip310)" d="M175.473 1730.84 Q178.83 1731.56 180.705 1733.82 Q182.603 1736.09 182.603 1739.43 Q182.603 1744.54 179.084 1747.34 Q175.566 1750.14 169.085 1750.14 Q166.909 1750.14 164.594 1749.7 Q162.302 1749.29 159.848 1748.43 L159.848 1743.92 Q161.793 1745.05 164.108 1745.63 Q166.423 1746.21 168.946 1746.21 Q173.344 1746.21 175.635 1744.47 Q177.95 1742.74 177.95 1739.43 Q177.95 1736.37 175.797 1734.66 Q173.668 1732.92 169.848 1732.92 L165.821 1732.92 L165.821 1729.08 L170.034 1729.08 Q173.483 1729.08 175.311 1727.71 Q177.14 1726.32 177.14 1723.73 Q177.14 1721.07 175.242 1719.66 Q173.367 1718.22 169.848 1718.22 Q167.927 1718.22 165.728 1718.64 Q163.529 1719.06 160.89 1719.93 L160.89 1715.77 Q163.552 1715.03 165.867 1714.66 Q168.205 1714.29 170.265 1714.29 Q175.589 1714.29 178.691 1716.72 Q181.793 1719.12 181.793 1723.24 Q181.793 1726.12 180.149 1728.11 Q178.506 1730.07 175.473 1730.84 Z" fill="#000000" fill-rule="nonzero" fill-opacity="1" /><path clip-path="url(#clip310)" d="M201.469 1717.99 Q197.858 1717.99 196.029 1721.56 Q194.223 1725.1 194.223 1732.23 Q194.223 1739.33 196.029 1742.9 Q197.858 1746.44 201.469 1746.44 Q205.103 1746.44 206.908 1742.9 Q208.737 1739.33 208.737 1732.23 Q208.737 1725.1 206.908 1721.56 Q205.103 1717.99 201.469 1717.99 M201.469 1714.29 Q207.279 1714.29 210.334 1718.89 Q213.413 1723.48 213.413 1732.23 Q213.413 1740.95 210.334 1745.56 Q207.279 1750.14 201.469 1750.14 Q195.658 1750.14 192.58 1745.56 Q189.524 1740.95 189.524 1732.23 Q189.524 1723.48 192.58 1718.89 Q195.658 1714.29 201.469 1714.29 Z" fill="#000000" fill-rule="nonzero" fill-opacity="1" /><path clip-path="url(#clip310)" d="M117.881 1327.34 L125.52 1327.34 L125.52 1300.98 L117.21 1302.64 L117.21 1298.38 L125.474 1296.72 L130.15 1296.72 L130.15 1327.34 L137.788 1327.34 L137.788 1331.28 L117.881 1331.28 L117.881 1327.34 Z" fill="#000000" fill-rule="nonzero" fill-opacity="1" /><path clip-path="url(#clip310)" d="M147.233 1325.4 L152.117 1325.4 L152.117 1331.28 L147.233 1331.28 L147.233 1325.4 Z" fill="#000000" fill-rule="nonzero" fill-opacity="1" /><path clip-path="url(#clip310)" d="M176.469 1312.64 Q179.825 1313.36 181.7 1315.63 Q183.598 1317.9 183.598 1321.23 Q183.598 1326.35 180.08 1329.15 Q176.561 1331.95 170.08 1331.95 Q167.904 1331.95 165.589 1331.51 Q163.298 1331.09 160.844 1330.23 L160.844 1325.72 Q162.788 1326.85 165.103 1327.43 Q167.418 1328.01 169.941 1328.01 Q174.339 1328.01 176.631 1326.28 Q178.946 1324.54 178.946 1321.23 Q178.946 1318.17 176.793 1316.46 Q174.663 1314.73 170.844 1314.73 L166.816 1314.73 L166.816 1310.88 L171.029 1310.88 Q174.478 1310.88 176.307 1309.52 Q178.135 1308.13 178.135 1305.54 Q178.135 1302.87 176.237 1301.46 Q174.362 1300.03 170.844 1300.03 Q168.922 1300.03 166.723 1300.44 Q164.524 1300.86 161.885 1301.74 L161.885 1297.57 Q164.548 1296.83 166.862 1296.46 Q169.2 1296.09 171.26 1296.09 Q176.584 1296.09 179.686 1298.52 Q182.788 1300.93 182.788 1305.05 Q182.788 1307.92 181.145 1309.91 Q179.501 1311.88 176.469 1312.64 Z" fill="#000000" fill-rule="nonzero" fill-opacity="1" /><path clip-path="url(#clip310)" d="M192.51 1296.72 L210.867 1296.72 L210.867 1300.65 L196.793 1300.65 L196.793 1309.12 Q197.811 1308.78 198.83 1308.61 Q199.848 1308.43 200.867 1308.43 Q206.654 1308.43 210.033 1311.6 Q213.413 1314.77 213.413 1320.19 Q213.413 1325.77 209.941 1328.87 Q206.469 1331.95 200.149 1331.95 Q197.973 1331.95 195.705 1331.58 Q193.459 1331.21 191.052 1330.47 L191.052 1325.77 Q193.135 1326.9 195.358 1327.46 Q197.58 1328.01 200.057 1328.01 Q204.061 1328.01 206.399 1325.91 Q208.737 1323.8 208.737 1320.19 Q208.737 1316.58 206.399 1314.47 Q204.061 1312.36 200.057 1312.36 Q198.182 1312.36 196.307 1312.78 Q194.455 1313.2 192.51 1314.08 L192.51 1296.72 Z" fill="#000000" fill-rule="nonzero" fill-opacity="1" /><path clip-path="url(#clip310)" d="M116.886 909.146 L124.525 909.146 L124.525 882.78 L116.214 884.447 L116.214 880.187 L124.478 878.521 L129.154 878.521 L129.154 909.146 L136.793 909.146 L136.793 913.081 L116.886 913.081 L116.886 909.146 Z" fill="#000000" fill-rule="nonzero" fill-opacity="1" /><path clip-path="url(#clip310)" d="M146.237 907.201 L151.122 907.201 L151.122 913.081 L146.237 913.081 L146.237 907.201 Z" fill="#000000" fill-rule="nonzero" fill-opacity="1" /><path clip-path="url(#clip310)" d="M174.154 882.595 L162.348 901.044 L174.154 901.044 L174.154 882.595 M172.927 878.521 L178.807 878.521 L178.807 901.044 L183.737 901.044 L183.737 904.933 L178.807 904.933 L178.807 913.081 L174.154 913.081 L174.154 904.933 L158.552 904.933 L158.552 900.419 L172.927 878.521 Z" fill="#000000" fill-rule="nonzero" fill-opacity="1" /><path clip-path="url(#clip310)" d="M201.469 881.599 Q197.858 881.599 196.029 885.164 Q194.223 888.706 194.223 895.836 Q194.223 902.942 196.029 906.507 Q197.858 910.048 201.469 910.048 Q205.103 910.048 206.908 906.507 Q208.737 902.942 208.737 895.836 Q208.737 888.706 206.908 885.164 Q205.103 881.599 201.469 881.599 M201.469 877.896 Q207.279 877.896 210.334 882.502 Q213.413 887.086 213.413 895.836 Q213.413 904.562 210.334 909.169 Q207.279 913.752 201.469 913.752 Q195.658 913.752 192.58 909.169 Q189.524 904.562 189.524 895.836 Q189.524 887.086 192.58 882.502 Q195.658 877.896 201.469 877.896 Z" fill="#000000" fill-rule="nonzero" fill-opacity="1" /><path clip-path="url(#clip310)" d="M117.881 490.95 L125.52 490.95 L125.52 464.585 L117.21 466.251 L117.21 461.992 L125.474 460.325 L130.15 460.325 L130.15 490.95 L137.788 490.95 L137.788 494.885 L117.881 494.885 L117.881 490.95 Z" fill="#000000" fill-rule="nonzero" fill-opacity="1" /><path clip-path="url(#clip310)" d="M147.233 489.006 L152.117 489.006 L152.117 494.885 L147.233 494.885 L147.233 489.006 Z" fill="#000000" fill-rule="nonzero" fill-opacity="1" /><path clip-path="url(#clip310)" d="M175.149 464.399 L163.344 482.848 L175.149 482.848 L175.149 464.399 M173.922 460.325 L179.802 460.325 L179.802 482.848 L184.733 482.848 L184.733 486.737 L179.802 486.737 L179.802 494.885 L175.149 494.885 L175.149 486.737 L159.548 486.737 L159.548 482.223 L173.922 460.325 Z" fill="#000000" fill-rule="nonzero" fill-opacity="1" /><path clip-path="url(#clip310)" d="M192.51 460.325 L210.867 460.325 L210.867 464.261 L196.793 464.261 L196.793 472.733 Q197.811 472.385 198.83 472.223 Q199.848 472.038 200.867 472.038 Q206.654 472.038 210.033 475.21 Q213.413 478.381 213.413 483.797 Q213.413 489.376 209.941 492.478 Q206.469 495.557 200.149 495.557 Q197.973 495.557 195.705 495.186 Q193.459 494.816 191.052 494.075 L191.052 489.376 Q193.135 490.51 195.358 491.066 Q197.58 491.621 200.057 491.621 Q204.061 491.621 206.399 489.515 Q208.737 487.409 208.737 483.797 Q208.737 480.186 206.399 478.08 Q204.061 475.973 200.057 475.973 Q198.182 475.973 196.307 476.39 Q194.455 476.807 192.51 477.686 L192.51 460.325 Z" fill="#000000" fill-rule="nonzero" fill-opacity="1" /><path clip-path="url(#clip310)" d="M17.6832 941.474 L61.6384 925.019 L61.6384 931.225 L35.2844 941.219 L61.6384 953.505 L61.6384 959.712 L27.4546 944.084 L21.1525 946.439 Q17.1422 947.935 17.1422 951.341 L17.1422 954.396 L12.1132 954.396 L12.1769 950.672 Q12.2724 943.479 17.6832 941.474 Z" fill="#000000" fill-rule="nonzero" fill-opacity="1" /><path clip-path="url(#clip310)" d="M41.7456 903.407 L44.833 903.407 Q44.1327 904.967 43.7826 906.653 Q43.4325 908.309 43.4325 910.123 Q43.4325 912.892 44.1646 914.26 Q44.9285 915.629 46.4244 915.629 Q47.5702 915.629 48.2068 914.642 Q48.8752 913.656 49.4481 910.696 L49.7027 909.423 Q50.4666 905.444 51.8034 903.853 Q53.1721 902.197 55.6229 902.197 Q58.3919 902.197 60.0152 904.68 Q61.6384 907.131 61.6384 911.46 Q61.6384 913.274 61.3202 915.247 Q61.0019 917.189 60.3971 919.353 L56.9915 919.353 Q57.9463 917.316 58.4238 915.311 Q58.9012 913.337 58.9012 911.396 Q58.9012 908.786 58.1055 907.386 Q57.3098 905.985 55.8775 905.985 Q54.5407 905.985 53.8086 907.004 Q53.1721 907.895 52.44 911.428 L52.1854 912.701 Q51.517 916.138 50.212 917.666 Q48.8752 919.194 46.5517 919.194 Q43.7508 919.194 42.223 916.934 Q40.6634 914.706 40.6634 910.568 Q40.6634 908.531 40.9499 906.717 Q41.2045 904.903 41.7456 903.407 Z" fill="#000000" fill-rule="nonzero" fill-opacity="1" /><path clip-path="url(#clip310)" d="M452.504 14.0809 L452.504 22.0612 Q447.846 19.8332 443.714 18.7395 Q439.582 17.6457 435.734 17.6457 Q429.05 17.6457 425.404 20.2383 Q421.799 22.8309 421.799 27.611 Q421.799 31.6214 424.189 33.6873 Q426.619 35.7128 433.344 36.9686 L438.286 37.9813 Q447.441 39.7232 451.775 44.1387 Q456.15 48.5136 456.15 55.8863 Q456.15 64.6767 450.236 69.2137 Q444.362 73.7508 432.979 73.7508 Q428.685 73.7508 423.824 72.7785 Q419.003 71.8063 413.818 69.9024 L413.818 61.4765 Q418.801 64.2716 423.581 65.6895 Q428.361 67.1073 432.979 67.1073 Q439.987 67.1073 443.795 64.3527 Q447.603 61.598 447.603 56.4939 Q447.603 52.0379 444.848 49.5264 Q442.134 47.0148 435.896 45.759 L430.913 44.7868 Q421.758 42.9639 417.667 39.075 Q413.575 35.1862 413.575 28.2591 Q413.575 20.2383 419.206 15.6203 Q424.877 11.0023 434.802 11.0023 Q439.055 11.0023 443.471 11.7719 Q447.886 12.5416 452.504 14.0809 Z" fill="#000000" fill-rule="nonzero" fill-opacity="1" /><path clip-path="url(#clip310)" d="M475.959 14.324 L475.959 27.2059 L491.312 27.2059 L491.312 32.9987 L475.959 32.9987 L475.959 57.6282 Q475.959 63.1779 477.458 64.7578 Q478.997 66.3376 483.656 66.3376 L491.312 66.3376 L491.312 72.576 L483.656 72.576 Q475.027 72.576 471.746 69.3758 Q468.465 66.1351 468.465 57.6282 L468.465 32.9987 L462.996 32.9987 L462.996 27.2059 L468.465 27.2059 L468.465 14.324 L475.959 14.324 Z" fill="#000000" fill-rule="nonzero" fill-opacity="1" /><path clip-path="url(#clip310)" d="M518.696 32.4315 Q512.701 32.4315 509.217 37.1306 Q505.733 41.7891 505.733 49.9314 Q505.733 58.0738 509.177 62.7728 Q512.66 67.4314 518.696 67.4314 Q524.651 67.4314 528.135 62.7323 Q531.619 58.0333 531.619 49.9314 Q531.619 41.8701 528.135 37.1711 Q524.651 32.4315 518.696 32.4315 M518.696 26.1121 Q528.418 26.1121 533.968 32.4315 Q539.518 38.7509 539.518 49.9314 Q539.518 61.0714 533.968 67.4314 Q528.418 73.7508 518.696 73.7508 Q508.934 73.7508 503.384 67.4314 Q497.875 61.0714 497.875 49.9314 Q497.875 38.7509 503.384 32.4315 Q508.934 26.1121 518.696 26.1121 Z" fill="#000000" fill-rule="nonzero" fill-opacity="1" /><path clip-path="url(#clip310)" d="M584.523 28.9478 L584.523 35.9153 Q581.364 34.1734 578.163 33.3227 Q575.004 32.4315 571.763 32.4315 Q564.512 32.4315 560.502 37.0496 Q556.491 41.6271 556.491 49.9314 Q556.491 58.2358 560.502 62.8538 Q564.512 67.4314 571.763 67.4314 Q575.004 67.4314 578.163 66.5807 Q581.364 65.6895 584.523 63.9476 L584.523 70.8341 Q581.404 72.2924 578.042 73.0216 Q574.72 73.7508 570.953 73.7508 Q560.704 73.7508 554.668 67.3098 Q548.632 60.8689 548.632 49.9314 Q548.632 38.832 554.709 32.472 Q560.826 26.1121 571.439 26.1121 Q574.882 26.1121 578.163 26.8413 Q581.445 27.5299 584.523 28.9478 Z" fill="#000000" fill-rule="nonzero" fill-opacity="1" /><path clip-path="url(#clip310)" d="M635.2 45.1919 L635.2 72.576 L627.747 72.576 L627.747 45.4349 Q627.747 38.994 625.235 35.7938 Q622.723 32.5936 617.7 32.5936 Q611.664 32.5936 608.181 36.4419 Q604.697 40.2903 604.697 46.9338 L604.697 72.576 L597.203 72.576 L597.203 9.54393 L604.697 9.54393 L604.697 34.2544 Q607.37 30.163 610.976 28.1376 Q614.622 26.1121 619.361 26.1121 Q627.179 26.1121 631.19 30.9732 Q635.2 35.7938 635.2 45.1919 Z" fill="#000000" fill-rule="nonzero" fill-opacity="1" /><path clip-path="url(#clip310)" d="M670.686 49.7694 Q661.653 49.7694 658.169 51.8354 Q654.685 53.9013 654.685 58.8839 Q654.685 62.8538 657.278 65.2034 Q659.911 67.5124 664.407 67.5124 Q670.605 67.5124 674.332 63.1374 Q678.099 58.7219 678.099 51.4303 L678.099 49.7694 L670.686 49.7694 M685.553 46.6907 L685.553 72.576 L678.099 72.576 L678.099 65.6895 Q675.547 69.8214 671.739 71.8063 Q667.931 73.7508 662.422 73.7508 Q655.455 73.7508 651.323 69.8619 Q647.231 65.9325 647.231 59.3701 Q647.231 51.7138 652.336 47.825 Q657.48 43.9361 667.648 43.9361 L678.099 43.9361 L678.099 43.2069 Q678.099 38.0623 674.697 35.2672 Q671.334 32.4315 665.217 32.4315 Q661.329 32.4315 657.642 33.3632 Q653.956 34.295 650.553 36.1584 L650.553 29.2718 Q654.645 27.692 658.493 26.9223 Q662.341 26.1121 665.987 26.1121 Q675.831 26.1121 680.692 31.2163 Q685.553 36.3204 685.553 46.6907 Z" fill="#000000" fill-rule="nonzero" fill-opacity="1" /><path clip-path="url(#clip310)" d="M729.829 28.5427 L729.829 35.5912 Q726.67 33.9709 723.267 33.1607 Q719.864 32.3505 716.218 32.3505 Q710.669 32.3505 707.873 34.0519 Q705.119 35.7533 705.119 39.156 Q705.119 41.7486 707.104 43.2475 Q709.089 44.7058 715.084 46.0426 L717.636 46.6097 Q725.576 48.3111 728.898 51.4303 Q732.26 54.509 732.26 60.0587 Q732.26 66.3781 727.237 70.0644 Q722.254 73.7508 713.504 73.7508 Q709.858 73.7508 705.888 73.0216 Q701.959 72.3329 697.584 70.9151 L697.584 63.2184 Q701.716 65.3654 705.726 66.4591 Q709.737 67.5124 713.666 67.5124 Q718.932 67.5124 721.768 65.73 Q724.604 63.9071 724.604 60.6258 Q724.604 57.5877 722.538 55.9673 Q720.512 54.3469 713.585 52.8481 L710.993 52.2405 Q704.066 50.7821 700.987 47.7845 Q697.908 44.7463 697.908 39.4801 Q697.908 33.0797 702.445 29.5959 Q706.982 26.1121 715.327 26.1121 Q719.459 26.1121 723.105 26.7198 Q726.751 27.3274 729.829 28.5427 Z" fill="#000000" fill-rule="nonzero" fill-opacity="1" /><path clip-path="url(#clip310)" d="M751.502 14.324 L751.502 27.2059 L766.855 27.2059 L766.855 32.9987 L751.502 32.9987 L751.502 57.6282 Q751.502 63.1779 753 64.7578 Q754.54 66.3376 759.198 66.3376 L766.855 66.3376 L766.855 72.576 L759.198 72.576 Q750.57 72.576 747.289 69.3758 Q744.007 66.1351 744.007 57.6282 L744.007 32.9987 L738.539 32.9987 L738.539 27.2059 L744.007 27.2059 L744.007 14.324 L751.502 14.324 Z" fill="#000000" fill-rule="nonzero" fill-opacity="1" /><path clip-path="url(#clip310)" d="M776.658 27.2059 L784.111 27.2059 L784.111 72.576 L776.658 72.576 L776.658 27.2059 M776.658 9.54393 L784.111 9.54393 L784.111 18.9825 L776.658 18.9825 L776.658 9.54393 Z" fill="#000000" fill-rule="nonzero" fill-opacity="1" /><path clip-path="url(#clip310)" d="M832.358 28.9478 L832.358 35.9153 Q829.198 34.1734 825.998 33.3227 Q822.838 32.4315 819.597 32.4315 Q812.346 32.4315 808.336 37.0496 Q804.325 41.6271 804.325 49.9314 Q804.325 58.2358 808.336 62.8538 Q812.346 67.4314 819.597 67.4314 Q822.838 67.4314 825.998 66.5807 Q829.198 65.6895 832.358 63.9476 L832.358 70.8341 Q829.239 72.2924 825.876 73.0216 Q822.555 73.7508 818.787 73.7508 Q808.538 73.7508 802.503 67.3098 Q796.467 60.8689 796.467 49.9314 Q796.467 38.832 802.543 32.472 Q808.66 26.1121 819.273 26.1121 Q822.717 26.1121 825.998 26.8413 Q829.279 27.5299 832.358 28.9478 Z" fill="#000000" fill-rule="nonzero" fill-opacity="1" /><path clip-path="url(#clip310)" d="M901.547 49.3643 Q901.547 41.2625 898.185 36.8065 Q894.863 32.3505 888.827 32.3505 Q882.832 32.3505 879.47 36.8065 Q876.148 41.2625 876.148 49.3643 Q876.148 57.4256 879.47 61.8816 Q882.832 66.3376 888.827 66.3376 Q894.863 66.3376 898.185 61.8816 Q901.547 57.4256 901.547 49.3643 M909.001 66.9452 Q909.001 78.5308 903.856 84.1616 Q898.712 89.8329 888.098 89.8329 Q884.169 89.8329 880.685 89.2252 Q877.201 88.6581 873.92 87.4428 L873.92 80.1917 Q877.201 81.9741 880.401 82.8248 Q883.602 83.6755 886.923 83.6755 Q894.256 83.6755 897.901 79.8271 Q901.547 76.0193 901.547 68.282 L901.547 64.5957 Q899.238 68.6061 895.633 70.5911 Q892.028 72.576 887.004 72.576 Q878.66 72.576 873.555 66.2161 Q868.451 59.8562 868.451 49.3643 Q868.451 38.832 873.555 32.472 Q878.66 26.1121 887.004 26.1121 Q892.028 26.1121 895.633 28.0971 Q899.238 30.082 901.547 34.0924 L901.547 27.2059 L909.001 27.2059 L909.001 66.9452 Z" fill="#000000" fill-rule="nonzero" fill-opacity="1" /><path clip-path="url(#clip310)" d="M950.644 34.1734 Q949.388 33.4443 947.889 33.1202 Q946.431 32.7556 944.649 32.7556 Q938.329 32.7556 934.927 36.8875 Q931.564 40.9789 931.564 48.6757 L931.564 72.576 L924.07 72.576 L924.07 27.2059 L931.564 27.2059 L931.564 34.2544 Q933.914 30.1225 937.681 28.1376 Q941.449 26.1121 946.836 26.1121 Q947.606 26.1121 948.538 26.2337 Q949.469 26.3147 950.604 26.5172 L950.644 34.1734 Z" fill="#000000" fill-rule="nonzero" fill-opacity="1" /><path clip-path="url(#clip310)" d="M974.22 32.4315 Q968.225 32.4315 964.741 37.1306 Q961.257 41.7891 961.257 49.9314 Q961.257 58.0738 964.701 62.7728 Q968.185 67.4314 974.22 67.4314 Q980.175 67.4314 983.659 62.7323 Q987.143 58.0333 987.143 49.9314 Q987.143 41.8701 983.659 37.1711 Q980.175 32.4315 974.22 32.4315 M974.22 26.1121 Q983.943 26.1121 989.492 32.4315 Q995.042 38.7509 995.042 49.9314 Q995.042 61.0714 989.492 67.4314 Q983.943 73.7508 974.22 73.7508 Q964.458 73.7508 958.908 67.4314 Q953.399 61.0714 953.399 49.9314 Q953.399 38.7509 958.908 32.4315 Q964.458 26.1121 974.22 26.1121 Z" fill="#000000" fill-rule="nonzero" fill-opacity="1" /><path clip-path="url(#clip310)" d="M1003.06 27.2059 L1010.52 27.2059 L1019.83 62.6108 L1029.11 27.2059 L1037.9 27.2059 L1047.22 62.6108 L1056.49 27.2059 L1063.95 27.2059 L1052.08 72.576 L1043.29 72.576 L1033.53 35.3887 L1023.72 72.576 L1014.93 72.576 L1003.06 27.2059 Z" fill="#000000" fill-rule="nonzero" fill-opacity="1" /><path clip-path="url(#clip310)" d="M1082.62 14.324 L1082.62 27.2059 L1097.98 27.2059 L1097.98 32.9987 L1082.62 32.9987 L1082.62 57.6282 Q1082.62 63.1779 1084.12 64.7578 Q1085.66 66.3376 1090.32 66.3376 L1097.98 66.3376 L1097.98 72.576 L1090.32 72.576 Q1081.69 72.576 1078.41 69.3758 Q1075.13 66.1351 1075.13 57.6282 L1075.13 32.9987 L1069.66 32.9987 L1069.66 27.2059 L1075.13 27.2059 L1075.13 14.324 L1082.62 14.324 Z" fill="#000000" fill-rule="nonzero" fill-opacity="1" /><path clip-path="url(#clip310)" d="M1145.49 45.1919 L1145.49 72.576 L1138.04 72.576 L1138.04 45.4349 Q1138.04 38.994 1135.53 35.7938 Q1133.02 32.5936 1127.99 32.5936 Q1121.96 32.5936 1118.47 36.4419 Q1114.99 40.2903 1114.99 46.9338 L1114.99 72.576 L1107.5 72.576 L1107.5 9.54393 L1114.99 9.54393 L1114.99 34.2544 Q1117.66 30.163 1121.27 28.1376 Q1124.91 26.1121 1129.65 26.1121 Q1137.47 26.1121 1141.48 30.9732 Q1145.49 35.7938 1145.49 45.1919 Z" fill="#000000" fill-rule="nonzero" fill-opacity="1" /><path clip-path="url(#clip310)" d="M1213.02 34.1734 Q1211.77 33.4443 1210.27 33.1202 Q1208.81 32.7556 1207.03 32.7556 Q1200.71 32.7556 1197.3 36.8875 Q1193.94 40.9789 1193.94 48.6757 L1193.94 72.576 L1186.45 72.576 L1186.45 27.2059 L1193.94 27.2059 L1193.94 34.2544 Q1196.29 30.1225 1200.06 28.1376 Q1203.83 26.1121 1209.21 26.1121 Q1209.98 26.1121 1210.91 26.2337 Q1211.85 26.3147 1212.98 26.5172 L1213.02 34.1734 Z" fill="#000000" fill-rule="nonzero" fill-opacity="1" /><path clip-path="url(#clip310)" d="M1241.46 49.7694 Q1232.43 49.7694 1228.94 51.8354 Q1225.46 53.9013 1225.46 58.8839 Q1225.46 62.8538 1228.05 65.2034 Q1230.68 67.5124 1235.18 67.5124 Q1241.38 67.5124 1245.1 63.1374 Q1248.87 58.7219 1248.87 51.4303 L1248.87 49.7694 L1241.46 49.7694 M1256.33 46.6907 L1256.33 72.576 L1248.87 72.576 L1248.87 65.6895 Q1246.32 69.8214 1242.51 71.8063 Q1238.7 73.7508 1233.19 73.7508 Q1226.23 73.7508 1222.1 69.8619 Q1218 65.9325 1218 59.3701 Q1218 51.7138 1223.11 47.825 Q1228.25 43.9361 1238.42 43.9361 L1248.87 43.9361 L1248.87 43.2069 Q1248.87 38.0623 1245.47 35.2672 Q1242.11 32.4315 1235.99 32.4315 Q1232.1 32.4315 1228.41 33.3632 Q1224.73 34.295 1221.33 36.1584 L1221.33 29.2718 Q1225.42 27.692 1229.27 26.9223 Q1233.11 26.1121 1236.76 26.1121 Q1246.6 26.1121 1251.46 31.2163 Q1256.33 36.3204 1256.33 46.6907 Z" fill="#000000" fill-rule="nonzero" fill-opacity="1" /><path clip-path="url(#clip310)" d="M1279.05 14.324 L1279.05 27.2059 L1294.4 27.2059 L1294.4 32.9987 L1279.05 32.9987 L1279.05 57.6282 Q1279.05 63.1779 1280.55 64.7578 Q1282.09 66.3376 1286.75 66.3376 L1294.4 66.3376 L1294.4 72.576 L1286.75 72.576 Q1278.12 72.576 1274.84 69.3758 Q1271.56 66.1351 1271.56 57.6282 L1271.56 32.9987 L1266.09 32.9987 L1266.09 27.2059 L1271.56 27.2059 L1271.56 14.324 L1279.05 14.324 Z" fill="#000000" fill-rule="nonzero" fill-opacity="1" /><path clip-path="url(#clip310)" d="M1343.01 48.0275 L1343.01 51.6733 L1308.74 51.6733 Q1309.23 59.3701 1313.36 63.421 Q1317.53 67.4314 1324.95 67.4314 Q1329.24 67.4314 1333.25 66.3781 Q1337.3 65.3249 1341.27 63.2184 L1341.27 70.267 Q1337.26 71.9684 1333.05 72.8596 Q1328.84 73.7508 1324.5 73.7508 Q1313.65 73.7508 1307.29 67.4314 Q1300.97 61.1119 1300.97 50.3365 Q1300.97 39.1965 1306.96 32.6746 Q1313 26.1121 1323.21 26.1121 Q1332.36 26.1121 1337.67 32.0264 Q1343.01 37.9003 1343.01 48.0275 M1335.56 45.84 Q1335.48 39.7232 1332.12 36.0774 Q1328.8 32.4315 1323.29 32.4315 Q1317.05 32.4315 1313.28 35.9558 Q1309.55 39.4801 1308.99 45.8805 L1335.56 45.84 Z" fill="#000000" fill-rule="nonzero" fill-opacity="1" /><path clip-path="url(#clip310)" d="M1376.27 27.2059 L1384.17 27.2059 L1398.35 65.2844 L1412.53 27.2059 L1420.43 27.2059 L1403.41 72.576 L1393.29 72.576 L1376.27 27.2059 Z" fill="#000000" fill-rule="nonzero" fill-opacity="1" /><path clip-path="url(#clip310)" d="M1459.64 28.5427 L1459.64 35.5912 Q1456.48 33.9709 1453.08 33.1607 Q1449.67 32.3505 1446.03 32.3505 Q1440.48 32.3505 1437.68 34.0519 Q1434.93 35.7533 1434.93 39.156 Q1434.93 41.7486 1436.91 43.2475 Q1438.9 44.7058 1444.89 46.0426 L1447.45 46.6097 Q1455.39 48.3111 1458.71 51.4303 Q1462.07 54.509 1462.07 60.0587 Q1462.07 66.3781 1457.05 70.0644 Q1452.07 73.7508 1443.32 73.7508 Q1439.67 73.7508 1435.7 73.0216 Q1431.77 72.3329 1427.4 70.9151 L1427.4 63.2184 Q1431.53 65.3654 1435.54 66.4591 Q1439.55 67.5124 1443.48 67.5124 Q1448.74 67.5124 1451.58 65.73 Q1454.41 63.9071 1454.41 60.6258 Q1454.41 57.5877 1452.35 55.9673 Q1450.32 54.3469 1443.4 52.8481 L1440.8 52.2405 Q1433.88 50.7821 1430.8 47.7845 Q1427.72 44.7463 1427.72 39.4801 Q1427.72 33.0797 1432.26 29.5959 Q1436.79 26.1121 1445.14 26.1121 Q1449.27 26.1121 1452.92 26.7198 Q1456.56 27.3274 1459.64 28.5427 Z" fill="#000000" fill-rule="nonzero" fill-opacity="1" /><path clip-path="url(#clip310)" d="M1539.12 48.0275 L1539.12 51.6733 L1504.85 51.6733 Q1505.33 59.3701 1509.47 63.421 Q1513.64 67.4314 1521.05 67.4314 Q1525.35 67.4314 1529.36 66.3781 Q1533.41 65.3249 1537.38 63.2184 L1537.38 70.267 Q1533.37 71.9684 1529.15 72.8596 Q1524.94 73.7508 1520.61 73.7508 Q1509.75 73.7508 1503.39 67.4314 Q1497.07 61.1119 1497.07 50.3365 Q1497.07 39.1965 1503.07 32.6746 Q1509.1 26.1121 1519.31 26.1121 Q1528.47 26.1121 1533.77 32.0264 Q1539.12 37.9003 1539.12 48.0275 M1531.67 45.84 Q1531.58 39.7232 1528.22 36.0774 Q1524.9 32.4315 1519.39 32.4315 Q1513.15 32.4315 1509.39 35.9558 Q1505.66 39.4801 1505.09 45.8805 L1531.67 45.84 Z" fill="#000000" fill-rule="nonzero" fill-opacity="1" /><path clip-path="url(#clip310)" d="M1589.07 45.1919 L1589.07 72.576 L1581.61 72.576 L1581.61 45.4349 Q1581.61 38.994 1579.1 35.7938 Q1576.59 32.5936 1571.57 32.5936 Q1565.53 32.5936 1562.05 36.4419 Q1558.56 40.2903 1558.56 46.9338 L1558.56 72.576 L1551.07 72.576 L1551.07 27.2059 L1558.56 27.2059 L1558.56 34.2544 Q1561.24 30.163 1564.84 28.1376 Q1568.49 26.1121 1573.23 26.1121 Q1581.05 26.1121 1585.06 30.9732 Q1589.07 35.7938 1589.07 45.1919 Z" fill="#000000" fill-rule="nonzero" fill-opacity="1" /><path clip-path="url(#clip310)" d="M1598.59 27.2059 L1606.49 27.2059 L1620.66 65.2844 L1634.84 27.2059 L1642.74 27.2059 L1625.73 72.576 L1615.6 72.576 L1598.59 27.2059 Z" fill="#000000" fill-rule="nonzero" fill-opacity="1" /><path clip-path="url(#clip310)" d="M1653.03 27.2059 L1660.48 27.2059 L1660.48 72.576 L1653.03 72.576 L1653.03 27.2059 M1653.03 9.54393 L1660.48 9.54393 L1660.48 18.9825 L1653.03 18.9825 L1653.03 9.54393 Z" fill="#000000" fill-rule="nonzero" fill-opacity="1" /><path clip-path="url(#clip310)" d="M1702.37 34.1734 Q1701.11 33.4443 1699.62 33.1202 Q1698.16 32.7556 1696.38 32.7556 Q1690.06 32.7556 1686.65 36.8875 Q1683.29 40.9789 1683.29 48.6757 L1683.29 72.576 L1675.8 72.576 L1675.8 27.2059 L1683.29 27.2059 L1683.29 34.2544 Q1685.64 30.1225 1689.41 28.1376 Q1693.17 26.1121 1698.56 26.1121 Q1699.33 26.1121 1700.26 26.2337 Q1701.2 26.3147 1702.33 26.5172 L1702.37 34.1734 Z" fill="#000000" fill-rule="nonzero" fill-opacity="1" /><path clip-path="url(#clip310)" d="M1725.95 32.4315 Q1719.95 32.4315 1716.47 37.1306 Q1712.98 41.7891 1712.98 49.9314 Q1712.98 58.0738 1716.43 62.7728 Q1719.91 67.4314 1725.95 67.4314 Q1731.9 67.4314 1735.39 62.7323 Q1738.87 58.0333 1738.87 49.9314 Q1738.87 41.8701 1735.39 37.1711 Q1731.9 32.4315 1725.95 32.4315 M1725.95 26.1121 Q1735.67 26.1121 1741.22 32.4315 Q1746.77 38.7509 1746.77 49.9314 Q1746.77 61.0714 1741.22 67.4314 Q1735.67 73.7508 1725.95 73.7508 Q1716.18 73.7508 1710.63 67.4314 Q1705.13 61.0714 1705.13 49.9314 Q1705.13 38.7509 1710.63 32.4315 Q1716.18 26.1121 1725.95 26.1121 Z" fill="#000000" fill-rule="nonzero" fill-opacity="1" /><path clip-path="url(#clip310)" d="M1796.84 45.1919 L1796.84 72.576 L1789.38 72.576 L1789.38 45.4349 Q1789.38 38.994 1786.87 35.7938 Q1784.36 32.5936 1779.34 32.5936 Q1773.3 32.5936 1769.82 36.4419 Q1766.33 40.2903 1766.33 46.9338 L1766.33 72.576 L1758.84 72.576 L1758.84 27.2059 L1766.33 27.2059 L1766.33 34.2544 Q1769.01 30.163 1772.61 28.1376 Q1776.26 26.1121 1781 26.1121 Q1788.82 26.1121 1792.83 30.9732 Q1796.84 35.7938 1796.84 45.1919 Z" fill="#000000" fill-rule="nonzero" fill-opacity="1" /><path clip-path="url(#clip310)" d="M1847.03 35.9153 Q1849.82 30.8922 1853.71 28.5022 Q1857.6 26.1121 1862.87 26.1121 Q1869.96 26.1121 1873.8 31.0947 Q1877.65 36.0368 1877.65 45.1919 L1877.65 72.576 L1870.16 72.576 L1870.16 45.4349 Q1870.16 38.913 1867.85 35.7533 Q1865.54 32.5936 1860.8 32.5936 Q1855.01 32.5936 1851.65 36.4419 Q1848.28 40.2903 1848.28 46.9338 L1848.28 72.576 L1840.79 72.576 L1840.79 45.4349 Q1840.79 38.8725 1838.48 35.7533 Q1836.17 32.5936 1831.35 32.5936 Q1825.64 32.5936 1822.28 36.4824 Q1818.91 40.3308 1818.91 46.9338 L1818.91 72.576 L1811.42 72.576 L1811.42 27.2059 L1818.91 27.2059 L1818.91 34.2544 Q1821.47 30.082 1825.03 28.0971 Q1828.6 26.1121 1833.5 26.1121 Q1838.44 26.1121 1841.88 28.6237 Q1845.37 31.1352 1847.03 35.9153 Z" fill="#000000" fill-rule="nonzero" fill-opacity="1" /><path clip-path="url(#clip310)" d="M1931.33 48.0275 L1931.33 51.6733 L1897.06 51.6733 Q1897.54 59.3701 1901.67 63.421 Q1905.85 67.4314 1913.26 67.4314 Q1917.55 67.4314 1921.56 66.3781 Q1925.62 65.3249 1929.59 63.2184 L1929.59 70.267 Q1925.58 71.9684 1921.36 72.8596 Q1917.15 73.7508 1912.81 73.7508 Q1901.96 73.7508 1895.6 67.4314 Q1889.28 61.1119 1889.28 50.3365 Q1889.28 39.1965 1895.27 32.6746 Q1901.31 26.1121 1911.52 26.1121 Q1920.67 26.1121 1925.98 32.0264 Q1931.33 37.9003 1931.33 48.0275 M1923.87 45.84 Q1923.79 39.7232 1920.43 36.0774 Q1917.11 32.4315 1911.6 32.4315 Q1905.36 32.4315 1901.59 35.9558 Q1897.87 39.4801 1897.3 45.8805 L1923.87 45.84 Z" fill="#000000" fill-rule="nonzero" fill-opacity="1" /><path clip-path="url(#clip310)" d="M1981.28 45.1919 L1981.28 72.576 L1973.82 72.576 L1973.82 45.4349 Q1973.82 38.994 1971.31 35.7938 Q1968.8 32.5936 1963.78 32.5936 Q1957.74 32.5936 1954.26 36.4419 Q1950.77 40.2903 1950.77 46.9338 L1950.77 72.576 L1943.28 72.576 L1943.28 27.2059 L1950.77 27.2059 L1950.77 34.2544 Q1953.45 30.163 1957.05 28.1376 Q1960.7 26.1121 1965.44 26.1121 Q1973.25 26.1121 1977.26 30.9732 Q1981.28 35.7938 1981.28 45.1919 Z" fill="#000000" fill-rule="nonzero" fill-opacity="1" /><path clip-path="url(#clip310)" d="M2003.51 14.324 L2003.51 27.2059 L2018.87 27.2059 L2018.87 32.9987 L2003.51 32.9987 L2003.51 57.6282 Q2003.51 63.1779 2005.01 64.7578 Q2006.55 66.3376 2011.21 66.3376 L2018.87 66.3376 L2018.87 72.576 L2011.21 72.576 Q2002.58 72.576 1999.3 69.3758 Q1996.02 66.1351 1996.02 57.6282 L1996.02 32.9987 L1990.55 32.9987 L1990.55 27.2059 L1996.02 27.2059 L1996.02 14.324 L2003.51 14.324 Z" fill="#000000" fill-rule="nonzero" fill-opacity="1" /><path clip-path="url(#clip310)" d="M2049.29 49.7694 Q2040.26 49.7694 2036.77 51.8354 Q2033.29 53.9013 2033.29 58.8839 Q2033.29 62.8538 2035.88 65.2034 Q2038.51 67.5124 2043.01 67.5124 Q2049.21 67.5124 2052.94 63.1374 Q2056.7 58.7219 2056.7 51.4303 L2056.7 49.7694 L2049.29 49.7694 M2064.16 46.6907 L2064.16 72.576 L2056.7 72.576 L2056.7 65.6895 Q2054.15 69.8214 2050.34 71.8063 Q2046.54 73.7508 2041.03 73.7508 Q2034.06 73.7508 2029.93 69.8619 Q2025.84 65.9325 2025.84 59.3701 Q2025.84 51.7138 2030.94 47.825 Q2036.08 43.9361 2046.25 43.9361 L2056.7 43.9361 L2056.7 43.2069 Q2056.7 38.0623 2053.3 35.2672 Q2049.94 32.4315 2043.82 32.4315 Q2039.93 32.4315 2036.25 33.3632 Q2032.56 34.295 2029.16 36.1584 L2029.16 29.2718 Q2033.25 27.692 2037.1 26.9223 Q2040.94 26.1121 2044.59 26.1121 Q2054.43 26.1121 2059.3 31.2163 Q2064.16 36.3204 2064.16 46.6907 Z" fill="#000000" fill-rule="nonzero" fill-opacity="1" /><path clip-path="url(#clip310)" d="M2079.51 9.54393 L2086.96 9.54393 L2086.96 72.576 L2079.51 72.576 L2079.51 9.54393 Z" fill="#000000" fill-rule="nonzero" fill-opacity="1" /><path clip-path="url(#clip310)" d="M2123.58 27.2059 L2131.48 27.2059 L2145.66 65.2844 L2159.84 27.2059 L2167.74 27.2059 L2150.72 72.576 L2140.6 72.576 L2123.58 27.2059 Z" fill="#000000" fill-rule="nonzero" fill-opacity="1" /><path clip-path="url(#clip310)" d="M2198.65 49.7694 Q2189.61 49.7694 2186.13 51.8354 Q2182.65 53.9013 2182.65 58.8839 Q2182.65 62.8538 2185.24 65.2034 Q2187.87 67.5124 2192.37 67.5124 Q2198.57 67.5124 2202.29 63.1374 Q2206.06 58.7219 2206.06 51.4303 L2206.06 49.7694 L2198.65 49.7694 M2213.51 46.6907 L2213.51 72.576 L2206.06 72.576 L2206.06 65.6895 Q2203.51 69.8214 2199.7 71.8063 Q2195.89 73.7508 2190.38 73.7508 Q2183.42 73.7508 2179.28 69.8619 Q2175.19 65.9325 2175.19 59.3701 Q2175.19 51.7138 2180.3 47.825 Q2185.44 43.9361 2195.61 43.9361 L2206.06 43.9361 L2206.06 43.2069 Q2206.06 38.0623 2202.66 35.2672 Q2199.29 32.4315 2193.18 32.4315 Q2189.29 32.4315 2185.6 33.3632 Q2181.92 34.295 2178.51 36.1584 L2178.51 29.2718 Q2182.61 27.692 2186.45 26.9223 Q2190.3 26.1121 2193.95 26.1121 Q2203.79 26.1121 2208.65 31.2163 Q2213.51 36.3204 2213.51 46.6907 Z" fill="#000000" fill-rule="nonzero" fill-opacity="1" /><path clip-path="url(#clip310)" d="M2255.16 34.1734 Q2253.9 33.4443 2252.4 33.1202 Q2250.94 32.7556 2249.16 32.7556 Q2242.84 32.7556 2239.44 36.8875 Q2236.08 40.9789 2236.08 48.6757 L2236.08 72.576 L2228.58 72.576 L2228.58 27.2059 L2236.08 27.2059 L2236.08 34.2544 Q2238.43 30.1225 2242.19 28.1376 Q2245.96 26.1121 2251.35 26.1121 Q2252.12 26.1121 2253.05 26.2337 Q2253.98 26.3147 2255.12 26.5172 L2255.16 34.1734 Z" fill="#000000" fill-rule="nonzero" fill-opacity="1" /><path clip-path="url(#clip310)" d="M2262.98 27.2059 L2270.43 27.2059 L2270.43 72.576 L2262.98 72.576 L2262.98 27.2059 M2262.98 9.54393 L2270.43 9.54393 L2270.43 18.9825 L2262.98 18.9825 L2262.98 9.54393 Z" fill="#000000" fill-rule="nonzero" fill-opacity="1" /><path clip-path="url(#clip310)" d="M2306.64 49.7694 Q2297.61 49.7694 2294.13 51.8354 Q2290.64 53.9013 2290.64 58.8839 Q2290.64 62.8538 2293.24 65.2034 Q2295.87 67.5124 2300.36 67.5124 Q2306.56 67.5124 2310.29 63.1374 Q2314.06 58.7219 2314.06 51.4303 L2314.06 49.7694 L2306.64 49.7694 M2321.51 46.6907 L2321.51 72.576 L2314.06 72.576 L2314.06 65.6895 Q2311.5 69.8214 2307.7 71.8063 Q2303.89 73.7508 2298.38 73.7508 Q2291.41 73.7508 2287.28 69.8619 Q2283.19 65.9325 2283.19 59.3701 Q2283.19 51.7138 2288.29 47.825 Q2293.44 43.9361 2303.61 43.9361 L2314.06 43.9361 L2314.06 43.2069 Q2314.06 38.0623 2310.65 35.2672 Q2307.29 32.4315 2301.18 32.4315 Q2297.29 32.4315 2293.6 33.3632 Q2289.91 34.295 2286.51 36.1584 L2286.51 29.2718 Q2290.6 27.692 2294.45 26.9223 Q2298.3 26.1121 2301.94 26.1121 Q2311.79 26.1121 2316.65 31.2163 Q2321.51 36.3204 2321.51 46.6907 Z" fill="#000000" fill-rule="nonzero" fill-opacity="1" /><path clip-path="url(#clip310)" d="M2344.24 14.324 L2344.24 27.2059 L2359.59 27.2059 L2359.59 32.9987 L2344.24 32.9987 L2344.24 57.6282 Q2344.24 63.1779 2345.74 64.7578 Q2347.27 66.3376 2351.93 66.3376 L2359.59 66.3376 L2359.59 72.576 L2351.93 72.576 Q2343.3 72.576 2340.02 69.3758 Q2336.74 66.1351 2336.74 57.6282 L2336.74 32.9987 L2331.27 32.9987 L2331.27 27.2059 L2336.74 27.2059 L2336.74 14.324 L2344.24 14.324 Z" fill="#000000" fill-rule="nonzero" fill-opacity="1" /><path clip-path="url(#clip310)" d="M2369.39 27.2059 L2376.85 27.2059 L2376.85 72.576 L2369.39 72.576 L2369.39 27.2059 M2369.39 9.54393 L2376.85 9.54393 L2376.85 18.9825 L2369.39 18.9825 L2369.39 9.54393 Z" fill="#000000" fill-rule="nonzero" fill-opacity="1" /><path clip-path="url(#clip310)" d="M2410.02 32.4315 Q2404.03 32.4315 2400.54 37.1306 Q2397.06 41.7891 2397.06 49.9314 Q2397.06 58.0738 2400.5 62.7728 Q2403.99 67.4314 2410.02 67.4314 Q2415.98 67.4314 2419.46 62.7323 Q2422.95 58.0333 2422.95 49.9314 Q2422.95 41.8701 2419.46 37.1711 Q2415.98 32.4315 2410.02 32.4315 M2410.02 26.1121 Q2419.75 26.1121 2425.29 32.4315 Q2430.84 38.7509 2430.84 49.9314 Q2430.84 61.0714 2425.29 67.4314 Q2419.75 73.7508 2410.02 73.7508 Q2400.26 73.7508 2394.71 67.4314 Q2389.2 61.0714 2389.2 49.9314 Q2389.2 38.7509 2394.71 32.4315 Q2400.26 26.1121 2410.02 26.1121 Z" fill="#000000" fill-rule="nonzero" fill-opacity="1" /><path clip-path="url(#clip310)" d="M2480.91 45.1919 L2480.91 72.576 L2473.46 72.576 L2473.46 45.4349 Q2473.46 38.994 2470.95 35.7938 Q2468.44 32.5936 2463.41 32.5936 Q2457.38 32.5936 2453.89 36.4419 Q2450.41 40.2903 2450.41 46.9338 L2450.41 72.576 L2442.92 72.576 L2442.92 27.2059 L2450.41 27.2059 L2450.41 34.2544 Q2453.08 30.163 2456.69 28.1376 Q2460.34 26.1121 2465.07 26.1121 Q2472.89 26.1121 2476.9 30.9732 Q2480.91 35.7938 2480.91 45.1919 Z" fill="#000000" fill-rule="nonzero" fill-opacity="1" /><polyline clip-path="url(#clip311)" style="stroke:#0000ff; stroke-linecap:round; stroke-linejoin:round; stroke-width:8; stroke-opacity:1; fill:none" points="2573.2,1688.65 2122.82,1375.84 1672.44,1097.25 1222.05,719.322 771.672,477.132 321.29,173.254 "/>
<polyline clip-path="url(#clip311)" style="stroke:#008000; stroke-linecap:round; stroke-linejoin:round; stroke-width:4; stroke-opacity:1; fill:none" stroke-dasharray="16, 10" points="-2133.29,192.344 5027.78,192.344 "/>
<path clip-path="url(#clip310)" d="M333.3 1680.57 L885.658 1680.57 L885.658 1576.89 L333.3 1576.89  Z" fill="#ffffff" fill-rule="evenodd" fill-opacity="1"/>
<polyline clip-path="url(#clip310)" style="stroke:#000000; stroke-linecap:round; stroke-linejoin:round; stroke-width:4; stroke-opacity:1; fill:none" points="333.3,1680.57 885.658,1680.57 885.658,1576.89 333.3,1576.89 333.3,1680.57 "/>
<polyline clip-path="url(#clip310)" style="stroke:#008000; stroke-linecap:round; stroke-linejoin:round; stroke-width:4; stroke-opacity:1; fill:none" stroke-dasharray="16, 10" points="359.823,1628.73 518.958,1628.73 "/>
<path clip-path="url(#clip310)" d="M558.744 1614.05 L570.712 1646.01 L566.198 1646.01 L558.929 1626.85 L549.994 1646.01 L545.48 1646.01 L556.846 1621.15 L555.133 1616.57 Q554.045 1613.65 551.568 1613.65 L549.346 1613.65 L549.346 1609.99 L552.054 1610.04 Q557.286 1610.11 558.744 1614.05 Z" fill="#000000" fill-rule="nonzero" fill-opacity="1" /><path clip-path="url(#clip310)" d="M601.892 1610.04 Q598.79 1615.36 597.286 1620.57 Q595.781 1625.78 595.781 1631.13 Q595.781 1636.48 597.286 1641.73 Q598.813 1646.96 601.892 1652.26 L598.188 1652.26 Q594.716 1646.82 592.98 1641.57 Q591.267 1636.31 591.267 1631.13 Q591.267 1625.97 592.98 1620.74 Q594.693 1615.5 598.188 1610.04 L601.892 1610.04 Z" fill="#000000" fill-rule="nonzero" fill-opacity="1" /><path clip-path="url(#clip310)" d="M627.216 1632.75 Q627.216 1628.12 625.295 1625.57 Q623.396 1623.03 619.947 1623.03 Q616.522 1623.03 614.6 1625.57 Q612.702 1628.12 612.702 1632.75 Q612.702 1637.36 614.6 1639.9 Q616.522 1642.45 619.947 1642.45 Q623.396 1642.45 625.295 1639.9 Q627.216 1637.36 627.216 1632.75 M631.475 1642.8 Q631.475 1649.42 628.535 1652.63 Q625.596 1655.87 619.531 1655.87 Q617.285 1655.87 615.295 1655.53 Q613.304 1655.2 611.429 1654.51 L611.429 1650.36 Q613.304 1651.38 615.133 1651.87 Q616.961 1652.36 618.859 1652.36 Q623.049 1652.36 625.133 1650.16 Q627.216 1647.98 627.216 1643.56 L627.216 1641.45 Q625.896 1643.74 623.836 1644.88 Q621.776 1646.01 618.906 1646.01 Q614.137 1646.01 611.221 1642.38 Q608.304 1638.74 608.304 1632.75 Q608.304 1626.73 611.221 1623.1 Q614.137 1619.46 618.906 1619.46 Q621.776 1619.46 623.836 1620.6 Q625.896 1621.73 627.216 1624.02 L627.216 1620.09 L631.475 1620.09 L631.475 1642.8 Z" fill="#000000" fill-rule="nonzero" fill-opacity="1" /><path clip-path="url(#clip310)" d="M650.294 1623.07 Q646.869 1623.07 644.878 1625.76 Q642.887 1628.42 642.887 1633.07 Q642.887 1637.73 644.855 1640.41 Q646.845 1643.07 650.294 1643.07 Q653.697 1643.07 655.688 1640.39 Q657.679 1637.7 657.679 1633.07 Q657.679 1628.47 655.688 1625.78 Q653.697 1623.07 650.294 1623.07 M650.294 1619.46 Q655.85 1619.46 659.021 1623.07 Q662.193 1626.68 662.193 1633.07 Q662.193 1639.44 659.021 1643.07 Q655.85 1646.68 650.294 1646.68 Q644.716 1646.68 641.545 1643.07 Q638.396 1639.44 638.396 1633.07 Q638.396 1626.68 641.545 1623.07 Q644.716 1619.46 650.294 1619.46 Z" fill="#000000" fill-rule="nonzero" fill-opacity="1" /><path clip-path="url(#clip310)" d="M679.299 1623.07 Q675.873 1623.07 673.882 1625.76 Q671.892 1628.42 671.892 1633.07 Q671.892 1637.73 673.859 1640.41 Q675.85 1643.07 679.299 1643.07 Q682.702 1643.07 684.692 1640.39 Q686.683 1637.7 686.683 1633.07 Q686.683 1628.47 684.692 1625.78 Q682.702 1623.07 679.299 1623.07 M679.299 1619.46 Q684.854 1619.46 688.026 1623.07 Q691.197 1626.68 691.197 1633.07 Q691.197 1639.44 688.026 1643.07 Q684.854 1646.68 679.299 1646.68 Q673.72 1646.68 670.549 1643.07 Q667.401 1639.44 667.401 1633.07 Q667.401 1626.68 670.549 1623.07 Q673.72 1619.46 679.299 1619.46 Z" fill="#000000" fill-rule="nonzero" fill-opacity="1" /><path clip-path="url(#clip310)" d="M715.317 1624.02 L715.317 1609.99 L719.577 1609.99 L719.577 1646.01 L715.317 1646.01 L715.317 1642.12 Q713.975 1644.44 711.915 1645.57 Q709.878 1646.68 707.007 1646.68 Q702.308 1646.68 699.345 1642.93 Q696.405 1639.18 696.405 1633.07 Q696.405 1626.96 699.345 1623.21 Q702.308 1619.46 707.007 1619.46 Q709.878 1619.46 711.915 1620.6 Q713.975 1621.71 715.317 1624.02 M700.803 1633.07 Q700.803 1637.77 702.725 1640.46 Q704.669 1643.12 708.049 1643.12 Q711.428 1643.12 713.373 1640.46 Q715.317 1637.77 715.317 1633.07 Q715.317 1628.37 713.373 1625.71 Q711.428 1623.03 708.049 1623.03 Q704.669 1623.03 702.725 1625.71 Q700.803 1628.37 700.803 1633.07 Z" fill="#000000" fill-rule="nonzero" fill-opacity="1" /><path clip-path="url(#clip310)" d="M754.206 1648.42 Q752.4 1653.05 750.687 1654.46 Q748.975 1655.87 746.104 1655.87 L742.701 1655.87 L742.701 1652.31 L745.201 1652.31 Q746.961 1652.31 747.933 1651.48 Q748.905 1650.64 750.086 1647.54 L750.85 1645.6 L740.363 1620.09 L744.877 1620.09 L752.979 1640.36 L761.081 1620.09 L765.595 1620.09 L754.206 1648.42 Z" fill="#000000" fill-rule="nonzero" fill-opacity="1" /><path clip-path="url(#clip310)" d="M793.65 1631.99 L793.65 1634.07 L774.067 1634.07 Q774.345 1638.47 776.706 1640.78 Q779.09 1643.07 783.326 1643.07 Q785.78 1643.07 788.072 1642.47 Q790.386 1641.87 792.655 1640.67 L792.655 1644.69 Q790.363 1645.67 787.956 1646.17 Q785.548 1646.68 783.072 1646.68 Q776.868 1646.68 773.234 1643.07 Q769.623 1639.46 769.623 1633.3 Q769.623 1626.94 773.048 1623.21 Q776.498 1619.46 782.331 1619.46 Q787.562 1619.46 790.595 1622.84 Q793.65 1626.2 793.65 1631.99 M789.391 1630.74 Q789.345 1627.24 787.423 1625.16 Q785.525 1623.07 782.377 1623.07 Q778.812 1623.07 776.66 1625.09 Q774.53 1627.1 774.206 1630.76 L789.391 1630.74 Z" fill="#000000" fill-rule="nonzero" fill-opacity="1" /><path clip-path="url(#clip310)" d="M812.423 1632.98 Q807.261 1632.98 805.271 1634.16 Q803.28 1635.34 803.28 1638.19 Q803.28 1640.46 804.761 1641.8 Q806.266 1643.12 808.835 1643.12 Q812.377 1643.12 814.507 1640.62 Q816.659 1638.1 816.659 1633.93 L816.659 1632.98 L812.423 1632.98 M820.919 1631.22 L820.919 1646.01 L816.659 1646.01 L816.659 1642.08 Q815.201 1644.44 813.025 1645.57 Q810.849 1646.68 807.701 1646.68 Q803.72 1646.68 801.358 1644.46 Q799.021 1642.22 799.021 1638.47 Q799.021 1634.09 801.937 1631.87 Q804.877 1629.65 810.687 1629.65 L816.659 1629.65 L816.659 1629.23 Q816.659 1626.29 814.715 1624.69 Q812.794 1623.07 809.298 1623.07 Q807.076 1623.07 804.97 1623.61 Q802.863 1624.14 800.919 1625.2 L800.919 1621.27 Q803.257 1620.36 805.456 1619.93 Q807.655 1619.46 809.738 1619.46 Q815.363 1619.46 818.141 1622.38 Q820.919 1625.3 820.919 1631.22 Z" fill="#000000" fill-rule="nonzero" fill-opacity="1" /><path clip-path="url(#clip310)" d="M844.715 1624.07 Q843.997 1623.65 843.141 1623.47 Q842.307 1623.26 841.289 1623.26 Q837.678 1623.26 835.733 1625.62 Q833.812 1627.96 833.812 1632.36 L833.812 1646.01 L829.53 1646.01 L829.53 1620.09 L833.812 1620.09 L833.812 1624.11 Q835.155 1621.75 837.307 1620.62 Q839.46 1619.46 842.539 1619.46 Q842.979 1619.46 843.511 1619.53 Q844.043 1619.58 844.692 1619.69 L844.715 1624.07 Z" fill="#000000" fill-rule="nonzero" fill-opacity="1" /><path clip-path="url(#clip310)" d="M848.511 1610.04 L852.215 1610.04 Q855.687 1615.5 857.4 1620.74 Q859.136 1625.97 859.136 1631.13 Q859.136 1636.31 857.4 1641.57 Q855.687 1646.82 852.215 1652.26 L848.511 1652.26 Q851.59 1646.96 853.094 1641.73 Q854.622 1636.48 854.622 1631.13 Q854.622 1625.78 853.094 1620.57 Q851.59 1615.36 848.511 1610.04 Z" fill="#000000" fill-rule="nonzero" fill-opacity="1" /></svg>
