<?xml version="1.0" encoding="utf-8"?>
<svg xmlns="http://www.w3.org/2000/svg" xmlns:xlink="http://www.w3.org/1999/xlink" width="672" height="480" viewBox="0 0 2688 1920">
<defs>
  <clipPath id="clip160">
    <rect x="0" y="0" width="2688" height="1920"/>
  </clipPath>
</defs>
<path clip-path="url(#clip160)" d="M0 1920 L2688 1920 L2688 -4.26326e-14 L0 -4.26326e-14  Z" fill="#ffffff" fill-rule="evenodd" fill-opacity="1"/>
<defs>
  <clipPath id="clip161">
    <rect x="253" y="127" width="2388" height="1607"/>
  </clipPath>
</defs>
<path clip-path="url(#clip160)" d="M253.733 1734.12 L2640.76 1734.12 L2640.76 127.792 L253.733 127.792  Z" fill="#ffffff" fill-rule="evenodd" fill-opacity="1"/>
<polyline clip-path="url(#clip161)" style="stroke:#000000; stroke-linecap:round; stroke-linejoin:round; stroke-width:2; stroke-opacity:0.1; fill:none" points="321.29,1734.12 321.29,127.792 "/>
<polyline clip-path="url(#clip161)" style="stroke:#000000; stroke-linecap:round; stroke-linejoin:round; stroke-width:2; stroke-opacity:0.1; fill:none" points="884.267,1734.12 884.267,127.792 "/>
<polyline clip-path="url(#clip161)" style="stroke:#000000; stroke-linecap:round; stroke-linejoin:round; stroke-width:2; stroke-opacity:0.1; fill:none" points="1447.24,1734.12 1447.24,127.792 "/>
<polyline clip-path="url(#clip161)" style="stroke:#000000; stroke-linecap:round; stroke-linejoin:round; stroke-width:2; stroke-opacity:0.1; fill:none" points="2010.22,1734.12 2010.22,127.792 "/>
<polyline clip-path="url(#clip161)" style="stroke:#000000; stroke-linecap:round; stroke-linejoin:round; stroke-width:2; stroke-opacity:0.1; fill:none" points="2573.2,1734.12 2573.2,127.792 "/>
<polyline clip-path="url(#clip161)" style="stroke:#000000; stroke-linecap:round; stroke-linejoin:round; stroke-width:2; stroke-opacity:0.1; fill:none" points="253.733,1658.77 2640.76,1658.77 "/>
<polyline clip-path="url(#clip161)" style="stroke:#000000; stroke-linecap:round; stroke-linejoin:round; stroke-width:2; stroke-opacity:0.1; fill:none" points="253.733,1337.86 2640.76,1337.86 "/>
<polyline clip-path="url(#clip161)" style="stroke:#000000; stroke-linecap:round; stroke-linejoin:round; stroke-width:2; stroke-opacity:0.1; fill:none" points="253.733,1016.96 2640.76,1016.96 "/>
<polyline clip-path="url(#clip161)" style="stroke:#000000; stroke-linecap:round; stroke-linejoin:round; stroke-width:2; stroke-opacity:0.1; fill:none" points="253.733,696.055 2640.76,696.055 "/>
<polyline clip-path="url(#clip161)" style="stroke:#000000; stroke-linecap:round; stroke-linejoin:round; stroke-width:2; stroke-opacity:0.1; fill:none" points="253.733,375.151 2640.76,375.151 "/>
<polyline clip-path="url(#clip160)" style="stroke:#000000; stroke-linecap:round; stroke-linejoin:round; stroke-width:4; stroke-opacity:1; fill:none" points="253.733,1734.12 2640.76,1734.12 "/>
<polyline clip-path="url(#clip160)" style="stroke:#000000; stroke-linecap:round; stroke-linejoin:round; stroke-width:4; stroke-opacity:1; fill:none" points="321.29,1734.12 321.29,1715.22 "/>
<polyline clip-path="url(#clip160)" style="stroke:#000000; stroke-linecap:round; stroke-linejoin:round; stroke-width:4; stroke-opacity:1; fill:none" points="884.267,1734.12 884.267,1715.22 "/>
<polyline clip-path="url(#clip160)" style="stroke:#000000; stroke-linecap:round; stroke-linejoin:round; stroke-width:4; stroke-opacity:1; fill:none" points="1447.24,1734.12 1447.24,1715.22 "/>
<polyline clip-path="url(#clip160)" style="stroke:#000000; stroke-linecap:round; stroke-linejoin:round; stroke-width:4; stroke-opacity:1; fill:none" points="2010.22,1734.12 2010.22,1715.22 "/>
<polyline clip-path="url(#clip160)" style="stroke:#000000; stroke-linecap:round; stroke-linejoin:round; stroke-width:4; stroke-opacity:1; fill:none" points="2573.2,1734.12 2573.2,1715.22 "/>
<path clip-path="url(#clip160)" d="M321.29 1767.34 Q317.679 1767.34 315.85 1770.9 Q314.045 1774.45 314.045 1781.58 Q314.045 1788.68 315.85 1792.25 Q317.679 1795.79 321.29 1795.79 Q324.924 1795.79 326.73 1792.25 Q328.559 1788.68 328.559 1781.58 Q328.559 1774.45 326.73 1770.9 Q324.924 1767.34 321.29 1767.34 M321.29 1763.64 Q327.1 1763.64 330.156 1768.24 Q333.235 1772.83 333.235 1781.58 Q333.235 1790.3 330.156 1794.91 Q327.1 1799.49 321.29 1799.49 Q315.48 1799.49 312.401 1794.91 Q309.346 1790.3 309.346 1781.58 Q309.346 1772.83 312.401 1768.24 Q315.48 1763.64 321.29 1763.64 Z" fill="#000000" fill-rule="nonzero" fill-opacity="1" /><path clip-path="url(#clip160)" d="M858.967 1764.26 L877.323 1764.26 L877.323 1768.2 L863.249 1768.2 L863.249 1776.67 Q864.267 1776.32 865.286 1776.16 Q866.304 1775.97 867.323 1775.97 Q873.11 1775.97 876.49 1779.15 Q879.869 1782.32 879.869 1787.73 Q879.869 1793.31 876.397 1796.41 Q872.925 1799.49 866.605 1799.49 Q864.429 1799.49 862.161 1799.12 Q859.916 1798.75 857.508 1798.01 L857.508 1793.31 Q859.592 1794.45 861.814 1795 Q864.036 1795.56 866.513 1795.56 Q870.517 1795.56 872.855 1793.45 Q875.193 1791.34 875.193 1787.73 Q875.193 1784.12 872.855 1782.02 Q870.517 1779.91 866.513 1779.91 Q864.638 1779.91 862.763 1780.33 Q860.911 1780.74 858.967 1781.62 L858.967 1764.26 Z" fill="#000000" fill-rule="nonzero" fill-opacity="1" /><path clip-path="url(#clip160)" d="M899.082 1767.34 Q895.471 1767.34 893.642 1770.9 Q891.837 1774.45 891.837 1781.58 Q891.837 1788.68 893.642 1792.25 Q895.471 1795.79 899.082 1795.79 Q902.716 1795.79 904.522 1792.25 Q906.351 1788.68 906.351 1781.58 Q906.351 1774.45 904.522 1770.9 Q902.716 1767.34 899.082 1767.34 M899.082 1763.64 Q904.892 1763.64 907.948 1768.24 Q911.026 1772.83 911.026 1781.58 Q911.026 1790.3 907.948 1794.91 Q904.892 1799.49 899.082 1799.49 Q893.272 1799.49 890.193 1794.91 Q887.138 1790.3 887.138 1781.58 Q887.138 1772.83 890.193 1768.24 Q893.272 1763.64 899.082 1763.64 Z" fill="#000000" fill-rule="nonzero" fill-opacity="1" /><path clip-path="url(#clip160)" d="M1406.85 1794.89 L1414.49 1794.89 L1414.49 1768.52 L1406.18 1770.19 L1406.18 1765.93 L1414.44 1764.26 L1419.12 1764.26 L1419.12 1794.89 L1426.76 1794.89 L1426.76 1798.82 L1406.85 1798.82 L1406.85 1794.89 Z" fill="#000000" fill-rule="nonzero" fill-opacity="1" /><path clip-path="url(#clip160)" d="M1446.2 1767.34 Q1442.59 1767.34 1440.76 1770.9 Q1438.96 1774.45 1438.96 1781.58 Q1438.96 1788.68 1440.76 1792.25 Q1442.59 1795.79 1446.2 1795.79 Q1449.84 1795.79 1451.64 1792.25 Q1453.47 1788.68 1453.47 1781.58 Q1453.47 1774.45 1451.64 1770.9 Q1449.84 1767.34 1446.2 1767.34 M1446.2 1763.64 Q1452.01 1763.64 1455.07 1768.24 Q1458.15 1772.83 1458.15 1781.58 Q1458.15 1790.3 1455.07 1794.91 Q1452.01 1799.49 1446.2 1799.49 Q1440.39 1799.49 1437.31 1794.91 Q1434.26 1790.3 1434.26 1781.58 Q1434.26 1772.83 1437.31 1768.24 Q1440.39 1763.64 1446.2 1763.64 Z" fill="#000000" fill-rule="nonzero" fill-opacity="1" /><path clip-path="url(#clip160)" d="M1476.36 1767.34 Q1472.75 1767.34 1470.92 1770.9 Q1469.12 1774.45 1469.12 1781.58 Q1469.12 1788.68 1470.92 1792.25 Q1472.75 1795.79 1476.36 1795.79 Q1480 1795.79 1481.8 1792.25 Q1483.63 1788.68 1483.63 1781.58 Q1483.63 1774.45 1481.8 1770.9 Q1480 1767.34 1476.36 1767.34 M1476.36 1763.64 Q1482.17 1763.64 1485.23 1768.24 Q1488.31 1772.83 1488.31 1781.58 Q1488.31 1790.3 1485.23 1794.91 Q1482.17 1799.49 1476.36 1799.49 Q1470.55 1799.49 1467.48 1794.91 Q1464.42 1790.3 1464.42 1781.58 Q1464.42 1772.83 1467.48 1768.24 Q1470.55 1763.64 1476.36 1763.64 Z" fill="#000000" fill-rule="nonzero" fill-opacity="1" /><path clip-path="url(#clip160)" d="M1969.83 1794.89 L1977.47 1794.89 L1977.47 1768.52 L1969.16 1770.19 L1969.16 1765.93 L1977.42 1764.26 L1982.1 1764.26 L1982.1 1794.89 L1989.74 1794.89 L1989.74 1798.82 L1969.83 1798.82 L1969.83 1794.89 Z" fill="#000000" fill-rule="nonzero" fill-opacity="1" /><path clip-path="url(#clip160)" d="M1999.23 1764.26 L2017.58 1764.26 L2017.58 1768.2 L2003.51 1768.2 L2003.51 1776.67 Q2004.53 1776.32 2005.55 1776.16 Q2006.56 1775.97 2007.58 1775.97 Q2013.37 1775.97 2016.75 1779.15 Q2020.13 1782.32 2020.13 1787.73 Q2020.13 1793.31 2016.66 1796.41 Q2013.18 1799.49 2006.87 1799.49 Q2004.69 1799.49 2002.42 1799.12 Q2000.18 1798.75 1997.77 1798.01 L1997.77 1793.31 Q1999.85 1794.45 2002.07 1795 Q2004.3 1795.56 2006.77 1795.56 Q2010.78 1795.56 2013.12 1793.45 Q2015.45 1791.34 2015.45 1787.73 Q2015.45 1784.12 2013.12 1782.02 Q2010.78 1779.91 2006.77 1779.91 Q2004.9 1779.91 2003.02 1780.33 Q2001.17 1780.74 1999.23 1781.62 L1999.23 1764.26 Z" fill="#000000" fill-rule="nonzero" fill-opacity="1" /><path clip-path="url(#clip160)" d="M2039.34 1767.34 Q2035.73 1767.34 2033.9 1770.9 Q2032.1 1774.45 2032.1 1781.58 Q2032.1 1788.68 2033.9 1792.25 Q2035.73 1795.79 2039.34 1795.79 Q2042.98 1795.79 2044.78 1792.25 Q2046.61 1788.68 2046.61 1781.58 Q2046.61 1774.45 2044.78 1770.9 Q2042.98 1767.34 2039.34 1767.34 M2039.34 1763.64 Q2045.15 1763.64 2048.21 1768.24 Q2051.29 1772.83 2051.29 1781.58 Q2051.29 1790.3 2048.21 1794.91 Q2045.15 1799.49 2039.34 1799.49 Q2033.53 1799.49 2030.45 1794.91 Q2027.4 1790.3 2027.4 1781.58 Q2027.4 1772.83 2030.45 1768.24 Q2033.53 1763.64 2039.34 1763.64 Z" fill="#000000" fill-rule="nonzero" fill-opacity="1" /><path clip-path="url(#clip160)" d="M2536.89 1794.89 L2553.21 1794.89 L2553.21 1798.82 L2531.27 1798.82 L2531.27 1794.89 Q2533.93 1792.13 2538.51 1787.5 Q2543.12 1782.85 2544.3 1781.51 Q2546.54 1778.98 2547.42 1777.25 Q2548.33 1775.49 2548.33 1773.8 Q2548.33 1771.04 2546.38 1769.31 Q2544.46 1767.57 2541.36 1767.57 Q2539.16 1767.57 2536.71 1768.34 Q2534.28 1769.1 2531.5 1770.65 L2531.5 1765.93 Q2534.32 1764.79 2536.78 1764.21 Q2539.23 1763.64 2541.27 1763.64 Q2546.64 1763.64 2549.83 1766.32 Q2553.03 1769.01 2553.03 1773.5 Q2553.03 1775.63 2552.21 1777.55 Q2551.43 1779.45 2549.32 1782.04 Q2548.74 1782.71 2545.64 1785.93 Q2542.54 1789.12 2536.89 1794.89 Z" fill="#000000" fill-rule="nonzero" fill-opacity="1" /><path clip-path="url(#clip160)" d="M2573.03 1767.34 Q2569.41 1767.34 2567.59 1770.9 Q2565.78 1774.45 2565.78 1781.58 Q2565.78 1788.68 2567.59 1792.25 Q2569.41 1795.79 2573.03 1795.79 Q2576.66 1795.79 2578.46 1792.25 Q2580.29 1788.68 2580.29 1781.58 Q2580.29 1774.45 2578.46 1770.9 Q2576.66 1767.34 2573.03 1767.34 M2573.03 1763.64 Q2578.84 1763.64 2581.89 1768.24 Q2584.97 1772.83 2584.97 1781.58 Q2584.97 1790.3 2581.89 1794.91 Q2578.84 1799.49 2573.03 1799.49 Q2567.21 1799.49 2564.14 1794.91 Q2561.08 1790.3 2561.08 1781.58 Q2561.08 1772.83 2564.14 1768.24 Q2567.21 1763.64 2573.03 1763.64 Z" fill="#000000" fill-rule="nonzero" fill-opacity="1" /><path clip-path="url(#clip160)" d="M2603.19 1767.34 Q2599.58 1767.34 2597.75 1770.9 Q2595.94 1774.45 2595.94 1781.58 Q2595.94 1788.68 2597.75 1792.25 Q2599.58 1795.79 2603.19 1795.79 Q2606.82 1795.79 2608.63 1792.25 Q2610.46 1788.68 2610.46 1781.58 Q2610.46 1774.45 2608.63 1770.9 Q2606.82 1767.34 2603.19 1767.34 M2603.19 1763.64 Q2609 1763.64 2612.05 1768.24 Q2615.13 1772.83 2615.13 1781.58 Q2615.13 1790.3 2612.05 1794.91 Q2609 1799.49 2603.19 1799.49 Q2597.38 1799.49 2594.3 1794.91 Q2591.24 1790.3 2591.24 1781.58 Q2591.24 1772.83 2594.3 1768.24 Q2597.38 1763.64 2603.19 1763.64 Z" fill="#000000" fill-rule="nonzero" fill-opacity="1" /><path clip-path="url(#clip160)" d="M1163.84 1835.78 L1204.04 1835.78 L1204.04 1841.19 L1187.17 1841.19 L1187.17 1883.3 L1180.71 1883.3 L1180.71 1841.19 L1163.84 1841.19 L1163.84 1835.78 Z" fill="#000000" fill-rule="nonzero" fill-opacity="1" /><path clip-path="url(#clip160)" d="M1207.99 1847.65 L1213.85 1847.65 L1213.85 1883.3 L1207.99 1883.3 L1207.99 1847.65 M1207.99 1833.78 L1213.85 1833.78 L1213.85 1841.19 L1207.99 1841.19 L1207.99 1833.78 Z" fill="#000000" fill-rule="nonzero" fill-opacity="1" /><path clip-path="url(#clip160)" d="M1253.85 1854.5 Q1256.05 1850.55 1259.11 1848.67 Q1262.16 1846.79 1266.3 1846.79 Q1271.87 1846.79 1274.89 1850.71 Q1277.92 1854.59 1277.92 1861.78 L1277.92 1883.3 L1272.03 1883.3 L1272.03 1861.98 Q1272.03 1856.85 1270.21 1854.37 Q1268.4 1851.89 1264.68 1851.89 Q1260.12 1851.89 1257.48 1854.91 Q1254.84 1857.93 1254.84 1863.15 L1254.84 1883.3 L1248.95 1883.3 L1248.95 1861.98 Q1248.95 1856.82 1247.14 1854.37 Q1245.32 1851.89 1241.54 1851.89 Q1237.05 1851.89 1234.41 1854.94 Q1231.77 1857.97 1231.77 1863.15 L1231.77 1883.3 L1225.88 1883.3 L1225.88 1847.65 L1231.77 1847.65 L1231.77 1853.19 Q1233.77 1849.91 1236.57 1848.35 Q1239.37 1846.79 1243.22 1846.79 Q1247.11 1846.79 1249.81 1848.77 Q1252.55 1850.74 1253.85 1854.5 Z" fill="#000000" fill-rule="nonzero" fill-opacity="1" /><path clip-path="url(#clip160)" d="M1320.09 1864.01 L1320.09 1866.88 L1293.16 1866.88 Q1293.54 1872.92 1296.79 1876.11 Q1300.07 1879.26 1305.89 1879.26 Q1309.27 1879.26 1312.42 1878.43 Q1315.6 1877.6 1318.72 1875.95 L1318.72 1881.49 Q1315.57 1882.82 1312.26 1883.52 Q1308.95 1884.22 1305.54 1884.22 Q1297.01 1884.22 1292.02 1879.26 Q1287.05 1874.29 1287.05 1865.83 Q1287.05 1857.07 1291.76 1851.95 Q1296.5 1846.79 1304.53 1846.79 Q1311.72 1846.79 1315.89 1851.44 Q1320.09 1856.06 1320.09 1864.01 M1314.23 1862.29 Q1314.17 1857.49 1311.53 1854.62 Q1308.92 1851.76 1304.59 1851.76 Q1299.69 1851.76 1296.73 1854.53 Q1293.8 1857.3 1293.35 1862.33 L1314.23 1862.29 Z" fill="#000000" fill-rule="nonzero" fill-opacity="1" /><path clip-path="url(#clip160)" d="M1373.15 1848.7 L1373.15 1854.24 Q1370.67 1852.97 1367.99 1852.33 Q1365.32 1851.7 1362.45 1851.7 Q1358.09 1851.7 1355.9 1853.03 Q1353.73 1854.37 1353.73 1857.04 Q1353.73 1859.08 1355.29 1860.26 Q1356.85 1861.4 1361.56 1862.45 L1363.57 1862.9 Q1369.81 1864.24 1372.42 1866.69 Q1375.06 1869.11 1375.06 1873.47 Q1375.06 1878.43 1371.11 1881.33 Q1367.2 1884.22 1360.32 1884.22 Q1357.46 1884.22 1354.34 1883.65 Q1351.25 1883.11 1347.81 1882 L1347.81 1875.95 Q1351.06 1877.64 1354.21 1878.49 Q1357.36 1879.32 1360.45 1879.32 Q1364.59 1879.32 1366.81 1877.92 Q1369.04 1876.49 1369.04 1873.91 Q1369.04 1871.52 1367.42 1870.25 Q1365.83 1868.98 1360.38 1867.8 L1358.35 1867.32 Q1352.9 1866.18 1350.49 1863.82 Q1348.07 1861.43 1348.07 1857.3 Q1348.07 1852.27 1351.63 1849.53 Q1355.2 1846.79 1361.75 1846.79 Q1365 1846.79 1367.86 1847.27 Q1370.73 1847.75 1373.15 1848.7 Z" fill="#000000" fill-rule="nonzero" fill-opacity="1" /><path clip-path="url(#clip160)" d="M1390.18 1837.53 L1390.18 1847.65 L1402.24 1847.65 L1402.24 1852.2 L1390.18 1852.2 L1390.18 1871.56 Q1390.18 1875.92 1391.35 1877.16 Q1392.56 1878.4 1396.22 1878.4 L1402.24 1878.4 L1402.24 1883.3 L1396.22 1883.3 Q1389.44 1883.3 1386.87 1880.79 Q1384.29 1878.24 1384.29 1871.56 L1384.29 1852.2 L1379.99 1852.2 L1379.99 1847.65 L1384.29 1847.65 L1384.29 1837.53 L1390.18 1837.53 Z" fill="#000000" fill-rule="nonzero" fill-opacity="1" /><path clip-path="url(#clip160)" d="M1440.43 1864.01 L1440.43 1866.88 L1413.51 1866.88 Q1413.89 1872.92 1417.13 1876.11 Q1420.41 1879.26 1426.24 1879.26 Q1429.61 1879.26 1432.76 1878.43 Q1435.95 1877.6 1439.06 1875.95 L1439.06 1881.49 Q1435.91 1882.82 1432.6 1883.52 Q1429.29 1884.22 1425.89 1884.22 Q1417.36 1884.22 1412.36 1879.26 Q1407.4 1874.29 1407.4 1865.83 Q1407.4 1857.07 1412.11 1851.95 Q1416.85 1846.79 1424.87 1846.79 Q1432.06 1846.79 1436.23 1851.44 Q1440.43 1856.06 1440.43 1864.01 M1434.58 1862.29 Q1434.51 1857.49 1431.87 1854.62 Q1429.26 1851.76 1424.93 1851.76 Q1420.03 1851.76 1417.07 1854.53 Q1414.14 1857.3 1413.7 1862.33 L1434.58 1862.29 Z" fill="#000000" fill-rule="nonzero" fill-opacity="1" /><path clip-path="url(#clip160)" d="M1455.71 1877.95 L1455.71 1896.86 L1449.82 1896.86 L1449.82 1847.65 L1455.71 1847.65 L1455.71 1853.06 Q1457.56 1849.88 1460.36 1848.35 Q1463.19 1846.79 1467.11 1846.79 Q1473.6 1846.79 1477.64 1851.95 Q1481.71 1857.11 1481.71 1865.51 Q1481.71 1873.91 1477.64 1879.07 Q1473.6 1884.22 1467.11 1884.22 Q1463.19 1884.22 1460.36 1882.7 Q1457.56 1881.14 1455.71 1877.95 M1475.64 1865.51 Q1475.64 1859.05 1472.96 1855.39 Q1470.32 1851.7 1465.67 1851.7 Q1461.03 1851.7 1458.35 1855.39 Q1455.71 1859.05 1455.71 1865.51 Q1455.71 1871.97 1458.35 1875.66 Q1461.03 1879.32 1465.67 1879.32 Q1470.32 1879.32 1472.96 1875.66 Q1475.64 1871.97 1475.64 1865.51 Z" fill="#000000" fill-rule="nonzero" fill-opacity="1" /><path clip-path="url(#clip160)" d="M1526.21 1833.84 Q1521.95 1841.16 1519.88 1848.32 Q1517.81 1855.48 1517.81 1862.84 Q1517.81 1870.19 1519.88 1877.41 Q1521.98 1884.61 1526.21 1891.89 L1521.12 1891.89 Q1516.34 1884.41 1513.96 1877.19 Q1511.6 1869.96 1511.6 1862.84 Q1511.6 1855.74 1513.96 1848.54 Q1516.31 1841.35 1521.12 1833.84 L1526.21 1833.84 Z" fill="#000000" fill-rule="nonzero" fill-opacity="1" /><path clip-path="url(#clip160)" d="M1552.41 1886.61 Q1549.92 1892.98 1547.57 1894.92 Q1545.21 1896.86 1541.27 1896.86 L1536.59 1896.86 L1536.59 1891.96 L1540.02 1891.96 Q1542.44 1891.96 1543.78 1890.81 Q1545.12 1889.67 1546.74 1885.4 L1547.79 1882.73 L1533.37 1847.65 L1539.58 1847.65 L1550.72 1875.53 L1561.86 1847.65 L1568.07 1847.65 L1552.41 1886.61 Z" fill="#000000" fill-rule="nonzero" fill-opacity="1" /><path clip-path="url(#clip160)" d="M1606.64 1864.01 L1606.64 1866.88 L1579.71 1866.88 Q1580.1 1872.92 1583.34 1876.11 Q1586.62 1879.26 1592.45 1879.26 Q1595.82 1879.26 1598.97 1878.43 Q1602.15 1877.6 1605.27 1875.95 L1605.27 1881.49 Q1602.12 1882.82 1598.81 1883.52 Q1595.5 1884.22 1592.1 1884.22 Q1583.57 1884.22 1578.57 1879.26 Q1573.6 1874.29 1573.6 1865.83 Q1573.6 1857.07 1578.31 1851.95 Q1583.06 1846.79 1591.08 1846.79 Q1598.27 1846.79 1602.44 1851.44 Q1606.64 1856.06 1606.64 1864.01 M1600.79 1862.29 Q1600.72 1857.49 1598.08 1854.62 Q1595.47 1851.76 1591.14 1851.76 Q1586.24 1851.76 1583.28 1854.53 Q1580.35 1857.3 1579.91 1862.33 L1600.79 1862.29 Z" fill="#000000" fill-rule="nonzero" fill-opacity="1" /><path clip-path="url(#clip160)" d="M1632.45 1865.38 Q1625.36 1865.38 1622.62 1867 Q1619.88 1868.63 1619.88 1872.54 Q1619.88 1875.66 1621.92 1877.51 Q1623.99 1879.32 1627.52 1879.32 Q1632.39 1879.32 1635.32 1875.88 Q1638.28 1872.42 1638.28 1866.69 L1638.28 1865.38 L1632.45 1865.38 M1644.14 1862.96 L1644.14 1883.3 L1638.28 1883.3 L1638.28 1877.89 Q1636.27 1881.14 1633.28 1882.7 Q1630.29 1884.22 1625.96 1884.22 Q1620.49 1884.22 1617.24 1881.17 Q1614.03 1878.08 1614.03 1872.92 Q1614.03 1866.91 1618.04 1863.85 Q1622.08 1860.8 1630.07 1860.8 L1638.28 1860.8 L1638.28 1860.23 Q1638.28 1856.18 1635.61 1853.99 Q1632.96 1851.76 1628.16 1851.76 Q1625.1 1851.76 1622.21 1852.49 Q1619.31 1853.22 1616.64 1854.69 L1616.64 1849.28 Q1619.85 1848.03 1622.87 1847.43 Q1625.9 1846.79 1628.76 1846.79 Q1636.5 1846.79 1640.32 1850.8 Q1644.14 1854.81 1644.14 1862.96 Z" fill="#000000" fill-rule="nonzero" fill-opacity="1" /><path clip-path="url(#clip160)" d="M1676.86 1853.13 Q1675.87 1852.55 1674.69 1852.3 Q1673.55 1852.01 1672.14 1852.01 Q1667.18 1852.01 1664.51 1855.26 Q1661.86 1858.47 1661.86 1864.52 L1661.86 1883.3 L1655.98 1883.3 L1655.98 1847.65 L1661.86 1847.65 L1661.86 1853.19 Q1663.71 1849.94 1666.67 1848.39 Q1669.63 1846.79 1673.86 1846.79 Q1674.47 1846.79 1675.2 1846.89 Q1675.93 1846.95 1676.82 1847.11 L1676.86 1853.13 Z" fill="#000000" fill-rule="nonzero" fill-opacity="1" /><path clip-path="url(#clip160)" d="M1705.72 1848.7 L1705.72 1854.24 Q1703.24 1852.97 1700.57 1852.33 Q1697.89 1851.7 1695.03 1851.7 Q1690.67 1851.7 1688.47 1853.03 Q1686.31 1854.37 1686.31 1857.04 Q1686.31 1859.08 1687.87 1860.26 Q1689.43 1861.4 1694.14 1862.45 L1696.14 1862.9 Q1702.38 1864.24 1704.99 1866.69 Q1707.63 1869.11 1707.63 1873.47 Q1707.63 1878.43 1703.69 1881.33 Q1699.77 1884.22 1692.9 1884.22 Q1690.03 1884.22 1686.91 1883.65 Q1683.83 1883.11 1680.39 1882 L1680.39 1875.95 Q1683.63 1877.64 1686.79 1878.49 Q1689.94 1879.32 1693.02 1879.32 Q1697.16 1879.32 1699.39 1877.92 Q1701.62 1876.49 1701.62 1873.91 Q1701.62 1871.52 1699.99 1870.25 Q1698.4 1868.98 1692.96 1867.8 L1690.92 1867.32 Q1685.48 1866.18 1683.06 1863.82 Q1680.64 1861.43 1680.64 1857.3 Q1680.64 1852.27 1684.21 1849.53 Q1687.77 1846.79 1694.33 1846.79 Q1697.58 1846.79 1700.44 1847.27 Q1703.31 1847.75 1705.72 1848.7 Z" fill="#000000" fill-rule="nonzero" fill-opacity="1" /><path clip-path="url(#clip160)" d="M1716.04 1833.84 L1721.13 1833.84 Q1725.9 1841.35 1728.26 1848.54 Q1730.65 1855.74 1730.65 1862.84 Q1730.65 1869.96 1728.26 1877.19 Q1725.9 1884.41 1721.13 1891.89 L1716.04 1891.89 Q1720.27 1884.61 1722.34 1877.41 Q1724.44 1870.19 1724.44 1862.84 Q1724.44 1855.48 1722.34 1848.32 Q1720.27 1841.16 1716.04 1833.84 Z" fill="#000000" fill-rule="nonzero" fill-opacity="1" /><polyline clip-path="url(#clip160)" style="stroke:#000000; stroke-linecap:round; stroke-linejoin:round; stroke-width:4; stroke-opacity:1; fill:none" points="253.733,1734.12 253.733,127.792 "/>
<polyline clip-path="url(#clip160)" style="stroke:#000000; stroke-linecap:round; stroke-linejoin:round; stroke-width:4; stroke-opacity:1; fill:none" points="253.733,1658.77 272.631,1658.77 "/>
<polyline clip-path="url(#clip160)" style="stroke:#000000; stroke-linecap:round; stroke-linejoin:round; stroke-width:4; stroke-opacity:1; fill:none" points="253.733,1337.86 272.631,1337.86 "/>
<polyline clip-path="url(#clip160)" style="stroke:#000000; stroke-linecap:round; stroke-linejoin:round; stroke-width:4; stroke-opacity:1; fill:none" points="253.733,1016.96 272.631,1016.96 "/>
<polyline clip-path="url(#clip160)" style="stroke:#000000; stroke-linecap:round; stroke-linejoin:round; stroke-width:4; stroke-opacity:1; fill:none" points="253.733,696.055 272.631,696.055 "/>
<polyline clip-path="url(#clip160)" style="stroke:#000000; stroke-linecap:round; stroke-linejoin:round; stroke-width:4; stroke-opacity:1; fill:none" points="253.733,375.151 272.631,375.151 "/>
<path clip-path="url(#clip160)" d="M151.261 1672.11 L167.58 1672.11 L167.58 1676.05 L145.636 1676.05 L145.636 1672.11 Q148.298 1669.36 152.881 1664.73 Q157.487 1660.08 158.668 1658.73 Q160.913 1656.21 161.793 1654.47 Q162.696 1652.72 162.696 1651.03 Q162.696 1648.27 160.751 1646.53 Q158.83 1644.8 155.728 1644.8 Q153.529 1644.8 151.075 1645.56 Q148.645 1646.33 145.867 1647.88 L145.867 1643.16 Q148.691 1642.02 151.145 1641.44 Q153.599 1640.86 155.636 1640.86 Q161.006 1640.86 164.2 1643.55 Q167.395 1646.23 167.395 1650.72 Q167.395 1652.85 166.585 1654.78 Q165.798 1656.67 163.691 1659.27 Q163.112 1659.94 160.011 1663.16 Q156.909 1666.35 151.261 1672.11 Z" fill="#000000" fill-rule="nonzero" fill-opacity="1" /><path clip-path="url(#clip160)" d="M177.395 1670.17 L182.279 1670.17 L182.279 1676.05 L177.395 1676.05 L177.395 1670.17 Z" fill="#000000" fill-rule="nonzero" fill-opacity="1" /><path clip-path="url(#clip160)" d="M192.51 1641.49 L210.867 1641.49 L210.867 1645.42 L196.793 1645.42 L196.793 1653.9 Q197.811 1653.55 198.83 1653.39 Q199.848 1653.2 200.867 1653.2 Q206.654 1653.2 210.033 1656.37 Q213.413 1659.54 213.413 1664.96 Q213.413 1670.54 209.941 1673.64 Q206.469 1676.72 200.149 1676.72 Q197.973 1676.72 195.705 1676.35 Q193.459 1675.98 191.052 1675.24 L191.052 1670.54 Q193.135 1671.67 195.358 1672.23 Q197.58 1672.78 200.057 1672.78 Q204.061 1672.78 206.399 1670.68 Q208.737 1668.57 208.737 1664.96 Q208.737 1661.35 206.399 1659.24 Q204.061 1657.14 200.057 1657.14 Q198.182 1657.14 196.307 1657.55 Q194.455 1657.97 192.51 1658.85 L192.51 1641.49 Z" fill="#000000" fill-rule="nonzero" fill-opacity="1" /><path clip-path="url(#clip160)" d="M146.284 1320.58 L164.64 1320.58 L164.64 1324.52 L150.566 1324.52 L150.566 1332.99 Q151.585 1332.64 152.603 1332.48 Q153.622 1332.3 154.64 1332.3 Q160.427 1332.3 163.807 1335.47 Q167.186 1338.64 167.186 1344.06 Q167.186 1349.64 163.714 1352.74 Q160.242 1355.82 153.923 1355.82 Q151.747 1355.82 149.478 1355.45 Q147.233 1355.07 144.825 1354.33 L144.825 1349.64 Q146.909 1350.77 149.131 1351.32 Q151.353 1351.88 153.83 1351.88 Q157.835 1351.88 160.173 1349.77 Q162.51 1347.67 162.51 1344.06 Q162.51 1340.45 160.173 1338.34 Q157.835 1336.23 153.83 1336.23 Q151.955 1336.23 150.08 1336.65 Q148.228 1337.07 146.284 1337.95 L146.284 1320.58 Z" fill="#000000" fill-rule="nonzero" fill-opacity="1" /><path clip-path="url(#clip160)" d="M176.399 1349.26 L181.284 1349.26 L181.284 1355.14 L176.399 1355.14 L176.399 1349.26 Z" fill="#000000" fill-rule="nonzero" fill-opacity="1" /><path clip-path="url(#clip160)" d="M201.469 1323.66 Q197.858 1323.66 196.029 1327.23 Q194.223 1330.77 194.223 1337.9 Q194.223 1345.01 196.029 1348.57 Q197.858 1352.11 201.469 1352.11 Q205.103 1352.11 206.908 1348.57 Q208.737 1345.01 208.737 1337.9 Q208.737 1330.77 206.908 1327.23 Q205.103 1323.66 201.469 1323.66 M201.469 1319.96 Q207.279 1319.96 210.334 1324.57 Q213.413 1329.15 213.413 1337.9 Q213.413 1346.63 210.334 1351.23 Q207.279 1355.82 201.469 1355.82 Q195.658 1355.82 192.58 1351.23 Q189.524 1346.63 189.524 1337.9 Q189.524 1329.15 192.58 1324.57 Q195.658 1319.96 201.469 1319.96 Z" fill="#000000" fill-rule="nonzero" fill-opacity="1" /><path clip-path="url(#clip160)" d="M146.052 999.68 L168.274 999.68 L168.274 1001.67 L155.728 1034.24 L150.844 1034.24 L162.649 1003.61 L146.052 1003.61 L146.052 999.68 Z" fill="#000000" fill-rule="nonzero" fill-opacity="1" /><path clip-path="url(#clip160)" d="M177.395 1028.36 L182.279 1028.36 L182.279 1034.24 L177.395 1034.24 L177.395 1028.36 Z" fill="#000000" fill-rule="nonzero" fill-opacity="1" /><path clip-path="url(#clip160)" d="M192.51 999.68 L210.867 999.68 L210.867 1003.61 L196.793 1003.61 L196.793 1012.09 Q197.811 1011.74 198.83 1011.58 Q199.848 1011.39 200.867 1011.39 Q206.654 1011.39 210.033 1014.56 Q213.413 1017.74 213.413 1023.15 Q213.413 1028.73 209.941 1031.83 Q206.469 1034.91 200.149 1034.91 Q197.973 1034.91 195.705 1034.54 Q193.459 1034.17 191.052 1033.43 L191.052 1028.73 Q193.135 1029.86 195.358 1030.42 Q197.58 1030.98 200.057 1030.98 Q204.061 1030.98 206.399 1028.87 Q208.737 1026.76 208.737 1023.15 Q208.737 1019.54 206.399 1017.43 Q204.061 1015.33 200.057 1015.33 Q198.182 1015.33 196.307 1015.74 Q194.455 1016.16 192.51 1017.04 L192.51 999.68 Z" fill="#000000" fill-rule="nonzero" fill-opacity="1" /><path clip-path="url(#clip160)" d="M116.886 709.4 L124.525 709.4 L124.525 683.035 L116.214 684.701 L116.214 680.442 L124.478 678.775 L129.154 678.775 L129.154 709.4 L136.793 709.4 L136.793 713.335 L116.886 713.335 L116.886 709.4 Z" fill="#000000" fill-rule="nonzero" fill-opacity="1" /><path clip-path="url(#clip160)" d="M156.237 681.854 Q152.626 681.854 150.798 685.419 Q148.992 688.961 148.992 696.09 Q148.992 703.197 150.798 706.761 Q152.626 710.303 156.237 710.303 Q159.872 710.303 161.677 706.761 Q163.506 703.197 163.506 696.09 Q163.506 688.961 161.677 685.419 Q159.872 681.854 156.237 681.854 M156.237 678.15 Q162.048 678.15 165.103 682.757 Q168.182 687.34 168.182 696.09 Q168.182 704.817 165.103 709.423 Q162.048 714.007 156.237 714.007 Q150.427 714.007 147.349 709.423 Q144.293 704.817 144.293 696.09 Q144.293 687.34 147.349 682.757 Q150.427 678.15 156.237 678.15 Z" fill="#000000" fill-rule="nonzero" fill-opacity="1" /><path clip-path="url(#clip160)" d="M176.399 707.456 L181.284 707.456 L181.284 713.335 L176.399 713.335 L176.399 707.456 Z" fill="#000000" fill-rule="nonzero" fill-opacity="1" /><path clip-path="url(#clip160)" d="M201.469 681.854 Q197.858 681.854 196.029 685.419 Q194.223 688.961 194.223 696.09 Q194.223 703.197 196.029 706.761 Q197.858 710.303 201.469 710.303 Q205.103 710.303 206.908 706.761 Q208.737 703.197 208.737 696.09 Q208.737 688.961 206.908 685.419 Q205.103 681.854 201.469 681.854 M201.469 678.15 Q207.279 678.15 210.334 682.757 Q213.413 687.34 213.413 696.09 Q213.413 704.817 210.334 709.423 Q207.279 714.007 201.469 714.007 Q195.658 714.007 192.58 709.423 Q189.524 704.817 189.524 696.09 Q189.524 687.34 192.58 682.757 Q195.658 678.15 201.469 678.15 Z" fill="#000000" fill-rule="nonzero" fill-opacity="1" /><path clip-path="url(#clip160)" d="M117.881 388.496 L125.52 388.496 L125.52 362.13 L117.21 363.797 L117.21 359.538 L125.474 357.871 L130.15 357.871 L130.15 388.496 L137.788 388.496 L137.788 392.431 L117.881 392.431 L117.881 388.496 Z" fill="#000000" fill-rule="nonzero" fill-opacity="1" /><path clip-path="url(#clip160)" d="M151.261 388.496 L167.58 388.496 L167.58 392.431 L145.636 392.431 L145.636 388.496 Q148.298 385.741 152.881 381.112 Q157.487 376.459 158.668 375.116 Q160.913 372.593 161.793 370.857 Q162.696 369.098 162.696 367.408 Q162.696 364.653 160.751 362.917 Q158.83 361.181 155.728 361.181 Q153.529 361.181 151.075 361.945 Q148.645 362.709 145.867 364.26 L145.867 359.538 Q148.691 358.403 151.145 357.825 Q153.599 357.246 155.636 357.246 Q161.006 357.246 164.2 359.931 Q167.395 362.616 167.395 367.107 Q167.395 369.237 166.585 371.158 Q165.798 373.056 163.691 375.649 Q163.112 376.32 160.011 379.537 Q156.909 382.732 151.261 388.496 Z" fill="#000000" fill-rule="nonzero" fill-opacity="1" /><path clip-path="url(#clip160)" d="M177.395 386.551 L182.279 386.551 L182.279 392.431 L177.395 392.431 L177.395 386.551 Z" fill="#000000" fill-rule="nonzero" fill-opacity="1" /><path clip-path="url(#clip160)" d="M192.51 357.871 L210.867 357.871 L210.867 361.806 L196.793 361.806 L196.793 370.278 Q197.811 369.931 198.83 369.769 Q199.848 369.584 200.867 369.584 Q206.654 369.584 210.033 372.755 Q213.413 375.926 213.413 381.343 Q213.413 386.922 209.941 390.024 Q206.469 393.102 200.149 393.102 Q197.973 393.102 195.705 392.732 Q193.459 392.361 191.052 391.621 L191.052 386.922 Q193.135 388.056 195.358 388.612 Q197.58 389.167 200.057 389.167 Q204.061 389.167 206.399 387.061 Q208.737 384.954 208.737 381.343 Q208.737 377.732 206.399 375.625 Q204.061 373.519 200.057 373.519 Q198.182 373.519 196.307 373.936 Q194.455 374.352 192.51 375.232 L192.51 357.871 Z" fill="#000000" fill-rule="nonzero" fill-opacity="1" /><path clip-path="url(#clip160)" d="M12.1132 1073.85 L12.1132 1067.99 L61.6384 1067.99 L61.6384 1073.85 L12.1132 1073.85 Z" fill="#000000" fill-rule="nonzero" fill-opacity="1" /><path clip-path="url(#clip160)" d="M30.0964 1041.92 Q30.0964 1046.64 33.7885 1049.37 Q37.4488 1052.11 43.8463 1052.11 Q50.2438 1052.11 53.9359 1049.4 Q57.5962 1046.67 57.5962 1041.92 Q57.5962 1037.25 53.9041 1034.51 Q50.212 1031.77 43.8463 1031.77 Q37.5124 1031.77 33.8203 1034.51 Q30.0964 1037.25 30.0964 1041.92 M25.1311 1041.92 Q25.1311 1034.29 30.0964 1029.93 Q35.0616 1025.56 43.8463 1025.56 Q52.5991 1025.56 57.5962 1029.93 Q62.5615 1034.29 62.5615 1041.92 Q62.5615 1049.6 57.5962 1053.96 Q52.5991 1058.28 43.8463 1058.28 Q35.0616 1058.28 30.0964 1053.96 Q25.1311 1049.6 25.1311 1041.92 Z" fill="#000000" fill-rule="nonzero" fill-opacity="1" /><path clip-path="url(#clip160)" d="M43.4007 992.4 Q37.035 992.4 33.5338 995.041 Q30.0327 997.651 30.0327 1002.39 Q30.0327 1007.1 33.5338 1009.75 Q37.035 1012.36 43.4007 1012.36 Q49.7346 1012.36 53.2357 1009.75 Q56.7368 1007.1 56.7368 1002.39 Q56.7368 997.651 53.2357 995.041 Q49.7346 992.4 43.4007 992.4 M57.2143 986.543 Q66.3172 986.543 70.7414 990.585 Q75.1974 994.628 75.1974 1002.97 Q75.1974 1006.05 74.72 1008.79 Q74.2744 1011.53 73.3195 1014.11 L67.6222 1014.11 Q69.0227 1011.53 69.6911 1009.01 Q70.3595 1006.5 70.3595 1003.89 Q70.3595 998.129 67.3358 995.264 Q64.3439 992.4 58.2646 992.4 L55.3682 992.4 Q58.5192 994.214 60.0788 997.047 Q61.6384 999.879 61.6384 1003.83 Q61.6384 1010.38 56.6414 1014.39 Q51.6443 1018.4 43.4007 1018.4 Q35.1253 1018.4 30.1282 1014.39 Q25.1311 1010.38 25.1311 1003.83 Q25.1311 999.879 26.6907 997.047 Q28.2503 994.214 31.4013 992.4 L25.9905 992.4 L25.9905 986.543 L57.2143 986.543 Z" fill="#000000" fill-rule="nonzero" fill-opacity="1" /><path clip-path="url(#clip160)" d="M58.1373 975.658 L58.1373 969.165 L38.6901 969.165 L39.995 976.262 L36.3029 976.262 L35.0616 968.942 L35.0616 964.581 L58.1373 964.581 L58.1373 958.057 L61.6384 958.057 L61.6384 975.658 L58.1373 975.658 Z" fill="#000000" fill-rule="nonzero" fill-opacity="1" /><path clip-path="url(#clip160)" d="M40.0905 936.349 Q37.3533 937.941 37.3533 941.156 Q37.3533 944.37 40.0905 945.962 Q42.8278 947.585 48.3023 947.585 Q53.8086 947.585 56.5459 945.962 Q59.2831 944.37 59.2831 941.156 Q59.2831 937.941 56.5459 936.349 Q53.8086 934.726 48.3023 934.726 Q42.8278 934.726 40.0905 936.349 M34.5205 941.156 Q34.5205 936.031 38.0535 933.326 Q41.5865 930.62 48.3023 930.62 Q55.0499 930.62 58.5829 933.326 Q62.1159 936.031 62.1159 941.156 Q62.1159 946.312 58.5829 949.017 Q55.0499 951.723 48.3023 951.723 Q41.5865 951.723 38.0535 949.017 Q34.5205 946.312 34.5205 941.156 Z" fill="#000000" fill-rule="nonzero" fill-opacity="1" /><path clip-path="url(#clip160)" d="M14.1184 901.243 L14.1184 892.585 L53.8723 871.515 L14.1184 871.515 L14.1184 865.276 L61.6384 865.276 L61.6384 873.934 L21.8846 895.004 L61.6384 895.004 L61.6384 901.243 L14.1184 901.243 Z" fill="#000000" fill-rule="nonzero" fill-opacity="1" /><path clip-path="url(#clip160)" d="M12.1769 838.668 Q19.4975 842.933 26.6589 845.002 Q33.8203 847.07 41.1727 847.07 Q48.5251 847.07 55.7502 845.002 Q62.9434 842.901 70.2321 838.668 L70.2321 843.76 Q62.7524 848.535 55.5274 850.922 Q48.3023 853.277 41.1727 853.277 Q34.0749 853.277 26.8817 850.922 Q19.6884 848.566 12.1769 843.76 L12.1769 838.668 Z" fill="#000000" fill-rule="nonzero" fill-opacity="1" /><path clip-path="url(#clip160)" d="M15.869 821.512 L25.9905 821.512 L25.9905 809.449 L30.542 809.449 L30.542 821.512 L49.8937 821.512 Q54.2542 821.512 55.4955 820.334 Q56.7368 819.125 56.7368 815.465 L56.7368 809.449 L61.6384 809.449 L61.6384 815.465 Q61.6384 822.244 59.124 824.822 Q56.5777 827.4 49.8937 827.4 L30.542 827.4 L30.542 831.697 L25.9905 831.697 L25.9905 827.4 L15.869 827.4 L15.869 821.512 Z" fill="#000000" fill-rule="nonzero" fill-opacity="1" /><path clip-path="url(#clip160)" d="M12.1769 802.67 L12.1769 797.577 Q19.6884 792.803 26.8817 790.447 Q34.0749 788.06 41.1727 788.06 Q48.3023 788.06 55.5274 790.447 Q62.7524 792.803 70.2321 797.577 L70.2321 802.67 Q62.9434 798.436 55.7502 796.368 Q48.5251 794.267 41.1727 794.267 Q33.8203 794.267 26.6589 796.368 Q19.4975 798.436 12.1769 802.67 Z" fill="#000000" fill-rule="nonzero" fill-opacity="1" /><path clip-path="url(#clip160)" d="M826.504 14.0809 L826.504 22.0612 Q821.846 19.8332 817.714 18.7395 Q813.582 17.6457 809.733 17.6457 Q803.049 17.6457 799.404 20.2383 Q795.798 22.8309 795.798 27.611 Q795.798 31.6214 798.188 33.6873 Q800.619 35.7128 807.343 36.9686 L812.285 37.9813 Q821.441 39.7232 825.775 44.1387 Q830.15 48.5136 830.15 55.8863 Q830.15 64.6767 824.236 69.2137 Q818.362 73.7508 806.979 73.7508 Q802.685 73.7508 797.824 72.7785 Q793.003 71.8063 787.818 69.9024 L787.818 61.4765 Q792.801 64.2716 797.581 65.6895 Q802.361 67.1073 806.979 67.1073 Q813.987 67.1073 817.795 64.3527 Q821.603 61.598 821.603 56.4939 Q821.603 52.0379 818.848 49.5264 Q816.134 47.0148 809.895 45.759 L804.913 44.7868 Q795.758 42.9639 791.666 39.075 Q787.575 35.1862 787.575 28.2591 Q787.575 20.2383 793.206 15.6203 Q798.877 11.0023 808.802 11.0023 Q813.055 11.0023 817.471 11.7719 Q821.886 12.5416 826.504 14.0809 Z" fill="#000000" fill-rule="nonzero" fill-opacity="1" /><path clip-path="url(#clip160)" d="M849.959 14.324 L849.959 27.2059 L865.312 27.2059 L865.312 32.9987 L849.959 32.9987 L849.959 57.6282 Q849.959 63.1779 851.458 64.7578 Q852.997 66.3376 857.656 66.3376 L865.312 66.3376 L865.312 72.576 L857.656 72.576 Q849.027 72.576 845.746 69.3758 Q842.465 66.1351 842.465 57.6282 L842.465 32.9987 L836.996 32.9987 L836.996 27.2059 L842.465 27.2059 L842.465 14.324 L849.959 14.324 Z" fill="#000000" fill-rule="nonzero" fill-opacity="1" /><path clip-path="url(#clip160)" d="M892.696 32.4315 Q886.701 32.4315 883.217 37.1306 Q879.733 41.7891 879.733 49.9314 Q879.733 58.0738 883.176 62.7728 Q886.66 67.4314 892.696 67.4314 Q898.651 67.4314 902.135 62.7323 Q905.618 58.0333 905.618 49.9314 Q905.618 41.8701 902.135 37.1711 Q898.651 32.4315 892.696 32.4315 M892.696 26.1121 Q902.418 26.1121 907.968 32.4315 Q913.518 38.7509 913.518 49.9314 Q913.518 61.0714 907.968 67.4314 Q902.418 73.7508 892.696 73.7508 Q882.933 73.7508 877.383 67.4314 Q871.874 61.0714 871.874 49.9314 Q871.874 38.7509 877.383 32.4315 Q882.933 26.1121 892.696 26.1121 Z" fill="#000000" fill-rule="nonzero" fill-opacity="1" /><path clip-path="url(#clip160)" d="M958.523 28.9478 L958.523 35.9153 Q955.363 34.1734 952.163 33.3227 Q949.003 32.4315 945.763 32.4315 Q938.512 32.4315 934.501 37.0496 Q930.491 41.6271 930.491 49.9314 Q930.491 58.2358 934.501 62.8538 Q938.512 67.4314 945.763 67.4314 Q949.003 67.4314 952.163 66.5807 Q955.363 65.6895 958.523 63.9476 L958.523 70.8341 Q955.404 72.2924 952.042 73.0216 Q948.72 73.7508 944.953 73.7508 Q934.704 73.7508 928.668 67.3098 Q922.632 60.8689 922.632 49.9314 Q922.632 38.832 928.708 32.472 Q934.825 26.1121 945.439 26.1121 Q948.882 26.1121 952.163 26.8413 Q955.444 27.5299 958.523 28.9478 Z" fill="#000000" fill-rule="nonzero" fill-opacity="1" /><path clip-path="url(#clip160)" d="M1009.2 45.1919 L1009.2 72.576 L1001.75 72.576 L1001.75 45.4349 Q1001.75 38.994 999.235 35.7938 Q996.723 32.5936 991.7 32.5936 Q985.664 32.5936 982.18 36.4419 Q978.697 40.2903 978.697 46.9338 L978.697 72.576 L971.202 72.576 L971.202 9.54393 L978.697 9.54393 L978.697 34.2544 Q981.37 30.163 984.976 28.1376 Q988.621 26.1121 993.361 26.1121 Q1001.18 26.1121 1005.19 30.9732 Q1009.2 35.7938 1009.2 45.1919 Z" fill="#000000" fill-rule="nonzero" fill-opacity="1" /><path clip-path="url(#clip160)" d="M1044.69 49.7694 Q1035.65 49.7694 1032.17 51.8354 Q1028.68 53.9013 1028.68 58.8839 Q1028.68 62.8538 1031.28 65.2034 Q1033.91 67.5124 1038.41 67.5124 Q1044.6 67.5124 1048.33 63.1374 Q1052.1 58.7219 1052.1 51.4303 L1052.1 49.7694 L1044.69 49.7694 M1059.55 46.6907 L1059.55 72.576 L1052.1 72.576 L1052.1 65.6895 Q1049.55 69.8214 1045.74 71.8063 Q1041.93 73.7508 1036.42 73.7508 Q1029.45 73.7508 1025.32 69.8619 Q1021.23 65.9325 1021.23 59.3701 Q1021.23 51.7138 1026.34 47.825 Q1031.48 43.9361 1041.65 43.9361 L1052.1 43.9361 L1052.1 43.2069 Q1052.1 38.0623 1048.7 35.2672 Q1045.33 32.4315 1039.22 32.4315 Q1035.33 32.4315 1031.64 33.3632 Q1027.96 34.295 1024.55 36.1584 L1024.55 29.2718 Q1028.64 27.692 1032.49 26.9223 Q1036.34 26.1121 1039.99 26.1121 Q1049.83 26.1121 1054.69 31.2163 Q1059.55 36.3204 1059.55 46.6907 Z" fill="#000000" fill-rule="nonzero" fill-opacity="1" /><path clip-path="url(#clip160)" d="M1103.83 28.5427 L1103.83 35.5912 Q1100.67 33.9709 1097.27 33.1607 Q1093.86 32.3505 1090.22 32.3505 Q1084.67 32.3505 1081.87 34.0519 Q1079.12 35.7533 1079.12 39.156 Q1079.12 41.7486 1081.1 43.2475 Q1083.09 44.7058 1089.08 46.0426 L1091.64 46.6097 Q1099.58 48.3111 1102.9 51.4303 Q1106.26 54.509 1106.26 60.0587 Q1106.26 66.3781 1101.24 70.0644 Q1096.25 73.7508 1087.5 73.7508 Q1083.86 73.7508 1079.89 73.0216 Q1075.96 72.3329 1071.58 70.9151 L1071.58 63.2184 Q1075.72 65.3654 1079.73 66.4591 Q1083.74 67.5124 1087.67 67.5124 Q1092.93 67.5124 1095.77 65.73 Q1098.6 63.9071 1098.6 60.6258 Q1098.6 57.5877 1096.54 55.9673 Q1094.51 54.3469 1087.58 52.8481 L1084.99 52.2405 Q1078.07 50.7821 1074.99 47.7845 Q1071.91 44.7463 1071.91 39.4801 Q1071.91 33.0797 1076.44 29.5959 Q1080.98 26.1121 1089.33 26.1121 Q1093.46 26.1121 1097.1 26.7198 Q1100.75 27.3274 1103.83 28.5427 Z" fill="#000000" fill-rule="nonzero" fill-opacity="1" /><path clip-path="url(#clip160)" d="M1125.5 14.324 L1125.5 27.2059 L1140.85 27.2059 L1140.85 32.9987 L1125.5 32.9987 L1125.5 57.6282 Q1125.5 63.1779 1127 64.7578 Q1128.54 66.3376 1133.2 66.3376 L1140.85 66.3376 L1140.85 72.576 L1133.2 72.576 Q1124.57 72.576 1121.29 69.3758 Q1118.01 66.1351 1118.01 57.6282 L1118.01 32.9987 L1112.54 32.9987 L1112.54 27.2059 L1118.01 27.2059 L1118.01 14.324 L1125.5 14.324 Z" fill="#000000" fill-rule="nonzero" fill-opacity="1" /><path clip-path="url(#clip160)" d="M1150.66 27.2059 L1158.11 27.2059 L1158.11 72.576 L1150.66 72.576 L1150.66 27.2059 M1150.66 9.54393 L1158.11 9.54393 L1158.11 18.9825 L1150.66 18.9825 L1150.66 9.54393 Z" fill="#000000" fill-rule="nonzero" fill-opacity="1" /><path clip-path="url(#clip160)" d="M1206.36 28.9478 L1206.36 35.9153 Q1203.2 34.1734 1200 33.3227 Q1196.84 32.4315 1193.6 32.4315 Q1186.35 32.4315 1182.34 37.0496 Q1178.33 41.6271 1178.33 49.9314 Q1178.33 58.2358 1182.34 62.8538 Q1186.35 67.4314 1193.6 67.4314 Q1196.84 67.4314 1200 66.5807 Q1203.2 65.6895 1206.36 63.9476 L1206.36 70.8341 Q1203.24 72.2924 1199.88 73.0216 Q1196.55 73.7508 1192.79 73.7508 Q1182.54 73.7508 1176.5 67.3098 Q1170.47 60.8689 1170.47 49.9314 Q1170.47 38.832 1176.54 32.472 Q1182.66 26.1121 1193.27 26.1121 Q1196.72 26.1121 1200 26.8413 Q1203.28 27.5299 1206.36 28.9478 Z" fill="#000000" fill-rule="nonzero" fill-opacity="1" /><path clip-path="url(#clip160)" d="M1252.9 65.7705 L1252.9 89.8329 L1245.41 89.8329 L1245.41 27.2059 L1252.9 27.2059 L1252.9 34.0924 Q1255.25 30.0415 1258.82 28.0971 Q1262.42 26.1121 1267.4 26.1121 Q1275.67 26.1121 1280.81 32.6746 Q1286 39.2371 1286 49.9314 Q1286 60.6258 1280.81 67.1883 Q1275.67 73.7508 1267.4 73.7508 Q1262.42 73.7508 1258.82 71.8063 Q1255.25 69.8214 1252.9 65.7705 M1278.26 49.9314 Q1278.26 41.7081 1274.86 37.0496 Q1271.5 32.3505 1265.58 32.3505 Q1259.67 32.3505 1256.26 37.0496 Q1252.9 41.7081 1252.9 49.9314 Q1252.9 58.1548 1256.26 62.8538 Q1259.67 67.5124 1265.58 67.5124 Q1271.5 67.5124 1274.86 62.8538 Q1278.26 58.1548 1278.26 49.9314 Z" fill="#000000" fill-rule="nonzero" fill-opacity="1" /><path clip-path="url(#clip160)" d="M1315.93 32.4315 Q1309.94 32.4315 1306.46 37.1306 Q1302.97 41.7891 1302.97 49.9314 Q1302.97 58.0738 1306.41 62.7728 Q1309.9 67.4314 1315.93 67.4314 Q1321.89 67.4314 1325.37 62.7323 Q1328.86 58.0333 1328.86 49.9314 Q1328.86 41.8701 1325.37 37.1711 Q1321.89 32.4315 1315.93 32.4315 M1315.93 26.1121 Q1325.66 26.1121 1331.21 32.4315 Q1336.76 38.7509 1336.76 49.9314 Q1336.76 61.0714 1331.21 67.4314 Q1325.66 73.7508 1315.93 73.7508 Q1306.17 73.7508 1300.62 67.4314 Q1295.11 61.0714 1295.11 49.9314 Q1295.11 38.7509 1300.62 32.4315 Q1306.17 26.1121 1315.93 26.1121 Z" fill="#000000" fill-rule="nonzero" fill-opacity="1" /><path clip-path="url(#clip160)" d="M1356.32 65.7705 L1356.32 89.8329 L1348.83 89.8329 L1348.83 27.2059 L1356.32 27.2059 L1356.32 34.0924 Q1358.67 30.0415 1362.24 28.0971 Q1365.84 26.1121 1370.82 26.1121 Q1379.09 26.1121 1384.23 32.6746 Q1389.42 39.2371 1389.42 49.9314 Q1389.42 60.6258 1384.23 67.1883 Q1379.09 73.7508 1370.82 73.7508 Q1365.84 73.7508 1362.24 71.8063 Q1358.67 69.8214 1356.32 65.7705 M1381.68 49.9314 Q1381.68 41.7081 1378.28 37.0496 Q1374.92 32.3505 1369 32.3505 Q1363.09 32.3505 1359.68 37.0496 Q1356.32 41.7081 1356.32 49.9314 Q1356.32 58.1548 1359.68 62.8538 Q1363.09 67.5124 1369 67.5124 Q1374.92 67.5124 1378.28 62.8538 Q1381.68 58.1548 1381.68 49.9314 Z" fill="#000000" fill-rule="nonzero" fill-opacity="1" /><path clip-path="url(#clip160)" d="M1401 54.671 L1401 27.2059 L1408.46 27.2059 L1408.46 54.3874 Q1408.46 60.8284 1410.97 64.0691 Q1413.48 67.2693 1418.5 67.2693 Q1424.54 67.2693 1428.02 63.421 Q1431.55 59.5726 1431.55 52.9291 L1431.55 27.2059 L1439 27.2059 L1439 72.576 L1431.55 72.576 L1431.55 65.6084 Q1428.83 69.7404 1425.23 71.7658 Q1421.66 73.7508 1416.92 73.7508 Q1409.11 73.7508 1405.05 68.8897 Q1401 64.0286 1401 54.671 M1419.76 26.1121 L1419.76 26.1121 Z" fill="#000000" fill-rule="nonzero" fill-opacity="1" /><path clip-path="url(#clip160)" d="M1454.35 9.54393 L1461.81 9.54393 L1461.81 72.576 L1454.35 72.576 L1454.35 9.54393 Z" fill="#000000" fill-rule="nonzero" fill-opacity="1" /><path clip-path="url(#clip160)" d="M1498.02 49.7694 Q1488.99 49.7694 1485.51 51.8354 Q1482.02 53.9013 1482.02 58.8839 Q1482.02 62.8538 1484.61 65.2034 Q1487.25 67.5124 1491.74 67.5124 Q1497.94 67.5124 1501.67 63.1374 Q1505.44 58.7219 1505.44 51.4303 L1505.44 49.7694 L1498.02 49.7694 M1512.89 46.6907 L1512.89 72.576 L1505.44 72.576 L1505.44 65.6895 Q1502.88 69.8214 1499.08 71.8063 Q1495.27 73.7508 1489.76 73.7508 Q1482.79 73.7508 1478.66 69.8619 Q1474.57 65.9325 1474.57 59.3701 Q1474.57 51.7138 1479.67 47.825 Q1484.82 43.9361 1494.98 43.9361 L1505.44 43.9361 L1505.44 43.2069 Q1505.44 38.0623 1502.03 35.2672 Q1498.67 32.4315 1492.55 32.4315 Q1488.66 32.4315 1484.98 33.3632 Q1481.29 34.295 1477.89 36.1584 L1477.89 29.2718 Q1481.98 27.692 1485.83 26.9223 Q1489.68 26.1121 1493.32 26.1121 Q1503.17 26.1121 1508.03 31.2163 Q1512.89 36.3204 1512.89 46.6907 Z" fill="#000000" fill-rule="nonzero" fill-opacity="1" /><path clip-path="url(#clip160)" d="M1535.61 14.324 L1535.61 27.2059 L1550.97 27.2059 L1550.97 32.9987 L1535.61 32.9987 L1535.61 57.6282 Q1535.61 63.1779 1537.11 64.7578 Q1538.65 66.3376 1543.31 66.3376 L1550.97 66.3376 L1550.97 72.576 L1543.31 72.576 Q1534.68 72.576 1531.4 69.3758 Q1528.12 66.1351 1528.12 57.6282 L1528.12 32.9987 L1522.65 32.9987 L1522.65 27.2059 L1528.12 27.2059 L1528.12 14.324 L1535.61 14.324 Z" fill="#000000" fill-rule="nonzero" fill-opacity="1" /><path clip-path="url(#clip160)" d="M1560.77 27.2059 L1568.22 27.2059 L1568.22 72.576 L1560.77 72.576 L1560.77 27.2059 M1560.77 9.54393 L1568.22 9.54393 L1568.22 18.9825 L1560.77 18.9825 L1560.77 9.54393 Z" fill="#000000" fill-rule="nonzero" fill-opacity="1" /><path clip-path="url(#clip160)" d="M1601.4 32.4315 Q1595.41 32.4315 1591.92 37.1306 Q1588.44 41.7891 1588.44 49.9314 Q1588.44 58.0738 1591.88 62.7728 Q1595.37 67.4314 1601.4 67.4314 Q1607.36 67.4314 1610.84 62.7323 Q1614.32 58.0333 1614.32 49.9314 Q1614.32 41.8701 1610.84 37.1711 Q1607.36 32.4315 1601.4 32.4315 M1601.4 26.1121 Q1611.12 26.1121 1616.67 32.4315 Q1622.22 38.7509 1622.22 49.9314 Q1622.22 61.0714 1616.67 67.4314 Q1611.12 73.7508 1601.4 73.7508 Q1591.64 73.7508 1586.09 67.4314 Q1580.58 61.0714 1580.58 49.9314 Q1580.58 38.7509 1586.09 32.4315 Q1591.64 26.1121 1601.4 26.1121 Z" fill="#000000" fill-rule="nonzero" fill-opacity="1" /><path clip-path="url(#clip160)" d="M1672.29 45.1919 L1672.29 72.576 L1664.84 72.576 L1664.84 45.4349 Q1664.84 38.994 1662.33 35.7938 Q1659.82 32.5936 1654.79 32.5936 Q1648.76 32.5936 1645.27 36.4419 Q1641.79 40.2903 1641.79 46.9338 L1641.79 72.576 L1634.29 72.576 L1634.29 27.2059 L1641.79 27.2059 L1641.79 34.2544 Q1644.46 30.163 1648.07 28.1376 Q1651.71 26.1121 1656.45 26.1121 Q1664.27 26.1121 1668.28 30.9732 Q1672.29 35.7938 1672.29 45.1919 Z" fill="#000000" fill-rule="nonzero" fill-opacity="1" /><path clip-path="url(#clip160)" d="M1720.9 14.324 L1720.9 27.2059 L1736.26 27.2059 L1736.26 32.9987 L1720.9 32.9987 L1720.9 57.6282 Q1720.9 63.1779 1722.4 64.7578 Q1723.94 66.3376 1728.6 66.3376 L1736.26 66.3376 L1736.26 72.576 L1728.6 72.576 Q1719.97 72.576 1716.69 69.3758 Q1713.41 66.1351 1713.41 57.6282 L1713.41 32.9987 L1707.94 32.9987 L1707.94 27.2059 L1713.41 27.2059 L1713.41 14.324 L1720.9 14.324 Z" fill="#000000" fill-rule="nonzero" fill-opacity="1" /><path clip-path="url(#clip160)" d="M1772.35 34.1734 Q1771.09 33.4443 1769.6 33.1202 Q1768.14 32.7556 1766.35 32.7556 Q1760.04 32.7556 1756.63 36.8875 Q1753.27 40.9789 1753.27 48.6757 L1753.27 72.576 L1745.78 72.576 L1745.78 27.2059 L1753.27 27.2059 L1753.27 34.2544 Q1755.62 30.1225 1759.39 28.1376 Q1763.15 26.1121 1768.54 26.1121 Q1769.31 26.1121 1770.24 26.2337 Q1771.18 26.3147 1772.31 26.5172 L1772.35 34.1734 Z" fill="#000000" fill-rule="nonzero" fill-opacity="1" /><path clip-path="url(#clip160)" d="M1800.79 49.7694 Q1791.75 49.7694 1788.27 51.8354 Q1784.79 53.9013 1784.79 58.8839 Q1784.79 62.8538 1787.38 65.2034 Q1790.01 67.5124 1794.51 67.5124 Q1800.71 67.5124 1804.43 63.1374 Q1808.2 58.7219 1808.2 51.4303 L1808.2 49.7694 L1800.79 49.7694 M1815.65 46.6907 L1815.65 72.576 L1808.2 72.576 L1808.2 65.6895 Q1805.65 69.8214 1801.84 71.8063 Q1798.03 73.7508 1792.52 73.7508 Q1785.56 73.7508 1781.42 69.8619 Q1777.33 65.9325 1777.33 59.3701 Q1777.33 51.7138 1782.44 47.825 Q1787.58 43.9361 1797.75 43.9361 L1808.2 43.9361 L1808.2 43.2069 Q1808.2 38.0623 1804.8 35.2672 Q1801.44 32.4315 1795.32 32.4315 Q1791.43 32.4315 1787.74 33.3632 Q1784.06 34.295 1780.65 36.1584 L1780.65 29.2718 Q1784.75 27.692 1788.59 26.9223 Q1792.44 26.1121 1796.09 26.1121 Q1805.93 26.1121 1810.79 31.2163 Q1815.65 36.3204 1815.65 46.6907 Z" fill="#000000" fill-rule="nonzero" fill-opacity="1" /><path clip-path="url(#clip160)" d="M1831.01 27.2059 L1838.46 27.2059 L1838.46 73.3862 Q1838.46 82.0551 1835.14 85.944 Q1831.86 89.8329 1824.53 89.8329 L1821.69 89.8329 L1821.69 83.5134 L1823.67 83.5134 Q1827.93 83.5134 1829.47 81.5285 Q1831.01 79.5841 1831.01 73.3862 L1831.01 27.2059 M1831.01 9.54393 L1838.46 9.54393 L1838.46 18.9825 L1831.01 18.9825 L1831.01 9.54393 Z" fill="#000000" fill-rule="nonzero" fill-opacity="1" /><path clip-path="url(#clip160)" d="M1892.86 48.0275 L1892.86 51.6733 L1858.59 51.6733 Q1859.08 59.3701 1863.21 63.421 Q1867.38 67.4314 1874.8 67.4314 Q1879.09 67.4314 1883.1 66.3781 Q1887.15 65.3249 1891.12 63.2184 L1891.12 70.267 Q1887.11 71.9684 1882.9 72.8596 Q1878.69 73.7508 1874.35 73.7508 Q1863.5 73.7508 1857.14 67.4314 Q1850.82 61.1119 1850.82 50.3365 Q1850.82 39.1965 1856.81 32.6746 Q1862.85 26.1121 1873.06 26.1121 Q1882.21 26.1121 1887.52 32.0264 Q1892.86 37.9003 1892.86 48.0275 M1885.41 45.84 Q1885.33 39.7232 1881.97 36.0774 Q1878.65 32.4315 1873.14 32.4315 Q1866.9 32.4315 1863.13 35.9558 Q1859.4 39.4801 1858.84 45.8805 L1885.41 45.84 Z" fill="#000000" fill-rule="nonzero" fill-opacity="1" /><path clip-path="url(#clip160)" d="M1937.75 28.9478 L1937.75 35.9153 Q1934.59 34.1734 1931.39 33.3227 Q1928.23 32.4315 1924.99 32.4315 Q1917.74 32.4315 1913.73 37.0496 Q1909.72 41.6271 1909.72 49.9314 Q1909.72 58.2358 1913.73 62.8538 Q1917.74 67.4314 1924.99 67.4314 Q1928.23 67.4314 1931.39 66.5807 Q1934.59 65.6895 1937.75 63.9476 L1937.75 70.8341 Q1934.63 72.2924 1931.27 73.0216 Q1927.95 73.7508 1924.18 73.7508 Q1913.93 73.7508 1907.89 67.3098 Q1901.86 60.8689 1901.86 49.9314 Q1901.86 38.832 1907.93 32.472 Q1914.05 26.1121 1924.66 26.1121 Q1928.11 26.1121 1931.39 26.8413 Q1934.67 27.5299 1937.75 28.9478 Z" fill="#000000" fill-rule="nonzero" fill-opacity="1" /><path clip-path="url(#clip160)" d="M1958.08 14.324 L1958.08 27.2059 L1973.44 27.2059 L1973.44 32.9987 L1958.08 32.9987 L1958.08 57.6282 Q1958.08 63.1779 1959.58 64.7578 Q1961.12 66.3376 1965.78 66.3376 L1973.44 66.3376 L1973.44 72.576 L1965.78 72.576 Q1957.15 72.576 1953.87 69.3758 Q1950.59 66.1351 1950.59 57.6282 L1950.59 32.9987 L1945.12 32.9987 L1945.12 27.2059 L1950.59 27.2059 L1950.59 14.324 L1958.08 14.324 Z" fill="#000000" fill-rule="nonzero" fill-opacity="1" /><path clip-path="url(#clip160)" d="M2000.82 32.4315 Q1994.83 32.4315 1991.34 37.1306 Q1987.86 41.7891 1987.86 49.9314 Q1987.86 58.0738 1991.3 62.7728 Q1994.78 67.4314 2000.82 67.4314 Q2006.78 67.4314 2010.26 62.7323 Q2013.74 58.0333 2013.74 49.9314 Q2013.74 41.8701 2010.26 37.1711 Q2006.78 32.4315 2000.82 32.4315 M2000.82 26.1121 Q2010.54 26.1121 2016.09 32.4315 Q2021.64 38.7509 2021.64 49.9314 Q2021.64 61.0714 2016.09 67.4314 Q2010.54 73.7508 2000.82 73.7508 Q1991.06 73.7508 1985.51 67.4314 Q1980 61.0714 1980 49.9314 Q1980 38.7509 1985.51 32.4315 Q1991.06 26.1121 2000.82 26.1121 Z" fill="#000000" fill-rule="nonzero" fill-opacity="1" /><path clip-path="url(#clip160)" d="M2060.29 34.1734 Q2059.03 33.4443 2057.53 33.1202 Q2056.08 32.7556 2054.29 32.7556 Q2047.97 32.7556 2044.57 36.8875 Q2041.21 40.9789 2041.21 48.6757 L2041.21 72.576 L2033.71 72.576 L2033.71 27.2059 L2041.21 27.2059 L2041.21 34.2544 Q2043.56 30.1225 2047.33 28.1376 Q2051.09 26.1121 2056.48 26.1121 Q2057.25 26.1121 2058.18 26.2337 Q2059.11 26.3147 2060.25 26.5172 L2060.29 34.1734 Z" fill="#000000" fill-rule="nonzero" fill-opacity="1" /><path clip-path="url(#clip160)" d="M2086.98 76.7889 Q2083.82 84.8907 2080.83 87.3618 Q2077.83 89.8329 2072.81 89.8329 L2066.85 89.8329 L2066.85 83.5945 L2071.23 83.5945 Q2074.3 83.5945 2076.01 82.1361 Q2077.71 80.6778 2079.77 75.2496 L2081.11 71.8468 L2062.76 27.2059 L2070.66 27.2059 L2084.84 62.6918 L2099.01 27.2059 L2106.91 27.2059 L2086.98 76.7889 Z" fill="#000000" fill-rule="nonzero" fill-opacity="1" /><polyline clip-path="url(#clip161)" style="stroke:#0000ff; stroke-linecap:round; stroke-linejoin:round; stroke-width:4; stroke-opacity:0.7; fill:none" points="321.29,1688.65 332.55,1680.73 343.809,1624.87 355.069,1604.44 366.328,1645.38 377.588,1666.66 388.848,1619.65 400.107,1652.29 411.367,1666.14 422.626,1616.54 433.886,1593.75 445.145,1631.33 456.405,1650.22 467.664,1602.18 478.924,1576.83 490.183,1612.93 501.443,1570.65 512.702,1549.13 523.962,1525.44 535.222,1505.19 546.481,1484.25 557.741,1462.43 569,1497.33 580.26,1451.47 591.519,1486.24 602.779,1438.52 614.038,1416.61 625.298,1394.86 636.557,1432.61 647.817,1389.13 659.077,1423.63 670.336,1375.05 681.596,1352.46 692.855,1388.41 704.115,1345.85 715.374,1323.76 726.634,1299.96 737.893,1336.82 749.153,1292.86 760.412,1327.81 771.672,1279.73 782.931,1315.72 794.191,1269.36 805.451,1306.06 816.71,1259.89 827.97,1238.19 839.229,1273.53 850.489,1230.22 861.748,1265.84 873.008,1279.93 884.267,1292.44 895.527,1239.93 906.786,1217.43 918.046,1255.88 929.306,1275.47 940.565,1227.82 951.825,1202.16 963.084,1180.05 974.344,1218.38 985.603,1235.9 996.863,1186.33 1008.12,1220.01 1019.38,1173.12 1030.64,1152.62 1041.9,1188.78 1053.16,1206.44 1064.42,1219.53 1075.68,1166.38 1086.94,1142.79 1098.2,1123.81 1109.46,1163.05 1120.72,1120.73 1131.98,1154.63 1143.24,1167.33 1154.5,1179.24 1165.76,1126.73 1177.02,1163.53 1188.27,1120.04 1199.53,1158.13 1210.79,1173.56 1222.05,1124 1233.31,1158.75 1244.57,1174.45 1255.83,1188.58 1267.09,1137.14 1278.35,1173.41 1289.61,1190.39 1300.87,1143.21 1312.13,1119.91 1323.39,1156.53 1334.65,1174.74 1345.91,1126.37 1357.17,1160.5 1368.43,1175.54 1379.69,1126.8 1390.95,1103.78 1402.21,1083.66 1413.47,1066.04 1424.73,1101.98 1435.98,1117.1 1447.24,1065.61 1458.5,1040.28 1469.76,1077.41 1481.02,1036.28 1492.28,1072.52 1503.54,1086.41 1514.8,1035.76 1526.06,1011.69 1537.32,1049.09 1548.58,1008.08 1559.84,986.451 1571.1,1020.22 1582.36,1036.26 1593.62,1048.96 1604.88,1059.66 1616.14,1070.86 1627.4,1083.07 1638.66,1096 1649.92,1109.2 1661.18,1059.14 1672.44,1038.39 1683.69,1076.81 1694.95,1036.46 1706.21,1014.07 1717.47,989.032 1728.73,968.201 1739.99,1004.47 1751.25,960.012 1762.51,994.651 1773.77,946.468 1785.03,982.558 1796.29,936.333 1807.55,973.057 1818.81,988.248 1830.07,938.965 1841.33,974.115 1852.59,928.511 1863.85,965.969 1875.11,920.358 1886.37,956.618 1897.63,909.828 1908.89,946.028 1920.15,961.002 1931.4,911.673 1942.66,946.959 1953.92,901.488 1965.18,881.24 1976.44,916.911 1987.7,934.181 1998.96,884.887 2010.22,919.121 2021.48,934.396 2032.74,885.91 2044,921.712 2055.26,876.535 2066.52,856.163 2077.78,891.666 2089.04,848.325 2100.3,825.605 2111.56,859.973 2122.82,815.729 2134.08,793.407 2145.34,770.299 2156.6,807.505 2167.86,763.776 2179.11,740.344 2190.37,716.259 2201.63,696.394 2212.89,676.01 2224.15,654.363 2235.41,689.118 2246.67,704.141 2257.93,653.243 2269.19,687.824 2280.45,703.634 2291.71,717.958 2302.97,729.834 2314.23,677.938 2325.49,715.013 2336.75,732.675 2348.01,747.845 2359.27,696.516 2370.53,673.229 2381.79,710.979 2393.05,730.126 2404.31,744.067 2415.57,754.385 2426.82,764.856 2438.08,712.817 2449.34,692.042 2460.6,731.1 2471.86,750.91 2483.12,703.093 2494.38,677.078 2505.64,654.842 2516.9,636.756 2528.16,673.455 2539.42,628.739 2550.68,604.155 2561.94,638.332 2573.2,594.156 "/>
<polyline clip-path="url(#clip161)" style="stroke:#ff0000; stroke-linecap:round; stroke-linejoin:round; stroke-width:8; stroke-opacity:1; fill:none" stroke-dasharray="32, 20" points="321.29,1688.65 332.55,1638.12 343.809,1628.05 355.069,1623.48 366.328,1621.84 377.588,1617.12 388.848,1609.16 400.107,1600.12 411.367,1591.76 422.626,1584.35 433.886,1577.36 445.145,1570.29 456.405,1562.96 467.664,1555.48 478.924,1547.99 490.183,1540.56 501.443,1533.19 512.702,1525.83 523.962,1518.45 535.222,1511.06 546.481,1503.66 557.741,1496.26 569,1488.87 580.26,1481.48 591.519,1474.09 602.779,1466.7 614.038,1459.31 625.298,1451.92 636.557,1444.53 647.817,1437.13 659.077,1429.74 670.336,1422.35 681.596,1414.96 692.855,1407.57 704.115,1400.18 715.374,1392.79 726.634,1385.4 737.893,1378.01 749.153,1370.61 760.412,1363.22 771.672,1355.83 782.931,1348.44 794.191,1341.05 805.451,1333.66 816.71,1326.27 827.97,1318.88 839.229,1311.49 850.489,1304.09 861.748,1296.7 873.008,1289.31 884.267,1281.92 895.527,1274.53 906.786,1267.14 918.046,1259.75 929.306,1252.36 940.565,1244.97 951.825,1237.57 963.084,1230.18 974.344,1222.79 985.603,1215.4 996.863,1208.01 1008.12,1200.62 1019.38,1193.23 1030.64,1185.84 1041.9,1178.45 1053.16,1171.05 1064.42,1163.66 1075.68,1156.27 1086.94,1148.88 1098.2,1141.49 1109.46,1134.1 1120.72,1126.71 1131.98,1119.32 1143.24,1111.93 1154.5,1104.53 1165.76,1097.14 1177.02,1089.75 1188.27,1082.36 1199.53,1074.97 1210.79,1067.58 1222.05,1060.19 1233.31,1052.8 1244.57,1045.41 1255.83,1038.01 1267.09,1030.62 1278.35,1023.23 1289.61,1015.84 1300.87,1008.45 1312.13,1001.06 1323.39,993.668 1334.65,986.277 1345.91,978.885 1357.17,971.494 1368.43,964.103 1379.69,956.712 1390.95,949.321 1402.21,941.93 1413.47,934.539 1424.73,927.148 1435.98,919.757 1447.24,912.365 1458.5,904.974 1469.76,897.583 1481.02,890.192 1492.28,882.801 1503.54,875.41 1514.8,868.019 1526.06,860.628 1537.32,853.237 1548.58,845.845 1559.84,838.454 1571.1,831.063 1582.36,823.672 1593.62,816.281 1604.88,808.89 1616.14,801.499 1627.4,794.108 1638.66,786.717 1649.92,779.325 1661.18,771.934 1672.44,764.543 1683.69,757.152 1694.95,749.761 1706.21,742.37 1717.47,734.979 1728.73,727.588 1739.99,720.197 1751.25,712.805 1762.51,705.414 1773.77,698.023 1785.03,690.632 1796.29,683.241 1807.55,675.85 1818.81,668.459 1830.07,661.068 1841.33,653.677 1852.59,646.285 1863.85,638.894 1875.11,631.503 1886.37,624.112 1897.63,616.721 1908.89,609.33 1920.15,601.939 1931.4,594.548 1942.66,587.156 1953.92,579.765 1965.18,572.374 1976.44,564.983 1987.7,557.592 1998.96,550.201 2010.22,542.81 2021.48,535.419 2032.74,528.028 2044,520.636 2055.26,513.245 2066.52,505.854 2077.78,498.463 2089.04,491.072 2100.3,483.681 2111.56,476.29 2122.82,468.899 2134.08,461.508 2145.34,454.116 2156.6,446.725 2167.86,439.334 2179.11,431.943 2190.37,424.552 2201.63,417.161 2212.89,409.77 2224.15,402.379 2235.41,394.988 2246.67,387.596 2257.93,380.205 2269.19,372.814 2280.45,365.423 2291.71,358.032 2302.97,350.641 2314.23,343.25 2325.49,335.859 2336.75,328.468 2348.01,321.076 2359.27,313.685 2370.53,306.294 2381.79,298.903 2393.05,291.512 2404.31,284.121 2415.57,276.73 2426.82,269.339 2438.08,261.948 2449.34,254.556 2460.6,247.165 2471.86,239.774 2483.12,232.383 2494.38,224.992 2505.64,217.601 2516.9,210.21 2528.16,202.819 2539.42,195.427 2550.68,188.036 2561.94,180.645 2573.2,173.254 "/>
<path clip-path="url(#clip160)" d="M333.3 336.856 L1066.95 336.856 L1066.95 181.336 L333.3 181.336  Z" fill="#ffffff" fill-rule="evenodd" fill-opacity="1"/>
<polyline clip-path="url(#clip160)" style="stroke:#000000; stroke-linecap:round; stroke-linejoin:round; stroke-width:4; stroke-opacity:1; fill:none" points="333.3,336.856 1066.95,336.856 1066.95,181.336 333.3,181.336 333.3,336.856 "/>
<polyline clip-path="url(#clip160)" style="stroke:#0000ff; stroke-linecap:round; stroke-linejoin:round; stroke-width:4; stroke-opacity:0.7; fill:none" points="359.823,233.176 518.958,233.176 "/>
<path clip-path="url(#clip160)" d="M567.725 217.031 L567.725 221.591 Q565.063 220.318 562.702 219.693 Q560.341 219.068 558.142 219.068 Q554.323 219.068 552.239 220.549 Q550.179 222.031 550.179 224.762 Q550.179 227.054 551.545 228.234 Q552.934 229.392 556.776 230.109 L559.601 230.688 Q564.832 231.683 567.309 234.206 Q569.809 236.706 569.809 240.919 Q569.809 245.942 566.429 248.535 Q563.073 251.128 556.568 251.128 Q554.114 251.128 551.337 250.572 Q548.582 250.016 545.619 248.929 L545.619 244.114 Q548.466 245.711 551.198 246.521 Q553.929 247.331 556.568 247.331 Q560.573 247.331 562.749 245.757 Q564.925 244.183 564.925 241.267 Q564.925 238.72 563.351 237.285 Q561.8 235.85 558.235 235.132 L555.388 234.577 Q550.156 233.535 547.818 231.313 Q545.48 229.091 545.48 225.132 Q545.48 220.549 548.698 217.91 Q551.939 215.271 557.61 215.271 Q560.04 215.271 562.563 215.711 Q565.087 216.151 567.725 217.031 Z" fill="#000000" fill-rule="nonzero" fill-opacity="1" /><path clip-path="url(#clip160)" d="M581.128 217.169 L581.128 224.531 L589.901 224.531 L589.901 227.841 L581.128 227.841 L581.128 241.915 Q581.128 245.086 581.985 245.989 Q582.864 246.891 585.526 246.891 L589.901 246.891 L589.901 250.456 L585.526 250.456 Q580.596 250.456 578.721 248.628 Q576.846 246.776 576.846 241.915 L576.846 227.841 L573.721 227.841 L573.721 224.531 L576.846 224.531 L576.846 217.169 L581.128 217.169 Z" fill="#000000" fill-rule="nonzero" fill-opacity="1" /><path clip-path="url(#clip160)" d="M605.549 227.517 Q602.123 227.517 600.133 230.202 Q598.142 232.864 598.142 237.517 Q598.142 242.169 600.11 244.854 Q602.1 247.516 605.549 247.516 Q608.952 247.516 610.943 244.831 Q612.934 242.146 612.934 237.517 Q612.934 232.91 610.943 230.225 Q608.952 227.517 605.549 227.517 M605.549 223.906 Q611.105 223.906 614.276 227.517 Q617.447 231.128 617.447 237.517 Q617.447 243.882 614.276 247.516 Q611.105 251.128 605.549 251.128 Q599.971 251.128 596.799 247.516 Q593.651 243.882 593.651 237.517 Q593.651 231.128 596.799 227.517 Q599.971 223.906 605.549 223.906 Z" fill="#000000" fill-rule="nonzero" fill-opacity="1" /><path clip-path="url(#clip160)" d="M643.165 225.526 L643.165 229.507 Q641.359 228.512 639.531 228.026 Q637.725 227.517 635.873 227.517 Q631.73 227.517 629.438 230.155 Q627.146 232.771 627.146 237.517 Q627.146 242.262 629.438 244.901 Q631.73 247.516 635.873 247.516 Q637.725 247.516 639.531 247.03 Q641.359 246.521 643.165 245.526 L643.165 249.461 Q641.383 250.294 639.461 250.711 Q637.563 251.128 635.41 251.128 Q629.554 251.128 626.105 247.447 Q622.656 243.767 622.656 237.517 Q622.656 231.174 626.128 227.54 Q629.623 223.906 635.688 223.906 Q637.656 223.906 639.531 224.322 Q641.406 224.716 643.165 225.526 Z" fill="#000000" fill-rule="nonzero" fill-opacity="1" /><path clip-path="url(#clip160)" d="M672.123 234.808 L672.123 250.456 L667.864 250.456 L667.864 234.947 Q667.864 231.267 666.429 229.438 Q664.993 227.609 662.123 227.609 Q658.674 227.609 656.683 229.808 Q654.693 232.007 654.693 235.804 L654.693 250.456 L650.41 250.456 L650.41 214.438 L654.693 214.438 L654.693 228.558 Q656.22 226.22 658.281 225.063 Q660.364 223.906 663.072 223.906 Q667.54 223.906 669.831 226.683 Q672.123 229.438 672.123 234.808 Z" fill="#000000" fill-rule="nonzero" fill-opacity="1" /><path clip-path="url(#clip160)" d="M692.401 237.424 Q687.239 237.424 685.248 238.604 Q683.257 239.785 683.257 242.632 Q683.257 244.901 684.739 246.243 Q686.243 247.563 688.813 247.563 Q692.354 247.563 694.484 245.063 Q696.637 242.54 696.637 238.373 L696.637 237.424 L692.401 237.424 M700.896 235.665 L700.896 250.456 L696.637 250.456 L696.637 246.521 Q695.179 248.882 693.003 250.016 Q690.827 251.128 687.679 251.128 Q683.697 251.128 681.336 248.905 Q678.998 246.66 678.998 242.91 Q678.998 238.535 681.915 236.313 Q684.854 234.091 690.665 234.091 L696.637 234.091 L696.637 233.674 Q696.637 230.734 694.692 229.137 Q692.771 227.517 689.276 227.517 Q687.054 227.517 684.947 228.049 Q682.841 228.581 680.896 229.646 L680.896 225.711 Q683.234 224.808 685.433 224.368 Q687.632 223.906 689.716 223.906 Q695.341 223.906 698.118 226.822 Q700.896 229.739 700.896 235.665 Z" fill="#000000" fill-rule="nonzero" fill-opacity="1" /><path clip-path="url(#clip160)" d="M726.197 225.294 L726.197 229.322 Q724.391 228.396 722.447 227.933 Q720.502 227.47 718.419 227.47 Q715.248 227.47 713.651 228.443 Q712.077 229.415 712.077 231.359 Q712.077 232.841 713.211 233.697 Q714.345 234.53 717.771 235.294 L719.229 235.618 Q723.766 236.591 725.664 238.373 Q727.586 240.132 727.586 243.304 Q727.586 246.915 724.715 249.021 Q721.868 251.128 716.868 251.128 Q714.785 251.128 712.516 250.711 Q710.271 250.317 707.771 249.507 L707.771 245.109 Q710.132 246.336 712.424 246.961 Q714.715 247.563 716.961 247.563 Q719.97 247.563 721.59 246.544 Q723.211 245.503 723.211 243.628 Q723.211 241.892 722.03 240.966 Q720.873 240.04 716.915 239.183 L715.433 238.836 Q711.475 238.003 709.715 236.29 Q707.956 234.554 707.956 231.544 Q707.956 227.887 710.549 225.896 Q713.141 223.906 717.91 223.906 Q720.271 223.906 722.354 224.253 Q724.438 224.6 726.197 225.294 Z" fill="#000000" fill-rule="nonzero" fill-opacity="1" /><path clip-path="url(#clip160)" d="M738.581 217.169 L738.581 224.531 L747.354 224.531 L747.354 227.841 L738.581 227.841 L738.581 241.915 Q738.581 245.086 739.438 245.989 Q740.317 246.891 742.979 246.891 L747.354 246.891 L747.354 250.456 L742.979 250.456 Q738.049 250.456 736.174 248.628 Q734.299 246.776 734.299 241.915 L734.299 227.841 L731.174 227.841 L731.174 224.531 L734.299 224.531 L734.299 217.169 L738.581 217.169 Z" fill="#000000" fill-rule="nonzero" fill-opacity="1" /><path clip-path="url(#clip160)" d="M752.956 224.531 L757.215 224.531 L757.215 250.456 L752.956 250.456 L752.956 224.531 M752.956 214.438 L757.215 214.438 L757.215 219.831 L752.956 219.831 L752.956 214.438 Z" fill="#000000" fill-rule="nonzero" fill-opacity="1" /><path clip-path="url(#clip160)" d="M784.785 225.526 L784.785 229.507 Q782.979 228.512 781.15 228.026 Q779.345 227.517 777.493 227.517 Q773.349 227.517 771.058 230.155 Q768.766 232.771 768.766 237.517 Q768.766 242.262 771.058 244.901 Q773.349 247.516 777.493 247.516 Q779.345 247.516 781.15 247.03 Q782.979 246.521 784.785 245.526 L784.785 249.461 Q783.002 250.294 781.081 250.711 Q779.183 251.128 777.03 251.128 Q771.173 251.128 767.724 247.447 Q764.275 243.767 764.275 237.517 Q764.275 231.174 767.748 227.54 Q771.243 223.906 777.308 223.906 Q779.275 223.906 781.15 224.322 Q783.025 224.716 784.785 225.526 Z" fill="#000000" fill-rule="nonzero" fill-opacity="1" /><polyline clip-path="url(#clip160)" style="stroke:#ff0000; stroke-linecap:round; stroke-linejoin:round; stroke-width:8; stroke-opacity:1; fill:none" stroke-dasharray="32, 20" points="359.823,285.016 518.958,285.016 "/>
<path clip-path="url(#clip160)" d="M550.156 271.579 L550.156 298.454 L555.804 298.454 Q562.957 298.454 566.267 295.213 Q569.6 291.972 569.6 284.982 Q569.6 278.037 566.267 274.82 Q562.957 271.579 555.804 271.579 L550.156 271.579 M545.48 267.736 L555.087 267.736 Q565.133 267.736 569.832 271.926 Q574.531 276.093 574.531 284.982 Q574.531 293.917 569.809 298.106 Q565.087 302.296 555.087 302.296 L545.48 302.296 L545.48 267.736 Z" fill="#000000" fill-rule="nonzero" fill-opacity="1" /><path clip-path="url(#clip160)" d="M603.975 288.269 L603.975 290.352 L584.392 290.352 Q584.67 294.75 587.031 297.065 Q589.415 299.356 593.651 299.356 Q596.105 299.356 598.397 298.755 Q600.711 298.153 602.98 296.949 L602.98 300.977 Q600.688 301.949 598.281 302.458 Q595.873 302.968 593.397 302.968 Q587.193 302.968 583.559 299.356 Q579.948 295.745 579.948 289.588 Q579.948 283.222 583.374 279.495 Q586.823 275.746 592.656 275.746 Q597.887 275.746 600.92 279.125 Q603.975 282.482 603.975 288.269 M599.716 287.019 Q599.67 283.523 597.748 281.44 Q595.85 279.357 592.702 279.357 Q589.137 279.357 586.985 281.37 Q584.855 283.384 584.531 287.042 L599.716 287.019 Z" fill="#000000" fill-rule="nonzero" fill-opacity="1" /><path clip-path="url(#clip160)" d="M615.179 269.009 L615.179 276.371 L623.952 276.371 L623.952 279.681 L615.179 279.681 L615.179 293.755 Q615.179 296.926 616.035 297.829 Q616.915 298.731 619.577 298.731 L623.952 298.731 L623.952 302.296 L619.577 302.296 Q614.647 302.296 612.772 300.468 Q610.897 298.616 610.897 293.755 L610.897 279.681 L607.772 279.681 L607.772 276.371 L610.897 276.371 L610.897 269.009 L615.179 269.009 Z" fill="#000000" fill-rule="nonzero" fill-opacity="1" /><path clip-path="url(#clip160)" d="M651.73 288.269 L651.73 290.352 L632.146 290.352 Q632.424 294.75 634.785 297.065 Q637.17 299.356 641.406 299.356 Q643.859 299.356 646.151 298.755 Q648.466 298.153 650.734 296.949 L650.734 300.977 Q648.443 301.949 646.035 302.458 Q643.628 302.968 641.151 302.968 Q634.947 302.968 631.313 299.356 Q627.702 295.745 627.702 289.588 Q627.702 283.222 631.128 279.495 Q634.577 275.746 640.41 275.746 Q645.642 275.746 648.674 279.125 Q651.73 282.482 651.73 288.269 M647.47 287.019 Q647.424 283.523 645.503 281.44 Q643.605 279.357 640.457 279.357 Q636.892 279.357 634.739 281.37 Q632.609 283.384 632.285 287.042 L647.47 287.019 Z" fill="#000000" fill-rule="nonzero" fill-opacity="1" /><path clip-path="url(#clip160)" d="M673.743 280.352 Q673.026 279.935 672.169 279.75 Q671.336 279.542 670.318 279.542 Q666.706 279.542 664.762 281.903 Q662.841 284.241 662.841 288.639 L662.841 302.296 L658.558 302.296 L658.558 276.371 L662.841 276.371 L662.841 280.398 Q664.183 278.037 666.336 276.903 Q668.489 275.746 671.568 275.746 Q672.007 275.746 672.54 275.815 Q673.072 275.861 673.72 275.977 L673.743 280.352 Z" fill="#000000" fill-rule="nonzero" fill-opacity="1" /><path clip-path="url(#clip160)" d="M697.563 281.347 Q699.16 278.477 701.382 277.111 Q703.604 275.746 706.614 275.746 Q710.665 275.746 712.864 278.593 Q715.063 281.417 715.063 286.648 L715.063 302.296 L710.78 302.296 L710.78 286.787 Q710.78 283.06 709.461 281.255 Q708.141 279.449 705.433 279.449 Q702.123 279.449 700.202 281.648 Q698.28 283.847 698.28 287.644 L698.28 302.296 L693.998 302.296 L693.998 286.787 Q693.998 283.037 692.679 281.255 Q691.359 279.449 688.604 279.449 Q685.341 279.449 683.419 281.671 Q681.498 283.87 681.498 287.644 L681.498 302.296 L677.216 302.296 L677.216 276.371 L681.498 276.371 L681.498 280.398 Q682.956 278.014 684.993 276.88 Q687.03 275.746 689.831 275.746 Q692.655 275.746 694.623 277.181 Q696.614 278.616 697.563 281.347 Z" fill="#000000" fill-rule="nonzero" fill-opacity="1" /><path clip-path="url(#clip160)" d="M723.558 276.371 L727.817 276.371 L727.817 302.296 L723.558 302.296 L723.558 276.371 M723.558 266.278 L727.817 266.278 L727.817 271.671 L723.558 271.671 L723.558 266.278 Z" fill="#000000" fill-rule="nonzero" fill-opacity="1" /><path clip-path="url(#clip160)" d="M758.28 286.648 L758.28 302.296 L754.021 302.296 L754.021 286.787 Q754.021 283.107 752.586 281.278 Q751.15 279.449 748.28 279.449 Q744.831 279.449 742.84 281.648 Q740.85 283.847 740.85 287.644 L740.85 302.296 L736.567 302.296 L736.567 276.371 L740.85 276.371 L740.85 280.398 Q742.377 278.06 744.438 276.903 Q746.521 275.746 749.229 275.746 Q753.697 275.746 755.988 278.523 Q758.28 281.278 758.28 286.648 Z" fill="#000000" fill-rule="nonzero" fill-opacity="1" /><path clip-path="url(#clip160)" d="M766.775 276.371 L771.035 276.371 L771.035 302.296 L766.775 302.296 L766.775 276.371 M766.775 266.278 L771.035 266.278 L771.035 271.671 L766.775 271.671 L766.775 266.278 Z" fill="#000000" fill-rule="nonzero" fill-opacity="1" /><path clip-path="url(#clip160)" d="M796.474 277.134 L796.474 281.162 Q794.669 280.236 792.724 279.773 Q790.78 279.31 788.697 279.31 Q785.525 279.31 783.928 280.283 Q782.354 281.255 782.354 283.199 Q782.354 284.681 783.488 285.537 Q784.622 286.37 788.048 287.134 L789.507 287.458 Q794.044 288.431 795.942 290.213 Q797.863 291.972 797.863 295.144 Q797.863 298.755 794.993 300.861 Q792.146 302.968 787.146 302.968 Q785.062 302.968 782.794 302.551 Q780.548 302.157 778.048 301.347 L778.048 296.949 Q780.41 298.176 782.701 298.801 Q784.993 299.403 787.238 299.403 Q790.247 299.403 791.868 298.384 Q793.488 297.343 793.488 295.468 Q793.488 293.732 792.308 292.806 Q791.15 291.88 787.192 291.023 L785.71 290.676 Q781.752 289.843 779.993 288.13 Q778.234 286.394 778.234 283.384 Q778.234 279.727 780.826 277.736 Q783.419 275.746 788.187 275.746 Q790.548 275.746 792.632 276.093 Q794.715 276.44 796.474 277.134 Z" fill="#000000" fill-rule="nonzero" fill-opacity="1" /><path clip-path="url(#clip160)" d="M808.858 269.009 L808.858 276.371 L817.632 276.371 L817.632 279.681 L808.858 279.681 L808.858 293.755 Q808.858 296.926 809.715 297.829 Q810.595 298.731 813.257 298.731 L817.632 298.731 L817.632 302.296 L813.257 302.296 Q808.326 302.296 806.451 300.468 Q804.576 298.616 804.576 293.755 L804.576 279.681 L801.451 279.681 L801.451 276.371 L804.576 276.371 L804.576 269.009 L808.858 269.009 Z" fill="#000000" fill-rule="nonzero" fill-opacity="1" /><path clip-path="url(#clip160)" d="M823.233 276.371 L827.493 276.371 L827.493 302.296 L823.233 302.296 L823.233 276.371 M823.233 266.278 L827.493 266.278 L827.493 271.671 L823.233 271.671 L823.233 266.278 Z" fill="#000000" fill-rule="nonzero" fill-opacity="1" /><path clip-path="url(#clip160)" d="M855.062 277.366 L855.062 281.347 Q853.256 280.352 851.428 279.866 Q849.622 279.357 847.77 279.357 Q843.627 279.357 841.335 281.995 Q839.043 284.611 839.043 289.357 Q839.043 294.102 841.335 296.741 Q843.627 299.356 847.77 299.356 Q849.622 299.356 851.428 298.87 Q853.256 298.361 855.062 297.366 L855.062 301.301 Q853.28 302.134 851.358 302.551 Q849.46 302.968 847.307 302.968 Q841.451 302.968 838.002 299.287 Q834.553 295.607 834.553 289.357 Q834.553 283.014 838.025 279.38 Q841.52 275.746 847.585 275.746 Q849.553 275.746 851.428 276.162 Q853.303 276.556 855.062 277.366 Z" fill="#000000" fill-rule="nonzero" fill-opacity="1" /><path clip-path="url(#clip160)" d="M887.77 266.324 Q884.668 271.648 883.164 276.857 Q881.659 282.065 881.659 287.412 Q881.659 292.759 883.164 298.014 Q884.691 303.245 887.77 308.546 L884.066 308.546 Q880.594 303.106 878.858 297.852 Q877.145 292.597 877.145 287.412 Q877.145 282.25 878.858 277.019 Q880.571 271.787 884.066 266.324 L887.77 266.324 Z" fill="#000000" fill-rule="nonzero" fill-opacity="1" /><path clip-path="url(#clip160)" d="M916.219 281.347 Q917.816 278.477 920.038 277.111 Q922.261 275.746 925.27 275.746 Q929.321 275.746 931.52 278.593 Q933.719 281.417 933.719 286.648 L933.719 302.296 L929.437 302.296 L929.437 286.787 Q929.437 283.06 928.117 281.255 Q926.798 279.449 924.089 279.449 Q920.779 279.449 918.858 281.648 Q916.937 283.847 916.937 287.644 L916.937 302.296 L912.654 302.296 L912.654 286.787 Q912.654 283.037 911.335 281.255 Q910.015 279.449 907.261 279.449 Q903.997 279.449 902.076 281.671 Q900.154 283.87 900.154 287.644 L900.154 302.296 L895.872 302.296 L895.872 276.371 L900.154 276.371 L900.154 280.398 Q901.613 278.014 903.65 276.88 Q905.687 275.746 908.488 275.746 Q911.312 275.746 913.279 277.181 Q915.27 278.616 916.219 281.347 Z" fill="#000000" fill-rule="nonzero" fill-opacity="1" /><path clip-path="url(#clip160)" d="M964.39 288.269 L964.39 290.352 L944.807 290.352 Q945.085 294.75 947.446 297.065 Q949.83 299.356 954.066 299.356 Q956.52 299.356 958.811 298.755 Q961.126 298.153 963.395 296.949 L963.395 300.977 Q961.103 301.949 958.696 302.458 Q956.288 302.968 953.811 302.968 Q947.608 302.968 943.973 299.356 Q940.362 295.745 940.362 289.588 Q940.362 283.222 943.788 279.495 Q947.237 275.746 953.071 275.746 Q958.302 275.746 961.334 279.125 Q964.39 282.482 964.39 288.269 M960.131 287.019 Q960.085 283.523 958.163 281.44 Q956.265 279.357 953.117 279.357 Q949.552 279.357 947.399 281.37 Q945.27 283.384 944.946 287.042 L960.131 287.019 Z" fill="#000000" fill-rule="nonzero" fill-opacity="1" /><path clip-path="url(#clip160)" d="M983.163 289.264 Q978.001 289.264 976.01 290.444 Q974.02 291.625 974.02 294.472 Q974.02 296.741 975.501 298.083 Q977.006 299.403 979.575 299.403 Q983.117 299.403 985.246 296.903 Q987.399 294.38 987.399 290.213 L987.399 289.264 L983.163 289.264 M991.658 287.505 L991.658 302.296 L987.399 302.296 L987.399 298.361 Q985.941 300.722 983.765 301.856 Q981.589 302.968 978.441 302.968 Q974.459 302.968 972.098 300.745 Q969.76 298.5 969.76 294.75 Q969.76 290.375 972.677 288.153 Q975.617 285.931 981.427 285.931 L987.399 285.931 L987.399 285.514 Q987.399 282.574 985.455 280.977 Q983.533 279.357 980.038 279.357 Q977.816 279.357 975.709 279.889 Q973.603 280.421 971.659 281.486 L971.659 277.551 Q973.996 276.648 976.196 276.208 Q978.395 275.746 980.478 275.746 Q986.103 275.746 988.881 278.662 Q991.658 281.579 991.658 287.505 Z" fill="#000000" fill-rule="nonzero" fill-opacity="1" /><path clip-path="url(#clip160)" d="M1021.98 286.648 L1021.98 302.296 L1017.72 302.296 L1017.72 286.787 Q1017.72 283.107 1016.29 281.278 Q1014.85 279.449 1011.98 279.449 Q1008.53 279.449 1006.54 281.648 Q1004.55 283.847 1004.55 287.644 L1004.55 302.296 L1000.27 302.296 L1000.27 276.371 L1004.55 276.371 L1004.55 280.398 Q1006.08 278.06 1008.14 276.903 Q1010.22 275.746 1012.93 275.746 Q1017.4 275.746 1019.69 278.523 Q1021.98 281.278 1021.98 286.648 Z" fill="#000000" fill-rule="nonzero" fill-opacity="1" /><path clip-path="url(#clip160)" d="M1029.81 266.324 L1033.51 266.324 Q1036.98 271.787 1038.7 277.019 Q1040.43 282.25 1040.43 287.412 Q1040.43 292.597 1038.7 297.852 Q1036.98 303.106 1033.51 308.546 L1029.81 308.546 Q1032.89 303.245 1034.39 298.014 Q1035.92 292.759 1035.92 287.412 Q1035.92 282.065 1034.39 276.857 Q1032.89 271.648 1029.81 266.324 Z" fill="#000000" fill-rule="nonzero" fill-opacity="1" /></svg>
